<?xml version="1.0" encoding="UTF-8" standalone="no"?>
<!DOCTYPE svg PUBLIC "-//W3C//DTD SVG 1.1//EN"
 "http://www.w3.org/Graphics/SVG/1.1/DTD/svg11.dtd">
<!-- Generated by graphviz version 2.28.0 (20120217.0315)
 -->
<!-- Title: G Pages: 1 -->
<svg width="364pt" height="84pt"
 viewBox="0.00 0.00 364.00 84.00" xmlns="http://www.w3.org/2000/svg" xmlns:xlink="http://www.w3.org/1999/xlink">
<g id="graph1" class="graph" transform="scale(1 1) rotate(0) translate(4 80)">
<title>G</title>
<!-- Node1 -->
<g id="node1" class="node"><title>Node1</title>
<polygon fill="#bfbfbf" stroke="black" points="94.5,-56.5 94.5,-75.5 219.5,-75.5 219.5,-56.5 94.5,-56.5"/>
<text text-anchor="middle" x="157" y="-63.5" font-family="DejaVuSansMono" font-size="10.00">src/xmp3_options.h</text>
</g>
<!-- Node2 -->
<g id="node3" class="node"><title>Node2</title>
<a xlink:href="../../d0/d29/main_8c.html" target="_top" xlink:title="Main function and argument parsing.">
<polygon fill="none" stroke="black" points="-0.5,-0.5 -0.5,-19.5 76.5,-19.5 76.5,-0.5 -0.5,-0.5"/>
<text text-anchor="middle" x="38" y="-7.5" font-family="DejaVuSansMono" font-size="10.00">src/main.c</text>
</a>
</g>
<!-- Node1&#45;&gt;Node2 -->
<g id="edge2" class="edge"><title>Node1&#45;&gt;Node2</title>
<path fill="none" stroke="midnightblue" d="M128.863,-52.2321C106.604,-42.1312 76.1442,-28.3091 56.7677,-19.5164"/>
<polygon fill="midnightblue" stroke="midnightblue" points="127.591,-55.4984 138.144,-56.4435 130.484,-49.124 127.591,-55.4984"/>
</g>
<!-- Node3 -->
<g id="node5" class="node"><title>Node3</title>
<a xlink:href="../../dd/d68/xmp3__options_8c.html" target="_top" xlink:title="Functions for maintaining settings for XMP3.">
<polygon fill="none" stroke="black" points="94.5,-0.5 94.5,-19.5 219.5,-19.5 219.5,-0.5 94.5,-0.5"/>
<text text-anchor="middle" x="157" y="-7.5" font-family="DejaVuSansMono" font-size="10.00">src/xmp3_options.c</text>
</a>
</g>
<!-- Node1&#45;&gt;Node3 -->
<g id="edge4" class="edge"><title>Node1&#45;&gt;Node3</title>
<path fill="none" stroke="midnightblue" d="M157,-45.8045C157,-36.9102 157,-26.7798 157,-19.7511"/>
<polygon fill="midnightblue" stroke="midnightblue" points="153.5,-46.083 157,-56.083 160.5,-46.083 153.5,-46.083"/>
</g>
<!-- Node4 -->
<g id="node7" class="node"><title>Node4</title>
<a xlink:href="../../d0/df0/xmpp__server_8c.html" target="_top" xlink:title="Main XMPP server data/functions.">
<polygon fill="none" stroke="black" points="237.5,-0.5 237.5,-19.5 356.5,-19.5 356.5,-0.5 237.5,-0.5"/>
<text text-anchor="middle" x="297" y="-7.5" font-family="DejaVuSansMono" font-size="10.00">src/xmpp_server.c</text>
</a>
</g>
<!-- Node1&#45;&gt;Node4 -->
<g id="edge6" class="edge"><title>Node1&#45;&gt;Node4</title>
<path fill="none" stroke="midnightblue" d="M188.702,-52.772C215,-42.6287 251.716,-28.4669 274.92,-19.5164"/>
<polygon fill="midnightblue" stroke="midnightblue" points="187.254,-49.5792 179.183,-56.4435 189.773,-56.1103 187.254,-49.5792"/>
</g>
</g>
</svg>
