<?xml version="1.0" encoding="UTF-8" standalone="no"?>
<!DOCTYPE svg PUBLIC "-//W3C//DTD SVG 1.1//EN"
 "http://www.w3.org/Graphics/SVG/1.1/DTD/svg11.dtd">
<!-- Generated by graphviz version 2.28.0 (20120217.0315)
 -->
<!-- Title: G Pages: 1 -->
<!--zoomable 84 -->
<svg id="main" version="1.1" xmlns="http://www.w3.org/2000/svg" xmlns:xlink="http://www.w3.org/1999/xlink" xml:space="preserve" onload="init(evt)">
        <defs>
                <circle id="rim" cx="0" cy="0" r="7"/>
                <circle id="rim2" cx="0" cy="0" r="3.5"/>
                <g id="zoomPlus">
                        <use xlink:href="#rim" fill="#404040">
                                <set attributeName="fill" to="#808080" begin="zoomplus.mouseover" end="zoomplus.mouseout"/>
                        </use>
                        <path d="M-4,0h8M0,-4v8" fill="none" stroke="white" stroke-width="1.5" pointer-events="none"/>
                </g>
                <g id="zoomMin">
                        <use xlink:href="#rim" fill="#404040">
                                <set attributeName="fill" to="#808080" begin="zoomminus.mouseover" end="zoomminus.mouseout"/>
                        </use>
                        <path d="M-4,0h8" fill="none" stroke="white" stroke-width="1.5" pointer-events="none"/>
                </g>
                <g id="dirArrow">
                        <path fill="none" stroke="white" stroke-width="1.5" d="M0,-3.0v7 M-2.5,-0.5L0,-3.0L2.5,-0.5"/>
                </g>
               <g id="resetDef">
                       <use xlink:href="#rim2" fill="#404040">
                               <set attributeName="fill" to="#808080" begin="reset.mouseover" end="reset.mouseout"/>
                       </use>
               </g>
        </defs>

<script type="text/javascript">
var viewWidth = 721;
var viewHeight = 84;
var sectionId = 'dynsection-0';
</script>
<script xlink:href="../../svgpan.js"/>
<svg id="graph" class="graph">
<g id="viewport">
<title>G</title>
<!-- Node1 -->
<g id="node1" class="node"><title>Node1</title>
<polygon fill="#bfbfbf" stroke="black" points="266.5,-56.5 266.5,-75.5 385.5,-75.5 385.5,-56.5 266.5,-56.5"/>
<text text-anchor="middle" x="326" y="-63.5" font-family="DejaVuSansMono" font-size="10.00">src/xmpp_client.h</text>
</g>
<!-- Node2 -->
<g id="node3" class="node"><title>Node2</title>
<a xlink:href="../../d0/d29/main_8c.html" target="_top" xlink:title="Main function and argument parsing.">
<polygon fill="none" stroke="black" points="-0.5,-0.5 -0.5,-19.5 76.5,-19.5 76.5,-0.5 -0.5,-0.5"/>
<text text-anchor="middle" x="38" y="-7.5" font-family="DejaVuSansMono" font-size="10.00">src/main.c</text>
</a>
</g>
<!-- Node1&#45;&gt;Node2 -->
<g id="edge2" class="edge"><title>Node1&#45;&gt;Node2</title>
<path fill="none" stroke="midnightblue" d="M269.735,-54.5699C220.884,-45.4959 148.253,-31.9614 85,-20 82.3061,-19.4906 79.5258,-18.9629 76.726,-18.4302"/>
<polygon fill="midnightblue" stroke="midnightblue" points="269.316,-58.0517 279.787,-56.4363 270.594,-51.1694 269.316,-58.0517"/>
</g>
<!-- Node3 -->
<g id="node5" class="node"><title>Node3</title>
<a xlink:href="../../d7/d71/xep__muc_8c.html" target="_top" xlink:title="Implements XEP&#45;0045 Multi&#45;User Chat.">
<polygon fill="none" stroke="black" points="94.5,-0.5 94.5,-19.5 189.5,-19.5 189.5,-0.5 94.5,-0.5"/>
<text text-anchor="middle" x="142" y="-7.5" font-family="DejaVuSansMono" font-size="10.00">src/xep_muc.c</text>
</a>
</g>
<!-- Node1&#45;&gt;Node3 -->
<g id="edge4" class="edge"><title>Node1&#45;&gt;Node3</title>
<path fill="none" stroke="midnightblue" d="M287.046,-53.5677C252.335,-43.381 202.323,-28.7034 171.019,-19.5164"/>
<polygon fill="midnightblue" stroke="midnightblue" points="286.264,-56.9858 296.845,-56.4435 288.235,-50.2691 286.264,-56.9858"/>
</g>
<!-- Node4 -->
<g id="node7" class="node"><title>Node4</title>
<a xlink:href="../../df/da9/xmpp__auth_8c.html" target="_top" xlink:title="Implement initial XMPP authendication.">
<polygon fill="none" stroke="black" points="207.5,-0.5 207.5,-19.5 314.5,-19.5 314.5,-0.5 207.5,-0.5"/>
<text text-anchor="middle" x="261" y="-7.5" font-family="DejaVuSansMono" font-size="10.00">src/xmpp_auth.c</text>
</a>
</g>
<!-- Node1&#45;&gt;Node4 -->
<g id="edge6" class="edge"><title>Node1&#45;&gt;Node4</title>
<path fill="none" stroke="midnightblue" d="M307.727,-49.8197C296.082,-40.1452 281.401,-27.9481 271.633,-19.8339"/>
<polygon fill="midnightblue" stroke="midnightblue" points="305.628,-52.6259 315.557,-56.324 310.101,-47.2416 305.628,-52.6259"/>
</g>
<!-- Node5 -->
<g id="node9" class="node"><title>Node5</title>
<a xlink:href="../../dd/d4d/xmpp__client_8c.html" target="_top" xlink:title="A connected XMPP server client.">
<polygon fill="none" stroke="black" points="332.5,-0.5 332.5,-19.5 451.5,-19.5 451.5,-0.5 332.5,-0.5"/>
<text text-anchor="middle" x="392" y="-7.5" font-family="DejaVuSansMono" font-size="10.00">src/xmpp_client.c</text>
</a>
</g>
<!-- Node1&#45;&gt;Node5 -->
<g id="edge8" class="edge"><title>Node1&#45;&gt;Node5</title>
<path fill="none" stroke="midnightblue" d="M344.554,-49.8197C356.378,-40.1452 371.286,-27.9481 381.203,-19.8339"/>
<polygon fill="midnightblue" stroke="midnightblue" points="342.127,-47.2827 336.604,-56.324 346.56,-52.7004 342.127,-47.2827"/>
</g>
<!-- Node6 -->
<g id="node11" class="node"><title>Node6</title>
<a xlink:href="../../d6/d13/xmpp__core_8c.html" target="_top" xlink:title="Handles base stanza routing.">
<polygon fill="none" stroke="black" points="469.5,-0.5 469.5,-19.5 576.5,-19.5 576.5,-0.5 469.5,-0.5"/>
<text text-anchor="middle" x="523" y="-7.5" font-family="DejaVuSansMono" font-size="10.00">src/xmpp_core.c</text>
</a>
</g>
<!-- Node1&#45;&gt;Node6 -->
<g id="edge10" class="edge"><title>Node1&#45;&gt;Node6</title>
<path fill="none" stroke="midnightblue" d="M367.229,-53.6986C404.409,-43.507 458.271,-28.7429 491.931,-19.5164"/>
<polygon fill="midnightblue" stroke="midnightblue" points="365.934,-50.4244 357.215,-56.4435 367.785,-57.1754 365.934,-50.4244"/>
</g>
<!-- Node7 -->
<g id="node13" class="node"><title>Node7</title>
<a xlink:href="../../d0/df0/xmpp__server_8c.html" target="_top" xlink:title="Main XMPP server data/functions.">
<polygon fill="none" stroke="black" points="594.5,-0.5 594.5,-19.5 713.5,-19.5 713.5,-0.5 594.5,-0.5"/>
<text text-anchor="middle" x="654" y="-7.5" font-family="DejaVuSansMono" font-size="10.00">src/xmpp_server.c</text>
</a>
</g>
<!-- Node1&#45;&gt;Node7 -->
<g id="edge12" class="edge"><title>Node1&#45;&gt;Node7</title>
<path fill="none" stroke="midnightblue" d="M388.012,-54.7907C449.99,-44.587 544.193,-29.078 602.271,-19.5164"/>
<polygon fill="midnightblue" stroke="midnightblue" points="387.271,-51.3655 377.973,-56.4435 388.408,-58.2725 387.271,-51.3655"/>
</g>
</g>
</svg>
        <g id="navigator" transform="translate(0 0)" fill="#404254">
                <rect fill="#f2f5e9" fill-opacity="0.5" stroke="#606060" stroke-width=".5" x="0" y="0" width="60" height="60"/>
                <use id="zoomplus" xlink:href="#zoomPlus" x="17" y="9" onmousedown="handleZoom(evt,'in')"/>
                <use id="zoomminus" xlink:href="#zoomMin" x="42" y="9" onmousedown="handleZoom(evt,'out')"/>
                <use id="reset" xlink:href="#resetDef" x="30" y="36" onmousedown="handleReset()"/>
                <g id="arrowUp" xlink:href="#dirArrow" transform="translate(30 24)" onmousedown="handlePan(0,-1)">
                  <use xlink:href="#rim" fill="#404040">
                        <set attributeName="fill" to="#808080" begin="arrowUp.mouseover" end="arrowUp.mouseout"/>
                  </use>
                  <path fill="none" stroke="white" stroke-width="1.5" d="M0,-3.0v7 M-2.5,-0.5L0,-3.0L2.5,-0.5"/>
                </g>
                <g id="arrowRight" xlink:href="#dirArrow" transform="rotate(90) translate(36 -43)" onmousedown="handlePan(1,0)">
                  <use xlink:href="#rim" fill="#404040">
                        <set attributeName="fill" to="#808080" begin="arrowRight.mouseover" end="arrowRight.mouseout"/>
                  </use>
                  <path fill="none" stroke="white" stroke-width="1.5" d="M0,-3.0v7 M-2.5,-0.5L0,-3.0L2.5,-0.5"/>
                </g>
                <g id="arrowDown" xlink:href="#dirArrow" transform="rotate(180) translate(-30 -48)" onmousedown="handlePan(0,1)">
                  <use xlink:href="#rim" fill="#404040">
                        <set attributeName="fill" to="#808080" begin="arrowDown.mouseover" end="arrowDown.mouseout"/>
                  </use>
                  <path fill="none" stroke="white" stroke-width="1.5" d="M0,-3.0v7 M-2.5,-0.5L0,-3.0L2.5,-0.5"/>
                </g>
                <g id="arrowLeft" xlink:href="#dirArrow" transform="rotate(270) translate(-36 17)" onmousedown="handlePan(-1,0)">
                  <use xlink:href="#rim" fill="#404040">
                        <set attributeName="fill" to="#808080" begin="arrowLeft.mouseover" end="arrowLeft.mouseout"/>
                  </use>
                  <path fill="none" stroke="white" stroke-width="1.5" d="M0,-3.0v7 M-2.5,-0.5L0,-3.0L2.5,-0.5"/>
                </g>
        </g>
        <svg viewBox="0 0 25 25" width="100%" height="30px" preserveAspectRatio="xMaxYMin meet"> 
          <g id="printButton" transform="scale(0.4 0.4)" onmousedown="handlePrint(evt)">
            <rect height="23.33753581" id="paper" rx="2" style="fill:#f2f5e9;fill-rule:evenodd;stroke:#111111;stroke-width:3.224;stroke-linejoin:round;" transform="matrix(1.000000,0.000000,-0.339266,0.940691,0.000000,0.000000)" width="25.55231285" x="26.69387353" y="7.36162977"/>
            <rect height="26.272097" id="body" rx="2" style="fill:#404040;fill-rule:evenodd;stroke:#111111;stroke-width:3.125;stroke-linejoin:round;" width="50" x="4.5295201" y="27.078951"/>
            <rect height="8.27750969" id="tray" style="fill:#d2d5c9;fill-rule:evenodd;stroke:#111111;stroke-width:3.125;stroke-linecap:round;stroke-linejoin:round;" width="40" x="10.28778839" y="44.96812282"/>
          </g>
        </svg>
</svg>
