<?xml version="1.0" encoding="UTF-8" standalone="no"?>
<!DOCTYPE svg PUBLIC "-//W3C//DTD SVG 1.1//EN"
 "http://www.w3.org/Graphics/SVG/1.1/DTD/svg11.dtd">
<!-- Generated by graphviz version 2.28.0 (20120217.0315)
 -->
<!-- Title: G Pages: 1 -->
<!--zoomable 734 -->
<svg id="main" version="1.1" xmlns="http://www.w3.org/2000/svg" xmlns:xlink="http://www.w3.org/1999/xlink" xml:space="preserve" onload="init(evt)">
        <defs>
                <circle id="rim" cx="0" cy="0" r="7"/>
                <circle id="rim2" cx="0" cy="0" r="3.5"/>
                <g id="zoomPlus">
                        <use xlink:href="#rim" fill="#404040">
                                <set attributeName="fill" to="#808080" begin="zoomplus.mouseover" end="zoomplus.mouseout"/>
                        </use>
                        <path d="M-4,0h8M0,-4v8" fill="none" stroke="white" stroke-width="1.5" pointer-events="none"/>
                </g>
                <g id="zoomMin">
                        <use xlink:href="#rim" fill="#404040">
                                <set attributeName="fill" to="#808080" begin="zoomminus.mouseover" end="zoomminus.mouseout"/>
                        </use>
                        <path d="M-4,0h8" fill="none" stroke="white" stroke-width="1.5" pointer-events="none"/>
                </g>
                <g id="dirArrow">
                        <path fill="none" stroke="white" stroke-width="1.5" d="M0,-3.0v7 M-2.5,-0.5L0,-3.0L2.5,-0.5"/>
                </g>
               <g id="resetDef">
                       <use xlink:href="#rim2" fill="#404040">
                               <set attributeName="fill" to="#808080" begin="reset.mouseover" end="reset.mouseout"/>
                       </use>
               </g>
        </defs>

<script type="text/javascript">
var viewWidth = 1130;
var viewHeight = 734;
var sectionId = 'dynsection-3';
</script>
<script xlink:href="../../svgpan.js"/>
<svg id="graph" class="graph">
<g id="viewport">
<title>G</title>
<!-- Node1 -->
<g id="node1" class="node"><title>Node1</title>
<polygon fill="#bfbfbf" stroke="black" points="852.5,-158.5 852.5,-177.5 911.5,-177.5 911.5,-158.5 852.5,-158.5"/>
<text text-anchor="middle" x="882" y="-165.5" font-family="DejaVuSansMono" font-size="10.00">xep_muc</text>
</g>
<!-- Node2 -->
<g id="node2" class="node"><title>Node2</title>
<a xlink:href="../../d0/df0/xmpp__server_8c.html#d8/d34/structxmpp__server" target="_top" xlink:title="Holds data on a XMPP server (connected clients, routes, etc.).">
<polygon fill="none" stroke="black" points="660.5,-366.5 660.5,-385.5 743.5,-385.5 743.5,-366.5 660.5,-366.5"/>
<text text-anchor="middle" x="702" y="-373.5" font-family="DejaVuSansMono" font-size="10.00">xmpp_server</text>
</a>
</g>
<!-- Node2&#45;&gt;Node1 -->
<g id="edge2" class="edge"><title>Node2&#45;&gt;Node1</title>
<path fill="none" stroke="#9a32cd" stroke-dasharray="5,2" d="M717.965,-358.512C753.922,-316.496 844.277,-210.912 872.464,-177.974"/>
<polygon fill="#9a32cd" stroke="#9a32cd" points="715.189,-356.373 711.347,-366.247 720.508,-360.925 715.189,-356.373"/>
<text text-anchor="middle" x="790" y="-299" font-family="DejaVuSansMono" font-size="10.00"> server</text>
</g>
<!-- Node12 -->
<g id="node30" class="node"><title>Node12</title>
<a xlink:href="../../dd/d4d/xmpp__client_8c.html#de/de2/structxmpp__client" target="_top" xlink:title="Data on a connected client.">
<polygon fill="none" stroke="black" points="840.5,-502.5 840.5,-521.5 923.5,-521.5 923.5,-502.5 840.5,-502.5"/>
<text text-anchor="middle" x="882" y="-509.5" font-family="DejaVuSansMono" font-size="10.00">xmpp_client</text>
</a>
</g>
<!-- Node2&#45;&gt;Node12 -->
<g id="edge40" class="edge"><title>Node2&#45;&gt;Node12</title>
<path fill="none" stroke="#9a32cd" stroke-dasharray="5,2" d="M718.807,-393.059C731.487,-406.302 750.07,-424.746 768,-439 799.994,-464.435 841.051,-489.208 863.83,-502.339"/>
<polygon fill="#9a32cd" stroke="#9a32cd" points="721.144,-390.436 711.733,-385.569 716.055,-395.242 721.144,-390.436"/>
<text text-anchor="middle" x="790" y="-472" font-family="DejaVuSansMono" font-size="10.00"> server</text>
</g>
<!-- Node3 -->
<g id="node4" class="node"><title>Node3</title>
<a xlink:href="../../d0/df0/xmpp__server_8c.html#d4/d94/structstanza__route" target="_top" xlink:title="Holds data on how to send a stanza to a particular JID.">
<polygon fill="none" stroke="black" points="439.5,-404.5 439.5,-423.5 528.5,-423.5 528.5,-404.5 439.5,-404.5"/>
<text text-anchor="middle" x="484" y="-411.5" font-family="DejaVuSansMono" font-size="10.00">stanza_route</text>
</a>
</g>
<!-- Node3&#45;&gt;Node2 -->
<g id="edge4" class="edge"><title>Node3&#45;&gt;Node2</title>
<path fill="none" stroke="#9a32cd" stroke-dasharray="5,2" d="M538.574,-405.576C567.473,-400.919 603.732,-394.896 636,-389 643.925,-387.552 652.375,-385.924 660.472,-384.322"/>
<polygon fill="#9a32cd" stroke="#9a32cd" points="537.998,-402.123 528.678,-407.163 539.106,-409.035 537.998,-402.123"/>
<text text-anchor="middle" x="593" y="-406" font-family="DejaVuSansMono" font-size="10.00"> stanza_routes</text>
</g>
<!-- Node3&#45;&gt;Node3 -->
<g id="edge6" class="edge"><title>Node3&#45;&gt;Node3</title>
<path fill="none" stroke="#9a32cd" stroke-dasharray="5,2" d="M465.482,-433.4C466.719,-438.315 472.892,-442 484,-442 501.773,-442 506.911,-432.565 499.413,-423.757"/>
<polygon fill="#9a32cd" stroke="#9a32cd" points="468.854,-434.349 468.587,-423.757 462.191,-432.203 468.854,-434.349"/>
<text text-anchor="middle" x="484" y="-456" font-family="DejaVuSansMono" font-size="10.00"> prev</text>
<text text-anchor="middle" x="484" y="-445" font-family="DejaVuSansMono" font-size="10.00">next</text>
</g>
<!-- Node4 -->
<g id="node7" class="node"><title>Node4</title>
<a xlink:href="../../d1/d59/xmpp__stanza_8c.html#d5/d6b/structxmpp__stanza" target="_top" xlink:title="xmpp_stanza">
<polygon fill="none" stroke="black" points="248.5,-593.5 248.5,-612.5 331.5,-612.5 331.5,-593.5 248.5,-593.5"/>
<text text-anchor="middle" x="290" y="-600.5" font-family="DejaVuSansMono" font-size="10.00">xmpp_stanza</text>
</a>
</g>
<!-- Node4&#45;&gt;Node3 -->
<g id="edge8" class="edge"><title>Node4&#45;&gt;Node3</title>
<path fill="none" stroke="#9a32cd" stroke-dasharray="5,2" d="M301.174,-584.505C311.879,-565.989 329.938,-537.268 350,-516 387.339,-476.417 441.095,-440.237 467.36,-423.609"/>
<polygon fill="#9a32cd" stroke="#9a32cd" points="298.021,-582.97 296.145,-593.397 304.114,-586.416 298.021,-582.97"/>
<text text-anchor="middle" x="384" y="-519" font-family="DejaVuSansMono" font-size="10.00"> cb</text>
</g>
<!-- Node4&#45;&gt;Node4 -->
<g id="edge14" class="edge"><title>Node4&#45;&gt;Node4</title>
<path fill="none" stroke="#9a32cd" stroke-dasharray="5,2" d="M272.593,-622.4C273.756,-627.315 279.558,-631 290,-631 306.707,-631 311.536,-621.565 304.488,-612.757"/>
<polygon fill="#9a32cd" stroke="#9a32cd" points="275.965,-623.342 275.512,-612.757 269.265,-621.314 275.965,-623.342"/>
<text text-anchor="middle" x="290" y="-667" font-family="DejaVuSansMono" font-size="10.00"> prev</text>
<text text-anchor="middle" x="290" y="-656" font-family="DejaVuSansMono" font-size="10.00">next</text>
<text text-anchor="middle" x="290" y="-645" font-family="DejaVuSansMono" font-size="10.00">parent</text>
<text text-anchor="middle" x="290" y="-634" font-family="DejaVuSansMono" font-size="10.00">children</text>
</g>
<!-- Node14 -->
<g id="node36" class="node"><title>Node14</title>
<a xlink:href="../../d1/dc2/xmpp__parser_8c.html#d2/da4/structxmpp__parser" target="_top" xlink:title="Structure holding state for the XML parser.">
<polygon fill="none" stroke="black" points="442.5,-701.5 442.5,-720.5 525.5,-720.5 525.5,-701.5 442.5,-701.5"/>
<text text-anchor="middle" x="484" y="-708.5" font-family="DejaVuSansMono" font-size="10.00">xmpp_parser</text>
</a>
</g>
<!-- Node4&#45;&gt;Node14 -->
<g id="edge50" class="edge"><title>Node4&#45;&gt;Node14</title>
<path fill="none" stroke="#9a32cd" stroke-dasharray="5,2" d="M316.916,-617.578C356.841,-640.036 432.3,-682.481 465.999,-701.437"/>
<polygon fill="#9a32cd" stroke="#9a32cd" points="318.47,-614.436 308.039,-612.584 315.039,-620.537 318.47,-614.436"/>
<text text-anchor="middle" x="384" y="-686" font-family="DejaVuSansMono" font-size="10.00"> handler</text>
<text text-anchor="middle" x="384" y="-675" font-family="DejaVuSansMono" font-size="10.00">cur_stanza</text>
</g>
<!-- Node17 -->
<g id="node47" class="node"><title>Node17</title>
<a xlink:href="../../d0/df0/xmpp__server_8c.html#dd/d35/structiq__route" target="_top" xlink:title="Holds data on how to handle a particular iq stanza.">
<polygon fill="none" stroke="black" points="451.5,-482.5 451.5,-501.5 516.5,-501.5 516.5,-482.5 451.5,-482.5"/>
<text text-anchor="middle" x="484" y="-489.5" font-family="DejaVuSansMono" font-size="10.00">iq_route</text>
</a>
</g>
<!-- Node4&#45;&gt;Node17 -->
<g id="edge64" class="edge"><title>Node4&#45;&gt;Node17</title>
<path fill="none" stroke="#9a32cd" stroke-dasharray="5,2" d="M316.589,-588.206C356.615,-565.066 432.92,-520.953 466.472,-501.555"/>
<polygon fill="#9a32cd" stroke="#9a32cd" points="314.608,-585.309 307.703,-593.344 318.112,-591.369 314.608,-585.309"/>
<text text-anchor="middle" x="384" y="-570" font-family="DejaVuSansMono" font-size="10.00"> cb</text>
</g>
<!-- Node5 -->
<g id="node9" class="node"><title>Node5</title>
<a xlink:href="../../d1/dc2/xmpp__parser_8c.html#dc/d9d/structxmpp__parser__namespace" target="_top" xlink:title="Structure representing an XML namespace.">
<polygon fill="none" stroke="black" points="0.5,-666.5 0.5,-685.5 143.5,-685.5 143.5,-666.5 0.5,-666.5"/>
<text text-anchor="middle" x="72" y="-673.5" font-family="DejaVuSansMono" font-size="10.00">xmpp_parser_namespace</text>
</a>
</g>
<!-- Node5&#45;&gt;Node4 -->
<g id="edge10" class="edge"><title>Node5&#45;&gt;Node4</title>
<path fill="none" stroke="#9a32cd" stroke-dasharray="5,2" d="M110.74,-663.245C153.538,-648.781 222.346,-625.526 260.755,-612.546"/>
<polygon fill="#9a32cd" stroke="#9a32cd" points="109.591,-659.939 101.238,-666.457 111.832,-666.57 109.591,-659.939"/>
<text text-anchor="middle" x="196" y="-646" font-family="DejaVuSansMono" font-size="10.00"> namespaces</text>
</g>
<!-- Node5&#45;&gt;Node5 -->
<g id="edge12" class="edge"><title>Node5&#45;&gt;Node5</title>
<path fill="none" stroke="#9a32cd" stroke-dasharray="5,2" d="M48.9346,-695.029C50.1928,-700.128 57.8812,-704 72,-704 94.0391,-704 100.41,-694.565 91.112,-685.757"/>
<polygon fill="#9a32cd" stroke="#9a32cd" points="52.1854,-696.329 52.888,-685.757 45.7463,-693.583 52.1854,-696.329"/>
<text text-anchor="middle" x="72" y="-707" font-family="DejaVuSansMono" font-size="10.00"> next</text>
</g>
<!-- Node5&#45;&gt;Node14 -->
<g id="edge48" class="edge"><title>Node5&#45;&gt;Node14</title>
<path fill="none" stroke="#9a32cd" stroke-dasharray="5,2" d="M154.046,-682.919C241.005,-690.342 375.609,-701.832 442.46,-707.539"/>
<polygon fill="#9a32cd" stroke="#9a32cd" points="154.21,-679.42 143.948,-682.057 153.615,-686.395 154.21,-679.42"/>
<text text-anchor="middle" x="290" y="-700" font-family="DejaVuSansMono" font-size="10.00"> namespaces</text>
</g>
<!-- Node6 -->
<g id="node13" class="node"><title>Node6</title>
<a xlink:href="../../d1/d59/xmpp__stanza_8c.html#d9/d18/structattribute" target="_top" xlink:title="Structure to store a stanza attribute.">
<polygon fill="none" stroke="black" points="36.5,-593.5 36.5,-612.5 107.5,-612.5 107.5,-593.5 36.5,-593.5"/>
<text text-anchor="middle" x="72" y="-600.5" font-family="DejaVuSansMono" font-size="10.00">attribute</text>
</a>
</g>
<!-- Node6&#45;&gt;Node4 -->
<g id="edge16" class="edge"><title>Node6&#45;&gt;Node4</title>
<path fill="none" stroke="#9a32cd" stroke-dasharray="5,2" d="M118.094,-603C156.57,-603 211.398,-603 248.495,-603"/>
<polygon fill="#9a32cd" stroke="#9a32cd" points="117.704,-599.5 107.704,-603 117.704,-606.5 117.704,-599.5"/>
<text text-anchor="middle" x="196" y="-606" font-family="DejaVuSansMono" font-size="10.00"> attributes</text>
</g>
<!-- Node7 -->
<g id="node15" class="node"><title>Node7</title>
<a xlink:href="../../d3/d5a/jid_8c.html#df/d09/structjid" target="_top" xlink:title="Represents a JID (local/resource).">
<polygon fill="none" stroke="black" points="272.5,-241.5 272.5,-260.5 307.5,-260.5 307.5,-241.5 272.5,-241.5"/>
<text text-anchor="middle" x="290" y="-248.5" font-family="DejaVuSansMono" font-size="10.00">jid</text>
</a>
</g>
<!-- Node7&#45;&gt;Node1 -->
<g id="edge80" class="edge"><title>Node7&#45;&gt;Node1</title>
<path fill="none" stroke="#9a32cd" stroke-dasharray="5,2" d="M296.518,-231.713C304.376,-207.829 321.136,-167.656 350,-146 381.39,-122.449 397.194,-131.836 436,-126 486.226,-118.446 499.24,-119.779 550,-118 588.199,-116.661 597.971,-114.159 636,-118 715.257,-126.005 806.772,-148.224 852.25,-160.167"/>
<polygon fill="#9a32cd" stroke="#9a32cd" points="293.128,-230.828 293.522,-241.416 299.817,-232.893 293.128,-230.828"/>
<text text-anchor="middle" x="593" y="-121" font-family="DejaVuSansMono" font-size="10.00"> jid</text>
</g>
<!-- Node7&#45;&gt;Node2 -->
<g id="edge68" class="edge"><title>Node7&#45;&gt;Node2</title>
<path fill="none" stroke="#9a32cd" stroke-dasharray="5,2" d="M308.795,-267.107C334.68,-289.495 385.198,-329.365 436,-348 511.574,-375.721 606.838,-378.694 660.113,-377.755"/>
<polygon fill="#9a32cd" stroke="#9a32cd" points="311.106,-264.479 301.286,-260.501 306.482,-269.734 311.106,-264.479"/>
<text text-anchor="middle" x="484" y="-373" font-family="DejaVuSansMono" font-size="10.00"> jid</text>
</g>
<!-- Node7&#45;&gt;Node3 -->
<g id="edge18" class="edge"><title>Node7&#45;&gt;Node3</title>
<path fill="none" stroke="#9a32cd" stroke-dasharray="5,2" d="M293.539,-270.71C298.557,-301.113 312.7,-359.065 350,-389 375.012,-409.073 411.163,-414.848 439.464,-415.865"/>
<polygon fill="#9a32cd" stroke="#9a32cd" points="296.958,-269.902 292.034,-260.522 290.033,-270.926 296.958,-269.902"/>
<text text-anchor="middle" x="384" y="-417" font-family="DejaVuSansMono" font-size="10.00"> jid</text>
</g>
<!-- Node10 -->
<g id="node23" class="node"><title>Node10</title>
<a xlink:href="../../d0/df0/xmpp__server_8c.html#d9/dbe/structdisco__item" target="_top" xlink:title="Holds data for items to report during a DISCO items query.">
<polygon fill="none" stroke="black" points="445.5,-241.5 445.5,-260.5 522.5,-260.5 522.5,-241.5 445.5,-241.5"/>
<text text-anchor="middle" x="484" y="-248.5" font-family="DejaVuSansMono" font-size="10.00">disco_item</text>
</a>
</g>
<!-- Node7&#45;&gt;Node10 -->
<g id="edge32" class="edge"><title>Node7&#45;&gt;Node10</title>
<path fill="none" stroke="#9a32cd" stroke-dasharray="5,2" d="M318.004,-251C351.199,-251 407.727,-251 445.219,-251"/>
<polygon fill="#9a32cd" stroke="#9a32cd" points="317.703,-247.5 307.703,-251 317.703,-254.5 317.703,-247.5"/>
<text text-anchor="middle" x="384" y="-254" font-family="DejaVuSansMono" font-size="10.00"> jid</text>
</g>
<!-- Node7&#45;&gt;Node12 -->
<g id="edge52" class="edge"><title>Node7&#45;&gt;Node12</title>
<path fill="none" stroke="#9a32cd" stroke-dasharray="5,2" d="M292.462,-270.853C297.104,-328.411 313.415,-493.645 350,-531 417.369,-599.787 727.944,-543.758 840.295,-520.733"/>
<polygon fill="#9a32cd" stroke="#9a32cd" points="295.927,-270.267 291.666,-260.567 288.948,-270.807 295.927,-270.267"/>
<text text-anchor="middle" x="593" y="-565" font-family="DejaVuSansMono" font-size="10.00"> jid</text>
</g>
<!-- Node18 -->
<g id="node52" class="node"><title>Node18</title>
<a xlink:href="../../d7/d71/xep__muc_8c.html#d3/d96/structroom" target="_top" xlink:title="Represents a chat room.">
<polygon fill="none" stroke="black" points="681.5,-158.5 681.5,-177.5 722.5,-177.5 722.5,-158.5 681.5,-158.5"/>
<text text-anchor="middle" x="702" y="-165.5" font-family="DejaVuSansMono" font-size="10.00">room</text>
</a>
</g>
<!-- Node7&#45;&gt;Node18 -->
<g id="edge78" class="edge"><title>Node7&#45;&gt;Node18</title>
<path fill="none" stroke="#9a32cd" stroke-dasharray="5,2" d="M306.096,-233.559C330.289,-207.213 380.681,-158.677 436,-143 521.548,-118.756 548.415,-132.67 636,-148 651.584,-150.728 668.663,-156.08 681.402,-160.561"/>
<polygon fill="#9a32cd" stroke="#9a32cd" points="303.258,-231.481 299.189,-241.263 308.47,-236.154 303.258,-231.481"/>
<text text-anchor="middle" x="484" y="-146" font-family="DejaVuSansMono" font-size="10.00"> jid</text>
</g>
<!-- Node19 -->
<g id="node54" class="node"><title>Node19</title>
<a xlink:href="../../d7/d71/xep__muc_8c.html#d3/d6d/structroom__client" target="_top" xlink:title="Represents a particular client in a chat room.">
<polygon fill="none" stroke="black" points="442.5,-163.5 442.5,-182.5 525.5,-182.5 525.5,-163.5 442.5,-163.5"/>
<text text-anchor="middle" x="484" y="-170.5" font-family="DejaVuSansMono" font-size="10.00">room_client</text>
</a>
</g>
<!-- Node7&#45;&gt;Node19 -->
<g id="edge76" class="edge"><title>Node7&#45;&gt;Node19</title>
<path fill="none" stroke="#9a32cd" stroke-dasharray="5,2" d="M317.444,-240.257C355.059,-224.976 423.432,-197.2 459.413,-182.582"/>
<polygon fill="#9a32cd" stroke="#9a32cd" points="315.65,-237.208 307.703,-244.214 318.285,-243.693 315.65,-237.208"/>
<text text-anchor="middle" x="384" y="-228" font-family="DejaVuSansMono" font-size="10.00"> client_jid</text>
</g>
<!-- Node8 -->
<g id="node17" class="node"><title>Node8</title>
<a xlink:href="../../d0/deb/event_8c.html#d9/de5/structevent__loop" target="_top" xlink:title="Contains data about the whole event loop.">
<polygon fill="none" stroke="black" points="445.5,-34.5 445.5,-53.5 522.5,-53.5 522.5,-34.5 445.5,-34.5"/>
<text text-anchor="middle" x="484" y="-41.5" font-family="DejaVuSansMono" font-size="10.00">event_loop</text>
</a>
</g>
<!-- Node8&#45;&gt;Node2 -->
<g id="edge20" class="edge"><title>Node8&#45;&gt;Node2</title>
<path fill="none" stroke="#9a32cd" stroke-dasharray="5,2" d="M502.097,-60.4257C514.958,-72.5554 533.184,-89.272 550,-103 586.703,-132.964 608.495,-127.42 636,-166 683.412,-232.502 696.979,-334.567 700.154,-366.267"/>
<polygon fill="#9a32cd" stroke="#9a32cd" points="504.504,-57.8843 494.843,-53.5338 499.682,-62.9591 504.504,-57.8843"/>
<text text-anchor="middle" x="593" y="-169" font-family="DejaVuSansMono" font-size="10.00"> loop</text>
</g>
<!-- Node9 -->
<g id="node19" class="node"><title>Node9</title>
<a xlink:href="../../d0/deb/event_8c.html#de/dcb/structevent__item" target="_top" xlink:title="Contains data for one callback function.">
<polygon fill="none" stroke="black" points="663.5,-0.5 663.5,-19.5 740.5,-19.5 740.5,-0.5 663.5,-0.5"/>
<text text-anchor="middle" x="702" y="-7.5" font-family="DejaVuSansMono" font-size="10.00">event_item</text>
</a>
</g>
<!-- Node8&#45;&gt;Node9 -->
<g id="edge24" class="edge"><title>Node8&#45;&gt;Node9</title>
<path fill="none" stroke="#9a32cd" stroke-dasharray="5,2" d="M532.716,-37.5194C562.463,-33.3624 601.512,-27.6937 636,-22 644.831,-20.542 654.315,-18.8585 663.234,-17.2222"/>
<polygon fill="#9a32cd" stroke="#9a32cd" points="532.027,-34.0813 522.604,-38.9243 532.991,-41.0147 532.027,-34.0813"/>
<text text-anchor="middle" x="593" y="-39" font-family="DejaVuSansMono" font-size="10.00"> func</text>
</g>
<!-- Node9&#45;&gt;Node8 -->
<g id="edge22" class="edge"><title>Node9&#45;&gt;Node8</title>
<path fill="none" stroke="#9a32cd" stroke-dasharray="5,2" d="M653.277,-4.76591C623.22,-2.82424 583.841,-2.78292 550,-11 531.306,-15.539 511.896,-26.3218 499.211,-34.3336"/>
<polygon fill="#9a32cd" stroke="#9a32cd" points="653.265,-8.27447 663.495,-5.52154 653.781,-1.29353 653.265,-8.27447"/>
<text text-anchor="middle" x="593" y="-14" font-family="DejaVuSansMono" font-size="10.00"> events</text>
</g>
<!-- Node9&#45;&gt;Node9 -->
<g id="edge26" class="edge"><title>Node9&#45;&gt;Node9</title>
<path fill="none" stroke="#9a32cd" stroke-dasharray="5,2" d="M685.705,-29.4C686.793,-34.3146 692.225,-38 702,-38 717.641,-38 722.162,-28.5653 715.563,-19.7571"/>
<polygon fill="#9a32cd" stroke="#9a32cd" points="689.078,-30.3325 688.437,-19.7571 682.343,-28.4242 689.078,-30.3325"/>
<text text-anchor="middle" x="702" y="-52" font-family="DejaVuSansMono" font-size="10.00"> prev</text>
<text text-anchor="middle" x="702" y="-41" font-family="DejaVuSansMono" font-size="10.00">next</text>
</g>
<!-- Node10&#45;&gt;Node2 -->
<g id="edge28" class="edge"><title>Node10&#45;&gt;Node2</title>
<path fill="none" stroke="#9a32cd" stroke-dasharray="5,2" d="M522.135,-264.157C553.699,-276.158 599.56,-295.565 636,-319 657.713,-332.964 679.591,-353.895 691.611,-366.127"/>
<polygon fill="#9a32cd" stroke="#9a32cd" points="523.012,-260.748 512.419,-260.525 520.56,-267.305 523.012,-260.748"/>
<text text-anchor="middle" x="593" y="-322" font-family="DejaVuSansMono" font-size="10.00"> disco_items</text>
</g>
<!-- Node10&#45;&gt;Node10 -->
<g id="edge30" class="edge"><title>Node10&#45;&gt;Node10</title>
<path fill="none" stroke="#9a32cd" stroke-dasharray="5,2" d="M465.482,-270.4C466.719,-275.315 472.892,-279 484,-279 501.773,-279 506.911,-269.565 499.413,-260.757"/>
<polygon fill="#9a32cd" stroke="#9a32cd" points="468.854,-271.349 468.587,-260.757 462.191,-269.203 468.854,-271.349"/>
<text text-anchor="middle" x="484" y="-293" font-family="DejaVuSansMono" font-size="10.00"> prev</text>
<text text-anchor="middle" x="484" y="-282" font-family="DejaVuSansMono" font-size="10.00">next</text>
</g>
<!-- Node11 -->
<g id="node27" class="node"><title>Node11</title>
<a xlink:href="../../d0/df0/xmpp__server_8c.html#d2/d06/structclient__listener" target="_top" xlink:title="Holds data on how to notify a component when a client disconnects.">
<polygon fill="none" stroke="black" points="1014.5,-481.5 1014.5,-500.5 1121.5,-500.5 1121.5,-481.5 1014.5,-481.5"/>
<text text-anchor="middle" x="1068" y="-488.5" font-family="DejaVuSansMono" font-size="10.00">client_listener</text>
</a>
</g>
<!-- Node11&#45;&gt;Node2 -->
<g id="edge34" class="edge"><title>Node11&#45;&gt;Node2</title>
<path fill="none" stroke="#9a32cd" stroke-dasharray="5,2" d="M1039.32,-476.594C1030.9,-471.747 1021.81,-466.027 1014,-460 1005.04,-453.087 1005.96,-447.368 996,-442 904.923,-392.911 868.403,-419.979 768,-395 756.705,-392.19 744.425,-388.712 733.611,-385.503"/>
<polygon fill="#9a32cd" stroke="#9a32cd" points="1037.66,-479.679 1048.1,-481.485 1041.07,-473.563 1037.66,-479.679"/>
<text text-anchor="middle" x="882" y="-419" font-family="DejaVuSansMono" font-size="10.00"> client_listeners</text>
</g>
<!-- Node11&#45;&gt;Node11 -->
<g id="edge36" class="edge"><title>Node11&#45;&gt;Node11</title>
<path fill="none" stroke="#9a32cd" stroke-dasharray="5,2" d="M1050.59,-510.4C1051.76,-515.315 1057.56,-519 1068,-519 1084.71,-519 1089.54,-509.565 1082.49,-500.757"/>
<polygon fill="#9a32cd" stroke="#9a32cd" points="1053.97,-511.342 1053.51,-500.757 1047.27,-509.314 1053.97,-511.342"/>
<text text-anchor="middle" x="1068" y="-533" font-family="DejaVuSansMono" font-size="10.00"> prev</text>
<text text-anchor="middle" x="1068" y="-522" font-family="DejaVuSansMono" font-size="10.00">next</text>
</g>
<!-- Node12&#45;&gt;Node11 -->
<g id="edge38" class="edge"><title>Node12&#45;&gt;Node11</title>
<path fill="none" stroke="#9a32cd" stroke-dasharray="5,2" d="M933.872,-506.194C958.924,-503.335 989.098,-499.891 1014.38,-497.005"/>
<polygon fill="#9a32cd" stroke="#9a32cd" points="933.374,-502.728 923.836,-507.339 934.168,-509.683 933.374,-502.728"/>
<text text-anchor="middle" x="974" y="-517" font-family="DejaVuSansMono" font-size="10.00"> client</text>
<text text-anchor="middle" x="974" y="-506" font-family="DejaVuSansMono" font-size="10.00">cb</text>
</g>
<!-- Node15 -->
<g id="node41" class="node"><title>Node15</title>
<a xlink:href="../../d0/df0/xmpp__server_8c.html#d5/da1/structc__client" target="_top" xlink:title="c_client">
<polygon fill="none" stroke="black" points="1035.5,-391.5 1035.5,-410.5 1100.5,-410.5 1100.5,-391.5 1035.5,-391.5"/>
<text text-anchor="middle" x="1068" y="-398.5" font-family="DejaVuSansMono" font-size="10.00">c_client</text>
</a>
</g>
<!-- Node12&#45;&gt;Node15 -->
<g id="edge58" class="edge"><title>Node12&#45;&gt;Node15</title>
<path fill="none" stroke="#9a32cd" stroke-dasharray="5,2" d="M908.01,-496.912C946.497,-473.695 1019.14,-429.871 1051.16,-410.555"/>
<polygon fill="#9a32cd" stroke="#9a32cd" points="905.762,-494.181 899.007,-502.344 909.377,-500.175 905.762,-494.181"/>
<text text-anchor="middle" x="974" y="-472" font-family="DejaVuSansMono" font-size="10.00"> client</text>
</g>
<!-- Node13 -->
<g id="node33" class="node"><title>Node13</title>
<a xlink:href="../../d9/d71/client__socket_8h.html#df/d6d/structclient__socket" target="_top" xlink:title="client_socket">
<polygon fill="none" stroke="black" points="654.5,-572.5 654.5,-591.5 749.5,-591.5 749.5,-572.5 654.5,-572.5"/>
<text text-anchor="middle" x="702" y="-579.5" font-family="DejaVuSansMono" font-size="10.00">client_socket</text>
</a>
</g>
<!-- Node13&#45;&gt;Node12 -->
<g id="edge42" class="edge"><title>Node13&#45;&gt;Node12</title>
<path fill="none" stroke="#9a32cd" stroke-dasharray="5,2" d="M759.482,-573.71C776.755,-570.085 795.531,-565.009 812,-558 833.991,-548.641 856.475,-532.078 869.566,-521.589"/>
<polygon fill="#9a32cd" stroke="#9a32cd" points="758.646,-570.307 749.514,-575.68 760.003,-577.174 758.646,-570.307"/>
<text text-anchor="middle" x="790" y="-574" font-family="DejaVuSansMono" font-size="10.00"> socket</text>
</g>
<!-- Node13&#45;&gt;Node13 -->
<g id="edge44" class="edge"><title>Node13&#45;&gt;Node13</title>
<path fill="none" stroke="#9a32cd" stroke-dasharray="5,2" d="M685.705,-601.4C686.793,-606.315 692.225,-610 702,-610 717.641,-610 722.162,-600.565 715.563,-591.757"/>
<polygon fill="#9a32cd" stroke="#9a32cd" points="689.078,-602.332 688.437,-591.757 682.343,-600.424 689.078,-602.332"/>
<text text-anchor="middle" x="702" y="-668" font-family="DejaVuSansMono" font-size="10.00"> recv_func</text>
<text text-anchor="middle" x="702" y="-657" font-family="DejaVuSansMono" font-size="10.00">send_func</text>
<text text-anchor="middle" x="702" y="-646" font-family="DejaVuSansMono" font-size="10.00">close_func</text>
<text text-anchor="middle" x="702" y="-635" font-family="DejaVuSansMono" font-size="10.00">del_func</text>
<text text-anchor="middle" x="702" y="-624" font-family="DejaVuSansMono" font-size="10.00">fd_func</text>
<text text-anchor="middle" x="702" y="-613" font-family="DejaVuSansMono" font-size="10.00">str_func</text>
</g>
<!-- Node14&#45;&gt;Node12 -->
<g id="edge46" class="edge"><title>Node14&#45;&gt;Node12</title>
<path fill="none" stroke="#9a32cd" stroke-dasharray="5,2" d="M535.717,-717.542C591.836,-722.285 683.162,-722.408 750,-685 820.024,-645.809 864.212,-552.07 877.081,-521.686"/>
<polygon fill="#9a32cd" stroke="#9a32cd" points="535.942,-714.048 525.662,-716.611 535.297,-721.018 535.942,-714.048"/>
<text text-anchor="middle" x="702" y="-718" font-family="DejaVuSansMono" font-size="10.00"> parser</text>
</g>
<!-- Node15&#45;&gt;Node2 -->
<g id="edge54" class="edge"><title>Node15&#45;&gt;Node2</title>
<path fill="none" stroke="#9a32cd" stroke-dasharray="5,2" d="M1025.02,-398.117C954.538,-393.276 813.309,-383.576 743.696,-378.795"/>
<polygon fill="#9a32cd" stroke="#9a32cd" points="1025.08,-401.629 1035.3,-398.823 1025.56,-394.646 1025.08,-401.629"/>
<text text-anchor="middle" x="882" y="-394" font-family="DejaVuSansMono" font-size="10.00"> clients</text>
</g>
<!-- Node15&#45;&gt;Node15 -->
<g id="edge56" class="edge"><title>Node15&#45;&gt;Node15</title>
<path fill="none" stroke="#9a32cd" stroke-dasharray="5,2" d="M1050.59,-420.4C1051.76,-425.315 1057.56,-429 1068,-429 1084.71,-429 1089.54,-419.565 1082.49,-410.757"/>
<polygon fill="#9a32cd" stroke="#9a32cd" points="1053.97,-421.342 1053.51,-410.757 1047.27,-419.314 1053.97,-421.342"/>
<text text-anchor="middle" x="1068" y="-443" font-family="DejaVuSansMono" font-size="10.00"> prev</text>
<text text-anchor="middle" x="1068" y="-432" font-family="DejaVuSansMono" font-size="10.00">next</text>
</g>
<!-- Node16 -->
<g id="node45" class="node"><title>Node16</title>
<a xlink:href="../../d9/db0/structauth__callback.html" target="_top" xlink:title="Holds data for an authentication callback.">
<polygon fill="none" stroke="black" points="436.5,-319.5 436.5,-338.5 531.5,-338.5 531.5,-319.5 436.5,-319.5"/>
<text text-anchor="middle" x="484" y="-326.5" font-family="DejaVuSansMono" font-size="10.00">auth_callback</text>
</a>
</g>
<!-- Node16&#45;&gt;Node2 -->
<g id="edge60" class="edge"><title>Node16&#45;&gt;Node2</title>
<path fill="none" stroke="#9a32cd" stroke-dasharray="5,2" d="M541.728,-333.603C570.327,-336.75 605.355,-341.869 636,-350 651.389,-354.083 668.049,-360.796 680.65,-366.377"/>
<polygon fill="#9a32cd" stroke="#9a32cd" points="541.812,-330.093 531.502,-332.532 541.083,-337.055 541.812,-330.093"/>
<text text-anchor="middle" x="593" y="-353" font-family="DejaVuSansMono" font-size="10.00"> auth_callback</text>
</g>
<!-- Node17&#45;&gt;Node2 -->
<g id="edge62" class="edge"><title>Node17&#45;&gt;Node2</title>
<path fill="none" stroke="#9a32cd" stroke-dasharray="5,2" d="M519.349,-478.59C523.637,-476.776 527.94,-474.888 532,-473 579.411,-450.95 590.887,-444.436 636,-418 653.967,-407.471 674.006,-394.295 687.021,-385.537"/>
<polygon fill="#9a32cd" stroke="#9a32cd" points="517.994,-475.363 510.084,-482.412 520.663,-481.834 517.994,-475.363"/>
<text text-anchor="middle" x="593" y="-466" font-family="DejaVuSansMono" font-size="10.00"> iq_routes</text>
</g>
<!-- Node17&#45;&gt;Node17 -->
<g id="edge66" class="edge"><title>Node17&#45;&gt;Node17</title>
<path fill="none" stroke="#9a32cd" stroke-dasharray="5,2" d="M465.482,-511.4C466.719,-516.315 472.892,-520 484,-520 501.773,-520 506.911,-510.565 499.413,-501.757"/>
<polygon fill="#9a32cd" stroke="#9a32cd" points="468.854,-512.349 468.587,-501.757 462.191,-510.203 468.854,-512.349"/>
<text text-anchor="middle" x="484" y="-534" font-family="DejaVuSansMono" font-size="10.00"> prev</text>
<text text-anchor="middle" x="484" y="-523" font-family="DejaVuSansMono" font-size="10.00">next</text>
</g>
<!-- Node18&#45;&gt;Node1 -->
<g id="edge70" class="edge"><title>Node18&#45;&gt;Node1</title>
<path fill="none" stroke="#9a32cd" stroke-dasharray="5,2" d="M732.773,-168C766.056,-168 819.576,-168 852.383,-168"/>
<polygon fill="#9a32cd" stroke="#9a32cd" points="732.729,-164.5 722.729,-168 732.729,-171.5 732.729,-164.5"/>
<text text-anchor="middle" x="790" y="-171" font-family="DejaVuSansMono" font-size="10.00"> rooms</text>
</g>
<!-- Node19&#45;&gt;Node18 -->
<g id="edge72" class="edge"><title>Node19&#45;&gt;Node18</title>
<path fill="none" stroke="#9a32cd" stroke-dasharray="5,2" d="M535.767,-178.136C565.098,-180.324 602.674,-181.8 636,-179 651.397,-177.706 668.631,-174.718 681.482,-172.182"/>
<polygon fill="#9a32cd" stroke="#9a32cd" points="536.003,-174.644 525.756,-177.338 535.447,-181.622 536.003,-174.644"/>
<text text-anchor="middle" x="593" y="-183" font-family="DejaVuSansMono" font-size="10.00"> clients</text>
</g>
<!-- Node19&#45;&gt;Node19 -->
<g id="edge74" class="edge"><title>Node19&#45;&gt;Node19</title>
<path fill="none" stroke="#9a32cd" stroke-dasharray="5,2" d="M465.482,-192.4C466.719,-197.315 472.892,-201 484,-201 501.773,-201 506.911,-191.565 499.413,-182.757"/>
<polygon fill="#9a32cd" stroke="#9a32cd" points="468.854,-193.349 468.587,-182.757 462.191,-191.203 468.854,-193.349"/>
<text text-anchor="middle" x="484" y="-215" font-family="DejaVuSansMono" font-size="10.00"> prev</text>
<text text-anchor="middle" x="484" y="-204" font-family="DejaVuSansMono" font-size="10.00">next</text>
</g>
</g>
</svg>
        <g id="navigator" transform="translate(0 0)" fill="#404254">
                <rect fill="#f2f5e9" fill-opacity="0.5" stroke="#606060" stroke-width=".5" x="0" y="0" width="60" height="60"/>
                <use id="zoomplus" xlink:href="#zoomPlus" x="17" y="9" onmousedown="handleZoom(evt,'in')"/>
                <use id="zoomminus" xlink:href="#zoomMin" x="42" y="9" onmousedown="handleZoom(evt,'out')"/>
                <use id="reset" xlink:href="#resetDef" x="30" y="36" onmousedown="handleReset()"/>
                <g id="arrowUp" xlink:href="#dirArrow" transform="translate(30 24)" onmousedown="handlePan(0,-1)">
                  <use xlink:href="#rim" fill="#404040">
                        <set attributeName="fill" to="#808080" begin="arrowUp.mouseover" end="arrowUp.mouseout"/>
                  </use>
                  <path fill="none" stroke="white" stroke-width="1.5" d="M0,-3.0v7 M-2.5,-0.5L0,-3.0L2.5,-0.5"/>
                </g>
                <g id="arrowRight" xlink:href="#dirArrow" transform="rotate(90) translate(36 -43)" onmousedown="handlePan(1,0)">
                  <use xlink:href="#rim" fill="#404040">
                        <set attributeName="fill" to="#808080" begin="arrowRight.mouseover" end="arrowRight.mouseout"/>
                  </use>
                  <path fill="none" stroke="white" stroke-width="1.5" d="M0,-3.0v7 M-2.5,-0.5L0,-3.0L2.5,-0.5"/>
                </g>
                <g id="arrowDown" xlink:href="#dirArrow" transform="rotate(180) translate(-30 -48)" onmousedown="handlePan(0,1)">
                  <use xlink:href="#rim" fill="#404040">
                        <set attributeName="fill" to="#808080" begin="arrowDown.mouseover" end="arrowDown.mouseout"/>
                  </use>
                  <path fill="none" stroke="white" stroke-width="1.5" d="M0,-3.0v7 M-2.5,-0.5L0,-3.0L2.5,-0.5"/>
                </g>
                <g id="arrowLeft" xlink:href="#dirArrow" transform="rotate(270) translate(-36 17)" onmousedown="handlePan(-1,0)">
                  <use xlink:href="#rim" fill="#404040">
                        <set attributeName="fill" to="#808080" begin="arrowLeft.mouseover" end="arrowLeft.mouseout"/>
                  </use>
                  <path fill="none" stroke="white" stroke-width="1.5" d="M0,-3.0v7 M-2.5,-0.5L0,-3.0L2.5,-0.5"/>
                </g>
        </g>
        <svg viewBox="0 0 25 25" width="100%" height="30px" preserveAspectRatio="xMaxYMin meet"> 
          <g id="printButton" transform="scale(0.4 0.4)" onmousedown="handlePrint(evt)">
            <rect height="23.33753581" id="paper" rx="2" style="fill:#f2f5e9;fill-rule:evenodd;stroke:#111111;stroke-width:3.224;stroke-linejoin:round;" transform="matrix(1.000000,0.000000,-0.339266,0.940691,0.000000,0.000000)" width="25.55231285" x="26.69387353" y="7.36162977"/>
            <rect height="26.272097" id="body" rx="2" style="fill:#404040;fill-rule:evenodd;stroke:#111111;stroke-width:3.125;stroke-linejoin:round;" width="50" x="4.5295201" y="27.078951"/>
            <rect height="8.27750969" id="tray" style="fill:#d2d5c9;fill-rule:evenodd;stroke:#111111;stroke-width:3.125;stroke-linecap:round;stroke-linejoin:round;" width="40" x="10.28778839" y="44.96812282"/>
          </g>
        </svg>
</svg>
