<?xml version="1.0" encoding="UTF-8" standalone="no"?>
<!DOCTYPE svg PUBLIC "-//W3C//DTD SVG 1.1//EN"
 "http://www.w3.org/Graphics/SVG/1.1/DTD/svg11.dtd">
<!-- Generated by graphviz version 2.28.0 (20120217.0315)
 -->
<!-- Title: G Pages: 1 -->
<!--zoomable 140 -->
<svg id="main" version="1.1" xmlns="http://www.w3.org/2000/svg" xmlns:xlink="http://www.w3.org/1999/xlink" xml:space="preserve" onload="init(evt)">
        <defs>
                <circle id="rim" cx="0" cy="0" r="7"/>
                <circle id="rim2" cx="0" cy="0" r="3.5"/>
                <g id="zoomPlus">
                        <use xlink:href="#rim" fill="#404040">
                                <set attributeName="fill" to="#808080" begin="zoomplus.mouseover" end="zoomplus.mouseout"/>
                        </use>
                        <path d="M-4,0h8M0,-4v8" fill="none" stroke="white" stroke-width="1.5" pointer-events="none"/>
                </g>
                <g id="zoomMin">
                        <use xlink:href="#rim" fill="#404040">
                                <set attributeName="fill" to="#808080" begin="zoomminus.mouseover" end="zoomminus.mouseout"/>
                        </use>
                        <path d="M-4,0h8" fill="none" stroke="white" stroke-width="1.5" pointer-events="none"/>
                </g>
                <g id="dirArrow">
                        <path fill="none" stroke="white" stroke-width="1.5" d="M0,-3.0v7 M-2.5,-0.5L0,-3.0L2.5,-0.5"/>
                </g>
               <g id="resetDef">
                       <use xlink:href="#rim2" fill="#404040">
                               <set attributeName="fill" to="#808080" begin="reset.mouseover" end="reset.mouseout"/>
                       </use>
               </g>
        </defs>

<script type="text/javascript">
var viewWidth = 1635;
var viewHeight = 140;
var sectionId = 'dynsection-0';
</script>
<script xlink:href="../../svgpan.js"/>
<svg id="graph" class="graph">
<g id="viewport">
<title>G</title>
<!-- Node1 -->
<g id="node1" class="node"><title>Node1</title>
<polygon fill="#bfbfbf" stroke="black" points="785.5,-112.5 785.5,-131.5 892.5,-131.5 892.5,-112.5 785.5,-112.5"/>
<text text-anchor="middle" x="839" y="-119.5" font-family="DejaVuSansMono" font-size="10.00">src/xmpp_auth.c</text>
</g>
<!-- Node2 -->
<g id="node3" class="node"><title>Node2</title>
<polygon fill="none" stroke="#bfbfbf" points="153.5,-0.5 153.5,-19.5 218.5,-19.5 218.5,-0.5 153.5,-0.5"/>
<text text-anchor="middle" x="186" y="-7.5" font-family="DejaVuSansMono" font-size="10.00">string.h</text>
</g>
<!-- Node1&#45;&gt;Node2 -->
<g id="edge2" class="edge"><title>Node1&#45;&gt;Node2</title>
<path fill="none" stroke="midnightblue" d="M785.487,-121.449C635.313,-122.152 218.19,-120.085 177,-76 165.484,-63.6748 170.3,-43.8634 176.408,-29.3483"/>
<polygon fill="midnightblue" stroke="midnightblue" points="179.765,-30.4351 180.869,-19.8979 173.435,-27.447 179.765,-30.4351"/>
</g>
<!-- Node3 -->
<g id="node5" class="node"><title>Node3</title>
<polygon fill="none" stroke="#bfbfbf" points="867.5,-56.5 867.5,-75.5 932.5,-75.5 932.5,-56.5 867.5,-56.5"/>
<text text-anchor="middle" x="900" y="-63.5" font-family="DejaVuSansMono" font-size="10.00">unistd.h</text>
</g>
<!-- Node1&#45;&gt;Node3 -->
<g id="edge4" class="edge"><title>Node1&#45;&gt;Node3</title>
<path fill="none" stroke="midnightblue" d="M848.801,-112.324C857.818,-104.341 871.406,-92.3128 882.318,-82.6529"/>
<polygon fill="midnightblue" stroke="midnightblue" points="884.853,-85.083 890.021,-75.8339 880.213,-79.8416 884.853,-85.083"/>
</g>
<!-- Node4 -->
<g id="node7" class="node"><title>Node4</title>
<polygon fill="none" stroke="#bfbfbf" points="950.5,-56.5 950.5,-75.5 1033.5,-75.5 1033.5,-56.5 950.5,-56.5"/>
<text text-anchor="middle" x="992" y="-63.5" font-family="DejaVuSansMono" font-size="10.00">sys/types.h</text>
</g>
<!-- Node1&#45;&gt;Node4 -->
<g id="edge6" class="edge"><title>Node1&#45;&gt;Node4</title>
<path fill="none" stroke="midnightblue" d="M863.243,-112.444C888.871,-103.399 929.485,-89.064 958.238,-78.9158"/>
<polygon fill="midnightblue" stroke="midnightblue" points="959.605,-82.1452 967.87,-75.5164 957.275,-75.5442 959.605,-82.1452"/>
</g>
<!-- Node5 -->
<g id="node9" class="node"><title>Node5</title>
<polygon fill="none" stroke="#bfbfbf" points="1051.5,-56.5 1051.5,-75.5 1140.5,-75.5 1140.5,-56.5 1051.5,-56.5"/>
<text text-anchor="middle" x="1096" y="-63.5" font-family="DejaVuSansMono" font-size="10.00">sys/socket.h</text>
</g>
<!-- Node1&#45;&gt;Node5 -->
<g id="edge8" class="edge"><title>Node1&#45;&gt;Node5</title>
<path fill="none" stroke="midnightblue" d="M879.722,-112.444C924.649,-103.004 996.998,-87.802 1045.5,-77.6111"/>
<polygon fill="midnightblue" stroke="midnightblue" points="1046.4,-80.998 1055.47,-75.5164 1044.96,-74.1476 1046.4,-80.998"/>
</g>
<!-- Node6 -->
<g id="node11" class="node"><title>Node6</title>
<polygon fill="none" stroke="#bfbfbf" points="715.5,-0.5 715.5,-19.5 810.5,-19.5 810.5,-0.5 715.5,-0.5"/>
<text text-anchor="middle" x="763" y="-7.5" font-family="DejaVuSansMono" font-size="10.00">openssl/ssl.h</text>
</g>
<!-- Node1&#45;&gt;Node6 -->
<g id="edge10" class="edge"><title>Node1&#45;&gt;Node6</title>
<path fill="none" stroke="midnightblue" d="M837.977,-112.304C836.084,-99.1329 831.066,-73.7813 819,-56 810.656,-43.7032 797.948,-33.105 786.746,-25.288"/>
<polygon fill="midnightblue" stroke="midnightblue" points="788.469,-22.2315 778.197,-19.6358 784.609,-28.0706 788.469,-22.2315"/>
</g>
<!-- Node7 -->
<g id="node13" class="node"><title>Node7</title>
<polygon fill="none" stroke="#bfbfbf" points="1158.5,-56.5 1158.5,-75.5 1253.5,-75.5 1253.5,-56.5 1158.5,-56.5"/>
<text text-anchor="middle" x="1206" y="-63.5" font-family="DejaVuSansMono" font-size="10.00">openssl/err.h</text>
</g>
<!-- Node1&#45;&gt;Node7 -->
<g id="edge12" class="edge"><title>Node1&#45;&gt;Node7</title>
<path fill="none" stroke="midnightblue" d="M892.515,-113.438C952.277,-104.947 1052.16,-90.6175 1148.51,-76.0584"/>
<polygon fill="midnightblue" stroke="midnightblue" points="1149.06,-79.5153 1158.42,-74.5578 1148.01,-72.5941 1149.06,-79.5153"/>
</g>
<!-- Node8 -->
<g id="node15" class="node"><title>Node8</title>
<polygon fill="none" stroke="#bfbfbf" points="1271.5,-56.5 1271.5,-75.5 1348.5,-75.5 1348.5,-56.5 1271.5,-56.5"/>
<text text-anchor="middle" x="1310" y="-63.5" font-family="DejaVuSansMono" font-size="10.00">utstring.h</text>
</g>
<!-- Node1&#45;&gt;Node8 -->
<g id="edge14" class="edge"><title>Node1&#45;&gt;Node8</title>
<path fill="none" stroke="midnightblue" d="M892.591,-116.672C971.165,-110.024 1122.44,-96.0764 1261.3,-75.9912"/>
<polygon fill="midnightblue" stroke="midnightblue" points="1261.88,-79.4429 1271.27,-74.5345 1260.87,-72.5164 1261.88,-79.4429"/>
</g>
<!-- Node9 -->
<g id="node17" class="node"><title>Node9</title>
<a xlink:href="../../d7/d7f/log_8h.html" target="_top" xlink:title="Debugging and logging functions/macros.">
<polygon fill="none" stroke="black" points="82.5,-56.5 82.5,-75.5 129.5,-75.5 129.5,-56.5 82.5,-56.5"/>
<text text-anchor="middle" x="106" y="-63.5" font-family="DejaVuSansMono" font-size="10.00">log.h</text>
</a>
</g>
<!-- Node1&#45;&gt;Node9 -->
<g id="edge16" class="edge"><title>Node1&#45;&gt;Node9</title>
<path fill="none" stroke="midnightblue" d="M785.489,-120.588C668.484,-119.019 381.366,-111.536 144,-76 142.533,-75.7804 141.04,-75.5326 139.535,-75.2631"/>
<polygon fill="midnightblue" stroke="midnightblue" points="140.095,-71.8054 129.597,-73.2365 138.696,-78.6642 140.095,-71.8054"/>
</g>
<!-- Node12 -->
<g id="node24" class="node"><title>Node12</title>
<a xlink:href="../../d5/d60/utils_8h.html" target="_top" xlink:title="Miscellaneous utility functions.">
<polygon fill="none" stroke="black" points="186.5,-56.5 186.5,-75.5 245.5,-75.5 245.5,-56.5 186.5,-56.5"/>
<text text-anchor="middle" x="216" y="-63.5" font-family="DejaVuSansMono" font-size="10.00">utils.h</text>
</a>
</g>
<!-- Node1&#45;&gt;Node12 -->
<g id="edge24" class="edge"><title>Node1&#45;&gt;Node12</title>
<path fill="none" stroke="midnightblue" d="M785.443,-119.668C683.821,-116.536 455.977,-106.622 255.893,-76.0817"/>
<polygon fill="midnightblue" stroke="midnightblue" points="256.202,-72.5879 245.784,-74.5173 255.131,-79.5055 256.202,-72.5879"/>
</g>
<!-- Node14 -->
<g id="node29" class="node"><title>Node14</title>
<a xlink:href="../../d9/d71/client__socket_8h.html" target="_top" xlink:title="Abstracts basic socket interactions.">
<polygon fill="none" stroke="black" points="590.5,-56.5 590.5,-75.5 697.5,-75.5 697.5,-56.5 590.5,-56.5"/>
<text text-anchor="middle" x="644" y="-63.5" font-family="DejaVuSansMono" font-size="10.00">client_socket.h</text>
</a>
</g>
<!-- Node1&#45;&gt;Node14 -->
<g id="edge30" class="edge"><title>Node1&#45;&gt;Node14</title>
<path fill="none" stroke="midnightblue" d="M808.102,-112.444C774.726,-103.201 721.406,-88.4356 684.651,-78.2572"/>
<polygon fill="midnightblue" stroke="midnightblue" points="685.325,-74.8122 674.754,-75.5164 683.457,-81.5583 685.325,-74.8122"/>
</g>
<!-- Node16 -->
<g id="node35" class="node"><title>Node16</title>
<a xlink:href="../../d6/d24/jid_8h.html" target="_top" xlink:title="Functions and data structure to manipulate a JID.">
<polygon fill="none" stroke="black" points="1366.5,-56.5 1366.5,-75.5 1413.5,-75.5 1413.5,-56.5 1366.5,-56.5"/>
<text text-anchor="middle" x="1390" y="-63.5" font-family="DejaVuSansMono" font-size="10.00">jid.h</text>
</a>
</g>
<!-- Node1&#45;&gt;Node16 -->
<g id="edge38" class="edge"><title>Node1&#45;&gt;Node16</title>
<path fill="none" stroke="midnightblue" d="M892.733,-119.507C985.524,-116.239 1181.8,-106.288 1356.44,-75.7579"/>
<polygon fill="midnightblue" stroke="midnightblue" points="1357.09,-79.198 1366.32,-74.0042 1355.87,-72.3057 1357.09,-79.198"/>
</g>
<!-- Node17 -->
<g id="node37" class="node"><title>Node17</title>
<a xlink:href="../../d4/d2f/xmpp__client_8h.html" target="_top" xlink:title="A connected XMPP server client.">
<polygon fill="none" stroke="black" points="1431.5,-56.5 1431.5,-75.5 1526.5,-75.5 1526.5,-56.5 1431.5,-56.5"/>
<text text-anchor="middle" x="1479" y="-63.5" font-family="DejaVuSansMono" font-size="10.00">xmpp_client.h</text>
</a>
</g>
<!-- Node1&#45;&gt;Node17 -->
<g id="edge40" class="edge"><title>Node1&#45;&gt;Node17</title>
<path fill="none" stroke="midnightblue" d="M892.59,-118.293C993.757,-112.872 1219.99,-99.2678 1421.28,-75.9847"/>
<polygon fill="midnightblue" stroke="midnightblue" points="1421.93,-79.4331 1431.45,-74.7972 1421.11,-72.4803 1421.93,-79.4331"/>
</g>
<!-- Node18 -->
<g id="node39" class="node"><title>Node18</title>
<a xlink:href="../../d8/d28/xmpp__core_8h.html" target="_top" xlink:title="Handles base stanza routing.">
<polygon fill="none" stroke="black" points="263.5,-56.5 263.5,-75.5 346.5,-75.5 346.5,-56.5 263.5,-56.5"/>
<text text-anchor="middle" x="305" y="-63.5" font-family="DejaVuSansMono" font-size="10.00">xmpp_core.h</text>
</a>
</g>
<!-- Node1&#45;&gt;Node18 -->
<g id="edge42" class="edge"><title>Node1&#45;&gt;Node18</title>
<path fill="none" stroke="midnightblue" d="M785.473,-117.524C697.886,-111.507 518.299,-97.7944 356.818,-76.1506"/>
<polygon fill="midnightblue" stroke="midnightblue" points="357.079,-72.6541 346.7,-74.7807 356.14,-79.5908 357.079,-72.6541"/>
</g>
<!-- Node19 -->
<g id="node42" class="node"><title>Node19</title>
<a xlink:href="../../d1/d2e/xmpp__server_8h.html" target="_top" xlink:title="Main XMPP server data/functions.">
<polygon fill="none" stroke="black" points="715.5,-56.5 715.5,-75.5 810.5,-75.5 810.5,-56.5 715.5,-56.5"/>
<text text-anchor="middle" x="763" y="-63.5" font-family="DejaVuSansMono" font-size="10.00">xmpp_server.h</text>
</a>
</g>
<!-- Node1&#45;&gt;Node19 -->
<g id="edge46" class="edge"><title>Node1&#45;&gt;Node19</title>
<path fill="none" stroke="midnightblue" d="M826.789,-112.324C815.224,-104.107 797.625,-91.6017 783.839,-81.8069"/>
<polygon fill="midnightblue" stroke="midnightblue" points="785.612,-78.7729 775.433,-75.8339 781.557,-84.4791 785.612,-78.7729"/>
</g>
<!-- Node20 -->
<g id="node46" class="node"><title>Node20</title>
<a xlink:href="../../dd/d21/xmpp__stanza_8h.html" target="_top" xlink:title="Represents top&#45;level XMPP stanzas received from clients.">
<polygon fill="none" stroke="black" points="364.5,-56.5 364.5,-75.5 459.5,-75.5 459.5,-56.5 364.5,-56.5"/>
<text text-anchor="middle" x="412" y="-63.5" font-family="DejaVuSansMono" font-size="10.00">xmpp_stanza.h</text>
</a>
</g>
<!-- Node1&#45;&gt;Node20 -->
<g id="edge52" class="edge"><title>Node1&#45;&gt;Node20</title>
<path fill="none" stroke="midnightblue" d="M785.464,-115.164C715.246,-107.363 587.955,-92.7212 469.599,-76.1839"/>
<polygon fill="midnightblue" stroke="midnightblue" points="470.03,-72.7101 459.64,-74.7848 469.056,-79.642 470.03,-72.7101"/>
</g>
<!-- Node21 -->
<g id="node49" class="node"><title>Node21</title>
<a xlink:href="../../d8/d55/xmpp__parser_8h.html" target="_top" xlink:title="DOM&#45;style XML parser for XMPP stanzas.">
<polygon fill="none" stroke="black" points="477.5,-56.5 477.5,-75.5 572.5,-75.5 572.5,-56.5 477.5,-56.5"/>
<text text-anchor="middle" x="525" y="-63.5" font-family="DejaVuSansMono" font-size="10.00">xmpp_parser.h</text>
</a>
</g>
<!-- Node1&#45;&gt;Node21 -->
<g id="edge56" class="edge"><title>Node1&#45;&gt;Node21</title>
<path fill="none" stroke="midnightblue" d="M789.246,-112.444C733.093,-102.787 641.88,-87.1005 582.664,-76.9168"/>
<polygon fill="midnightblue" stroke="midnightblue" points="583.17,-73.4524 572.721,-75.2068 581.983,-80.3511 583.17,-73.4524"/>
</g>
<!-- Node22 -->
<g id="node52" class="node"><title>Node22</title>
<a xlink:href="../../d3/d24/xmpp__auth_8h.html" target="_top" xlink:title="Implement initial XMPP authendication.">
<polygon fill="none" stroke="black" points="1544.5,-56.5 1544.5,-75.5 1627.5,-75.5 1627.5,-56.5 1544.5,-56.5"/>
<text text-anchor="middle" x="1586" y="-63.5" font-family="DejaVuSansMono" font-size="10.00">xmpp_auth.h</text>
</a>
</g>
<!-- Node1&#45;&gt;Node22 -->
<g id="edge60" class="edge"><title>Node1&#45;&gt;Node22</title>
<path fill="none" stroke="midnightblue" d="M892.89,-119.537C1008.46,-115.961 1288.86,-104.953 1534.13,-75.959"/>
<polygon fill="midnightblue" stroke="midnightblue" points="1534.79,-79.4046 1544.31,-74.7429 1533.96,-72.454 1534.79,-79.4046"/>
</g>
<!-- Node9&#45;&gt;Node2 -->
<g id="edge22" class="edge"><title>Node9&#45;&gt;Node2</title>
<path fill="none" stroke="midnightblue" d="M118.853,-56.324C131.216,-47.979 150.13,-35.2122 164.737,-25.3524"/>
<polygon fill="midnightblue" stroke="midnightblue" points="166.848,-28.1503 173.179,-19.6545 162.932,-22.3483 166.848,-28.1503"/>
</g>
<!-- Node10 -->
<g id="node19" class="node"><title>Node10</title>
<polygon fill="none" stroke="#bfbfbf" points="-0.5,-0.5 -0.5,-19.5 58.5,-19.5 58.5,-0.5 -0.5,-0.5"/>
<text text-anchor="middle" x="29" y="-7.5" font-family="DejaVuSansMono" font-size="10.00">stdio.h</text>
</g>
<!-- Node9&#45;&gt;Node10 -->
<g id="edge18" class="edge"><title>Node9&#45;&gt;Node10</title>
<path fill="none" stroke="midnightblue" d="M93.6286,-56.324C81.8415,-48.0577 63.8677,-35.4527 49.8645,-25.6322"/>
<polygon fill="midnightblue" stroke="midnightblue" points="51.5376,-22.5307 41.3407,-19.6545 47.5184,-28.2619 51.5376,-22.5307"/>
</g>
<!-- Node11 -->
<g id="node21" class="node"><title>Node11</title>
<polygon fill="none" stroke="#bfbfbf" points="76.5,-0.5 76.5,-19.5 135.5,-19.5 135.5,-0.5 76.5,-0.5"/>
<text text-anchor="middle" x="106" y="-7.5" font-family="DejaVuSansMono" font-size="10.00">errno.h</text>
</g>
<!-- Node9&#45;&gt;Node11 -->
<g id="edge20" class="edge"><title>Node9&#45;&gt;Node11</title>
<path fill="none" stroke="midnightblue" d="M106,-56.083C106,-49.0059 106,-38.8611 106,-29.9865"/>
<polygon fill="midnightblue" stroke="midnightblue" points="109.5,-29.751 106,-19.7511 102.5,-29.7511 109.5,-29.751"/>
</g>
<!-- Node12&#45;&gt;Node2 -->
<g id="edge28" class="edge"><title>Node12&#45;&gt;Node2</title>
<path fill="none" stroke="midnightblue" d="M211.046,-56.083C206.896,-48.6127 200.847,-37.7244 195.733,-28.5199"/>
<polygon fill="midnightblue" stroke="midnightblue" points="198.778,-26.7929 190.862,-19.7511 192.659,-30.1924 198.778,-26.7929"/>
</g>
<!-- Node13 -->
<g id="node26" class="node"><title>Node13</title>
<polygon fill="none" stroke="#bfbfbf" points="432.5,-0.5 432.5,-19.5 503.5,-19.5 503.5,-0.5 432.5,-0.5"/>
<text text-anchor="middle" x="468" y="-7.5" font-family="DejaVuSansMono" font-size="10.00">stdbool.h</text>
</g>
<!-- Node12&#45;&gt;Node13 -->
<g id="edge26" class="edge"><title>Node12&#45;&gt;Node13</title>
<path fill="none" stroke="midnightblue" d="M245.854,-57.854C248.606,-57.218 251.353,-56.5916 254,-56 311.969,-43.0426 379.014,-29.115 422.389,-20.243"/>
<polygon fill="midnightblue" stroke="midnightblue" points="423.25,-23.6395 432.347,-18.2098 421.849,-16.781 423.25,-23.6395"/>
</g>
<!-- Node14&#45;&gt;Node6 -->
<g id="edge36" class="edge"><title>Node14&#45;&gt;Node6</title>
<path fill="none" stroke="midnightblue" d="M662.856,-56.4435C682.266,-47.6356 712.73,-33.8116 734.965,-23.722"/>
<polygon fill="midnightblue" stroke="midnightblue" points="736.572,-26.836 744.232,-19.5164 733.68,-20.4615 736.572,-26.836"/>
</g>
<!-- Node14&#45;&gt;Node13 -->
<g id="edge32" class="edge"><title>Node14&#45;&gt;Node13</title>
<path fill="none" stroke="midnightblue" d="M616.112,-56.4435C586.246,-47.2801 538.685,-32.6876 505.544,-22.5192"/>
<polygon fill="midnightblue" stroke="midnightblue" points="506.344,-19.1037 495.757,-19.5164 504.291,-25.7958 506.344,-19.1037"/>
</g>
<!-- Node15 -->
<g id="node32" class="node"><title>Node15</title>
<polygon fill="none" stroke="#bfbfbf" points="599.5,-0.5 599.5,-19.5 688.5,-19.5 688.5,-0.5 599.5,-0.5"/>
<text text-anchor="middle" x="644" y="-7.5" font-family="DejaVuSansMono" font-size="10.00">netinet/in.h</text>
</g>
<!-- Node14&#45;&gt;Node15 -->
<g id="edge34" class="edge"><title>Node14&#45;&gt;Node15</title>
<path fill="none" stroke="midnightblue" d="M644,-56.083C644,-49.0059 644,-38.8611 644,-29.9865"/>
<polygon fill="midnightblue" stroke="midnightblue" points="647.5,-29.751 644,-19.7511 640.5,-29.7511 647.5,-29.751"/>
</g>
<!-- Node18&#45;&gt;Node13 -->
<g id="edge44" class="edge"><title>Node18&#45;&gt;Node13</title>
<path fill="none" stroke="midnightblue" d="M330.828,-56.4435C358.249,-47.3591 401.777,-32.9388 432.432,-22.7831"/>
<polygon fill="midnightblue" stroke="midnightblue" points="433.901,-25.9837 442.293,-19.5164 431.7,-19.3389 433.901,-25.9837"/>
</g>
<!-- Node19&#45;&gt;Node6 -->
<g id="edge50" class="edge"><title>Node19&#45;&gt;Node6</title>
<path fill="none" stroke="midnightblue" d="M763,-56.083C763,-49.0059 763,-38.8611 763,-29.9865"/>
<polygon fill="midnightblue" stroke="midnightblue" points="766.5,-29.751 763,-19.7511 759.5,-29.7511 766.5,-29.751"/>
</g>
<!-- Node19&#45;&gt;Node13 -->
<g id="edge48" class="edge"><title>Node19&#45;&gt;Node13</title>
<path fill="none" stroke="midnightblue" d="M716.256,-56.4435C660.852,-46.3018 569.118,-29.5098 514.029,-19.4256"/>
<polygon fill="midnightblue" stroke="midnightblue" points="514.321,-15.9209 503.854,-17.5631 513.06,-22.8065 514.321,-15.9209"/>
</g>
<!-- Node20&#45;&gt;Node13 -->
<g id="edge54" class="edge"><title>Node20&#45;&gt;Node13</title>
<path fill="none" stroke="midnightblue" d="M420.997,-56.324C429.194,-48.4196 441.506,-36.5482 451.472,-26.9377"/>
<polygon fill="midnightblue" stroke="midnightblue" points="454.07,-29.2947 458.839,-19.8339 449.211,-24.2558 454.07,-29.2947"/>
</g>
<!-- Node21&#45;&gt;Node13 -->
<g id="edge58" class="edge"><title>Node21&#45;&gt;Node13</title>
<path fill="none" stroke="midnightblue" d="M515.842,-56.324C507.499,-48.4196 494.968,-36.5482 484.823,-26.9377"/>
<polygon fill="midnightblue" stroke="midnightblue" points="486.991,-24.1705 477.325,-19.8339 482.177,-29.2522 486.991,-24.1705"/>
</g>
</g>
</svg>
        <g id="navigator" transform="translate(0 0)" fill="#404254">
                <rect fill="#f2f5e9" fill-opacity="0.5" stroke="#606060" stroke-width=".5" x="0" y="0" width="60" height="60"/>
                <use id="zoomplus" xlink:href="#zoomPlus" x="17" y="9" onmousedown="handleZoom(evt,'in')"/>
                <use id="zoomminus" xlink:href="#zoomMin" x="42" y="9" onmousedown="handleZoom(evt,'out')"/>
                <use id="reset" xlink:href="#resetDef" x="30" y="36" onmousedown="handleReset()"/>
                <g id="arrowUp" xlink:href="#dirArrow" transform="translate(30 24)" onmousedown="handlePan(0,-1)">
                  <use xlink:href="#rim" fill="#404040">
                        <set attributeName="fill" to="#808080" begin="arrowUp.mouseover" end="arrowUp.mouseout"/>
                  </use>
                  <path fill="none" stroke="white" stroke-width="1.5" d="M0,-3.0v7 M-2.5,-0.5L0,-3.0L2.5,-0.5"/>
                </g>
                <g id="arrowRight" xlink:href="#dirArrow" transform="rotate(90) translate(36 -43)" onmousedown="handlePan(1,0)">
                  <use xlink:href="#rim" fill="#404040">
                        <set attributeName="fill" to="#808080" begin="arrowRight.mouseover" end="arrowRight.mouseout"/>
                  </use>
                  <path fill="none" stroke="white" stroke-width="1.5" d="M0,-3.0v7 M-2.5,-0.5L0,-3.0L2.5,-0.5"/>
                </g>
                <g id="arrowDown" xlink:href="#dirArrow" transform="rotate(180) translate(-30 -48)" onmousedown="handlePan(0,1)">
                  <use xlink:href="#rim" fill="#404040">
                        <set attributeName="fill" to="#808080" begin="arrowDown.mouseover" end="arrowDown.mouseout"/>
                  </use>
                  <path fill="none" stroke="white" stroke-width="1.5" d="M0,-3.0v7 M-2.5,-0.5L0,-3.0L2.5,-0.5"/>
                </g>
                <g id="arrowLeft" xlink:href="#dirArrow" transform="rotate(270) translate(-36 17)" onmousedown="handlePan(-1,0)">
                  <use xlink:href="#rim" fill="#404040">
                        <set attributeName="fill" to="#808080" begin="arrowLeft.mouseover" end="arrowLeft.mouseout"/>
                  </use>
                  <path fill="none" stroke="white" stroke-width="1.5" d="M0,-3.0v7 M-2.5,-0.5L0,-3.0L2.5,-0.5"/>
                </g>
        </g>
        <svg viewBox="0 0 25 25" width="100%" height="30px" preserveAspectRatio="xMaxYMin meet"> 
          <g id="printButton" transform="scale(0.4 0.4)" onmousedown="handlePrint(evt)">
            <rect height="23.33753581" id="paper" rx="2" style="fill:#f2f5e9;fill-rule:evenodd;stroke:#111111;stroke-width:3.224;stroke-linejoin:round;" transform="matrix(1.000000,0.000000,-0.339266,0.940691,0.000000,0.000000)" width="25.55231285" x="26.69387353" y="7.36162977"/>
            <rect height="26.272097" id="body" rx="2" style="fill:#404040;fill-rule:evenodd;stroke:#111111;stroke-width:3.125;stroke-linejoin:round;" width="50" x="4.5295201" y="27.078951"/>
            <rect height="8.27750969" id="tray" style="fill:#d2d5c9;fill-rule:evenodd;stroke:#111111;stroke-width:3.125;stroke-linecap:round;stroke-linejoin:round;" width="40" x="10.28778839" y="44.96812282"/>
          </g>
        </svg>
</svg>
