<?xml version="1.0" encoding="UTF-8" standalone="no"?>
<!DOCTYPE svg PUBLIC "-//W3C//DTD SVG 1.1//EN"
 "http://www.w3.org/Graphics/SVG/1.1/DTD/svg11.dtd">
<!-- Generated by graphviz version 2.28.0 (20120217.0315)
 -->
<!-- Title: G Pages: 1 -->
<!--zoomable 84 -->
<svg id="main" version="1.1" xmlns="http://www.w3.org/2000/svg" xmlns:xlink="http://www.w3.org/1999/xlink" xml:space="preserve" onload="init(evt)">
        <defs>
                <circle id="rim" cx="0" cy="0" r="7"/>
                <circle id="rim2" cx="0" cy="0" r="3.5"/>
                <g id="zoomPlus">
                        <use xlink:href="#rim" fill="#404040">
                                <set attributeName="fill" to="#808080" begin="zoomplus.mouseover" end="zoomplus.mouseout"/>
                        </use>
                        <path d="M-4,0h8M0,-4v8" fill="none" stroke="white" stroke-width="1.5" pointer-events="none"/>
                </g>
                <g id="zoomMin">
                        <use xlink:href="#rim" fill="#404040">
                                <set attributeName="fill" to="#808080" begin="zoomminus.mouseover" end="zoomminus.mouseout"/>
                        </use>
                        <path d="M-4,0h8" fill="none" stroke="white" stroke-width="1.5" pointer-events="none"/>
                </g>
                <g id="dirArrow">
                        <path fill="none" stroke="white" stroke-width="1.5" d="M0,-3.0v7 M-2.5,-0.5L0,-3.0L2.5,-0.5"/>
                </g>
               <g id="resetDef">
                       <use xlink:href="#rim2" fill="#404040">
                               <set attributeName="fill" to="#808080" begin="reset.mouseover" end="reset.mouseout"/>
                       </use>
               </g>
        </defs>

<script type="text/javascript">
var viewWidth = 1983;
var viewHeight = 84;
var sectionId = 'dynsection-1';
</script>
<script xlink:href="../../svgpan.js"/>
<svg id="graph" class="graph">
<g id="viewport">
<title>G</title>
<!-- Node1 -->
<g id="node1" class="node"><title>Node1</title>
<polygon fill="#bfbfbf" stroke="black" points="891.5,-56.5 891.5,-75.5 962.5,-75.5 962.5,-56.5 891.5,-56.5"/>
<text text-anchor="middle" x="927" y="-63.5" font-family="DejaVuSansMono" font-size="10.00">src/log.h</text>
</g>
<!-- Node2 -->
<g id="node3" class="node"><title>Node2</title>
<a xlink:href="../../d4/d8e/client__socket_8c.html" target="_top" xlink:title="Abstracts basic socket interactions.">
<polygon fill="none" stroke="black" points="-0.5,-0.5 -0.5,-19.5 130.5,-19.5 130.5,-0.5 -0.5,-0.5"/>
<text text-anchor="middle" x="65" y="-7.5" font-family="DejaVuSansMono" font-size="10.00">src/client_socket.c</text>
</a>
</g>
<!-- Node1&#45;&gt;Node2 -->
<g id="edge2" class="edge"><title>Node1&#45;&gt;Node2</title>
<path fill="none" stroke="midnightblue" d="M881.162,-63.4086C759.862,-58.9752 420.487,-45.1289 139,-20 136.293,-19.7583 133.532,-19.4958 130.744,-19.2173"/>
<polygon fill="midnightblue" stroke="midnightblue" points="881.085,-66.908 891.205,-63.7723 881.338,-59.9126 881.085,-66.908"/>
</g>
<!-- Node3 -->
<g id="node5" class="node"><title>Node3</title>
<a xlink:href="../../d0/deb/event_8c.html" target="_top" xlink:title="Simple event loop.">
<polygon fill="none" stroke="black" points="148.5,-0.5 148.5,-19.5 231.5,-19.5 231.5,-0.5 148.5,-0.5"/>
<text text-anchor="middle" x="190" y="-7.5" font-family="DejaVuSansMono" font-size="10.00">src/event.c</text>
</a>
</g>
<!-- Node1&#45;&gt;Node3 -->
<g id="edge4" class="edge"><title>Node1&#45;&gt;Node3</title>
<path fill="none" stroke="midnightblue" d="M881.352,-63.7874C770.881,-60.4663 480.5,-49.4266 240,-20 237.286,-19.6679 234.496,-19.2843 231.689,-18.8665"/>
<polygon fill="midnightblue" stroke="midnightblue" points="881.374,-67.2894 891.473,-64.085 881.58,-60.2925 881.374,-67.2894"/>
</g>
<!-- Node4 -->
<g id="node7" class="node"><title>Node4</title>
<a xlink:href="../../d3/d5a/jid_8c.html" target="_top" xlink:title="Defines structures and functions for XMP3 extension modules.">
<polygon fill="none" stroke="black" points="249.5,-0.5 249.5,-19.5 320.5,-19.5 320.5,-0.5 249.5,-0.5"/>
<text text-anchor="middle" x="285" y="-7.5" font-family="DejaVuSansMono" font-size="10.00">src/jid.c</text>
</a>
</g>
<!-- Node1&#45;&gt;Node4 -->
<g id="edge6" class="edge"><title>Node1&#45;&gt;Node4</title>
<path fill="none" stroke="midnightblue" d="M881.355,-63.5374C781.026,-59.8912 533.911,-48.5497 329,-20 326.374,-19.6342 323.67,-19.2068 320.954,-18.7406"/>
<polygon fill="midnightblue" stroke="midnightblue" points="881.329,-67.0386 891.447,-63.896 881.578,-60.043 881.329,-67.0386"/>
</g>
<!-- Node5 -->
<g id="node9" class="node"><title>Node5</title>
<a xlink:href="../../d0/d29/main_8c.html" target="_top" xlink:title="Main function and argument parsing.">
<polygon fill="none" stroke="black" points="338.5,-0.5 338.5,-19.5 415.5,-19.5 415.5,-0.5 338.5,-0.5"/>
<text text-anchor="middle" x="377" y="-7.5" font-family="DejaVuSansMono" font-size="10.00">src/main.c</text>
</a>
</g>
<!-- Node1&#45;&gt;Node5 -->
<g id="edge8" class="edge"><title>Node1&#45;&gt;Node5</title>
<path fill="none" stroke="midnightblue" d="M881.256,-62.4438C792.68,-57.1547 591.705,-43.4986 424,-20 421.285,-19.6196 418.489,-19.1877 415.678,-18.7239"/>
<polygon fill="midnightblue" stroke="midnightblue" points="881.302,-65.9525 891.491,-63.0474 881.714,-58.9646 881.302,-65.9525"/>
</g>
<!-- Node6 -->
<g id="node11" class="node"><title>Node6</title>
<a xlink:href="../../d3/d91/utils_8c.html" target="_top" xlink:title="Miscellaneous utility functions.">
<polygon fill="none" stroke="black" points="433.5,-0.5 433.5,-19.5 516.5,-19.5 516.5,-0.5 433.5,-0.5"/>
<text text-anchor="middle" x="475" y="-7.5" font-family="DejaVuSansMono" font-size="10.00">src/utils.c</text>
</a>
</g>
<!-- Node1&#45;&gt;Node6 -->
<g id="edge10" class="edge"><title>Node1&#45;&gt;Node6</title>
<path fill="none" stroke="midnightblue" d="M881.399,-60.8935C806.72,-53.9447 653.76,-38.7738 525,-20 522.294,-19.6055 519.511,-19.1746 516.708,-18.7218"/>
<polygon fill="midnightblue" stroke="midnightblue" points="881.126,-64.3832 891.406,-61.819 881.771,-57.4129 881.126,-64.3832"/>
</g>
<!-- Node7 -->
<g id="node13" class="node"><title>Node7</title>
<a xlink:href="../../d7/d71/xep__muc_8c.html" target="_top" xlink:title="Implements XEP&#45;0045 Multi&#45;User Chat.">
<polygon fill="none" stroke="black" points="534.5,-0.5 534.5,-19.5 629.5,-19.5 629.5,-0.5 534.5,-0.5"/>
<text text-anchor="middle" x="582" y="-7.5" font-family="DejaVuSansMono" font-size="10.00">src/xep_muc.c</text>
</a>
</g>
<!-- Node1&#45;&gt;Node7 -->
<g id="edge12" class="edge"><title>Node1&#45;&gt;Node7</title>
<path fill="none" stroke="midnightblue" d="M881.276,-57.9509C824.293,-49.1497 723.932,-33.5955 638,-20 635.277,-19.5691 632.479,-19.1249 629.656,-18.6753"/>
<polygon fill="midnightblue" stroke="midnightblue" points="880.981,-61.4467 891.398,-59.5137 882.049,-54.5287 880.981,-61.4467"/>
</g>
<!-- Node8 -->
<g id="node15" class="node"><title>Node8</title>
<a xlink:href="../../d3/dd8/xmp3__module_8c.html" target="_top" xlink:title="Defines structures and functions for XMP3 extension modules.">
<polygon fill="none" stroke="black" points="647.5,-0.5 647.5,-19.5 766.5,-19.5 766.5,-0.5 647.5,-0.5"/>
<text text-anchor="middle" x="707" y="-7.5" font-family="DejaVuSansMono" font-size="10.00">src/xmp3_module.c</text>
</a>
</g>
<!-- Node1&#45;&gt;Node8 -->
<g id="edge14" class="edge"><title>Node1&#45;&gt;Node8</title>
<path fill="none" stroke="midnightblue" d="M882.282,-54.0237C840.724,-43.8232 779.687,-28.8414 741.697,-19.5164"/>
<polygon fill="midnightblue" stroke="midnightblue" points="881.594,-57.4588 892.14,-56.4435 883.263,-50.6606 881.594,-57.4588"/>
</g>
<!-- Node9 -->
<g id="node17" class="node"><title>Node9</title>
<a xlink:href="../../d6/d78/xmp3__multicast_8c.html" target="_top" xlink:title="Simple extension module that multicasts messages to other XMP3 instances.">
<polygon fill="none" stroke="black" points="784.5,-0.5 784.5,-19.5 921.5,-19.5 921.5,-0.5 784.5,-0.5"/>
<text text-anchor="middle" x="853" y="-7.5" font-family="DejaVuSansMono" font-size="10.00">src/xmp3_multicast.c</text>
</a>
</g>
<!-- Node1&#45;&gt;Node9 -->
<g id="edge16" class="edge"><title>Node1&#45;&gt;Node9</title>
<path fill="none" stroke="midnightblue" d="M906.966,-50.3804C893.591,-40.6204 876.441,-28.1057 865.106,-19.8339"/>
<polygon fill="midnightblue" stroke="midnightblue" points="904.97,-53.2565 915.111,-56.324 909.096,-47.602 904.97,-53.2565"/>
</g>
<!-- Node10 -->
<g id="node19" class="node"><title>Node10</title>
<a xlink:href="../../dd/d68/xmp3__options_8c.html" target="_top" xlink:title="Functions for maintaining settings for XMP3.">
<polygon fill="none" stroke="black" points="939.5,-0.5 939.5,-19.5 1064.5,-19.5 1064.5,-0.5 939.5,-0.5"/>
<text text-anchor="middle" x="1002" y="-7.5" font-family="DejaVuSansMono" font-size="10.00">src/xmp3_options.c</text>
</a>
</g>
<!-- Node1&#45;&gt;Node10 -->
<g id="edge18" class="edge"><title>Node1&#45;&gt;Node10</title>
<path fill="none" stroke="midnightblue" d="M947.305,-50.3804C960.861,-40.6204 978.242,-28.1057 989.731,-19.8339"/>
<polygon fill="midnightblue" stroke="midnightblue" points="945.12,-47.6405 939.05,-56.324 949.21,-53.3213 945.12,-47.6405"/>
</g>
<!-- Node11 -->
<g id="node21" class="node"><title>Node11</title>
<a xlink:href="../../df/da9/xmpp__auth_8c.html" target="_top" xlink:title="Implement initial XMPP authendication.">
<polygon fill="none" stroke="black" points="1082.5,-0.5 1082.5,-19.5 1189.5,-19.5 1189.5,-0.5 1082.5,-0.5"/>
<text text-anchor="middle" x="1136" y="-7.5" font-family="DejaVuSansMono" font-size="10.00">src/xmpp_auth.c</text>
</a>
</g>
<!-- Node1&#45;&gt;Node11 -->
<g id="edge20" class="edge"><title>Node1&#45;&gt;Node11</title>
<path fill="none" stroke="midnightblue" d="M969.984,-53.8941C1009.45,-43.6966 1067.1,-28.802 1103.04,-19.5164"/>
<polygon fill="midnightblue" stroke="midnightblue" points="968.923,-50.5532 960.117,-56.4435 970.674,-57.3306 968.923,-50.5532"/>
</g>
<!-- Node12 -->
<g id="node23" class="node"><title>Node12</title>
<a xlink:href="../../dd/d4d/xmpp__client_8c.html" target="_top" xlink:title="A connected XMPP server client.">
<polygon fill="none" stroke="black" points="1207.5,-0.5 1207.5,-19.5 1326.5,-19.5 1326.5,-0.5 1207.5,-0.5"/>
<text text-anchor="middle" x="1267" y="-7.5" font-family="DejaVuSansMono" font-size="10.00">src/xmpp_client.c</text>
</a>
</g>
<!-- Node1&#45;&gt;Node12 -->
<g id="edge22" class="edge"><title>Node1&#45;&gt;Node12</title>
<path fill="none" stroke="midnightblue" d="M972.703,-57.7413C1035.19,-47.8176 1147.07,-30.0483 1213.42,-19.5102"/>
<polygon fill="midnightblue" stroke="midnightblue" points="972.071,-54.2978 962.743,-59.3231 973.169,-61.2111 972.071,-54.2978"/>
</g>
<!-- Node13 -->
<g id="node25" class="node"><title>Node13</title>
<a xlink:href="../../d6/d13/xmpp__core_8c.html" target="_top" xlink:title="Handles base stanza routing.">
<polygon fill="none" stroke="black" points="1344.5,-0.5 1344.5,-19.5 1451.5,-19.5 1451.5,-0.5 1344.5,-0.5"/>
<text text-anchor="middle" x="1398" y="-7.5" font-family="DejaVuSansMono" font-size="10.00">src/xmpp_core.c</text>
</a>
</g>
<!-- Node1&#45;&gt;Node13 -->
<g id="edge24" class="edge"><title>Node1&#45;&gt;Node13</title>
<path fill="none" stroke="midnightblue" d="M972.626,-60.4496C1048.1,-52.814 1203.67,-36.6192 1335,-20 1338.07,-19.6116 1341.22,-19.2005 1344.4,-18.7764"/>
<polygon fill="midnightblue" stroke="midnightblue" points="972.117,-56.9831 962.519,-61.4694 972.819,-63.9478 972.117,-56.9831"/>
</g>
<!-- Node14 -->
<g id="node27" class="node"><title>Node14</title>
<a xlink:href="../../dc/da6/xmpp__im_8c.html" target="_top" xlink:title="Implements the parsing for RFC6121 IM and Presence.">
<polygon fill="none" stroke="black" points="1469.5,-0.5 1469.5,-19.5 1564.5,-19.5 1564.5,-0.5 1469.5,-0.5"/>
<text text-anchor="middle" x="1517" y="-7.5" font-family="DejaVuSansMono" font-size="10.00">src/xmpp_im.c</text>
</a>
</g>
<!-- Node1&#45;&gt;Node14 -->
<g id="edge26" class="edge"><title>Node1&#45;&gt;Node14</title>
<path fill="none" stroke="midnightblue" d="M972.765,-62.2565C1065.1,-56.474 1280.24,-41.751 1460,-20 1463.08,-19.6269 1466.26,-19.2122 1469.45,-18.7715"/>
<polygon fill="midnightblue" stroke="midnightblue" points="972.409,-58.7718 962.645,-62.8851 972.843,-65.7583 972.409,-58.7718"/>
</g>
<!-- Node15 -->
<g id="node29" class="node"><title>Node15</title>
<a xlink:href="../../d1/dc2/xmpp__parser_8c.html" target="_top" xlink:title="DOM&#45;style XML parser for XMPP stanzas.">
<polygon fill="none" stroke="black" points="1582.5,-0.5 1582.5,-19.5 1701.5,-19.5 1701.5,-0.5 1582.5,-0.5"/>
<text text-anchor="middle" x="1642" y="-7.5" font-family="DejaVuSansMono" font-size="10.00">src/xmpp_parser.c</text>
</a>
</g>
<!-- Node1&#45;&gt;Node15 -->
<g id="edge28" class="edge"><title>Node1&#45;&gt;Node15</title>
<path fill="none" stroke="midnightblue" d="M972.801,-62.7584C1078.65,-57.3708 1348.36,-42.4544 1573,-20 1576.01,-19.6996 1579.08,-19.3721 1582.19,-19.0255"/>
<polygon fill="midnightblue" stroke="midnightblue" points="972.59,-59.2645 962.78,-63.2649 972.944,-66.2556 972.59,-59.2645"/>
</g>
<!-- Node16 -->
<g id="node31" class="node"><title>Node16</title>
<a xlink:href="../../d0/df0/xmpp__server_8c.html" target="_top" xlink:title="Main XMPP server data/functions.">
<polygon fill="none" stroke="black" points="1719.5,-0.5 1719.5,-19.5 1838.5,-19.5 1838.5,-0.5 1719.5,-0.5"/>
<text text-anchor="middle" x="1779" y="-7.5" font-family="DejaVuSansMono" font-size="10.00">src/xmpp_server.c</text>
</a>
</g>
<!-- Node1&#45;&gt;Node16 -->
<g id="edge30" class="edge"><title>Node1&#45;&gt;Node16</title>
<path fill="none" stroke="midnightblue" d="M972.924,-63.5214C1093.8,-59.3782 1430.69,-46.2074 1710,-20 1713.01,-19.7179 1716.08,-19.405 1719.19,-19.0701"/>
<polygon fill="midnightblue" stroke="midnightblue" points="972.453,-60.0352 962.578,-63.8719 972.691,-67.0312 972.453,-60.0352"/>
</g>
<!-- Node17 -->
<g id="node33" class="node"><title>Node17</title>
<a xlink:href="../../d1/d59/xmpp__stanza_8c.html" target="_top" xlink:title="Represents top&#45;level XMPP stanzas received from clients.">
<polygon fill="none" stroke="black" points="1856.5,-0.5 1856.5,-19.5 1975.5,-19.5 1975.5,-0.5 1856.5,-0.5"/>
<text text-anchor="middle" x="1916" y="-7.5" font-family="DejaVuSansMono" font-size="10.00">src/xmpp_stanza.c</text>
</a>
</g>
<!-- Node1&#45;&gt;Node17 -->
<g id="edge32" class="edge"><title>Node1&#45;&gt;Node17</title>
<path fill="none" stroke="midnightblue" d="M972.922,-64.0665C1107.48,-61.0489 1512.42,-49.9535 1847,-20 1850.01,-19.7307 1853.09,-19.4282 1856.19,-19.1014"/>
<polygon fill="midnightblue" stroke="midnightblue" points="972.512,-60.5746 962.592,-64.2941 972.667,-67.5729 972.512,-60.5746"/>
</g>
</g>
</svg>
        <g id="navigator" transform="translate(0 0)" fill="#404254">
                <rect fill="#f2f5e9" fill-opacity="0.5" stroke="#606060" stroke-width=".5" x="0" y="0" width="60" height="60"/>
                <use id="zoomplus" xlink:href="#zoomPlus" x="17" y="9" onmousedown="handleZoom(evt,'in')"/>
                <use id="zoomminus" xlink:href="#zoomMin" x="42" y="9" onmousedown="handleZoom(evt,'out')"/>
                <use id="reset" xlink:href="#resetDef" x="30" y="36" onmousedown="handleReset()"/>
                <g id="arrowUp" xlink:href="#dirArrow" transform="translate(30 24)" onmousedown="handlePan(0,-1)">
                  <use xlink:href="#rim" fill="#404040">
                        <set attributeName="fill" to="#808080" begin="arrowUp.mouseover" end="arrowUp.mouseout"/>
                  </use>
                  <path fill="none" stroke="white" stroke-width="1.5" d="M0,-3.0v7 M-2.5,-0.5L0,-3.0L2.5,-0.5"/>
                </g>
                <g id="arrowRight" xlink:href="#dirArrow" transform="rotate(90) translate(36 -43)" onmousedown="handlePan(1,0)">
                  <use xlink:href="#rim" fill="#404040">
                        <set attributeName="fill" to="#808080" begin="arrowRight.mouseover" end="arrowRight.mouseout"/>
                  </use>
                  <path fill="none" stroke="white" stroke-width="1.5" d="M0,-3.0v7 M-2.5,-0.5L0,-3.0L2.5,-0.5"/>
                </g>
                <g id="arrowDown" xlink:href="#dirArrow" transform="rotate(180) translate(-30 -48)" onmousedown="handlePan(0,1)">
                  <use xlink:href="#rim" fill="#404040">
                        <set attributeName="fill" to="#808080" begin="arrowDown.mouseover" end="arrowDown.mouseout"/>
                  </use>
                  <path fill="none" stroke="white" stroke-width="1.5" d="M0,-3.0v7 M-2.5,-0.5L0,-3.0L2.5,-0.5"/>
                </g>
                <g id="arrowLeft" xlink:href="#dirArrow" transform="rotate(270) translate(-36 17)" onmousedown="handlePan(-1,0)">
                  <use xlink:href="#rim" fill="#404040">
                        <set attributeName="fill" to="#808080" begin="arrowLeft.mouseover" end="arrowLeft.mouseout"/>
                  </use>
                  <path fill="none" stroke="white" stroke-width="1.5" d="M0,-3.0v7 M-2.5,-0.5L0,-3.0L2.5,-0.5"/>
                </g>
        </g>
        <svg viewBox="0 0 25 25" width="100%" height="30px" preserveAspectRatio="xMaxYMin meet"> 
          <g id="printButton" transform="scale(0.4 0.4)" onmousedown="handlePrint(evt)">
            <rect height="23.33753581" id="paper" rx="2" style="fill:#f2f5e9;fill-rule:evenodd;stroke:#111111;stroke-width:3.224;stroke-linejoin:round;" transform="matrix(1.000000,0.000000,-0.339266,0.940691,0.000000,0.000000)" width="25.55231285" x="26.69387353" y="7.36162977"/>
            <rect height="26.272097" id="body" rx="2" style="fill:#404040;fill-rule:evenodd;stroke:#111111;stroke-width:3.125;stroke-linejoin:round;" width="50" x="4.5295201" y="27.078951"/>
            <rect height="8.27750969" id="tray" style="fill:#d2d5c9;fill-rule:evenodd;stroke:#111111;stroke-width:3.125;stroke-linecap:round;stroke-linejoin:round;" width="40" x="10.28778839" y="44.96812282"/>
          </g>
        </svg>
</svg>
