<?xml version="1.0" encoding="UTF-8" standalone="no"?>
<!DOCTYPE svg PUBLIC "-//W3C//DTD SVG 1.1//EN"
 "http://www.w3.org/Graphics/SVG/1.1/DTD/svg11.dtd">
<!-- Generated by graphviz version 2.28.0 (20120217.0315)
 -->
<!-- Title: G Pages: 1 -->
<!--zoomable 398 -->
<svg id="main" version="1.1" xmlns="http://www.w3.org/2000/svg" xmlns:xlink="http://www.w3.org/1999/xlink" xml:space="preserve" onload="init(evt)">
        <defs>
                <circle id="rim" cx="0" cy="0" r="7"/>
                <circle id="rim2" cx="0" cy="0" r="3.5"/>
                <g id="zoomPlus">
                        <use xlink:href="#rim" fill="#404040">
                                <set attributeName="fill" to="#808080" begin="zoomplus.mouseover" end="zoomplus.mouseout"/>
                        </use>
                        <path d="M-4,0h8M0,-4v8" fill="none" stroke="white" stroke-width="1.5" pointer-events="none"/>
                </g>
                <g id="zoomMin">
                        <use xlink:href="#rim" fill="#404040">
                                <set attributeName="fill" to="#808080" begin="zoomminus.mouseover" end="zoomminus.mouseout"/>
                        </use>
                        <path d="M-4,0h8" fill="none" stroke="white" stroke-width="1.5" pointer-events="none"/>
                </g>
                <g id="dirArrow">
                        <path fill="none" stroke="white" stroke-width="1.5" d="M0,-3.0v7 M-2.5,-0.5L0,-3.0L2.5,-0.5"/>
                </g>
               <g id="resetDef">
                       <use xlink:href="#rim2" fill="#404040">
                               <set attributeName="fill" to="#808080" begin="reset.mouseover" end="reset.mouseout"/>
                       </use>
               </g>
        </defs>

<script type="text/javascript">
var viewWidth = 1820;
var viewHeight = 398;
var sectionId = 'dynsection-19';
</script>
<script xlink:href="../../svgpan.js"/>
<svg id="graph" class="graph">
<g id="viewport">
<title>G</title>
<!-- Node1 -->
<g id="node1" class="node"><title>Node1</title>
<polygon fill="#bfbfbf" stroke="black" points="0.5,-152.5 0.5,-171.5 113.5,-171.5 113.5,-152.5 0.5,-152.5"/>
<text text-anchor="middle" x="57" y="-159.5" font-family="DejaVuSansMono" font-size="10.00">jid_set_resource</text>
</g>
<!-- Node2 -->
<g id="node3" class="node"><title>Node2</title>
<a xlink:href="../../d6/d24/jid_8h.html#a6da80c5b44d3c4ef896850a5d1d790b0" target="_top" xlink:title="Allocate and initialize a new JID from an existing JID structure.">
<polygon fill="none" stroke="black" points="150.5,-152.5 150.5,-171.5 263.5,-171.5 263.5,-152.5 150.5,-152.5"/>
<text text-anchor="middle" x="207" y="-159.5" font-family="DejaVuSansMono" font-size="10.00">jid_new_from_jid</text>
</a>
</g>
<!-- Node1&#45;&gt;Node2 -->
<g id="edge2" class="edge"><title>Node1&#45;&gt;Node2</title>
<path fill="none" stroke="midnightblue" d="M123.768,-162C132.576,-162 141.542,-162 150.158,-162"/>
<polygon fill="midnightblue" stroke="midnightblue" points="123.531,-158.5 113.531,-162 123.531,-165.5 123.531,-158.5"/>
</g>
<!-- Node3 -->
<g id="node5" class="node"><title>Node3</title>
<a xlink:href="../../d7/d71/xep__muc_8c.html#acf84f00141033b025df269e540461383" target="_top" xlink:title="handle_message">
<polygon fill="none" stroke="black" points="327.5,-76.5 327.5,-95.5 428.5,-95.5 428.5,-76.5 327.5,-76.5"/>
<text text-anchor="middle" x="378" y="-83.5" font-family="DejaVuSansMono" font-size="10.00">handle_message</text>
</a>
</g>
<!-- Node1&#45;&gt;Node3 -->
<g id="edge60" class="edge"><title>Node1&#45;&gt;Node3</title>
<path fill="none" stroke="midnightblue" d="M107.834,-150.127C171.092,-135.056 278.964,-109.357 337.085,-95.5094"/>
<polygon fill="midnightblue" stroke="midnightblue" points="106.995,-146.729 98.0786,-152.452 108.617,-153.539 106.995,-146.729"/>
</g>
<!-- Node5 -->
<g id="node9" class="node"><title>Node5</title>
<a xlink:href="../../d7/d71/xep__muc_8c.html#addf05166cf3fbe386ae6650be21ef251" target="_top" xlink:title="xep_muc_start">
<polygon fill="none" stroke="black" points="1020.5,-152.5 1020.5,-171.5 1115.5,-171.5 1115.5,-152.5 1020.5,-152.5"/>
<text text-anchor="middle" x="1068" y="-159.5" font-family="DejaVuSansMono" font-size="10.00">xep_muc_start</text>
</a>
</g>
<!-- Node1&#45;&gt;Node5 -->
<g id="edge56" class="edge"><title>Node1&#45;&gt;Node5</title>
<path fill="none" stroke="midnightblue" d="M62.9092,-181.656C72.9078,-217.487 99.118,-293.379 150,-333 232.073,-396.909 272.979,-390 377,-390 377,-390 377,-390 763,-390 911.108,-390 1033.24,-214.657 1061.05,-171.507"/>
<polygon fill="midnightblue" stroke="midnightblue" points="66.1692,-180.295 60.2217,-171.527 59.4033,-182.09 66.1692,-180.295"/>
</g>
<!-- Node6 -->
<g id="node11" class="node"><title>Node6</title>
<a xlink:href="../../d7/d71/xep__muc_8c.html#a20d385a5584d8014ec4d5774eb79d1de" target="_top" xlink:title="xep_muc_stop">
<polygon fill="none" stroke="black" points="1023.5,-38.5 1023.5,-57.5 1112.5,-57.5 1112.5,-38.5 1023.5,-38.5"/>
<text text-anchor="middle" x="1068" y="-45.5" font-family="DejaVuSansMono" font-size="10.00">xep_muc_stop</text>
</a>
</g>
<!-- Node1&#45;&gt;Node6 -->
<g id="edge58" class="edge"><title>Node1&#45;&gt;Node6</title>
<path fill="none" stroke="midnightblue" d="M71.6011,-144.141C88.028,-123.782 117.528,-90.8863 150,-72 240.405,-19.4186 272.416,-10 377,-10 377,-10 377,-10 763,-10 858.928,-10 883.138,-14.7373 978,-29 994.249,-31.4431 1011.98,-35.0369 1027.32,-38.4433"/>
<polygon fill="midnightblue" stroke="midnightblue" points="68.637,-142.248 65.2001,-152.27 74.1366,-146.579 68.637,-142.248"/>
</g>
<!-- Node11 -->
<g id="node23" class="node"><title>Node11</title>
<a xlink:href="../../d7/d71/xep__muc_8c.html#a115281f539cd77f88872ff153ec5b38d" target="_top" xlink:title="send_presence_broadcast">
<polygon fill="none" stroke="black" points="300.5,-266.5 300.5,-285.5 455.5,-285.5 455.5,-266.5 300.5,-266.5"/>
<text text-anchor="middle" x="378" y="-273.5" font-family="DejaVuSansMono" font-size="10.00">send_presence_broadcast</text>
</a>
</g>
<!-- Node1&#45;&gt;Node11 -->
<g id="edge72" class="edge"><title>Node1&#45;&gt;Node11</title>
<path fill="none" stroke="midnightblue" d="M88.9986,-175.699C134.58,-195.489 222.663,-232.397 300,-257 310.89,-260.465 322.813,-263.68 333.954,-266.443"/>
<polygon fill="midnightblue" stroke="midnightblue" points="90.2378,-172.421 79.6725,-171.63 87.4389,-178.837 90.2378,-172.421"/>
</g>
<!-- Node12 -->
<g id="node26" class="node"><title>Node12</title>
<a xlink:href="../../df/da9/xmpp__auth_8c.html#a603b4a63af3c4e4af99442805fe89ae8" target="_top" xlink:title="Step 15: Client binds a resource.">
<polygon fill="none" stroke="black" points="327.5,-38.5 327.5,-57.5 428.5,-57.5 428.5,-38.5 327.5,-38.5"/>
<text text-anchor="middle" x="378" y="-45.5" font-family="DejaVuSansMono" font-size="10.00">handle_bind_iq</text>
</a>
</g>
<!-- Node1&#45;&gt;Node12 -->
<g id="edge74" class="edge"><title>Node1&#45;&gt;Node12</title>
<path fill="none" stroke="midnightblue" d="M81.1394,-146.893C99.2925,-135.549 125.504,-120.265 150,-110 213.963,-83.1967 232.989,-84.8659 300,-67 311.974,-63.8076 325.046,-60.5116 336.963,-57.5793"/>
<polygon fill="midnightblue" stroke="midnightblue" points="79.0005,-144.105 72.4327,-152.419 82.7514,-150.015 79.0005,-144.105"/>
</g>
<!-- Node24 -->
<g id="node55" class="node"><title>Node24</title>
<a xlink:href="../../d7/d71/xep__muc_8c.html#af88baacca4f1cccf8ec2bc295db0e063" target="_top" xlink:title="leave_room">
<polygon fill="none" stroke="black" points="168.5,-304.5 168.5,-323.5 245.5,-323.5 245.5,-304.5 168.5,-304.5"/>
<text text-anchor="middle" x="207" y="-311.5" font-family="DejaVuSansMono" font-size="10.00">leave_room</text>
</a>
</g>
<!-- Node1&#45;&gt;Node24 -->
<g id="edge62" class="edge"><title>Node1&#45;&gt;Node24</title>
<path fill="none" stroke="midnightblue" d="M74.3511,-178.793C105.46,-210.743 172.247,-279.335 196.745,-304.495"/>
<polygon fill="midnightblue" stroke="midnightblue" points="76.7419,-176.231 67.2581,-171.508 71.7266,-181.115 76.7419,-176.231"/>
</g>
<!-- Node2&#45;&gt;Node3 -->
<g id="edge4" class="edge"><title>Node2&#45;&gt;Node3</title>
<path fill="none" stroke="midnightblue" d="M232.565,-147.333C255.043,-134.056 286.754,-115.73 300,-110 312.98,-104.385 327.703,-99.4646 340.774,-95.5651"/>
<polygon fill="midnightblue" stroke="midnightblue" points="230.689,-144.376 223.872,-152.486 234.259,-150.397 230.689,-144.376"/>
</g>
<!-- Node7 -->
<g id="node13" class="node"><title>Node7</title>
<a xlink:href="../../d7/d71/xep__muc_8c.html#a1b52b88e96c04035a9e9f53e6210d149" target="_top" xlink:title="room_new">
<polygon fill="none" stroke="black" points="345.5,-190.5 345.5,-209.5 410.5,-209.5 410.5,-190.5 345.5,-190.5"/>
<text text-anchor="middle" x="378" y="-197.5" font-family="DejaVuSansMono" font-size="10.00">room_new</text>
</a>
</g>
<!-- Node2&#45;&gt;Node7 -->
<g id="edge12" class="edge"><title>Node2&#45;&gt;Node7</title>
<path fill="none" stroke="midnightblue" d="M260.601,-173.828C288.359,-180.069 321.498,-187.52 345.305,-192.873"/>
<polygon fill="midnightblue" stroke="midnightblue" points="261.17,-170.368 250.646,-171.589 259.634,-177.198 261.17,-170.368"/>
</g>
<!-- Node10 -->
<g id="node20" class="node"><title>Node10</title>
<a xlink:href="../../d7/d71/xep__muc_8c.html#ad34287dce9e621d00af71d307f7a22dd" target="_top" xlink:title="room_client_new">
<polygon fill="none" stroke="black" points="324.5,-152.5 324.5,-171.5 431.5,-171.5 431.5,-152.5 324.5,-152.5"/>
<text text-anchor="middle" x="378" y="-159.5" font-family="DejaVuSansMono" font-size="10.00">room_client_new</text>
</a>
</g>
<!-- Node2&#45;&gt;Node10 -->
<g id="edge20" class="edge"><title>Node2&#45;&gt;Node10</title>
<path fill="none" stroke="midnightblue" d="M274.049,-162C290.752,-162 308.466,-162 324.404,-162"/>
<polygon fill="midnightblue" stroke="midnightblue" points="273.805,-158.5 263.805,-162 273.805,-165.5 273.805,-158.5"/>
</g>
<!-- Node2&#45;&gt;Node11 -->
<g id="edge24" class="edge"><title>Node2&#45;&gt;Node11</title>
<path fill="none" stroke="midnightblue" d="M223.886,-179.417C247.711,-205.381 290.885,-251.76 300,-257 306.804,-260.911 314.396,-264.023 322.087,-266.496"/>
<polygon fill="midnightblue" stroke="midnightblue" points="226.232,-176.796 216.898,-171.783 221.068,-181.523 226.232,-176.796"/>
</g>
<!-- Node2&#45;&gt;Node12 -->
<g id="edge28" class="edge"><title>Node2&#45;&gt;Node12</title>
<path fill="none" stroke="midnightblue" d="M220.295,-144.195C236.175,-122.589 265.862,-86.6222 300,-67 308.356,-62.1969 317.9,-58.5999 327.357,-55.9085"/>
<polygon fill="midnightblue" stroke="midnightblue" points="217.336,-142.317 214.363,-152.486 223.028,-146.391 217.336,-142.317"/>
</g>
<!-- Node22 -->
<g id="node47" class="node"><title>Node22</title>
<a xlink:href="../../d1/d2e/xmpp__server_8h.html#a1c8e466b41f2895d5a0b57ee9f0a4c0b" target="_top" xlink:title="Add an item to the response for disco item queries.">
<polygon fill="none" stroke="black" points="492.5,-133.5 492.5,-152.5 665.5,-152.5 665.5,-133.5 492.5,-133.5"/>
<text text-anchor="middle" x="579" y="-140.5" font-family="DejaVuSansMono" font-size="10.00">xmpp_server_add_disco_item</text>
</a>
</g>
<!-- Node2&#45;&gt;Node22 -->
<g id="edge50" class="edge"><title>Node2&#45;&gt;Node22</title>
<path fill="none" stroke="midnightblue" d="M255.404,-150.288C269.648,-147.291 285.377,-144.494 300,-143 364.219,-136.438 437.218,-136.733 492.294,-138.511"/>
<polygon fill="midnightblue" stroke="midnightblue" points="254.353,-146.935 245.331,-152.491 255.848,-153.774 254.353,-146.935"/>
</g>
<!-- Node23 -->
<g id="node50" class="node"><title>Node23</title>
<a xlink:href="../../d0/df0/xmpp__server_8c.html#af1d37b8251dd106082d3fe8097dd565b" target="_top" xlink:title="stanza_route_new">
<polygon fill="none" stroke="black" points="321.5,-228.5 321.5,-247.5 434.5,-247.5 434.5,-228.5 321.5,-228.5"/>
<text text-anchor="middle" x="378" y="-235.5" font-family="DejaVuSansMono" font-size="10.00">stanza_route_new</text>
</a>
</g>
<!-- Node2&#45;&gt;Node23 -->
<g id="edge54" class="edge"><title>Node2&#45;&gt;Node23</title>
<path fill="none" stroke="midnightblue" d="M229.249,-177.852C247.255,-190.608 274.191,-208.14 300,-219 308.884,-222.738 318.666,-225.853 328.192,-228.405"/>
<polygon fill="midnightblue" stroke="midnightblue" points="230.856,-174.696 220.7,-171.678 226.757,-180.371 230.856,-174.696"/>
</g>
<!-- Node4 -->
<g id="node7" class="node"><title>Node4</title>
<a xlink:href="../../d7/d71/xep__muc_8c.html#a1798db1c16a1fa62ff8f39fea202a26f" target="_top" xlink:title="stanza_handler">
<polygon fill="none" stroke="black" points="867.5,-114.5 867.5,-133.5 968.5,-133.5 968.5,-114.5 867.5,-114.5"/>
<text text-anchor="middle" x="918" y="-121.5" font-family="DejaVuSansMono" font-size="10.00">stanza_handler</text>
</a>
</g>
<!-- Node3&#45;&gt;Node4 -->
<g id="edge6" class="edge"><title>Node3&#45;&gt;Node4</title>
<path fill="none" stroke="midnightblue" d="M438.635,-90.2121C545.633,-97.7697 768.282,-113.496 867.471,-120.502"/>
<polygon fill="midnightblue" stroke="midnightblue" points="438.871,-86.7202 428.649,-89.5068 438.378,-93.7028 438.871,-86.7202"/>
</g>
<!-- Node4&#45;&gt;Node5 -->
<g id="edge8" class="edge"><title>Node4&#45;&gt;Node5</title>
<path fill="none" stroke="midnightblue" d="M966.173,-136.112C986.786,-141.404 1010.61,-147.521 1029.92,-152.48"/>
<polygon fill="midnightblue" stroke="midnightblue" points="966.903,-132.686 956.347,-133.589 965.162,-139.466 966.903,-132.686"/>
</g>
<!-- Node4&#45;&gt;Node6 -->
<g id="edge10" class="edge"><title>Node4&#45;&gt;Node6</title>
<path fill="none" stroke="midnightblue" d="M946.763,-109.744C976.481,-94.4826 1022.8,-70.6966 1048.41,-57.5473"/>
<polygon fill="midnightblue" stroke="midnightblue" points="945.041,-106.693 937.744,-114.375 948.239,-112.92 945.041,-106.693"/>
</g>
<!-- Node8 -->
<g id="node15" class="node"><title>Node8</title>
<a xlink:href="../../d7/d71/xep__muc_8c.html#aefd23f2960520a68fea212344b85cb0b" target="_top" xlink:title="enter_room_presence">
<polygon fill="none" stroke="black" points="513.5,-228.5 513.5,-247.5 644.5,-247.5 644.5,-228.5 513.5,-228.5"/>
<text text-anchor="middle" x="579" y="-235.5" font-family="DejaVuSansMono" font-size="10.00">enter_room_presence</text>
</a>
</g>
<!-- Node7&#45;&gt;Node8 -->
<g id="edge14" class="edge"><title>Node7&#45;&gt;Node8</title>
<path fill="none" stroke="midnightblue" d="M420.659,-207.955C451.932,-213.927 494.883,-222.128 528.009,-228.454"/>
<polygon fill="midnightblue" stroke="midnightblue" points="421.011,-204.459 410.532,-206.021 419.698,-211.335 421.011,-204.459"/>
</g>
<!-- Node9 -->
<g id="node17" class="node"><title>Node9</title>
<a xlink:href="../../d7/d71/xep__muc_8c.html#a9936322b944d46aead9fbd942687ec0a" target="_top" xlink:title="handle_presence">
<polygon fill="none" stroke="black" points="708.5,-228.5 708.5,-247.5 815.5,-247.5 815.5,-228.5 708.5,-228.5"/>
<text text-anchor="middle" x="762" y="-235.5" font-family="DejaVuSansMono" font-size="10.00">handle_presence</text>
</a>
</g>
<!-- Node8&#45;&gt;Node9 -->
<g id="edge16" class="edge"><title>Node8&#45;&gt;Node9</title>
<path fill="none" stroke="midnightblue" d="M654.762,-238C672.761,-238 691.617,-238 708.363,-238"/>
<polygon fill="midnightblue" stroke="midnightblue" points="654.579,-234.5 644.579,-238 654.579,-241.5 654.579,-234.5"/>
</g>
<!-- Node9&#45;&gt;Node4 -->
<g id="edge18" class="edge"><title>Node9&#45;&gt;Node4</title>
<path fill="none" stroke="midnightblue" d="M784.176,-222.325C816.491,-198.403 877.166,-153.488 903.845,-133.738"/>
<polygon fill="midnightblue" stroke="midnightblue" points="781.82,-219.714 775.865,-228.477 785.985,-225.34 781.82,-219.714"/>
</g>
<!-- Node10&#45;&gt;Node8 -->
<g id="edge22" class="edge"><title>Node10&#45;&gt;Node8</title>
<path fill="none" stroke="midnightblue" d="M433.975,-174.169C441.445,-176.227 448.959,-178.513 456,-181 494.356,-194.546 536.933,-216.011 560.273,-228.371"/>
<polygon fill="midnightblue" stroke="midnightblue" points="434.786,-170.763 424.223,-171.596 433,-177.531 434.786,-170.763"/>
</g>
<!-- Node11&#45;&gt;Node8 -->
<g id="edge26" class="edge"><title>Node11&#45;&gt;Node8</title>
<path fill="none" stroke="midnightblue" d="M438.795,-264.582C467.268,-259.145 500.931,-252.717 528.02,-247.544"/>
<polygon fill="midnightblue" stroke="midnightblue" points="438.125,-261.146 428.959,-266.46 439.438,-268.022 438.125,-261.146"/>
</g>
<!-- Node13 -->
<g id="node28" class="node"><title>Node13</title>
<a xlink:href="../../df/da9/xmpp__auth_8c.html#a01804bd53eccc182ce76337fc0863e8d" target="_top" xlink:title="stream_bind_start">
<polygon fill="none" stroke="black" points="519.5,-38.5 519.5,-57.5 638.5,-57.5 638.5,-38.5 519.5,-38.5"/>
<text text-anchor="middle" x="579" y="-45.5" font-family="DejaVuSansMono" font-size="10.00">stream_bind_start</text>
</a>
</g>
<!-- Node12&#45;&gt;Node13 -->
<g id="edge30" class="edge"><title>Node12&#45;&gt;Node13</title>
<path fill="none" stroke="midnightblue" d="M438.977,-48C464.457,-48 494.065,-48 519.394,-48"/>
<polygon fill="midnightblue" stroke="midnightblue" points="438.703,-44.5001 428.703,-48 438.703,-51.5001 438.703,-44.5001"/>
</g>
<!-- Node14 -->
<g id="node30" class="node"><title>Node14</title>
<a xlink:href="../../df/da9/xmpp__auth_8c.html#afb770a216868aa3fb43813b19d2a0115" target="_top" xlink:title="Begins SASL PLAIN authentication.">
<polygon fill="none" stroke="black" points="702.5,-38.5 702.5,-57.5 821.5,-57.5 821.5,-38.5 702.5,-38.5"/>
<text text-anchor="middle" x="762" y="-45.5" font-family="DejaVuSansMono" font-size="10.00">handle_sasl_plain</text>
</a>
</g>
<!-- Node13&#45;&gt;Node14 -->
<g id="edge32" class="edge"><title>Node13&#45;&gt;Node14</title>
<path fill="none" stroke="midnightblue" d="M648.95,-48C666.51,-48 685.22,-48 702.22,-48"/>
<polygon fill="midnightblue" stroke="midnightblue" points="648.766,-44.5001 638.766,-48 648.765,-51.5001 648.766,-44.5001"/>
</g>
<!-- Node15 -->
<g id="node32" class="node"><title>Node15</title>
<a xlink:href="../../d3/d24/xmpp__auth_8h.html#ad3efd9ab093646bdfd8832c34ae2de4d" target="_top" xlink:title="Handler for the inital stream start to begin authentication.">
<polygon fill="none" stroke="black" points="1158.5,-38.5 1158.5,-57.5 1307.5,-57.5 1307.5,-38.5 1158.5,-38.5"/>
<text text-anchor="middle" x="1233" y="-45.5" font-family="DejaVuSansMono" font-size="10.00">xmpp_auth_stream_start</text>
</a>
</g>
<!-- Node14&#45;&gt;Node15 -->
<g id="edge34" class="edge"><title>Node14&#45;&gt;Node15</title>
<path fill="none" stroke="midnightblue" d="M811.54,-59.6248C826.362,-62.655 842.769,-65.4918 858,-67 974.762,-78.5617 1005.1,-77.0221 1122,-67 1143.63,-65.146 1167.38,-61.2775 1187.27,-57.5121"/>
<polygon fill="midnightblue" stroke="midnightblue" points="812.074,-56.1603 801.565,-57.51 810.622,-63.0081 812.074,-56.1603"/>
</g>
<!-- Node20 -->
<g id="node42" class="node"><title>Node20</title>
<a xlink:href="../../df/da9/xmpp__auth_8c.html#afd7b12689591d40109a88ad108b5c3a2" target="_top" xlink:title="stream_sasl_start">
<polygon fill="none" stroke="black" points="858.5,-38.5 858.5,-57.5 977.5,-57.5 977.5,-38.5 858.5,-38.5"/>
<text text-anchor="middle" x="918" y="-45.5" font-family="DejaVuSansMono" font-size="10.00">stream_sasl_start</text>
</a>
</g>
<!-- Node14&#45;&gt;Node20 -->
<g id="edge44" class="edge"><title>Node14&#45;&gt;Node20</title>
<path fill="none" stroke="midnightblue" d="M831.894,-48C840.691,-48 849.631,-48 858.248,-48"/>
<polygon fill="midnightblue" stroke="midnightblue" points="831.66,-44.5001 821.66,-48 831.66,-51.5001 831.66,-44.5001"/>
</g>
<!-- Node16 -->
<g id="node34" class="node"><title>Node16</title>
<a xlink:href="../../d4/d2f/xmpp__client_8h.html#a1619c0b8f58b2cf09a322bf34fbc3414" target="_top" xlink:title="xmpp_client_new">
<polygon fill="none" stroke="black" points="1344.5,-38.5 1344.5,-57.5 1451.5,-57.5 1451.5,-38.5 1344.5,-38.5"/>
<text text-anchor="middle" x="1398" y="-45.5" font-family="DejaVuSansMono" font-size="10.00">xmpp_client_new</text>
</a>
</g>
<!-- Node15&#45;&gt;Node16 -->
<g id="edge36" class="edge"><title>Node15&#45;&gt;Node16</title>
<path fill="none" stroke="midnightblue" d="M1317.99,-48C1326.95,-48 1335.88,-48 1344.33,-48"/>
<polygon fill="midnightblue" stroke="midnightblue" points="1317.87,-44.5001 1307.87,-48 1317.87,-51.5001 1317.87,-44.5001"/>
</g>
<!-- Node17 -->
<g id="node36" class="node"><title>Node17</title>
<a xlink:href="../../d0/df0/xmpp__server_8c.html#a66363912ef1221a2574f9f99805fe8fd" target="_top" xlink:title="Callback for new client connections.">
<polygon fill="none" stroke="black" points="1488.5,-38.5 1488.5,-57.5 1589.5,-57.5 1589.5,-38.5 1488.5,-38.5"/>
<text text-anchor="middle" x="1539" y="-45.5" font-family="DejaVuSansMono" font-size="10.00">connect_client</text>
</a>
</g>
<!-- Node16&#45;&gt;Node17 -->
<g id="edge38" class="edge"><title>Node16&#45;&gt;Node17</title>
<path fill="none" stroke="midnightblue" d="M1461.8,-48C1470.63,-48 1479.59,-48 1488.13,-48"/>
<polygon fill="midnightblue" stroke="midnightblue" points="1461.55,-44.5001 1451.55,-48 1461.55,-51.5001 1461.55,-44.5001"/>
</g>
<!-- Node18 -->
<g id="node38" class="node"><title>Node18</title>
<a xlink:href="../../d1/d2e/xmpp__server_8h.html#a27bfc8e4d424a8bc17ab21a4a09cdf92" target="_top" xlink:title="Allocates and initializes the XMPP server.">
<polygon fill="none" stroke="black" points="1626.5,-38.5 1626.5,-57.5 1733.5,-57.5 1733.5,-38.5 1626.5,-38.5"/>
<text text-anchor="middle" x="1680" y="-45.5" font-family="DejaVuSansMono" font-size="10.00">xmpp_server_new</text>
</a>
</g>
<!-- Node17&#45;&gt;Node18 -->
<g id="edge40" class="edge"><title>Node17&#45;&gt;Node18</title>
<path fill="none" stroke="midnightblue" d="M1599.94,-48C1608.7,-48 1617.67,-48 1626.27,-48"/>
<polygon fill="midnightblue" stroke="midnightblue" points="1599.79,-44.5001 1589.79,-48 1599.79,-51.5001 1599.79,-44.5001"/>
</g>
<!-- Node19 -->
<g id="node40" class="node"><title>Node19</title>
<a xlink:href="../../d0/d29/main_8c.html#a0ddf1224851353fc92bfbff6f499fa97" target="_top" xlink:title="main">
<polygon fill="none" stroke="black" points="1770.5,-38.5 1770.5,-57.5 1811.5,-57.5 1811.5,-38.5 1770.5,-38.5"/>
<text text-anchor="middle" x="1791" y="-45.5" font-family="DejaVuSansMono" font-size="10.00">main</text>
</a>
</g>
<!-- Node18&#45;&gt;Node19 -->
<g id="edge42" class="edge"><title>Node18&#45;&gt;Node19</title>
<path fill="none" stroke="midnightblue" d="M1743.75,-48C1753.43,-48 1762.76,-48 1770.47,-48"/>
<polygon fill="midnightblue" stroke="midnightblue" points="1743.58,-44.5001 1733.58,-48 1743.58,-51.5001 1743.58,-44.5001"/>
</g>
<!-- Node21 -->
<g id="node44" class="node"><title>Node21</title>
<a xlink:href="../../df/da9/xmpp__auth_8c.html#a8dd789e057b9812e4dd1aa524dfb6a65" target="_top" xlink:title="Begins TLS authentication.">
<polygon fill="none" stroke="black" points="1014.5,-0.5 1014.5,-19.5 1121.5,-19.5 1121.5,-0.5 1014.5,-0.5"/>
<text text-anchor="middle" x="1068" y="-7.5" font-family="DejaVuSansMono" font-size="10.00">handle_starttls</text>
</a>
</g>
<!-- Node20&#45;&gt;Node21 -->
<g id="edge46" class="edge"><title>Node20&#45;&gt;Node21</title>
<path fill="none" stroke="midnightblue" d="M966.173,-35.8879C986.786,-30.5956 1010.61,-24.4787 1029.92,-19.5201"/>
<polygon fill="midnightblue" stroke="midnightblue" points="965.162,-32.534 956.347,-38.411 966.903,-39.3141 965.162,-32.534"/>
</g>
<!-- Node21&#45;&gt;Node15 -->
<g id="edge48" class="edge"><title>Node21&#45;&gt;Node15</title>
<path fill="none" stroke="midnightblue" d="M1120.03,-21.8961C1142.94,-27.2374 1169.6,-33.4537 1191.16,-38.4799"/>
<polygon fill="midnightblue" stroke="midnightblue" points="1120.67,-18.4509 1110.13,-19.589 1119.08,-25.2681 1120.67,-18.4509"/>
</g>
<!-- Node22&#45;&gt;Node5 -->
<g id="edge52" class="edge"><title>Node22&#45;&gt;Node5</title>
<path fill="none" stroke="midnightblue" d="M675.855,-146.74C779.827,-150.796 941.495,-157.104 1020.44,-160.184"/>
<polygon fill="midnightblue" stroke="midnightblue" points="675.794,-143.235 665.665,-146.342 675.521,-150.229 675.794,-143.235"/>
</g>
<!-- Node25 -->
<g id="node57" class="node"><title>Node25</title>
<a xlink:href="../../d7/d71/xep__muc_8c.html#a40cdc65e1b60c76aef97dfc9d3f2510f" target="_top" xlink:title="leave_room_presence">
<polygon fill="none" stroke="black" points="513.5,-323.5 513.5,-342.5 644.5,-342.5 644.5,-323.5 513.5,-323.5"/>
<text text-anchor="middle" x="579" y="-330.5" font-family="DejaVuSansMono" font-size="10.00">leave_room_presence</text>
</a>
</g>
<!-- Node24&#45;&gt;Node25 -->
<g id="edge64" class="edge"><title>Node24&#45;&gt;Node25</title>
<path fill="none" stroke="midnightblue" d="M255.404,-325.712C269.648,-328.709 285.377,-331.506 300,-333 372.861,-340.445 457.026,-339.064 513.491,-336.704"/>
<polygon fill="midnightblue" stroke="midnightblue" points="255.848,-322.226 245.331,-323.509 254.353,-329.065 255.848,-322.226"/>
</g>
<!-- Node26 -->
<g id="node60" class="node"><title>Node26</title>
<a xlink:href="../../d7/d71/xep__muc_8c.html#a0214cd898b2f0c746cb45f79746e5095" target="_top" xlink:title="client_disconnect">
<polygon fill="none" stroke="black" points="318.5,-304.5 318.5,-323.5 437.5,-323.5 437.5,-304.5 318.5,-304.5"/>
<text text-anchor="middle" x="378" y="-311.5" font-family="DejaVuSansMono" font-size="10.00">client_disconnect</text>
</a>
</g>
<!-- Node24&#45;&gt;Node26 -->
<g id="edge68" class="edge"><title>Node24&#45;&gt;Node26</title>
<path fill="none" stroke="midnightblue" d="M255.663,-314C275.142,-314 297.868,-314 318.351,-314"/>
<polygon fill="midnightblue" stroke="midnightblue" points="255.507,-310.5 245.507,-314 255.507,-317.5 255.507,-310.5"/>
</g>
<!-- Node25&#45;&gt;Node9 -->
<g id="edge66" class="edge"><title>Node25&#45;&gt;Node9</title>
<path fill="none" stroke="midnightblue" d="M607.681,-318.472C645.185,-298.787 711.098,-264.191 742.869,-247.516"/>
<polygon fill="midnightblue" stroke="midnightblue" points="605.579,-315.622 598.351,-323.368 608.832,-321.82 605.579,-315.622"/>
</g>
<!-- Node26&#45;&gt;Node8 -->
<g id="edge70" class="edge"><title>Node26&#45;&gt;Node8</title>
<path fill="none" stroke="midnightblue" d="M433.975,-301.831C441.445,-299.773 448.959,-297.487 456,-295 494.356,-281.454 536.933,-259.989 560.273,-247.629"/>
<polygon fill="midnightblue" stroke="midnightblue" points="433,-298.469 424.223,-304.404 434.786,-305.237 433,-298.469"/>
</g>
</g>
</svg>
        <g id="navigator" transform="translate(0 0)" fill="#404254">
                <rect fill="#f2f5e9" fill-opacity="0.5" stroke="#606060" stroke-width=".5" x="0" y="0" width="60" height="60"/>
                <use id="zoomplus" xlink:href="#zoomPlus" x="17" y="9" onmousedown="handleZoom(evt,'in')"/>
                <use id="zoomminus" xlink:href="#zoomMin" x="42" y="9" onmousedown="handleZoom(evt,'out')"/>
                <use id="reset" xlink:href="#resetDef" x="30" y="36" onmousedown="handleReset()"/>
                <g id="arrowUp" xlink:href="#dirArrow" transform="translate(30 24)" onmousedown="handlePan(0,-1)">
                  <use xlink:href="#rim" fill="#404040">
                        <set attributeName="fill" to="#808080" begin="arrowUp.mouseover" end="arrowUp.mouseout"/>
                  </use>
                  <path fill="none" stroke="white" stroke-width="1.5" d="M0,-3.0v7 M-2.5,-0.5L0,-3.0L2.5,-0.5"/>
                </g>
                <g id="arrowRight" xlink:href="#dirArrow" transform="rotate(90) translate(36 -43)" onmousedown="handlePan(1,0)">
                  <use xlink:href="#rim" fill="#404040">
                        <set attributeName="fill" to="#808080" begin="arrowRight.mouseover" end="arrowRight.mouseout"/>
                  </use>
                  <path fill="none" stroke="white" stroke-width="1.5" d="M0,-3.0v7 M-2.5,-0.5L0,-3.0L2.5,-0.5"/>
                </g>
                <g id="arrowDown" xlink:href="#dirArrow" transform="rotate(180) translate(-30 -48)" onmousedown="handlePan(0,1)">
                  <use xlink:href="#rim" fill="#404040">
                        <set attributeName="fill" to="#808080" begin="arrowDown.mouseover" end="arrowDown.mouseout"/>
                  </use>
                  <path fill="none" stroke="white" stroke-width="1.5" d="M0,-3.0v7 M-2.5,-0.5L0,-3.0L2.5,-0.5"/>
                </g>
                <g id="arrowLeft" xlink:href="#dirArrow" transform="rotate(270) translate(-36 17)" onmousedown="handlePan(-1,0)">
                  <use xlink:href="#rim" fill="#404040">
                        <set attributeName="fill" to="#808080" begin="arrowLeft.mouseover" end="arrowLeft.mouseout"/>
                  </use>
                  <path fill="none" stroke="white" stroke-width="1.5" d="M0,-3.0v7 M-2.5,-0.5L0,-3.0L2.5,-0.5"/>
                </g>
        </g>
        <svg viewBox="0 0 25 25" width="100%" height="30px" preserveAspectRatio="xMaxYMin meet"> 
          <g id="printButton" transform="scale(0.4 0.4)" onmousedown="handlePrint(evt)">
            <rect height="23.33753581" id="paper" rx="2" style="fill:#f2f5e9;fill-rule:evenodd;stroke:#111111;stroke-width:3.224;stroke-linejoin:round;" transform="matrix(1.000000,0.000000,-0.339266,0.940691,0.000000,0.000000)" width="25.55231285" x="26.69387353" y="7.36162977"/>
            <rect height="26.272097" id="body" rx="2" style="fill:#404040;fill-rule:evenodd;stroke:#111111;stroke-width:3.125;stroke-linejoin:round;" width="50" x="4.5295201" y="27.078951"/>
            <rect height="8.27750969" id="tray" style="fill:#d2d5c9;fill-rule:evenodd;stroke:#111111;stroke-width:3.125;stroke-linecap:round;stroke-linejoin:round;" width="40" x="10.28778839" y="44.96812282"/>
          </g>
        </svg>
</svg>
