<?xml version="1.0" encoding="UTF-8" standalone="no"?>
<!DOCTYPE svg PUBLIC "-//W3C//DTD SVG 1.1//EN"
 "http://www.w3.org/Graphics/SVG/1.1/DTD/svg11.dtd">
<!-- Generated by graphviz version 2.28.0 (20120217.0315)
 -->
<!-- Title: G Pages: 1 -->
<!--zoomable 530 -->
<svg id="main" version="1.1" xmlns="http://www.w3.org/2000/svg" xmlns:xlink="http://www.w3.org/1999/xlink" xml:space="preserve" onload="init(evt)">
        <defs>
                <circle id="rim" cx="0" cy="0" r="7"/>
                <circle id="rim2" cx="0" cy="0" r="3.5"/>
                <g id="zoomPlus">
                        <use xlink:href="#rim" fill="#404040">
                                <set attributeName="fill" to="#808080" begin="zoomplus.mouseover" end="zoomplus.mouseout"/>
                        </use>
                        <path d="M-4,0h8M0,-4v8" fill="none" stroke="white" stroke-width="1.5" pointer-events="none"/>
                </g>
                <g id="zoomMin">
                        <use xlink:href="#rim" fill="#404040">
                                <set attributeName="fill" to="#808080" begin="zoomminus.mouseover" end="zoomminus.mouseout"/>
                        </use>
                        <path d="M-4,0h8" fill="none" stroke="white" stroke-width="1.5" pointer-events="none"/>
                </g>
                <g id="dirArrow">
                        <path fill="none" stroke="white" stroke-width="1.5" d="M0,-3.0v7 M-2.5,-0.5L0,-3.0L2.5,-0.5"/>
                </g>
               <g id="resetDef">
                       <use xlink:href="#rim2" fill="#404040">
                               <set attributeName="fill" to="#808080" begin="reset.mouseover" end="reset.mouseout"/>
                       </use>
               </g>
        </defs>

<script type="text/javascript">
var viewWidth = 2120;
var viewHeight = 530;
var sectionId = 'dynsection-2';
</script>
<script xlink:href="../../svgpan.js"/>
<svg id="graph" class="graph">
<g id="viewport">
<title>G</title>
<!-- Node1 -->
<g id="node1" class="node"><title>Node1</title>
<polygon fill="#bfbfbf" stroke="black" points="0.5,-233.562 0.5,-252.562 119.5,-252.562 119.5,-233.562 0.5,-233.562"/>
<text text-anchor="middle" x="60" y="-240.562" font-family="DejaVuSansMono" font-size="10.00">jid_cmp_wildcards</text>
</g>
<!-- Node2 -->
<g id="node3" class="node"><title>Node2</title>
<a xlink:href="../../d1/d2e/xmpp__server_8h.html#a6d3f7e5e289f785b1c8c52f95068c627" target="_top" xlink:title="Deliver a stanza to a registered callback function.">
<polygon fill="none" stroke="black" points="156.5,-233.562 156.5,-252.562 317.5,-252.562 317.5,-233.562 156.5,-233.562"/>
<text text-anchor="middle" x="237" y="-240.562" font-family="DejaVuSansMono" font-size="10.00">xmpp_server_route_stanza</text>
</a>
</g>
<!-- Node1&#45;&gt;Node2 -->
<g id="edge2" class="edge"><title>Node1&#45;&gt;Node2</title>
<path fill="none" stroke="midnightblue" d="M129.807,-243.062C138.486,-243.062 147.422,-243.062 156.251,-243.062"/>
<polygon fill="midnightblue" stroke="midnightblue" points="129.759,-239.562 119.759,-243.062 129.759,-246.562 129.759,-239.562"/>
</g>
<!-- Node3 -->
<g id="node5" class="node"><title>Node3</title>
<a xlink:href="../../d7/d71/xep__muc_8c.html#acf84f00141033b025df269e540461383" target="_top" xlink:title="handle_message">
<polygon fill="none" stroke="black" points="927.5,-461.562 927.5,-480.562 1028.5,-480.562 1028.5,-461.562 927.5,-461.562"/>
<text text-anchor="middle" x="978" y="-468.562" font-family="DejaVuSansMono" font-size="10.00">handle_message</text>
</a>
</g>
<!-- Node2&#45;&gt;Node3 -->
<g id="edge4" class="edge"><title>Node2&#45;&gt;Node3</title>
<path fill="none" stroke="midnightblue" d="M242.107,-262.733C252.308,-305.991 283.259,-408.953 354,-452.062 548.742,-570.736 845.069,-506.891 943.74,-480.614"/>
<polygon fill="midnightblue" stroke="midnightblue" points="245.5,-261.868 239.902,-252.873 238.669,-263.395 245.5,-261.868"/>
</g>
<!-- Node7 -->
<g id="node13" class="node"><title>Node7</title>
<a xlink:href="../../d7/d71/xep__muc_8c.html#af88baacca4f1cccf8ec2bc295db0e063" target="_top" xlink:title="leave_room">
<polygon fill="none" stroke="black" points="396.5,-271.562 396.5,-290.562 473.5,-290.562 473.5,-271.562 396.5,-271.562"/>
<text text-anchor="middle" x="435" y="-278.562" font-family="DejaVuSansMono" font-size="10.00">leave_room</text>
</a>
</g>
<!-- Node2&#45;&gt;Node7 -->
<g id="edge12" class="edge"><title>Node2&#45;&gt;Node7</title>
<path fill="none" stroke="midnightblue" d="M297.382,-254.574C329.502,-260.802 368.213,-268.307 396.214,-273.736"/>
<polygon fill="midnightblue" stroke="midnightblue" points="297.689,-251.069 287.206,-252.601 296.357,-257.941 297.689,-251.069"/>
</g>
<!-- Node12 -->
<g id="node25" class="node"><title>Node12</title>
<a xlink:href="../../d7/d71/xep__muc_8c.html#a4b26d057ea25fe1b3c99edff73a82d78" target="_top" xlink:title="handle_items_query">
<polygon fill="none" stroke="black" points="372.5,-385.562 372.5,-404.562 497.5,-404.562 497.5,-385.562 372.5,-385.562"/>
<text text-anchor="middle" x="435" y="-392.562" font-family="DejaVuSansMono" font-size="10.00">handle_items_query</text>
</a>
</g>
<!-- Node2&#45;&gt;Node12 -->
<g id="edge26" class="edge"><title>Node2&#45;&gt;Node12</title>
<path fill="none" stroke="midnightblue" d="M249.51,-261.077C268.134,-288.785 307.517,-341.725 354,-371.062 363.933,-377.33 375.589,-382.035 386.883,-385.537"/>
<polygon fill="midnightblue" stroke="midnightblue" points="252.431,-259.148 244.01,-252.718 246.583,-262.996 252.431,-259.148"/>
</g>
<!-- Node14 -->
<g id="node30" class="node"><title>Node14</title>
<a xlink:href="../../d7/d71/xep__muc_8c.html#a20d9ff75edcc76b952adf38d558fee26" target="_top" xlink:title="handle_info_query">
<polygon fill="none" stroke="black" points="375.5,-423.562 375.5,-442.562 494.5,-442.562 494.5,-423.562 375.5,-423.562"/>
<text text-anchor="middle" x="435" y="-430.562" font-family="DejaVuSansMono" font-size="10.00">handle_info_query</text>
</a>
</g>
<!-- Node2&#45;&gt;Node14 -->
<g id="edge32" class="edge"><title>Node2&#45;&gt;Node14</title>
<path fill="none" stroke="midnightblue" d="M245.466,-262.376C260.356,-298.216 297.27,-374.92 354,-414.062 360.462,-418.52 367.841,-421.94 375.443,-424.562"/>
<polygon fill="midnightblue" stroke="midnightblue" points="248.534,-260.623 241.555,-252.652 242.039,-263.236 248.534,-260.623"/>
</g>
<!-- Node15 -->
<g id="node33" class="node"><title>Node15</title>
<a xlink:href="../../d7/d71/xep__muc_8c.html#a8333f88612fa054ae107699f5bb548cc" target="_top" xlink:title="send_nickname_conflict">
<polygon fill="none" stroke="black" points="555.5,-347.562 555.5,-366.562 704.5,-366.562 704.5,-347.562 555.5,-347.562"/>
<text text-anchor="middle" x="630" y="-354.562" font-family="DejaVuSansMono" font-size="10.00">send_nickname_conflict</text>
</a>
</g>
<!-- Node2&#45;&gt;Node15 -->
<g id="edge36" class="edge"><title>Node2&#45;&gt;Node15</title>
<path fill="none" stroke="midnightblue" d="M263.09,-257.704C286.064,-270.543 321.356,-288.86 354,-300.062 421.909,-323.364 502.68,-338.718 559.049,-347.558"/>
<polygon fill="midnightblue" stroke="midnightblue" points="264.761,-254.627 254.335,-252.742 261.309,-260.717 264.761,-254.627"/>
</g>
<!-- Node16 -->
<g id="node36" class="node"><title>Node16</title>
<a xlink:href="../../d7/d71/xep__muc_8c.html#a115281f539cd77f88872ff153ec5b38d" target="_top" xlink:title="send_presence_broadcast">
<polygon fill="none" stroke="black" points="552.5,-385.562 552.5,-404.562 707.5,-404.562 707.5,-385.562 552.5,-385.562"/>
<text text-anchor="middle" x="630" y="-392.562" font-family="DejaVuSansMono" font-size="10.00">send_presence_broadcast</text>
</a>
</g>
<!-- Node2&#45;&gt;Node16 -->
<g id="edge40" class="edge"><title>Node2&#45;&gt;Node16</title>
<path fill="none" stroke="midnightblue" d="M254.408,-259.937C275.507,-280.621 314.195,-315.237 354,-334.062 392.075,-352.068 503.413,-373.459 572.186,-385.529"/>
<polygon fill="midnightblue" stroke="midnightblue" points="256.765,-257.345 247.217,-252.753 251.818,-262.297 256.765,-257.345"/>
</g>
<!-- Node17 -->
<g id="node39" class="node"><title>Node17</title>
<a xlink:href="../../d6/d78/xmp3__multicast_8c.html#a6c09d6ba5f9adac2980596c21f7e29b0" target="_top" xlink:title="remote_stanza_handler">
<polygon fill="none" stroke="black" points="363.5,-233.562 363.5,-252.562 506.5,-252.562 506.5,-233.562 363.5,-233.562"/>
<text text-anchor="middle" x="435" y="-240.562" font-family="DejaVuSansMono" font-size="10.00">remote_stanza_handler</text>
</a>
</g>
<!-- Node2&#45;&gt;Node17 -->
<g id="edge44" class="edge"><title>Node2&#45;&gt;Node17</title>
<path fill="none" stroke="midnightblue" d="M327.738,-243.062C339.728,-243.062 351.884,-243.062 363.482,-243.062"/>
<polygon fill="midnightblue" stroke="midnightblue" points="327.721,-239.562 317.721,-243.062 327.721,-246.562 327.721,-239.562"/>
</g>
<!-- Node19 -->
<g id="node43" class="node"><title>Node19</title>
<a xlink:href="../../d8/d28/xmpp__core_8h.html#ae6da3d9438fd752c4afd6e50a6af9b66" target="_top" xlink:title="An xmpp_parser handler for stanzas from a local client.">
<polygon fill="none" stroke="black" points="357.5,-195.562 357.5,-214.562 512.5,-214.562 512.5,-195.562 357.5,-195.562"/>
<text text-anchor="middle" x="435" y="-202.562" font-family="DejaVuSansMono" font-size="10.00">xmpp_core_handle_stanza</text>
</a>
</g>
<!-- Node2&#45;&gt;Node19 -->
<g id="edge48" class="edge"><title>Node2&#45;&gt;Node19</title>
<path fill="none" stroke="midnightblue" d="M297.261,-231.572C325.227,-226.15 358.209,-219.756 384.774,-214.605"/>
<polygon fill="midnightblue" stroke="midnightblue" points="296.357,-228.182 287.206,-233.522 297.689,-235.054 296.357,-228.182"/>
</g>
<!-- Node30 -->
<g id="node66" class="node"><title>Node30</title>
<a xlink:href="../../d9/dd7/xmpp__im_8h.html#aee8f65a08bdaf68accfdcee40ed1488d" target="_top" xlink:title="IQ stanza callback for handling a session IQ.">
<polygon fill="none" stroke="black" points="1386.5,-157.562 1386.5,-176.562 1511.5,-176.562 1511.5,-157.562 1386.5,-157.562"/>
<text text-anchor="middle" x="1449" y="-164.562" font-family="DejaVuSansMono" font-size="10.00">xmpp_im_iq_session</text>
</a>
</g>
<!-- Node2&#45;&gt;Node30 -->
<g id="edge72" class="edge"><title>Node2&#45;&gt;Node30</title>
<path fill="none" stroke="midnightblue" d="M261.223,-228.272C283.911,-214.66 319.911,-195.234 354,-186.062 472.306,-154.228 506.486,-167.062 629,-167.062 629,-167.062 629,-167.062 1135,-167.062 1222.22,-167.062 1323.1,-167.062 1386.24,-167.062"/>
<polygon fill="midnightblue" stroke="midnightblue" points="259.344,-225.319 252.643,-233.526 262.999,-231.289 259.344,-225.319"/>
</g>
<!-- Node31 -->
<g id="node69" class="node"><title>Node31</title>
<a xlink:href="../../d9/dd7/xmpp__im_8h.html#a7542fa668dcf982bb5d3725c5cacb0ca" target="_top" xlink:title="IQ stanza callback for handling a disco items query.">
<polygon fill="none" stroke="black" points="1560.5,-119.562 1560.5,-138.562 1709.5,-138.562 1709.5,-119.562 1560.5,-119.562"/>
<text text-anchor="middle" x="1635" y="-126.562" font-family="DejaVuSansMono" font-size="10.00">xmpp_im_iq_disco_items</text>
</a>
</g>
<!-- Node2&#45;&gt;Node31 -->
<g id="edge76" class="edge"><title>Node2&#45;&gt;Node31</title>
<path fill="none" stroke="midnightblue" d="M255.361,-226.191C276.667,-206.617 314.816,-175.109 354,-160.062 468.821,-115.968 506.004,-129.062 629,-129.062 629,-129.062 629,-129.062 1285,-129.062 1380.13,-129.062 1489.84,-129.062 1560.47,-129.062"/>
<polygon fill="midnightblue" stroke="midnightblue" points="252.696,-223.892 247.803,-233.289 257.488,-228.994 252.696,-223.892"/>
</g>
<!-- Node32 -->
<g id="node72" class="node"><title>Node32</title>
<a xlink:href="../../d9/dd7/xmpp__im_8h.html#a93be77ae71bc544a1c23fae07f39fd23" target="_top" xlink:title="IQ stanza callback for handling a disco info query.">
<polygon fill="none" stroke="black" points="1746.5,-81.5615 1746.5,-100.562 1889.5,-100.562 1889.5,-81.5615 1746.5,-81.5615"/>
<text text-anchor="middle" x="1818" y="-88.5615" font-family="DejaVuSansMono" font-size="10.00">xmpp_im_iq_disco_info</text>
</a>
</g>
<!-- Node2&#45;&gt;Node32 -->
<g id="edge80" class="edge"><title>Node2&#45;&gt;Node32</title>
<path fill="none" stroke="midnightblue" d="M249.477,-224.854C267.833,-197.494 306.599,-146.493 354,-123.062 464.306,-68.535 505.953,-91.0615 629,-91.0615 629,-91.0615 629,-91.0615 1450,-91.0615 1553.06,-91.0615 1672.4,-91.0615 1746.3,-91.0615"/>
<polygon fill="midnightblue" stroke="midnightblue" points="246.393,-223.175 243.855,-233.462 252.254,-227.003 246.393,-223.175"/>
</g>
<!-- Node33 -->
<g id="node75" class="node"><title>Node33</title>
<a xlink:href="../../dc/da6/xmpp__im_8c.html#af5cf3adac08463b9b6029c8814e4f972" target="_top" xlink:title="get_roster">
<polygon fill="none" stroke="black" points="939.5,-43.5615 939.5,-62.5615 1016.5,-62.5615 1016.5,-43.5615 939.5,-43.5615"/>
<text text-anchor="middle" x="978" y="-50.5615" font-family="DejaVuSansMono" font-size="10.00">get_roster</text>
</a>
</g>
<!-- Node2&#45;&gt;Node33 -->
<g id="edge84" class="edge"><title>Node2&#45;&gt;Node33</title>
<path fill="none" stroke="midnightblue" d="M244.807,-223.73C258.771,-187.377 294.455,-109.567 354,-77.0615 455.3,-21.7618 820.133,-41.9386 939.157,-50.2195"/>
<polygon fill="midnightblue" stroke="midnightblue" points="241.491,-222.608 241.304,-233.201 248.056,-225.036 241.491,-222.608"/>
</g>
<!-- Node35 -->
<g id="node80" class="node"><title>Node35</title>
<a xlink:href="../../d0/df0/xmpp__server_8c.html#a3b400cb24e5bc51623f63c96c8a0a342" target="_top" xlink:title="Sends a &lt;service&#45;unavailable&gt; error stanza to a client.">
<polygon fill="none" stroke="black" points="354.5,-5.56151 354.5,-24.5615 515.5,-24.5615 515.5,-5.56151 354.5,-5.56151"/>
<text text-anchor="middle" x="435" y="-12.5615" font-family="DejaVuSansMono" font-size="10.00">send_service_unavailable</text>
</a>
</g>
<!-- Node2&#45;&gt;Node35 -->
<g id="edge90" class="edge"><title>Node2&#45;&gt;Node35</title>
<path fill="none" stroke="midnightblue" d="M243.651,-223.482C256.389,-182.861 291.237,-89.0527 354,-39.0615 361.94,-32.7376 371.519,-28.0776 381.247,-24.6445"/>
<polygon fill="midnightblue" stroke="midnightblue" points="240.245,-222.654 240.701,-233.239 246.946,-224.681 240.245,-222.654"/>
</g>
<!-- Node4 -->
<g id="node7" class="node"><title>Node4</title>
<a xlink:href="../../d7/d71/xep__muc_8c.html#a1798db1c16a1fa62ff8f39fea202a26f" target="_top" xlink:title="stanza_handler">
<polygon fill="none" stroke="black" points="1083.5,-423.562 1083.5,-442.562 1184.5,-442.562 1184.5,-423.562 1083.5,-423.562"/>
<text text-anchor="middle" x="1134" y="-430.562" font-family="DejaVuSansMono" font-size="10.00">stanza_handler</text>
</a>
</g>
<!-- Node3&#45;&gt;Node4 -->
<g id="edge6" class="edge"><title>Node3&#45;&gt;Node4</title>
<path fill="none" stroke="midnightblue" d="M1027.79,-459.022C1049.31,-453.713 1074.23,-447.563 1094.42,-442.582"/>
<polygon fill="midnightblue" stroke="midnightblue" points="1026.73,-455.679 1017.86,-461.473 1028.41,-462.475 1026.73,-455.679"/>
</g>
<!-- Node5 -->
<g id="node9" class="node"><title>Node5</title>
<a xlink:href="../../d7/d71/xep__muc_8c.html#addf05166cf3fbe386ae6650be21ef251" target="_top" xlink:title="xep_muc_start">
<polygon fill="none" stroke="black" points="1236.5,-404.562 1236.5,-423.562 1331.5,-423.562 1331.5,-404.562 1236.5,-404.562"/>
<text text-anchor="middle" x="1284" y="-411.562" font-family="DejaVuSansMono" font-size="10.00">xep_muc_start</text>
</a>
</g>
<!-- Node4&#45;&gt;Node5 -->
<g id="edge8" class="edge"><title>Node4&#45;&gt;Node5</title>
<path fill="none" stroke="midnightblue" d="M1194.62,-425.408C1208.46,-423.631 1222.99,-421.765 1236.19,-420.071"/>
<polygon fill="midnightblue" stroke="midnightblue" points="1194.17,-421.937 1184.69,-426.682 1195.06,-428.88 1194.17,-421.937"/>
</g>
<!-- Node6 -->
<g id="node11" class="node"><title>Node6</title>
<a xlink:href="../../d7/d71/xep__muc_8c.html#a20d385a5584d8014ec4d5774eb79d1de" target="_top" xlink:title="xep_muc_stop">
<polygon fill="none" stroke="black" points="1239.5,-442.562 1239.5,-461.562 1328.5,-461.562 1328.5,-442.562 1239.5,-442.562"/>
<text text-anchor="middle" x="1284" y="-449.562" font-family="DejaVuSansMono" font-size="10.00">xep_muc_stop</text>
</a>
</g>
<!-- Node4&#45;&gt;Node6 -->
<g id="edge10" class="edge"><title>Node4&#45;&gt;Node6</title>
<path fill="none" stroke="midnightblue" d="M1194.8,-440.739C1209.63,-442.642 1225.24,-444.647 1239.15,-446.432"/>
<polygon fill="midnightblue" stroke="midnightblue" points="1195.06,-437.243 1184.69,-439.441 1194.17,-444.186 1195.06,-437.243"/>
</g>
<!-- Node8 -->
<g id="node15" class="node"><title>Node8</title>
<a xlink:href="../../d7/d71/xep__muc_8c.html#a40cdc65e1b60c76aef97dfc9d3f2510f" target="_top" xlink:title="leave_room_presence">
<polygon fill="none" stroke="black" points="747.5,-290.562 747.5,-309.562 878.5,-309.562 878.5,-290.562 747.5,-290.562"/>
<text text-anchor="middle" x="813" y="-297.562" font-family="DejaVuSansMono" font-size="10.00">leave_room_presence</text>
</a>
</g>
<!-- Node7&#45;&gt;Node8 -->
<g id="edge14" class="edge"><title>Node7&#45;&gt;Node8</title>
<path fill="none" stroke="midnightblue" d="M484.033,-283.489C550.973,-286.871 672.499,-293.012 747.343,-296.794"/>
<polygon fill="midnightblue" stroke="midnightblue" points="483.938,-279.98 473.774,-282.97 483.584,-286.971 483.938,-279.98"/>
</g>
<!-- Node10 -->
<g id="node20" class="node"><title>Node10</title>
<a xlink:href="../../d7/d71/xep__muc_8c.html#a0214cd898b2f0c746cb45f79746e5095" target="_top" xlink:title="client_disconnect">
<polygon fill="none" stroke="black" points="570.5,-309.562 570.5,-328.562 689.5,-328.562 689.5,-309.562 570.5,-309.562"/>
<text text-anchor="middle" x="630" y="-316.562" font-family="DejaVuSansMono" font-size="10.00">client_disconnect</text>
</a>
</g>
<!-- Node7&#45;&gt;Node10 -->
<g id="edge20" class="edge"><title>Node7&#45;&gt;Node10</title>
<path fill="none" stroke="midnightblue" d="M483.716,-290.456C513.162,-296.254 550.83,-303.671 580.432,-309.499"/>
<polygon fill="midnightblue" stroke="midnightblue" points="484.158,-286.976 473.671,-288.479 482.806,-293.844 484.158,-286.976"/>
</g>
<!-- Node9 -->
<g id="node17" class="node"><title>Node9</title>
<a xlink:href="../../d7/d71/xep__muc_8c.html#a9936322b944d46aead9fbd942687ec0a" target="_top" xlink:title="handle_presence">
<polygon fill="none" stroke="black" points="924.5,-347.562 924.5,-366.562 1031.5,-366.562 1031.5,-347.562 924.5,-347.562"/>
<text text-anchor="middle" x="978" y="-354.562" font-family="DejaVuSansMono" font-size="10.00">handle_presence</text>
</a>
</g>
<!-- Node8&#45;&gt;Node9 -->
<g id="edge16" class="edge"><title>Node8&#45;&gt;Node9</title>
<path fill="none" stroke="midnightblue" d="M850.971,-312.99C880.963,-323.478 922.564,-338.025 949.628,-347.49"/>
<polygon fill="midnightblue" stroke="midnightblue" points="851.877,-309.599 841.283,-309.602 849.567,-316.207 851.877,-309.599"/>
</g>
<!-- Node9&#45;&gt;Node4 -->
<g id="edge18" class="edge"><title>Node9&#45;&gt;Node4</title>
<path fill="none" stroke="midnightblue" d="M1007.49,-371.12C1038.39,-386.373 1086.89,-410.308 1113.65,-423.514"/>
<polygon fill="midnightblue" stroke="midnightblue" points="1009.02,-367.974 998.504,-366.687 1005.92,-374.251 1009.02,-367.974"/>
</g>
<!-- Node11 -->
<g id="node22" class="node"><title>Node11</title>
<a xlink:href="../../d7/d71/xep__muc_8c.html#aefd23f2960520a68fea212344b85cb0b" target="_top" xlink:title="enter_room_presence">
<polygon fill="none" stroke="black" points="747.5,-347.562 747.5,-366.562 878.5,-366.562 878.5,-347.562 747.5,-347.562"/>
<text text-anchor="middle" x="813" y="-354.562" font-family="DejaVuSansMono" font-size="10.00">enter_room_presence</text>
</a>
</g>
<!-- Node10&#45;&gt;Node11 -->
<g id="edge22" class="edge"><title>Node10&#45;&gt;Node11</title>
<path fill="none" stroke="midnightblue" d="M686.638,-330.743C712.307,-336.131 742.391,-342.448 766.654,-347.541"/>
<polygon fill="midnightblue" stroke="midnightblue" points="687.18,-327.28 676.674,-328.651 685.741,-334.131 687.18,-327.28"/>
</g>
<!-- Node11&#45;&gt;Node9 -->
<g id="edge24" class="edge"><title>Node11&#45;&gt;Node9</title>
<path fill="none" stroke="midnightblue" d="M889.245,-357.062C901.11,-357.062 913.152,-357.062 924.358,-357.062"/>
<polygon fill="midnightblue" stroke="midnightblue" points="888.89,-353.562 878.89,-357.062 888.89,-360.562 888.89,-353.562"/>
</g>
<!-- Node13 -->
<g id="node27" class="node"><title>Node13</title>
<a xlink:href="../../d7/d71/xep__muc_8c.html#aec1096d47742f472668c4905fa3c299a" target="_top" xlink:title="handle_iq">
<polygon fill="none" stroke="black" points="594.5,-423.562 594.5,-442.562 665.5,-442.562 665.5,-423.562 594.5,-423.562"/>
<text text-anchor="middle" x="630" y="-430.562" font-family="DejaVuSansMono" font-size="10.00">handle_iq</text>
</a>
</g>
<!-- Node12&#45;&gt;Node13 -->
<g id="edge28" class="edge"><title>Node12&#45;&gt;Node13</title>
<path fill="none" stroke="midnightblue" d="M494.574,-406.594C527.16,-413.01 566.607,-420.777 594.314,-426.232"/>
<polygon fill="midnightblue" stroke="midnightblue" points="495.19,-403.148 484.702,-404.651 493.838,-410.016 495.19,-403.148"/>
</g>
<!-- Node13&#45;&gt;Node4 -->
<g id="edge30" class="edge"><title>Node13&#45;&gt;Node4</title>
<path fill="none" stroke="midnightblue" d="M675.782,-433.062C769.515,-433.062 985.757,-433.062 1083.47,-433.062"/>
<polygon fill="midnightblue" stroke="midnightblue" points="675.505,-429.562 665.504,-433.062 675.504,-436.562 675.505,-429.562"/>
</g>
<!-- Node14&#45;&gt;Node13 -->
<g id="edge34" class="edge"><title>Node14&#45;&gt;Node13</title>
<path fill="none" stroke="midnightblue" d="M504.819,-433.062C535.188,-433.062 569.554,-433.062 594.422,-433.062"/>
<polygon fill="midnightblue" stroke="midnightblue" points="504.692,-429.562 494.692,-433.062 504.692,-436.562 504.692,-429.562"/>
</g>
<!-- Node15&#45;&gt;Node11 -->
<g id="edge38" class="edge"><title>Node15&#45;&gt;Node11</title>
<path fill="none" stroke="midnightblue" d="M714.674,-357.062C725.684,-357.062 736.829,-357.062 747.453,-357.062"/>
<polygon fill="midnightblue" stroke="midnightblue" points="714.62,-353.562 704.62,-357.062 714.62,-360.562 714.62,-353.562"/>
</g>
<!-- Node16&#45;&gt;Node11 -->
<g id="edge42" class="edge"><title>Node16&#45;&gt;Node11</title>
<path fill="none" stroke="midnightblue" d="M686.638,-383.381C712.307,-377.992 742.391,-371.675 766.654,-366.582"/>
<polygon fill="midnightblue" stroke="midnightblue" points="685.741,-379.992 676.674,-385.473 687.18,-386.843 685.741,-379.992"/>
</g>
<!-- Node18 -->
<g id="node41" class="node"><title>Node18</title>
<a xlink:href="../../d6/d78/xmp3__multicast_8c.html#a08afc39c59ec9297d756a99c395eff3c" target="_top" xlink:title="multicast_new">
<polygon fill="none" stroke="black" points="582.5,-233.562 582.5,-252.562 677.5,-252.562 677.5,-233.562 582.5,-233.562"/>
<text text-anchor="middle" x="630" y="-240.562" font-family="DejaVuSansMono" font-size="10.00">multicast_new</text>
</a>
</g>
<!-- Node17&#45;&gt;Node18 -->
<g id="edge46" class="edge"><title>Node17&#45;&gt;Node18</title>
<path fill="none" stroke="midnightblue" d="M516.916,-243.062C539.212,-243.062 562.647,-243.062 582.292,-243.062"/>
<polygon fill="midnightblue" stroke="midnightblue" points="516.77,-239.562 506.77,-243.062 516.77,-246.562 516.77,-239.562"/>
</g>
<!-- Node20 -->
<g id="node45" class="node"><title>Node20</title>
<a xlink:href="../../df/da9/xmpp__auth_8c.html#a603b4a63af3c4e4af99442805fe89ae8" target="_top" xlink:title="Step 15: Client binds a resource.">
<polygon fill="none" stroke="black" points="579.5,-195.562 579.5,-214.562 680.5,-214.562 680.5,-195.562 579.5,-195.562"/>
<text text-anchor="middle" x="630" y="-202.562" font-family="DejaVuSansMono" font-size="10.00">handle_bind_iq</text>
</a>
</g>
<!-- Node19&#45;&gt;Node20 -->
<g id="edge50" class="edge"><title>Node19&#45;&gt;Node20</title>
<path fill="none" stroke="midnightblue" d="M522.668,-205.062C542.133,-205.062 562.136,-205.062 579.467,-205.062"/>
<polygon fill="midnightblue" stroke="midnightblue" points="522.556,-201.562 512.556,-205.062 522.556,-208.562 522.556,-201.562"/>
</g>
<!-- Node21 -->
<g id="node47" class="node"><title>Node21</title>
<a xlink:href="../../df/da9/xmpp__auth_8c.html#a01804bd53eccc182ce76337fc0863e8d" target="_top" xlink:title="stream_bind_start">
<polygon fill="none" stroke="black" points="753.5,-195.562 753.5,-214.562 872.5,-214.562 872.5,-195.562 753.5,-195.562"/>
<text text-anchor="middle" x="813" y="-202.562" font-family="DejaVuSansMono" font-size="10.00">stream_bind_start</text>
</a>
</g>
<!-- Node20&#45;&gt;Node21 -->
<g id="edge52" class="edge"><title>Node20&#45;&gt;Node21</title>
<path fill="none" stroke="midnightblue" d="M691.162,-205.062C711.148,-205.062 733.366,-205.062 753.244,-205.062"/>
<polygon fill="midnightblue" stroke="midnightblue" points="690.938,-201.562 680.938,-205.062 690.938,-208.562 690.938,-201.562"/>
</g>
<!-- Node22 -->
<g id="node49" class="node"><title>Node22</title>
<a xlink:href="../../df/da9/xmpp__auth_8c.html#afb770a216868aa3fb43813b19d2a0115" target="_top" xlink:title="Begins SASL PLAIN authentication.">
<polygon fill="none" stroke="black" points="918.5,-195.562 918.5,-214.562 1037.5,-214.562 1037.5,-195.562 918.5,-195.562"/>
<text text-anchor="middle" x="978" y="-202.562" font-family="DejaVuSansMono" font-size="10.00">handle_sasl_plain</text>
</a>
</g>
<!-- Node21&#45;&gt;Node22 -->
<g id="edge54" class="edge"><title>Node21&#45;&gt;Node22</title>
<path fill="none" stroke="midnightblue" d="M883.029,-205.062C894.747,-205.062 906.817,-205.062 918.24,-205.062"/>
<polygon fill="midnightblue" stroke="midnightblue" points="882.847,-201.562 872.847,-205.062 882.847,-208.562 882.847,-201.562"/>
</g>
<!-- Node23 -->
<g id="node51" class="node"><title>Node23</title>
<a xlink:href="../../d3/d24/xmpp__auth_8h.html#ad3efd9ab093646bdfd8832c34ae2de4d" target="_top" xlink:title="Handler for the inital stream start to begin authentication.">
<polygon fill="none" stroke="black" points="1374.5,-195.562 1374.5,-214.562 1523.5,-214.562 1523.5,-195.562 1374.5,-195.562"/>
<text text-anchor="middle" x="1449" y="-202.562" font-family="DejaVuSansMono" font-size="10.00">xmpp_auth_stream_start</text>
</a>
</g>
<!-- Node22&#45;&gt;Node23 -->
<g id="edge56" class="edge"><title>Node22&#45;&gt;Node23</title>
<path fill="none" stroke="midnightblue" d="M1047.99,-205.062C1135.24,-205.062 1284.85,-205.062 1374.28,-205.062"/>
<polygon fill="midnightblue" stroke="midnightblue" points="1047.92,-201.562 1037.92,-205.062 1047.92,-208.562 1047.92,-201.562"/>
</g>
<!-- Node28 -->
<g id="node61" class="node"><title>Node28</title>
<a xlink:href="../../df/da9/xmpp__auth_8c.html#afd7b12689591d40109a88ad108b5c3a2" target="_top" xlink:title="stream_sasl_start">
<polygon fill="none" stroke="black" points="1074.5,-233.562 1074.5,-252.562 1193.5,-252.562 1193.5,-233.562 1074.5,-233.562"/>
<text text-anchor="middle" x="1134" y="-240.562" font-family="DejaVuSansMono" font-size="10.00">stream_sasl_start</text>
</a>
</g>
<!-- Node22&#45;&gt;Node28 -->
<g id="edge66" class="edge"><title>Node22&#45;&gt;Node28</title>
<path fill="none" stroke="midnightblue" d="M1027.79,-217.102C1049.31,-222.41 1074.23,-228.56 1094.42,-233.541"/>
<polygon fill="midnightblue" stroke="midnightblue" points="1028.41,-213.648 1017.86,-214.651 1026.73,-220.444 1028.41,-213.648"/>
</g>
<!-- Node24 -->
<g id="node53" class="node"><title>Node24</title>
<a xlink:href="../../d4/d2f/xmpp__client_8h.html#a1619c0b8f58b2cf09a322bf34fbc3414" target="_top" xlink:title="xmpp_client_new">
<polygon fill="none" stroke="black" points="1581.5,-195.562 1581.5,-214.562 1688.5,-214.562 1688.5,-195.562 1581.5,-195.562"/>
<text text-anchor="middle" x="1635" y="-202.562" font-family="DejaVuSansMono" font-size="10.00">xmpp_client_new</text>
</a>
</g>
<!-- Node23&#45;&gt;Node24 -->
<g id="edge58" class="edge"><title>Node23&#45;&gt;Node24</title>
<path fill="none" stroke="midnightblue" d="M1533.56,-205.062C1549.79,-205.062 1566.38,-205.062 1581.28,-205.062"/>
<polygon fill="midnightblue" stroke="midnightblue" points="1533.51,-201.562 1523.51,-205.062 1533.51,-208.562 1533.51,-201.562"/>
</g>
<!-- Node25 -->
<g id="node55" class="node"><title>Node25</title>
<a xlink:href="../../d0/df0/xmpp__server_8c.html#a66363912ef1221a2574f9f99805fe8fd" target="_top" xlink:title="Callback for new client connections.">
<polygon fill="none" stroke="black" points="1767.5,-195.562 1767.5,-214.562 1868.5,-214.562 1868.5,-195.562 1767.5,-195.562"/>
<text text-anchor="middle" x="1818" y="-202.562" font-family="DejaVuSansMono" font-size="10.00">connect_client</text>
</a>
</g>
<!-- Node24&#45;&gt;Node25 -->
<g id="edge60" class="edge"><title>Node24&#45;&gt;Node25</title>
<path fill="none" stroke="midnightblue" d="M1698.91,-205.062C1721.26,-205.062 1746.1,-205.062 1767.2,-205.062"/>
<polygon fill="midnightblue" stroke="midnightblue" points="1698.84,-201.562 1688.84,-205.062 1698.84,-208.562 1698.84,-201.562"/>
</g>
<!-- Node26 -->
<g id="node57" class="node"><title>Node26</title>
<a xlink:href="../../d1/d2e/xmpp__server_8h.html#a27bfc8e4d424a8bc17ab21a4a09cdf92" target="_top" xlink:title="Allocates and initializes the XMPP server.">
<polygon fill="none" stroke="black" points="1926.5,-100.562 1926.5,-119.562 2033.5,-119.562 2033.5,-100.562 1926.5,-100.562"/>
<text text-anchor="middle" x="1980" y="-107.562" font-family="DejaVuSansMono" font-size="10.00">xmpp_server_new</text>
</a>
</g>
<!-- Node25&#45;&gt;Node26 -->
<g id="edge62" class="edge"><title>Node25&#45;&gt;Node26</title>
<path fill="none" stroke="midnightblue" d="M1864.68,-192.241C1873.32,-189.092 1882.12,-185.365 1890,-181.062 1921.92,-163.636 1953.93,-134.581 1969.42,-119.616"/>
<polygon fill="midnightblue" stroke="midnightblue" points="1863.37,-188.992 1855.05,-195.551 1865.65,-195.612 1863.37,-188.992"/>
</g>
<!-- Node27 -->
<g id="node59" class="node"><title>Node27</title>
<a xlink:href="../../d0/d29/main_8c.html#a0ddf1224851353fc92bfbff6f499fa97" target="_top" xlink:title="main">
<polygon fill="none" stroke="black" points="2070.5,-100.562 2070.5,-119.562 2111.5,-119.562 2111.5,-100.562 2070.5,-100.562"/>
<text text-anchor="middle" x="2091" y="-107.562" font-family="DejaVuSansMono" font-size="10.00">main</text>
</a>
</g>
<!-- Node26&#45;&gt;Node27 -->
<g id="edge64" class="edge"><title>Node26&#45;&gt;Node27</title>
<path fill="none" stroke="midnightblue" d="M2043.75,-110.062C2053.43,-110.062 2062.76,-110.062 2070.47,-110.062"/>
<polygon fill="midnightblue" stroke="midnightblue" points="2043.58,-106.562 2033.58,-110.062 2043.58,-113.562 2043.58,-106.562"/>
</g>
<!-- Node29 -->
<g id="node63" class="node"><title>Node29</title>
<a xlink:href="../../df/da9/xmpp__auth_8c.html#a8dd789e057b9812e4dd1aa524dfb6a65" target="_top" xlink:title="Begins TLS authentication.">
<polygon fill="none" stroke="black" points="1230.5,-233.562 1230.5,-252.562 1337.5,-252.562 1337.5,-233.562 1230.5,-233.562"/>
<text text-anchor="middle" x="1284" y="-240.562" font-family="DejaVuSansMono" font-size="10.00">handle_starttls</text>
</a>
</g>
<!-- Node28&#45;&gt;Node29 -->
<g id="edge68" class="edge"><title>Node28&#45;&gt;Node29</title>
<path fill="none" stroke="midnightblue" d="M1204.09,-243.062C1212.81,-243.062 1221.62,-243.062 1230.04,-243.062"/>
<polygon fill="midnightblue" stroke="midnightblue" points="1203.92,-239.562 1193.92,-243.062 1203.92,-246.562 1203.92,-239.562"/>
</g>
<!-- Node29&#45;&gt;Node23 -->
<g id="edge70" class="edge"><title>Node29&#45;&gt;Node23</title>
<path fill="none" stroke="midnightblue" d="M1336.03,-231.165C1358.94,-225.824 1385.6,-219.608 1407.16,-214.582"/>
<polygon fill="midnightblue" stroke="midnightblue" points="1335.08,-227.793 1326.13,-233.473 1336.67,-234.611 1335.08,-227.793"/>
</g>
<!-- Node30&#45;&gt;Node26 -->
<g id="edge74" class="edge"><title>Node30&#45;&gt;Node26</title>
<path fill="none" stroke="midnightblue" d="M1521.7,-165.146C1609.18,-161.94 1761.31,-153.555 1890,-132.062 1908.52,-128.967 1928.88,-124.052 1945.45,-119.651"/>
<polygon fill="midnightblue" stroke="midnightblue" points="1521.49,-161.651 1511.62,-165.503 1521.74,-168.647 1521.49,-161.651"/>
</g>
<!-- Node31&#45;&gt;Node26 -->
<g id="edge78" class="edge"><title>Node31&#45;&gt;Node26</title>
<path fill="none" stroke="midnightblue" d="M1719.73,-124.423C1784.26,-120.849 1871.48,-116.018 1926.49,-112.97"/>
<polygon fill="midnightblue" stroke="midnightblue" points="1719.37,-120.938 1709.58,-124.986 1719.76,-127.927 1719.37,-120.938"/>
</g>
<!-- Node32&#45;&gt;Node26 -->
<g id="edge82" class="edge"><title>Node32&#45;&gt;Node26</title>
<path fill="none" stroke="midnightblue" d="M1899.71,-100.646C1908.65,-101.707 1917.57,-102.767 1926.03,-103.772"/>
<polygon fill="midnightblue" stroke="midnightblue" points="1899.99,-97.1542 1889.64,-99.4505 1899.16,-104.105 1899.99,-97.1542"/>
</g>
<!-- Node34 -->
<g id="node77" class="node"><title>Node34</title>
<a xlink:href="../../d9/dd7/xmpp__im_8h.html#a40f3cf6fffd6aafe9c7cde476fdbc9c2" target="_top" xlink:title="IQ stanza callback for handing a roster query.">
<polygon fill="none" stroke="black" points="1074.5,-43.5615 1074.5,-62.5615 1193.5,-62.5615 1193.5,-43.5615 1074.5,-43.5615"/>
<text text-anchor="middle" x="1134" y="-50.5615" font-family="DejaVuSansMono" font-size="10.00">xmpp_im_iq_roster</text>
</a>
</g>
<!-- Node33&#45;&gt;Node34 -->
<g id="edge86" class="edge"><title>Node33&#45;&gt;Node34</title>
<path fill="none" stroke="midnightblue" d="M1026.79,-53.0615C1041.86,-53.0615 1058.68,-53.0615 1074.41,-53.0615"/>
<polygon fill="midnightblue" stroke="midnightblue" points="1026.67,-49.5616 1016.67,-53.0615 1026.67,-56.5616 1026.67,-49.5616"/>
</g>
<!-- Node34&#45;&gt;Node26 -->
<g id="edge88" class="edge"><title>Node34&#45;&gt;Node26</title>
<path fill="none" stroke="midnightblue" d="M1203.83,-53.0615C1267.24,-53.0615 1363.97,-53.0615 1448,-53.0615 1448,-53.0615 1448,-53.0615 1636,-53.0615 1749.2,-53.0615 1780.02,-45.2516 1890,-72.0615 1915.95,-78.388 1944,-91.5146 1961.53,-100.554"/>
<polygon fill="midnightblue" stroke="midnightblue" points="1203.55,-49.5616 1193.55,-53.0615 1203.55,-56.5616 1203.55,-49.5616"/>
</g>
<!-- Node36 -->
<g id="node82" class="node"><title>Node36</title>
<a xlink:href="../../d1/d2e/xmpp__server_8h.html#a8ddb3bbfd497811c13e9426ce6f02003" target="_top" xlink:title="Deliver an IQ stanza to a registered callback function.">
<polygon fill="none" stroke="black" points="744.5,-5.56151 744.5,-24.5615 881.5,-24.5615 881.5,-5.56151 744.5,-5.56151"/>
<text text-anchor="middle" x="813" y="-12.5615" font-family="DejaVuSansMono" font-size="10.00">xmpp_server_route_iq</text>
</a>
</g>
<!-- Node35&#45;&gt;Node36 -->
<g id="edge92" class="edge"><title>Node35&#45;&gt;Node36</title>
<path fill="none" stroke="midnightblue" d="M525.884,-15.0615C592.99,-15.0615 683.267,-15.0615 744.331,-15.0615"/>
<polygon fill="midnightblue" stroke="midnightblue" points="525.74,-11.5616 515.74,-15.0615 525.74,-18.5616 525.74,-11.5616"/>
</g>
<!-- Node37 -->
<g id="node84" class="node"><title>Node37</title>
<a xlink:href="../../d8/d28/xmpp__core_8h.html#a777c384ae6685d30bfa255c4b33022aa" target="_top" xlink:title="An xmpp_server stanza route for stanzas directed to the server itself.">
<polygon fill="none" stroke="black" points="1374.5,-5.56151 1374.5,-24.5615 1523.5,-24.5615 1523.5,-5.56151 1374.5,-5.56151"/>
<text text-anchor="middle" x="1449" y="-12.5615" font-family="DejaVuSansMono" font-size="10.00">xmpp_core_route_server</text>
</a>
</g>
<!-- Node36&#45;&gt;Node37 -->
<g id="edge94" class="edge"><title>Node36&#45;&gt;Node37</title>
<path fill="none" stroke="midnightblue" d="M891.661,-15.0615C1014.87,-15.0615 1253.5,-15.0615 1374.23,-15.0615"/>
<polygon fill="midnightblue" stroke="midnightblue" points="891.549,-11.5616 881.549,-15.0615 891.549,-18.5616 891.549,-11.5616"/>
</g>
<!-- Node37&#45;&gt;Node26 -->
<g id="edge96" class="edge"><title>Node37&#45;&gt;Node26</title>
<path fill="none" stroke="midnightblue" d="M1533.64,-4.87732C1624.54,2.87526 1772.51,5.68979 1890,-39.0615 1924.73,-52.2885 1956.45,-84.3791 1970.85,-100.494"/>
<polygon fill="midnightblue" stroke="midnightblue" points="1533.32,-1.3926 1523.67,-5.76776 1533.94,-8.36489 1533.32,-1.3926"/>
</g>
</g>
</svg>
        <g id="navigator" transform="translate(0 0)" fill="#404254">
                <rect fill="#f2f5e9" fill-opacity="0.5" stroke="#606060" stroke-width=".5" x="0" y="0" width="60" height="60"/>
                <use id="zoomplus" xlink:href="#zoomPlus" x="17" y="9" onmousedown="handleZoom(evt,'in')"/>
                <use id="zoomminus" xlink:href="#zoomMin" x="42" y="9" onmousedown="handleZoom(evt,'out')"/>
                <use id="reset" xlink:href="#resetDef" x="30" y="36" onmousedown="handleReset()"/>
                <g id="arrowUp" xlink:href="#dirArrow" transform="translate(30 24)" onmousedown="handlePan(0,-1)">
                  <use xlink:href="#rim" fill="#404040">
                        <set attributeName="fill" to="#808080" begin="arrowUp.mouseover" end="arrowUp.mouseout"/>
                  </use>
                  <path fill="none" stroke="white" stroke-width="1.5" d="M0,-3.0v7 M-2.5,-0.5L0,-3.0L2.5,-0.5"/>
                </g>
                <g id="arrowRight" xlink:href="#dirArrow" transform="rotate(90) translate(36 -43)" onmousedown="handlePan(1,0)">
                  <use xlink:href="#rim" fill="#404040">
                        <set attributeName="fill" to="#808080" begin="arrowRight.mouseover" end="arrowRight.mouseout"/>
                  </use>
                  <path fill="none" stroke="white" stroke-width="1.5" d="M0,-3.0v7 M-2.5,-0.5L0,-3.0L2.5,-0.5"/>
                </g>
                <g id="arrowDown" xlink:href="#dirArrow" transform="rotate(180) translate(-30 -48)" onmousedown="handlePan(0,1)">
                  <use xlink:href="#rim" fill="#404040">
                        <set attributeName="fill" to="#808080" begin="arrowDown.mouseover" end="arrowDown.mouseout"/>
                  </use>
                  <path fill="none" stroke="white" stroke-width="1.5" d="M0,-3.0v7 M-2.5,-0.5L0,-3.0L2.5,-0.5"/>
                </g>
                <g id="arrowLeft" xlink:href="#dirArrow" transform="rotate(270) translate(-36 17)" onmousedown="handlePan(-1,0)">
                  <use xlink:href="#rim" fill="#404040">
                        <set attributeName="fill" to="#808080" begin="arrowLeft.mouseover" end="arrowLeft.mouseout"/>
                  </use>
                  <path fill="none" stroke="white" stroke-width="1.5" d="M0,-3.0v7 M-2.5,-0.5L0,-3.0L2.5,-0.5"/>
                </g>
        </g>
        <svg viewBox="0 0 25 25" width="100%" height="30px" preserveAspectRatio="xMaxYMin meet"> 
          <g id="printButton" transform="scale(0.4 0.4)" onmousedown="handlePrint(evt)">
            <rect height="23.33753581" id="paper" rx="2" style="fill:#f2f5e9;fill-rule:evenodd;stroke:#111111;stroke-width:3.224;stroke-linejoin:round;" transform="matrix(1.000000,0.000000,-0.339266,0.940691,0.000000,0.000000)" width="25.55231285" x="26.69387353" y="7.36162977"/>
            <rect height="26.272097" id="body" rx="2" style="fill:#404040;fill-rule:evenodd;stroke:#111111;stroke-width:3.125;stroke-linejoin:round;" width="50" x="4.5295201" y="27.078951"/>
            <rect height="8.27750969" id="tray" style="fill:#d2d5c9;fill-rule:evenodd;stroke:#111111;stroke-width:3.125;stroke-linecap:round;stroke-linejoin:round;" width="40" x="10.28778839" y="44.96812282"/>
          </g>
        </svg>
</svg>
