<?xml version="1.0" encoding="UTF-8" standalone="no"?>
<!DOCTYPE svg PUBLIC "-//W3C//DTD SVG 1.1//EN"
 "http://www.w3.org/Graphics/SVG/1.1/DTD/svg11.dtd">
<!-- Generated by graphviz version 2.28.0 (20120217.0315)
 -->
<!-- Title: G Pages: 1 -->
<svg width="410pt" height="180pt"
 viewBox="0.00 0.00 410.00 180.00" xmlns="http://www.w3.org/2000/svg" xmlns:xlink="http://www.w3.org/1999/xlink">
<g id="graph1" class="graph" transform="scale(1 1) rotate(0) translate(4 176)">
<title>G</title>
<!-- Node1 -->
<g id="node1" class="node"><title>Node1</title>
<polygon fill="#bfbfbf" stroke="black" points="0.5,-76.5 0.5,-95.5 143.5,-95.5 143.5,-76.5 0.5,-76.5"/>
<text text-anchor="middle" x="72" y="-83.5" font-family="DejaVuSansMono" font-size="10.00">jid_new_from_jid_bare</text>
</g>
<!-- Node2 -->
<g id="node3" class="node"><title>Node2</title>
<a xlink:href="../../d3/d5a/jid_8c.html#abd2028a1e581e6374acaa6beaf6e5413" target="_top" xlink:title="Allocate and initialize a new blank JID.">
<polygon fill="none" stroke="black" points="201.5,-152.5 201.5,-171.5 260.5,-171.5 260.5,-152.5 201.5,-152.5"/>
<text text-anchor="middle" x="231" y="-159.5" font-family="DejaVuSansMono" font-size="10.00">jid_new</text>
</a>
</g>
<!-- Node1&#45;&gt;Node2 -->
<g id="edge2" class="edge"><title>Node1&#45;&gt;Node2</title>
<path fill="none" stroke="midnightblue" d="M89.3539,-95.5482C110.067,-107.445 147.038,-128.03 180,-143 184.368,-144.984 189.008,-146.94 193.634,-148.8"/>
<polygon fill="midnightblue" stroke="midnightblue" points="192.428,-152.086 203.016,-152.459 194.972,-145.565 192.428,-152.086"/>
</g>
<!-- Node3 -->
<g id="node5" class="node"><title>Node3</title>
<a xlink:href="../../d3/d5a/jid_8c.html#a1a93fd4eaa48c375952cb6f9c9127907" target="_top" xlink:title="Sets the localpart of a JID.">
<polygon fill="none" stroke="black" points="183.5,-114.5 183.5,-133.5 278.5,-133.5 278.5,-114.5 183.5,-114.5"/>
<text text-anchor="middle" x="231" y="-121.5" font-family="DejaVuSansMono" font-size="10.00">jid_set_local</text>
</a>
</g>
<!-- Node1&#45;&gt;Node3 -->
<g id="edge4" class="edge"><title>Node1&#45;&gt;Node3</title>
<path fill="none" stroke="midnightblue" d="M112.618,-95.589C133.336,-100.604 158.888,-106.788 180.856,-112.105"/>
<polygon fill="midnightblue" stroke="midnightblue" points="180.124,-115.529 190.667,-114.48 181.771,-108.726 180.124,-115.529"/>
</g>
<!-- Node5 -->
<g id="node9" class="node"><title>Node5</title>
<a xlink:href="../../d3/d5a/jid_8c.html#ac1dcf40e9090a5a9717b685b6b055feb" target="_top" xlink:title="Returns the localpart of a JID.">
<polygon fill="none" stroke="black" points="195.5,-76.5 195.5,-95.5 266.5,-95.5 266.5,-76.5 195.5,-76.5"/>
<text text-anchor="middle" x="231" y="-83.5" font-family="DejaVuSansMono" font-size="10.00">jid_local</text>
</a>
</g>
<!-- Node1&#45;&gt;Node5 -->
<g id="edge8" class="edge"><title>Node1&#45;&gt;Node5</title>
<path fill="none" stroke="midnightblue" d="M143.692,-86C157.821,-86 172.291,-86 185.246,-86"/>
<polygon fill="midnightblue" stroke="midnightblue" points="185.275,-89.5001 195.275,-86 185.275,-82.5001 185.275,-89.5001"/>
</g>
<!-- Node6 -->
<g id="node11" class="node"><title>Node6</title>
<a xlink:href="../../d3/d5a/jid_8c.html#aeefeabfe802b3db2ce1b8894ae6a0d05" target="_top" xlink:title="Sets the domainpart of a JID.">
<polygon fill="none" stroke="black" points="180.5,-38.5 180.5,-57.5 281.5,-57.5 281.5,-38.5 180.5,-38.5"/>
<text text-anchor="middle" x="231" y="-45.5" font-family="DejaVuSansMono" font-size="10.00">jid_set_domain</text>
</a>
</g>
<!-- Node1&#45;&gt;Node6 -->
<g id="edge10" class="edge"><title>Node1&#45;&gt;Node6</title>
<path fill="none" stroke="midnightblue" d="M112.618,-76.411C133.336,-71.3965 158.888,-65.2119 180.856,-59.8947"/>
<polygon fill="midnightblue" stroke="midnightblue" points="181.771,-63.2744 190.667,-57.5201 180.124,-56.4708 181.771,-63.2744"/>
</g>
<!-- Node7 -->
<g id="node14" class="node"><title>Node7</title>
<a xlink:href="../../d3/d5a/jid_8c.html#a32b3d0744d90d33622986e4989042ee6" target="_top" xlink:title="Returns the domainpart of a JID.">
<polygon fill="none" stroke="black" points="192.5,-0.5 192.5,-19.5 269.5,-19.5 269.5,-0.5 192.5,-0.5"/>
<text text-anchor="middle" x="231" y="-7.5" font-family="DejaVuSansMono" font-size="10.00">jid_domain</text>
</a>
</g>
<!-- Node1&#45;&gt;Node7 -->
<g id="edge14" class="edge"><title>Node1&#45;&gt;Node7</title>
<path fill="none" stroke="midnightblue" d="M89.3539,-76.4518C110.067,-64.5548 147.038,-43.9701 180,-29 184.368,-27.0164 189.008,-25.0597 193.634,-23.1999"/>
<polygon fill="midnightblue" stroke="midnightblue" points="194.972,-26.4351 203.016,-19.5406 192.428,-19.9136 194.972,-26.4351"/>
</g>
<!-- Node4 -->
<g id="node7" class="node"><title>Node4</title>
<a xlink:href="../../d3/d91/utils_8c.html#a07891e77aee8f9b825d52bd33e474f30" target="_top" xlink:title="Simple string copy, freeing original if neccessary.">
<polygon fill="none" stroke="black" points="318.5,-76.5 318.5,-95.5 401.5,-95.5 401.5,-76.5 318.5,-76.5"/>
<text text-anchor="middle" x="360" y="-83.5" font-family="DejaVuSansMono" font-size="10.00">copy_string</text>
</a>
</g>
<!-- Node3&#45;&gt;Node4 -->
<g id="edge6" class="edge"><title>Node3&#45;&gt;Node4</title>
<path fill="none" stroke="midnightblue" d="M264.047,-114.411C280.141,-109.596 299.841,-103.701 317.117,-98.532"/>
<polygon fill="midnightblue" stroke="midnightblue" points="318.386,-101.806 326.963,-95.5859 316.379,-95.0994 318.386,-101.806"/>
</g>
<!-- Node6&#45;&gt;Node4 -->
<g id="edge12" class="edge"><title>Node6&#45;&gt;Node4</title>
<path fill="none" stroke="midnightblue" d="M264.047,-57.589C280.141,-62.4044 299.841,-68.2988 317.117,-73.468"/>
<polygon fill="midnightblue" stroke="midnightblue" points="316.379,-76.9006 326.963,-76.4141 318.386,-70.1943 316.379,-76.9006"/>
</g>
</g>
</svg>
