<?xml version="1.0" encoding="UTF-8" standalone="no"?>
<!DOCTYPE svg PUBLIC "-//W3C//DTD SVG 1.1//EN"
 "http://www.w3.org/Graphics/SVG/1.1/DTD/svg11.dtd">
<!-- Generated by graphviz version 2.28.0 (20120217.0315)
 -->
<!-- Title: G Pages: 1 -->
<!--zoomable 247 -->
<svg id="main" version="1.1" xmlns="http://www.w3.org/2000/svg" xmlns:xlink="http://www.w3.org/1999/xlink" xml:space="preserve" onload="init(evt)">
        <defs>
                <circle id="rim" cx="0" cy="0" r="7"/>
                <circle id="rim2" cx="0" cy="0" r="3.5"/>
                <g id="zoomPlus">
                        <use xlink:href="#rim" fill="#404040">
                                <set attributeName="fill" to="#808080" begin="zoomplus.mouseover" end="zoomplus.mouseout"/>
                        </use>
                        <path d="M-4,0h8M0,-4v8" fill="none" stroke="white" stroke-width="1.5" pointer-events="none"/>
                </g>
                <g id="zoomMin">
                        <use xlink:href="#rim" fill="#404040">
                                <set attributeName="fill" to="#808080" begin="zoomminus.mouseover" end="zoomminus.mouseout"/>
                        </use>
                        <path d="M-4,0h8" fill="none" stroke="white" stroke-width="1.5" pointer-events="none"/>
                </g>
                <g id="dirArrow">
                        <path fill="none" stroke="white" stroke-width="1.5" d="M0,-3.0v7 M-2.5,-0.5L0,-3.0L2.5,-0.5"/>
                </g>
               <g id="resetDef">
                       <use xlink:href="#rim2" fill="#404040">
                               <set attributeName="fill" to="#808080" begin="reset.mouseover" end="reset.mouseout"/>
                       </use>
               </g>
        </defs>

<script type="text/javascript">
var viewWidth = 1682;
var viewHeight = 247;
var sectionId = 'dynsection-8';
</script>
<script xlink:href="../../svgpan.js"/>
<svg id="graph" class="graph">
<g id="viewport">
<title>G</title>
<!-- Node1 -->
<g id="node1" class="node"><title>Node1</title>
<polygon fill="#bfbfbf" stroke="black" points="0.5,-114.5 0.5,-133.5 113.5,-133.5 113.5,-114.5 0.5,-114.5"/>
<text text-anchor="middle" x="57" y="-121.5" font-family="DejaVuSansMono" font-size="10.00">jid_new_from_jid</text>
</g>
<!-- Node2 -->
<g id="node3" class="node"><title>Node2</title>
<a xlink:href="../../d7/d71/xep__muc_8c.html#acf84f00141033b025df269e540461383" target="_top" xlink:title="handle_message">
<polygon fill="none" stroke="black" points="357.5,-209.5 357.5,-228.5 458.5,-228.5 458.5,-209.5 357.5,-209.5"/>
<text text-anchor="middle" x="408" y="-216.5" font-family="DejaVuSansMono" font-size="10.00">handle_message</text>
</a>
</g>
<!-- Node1&#45;&gt;Node2 -->
<g id="edge2" class="edge"><title>Node1&#45;&gt;Node2</title>
<path fill="none" stroke="midnightblue" d="M68.9423,-142.191C83.9253,-165.119 113.211,-203.414 150,-219 220.869,-249.023 312.92,-238.585 365.43,-228.582"/>
<polygon fill="midnightblue" stroke="midnightblue" points="71.8757,-140.281 63.5816,-133.689 65.9545,-144.015 71.8757,-140.281"/>
</g>
<!-- Node6 -->
<g id="node11" class="node"><title>Node6</title>
<a xlink:href="../../d7/d71/xep__muc_8c.html#a1b52b88e96c04035a9e9f53e6210d149" target="_top" xlink:title="room_new">
<polygon fill="none" stroke="black" points="195.5,-152.5 195.5,-171.5 260.5,-171.5 260.5,-152.5 195.5,-152.5"/>
<text text-anchor="middle" x="228" y="-159.5" font-family="DejaVuSansMono" font-size="10.00">room_new</text>
</a>
</g>
<!-- Node1&#45;&gt;Node6 -->
<g id="edge10" class="edge"><title>Node1&#45;&gt;Node6</title>
<path fill="none" stroke="midnightblue" d="M110.601,-135.828C138.359,-142.069 171.498,-149.52 195.305,-154.873"/>
<polygon fill="midnightblue" stroke="midnightblue" points="111.17,-132.368 100.646,-133.589 109.634,-139.198 111.17,-132.368"/>
</g>
<!-- Node9 -->
<g id="node18" class="node"><title>Node9</title>
<a xlink:href="../../d7/d71/xep__muc_8c.html#ad34287dce9e621d00af71d307f7a22dd" target="_top" xlink:title="room_client_new">
<polygon fill="none" stroke="black" points="174.5,-114.5 174.5,-133.5 281.5,-133.5 281.5,-114.5 174.5,-114.5"/>
<text text-anchor="middle" x="228" y="-121.5" font-family="DejaVuSansMono" font-size="10.00">room_client_new</text>
</a>
</g>
<!-- Node1&#45;&gt;Node9 -->
<g id="edge18" class="edge"><title>Node1&#45;&gt;Node9</title>
<path fill="none" stroke="midnightblue" d="M124.049,-124C140.752,-124 158.466,-124 174.404,-124"/>
<polygon fill="midnightblue" stroke="midnightblue" points="123.805,-120.5 113.805,-124 123.805,-127.5 123.805,-120.5"/>
</g>
<!-- Node10 -->
<g id="node21" class="node"><title>Node10</title>
<a xlink:href="../../d7/d71/xep__muc_8c.html#a115281f539cd77f88872ff153ec5b38d" target="_top" xlink:title="send_presence_broadcast">
<polygon fill="none" stroke="black" points="150.5,-190.5 150.5,-209.5 305.5,-209.5 305.5,-190.5 150.5,-190.5"/>
<text text-anchor="middle" x="228" y="-197.5" font-family="DejaVuSansMono" font-size="10.00">send_presence_broadcast</text>
</a>
</g>
<!-- Node1&#45;&gt;Node10 -->
<g id="edge22" class="edge"><title>Node1&#45;&gt;Node10</title>
<path fill="none" stroke="midnightblue" d="M79.2487,-139.852C97.2545,-152.608 124.191,-170.14 150,-181 158.884,-184.738 168.666,-187.853 178.192,-190.405"/>
<polygon fill="midnightblue" stroke="midnightblue" points="80.8561,-136.696 70.7002,-133.678 76.7574,-142.371 80.8561,-136.696"/>
</g>
<!-- Node11 -->
<g id="node24" class="node"><title>Node11</title>
<a xlink:href="../../df/da9/xmpp__auth_8c.html#a603b4a63af3c4e4af99442805fe89ae8" target="_top" xlink:title="Step 15: Client binds a resource.">
<polygon fill="none" stroke="black" points="177.5,-38.5 177.5,-57.5 278.5,-57.5 278.5,-38.5 177.5,-38.5"/>
<text text-anchor="middle" x="228" y="-45.5" font-family="DejaVuSansMono" font-size="10.00">handle_bind_iq</text>
</a>
</g>
<!-- Node1&#45;&gt;Node11 -->
<g id="edge26" class="edge"><title>Node1&#45;&gt;Node11</title>
<path fill="none" stroke="midnightblue" d="M81.5289,-108.853C99.7048,-97.6137 125.767,-82.4836 150,-72 162.98,-66.3848 177.703,-61.4646 190.774,-57.5651"/>
<polygon fill="midnightblue" stroke="midnightblue" points="79.4067,-106.052 72.7943,-114.331 83.1257,-111.983 79.4067,-106.052"/>
</g>
<!-- Node21 -->
<g id="node45" class="node"><title>Node21</title>
<a xlink:href="../../d1/d2e/xmpp__server_8h.html#a1c8e466b41f2895d5a0b57ee9f0a4c0b" target="_top" xlink:title="Add an item to the response for disco item queries.">
<polygon fill="none" stroke="black" points="510.5,-95.5 510.5,-114.5 683.5,-114.5 683.5,-95.5 510.5,-95.5"/>
<text text-anchor="middle" x="597" y="-102.5" font-family="DejaVuSansMono" font-size="10.00">xmpp_server_add_disco_item</text>
</a>
</g>
<!-- Node1&#45;&gt;Node21 -->
<g id="edge48" class="edge"><title>Node1&#45;&gt;Node21</title>
<path fill="none" stroke="midnightblue" d="M105.404,-112.288C119.648,-109.291 135.377,-106.494 150,-105 274.788,-92.2489 420.242,-95.6359 510.236,-99.8424"/>
<polygon fill="midnightblue" stroke="midnightblue" points="104.353,-108.935 95.3311,-114.491 105.848,-115.774 104.353,-108.935"/>
</g>
<!-- Node22 -->
<g id="node48" class="node"><title>Node22</title>
<a xlink:href="../../d0/df0/xmpp__server_8c.html#af1d37b8251dd106082d3fe8097dd565b" target="_top" xlink:title="stanza_route_new">
<polygon fill="none" stroke="black" points="171.5,-0.5 171.5,-19.5 284.5,-19.5 284.5,-0.5 171.5,-0.5"/>
<text text-anchor="middle" x="228" y="-7.5" font-family="DejaVuSansMono" font-size="10.00">stanza_route_new</text>
</a>
</g>
<!-- Node1&#45;&gt;Node22 -->
<g id="edge52" class="edge"><title>Node1&#45;&gt;Node22</title>
<path fill="none" stroke="midnightblue" d="M70.2954,-106.195C86.1746,-84.5893 115.862,-48.6222 150,-29 156.804,-25.0889 164.396,-21.9775 172.087,-19.5036"/>
<polygon fill="midnightblue" stroke="midnightblue" points="67.3357,-104.317 64.3628,-114.486 73.0284,-108.391 67.3357,-104.317"/>
</g>
<!-- Node3 -->
<g id="node5" class="node"><title>Node3</title>
<a xlink:href="../../d7/d71/xep__muc_8c.html#a1798db1c16a1fa62ff8f39fea202a26f" target="_top" xlink:title="stanza_handler">
<polygon fill="none" stroke="black" points="729.5,-152.5 729.5,-171.5 830.5,-171.5 830.5,-152.5 729.5,-152.5"/>
<text text-anchor="middle" x="780" y="-159.5" font-family="DejaVuSansMono" font-size="10.00">stanza_handler</text>
</a>
</g>
<!-- Node2&#45;&gt;Node3 -->
<g id="edge4" class="edge"><title>Node2&#45;&gt;Node3</title>
<path fill="none" stroke="midnightblue" d="M468.63,-211.81C524.439,-204.832 610.069,-193.489 684,-181 700.419,-178.226 718.346,-174.756 734.16,-171.544"/>
<polygon fill="midnightblue" stroke="midnightblue" points="468.058,-208.354 458.566,-213.061 468.922,-215.301 468.058,-208.354"/>
</g>
<!-- Node4 -->
<g id="node7" class="node"><title>Node4</title>
<a xlink:href="../../d7/d71/xep__muc_8c.html#addf05166cf3fbe386ae6650be21ef251" target="_top" xlink:title="xep_muc_start">
<polygon fill="none" stroke="black" points="882.5,-105.5 882.5,-124.5 977.5,-124.5 977.5,-105.5 882.5,-105.5"/>
<text text-anchor="middle" x="930" y="-112.5" font-family="DejaVuSansMono" font-size="10.00">xep_muc_start</text>
</a>
</g>
<!-- Node3&#45;&gt;Node4 -->
<g id="edge6" class="edge"><title>Node3&#45;&gt;Node4</title>
<path fill="none" stroke="midnightblue" d="M820.694,-149.394C845.257,-141.594 876.294,-131.738 898.841,-124.578"/>
<polygon fill="midnightblue" stroke="midnightblue" points="819.422,-146.126 810.95,-152.489 821.54,-152.798 819.422,-146.126"/>
</g>
<!-- Node5 -->
<g id="node9" class="node"><title>Node5</title>
<a xlink:href="../../d7/d71/xep__muc_8c.html#a20d385a5584d8014ec4d5774eb79d1de" target="_top" xlink:title="xep_muc_stop">
<polygon fill="none" stroke="black" points="885.5,-152.5 885.5,-171.5 974.5,-171.5 974.5,-152.5 885.5,-152.5"/>
<text text-anchor="middle" x="930" y="-159.5" font-family="DejaVuSansMono" font-size="10.00">xep_muc_stop</text>
</a>
</g>
<!-- Node3&#45;&gt;Node5 -->
<g id="edge8" class="edge"><title>Node3&#45;&gt;Node5</title>
<path fill="none" stroke="midnightblue" d="M840.801,-162C855.627,-162 871.244,-162 885.147,-162"/>
<polygon fill="midnightblue" stroke="midnightblue" points="840.694,-158.5 830.694,-162 840.694,-165.5 840.694,-158.5"/>
</g>
<!-- Node7 -->
<g id="node13" class="node"><title>Node7</title>
<a xlink:href="../../d7/d71/xep__muc_8c.html#aefd23f2960520a68fea212344b85cb0b" target="_top" xlink:title="enter_room_presence">
<polygon fill="none" stroke="black" points="342.5,-152.5 342.5,-171.5 473.5,-171.5 473.5,-152.5 342.5,-152.5"/>
<text text-anchor="middle" x="408" y="-159.5" font-family="DejaVuSansMono" font-size="10.00">enter_room_presence</text>
</a>
</g>
<!-- Node6&#45;&gt;Node7 -->
<g id="edge12" class="edge"><title>Node6&#45;&gt;Node7</title>
<path fill="none" stroke="midnightblue" d="M270.83,-162C292.11,-162 318.451,-162 342.278,-162"/>
<polygon fill="midnightblue" stroke="midnightblue" points="270.823,-158.5 260.823,-162 270.823,-165.5 270.823,-158.5"/>
</g>
<!-- Node8 -->
<g id="node15" class="node"><title>Node8</title>
<a xlink:href="../../d7/d71/xep__muc_8c.html#a9936322b944d46aead9fbd942687ec0a" target="_top" xlink:title="handle_presence">
<polygon fill="none" stroke="black" points="543.5,-152.5 543.5,-171.5 650.5,-171.5 650.5,-152.5 543.5,-152.5"/>
<text text-anchor="middle" x="597" y="-159.5" font-family="DejaVuSansMono" font-size="10.00">handle_presence</text>
</a>
</g>
<!-- Node7&#45;&gt;Node8 -->
<g id="edge14" class="edge"><title>Node7&#45;&gt;Node8</title>
<path fill="none" stroke="midnightblue" d="M483.644,-162C503.669,-162 524.898,-162 543.447,-162"/>
<polygon fill="midnightblue" stroke="midnightblue" points="483.617,-158.5 473.617,-162 483.617,-165.5 483.617,-158.5"/>
</g>
<!-- Node8&#45;&gt;Node3 -->
<g id="edge16" class="edge"><title>Node8&#45;&gt;Node3</title>
<path fill="none" stroke="midnightblue" d="M660.912,-162C683.263,-162 708.097,-162 729.201,-162"/>
<polygon fill="midnightblue" stroke="midnightblue" points="660.839,-158.5 650.839,-162 660.839,-165.5 660.839,-158.5"/>
</g>
<!-- Node9&#45;&gt;Node7 -->
<g id="edge20" class="edge"><title>Node9&#45;&gt;Node7</title>
<path fill="none" stroke="midnightblue" d="M283.716,-135.681C308.959,-141.07 338.545,-147.386 362.406,-152.48"/>
<polygon fill="midnightblue" stroke="midnightblue" points="284.427,-132.254 273.917,-133.589 282.966,-139.1 284.427,-132.254"/>
</g>
<!-- Node10&#45;&gt;Node7 -->
<g id="edge24" class="edge"><title>Node10&#45;&gt;Node7</title>
<path fill="none" stroke="midnightblue" d="M283.716,-188.319C308.959,-182.93 338.545,-176.614 362.406,-171.52"/>
<polygon fill="midnightblue" stroke="midnightblue" points="282.966,-184.9 273.917,-190.411 284.427,-191.746 282.966,-184.9"/>
</g>
<!-- Node12 -->
<g id="node26" class="node"><title>Node12</title>
<a xlink:href="../../df/da9/xmpp__auth_8c.html#a01804bd53eccc182ce76337fc0863e8d" target="_top" xlink:title="stream_bind_start">
<polygon fill="none" stroke="black" points="348.5,-38.5 348.5,-57.5 467.5,-57.5 467.5,-38.5 348.5,-38.5"/>
<text text-anchor="middle" x="408" y="-45.5" font-family="DejaVuSansMono" font-size="10.00">stream_bind_start</text>
</a>
</g>
<!-- Node11&#45;&gt;Node12 -->
<g id="edge28" class="edge"><title>Node11&#45;&gt;Node12</title>
<path fill="none" stroke="midnightblue" d="M288.702,-48C307.882,-48 329.106,-48 348.219,-48"/>
<polygon fill="midnightblue" stroke="midnightblue" points="288.583,-44.5001 278.583,-48 288.583,-51.5001 288.583,-44.5001"/>
</g>
<!-- Node13 -->
<g id="node28" class="node"><title>Node13</title>
<a xlink:href="../../df/da9/xmpp__auth_8c.html#afb770a216868aa3fb43813b19d2a0115" target="_top" xlink:title="Begins SASL PLAIN authentication.">
<polygon fill="none" stroke="black" points="537.5,-38.5 537.5,-57.5 656.5,-57.5 656.5,-38.5 537.5,-38.5"/>
<text text-anchor="middle" x="597" y="-45.5" font-family="DejaVuSansMono" font-size="10.00">handle_sasl_plain</text>
</a>
</g>
<!-- Node12&#45;&gt;Node13 -->
<g id="edge30" class="edge"><title>Node12&#45;&gt;Node13</title>
<path fill="none" stroke="midnightblue" d="M477.71,-48C497.248,-48 518.342,-48 537.232,-48"/>
<polygon fill="midnightblue" stroke="midnightblue" points="477.655,-44.5001 467.655,-48 477.655,-51.5001 477.655,-44.5001"/>
</g>
<!-- Node14 -->
<g id="node30" class="node"><title>Node14</title>
<a xlink:href="../../d3/d24/xmpp__auth_8h.html#ad3efd9ab093646bdfd8832c34ae2de4d" target="_top" xlink:title="Handler for the inital stream start to begin authentication.">
<polygon fill="none" stroke="black" points="1020.5,-38.5 1020.5,-57.5 1169.5,-57.5 1169.5,-38.5 1020.5,-38.5"/>
<text text-anchor="middle" x="1095" y="-45.5" font-family="DejaVuSansMono" font-size="10.00">xmpp_auth_stream_start</text>
</a>
</g>
<!-- Node13&#45;&gt;Node14 -->
<g id="edge32" class="edge"><title>Node13&#45;&gt;Node14</title>
<path fill="none" stroke="midnightblue" d="M666.997,-48C760.023,-48 924.973,-48 1020.34,-48"/>
<polygon fill="midnightblue" stroke="midnightblue" points="666.846,-44.5001 656.845,-48 666.845,-51.5001 666.846,-44.5001"/>
</g>
<!-- Node19 -->
<g id="node40" class="node"><title>Node19</title>
<a xlink:href="../../df/da9/xmpp__auth_8c.html#afd7b12689591d40109a88ad108b5c3a2" target="_top" xlink:title="stream_sasl_start">
<polygon fill="none" stroke="black" points="720.5,-19.5 720.5,-38.5 839.5,-38.5 839.5,-19.5 720.5,-19.5"/>
<text text-anchor="middle" x="780" y="-26.5" font-family="DejaVuSansMono" font-size="10.00">stream_sasl_start</text>
</a>
</g>
<!-- Node13&#45;&gt;Node19 -->
<g id="edge42" class="edge"><title>Node13&#45;&gt;Node19</title>
<path fill="none" stroke="midnightblue" d="M666.95,-40.7621C684.51,-38.9188 703.22,-36.9548 720.22,-35.1703"/>
<polygon fill="midnightblue" stroke="midnightblue" points="666.345,-37.3063 656.766,-41.8312 667.076,-44.268 666.345,-37.3063"/>
</g>
<!-- Node15 -->
<g id="node32" class="node"><title>Node15</title>
<a xlink:href="../../d4/d2f/xmpp__client_8h.html#a1619c0b8f58b2cf09a322bf34fbc3414" target="_top" xlink:title="xmpp_client_new">
<polygon fill="none" stroke="black" points="1206.5,-38.5 1206.5,-57.5 1313.5,-57.5 1313.5,-38.5 1206.5,-38.5"/>
<text text-anchor="middle" x="1260" y="-45.5" font-family="DejaVuSansMono" font-size="10.00">xmpp_client_new</text>
</a>
</g>
<!-- Node14&#45;&gt;Node15 -->
<g id="edge34" class="edge"><title>Node14&#45;&gt;Node15</title>
<path fill="none" stroke="midnightblue" d="M1179.99,-48C1188.95,-48 1197.88,-48 1206.33,-48"/>
<polygon fill="midnightblue" stroke="midnightblue" points="1179.87,-44.5001 1169.87,-48 1179.87,-51.5001 1179.87,-44.5001"/>
</g>
<!-- Node16 -->
<g id="node34" class="node"><title>Node16</title>
<a xlink:href="../../d0/df0/xmpp__server_8c.html#a66363912ef1221a2574f9f99805fe8fd" target="_top" xlink:title="Callback for new client connections.">
<polygon fill="none" stroke="black" points="1350.5,-38.5 1350.5,-57.5 1451.5,-57.5 1451.5,-38.5 1350.5,-38.5"/>
<text text-anchor="middle" x="1401" y="-45.5" font-family="DejaVuSansMono" font-size="10.00">connect_client</text>
</a>
</g>
<!-- Node15&#45;&gt;Node16 -->
<g id="edge36" class="edge"><title>Node15&#45;&gt;Node16</title>
<path fill="none" stroke="midnightblue" d="M1323.8,-48C1332.63,-48 1341.59,-48 1350.13,-48"/>
<polygon fill="midnightblue" stroke="midnightblue" points="1323.55,-44.5001 1313.55,-48 1323.55,-51.5001 1323.55,-44.5001"/>
</g>
<!-- Node17 -->
<g id="node36" class="node"><title>Node17</title>
<a xlink:href="../../d1/d2e/xmpp__server_8h.html#a27bfc8e4d424a8bc17ab21a4a09cdf92" target="_top" xlink:title="Allocates and initializes the XMPP server.">
<polygon fill="none" stroke="black" points="1488.5,-38.5 1488.5,-57.5 1595.5,-57.5 1595.5,-38.5 1488.5,-38.5"/>
<text text-anchor="middle" x="1542" y="-45.5" font-family="DejaVuSansMono" font-size="10.00">xmpp_server_new</text>
</a>
</g>
<!-- Node16&#45;&gt;Node17 -->
<g id="edge38" class="edge"><title>Node16&#45;&gt;Node17</title>
<path fill="none" stroke="midnightblue" d="M1461.94,-48C1470.7,-48 1479.67,-48 1488.27,-48"/>
<polygon fill="midnightblue" stroke="midnightblue" points="1461.79,-44.5001 1451.79,-48 1461.79,-51.5001 1461.79,-44.5001"/>
</g>
<!-- Node18 -->
<g id="node38" class="node"><title>Node18</title>
<a xlink:href="../../d0/d29/main_8c.html#a0ddf1224851353fc92bfbff6f499fa97" target="_top" xlink:title="main">
<polygon fill="none" stroke="black" points="1632.5,-38.5 1632.5,-57.5 1673.5,-57.5 1673.5,-38.5 1632.5,-38.5"/>
<text text-anchor="middle" x="1653" y="-45.5" font-family="DejaVuSansMono" font-size="10.00">main</text>
</a>
</g>
<!-- Node17&#45;&gt;Node18 -->
<g id="edge40" class="edge"><title>Node17&#45;&gt;Node18</title>
<path fill="none" stroke="midnightblue" d="M1605.75,-48C1615.43,-48 1624.76,-48 1632.47,-48"/>
<polygon fill="midnightblue" stroke="midnightblue" points="1605.58,-44.5001 1595.58,-48 1605.58,-51.5001 1605.58,-44.5001"/>
</g>
<!-- Node20 -->
<g id="node42" class="node"><title>Node20</title>
<a xlink:href="../../df/da9/xmpp__auth_8c.html#a8dd789e057b9812e4dd1aa524dfb6a65" target="_top" xlink:title="Begins TLS authentication.">
<polygon fill="none" stroke="black" points="876.5,-19.5 876.5,-38.5 983.5,-38.5 983.5,-19.5 876.5,-19.5"/>
<text text-anchor="middle" x="930" y="-26.5" font-family="DejaVuSansMono" font-size="10.00">handle_starttls</text>
</a>
</g>
<!-- Node19&#45;&gt;Node20 -->
<g id="edge44" class="edge"><title>Node19&#45;&gt;Node20</title>
<path fill="none" stroke="midnightblue" d="M850.085,-29C858.806,-29 867.619,-29 876.036,-29"/>
<polygon fill="midnightblue" stroke="midnightblue" points="849.919,-25.5001 839.919,-29 849.919,-32.5001 849.919,-25.5001"/>
</g>
<!-- Node20&#45;&gt;Node14 -->
<g id="edge46" class="edge"><title>Node20&#45;&gt;Node14</title>
<path fill="none" stroke="midnightblue" d="M993.911,-36.3332C1002.56,-37.3411 1011.5,-38.3833 1020.32,-39.4112"/>
<polygon fill="midnightblue" stroke="midnightblue" points="994.259,-32.8502 983.921,-35.1688 993.449,-39.8031 994.259,-32.8502"/>
</g>
<!-- Node21&#45;&gt;Node4 -->
<g id="edge50" class="edge"><title>Node21&#45;&gt;Node4</title>
<path fill="none" stroke="midnightblue" d="M693.865,-107.896C755.839,-109.769 833.745,-112.122 882.47,-113.594"/>
<polygon fill="midnightblue" stroke="midnightblue" points="693.772,-104.392 683.671,-107.588 693.561,-111.389 693.772,-104.392"/>
</g>
</g>
</svg>
        <g id="navigator" transform="translate(0 0)" fill="#404254">
                <rect fill="#f2f5e9" fill-opacity="0.5" stroke="#606060" stroke-width=".5" x="0" y="0" width="60" height="60"/>
                <use id="zoomplus" xlink:href="#zoomPlus" x="17" y="9" onmousedown="handleZoom(evt,'in')"/>
                <use id="zoomminus" xlink:href="#zoomMin" x="42" y="9" onmousedown="handleZoom(evt,'out')"/>
                <use id="reset" xlink:href="#resetDef" x="30" y="36" onmousedown="handleReset()"/>
                <g id="arrowUp" xlink:href="#dirArrow" transform="translate(30 24)" onmousedown="handlePan(0,-1)">
                  <use xlink:href="#rim" fill="#404040">
                        <set attributeName="fill" to="#808080" begin="arrowUp.mouseover" end="arrowUp.mouseout"/>
                  </use>
                  <path fill="none" stroke="white" stroke-width="1.5" d="M0,-3.0v7 M-2.5,-0.5L0,-3.0L2.5,-0.5"/>
                </g>
                <g id="arrowRight" xlink:href="#dirArrow" transform="rotate(90) translate(36 -43)" onmousedown="handlePan(1,0)">
                  <use xlink:href="#rim" fill="#404040">
                        <set attributeName="fill" to="#808080" begin="arrowRight.mouseover" end="arrowRight.mouseout"/>
                  </use>
                  <path fill="none" stroke="white" stroke-width="1.5" d="M0,-3.0v7 M-2.5,-0.5L0,-3.0L2.5,-0.5"/>
                </g>
                <g id="arrowDown" xlink:href="#dirArrow" transform="rotate(180) translate(-30 -48)" onmousedown="handlePan(0,1)">
                  <use xlink:href="#rim" fill="#404040">
                        <set attributeName="fill" to="#808080" begin="arrowDown.mouseover" end="arrowDown.mouseout"/>
                  </use>
                  <path fill="none" stroke="white" stroke-width="1.5" d="M0,-3.0v7 M-2.5,-0.5L0,-3.0L2.5,-0.5"/>
                </g>
                <g id="arrowLeft" xlink:href="#dirArrow" transform="rotate(270) translate(-36 17)" onmousedown="handlePan(-1,0)">
                  <use xlink:href="#rim" fill="#404040">
                        <set attributeName="fill" to="#808080" begin="arrowLeft.mouseover" end="arrowLeft.mouseout"/>
                  </use>
                  <path fill="none" stroke="white" stroke-width="1.5" d="M0,-3.0v7 M-2.5,-0.5L0,-3.0L2.5,-0.5"/>
                </g>
        </g>
        <svg viewBox="0 0 25 25" width="100%" height="30px" preserveAspectRatio="xMaxYMin meet"> 
          <g id="printButton" transform="scale(0.4 0.4)" onmousedown="handlePrint(evt)">
            <rect height="23.33753581" id="paper" rx="2" style="fill:#f2f5e9;fill-rule:evenodd;stroke:#111111;stroke-width:3.224;stroke-linejoin:round;" transform="matrix(1.000000,0.000000,-0.339266,0.940691,0.000000,0.000000)" width="25.55231285" x="26.69387353" y="7.36162977"/>
            <rect height="26.272097" id="body" rx="2" style="fill:#404040;fill-rule:evenodd;stroke:#111111;stroke-width:3.125;stroke-linejoin:round;" width="50" x="4.5295201" y="27.078951"/>
            <rect height="8.27750969" id="tray" style="fill:#d2d5c9;fill-rule:evenodd;stroke:#111111;stroke-width:3.125;stroke-linecap:round;stroke-linejoin:round;" width="40" x="10.28778839" y="44.96812282"/>
          </g>
        </svg>
</svg>
