<?xml version="1.0" encoding="UTF-8" standalone="no"?>
<!DOCTYPE svg PUBLIC "-//W3C//DTD SVG 1.1//EN"
 "http://www.w3.org/Graphics/SVG/1.1/DTD/svg11.dtd">
<!-- Generated by graphviz version 2.28.0 (20120217.0315)
 -->
<!-- Title: G Pages: 1 -->
<!--zoomable 413 -->
<svg id="main" version="1.1" xmlns="http://www.w3.org/2000/svg" xmlns:xlink="http://www.w3.org/1999/xlink" xml:space="preserve" onload="init(evt)">
        <defs>
                <circle id="rim" cx="0" cy="0" r="7"/>
                <circle id="rim2" cx="0" cy="0" r="3.5"/>
                <g id="zoomPlus">
                        <use xlink:href="#rim" fill="#404040">
                                <set attributeName="fill" to="#808080" begin="zoomplus.mouseover" end="zoomplus.mouseout"/>
                        </use>
                        <path d="M-4,0h8M0,-4v8" fill="none" stroke="white" stroke-width="1.5" pointer-events="none"/>
                </g>
                <g id="zoomMin">
                        <use xlink:href="#rim" fill="#404040">
                                <set attributeName="fill" to="#808080" begin="zoomminus.mouseover" end="zoomminus.mouseout"/>
                        </use>
                        <path d="M-4,0h8" fill="none" stroke="white" stroke-width="1.5" pointer-events="none"/>
                </g>
                <g id="dirArrow">
                        <path fill="none" stroke="white" stroke-width="1.5" d="M0,-3.0v7 M-2.5,-0.5L0,-3.0L2.5,-0.5"/>
                </g>
               <g id="resetDef">
                       <use xlink:href="#rim2" fill="#404040">
                               <set attributeName="fill" to="#808080" begin="reset.mouseover" end="reset.mouseout"/>
                       </use>
               </g>
        </defs>

<script type="text/javascript">
var viewWidth = 2006;
var viewHeight = 413;
var sectionId = 'dynsection-15';
</script>
<script xlink:href="../../svgpan.js"/>
<svg id="graph" class="graph">
<g id="viewport">
<title>G</title>
<!-- Node1 -->
<g id="node1" class="node"><title>Node1</title>
<polygon fill="#bfbfbf" stroke="black" points="0.5,-76.5 0.5,-95.5 101.5,-95.5 101.5,-76.5 0.5,-76.5"/>
<text text-anchor="middle" x="51" y="-83.5" font-family="DejaVuSansMono" font-size="10.00">jid_set_domain</text>
</g>
<!-- Node2 -->
<g id="node3" class="node"><title>Node2</title>
<a xlink:href="../../d6/d24/jid_8h.html#a6da80c5b44d3c4ef896850a5d1d790b0" target="_top" xlink:title="Allocate and initialize a new JID from an existing JID structure.">
<polygon fill="none" stroke="black" points="153.5,-247.5 153.5,-266.5 266.5,-266.5 266.5,-247.5 153.5,-247.5"/>
<text text-anchor="middle" x="210" y="-254.5" font-family="DejaVuSansMono" font-size="10.00">jid_new_from_jid</text>
</a>
</g>
<!-- Node1&#45;&gt;Node2 -->
<g id="edge2" class="edge"><title>Node1&#45;&gt;Node2</title>
<path fill="none" stroke="midnightblue" d="M67.9318,-103.353C100.708,-139.051 174.747,-219.693 200.207,-247.423"/>
<polygon fill="midnightblue" stroke="midnightblue" points="70.2321,-100.683 60.8908,-95.6837 65.0758,-105.417 70.2321,-100.683"/>
</g>
<!-- Node14 -->
<g id="node30" class="node"><title>Node14</title>
<a xlink:href="../../df/da9/xmpp__auth_8c.html#afb770a216868aa3fb43813b19d2a0115" target="_top" xlink:title="Begins SASL PLAIN authentication.">
<polygon fill="none" stroke="black" points="888.5,-95.5 888.5,-114.5 1007.5,-114.5 1007.5,-95.5 888.5,-95.5"/>
<text text-anchor="middle" x="948" y="-102.5" font-family="DejaVuSansMono" font-size="10.00">handle_sasl_plain</text>
</a>
</g>
<!-- Node1&#45;&gt;Node14 -->
<g id="edge66" class="edge"><title>Node1&#45;&gt;Node14</title>
<path fill="none" stroke="midnightblue" d="M111.864,-86C180.315,-86 295.737,-86 395,-86 395,-86 395,-86 577,-86 687.149,-86 815.501,-94.5023 888.412,-100.132"/>
<polygon fill="midnightblue" stroke="midnightblue" points="111.702,-82.5001 101.702,-86 111.702,-89.5001 111.702,-82.5001"/>
</g>
<!-- Node24 -->
<g id="node52" class="node"><title>Node24</title>
<a xlink:href="../../d6/d24/jid_8h.html#ae6100aaa50b6af23516ebc89e2f8c338" target="_top" xlink:title="Allocate and initialize a new JID from an existing JID without the resource.">
<polygon fill="none" stroke="black" points="138.5,-114.5 138.5,-133.5 281.5,-133.5 281.5,-114.5 138.5,-114.5"/>
<text text-anchor="middle" x="210" y="-121.5" font-family="DejaVuSansMono" font-size="10.00">jid_new_from_jid_bare</text>
</a>
</g>
<!-- Node1&#45;&gt;Node24 -->
<g id="edge56" class="edge"><title>Node1&#45;&gt;Node24</title>
<path fill="none" stroke="midnightblue" d="M101.447,-97.968C123.448,-103.293 148.994,-109.476 169.667,-114.48"/>
<polygon fill="midnightblue" stroke="midnightblue" points="102.16,-94.5398 91.6177,-95.589 100.514,-101.343 102.16,-94.5398"/>
</g>
<!-- Node26 -->
<g id="node57" class="node"><title>Node26</title>
<a xlink:href="../../d7/d71/xep__muc_8c.html#abb84073037b532fc678cfa29dbb0f78b" target="_top" xlink:title="xep_muc_new">
<polygon fill="none" stroke="black" points="168.5,-38.5 168.5,-57.5 251.5,-57.5 251.5,-38.5 168.5,-38.5"/>
<text text-anchor="middle" x="210" y="-45.5" font-family="DejaVuSansMono" font-size="10.00">xep_muc_new</text>
</a>
</g>
<!-- Node1&#45;&gt;Node26 -->
<g id="edge62" class="edge"><title>Node1&#45;&gt;Node26</title>
<path fill="none" stroke="midnightblue" d="M101.447,-74.032C123.448,-68.7069 148.994,-62.5238 169.667,-57.5201"/>
<polygon fill="midnightblue" stroke="midnightblue" points="100.514,-70.6567 91.6177,-76.411 102.16,-77.4602 100.514,-70.6567"/>
</g>
<!-- Node27 -->
<g id="node59" class="node"><title>Node27</title>
<a xlink:href="../../d7/d71/xep__muc_8c.html#a09d3d369f554ab215c1b8cd0328c4fc4" target="_top" xlink:title="xep_muc_conf">
<polygon fill="none" stroke="black" points="165.5,-0.5 165.5,-19.5 254.5,-19.5 254.5,-0.5 165.5,-0.5"/>
<text text-anchor="middle" x="210" y="-7.5" font-family="DejaVuSansMono" font-size="10.00">xep_muc_conf</text>
</a>
</g>
<!-- Node1&#45;&gt;Node27 -->
<g id="edge64" class="edge"><title>Node1&#45;&gt;Node27</title>
<path fill="none" stroke="midnightblue" d="M71.7525,-70.2037C88.5182,-57.4814 113.664,-39.9673 138,-29 146.609,-25.1205 156.173,-21.8962 165.421,-19.2725"/>
<polygon fill="midnightblue" stroke="midnightblue" points="69.5639,-67.4717 63.7976,-76.3599 73.8481,-73.0076 69.5639,-67.4717"/>
</g>
<!-- Node3 -->
<g id="node5" class="node"><title>Node3</title>
<a xlink:href="../../d7/d71/xep__muc_8c.html#acf84f00141033b025df269e540461383" target="_top" xlink:title="handle_message">
<polygon fill="none" stroke="black" points="525.5,-342.5 525.5,-361.5 626.5,-361.5 626.5,-342.5 525.5,-342.5"/>
<text text-anchor="middle" x="576" y="-349.5" font-family="DejaVuSansMono" font-size="10.00">handle_message</text>
</a>
</g>
<!-- Node2&#45;&gt;Node3 -->
<g id="edge4" class="edge"><title>Node2&#45;&gt;Node3</title>
<path fill="none" stroke="midnightblue" d="M227.827,-273.498C247.577,-291.695 282.201,-320.107 318,-333 386.612,-357.711 472.041,-358.657 525.056,-356.083"/>
<polygon fill="midnightblue" stroke="midnightblue" points="230.221,-270.944 220.547,-266.625 225.416,-276.035 230.221,-270.944"/>
</g>
<!-- Node7 -->
<g id="node13" class="node"><title>Node7</title>
<a xlink:href="../../d7/d71/xep__muc_8c.html#a1b52b88e96c04035a9e9f53e6210d149" target="_top" xlink:title="room_new">
<polygon fill="none" stroke="black" points="363.5,-190.5 363.5,-209.5 428.5,-209.5 428.5,-190.5 363.5,-190.5"/>
<text text-anchor="middle" x="396" y="-197.5" font-family="DejaVuSansMono" font-size="10.00">room_new</text>
</a>
</g>
<!-- Node2&#45;&gt;Node7 -->
<g id="edge12" class="edge"><title>Node2&#45;&gt;Node7</title>
<path fill="none" stroke="midnightblue" d="M245.237,-243.863C266.097,-236.104 293.388,-226.387 318,-219 332.77,-214.567 349.355,-210.376 363.339,-207.064"/>
<polygon fill="midnightblue" stroke="midnightblue" points="243.981,-240.596 235.847,-247.385 246.439,-247.15 243.981,-240.596"/>
</g>
<!-- Node10 -->
<g id="node20" class="node"><title>Node10</title>
<a xlink:href="../../d7/d71/xep__muc_8c.html#ad34287dce9e621d00af71d307f7a22dd" target="_top" xlink:title="room_client_new">
<polygon fill="none" stroke="black" points="342.5,-304.5 342.5,-323.5 449.5,-323.5 449.5,-304.5 342.5,-304.5"/>
<text text-anchor="middle" x="396" y="-311.5" font-family="DejaVuSansMono" font-size="10.00">room_client_new</text>
</a>
</g>
<!-- Node2&#45;&gt;Node10 -->
<g id="edge20" class="edge"><title>Node2&#45;&gt;Node10</title>
<path fill="none" stroke="midnightblue" d="M245.237,-270.137C266.097,-277.896 293.388,-287.613 318,-295 329.342,-298.404 341.753,-301.665 353.235,-304.495"/>
<polygon fill="midnightblue" stroke="midnightblue" points="246.439,-266.85 235.847,-266.615 243.981,-273.404 246.439,-266.85"/>
</g>
<!-- Node11 -->
<g id="node23" class="node"><title>Node11</title>
<a xlink:href="../../d7/d71/xep__muc_8c.html#a115281f539cd77f88872ff153ec5b38d" target="_top" xlink:title="send_presence_broadcast">
<polygon fill="none" stroke="black" points="318.5,-228.5 318.5,-247.5 473.5,-247.5 473.5,-228.5 318.5,-228.5"/>
<text text-anchor="middle" x="396" y="-235.5" font-family="DejaVuSansMono" font-size="10.00">send_presence_broadcast</text>
</a>
</g>
<!-- Node2&#45;&gt;Node11 -->
<g id="edge24" class="edge"><title>Node2&#45;&gt;Node11</title>
<path fill="none" stroke="midnightblue" d="M276.834,-250.202C290.315,-248.81 304.614,-247.333 318.435,-245.906"/>
<polygon fill="midnightblue" stroke="midnightblue" points="276.293,-246.739 266.705,-251.248 277.012,-253.702 276.293,-246.739"/>
</g>
<!-- Node12 -->
<g id="node26" class="node"><title>Node12</title>
<a xlink:href="../../df/da9/xmpp__auth_8c.html#a603b4a63af3c4e4af99442805fe89ae8" target="_top" xlink:title="Step 15: Client binds a resource.">
<polygon fill="none" stroke="black" points="525.5,-114.5 525.5,-133.5 626.5,-133.5 626.5,-114.5 525.5,-114.5"/>
<text text-anchor="middle" x="576" y="-121.5" font-family="DejaVuSansMono" font-size="10.00">handle_bind_iq</text>
</a>
</g>
<!-- Node2&#45;&gt;Node12 -->
<g id="edge28" class="edge"><title>Node2&#45;&gt;Node12</title>
<path fill="none" stroke="midnightblue" d="M229.108,-240.644C249.331,-223.256 283.744,-196.213 318,-181 336.953,-172.583 458.214,-147.45 527.187,-133.534"/>
<polygon fill="midnightblue" stroke="midnightblue" points="226.565,-238.219 221.351,-247.442 231.178,-243.483 226.565,-238.219"/>
</g>
<!-- Node22 -->
<g id="node47" class="node"><title>Node22</title>
<a xlink:href="../../d1/d2e/xmpp__server_8h.html#a1c8e466b41f2895d5a0b57ee9f0a4c0b" target="_top" xlink:title="Add an item to the response for disco item queries.">
<polygon fill="none" stroke="black" points="678.5,-380.5 678.5,-399.5 851.5,-399.5 851.5,-380.5 678.5,-380.5"/>
<text text-anchor="middle" x="765" y="-387.5" font-family="DejaVuSansMono" font-size="10.00">xmpp_server_add_disco_item</text>
</a>
</g>
<!-- Node2&#45;&gt;Node22 -->
<g id="edge50" class="edge"><title>Node2&#45;&gt;Node22</title>
<path fill="none" stroke="midnightblue" d="M223.619,-274.94C241.519,-298.743 276.734,-339.863 318,-358 438.994,-411.178 596.312,-407.778 688.127,-399.534"/>
<polygon fill="midnightblue" stroke="midnightblue" points="226.358,-272.756 217.63,-266.75 220.707,-276.888 226.358,-272.756"/>
</g>
<!-- Node23 -->
<g id="node50" class="node"><title>Node23</title>
<a xlink:href="../../d0/df0/xmpp__server_8c.html#af1d37b8251dd106082d3fe8097dd565b" target="_top" xlink:title="stanza_route_new">
<polygon fill="none" stroke="black" points="339.5,-266.5 339.5,-285.5 452.5,-285.5 452.5,-266.5 339.5,-266.5"/>
<text text-anchor="middle" x="396" y="-273.5" font-family="DejaVuSansMono" font-size="10.00">stanza_route_new</text>
</a>
</g>
<!-- Node2&#45;&gt;Node23 -->
<g id="edge54" class="edge"><title>Node2&#45;&gt;Node23</title>
<path fill="none" stroke="midnightblue" d="M276.909,-263.806C297.4,-265.922 319.775,-268.232 339.484,-270.267"/>
<polygon fill="midnightblue" stroke="midnightblue" points="277.012,-260.298 266.705,-262.752 276.293,-267.261 277.012,-260.298"/>
</g>
<!-- Node4 -->
<g id="node7" class="node"><title>Node4</title>
<a xlink:href="../../d7/d71/xep__muc_8c.html#a1798db1c16a1fa62ff8f39fea202a26f" target="_top" xlink:title="stanza_handler">
<polygon fill="none" stroke="black" points="897.5,-342.5 897.5,-361.5 998.5,-361.5 998.5,-342.5 897.5,-342.5"/>
<text text-anchor="middle" x="948" y="-349.5" font-family="DejaVuSansMono" font-size="10.00">stanza_handler</text>
</a>
</g>
<!-- Node3&#45;&gt;Node4 -->
<g id="edge6" class="edge"><title>Node3&#45;&gt;Node4</title>
<path fill="none" stroke="midnightblue" d="M636.845,-352C709.308,-352 830.008,-352 897.482,-352"/>
<polygon fill="midnightblue" stroke="midnightblue" points="636.516,-348.5 626.516,-352 636.516,-355.5 636.516,-348.5"/>
</g>
<!-- Node5 -->
<g id="node9" class="node"><title>Node5</title>
<a xlink:href="../../d7/d71/xep__muc_8c.html#addf05166cf3fbe386ae6650be21ef251" target="_top" xlink:title="xep_muc_start">
<polygon fill="none" stroke="black" points="1056.5,-380.5 1056.5,-399.5 1151.5,-399.5 1151.5,-380.5 1056.5,-380.5"/>
<text text-anchor="middle" x="1104" y="-387.5" font-family="DejaVuSansMono" font-size="10.00">xep_muc_start</text>
</a>
</g>
<!-- Node4&#45;&gt;Node5 -->
<g id="edge8" class="edge"><title>Node4&#45;&gt;Node5</title>
<path fill="none" stroke="midnightblue" d="M997.794,-364.04C1019.31,-369.349 1044.23,-375.499 1064.42,-380.48"/>
<polygon fill="midnightblue" stroke="midnightblue" points="998.408,-360.587 987.861,-361.589 996.731,-367.383 998.408,-360.587"/>
</g>
<!-- Node6 -->
<g id="node11" class="node"><title>Node6</title>
<a xlink:href="../../d7/d71/xep__muc_8c.html#a20d385a5584d8014ec4d5774eb79d1de" target="_top" xlink:title="xep_muc_stop">
<polygon fill="none" stroke="black" points="1059.5,-342.5 1059.5,-361.5 1148.5,-361.5 1148.5,-342.5 1059.5,-342.5"/>
<text text-anchor="middle" x="1104" y="-349.5" font-family="DejaVuSansMono" font-size="10.00">xep_muc_stop</text>
</a>
</g>
<!-- Node4&#45;&gt;Node6 -->
<g id="edge10" class="edge"><title>Node4&#45;&gt;Node6</title>
<path fill="none" stroke="midnightblue" d="M1008.9,-352C1025.76,-352 1043.78,-352 1059.49,-352"/>
<polygon fill="midnightblue" stroke="midnightblue" points="1008.57,-348.5 998.574,-352 1008.57,-355.5 1008.57,-348.5"/>
</g>
<!-- Node8 -->
<g id="node15" class="node"><title>Node8</title>
<a xlink:href="../../d7/d71/xep__muc_8c.html#aefd23f2960520a68fea212344b85cb0b" target="_top" xlink:title="enter_room_presence">
<polygon fill="none" stroke="black" points="510.5,-247.5 510.5,-266.5 641.5,-266.5 641.5,-247.5 510.5,-247.5"/>
<text text-anchor="middle" x="576" y="-254.5" font-family="DejaVuSansMono" font-size="10.00">enter_room_presence</text>
</a>
</g>
<!-- Node7&#45;&gt;Node8 -->
<g id="edge14" class="edge"><title>Node7&#45;&gt;Node8</title>
<path fill="none" stroke="midnightblue" d="M438.557,-209.304C450.11,-212.147 462.608,-215.465 474,-219 501.197,-227.44 531.704,-239.254 552.003,-247.46"/>
<polygon fill="midnightblue" stroke="midnightblue" points="439.242,-205.869 428.701,-206.934 437.605,-212.675 439.242,-205.869"/>
</g>
<!-- Node9 -->
<g id="node17" class="node"><title>Node9</title>
<a xlink:href="../../d7/d71/xep__muc_8c.html#a9936322b944d46aead9fbd942687ec0a" target="_top" xlink:title="handle_presence">
<polygon fill="none" stroke="black" points="711.5,-266.5 711.5,-285.5 818.5,-285.5 818.5,-266.5 711.5,-266.5"/>
<text text-anchor="middle" x="765" y="-273.5" font-family="DejaVuSansMono" font-size="10.00">handle_presence</text>
</a>
</g>
<!-- Node8&#45;&gt;Node9 -->
<g id="edge16" class="edge"><title>Node8&#45;&gt;Node9</title>
<path fill="none" stroke="midnightblue" d="M651.644,-264.584C671.669,-266.619 692.898,-268.776 711.447,-270.66"/>
<polygon fill="midnightblue" stroke="midnightblue" points="651.919,-261.094 641.617,-263.565 651.212,-268.058 651.919,-261.094"/>
</g>
<!-- Node9&#45;&gt;Node4 -->
<g id="edge18" class="edge"><title>Node9&#45;&gt;Node4</title>
<path fill="none" stroke="midnightblue" d="M798.547,-289.666C834.822,-304.898 892.54,-329.133 924.262,-342.453"/>
<polygon fill="midnightblue" stroke="midnightblue" points="799.499,-286.27 788.924,-285.625 796.789,-292.724 799.499,-286.27"/>
</g>
<!-- Node10&#45;&gt;Node8 -->
<g id="edge22" class="edge"><title>Node10&#45;&gt;Node8</title>
<path fill="none" stroke="midnightblue" d="M449.534,-301.917C457.767,-299.771 466.147,-297.437 474,-295 501.197,-286.56 531.704,-274.746 552.003,-266.54"/>
<polygon fill="midnightblue" stroke="midnightblue" points="448.441,-298.584 439.61,-304.437 450.164,-305.368 448.441,-298.584"/>
</g>
<!-- Node11&#45;&gt;Node8 -->
<g id="edge26" class="edge"><title>Node11&#45;&gt;Node8</title>
<path fill="none" stroke="midnightblue" d="M483.622,-247.246C492.598,-248.204 501.607,-249.166 510.282,-250.092"/>
<polygon fill="midnightblue" stroke="midnightblue" points="483.836,-243.749 473.521,-246.168 483.093,-250.71 483.836,-243.749"/>
</g>
<!-- Node13 -->
<g id="node28" class="node"><title>Node13</title>
<a xlink:href="../../df/da9/xmpp__auth_8c.html#a01804bd53eccc182ce76337fc0863e8d" target="_top" xlink:title="stream_bind_start">
<polygon fill="none" stroke="black" points="705.5,-114.5 705.5,-133.5 824.5,-133.5 824.5,-114.5 705.5,-114.5"/>
<text text-anchor="middle" x="765" y="-121.5" font-family="DejaVuSansMono" font-size="10.00">stream_bind_start</text>
</a>
</g>
<!-- Node12&#45;&gt;Node13 -->
<g id="edge30" class="edge"><title>Node12&#45;&gt;Node13</title>
<path fill="none" stroke="midnightblue" d="M636.778,-124C658.654,-124 683.373,-124 705.166,-124"/>
<polygon fill="midnightblue" stroke="midnightblue" points="636.622,-120.5 626.622,-124 636.622,-127.5 636.622,-120.5"/>
</g>
<!-- Node13&#45;&gt;Node14 -->
<g id="edge32" class="edge"><title>Node13&#45;&gt;Node14</title>
<path fill="none" stroke="midnightblue" d="M834.95,-116.762C852.51,-114.919 871.22,-112.955 888.22,-111.17"/>
<polygon fill="midnightblue" stroke="midnightblue" points="834.345,-113.306 824.766,-117.831 835.076,-120.268 834.345,-113.306"/>
</g>
<!-- Node15 -->
<g id="node32" class="node"><title>Node15</title>
<a xlink:href="../../d3/d24/xmpp__auth_8h.html#ad3efd9ab093646bdfd8832c34ae2de4d" target="_top" xlink:title="Handler for the inital stream start to begin authentication.">
<polygon fill="none" stroke="black" points="1344.5,-95.5 1344.5,-114.5 1493.5,-114.5 1493.5,-95.5 1344.5,-95.5"/>
<text text-anchor="middle" x="1419" y="-102.5" font-family="DejaVuSansMono" font-size="10.00">xmpp_auth_stream_start</text>
</a>
</g>
<!-- Node14&#45;&gt;Node15 -->
<g id="edge34" class="edge"><title>Node14&#45;&gt;Node15</title>
<path fill="none" stroke="midnightblue" d="M1017.99,-105C1105.24,-105 1254.85,-105 1344.28,-105"/>
<polygon fill="midnightblue" stroke="midnightblue" points="1017.92,-101.5 1007.92,-105 1017.92,-108.5 1017.92,-101.5"/>
</g>
<!-- Node20 -->
<g id="node42" class="node"><title>Node20</title>
<a xlink:href="../../df/da9/xmpp__auth_8c.html#afd7b12689591d40109a88ad108b5c3a2" target="_top" xlink:title="stream_sasl_start">
<polygon fill="none" stroke="black" points="1044.5,-114.5 1044.5,-133.5 1163.5,-133.5 1163.5,-114.5 1044.5,-114.5"/>
<text text-anchor="middle" x="1104" y="-121.5" font-family="DejaVuSansMono" font-size="10.00">stream_sasl_start</text>
</a>
</g>
<!-- Node14&#45;&gt;Node20 -->
<g id="edge44" class="edge"><title>Node14&#45;&gt;Node20</title>
<path fill="none" stroke="midnightblue" d="M1017.61,-113.465C1026.5,-114.561 1035.54,-115.677 1044.25,-116.751"/>
<polygon fill="midnightblue" stroke="midnightblue" points="1018.01,-109.988 1007.66,-112.237 1017.16,-116.936 1018.01,-109.988"/>
</g>
<!-- Node16 -->
<g id="node34" class="node"><title>Node16</title>
<a xlink:href="../../d4/d2f/xmpp__client_8h.html#a1619c0b8f58b2cf09a322bf34fbc3414" target="_top" xlink:title="xmpp_client_new">
<polygon fill="none" stroke="black" points="1530.5,-95.5 1530.5,-114.5 1637.5,-114.5 1637.5,-95.5 1530.5,-95.5"/>
<text text-anchor="middle" x="1584" y="-102.5" font-family="DejaVuSansMono" font-size="10.00">xmpp_client_new</text>
</a>
</g>
<!-- Node15&#45;&gt;Node16 -->
<g id="edge36" class="edge"><title>Node15&#45;&gt;Node16</title>
<path fill="none" stroke="midnightblue" d="M1503.99,-105C1512.95,-105 1521.88,-105 1530.33,-105"/>
<polygon fill="midnightblue" stroke="midnightblue" points="1503.87,-101.5 1493.87,-105 1503.87,-108.5 1503.87,-101.5"/>
</g>
<!-- Node17 -->
<g id="node36" class="node"><title>Node17</title>
<a xlink:href="../../d0/df0/xmpp__server_8c.html#a66363912ef1221a2574f9f99805fe8fd" target="_top" xlink:title="Callback for new client connections.">
<polygon fill="none" stroke="black" points="1674.5,-95.5 1674.5,-114.5 1775.5,-114.5 1775.5,-95.5 1674.5,-95.5"/>
<text text-anchor="middle" x="1725" y="-102.5" font-family="DejaVuSansMono" font-size="10.00">connect_client</text>
</a>
</g>
<!-- Node16&#45;&gt;Node17 -->
<g id="edge38" class="edge"><title>Node16&#45;&gt;Node17</title>
<path fill="none" stroke="midnightblue" d="M1647.8,-105C1656.63,-105 1665.59,-105 1674.13,-105"/>
<polygon fill="midnightblue" stroke="midnightblue" points="1647.55,-101.5 1637.55,-105 1647.55,-108.5 1647.55,-101.5"/>
</g>
<!-- Node18 -->
<g id="node38" class="node"><title>Node18</title>
<a xlink:href="../../d1/d2e/xmpp__server_8h.html#a27bfc8e4d424a8bc17ab21a4a09cdf92" target="_top" xlink:title="Allocates and initializes the XMPP server.">
<polygon fill="none" stroke="black" points="1812.5,-95.5 1812.5,-114.5 1919.5,-114.5 1919.5,-95.5 1812.5,-95.5"/>
<text text-anchor="middle" x="1866" y="-102.5" font-family="DejaVuSansMono" font-size="10.00">xmpp_server_new</text>
</a>
</g>
<!-- Node17&#45;&gt;Node18 -->
<g id="edge40" class="edge"><title>Node17&#45;&gt;Node18</title>
<path fill="none" stroke="midnightblue" d="M1785.94,-105C1794.7,-105 1803.67,-105 1812.27,-105"/>
<polygon fill="midnightblue" stroke="midnightblue" points="1785.79,-101.5 1775.79,-105 1785.79,-108.5 1785.79,-101.5"/>
</g>
<!-- Node19 -->
<g id="node40" class="node"><title>Node19</title>
<a xlink:href="../../d0/d29/main_8c.html#a0ddf1224851353fc92bfbff6f499fa97" target="_top" xlink:title="main">
<polygon fill="none" stroke="black" points="1956.5,-95.5 1956.5,-114.5 1997.5,-114.5 1997.5,-95.5 1956.5,-95.5"/>
<text text-anchor="middle" x="1977" y="-102.5" font-family="DejaVuSansMono" font-size="10.00">main</text>
</a>
</g>
<!-- Node18&#45;&gt;Node19 -->
<g id="edge42" class="edge"><title>Node18&#45;&gt;Node19</title>
<path fill="none" stroke="midnightblue" d="M1929.75,-105C1939.43,-105 1948.76,-105 1956.47,-105"/>
<polygon fill="midnightblue" stroke="midnightblue" points="1929.58,-101.5 1919.58,-105 1929.58,-108.5 1929.58,-101.5"/>
</g>
<!-- Node21 -->
<g id="node44" class="node"><title>Node21</title>
<a xlink:href="../../df/da9/xmpp__auth_8c.html#a8dd789e057b9812e4dd1aa524dfb6a65" target="_top" xlink:title="Begins TLS authentication.">
<polygon fill="none" stroke="black" points="1200.5,-114.5 1200.5,-133.5 1307.5,-133.5 1307.5,-114.5 1200.5,-114.5"/>
<text text-anchor="middle" x="1254" y="-121.5" font-family="DejaVuSansMono" font-size="10.00">handle_starttls</text>
</a>
</g>
<!-- Node20&#45;&gt;Node21 -->
<g id="edge46" class="edge"><title>Node20&#45;&gt;Node21</title>
<path fill="none" stroke="midnightblue" d="M1174.09,-124C1182.81,-124 1191.62,-124 1200.04,-124"/>
<polygon fill="midnightblue" stroke="midnightblue" points="1173.92,-120.5 1163.92,-124 1173.92,-127.5 1173.92,-120.5"/>
</g>
<!-- Node21&#45;&gt;Node15 -->
<g id="edge48" class="edge"><title>Node21&#45;&gt;Node15</title>
<path fill="none" stroke="midnightblue" d="M1317.91,-116.667C1326.56,-115.659 1335.5,-114.617 1344.32,-113.589"/>
<polygon fill="midnightblue" stroke="midnightblue" points="1317.45,-113.197 1307.92,-117.831 1318.26,-120.15 1317.45,-113.197"/>
</g>
<!-- Node22&#45;&gt;Node5 -->
<g id="edge52" class="edge"><title>Node22&#45;&gt;Node5</title>
<path fill="none" stroke="midnightblue" d="M861.965,-390C925.565,-390 1006.2,-390 1056.2,-390"/>
<polygon fill="midnightblue" stroke="midnightblue" points="861.911,-386.5 851.911,-390 861.911,-393.5 861.911,-386.5"/>
</g>
<!-- Node25 -->
<g id="node54" class="node"><title>Node25</title>
<a xlink:href="../../d8/d28/xmpp__core_8h.html#ae6da3d9438fd752c4afd6e50a6af9b66" target="_top" xlink:title="An xmpp_parser handler for stanzas from a local client.">
<polygon fill="none" stroke="black" points="318.5,-114.5 318.5,-133.5 473.5,-133.5 473.5,-114.5 318.5,-114.5"/>
<text text-anchor="middle" x="396" y="-121.5" font-family="DejaVuSansMono" font-size="10.00">xmpp_core_handle_stanza</text>
</a>
</g>
<!-- Node24&#45;&gt;Node25 -->
<g id="edge58" class="edge"><title>Node24&#45;&gt;Node25</title>
<path fill="none" stroke="midnightblue" d="M291.892,-124C300.719,-124 309.685,-124 318.458,-124"/>
<polygon fill="midnightblue" stroke="midnightblue" points="291.613,-120.5 281.613,-124 291.613,-127.5 291.613,-120.5"/>
</g>
<!-- Node25&#45;&gt;Node12 -->
<g id="edge60" class="edge"><title>Node25&#45;&gt;Node12</title>
<path fill="none" stroke="midnightblue" d="M483.845,-124C498.069,-124 512.367,-124 525.284,-124"/>
<polygon fill="midnightblue" stroke="midnightblue" points="483.521,-120.5 473.521,-124 483.521,-127.5 483.521,-120.5"/>
</g>
</g>
</svg>
        <g id="navigator" transform="translate(0 0)" fill="#404254">
                <rect fill="#f2f5e9" fill-opacity="0.5" stroke="#606060" stroke-width=".5" x="0" y="0" width="60" height="60"/>
                <use id="zoomplus" xlink:href="#zoomPlus" x="17" y="9" onmousedown="handleZoom(evt,'in')"/>
                <use id="zoomminus" xlink:href="#zoomMin" x="42" y="9" onmousedown="handleZoom(evt,'out')"/>
                <use id="reset" xlink:href="#resetDef" x="30" y="36" onmousedown="handleReset()"/>
                <g id="arrowUp" xlink:href="#dirArrow" transform="translate(30 24)" onmousedown="handlePan(0,-1)">
                  <use xlink:href="#rim" fill="#404040">
                        <set attributeName="fill" to="#808080" begin="arrowUp.mouseover" end="arrowUp.mouseout"/>
                  </use>
                  <path fill="none" stroke="white" stroke-width="1.5" d="M0,-3.0v7 M-2.5,-0.5L0,-3.0L2.5,-0.5"/>
                </g>
                <g id="arrowRight" xlink:href="#dirArrow" transform="rotate(90) translate(36 -43)" onmousedown="handlePan(1,0)">
                  <use xlink:href="#rim" fill="#404040">
                        <set attributeName="fill" to="#808080" begin="arrowRight.mouseover" end="arrowRight.mouseout"/>
                  </use>
                  <path fill="none" stroke="white" stroke-width="1.5" d="M0,-3.0v7 M-2.5,-0.5L0,-3.0L2.5,-0.5"/>
                </g>
                <g id="arrowDown" xlink:href="#dirArrow" transform="rotate(180) translate(-30 -48)" onmousedown="handlePan(0,1)">
                  <use xlink:href="#rim" fill="#404040">
                        <set attributeName="fill" to="#808080" begin="arrowDown.mouseover" end="arrowDown.mouseout"/>
                  </use>
                  <path fill="none" stroke="white" stroke-width="1.5" d="M0,-3.0v7 M-2.5,-0.5L0,-3.0L2.5,-0.5"/>
                </g>
                <g id="arrowLeft" xlink:href="#dirArrow" transform="rotate(270) translate(-36 17)" onmousedown="handlePan(-1,0)">
                  <use xlink:href="#rim" fill="#404040">
                        <set attributeName="fill" to="#808080" begin="arrowLeft.mouseover" end="arrowLeft.mouseout"/>
                  </use>
                  <path fill="none" stroke="white" stroke-width="1.5" d="M0,-3.0v7 M-2.5,-0.5L0,-3.0L2.5,-0.5"/>
                </g>
        </g>
        <svg viewBox="0 0 25 25" width="100%" height="30px" preserveAspectRatio="xMaxYMin meet"> 
          <g id="printButton" transform="scale(0.4 0.4)" onmousedown="handlePrint(evt)">
            <rect height="23.33753581" id="paper" rx="2" style="fill:#f2f5e9;fill-rule:evenodd;stroke:#111111;stroke-width:3.224;stroke-linejoin:round;" transform="matrix(1.000000,0.000000,-0.339266,0.940691,0.000000,0.000000)" width="25.55231285" x="26.69387353" y="7.36162977"/>
            <rect height="26.272097" id="body" rx="2" style="fill:#404040;fill-rule:evenodd;stroke:#111111;stroke-width:3.125;stroke-linejoin:round;" width="50" x="4.5295201" y="27.078951"/>
            <rect height="8.27750969" id="tray" style="fill:#d2d5c9;fill-rule:evenodd;stroke:#111111;stroke-width:3.125;stroke-linecap:round;stroke-linejoin:round;" width="40" x="10.28778839" y="44.96812282"/>
          </g>
        </svg>
</svg>
