<?xml version="1.0" encoding="UTF-8" standalone="no"?>
<!DOCTYPE svg PUBLIC "-//W3C//DTD SVG 1.1//EN"
 "http://www.w3.org/Graphics/SVG/1.1/DTD/svg11.dtd">
<!-- Generated by graphviz version 2.28.0 (20120217.0315)
 -->
<!-- Title: G Pages: 1 -->
<svg width="392pt" height="256pt"
 viewBox="0.00 0.00 392.00 256.00" xmlns="http://www.w3.org/2000/svg" xmlns:xlink="http://www.w3.org/1999/xlink">
<g id="graph1" class="graph" transform="scale(1 1) rotate(0) translate(4 252)">
<title>G</title>
<!-- Node1 -->
<g id="node1" class="node"><title>Node1</title>
<polygon fill="#bfbfbf" stroke="black" points="0.5,-114.5 0.5,-133.5 113.5,-133.5 113.5,-114.5 0.5,-114.5"/>
<text text-anchor="middle" x="57" y="-121.5" font-family="DejaVuSansMono" font-size="10.00">jid_new_from_jid</text>
</g>
<!-- Node2 -->
<g id="node3" class="node"><title>Node2</title>
<a xlink:href="../../d3/d5a/jid_8c.html#abd2028a1e581e6374acaa6beaf6e5413" target="_top" xlink:title="Allocate and initialize a new blank JID.">
<polygon fill="none" stroke="black" points="177.5,-228.5 177.5,-247.5 236.5,-247.5 236.5,-228.5 177.5,-228.5"/>
<text text-anchor="middle" x="207" y="-235.5" font-family="DejaVuSansMono" font-size="10.00">jid_new</text>
</a>
</g>
<!-- Node1&#45;&gt;Node2 -->
<g id="edge2" class="edge"><title>Node1&#45;&gt;Node2</title>
<path fill="none" stroke="midnightblue" d="M64.7376,-133.533C78.5916,-152.469 112.17,-195.057 150,-219 155.465,-222.459 161.632,-225.366 167.824,-227.784"/>
<polygon fill="midnightblue" stroke="midnightblue" points="166.883,-231.163 177.478,-231.189 169.212,-224.562 166.883,-231.163"/>
</g>
<!-- Node3 -->
<g id="node5" class="node"><title>Node3</title>
<a xlink:href="../../d3/d5a/jid_8c.html#a1a93fd4eaa48c375952cb6f9c9127907" target="_top" xlink:title="Sets the localpart of a JID.">
<polygon fill="none" stroke="black" points="159.5,-190.5 159.5,-209.5 254.5,-209.5 254.5,-190.5 159.5,-190.5"/>
<text text-anchor="middle" x="207" y="-197.5" font-family="DejaVuSansMono" font-size="10.00">jid_set_local</text>
</a>
</g>
<!-- Node1&#45;&gt;Node3 -->
<g id="edge4" class="edge"><title>Node1&#45;&gt;Node3</title>
<path fill="none" stroke="midnightblue" d="M71.1699,-133.504C88.5569,-145.73 120.433,-167.048 150,-181 154.583,-183.163 159.48,-185.197 164.401,-187.074"/>
<polygon fill="midnightblue" stroke="midnightblue" points="163.22,-190.369 173.814,-190.478 165.601,-183.786 163.22,-190.369"/>
</g>
<!-- Node5 -->
<g id="node9" class="node"><title>Node5</title>
<a xlink:href="../../d3/d5a/jid_8c.html#ac1dcf40e9090a5a9717b685b6b055feb" target="_top" xlink:title="Returns the localpart of a JID.">
<polygon fill="none" stroke="black" points="171.5,-152.5 171.5,-171.5 242.5,-171.5 242.5,-152.5 171.5,-152.5"/>
<text text-anchor="middle" x="207" y="-159.5" font-family="DejaVuSansMono" font-size="10.00">jid_local</text>
</a>
</g>
<!-- Node1&#45;&gt;Node5 -->
<g id="edge8" class="edge"><title>Node1&#45;&gt;Node5</title>
<path fill="none" stroke="midnightblue" d="M95.3466,-133.589C115.454,-138.752 140.392,-145.155 161.501,-150.574"/>
<polygon fill="midnightblue" stroke="midnightblue" points="160.651,-153.97 171.207,-153.067 162.392,-147.19 160.651,-153.97"/>
</g>
<!-- Node6 -->
<g id="node11" class="node"><title>Node6</title>
<a xlink:href="../../d3/d5a/jid_8c.html#aeefeabfe802b3db2ce1b8894ae6a0d05" target="_top" xlink:title="Sets the domainpart of a JID.">
<polygon fill="none" stroke="black" points="156.5,-114.5 156.5,-133.5 257.5,-133.5 257.5,-114.5 156.5,-114.5"/>
<text text-anchor="middle" x="207" y="-121.5" font-family="DejaVuSansMono" font-size="10.00">jid_set_domain</text>
</a>
</g>
<!-- Node1&#45;&gt;Node6 -->
<g id="edge10" class="edge"><title>Node1&#45;&gt;Node6</title>
<path fill="none" stroke="midnightblue" d="M113.531,-124C124.222,-124 135.463,-124 146.28,-124"/>
<polygon fill="midnightblue" stroke="midnightblue" points="146.49,-127.5 156.49,-124 146.49,-120.5 146.49,-127.5"/>
</g>
<!-- Node7 -->
<g id="node14" class="node"><title>Node7</title>
<a xlink:href="../../d3/d5a/jid_8c.html#a32b3d0744d90d33622986e4989042ee6" target="_top" xlink:title="Returns the domainpart of a JID.">
<polygon fill="none" stroke="black" points="168.5,-76.5 168.5,-95.5 245.5,-95.5 245.5,-76.5 168.5,-76.5"/>
<text text-anchor="middle" x="207" y="-83.5" font-family="DejaVuSansMono" font-size="10.00">jid_domain</text>
</a>
</g>
<!-- Node1&#45;&gt;Node7 -->
<g id="edge14" class="edge"><title>Node1&#45;&gt;Node7</title>
<path fill="none" stroke="midnightblue" d="M95.3466,-114.411C114.701,-109.442 138.53,-103.323 159.113,-98.0387"/>
<polygon fill="midnightblue" stroke="midnightblue" points="160.107,-101.397 168.922,-95.5201 158.366,-94.617 160.107,-101.397"/>
</g>
<!-- Node8 -->
<g id="node16" class="node"><title>Node8</title>
<a xlink:href="../../d3/d5a/jid_8c.html#ad4e057d210bd0776fcb89289e5d59f81" target="_top" xlink:title="Sets the resourcepart of a JID.">
<polygon fill="none" stroke="black" points="150.5,-38.5 150.5,-57.5 263.5,-57.5 263.5,-38.5 150.5,-38.5"/>
<text text-anchor="middle" x="207" y="-45.5" font-family="DejaVuSansMono" font-size="10.00">jid_set_resource</text>
</a>
</g>
<!-- Node1&#45;&gt;Node8 -->
<g id="edge16" class="edge"><title>Node1&#45;&gt;Node8</title>
<path fill="none" stroke="midnightblue" d="M71.1699,-114.496C88.5569,-102.27 120.433,-80.9517 150,-67 154.583,-64.8375 159.48,-62.8025 164.401,-60.9263"/>
<polygon fill="midnightblue" stroke="midnightblue" points="165.601,-64.2143 173.814,-57.5222 163.22,-57.6315 165.601,-64.2143"/>
</g>
<!-- Node9 -->
<g id="node19" class="node"><title>Node9</title>
<a xlink:href="../../d3/d5a/jid_8c.html#a54f945004eef842630b39c94a3689e28" target="_top" xlink:title="Returns the resourcepart of a JID.">
<polygon fill="none" stroke="black" points="162.5,-0.5 162.5,-19.5 251.5,-19.5 251.5,-0.5 162.5,-0.5"/>
<text text-anchor="middle" x="207" y="-7.5" font-family="DejaVuSansMono" font-size="10.00">jid_resource</text>
</a>
</g>
<!-- Node1&#45;&gt;Node9 -->
<g id="edge20" class="edge"><title>Node1&#45;&gt;Node9</title>
<path fill="none" stroke="midnightblue" d="M64.7376,-114.467C78.5916,-95.531 112.17,-52.9433 150,-29 153.18,-26.9874 156.597,-25.1616 160.119,-23.5103"/>
<polygon fill="midnightblue" stroke="midnightblue" points="161.724,-26.6327 169.593,-19.5388 159.018,-20.177 161.724,-26.6327"/>
</g>
<!-- Node4 -->
<g id="node7" class="node"><title>Node4</title>
<a xlink:href="../../d3/d91/utils_8c.html#a07891e77aee8f9b825d52bd33e474f30" target="_top" xlink:title="Simple string copy, freeing original if neccessary.">
<polygon fill="none" stroke="black" points="300.5,-114.5 300.5,-133.5 383.5,-133.5 383.5,-114.5 300.5,-114.5"/>
<text text-anchor="middle" x="342" y="-121.5" font-family="DejaVuSansMono" font-size="10.00">copy_string</text>
</a>
</g>
<!-- Node3&#45;&gt;Node4 -->
<g id="edge6" class="edge"><title>Node3&#45;&gt;Node4</title>
<path fill="none" stroke="midnightblue" d="M241.576,-190.499C249.139,-187.845 256.996,-184.666 264,-181 285.434,-169.782 307.369,-152.911 322.316,-140.432"/>
<polygon fill="midnightblue" stroke="midnightblue" points="324.912,-142.818 330.253,-133.668 320.371,-137.49 324.912,-142.818"/>
</g>
<!-- Node6&#45;&gt;Node4 -->
<g id="edge12" class="edge"><title>Node6&#45;&gt;Node4</title>
<path fill="none" stroke="midnightblue" d="M257.524,-124C268.158,-124 279.413,-124 290.098,-124"/>
<polygon fill="midnightblue" stroke="midnightblue" points="290.129,-127.5 300.129,-124 290.129,-120.5 290.129,-127.5"/>
</g>
<!-- Node8&#45;&gt;Node4 -->
<g id="edge18" class="edge"><title>Node8&#45;&gt;Node4</title>
<path fill="none" stroke="midnightblue" d="M241.576,-57.5008C249.139,-60.1549 256.996,-63.3343 264,-67 285.434,-78.2179 307.369,-95.0893 322.316,-107.568"/>
<polygon fill="midnightblue" stroke="midnightblue" points="320.371,-110.51 330.253,-114.332 324.912,-105.182 320.371,-110.51"/>
</g>
</g>
</svg>
