<?xml version="1.0" encoding="UTF-8" standalone="no"?>
<!DOCTYPE svg PUBLIC "-//W3C//DTD SVG 1.1//EN"
 "http://www.w3.org/Graphics/SVG/1.1/DTD/svg11.dtd">
<!-- Generated by graphviz version 2.28.0 (20120217.0315)
 -->
<!-- Title: G Pages: 1 -->
<svg width="350pt" height="218pt"
 viewBox="0.00 0.00 350.00 218.00" xmlns="http://www.w3.org/2000/svg" xmlns:xlink="http://www.w3.org/1999/xlink">
<g id="graph1" class="graph" transform="scale(1 1) rotate(0) translate(4 214)">
<title>G</title>
<!-- Node1 -->
<g id="node1" class="node"><title>Node1</title>
<polygon fill="#bfbfbf" stroke="black" points="0.5,-95.5 0.5,-114.5 143.5,-114.5 143.5,-95.5 0.5,-95.5"/>
<text text-anchor="middle" x="72" y="-102.5" font-family="DejaVuSansMono" font-size="10.00">client_socket_ssl_new</text>
</g>
<!-- Node2 -->
<g id="node3" class="node"><title>Node2</title>
<a xlink:href="../../d4/d8e/client__socket_8c.html#a5c1958aab3c7c992e98ac203b226fe8c" target="_top" xlink:title="ssl_del">
<polygon fill="none" stroke="black" points="186.5,-190.5 186.5,-209.5 245.5,-209.5 245.5,-190.5 186.5,-190.5"/>
<text text-anchor="middle" x="216" y="-197.5" font-family="DejaVuSansMono" font-size="10.00">ssl_del</text>
</a>
</g>
<!-- Node1&#45;&gt;Node2 -->
<g id="edge2" class="edge"><title>Node1&#45;&gt;Node2</title>
<path fill="none" stroke="midnightblue" d="M85.508,-114.634C105.143,-129.583 144.616,-158.94 180,-181 182.34,-182.459 184.799,-183.924 187.285,-185.358"/>
<polygon fill="midnightblue" stroke="midnightblue" points="185.796,-188.535 196.235,-190.351 189.207,-182.422 185.796,-188.535"/>
</g>
<!-- Node3 -->
<g id="node5" class="node"><title>Node3</title>
<a xlink:href="../../d4/d8e/client__socket_8c.html#a4775c361e3ebc0c98b1dbb2fd220b98e" target="_top" xlink:title="ssl_close">
<polygon fill="none" stroke="black" points="180.5,-152.5 180.5,-171.5 251.5,-171.5 251.5,-152.5 180.5,-152.5"/>
<text text-anchor="middle" x="216" y="-159.5" font-family="DejaVuSansMono" font-size="10.00">ssl_close</text>
</a>
</g>
<!-- Node1&#45;&gt;Node3 -->
<g id="edge4" class="edge"><title>Node1&#45;&gt;Node3</title>
<path fill="none" stroke="midnightblue" d="M96.7676,-114.541C120.011,-123.87 155.613,-138.162 181.678,-148.624"/>
<polygon fill="midnightblue" stroke="midnightblue" points="180.571,-151.951 191.155,-152.428 183.178,-145.455 180.571,-151.951"/>
</g>
<!-- Node4 -->
<g id="node7" class="node"><title>Node4</title>
<a xlink:href="../../d4/d8e/client__socket_8c.html#a3ed3a8df4e69fce15425a5b5a8dd4be0" target="_top" xlink:title="ssl_fd">
<polygon fill="none" stroke="black" points="189.5,-114.5 189.5,-133.5 242.5,-133.5 242.5,-114.5 189.5,-114.5"/>
<text text-anchor="middle" x="216" y="-121.5" font-family="DejaVuSansMono" font-size="10.00">ssl_fd</text>
</a>
</g>
<!-- Node1&#45;&gt;Node4 -->
<g id="edge6" class="edge"><title>Node1&#45;&gt;Node4</title>
<path fill="none" stroke="midnightblue" d="M143.584,-114.444C156.033,-116.11 168.498,-117.778 179.45,-119.243"/>
<polygon fill="midnightblue" stroke="midnightblue" points="179.061,-122.722 189.436,-120.58 179.989,-115.784 179.061,-122.722"/>
</g>
<!-- Node5 -->
<g id="node9" class="node"><title>Node5</title>
<a xlink:href="../../d4/d8e/client__socket_8c.html#aa78ce3c05fc615d02a9834abdeec4165" target="_top" xlink:title="ssl_send">
<polygon fill="none" stroke="black" points="183.5,-76.5 183.5,-95.5 248.5,-95.5 248.5,-76.5 183.5,-76.5"/>
<text text-anchor="middle" x="216" y="-83.5" font-family="DejaVuSansMono" font-size="10.00">ssl_send</text>
</a>
</g>
<!-- Node1&#45;&gt;Node5 -->
<g id="edge8" class="edge"><title>Node1&#45;&gt;Node5</title>
<path fill="none" stroke="midnightblue" d="M143.584,-95.5557C153.699,-94.2023 163.824,-92.8474 173.14,-91.6009"/>
<polygon fill="midnightblue" stroke="midnightblue" points="173.823,-95.0409 183.271,-90.2455 172.895,-88.1027 173.823,-95.0409"/>
</g>
<!-- Node6 -->
<g id="node11" class="node"><title>Node6</title>
<a xlink:href="../../d4/d8e/client__socket_8c.html#a31a1c59dff1188459ab171f5723ba4bd" target="_top" xlink:title="ssl_recv">
<polygon fill="none" stroke="black" points="183.5,-38.5 183.5,-57.5 248.5,-57.5 248.5,-38.5 183.5,-38.5"/>
<text text-anchor="middle" x="216" y="-45.5" font-family="DejaVuSansMono" font-size="10.00">ssl_recv</text>
</a>
</g>
<!-- Node1&#45;&gt;Node6 -->
<g id="edge10" class="edge"><title>Node1&#45;&gt;Node6</title>
<path fill="none" stroke="midnightblue" d="M96.7676,-95.4595C120.011,-86.1295 155.613,-71.8384 181.678,-61.3758"/>
<polygon fill="midnightblue" stroke="midnightblue" points="183.178,-64.545 191.155,-57.5716 180.571,-58.0488 183.178,-64.545"/>
</g>
<!-- Node7 -->
<g id="node13" class="node"><title>Node7</title>
<a xlink:href="../../d4/d8e/client__socket_8c.html#a2265e7fcd86868df5584cf4cd1d79d2d" target="_top" xlink:title="ssl_str">
<polygon fill="none" stroke="black" points="186.5,-0.5 186.5,-19.5 245.5,-19.5 245.5,-0.5 186.5,-0.5"/>
<text text-anchor="middle" x="216" y="-7.5" font-family="DejaVuSansMono" font-size="10.00">ssl_str</text>
</a>
</g>
<!-- Node1&#45;&gt;Node7 -->
<g id="edge12" class="edge"><title>Node1&#45;&gt;Node7</title>
<path fill="none" stroke="midnightblue" d="M85.508,-95.3661C105.143,-80.4169 144.616,-51.0595 180,-29 182.34,-27.5415 184.799,-26.0763 187.285,-24.642"/>
<polygon fill="midnightblue" stroke="midnightblue" points="189.207,-27.578 196.235,-19.6495 185.796,-21.4649 189.207,-27.578"/>
</g>
<!-- Node8 -->
<g id="node15" class="node"><title>Node8</title>
<a xlink:href="../../d4/d8e/client__socket_8c.html#ae76cf67a4a1f29e78973e5158a22afd4" target="_top" xlink:title="fd_str">
<polygon fill="none" stroke="black" points="288.5,-0.5 288.5,-19.5 341.5,-19.5 341.5,-0.5 288.5,-0.5"/>
<text text-anchor="middle" x="315" y="-7.5" font-family="DejaVuSansMono" font-size="10.00">fd_str</text>
</a>
</g>
<!-- Node7&#45;&gt;Node8 -->
<g id="edge14" class="edge"><title>Node7&#45;&gt;Node8</title>
<path fill="none" stroke="midnightblue" d="M245.579,-10C255.722,-10 267.271,-10 277.956,-10"/>
<polygon fill="midnightblue" stroke="midnightblue" points="278.268,-13.5001 288.268,-10 278.268,-6.5001 278.268,-13.5001"/>
</g>
</g>
</svg>
