<?xml version="1.0" encoding="UTF-8" standalone="no"?>
<!DOCTYPE svg PUBLIC "-//W3C//DTD SVG 1.1//EN"
 "http://www.w3.org/Graphics/SVG/1.1/DTD/svg11.dtd">
<!-- Generated by graphviz version 2.28.0 (20120217.0315)
 -->
<!-- Title: G Pages: 1 -->
<svg width="230pt" height="218pt"
 viewBox="0.00 0.00 230.00 218.00" xmlns="http://www.w3.org/2000/svg" xmlns:xlink="http://www.w3.org/1999/xlink">
<g id="graph1" class="graph" transform="scale(1 1) rotate(0) translate(4 214)">
<title>G</title>
<!-- Node1 -->
<g id="node1" class="node"><title>Node1</title>
<polygon fill="#bfbfbf" stroke="black" points="0.5,-95.5 0.5,-114.5 119.5,-114.5 119.5,-95.5 0.5,-95.5"/>
<text text-anchor="middle" x="60" y="-102.5" font-family="DejaVuSansMono" font-size="10.00">client_socket_new</text>
</g>
<!-- Node2 -->
<g id="node3" class="node"><title>Node2</title>
<a xlink:href="../../d4/d8e/client__socket_8c.html#a3510c2cbd6f8303922074764cdfa28b8" target="_top" xlink:title="fd_del">
<polygon fill="none" stroke="black" points="162.5,-190.5 162.5,-209.5 215.5,-209.5 215.5,-190.5 162.5,-190.5"/>
<text text-anchor="middle" x="189" y="-197.5" font-family="DejaVuSansMono" font-size="10.00">fd_del</text>
</a>
</g>
<!-- Node1&#45;&gt;Node2 -->
<g id="edge2" class="edge"><title>Node1&#45;&gt;Node2</title>
<path fill="none" stroke="midnightblue" d="M72.0151,-114.65C89.3272,-129.621 124.215,-159.007 156,-181 157.899,-182.314 159.892,-183.632 161.916,-184.927"/>
<polygon fill="midnightblue" stroke="midnightblue" points="160.432,-188.122 170.785,-190.372 164.094,-182.157 160.432,-188.122"/>
</g>
<!-- Node3 -->
<g id="node5" class="node"><title>Node3</title>
<a xlink:href="../../d4/d8e/client__socket_8c.html#a34d5d01cce23fb12e74071a740d8cc7f" target="_top" xlink:title="fd_close">
<polygon fill="none" stroke="black" points="156.5,-152.5 156.5,-171.5 221.5,-171.5 221.5,-152.5 156.5,-152.5"/>
<text text-anchor="middle" x="189" y="-159.5" font-family="DejaVuSansMono" font-size="10.00">fd_close</text>
</a>
</g>
<!-- Node1&#45;&gt;Node3 -->
<g id="edge4" class="edge"><title>Node1&#45;&gt;Node3</title>
<path fill="none" stroke="midnightblue" d="M82.2569,-114.541C102.77,-123.747 134.047,-137.785 157.269,-148.207"/>
<polygon fill="midnightblue" stroke="midnightblue" points="156.117,-151.527 166.674,-152.428 158.984,-145.14 156.117,-151.527"/>
</g>
<!-- Node4 -->
<g id="node7" class="node"><title>Node4</title>
<a xlink:href="../../d4/d8e/client__socket_8c.html#afb341ead37f80db55a6f6881f80232df" target="_top" xlink:title="fd_fd">
<polygon fill="none" stroke="black" points="165.5,-114.5 165.5,-133.5 212.5,-133.5 212.5,-114.5 165.5,-114.5"/>
<text text-anchor="middle" x="189" y="-121.5" font-family="DejaVuSansMono" font-size="10.00">fd_fd</text>
</a>
</g>
<!-- Node1&#45;&gt;Node4 -->
<g id="edge6" class="edge"><title>Node1&#45;&gt;Node4</title>
<path fill="none" stroke="midnightblue" d="M119.667,-113.777C131.98,-115.619 144.537,-117.498 155.471,-119.134"/>
<polygon fill="midnightblue" stroke="midnightblue" points="154.989,-122.6 165.397,-120.618 156.025,-115.677 154.989,-122.6"/>
</g>
<!-- Node5 -->
<g id="node9" class="node"><title>Node5</title>
<a xlink:href="../../d4/d8e/client__socket_8c.html#afa72ec1928026594d8b251d5ef4c47be" target="_top" xlink:title="fd_send">
<polygon fill="none" stroke="black" points="159.5,-76.5 159.5,-95.5 218.5,-95.5 218.5,-76.5 159.5,-76.5"/>
<text text-anchor="middle" x="189" y="-83.5" font-family="DejaVuSansMono" font-size="10.00">fd_send</text>
</a>
</g>
<!-- Node1&#45;&gt;Node5 -->
<g id="edge8" class="edge"><title>Node1&#45;&gt;Node5</title>
<path fill="none" stroke="midnightblue" d="M119.667,-96.223C129.678,-94.7253 139.85,-93.2035 149.18,-91.8077"/>
<polygon fill="midnightblue" stroke="midnightblue" points="149.931,-95.2344 159.303,-90.2932 148.895,-88.3114 149.931,-95.2344"/>
</g>
<!-- Node6 -->
<g id="node11" class="node"><title>Node6</title>
<a xlink:href="../../d4/d8e/client__socket_8c.html#a028add7463a7ddb9275710c75d983c08" target="_top" xlink:title="fd_recv">
<polygon fill="none" stroke="black" points="159.5,-38.5 159.5,-57.5 218.5,-57.5 218.5,-38.5 159.5,-38.5"/>
<text text-anchor="middle" x="189" y="-45.5" font-family="DejaVuSansMono" font-size="10.00">fd_recv</text>
</a>
</g>
<!-- Node1&#45;&gt;Node6 -->
<g id="edge10" class="edge"><title>Node1&#45;&gt;Node6</title>
<path fill="none" stroke="midnightblue" d="M82.2569,-95.4595C102.77,-86.2528 134.047,-72.2153 157.269,-61.7926"/>
<polygon fill="midnightblue" stroke="midnightblue" points="158.984,-64.8595 166.674,-57.5716 156.117,-58.4732 158.984,-64.8595"/>
</g>
<!-- Node7 -->
<g id="node13" class="node"><title>Node7</title>
<a xlink:href="../../d4/d8e/client__socket_8c.html#ae76cf67a4a1f29e78973e5158a22afd4" target="_top" xlink:title="fd_str">
<polygon fill="none" stroke="black" points="162.5,-0.5 162.5,-19.5 215.5,-19.5 215.5,-0.5 162.5,-0.5"/>
<text text-anchor="middle" x="189" y="-7.5" font-family="DejaVuSansMono" font-size="10.00">fd_str</text>
</a>
</g>
<!-- Node1&#45;&gt;Node7 -->
<g id="edge12" class="edge"><title>Node1&#45;&gt;Node7</title>
<path fill="none" stroke="midnightblue" d="M72.0151,-95.3498C89.3272,-80.3788 124.215,-50.9927 156,-29 157.899,-27.6857 159.892,-26.368 161.916,-25.0734"/>
<polygon fill="midnightblue" stroke="midnightblue" points="164.094,-27.8432 170.785,-19.6284 160.432,-21.8777 164.094,-27.8432"/>
</g>
</g>
</svg>
