<?xml version="1.0" encoding="UTF-8" standalone="no"?>
<!DOCTYPE svg PUBLIC "-//W3C//DTD SVG 1.1//EN"
 "http://www.w3.org/Graphics/SVG/1.1/DTD/svg11.dtd">
<!-- Generated by graphviz version 2.28.0 (20120217.0315)
 -->
<!-- Title: G Pages: 1 -->
<!--zoomable 295 -->
<svg id="main" version="1.1" xmlns="http://www.w3.org/2000/svg" xmlns:xlink="http://www.w3.org/1999/xlink" xml:space="preserve" onload="init(evt)">
        <defs>
                <circle id="rim" cx="0" cy="0" r="7"/>
                <circle id="rim2" cx="0" cy="0" r="3.5"/>
                <g id="zoomPlus">
                        <use xlink:href="#rim" fill="#404040">
                                <set attributeName="fill" to="#808080" begin="zoomplus.mouseover" end="zoomplus.mouseout"/>
                        </use>
                        <path d="M-4,0h8M0,-4v8" fill="none" stroke="white" stroke-width="1.5" pointer-events="none"/>
                </g>
                <g id="zoomMin">
                        <use xlink:href="#rim" fill="#404040">
                                <set attributeName="fill" to="#808080" begin="zoomminus.mouseover" end="zoomminus.mouseout"/>
                        </use>
                        <path d="M-4,0h8" fill="none" stroke="white" stroke-width="1.5" pointer-events="none"/>
                </g>
                <g id="dirArrow">
                        <path fill="none" stroke="white" stroke-width="1.5" d="M0,-3.0v7 M-2.5,-0.5L0,-3.0L2.5,-0.5"/>
                </g>
               <g id="resetDef">
                       <use xlink:href="#rim2" fill="#404040">
                               <set attributeName="fill" to="#808080" begin="reset.mouseover" end="reset.mouseout"/>
                       </use>
               </g>
        </defs>

<script type="text/javascript">
var viewWidth = 1988;
var viewHeight = 295;
var sectionId = 'dynsection-9';
</script>
<script xlink:href="../../svgpan.js"/>
<svg id="graph" class="graph">
<g id="viewport">
<title>G</title>
<!-- Node1 -->
<g id="node1" class="node"><title>Node1</title>
<polygon fill="#bfbfbf" stroke="black" points="0.5,-163.639 0.5,-182.639 125.5,-182.639 125.5,-163.639 0.5,-163.639"/>
<text text-anchor="middle" x="63" y="-170.639" font-family="DejaVuSansMono" font-size="10.00">client_socket_send</text>
</g>
<!-- Node2 -->
<g id="node3" class="node"><title>Node2</title>
<a xlink:href="../../d9/d71/client__socket_8h.html#a7cf0a0cfe0cf2bdccee28f6eab9aa632" target="_top" xlink:title="Send all data in a buffer to the connected socket.">
<polygon fill="none" stroke="black" points="162.5,-163.639 162.5,-182.639 305.5,-182.639 305.5,-163.639 162.5,-163.639"/>
<text text-anchor="middle" x="234" y="-170.639" font-family="DejaVuSansMono" font-size="10.00">client_socket_sendall</text>
</a>
</g>
<!-- Node1&#45;&gt;Node2 -->
<g id="edge2" class="edge"><title>Node1&#45;&gt;Node2</title>
<path fill="none" stroke="midnightblue" d="M136.114,-173.139C144.845,-173.139 153.757,-173.139 162.465,-173.139"/>
<polygon fill="midnightblue" stroke="midnightblue" points="135.97,-169.639 125.97,-173.139 135.97,-176.639 135.97,-169.639"/>
</g>
<!-- Node3 -->
<g id="node5" class="node"><title>Node3</title>
<a xlink:href="../../d3/d24/xmpp__auth_8h.html#ad3efd9ab093646bdfd8832c34ae2de4d" target="_top" xlink:title="Handler for the inital stream start to begin authentication.">
<polygon fill="none" stroke="black" points="1299.5,-182.639 1299.5,-201.639 1448.5,-201.639 1448.5,-182.639 1299.5,-182.639"/>
<text text-anchor="middle" x="1374" y="-189.639" font-family="DejaVuSansMono" font-size="10.00">xmpp_auth_stream_start</text>
</a>
</g>
<!-- Node2&#45;&gt;Node3 -->
<g id="edge4" class="edge"><title>Node2&#45;&gt;Node3</title>
<path fill="none" stroke="midnightblue" d="M254.234,-189.139C274.697,-205.304 308.654,-229.749 342,-243.139 441.013,-282.895 471.304,-287.139 578,-287.139 578,-287.139 578,-287.139 1039,-287.139 1162.89,-287.139 1303.1,-225.922 1353.6,-201.77"/>
<polygon fill="midnightblue" stroke="midnightblue" points="256.315,-186.321 246.332,-182.774 251.924,-191.772 256.315,-186.321"/>
</g>
<!-- Node8 -->
<g id="node15" class="node"><title>Node8</title>
<a xlink:href="../../df/da9/xmpp__auth_8c.html#afd7b12689591d40109a88ad108b5c3a2" target="_top" xlink:title="stream_sasl_start">
<polygon fill="none" stroke="black" points="978.5,-201.639 978.5,-220.639 1097.5,-220.639 1097.5,-201.639 978.5,-201.639"/>
<text text-anchor="middle" x="1038" y="-208.639" font-family="DejaVuSansMono" font-size="10.00">stream_sasl_start</text>
</a>
</g>
<!-- Node2&#45;&gt;Node8 -->
<g id="edge14" class="edge"><title>Node2&#45;&gt;Node8</title>
<path fill="none" stroke="midnightblue" d="M298.188,-184.367C366.832,-195.574 479.839,-211.139 578,-211.139 578,-211.139 578,-211.139 727,-211.139 814.591,-211.139 916.104,-211.139 978.435,-211.139"/>
<polygon fill="midnightblue" stroke="midnightblue" points="298.412,-180.857 287.975,-182.679 297.27,-187.763 298.412,-180.857"/>
</g>
<!-- Node9 -->
<g id="node17" class="node"><title>Node9</title>
<a xlink:href="../../df/da9/xmpp__auth_8c.html#a8dd789e057b9812e4dd1aa524dfb6a65" target="_top" xlink:title="Begins TLS authentication.">
<polygon fill="none" stroke="black" points="1134.5,-201.639 1134.5,-220.639 1241.5,-220.639 1241.5,-201.639 1134.5,-201.639"/>
<text text-anchor="middle" x="1188" y="-208.639" font-family="DejaVuSansMono" font-size="10.00">handle_starttls</text>
</a>
</g>
<!-- Node2&#45;&gt;Node9 -->
<g id="edge28" class="edge"><title>Node2&#45;&gt;Node9</title>
<path fill="none" stroke="midnightblue" d="M266.1,-186.713C287.163,-195.418 315.821,-206.327 342,-213.139 444.683,-239.857 471.898,-249.139 578,-249.139 578,-249.139 578,-249.139 883,-249.139 978.928,-249.139 1003.14,-244.401 1098,-230.139 1114.25,-227.696 1131.98,-224.102 1147.32,-220.695"/>
<polygon fill="midnightblue" stroke="midnightblue" points="267.279,-183.412 256.704,-182.767 264.569,-189.866 267.279,-183.412"/>
</g>
<!-- Node10 -->
<g id="node20" class="node"><title>Node10</title>
<a xlink:href="../../df/da9/xmpp__auth_8c.html#a01804bd53eccc182ce76337fc0863e8d" target="_top" xlink:title="stream_bind_start">
<polygon fill="none" stroke="black" points="666.5,-125.639 666.5,-144.639 785.5,-144.639 785.5,-125.639 666.5,-125.639"/>
<text text-anchor="middle" x="726" y="-132.639" font-family="DejaVuSansMono" font-size="10.00">stream_bind_start</text>
</a>
</g>
<!-- Node2&#45;&gt;Node10 -->
<g id="edge20" class="edge"><title>Node2&#45;&gt;Node10</title>
<path fill="none" stroke="midnightblue" d="M312.221,-162.405C322.229,-161.199 332.35,-160.071 342,-159.139 456.558,-148.068 590.911,-141.009 666.178,-137.59"/>
<polygon fill="midnightblue" stroke="midnightblue" points="311.77,-158.934 302.274,-163.632 312.627,-165.881 311.77,-158.934"/>
</g>
<!-- Node11 -->
<g id="node22" class="node"><title>Node11</title>
<a xlink:href="../../df/da9/xmpp__auth_8c.html#afb770a216868aa3fb43813b19d2a0115" target="_top" xlink:title="Begins SASL PLAIN authentication.">
<polygon fill="none" stroke="black" points="822.5,-163.639 822.5,-182.639 941.5,-182.639 941.5,-163.639 822.5,-163.639"/>
<text text-anchor="middle" x="882" y="-170.639" font-family="DejaVuSansMono" font-size="10.00">handle_sasl_plain</text>
</a>
</g>
<!-- Node2&#45;&gt;Node11 -->
<g id="edge30" class="edge"><title>Node2&#45;&gt;Node11</title>
<path fill="none" stroke="midnightblue" d="M315.715,-173.139C447.574,-173.139 706.099,-173.139 822.152,-173.139"/>
<polygon fill="midnightblue" stroke="midnightblue" points="315.672,-169.639 305.672,-173.139 315.672,-176.639 315.672,-169.639"/>
</g>
<!-- Node12 -->
<g id="node28" class="node"><title>Node12</title>
<a xlink:href="../../df/da9/xmpp__auth_8c.html#a603b4a63af3c4e4af99442805fe89ae8" target="_top" xlink:title="Step 15: Client binds a resource.">
<polygon fill="none" stroke="black" points="528.5,-87.6386 528.5,-106.639 629.5,-106.639 629.5,-87.6386 528.5,-87.6386"/>
<text text-anchor="middle" x="579" y="-94.6386" font-family="DejaVuSansMono" font-size="10.00">handle_bind_iq</text>
</a>
</g>
<!-- Node2&#45;&gt;Node12 -->
<g id="edge32" class="edge"><title>Node2&#45;&gt;Node12</title>
<path fill="none" stroke="midnightblue" d="M259.141,-158.347C280.21,-146.199 312.022,-129.657 342,-121.139 404.592,-103.353 479.819,-98.3792 528.243,-97.1777"/>
<polygon fill="midnightblue" stroke="midnightblue" points="257.103,-155.485 250.261,-163.574 260.654,-161.517 257.103,-155.485"/>
</g>
<!-- Node13 -->
<g id="node31" class="node"><title>Node13</title>
<a xlink:href="../../d8/d28/xmpp__core_8h.html#a3b41e83061abd7ed5b258c7aa7dda0d6" target="_top" xlink:title="An xmpp_server stanza route for stanzas directed to a local client.">
<polygon fill="none" stroke="black" points="342.5,-49.6386 342.5,-68.6386 491.5,-68.6386 491.5,-49.6386 342.5,-49.6386"/>
<text text-anchor="middle" x="417" y="-56.6386" font-family="DejaVuSansMono" font-size="10.00">xmpp_core_route_client</text>
</a>
</g>
<!-- Node2&#45;&gt;Node13 -->
<g id="edge36" class="edge"><title>Node2&#45;&gt;Node13</title>
<path fill="none" stroke="midnightblue" d="M250.763,-156.404C270.411,-136.425 305.833,-103.201 342,-83.1386 352.866,-77.111 365.479,-72.3162 377.18,-68.6465"/>
<polygon fill="midnightblue" stroke="midnightblue" points="248.242,-153.976 243.808,-163.599 253.275,-158.842 248.242,-153.976"/>
</g>
<!-- Node4 -->
<g id="node7" class="node"><title>Node4</title>
<a xlink:href="../../d4/d2f/xmpp__client_8h.html#a1619c0b8f58b2cf09a322bf34fbc3414" target="_top" xlink:title="xmpp_client_new">
<polygon fill="none" stroke="black" points="1506.5,-106.639 1506.5,-125.639 1613.5,-125.639 1613.5,-106.639 1506.5,-106.639"/>
<text text-anchor="middle" x="1560" y="-113.639" font-family="DejaVuSansMono" font-size="10.00">xmpp_client_new</text>
</a>
</g>
<!-- Node3&#45;&gt;Node4 -->
<g id="edge6" class="edge"><title>Node3&#45;&gt;Node4</title>
<path fill="none" stroke="midnightblue" d="M1407.62,-178.667C1444.46,-163.448 1503.5,-139.063 1535.89,-125.686"/>
<polygon fill="midnightblue" stroke="midnightblue" points="1406.21,-175.461 1398.3,-182.513 1408.88,-181.93 1406.21,-175.461"/>
</g>
<!-- Node5 -->
<g id="node9" class="node"><title>Node5</title>
<a xlink:href="../../d0/df0/xmpp__server_8c.html#a66363912ef1221a2574f9f99805fe8fd" target="_top" xlink:title="Callback for new client connections.">
<polygon fill="none" stroke="black" points="1653.5,-49.6386 1653.5,-68.6386 1754.5,-68.6386 1754.5,-49.6386 1653.5,-49.6386"/>
<text text-anchor="middle" x="1704" y="-56.6386" font-family="DejaVuSansMono" font-size="10.00">connect_client</text>
</a>
</g>
<!-- Node4&#45;&gt;Node5 -->
<g id="edge8" class="edge"><title>Node4&#45;&gt;Node5</title>
<path fill="none" stroke="midnightblue" d="M1594.24,-102.798C1620.28,-92.3436 1655.88,-78.0512 1679.15,-68.7102"/>
<polygon fill="midnightblue" stroke="midnightblue" points="1592.74,-99.6247 1584.77,-106.598 1595.35,-106.121 1592.74,-99.6247"/>
</g>
<!-- Node6 -->
<g id="node11" class="node"><title>Node6</title>
<a xlink:href="../../d1/d2e/xmpp__server_8h.html#a27bfc8e4d424a8bc17ab21a4a09cdf92" target="_top" xlink:title="Allocates and initializes the XMPP server.">
<polygon fill="none" stroke="black" points="1794.5,-39.6386 1794.5,-58.6386 1901.5,-58.6386 1901.5,-39.6386 1794.5,-39.6386"/>
<text text-anchor="middle" x="1848" y="-46.6386" font-family="DejaVuSansMono" font-size="10.00">xmpp_server_new</text>
</a>
</g>
<!-- Node5&#45;&gt;Node6 -->
<g id="edge10" class="edge"><title>Node5&#45;&gt;Node6</title>
<path fill="none" stroke="midnightblue" d="M1764.73,-54.932C1774.53,-54.2423 1784.62,-53.5319 1794.23,-52.8551"/>
<polygon fill="midnightblue" stroke="midnightblue" points="1764.39,-51.4471 1754.66,-55.6411 1764.89,-58.4298 1764.39,-51.4471"/>
</g>
<!-- Node7 -->
<g id="node13" class="node"><title>Node7</title>
<a xlink:href="../../d0/d29/main_8c.html#a0ddf1224851353fc92bfbff6f499fa97" target="_top" xlink:title="main">
<polygon fill="none" stroke="black" points="1938.5,-20.6386 1938.5,-39.6386 1979.5,-39.6386 1979.5,-20.6386 1938.5,-20.6386"/>
<text text-anchor="middle" x="1959" y="-27.6386" font-family="DejaVuSansMono" font-size="10.00">main</text>
</a>
</g>
<!-- Node6&#45;&gt;Node7 -->
<g id="edge12" class="edge"><title>Node6&#45;&gt;Node7</title>
<path fill="none" stroke="midnightblue" d="M1911.45,-38.2537C1921.24,-36.5467 1930.68,-34.9008 1938.47,-33.5426"/>
<polygon fill="midnightblue" stroke="midnightblue" points="1910.83,-34.8072 1901.58,-39.9725 1912.04,-41.7032 1910.83,-34.8072"/>
</g>
<!-- Node8&#45;&gt;Node9 -->
<g id="edge16" class="edge"><title>Node8&#45;&gt;Node9</title>
<path fill="none" stroke="midnightblue" d="M1108.09,-211.139C1116.81,-211.139 1125.62,-211.139 1134.04,-211.139"/>
<polygon fill="midnightblue" stroke="midnightblue" points="1107.92,-207.639 1097.92,-211.139 1107.92,-214.639 1107.92,-207.639"/>
</g>
<!-- Node9&#45;&gt;Node3 -->
<g id="edge18" class="edge"><title>Node9&#45;&gt;Node3</title>
<path fill="none" stroke="midnightblue" d="M1252.06,-204.627C1267.29,-203.055 1283.69,-201.361 1299.36,-199.743"/>
<polygon fill="midnightblue" stroke="midnightblue" points="1251.31,-201.185 1241.73,-205.694 1252.03,-208.148 1251.31,-201.185"/>
</g>
<!-- Node10&#45;&gt;Node11 -->
<g id="edge22" class="edge"><title>Node10&#45;&gt;Node11</title>
<path fill="none" stroke="midnightblue" d="M775.794,-147.179C797.308,-152.487 822.232,-158.637 842.419,-163.619"/>
<polygon fill="midnightblue" stroke="midnightblue" points="776.408,-143.725 765.861,-144.728 774.731,-150.521 776.408,-143.725"/>
</g>
<!-- Node11&#45;&gt;Node3 -->
<g id="edge24" class="edge"><title>Node11&#45;&gt;Node3</title>
<path fill="none" stroke="midnightblue" d="M951.621,-175.799C1043.25,-179.352 1204.93,-185.622 1299.14,-189.275"/>
<polygon fill="midnightblue" stroke="midnightblue" points="951.747,-172.302 941.619,-175.412 951.476,-179.296 951.747,-172.302"/>
</g>
<!-- Node11&#45;&gt;Node8 -->
<g id="edge26" class="edge"><title>Node11&#45;&gt;Node8</title>
<path fill="none" stroke="midnightblue" d="M931.794,-185.179C953.308,-190.487 978.232,-196.637 998.419,-201.619"/>
<polygon fill="midnightblue" stroke="midnightblue" points="932.408,-181.725 921.861,-182.728 930.731,-188.521 932.408,-181.725"/>
</g>
<!-- Node12&#45;&gt;Node10 -->
<g id="edge34" class="edge"><title>Node12&#45;&gt;Node10</title>
<path fill="none" stroke="midnightblue" d="M626.493,-109.323C646.624,-114.599 669.838,-120.682 688.673,-125.619"/>
<polygon fill="midnightblue" stroke="midnightblue" points="627.15,-105.877 616.59,-106.728 625.376,-112.648 627.15,-105.877"/>
</g>
<!-- Node13&#45;&gt;Node12 -->
<g id="edge38" class="edge"><title>Node13&#45;&gt;Node12</title>
<path fill="none" stroke="midnightblue" d="M468.392,-71.1066C490.813,-76.4317 516.847,-82.6148 537.916,-87.6185"/>
<polygon fill="midnightblue" stroke="midnightblue" points="468.913,-67.6331 458.375,-68.7276 467.295,-74.4437 468.913,-67.6331"/>
</g>
<!-- Node14 -->
<g id="node34" class="node"><title>Node14</title>
<a xlink:href="../../d4/d2f/xmpp__client_8h.html#add2df61245a543667b6d98e3fcd57077" target="_top" xlink:title="xmpp_client_del">
<polygon fill="none" stroke="black" points="1134.5,-49.6386 1134.5,-68.6386 1241.5,-68.6386 1241.5,-49.6386 1134.5,-49.6386"/>
<text text-anchor="middle" x="1188" y="-56.6386" font-family="DejaVuSansMono" font-size="10.00">xmpp_client_del</text>
</a>
</g>
<!-- Node13&#45;&gt;Node14 -->
<g id="edge40" class="edge"><title>Node13&#45;&gt;Node14</title>
<path fill="none" stroke="midnightblue" d="M501.583,-59.1386C563.315,-59.1386 649.394,-59.1386 725,-59.1386 725,-59.1386 725,-59.1386 883,-59.1386 971.139,-59.1386 1073.65,-59.1386 1134.28,-59.1386"/>
<polygon fill="midnightblue" stroke="midnightblue" points="501.506,-55.6387 491.506,-59.1386 501.506,-62.6387 501.506,-55.6387"/>
</g>
<!-- Node14&#45;&gt;Node4 -->
<g id="edge42" class="edge"><title>Node14&#45;&gt;Node4</title>
<path fill="none" stroke="midnightblue" d="M1219.11,-72.6195C1236.07,-79.6174 1257.84,-87.6264 1278,-92.1386 1356.24,-109.646 1449.36,-114.576 1506.31,-115.855"/>
<polygon fill="midnightblue" stroke="midnightblue" points="1220.31,-69.3237 1209.73,-68.6503 1217.58,-75.7704 1220.31,-69.3237"/>
</g>
<!-- Node14&#45;&gt;Node5 -->
<g id="edge58" class="edge"><title>Node14&#45;&gt;Node5</title>
<path fill="none" stroke="midnightblue" d="M1251.88,-59.1386C1355.25,-59.1386 1558.99,-59.1386 1653.14,-59.1386"/>
<polygon fill="midnightblue" stroke="midnightblue" points="1251.59,-55.6387 1241.59,-59.1386 1251.59,-62.6387 1251.59,-55.6387"/>
</g>
<!-- Node15 -->
<g id="node37" class="node"><title>Node15</title>
<a xlink:href="../../d1/d2e/xmpp__server_8h.html#af7d75415fd5671841797bf77bbc1a981" target="_top" xlink:title="Cleans up an XMPP server instance.">
<polygon fill="none" stroke="black" points="1650.5,-1.63857 1650.5,-20.6386 1757.5,-20.6386 1757.5,-1.63857 1650.5,-1.63857"/>
<text text-anchor="middle" x="1704" y="-8.63857" font-family="DejaVuSansMono" font-size="10.00">xmpp_server_del</text>
</a>
</g>
<!-- Node14&#45;&gt;Node15 -->
<g id="edge44" class="edge"><title>Node14&#45;&gt;Node15</title>
<path fill="none" stroke="midnightblue" d="M1215,-44.9169C1232.3,-36.2496 1255.83,-25.945 1278,-21.1386 1409.46,7.36556 1569.14,0.352921 1650.24,-6.05322"/>
<polygon fill="midnightblue" stroke="midnightblue" points="1213.36,-41.8233 1206.08,-49.5183 1216.57,-48.0444 1213.36,-41.8233"/>
</g>
<!-- Node16 -->
<g id="node41" class="node"><title>Node16</title>
<a xlink:href="../../d1/d2e/xmpp__server_8h.html#a79e02871228c509de0c70961d74a1bcb" target="_top" xlink:title="Attempt to cleanly disconnect a client, and clean up its resources.">
<polygon fill="none" stroke="black" points="1278.5,-30.6386 1278.5,-49.6386 1469.5,-49.6386 1469.5,-30.6386 1278.5,-30.6386"/>
<text text-anchor="middle" x="1374" y="-37.6386" font-family="DejaVuSansMono" font-size="10.00">xmpp_server_disconnect_client</text>
</a>
</g>
<!-- Node14&#45;&gt;Node16 -->
<g id="edge50" class="edge"><title>Node14&#45;&gt;Node16</title>
<path fill="none" stroke="midnightblue" d="M1251.77,-52.6572C1261.2,-51.6827 1271.1,-50.6609 1281,-49.639"/>
<polygon fill="midnightblue" stroke="midnightblue" points="1251.31,-49.1852 1241.73,-53.6939 1252.03,-56.1482 1251.31,-49.1852"/>
</g>
<!-- Node15&#45;&gt;Node6 -->
<g id="edge48" class="edge"><title>Node15&#45;&gt;Node6</title>
<path fill="none" stroke="midnightblue" d="M1750.49,-23.3127C1770.13,-28.5673 1792.77,-34.6252 1811.18,-39.5526"/>
<polygon fill="midnightblue" stroke="midnightblue" points="1751.4,-19.9317 1740.83,-20.7276 1749.59,-26.6938 1751.4,-19.9317"/>
</g>
<!-- Node15&#45;&gt;Node7 -->
<g id="edge46" class="edge"><title>Node15&#45;&gt;Node7</title>
<path fill="none" stroke="midnightblue" d="M1767.9,-15.8621C1823.84,-20.0631 1902.21,-25.9485 1938.34,-28.6619"/>
<polygon fill="midnightblue" stroke="midnightblue" points="1767.96,-12.3573 1757.73,-15.0985 1767.44,-19.3376 1767.96,-12.3573"/>
</g>
<!-- Node16&#45;&gt;Node13 -->
<g id="edge52" class="edge"><title>Node16&#45;&gt;Node13</title>
<path fill="none" stroke="midnightblue" d="M1268.05,-31.1036C1202.3,-26.2038 1115.77,-21.1386 1039,-21.1386 725,-21.1386 725,-21.1386 725,-21.1386 632.493,-21.1386 525.485,-38.3423 465.371,-49.5986"/>
<polygon fill="midnightblue" stroke="midnightblue" points="1268.19,-34.6236 1278.42,-31.8878 1268.72,-27.6436 1268.19,-34.6236"/>
</g>
<!-- Node17 -->
<g id="node44" class="node"><title>Node17</title>
<a xlink:href="../../d0/df0/xmpp__server_8c.html#abece91815ef240322d79073f5bfca1db" target="_top" xlink:title="Callback for new data from a client.">
<polygon fill="none" stroke="black" points="1518.5,-30.6386 1518.5,-49.6386 1601.5,-49.6386 1601.5,-30.6386 1518.5,-30.6386"/>
<text text-anchor="middle" x="1560" y="-37.6386" font-family="DejaVuSansMono" font-size="10.00">read_client</text>
</a>
</g>
<!-- Node16&#45;&gt;Node17 -->
<g id="edge54" class="edge"><title>Node16&#45;&gt;Node17</title>
<path fill="none" stroke="midnightblue" d="M1480.07,-40.1386C1493.56,-40.1386 1506.68,-40.1386 1518.21,-40.1386"/>
<polygon fill="midnightblue" stroke="midnightblue" points="1479.7,-36.6387 1469.69,-40.1386 1479.69,-43.6387 1479.7,-36.6387"/>
</g>
<!-- Node17&#45;&gt;Node5 -->
<g id="edge56" class="edge"><title>Node17&#45;&gt;Node5</title>
<path fill="none" stroke="midnightblue" d="M1611.81,-46.9373C1625.37,-48.7511 1639.99,-50.7081 1653.48,-52.5124"/>
<polygon fill="midnightblue" stroke="midnightblue" points="1612.07,-43.4404 1601.69,-45.5832 1611.14,-50.3786 1612.07,-43.4404"/>
</g>
</g>
</svg>
        <g id="navigator" transform="translate(0 0)" fill="#404254">
                <rect fill="#f2f5e9" fill-opacity="0.5" stroke="#606060" stroke-width=".5" x="0" y="0" width="60" height="60"/>
                <use id="zoomplus" xlink:href="#zoomPlus" x="17" y="9" onmousedown="handleZoom(evt,'in')"/>
                <use id="zoomminus" xlink:href="#zoomMin" x="42" y="9" onmousedown="handleZoom(evt,'out')"/>
                <use id="reset" xlink:href="#resetDef" x="30" y="36" onmousedown="handleReset()"/>
                <g id="arrowUp" xlink:href="#dirArrow" transform="translate(30 24)" onmousedown="handlePan(0,-1)">
                  <use xlink:href="#rim" fill="#404040">
                        <set attributeName="fill" to="#808080" begin="arrowUp.mouseover" end="arrowUp.mouseout"/>
                  </use>
                  <path fill="none" stroke="white" stroke-width="1.5" d="M0,-3.0v7 M-2.5,-0.5L0,-3.0L2.5,-0.5"/>
                </g>
                <g id="arrowRight" xlink:href="#dirArrow" transform="rotate(90) translate(36 -43)" onmousedown="handlePan(1,0)">
                  <use xlink:href="#rim" fill="#404040">
                        <set attributeName="fill" to="#808080" begin="arrowRight.mouseover" end="arrowRight.mouseout"/>
                  </use>
                  <path fill="none" stroke="white" stroke-width="1.5" d="M0,-3.0v7 M-2.5,-0.5L0,-3.0L2.5,-0.5"/>
                </g>
                <g id="arrowDown" xlink:href="#dirArrow" transform="rotate(180) translate(-30 -48)" onmousedown="handlePan(0,1)">
                  <use xlink:href="#rim" fill="#404040">
                        <set attributeName="fill" to="#808080" begin="arrowDown.mouseover" end="arrowDown.mouseout"/>
                  </use>
                  <path fill="none" stroke="white" stroke-width="1.5" d="M0,-3.0v7 M-2.5,-0.5L0,-3.0L2.5,-0.5"/>
                </g>
                <g id="arrowLeft" xlink:href="#dirArrow" transform="rotate(270) translate(-36 17)" onmousedown="handlePan(-1,0)">
                  <use xlink:href="#rim" fill="#404040">
                        <set attributeName="fill" to="#808080" begin="arrowLeft.mouseover" end="arrowLeft.mouseout"/>
                  </use>
                  <path fill="none" stroke="white" stroke-width="1.5" d="M0,-3.0v7 M-2.5,-0.5L0,-3.0L2.5,-0.5"/>
                </g>
        </g>
        <svg viewBox="0 0 25 25" width="100%" height="30px" preserveAspectRatio="xMaxYMin meet"> 
          <g id="printButton" transform="scale(0.4 0.4)" onmousedown="handlePrint(evt)">
            <rect height="23.33753581" id="paper" rx="2" style="fill:#f2f5e9;fill-rule:evenodd;stroke:#111111;stroke-width:3.224;stroke-linejoin:round;" transform="matrix(1.000000,0.000000,-0.339266,0.940691,0.000000,0.000000)" width="25.55231285" x="26.69387353" y="7.36162977"/>
            <rect height="26.272097" id="body" rx="2" style="fill:#404040;fill-rule:evenodd;stroke:#111111;stroke-width:3.125;stroke-linejoin:round;" width="50" x="4.5295201" y="27.078951"/>
            <rect height="8.27750969" id="tray" style="fill:#d2d5c9;fill-rule:evenodd;stroke:#111111;stroke-width:3.125;stroke-linecap:round;stroke-linejoin:round;" width="40" x="10.28778839" y="44.96812282"/>
          </g>
        </svg>
</svg>
