<?xml version="1.0" encoding="UTF-8" standalone="no"?>
<!DOCTYPE svg PUBLIC "-//W3C//DTD SVG 1.1//EN"
 "http://www.w3.org/Graphics/SVG/1.1/DTD/svg11.dtd">
<!-- Generated by graphviz version 2.28.0 (20120217.0315)
 -->
<!-- Title: G Pages: 1 -->
<!--zoomable 198 -->
<svg id="main" version="1.1" xmlns="http://www.w3.org/2000/svg" xmlns:xlink="http://www.w3.org/1999/xlink" xml:space="preserve" onload="init(evt)">
        <defs>
                <circle id="rim" cx="0" cy="0" r="7"/>
                <circle id="rim2" cx="0" cy="0" r="3.5"/>
                <g id="zoomPlus">
                        <use xlink:href="#rim" fill="#404040">
                                <set attributeName="fill" to="#808080" begin="zoomplus.mouseover" end="zoomplus.mouseout"/>
                        </use>
                        <path d="M-4,0h8M0,-4v8" fill="none" stroke="white" stroke-width="1.5" pointer-events="none"/>
                </g>
                <g id="zoomMin">
                        <use xlink:href="#rim" fill="#404040">
                                <set attributeName="fill" to="#808080" begin="zoomminus.mouseover" end="zoomminus.mouseout"/>
                        </use>
                        <path d="M-4,0h8" fill="none" stroke="white" stroke-width="1.5" pointer-events="none"/>
                </g>
                <g id="dirArrow">
                        <path fill="none" stroke="white" stroke-width="1.5" d="M0,-3.0v7 M-2.5,-0.5L0,-3.0L2.5,-0.5"/>
                </g>
               <g id="resetDef">
                       <use xlink:href="#rim2" fill="#404040">
                               <set attributeName="fill" to="#808080" begin="reset.mouseover" end="reset.mouseout"/>
                       </use>
               </g>
        </defs>

<script type="text/javascript">
var viewWidth = 2144;
var viewHeight = 198;
var sectionId = 'dynsection-3';
</script>
<script xlink:href="../../svgpan.js"/>
<svg id="graph" class="graph">
<g id="viewport">
<title>G</title>
<!-- Node1 -->
<g id="node1" class="node"><title>Node1</title>
<polygon fill="#bfbfbf" stroke="black" points="0.5,-76.6199 0.5,-95.6199 131.5,-95.6199 131.5,-76.6199 0.5,-76.6199"/>
<text text-anchor="middle" x="66" y="-83.6199" font-family="DejaVuSansMono" font-size="10.00">client_socket_close</text>
</g>
<!-- Node2 -->
<g id="node3" class="node"><title>Node2</title>
<a xlink:href="../../d4/d2f/xmpp__client_8h.html#add2df61245a543667b6d98e3fcd57077" target="_top" xlink:title="xmpp_client_del">
<polygon fill="none" stroke="black" points="168.5,-76.6199 168.5,-95.6199 275.5,-95.6199 275.5,-76.6199 168.5,-76.6199"/>
<text text-anchor="middle" x="222" y="-83.6199" font-family="DejaVuSansMono" font-size="10.00">xmpp_client_del</text>
</a>
</g>
<!-- Node1&#45;&gt;Node2 -->
<g id="edge2" class="edge"><title>Node1&#45;&gt;Node2</title>
<path fill="none" stroke="midnightblue" d="M141.911,-86.1199C150.846,-86.1199 159.82,-86.1199 168.349,-86.1199"/>
<polygon fill="midnightblue" stroke="midnightblue" points="141.864,-82.62 131.864,-86.1199 141.863,-89.62 141.864,-82.62"/>
</g>
<!-- Node3 -->
<g id="node5" class="node"><title>Node3</title>
<a xlink:href="../../d4/d2f/xmpp__client_8h.html#a1619c0b8f58b2cf09a322bf34fbc3414" target="_top" xlink:title="xmpp_client_new">
<polygon fill="none" stroke="black" points="1662.5,-85.6199 1662.5,-104.62 1769.5,-104.62 1769.5,-85.6199 1662.5,-85.6199"/>
<text text-anchor="middle" x="1716" y="-92.6199" font-family="DejaVuSansMono" font-size="10.00">xmpp_client_new</text>
</a>
</g>
<!-- Node2&#45;&gt;Node3 -->
<g id="edge4" class="edge"><title>Node2&#45;&gt;Node3</title>
<path fill="none" stroke="midnightblue" d="M279.849,-74.7196C355.71,-60.524 494.385,-38.1199 614,-38.1199 614,-38.1199 614,-38.1199 1387,-38.1199 1496.53,-38.1199 1623.63,-69.3528 1682.27,-85.5793"/>
<polygon fill="midnightblue" stroke="midnightblue" points="279.193,-71.2814 270.018,-76.5792 280.494,-78.1594 279.193,-71.2814"/>
</g>
<!-- Node4 -->
<g id="node7" class="node"><title>Node4</title>
<a xlink:href="../../d0/df0/xmpp__server_8c.html#a66363912ef1221a2574f9f99805fe8fd" target="_top" xlink:title="Callback for new client connections.">
<polygon fill="none" stroke="black" points="1809.5,-113.62 1809.5,-132.62 1910.5,-132.62 1910.5,-113.62 1809.5,-113.62"/>
<text text-anchor="middle" x="1860" y="-120.62" font-family="DejaVuSansMono" font-size="10.00">connect_client</text>
</a>
</g>
<!-- Node2&#45;&gt;Node4 -->
<g id="edge44" class="edge"><title>Node2&#45;&gt;Node4</title>
<path fill="none" stroke="midnightblue" d="M242.652,-102.14C259.876,-115.305 286.136,-133.325 312,-143.12 439.034,-191.228 478.162,-190.12 614,-190.12 614,-190.12 614,-190.12 1552,-190.12 1650.13,-190.12 1674.97,-179.604 1770,-155.12 1792.9,-149.22 1818.19,-139.833 1835.95,-132.748"/>
<polygon fill="midnightblue" stroke="midnightblue" points="244.549,-99.1802 234.518,-95.768 240.232,-104.69 244.549,-99.1802"/>
</g>
<!-- Node7 -->
<g id="node13" class="node"><title>Node7</title>
<a xlink:href="../../d1/d2e/xmpp__server_8h.html#af7d75415fd5671841797bf77bbc1a981" target="_top" xlink:title="Cleans up an XMPP server instance.">
<polygon fill="none" stroke="black" points="1806.5,-33.6199 1806.5,-52.6199 1913.5,-52.6199 1913.5,-33.6199 1806.5,-33.6199"/>
<text text-anchor="middle" x="1860" y="-40.6199" font-family="DejaVuSansMono" font-size="10.00">xmpp_server_del</text>
</a>
</g>
<!-- Node2&#45;&gt;Node7 -->
<g id="edge12" class="edge"><title>Node2&#45;&gt;Node7</title>
<path fill="none" stroke="midnightblue" d="M245.94,-71.0564C263.345,-60.3762 288.25,-46.6531 312,-39.1199 441.003,1.79795 478.663,-0.119863 614,-0.119863 614,-0.119863 614,-0.119863 1552,-0.119863 1647.8,-0.119863 1758.8,-20.9086 1817.55,-33.5768"/>
<polygon fill="midnightblue" stroke="midnightblue" points="243.699,-68.3313 237.097,-76.6182 247.426,-74.2567 243.699,-68.3313"/>
</g>
<!-- Node8 -->
<g id="node17" class="node"><title>Node8</title>
<a xlink:href="../../d1/d2e/xmpp__server_8h.html#a79e02871228c509de0c70961d74a1bcb" target="_top" xlink:title="Attempt to cleanly disconnect a client, and clean up its resources.">
<polygon fill="none" stroke="black" points="312.5,-114.62 312.5,-133.62 503.5,-133.62 503.5,-114.62 312.5,-114.62"/>
<text text-anchor="middle" x="408" y="-121.62" font-family="DejaVuSansMono" font-size="10.00">xmpp_server_disconnect_client</text>
</a>
</g>
<!-- Node2&#45;&gt;Node8 -->
<g id="edge18" class="edge"><title>Node2&#45;&gt;Node8</title>
<path fill="none" stroke="midnightblue" d="M279.561,-97.8009C305.654,-103.19 336.238,-109.506 360.903,-114.6"/>
<polygon fill="midnightblue" stroke="midnightblue" points="279.932,-94.3038 269.431,-95.7089 278.516,-101.159 279.932,-94.3038"/>
</g>
<!-- Node3&#45;&gt;Node4 -->
<g id="edge6" class="edge"><title>Node3&#45;&gt;Node4</title>
<path fill="none" stroke="midnightblue" d="M1775.6,-106.674C1787.29,-108.98 1799.45,-111.377 1810.75,-113.605"/>
<polygon fill="midnightblue" stroke="midnightblue" points="1775.96,-103.178 1765.47,-104.678 1774.61,-110.046 1775.96,-103.178"/>
</g>
<!-- Node5 -->
<g id="node9" class="node"><title>Node5</title>
<a xlink:href="../../d1/d2e/xmpp__server_8h.html#a27bfc8e4d424a8bc17ab21a4a09cdf92" target="_top" xlink:title="Allocates and initializes the XMPP server.">
<polygon fill="none" stroke="black" points="1950.5,-71.6199 1950.5,-90.6199 2057.5,-90.6199 2057.5,-71.6199 1950.5,-71.6199"/>
<text text-anchor="middle" x="2004" y="-78.6199" font-family="DejaVuSansMono" font-size="10.00">xmpp_server_new</text>
</a>
</g>
<!-- Node4&#45;&gt;Node5 -->
<g id="edge8" class="edge"><title>Node4&#45;&gt;Node5</title>
<path fill="none" stroke="midnightblue" d="M1903.09,-110.671C1924.62,-104.304 1950.42,-96.671 1970.41,-90.758"/>
<polygon fill="midnightblue" stroke="midnightblue" points="1901.82,-107.397 1893.22,-113.589 1903.8,-114.109 1901.82,-107.397"/>
</g>
<!-- Node6 -->
<g id="node11" class="node"><title>Node6</title>
<a xlink:href="../../d0/d29/main_8c.html#a0ddf1224851353fc92bfbff6f499fa97" target="_top" xlink:title="main">
<polygon fill="none" stroke="black" points="2094.5,-52.6199 2094.5,-71.6199 2135.5,-71.6199 2135.5,-52.6199 2094.5,-52.6199"/>
<text text-anchor="middle" x="2115" y="-59.6199" font-family="DejaVuSansMono" font-size="10.00">main</text>
</a>
</g>
<!-- Node5&#45;&gt;Node6 -->
<g id="edge10" class="edge"><title>Node5&#45;&gt;Node6</title>
<path fill="none" stroke="midnightblue" d="M2067.45,-70.2349C2077.24,-68.528 2086.68,-66.8821 2094.47,-65.5239"/>
<polygon fill="midnightblue" stroke="midnightblue" points="2066.83,-66.7885 2057.58,-71.9538 2068.04,-73.6845 2066.83,-66.7885"/>
</g>
<!-- Node7&#45;&gt;Node5 -->
<g id="edge16" class="edge"><title>Node7&#45;&gt;Node5</title>
<path fill="none" stroke="midnightblue" d="M1906.49,-55.294C1926.13,-60.5486 1948.77,-66.6065 1967.18,-71.5339"/>
<polygon fill="midnightblue" stroke="midnightblue" points="1907.4,-51.913 1896.83,-52.7089 1905.59,-58.6751 1907.4,-51.913"/>
</g>
<!-- Node7&#45;&gt;Node6 -->
<g id="edge14" class="edge"><title>Node7&#45;&gt;Node6</title>
<path fill="none" stroke="midnightblue" d="M1923.9,-47.8434C1979.84,-52.0444 2058.21,-57.9298 2094.34,-60.6432"/>
<polygon fill="midnightblue" stroke="midnightblue" points="1923.96,-44.3386 1913.73,-47.0798 1923.44,-51.3189 1923.96,-44.3386"/>
</g>
<!-- Node9 -->
<g id="node19" class="node"><title>Node9</title>
<a xlink:href="../../d8/d28/xmpp__core_8h.html#a3b41e83061abd7ed5b258c7aa7dda0d6" target="_top" xlink:title="An xmpp_server stanza route for stanzas directed to a local client.">
<polygon fill="none" stroke="black" points="540.5,-85.6199 540.5,-104.62 689.5,-104.62 689.5,-85.6199 540.5,-85.6199"/>
<text text-anchor="middle" x="615" y="-92.6199" font-family="DejaVuSansMono" font-size="10.00">xmpp_core_route_client</text>
</a>
</g>
<!-- Node8&#45;&gt;Node9 -->
<g id="edge20" class="edge"><title>Node8&#45;&gt;Node9</title>
<path fill="none" stroke="midnightblue" d="M486.32,-113.182C506.131,-110.379 527.281,-107.387 546.551,-104.661"/>
<polygon fill="midnightblue" stroke="midnightblue" points="485.82,-109.718 476.409,-114.584 486.8,-116.649 485.82,-109.718"/>
</g>
<!-- Node16 -->
<g id="node36" class="node"><title>Node16</title>
<a xlink:href="../../d0/df0/xmpp__server_8c.html#abece91815ef240322d79073f5bfca1db" target="_top" xlink:title="Callback for new data from a client.">
<polygon fill="none" stroke="black" points="735.5,-132.62 735.5,-151.62 818.5,-151.62 818.5,-132.62 735.5,-132.62"/>
<text text-anchor="middle" x="777" y="-139.62" font-family="DejaVuSansMono" font-size="10.00">read_client</text>
</a>
</g>
<!-- Node8&#45;&gt;Node16 -->
<g id="edge40" class="edge"><title>Node8&#45;&gt;Node16</title>
<path fill="none" stroke="midnightblue" d="M513.767,-129.258C587.475,-132.873 682.098,-137.514 735.176,-140.118"/>
<polygon fill="midnightblue" stroke="midnightblue" points="513.671,-125.749 503.512,-128.755 513.328,-132.741 513.671,-125.749"/>
</g>
<!-- Node9&#45;&gt;Node2 -->
<g id="edge38" class="edge"><title>Node9&#45;&gt;Node2</title>
<path fill="none" stroke="midnightblue" d="M530.305,-93.1934C453.174,-91.418 341.066,-88.8375 275.732,-87.3336"/>
<polygon fill="midnightblue" stroke="midnightblue" points="530.398,-96.6963 540.476,-93.4275 530.559,-89.6982 530.398,-96.6963"/>
</g>
<!-- Node10 -->
<g id="node21" class="node"><title>Node10</title>
<a xlink:href="../../df/da9/xmpp__auth_8c.html#a603b4a63af3c4e4af99442805fe89ae8" target="_top" xlink:title="Step 15: Client binds a resource.">
<polygon fill="none" stroke="black" points="726.5,-85.6199 726.5,-104.62 827.5,-104.62 827.5,-85.6199 726.5,-85.6199"/>
<text text-anchor="middle" x="777" y="-92.6199" font-family="DejaVuSansMono" font-size="10.00">handle_bind_iq</text>
</a>
</g>
<!-- Node9&#45;&gt;Node10 -->
<g id="edge22" class="edge"><title>Node9&#45;&gt;Node10</title>
<path fill="none" stroke="midnightblue" d="M700.006,-95.1199C708.943,-95.1199 717.813,-95.1199 726.168,-95.1199"/>
<polygon fill="midnightblue" stroke="midnightblue" points="699.912,-91.62 689.911,-95.1199 699.911,-98.62 699.912,-91.62"/>
</g>
<!-- Node11 -->
<g id="node23" class="node"><title>Node11</title>
<a xlink:href="../../df/da9/xmpp__auth_8c.html#a01804bd53eccc182ce76337fc0863e8d" target="_top" xlink:title="stream_bind_start">
<polygon fill="none" stroke="black" points="864.5,-85.6199 864.5,-104.62 983.5,-104.62 983.5,-85.6199 864.5,-85.6199"/>
<text text-anchor="middle" x="924" y="-92.6199" font-family="DejaVuSansMono" font-size="10.00">stream_bind_start</text>
</a>
</g>
<!-- Node10&#45;&gt;Node11 -->
<g id="edge24" class="edge"><title>Node10&#45;&gt;Node11</title>
<path fill="none" stroke="midnightblue" d="M837.961,-95.1199C846.655,-95.1199 855.597,-95.1199 864.266,-95.1199"/>
<polygon fill="midnightblue" stroke="midnightblue" points="837.901,-91.62 827.901,-95.1199 837.901,-98.62 837.901,-91.62"/>
</g>
<!-- Node12 -->
<g id="node25" class="node"><title>Node12</title>
<a xlink:href="../../df/da9/xmpp__auth_8c.html#afb770a216868aa3fb43813b19d2a0115" target="_top" xlink:title="Begins SASL PLAIN authentication.">
<polygon fill="none" stroke="black" points="1020.5,-85.6199 1020.5,-104.62 1139.5,-104.62 1139.5,-85.6199 1020.5,-85.6199"/>
<text text-anchor="middle" x="1080" y="-92.6199" font-family="DejaVuSansMono" font-size="10.00">handle_sasl_plain</text>
</a>
</g>
<!-- Node11&#45;&gt;Node12 -->
<g id="edge26" class="edge"><title>Node11&#45;&gt;Node12</title>
<path fill="none" stroke="midnightblue" d="M993.894,-95.1199C1002.69,-95.1199 1011.63,-95.1199 1020.25,-95.1199"/>
<polygon fill="midnightblue" stroke="midnightblue" points="993.66,-91.62 983.66,-95.1199 993.66,-98.62 993.66,-91.62"/>
</g>
<!-- Node13 -->
<g id="node27" class="node"><title>Node13</title>
<a xlink:href="../../d3/d24/xmpp__auth_8h.html#ad3efd9ab093646bdfd8832c34ae2de4d" target="_top" xlink:title="Handler for the inital stream start to begin authentication.">
<polygon fill="none" stroke="black" points="1476.5,-85.6199 1476.5,-104.62 1625.5,-104.62 1625.5,-85.6199 1476.5,-85.6199"/>
<text text-anchor="middle" x="1551" y="-92.6199" font-family="DejaVuSansMono" font-size="10.00">xmpp_auth_stream_start</text>
</a>
</g>
<!-- Node12&#45;&gt;Node13 -->
<g id="edge28" class="edge"><title>Node12&#45;&gt;Node13</title>
<path fill="none" stroke="midnightblue" d="M1149.99,-95.1199C1237.24,-95.1199 1386.85,-95.1199 1476.28,-95.1199"/>
<polygon fill="midnightblue" stroke="midnightblue" points="1149.92,-91.62 1139.92,-95.1199 1149.92,-98.62 1149.92,-91.62"/>
</g>
<!-- Node14 -->
<g id="node30" class="node"><title>Node14</title>
<a xlink:href="../../df/da9/xmpp__auth_8c.html#afd7b12689591d40109a88ad108b5c3a2" target="_top" xlink:title="stream_sasl_start">
<polygon fill="none" stroke="black" points="1176.5,-104.62 1176.5,-123.62 1295.5,-123.62 1295.5,-104.62 1176.5,-104.62"/>
<text text-anchor="middle" x="1236" y="-111.62" font-family="DejaVuSansMono" font-size="10.00">stream_sasl_start</text>
</a>
</g>
<!-- Node12&#45;&gt;Node14 -->
<g id="edge32" class="edge"><title>Node12&#45;&gt;Node14</title>
<path fill="none" stroke="midnightblue" d="M1149.61,-103.584C1158.5,-104.681 1167.54,-105.797 1176.25,-106.871"/>
<polygon fill="midnightblue" stroke="midnightblue" points="1150.01,-100.108 1139.66,-102.357 1149.16,-107.055 1150.01,-100.108"/>
</g>
<!-- Node13&#45;&gt;Node3 -->
<g id="edge30" class="edge"><title>Node13&#45;&gt;Node3</title>
<path fill="none" stroke="midnightblue" d="M1635.99,-95.1199C1644.95,-95.1199 1653.88,-95.1199 1662.33,-95.1199"/>
<polygon fill="midnightblue" stroke="midnightblue" points="1635.87,-91.62 1625.87,-95.1199 1635.87,-98.62 1635.87,-91.62"/>
</g>
<!-- Node15 -->
<g id="node32" class="node"><title>Node15</title>
<a xlink:href="../../df/da9/xmpp__auth_8c.html#a8dd789e057b9812e4dd1aa524dfb6a65" target="_top" xlink:title="Begins TLS authentication.">
<polygon fill="none" stroke="black" points="1332.5,-104.62 1332.5,-123.62 1439.5,-123.62 1439.5,-104.62 1332.5,-104.62"/>
<text text-anchor="middle" x="1386" y="-111.62" font-family="DejaVuSansMono" font-size="10.00">handle_starttls</text>
</a>
</g>
<!-- Node14&#45;&gt;Node15 -->
<g id="edge34" class="edge"><title>Node14&#45;&gt;Node15</title>
<path fill="none" stroke="midnightblue" d="M1306.09,-114.12C1314.81,-114.12 1323.62,-114.12 1332.04,-114.12"/>
<polygon fill="midnightblue" stroke="midnightblue" points="1305.92,-110.62 1295.92,-114.12 1305.92,-117.62 1305.92,-110.62"/>
</g>
<!-- Node15&#45;&gt;Node13 -->
<g id="edge36" class="edge"><title>Node15&#45;&gt;Node13</title>
<path fill="none" stroke="midnightblue" d="M1449.91,-106.787C1458.56,-105.779 1467.5,-104.737 1476.32,-103.709"/>
<polygon fill="midnightblue" stroke="midnightblue" points="1449.45,-103.317 1439.92,-107.951 1450.26,-110.27 1449.45,-103.317"/>
</g>
<!-- Node16&#45;&gt;Node4 -->
<g id="edge42" class="edge"><title>Node16&#45;&gt;Node4</title>
<path fill="none" stroke="midnightblue" d="M829.199,-144.857C889.08,-147.817 991.203,-152.12 1079,-152.12 1079,-152.12 1079,-152.12 1552,-152.12 1643.14,-152.12 1748.84,-139.294 1809.42,-130.701"/>
<polygon fill="midnightblue" stroke="midnightblue" points="829.045,-141.345 818.882,-144.339 828.694,-148.336 829.045,-141.345"/>
</g>
</g>
</svg>
        <g id="navigator" transform="translate(0 0)" fill="#404254">
                <rect fill="#f2f5e9" fill-opacity="0.5" stroke="#606060" stroke-width=".5" x="0" y="0" width="60" height="60"/>
                <use id="zoomplus" xlink:href="#zoomPlus" x="17" y="9" onmousedown="handleZoom(evt,'in')"/>
                <use id="zoomminus" xlink:href="#zoomMin" x="42" y="9" onmousedown="handleZoom(evt,'out')"/>
                <use id="reset" xlink:href="#resetDef" x="30" y="36" onmousedown="handleReset()"/>
                <g id="arrowUp" xlink:href="#dirArrow" transform="translate(30 24)" onmousedown="handlePan(0,-1)">
                  <use xlink:href="#rim" fill="#404040">
                        <set attributeName="fill" to="#808080" begin="arrowUp.mouseover" end="arrowUp.mouseout"/>
                  </use>
                  <path fill="none" stroke="white" stroke-width="1.5" d="M0,-3.0v7 M-2.5,-0.5L0,-3.0L2.5,-0.5"/>
                </g>
                <g id="arrowRight" xlink:href="#dirArrow" transform="rotate(90) translate(36 -43)" onmousedown="handlePan(1,0)">
                  <use xlink:href="#rim" fill="#404040">
                        <set attributeName="fill" to="#808080" begin="arrowRight.mouseover" end="arrowRight.mouseout"/>
                  </use>
                  <path fill="none" stroke="white" stroke-width="1.5" d="M0,-3.0v7 M-2.5,-0.5L0,-3.0L2.5,-0.5"/>
                </g>
                <g id="arrowDown" xlink:href="#dirArrow" transform="rotate(180) translate(-30 -48)" onmousedown="handlePan(0,1)">
                  <use xlink:href="#rim" fill="#404040">
                        <set attributeName="fill" to="#808080" begin="arrowDown.mouseover" end="arrowDown.mouseout"/>
                  </use>
                  <path fill="none" stroke="white" stroke-width="1.5" d="M0,-3.0v7 M-2.5,-0.5L0,-3.0L2.5,-0.5"/>
                </g>
                <g id="arrowLeft" xlink:href="#dirArrow" transform="rotate(270) translate(-36 17)" onmousedown="handlePan(-1,0)">
                  <use xlink:href="#rim" fill="#404040">
                        <set attributeName="fill" to="#808080" begin="arrowLeft.mouseover" end="arrowLeft.mouseout"/>
                  </use>
                  <path fill="none" stroke="white" stroke-width="1.5" d="M0,-3.0v7 M-2.5,-0.5L0,-3.0L2.5,-0.5"/>
                </g>
        </g>
        <svg viewBox="0 0 25 25" width="100%" height="30px" preserveAspectRatio="xMaxYMin meet"> 
          <g id="printButton" transform="scale(0.4 0.4)" onmousedown="handlePrint(evt)">
            <rect height="23.33753581" id="paper" rx="2" style="fill:#f2f5e9;fill-rule:evenodd;stroke:#111111;stroke-width:3.224;stroke-linejoin:round;" transform="matrix(1.000000,0.000000,-0.339266,0.940691,0.000000,0.000000)" width="25.55231285" x="26.69387353" y="7.36162977"/>
            <rect height="26.272097" id="body" rx="2" style="fill:#404040;fill-rule:evenodd;stroke:#111111;stroke-width:3.125;stroke-linejoin:round;" width="50" x="4.5295201" y="27.078951"/>
            <rect height="8.27750969" id="tray" style="fill:#d2d5c9;fill-rule:evenodd;stroke:#111111;stroke-width:3.125;stroke-linecap:round;stroke-linejoin:round;" width="40" x="10.28778839" y="44.96812282"/>
          </g>
        </svg>
</svg>
