<?xml version="1.0" encoding="UTF-8" standalone="no"?>
<!DOCTYPE svg PUBLIC "-//W3C//DTD SVG 1.1//EN"
 "http://www.w3.org/Graphics/SVG/1.1/DTD/svg11.dtd">
<!-- Generated by graphviz version 2.28.0 (20120217.0315)
 -->
<!-- Title: G Pages: 1 -->
<svg width="571pt" height="164pt"
 viewBox="0.00 0.00 571.00 164.00" xmlns="http://www.w3.org/2000/svg" xmlns:xlink="http://www.w3.org/1999/xlink">
<g id="graph1" class="graph" transform="scale(1 1) rotate(0) translate(4 160)">
<title>G</title>
<!-- Node9 -->
<g id="node1" class="node"><title>Node9</title>
<polygon fill="#bfbfbf" stroke="black" points="336.25,-19.5 265.75,-19.5 265.75,-0.5 336.25,-0.5 336.25,-19.5"/>
<text text-anchor="middle" x="301" y="-7.5" font-family="DejaVuSansMono" font-size="10.00">Inherited</text>
</g>
<!-- Node10 -->
<g id="node2" class="node"><title>Node10</title>
<a xlink:href="$classPublicBase.html" xlink:title="PublicBase">
<polygon fill="none" stroke="black" points="76.25,-87.5 -0.25,-87.5 -0.25,-68.5 76.25,-68.5 76.25,-87.5"/>
<text text-anchor="middle" x="38" y="-75.5" font-family="DejaVuSansMono" font-size="10.00">PublicBase</text>
</a>
</g>
<!-- Node10&#45;&gt;Node9 -->
<g id="edge2" class="edge"><title>Node10&#45;&gt;Node9</title>
<path fill="none" stroke="midnightblue" d="M82.0615,-65.9427C134.141,-52.8734 219.681,-31.4071 266.947,-19.5455"/>
<polygon fill="midnightblue" stroke="midnightblue" points="80.9604,-62.6105 72.113,-68.4393 82.6642,-69.3999 80.9604,-62.6105"/>
</g>
<!-- Node11 -->
<g id="node4" class="node"><title>Node11</title>
<a xlink:href="$classTruncated.html" xlink:title="Truncated">
<polygon fill="none" stroke="red" points="73.25,-155.5 2.75,-155.5 2.75,-136.5 73.25,-136.5 73.25,-155.5"/>
<text text-anchor="middle" x="38" y="-143.5" font-family="DejaVuSansMono" font-size="10.00">Truncated</text>
</a>
</g>
<!-- Node11&#45;&gt;Node10 -->
<g id="edge4" class="edge"><title>Node11&#45;&gt;Node10</title>
<path fill="none" stroke="midnightblue" d="M38,-126.041C38,-113.472 38,-97.5631 38,-87.8411"/>
<polygon fill="midnightblue" stroke="midnightblue" points="34.5001,-126.372 38,-136.372 41.5001,-126.372 34.5001,-126.372"/>
</g>
<!-- Node13 -->
<g id="node6" class="node"><title>Node13</title>
<a xlink:href="$classProtectedBase.html" xlink:title="ProtectedBase">
<polygon fill="none" stroke="black" points="189.25,-87.5 94.75,-87.5 94.75,-68.5 189.25,-68.5 189.25,-87.5"/>
<text text-anchor="middle" x="142" y="-75.5" font-family="DejaVuSansMono" font-size="10.00">ProtectedBase</text>
</a>
</g>
<!-- Node13&#45;&gt;Node9 -->
<g id="edge6" class="edge"><title>Node13&#45;&gt;Node9</title>
<path fill="none" stroke="darkgreen" d="M172.027,-64.5361C203.744,-51.3706 252.897,-30.9673 280.46,-19.5259"/>
<polygon fill="darkgreen" stroke="darkgreen" points="170.681,-61.3052 162.786,-68.3717 173.364,-67.7704 170.681,-61.3052"/>
</g>
<!-- Node14 -->
<g id="node8" class="node"><title>Node14</title>
<a xlink:href="$classPrivateBase.html" xlink:title="PrivateBase">
<polygon fill="none" stroke="black" points="290.25,-87.5 207.75,-87.5 207.75,-68.5 290.25,-68.5 290.25,-87.5"/>
<text text-anchor="middle" x="249" y="-75.5" font-family="DejaVuSansMono" font-size="10.00">PrivateBase</text>
</a>
</g>
<!-- Node14&#45;&gt;Node9 -->
<g id="edge8" class="edge"><title>Node14&#45;&gt;Node9</title>
<path fill="none" stroke="#8b1a1a" d="M262.15,-60.3101C272.287,-47.4437 285.906,-30.1583 294.034,-19.8411"/>
<polygon fill="#8b1a1a" stroke="#8b1a1a" points="259.238,-58.3506 255.798,-68.3717 264.736,-62.6828 259.238,-58.3506"/>
</g>
<!-- Node15 -->
<g id="node10" class="node"><title>Node15</title>
<polygon fill="none" stroke="#bfbfbf" points="397.25,-87.5 308.75,-87.5 308.75,-68.5 397.25,-68.5 397.25,-87.5"/>
<text text-anchor="middle" x="353" y="-75.5" font-family="DejaVuSansMono" font-size="10.00">Undocumented</text>
</g>
<!-- Node15&#45;&gt;Node9 -->
<g id="edge10" class="edge"><title>Node15&#45;&gt;Node9</title>
<path fill="none" stroke="midnightblue" d="M339.85,-60.3101C329.713,-47.4437 316.094,-30.1583 307.966,-19.8411"/>
<polygon fill="midnightblue" stroke="midnightblue" points="337.264,-62.6828 346.202,-68.3717 342.762,-58.3506 337.264,-62.6828"/>
</g>
<!-- Node16 -->
<g id="node12" class="node"><title>Node16</title>
<a xlink:href="$classTempl.html" xlink:title="Templ&lt; int &gt;">
<polygon fill="none" stroke="black" points="504.25,-87.5 415.75,-87.5 415.75,-68.5 504.25,-68.5 504.25,-87.5"/>
<text text-anchor="middle" x="460" y="-75.5" font-family="DejaVuSansMono" font-size="10.00">Templ&lt; int &gt;</text>
</a>
</g>
<!-- Node16&#45;&gt;Node9 -->
<g id="edge12" class="edge"><title>Node16&#45;&gt;Node9</title>
<path fill="none" stroke="midnightblue" d="M429.973,-64.5361C398.256,-51.3706 349.103,-30.9673 321.54,-19.5259"/>
<polygon fill="midnightblue" stroke="midnightblue" points="428.636,-67.7704 439.214,-68.3717 431.319,-61.3052 428.636,-67.7704"/>
</g>
<!-- Node17 -->
<g id="node14" class="node"><title>Node17</title>
<a xlink:href="$classTempl.html" xlink:title="Templ&lt; T &gt;">
<polygon fill="none" stroke="black" points="498.25,-155.5 421.75,-155.5 421.75,-136.5 498.25,-136.5 498.25,-155.5"/>
<text text-anchor="middle" x="460" y="-143.5" font-family="DejaVuSansMono" font-size="10.00">Templ&lt; T &gt;</text>
</a>
</g>
<!-- Node17&#45;&gt;Node16 -->
<g id="edge14" class="edge"><title>Node17&#45;&gt;Node16</title>
<path fill="none" stroke="orange" stroke-dasharray="5,2" d="M460,-126.041C460,-113.472 460,-97.5631 460,-87.8411"/>
<polygon fill="orange" stroke="orange" points="456.5,-126.372 460,-136.372 463.5,-126.372 456.5,-126.372"/>
<text text-anchor="middle" x="481.5" y="-109.5" font-family="DejaVuSansMono" font-size="10.00">&lt; int &gt;</text>
</g>
<!-- Node18 -->
<g id="node16" class="node"><title>Node18</title>
<a xlink:href="$classUsed.html" xlink:title="Used">
<polygon fill="none" stroke="black" points="563.25,-87.5 522.75,-87.5 522.75,-68.5 563.25,-68.5 563.25,-87.5"/>
<text text-anchor="middle" x="543" y="-75.5" font-family="DejaVuSansMono" font-size="10.00">Used</text>
</a>
</g>
<!-- Node18&#45;&gt;Node9 -->
<g id="edge16" class="edge"><title>Node18&#45;&gt;Node9</title>
<path fill="none" stroke="#9a32cd" stroke-dasharray="5,2" d="M513.295,-68.0839C513.196,-68.0558 513.098,-68.0279 513,-68 449.946,-50.0693 375.921,-30.5023 334.13,-19.5919"/>
<polygon fill="#9a32cd" stroke="#9a32cd" points="512.11,-71.3842 522.69,-70.8207 514.068,-64.6636 512.11,-71.3842"/>
<text text-anchor="middle" x="476.5" y="-41.5" font-family="DejaVuSansMono" font-size="10.00">m_usedClass</text>
</g>
</g>
</svg>
