<?xml version="1.0" encoding="UTF-8" standalone="no"?>
<!DOCTYPE svg PUBLIC "-//W3C//DTD SVG 1.1//EN"
 "http://www.w3.org/Graphics/SVG/1.1/DTD/svg11.dtd">
<!-- Generated by graphviz version 2.28.0 (20120217.0315)
 -->
<!-- Title: G Pages: 1 -->
<!--zoomable 140 -->
<svg id="main" version="1.1" xmlns="http://www.w3.org/2000/svg" xmlns:xlink="http://www.w3.org/1999/xlink" xml:space="preserve" onload="init(evt)">
        <defs>
                <circle id="rim" cx="0" cy="0" r="7"/>
                <circle id="rim2" cx="0" cy="0" r="3.5"/>
                <g id="zoomPlus">
                        <use xlink:href="#rim" fill="#404040">
                                <set attributeName="fill" to="#808080" begin="zoomplus.mouseover" end="zoomplus.mouseout"/>
                        </use>
                        <path d="M-4,0h8M0,-4v8" fill="none" stroke="white" stroke-width="1.5" pointer-events="none"/>
                </g>
                <g id="zoomMin">
                        <use xlink:href="#rim" fill="#404040">
                                <set attributeName="fill" to="#808080" begin="zoomminus.mouseover" end="zoomminus.mouseout"/>
                        </use>
                        <path d="M-4,0h8" fill="none" stroke="white" stroke-width="1.5" pointer-events="none"/>
                </g>
                <g id="dirArrow">
                        <path fill="none" stroke="white" stroke-width="1.5" d="M0,-3.0v7 M-2.5,-0.5L0,-3.0L2.5,-0.5"/>
                </g>
               <g id="resetDef">
                       <use xlink:href="#rim2" fill="#404040">
                               <set attributeName="fill" to="#808080" begin="reset.mouseover" end="reset.mouseout"/>
                       </use>
               </g>
        </defs>

<script type="text/javascript">
var viewWidth = 927;
var viewHeight = 140;
var sectionId = 'dynsection-0';
</script>
<script xlink:href="../../svgpan.js"/>
<svg id="graph" class="graph">
<g id="viewport">
<title>G</title>
<!-- Node1 -->
<g id="node1" class="node"><title>Node1</title>
<polygon fill="#bfbfbf" stroke="black" points="363.5,-112.5 363.5,-131.5 488.5,-131.5 488.5,-112.5 363.5,-112.5"/>
<text text-anchor="middle" x="426" y="-119.5" font-family="DejaVuSansMono" font-size="10.00">src/xmp3_options.c</text>
</g>
<!-- Node2 -->
<g id="node3" class="node"><title>Node2</title>
<polygon fill="none" stroke="#bfbfbf" points="-0.5,-56.5 -0.5,-75.5 82.5,-75.5 82.5,-56.5 -0.5,-56.5"/>
<text text-anchor="middle" x="41" y="-63.5" font-family="DejaVuSansMono" font-size="10.00">arpa/inet.h</text>
</g>
<!-- Node1&#45;&gt;Node2 -->
<g id="edge2" class="edge"><title>Node1&#45;&gt;Node2</title>
<path fill="none" stroke="midnightblue" d="M363.211,-113.414C297.977,-105.34 192.694,-91.7756 92.6896,-76.2139"/>
<polygon fill="midnightblue" stroke="midnightblue" points="93.1395,-72.7418 82.7184,-74.6528 92.0567,-79.6575 93.1395,-72.7418"/>
</g>
<!-- Node3 -->
<g id="node5" class="node"><title>Node3</title>
<polygon fill="none" stroke="#bfbfbf" points="100.5,-56.5 100.5,-75.5 165.5,-75.5 165.5,-56.5 100.5,-56.5"/>
<text text-anchor="middle" x="133" y="-63.5" font-family="DejaVuSansMono" font-size="10.00">limits.h</text>
</g>
<!-- Node1&#45;&gt;Node3 -->
<g id="edge4" class="edge"><title>Node1&#45;&gt;Node3</title>
<path fill="none" stroke="midnightblue" d="M375.427,-112.448C326.85,-104.118 251.138,-90.833 175.695,-76.0809"/>
<polygon fill="midnightblue" stroke="midnightblue" points="176.024,-72.5788 165.537,-74.0854 174.675,-79.4475 176.024,-72.5788"/>
</g>
<!-- Node4 -->
<g id="node7" class="node"><title>Node4</title>
<polygon fill="none" stroke="#bfbfbf" points="183.5,-56.5 183.5,-75.5 248.5,-75.5 248.5,-56.5 183.5,-56.5"/>
<text text-anchor="middle" x="216" y="-63.5" font-family="DejaVuSansMono" font-size="10.00">stdint.h</text>
</g>
<!-- Node1&#45;&gt;Node4 -->
<g id="edge6" class="edge"><title>Node1&#45;&gt;Node4</title>
<path fill="none" stroke="midnightblue" d="M392.725,-112.444C356.445,-103.115 298.283,-88.1584 258.67,-77.9723"/>
<polygon fill="midnightblue" stroke="midnightblue" points="259.33,-74.5283 248.774,-75.4275 257.587,-81.3077 259.33,-74.5283"/>
</g>
<!-- Node5 -->
<g id="node9" class="node"><title>Node5</title>
<polygon fill="none" stroke="#bfbfbf" points="266.5,-56.5 266.5,-75.5 331.5,-75.5 331.5,-56.5 266.5,-56.5"/>
<text text-anchor="middle" x="299" y="-63.5" font-family="DejaVuSansMono" font-size="10.00">stdlib.h</text>
</g>
<!-- Node1&#45;&gt;Node5 -->
<g id="edge8" class="edge"><title>Node1&#45;&gt;Node5</title>
<path fill="none" stroke="midnightblue" d="M405.876,-112.444C384.976,-103.557 352.065,-89.5632 328.284,-79.4514"/>
<polygon fill="midnightblue" stroke="midnightblue" points="329.602,-76.2085 319.029,-75.5164 326.862,-82.6504 329.602,-76.2085"/>
</g>
<!-- Node6 -->
<g id="node11" class="node"><title>Node6</title>
<polygon fill="none" stroke="#bfbfbf" points="349.5,-56.5 349.5,-75.5 396.5,-75.5 396.5,-56.5 349.5,-56.5"/>
<text text-anchor="middle" x="373" y="-63.5" font-family="DejaVuSansMono" font-size="10.00">ini.h</text>
</g>
<!-- Node1&#45;&gt;Node6 -->
<g id="edge10" class="edge"><title>Node1&#45;&gt;Node6</title>
<path fill="none" stroke="midnightblue" d="M417.248,-112.083C409.53,-104.22 398.095,-92.5688 388.783,-83.0813"/>
<polygon fill="midnightblue" stroke="midnightblue" points="391.092,-80.4363 381.589,-75.7511 386.096,-85.3396 391.092,-80.4363"/>
</g>
<!-- Node7 -->
<g id="node13" class="node"><title>Node7</title>
<polygon fill="none" stroke="#bfbfbf" points="414.5,-56.5 414.5,-75.5 545.5,-75.5 545.5,-56.5 414.5,-56.5"/>
<text text-anchor="middle" x="480" y="-63.5" font-family="DejaVuSansMono" font-size="10.00">tj_searchpathlist.h</text>
</g>
<!-- Node1&#45;&gt;Node7 -->
<g id="edge12" class="edge"><title>Node1&#45;&gt;Node7</title>
<path fill="none" stroke="midnightblue" d="M434.917,-112.083C442.78,-104.22 454.431,-92.5688 463.919,-83.0813"/>
<polygon fill="midnightblue" stroke="midnightblue" points="466.653,-85.2971 471.249,-75.7511 461.703,-80.3473 466.653,-85.2971"/>
</g>
<!-- Node8 -->
<g id="node15" class="node"><title>Node8</title>
<a xlink:href="../../d7/d7f/log_8h.html" target="_top" xlink:title="Debugging and logging functions/macros.">
<polygon fill="none" stroke="black" points="563.5,-56.5 563.5,-75.5 610.5,-75.5 610.5,-56.5 563.5,-56.5"/>
<text text-anchor="middle" x="587" y="-63.5" font-family="DejaVuSansMono" font-size="10.00">log.h</text>
</a>
</g>
<!-- Node1&#45;&gt;Node8 -->
<g id="edge14" class="edge"><title>Node1&#45;&gt;Node8</title>
<path fill="none" stroke="midnightblue" d="M451.511,-112.444C479.154,-103.172 523.367,-88.3427 553.723,-78.1614"/>
<polygon fill="midnightblue" stroke="midnightblue" points="555.074,-81.3999 563.442,-74.9015 552.848,-74.7632 555.074,-81.3999"/>
</g>
<!-- Node12 -->
<g id="node23" class="node"><title>Node12</title>
<a xlink:href="../../d5/d60/utils_8h.html" target="_top" xlink:title="Miscellaneous utility functions.">
<polygon fill="none" stroke="black" points="628.5,-56.5 628.5,-75.5 687.5,-75.5 687.5,-56.5 628.5,-56.5"/>
<text text-anchor="middle" x="658" y="-63.5" font-family="DejaVuSansMono" font-size="10.00">utils.h</text>
</a>
</g>
<!-- Node1&#45;&gt;Node12 -->
<g id="edge22" class="edge"><title>Node1&#45;&gt;Node12</title>
<path fill="none" stroke="midnightblue" d="M462.761,-112.444C505.226,-102.56 574.828,-86.3589 618.443,-76.2072"/>
<polygon fill="midnightblue" stroke="midnightblue" points="619.458,-79.5646 628.404,-73.8886 617.871,-72.7468 619.458,-79.5646"/>
</g>
<!-- Node14 -->
<g id="node28" class="node"><title>Node14</title>
<a xlink:href="../../d5/d89/xmp3__module_8h.html" target="_top" xlink:title="Defines structures and functions for XMP3 extension modules.">
<polygon fill="none" stroke="black" points="705.5,-56.5 705.5,-75.5 800.5,-75.5 800.5,-56.5 705.5,-56.5"/>
<text text-anchor="middle" x="753" y="-63.5" font-family="DejaVuSansMono" font-size="10.00">xmp3_module.h</text>
</a>
</g>
<!-- Node1&#45;&gt;Node14 -->
<g id="edge28" class="edge"><title>Node1&#45;&gt;Node14</title>
<path fill="none" stroke="midnightblue" d="M477.814,-112.444C537.095,-102.654 633.897,-86.6684 695.47,-76.5003"/>
<polygon fill="midnightblue" stroke="midnightblue" points="696.118,-79.9409 705.414,-74.8583 694.977,-73.0344 696.118,-79.9409"/>
</g>
<!-- Node15 -->
<g id="node31" class="node"><title>Node15</title>
<a xlink:href="../../dc/d25/xmp3__options_8h.html" target="_top" xlink:title="Functions for maintaining settings for XMP3.">
<polygon fill="none" stroke="black" points="818.5,-56.5 818.5,-75.5 919.5,-75.5 919.5,-56.5 818.5,-56.5"/>
<text text-anchor="middle" x="869" y="-63.5" font-family="DejaVuSansMono" font-size="10.00">xmp3_options.h</text>
</a>
</g>
<!-- Node1&#45;&gt;Node15 -->
<g id="edge32" class="edge"><title>Node1&#45;&gt;Node15</title>
<path fill="none" stroke="midnightblue" d="M488.77,-114.247C562.621,-106.162 689.196,-91.8706 808.255,-76.0615"/>
<polygon fill="midnightblue" stroke="midnightblue" points="808.828,-79.5163 818.277,-74.7248 807.902,-72.5777 808.828,-79.5163"/>
</g>
<!-- Node9 -->
<g id="node17" class="node"><title>Node9</title>
<polygon fill="none" stroke="#bfbfbf" points="475.5,-0.5 475.5,-19.5 534.5,-19.5 534.5,-0.5 475.5,-0.5"/>
<text text-anchor="middle" x="505" y="-7.5" font-family="DejaVuSansMono" font-size="10.00">stdio.h</text>
</g>
<!-- Node8&#45;&gt;Node9 -->
<g id="edge16" class="edge"><title>Node8&#45;&gt;Node9</title>
<path fill="none" stroke="midnightblue" d="M573.825,-56.324C561.153,-47.979 541.767,-35.2122 526.794,-25.3524"/>
<polygon fill="midnightblue" stroke="midnightblue" points="528.419,-22.2313 518.142,-19.6545 524.569,-28.0776 528.419,-22.2313"/>
</g>
<!-- Node10 -->
<g id="node19" class="node"><title>Node10</title>
<polygon fill="none" stroke="#bfbfbf" points="552.5,-0.5 552.5,-19.5 611.5,-19.5 611.5,-0.5 552.5,-0.5"/>
<text text-anchor="middle" x="582" y="-7.5" font-family="DejaVuSansMono" font-size="10.00">errno.h</text>
</g>
<!-- Node8&#45;&gt;Node10 -->
<g id="edge18" class="edge"><title>Node8&#45;&gt;Node10</title>
<path fill="none" stroke="midnightblue" d="M586.174,-56.083C585.519,-49.0059 584.58,-38.8611 583.758,-29.9865"/>
<polygon fill="midnightblue" stroke="midnightblue" points="587.217,-29.3858 582.81,-19.7511 580.247,-30.0312 587.217,-29.3858"/>
</g>
<!-- Node11 -->
<g id="node21" class="node"><title>Node11</title>
<polygon fill="none" stroke="#bfbfbf" points="629.5,-0.5 629.5,-19.5 694.5,-19.5 694.5,-0.5 629.5,-0.5"/>
<text text-anchor="middle" x="662" y="-7.5" font-family="DejaVuSansMono" font-size="10.00">string.h</text>
</g>
<!-- Node8&#45;&gt;Node11 -->
<g id="edge20" class="edge"><title>Node8&#45;&gt;Node11</title>
<path fill="none" stroke="midnightblue" d="M599.05,-56.324C610.463,-48.1066 627.831,-35.6017 641.435,-25.8069"/>
<polygon fill="midnightblue" stroke="midnightblue" points="643.66,-28.5174 649.731,-19.8339 639.57,-22.8366 643.66,-28.5174"/>
</g>
<!-- Node12&#45;&gt;Node11 -->
<g id="edge26" class="edge"><title>Node12&#45;&gt;Node11</title>
<path fill="none" stroke="midnightblue" d="M658.661,-56.083C659.185,-49.0059 659.936,-38.8611 660.594,-29.9865"/>
<polygon fill="midnightblue" stroke="midnightblue" points="664.103,-29.9823 661.352,-19.7511 657.123,-29.4652 664.103,-29.9823"/>
</g>
<!-- Node13 -->
<g id="node25" class="node"><title>Node13</title>
<polygon fill="none" stroke="#bfbfbf" points="717.5,-0.5 717.5,-19.5 788.5,-19.5 788.5,-0.5 717.5,-0.5"/>
<text text-anchor="middle" x="753" y="-7.5" font-family="DejaVuSansMono" font-size="10.00">stdbool.h</text>
</g>
<!-- Node12&#45;&gt;Node13 -->
<g id="edge24" class="edge"><title>Node12&#45;&gt;Node13</title>
<path fill="none" stroke="midnightblue" d="M673.263,-56.324C688.221,-47.8215 711.255,-34.7288 728.727,-24.7975"/>
<polygon fill="midnightblue" stroke="midnightblue" points="730.81,-27.639 737.774,-19.6545 727.351,-21.5534 730.81,-27.639"/>
</g>
<!-- Node14&#45;&gt;Node13 -->
<g id="edge30" class="edge"><title>Node14&#45;&gt;Node13</title>
<path fill="none" stroke="midnightblue" d="M753,-56.083C753,-49.0059 753,-38.8611 753,-29.9865"/>
<polygon fill="midnightblue" stroke="midnightblue" points="756.5,-29.751 753,-19.7511 749.5,-29.7511 756.5,-29.751"/>
</g>
<!-- Node15&#45;&gt;Node13 -->
<g id="edge34" class="edge"><title>Node15&#45;&gt;Node13</title>
<path fill="none" stroke="midnightblue" d="M850.619,-56.4435C831.784,-47.6751 802.269,-33.9355 780.621,-23.8579"/>
<polygon fill="midnightblue" stroke="midnightblue" points="781.838,-20.5637 771.295,-19.5164 778.883,-26.9098 781.838,-20.5637"/>
</g>
<!-- Node16 -->
<g id="node34" class="node"><title>Node16</title>
<polygon fill="none" stroke="#bfbfbf" points="824.5,-0.5 824.5,-19.5 913.5,-19.5 913.5,-0.5 824.5,-0.5"/>
<text text-anchor="middle" x="869" y="-7.5" font-family="DejaVuSansMono" font-size="10.00">netinet/in.h</text>
</g>
<!-- Node15&#45;&gt;Node16 -->
<g id="edge36" class="edge"><title>Node15&#45;&gt;Node16</title>
<path fill="none" stroke="midnightblue" d="M869,-56.083C869,-49.0059 869,-38.8611 869,-29.9865"/>
<polygon fill="midnightblue" stroke="midnightblue" points="872.5,-29.751 869,-19.7511 865.5,-29.7511 872.5,-29.751"/>
</g>
</g>
</svg>
        <g id="navigator" transform="translate(0 0)" fill="#404254">
                <rect fill="#f2f5e9" fill-opacity="0.5" stroke="#606060" stroke-width=".5" x="0" y="0" width="60" height="60"/>
                <use id="zoomplus" xlink:href="#zoomPlus" x="17" y="9" onmousedown="handleZoom(evt,'in')"/>
                <use id="zoomminus" xlink:href="#zoomMin" x="42" y="9" onmousedown="handleZoom(evt,'out')"/>
                <use id="reset" xlink:href="#resetDef" x="30" y="36" onmousedown="handleReset()"/>
                <g id="arrowUp" xlink:href="#dirArrow" transform="translate(30 24)" onmousedown="handlePan(0,-1)">
                  <use xlink:href="#rim" fill="#404040">
                        <set attributeName="fill" to="#808080" begin="arrowUp.mouseover" end="arrowUp.mouseout"/>
                  </use>
                  <path fill="none" stroke="white" stroke-width="1.5" d="M0,-3.0v7 M-2.5,-0.5L0,-3.0L2.5,-0.5"/>
                </g>
                <g id="arrowRight" xlink:href="#dirArrow" transform="rotate(90) translate(36 -43)" onmousedown="handlePan(1,0)">
                  <use xlink:href="#rim" fill="#404040">
                        <set attributeName="fill" to="#808080" begin="arrowRight.mouseover" end="arrowRight.mouseout"/>
                  </use>
                  <path fill="none" stroke="white" stroke-width="1.5" d="M0,-3.0v7 M-2.5,-0.5L0,-3.0L2.5,-0.5"/>
                </g>
                <g id="arrowDown" xlink:href="#dirArrow" transform="rotate(180) translate(-30 -48)" onmousedown="handlePan(0,1)">
                  <use xlink:href="#rim" fill="#404040">
                        <set attributeName="fill" to="#808080" begin="arrowDown.mouseover" end="arrowDown.mouseout"/>
                  </use>
                  <path fill="none" stroke="white" stroke-width="1.5" d="M0,-3.0v7 M-2.5,-0.5L0,-3.0L2.5,-0.5"/>
                </g>
                <g id="arrowLeft" xlink:href="#dirArrow" transform="rotate(270) translate(-36 17)" onmousedown="handlePan(-1,0)">
                  <use xlink:href="#rim" fill="#404040">
                        <set attributeName="fill" to="#808080" begin="arrowLeft.mouseover" end="arrowLeft.mouseout"/>
                  </use>
                  <path fill="none" stroke="white" stroke-width="1.5" d="M0,-3.0v7 M-2.5,-0.5L0,-3.0L2.5,-0.5"/>
                </g>
        </g>
        <svg viewBox="0 0 25 25" width="100%" height="30px" preserveAspectRatio="xMaxYMin meet"> 
          <g id="printButton" transform="scale(0.4 0.4)" onmousedown="handlePrint(evt)">
            <rect height="23.33753581" id="paper" rx="2" style="fill:#f2f5e9;fill-rule:evenodd;stroke:#111111;stroke-width:3.224;stroke-linejoin:round;" transform="matrix(1.000000,0.000000,-0.339266,0.940691,0.000000,0.000000)" width="25.55231285" x="26.69387353" y="7.36162977"/>
            <rect height="26.272097" id="body" rx="2" style="fill:#404040;fill-rule:evenodd;stroke:#111111;stroke-width:3.125;stroke-linejoin:round;" width="50" x="4.5295201" y="27.078951"/>
            <rect height="8.27750969" id="tray" style="fill:#d2d5c9;fill-rule:evenodd;stroke:#111111;stroke-width:3.125;stroke-linecap:round;stroke-linejoin:round;" width="40" x="10.28778839" y="44.96812282"/>
          </g>
        </svg>
</svg>
