<?xml version="1.0" encoding="UTF-8" standalone="no"?>
<!DOCTYPE svg PUBLIC "-//W3C//DTD SVG 1.1//EN"
 "http://www.w3.org/Graphics/SVG/1.1/DTD/svg11.dtd">
<!-- Generated by graphviz version 2.28.0 (20120217.0315)
 -->
<!-- Title: G Pages: 1 -->
<svg width="494pt" height="28pt"
 viewBox="0.00 0.00 494.00 28.00" xmlns="http://www.w3.org/2000/svg" xmlns:xlink="http://www.w3.org/1999/xlink">
<g id="graph1" class="graph" transform="scale(1 1) rotate(0) translate(4 24)">
<title>G</title>
<!-- Node1 -->
<g id="node1" class="node"><title>Node1</title>
<polygon fill="#bfbfbf" stroke="black" points="0.5,-0.5 0.5,-19.5 161.5,-19.5 161.5,-0.5 0.5,-0.5"/>
<text text-anchor="middle" x="81" y="-7.5" font-family="DejaVuSansMono" font-size="10.00">xmp3_options_get_keyfile</text>
</g>
<!-- Node2 -->
<g id="node3" class="node"><title>Node2</title>
<a xlink:href="../../d0/df0/xmpp__server_8c.html#a5130c2d3b5b0db5c7ae0cd72b3f5f779" target="_top" xlink:title="Initializes the OpenSSL context, setting up the key and certificate.">
<polygon fill="none" stroke="black" points="198.5,-0.5 198.5,-19.5 263.5,-19.5 263.5,-0.5 198.5,-0.5"/>
<text text-anchor="middle" x="231" y="-7.5" font-family="DejaVuSansMono" font-size="10.00">init_ssl</text>
</a>
</g>
<!-- Node1&#45;&gt;Node2 -->
<g id="edge2" class="edge"><title>Node1&#45;&gt;Node2</title>
<path fill="none" stroke="midnightblue" d="M171.911,-10C181.283,-10 190.298,-10 198.314,-10"/>
<polygon fill="midnightblue" stroke="midnightblue" points="171.632,-6.5001 161.632,-10 171.632,-13.5001 171.632,-6.5001"/>
</g>
<!-- Node3 -->
<g id="node5" class="node"><title>Node3</title>
<a xlink:href="../../d1/d2e/xmpp__server_8h.html#a27bfc8e4d424a8bc17ab21a4a09cdf92" target="_top" xlink:title="Allocates and initializes the XMPP server.">
<polygon fill="none" stroke="black" points="300.5,-0.5 300.5,-19.5 407.5,-19.5 407.5,-0.5 300.5,-0.5"/>
<text text-anchor="middle" x="354" y="-7.5" font-family="DejaVuSansMono" font-size="10.00">xmpp_server_new</text>
</a>
</g>
<!-- Node2&#45;&gt;Node3 -->
<g id="edge4" class="edge"><title>Node2&#45;&gt;Node3</title>
<path fill="none" stroke="midnightblue" d="M273.883,-10C282.422,-10 291.509,-10 300.368,-10"/>
<polygon fill="midnightblue" stroke="midnightblue" points="273.791,-6.5001 263.791,-10 273.791,-13.5001 273.791,-6.5001"/>
</g>
<!-- Node4 -->
<g id="node7" class="node"><title>Node4</title>
<a xlink:href="../../d0/d29/main_8c.html#a0ddf1224851353fc92bfbff6f499fa97" target="_top" xlink:title="main">
<polygon fill="none" stroke="black" points="444.5,-0.5 444.5,-19.5 485.5,-19.5 485.5,-0.5 444.5,-0.5"/>
<text text-anchor="middle" x="465" y="-7.5" font-family="DejaVuSansMono" font-size="10.00">main</text>
</a>
</g>
<!-- Node3&#45;&gt;Node4 -->
<g id="edge6" class="edge"><title>Node3&#45;&gt;Node4</title>
<path fill="none" stroke="midnightblue" d="M417.751,-10C427.434,-10 436.761,-10 444.472,-10"/>
<polygon fill="midnightblue" stroke="midnightblue" points="417.584,-6.5001 407.584,-10 417.584,-13.5001 417.584,-6.5001"/>
</g>
</g>
</svg>
