<?xml version="1.0" encoding="UTF-8" standalone="no"?>
<!DOCTYPE svg PUBLIC "-//W3C//DTD SVG 1.1//EN"
 "http://www.w3.org/Graphics/SVG/1.1/DTD/svg11.dtd">
<!-- Generated by graphviz version 2.28.0 (20120217.0315)
 -->
<!-- Title: G Pages: 1 -->
<svg width="368pt" height="47pt"
 viewBox="0.00 0.00 368.00 47.00" xmlns="http://www.w3.org/2000/svg" xmlns:xlink="http://www.w3.org/1999/xlink">
<g id="graph1" class="graph" transform="scale(1 1) rotate(0) translate(4 43)">
<title>G</title>
<!-- Node1 -->
<g id="node1" class="node"><title>Node1</title>
<polygon fill="#bfbfbf" stroke="black" points="0.5,-19.5 0.5,-38.5 137.5,-38.5 137.5,-19.5 0.5,-19.5"/>
<text text-anchor="middle" x="69" y="-26.5" font-family="DejaVuSansMono" font-size="10.00">xmp3_options_get_ssl</text>
</g>
<!-- Node2 -->
<g id="node3" class="node"><title>Node2</title>
<a xlink:href="../../d0/d29/main_8c.html#a0ddf1224851353fc92bfbff6f499fa97" target="_top" xlink:title="main">
<polygon fill="none" stroke="black" points="318.5,-19.5 318.5,-38.5 359.5,-38.5 359.5,-19.5 318.5,-19.5"/>
<text text-anchor="middle" x="339" y="-26.5" font-family="DejaVuSansMono" font-size="10.00">main</text>
</a>
</g>
<!-- Node1&#45;&gt;Node2 -->
<g id="edge2" class="edge"><title>Node1&#45;&gt;Node2</title>
<path fill="none" stroke="midnightblue" d="M147.648,-29C206.477,-29 283.023,-29 318.443,-29"/>
<polygon fill="midnightblue" stroke="midnightblue" points="147.628,-25.5001 137.628,-29 147.628,-32.5001 147.628,-25.5001"/>
</g>
<!-- Node3 -->
<g id="node5" class="node"><title>Node3</title>
<a xlink:href="../../d1/d2e/xmpp__server_8h.html#a27bfc8e4d424a8bc17ab21a4a09cdf92" target="_top" xlink:title="Allocates and initializes the XMPP server.">
<polygon fill="none" stroke="black" points="174.5,-0.5 174.5,-19.5 281.5,-19.5 281.5,-0.5 174.5,-0.5"/>
<text text-anchor="middle" x="228" y="-7.5" font-family="DejaVuSansMono" font-size="10.00">xmpp_server_new</text>
</a>
</g>
<!-- Node1&#45;&gt;Node3 -->
<g id="edge4" class="edge"><title>Node1&#45;&gt;Node3</title>
<path fill="none" stroke="midnightblue" d="M147.927,-19.5693C156.789,-18.4968 165.661,-17.4231 174.091,-16.4029"/>
<polygon fill="midnightblue" stroke="midnightblue" points="147.456,-16.1007 137.949,-20.7768 148.297,-23.05 147.456,-16.1007"/>
</g>
<!-- Node3&#45;&gt;Node2 -->
<g id="edge6" class="edge"><title>Node3&#45;&gt;Node2</title>
<path fill="none" stroke="midnightblue" d="M291.445,-20.8849C301.237,-22.5918 310.68,-24.2378 318.472,-25.596"/>
<polygon fill="midnightblue" stroke="midnightblue" points="292.037,-17.4354 281.584,-19.1661 290.835,-24.3314 292.037,-17.4354"/>
</g>
</g>
</svg>
