<?xml version="1.0" encoding="UTF-8" standalone="no"?>
<!DOCTYPE svg PUBLIC "-//W3C//DTD SVG 1.1//EN"
 "http://www.w3.org/Graphics/SVG/1.1/DTD/svg11.dtd">
<!-- Generated by graphviz version 2.28.0 (20120217.0315)
 -->
<!-- Title: G Pages: 1 -->
<svg width="434pt" height="332pt"
 viewBox="0.00 0.00 434.00 332.00" xmlns="http://www.w3.org/2000/svg" xmlns:xlink="http://www.w3.org/1999/xlink">
<g id="graph1" class="graph" transform="scale(1 1) rotate(0) translate(4 328)">
<title>G</title>
<!-- Node1 -->
<g id="node1" class="node"><title>Node1</title>
<polygon fill="#bfbfbf" stroke="black" points="0.5,-152.5 0.5,-171.5 83.5,-171.5 83.5,-152.5 0.5,-152.5"/>
<text text-anchor="middle" x="42" y="-159.5" font-family="DejaVuSansMono" font-size="10.00">ini_handler</text>
</g>
<!-- Node2 -->
<g id="node3" class="node"><title>Node2</title>
<a xlink:href="../../dd/d68/xmp3__options_8c.html#aa1ba3db850b890eb6401b0d27bf5808e" target="_top" xlink:title="Set the address that the server should bind to.">
<polygon fill="none" stroke="black" points="129.5,-304.5 129.5,-323.5 296.5,-323.5 296.5,-304.5 129.5,-304.5"/>
<text text-anchor="middle" x="213" y="-311.5" font-family="DejaVuSansMono" font-size="10.00">xmp3_options_set_addr_str</text>
</a>
</g>
<!-- Node1&#45;&gt;Node2 -->
<g id="edge2" class="edge"><title>Node1&#45;&gt;Node2</title>
<path fill="none" stroke="midnightblue" d="M45.563,-171.559C52.7275,-196.321 75.422,-262.849 120,-295 122.563,-296.848 125.265,-298.526 128.07,-300.048"/>
<polygon fill="midnightblue" stroke="midnightblue" points="126.797,-303.317 137.337,-304.397 129.771,-296.98 126.797,-303.317"/>
</g>
<!-- Node3 -->
<g id="node5" class="node"><title>Node3</title>
<a xlink:href="../../dd/d68/xmp3__options_8c.html#acbb98846d1b189c321da9c3344924ff2" target="_top" xlink:title="Set the port that the server should bind to using a string.">
<polygon fill="none" stroke="black" points="129.5,-266.5 129.5,-285.5 296.5,-285.5 296.5,-266.5 129.5,-266.5"/>
<text text-anchor="middle" x="213" y="-273.5" font-family="DejaVuSansMono" font-size="10.00">xmp3_options_set_port_str</text>
</a>
</g>
<!-- Node1&#45;&gt;Node3 -->
<g id="edge4" class="edge"><title>Node1&#45;&gt;Node3</title>
<path fill="none" stroke="midnightblue" d="M47.8485,-171.645C58.2013,-191.173 84.4529,-235.369 120,-257 123.605,-259.194 127.421,-261.138 131.369,-262.861"/>
<polygon fill="midnightblue" stroke="midnightblue" points="130.192,-266.159 140.782,-266.493 132.712,-259.628 130.192,-266.159"/>
</g>
<!-- Node5 -->
<g id="node9" class="node"><title>Node5</title>
<a xlink:href="../../dd/d68/xmp3__options_8c.html#a68168550518ba4dc66d7fd7cd8c9ea35" target="_top" xlink:title="Enable/disable SSL support for the XMPP server.">
<polygon fill="none" stroke="black" points="144.5,-228.5 144.5,-247.5 281.5,-247.5 281.5,-228.5 144.5,-228.5"/>
<text text-anchor="middle" x="213" y="-235.5" font-family="DejaVuSansMono" font-size="10.00">xmp3_options_set_ssl</text>
</a>
</g>
<!-- Node1&#45;&gt;Node5 -->
<g id="edge8" class="edge"><title>Node1&#45;&gt;Node5</title>
<path fill="none" stroke="midnightblue" d="M53.0298,-171.72C66.9034,-184.591 93.2767,-207.052 120,-219 125.667,-221.534 131.683,-223.734 137.818,-225.644"/>
<polygon fill="midnightblue" stroke="midnightblue" points="136.948,-229.036 147.525,-228.413 138.868,-222.304 136.948,-229.036"/>
</g>
<!-- Node6 -->
<g id="node11" class="node"><title>Node6</title>
<a xlink:href="../../dd/d68/xmp3__options_8c.html#aff95f741533b65ab175d8db8364ac47a" target="_top" xlink:title="Set the path to the OpenSSL private key file to use.">
<polygon fill="none" stroke="black" points="132.5,-190.5 132.5,-209.5 293.5,-209.5 293.5,-190.5 132.5,-190.5"/>
<text text-anchor="middle" x="213" y="-197.5" font-family="DejaVuSansMono" font-size="10.00">xmp3_options_set_keyfile</text>
</a>
</g>
<!-- Node1&#45;&gt;Node6 -->
<g id="edge10" class="edge"><title>Node1&#45;&gt;Node6</title>
<path fill="none" stroke="midnightblue" d="M80.5294,-171.566C93.0574,-174.677 107.108,-178.079 120,-181 131.072,-183.508 142.925,-186.057 154.316,-188.44"/>
<polygon fill="midnightblue" stroke="midnightblue" points="153.673,-191.881 164.175,-190.485 155.095,-185.027 153.673,-191.881"/>
</g>
<!-- Node8 -->
<g id="node15" class="node"><title>Node8</title>
<a xlink:href="../../dd/d68/xmp3__options_8c.html#a9c72728768403b4b28237b0a9595e2c4" target="_top" xlink:title="Set the path to the OpenSSL certificate file.">
<polygon fill="none" stroke="black" points="120.5,-152.5 120.5,-171.5 305.5,-171.5 305.5,-152.5 120.5,-152.5"/>
<text text-anchor="middle" x="213" y="-159.5" font-family="DejaVuSansMono" font-size="10.00">xmp3_options_set_certificate</text>
</a>
</g>
<!-- Node1&#45;&gt;Node8 -->
<g id="edge14" class="edge"><title>Node1&#45;&gt;Node8</title>
<path fill="none" stroke="midnightblue" d="M83.9102,-162C92.0885,-162 101.017,-162 110.232,-162"/>
<polygon fill="midnightblue" stroke="midnightblue" points="110.321,-165.5 120.321,-162 110.321,-158.5 110.321,-165.5"/>
</g>
<!-- Node9 -->
<g id="node18" class="node"><title>Node9</title>
<a xlink:href="../../dd/d68/xmp3__options_8c.html#a2a3941189614387781d9ce32974cdf69" target="_top" xlink:title="Set the name of the XMPP server (used for the domainpart).">
<polygon fill="none" stroke="black" points="120.5,-114.5 120.5,-133.5 305.5,-133.5 305.5,-114.5 120.5,-114.5"/>
<text text-anchor="middle" x="213" y="-121.5" font-family="DejaVuSansMono" font-size="10.00">xmp3_options_set_server_name</text>
</a>
</g>
<!-- Node1&#45;&gt;Node9 -->
<g id="edge18" class="edge"><title>Node1&#45;&gt;Node9</title>
<path fill="none" stroke="midnightblue" d="M80.5294,-152.434C93.0574,-149.323 107.108,-145.921 120,-143 131.072,-140.492 142.925,-137.943 154.316,-135.56"/>
<polygon fill="midnightblue" stroke="midnightblue" points="155.095,-138.973 164.175,-133.515 153.673,-132.119 155.095,-138.973"/>
</g>
<!-- Node10 -->
<g id="node21" class="node"><title>Node10</title>
<a xlink:href="../../dd/d68/xmp3__options_8c.html#ac86ab03d220a93f6927fc22a79192b22" target="_top" xlink:title="Adds a path to the extension module search path.">
<polygon fill="none" stroke="black" points="120.5,-76.5 120.5,-95.5 305.5,-95.5 305.5,-76.5 120.5,-76.5"/>
<text text-anchor="middle" x="213" y="-83.5" font-family="DejaVuSansMono" font-size="10.00">xmp3_options_add_module_path</text>
</a>
</g>
<!-- Node1&#45;&gt;Node10 -->
<g id="edge22" class="edge"><title>Node1&#45;&gt;Node10</title>
<path fill="none" stroke="midnightblue" d="M53.0298,-152.28C66.9034,-139.409 93.2767,-116.948 120,-105 125.667,-102.466 131.683,-100.266 137.818,-98.3558"/>
<polygon fill="midnightblue" stroke="midnightblue" points="138.868,-101.696 147.525,-95.587 136.948,-94.9643 138.868,-101.696"/>
</g>
<!-- Node11 -->
<g id="node23" class="node"><title>Node11</title>
<a xlink:href="../../d3/dd8/xmp3__module_8c.html#afcade838b5776e223ce72dcf9eccaceb" target="_top" xlink:title="xmp3_modules_load">
<polygon fill="none" stroke="black" points="153.5,-38.5 153.5,-57.5 272.5,-57.5 272.5,-38.5 153.5,-38.5"/>
<text text-anchor="middle" x="213" y="-45.5" font-family="DejaVuSansMono" font-size="10.00">xmp3_modules_load</text>
</a>
</g>
<!-- Node1&#45;&gt;Node11 -->
<g id="edge24" class="edge"><title>Node1&#45;&gt;Node11</title>
<path fill="none" stroke="midnightblue" d="M47.8485,-152.355C58.2013,-132.827 84.4529,-88.6313 120,-67 127.21,-62.6125 135.265,-59.2225 143.528,-56.6059"/>
<polygon fill="midnightblue" stroke="midnightblue" points="144.598,-59.9409 153.285,-53.8761 142.712,-53.1997 144.598,-59.9409"/>
</g>
<!-- Node12 -->
<g id="node25" class="node"><title>Node12</title>
<a xlink:href="../../d3/dd8/xmp3__module_8c.html#a9ab0467f25b9c9a2e33ac3cdecdb315f" target="_top" xlink:title="xmp3_modules_config">
<polygon fill="none" stroke="black" points="147.5,-0.5 147.5,-19.5 278.5,-19.5 278.5,-0.5 147.5,-0.5"/>
<text text-anchor="middle" x="213" y="-7.5" font-family="DejaVuSansMono" font-size="10.00">xmp3_modules_config</text>
</a>
</g>
<!-- Node1&#45;&gt;Node12 -->
<g id="edge26" class="edge"><title>Node1&#45;&gt;Node12</title>
<path fill="none" stroke="midnightblue" d="M45.563,-152.441C52.7275,-127.679 75.422,-61.1508 120,-29 125.295,-25.1809 131.184,-22.0916 137.351,-19.5973"/>
<polygon fill="midnightblue" stroke="midnightblue" points="138.94,-22.7498 147.227,-16.148 136.632,-16.1413 138.94,-22.7498"/>
</g>
<!-- Node4 -->
<g id="node7" class="node"><title>Node4</title>
<a xlink:href="../../d3/d91/utils_8c.html#a9b37013d0f910039c8e0fb81b04af602" target="_top" xlink:title="Converts a string to an integer with error checking.">
<polygon fill="none" stroke="black" points="351.5,-266.5 351.5,-285.5 416.5,-285.5 416.5,-266.5 351.5,-266.5"/>
<text text-anchor="middle" x="384" y="-273.5" font-family="DejaVuSansMono" font-size="10.00">read_int</text>
</a>
</g>
<!-- Node3&#45;&gt;Node4 -->
<g id="edge6" class="edge"><title>Node3&#45;&gt;Node4</title>
<path fill="none" stroke="midnightblue" d="M296.52,-276C311.858,-276 327.284,-276 340.773,-276"/>
<polygon fill="midnightblue" stroke="midnightblue" points="341.138,-279.5 351.138,-276 341.138,-272.5 341.138,-279.5"/>
</g>
<!-- Node7 -->
<g id="node13" class="node"><title>Node7</title>
<a xlink:href="../../d3/d91/utils_8c.html#a07891e77aee8f9b825d52bd33e474f30" target="_top" xlink:title="Simple string copy, freeing original if neccessary.">
<polygon fill="none" stroke="black" points="342.5,-152.5 342.5,-171.5 425.5,-171.5 425.5,-152.5 342.5,-152.5"/>
<text text-anchor="middle" x="384" y="-159.5" font-family="DejaVuSansMono" font-size="10.00">copy_string</text>
</a>
</g>
<!-- Node6&#45;&gt;Node7 -->
<g id="edge12" class="edge"><title>Node6&#45;&gt;Node7</title>
<path fill="none" stroke="midnightblue" d="M261.825,-190.485C276.064,-187.554 291.684,-184.243 306,-181 315.568,-178.832 325.775,-176.4 335.523,-174.017"/>
<polygon fill="midnightblue" stroke="midnightblue" points="336.599,-177.357 345.471,-171.566 334.924,-170.56 336.599,-177.357"/>
</g>
<!-- Node8&#45;&gt;Node7 -->
<g id="edge16" class="edge"><title>Node8&#45;&gt;Node7</title>
<path fill="none" stroke="midnightblue" d="M305.918,-162C314.845,-162 323.661,-162 331.963,-162"/>
<polygon fill="midnightblue" stroke="midnightblue" points="332.174,-165.5 342.174,-162 332.174,-158.5 332.174,-165.5"/>
</g>
<!-- Node9&#45;&gt;Node7 -->
<g id="edge20" class="edge"><title>Node9&#45;&gt;Node7</title>
<path fill="none" stroke="midnightblue" d="M261.825,-133.515C276.064,-136.446 291.684,-139.757 306,-143 315.568,-145.168 325.775,-147.6 335.523,-149.983"/>
<polygon fill="midnightblue" stroke="midnightblue" points="334.924,-153.44 345.471,-152.434 336.599,-146.643 334.924,-153.44"/>
</g>
</g>
</svg>
