<?xml version="1.0" encoding="UTF-8" standalone="no"?>
<!DOCTYPE svg PUBLIC "-//W3C//DTD SVG 1.1//EN"
 "http://www.w3.org/Graphics/SVG/1.1/DTD/svg11.dtd">
<!-- Generated by graphviz version 2.28.0 (20120217.0315)
 -->
<!-- Title: G Pages: 1 -->
<svg width="386pt" height="28pt"
 viewBox="0.00 0.00 386.00 28.00" xmlns="http://www.w3.org/2000/svg" xmlns:xlink="http://www.w3.org/1999/xlink">
<g id="graph1" class="graph" transform="scale(1 1) rotate(0) translate(4 24)">
<title>G</title>
<!-- Node1 -->
<g id="node1" class="node"><title>Node1</title>
<polygon fill="#bfbfbf" stroke="black" points="0.5,-0.5 0.5,-19.5 83.5,-19.5 83.5,-0.5 0.5,-0.5"/>
<text text-anchor="middle" x="42" y="-7.5" font-family="DejaVuSansMono" font-size="10.00">ini_handler</text>
</g>
<!-- Node2 -->
<g id="node3" class="node"><title>Node2</title>
<a xlink:href="../../dc/d25/xmp3__options_8h.html#a5df01d376481ee0326ff253fa9af2e11" target="_top" xlink:title="Load a configuration from an ini&#45;style config.">
<polygon fill="none" stroke="black" points="120.5,-0.5 120.5,-19.5 299.5,-19.5 299.5,-0.5 120.5,-0.5"/>
<text text-anchor="middle" x="210" y="-7.5" font-family="DejaVuSansMono" font-size="10.00">xmp3_options_load_conf_file</text>
</a>
</g>
<!-- Node1&#45;&gt;Node2 -->
<g id="edge2" class="edge"><title>Node1&#45;&gt;Node2</title>
<path fill="none" stroke="midnightblue" d="M93.6718,-10C102.164,-10 111.192,-10 120.311,-10"/>
<polygon fill="midnightblue" stroke="midnightblue" points="93.6082,-6.5001 83.6082,-10 93.6081,-13.5001 93.6082,-6.5001"/>
</g>
<!-- Node3 -->
<g id="node5" class="node"><title>Node3</title>
<a xlink:href="../../d0/d29/main_8c.html#a0ddf1224851353fc92bfbff6f499fa97" target="_top" xlink:title="main">
<polygon fill="none" stroke="black" points="336.5,-0.5 336.5,-19.5 377.5,-19.5 377.5,-0.5 336.5,-0.5"/>
<text text-anchor="middle" x="357" y="-7.5" font-family="DejaVuSansMono" font-size="10.00">main</text>
</a>
</g>
<!-- Node2&#45;&gt;Node3 -->
<g id="edge4" class="edge"><title>Node2&#45;&gt;Node3</title>
<path fill="none" stroke="midnightblue" d="M309.686,-10C319.628,-10 328.811,-10 336.334,-10"/>
<polygon fill="midnightblue" stroke="midnightblue" points="309.524,-6.5001 299.524,-10 309.524,-13.5001 309.524,-6.5001"/>
</g>
</g>
</svg>
