<?xml version="1.0" encoding="UTF-8" standalone="no"?>
<!DOCTYPE svg PUBLIC "-//W3C//DTD SVG 1.1//EN"
 "http://www.w3.org/Graphics/SVG/1.1/DTD/svg11.dtd">
<!-- Generated by graphviz version 2.28.0 (20120217.0315)
 -->
<!-- Title: G Pages: 1 -->
<!--zoomable 332 -->
<svg id="main" version="1.1" xmlns="http://www.w3.org/2000/svg" xmlns:xlink="http://www.w3.org/1999/xlink" xml:space="preserve" onload="init(evt)">
        <defs>
                <circle id="rim" cx="0" cy="0" r="7"/>
                <circle id="rim2" cx="0" cy="0" r="3.5"/>
                <g id="zoomPlus">
                        <use xlink:href="#rim" fill="#404040">
                                <set attributeName="fill" to="#808080" begin="zoomplus.mouseover" end="zoomplus.mouseout"/>
                        </use>
                        <path d="M-4,0h8M0,-4v8" fill="none" stroke="white" stroke-width="1.5" pointer-events="none"/>
                </g>
                <g id="zoomMin">
                        <use xlink:href="#rim" fill="#404040">
                                <set attributeName="fill" to="#808080" begin="zoomminus.mouseover" end="zoomminus.mouseout"/>
                        </use>
                        <path d="M-4,0h8" fill="none" stroke="white" stroke-width="1.5" pointer-events="none"/>
                </g>
                <g id="dirArrow">
                        <path fill="none" stroke="white" stroke-width="1.5" d="M0,-3.0v7 M-2.5,-0.5L0,-3.0L2.5,-0.5"/>
                </g>
               <g id="resetDef">
                       <use xlink:href="#rim2" fill="#404040">
                               <set attributeName="fill" to="#808080" begin="reset.mouseover" end="reset.mouseout"/>
                       </use>
               </g>
        </defs>

<script type="text/javascript">
var viewWidth = 650;
var viewHeight = 332;
var sectionId = 'dynsection-16';
</script>
<script xlink:href="../../svgpan.js"/>
<svg id="graph" class="graph">
<g id="viewport">
<title>G</title>
<!-- Node1 -->
<g id="node1" class="node"><title>Node1</title>
<polygon fill="#bfbfbf" stroke="black" points="0.5,-152.5 0.5,-171.5 179.5,-171.5 179.5,-152.5 0.5,-152.5"/>
<text text-anchor="middle" x="90" y="-159.5" font-family="DejaVuSansMono" font-size="10.00">xmp3_options_load_conf_file</text>
</g>
<!-- Node2 -->
<g id="node3" class="node"><title>Node2</title>
<a xlink:href="../../dd/d68/xmp3__options_8c.html#a8414633ed403260567569dbc9ee00434" target="_top" xlink:title="Callback used by config file parser.">
<polygon fill="none" stroke="black" points="216.5,-152.5 216.5,-171.5 299.5,-171.5 299.5,-152.5 216.5,-152.5"/>
<text text-anchor="middle" x="258" y="-159.5" font-family="DejaVuSansMono" font-size="10.00">ini_handler</text>
</a>
</g>
<!-- Node1&#45;&gt;Node2 -->
<g id="edge2" class="edge"><title>Node1&#45;&gt;Node2</title>
<path fill="none" stroke="midnightblue" d="M179.832,-162C188.929,-162 197.932,-162 206.402,-162"/>
<polygon fill="midnightblue" stroke="midnightblue" points="206.438,-165.5 216.438,-162 206.438,-158.5 206.438,-165.5"/>
</g>
<!-- Node3 -->
<g id="node5" class="node"><title>Node3</title>
<a xlink:href="../../dd/d68/xmp3__options_8c.html#aa1ba3db850b890eb6401b0d27bf5808e" target="_top" xlink:title="Set the address that the server should bind to.">
<polygon fill="none" stroke="black" points="345.5,-304.5 345.5,-323.5 512.5,-323.5 512.5,-304.5 345.5,-304.5"/>
<text text-anchor="middle" x="429" y="-311.5" font-family="DejaVuSansMono" font-size="10.00">xmp3_options_set_addr_str</text>
</a>
</g>
<!-- Node2&#45;&gt;Node3 -->
<g id="edge4" class="edge"><title>Node2&#45;&gt;Node3</title>
<path fill="none" stroke="midnightblue" d="M261.563,-171.559C268.728,-196.321 291.422,-262.849 336,-295 338.563,-296.848 341.265,-298.526 344.07,-300.048"/>
<polygon fill="midnightblue" stroke="midnightblue" points="342.797,-303.317 353.337,-304.397 345.771,-296.98 342.797,-303.317"/>
</g>
<!-- Node4 -->
<g id="node7" class="node"><title>Node4</title>
<a xlink:href="../../dd/d68/xmp3__options_8c.html#acbb98846d1b189c321da9c3344924ff2" target="_top" xlink:title="Set the port that the server should bind to using a string.">
<polygon fill="none" stroke="black" points="345.5,-266.5 345.5,-285.5 512.5,-285.5 512.5,-266.5 345.5,-266.5"/>
<text text-anchor="middle" x="429" y="-273.5" font-family="DejaVuSansMono" font-size="10.00">xmp3_options_set_port_str</text>
</a>
</g>
<!-- Node2&#45;&gt;Node4 -->
<g id="edge6" class="edge"><title>Node2&#45;&gt;Node4</title>
<path fill="none" stroke="midnightblue" d="M263.849,-171.645C274.201,-191.173 300.453,-235.369 336,-257 339.605,-259.194 343.421,-261.138 347.369,-262.861"/>
<polygon fill="midnightblue" stroke="midnightblue" points="346.192,-266.159 356.782,-266.493 348.712,-259.628 346.192,-266.159"/>
</g>
<!-- Node6 -->
<g id="node11" class="node"><title>Node6</title>
<a xlink:href="../../dd/d68/xmp3__options_8c.html#a68168550518ba4dc66d7fd7cd8c9ea35" target="_top" xlink:title="Enable/disable SSL support for the XMPP server.">
<polygon fill="none" stroke="black" points="360.5,-228.5 360.5,-247.5 497.5,-247.5 497.5,-228.5 360.5,-228.5"/>
<text text-anchor="middle" x="429" y="-235.5" font-family="DejaVuSansMono" font-size="10.00">xmp3_options_set_ssl</text>
</a>
</g>
<!-- Node2&#45;&gt;Node6 -->
<g id="edge10" class="edge"><title>Node2&#45;&gt;Node6</title>
<path fill="none" stroke="midnightblue" d="M269.03,-171.72C282.903,-184.591 309.277,-207.052 336,-219 341.667,-221.534 347.683,-223.734 353.818,-225.644"/>
<polygon fill="midnightblue" stroke="midnightblue" points="352.948,-229.036 363.525,-228.413 354.868,-222.304 352.948,-229.036"/>
</g>
<!-- Node7 -->
<g id="node13" class="node"><title>Node7</title>
<a xlink:href="../../dd/d68/xmp3__options_8c.html#aff95f741533b65ab175d8db8364ac47a" target="_top" xlink:title="Set the path to the OpenSSL private key file to use.">
<polygon fill="none" stroke="black" points="348.5,-190.5 348.5,-209.5 509.5,-209.5 509.5,-190.5 348.5,-190.5"/>
<text text-anchor="middle" x="429" y="-197.5" font-family="DejaVuSansMono" font-size="10.00">xmp3_options_set_keyfile</text>
</a>
</g>
<!-- Node2&#45;&gt;Node7 -->
<g id="edge12" class="edge"><title>Node2&#45;&gt;Node7</title>
<path fill="none" stroke="midnightblue" d="M296.529,-171.566C309.057,-174.677 323.108,-178.079 336,-181 347.072,-183.508 358.925,-186.057 370.316,-188.44"/>
<polygon fill="midnightblue" stroke="midnightblue" points="369.673,-191.881 380.175,-190.485 371.095,-185.027 369.673,-191.881"/>
</g>
<!-- Node9 -->
<g id="node17" class="node"><title>Node9</title>
<a xlink:href="../../dd/d68/xmp3__options_8c.html#a9c72728768403b4b28237b0a9595e2c4" target="_top" xlink:title="Set the path to the OpenSSL certificate file.">
<polygon fill="none" stroke="black" points="336.5,-152.5 336.5,-171.5 521.5,-171.5 521.5,-152.5 336.5,-152.5"/>
<text text-anchor="middle" x="429" y="-159.5" font-family="DejaVuSansMono" font-size="10.00">xmp3_options_set_certificate</text>
</a>
</g>
<!-- Node2&#45;&gt;Node9 -->
<g id="edge16" class="edge"><title>Node2&#45;&gt;Node9</title>
<path fill="none" stroke="midnightblue" d="M299.91,-162C308.088,-162 317.017,-162 326.232,-162"/>
<polygon fill="midnightblue" stroke="midnightblue" points="326.321,-165.5 336.321,-162 326.321,-158.5 326.321,-165.5"/>
</g>
<!-- Node10 -->
<g id="node20" class="node"><title>Node10</title>
<a xlink:href="../../dd/d68/xmp3__options_8c.html#a2a3941189614387781d9ce32974cdf69" target="_top" xlink:title="Set the name of the XMPP server (used for the domainpart).">
<polygon fill="none" stroke="black" points="336.5,-114.5 336.5,-133.5 521.5,-133.5 521.5,-114.5 336.5,-114.5"/>
<text text-anchor="middle" x="429" y="-121.5" font-family="DejaVuSansMono" font-size="10.00">xmp3_options_set_server_name</text>
</a>
</g>
<!-- Node2&#45;&gt;Node10 -->
<g id="edge20" class="edge"><title>Node2&#45;&gt;Node10</title>
<path fill="none" stroke="midnightblue" d="M296.529,-152.434C309.057,-149.323 323.108,-145.921 336,-143 347.072,-140.492 358.925,-137.943 370.316,-135.56"/>
<polygon fill="midnightblue" stroke="midnightblue" points="371.095,-138.973 380.175,-133.515 369.673,-132.119 371.095,-138.973"/>
</g>
<!-- Node11 -->
<g id="node23" class="node"><title>Node11</title>
<a xlink:href="../../dd/d68/xmp3__options_8c.html#ac86ab03d220a93f6927fc22a79192b22" target="_top" xlink:title="Adds a path to the extension module search path.">
<polygon fill="none" stroke="black" points="336.5,-76.5 336.5,-95.5 521.5,-95.5 521.5,-76.5 336.5,-76.5"/>
<text text-anchor="middle" x="429" y="-83.5" font-family="DejaVuSansMono" font-size="10.00">xmp3_options_add_module_path</text>
</a>
</g>
<!-- Node2&#45;&gt;Node11 -->
<g id="edge24" class="edge"><title>Node2&#45;&gt;Node11</title>
<path fill="none" stroke="midnightblue" d="M269.03,-152.28C282.903,-139.409 309.277,-116.948 336,-105 341.667,-102.466 347.683,-100.266 353.818,-98.3558"/>
<polygon fill="midnightblue" stroke="midnightblue" points="354.868,-101.696 363.525,-95.587 352.948,-94.9643 354.868,-101.696"/>
</g>
<!-- Node12 -->
<g id="node25" class="node"><title>Node12</title>
<a xlink:href="../../d3/dd8/xmp3__module_8c.html#afcade838b5776e223ce72dcf9eccaceb" target="_top" xlink:title="xmp3_modules_load">
<polygon fill="none" stroke="black" points="369.5,-38.5 369.5,-57.5 488.5,-57.5 488.5,-38.5 369.5,-38.5"/>
<text text-anchor="middle" x="429" y="-45.5" font-family="DejaVuSansMono" font-size="10.00">xmp3_modules_load</text>
</a>
</g>
<!-- Node2&#45;&gt;Node12 -->
<g id="edge26" class="edge"><title>Node2&#45;&gt;Node12</title>
<path fill="none" stroke="midnightblue" d="M263.849,-152.355C274.201,-132.827 300.453,-88.6313 336,-67 343.21,-62.6125 351.265,-59.2225 359.528,-56.6059"/>
<polygon fill="midnightblue" stroke="midnightblue" points="360.598,-59.9409 369.285,-53.8761 358.712,-53.1997 360.598,-59.9409"/>
</g>
<!-- Node13 -->
<g id="node27" class="node"><title>Node13</title>
<a xlink:href="../../d3/dd8/xmp3__module_8c.html#a9ab0467f25b9c9a2e33ac3cdecdb315f" target="_top" xlink:title="xmp3_modules_config">
<polygon fill="none" stroke="black" points="363.5,-0.5 363.5,-19.5 494.5,-19.5 494.5,-0.5 363.5,-0.5"/>
<text text-anchor="middle" x="429" y="-7.5" font-family="DejaVuSansMono" font-size="10.00">xmp3_modules_config</text>
</a>
</g>
<!-- Node2&#45;&gt;Node13 -->
<g id="edge28" class="edge"><title>Node2&#45;&gt;Node13</title>
<path fill="none" stroke="midnightblue" d="M261.563,-152.441C268.728,-127.679 291.422,-61.1508 336,-29 341.295,-25.1809 347.184,-22.0916 353.351,-19.5973"/>
<polygon fill="midnightblue" stroke="midnightblue" points="354.94,-22.7498 363.227,-16.148 352.632,-16.1413 354.94,-22.7498"/>
</g>
<!-- Node5 -->
<g id="node9" class="node"><title>Node5</title>
<a xlink:href="../../d3/d91/utils_8c.html#a9b37013d0f910039c8e0fb81b04af602" target="_top" xlink:title="Converts a string to an integer with error checking.">
<polygon fill="none" stroke="black" points="567.5,-266.5 567.5,-285.5 632.5,-285.5 632.5,-266.5 567.5,-266.5"/>
<text text-anchor="middle" x="600" y="-273.5" font-family="DejaVuSansMono" font-size="10.00">read_int</text>
</a>
</g>
<!-- Node4&#45;&gt;Node5 -->
<g id="edge8" class="edge"><title>Node4&#45;&gt;Node5</title>
<path fill="none" stroke="midnightblue" d="M512.52,-276C527.858,-276 543.284,-276 556.773,-276"/>
<polygon fill="midnightblue" stroke="midnightblue" points="557.138,-279.5 567.138,-276 557.138,-272.5 557.138,-279.5"/>
</g>
<!-- Node8 -->
<g id="node15" class="node"><title>Node8</title>
<a xlink:href="../../d3/d91/utils_8c.html#a07891e77aee8f9b825d52bd33e474f30" target="_top" xlink:title="Simple string copy, freeing original if neccessary.">
<polygon fill="none" stroke="black" points="558.5,-152.5 558.5,-171.5 641.5,-171.5 641.5,-152.5 558.5,-152.5"/>
<text text-anchor="middle" x="600" y="-159.5" font-family="DejaVuSansMono" font-size="10.00">copy_string</text>
</a>
</g>
<!-- Node7&#45;&gt;Node8 -->
<g id="edge14" class="edge"><title>Node7&#45;&gt;Node8</title>
<path fill="none" stroke="midnightblue" d="M477.825,-190.485C492.064,-187.554 507.684,-184.243 522,-181 531.568,-178.832 541.775,-176.4 551.523,-174.017"/>
<polygon fill="midnightblue" stroke="midnightblue" points="552.599,-177.357 561.471,-171.566 550.924,-170.56 552.599,-177.357"/>
</g>
<!-- Node9&#45;&gt;Node8 -->
<g id="edge18" class="edge"><title>Node9&#45;&gt;Node8</title>
<path fill="none" stroke="midnightblue" d="M521.918,-162C530.845,-162 539.661,-162 547.963,-162"/>
<polygon fill="midnightblue" stroke="midnightblue" points="548.174,-165.5 558.174,-162 548.174,-158.5 548.174,-165.5"/>
</g>
<!-- Node10&#45;&gt;Node8 -->
<g id="edge22" class="edge"><title>Node10&#45;&gt;Node8</title>
<path fill="none" stroke="midnightblue" d="M477.825,-133.515C492.064,-136.446 507.684,-139.757 522,-143 531.568,-145.168 541.775,-147.6 551.523,-149.983"/>
<polygon fill="midnightblue" stroke="midnightblue" points="550.924,-153.44 561.471,-152.434 552.599,-146.643 550.924,-153.44"/>
</g>
</g>
</svg>
        <g id="navigator" transform="translate(0 0)" fill="#404254">
                <rect fill="#f2f5e9" fill-opacity="0.5" stroke="#606060" stroke-width=".5" x="0" y="0" width="60" height="60"/>
                <use id="zoomplus" xlink:href="#zoomPlus" x="17" y="9" onmousedown="handleZoom(evt,'in')"/>
                <use id="zoomminus" xlink:href="#zoomMin" x="42" y="9" onmousedown="handleZoom(evt,'out')"/>
                <use id="reset" xlink:href="#resetDef" x="30" y="36" onmousedown="handleReset()"/>
                <g id="arrowUp" xlink:href="#dirArrow" transform="translate(30 24)" onmousedown="handlePan(0,-1)">
                  <use xlink:href="#rim" fill="#404040">
                        <set attributeName="fill" to="#808080" begin="arrowUp.mouseover" end="arrowUp.mouseout"/>
                  </use>
                  <path fill="none" stroke="white" stroke-width="1.5" d="M0,-3.0v7 M-2.5,-0.5L0,-3.0L2.5,-0.5"/>
                </g>
                <g id="arrowRight" xlink:href="#dirArrow" transform="rotate(90) translate(36 -43)" onmousedown="handlePan(1,0)">
                  <use xlink:href="#rim" fill="#404040">
                        <set attributeName="fill" to="#808080" begin="arrowRight.mouseover" end="arrowRight.mouseout"/>
                  </use>
                  <path fill="none" stroke="white" stroke-width="1.5" d="M0,-3.0v7 M-2.5,-0.5L0,-3.0L2.5,-0.5"/>
                </g>
                <g id="arrowDown" xlink:href="#dirArrow" transform="rotate(180) translate(-30 -48)" onmousedown="handlePan(0,1)">
                  <use xlink:href="#rim" fill="#404040">
                        <set attributeName="fill" to="#808080" begin="arrowDown.mouseover" end="arrowDown.mouseout"/>
                  </use>
                  <path fill="none" stroke="white" stroke-width="1.5" d="M0,-3.0v7 M-2.5,-0.5L0,-3.0L2.5,-0.5"/>
                </g>
                <g id="arrowLeft" xlink:href="#dirArrow" transform="rotate(270) translate(-36 17)" onmousedown="handlePan(-1,0)">
                  <use xlink:href="#rim" fill="#404040">
                        <set attributeName="fill" to="#808080" begin="arrowLeft.mouseover" end="arrowLeft.mouseout"/>
                  </use>
                  <path fill="none" stroke="white" stroke-width="1.5" d="M0,-3.0v7 M-2.5,-0.5L0,-3.0L2.5,-0.5"/>
                </g>
        </g>
        <svg viewBox="0 0 25 25" width="100%" height="30px" preserveAspectRatio="xMaxYMin meet"> 
          <g id="printButton" transform="scale(0.4 0.4)" onmousedown="handlePrint(evt)">
            <rect height="23.33753581" id="paper" rx="2" style="fill:#f2f5e9;fill-rule:evenodd;stroke:#111111;stroke-width:3.224;stroke-linejoin:round;" transform="matrix(1.000000,0.000000,-0.339266,0.940691,0.000000,0.000000)" width="25.55231285" x="26.69387353" y="7.36162977"/>
            <rect height="26.272097" id="body" rx="2" style="fill:#404040;fill-rule:evenodd;stroke:#111111;stroke-width:3.125;stroke-linejoin:round;" width="50" x="4.5295201" y="27.078951"/>
            <rect height="8.27750969" id="tray" style="fill:#d2d5c9;fill-rule:evenodd;stroke:#111111;stroke-width:3.125;stroke-linecap:round;stroke-linejoin:round;" width="40" x="10.28778839" y="44.96812282"/>
          </g>
        </svg>
</svg>
