<?xml version="1.0" encoding="UTF-8" standalone="no"?>
<!DOCTYPE svg PUBLIC "-//W3C//DTD SVG 1.1//EN"
 "http://www.w3.org/Graphics/SVG/1.1/DTD/svg11.dtd">
<!-- Generated by graphviz version 2.28.0 (20120217.0315)
 -->
<!-- Title: G Pages: 1 -->
<!--zoomable 140 -->
<svg id="main" version="1.1" xmlns="http://www.w3.org/2000/svg" xmlns:xlink="http://www.w3.org/1999/xlink" xml:space="preserve" onload="init(evt)">
        <defs>
                <circle id="rim" cx="0" cy="0" r="7"/>
                <circle id="rim2" cx="0" cy="0" r="3.5"/>
                <g id="zoomPlus">
                        <use xlink:href="#rim" fill="#404040">
                                <set attributeName="fill" to="#808080" begin="zoomplus.mouseover" end="zoomplus.mouseout"/>
                        </use>
                        <path d="M-4,0h8M0,-4v8" fill="none" stroke="white" stroke-width="1.5" pointer-events="none"/>
                </g>
                <g id="zoomMin">
                        <use xlink:href="#rim" fill="#404040">
                                <set attributeName="fill" to="#808080" begin="zoomminus.mouseover" end="zoomminus.mouseout"/>
                        </use>
                        <path d="M-4,0h8" fill="none" stroke="white" stroke-width="1.5" pointer-events="none"/>
                </g>
                <g id="dirArrow">
                        <path fill="none" stroke="white" stroke-width="1.5" d="M0,-3.0v7 M-2.5,-0.5L0,-3.0L2.5,-0.5"/>
                </g>
               <g id="resetDef">
                       <use xlink:href="#rim2" fill="#404040">
                               <set attributeName="fill" to="#808080" begin="reset.mouseover" end="reset.mouseout"/>
                       </use>
               </g>
        </defs>

<script type="text/javascript">
var viewWidth = 517;
var viewHeight = 140;
var sectionId = 'dynsection-0';
</script>
<script xlink:href="../../svgpan.js"/>
<svg id="graph" class="graph">
<g id="viewport">
<title>G</title>
<!-- Node1 -->
<g id="node1" class="node"><title>Node1</title>
<polygon fill="#bfbfbf" stroke="black" points="158.5,-112.5 158.5,-131.5 277.5,-131.5 277.5,-112.5 158.5,-112.5"/>
<text text-anchor="middle" x="218" y="-119.5" font-family="DejaVuSansMono" font-size="10.00">src/xmpp_parser.c</text>
</g>
<!-- Node2 -->
<g id="node3" class="node"><title>Node2</title>
<polygon fill="none" stroke="#bfbfbf" points="-0.5,-56.5 -0.5,-75.5 58.5,-75.5 58.5,-56.5 -0.5,-56.5"/>
<text text-anchor="middle" x="29" y="-63.5" font-family="DejaVuSansMono" font-size="10.00">expat.h</text>
</g>
<!-- Node1&#45;&gt;Node2 -->
<g id="edge2" class="edge"><title>Node1&#45;&gt;Node2</title>
<path fill="none" stroke="midnightblue" d="M188.052,-112.444C155.842,-103.241 104.466,-88.5617 68.8578,-78.3879"/>
<polygon fill="midnightblue" stroke="midnightblue" points="69.3843,-74.8984 58.8075,-75.5164 67.4612,-81.629 69.3843,-74.8984"/>
</g>
<!-- Node3 -->
<g id="node5" class="node"><title>Node3</title>
<polygon fill="none" stroke="#bfbfbf" points="76.5,-56.5 76.5,-75.5 141.5,-75.5 141.5,-56.5 76.5,-56.5"/>
<text text-anchor="middle" x="109" y="-63.5" font-family="DejaVuSansMono" font-size="10.00">utlist.h</text>
</g>
<!-- Node1&#45;&gt;Node3 -->
<g id="edge4" class="edge"><title>Node1&#45;&gt;Node3</title>
<path fill="none" stroke="midnightblue" d="M200.487,-112.324C182.928,-103.625 155.669,-90.1202 135.469,-80.113"/>
<polygon fill="midnightblue" stroke="midnightblue" points="136.984,-76.9575 126.469,-75.6545 133.876,-83.23 136.984,-76.9575"/>
</g>
<!-- Node4 -->
<g id="node7" class="node"><title>Node4</title>
<a xlink:href="../../d7/d7f/log_8h.html" target="_top" xlink:title="Debugging and logging functions/macros.">
<polygon fill="none" stroke="black" points="159.5,-56.5 159.5,-75.5 206.5,-75.5 206.5,-56.5 159.5,-56.5"/>
<text text-anchor="middle" x="183" y="-63.5" font-family="DejaVuSansMono" font-size="10.00">log.h</text>
</a>
</g>
<!-- Node1&#45;&gt;Node4 -->
<g id="edge6" class="edge"><title>Node1&#45;&gt;Node4</title>
<path fill="none" stroke="midnightblue" d="M212.22,-112.083C207.328,-104.534 200.173,-93.4948 194.167,-84.2298"/>
<polygon fill="midnightblue" stroke="midnightblue" points="197.048,-82.239 188.672,-75.7511 191.174,-86.0463 197.048,-82.239"/>
</g>
<!-- Node8 -->
<g id="node15" class="node"><title>Node8</title>
<a xlink:href="../../d5/d60/utils_8h.html" target="_top" xlink:title="Miscellaneous utility functions.">
<polygon fill="none" stroke="black" points="224.5,-56.5 224.5,-75.5 283.5,-75.5 283.5,-56.5 224.5,-56.5"/>
<text text-anchor="middle" x="254" y="-63.5" font-family="DejaVuSansMono" font-size="10.00">utils.h</text>
</a>
</g>
<!-- Node1&#45;&gt;Node8 -->
<g id="edge14" class="edge"><title>Node1&#45;&gt;Node8</title>
<path fill="none" stroke="midnightblue" d="M223.945,-112.083C228.977,-104.534 236.337,-93.4948 242.513,-84.2298"/>
<polygon fill="midnightblue" stroke="midnightblue" points="245.531,-86.0131 248.166,-75.7511 239.707,-82.1301 245.531,-86.0131"/>
</g>
<!-- Node10 -->
<g id="node20" class="node"><title>Node10</title>
<a xlink:href="../../dd/d21/xmpp__stanza_8h.html" target="_top" xlink:title="Represents top&#45;level XMPP stanzas received from clients.">
<polygon fill="none" stroke="black" points="301.5,-56.5 301.5,-75.5 396.5,-75.5 396.5,-56.5 301.5,-56.5"/>
<text text-anchor="middle" x="349" y="-63.5" font-family="DejaVuSansMono" font-size="10.00">xmpp_stanza.h</text>
</a>
</g>
<!-- Node1&#45;&gt;Node10 -->
<g id="edge20" class="edge"><title>Node1&#45;&gt;Node10</title>
<path fill="none" stroke="midnightblue" d="M238.757,-112.444C260.316,-103.557 294.263,-89.5632 318.794,-79.4514"/>
<polygon fill="midnightblue" stroke="midnightblue" points="320.428,-82.5634 328.34,-75.5164 317.761,-76.0917 320.428,-82.5634"/>
</g>
<!-- Node11 -->
<g id="node23" class="node"><title>Node11</title>
<a xlink:href="../../d8/d55/xmpp__parser_8h.html" target="_top" xlink:title="DOM&#45;style XML parser for XMPP stanzas.">
<polygon fill="none" stroke="black" points="414.5,-56.5 414.5,-75.5 509.5,-75.5 509.5,-56.5 414.5,-56.5"/>
<text text-anchor="middle" x="462" y="-63.5" font-family="DejaVuSansMono" font-size="10.00">xmpp_parser.h</text>
</a>
</g>
<!-- Node1&#45;&gt;Node11 -->
<g id="edge24" class="edge"><title>Node1&#45;&gt;Node11</title>
<path fill="none" stroke="midnightblue" d="M256.663,-112.444C299.138,-103.043 367.431,-87.9291 413.474,-77.7393"/>
<polygon fill="midnightblue" stroke="midnightblue" points="414.511,-81.0946 423.518,-75.5164 412.998,-74.26 414.511,-81.0946"/>
</g>
<!-- Node5 -->
<g id="node9" class="node"><title>Node5</title>
<polygon fill="none" stroke="#bfbfbf" points="71.5,-0.5 71.5,-19.5 130.5,-19.5 130.5,-0.5 71.5,-0.5"/>
<text text-anchor="middle" x="101" y="-7.5" font-family="DejaVuSansMono" font-size="10.00">stdio.h</text>
</g>
<!-- Node4&#45;&gt;Node5 -->
<g id="edge8" class="edge"><title>Node4&#45;&gt;Node5</title>
<path fill="none" stroke="midnightblue" d="M169.825,-56.324C157.153,-47.979 137.767,-35.2122 122.794,-25.3524"/>
<polygon fill="midnightblue" stroke="midnightblue" points="124.419,-22.2313 114.142,-19.6545 120.569,-28.0776 124.419,-22.2313"/>
</g>
<!-- Node6 -->
<g id="node11" class="node"><title>Node6</title>
<polygon fill="none" stroke="#bfbfbf" points="148.5,-0.5 148.5,-19.5 207.5,-19.5 207.5,-0.5 148.5,-0.5"/>
<text text-anchor="middle" x="178" y="-7.5" font-family="DejaVuSansMono" font-size="10.00">errno.h</text>
</g>
<!-- Node4&#45;&gt;Node6 -->
<g id="edge10" class="edge"><title>Node4&#45;&gt;Node6</title>
<path fill="none" stroke="midnightblue" d="M182.174,-56.083C181.519,-49.0059 180.58,-38.8611 179.758,-29.9865"/>
<polygon fill="midnightblue" stroke="midnightblue" points="183.217,-29.3858 178.81,-19.7511 176.247,-30.0312 183.217,-29.3858"/>
</g>
<!-- Node7 -->
<g id="node13" class="node"><title>Node7</title>
<polygon fill="none" stroke="#bfbfbf" points="225.5,-0.5 225.5,-19.5 290.5,-19.5 290.5,-0.5 225.5,-0.5"/>
<text text-anchor="middle" x="258" y="-7.5" font-family="DejaVuSansMono" font-size="10.00">string.h</text>
</g>
<!-- Node4&#45;&gt;Node7 -->
<g id="edge12" class="edge"><title>Node4&#45;&gt;Node7</title>
<path fill="none" stroke="midnightblue" d="M195.05,-56.324C206.463,-48.1066 223.831,-35.6017 237.435,-25.8069"/>
<polygon fill="midnightblue" stroke="midnightblue" points="239.66,-28.5174 245.731,-19.8339 235.57,-22.8366 239.66,-28.5174"/>
</g>
<!-- Node8&#45;&gt;Node7 -->
<g id="edge18" class="edge"><title>Node8&#45;&gt;Node7</title>
<path fill="none" stroke="midnightblue" d="M254.661,-56.083C255.185,-49.0059 255.936,-38.8611 256.594,-29.9865"/>
<polygon fill="midnightblue" stroke="midnightblue" points="260.103,-29.9823 257.352,-19.7511 253.123,-29.4652 260.103,-29.9823"/>
</g>
<!-- Node9 -->
<g id="node17" class="node"><title>Node9</title>
<polygon fill="none" stroke="#bfbfbf" points="313.5,-0.5 313.5,-19.5 384.5,-19.5 384.5,-0.5 313.5,-0.5"/>
<text text-anchor="middle" x="349" y="-7.5" font-family="DejaVuSansMono" font-size="10.00">stdbool.h</text>
</g>
<!-- Node8&#45;&gt;Node9 -->
<g id="edge16" class="edge"><title>Node8&#45;&gt;Node9</title>
<path fill="none" stroke="midnightblue" d="M269.263,-56.324C284.221,-47.8215 307.255,-34.7288 324.727,-24.7975"/>
<polygon fill="midnightblue" stroke="midnightblue" points="326.81,-27.639 333.774,-19.6545 323.351,-21.5534 326.81,-27.639"/>
</g>
<!-- Node10&#45;&gt;Node9 -->
<g id="edge22" class="edge"><title>Node10&#45;&gt;Node9</title>
<path fill="none" stroke="midnightblue" d="M349,-56.083C349,-49.0059 349,-38.8611 349,-29.9865"/>
<polygon fill="midnightblue" stroke="midnightblue" points="352.5,-29.751 349,-19.7511 345.5,-29.7511 352.5,-29.751"/>
</g>
<!-- Node11&#45;&gt;Node9 -->
<g id="edge26" class="edge"><title>Node11&#45;&gt;Node9</title>
<path fill="none" stroke="midnightblue" d="M444.095,-56.4435C425.746,-47.6751 396.995,-33.9355 375.906,-23.8579"/>
<polygon fill="midnightblue" stroke="midnightblue" points="377.353,-20.6703 366.821,-19.5164 374.335,-26.9862 377.353,-20.6703"/>
</g>
</g>
</svg>
        <g id="navigator" transform="translate(0 0)" fill="#404254">
                <rect fill="#f2f5e9" fill-opacity="0.5" stroke="#606060" stroke-width=".5" x="0" y="0" width="60" height="60"/>
                <use id="zoomplus" xlink:href="#zoomPlus" x="17" y="9" onmousedown="handleZoom(evt,'in')"/>
                <use id="zoomminus" xlink:href="#zoomMin" x="42" y="9" onmousedown="handleZoom(evt,'out')"/>
                <use id="reset" xlink:href="#resetDef" x="30" y="36" onmousedown="handleReset()"/>
                <g id="arrowUp" xlink:href="#dirArrow" transform="translate(30 24)" onmousedown="handlePan(0,-1)">
                  <use xlink:href="#rim" fill="#404040">
                        <set attributeName="fill" to="#808080" begin="arrowUp.mouseover" end="arrowUp.mouseout"/>
                  </use>
                  <path fill="none" stroke="white" stroke-width="1.5" d="M0,-3.0v7 M-2.5,-0.5L0,-3.0L2.5,-0.5"/>
                </g>
                <g id="arrowRight" xlink:href="#dirArrow" transform="rotate(90) translate(36 -43)" onmousedown="handlePan(1,0)">
                  <use xlink:href="#rim" fill="#404040">
                        <set attributeName="fill" to="#808080" begin="arrowRight.mouseover" end="arrowRight.mouseout"/>
                  </use>
                  <path fill="none" stroke="white" stroke-width="1.5" d="M0,-3.0v7 M-2.5,-0.5L0,-3.0L2.5,-0.5"/>
                </g>
                <g id="arrowDown" xlink:href="#dirArrow" transform="rotate(180) translate(-30 -48)" onmousedown="handlePan(0,1)">
                  <use xlink:href="#rim" fill="#404040">
                        <set attributeName="fill" to="#808080" begin="arrowDown.mouseover" end="arrowDown.mouseout"/>
                  </use>
                  <path fill="none" stroke="white" stroke-width="1.5" d="M0,-3.0v7 M-2.5,-0.5L0,-3.0L2.5,-0.5"/>
                </g>
                <g id="arrowLeft" xlink:href="#dirArrow" transform="rotate(270) translate(-36 17)" onmousedown="handlePan(-1,0)">
                  <use xlink:href="#rim" fill="#404040">
                        <set attributeName="fill" to="#808080" begin="arrowLeft.mouseover" end="arrowLeft.mouseout"/>
                  </use>
                  <path fill="none" stroke="white" stroke-width="1.5" d="M0,-3.0v7 M-2.5,-0.5L0,-3.0L2.5,-0.5"/>
                </g>
        </g>
        <svg viewBox="0 0 25 25" width="100%" height="30px" preserveAspectRatio="xMaxYMin meet"> 
          <g id="printButton" transform="scale(0.4 0.4)" onmousedown="handlePrint(evt)">
            <rect height="23.33753581" id="paper" rx="2" style="fill:#f2f5e9;fill-rule:evenodd;stroke:#111111;stroke-width:3.224;stroke-linejoin:round;" transform="matrix(1.000000,0.000000,-0.339266,0.940691,0.000000,0.000000)" width="25.55231285" x="26.69387353" y="7.36162977"/>
            <rect height="26.272097" id="body" rx="2" style="fill:#404040;fill-rule:evenodd;stroke:#111111;stroke-width:3.125;stroke-linejoin:round;" width="50" x="4.5295201" y="27.078951"/>
            <rect height="8.27750969" id="tray" style="fill:#d2d5c9;fill-rule:evenodd;stroke:#111111;stroke-width:3.125;stroke-linecap:round;stroke-linejoin:round;" width="40" x="10.28778839" y="44.96812282"/>
          </g>
        </svg>
</svg>
