<?xml version="1.0" encoding="UTF-8" standalone="no"?>
<!DOCTYPE svg PUBLIC "-//W3C//DTD SVG 1.1//EN"
 "http://www.w3.org/Graphics/SVG/1.1/DTD/svg11.dtd">
<!-- Generated by graphviz version 2.28.0 (20120217.0315)
 -->
<!-- Title: G Pages: 1 -->
<svg width="352pt" height="84pt"
 viewBox="0.00 0.00 352.00 84.00" xmlns="http://www.w3.org/2000/svg" xmlns:xlink="http://www.w3.org/1999/xlink">
<g id="graph1" class="graph" transform="scale(1 1) rotate(0) translate(4 80)">
<title>G</title>
<!-- Node1 -->
<g id="node1" class="node"><title>Node1</title>
<polygon fill="#bfbfbf" stroke="black" points="112.5,-56.5 112.5,-75.5 207.5,-75.5 207.5,-56.5 112.5,-56.5"/>
<text text-anchor="middle" x="160" y="-63.5" font-family="DejaVuSansMono" font-size="10.00">src/xmpp_im.h</text>
</g>
<!-- Node2 -->
<g id="node3" class="node"><title>Node2</title>
<a xlink:href="../../d7/d71/xep__muc_8c.html" target="_top" xlink:title="Implements XEP&#45;0045 Multi&#45;User Chat.">
<polygon fill="none" stroke="black" points="-0.5,-0.5 -0.5,-19.5 94.5,-19.5 94.5,-0.5 -0.5,-0.5"/>
<text text-anchor="middle" x="47" y="-7.5" font-family="DejaVuSansMono" font-size="10.00">src/xep_muc.c</text>
</a>
</g>
<!-- Node1&#45;&gt;Node2 -->
<g id="edge2" class="edge"><title>Node1&#45;&gt;Node2</title>
<path fill="none" stroke="midnightblue" d="M132.997,-52.096C111.886,-42.0073 83.1385,-28.2697 64.8214,-19.5164"/>
<polygon fill="midnightblue" stroke="midnightblue" points="131.563,-55.2897 142.095,-56.4435 134.581,-48.9738 131.563,-55.2897"/>
</g>
<!-- Node3 -->
<g id="node5" class="node"><title>Node3</title>
<a xlink:href="../../dc/da6/xmpp__im_8c.html" target="_top" xlink:title="Implements the parsing for RFC6121 IM and Presence.">
<polygon fill="none" stroke="black" points="112.5,-0.5 112.5,-19.5 207.5,-19.5 207.5,-0.5 112.5,-0.5"/>
<text text-anchor="middle" x="160" y="-7.5" font-family="DejaVuSansMono" font-size="10.00">src/xmpp_im.c</text>
</a>
</g>
<!-- Node1&#45;&gt;Node3 -->
<g id="edge4" class="edge"><title>Node1&#45;&gt;Node3</title>
<path fill="none" stroke="midnightblue" d="M160,-45.8045C160,-36.9102 160,-26.7798 160,-19.7511"/>
<polygon fill="midnightblue" stroke="midnightblue" points="156.5,-46.083 160,-56.083 163.5,-46.083 156.5,-46.083"/>
</g>
<!-- Node4 -->
<g id="node7" class="node"><title>Node4</title>
<a xlink:href="../../d0/df0/xmpp__server_8c.html" target="_top" xlink:title="Main XMPP server data/functions.">
<polygon fill="none" stroke="black" points="225.5,-0.5 225.5,-19.5 344.5,-19.5 344.5,-0.5 225.5,-0.5"/>
<text text-anchor="middle" x="285" y="-7.5" font-family="DejaVuSansMono" font-size="10.00">src/xmpp_server.c</text>
</a>
</g>
<!-- Node1&#45;&gt;Node4 -->
<g id="edge6" class="edge"><title>Node1&#45;&gt;Node4</title>
<path fill="none" stroke="midnightblue" d="M189.241,-52.3678C212.65,-42.2553 244.841,-28.3486 265.286,-19.5164"/>
<polygon fill="midnightblue" stroke="midnightblue" points="187.599,-49.2647 179.807,-56.4435 190.375,-55.6907 187.599,-49.2647"/>
</g>
</g>
</svg>
