<?xml version="1.0" encoding="UTF-8" standalone="no"?>
<!DOCTYPE svg PUBLIC "-//W3C//DTD SVG 1.1//EN"
 "http://www.w3.org/Graphics/SVG/1.1/DTD/svg11.dtd">
<!-- Generated by graphviz version 2.28.0 (20120217.0315)
 -->
<!-- Title: G Pages: 1 -->
<svg width="133pt" height="98pt"
 viewBox="0.00 0.00 133.00 98.00" xmlns="http://www.w3.org/2000/svg" xmlns:xlink="http://www.w3.org/1999/xlink">
<g id="graph1" class="graph" transform="scale(1 1) rotate(0) translate(4 94)">
<title>G</title>
<!-- Node1 -->
<g id="node1" class="node"><title>Node1</title>
<polygon fill="#bfbfbf" stroke="black" points="-0.5,-70.5 -0.5,-89.5 76.5,-89.5 76.5,-70.5 -0.5,-70.5"/>
<text text-anchor="middle" x="38" y="-77.5" font-family="DejaVuSansMono" font-size="10.00">event_loop</text>
</g>
<!-- Node2 -->
<g id="node2" class="node"><title>Node2</title>
<a xlink:href="../../d0/deb/event_8c.html#de/dcb/structevent__item" target="_top" xlink:title="Contains data for one callback function.">
<polygon fill="none" stroke="black" points="-0.5,-1.5 -0.5,-20.5 76.5,-20.5 76.5,-1.5 -0.5,-1.5"/>
<text text-anchor="middle" x="38" y="-8.5" font-family="DejaVuSansMono" font-size="10.00">event_item</text>
</a>
</g>
<!-- Node1&#45;&gt;Node2 -->
<g id="edge4" class="edge"><title>Node1&#45;&gt;Node2</title>
<path fill="none" stroke="#9a32cd" stroke-dasharray="5,2" d="M15.9551,-63.5792C9.14897,-56.8298 4.29971,-48.5152 8,-40 11.4073,-32.159 18.2121,-25.5166 24.4805,-20.672"/>
<polygon fill="#9a32cd" stroke="#9a32cd" points="13.9048,-66.4293 23.7967,-70.2242 18.4303,-61.0889 13.9048,-66.4293"/>
<text text-anchor="middle" x="23.5" y="-43.5" font-family="DejaVuSansMono" font-size="10.00"> func</text>
</g>
<!-- Node2&#45;&gt;Node1 -->
<g id="edge2" class="edge"><title>Node2&#45;&gt;Node1</title>
<path fill="none" stroke="#9a32cd" stroke-dasharray="5,2" d="M42.0219,-30.7066C43.0177,-37.4123 43.6395,-45.0352 43,-52 42.4421,-58.0765 41.1921,-64.8265 40.0816,-70.0573"/>
<polygon fill="#9a32cd" stroke="#9a32cd" points="45.4071,-29.7638 40.1497,-20.5654 38.5234,-31.0347 45.4071,-29.7638"/>
<text text-anchor="middle" x="64.5" y="-43.5" font-family="DejaVuSansMono" font-size="10.00"> events</text>
</g>
<!-- Node2&#45;&gt;Node2 -->
<g id="edge6" class="edge"><title>Node2&#45;&gt;Node2</title>
<path fill="none" stroke="#9a32cd" stroke-dasharray="5,2" d="M86.8716,-16.042C91.2509,-14.9872 94,-13.3066 94,-11 94,-7.21484 86.5967,-5.11526 76.7352,-4.70126"/>
<polygon fill="#9a32cd" stroke="#9a32cd" points="86.2286,-12.5948 76.7352,-17.2987 87.0899,-19.5416 86.2286,-12.5948"/>
<text text-anchor="middle" x="109.5" y="-14" font-family="DejaVuSansMono" font-size="10.00"> prev</text>
<text text-anchor="middle" x="109.5" y="-3" font-family="DejaVuSansMono" font-size="10.00">next</text>
</g>
</g>
</svg>
