<?xml version="1.0" encoding="UTF-8" standalone="no"?>
<!DOCTYPE svg PUBLIC "-//W3C//DTD SVG 1.1//EN"
 "http://www.w3.org/Graphics/SVG/1.1/DTD/svg11.dtd">
<!-- Generated by graphviz version 2.28.0 (20120217.0315)
 -->
<!-- Title: G Pages: 1 -->
<svg width="390pt" height="140pt"
 viewBox="0.00 0.00 390.00 140.00" xmlns="http://www.w3.org/2000/svg" xmlns:xlink="http://www.w3.org/1999/xlink">
<g id="graph1" class="graph" transform="scale(1 1) rotate(0) translate(4 136)">
<title>G</title>
<!-- Node1 -->
<g id="node1" class="node"><title>Node1</title>
<polygon fill="#bfbfbf" stroke="black" points="101.5,-112.5 101.5,-131.5 184.5,-131.5 184.5,-112.5 101.5,-112.5"/>
<text text-anchor="middle" x="143" y="-119.5" font-family="DejaVuSansMono" font-size="10.00">src/utils.c</text>
</g>
<!-- Node2 -->
<g id="node3" class="node"><title>Node2</title>
<polygon fill="none" stroke="#bfbfbf" points="-0.5,-0.5 -0.5,-19.5 58.5,-19.5 58.5,-0.5 -0.5,-0.5"/>
<text text-anchor="middle" x="29" y="-7.5" font-family="DejaVuSansMono" font-size="10.00">errno.h</text>
</g>
<!-- Node1&#45;&gt;Node2 -->
<g id="edge2" class="edge"><title>Node1&#45;&gt;Node2</title>
<path fill="none" stroke="midnightblue" d="M101.306,-119.289C70.282,-115.563 29.8456,-104.99 9,-76 -1.29082,-61.6885 7.22362,-41.9624 16.1092,-28.0047"/>
<polygon fill="midnightblue" stroke="midnightblue" points="18.9893,-29.9934 21.808,-19.7804 13.2356,-26.0066 18.9893,-29.9934"/>
</g>
<!-- Node3 -->
<g id="node5" class="node"><title>Node3</title>
<polygon fill="none" stroke="#bfbfbf" points="18.5,-56.5 18.5,-75.5 83.5,-75.5 83.5,-56.5 18.5,-56.5"/>
<text text-anchor="middle" x="51" y="-63.5" font-family="DejaVuSansMono" font-size="10.00">stdlib.h</text>
</g>
<!-- Node1&#45;&gt;Node3 -->
<g id="edge4" class="edge"><title>Node1&#45;&gt;Node3</title>
<path fill="none" stroke="midnightblue" d="M128.219,-112.324C113.733,-103.822 91.4269,-90.7288 74.5068,-80.7975"/>
<polygon fill="midnightblue" stroke="midnightblue" points="76.1406,-77.6981 65.7447,-75.6545 72.5972,-83.735 76.1406,-77.6981"/>
</g>
<!-- Node4 -->
<g id="node7" class="node"><title>Node4</title>
<polygon fill="none" stroke="#bfbfbf" points="101.5,-56.5 101.5,-75.5 184.5,-75.5 184.5,-56.5 101.5,-56.5"/>
<text text-anchor="middle" x="143" y="-63.5" font-family="DejaVuSansMono" font-size="10.00">uuid/uuid.h</text>
</g>
<!-- Node1&#45;&gt;Node4 -->
<g id="edge6" class="edge"><title>Node1&#45;&gt;Node4</title>
<path fill="none" stroke="midnightblue" d="M143,-112.083C143,-105.006 143,-94.8611 143,-85.9865"/>
<polygon fill="midnightblue" stroke="midnightblue" points="146.5,-85.751 143,-75.7511 139.5,-85.7511 146.5,-85.751"/>
</g>
<!-- Node5 -->
<g id="node9" class="node"><title>Node5</title>
<a xlink:href="../../d7/d7f/log_8h.html" target="_top" xlink:title="Debugging and logging functions/macros.">
<polygon fill="none" stroke="black" points="202.5,-56.5 202.5,-75.5 249.5,-75.5 249.5,-56.5 202.5,-56.5"/>
<text text-anchor="middle" x="226" y="-63.5" font-family="DejaVuSansMono" font-size="10.00">log.h</text>
</a>
</g>
<!-- Node1&#45;&gt;Node5 -->
<g id="edge8" class="edge"><title>Node1&#45;&gt;Node5</title>
<path fill="none" stroke="midnightblue" d="M156.335,-112.324C169.162,-103.979 188.785,-91.2122 203.94,-81.3524"/>
<polygon fill="midnightblue" stroke="midnightblue" points="206.224,-84.0417 212.698,-75.6545 202.407,-78.1742 206.224,-84.0417"/>
</g>
<!-- Node8 -->
<g id="node16" class="node"><title>Node8</title>
<a xlink:href="../../d5/d60/utils_8h.html" target="_top" xlink:title="Miscellaneous utility functions.">
<polygon fill="none" stroke="black" points="267.5,-56.5 267.5,-75.5 326.5,-75.5 326.5,-56.5 267.5,-56.5"/>
<text text-anchor="middle" x="297" y="-63.5" font-family="DejaVuSansMono" font-size="10.00">utils.h</text>
</a>
</g>
<!-- Node1&#45;&gt;Node8 -->
<g id="edge16" class="edge"><title>Node1&#45;&gt;Node8</title>
<path fill="none" stroke="midnightblue" d="M167.402,-112.444C193.197,-103.399 234.077,-89.064 263.018,-78.9158"/>
<polygon fill="midnightblue" stroke="midnightblue" points="264.434,-82.1283 272.712,-75.5164 262.118,-75.5226 264.434,-82.1283"/>
</g>
<!-- Node5&#45;&gt;Node2 -->
<g id="edge12" class="edge"><title>Node5&#45;&gt;Node2</title>
<path fill="none" stroke="midnightblue" d="M202.237,-58.4863C169.029,-49.3836 108.328,-32.7446 68.3218,-21.7786"/>
<polygon fill="midnightblue" stroke="midnightblue" points="69.1957,-18.3891 58.6261,-19.1209 67.3451,-25.14 69.1957,-18.3891"/>
</g>
<!-- Node6 -->
<g id="node11" class="node"><title>Node6</title>
<polygon fill="none" stroke="#bfbfbf" points="151.5,-0.5 151.5,-19.5 210.5,-19.5 210.5,-0.5 151.5,-0.5"/>
<text text-anchor="middle" x="181" y="-7.5" font-family="DejaVuSansMono" font-size="10.00">stdio.h</text>
</g>
<!-- Node5&#45;&gt;Node6 -->
<g id="edge10" class="edge"><title>Node5&#45;&gt;Node6</title>
<path fill="none" stroke="midnightblue" d="M218.569,-56.083C212.147,-48.3768 202.694,-37.0333 194.878,-27.6531"/>
<polygon fill="midnightblue" stroke="midnightblue" points="197.383,-25.1927 188.293,-19.7511 192.006,-29.674 197.383,-25.1927"/>
</g>
<!-- Node7 -->
<g id="node14" class="node"><title>Node7</title>
<polygon fill="none" stroke="#bfbfbf" points="228.5,-0.5 228.5,-19.5 293.5,-19.5 293.5,-0.5 228.5,-0.5"/>
<text text-anchor="middle" x="261" y="-7.5" font-family="DejaVuSansMono" font-size="10.00">string.h</text>
</g>
<!-- Node5&#45;&gt;Node7 -->
<g id="edge14" class="edge"><title>Node5&#45;&gt;Node7</title>
<path fill="none" stroke="midnightblue" d="M231.78,-56.083C236.672,-48.5341 243.827,-37.4948 249.833,-28.2298"/>
<polygon fill="midnightblue" stroke="midnightblue" points="252.826,-30.0463 255.328,-19.7511 246.952,-26.239 252.826,-30.0463"/>
</g>
<!-- Node8&#45;&gt;Node7 -->
<g id="edge20" class="edge"><title>Node8&#45;&gt;Node7</title>
<path fill="none" stroke="midnightblue" d="M291.055,-56.083C286.023,-48.5341 278.663,-37.4948 272.487,-28.2298"/>
<polygon fill="midnightblue" stroke="midnightblue" points="275.293,-26.1301 266.834,-19.7511 269.469,-30.0131 275.293,-26.1301"/>
</g>
<!-- Node9 -->
<g id="node18" class="node"><title>Node9</title>
<polygon fill="none" stroke="#bfbfbf" points="311.5,-0.5 311.5,-19.5 382.5,-19.5 382.5,-0.5 311.5,-0.5"/>
<text text-anchor="middle" x="347" y="-7.5" font-family="DejaVuSansMono" font-size="10.00">stdbool.h</text>
</g>
<!-- Node8&#45;&gt;Node9 -->
<g id="edge18" class="edge"><title>Node8&#45;&gt;Node9</title>
<path fill="none" stroke="midnightblue" d="M305.256,-56.083C312.465,-48.2982 323.11,-36.8015 331.846,-27.3665"/>
<polygon fill="midnightblue" stroke="midnightblue" points="334.671,-29.4666 338.897,-19.7511 329.535,-24.7108 334.671,-29.4666"/>
</g>
</g>
</svg>
