<?xml version="1.0" encoding="UTF-8" standalone="no"?>
<!DOCTYPE svg PUBLIC "-//W3C//DTD SVG 1.1//EN"
 "http://www.w3.org/Graphics/SVG/1.1/DTD/svg11.dtd">
<!-- Generated by graphviz version 2.28.0 (20120217.0315)
 -->
<!-- Title: G Pages: 1 -->
<svg width="316pt" height="120pt"
 viewBox="0.00 0.00 316.00 120.00" xmlns="http://www.w3.org/2000/svg" xmlns:xlink="http://www.w3.org/1999/xlink">
<g id="graph1" class="graph" transform="scale(1 1) rotate(0) translate(4 116)">
<title>G</title>
<!-- Node1 -->
<g id="node1" class="node"><title>Node1</title>
<polygon fill="#bfbfbf" stroke="black" points="158.5,-12.5 158.5,-31.5 241.5,-31.5 241.5,-12.5 158.5,-12.5"/>
<text text-anchor="middle" x="200" y="-19.5" font-family="DejaVuSansMono" font-size="10.00">xmpp_stanza</text>
</g>
<!-- Node1&#45;&gt;Node1 -->
<g id="edge6" class="edge"><title>Node1&#45;&gt;Node1</title>
<path fill="none" stroke="#9a32cd" stroke-dasharray="5,2" d="M251.508,-28.8157C256.111,-27.3884 259,-25.1165 259,-22 259,-17.0137 251.605,-14.1894 241.625,-13.5271"/>
<polygon fill="#9a32cd" stroke="#9a32cd" points="250.909,-25.3673 241.625,-30.4729 252.066,-32.271 250.909,-25.3673"/>
<text text-anchor="middle" x="283.5" y="-36" font-family="DejaVuSansMono" font-size="10.00"> prev</text>
<text text-anchor="middle" x="283.5" y="-25" font-family="DejaVuSansMono" font-size="10.00">next</text>
<text text-anchor="middle" x="283.5" y="-14" font-family="DejaVuSansMono" font-size="10.00">parent</text>
<text text-anchor="middle" x="283.5" y="-3" font-family="DejaVuSansMono" font-size="10.00">children</text>
</g>
<!-- Node2 -->
<g id="node2" class="node"><title>Node2</title>
<a xlink:href="../../d1/dc2/xmpp__parser_8c.html#dc/d9d/structxmpp__parser__namespace" target="_top" xlink:title="Structure representing an XML namespace.">
<polygon fill="none" stroke="black" points="-0.5,-92.5 -0.5,-111.5 142.5,-111.5 142.5,-92.5 -0.5,-92.5"/>
<text text-anchor="middle" x="71" y="-99.5" font-family="DejaVuSansMono" font-size="10.00">xmpp_parser_namespace</text>
</a>
</g>
<!-- Node2&#45;&gt;Node1 -->
<g id="edge2" class="edge"><title>Node2&#45;&gt;Node1</title>
<path fill="none" stroke="#9a32cd" stroke-dasharray="5,2" d="M93.9477,-87.1247C120.502,-71.0686 163.417,-45.1201 185.638,-31.6841"/>
<polygon fill="#9a32cd" stroke="#9a32cd" points="92.0445,-84.1853 85.2981,-92.3546 95.6665,-90.1754 92.0445,-84.1853"/>
<text text-anchor="middle" x="169.5" y="-65.5" font-family="DejaVuSansMono" font-size="10.00"> namespaces</text>
</g>
<!-- Node2&#45;&gt;Node2 -->
<g id="edge4" class="edge"><title>Node2&#45;&gt;Node2</title>
<path fill="none" stroke="#9a32cd" stroke-dasharray="5,2" d="M152.666,-106.301C157.261,-105.26 160,-103.826 160,-102 160,-99.0781 152.989,-97.1606 142.582,-96.2476"/>
<polygon fill="#9a32cd" stroke="#9a32cd" points="151.981,-102.864 142.582,-107.752 152.978,-109.793 151.981,-102.864"/>
<text text-anchor="middle" x="175.5" y="-99.5" font-family="DejaVuSansMono" font-size="10.00"> next</text>
</g>
<!-- Node3 -->
<g id="node6" class="node"><title>Node3</title>
<a xlink:href="../../d1/d59/xmpp__stanza_8c.html#d9/d18/structattribute" target="_top" xlink:title="Structure to store a stanza attribute.">
<polygon fill="none" stroke="black" points="209.5,-92.5 209.5,-111.5 280.5,-111.5 280.5,-92.5 209.5,-92.5"/>
<text text-anchor="middle" x="245" y="-99.5" font-family="DejaVuSansMono" font-size="10.00">attribute</text>
</a>
</g>
<!-- Node3&#45;&gt;Node1 -->
<g id="edge8" class="edge"><title>Node3&#45;&gt;Node1</title>
<path fill="none" stroke="#9a32cd" stroke-dasharray="5,2" d="M234.874,-83.4475C225.638,-67.4386 212.365,-44.4321 205.148,-31.9238"/>
<polygon fill="#9a32cd" stroke="#9a32cd" points="231.983,-85.4418 240.012,-92.3546 238.047,-81.9437 231.983,-85.4418"/>
<text text-anchor="middle" x="262.5" y="-65.5" font-family="DejaVuSansMono" font-size="10.00"> attributes</text>
</g>
</g>
</svg>
