<?xml version="1.0" encoding="UTF-8" standalone="no"?>
<!DOCTYPE svg PUBLIC "-//W3C//DTD SVG 1.1//EN"
 "http://www.w3.org/Graphics/SVG/1.1/DTD/svg11.dtd">
<!-- Generated by graphviz version 2.28.0 (20120217.0315)
 -->
<!-- Title: G Pages: 1 -->
<svg width="446pt" height="140pt"
 viewBox="0.00 0.00 446.00 140.00" xmlns="http://www.w3.org/2000/svg" xmlns:xlink="http://www.w3.org/1999/xlink">
<g id="graph1" class="graph" transform="scale(1 1) rotate(0) translate(4 136)">
<title>G</title>
<!-- Node1 -->
<g id="node1" class="node"><title>Node1</title>
<polygon fill="#bfbfbf" stroke="black" points="165.5,-112.5 165.5,-131.5 284.5,-131.5 284.5,-112.5 165.5,-112.5"/>
<text text-anchor="middle" x="225" y="-119.5" font-family="DejaVuSansMono" font-size="10.00">src/xmp3_module.c</text>
</g>
<!-- Node2 -->
<g id="node3" class="node"><title>Node2</title>
<polygon fill="none" stroke="#bfbfbf" points="-0.5,-56.5 -0.5,-75.5 64.5,-75.5 64.5,-56.5 -0.5,-56.5"/>
<text text-anchor="middle" x="32" y="-63.5" font-family="DejaVuSansMono" font-size="10.00">uthash.h</text>
</g>
<!-- Node1&#45;&gt;Node2 -->
<g id="edge2" class="edge"><title>Node1&#45;&gt;Node2</title>
<path fill="none" stroke="midnightblue" d="M194.419,-112.444C161.385,-103.201 108.612,-88.4356 72.2341,-78.2572"/>
<polygon fill="midnightblue" stroke="midnightblue" points="73.0116,-74.8404 62.4383,-75.5164 71.1254,-81.5815 73.0116,-74.8404"/>
</g>
<!-- Node3 -->
<g id="node5" class="node"><title>Node3</title>
<polygon fill="none" stroke="#bfbfbf" points="82.5,-56.5 82.5,-75.5 183.5,-75.5 183.5,-56.5 82.5,-56.5"/>
<text text-anchor="middle" x="133" y="-63.5" font-family="DejaVuSansMono" font-size="10.00">tj_solibrary.h</text>
</g>
<!-- Node1&#45;&gt;Node3 -->
<g id="edge4" class="edge"><title>Node1&#45;&gt;Node3</title>
<path fill="none" stroke="midnightblue" d="M210.219,-112.324C195.733,-103.822 173.427,-90.7288 156.507,-80.7975"/>
<polygon fill="midnightblue" stroke="midnightblue" points="158.141,-77.6981 147.745,-75.6545 154.597,-83.735 158.141,-77.6981"/>
</g>
<!-- Node4 -->
<g id="node7" class="node"><title>Node4</title>
<a xlink:href="../../d7/d7f/log_8h.html" target="_top" xlink:title="Debugging and logging functions/macros.">
<polygon fill="none" stroke="black" points="201.5,-56.5 201.5,-75.5 248.5,-75.5 248.5,-56.5 201.5,-56.5"/>
<text text-anchor="middle" x="225" y="-63.5" font-family="DejaVuSansMono" font-size="10.00">log.h</text>
</a>
</g>
<!-- Node1&#45;&gt;Node4 -->
<g id="edge6" class="edge"><title>Node1&#45;&gt;Node4</title>
<path fill="none" stroke="midnightblue" d="M225,-112.083C225,-105.006 225,-94.8611 225,-85.9865"/>
<polygon fill="midnightblue" stroke="midnightblue" points="228.5,-85.751 225,-75.7511 221.5,-85.7511 228.5,-85.751"/>
</g>
<!-- Node8 -->
<g id="node15" class="node"><title>Node8</title>
<a xlink:href="../../d5/d60/utils_8h.html" target="_top" xlink:title="Miscellaneous utility functions.">
<polygon fill="none" stroke="black" points="266.5,-56.5 266.5,-75.5 325.5,-75.5 325.5,-56.5 266.5,-56.5"/>
<text text-anchor="middle" x="296" y="-63.5" font-family="DejaVuSansMono" font-size="10.00">utils.h</text>
</a>
</g>
<!-- Node1&#45;&gt;Node8 -->
<g id="edge14" class="edge"><title>Node1&#45;&gt;Node8</title>
<path fill="none" stroke="midnightblue" d="M236.407,-112.324C247.109,-104.185 263.341,-91.8395 276.163,-82.0874"/>
<polygon fill="midnightblue" stroke="midnightblue" points="278.544,-84.6734 284.385,-75.8339 274.307,-79.1018 278.544,-84.6734"/>
</g>
<!-- Node10 -->
<g id="node20" class="node"><title>Node10</title>
<a xlink:href="../../d5/d89/xmp3__module_8h.html" target="_top" xlink:title="Defines structures and functions for XMP3 extension modules.">
<polygon fill="none" stroke="black" points="343.5,-56.5 343.5,-75.5 438.5,-75.5 438.5,-56.5 343.5,-56.5"/>
<text text-anchor="middle" x="391" y="-63.5" font-family="DejaVuSansMono" font-size="10.00">xmp3_module.h</text>
</a>
</g>
<!-- Node1&#45;&gt;Node10 -->
<g id="edge20" class="edge"><title>Node1&#45;&gt;Node10</title>
<path fill="none" stroke="midnightblue" d="M251.303,-112.444C279.351,-103.32 323.944,-88.8133 355.184,-78.6509"/>
<polygon fill="midnightblue" stroke="midnightblue" points="356.393,-81.9383 364.82,-75.5164 354.228,-75.2816 356.393,-81.9383"/>
</g>
<!-- Node5 -->
<g id="node9" class="node"><title>Node5</title>
<polygon fill="none" stroke="#bfbfbf" points="111.5,-0.5 111.5,-19.5 170.5,-19.5 170.5,-0.5 111.5,-0.5"/>
<text text-anchor="middle" x="141" y="-7.5" font-family="DejaVuSansMono" font-size="10.00">stdio.h</text>
</g>
<!-- Node4&#45;&gt;Node5 -->
<g id="edge8" class="edge"><title>Node4&#45;&gt;Node5</title>
<path fill="none" stroke="midnightblue" d="M211.504,-56.324C198.4,-47.9002 178.288,-34.9709 162.893,-25.0741"/>
<polygon fill="midnightblue" stroke="midnightblue" points="164.767,-22.118 154.463,-19.6545 160.982,-28.0063 164.767,-22.118"/>
</g>
<!-- Node6 -->
<g id="node11" class="node"><title>Node6</title>
<polygon fill="none" stroke="#bfbfbf" points="188.5,-0.5 188.5,-19.5 247.5,-19.5 247.5,-0.5 188.5,-0.5"/>
<text text-anchor="middle" x="218" y="-7.5" font-family="DejaVuSansMono" font-size="10.00">errno.h</text>
</g>
<!-- Node4&#45;&gt;Node6 -->
<g id="edge10" class="edge"><title>Node4&#45;&gt;Node6</title>
<path fill="none" stroke="midnightblue" d="M223.844,-56.083C222.916,-48.9272 221.582,-38.6353 220.423,-29.6911"/>
<polygon fill="midnightblue" stroke="midnightblue" points="223.891,-29.2181 219.134,-19.7511 216.949,-30.1181 223.891,-29.2181"/>
</g>
<!-- Node7 -->
<g id="node13" class="node"><title>Node7</title>
<polygon fill="none" stroke="#bfbfbf" points="265.5,-0.5 265.5,-19.5 330.5,-19.5 330.5,-0.5 265.5,-0.5"/>
<text text-anchor="middle" x="298" y="-7.5" font-family="DejaVuSansMono" font-size="10.00">string.h</text>
</g>
<!-- Node4&#45;&gt;Node7 -->
<g id="edge12" class="edge"><title>Node4&#45;&gt;Node7</title>
<path fill="none" stroke="midnightblue" d="M236.729,-56.324C247.837,-48.1066 264.742,-35.6017 277.983,-25.8069"/>
<polygon fill="midnightblue" stroke="midnightblue" points="280.1,-28.5948 286.058,-19.8339 275.937,-22.9671 280.1,-28.5948"/>
</g>
<!-- Node8&#45;&gt;Node7 -->
<g id="edge18" class="edge"><title>Node8&#45;&gt;Node7</title>
<path fill="none" stroke="midnightblue" d="M296.33,-56.083C296.592,-49.0059 296.968,-38.8611 297.297,-29.9865"/>
<polygon fill="midnightblue" stroke="midnightblue" points="300.803,-29.8738 297.676,-19.7511 293.808,-29.6147 300.803,-29.8738"/>
</g>
<!-- Node9 -->
<g id="node17" class="node"><title>Node9</title>
<polygon fill="none" stroke="#bfbfbf" points="352.5,-0.5 352.5,-19.5 423.5,-19.5 423.5,-0.5 352.5,-0.5"/>
<text text-anchor="middle" x="388" y="-7.5" font-family="DejaVuSansMono" font-size="10.00">stdbool.h</text>
</g>
<!-- Node8&#45;&gt;Node9 -->
<g id="edge16" class="edge"><title>Node8&#45;&gt;Node9</title>
<path fill="none" stroke="midnightblue" d="M310.781,-56.324C325.267,-47.8215 347.573,-34.7288 364.493,-24.7975"/>
<polygon fill="midnightblue" stroke="midnightblue" points="366.403,-27.735 373.255,-19.6545 362.859,-21.6981 366.403,-27.735"/>
</g>
<!-- Node10&#45;&gt;Node9 -->
<g id="edge22" class="edge"><title>Node10&#45;&gt;Node9</title>
<path fill="none" stroke="midnightblue" d="M390.505,-56.083C390.111,-49.0059 389.548,-38.8611 389.055,-29.9865"/>
<polygon fill="midnightblue" stroke="midnightblue" points="392.536,-29.5415 388.486,-19.7511 385.546,-29.9299 392.536,-29.5415"/>
</g>
</g>
</svg>
