<?xml version="1.0" encoding="UTF-8" standalone="no"?>
<!DOCTYPE svg PUBLIC "-//W3C//DTD SVG 1.1//EN"
 "http://www.w3.org/Graphics/SVG/1.1/DTD/svg11.dtd">
<!-- Generated by graphviz version 2.28.0 (20120217.0315)
 -->
<!-- Title: G Pages: 1 -->
<!--zoomable 140 -->
<svg id="main" version="1.1" xmlns="http://www.w3.org/2000/svg" xmlns:xlink="http://www.w3.org/1999/xlink" xml:space="preserve" onload="init(evt)">
        <defs>
                <circle id="rim" cx="0" cy="0" r="7"/>
                <circle id="rim2" cx="0" cy="0" r="3.5"/>
                <g id="zoomPlus">
                        <use xlink:href="#rim" fill="#404040">
                                <set attributeName="fill" to="#808080" begin="zoomplus.mouseover" end="zoomplus.mouseout"/>
                        </use>
                        <path d="M-4,0h8M0,-4v8" fill="none" stroke="white" stroke-width="1.5" pointer-events="none"/>
                </g>
                <g id="zoomMin">
                        <use xlink:href="#rim" fill="#404040">
                                <set attributeName="fill" to="#808080" begin="zoomminus.mouseover" end="zoomminus.mouseout"/>
                        </use>
                        <path d="M-4,0h8" fill="none" stroke="white" stroke-width="1.5" pointer-events="none"/>
                </g>
                <g id="dirArrow">
                        <path fill="none" stroke="white" stroke-width="1.5" d="M0,-3.0v7 M-2.5,-0.5L0,-3.0L2.5,-0.5"/>
                </g>
               <g id="resetDef">
                       <use xlink:href="#rim2" fill="#404040">
                               <set attributeName="fill" to="#808080" begin="reset.mouseover" end="reset.mouseout"/>
                       </use>
               </g>
        </defs>

<script type="text/javascript">
var viewWidth = 1869;
var viewHeight = 140;
var sectionId = 'dynsection-0';
</script>
<script xlink:href="../../svgpan.js"/>
<svg id="graph" class="graph">
<g id="viewport">
<title>G</title>
<!-- Node1 -->
<g id="node1" class="node"><title>Node1</title>
<polygon fill="#bfbfbf" stroke="black" points="914.5,-112.5 914.5,-131.5 1033.5,-131.5 1033.5,-112.5 914.5,-112.5"/>
<text text-anchor="middle" x="974" y="-119.5" font-family="DejaVuSansMono" font-size="10.00">src/xmpp_server.c</text>
</g>
<!-- Node2 -->
<g id="node3" class="node"><title>Node2</title>
<polygon fill="none" stroke="#bfbfbf" points="-0.5,-56.5 -0.5,-75.5 64.5,-75.5 64.5,-56.5 -0.5,-56.5"/>
<text text-anchor="middle" x="32" y="-63.5" font-family="DejaVuSansMono" font-size="10.00">unistd.h</text>
</g>
<!-- Node1&#45;&gt;Node2 -->
<g id="edge2" class="edge"><title>Node1&#45;&gt;Node2</title>
<path fill="none" stroke="midnightblue" d="M914.388,-121.434C771.046,-121.745 395.736,-118.207 74.5516,-75.9897"/>
<polygon fill="midnightblue" stroke="midnightblue" points="74.9608,-72.5134 64.5868,-74.6651 74.0384,-79.4524 74.9608,-72.5134"/>
</g>
<!-- Node3 -->
<g id="node5" class="node"><title>Node3</title>
<polygon fill="none" stroke="#bfbfbf" points="82.5,-56.5 82.5,-75.5 165.5,-75.5 165.5,-56.5 82.5,-56.5"/>
<text text-anchor="middle" x="124" y="-63.5" font-family="DejaVuSansMono" font-size="10.00">arpa/inet.h</text>
</g>
<!-- Node1&#45;&gt;Node3 -->
<g id="edge4" class="edge"><title>Node1&#45;&gt;Node3</title>
<path fill="none" stroke="midnightblue" d="M914.405,-120.053C782.912,-117.443 457.893,-108.135 175.709,-75.9268"/>
<polygon fill="midnightblue" stroke="midnightblue" points="176.025,-72.4401 165.69,-74.7714 175.223,-79.394 176.025,-72.4401"/>
</g>
<!-- Node4 -->
<g id="node7" class="node"><title>Node4</title>
<polygon fill="none" stroke="#bfbfbf" points="183.5,-56.5 183.5,-75.5 266.5,-75.5 266.5,-56.5 183.5,-56.5"/>
<text text-anchor="middle" x="225" y="-63.5" font-family="DejaVuSansMono" font-size="10.00">sys/types.h</text>
</g>
<!-- Node1&#45;&gt;Node4 -->
<g id="edge6" class="edge"><title>Node1&#45;&gt;Node4</title>
<path fill="none" stroke="midnightblue" d="M914.04,-119.362C794.686,-115.618 518.782,-104.544 276.738,-75.943"/>
<polygon fill="midnightblue" stroke="midnightblue" points="277.037,-72.454 266.693,-74.7435 276.207,-79.4046 277.037,-72.454"/>
</g>
<!-- Node5 -->
<g id="node9" class="node"><title>Node5</title>
<polygon fill="none" stroke="#bfbfbf" points="284.5,-56.5 284.5,-75.5 373.5,-75.5 373.5,-56.5 284.5,-56.5"/>
<text text-anchor="middle" x="329" y="-63.5" font-family="DejaVuSansMono" font-size="10.00">sys/socket.h</text>
</g>
<!-- Node1&#45;&gt;Node5 -->
<g id="edge8" class="edge"><title>Node1&#45;&gt;Node5</title>
<path fill="none" stroke="midnightblue" d="M914.385,-117.898C808.296,-112.048 579.849,-97.9676 388,-76 386.697,-75.8508 385.379,-75.6944 384.05,-75.5318"/>
<polygon fill="midnightblue" stroke="midnightblue" points="384.1,-72.0087 373.731,-74.1825 383.193,-78.9496 384.1,-72.0087"/>
</g>
<!-- Node6 -->
<g id="node11" class="node"><title>Node6</title>
<polygon fill="none" stroke="#bfbfbf" points="436.5,-0.5 436.5,-19.5 531.5,-19.5 531.5,-0.5 436.5,-0.5"/>
<text text-anchor="middle" x="484" y="-7.5" font-family="DejaVuSansMono" font-size="10.00">openssl/ssl.h</text>
</g>
<!-- Node1&#45;&gt;Node6 -->
<g id="edge10" class="edge"><title>Node1&#45;&gt;Node6</title>
<path fill="none" stroke="midnightblue" d="M914.315,-120.595C778.366,-119.052 454.849,-111.636 422,-76 405.297,-57.88 432.839,-37.363 456.367,-24.3126"/>
<polygon fill="midnightblue" stroke="midnightblue" points="458.206,-27.2999 465.412,-19.5333 454.935,-21.1108 458.206,-27.2999"/>
</g>
<!-- Node7 -->
<g id="node13" class="node"><title>Node7</title>
<polygon fill="none" stroke="#bfbfbf" points="1345.5,-56.5 1345.5,-75.5 1440.5,-75.5 1440.5,-56.5 1345.5,-56.5"/>
<text text-anchor="middle" x="1393" y="-63.5" font-family="DejaVuSansMono" font-size="10.00">openssl/err.h</text>
</g>
<!-- Node1&#45;&gt;Node7 -->
<g id="edge12" class="edge"><title>Node1&#45;&gt;Node7</title>
<path fill="none" stroke="midnightblue" d="M1033.65,-114.195C1103.37,-106.104 1222.47,-91.8596 1335.24,-76.0649"/>
<polygon fill="midnightblue" stroke="midnightblue" points="1336.02,-79.4902 1345.43,-74.6307 1335.04,-72.5585 1336.02,-79.4902"/>
</g>
<!-- Node8 -->
<g id="node15" class="node"><title>Node8</title>
<polygon fill="none" stroke="#bfbfbf" points="1458.5,-56.5 1458.5,-75.5 1523.5,-75.5 1523.5,-56.5 1458.5,-56.5"/>
<text text-anchor="middle" x="1491" y="-63.5" font-family="DejaVuSansMono" font-size="10.00">uthash.h</text>
</g>
<!-- Node1&#45;&gt;Node8 -->
<g id="edge14" class="edge"><title>Node1&#45;&gt;Node8</title>
<path fill="none" stroke="midnightblue" d="M1033.52,-117.598C1121.81,-112.058 1292.86,-99.4371 1447.87,-75.9995"/>
<polygon fill="midnightblue" stroke="midnightblue" points="1448.7,-79.4131 1458.05,-74.44 1447.64,-72.4938 1448.7,-79.4131"/>
</g>
<!-- Node9 -->
<g id="node17" class="node"><title>Node9</title>
<polygon fill="none" stroke="#bfbfbf" points="1541.5,-56.5 1541.5,-75.5 1606.5,-75.5 1606.5,-56.5 1541.5,-56.5"/>
<text text-anchor="middle" x="1574" y="-63.5" font-family="DejaVuSansMono" font-size="10.00">utlist.h</text>
</g>
<!-- Node1&#45;&gt;Node9 -->
<g id="edge16" class="edge"><title>Node1&#45;&gt;Node9</title>
<path fill="none" stroke="midnightblue" d="M1033.75,-118.745C1134.38,-114.385 1344.16,-102.886 1531.05,-75.945"/>
<polygon fill="midnightblue" stroke="midnightblue" points="1531.67,-79.3918 1541.06,-74.484 1530.66,-72.4652 1531.67,-79.3918"/>
</g>
<!-- Node10 -->
<g id="node19" class="node"><title>Node10</title>
<a xlink:href="../../d7/d7f/log_8h.html" target="_top" xlink:title="Debugging and logging functions/macros.">
<polygon fill="none" stroke="black" points="1280.5,-56.5 1280.5,-75.5 1327.5,-75.5 1327.5,-56.5 1280.5,-56.5"/>
<text text-anchor="middle" x="1304" y="-63.5" font-family="DejaVuSansMono" font-size="10.00">log.h</text>
</a>
</g>
<!-- Node1&#45;&gt;Node10 -->
<g id="edge18" class="edge"><title>Node1&#45;&gt;Node10</title>
<path fill="none" stroke="midnightblue" d="M1033.53,-114.042C1091.58,-106.792 1182.5,-94.2075 1270.41,-75.903"/>
<polygon fill="midnightblue" stroke="midnightblue" points="1271.22,-79.3091 1280.29,-73.8203 1269.78,-72.4599 1271.22,-79.3091"/>
</g>
<!-- Node14 -->
<g id="node27" class="node"><title>Node14</title>
<a xlink:href="../../d9/d71/client__socket_8h.html" target="_top" xlink:title="Abstracts basic socket interactions.">
<polygon fill="none" stroke="black" points="430.5,-56.5 430.5,-75.5 537.5,-75.5 537.5,-56.5 430.5,-56.5"/>
<text text-anchor="middle" x="484" y="-63.5" font-family="DejaVuSansMono" font-size="10.00">client_socket.h</text>
</a>
</g>
<!-- Node1&#45;&gt;Node14 -->
<g id="edge26" class="edge"><title>Node1&#45;&gt;Node14</title>
<path fill="none" stroke="midnightblue" d="M914.164,-115.397C833.519,-107.689 685.216,-92.9648 547.886,-76.0667"/>
<polygon fill="midnightblue" stroke="midnightblue" points="547.952,-72.5483 537.598,-74.7941 547.093,-79.4953 547.952,-72.5483"/>
</g>
<!-- Node17 -->
<g id="node34" class="node"><title>Node17</title>
<a xlink:href="../../dd/d20/event_8h.html" target="_top" xlink:title="Simple event loop.">
<polygon fill="none" stroke="black" points="1624.5,-56.5 1624.5,-75.5 1683.5,-75.5 1683.5,-56.5 1624.5,-56.5"/>
<text text-anchor="middle" x="1654" y="-63.5" font-family="DejaVuSansMono" font-size="10.00">event.h</text>
</a>
</g>
<!-- Node1&#45;&gt;Node17 -->
<g id="edge34" class="edge"><title>Node1&#45;&gt;Node17</title>
<path fill="none" stroke="midnightblue" d="M1033.55,-119.93C1145.47,-117.242 1394.91,-108.046 1614.19,-75.8636"/>
<polygon fill="midnightblue" stroke="midnightblue" points="1614.91,-79.2963 1624.28,-74.3635 1613.88,-72.3724 1614.91,-79.2963"/>
</g>
<!-- Node18 -->
<g id="node36" class="node"><title>Node18</title>
<a xlink:href="../../d6/d24/jid_8h.html" target="_top" xlink:title="Functions and data structure to manipulate a JID.">
<polygon fill="none" stroke="black" points="1701.5,-56.5 1701.5,-75.5 1748.5,-75.5 1748.5,-56.5 1701.5,-56.5"/>
<text text-anchor="middle" x="1725" y="-63.5" font-family="DejaVuSansMono" font-size="10.00">jid.h</text>
</a>
</g>
<!-- Node1&#45;&gt;Node18 -->
<g id="edge36" class="edge"><title>Node1&#45;&gt;Node18</title>
<path fill="none" stroke="midnightblue" d="M1033.56,-121.347C1155.54,-121.176 1442.5,-116.253 1691.38,-75.7177"/>
<polygon fill="midnightblue" stroke="midnightblue" points="1692.04,-79.1565 1701.33,-74.074 1690.9,-72.2501 1692.04,-79.1565"/>
</g>
<!-- Node19 -->
<g id="node38" class="node"><title>Node19</title>
<a xlink:href="../../d5/d60/utils_8h.html" target="_top" xlink:title="Miscellaneous utility functions.">
<polygon fill="none" stroke="black" points="1203.5,-56.5 1203.5,-75.5 1262.5,-75.5 1262.5,-56.5 1203.5,-56.5"/>
<text text-anchor="middle" x="1233" y="-63.5" font-family="DejaVuSansMono" font-size="10.00">utils.h</text>
</a>
</g>
<!-- Node1&#45;&gt;Node19 -->
<g id="edge38" class="edge"><title>Node1&#45;&gt;Node19</title>
<path fill="none" stroke="midnightblue" d="M1017.48,-112.44C1059.83,-104.029 1126.27,-90.6349 1193.31,-76.1074"/>
<polygon fill="midnightblue" stroke="midnightblue" points="1194.18,-79.501 1203.21,-73.9562 1192.69,-72.6608 1194.18,-79.501"/>
</g>
<!-- Node20 -->
<g id="node42" class="node"><title>Node20</title>
<a xlink:href="../../dc/d25/xmp3__options_8h.html" target="_top" xlink:title="Functions for maintaining settings for XMP3.">
<polygon fill="none" stroke="black" points="668.5,-56.5 668.5,-75.5 769.5,-75.5 769.5,-56.5 668.5,-56.5"/>
<text text-anchor="middle" x="719" y="-63.5" font-family="DejaVuSansMono" font-size="10.00">xmp3_options.h</text>
</a>
</g>
<!-- Node1&#45;&gt;Node20 -->
<g id="edge44" class="edge"><title>Node1&#45;&gt;Node20</title>
<path fill="none" stroke="midnightblue" d="M933.594,-112.444C889.017,-103.004 817.232,-87.802 769.108,-77.6111"/>
<polygon fill="midnightblue" stroke="midnightblue" points="769.725,-74.1641 759.216,-75.5164 768.274,-81.0123 769.725,-74.1641"/>
</g>
<!-- Node21 -->
<g id="node46" class="node"><title>Node21</title>
<a xlink:href="../../d4/d2f/xmpp__client_8h.html" target="_top" xlink:title="A connected XMPP server client.">
<polygon fill="none" stroke="black" points="1766.5,-56.5 1766.5,-75.5 1861.5,-75.5 1861.5,-56.5 1766.5,-56.5"/>
<text text-anchor="middle" x="1814" y="-63.5" font-family="DejaVuSansMono" font-size="10.00">xmpp_client.h</text>
</a>
</g>
<!-- Node1&#45;&gt;Node21 -->
<g id="edge50" class="edge"><title>Node1&#45;&gt;Node21</title>
<path fill="none" stroke="midnightblue" d="M1033.59,-119.591C1163.1,-116.094 1480.06,-105.174 1756.24,-75.9589"/>
<polygon fill="midnightblue" stroke="midnightblue" points="1756.89,-79.4096 1766.46,-74.8674 1756.15,-72.4492 1756.89,-79.4096"/>
</g>
<!-- Node22 -->
<g id="node48" class="node"><title>Node22</title>
<a xlink:href="../../d8/d28/xmpp__core_8h.html" target="_top" xlink:title="Handles base stanza routing.">
<polygon fill="none" stroke="black" points="787.5,-56.5 787.5,-75.5 870.5,-75.5 870.5,-56.5 787.5,-56.5"/>
<text text-anchor="middle" x="829" y="-63.5" font-family="DejaVuSansMono" font-size="10.00">xmpp_core.h</text>
</a>
</g>
<!-- Node1&#45;&gt;Node22 -->
<g id="edge52" class="edge"><title>Node1&#45;&gt;Node22</title>
<path fill="none" stroke="midnightblue" d="M951.024,-112.444C926.843,-103.438 888.582,-89.1891 861.354,-79.049"/>
<polygon fill="midnightblue" stroke="midnightblue" points="862.461,-75.7265 851.868,-75.5164 860.018,-82.2864 862.461,-75.7265"/>
</g>
<!-- Node23 -->
<g id="node51" class="node"><title>Node23</title>
<a xlink:href="../../d9/dd7/xmpp__im_8h.html" target="_top" xlink:title="Implements the parsing for RFC6121 IM and Presence.">
<polygon fill="none" stroke="black" points="888.5,-56.5 888.5,-75.5 959.5,-75.5 959.5,-56.5 888.5,-56.5"/>
<text text-anchor="middle" x="924" y="-63.5" font-family="DejaVuSansMono" font-size="10.00">xmpp_im.h</text>
</a>
</g>
<!-- Node1&#45;&gt;Node23 -->
<g id="edge56" class="edge"><title>Node1&#45;&gt;Node23</title>
<path fill="none" stroke="midnightblue" d="M965.744,-112.083C958.535,-104.298 947.89,-92.8015 939.154,-83.3665"/>
<polygon fill="midnightblue" stroke="midnightblue" points="941.465,-80.7108 932.103,-75.7511 936.329,-85.4666 941.465,-80.7108"/>
</g>
<!-- Node24 -->
<g id="node54" class="node"><title>Node24</title>
<a xlink:href="../../d8/d55/xmpp__parser_8h.html" target="_top" xlink:title="DOM&#45;style XML parser for XMPP stanzas.">
<polygon fill="none" stroke="black" points="977.5,-56.5 977.5,-75.5 1072.5,-75.5 1072.5,-56.5 977.5,-56.5"/>
<text text-anchor="middle" x="1025" y="-63.5" font-family="DejaVuSansMono" font-size="10.00">xmpp_parser.h</text>
</a>
</g>
<!-- Node1&#45;&gt;Node24 -->
<g id="edge60" class="edge"><title>Node1&#45;&gt;Node24</title>
<path fill="none" stroke="midnightblue" d="M982.422,-112.083C989.848,-104.22 1000.85,-92.5688 1009.81,-83.0813"/>
<polygon fill="midnightblue" stroke="midnightblue" points="1012.41,-85.4244 1016.74,-75.7511 1007.32,-80.618 1012.41,-85.4244"/>
</g>
<!-- Node25 -->
<g id="node57" class="node"><title>Node25</title>
<a xlink:href="../../dd/d21/xmpp__stanza_8h.html" target="_top" xlink:title="Represents top&#45;level XMPP stanzas received from clients.">
<polygon fill="none" stroke="black" points="1090.5,-56.5 1090.5,-75.5 1185.5,-75.5 1185.5,-56.5 1090.5,-56.5"/>
<text text-anchor="middle" x="1138" y="-63.5" font-family="DejaVuSansMono" font-size="10.00">xmpp_stanza.h</text>
</a>
</g>
<!-- Node1&#45;&gt;Node25 -->
<g id="edge64" class="edge"><title>Node1&#45;&gt;Node25</title>
<path fill="none" stroke="midnightblue" d="M999.986,-112.444C1027.7,-103.32 1071.75,-88.8133 1102.62,-78.6509"/>
<polygon fill="midnightblue" stroke="midnightblue" points="1103.73,-81.9684 1112.14,-75.5164 1101.54,-75.3196 1103.73,-81.9684"/>
</g>
<!-- Node26 -->
<g id="node60" class="node"><title>Node26</title>
<a xlink:href="../../d1/d2e/xmpp__server_8h.html" target="_top" xlink:title="Main XMPP server data/functions.">
<polygon fill="none" stroke="black" points="555.5,-56.5 555.5,-75.5 650.5,-75.5 650.5,-56.5 555.5,-56.5"/>
<text text-anchor="middle" x="603" y="-63.5" font-family="DejaVuSansMono" font-size="10.00">xmpp_server.h</text>
</a>
</g>
<!-- Node1&#45;&gt;Node26 -->
<g id="edge68" class="edge"><title>Node1&#45;&gt;Node26</title>
<path fill="none" stroke="midnightblue" d="M914.351,-112.71C853.32,-104.169 755.464,-90.3138 660.633,-76.077"/>
<polygon fill="midnightblue" stroke="midnightblue" points="660.987,-72.591 650.578,-74.5643 659.946,-79.5131 660.987,-72.591"/>
</g>
<!-- Node11 -->
<g id="node21" class="node"><title>Node11</title>
<polygon fill="none" stroke="#bfbfbf" points="1278.5,-0.5 1278.5,-19.5 1337.5,-19.5 1337.5,-0.5 1278.5,-0.5"/>
<text text-anchor="middle" x="1308" y="-7.5" font-family="DejaVuSansMono" font-size="10.00">stdio.h</text>
</g>
<!-- Node10&#45;&gt;Node11 -->
<g id="edge20" class="edge"><title>Node10&#45;&gt;Node11</title>
<path fill="none" stroke="midnightblue" d="M1304.66,-56.083C1305.18,-49.0059 1305.94,-38.8611 1306.59,-29.9865"/>
<polygon fill="midnightblue" stroke="midnightblue" points="1310.1,-29.9823 1307.35,-19.7511 1303.12,-29.4652 1310.1,-29.9823"/>
</g>
<!-- Node12 -->
<g id="node23" class="node"><title>Node12</title>
<polygon fill="none" stroke="#bfbfbf" points="1355.5,-0.5 1355.5,-19.5 1414.5,-19.5 1414.5,-0.5 1355.5,-0.5"/>
<text text-anchor="middle" x="1385" y="-7.5" font-family="DejaVuSansMono" font-size="10.00">errno.h</text>
</g>
<!-- Node10&#45;&gt;Node12 -->
<g id="edge22" class="edge"><title>Node10&#45;&gt;Node12</title>
<path fill="none" stroke="midnightblue" d="M1317.01,-56.324C1329.53,-47.979 1348.68,-35.2122 1363.47,-25.3524"/>
<polygon fill="midnightblue" stroke="midnightblue" points="1365.64,-28.1137 1372.02,-19.6545 1361.76,-22.2894 1365.64,-28.1137"/>
</g>
<!-- Node13 -->
<g id="node25" class="node"><title>Node13</title>
<polygon fill="none" stroke="#bfbfbf" points="1195.5,-0.5 1195.5,-19.5 1260.5,-19.5 1260.5,-0.5 1195.5,-0.5"/>
<text text-anchor="middle" x="1228" y="-7.5" font-family="DejaVuSansMono" font-size="10.00">string.h</text>
</g>
<!-- Node10&#45;&gt;Node13 -->
<g id="edge24" class="edge"><title>Node10&#45;&gt;Node13</title>
<path fill="none" stroke="midnightblue" d="M1291.79,-56.324C1280.22,-48.1066 1262.62,-35.6017 1248.84,-25.8069"/>
<polygon fill="midnightblue" stroke="midnightblue" points="1250.61,-22.7729 1240.43,-19.8339 1246.56,-28.4791 1250.61,-22.7729"/>
</g>
<!-- Node14&#45;&gt;Node6 -->
<g id="edge32" class="edge"><title>Node14&#45;&gt;Node6</title>
<path fill="none" stroke="midnightblue" d="M484,-56.083C484,-49.0059 484,-38.8611 484,-29.9865"/>
<polygon fill="midnightblue" stroke="midnightblue" points="487.5,-29.751 484,-19.7511 480.5,-29.7511 487.5,-29.751"/>
</g>
<!-- Node15 -->
<g id="node29" class="node"><title>Node15</title>
<polygon fill="none" stroke="#bfbfbf" points="840.5,-0.5 840.5,-19.5 911.5,-19.5 911.5,-0.5 840.5,-0.5"/>
<text text-anchor="middle" x="876" y="-7.5" font-family="DejaVuSansMono" font-size="10.00">stdbool.h</text>
</g>
<!-- Node14&#45;&gt;Node15 -->
<g id="edge28" class="edge"><title>Node14&#45;&gt;Node15</title>
<path fill="none" stroke="midnightblue" d="M537.613,-57.3188C540.789,-56.8707 543.936,-56.4284 547,-56 648.136,-41.8595 766.833,-25.7423 830.365,-17.1544"/>
<polygon fill="midnightblue" stroke="midnightblue" points="831.009,-20.5993 840.45,-15.7917 830.072,-13.6623 831.009,-20.5993"/>
</g>
<!-- Node16 -->
<g id="node31" class="node"><title>Node16</title>
<polygon fill="none" stroke="#bfbfbf" points="611.5,-0.5 611.5,-19.5 700.5,-19.5 700.5,-0.5 611.5,-0.5"/>
<text text-anchor="middle" x="656" y="-7.5" font-family="DejaVuSansMono" font-size="10.00">netinet/in.h</text>
</g>
<!-- Node14&#45;&gt;Node16 -->
<g id="edge30" class="edge"><title>Node14&#45;&gt;Node16</title>
<path fill="none" stroke="midnightblue" d="M511.254,-56.4435C540.441,-47.2801 586.921,-32.6876 619.309,-22.5192"/>
<polygon fill="midnightblue" stroke="midnightblue" points="620.381,-25.8512 628.874,-19.5164 618.284,-19.1726 620.381,-25.8512"/>
</g>
<!-- Node19&#45;&gt;Node13 -->
<g id="edge42" class="edge"><title>Node19&#45;&gt;Node13</title>
<path fill="none" stroke="midnightblue" d="M1232.17,-56.083C1231.52,-49.0059 1230.58,-38.8611 1229.76,-29.9865"/>
<polygon fill="midnightblue" stroke="midnightblue" points="1233.22,-29.3858 1228.81,-19.7511 1226.25,-30.0312 1233.22,-29.3858"/>
</g>
<!-- Node19&#45;&gt;Node15 -->
<g id="edge40" class="edge"><title>Node19&#45;&gt;Node15</title>
<path fill="none" stroke="midnightblue" d="M1203.24,-57.8552C1200.13,-57.1908 1197.01,-56.5585 1194,-56 1097.87,-38.1407 984.229,-23.634 922.17,-16.2665"/>
<polygon fill="midnightblue" stroke="midnightblue" points="922.272,-12.7544 911.931,-15.0603 921.453,-19.7063 922.272,-12.7544"/>
</g>
<!-- Node20&#45;&gt;Node15 -->
<g id="edge46" class="edge"><title>Node20&#45;&gt;Node15</title>
<path fill="none" stroke="midnightblue" d="M743.877,-56.4435C770.289,-47.3591 812.215,-32.9388 841.742,-22.7831"/>
<polygon fill="midnightblue" stroke="midnightblue" points="842.921,-26.0787 851.239,-19.5164 840.645,-19.4593 842.921,-26.0787"/>
</g>
<!-- Node20&#45;&gt;Node16 -->
<g id="edge48" class="edge"><title>Node20&#45;&gt;Node16</title>
<path fill="none" stroke="midnightblue" d="M708.878,-56.324C699.474,-48.2631 685.256,-36.0765 673.931,-26.3695"/>
<polygon fill="midnightblue" stroke="midnightblue" points="676.177,-23.6844 666.306,-19.8339 671.621,-28.9993 676.177,-23.6844"/>
</g>
<!-- Node22&#45;&gt;Node15 -->
<g id="edge54" class="edge"><title>Node22&#45;&gt;Node15</title>
<path fill="none" stroke="midnightblue" d="M836.761,-56.083C843.537,-48.2982 853.543,-36.8015 861.755,-27.3665"/>
<polygon fill="midnightblue" stroke="midnightblue" points="864.458,-29.592 868.383,-19.7511 859.178,-24.9963 864.458,-29.592"/>
</g>
<!-- Node23&#45;&gt;Node15 -->
<g id="edge58" class="edge"><title>Node23&#45;&gt;Node15</title>
<path fill="none" stroke="midnightblue" d="M916.074,-56.083C909.154,-48.2982 898.935,-36.8015 890.548,-27.3665"/>
<polygon fill="midnightblue" stroke="midnightblue" points="893.038,-24.8999 883.779,-19.7511 887.806,-29.5505 893.038,-24.8999"/>
</g>
<!-- Node24&#45;&gt;Node15 -->
<g id="edge62" class="edge"><title>Node24&#45;&gt;Node15</title>
<path fill="none" stroke="midnightblue" d="M1001.39,-56.4435C976.542,-47.4381 937.226,-33.1891 909.246,-23.049"/>
<polygon fill="midnightblue" stroke="midnightblue" points="910.093,-19.6332 899.499,-19.5164 907.708,-26.2144 910.093,-19.6332"/>
</g>
<!-- Node25&#45;&gt;Node15 -->
<g id="edge66" class="edge"><title>Node25&#45;&gt;Node15</title>
<path fill="none" stroke="midnightblue" d="M1096.49,-56.4435C1048.93,-46.6427 971.247,-30.6311 921.922,-20.4647"/>
<polygon fill="midnightblue" stroke="midnightblue" points="922.348,-16.9792 911.847,-18.3884 920.935,-23.8351 922.348,-16.9792"/>
</g>
<!-- Node26&#45;&gt;Node6 -->
<g id="edge72" class="edge"><title>Node26&#45;&gt;Node6</title>
<path fill="none" stroke="midnightblue" d="M584.144,-56.4435C564.734,-47.6356 534.27,-33.8116 512.035,-23.722"/>
<polygon fill="midnightblue" stroke="midnightblue" points="513.32,-20.4615 502.768,-19.5164 510.428,-26.836 513.32,-20.4615"/>
</g>
<!-- Node26&#45;&gt;Node15 -->
<g id="edge70" class="edge"><title>Node26&#45;&gt;Node15</title>
<path fill="none" stroke="midnightblue" d="M646.258,-56.4435C696.578,-46.4902 779.281,-30.1313 830.528,-19.9944"/>
<polygon fill="midnightblue" stroke="midnightblue" points="831.209,-23.4277 840.34,-18.0537 829.85,-16.5607 831.209,-23.4277"/>
</g>
</g>
</svg>
        <g id="navigator" transform="translate(0 0)" fill="#404254">
                <rect fill="#f2f5e9" fill-opacity="0.5" stroke="#606060" stroke-width=".5" x="0" y="0" width="60" height="60"/>
                <use id="zoomplus" xlink:href="#zoomPlus" x="17" y="9" onmousedown="handleZoom(evt,'in')"/>
                <use id="zoomminus" xlink:href="#zoomMin" x="42" y="9" onmousedown="handleZoom(evt,'out')"/>
                <use id="reset" xlink:href="#resetDef" x="30" y="36" onmousedown="handleReset()"/>
                <g id="arrowUp" xlink:href="#dirArrow" transform="translate(30 24)" onmousedown="handlePan(0,-1)">
                  <use xlink:href="#rim" fill="#404040">
                        <set attributeName="fill" to="#808080" begin="arrowUp.mouseover" end="arrowUp.mouseout"/>
                  </use>
                  <path fill="none" stroke="white" stroke-width="1.5" d="M0,-3.0v7 M-2.5,-0.5L0,-3.0L2.5,-0.5"/>
                </g>
                <g id="arrowRight" xlink:href="#dirArrow" transform="rotate(90) translate(36 -43)" onmousedown="handlePan(1,0)">
                  <use xlink:href="#rim" fill="#404040">
                        <set attributeName="fill" to="#808080" begin="arrowRight.mouseover" end="arrowRight.mouseout"/>
                  </use>
                  <path fill="none" stroke="white" stroke-width="1.5" d="M0,-3.0v7 M-2.5,-0.5L0,-3.0L2.5,-0.5"/>
                </g>
                <g id="arrowDown" xlink:href="#dirArrow" transform="rotate(180) translate(-30 -48)" onmousedown="handlePan(0,1)">
                  <use xlink:href="#rim" fill="#404040">
                        <set attributeName="fill" to="#808080" begin="arrowDown.mouseover" end="arrowDown.mouseout"/>
                  </use>
                  <path fill="none" stroke="white" stroke-width="1.5" d="M0,-3.0v7 M-2.5,-0.5L0,-3.0L2.5,-0.5"/>
                </g>
                <g id="arrowLeft" xlink:href="#dirArrow" transform="rotate(270) translate(-36 17)" onmousedown="handlePan(-1,0)">
                  <use xlink:href="#rim" fill="#404040">
                        <set attributeName="fill" to="#808080" begin="arrowLeft.mouseover" end="arrowLeft.mouseout"/>
                  </use>
                  <path fill="none" stroke="white" stroke-width="1.5" d="M0,-3.0v7 M-2.5,-0.5L0,-3.0L2.5,-0.5"/>
                </g>
        </g>
        <svg viewBox="0 0 25 25" width="100%" height="30px" preserveAspectRatio="xMaxYMin meet"> 
          <g id="printButton" transform="scale(0.4 0.4)" onmousedown="handlePrint(evt)">
            <rect height="23.33753581" id="paper" rx="2" style="fill:#f2f5e9;fill-rule:evenodd;stroke:#111111;stroke-width:3.224;stroke-linejoin:round;" transform="matrix(1.000000,0.000000,-0.339266,0.940691,0.000000,0.000000)" width="25.55231285" x="26.69387353" y="7.36162977"/>
            <rect height="26.272097" id="body" rx="2" style="fill:#404040;fill-rule:evenodd;stroke:#111111;stroke-width:3.125;stroke-linejoin:round;" width="50" x="4.5295201" y="27.078951"/>
            <rect height="8.27750969" id="tray" style="fill:#d2d5c9;fill-rule:evenodd;stroke:#111111;stroke-width:3.125;stroke-linecap:round;stroke-linejoin:round;" width="40" x="10.28778839" y="44.96812282"/>
          </g>
        </svg>
</svg>
