<?xml version="1.0" encoding="UTF-8" standalone="no"?>
<!DOCTYPE svg PUBLIC "-//W3C//DTD SVG 1.1//EN"
 "http://www.w3.org/Graphics/SVG/1.1/DTD/svg11.dtd">
<!-- Generated by graphviz version 2.28.0 (20120217.0315)
 -->
<!-- Title: G Pages: 1 -->
<svg width="494pt" height="47pt"
 viewBox="0.00 0.00 494.00 47.00" xmlns="http://www.w3.org/2000/svg" xmlns:xlink="http://www.w3.org/1999/xlink">
<g id="graph1" class="graph" transform="scale(1 1) rotate(0) translate(4 43)">
<title>G</title>
<!-- Node1 -->
<g id="node1" class="node"><title>Node1</title>
<polygon fill="#bfbfbf" stroke="black" points="0.5,-19.5 0.5,-38.5 143.5,-38.5 143.5,-19.5 0.5,-19.5"/>
<text text-anchor="middle" x="72" y="-26.5" font-family="DejaVuSansMono" font-size="10.00">xmp3_options_get_addr</text>
</g>
<!-- Node2 -->
<g id="node3" class="node"><title>Node2</title>
<a xlink:href="../../d1/d2e/xmpp__server_8h.html#a27bfc8e4d424a8bc17ab21a4a09cdf92" target="_top" xlink:title="Allocates and initializes the XMPP server.">
<polygon fill="none" stroke="black" points="300.5,-19.5 300.5,-38.5 407.5,-38.5 407.5,-19.5 300.5,-19.5"/>
<text text-anchor="middle" x="354" y="-26.5" font-family="DejaVuSansMono" font-size="10.00">xmpp_server_new</text>
</a>
</g>
<!-- Node1&#45;&gt;Node2 -->
<g id="edge2" class="edge"><title>Node1&#45;&gt;Node2</title>
<path fill="none" stroke="midnightblue" d="M153.856,-29C201.049,-29 259.228,-29 300.488,-29"/>
<polygon fill="midnightblue" stroke="midnightblue" points="153.656,-25.5001 143.656,-29 153.656,-32.5001 153.656,-25.5001"/>
</g>
<!-- Node4 -->
<g id="node7" class="node"><title>Node4</title>
<a xlink:href="../../d0/df0/xmpp__server_8c.html#a25597394c3cf98a82a1510e7bf59cb44" target="_top" xlink:title="Simple function to create and bind the server socket.">
<polygon fill="none" stroke="black" points="180.5,-0.5 180.5,-19.5 263.5,-19.5 263.5,-0.5 180.5,-0.5"/>
<text text-anchor="middle" x="222" y="-7.5" font-family="DejaVuSansMono" font-size="10.00">init_socket</text>
</a>
</g>
<!-- Node1&#45;&gt;Node4 -->
<g id="edge6" class="edge"><title>Node1&#45;&gt;Node4</title>
<path fill="none" stroke="midnightblue" d="M153.619,-18.6503C162.89,-17.4601 172.021,-16.2879 180.424,-15.2091"/>
<polygon fill="midnightblue" stroke="midnightblue" points="153.005,-15.2002 143.532,-19.9452 153.897,-22.1433 153.005,-15.2002"/>
</g>
<!-- Node3 -->
<g id="node5" class="node"><title>Node3</title>
<a xlink:href="../../d0/d29/main_8c.html#a0ddf1224851353fc92bfbff6f499fa97" target="_top" xlink:title="main">
<polygon fill="none" stroke="black" points="444.5,-19.5 444.5,-38.5 485.5,-38.5 485.5,-19.5 444.5,-19.5"/>
<text text-anchor="middle" x="465" y="-26.5" font-family="DejaVuSansMono" font-size="10.00">main</text>
</a>
</g>
<!-- Node2&#45;&gt;Node3 -->
<g id="edge4" class="edge"><title>Node2&#45;&gt;Node3</title>
<path fill="none" stroke="midnightblue" d="M417.751,-29C427.434,-29 436.761,-29 444.472,-29"/>
<polygon fill="midnightblue" stroke="midnightblue" points="417.584,-25.5001 407.584,-29 417.584,-32.5001 417.584,-25.5001"/>
</g>
<!-- Node4&#45;&gt;Node2 -->
<g id="edge8" class="edge"><title>Node4&#45;&gt;Node2</title>
<path fill="none" stroke="midnightblue" d="M273.823,-17.4279C282.556,-18.7043 291.648,-20.0331 300.426,-21.316"/>
<polygon fill="midnightblue" stroke="midnightblue" points="274.177,-13.9426 263.776,-15.9596 273.165,-20.8691 274.177,-13.9426"/>
</g>
</g>
</svg>
