<?xml version="1.0" encoding="UTF-8" standalone="no"?>
<!DOCTYPE svg PUBLIC "-//W3C//DTD SVG 1.1//EN"
 "http://www.w3.org/Graphics/SVG/1.1/DTD/svg11.dtd">
<!-- Generated by graphviz version 2.28.0 (20120217.0315)
 -->
<!-- Title: G Pages: 1 -->
<svg width="428pt" height="28pt"
 viewBox="0.00 0.00 428.00 28.00" xmlns="http://www.w3.org/2000/svg" xmlns:xlink="http://www.w3.org/1999/xlink">
<g id="graph1" class="graph" transform="scale(1 1) rotate(0) translate(4 24)">
<title>G</title>
<!-- Node1 -->
<g id="node1" class="node"><title>Node1</title>
<polygon fill="#bfbfbf" stroke="black" points="0.5,-0.5 0.5,-19.5 113.5,-19.5 113.5,-0.5 0.5,-0.5"/>
<text text-anchor="middle" x="57" y="-7.5" font-family="DejaVuSansMono" font-size="10.00">xmp3_options_del</text>
</g>
<!-- Node2 -->
<g id="node3" class="node"><title>Node2</title>
<a xlink:href="../../d3/dd8/xmp3__module_8c.html#ae4546768c03304b209acd628c0583c61" target="_top" xlink:title="xmp3_modules_del">
<polygon fill="none" stroke="black" points="150.5,-0.5 150.5,-19.5 263.5,-19.5 263.5,-0.5 150.5,-0.5"/>
<text text-anchor="middle" x="207" y="-7.5" font-family="DejaVuSansMono" font-size="10.00">xmp3_modules_del</text>
</a>
</g>
<!-- Node1&#45;&gt;Node2 -->
<g id="edge2" class="edge"><title>Node1&#45;&gt;Node2</title>
<path fill="none" stroke="midnightblue" d="M113.531,-10C122.138,-10 131.101,-10 139.913,-10"/>
<polygon fill="midnightblue" stroke="midnightblue" points="140.158,-13.5001 150.158,-10 140.158,-6.5001 140.158,-13.5001"/>
</g>
<!-- Node3 -->
<g id="node5" class="node"><title>Node3</title>
<a xlink:href="../../d3/dd8/xmp3__module_8c.html#aa06f25797f697c01efeb7939cbba7619" target="_top" xlink:title="xmp3_modules_stop">
<polygon fill="none" stroke="black" points="300.5,-0.5 300.5,-19.5 419.5,-19.5 419.5,-0.5 300.5,-0.5"/>
<text text-anchor="middle" x="360" y="-7.5" font-family="DejaVuSansMono" font-size="10.00">xmp3_modules_stop</text>
</a>
</g>
<!-- Node2&#45;&gt;Node3 -->
<g id="edge4" class="edge"><title>Node2&#45;&gt;Node3</title>
<path fill="none" stroke="midnightblue" d="M263.798,-10C272.372,-10 281.311,-10 290.129,-10"/>
<polygon fill="midnightblue" stroke="midnightblue" points="290.395,-13.5001 300.395,-10 290.395,-6.5001 290.395,-13.5001"/>
</g>
</g>
</svg>
