<?xml version="1.0" encoding="UTF-8" standalone="no"?>
<!DOCTYPE svg PUBLIC "-//W3C//DTD SVG 1.1//EN"
 "http://www.w3.org/Graphics/SVG/1.1/DTD/svg11.dtd">
<!-- Generated by graphviz version 2.28.0 (20120217.0315)
 -->
<!-- Title: G Pages: 1 -->
<!--zoomable 583 -->
<svg id="main" version="1.1" xmlns="http://www.w3.org/2000/svg" xmlns:xlink="http://www.w3.org/1999/xlink" xml:space="preserve" onload="init(evt)">
        <defs>
                <circle id="rim" cx="0" cy="0" r="7"/>
                <circle id="rim2" cx="0" cy="0" r="3.5"/>
                <g id="zoomPlus">
                        <use xlink:href="#rim" fill="#404040">
                                <set attributeName="fill" to="#808080" begin="zoomplus.mouseover" end="zoomplus.mouseout"/>
                        </use>
                        <path d="M-4,0h8M0,-4v8" fill="none" stroke="white" stroke-width="1.5" pointer-events="none"/>
                </g>
                <g id="zoomMin">
                        <use xlink:href="#rim" fill="#404040">
                                <set attributeName="fill" to="#808080" begin="zoomminus.mouseover" end="zoomminus.mouseout"/>
                        </use>
                        <path d="M-4,0h8" fill="none" stroke="white" stroke-width="1.5" pointer-events="none"/>
                </g>
                <g id="dirArrow">
                        <path fill="none" stroke="white" stroke-width="1.5" d="M0,-3.0v7 M-2.5,-0.5L0,-3.0L2.5,-0.5"/>
                </g>
               <g id="resetDef">
                       <use xlink:href="#rim2" fill="#404040">
                               <set attributeName="fill" to="#808080" begin="reset.mouseover" end="reset.mouseout"/>
                       </use>
               </g>
        </defs>

<script type="text/javascript">
var viewWidth = 1124;
var viewHeight = 583;
var sectionId = 'dynsection-1';
</script>
<script xlink:href="../../svgpan.js"/>
<svg id="graph" class="graph">
<g id="viewport">
<title>G</title>
<!-- Node1 -->
<g id="node1" class="node"><title>Node1</title>
<polygon fill="#bfbfbf" stroke="black" points="445.5,-449.442 445.5,-468.442 510.5,-468.442 510.5,-449.442 445.5,-449.442"/>
<text text-anchor="middle" x="478" y="-456.442" font-family="DejaVuSansMono" font-size="10.00">c_client</text>
</g>
<!-- Node1&#45;&gt;Node1 -->
<g id="edge2" class="edge"><title>Node1&#45;&gt;Node1</title>
<path fill="none" stroke="#9a32cd" stroke-dasharray="5,2" d="M460.223,-478.342C461.41,-483.256 467.336,-486.942 478,-486.942 495.062,-486.942 499.995,-477.507 492.796,-468.699"/>
<polygon fill="#9a32cd" stroke="#9a32cd" points="463.594,-479.286 463.204,-468.699 456.907,-477.219 463.594,-479.286"/>
<text text-anchor="middle" x="478" y="-500.942" font-family="DejaVuSansMono" font-size="10.00"> prev</text>
<text text-anchor="middle" x="478" y="-489.942" font-family="DejaVuSansMono" font-size="10.00">next</text>
</g>
<!-- Node3 -->
<g id="node5" class="node"><title>Node3</title>
<a xlink:href="../../d0/df0/xmpp__server_8c.html#d8/d34/structxmpp__server" target="_top" xlink:title="Holds data on a XMPP server (connected clients, routes, etc.).">
<polygon fill="none" stroke="black" points="654.5,-291.442 654.5,-310.442 737.5,-310.442 737.5,-291.442 654.5,-291.442"/>
<text text-anchor="middle" x="696" y="-298.442" font-family="DejaVuSansMono" font-size="10.00">xmpp_server</text>
</a>
</g>
<!-- Node1&#45;&gt;Node3 -->
<g id="edge44" class="edge"><title>Node1&#45;&gt;Node3</title>
<path fill="none" stroke="#9a32cd" stroke-dasharray="5,2" d="M520.015,-445.408C522.201,-443.784 524.224,-441.97 526,-439.942 547.161,-415.773 521.395,-392.765 544,-369.942 571.842,-341.83 594.179,-363.744 630,-346.942 650.527,-337.313 671.429,-321.143 683.802,-310.764"/>
<polygon fill="#9a32cd" stroke="#9a32cd" points="517.778,-442.664 510.952,-450.767 521.341,-448.689 517.778,-442.664"/>
<text text-anchor="middle" x="587" y="-372.942" font-family="DejaVuSansMono" font-size="10.00"> clients</text>
</g>
<!-- Node2 -->
<g id="node3" class="node"><title>Node2</title>
<a xlink:href="../../dd/d4d/xmpp__client_8c.html#de/de2/structxmpp__client" target="_top" xlink:title="Data on a connected client.">
<polygon fill="none" stroke="black" points="834.5,-353.442 834.5,-372.442 917.5,-372.442 917.5,-353.442 834.5,-353.442"/>
<text text-anchor="middle" x="876" y="-360.442" font-family="DejaVuSansMono" font-size="10.00">xmpp_client</text>
</a>
</g>
<!-- Node2&#45;&gt;Node1 -->
<g id="edge4" class="edge"><title>Node2&#45;&gt;Node1</title>
<path fill="none" stroke="#9a32cd" stroke-dasharray="5,2" d="M824.081,-366.705C757.516,-373.004 638.309,-389.07 544,-427.942 535.111,-431.606 534.501,-435.45 526,-439.942 519.463,-443.396 512.156,-446.628 505.288,-449.414"/>
<polygon fill="#9a32cd" stroke="#9a32cd" points="824.658,-370.167 834.3,-365.775 824.024,-363.195 824.658,-370.167"/>
<text text-anchor="middle" x="696" y="-396.942" font-family="DejaVuSansMono" font-size="10.00"> client</text>
</g>
<!-- Node12 -->
<g id="node30" class="node"><title>Node12</title>
<a xlink:href="../../d0/df0/xmpp__server_8c.html#d2/d06/structclient__listener" target="_top" xlink:title="Holds data on how to notify a component when a client disconnects.">
<polygon fill="none" stroke="black" points="1008.5,-325.442 1008.5,-344.442 1115.5,-344.442 1115.5,-325.442 1008.5,-325.442"/>
<text text-anchor="middle" x="1062" y="-332.442" font-family="DejaVuSansMono" font-size="10.00">client_listener</text>
</a>
</g>
<!-- Node2&#45;&gt;Node12 -->
<g id="edge42" class="edge"><title>Node2&#45;&gt;Node12</title>
<path fill="none" stroke="#9a32cd" stroke-dasharray="5,2" d="M927.872,-355.2C952.924,-351.388 983.098,-346.796 1008.38,-342.949"/>
<polygon fill="#9a32cd" stroke="#9a32cd" points="927.195,-351.763 917.836,-356.728 928.248,-358.683 927.195,-351.763"/>
<text text-anchor="middle" x="968" y="-365.942" font-family="DejaVuSansMono" font-size="10.00"> client</text>
<text text-anchor="middle" x="968" y="-354.942" font-family="DejaVuSansMono" font-size="10.00">cb</text>
</g>
<!-- Node3&#45;&gt;Node2 -->
<g id="edge6" class="edge"><title>Node3&#45;&gt;Node2</title>
<path fill="none" stroke="#9a32cd" stroke-dasharray="5,2" d="M726.703,-314.586C737.683,-319.404 750.303,-324.679 762,-328.942 787.6,-338.272 817.1,-347.085 839.538,-353.399"/>
<polygon fill="#9a32cd" stroke="#9a32cd" points="728.1,-311.377 717.541,-310.507 725.253,-317.772 728.1,-311.377"/>
<text text-anchor="middle" x="784" y="-345.942" font-family="DejaVuSansMono" font-size="10.00"> server</text>
</g>
<!-- Node4 -->
<g id="node7" class="node"><title>Node4</title>
<a xlink:href="../../d0/df0/xmpp__server_8c.html#d4/d94/structstanza__route" target="_top" xlink:title="Holds data on how to send a stanza to a particular JID.">
<polygon fill="none" stroke="black" points="433.5,-293.442 433.5,-312.442 522.5,-312.442 522.5,-293.442 433.5,-293.442"/>
<text text-anchor="middle" x="478" y="-300.442" font-family="DejaVuSansMono" font-size="10.00">stanza_route</text>
</a>
</g>
<!-- Node4&#45;&gt;Node3 -->
<g id="edge8" class="edge"><title>Node4&#45;&gt;Node3</title>
<path fill="none" stroke="#9a32cd" stroke-dasharray="5,2" d="M532.769,-302.078C536.57,-302.028 540.343,-301.982 544,-301.942 581.355,-301.531 623.911,-301.267 654.303,-301.115"/>
<polygon fill="#9a32cd" stroke="#9a32cd" points="532.655,-298.579 522.704,-302.217 532.752,-305.578 532.655,-298.579"/>
<text text-anchor="middle" x="587" y="-304.942" font-family="DejaVuSansMono" font-size="10.00"> stanza_routes</text>
</g>
<!-- Node4&#45;&gt;Node4 -->
<g id="edge10" class="edge"><title>Node4&#45;&gt;Node4</title>
<path fill="none" stroke="#9a32cd" stroke-dasharray="5,2" d="M460.223,-322.342C461.41,-327.256 467.336,-330.942 478,-330.942 495.062,-330.942 499.995,-321.507 492.796,-312.699"/>
<polygon fill="#9a32cd" stroke="#9a32cd" points="463.594,-323.286 463.204,-312.699 456.907,-321.219 463.594,-323.286"/>
<text text-anchor="middle" x="478" y="-344.942" font-family="DejaVuSansMono" font-size="10.00"> prev</text>
<text text-anchor="middle" x="478" y="-333.942" font-family="DejaVuSansMono" font-size="10.00">next</text>
</g>
<!-- Node5 -->
<g id="node10" class="node"><title>Node5</title>
<a xlink:href="../../d1/d59/xmpp__stanza_8c.html#d5/d6b/structxmpp__stanza" target="_top" xlink:title="xmpp_stanza">
<polygon fill="none" stroke="black" points="248.5,-401.442 248.5,-420.442 331.5,-420.442 331.5,-401.442 248.5,-401.442"/>
<text text-anchor="middle" x="290" y="-408.442" font-family="DejaVuSansMono" font-size="10.00">xmpp_stanza</text>
</a>
</g>
<!-- Node5&#45;&gt;Node4 -->
<g id="edge12" class="edge"><title>Node5&#45;&gt;Node4</title>
<path fill="none" stroke="#9a32cd" stroke-dasharray="5,2" d="M315.692,-396.192C326.242,-389.916 338.705,-382.538 350,-375.942 389.31,-352.985 435.739,-326.442 460.112,-312.551"/>
<polygon fill="#9a32cd" stroke="#9a32cd" points="313.791,-393.25 306.991,-401.375 317.374,-399.264 313.791,-393.25"/>
<text text-anchor="middle" x="381" y="-378.942" font-family="DejaVuSansMono" font-size="10.00"> cb</text>
</g>
<!-- Node5&#45;&gt;Node5 -->
<g id="edge18" class="edge"><title>Node5&#45;&gt;Node5</title>
<path fill="none" stroke="#9a32cd" stroke-dasharray="5,2" d="M273.334,-430.342C274.447,-435.256 280.002,-438.942 290,-438.942 305.996,-438.942 310.62,-429.507 303.872,-420.699"/>
<polygon fill="#9a32cd" stroke="#9a32cd" points="276.707,-431.278 276.128,-420.699 269.983,-429.33 276.707,-431.278"/>
<text text-anchor="middle" x="290" y="-474.942" font-family="DejaVuSansMono" font-size="10.00"> prev</text>
<text text-anchor="middle" x="290" y="-463.942" font-family="DejaVuSansMono" font-size="10.00">next</text>
<text text-anchor="middle" x="290" y="-452.942" font-family="DejaVuSansMono" font-size="10.00">parent</text>
<text text-anchor="middle" x="290" y="-441.942" font-family="DejaVuSansMono" font-size="10.00">children</text>
</g>
<!-- Node14 -->
<g id="node37" class="node"><title>Node14</title>
<a xlink:href="../../d0/df0/xmpp__server_8c.html#dd/d35/structiq__route" target="_top" xlink:title="Holds data on how to handle a particular iq stanza.">
<polygon fill="none" stroke="black" points="445.5,-371.442 445.5,-390.442 510.5,-390.442 510.5,-371.442 445.5,-371.442"/>
<text text-anchor="middle" x="478" y="-378.442" font-family="DejaVuSansMono" font-size="10.00">iq_route</text>
</a>
</g>
<!-- Node5&#45;&gt;Node14 -->
<g id="edge50" class="edge"><title>Node5&#45;&gt;Node14</title>
<path fill="none" stroke="#9a32cd" stroke-dasharray="5,2" d="M341.753,-402.756C374.778,-397.429 416.83,-390.647 445.206,-386.07"/>
<polygon fill="#9a32cd" stroke="#9a32cd" points="341.134,-399.31 331.818,-404.358 342.248,-406.221 341.134,-399.31"/>
<text text-anchor="middle" x="381" y="-403.942" font-family="DejaVuSansMono" font-size="10.00"> cb</text>
</g>
<!-- Node16 -->
<g id="node45" class="node"><title>Node16</title>
<a xlink:href="../../d1/dc2/xmpp__parser_8c.html#d2/da4/structxmpp__parser" target="_top" xlink:title="Structure holding state for the XML parser.">
<polygon fill="none" stroke="black" points="436.5,-527.442 436.5,-546.442 519.5,-546.442 519.5,-527.442 436.5,-527.442"/>
<text text-anchor="middle" x="478" y="-534.442" font-family="DejaVuSansMono" font-size="10.00">xmpp_parser</text>
</a>
</g>
<!-- Node5&#45;&gt;Node16 -->
<g id="edge64" class="edge"><title>Node5&#45;&gt;Node16</title>
<path fill="none" stroke="#9a32cd" stroke-dasharray="5,2" d="M317.014,-425.835C342.711,-441.246 382.36,-466.95 412,-494.942 421.437,-503.854 419.631,-510.133 430,-517.942 434.921,-521.648 440.666,-524.748 446.415,-527.296"/>
<polygon fill="#9a32cd" stroke="#9a32cd" points="318.612,-422.714 308.223,-420.638 315.05,-428.74 318.612,-422.714"/>
<text text-anchor="middle" x="381" y="-508.942" font-family="DejaVuSansMono" font-size="10.00"> handler</text>
<text text-anchor="middle" x="381" y="-497.942" font-family="DejaVuSansMono" font-size="10.00">cur_stanza</text>
</g>
<!-- Node6 -->
<g id="node12" class="node"><title>Node6</title>
<a xlink:href="../../d1/dc2/xmpp__parser_8c.html#dc/d9d/structxmpp__parser__namespace" target="_top" xlink:title="Structure representing an XML namespace.">
<polygon fill="none" stroke="black" points="0.5,-480.442 0.5,-499.442 143.5,-499.442 143.5,-480.442 0.5,-480.442"/>
<text text-anchor="middle" x="72" y="-487.442" font-family="DejaVuSansMono" font-size="10.00">xmpp_parser_namespace</text>
</a>
</g>
<!-- Node6&#45;&gt;Node5 -->
<g id="edge14" class="edge"><title>Node6&#45;&gt;Node5</title>
<path fill="none" stroke="#9a32cd" stroke-dasharray="5,2" d="M108.64,-476.907C152.031,-461.037 224.283,-434.611 262.853,-420.505"/>
<polygon fill="#9a32cd" stroke="#9a32cd" points="107.244,-473.69 99.0546,-480.412 109.648,-480.265 107.244,-473.69"/>
<text text-anchor="middle" x="196" y="-457.942" font-family="DejaVuSansMono" font-size="10.00"> namespaces</text>
</g>
<!-- Node6&#45;&gt;Node6 -->
<g id="edge16" class="edge"><title>Node6&#45;&gt;Node6</title>
<path fill="none" stroke="#9a32cd" stroke-dasharray="5,2" d="M48.9346,-508.971C50.1928,-514.07 57.8812,-517.942 72,-517.942 94.0391,-517.942 100.41,-508.507 91.112,-499.699"/>
<polygon fill="#9a32cd" stroke="#9a32cd" points="52.1854,-510.27 52.888,-499.699 45.7463,-507.525 52.1854,-510.27"/>
<text text-anchor="middle" x="72" y="-520.942" font-family="DejaVuSansMono" font-size="10.00"> next</text>
</g>
<!-- Node6&#45;&gt;Node16 -->
<g id="edge62" class="edge"><title>Node6&#45;&gt;Node16</title>
<path fill="none" stroke="#9a32cd" stroke-dasharray="5,2" d="M154.02,-499.367C239.469,-509.308 370.647,-524.569 436.431,-532.222"/>
<polygon fill="#9a32cd" stroke="#9a32cd" points="154.171,-495.861 143.834,-498.182 153.362,-502.815 154.171,-495.861"/>
<text text-anchor="middle" x="290" y="-521.942" font-family="DejaVuSansMono" font-size="10.00"> namespaces</text>
</g>
<!-- Node7 -->
<g id="node16" class="node"><title>Node7</title>
<a xlink:href="../../d1/d59/xmpp__stanza_8c.html#d9/d18/structattribute" target="_top" xlink:title="Structure to store a stanza attribute.">
<polygon fill="none" stroke="black" points="36.5,-401.442 36.5,-420.442 107.5,-420.442 107.5,-401.442 36.5,-401.442"/>
<text text-anchor="middle" x="72" y="-408.442" font-family="DejaVuSansMono" font-size="10.00">attribute</text>
</a>
</g>
<!-- Node7&#45;&gt;Node5 -->
<g id="edge20" class="edge"><title>Node7&#45;&gt;Node5</title>
<path fill="none" stroke="#9a32cd" stroke-dasharray="5,2" d="M118.094,-410.942C156.57,-410.942 211.398,-410.942 248.495,-410.942"/>
<polygon fill="#9a32cd" stroke="#9a32cd" points="117.704,-407.442 107.704,-410.942 117.704,-414.442 117.704,-407.442"/>
<text text-anchor="middle" x="196" y="-413.942" font-family="DejaVuSansMono" font-size="10.00"> attributes</text>
</g>
<!-- Node8 -->
<g id="node18" class="node"><title>Node8</title>
<a xlink:href="../../d3/d5a/jid_8c.html#df/d09/structjid" target="_top" xlink:title="Represents a JID (local/resource).">
<polygon fill="none" stroke="black" points="272.5,-188.442 272.5,-207.442 307.5,-207.442 307.5,-188.442 272.5,-188.442"/>
<text text-anchor="middle" x="290" y="-195.442" font-family="DejaVuSansMono" font-size="10.00">jid</text>
</a>
</g>
<!-- Node8&#45;&gt;Node2 -->
<g id="edge66" class="edge"><title>Node8&#45;&gt;Node2</title>
<path fill="none" stroke="#9a32cd" stroke-dasharray="5,2" d="M310.786,-181.869C336.423,-162.312 383.381,-130.693 430,-120.942 517.44,-102.651 551.19,-98.8794 630,-140.942 738.13,-198.653 725.034,-264.634 824,-336.942 832.747,-343.333 843.291,-348.995 852.516,-353.39"/>
<polygon fill="#9a32cd" stroke="#9a32cd" points="308.37,-179.315 302.642,-188.228 312.678,-184.832 308.37,-179.315"/>
<text text-anchor="middle" x="587" y="-143.942" font-family="DejaVuSansMono" font-size="10.00"> jid</text>
</g>
<!-- Node8&#45;&gt;Node3 -->
<g id="edge54" class="edge"><title>Node8&#45;&gt;Node3</title>
<path fill="none" stroke="#9a32cd" stroke-dasharray="5,2" d="M317.743,-200.094C376.309,-205.522 519.492,-222.708 630,-267.942 646.749,-274.798 665.068,-284.291 677.977,-291.336"/>
<polygon fill="#9a32cd" stroke="#9a32cd" points="317.776,-196.584 307.506,-199.187 317.158,-203.556 317.776,-196.584"/>
<text text-anchor="middle" x="478" y="-236.942" font-family="DejaVuSansMono" font-size="10.00"> jid</text>
</g>
<!-- Node8&#45;&gt;Node4 -->
<g id="edge22" class="edge"><title>Node8&#45;&gt;Node4</title>
<path fill="none" stroke="#9a32cd" stroke-dasharray="5,2" d="M312.028,-213.809C323.112,-221.942 337.061,-231.816 350,-239.942 384.364,-261.522 393.347,-266.529 430,-283.942 436.996,-287.265 444.736,-290.549 451.881,-293.427"/>
<polygon fill="#9a32cd" stroke="#9a32cd" points="313.943,-210.872 303.826,-207.727 309.774,-216.495 313.943,-210.872"/>
<text text-anchor="middle" x="381" y="-276.942" font-family="DejaVuSansMono" font-size="10.00"> jid</text>
</g>
<!-- Node11 -->
<g id="node26" class="node"><title>Node11</title>
<a xlink:href="../../d0/df0/xmpp__server_8c.html#d9/dbe/structdisco__item" target="_top" xlink:title="Holds data for items to report during a DISCO items query.">
<polygon fill="none" stroke="black" points="439.5,-130.442 439.5,-149.442 516.5,-149.442 516.5,-130.442 439.5,-130.442"/>
<text text-anchor="middle" x="478" y="-137.442" font-family="DejaVuSansMono" font-size="10.00">disco_item</text>
</a>
</g>
<!-- Node8&#45;&gt;Node11 -->
<g id="edge36" class="edge"><title>Node8&#45;&gt;Node11</title>
<path fill="none" stroke="#9a32cd" stroke-dasharray="5,2" d="M317.202,-189.771C351.228,-179.161 410.515,-160.674 446.519,-149.447"/>
<polygon fill="#9a32cd" stroke="#9a32cd" points="316.011,-186.476 307.506,-192.795 318.095,-193.159 316.011,-186.476"/>
<text text-anchor="middle" x="381" y="-181.942" font-family="DejaVuSansMono" font-size="10.00"> jid</text>
</g>
<!-- Node9 -->
<g id="node20" class="node"><title>Node9</title>
<a xlink:href="../../d0/deb/event_8c.html#d9/de5/structevent__loop" target="_top" xlink:title="Contains data about the whole event loop.">
<polygon fill="none" stroke="black" points="439.5,-24.4417 439.5,-43.4417 516.5,-43.4417 516.5,-24.4417 439.5,-24.4417"/>
<text text-anchor="middle" x="478" y="-31.4417" font-family="DejaVuSansMono" font-size="10.00">event_loop</text>
</a>
</g>
<!-- Node9&#45;&gt;Node3 -->
<g id="edge24" class="edge"><title>Node9&#45;&gt;Node3</title>
<path fill="none" stroke="#9a32cd" stroke-dasharray="5,2" d="M526.601,-39.6404C565.108,-45.1908 615.266,-54.8619 630,-68.9417 695.926,-131.94 696.707,-255.881 695.486,-291.288"/>
<polygon fill="#9a32cd" stroke="#9a32cd" points="526.977,-36.1591 516.591,-38.2509 526.015,-43.0926 526.977,-36.1591"/>
<text text-anchor="middle" x="587" y="-71.9417" font-family="DejaVuSansMono" font-size="10.00"> loop</text>
</g>
<!-- Node10 -->
<g id="node22" class="node"><title>Node10</title>
<a xlink:href="../../d0/deb/event_8c.html#de/dcb/structevent__item" target="_top" xlink:title="Contains data for one callback function.">
<polygon fill="none" stroke="black" points="657.5,-2.44173 657.5,-21.4417 734.5,-21.4417 734.5,-2.44173 657.5,-2.44173"/>
<text text-anchor="middle" x="696" y="-9.44173" font-family="DejaVuSansMono" font-size="10.00">event_item</text>
</a>
</g>
<!-- Node9&#45;&gt;Node10 -->
<g id="edge28" class="edge"><title>Node9&#45;&gt;Node10</title>
<path fill="none" stroke="#9a32cd" stroke-dasharray="5,2" d="M504.315,-19.6703C516.007,-13.8712 530.309,-7.85738 544,-4.94173 581.988,3.14828 626.521,-0.455386 657.335,-4.93582"/>
<polygon fill="#9a32cd" stroke="#9a32cd" points="502.439,-16.7012 495.179,-24.4183 505.667,-22.9124 502.439,-16.7012"/>
<text text-anchor="middle" x="587" y="-7.94173" font-family="DejaVuSansMono" font-size="10.00"> func</text>
</g>
<!-- Node10&#45;&gt;Node9 -->
<g id="edge26" class="edge"><title>Node10&#45;&gt;Node9</title>
<path fill="none" stroke="#9a32cd" stroke-dasharray="5,2" d="M647.299,-16.8001C607.958,-20.8071 552.907,-26.4142 516.624,-30.1096"/>
<polygon fill="#9a32cd" stroke="#9a32cd" points="647.851,-20.2621 657.445,-15.7668 647.142,-13.2981 647.851,-20.2621"/>
<text text-anchor="middle" x="587" y="-29.9417" font-family="DejaVuSansMono" font-size="10.00"> events</text>
</g>
<!-- Node10&#45;&gt;Node10 -->
<g id="edge30" class="edge"><title>Node10&#45;&gt;Node10</title>
<path fill="none" stroke="#9a32cd" stroke-dasharray="5,2" d="M679.705,-31.3418C680.793,-36.2563 686.225,-39.9417 696,-39.9417 711.641,-39.9417 716.162,-30.507 709.563,-21.6988"/>
<polygon fill="#9a32cd" stroke="#9a32cd" points="683.078,-32.2742 682.437,-21.6988 676.343,-30.3659 683.078,-32.2742"/>
<text text-anchor="middle" x="696" y="-53.9417" font-family="DejaVuSansMono" font-size="10.00"> prev</text>
<text text-anchor="middle" x="696" y="-42.9417" font-family="DejaVuSansMono" font-size="10.00">next</text>
</g>
<!-- Node11&#45;&gt;Node3 -->
<g id="edge32" class="edge"><title>Node11&#45;&gt;Node3</title>
<path fill="none" stroke="#9a32cd" stroke-dasharray="5,2" d="M526.749,-151.14C558.597,-160.433 599.973,-176.201 630,-200.942 661.322,-226.749 682.784,-271.657 691.124,-291.29"/>
<polygon fill="#9a32cd" stroke="#9a32cd" points="527.343,-147.672 516.77,-148.347 525.457,-154.413 527.343,-147.672"/>
<text text-anchor="middle" x="587" y="-203.942" font-family="DejaVuSansMono" font-size="10.00"> disco_items</text>
</g>
<!-- Node11&#45;&gt;Node11 -->
<g id="edge34" class="edge"><title>Node11&#45;&gt;Node11</title>
<path fill="none" stroke="#9a32cd" stroke-dasharray="5,2" d="M460.223,-159.342C461.41,-164.256 467.336,-167.942 478,-167.942 495.062,-167.942 499.995,-158.507 492.796,-149.699"/>
<polygon fill="#9a32cd" stroke="#9a32cd" points="463.594,-160.286 463.204,-149.699 456.907,-158.219 463.594,-160.286"/>
<text text-anchor="middle" x="478" y="-181.942" font-family="DejaVuSansMono" font-size="10.00"> prev</text>
<text text-anchor="middle" x="478" y="-170.942" font-family="DejaVuSansMono" font-size="10.00">next</text>
</g>
<!-- Node12&#45;&gt;Node3 -->
<g id="edge38" class="edge"><title>Node12&#45;&gt;Node3</title>
<path fill="none" stroke="#9a32cd" stroke-dasharray="5,2" d="M998.045,-329.061C923.336,-322.083 800.95,-310.651 737.696,-304.743"/>
<polygon fill="#9a32cd" stroke="#9a32cd" points="997.977,-332.57 1008.26,-330.015 998.628,-325.6 997.977,-332.57"/>
<text text-anchor="middle" x="876" y="-324.942" font-family="DejaVuSansMono" font-size="10.00"> client_listeners</text>
</g>
<!-- Node12&#45;&gt;Node12 -->
<g id="edge40" class="edge"><title>Node12&#45;&gt;Node12</title>
<path fill="none" stroke="#9a32cd" stroke-dasharray="5,2" d="M1044.59,-354.342C1045.76,-359.256 1051.56,-362.942 1062,-362.942 1078.71,-362.942 1083.54,-353.507 1076.49,-344.699"/>
<polygon fill="#9a32cd" stroke="#9a32cd" points="1047.97,-355.284 1047.51,-344.699 1041.27,-353.256 1047.97,-355.284"/>
<text text-anchor="middle" x="1062" y="-376.942" font-family="DejaVuSansMono" font-size="10.00"> prev</text>
<text text-anchor="middle" x="1062" y="-365.942" font-family="DejaVuSansMono" font-size="10.00">next</text>
</g>
<!-- Node13 -->
<g id="node35" class="node"><title>Node13</title>
<a xlink:href="../../d9/db0/structauth__callback.html" target="_top" xlink:title="Holds data for an authentication callback.">
<polygon fill="none" stroke="black" points="430.5,-255.442 430.5,-274.442 525.5,-274.442 525.5,-255.442 430.5,-255.442"/>
<text text-anchor="middle" x="478" y="-262.442" font-family="DejaVuSansMono" font-size="10.00">auth_callback</text>
</a>
</g>
<!-- Node13&#45;&gt;Node3 -->
<g id="edge46" class="edge"><title>Node13&#45;&gt;Node3</title>
<path fill="none" stroke="#9a32cd" stroke-dasharray="5,2" d="M535.911,-271.646C564.28,-275.295 599.053,-280.231 630,-285.942 638.542,-287.518 647.658,-289.458 656.278,-291.414"/>
<polygon fill="#9a32cd" stroke="#9a32cd" points="536.128,-268.145 525.768,-270.36 535.248,-275.09 536.128,-268.145"/>
<text text-anchor="middle" x="587" y="-288.942" font-family="DejaVuSansMono" font-size="10.00"> auth_callback</text>
</g>
<!-- Node14&#45;&gt;Node3 -->
<g id="edge48" class="edge"><title>Node14&#45;&gt;Node3</title>
<path fill="none" stroke="#9a32cd" stroke-dasharray="5,2" d="M519.452,-366.485C521.751,-365.089 523.955,-363.577 526,-361.942 536.975,-353.162 532.373,-343.837 544,-335.942 553.156,-329.725 612.894,-317.046 654.428,-308.777"/>
<polygon fill="#9a32cd" stroke="#9a32cd" points="517.489,-363.562 510.252,-371.3 520.735,-369.764 517.489,-363.562"/>
<text text-anchor="middle" x="587" y="-338.942" font-family="DejaVuSansMono" font-size="10.00"> iq_routes</text>
</g>
<!-- Node14&#45;&gt;Node14 -->
<g id="edge52" class="edge"><title>Node14&#45;&gt;Node14</title>
<path fill="none" stroke="#9a32cd" stroke-dasharray="5,2" d="M460.223,-400.342C461.41,-405.256 467.336,-408.942 478,-408.942 495.062,-408.942 499.995,-399.507 492.796,-390.699"/>
<polygon fill="#9a32cd" stroke="#9a32cd" points="463.594,-401.286 463.204,-390.699 456.907,-399.219 463.594,-401.286"/>
<text text-anchor="middle" x="478" y="-422.942" font-family="DejaVuSansMono" font-size="10.00"> prev</text>
<text text-anchor="middle" x="478" y="-411.942" font-family="DejaVuSansMono" font-size="10.00">next</text>
</g>
<!-- Node15 -->
<g id="node42" class="node"><title>Node15</title>
<a xlink:href="../../d9/d71/client__socket_8h.html#df/d6d/structclient__socket" target="_top" xlink:title="client_socket">
<polygon fill="none" stroke="black" points="648.5,-471.442 648.5,-490.442 743.5,-490.442 743.5,-471.442 648.5,-471.442"/>
<text text-anchor="middle" x="696" y="-478.442" font-family="DejaVuSansMono" font-size="10.00">client_socket</text>
</a>
</g>
<!-- Node15&#45;&gt;Node2 -->
<g id="edge56" class="edge"><title>Node15&#45;&gt;Node2</title>
<path fill="none" stroke="#9a32cd" stroke-dasharray="5,2" d="M753.859,-475.676C771.619,-472.063 790.581,-466.021 806,-455.942 838.815,-434.491 861.673,-391.759 870.703,-372.613"/>
<polygon fill="#9a32cd" stroke="#9a32cd" points="752.794,-472.311 743.576,-477.535 754.039,-479.2 752.794,-472.311"/>
<text text-anchor="middle" x="784" y="-475.942" font-family="DejaVuSansMono" font-size="10.00"> socket</text>
</g>
<!-- Node15&#45;&gt;Node15 -->
<g id="edge58" class="edge"><title>Node15&#45;&gt;Node15</title>
<path fill="none" stroke="#9a32cd" stroke-dasharray="5,2" d="M679.705,-500.342C680.793,-505.256 686.225,-508.942 696,-508.942 711.641,-508.942 716.162,-499.507 709.563,-490.699"/>
<polygon fill="#9a32cd" stroke="#9a32cd" points="683.078,-501.274 682.437,-490.699 676.343,-499.366 683.078,-501.274"/>
<text text-anchor="middle" x="696" y="-566.942" font-family="DejaVuSansMono" font-size="10.00"> recv_func</text>
<text text-anchor="middle" x="696" y="-555.942" font-family="DejaVuSansMono" font-size="10.00">send_func</text>
<text text-anchor="middle" x="696" y="-544.942" font-family="DejaVuSansMono" font-size="10.00">close_func</text>
<text text-anchor="middle" x="696" y="-533.942" font-family="DejaVuSansMono" font-size="10.00">del_func</text>
<text text-anchor="middle" x="696" y="-522.942" font-family="DejaVuSansMono" font-size="10.00">fd_func</text>
<text text-anchor="middle" x="696" y="-511.942" font-family="DejaVuSansMono" font-size="10.00">str_func</text>
</g>
<!-- Node16&#45;&gt;Node2 -->
<g id="edge60" class="edge"><title>Node16&#45;&gt;Node2</title>
<path fill="none" stroke="#9a32cd" stroke-dasharray="5,2" d="M513.378,-523.593C517.661,-521.769 521.955,-519.862 526,-517.942 581.884,-491.414 591.927,-477.068 648,-450.942 717.921,-418.364 803.514,-387.512 846.9,-372.482"/>
<polygon fill="#9a32cd" stroke="#9a32cd" points="512.019,-520.367 504.117,-527.425 514.696,-526.835 512.019,-520.367"/>
<text text-anchor="middle" x="696" y="-453.942" font-family="DejaVuSansMono" font-size="10.00"> parser</text>
</g>
</g>
</svg>
        <g id="navigator" transform="translate(0 0)" fill="#404254">
                <rect fill="#f2f5e9" fill-opacity="0.5" stroke="#606060" stroke-width=".5" x="0" y="0" width="60" height="60"/>
                <use id="zoomplus" xlink:href="#zoomPlus" x="17" y="9" onmousedown="handleZoom(evt,'in')"/>
                <use id="zoomminus" xlink:href="#zoomMin" x="42" y="9" onmousedown="handleZoom(evt,'out')"/>
                <use id="reset" xlink:href="#resetDef" x="30" y="36" onmousedown="handleReset()"/>
                <g id="arrowUp" xlink:href="#dirArrow" transform="translate(30 24)" onmousedown="handlePan(0,-1)">
                  <use xlink:href="#rim" fill="#404040">
                        <set attributeName="fill" to="#808080" begin="arrowUp.mouseover" end="arrowUp.mouseout"/>
                  </use>
                  <path fill="none" stroke="white" stroke-width="1.5" d="M0,-3.0v7 M-2.5,-0.5L0,-3.0L2.5,-0.5"/>
                </g>
                <g id="arrowRight" xlink:href="#dirArrow" transform="rotate(90) translate(36 -43)" onmousedown="handlePan(1,0)">
                  <use xlink:href="#rim" fill="#404040">
                        <set attributeName="fill" to="#808080" begin="arrowRight.mouseover" end="arrowRight.mouseout"/>
                  </use>
                  <path fill="none" stroke="white" stroke-width="1.5" d="M0,-3.0v7 M-2.5,-0.5L0,-3.0L2.5,-0.5"/>
                </g>
                <g id="arrowDown" xlink:href="#dirArrow" transform="rotate(180) translate(-30 -48)" onmousedown="handlePan(0,1)">
                  <use xlink:href="#rim" fill="#404040">
                        <set attributeName="fill" to="#808080" begin="arrowDown.mouseover" end="arrowDown.mouseout"/>
                  </use>
                  <path fill="none" stroke="white" stroke-width="1.5" d="M0,-3.0v7 M-2.5,-0.5L0,-3.0L2.5,-0.5"/>
                </g>
                <g id="arrowLeft" xlink:href="#dirArrow" transform="rotate(270) translate(-36 17)" onmousedown="handlePan(-1,0)">
                  <use xlink:href="#rim" fill="#404040">
                        <set attributeName="fill" to="#808080" begin="arrowLeft.mouseover" end="arrowLeft.mouseout"/>
                  </use>
                  <path fill="none" stroke="white" stroke-width="1.5" d="M0,-3.0v7 M-2.5,-0.5L0,-3.0L2.5,-0.5"/>
                </g>
        </g>
        <svg viewBox="0 0 25 25" width="100%" height="30px" preserveAspectRatio="xMaxYMin meet"> 
          <g id="printButton" transform="scale(0.4 0.4)" onmousedown="handlePrint(evt)">
            <rect height="23.33753581" id="paper" rx="2" style="fill:#f2f5e9;fill-rule:evenodd;stroke:#111111;stroke-width:3.224;stroke-linejoin:round;" transform="matrix(1.000000,0.000000,-0.339266,0.940691,0.000000,0.000000)" width="25.55231285" x="26.69387353" y="7.36162977"/>
            <rect height="26.272097" id="body" rx="2" style="fill:#404040;fill-rule:evenodd;stroke:#111111;stroke-width:3.125;stroke-linejoin:round;" width="50" x="4.5295201" y="27.078951"/>
            <rect height="8.27750969" id="tray" style="fill:#d2d5c9;fill-rule:evenodd;stroke:#111111;stroke-width:3.125;stroke-linecap:round;stroke-linejoin:round;" width="40" x="10.28778839" y="44.96812282"/>
          </g>
        </svg>
</svg>
