<?xml version="1.0" encoding="UTF-8" standalone="no"?>
<!DOCTYPE svg PUBLIC "-//W3C//DTD SVG 1.1//EN"
 "http://www.w3.org/Graphics/SVG/1.1/DTD/svg11.dtd">
<!-- Generated by graphviz version 2.28.0 (20120217.0315)
 -->
<!-- Title: G Pages: 1 -->
<svg width="314pt" height="198pt"
 viewBox="0.00 0.00 314.00 198.00" xmlns="http://www.w3.org/2000/svg" xmlns:xlink="http://www.w3.org/1999/xlink">
<g id="graph1" class="graph" transform="scale(1 1) rotate(0) translate(4 194)">
<title>G</title>
<!-- Node1 -->
<g id="node1" class="node"><title>Node1</title>
<polygon fill="#bfbfbf" stroke="black" points="69.5,-0.5 69.5,-19.5 152.5,-19.5 152.5,-0.5 69.5,-0.5"/>
<text text-anchor="middle" x="111" y="-7.5" font-family="DejaVuSansMono" font-size="10.00">xmpp_parser</text>
</g>
<!-- Node2 -->
<g id="node2" class="node"><title>Node2</title>
<a xlink:href="../../d1/dc2/xmpp__parser_8c.html#dc/d9d/structxmpp__parser__namespace" target="_top" xlink:title="Structure representing an XML namespace.">
<polygon fill="none" stroke="black" points="-0.5,-170.5 -0.5,-189.5 142.5,-189.5 142.5,-170.5 -0.5,-170.5"/>
<text text-anchor="middle" x="71" y="-177.5" font-family="DejaVuSansMono" font-size="10.00">xmpp_parser_namespace</text>
</a>
</g>
<!-- Node2&#45;&gt;Node1 -->
<g id="edge2" class="edge"><title>Node2&#45;&gt;Node1</title>
<path fill="none" stroke="#9a32cd" stroke-dasharray="5,2" d="M70.7618,-160.278C70.9376,-139.748 72.5191,-105.996 80,-78 85.8895,-55.9596 98.5762,-32.1774 105.76,-19.7311"/>
<polygon fill="#9a32cd" stroke="#9a32cd" points="67.2621,-160.457 70.7835,-170.45 74.2621,-160.442 67.2621,-160.457"/>
<text text-anchor="middle" x="113.5" y="-97.5" font-family="DejaVuSansMono" font-size="10.00"> namespaces</text>
</g>
<!-- Node2&#45;&gt;Node2 -->
<g id="edge4" class="edge"><title>Node2&#45;&gt;Node2</title>
<path fill="none" stroke="#9a32cd" stroke-dasharray="5,2" d="M152.666,-184.301C157.261,-183.26 160,-181.826 160,-180 160,-177.078 152.989,-175.161 142.582,-174.248"/>
<polygon fill="#9a32cd" stroke="#9a32cd" points="151.981,-180.864 142.582,-185.752 152.978,-187.793 151.981,-180.864"/>
<text text-anchor="middle" x="175.5" y="-177.5" font-family="DejaVuSansMono" font-size="10.00"> next</text>
</g>
<!-- Node3 -->
<g id="node5" class="node"><title>Node3</title>
<a xlink:href="../../d1/d59/xmpp__stanza_8c.html#d5/d6b/structxmpp__stanza" target="_top" xlink:title="xmpp_stanza">
<polygon fill="none" stroke="black" points="156.5,-90.5 156.5,-109.5 239.5,-109.5 239.5,-90.5 156.5,-90.5"/>
<text text-anchor="middle" x="198" y="-97.5" font-family="DejaVuSansMono" font-size="10.00">xmpp_stanza</text>
</a>
</g>
<!-- Node2&#45;&gt;Node3 -->
<g id="edge8" class="edge"><title>Node2&#45;&gt;Node3</title>
<path fill="none" stroke="#9a32cd" stroke-dasharray="5,2" d="M93.9353,-164.914C120.103,-148.842 162.079,-123.061 183.86,-109.684"/>
<polygon fill="#9a32cd" stroke="#9a32cd" points="91.7659,-162.139 85.0765,-170.355 95.4294,-168.104 91.7659,-162.139"/>
<text text-anchor="middle" x="168.5" y="-143.5" font-family="DejaVuSansMono" font-size="10.00"> namespaces</text>
</g>
<!-- Node3&#45;&gt;Node1 -->
<g id="edge6" class="edge"><title>Node3&#45;&gt;Node1</title>
<path fill="none" stroke="#9a32cd" stroke-dasharray="5,2" d="M182.239,-83.0583C163.875,-64.4825 134.192,-34.459 119.625,-19.7241"/>
<polygon fill="#9a32cd" stroke="#9a32cd" points="179.82,-85.5898 189.34,-90.2405 184.798,-80.6684 179.82,-85.5898"/>
<text text-anchor="middle" x="188.5" y="-52" font-family="DejaVuSansMono" font-size="10.00"> handler</text>
<text text-anchor="middle" x="188.5" y="-41" font-family="DejaVuSansMono" font-size="10.00">cur_stanza</text>
</g>
<!-- Node3&#45;&gt;Node3 -->
<g id="edge10" class="edge"><title>Node3&#45;&gt;Node3</title>
<path fill="none" stroke="#9a32cd" stroke-dasharray="5,2" d="M249.508,-106.816C254.111,-105.388 257,-103.116 257,-100 257,-95.0137 249.605,-92.1894 239.625,-91.5271"/>
<polygon fill="#9a32cd" stroke="#9a32cd" points="248.909,-103.367 239.625,-108.473 250.066,-110.271 248.909,-103.367"/>
<text text-anchor="middle" x="281.5" y="-114" font-family="DejaVuSansMono" font-size="10.00"> prev</text>
<text text-anchor="middle" x="281.5" y="-103" font-family="DejaVuSansMono" font-size="10.00">next</text>
<text text-anchor="middle" x="281.5" y="-92" font-family="DejaVuSansMono" font-size="10.00">parent</text>
<text text-anchor="middle" x="281.5" y="-81" font-family="DejaVuSansMono" font-size="10.00">children</text>
</g>
<!-- Node4 -->
<g id="node9" class="node"><title>Node4</title>
<a xlink:href="../../d1/d59/xmpp__stanza_8c.html#d9/d18/structattribute" target="_top" xlink:title="Structure to store a stanza attribute.">
<polygon fill="none" stroke="black" points="209.5,-170.5 209.5,-189.5 280.5,-189.5 280.5,-170.5 209.5,-170.5"/>
<text text-anchor="middle" x="245" y="-177.5" font-family="DejaVuSansMono" font-size="10.00">attribute</text>
</a>
</g>
<!-- Node4&#45;&gt;Node3 -->
<g id="edge12" class="edge"><title>Node4&#45;&gt;Node3</title>
<path fill="none" stroke="#9a32cd" stroke-dasharray="5,2" d="M234.424,-161.448C224.777,-145.439 210.914,-122.432 203.377,-109.924"/>
<polygon fill="#9a32cd" stroke="#9a32cd" points="231.632,-163.596 239.791,-170.355 237.627,-159.983 231.632,-163.596"/>
<text text-anchor="middle" x="262.5" y="-143.5" font-family="DejaVuSansMono" font-size="10.00"> attributes</text>
</g>
</g>
</svg>
