<?xml version="1.0" encoding="UTF-8" standalone="no"?>
<!DOCTYPE svg PUBLIC "-//W3C//DTD SVG 1.1//EN"
 "http://www.w3.org/Graphics/SVG/1.1/DTD/svg11.dtd">
<!-- Generated by graphviz version 2.28.0 (20120217.0315)
 -->
<!-- Title: G Pages: 1 -->
<!--zoomable 470 -->
<svg id="main" version="1.1" xmlns="http://www.w3.org/2000/svg" xmlns:xlink="http://www.w3.org/1999/xlink" xml:space="preserve" onload="init(evt)">
        <defs>
                <circle id="rim" cx="0" cy="0" r="7"/>
                <circle id="rim2" cx="0" cy="0" r="3.5"/>
                <g id="zoomPlus">
                        <use xlink:href="#rim" fill="#404040">
                                <set attributeName="fill" to="#808080" begin="zoomplus.mouseover" end="zoomplus.mouseout"/>
                        </use>
                        <path d="M-4,0h8M0,-4v8" fill="none" stroke="white" stroke-width="1.5" pointer-events="none"/>
                </g>
                <g id="zoomMin">
                        <use xlink:href="#rim" fill="#404040">
                                <set attributeName="fill" to="#808080" begin="zoomminus.mouseover" end="zoomminus.mouseout"/>
                        </use>
                        <path d="M-4,0h8" fill="none" stroke="white" stroke-width="1.5" pointer-events="none"/>
                </g>
                <g id="dirArrow">
                        <path fill="none" stroke="white" stroke-width="1.5" d="M0,-3.0v7 M-2.5,-0.5L0,-3.0L2.5,-0.5"/>
                </g>
               <g id="resetDef">
                       <use xlink:href="#rim2" fill="#404040">
                               <set attributeName="fill" to="#808080" begin="reset.mouseover" end="reset.mouseout"/>
                       </use>
               </g>
        </defs>

<script type="text/javascript">
var viewWidth = 1111;
var viewHeight = 470;
var sectionId = 'dynsection-1';
</script>
<script xlink:href="../../svgpan.js"/>
<svg id="graph" class="graph">
<g id="viewport">
<title>G</title>
<!-- Node1 -->
<g id="node1" class="node"><title>Node1</title>
<polygon fill="#bfbfbf" stroke="black" points="216.5,-80.5 216.5,-99.5 317.5,-99.5 317.5,-80.5 216.5,-80.5"/>
<text text-anchor="middle" x="267" y="-87.5" font-family="DejaVuSansMono" font-size="10.00">xmp3_multicast</text>
</g>
<!-- Node2 -->
<g id="node2" class="node"><title>Node2</title>
<a xlink:href="../../d0/df0/xmpp__server_8c.html#d8/d34/structxmpp__server" target="_top" xlink:title="Holds data on a XMPP server (connected clients, routes, etc.).">
<polygon fill="none" stroke="black" points="500.5,-171.5 500.5,-190.5 583.5,-190.5 583.5,-171.5 500.5,-171.5"/>
<text text-anchor="middle" x="542" y="-178.5" font-family="DejaVuSansMono" font-size="10.00">xmpp_server</text>
</a>
</g>
<!-- Node2&#45;&gt;Node1 -->
<g id="edge2" class="edge"><title>Node2&#45;&gt;Node1</title>
<path fill="none" stroke="#9a32cd" stroke-dasharray="5,2" d="M506.101,-168.382C449.99,-150.222 342.813,-115.536 293.288,-99.5079"/>
<polygon fill="#9a32cd" stroke="#9a32cd" points="505.04,-171.717 515.632,-171.466 507.195,-165.057 505.04,-171.717"/>
<text text-anchor="middle" x="401.5" y="-121.5" font-family="DejaVuSansMono" font-size="10.00"> server</text>
</g>
<!-- Node12 -->
<g id="node30" class="node"><title>Node12</title>
<a xlink:href="../../dd/d4d/xmpp__client_8c.html#de/de2/structxmpp__client" target="_top" xlink:title="Data on a connected client.">
<polygon fill="none" stroke="black" points="595.5,-80.5 595.5,-99.5 678.5,-99.5 678.5,-80.5 595.5,-80.5"/>
<text text-anchor="middle" x="637" y="-87.5" font-family="DejaVuSansMono" font-size="10.00">xmpp_client</text>
</a>
</g>
<!-- Node2&#45;&gt;Node12 -->
<g id="edge40" class="edge"><title>Node2&#45;&gt;Node12</title>
<path fill="none" stroke="#9a32cd" stroke-dasharray="5,2" d="M558.588,-164.459C578.67,-145.646 611.78,-114.627 627.779,-99.6386"/>
<polygon fill="#9a32cd" stroke="#9a32cd" points="556.014,-162.075 551.109,-171.466 560.8,-167.184 556.014,-162.075"/>
<text text-anchor="middle" x="628.5" y="-121.5" font-family="DejaVuSansMono" font-size="10.00"> server</text>
</g>
<!-- Node3 -->
<g id="node4" class="node"><title>Node3</title>
<a xlink:href="../../d0/df0/xmpp__server_8c.html#d4/d94/structstanza__route" target="_top" xlink:title="Holds data on how to send a stanza to a particular JID.">
<polygon fill="none" stroke="black" points="271.5,-271.5 271.5,-290.5 360.5,-290.5 360.5,-271.5 271.5,-271.5"/>
<text text-anchor="middle" x="316" y="-278.5" font-family="DejaVuSansMono" font-size="10.00">stanza_route</text>
</a>
</g>
<!-- Node3&#45;&gt;Node2 -->
<g id="edge4" class="edge"><title>Node3&#45;&gt;Node2</title>
<path fill="none" stroke="#9a32cd" stroke-dasharray="5,2" d="M330.36,-263.602C340.276,-253.201 354.285,-240.205 369,-232 410.642,-208.781 464.063,-195.482 500.452,-188.524"/>
<polygon fill="#9a32cd" stroke="#9a32cd" points="327.53,-261.51 323.35,-271.246 332.689,-266.242 327.53,-261.51"/>
<text text-anchor="middle" x="411.5" y="-239.5" font-family="DejaVuSansMono" font-size="10.00"> stanza_routes</text>
</g>
<!-- Node3&#45;&gt;Node3 -->
<g id="edge6" class="edge"><title>Node3&#45;&gt;Node3</title>
<path fill="none" stroke="#9a32cd" stroke-dasharray="5,2" d="M370.516,-286.533C375.126,-285.349 378,-283.505 378,-281 378,-276.992 370.644,-274.675 360.586,-274.049"/>
<polygon fill="#9a32cd" stroke="#9a32cd" points="369.991,-283.073 360.586,-287.951 370.98,-290.002 369.991,-283.073"/>
<text text-anchor="middle" x="393.5" y="-284" font-family="DejaVuSansMono" font-size="10.00"> prev</text>
<text text-anchor="middle" x="393.5" y="-273" font-family="DejaVuSansMono" font-size="10.00">next</text>
</g>
<!-- Node4 -->
<g id="node7" class="node"><title>Node4</title>
<a xlink:href="../../d1/d59/xmpp__stanza_8c.html#d5/d6b/structxmpp__stanza" target="_top" xlink:title="xmpp_stanza">
<polygon fill="none" stroke="black" points="156.5,-362.5 156.5,-381.5 239.5,-381.5 239.5,-362.5 156.5,-362.5"/>
<text text-anchor="middle" x="198" y="-369.5" font-family="DejaVuSansMono" font-size="10.00">xmpp_stanza</text>
</a>
</g>
<!-- Node4&#45;&gt;Node3 -->
<g id="edge8" class="edge"><title>Node4&#45;&gt;Node3</title>
<path fill="none" stroke="#9a32cd" stroke-dasharray="5,2" d="M217.616,-356.205C242.447,-337.476 284.409,-305.827 304.547,-290.639"/>
<polygon fill="#9a32cd" stroke="#9a32cd" points="215.191,-353.65 209.314,-362.466 219.406,-359.239 215.191,-353.65"/>
<text text-anchor="middle" x="287.5" y="-318.5" font-family="DejaVuSansMono" font-size="10.00"> cb</text>
</g>
<!-- Node4&#45;&gt;Node4 -->
<g id="edge14" class="edge"><title>Node4&#45;&gt;Node4</title>
<path fill="none" stroke="#9a32cd" stroke-dasharray="5,2" d="M249.508,-378.816C254.111,-377.388 257,-375.116 257,-372 257,-367.014 249.605,-364.189 239.625,-363.527"/>
<polygon fill="#9a32cd" stroke="#9a32cd" points="248.909,-375.367 239.625,-380.473 250.066,-382.271 248.909,-375.367"/>
<text text-anchor="middle" x="281.5" y="-386" font-family="DejaVuSansMono" font-size="10.00"> prev</text>
<text text-anchor="middle" x="281.5" y="-375" font-family="DejaVuSansMono" font-size="10.00">next</text>
<text text-anchor="middle" x="281.5" y="-364" font-family="DejaVuSansMono" font-size="10.00">parent</text>
<text text-anchor="middle" x="281.5" y="-353" font-family="DejaVuSansMono" font-size="10.00">children</text>
</g>
<!-- Node14 -->
<g id="node36" class="node"><title>Node14</title>
<a xlink:href="../../d1/dc2/xmpp__parser_8c.html#d2/da4/structxmpp__parser" target="_top" xlink:title="Structure holding state for the XML parser.">
<polygon fill="none" stroke="black" points="88.5,-232.5 88.5,-251.5 171.5,-251.5 171.5,-232.5 88.5,-232.5"/>
<text text-anchor="middle" x="130" y="-239.5" font-family="DejaVuSansMono" font-size="10.00">xmpp_parser</text>
</a>
</g>
<!-- Node4&#45;&gt;Node14 -->
<g id="edge50" class="edge"><title>Node4&#45;&gt;Node14</title>
<path fill="none" stroke="#9a32cd" stroke-dasharray="5,2" d="M163.369,-358.815C143.58,-351.074 121.607,-340.876 116,-332 99.7936,-306.346 116.19,-268.463 125.082,-251.618"/>
<polygon fill="#9a32cd" stroke="#9a32cd" points="162.236,-362.129 172.827,-362.402 164.718,-355.583 162.236,-362.129"/>
<text text-anchor="middle" x="146.5" y="-324" font-family="DejaVuSansMono" font-size="10.00"> handler</text>
<text text-anchor="middle" x="146.5" y="-313" font-family="DejaVuSansMono" font-size="10.00">cur_stanza</text>
</g>
<!-- Node17 -->
<g id="node47" class="node"><title>Node17</title>
<a xlink:href="../../d0/df0/xmpp__server_8c.html#dd/d35/structiq__route" target="_top" xlink:title="Holds data on how to handle a particular iq stanza.">
<polygon fill="none" stroke="black" points="139.5,-271.5 139.5,-290.5 204.5,-290.5 204.5,-271.5 139.5,-271.5"/>
<text text-anchor="middle" x="172" y="-278.5" font-family="DejaVuSansMono" font-size="10.00">iq_route</text>
</a>
</g>
<!-- Node4&#45;&gt;Node17 -->
<g id="edge64" class="edge"><title>Node4&#45;&gt;Node17</title>
<path fill="none" stroke="#9a32cd" stroke-dasharray="5,2" d="M192.629,-352.616C187.089,-333.652 178.688,-304.894 174.524,-290.639"/>
<polygon fill="#9a32cd" stroke="#9a32cd" points="189.343,-353.849 195.507,-362.466 196.062,-351.886 189.343,-353.849"/>
<text text-anchor="middle" x="196.5" y="-318.5" font-family="DejaVuSansMono" font-size="10.00"> cb</text>
</g>
<!-- Node5 -->
<g id="node9" class="node"><title>Node5</title>
<a xlink:href="../../d1/dc2/xmpp__parser_8c.html#dc/d9d/structxmpp__parser__namespace" target="_top" xlink:title="Structure representing an XML namespace.">
<polygon fill="none" stroke="black" points="-0.5,-442.5 -0.5,-461.5 142.5,-461.5 142.5,-442.5 -0.5,-442.5"/>
<text text-anchor="middle" x="71" y="-449.5" font-family="DejaVuSansMono" font-size="10.00">xmpp_parser_namespace</text>
</a>
</g>
<!-- Node5&#45;&gt;Node4 -->
<g id="edge10" class="edge"><title>Node5&#45;&gt;Node4</title>
<path fill="none" stroke="#9a32cd" stroke-dasharray="5,2" d="M93.9353,-436.914C120.103,-420.842 162.079,-395.061 183.86,-381.684"/>
<polygon fill="#9a32cd" stroke="#9a32cd" points="91.7659,-434.139 85.0765,-442.355 95.4294,-440.104 91.7659,-434.139"/>
<text text-anchor="middle" x="168.5" y="-415.5" font-family="DejaVuSansMono" font-size="10.00"> namespaces</text>
</g>
<!-- Node5&#45;&gt;Node5 -->
<g id="edge12" class="edge"><title>Node5&#45;&gt;Node5</title>
<path fill="none" stroke="#9a32cd" stroke-dasharray="5,2" d="M152.666,-456.301C157.261,-455.26 160,-453.826 160,-452 160,-449.078 152.989,-447.161 142.582,-446.248"/>
<polygon fill="#9a32cd" stroke="#9a32cd" points="151.981,-452.864 142.582,-457.752 152.978,-459.793 151.981,-452.864"/>
<text text-anchor="middle" x="175.5" y="-449.5" font-family="DejaVuSansMono" font-size="10.00"> next</text>
</g>
<!-- Node5&#45;&gt;Node14 -->
<g id="edge48" class="edge"><title>Node5&#45;&gt;Node14</title>
<path fill="none" stroke="#9a32cd" stroke-dasharray="5,2" d="M70.9453,-432.414C71.6204,-398.078 76.7731,-323.344 107,-270 110.764,-263.357 116.278,-256.815 120.964,-251.834"/>
<polygon fill="#9a32cd" stroke="#9a32cd" points="67.4454,-432.391 70.8582,-442.421 74.4452,-432.452 67.4454,-432.391"/>
<text text-anchor="middle" x="113.5" y="-369.5" font-family="DejaVuSansMono" font-size="10.00"> namespaces</text>
</g>
<!-- Node6 -->
<g id="node13" class="node"><title>Node6</title>
<a xlink:href="../../d1/d59/xmpp__stanza_8c.html#d9/d18/structattribute" target="_top" xlink:title="Structure to store a stanza attribute.">
<polygon fill="none" stroke="black" points="209.5,-442.5 209.5,-461.5 280.5,-461.5 280.5,-442.5 209.5,-442.5"/>
<text text-anchor="middle" x="245" y="-449.5" font-family="DejaVuSansMono" font-size="10.00">attribute</text>
</a>
</g>
<!-- Node6&#45;&gt;Node4 -->
<g id="edge16" class="edge"><title>Node6&#45;&gt;Node4</title>
<path fill="none" stroke="#9a32cd" stroke-dasharray="5,2" d="M234.424,-433.448C224.777,-417.439 210.914,-394.432 203.377,-381.924"/>
<polygon fill="#9a32cd" stroke="#9a32cd" points="231.632,-435.596 239.791,-442.355 237.627,-431.983 231.632,-435.596"/>
<text text-anchor="middle" x="262.5" y="-415.5" font-family="DejaVuSansMono" font-size="10.00"> attributes</text>
</g>
<!-- Node7 -->
<g id="node15" class="node"><title>Node7</title>
<a xlink:href="../../d3/d5a/jid_8c.html#df/d09/structjid" target="_top" xlink:title="Represents a JID (local/resource).">
<polygon fill="none" stroke="black" points="582.5,-362.5 582.5,-381.5 617.5,-381.5 617.5,-362.5 582.5,-362.5"/>
<text text-anchor="middle" x="600" y="-369.5" font-family="DejaVuSansMono" font-size="10.00">jid</text>
</a>
</g>
<!-- Node7&#45;&gt;Node2 -->
<g id="edge68" class="edge"><title>Node7&#45;&gt;Node2</title>
<path fill="none" stroke="#9a32cd" stroke-dasharray="5,2" d="M591.908,-353.27C584.906,-337.444 574.855,-313.512 568,-292 556.203,-254.98 547.101,-209.423 543.582,-190.68"/>
<polygon fill="#9a32cd" stroke="#9a32cd" points="588.715,-354.704 596.005,-362.392 595.101,-351.836 588.715,-354.704"/>
<text text-anchor="middle" x="580.5" y="-278.5" font-family="DejaVuSansMono" font-size="10.00"> jid</text>
</g>
<!-- Node7&#45;&gt;Node3 -->
<g id="edge18" class="edge"><title>Node7&#45;&gt;Node3</title>
<path fill="none" stroke="#9a32cd" stroke-dasharray="5,2" d="M572.602,-362.414C518.321,-345.403 397.683,-307.598 343.4,-290.587"/>
<polygon fill="#9a32cd" stroke="#9a32cd" points="571.645,-365.782 582.235,-365.433 573.739,-359.102 571.645,-365.782"/>
<text text-anchor="middle" x="488.5" y="-318.5" font-family="DejaVuSansMono" font-size="10.00"> jid</text>
</g>
<!-- Node10 -->
<g id="node23" class="node"><title>Node10</title>
<a xlink:href="../../d0/df0/xmpp__server_8c.html#d9/dbe/structdisco__item" target="_top" xlink:title="Holds data for items to report during a DISCO items query.">
<polygon fill="none" stroke="black" points="602.5,-271.5 602.5,-290.5 679.5,-290.5 679.5,-271.5 602.5,-271.5"/>
<text text-anchor="middle" x="641" y="-278.5" font-family="DejaVuSansMono" font-size="10.00">disco_item</text>
</a>
</g>
<!-- Node7&#45;&gt;Node10 -->
<g id="edge32" class="edge"><title>Node7&#45;&gt;Node10</title>
<path fill="none" stroke="#9a32cd" stroke-dasharray="5,2" d="M608.225,-353.145C616.957,-334.191 630.392,-305.028 637.02,-290.639"/>
<polygon fill="#9a32cd" stroke="#9a32cd" points="604.937,-351.919 603.931,-362.466 611.294,-354.848 604.937,-351.919"/>
<text text-anchor="middle" x="640.5" y="-318.5" font-family="DejaVuSansMono" font-size="10.00"> jid</text>
</g>
<!-- Node7&#45;&gt;Node12 -->
<g id="edge52" class="edge"><title>Node7&#45;&gt;Node12</title>
<path fill="none" stroke="#9a32cd" stroke-dasharray="5,2" d="M627.777,-364.022C660.562,-354.129 713.577,-332.545 737,-292 778.723,-219.777 680.811,-127.845 647.561,-99.6235"/>
<polygon fill="#9a32cd" stroke="#9a32cd" points="626.565,-360.727 617.906,-366.832 628.482,-367.46 626.565,-360.727"/>
<text text-anchor="middle" x="760.5" y="-239.5" font-family="DejaVuSansMono" font-size="10.00"> jid</text>
</g>
<!-- Node8 -->
<g id="node17" class="node"><title>Node8</title>
<a xlink:href="../../d0/deb/event_8c.html#d9/de5/structevent__loop" target="_top" xlink:title="Contains data about the whole event loop.">
<polygon fill="none" stroke="black" points="923.5,-271.5 923.5,-290.5 1000.5,-290.5 1000.5,-271.5 923.5,-271.5"/>
<text text-anchor="middle" x="962" y="-278.5" font-family="DejaVuSansMono" font-size="10.00">event_loop</text>
</a>
</g>
<!-- Node8&#45;&gt;Node2 -->
<g id="edge20" class="edge"><title>Node8&#45;&gt;Node2</title>
<path fill="none" stroke="#9a32cd" stroke-dasharray="5,2" d="M913.187,-277.748C849.258,-274.277 740.965,-266.457 704,-252 690.092,-246.56 690.133,-239.109 677,-232 642.821,-213.5 600.354,-199.026 572.279,-190.514"/>
<polygon fill="#9a32cd" stroke="#9a32cd" points="913.261,-281.257 923.432,-278.288 913.63,-274.267 913.261,-281.257"/>
<text text-anchor="middle" x="719.5" y="-239.5" font-family="DejaVuSansMono" font-size="10.00"> loop</text>
</g>
<!-- Node9 -->
<g id="node19" class="node"><title>Node9</title>
<a xlink:href="../../d0/deb/event_8c.html#de/dcb/structevent__item" target="_top" xlink:title="Contains data for one callback function.">
<polygon fill="none" stroke="black" points="977.5,-171.5 977.5,-190.5 1054.5,-190.5 1054.5,-171.5 977.5,-171.5"/>
<text text-anchor="middle" x="1016" y="-178.5" font-family="DejaVuSansMono" font-size="10.00">event_item</text>
</a>
</g>
<!-- Node8&#45;&gt;Node9 -->
<g id="edge24" class="edge"><title>Node8&#45;&gt;Node9</title>
<path fill="none" stroke="#9a32cd" stroke-dasharray="5,2" d="M956.889,-261.653C955.271,-252.383 954.84,-241.184 959,-232 967.42,-213.415 986.539,-199.005 1000.32,-190.528"/>
<polygon fill="#9a32cd" stroke="#9a32cd" points="953.481,-262.449 959.128,-271.413 960.303,-260.884 953.481,-262.449"/>
<text text-anchor="middle" x="974.5" y="-239.5" font-family="DejaVuSansMono" font-size="10.00"> func</text>
</g>
<!-- Node9&#45;&gt;Node8 -->
<g id="edge22" class="edge"><title>Node9&#45;&gt;Node8</title>
<path fill="none" stroke="#9a32cd" stroke-dasharray="5,2" d="M1012.97,-200.849C1009.94,-215.671 1004.21,-236.358 994,-252 988.997,-259.666 981.333,-266.474 974.759,-271.458"/>
<polygon fill="#9a32cd" stroke="#9a32cd" points="1016.45,-201.304 1014.8,-190.839 1009.56,-200.049 1016.45,-201.304"/>
<text text-anchor="middle" x="1024.5" y="-239.5" font-family="DejaVuSansMono" font-size="10.00"> events</text>
</g>
<!-- Node9&#45;&gt;Node9 -->
<g id="edge26" class="edge"><title>Node9&#45;&gt;Node9</title>
<path fill="none" stroke="#9a32cd" stroke-dasharray="5,2" d="M1049.96,-191.491C1062.11,-191.703 1072,-188.206 1072,-181 1072,-171.867 1056.11,-168.692 1039.88,-171.475"/>
<polygon fill="#9a32cd" stroke="#9a32cd" points="1050.17,-187.995 1039.88,-190.525 1049.5,-194.963 1050.17,-187.995"/>
<text text-anchor="middle" x="1087.5" y="-184" font-family="DejaVuSansMono" font-size="10.00"> prev</text>
<text text-anchor="middle" x="1087.5" y="-173" font-family="DejaVuSansMono" font-size="10.00">next</text>
</g>
<!-- Node10&#45;&gt;Node2 -->
<g id="edge28" class="edge"><title>Node10&#45;&gt;Node2</title>
<path fill="none" stroke="#9a32cd" stroke-dasharray="5,2" d="M620.314,-265.483C614.834,-261.335 609.043,-256.669 604,-252 582.08,-231.707 559.641,-204.423 548.753,-190.681"/>
<polygon fill="#9a32cd" stroke="#9a32cd" points="618.384,-268.408 628.518,-271.498 622.524,-262.763 618.384,-268.408"/>
<text text-anchor="middle" x="640.5" y="-239.5" font-family="DejaVuSansMono" font-size="10.00"> disco_items</text>
</g>
<!-- Node10&#45;&gt;Node10 -->
<g id="edge30" class="edge"><title>Node10&#45;&gt;Node10</title>
<path fill="none" stroke="#9a32cd" stroke-dasharray="5,2" d="M689.872,-286.635C694.251,-285.456 697,-283.578 697,-281 697,-276.77 689.597,-274.423 679.735,-273.96"/>
<polygon fill="#9a32cd" stroke="#9a32cd" points="689.16,-283.2 679.735,-288.04 690.121,-290.134 689.16,-283.2"/>
<text text-anchor="middle" x="712.5" y="-284" font-family="DejaVuSansMono" font-size="10.00"> prev</text>
<text text-anchor="middle" x="712.5" y="-273" font-family="DejaVuSansMono" font-size="10.00">next</text>
</g>
<!-- Node11 -->
<g id="node27" class="node"><title>Node11</title>
<a xlink:href="../../d0/df0/xmpp__server_8c.html#d2/d06/structclient__listener" target="_top" xlink:title="Holds data on how to notify a component when a client disconnects.">
<polygon fill="none" stroke="black" points="450.5,-1.5 450.5,-20.5 557.5,-20.5 557.5,-1.5 450.5,-1.5"/>
<text text-anchor="middle" x="504" y="-8.5" font-family="DejaVuSansMono" font-size="10.00">client_listener</text>
</a>
</g>
<!-- Node11&#45;&gt;Node2 -->
<g id="edge34" class="edge"><title>Node11&#45;&gt;Node2</title>
<path fill="none" stroke="#9a32cd" stroke-dasharray="5,2" d="M494.11,-29.6345C485.367,-47.5746 475.129,-76.0658 483,-100 492.812,-129.837 518.493,-157.684 532.52,-171.29"/>
<polygon fill="#9a32cd" stroke="#9a32cd" points="497.288,-31.1114 498.813,-20.627 491.082,-27.8716 497.288,-31.1114"/>
<text text-anchor="middle" x="534.5" y="-87.5" font-family="DejaVuSansMono" font-size="10.00"> client_listeners</text>
</g>
<!-- Node11&#45;&gt;Node11 -->
<g id="edge36" class="edge"><title>Node11&#45;&gt;Node11</title>
<path fill="none" stroke="#9a32cd" stroke-dasharray="5,2" d="M567.569,-16.5361C572.179,-15.2868 575,-13.4414 575,-11 575,-7.09375 567.778,-4.71338 557.564,-3.85889"/>
<polygon fill="#9a32cd" stroke="#9a32cd" points="566.884,-13.1012 557.564,-18.1411 567.993,-20.0128 566.884,-13.1012"/>
<text text-anchor="middle" x="590.5" y="-14" font-family="DejaVuSansMono" font-size="10.00"> prev</text>
<text text-anchor="middle" x="590.5" y="-3" font-family="DejaVuSansMono" font-size="10.00">next</text>
</g>
<!-- Node12&#45;&gt;Node11 -->
<g id="edge38" class="edge"><title>Node12&#45;&gt;Node11</title>
<path fill="none" stroke="#9a32cd" stroke-dasharray="5,2" d="M613.341,-75.3026C585.963,-59.4523 541.718,-33.8365 518.808,-20.5728"/>
<polygon fill="#9a32cd" stroke="#9a32cd" points="611.851,-78.484 622.259,-80.4655 615.358,-72.426 611.851,-78.484"/>
<text text-anchor="middle" x="612.5" y="-54" font-family="DejaVuSansMono" font-size="10.00"> client</text>
<text text-anchor="middle" x="612.5" y="-43" font-family="DejaVuSansMono" font-size="10.00">cb</text>
</g>
<!-- Node15 -->
<g id="node41" class="node"><title>Node15</title>
<a xlink:href="../../d0/df0/xmpp__server_8c.html#d5/da1/structc__client" target="_top" xlink:title="c_client">
<polygon fill="none" stroke="black" points="653.5,-1.5 653.5,-20.5 718.5,-20.5 718.5,-1.5 653.5,-1.5"/>
<text text-anchor="middle" x="686" y="-8.5" font-family="DejaVuSansMono" font-size="10.00">c_client</text>
</a>
</g>
<!-- Node12&#45;&gt;Node15 -->
<g id="edge58" class="edge"><title>Node12&#45;&gt;Node15</title>
<path fill="none" stroke="#9a32cd" stroke-dasharray="5,2" d="M643.029,-70.4787C646.598,-60.9287 651.666,-49.3549 658,-40 662.933,-32.7134 669.933,-25.7134 675.7,-20.535"/>
<polygon fill="#9a32cd" stroke="#9a32cd" points="639.636,-69.58 639.648,-80.1748 646.245,-71.8847 639.636,-69.58"/>
<text text-anchor="middle" x="679.5" y="-48.5" font-family="DejaVuSansMono" font-size="10.00"> client</text>
</g>
<!-- Node13 -->
<g id="node33" class="node"><title>Node13</title>
<a xlink:href="../../d9/d71/client__socket_8h.html#df/d6d/structclient__socket" target="_top" xlink:title="client_socket">
<polygon fill="none" stroke="black" points="785.5,-171.5 785.5,-190.5 880.5,-190.5 880.5,-171.5 785.5,-171.5"/>
<text text-anchor="middle" x="833" y="-178.5" font-family="DejaVuSansMono" font-size="10.00">client_socket</text>
</a>
</g>
<!-- Node13&#45;&gt;Node12 -->
<g id="edge42" class="edge"><title>Node13&#45;&gt;Node12</title>
<path fill="none" stroke="#9a32cd" stroke-dasharray="5,2" d="M820.797,-163.135C809.515,-148.838 791.443,-128.96 771,-118 762.843,-113.627 714.868,-104.557 678.632,-98.1392"/>
<polygon fill="#9a32cd" stroke="#9a32cd" points="818.072,-165.334 826.904,-171.186 823.649,-161.104 818.072,-165.334"/>
<text text-anchor="middle" x="810.5" y="-121.5" font-family="DejaVuSansMono" font-size="10.00"> socket</text>
</g>
<!-- Node13&#45;&gt;Node13 -->
<g id="edge44" class="edge"><title>Node13&#45;&gt;Node13</title>
<path fill="none" stroke="#9a32cd" stroke-dasharray="5,2" d="M870.734,-191.448C885.591,-191.974 898,-188.492 898,-181 898,-171.867 879.559,-168.692 860.723,-171.475"/>
<polygon fill="#9a32cd" stroke="#9a32cd" points="871.002,-187.958 860.723,-190.525 870.359,-194.929 871.002,-187.958"/>
<text text-anchor="middle" x="928.5" y="-206" font-family="DejaVuSansMono" font-size="10.00"> recv_func</text>
<text text-anchor="middle" x="928.5" y="-195" font-family="DejaVuSansMono" font-size="10.00">send_func</text>
<text text-anchor="middle" x="928.5" y="-184" font-family="DejaVuSansMono" font-size="10.00">close_func</text>
<text text-anchor="middle" x="928.5" y="-173" font-family="DejaVuSansMono" font-size="10.00">del_func</text>
<text text-anchor="middle" x="928.5" y="-162" font-family="DejaVuSansMono" font-size="10.00">fd_func</text>
<text text-anchor="middle" x="928.5" y="-151" font-family="DejaVuSansMono" font-size="10.00">str_func</text>
</g>
<!-- Node14&#45;&gt;Node1 -->
<g id="edge70" class="edge"><title>Node14&#45;&gt;Node1</title>
<path fill="none" stroke="#9a32cd" stroke-dasharray="5,2" d="M145.084,-224.484C174.126,-192.687 236.893,-123.963 259.055,-99.6993"/>
<polygon fill="#9a32cd" stroke="#9a32cd" points="142.319,-222.322 138.16,-232.066 147.488,-227.043 142.319,-222.322"/>
<text text-anchor="middle" x="235.5" y="-178.5" font-family="DejaVuSansMono" font-size="10.00"> parser</text>
</g>
<!-- Node14&#45;&gt;Node12 -->
<g id="edge46" class="edge"><title>Node14&#45;&gt;Node12</title>
<path fill="none" stroke="#9a32cd" stroke-dasharray="5,2" d="M181.871,-237.591C207.023,-234.173 236.923,-227.395 261,-214 312.374,-185.419 298.943,-143.322 352,-118 398.068,-96.0138 530.315,-106.055 581,-100 585.693,-99.4394 590.595,-98.7725 595.463,-98.0591"/>
<polygon fill="#9a32cd" stroke="#9a32cd" points="181.276,-234.137 171.772,-238.821 182.122,-241.086 181.276,-234.137"/>
<text text-anchor="middle" x="337.5" y="-178.5" font-family="DejaVuSansMono" font-size="10.00"> parser</text>
</g>
<!-- Node15&#45;&gt;Node2 -->
<g id="edge54" class="edge"><title>Node15&#45;&gt;Node2</title>
<path fill="none" stroke="#9a32cd" stroke-dasharray="5,2" d="M697.206,-29.8483C698.774,-33.1151 700.141,-36.5768 701,-40 707.666,-66.5592 702.303,-77.292 687,-100 660.73,-138.982 608.87,-160.803 574.823,-171.482"/>
<polygon fill="#9a32cd" stroke="#9a32cd" points="700.13,-27.9039 692.211,-20.8651 694.012,-31.3058 700.13,-27.9039"/>
<text text-anchor="middle" x="723.5" y="-87.5" font-family="DejaVuSansMono" font-size="10.00"> clients</text>
</g>
<!-- Node15&#45;&gt;Node15 -->
<g id="edge56" class="edge"><title>Node15&#45;&gt;Node15</title>
<path fill="none" stroke="#9a32cd" stroke-dasharray="5,2" d="M728.791,-17.1821C733.189,-15.9648 736,-13.9041 736,-11 736,-6.23438 728.43,-3.73987 718.7,-3.51648"/>
<polygon fill="#9a32cd" stroke="#9a32cd" points="728.171,-13.733 718.7,-18.4835 729.066,-20.6755 728.171,-13.733"/>
<text text-anchor="middle" x="751.5" y="-14" font-family="DejaVuSansMono" font-size="10.00"> prev</text>
<text text-anchor="middle" x="751.5" y="-3" font-family="DejaVuSansMono" font-size="10.00">next</text>
</g>
<!-- Node16 -->
<g id="node45" class="node"><title>Node16</title>
<a xlink:href="../../d9/db0/structauth__callback.html" target="_top" xlink:title="Holds data for an authentication callback.">
<polygon fill="none" stroke="black" points="427.5,-271.5 427.5,-290.5 522.5,-290.5 522.5,-271.5 427.5,-271.5"/>
<text text-anchor="middle" x="475" y="-278.5" font-family="DejaVuSansMono" font-size="10.00">auth_callback</text>
</a>
</g>
<!-- Node16&#45;&gt;Node2 -->
<g id="edge60" class="edge"><title>Node16&#45;&gt;Node2</title>
<path fill="none" stroke="#9a32cd" stroke-dasharray="5,2" d="M463.158,-262.858C458.164,-253.37 454.614,-241.592 460,-232 471.592,-211.355 495.554,-198.229 514.596,-190.633"/>
<polygon fill="#9a32cd" stroke="#9a32cd" points="460.173,-264.687 468.356,-271.418 466.156,-261.053 460.173,-264.687"/>
<text text-anchor="middle" x="502.5" y="-239.5" font-family="DejaVuSansMono" font-size="10.00"> auth_callback</text>
</g>
<!-- Node17&#45;&gt;Node2 -->
<g id="edge62" class="edge"><title>Node17&#45;&gt;Node2</title>
<path fill="none" stroke="#9a32cd" stroke-dasharray="5,2" d="M196.6,-266.83C217.671,-256.048 249.102,-241.135 278,-232 288.55,-228.665 428.5,-202.804 500.229,-189.643"/>
<polygon fill="#9a32cd" stroke="#9a32cd" points="194.954,-263.741 187.694,-271.457 198.181,-269.952 194.954,-263.741"/>
<text text-anchor="middle" x="308.5" y="-239.5" font-family="DejaVuSansMono" font-size="10.00"> iq_routes</text>
</g>
<!-- Node17&#45;&gt;Node17 -->
<g id="edge66" class="edge"><title>Node17&#45;&gt;Node17</title>
<path fill="none" stroke="#9a32cd" stroke-dasharray="5,2" d="M214.791,-286.873C219.189,-285.717 222,-283.759 222,-281 222,-276.473 214.43,-274.103 204.7,-273.891"/>
<polygon fill="#9a32cd" stroke="#9a32cd" points="214.201,-283.419 204.7,-288.109 215.052,-290.367 214.201,-283.419"/>
<text text-anchor="middle" x="237.5" y="-284" font-family="DejaVuSansMono" font-size="10.00"> prev</text>
<text text-anchor="middle" x="237.5" y="-273" font-family="DejaVuSansMono" font-size="10.00">next</text>
</g>
</g>
</svg>
        <g id="navigator" transform="translate(0 0)" fill="#404254">
                <rect fill="#f2f5e9" fill-opacity="0.5" stroke="#606060" stroke-width=".5" x="0" y="0" width="60" height="60"/>
                <use id="zoomplus" xlink:href="#zoomPlus" x="17" y="9" onmousedown="handleZoom(evt,'in')"/>
                <use id="zoomminus" xlink:href="#zoomMin" x="42" y="9" onmousedown="handleZoom(evt,'out')"/>
                <use id="reset" xlink:href="#resetDef" x="30" y="36" onmousedown="handleReset()"/>
                <g id="arrowUp" xlink:href="#dirArrow" transform="translate(30 24)" onmousedown="handlePan(0,-1)">
                  <use xlink:href="#rim" fill="#404040">
                        <set attributeName="fill" to="#808080" begin="arrowUp.mouseover" end="arrowUp.mouseout"/>
                  </use>
                  <path fill="none" stroke="white" stroke-width="1.5" d="M0,-3.0v7 M-2.5,-0.5L0,-3.0L2.5,-0.5"/>
                </g>
                <g id="arrowRight" xlink:href="#dirArrow" transform="rotate(90) translate(36 -43)" onmousedown="handlePan(1,0)">
                  <use xlink:href="#rim" fill="#404040">
                        <set attributeName="fill" to="#808080" begin="arrowRight.mouseover" end="arrowRight.mouseout"/>
                  </use>
                  <path fill="none" stroke="white" stroke-width="1.5" d="M0,-3.0v7 M-2.5,-0.5L0,-3.0L2.5,-0.5"/>
                </g>
                <g id="arrowDown" xlink:href="#dirArrow" transform="rotate(180) translate(-30 -48)" onmousedown="handlePan(0,1)">
                  <use xlink:href="#rim" fill="#404040">
                        <set attributeName="fill" to="#808080" begin="arrowDown.mouseover" end="arrowDown.mouseout"/>
                  </use>
                  <path fill="none" stroke="white" stroke-width="1.5" d="M0,-3.0v7 M-2.5,-0.5L0,-3.0L2.5,-0.5"/>
                </g>
                <g id="arrowLeft" xlink:href="#dirArrow" transform="rotate(270) translate(-36 17)" onmousedown="handlePan(-1,0)">
                  <use xlink:href="#rim" fill="#404040">
                        <set attributeName="fill" to="#808080" begin="arrowLeft.mouseover" end="arrowLeft.mouseout"/>
                  </use>
                  <path fill="none" stroke="white" stroke-width="1.5" d="M0,-3.0v7 M-2.5,-0.5L0,-3.0L2.5,-0.5"/>
                </g>
        </g>
        <svg viewBox="0 0 25 25" width="100%" height="30px" preserveAspectRatio="xMaxYMin meet"> 
          <g id="printButton" transform="scale(0.4 0.4)" onmousedown="handlePrint(evt)">
            <rect height="23.33753581" id="paper" rx="2" style="fill:#f2f5e9;fill-rule:evenodd;stroke:#111111;stroke-width:3.224;stroke-linejoin:round;" transform="matrix(1.000000,0.000000,-0.339266,0.940691,0.000000,0.000000)" width="25.55231285" x="26.69387353" y="7.36162977"/>
            <rect height="26.272097" id="body" rx="2" style="fill:#404040;fill-rule:evenodd;stroke:#111111;stroke-width:3.125;stroke-linejoin:round;" width="50" x="4.5295201" y="27.078951"/>
            <rect height="8.27750969" id="tray" style="fill:#d2d5c9;fill-rule:evenodd;stroke:#111111;stroke-width:3.125;stroke-linecap:round;stroke-linejoin:round;" width="40" x="10.28778839" y="44.96812282"/>
          </g>
        </svg>
</svg>
