<?xml version="1.0" encoding="UTF-8" standalone="no"?>
<!DOCTYPE svg PUBLIC "-//W3C//DTD SVG 1.1//EN"
 "http://www.w3.org/Graphics/SVG/1.1/DTD/svg11.dtd">
<!-- Generated by graphviz version 2.28.0 (20120217.0315)
 -->
<!-- Title: G Pages: 1 -->
<svg width="139pt" height="98pt"
 viewBox="0.00 0.00 139.00 98.00" xmlns="http://www.w3.org/2000/svg" xmlns:xlink="http://www.w3.org/1999/xlink">
<g id="graph1" class="graph" transform="scale(1 1) rotate(0) translate(4 94)">
<title>G</title>
<!-- Node1 -->
<g id="node1" class="node"><title>Node1</title>
<polygon fill="#bfbfbf" stroke="black" points="-0.5,-1.5 -0.5,-20.5 82.5,-20.5 82.5,-1.5 -0.5,-1.5"/>
<text text-anchor="middle" x="41" y="-8.5" font-family="DejaVuSansMono" font-size="10.00">room_client</text>
</g>
<!-- Node1&#45;&gt;Node1 -->
<g id="edge2" class="edge"><title>Node1&#45;&gt;Node1</title>
<path fill="none" stroke="#9a32cd" stroke-dasharray="5,2" d="M92.8504,-15.9574C97.254,-14.8984 100,-13.2459 100,-11 100,-7.31445 92.6052,-5.22694 82.6251,-4.73745"/>
<polygon fill="#9a32cd" stroke="#9a32cd" points="92.1015,-12.5245 82.6251,-17.2626 92.9878,-19.4682 92.1015,-12.5245"/>
<text text-anchor="middle" x="115.5" y="-14" font-family="DejaVuSansMono" font-size="10.00"> prev</text>
<text text-anchor="middle" x="115.5" y="-3" font-family="DejaVuSansMono" font-size="10.00">next</text>
</g>
<!-- Node2 -->
<g id="node3" class="node"><title>Node2</title>
<a xlink:href="../../d3/d5a/jid_8c.html#df/d09/structjid" target="_top" xlink:title="Represents a JID (local/resource).">
<polygon fill="none" stroke="black" points="23.5,-70.5 23.5,-89.5 58.5,-89.5 58.5,-70.5 23.5,-70.5"/>
<text text-anchor="middle" x="41" y="-77.5" font-family="DejaVuSansMono" font-size="10.00">jid</text>
</a>
</g>
<!-- Node2&#45;&gt;Node1 -->
<g id="edge4" class="edge"><title>Node2&#45;&gt;Node1</title>
<path fill="none" stroke="#9a32cd" stroke-dasharray="5,2" d="M41,-60.0183C41,-47.034 41,-30.4419 41,-20.5494"/>
<polygon fill="#9a32cd" stroke="#9a32cd" points="37.5001,-60.2409 41,-70.2409 44.5001,-60.241 37.5001,-60.2409"/>
<text text-anchor="middle" x="74.5" y="-43.5" font-family="DejaVuSansMono" font-size="10.00"> client_jid</text>
</g>
</g>
</svg>
