<?xml version="1.0" encoding="UTF-8" standalone="no"?>
<!DOCTYPE svg PUBLIC "-//W3C//DTD SVG 1.1//EN"
 "http://www.w3.org/Graphics/SVG/1.1/DTD/svg11.dtd">
<!-- Generated by graphviz version 2.28.0 (20120217.0315)
 -->
<!-- Title: G Pages: 1 -->
<!--zoomable 142 -->
<svg id="main" version="1.1" xmlns="http://www.w3.org/2000/svg" xmlns:xlink="http://www.w3.org/1999/xlink" xml:space="preserve" onload="init(evt)">
        <defs>
                <circle id="rim" cx="0" cy="0" r="7"/>
                <circle id="rim2" cx="0" cy="0" r="3.5"/>
                <g id="zoomPlus">
                        <use xlink:href="#rim" fill="#404040">
                                <set attributeName="fill" to="#808080" begin="zoomplus.mouseover" end="zoomplus.mouseout"/>
                        </use>
                        <path d="M-4,0h8M0,-4v8" fill="none" stroke="white" stroke-width="1.5" pointer-events="none"/>
                </g>
                <g id="zoomMin">
                        <use xlink:href="#rim" fill="#404040">
                                <set attributeName="fill" to="#808080" begin="zoomminus.mouseover" end="zoomminus.mouseout"/>
                        </use>
                        <path d="M-4,0h8" fill="none" stroke="white" stroke-width="1.5" pointer-events="none"/>
                </g>
                <g id="dirArrow">
                        <path fill="none" stroke="white" stroke-width="1.5" d="M0,-3.0v7 M-2.5,-0.5L0,-3.0L2.5,-0.5"/>
                </g>
               <g id="resetDef">
                       <use xlink:href="#rim2" fill="#404040">
                               <set attributeName="fill" to="#808080" begin="reset.mouseover" end="reset.mouseout"/>
                       </use>
               </g>
        </defs>

<script type="text/javascript">
var viewWidth = 914;
var viewHeight = 142;
var sectionId = 'dynsection-8';
</script>
<script xlink:href="../../svgpan.js"/>
<svg id="graph" class="graph">
<g id="viewport">
<title>G</title>
<!-- Node1 -->
<g id="node1" class="node"><title>Node1</title>
<polygon fill="#bfbfbf" stroke="black" points="0.5,-57.5 0.5,-76.5 83.5,-76.5 83.5,-57.5 0.5,-57.5"/>
<text text-anchor="middle" x="42" y="-64.5" font-family="DejaVuSansMono" font-size="10.00">init_parser</text>
</g>
<!-- Node2 -->
<g id="node3" class="node"><title>Node2</title>
<a xlink:href="../../d8/d55/xmpp__parser_8h.html#adf25a1d2047994dfa6cc71a9482548c2" target="_top" xlink:title="xmpp_parser_new">
<polygon fill="none" stroke="black" points="126.5,-76.5 126.5,-95.5 233.5,-95.5 233.5,-76.5 126.5,-76.5"/>
<text text-anchor="middle" x="180" y="-83.5" font-family="DejaVuSansMono" font-size="10.00">xmpp_parser_new</text>
</a>
</g>
<!-- Node1&#45;&gt;Node2 -->
<g id="edge2" class="edge"><title>Node1&#45;&gt;Node2</title>
<path fill="none" stroke="midnightblue" d="M93.7245,-74.0865C104.3,-75.564 115.473,-77.1249 126.124,-78.6129"/>
<polygon fill="midnightblue" stroke="midnightblue" points="94.1926,-70.618 83.8045,-72.7006 93.224,-77.5507 94.1926,-70.618"/>
</g>
<!-- Node8 -->
<g id="node15" class="node"><title>Node8</title>
<a xlink:href="../../d8/d55/xmpp__parser_8h.html#af5e1eb5bbef0496c3543bd35113766ac" target="_top" xlink:title="Reset the state of the parser as if it was just created.">
<polygon fill="none" stroke="black" points="120.5,-38.5 120.5,-57.5 239.5,-57.5 239.5,-38.5 120.5,-38.5"/>
<text text-anchor="middle" x="180" y="-45.5" font-family="DejaVuSansMono" font-size="10.00">xmpp_parser_reset</text>
</a>
</g>
<!-- Node1&#45;&gt;Node8 -->
<g id="edge14" class="edge"><title>Node1&#45;&gt;Node8</title>
<path fill="none" stroke="midnightblue" d="M93.7668,-59.9076C102.441,-58.6957 111.517,-57.4278 120.376,-56.1902"/>
<polygon fill="midnightblue" stroke="midnightblue" points="93.224,-56.4493 83.8045,-61.2994 94.1926,-63.382 93.224,-56.4493"/>
</g>
<!-- Node3 -->
<g id="node5" class="node"><title>Node3</title>
<a xlink:href="../../d6/d78/xmp3__multicast_8c.html#a08afc39c59ec9297d756a99c395eff3c" target="_top" xlink:title="multicast_new">
<polygon fill="none" stroke="black" points="288.5,-114.5 288.5,-133.5 383.5,-133.5 383.5,-114.5 288.5,-114.5"/>
<text text-anchor="middle" x="336" y="-121.5" font-family="DejaVuSansMono" font-size="10.00">multicast_new</text>
</a>
</g>
<!-- Node2&#45;&gt;Node3 -->
<g id="edge4" class="edge"><title>Node2&#45;&gt;Node3</title>
<path fill="none" stroke="midnightblue" d="M229.794,-98.04C251.308,-103.349 276.232,-109.499 296.419,-114.48"/>
<polygon fill="midnightblue" stroke="midnightblue" points="230.408,-94.5867 219.861,-95.589 228.731,-101.383 230.408,-94.5867"/>
</g>
<!-- Node4 -->
<g id="node7" class="node"><title>Node4</title>
<a xlink:href="../../d4/d2f/xmpp__client_8h.html#a1619c0b8f58b2cf09a322bf34fbc3414" target="_top" xlink:title="xmpp_client_new">
<polygon fill="none" stroke="black" points="432.5,-76.5 432.5,-95.5 539.5,-95.5 539.5,-76.5 432.5,-76.5"/>
<text text-anchor="middle" x="486" y="-83.5" font-family="DejaVuSansMono" font-size="10.00">xmpp_client_new</text>
</a>
</g>
<!-- Node2&#45;&gt;Node4 -->
<g id="edge6" class="edge"><title>Node2&#45;&gt;Node4</title>
<path fill="none" stroke="midnightblue" d="M243.702,-86C299.384,-86 379.838,-86 432.275,-86"/>
<polygon fill="midnightblue" stroke="midnightblue" points="243.606,-82.5001 233.606,-86 243.606,-89.5001 243.606,-82.5001"/>
</g>
<!-- Node5 -->
<g id="node9" class="node"><title>Node5</title>
<a xlink:href="../../d0/df0/xmpp__server_8c.html#a66363912ef1221a2574f9f99805fe8fd" target="_top" xlink:title="Callback for new client connections.">
<polygon fill="none" stroke="black" points="579.5,-57.5 579.5,-76.5 680.5,-76.5 680.5,-57.5 579.5,-57.5"/>
<text text-anchor="middle" x="630" y="-64.5" font-family="DejaVuSansMono" font-size="10.00">connect_client</text>
</a>
</g>
<!-- Node4&#45;&gt;Node5 -->
<g id="edge8" class="edge"><title>Node4&#45;&gt;Node5</title>
<path fill="none" stroke="midnightblue" d="M550.017,-77.5682C559.851,-76.2523 569.892,-74.9088 579.373,-73.6403"/>
<polygon fill="midnightblue" stroke="midnightblue" points="549.323,-74.1297 539.876,-78.9251 550.251,-81.0679 549.323,-74.1297"/>
</g>
<!-- Node6 -->
<g id="node11" class="node"><title>Node6</title>
<a xlink:href="../../d1/d2e/xmpp__server_8h.html#a27bfc8e4d424a8bc17ab21a4a09cdf92" target="_top" xlink:title="Allocates and initializes the XMPP server.">
<polygon fill="none" stroke="black" points="720.5,-57.5 720.5,-76.5 827.5,-76.5 827.5,-57.5 720.5,-57.5"/>
<text text-anchor="middle" x="774" y="-64.5" font-family="DejaVuSansMono" font-size="10.00">xmpp_server_new</text>
</a>
</g>
<!-- Node5&#45;&gt;Node6 -->
<g id="edge10" class="edge"><title>Node5&#45;&gt;Node6</title>
<path fill="none" stroke="midnightblue" d="M690.733,-67C700.527,-67 710.615,-67 720.225,-67"/>
<polygon fill="midnightblue" stroke="midnightblue" points="690.665,-63.5001 680.665,-67 690.665,-70.5001 690.665,-63.5001"/>
</g>
<!-- Node7 -->
<g id="node13" class="node"><title>Node7</title>
<a xlink:href="../../d0/d29/main_8c.html#a0ddf1224851353fc92bfbff6f499fa97" target="_top" xlink:title="main">
<polygon fill="none" stroke="black" points="864.5,-57.5 864.5,-76.5 905.5,-76.5 905.5,-57.5 864.5,-57.5"/>
<text text-anchor="middle" x="885" y="-64.5" font-family="DejaVuSansMono" font-size="10.00">main</text>
</a>
</g>
<!-- Node6&#45;&gt;Node7 -->
<g id="edge12" class="edge"><title>Node6&#45;&gt;Node7</title>
<path fill="none" stroke="midnightblue" d="M837.751,-67C847.434,-67 856.761,-67 864.472,-67"/>
<polygon fill="midnightblue" stroke="midnightblue" points="837.584,-63.5001 827.584,-67 837.584,-70.5001 837.584,-63.5001"/>
</g>
<!-- Node9 -->
<g id="node17" class="node"><title>Node9</title>
<a xlink:href="../../d6/d78/xmp3__multicast_8c.html#a9865e8026fb8ee000629fc1da465716d" target="_top" xlink:title="socket_handler">
<polygon fill="none" stroke="black" points="435.5,-0.5 435.5,-19.5 536.5,-19.5 536.5,-0.5 435.5,-0.5"/>
<text text-anchor="middle" x="486" y="-7.5" font-family="DejaVuSansMono" font-size="10.00">socket_handler</text>
</a>
</g>
<!-- Node8&#45;&gt;Node9 -->
<g id="edge16" class="edge"><title>Node8&#45;&gt;Node9</title>
<path fill="none" stroke="midnightblue" d="M234.047,-36.3507C247.671,-33.6455 262.338,-30.9815 276,-29 330.266,-21.1297 392.961,-15.9465 435.419,-13.011"/>
<polygon fill="midnightblue" stroke="midnightblue" points="232.971,-32.9977 223.867,-38.4167 234.363,-39.8578 232.971,-32.9977"/>
</g>
<!-- Node11 -->
<g id="node21" class="node"><title>Node11</title>
<a xlink:href="../../d8/d55/xmpp__parser_8h.html#a578b7a9a50212eb204a86789001287af" target="_top" xlink:title="xmpp_parser_parse">
<polygon fill="none" stroke="black" points="276.5,-38.5 276.5,-57.5 395.5,-57.5 395.5,-38.5 276.5,-38.5"/>
<text text-anchor="middle" x="336" y="-45.5" font-family="DejaVuSansMono" font-size="10.00">xmpp_parser_parse</text>
</a>
</g>
<!-- Node8&#45;&gt;Node11 -->
<g id="edge20" class="edge"><title>Node8&#45;&gt;Node11</title>
<path fill="none" stroke="midnightblue" d="M249.894,-48C258.691,-48 267.631,-48 276.248,-48"/>
<polygon fill="midnightblue" stroke="midnightblue" points="249.66,-44.5001 239.66,-48 249.66,-51.5001 249.66,-44.5001"/>
</g>
<!-- Node10 -->
<g id="node19" class="node"><title>Node10</title>
<a xlink:href="../../d6/d78/xmp3__multicast_8c.html#a991c928ab73b350c4b7029352e91a219" target="_top" xlink:title="multicast_start">
<polygon fill="none" stroke="black" points="576.5,-0.5 576.5,-19.5 683.5,-19.5 683.5,-0.5 576.5,-0.5"/>
<text text-anchor="middle" x="630" y="-7.5" font-family="DejaVuSansMono" font-size="10.00">multicast_start</text>
</a>
</g>
<!-- Node9&#45;&gt;Node10 -->
<g id="edge18" class="edge"><title>Node9&#45;&gt;Node10</title>
<path fill="none" stroke="midnightblue" d="M546.733,-10C556.527,-10 566.615,-10 576.225,-10"/>
<polygon fill="midnightblue" stroke="midnightblue" points="546.665,-6.5001 536.665,-10 546.665,-13.5001 546.665,-6.5001"/>
</g>
<!-- Node11&#45;&gt;Node9 -->
<g id="edge22" class="edge"><title>Node11&#45;&gt;Node9</title>
<path fill="none" stroke="midnightblue" d="M384.173,-35.8879C404.786,-30.5956 428.609,-24.4787 447.922,-19.5201"/>
<polygon fill="midnightblue" stroke="midnightblue" points="383.162,-32.534 374.347,-38.411 384.903,-39.3141 383.162,-32.534"/>
</g>
<!-- Node12 -->
<g id="node24" class="node"><title>Node12</title>
<a xlink:href="../../d0/df0/xmpp__server_8c.html#abece91815ef240322d79073f5bfca1db" target="_top" xlink:title="Callback for new data from a client.">
<polygon fill="none" stroke="black" points="444.5,-38.5 444.5,-57.5 527.5,-57.5 527.5,-38.5 444.5,-38.5"/>
<text text-anchor="middle" x="486" y="-45.5" font-family="DejaVuSansMono" font-size="10.00">read_client</text>
</a>
</g>
<!-- Node11&#45;&gt;Node12 -->
<g id="edge24" class="edge"><title>Node11&#45;&gt;Node12</title>
<path fill="none" stroke="midnightblue" d="M405.939,-48C419.135,-48 432.546,-48 444.483,-48"/>
<polygon fill="midnightblue" stroke="midnightblue" points="405.919,-44.5001 395.919,-48 405.919,-51.5001 405.919,-44.5001"/>
</g>
<!-- Node12&#45;&gt;Node5 -->
<g id="edge26" class="edge"><title>Node12&#45;&gt;Node5</title>
<path fill="none" stroke="midnightblue" d="M537.812,-54.7988C551.367,-56.6125 565.993,-58.5695 579.478,-60.3738"/>
<polygon fill="midnightblue" stroke="midnightblue" points="538.067,-51.3018 527.692,-53.4446 537.139,-58.24 538.067,-51.3018"/>
</g>
</g>
</svg>
        <g id="navigator" transform="translate(0 0)" fill="#404254">
                <rect fill="#f2f5e9" fill-opacity="0.5" stroke="#606060" stroke-width=".5" x="0" y="0" width="60" height="60"/>
                <use id="zoomplus" xlink:href="#zoomPlus" x="17" y="9" onmousedown="handleZoom(evt,'in')"/>
                <use id="zoomminus" xlink:href="#zoomMin" x="42" y="9" onmousedown="handleZoom(evt,'out')"/>
                <use id="reset" xlink:href="#resetDef" x="30" y="36" onmousedown="handleReset()"/>
                <g id="arrowUp" xlink:href="#dirArrow" transform="translate(30 24)" onmousedown="handlePan(0,-1)">
                  <use xlink:href="#rim" fill="#404040">
                        <set attributeName="fill" to="#808080" begin="arrowUp.mouseover" end="arrowUp.mouseout"/>
                  </use>
                  <path fill="none" stroke="white" stroke-width="1.5" d="M0,-3.0v7 M-2.5,-0.5L0,-3.0L2.5,-0.5"/>
                </g>
                <g id="arrowRight" xlink:href="#dirArrow" transform="rotate(90) translate(36 -43)" onmousedown="handlePan(1,0)">
                  <use xlink:href="#rim" fill="#404040">
                        <set attributeName="fill" to="#808080" begin="arrowRight.mouseover" end="arrowRight.mouseout"/>
                  </use>
                  <path fill="none" stroke="white" stroke-width="1.5" d="M0,-3.0v7 M-2.5,-0.5L0,-3.0L2.5,-0.5"/>
                </g>
                <g id="arrowDown" xlink:href="#dirArrow" transform="rotate(180) translate(-30 -48)" onmousedown="handlePan(0,1)">
                  <use xlink:href="#rim" fill="#404040">
                        <set attributeName="fill" to="#808080" begin="arrowDown.mouseover" end="arrowDown.mouseout"/>
                  </use>
                  <path fill="none" stroke="white" stroke-width="1.5" d="M0,-3.0v7 M-2.5,-0.5L0,-3.0L2.5,-0.5"/>
                </g>
                <g id="arrowLeft" xlink:href="#dirArrow" transform="rotate(270) translate(-36 17)" onmousedown="handlePan(-1,0)">
                  <use xlink:href="#rim" fill="#404040">
                        <set attributeName="fill" to="#808080" begin="arrowLeft.mouseover" end="arrowLeft.mouseout"/>
                  </use>
                  <path fill="none" stroke="white" stroke-width="1.5" d="M0,-3.0v7 M-2.5,-0.5L0,-3.0L2.5,-0.5"/>
                </g>
        </g>
        <svg viewBox="0 0 25 25" width="100%" height="30px" preserveAspectRatio="xMaxYMin meet"> 
          <g id="printButton" transform="scale(0.4 0.4)" onmousedown="handlePrint(evt)">
            <rect height="23.33753581" id="paper" rx="2" style="fill:#f2f5e9;fill-rule:evenodd;stroke:#111111;stroke-width:3.224;stroke-linejoin:round;" transform="matrix(1.000000,0.000000,-0.339266,0.940691,0.000000,0.000000)" width="25.55231285" x="26.69387353" y="7.36162977"/>
            <rect height="26.272097" id="body" rx="2" style="fill:#404040;fill-rule:evenodd;stroke:#111111;stroke-width:3.125;stroke-linejoin:round;" width="50" x="4.5295201" y="27.078951"/>
            <rect height="8.27750969" id="tray" style="fill:#d2d5c9;fill-rule:evenodd;stroke:#111111;stroke-width:3.125;stroke-linecap:round;stroke-linejoin:round;" width="40" x="10.28778839" y="44.96812282"/>
          </g>
        </svg>
</svg>
