<?xml version="1.0" encoding="UTF-8" standalone="no"?>
<!DOCTYPE svg PUBLIC "-//W3C//DTD SVG 1.1//EN"
 "http://www.w3.org/Graphics/SVG/1.1/DTD/svg11.dtd">
<!-- Generated by graphviz version 2.28.0 (20120217.0315)
 -->
<!-- Title: G Pages: 1 -->
<!--zoomable 341 -->
<svg id="main" version="1.1" xmlns="http://www.w3.org/2000/svg" xmlns:xlink="http://www.w3.org/1999/xlink" xml:space="preserve" onload="init(evt)">
        <defs>
                <circle id="rim" cx="0" cy="0" r="7"/>
                <circle id="rim2" cx="0" cy="0" r="3.5"/>
                <g id="zoomPlus">
                        <use xlink:href="#rim" fill="#404040">
                                <set attributeName="fill" to="#808080" begin="zoomplus.mouseover" end="zoomplus.mouseout"/>
                        </use>
                        <path d="M-4,0h8M0,-4v8" fill="none" stroke="white" stroke-width="1.5" pointer-events="none"/>
                </g>
                <g id="zoomMin">
                        <use xlink:href="#rim" fill="#404040">
                                <set attributeName="fill" to="#808080" begin="zoomminus.mouseover" end="zoomminus.mouseout"/>
                        </use>
                        <path d="M-4,0h8" fill="none" stroke="white" stroke-width="1.5" pointer-events="none"/>
                </g>
                <g id="dirArrow">
                        <path fill="none" stroke="white" stroke-width="1.5" d="M0,-3.0v7 M-2.5,-0.5L0,-3.0L2.5,-0.5"/>
                </g>
               <g id="resetDef">
                       <use xlink:href="#rim2" fill="#404040">
                               <set attributeName="fill" to="#808080" begin="reset.mouseover" end="reset.mouseout"/>
                       </use>
               </g>
        </defs>

<script type="text/javascript">
var viewWidth = 2138;
var viewHeight = 341;
var sectionId = 'dynsection-18';
</script>
<script xlink:href="../../svgpan.js"/>
<svg id="graph" class="graph">
<g id="viewport">
<title>G</title>
<!-- Node1 -->
<g id="node1" class="node"><title>Node1</title>
<polygon fill="#bfbfbf" stroke="black" points="0.5,-204.5 0.5,-223.5 167.5,-223.5 167.5,-204.5 0.5,-204.5"/>
<text text-anchor="middle" x="84" y="-211.5" font-family="DejaVuSansMono" font-size="10.00">xmpp_parser_namespace_uri</text>
</g>
<!-- Node2 -->
<g id="node3" class="node"><title>Node2</title>
<a xlink:href="../../d1/d59/xmpp__stanza_8c.html#aae8c30c30fcbc2325d34897f8035ca46" target="_top" xlink:title="Function that gets called recursively to convert a stanza to a string.">
<polygon fill="none" stroke="black" points="204.5,-204.5 204.5,-223.5 293.5,-223.5 293.5,-204.5 204.5,-204.5"/>
<text text-anchor="middle" x="249" y="-211.5" font-family="DejaVuSansMono" font-size="10.00">stanza_tostr</text>
</a>
</g>
<!-- Node1&#45;&gt;Node2 -->
<g id="edge2" class="edge"><title>Node1&#45;&gt;Node2</title>
<path fill="none" stroke="midnightblue" d="M178.22,-214C187.279,-214 196.141,-214 204.346,-214"/>
<polygon fill="midnightblue" stroke="midnightblue" points="177.933,-210.5 167.933,-214 177.933,-217.5 177.933,-210.5"/>
</g>
<!-- Node3 -->
<g id="node5" class="node"><title>Node3</title>
<a xlink:href="../../dd/d21/xmpp__stanza_8h.html#a513b6e2da3dce364271ba9315d7b3d95" target="_top" xlink:title="Returns the stanza (and its children) packed into a null&#45;terminated string.">
<polygon fill="none" stroke="black" points="330.5,-204.5 330.5,-223.5 455.5,-223.5 455.5,-204.5 330.5,-204.5"/>
<text text-anchor="middle" x="393" y="-211.5" font-family="DejaVuSansMono" font-size="10.00">xmpp_stanza_string</text>
</a>
</g>
<!-- Node2&#45;&gt;Node3 -->
<g id="edge4" class="edge"><title>Node2&#45;&gt;Node3</title>
<path fill="none" stroke="midnightblue" d="M304.047,-214C312.65,-214 321.607,-214 330.37,-214"/>
<polygon fill="midnightblue" stroke="midnightblue" points="303.763,-210.5 293.763,-214 303.763,-217.5 303.763,-210.5"/>
</g>
<!-- Node4 -->
<g id="node7" class="node"><title>Node4</title>
<a xlink:href="../../d6/d78/xmp3__multicast_8c.html#a3ef84feef94d4ad6045cd45fd91b531c" target="_top" xlink:title="local_stanza_handler">
<polygon fill="none" stroke="black" points="498.5,-280.5 498.5,-299.5 635.5,-299.5 635.5,-280.5 498.5,-280.5"/>
<text text-anchor="middle" x="567" y="-287.5" font-family="DejaVuSansMono" font-size="10.00">local_stanza_handler</text>
</a>
</g>
<!-- Node3&#45;&gt;Node4 -->
<g id="edge6" class="edge"><title>Node3&#45;&gt;Node4</title>
<path fill="none" stroke="midnightblue" d="M425.372,-227.862C459.869,-243.105 514.376,-267.19 544.393,-280.453"/>
<polygon fill="midnightblue" stroke="midnightblue" points="426.345,-224.466 415.784,-223.625 423.516,-230.869 426.345,-224.466"/>
</g>
<!-- Node7 -->
<g id="node13" class="node"><title>Node7</title>
<a xlink:href="../../d8/d28/xmpp__core_8h.html#a3b41e83061abd7ed5b258c7aa7dda0d6" target="_top" xlink:title="An xmpp_server stanza route for stanzas directed to a local client.">
<polygon fill="none" stroke="black" points="492.5,-114.5 492.5,-133.5 641.5,-133.5 641.5,-114.5 492.5,-114.5"/>
<text text-anchor="middle" x="567" y="-121.5" font-family="DejaVuSansMono" font-size="10.00">xmpp_core_route_client</text>
</a>
</g>
<!-- Node3&#45;&gt;Node7 -->
<g id="edge12" class="edge"><title>Node3&#45;&gt;Node7</title>
<path fill="none" stroke="midnightblue" d="M421.696,-199.508C457.139,-180.962 517.553,-149.35 547.725,-133.562"/>
<polygon fill="midnightblue" stroke="midnightblue" points="419.645,-196.631 412.407,-204.368 422.89,-202.833 419.645,-196.631"/>
</g>
<!-- Node22 -->
<g id="node50" class="node"><title>Node22</title>
<a xlink:href="../../d1/dc2/xmpp__parser_8c.html#a2268b636f6d02bbe04f3033ff93d829c" target="_top" xlink:title="Expat callback for the start of an XMPP stream.">
<polygon fill="none" stroke="black" points="522.5,-223.5 522.5,-242.5 611.5,-242.5 611.5,-223.5 522.5,-223.5"/>
<text text-anchor="middle" x="567" y="-230.5" font-family="DejaVuSansMono" font-size="10.00">stream_start</text>
</a>
</g>
<!-- Node3&#45;&gt;Node22 -->
<g id="edge56" class="edge"><title>Node3&#45;&gt;Node22</title>
<path fill="none" stroke="midnightblue" d="M465.573,-221.906C484.84,-224.035 505.1,-226.273 522.337,-228.177"/>
<polygon fill="midnightblue" stroke="midnightblue" points="465.934,-218.425 455.61,-220.806 465.165,-225.383 465.934,-218.425"/>
</g>
<!-- Node29 -->
<g id="node68" class="node"><title>Node29</title>
<a xlink:href="../../d1/dc2/xmpp__parser_8c.html#adc3f7670edafd5b590af11d276887f1e" target="_top" xlink:title="Expat callback for end elements.">
<polygon fill="none" stroke="black" points="549.5,-185.5 549.5,-204.5 584.5,-204.5 584.5,-185.5 549.5,-185.5"/>
<text text-anchor="middle" x="567" y="-192.5" font-family="DejaVuSansMono" font-size="10.00">end</text>
</a>
</g>
<!-- Node3&#45;&gt;Node29 -->
<g id="edge78" class="edge"><title>Node3&#45;&gt;Node29</title>
<path fill="none" stroke="midnightblue" d="M465.914,-206.056C496.644,-202.661 529.842,-198.994 549.23,-196.852"/>
<polygon fill="midnightblue" stroke="midnightblue" points="465.165,-202.617 455.61,-207.194 465.934,-209.575 465.165,-202.617"/>
</g>
<!-- Node5 -->
<g id="node9" class="node"><title>Node5</title>
<a xlink:href="../../d6/d78/xmp3__multicast_8c.html#a991c928ab73b350c4b7029352e91a219" target="_top" xlink:title="multicast_start">
<polygon fill="none" stroke="black" points="1284.5,-304.5 1284.5,-323.5 1391.5,-323.5 1391.5,-304.5 1284.5,-304.5"/>
<text text-anchor="middle" x="1338" y="-311.5" font-family="DejaVuSansMono" font-size="10.00">multicast_start</text>
</a>
</g>
<!-- Node4&#45;&gt;Node5 -->
<g id="edge8" class="edge"><title>Node4&#45;&gt;Node5</title>
<path fill="none" stroke="midnightblue" d="M619.549,-301.69C680.297,-314.423 784.441,-333 875,-333 875,-333 875,-333 1033,-333 1121.31,-333 1223.77,-324.915 1284.34,-319.293"/>
<polygon fill="midnightblue" stroke="midnightblue" points="619.963,-298.199 609.453,-299.543 618.507,-305.046 619.963,-298.199"/>
</g>
<!-- Node6 -->
<g id="node11" class="node"><title>Node6</title>
<a xlink:href="../../d6/d78/xmp3__multicast_8c.html#ad161abeabc58820fd3a24b4422c5b9a7" target="_top" xlink:title="multicast_stop">
<polygon fill="none" stroke="black" points="678.5,-280.5 678.5,-299.5 779.5,-299.5 779.5,-280.5 678.5,-280.5"/>
<text text-anchor="middle" x="729" y="-287.5" font-family="DejaVuSansMono" font-size="10.00">multicast_stop</text>
</a>
</g>
<!-- Node4&#45;&gt;Node6 -->
<g id="edge10" class="edge"><title>Node4&#45;&gt;Node6</title>
<path fill="none" stroke="midnightblue" d="M645.978,-290C657.045,-290 668.163,-290 678.484,-290"/>
<polygon fill="midnightblue" stroke="midnightblue" points="645.854,-286.5 635.854,-290 645.854,-293.5 645.854,-286.5"/>
</g>
<!-- Node8 -->
<g id="node15" class="node"><title>Node8</title>
<a xlink:href="../../df/da9/xmpp__auth_8c.html#a603b4a63af3c4e4af99442805fe89ae8" target="_top" xlink:title="Step 15: Client binds a resource.">
<polygon fill="none" stroke="black" points="678.5,-133.5 678.5,-152.5 779.5,-152.5 779.5,-133.5 678.5,-133.5"/>
<text text-anchor="middle" x="729" y="-140.5" font-family="DejaVuSansMono" font-size="10.00">handle_bind_iq</text>
</a>
</g>
<!-- Node7&#45;&gt;Node8 -->
<g id="edge14" class="edge"><title>Node7&#45;&gt;Node8</title>
<path fill="none" stroke="midnightblue" d="M652.006,-133.976C660.943,-135.037 669.813,-136.09 678.168,-137.082"/>
<polygon fill="midnightblue" stroke="midnightblue" points="652.254,-130.481 641.911,-132.777 651.429,-137.432 652.254,-130.481"/>
</g>
<!-- Node18 -->
<g id="node36" class="node"><title>Node18</title>
<a xlink:href="../../d4/d2f/xmpp__client_8h.html#add2df61245a543667b6d98e3fcd57077" target="_top" xlink:title="xmpp_client_del">
<polygon fill="none" stroke="black" points="1284.5,-19.5 1284.5,-38.5 1391.5,-38.5 1391.5,-19.5 1284.5,-19.5"/>
<text text-anchor="middle" x="1338" y="-26.5" font-family="DejaVuSansMono" font-size="10.00">xmpp_client_del</text>
</a>
</g>
<!-- Node7&#45;&gt;Node18 -->
<g id="edge36" class="edge"><title>Node7&#45;&gt;Node18</title>
<path fill="none" stroke="midnightblue" d="M651.806,-116.01C713.473,-110.814 799.376,-105 875,-105 875,-105 875,-105 1033,-105 1141.26,-105 1264.91,-59.076 1314.6,-38.6255"/>
<polygon fill="midnightblue" stroke="midnightblue" points="651.404,-112.532 641.739,-116.871 652,-119.506 651.404,-112.532"/>
</g>
<!-- Node9 -->
<g id="node17" class="node"><title>Node9</title>
<a xlink:href="../../df/da9/xmpp__auth_8c.html#a01804bd53eccc182ce76337fc0863e8d" target="_top" xlink:title="stream_bind_start">
<polygon fill="none" stroke="black" points="816.5,-133.5 816.5,-152.5 935.5,-152.5 935.5,-133.5 816.5,-133.5"/>
<text text-anchor="middle" x="876" y="-140.5" font-family="DejaVuSansMono" font-size="10.00">stream_bind_start</text>
</a>
</g>
<!-- Node8&#45;&gt;Node9 -->
<g id="edge16" class="edge"><title>Node8&#45;&gt;Node9</title>
<path fill="none" stroke="midnightblue" d="M789.961,-143C798.655,-143 807.597,-143 816.266,-143"/>
<polygon fill="midnightblue" stroke="midnightblue" points="789.901,-139.5 779.901,-143 789.901,-146.5 789.901,-139.5"/>
</g>
<!-- Node10 -->
<g id="node19" class="node"><title>Node10</title>
<a xlink:href="../../df/da9/xmpp__auth_8c.html#afb770a216868aa3fb43813b19d2a0115" target="_top" xlink:title="Begins SASL PLAIN authentication.">
<polygon fill="none" stroke="black" points="972.5,-133.5 972.5,-152.5 1091.5,-152.5 1091.5,-133.5 972.5,-133.5"/>
<text text-anchor="middle" x="1032" y="-140.5" font-family="DejaVuSansMono" font-size="10.00">handle_sasl_plain</text>
</a>
</g>
<!-- Node9&#45;&gt;Node10 -->
<g id="edge18" class="edge"><title>Node9&#45;&gt;Node10</title>
<path fill="none" stroke="midnightblue" d="M945.894,-143C954.691,-143 963.631,-143 972.248,-143"/>
<polygon fill="midnightblue" stroke="midnightblue" points="945.66,-139.5 935.66,-143 945.66,-146.5 945.66,-139.5"/>
</g>
<!-- Node11 -->
<g id="node21" class="node"><title>Node11</title>
<a xlink:href="../../d3/d24/xmpp__auth_8h.html#ad3efd9ab093646bdfd8832c34ae2de4d" target="_top" xlink:title="Handler for the inital stream start to begin authentication.">
<polygon fill="none" stroke="black" points="1449.5,-133.5 1449.5,-152.5 1598.5,-152.5 1598.5,-133.5 1449.5,-133.5"/>
<text text-anchor="middle" x="1524" y="-140.5" font-family="DejaVuSansMono" font-size="10.00">xmpp_auth_stream_start</text>
</a>
</g>
<!-- Node10&#45;&gt;Node11 -->
<g id="edge20" class="edge"><title>Node10&#45;&gt;Node11</title>
<path fill="none" stroke="midnightblue" d="M1081.54,-154.625C1096.36,-157.655 1112.77,-160.492 1128,-162 1244.76,-173.562 1274.97,-170.443 1392,-162 1417.67,-160.148 1445.96,-156.28 1469.65,-152.514"/>
<polygon fill="midnightblue" stroke="midnightblue" points="1082.07,-151.16 1071.57,-152.51 1080.62,-158.008 1082.07,-151.16"/>
</g>
<!-- Node16 -->
<g id="node31" class="node"><title>Node16</title>
<a xlink:href="../../df/da9/xmpp__auth_8c.html#afd7b12689591d40109a88ad108b5c3a2" target="_top" xlink:title="stream_sasl_start">
<polygon fill="none" stroke="black" points="1128.5,-133.5 1128.5,-152.5 1247.5,-152.5 1247.5,-133.5 1128.5,-133.5"/>
<text text-anchor="middle" x="1188" y="-140.5" font-family="DejaVuSansMono" font-size="10.00">stream_sasl_start</text>
</a>
</g>
<!-- Node10&#45;&gt;Node16 -->
<g id="edge30" class="edge"><title>Node10&#45;&gt;Node16</title>
<path fill="none" stroke="midnightblue" d="M1101.89,-143C1110.69,-143 1119.63,-143 1128.25,-143"/>
<polygon fill="midnightblue" stroke="midnightblue" points="1101.66,-139.5 1091.66,-143 1101.66,-146.5 1101.66,-139.5"/>
</g>
<!-- Node12 -->
<g id="node23" class="node"><title>Node12</title>
<a xlink:href="../../d4/d2f/xmpp__client_8h.html#a1619c0b8f58b2cf09a322bf34fbc3414" target="_top" xlink:title="xmpp_client_new">
<polygon fill="none" stroke="black" points="1656.5,-57.5 1656.5,-76.5 1763.5,-76.5 1763.5,-57.5 1656.5,-57.5"/>
<text text-anchor="middle" x="1710" y="-64.5" font-family="DejaVuSansMono" font-size="10.00">xmpp_client_new</text>
</a>
</g>
<!-- Node11&#45;&gt;Node12 -->
<g id="edge22" class="edge"><title>Node11&#45;&gt;Node12</title>
<path fill="none" stroke="midnightblue" d="M1606.79,-130.148C1611.37,-128.357 1615.8,-126.319 1620,-124 1640.36,-112.746 1636.52,-98.7167 1656,-86 1661.73,-82.2599 1668.29,-79.1445 1674.79,-76.5919"/>
<polygon fill="midnightblue" stroke="midnightblue" points="1605.52,-126.883 1597.24,-133.488 1607.83,-133.491 1605.52,-126.883"/>
</g>
<!-- Node13 -->
<g id="node25" class="node"><title>Node13</title>
<a xlink:href="../../d0/df0/xmpp__server_8c.html#a66363912ef1221a2574f9f99805fe8fd" target="_top" xlink:title="Callback for new client connections.">
<polygon fill="none" stroke="black" points="1803.5,-47.5 1803.5,-66.5 1904.5,-66.5 1904.5,-47.5 1803.5,-47.5"/>
<text text-anchor="middle" x="1854" y="-54.5" font-family="DejaVuSansMono" font-size="10.00">connect_client</text>
</a>
</g>
<!-- Node12&#45;&gt;Node13 -->
<g id="edge24" class="edge"><title>Node12&#45;&gt;Node13</title>
<path fill="none" stroke="midnightblue" d="M1774.02,-62.5622C1783.85,-61.8696 1793.89,-61.1625 1803.37,-60.4949"/>
<polygon fill="midnightblue" stroke="midnightblue" points="1773.6,-59.0824 1763.88,-63.2764 1774.1,-66.0651 1773.6,-59.0824"/>
</g>
<!-- Node14 -->
<g id="node27" class="node"><title>Node14</title>
<a xlink:href="../../d1/d2e/xmpp__server_8h.html#a27bfc8e4d424a8bc17ab21a4a09cdf92" target="_top" xlink:title="Allocates and initializes the XMPP server.">
<polygon fill="none" stroke="black" points="1944.5,-38.5 1944.5,-57.5 2051.5,-57.5 2051.5,-38.5 1944.5,-38.5"/>
<text text-anchor="middle" x="1998" y="-45.5" font-family="DejaVuSansMono" font-size="10.00">xmpp_server_new</text>
</a>
</g>
<!-- Node13&#45;&gt;Node14 -->
<g id="edge26" class="edge"><title>Node13&#45;&gt;Node14</title>
<path fill="none" stroke="midnightblue" d="M1914.73,-53.2141C1924.53,-52.5933 1934.62,-51.954 1944.23,-51.3449"/>
<polygon fill="midnightblue" stroke="midnightblue" points="1914.42,-49.7266 1904.66,-53.8522 1914.87,-56.7126 1914.42,-49.7266"/>
</g>
<!-- Node15 -->
<g id="node29" class="node"><title>Node15</title>
<a xlink:href="../../d0/d29/main_8c.html#a0ddf1224851353fc92bfbff6f499fa97" target="_top" xlink:title="main">
<polygon fill="none" stroke="black" points="2088.5,-19.5 2088.5,-38.5 2129.5,-38.5 2129.5,-19.5 2088.5,-19.5"/>
<text text-anchor="middle" x="2109" y="-26.5" font-family="DejaVuSansMono" font-size="10.00">main</text>
</a>
</g>
<!-- Node14&#45;&gt;Node15 -->
<g id="edge28" class="edge"><title>Node14&#45;&gt;Node15</title>
<path fill="none" stroke="midnightblue" d="M2061.45,-37.1151C2071.24,-35.4082 2080.68,-33.7622 2088.47,-32.404"/>
<polygon fill="midnightblue" stroke="midnightblue" points="2060.83,-33.6686 2051.58,-38.8339 2062.04,-40.5646 2060.83,-33.6686"/>
</g>
<!-- Node17 -->
<g id="node33" class="node"><title>Node17</title>
<a xlink:href="../../df/da9/xmpp__auth_8c.html#a8dd789e057b9812e4dd1aa524dfb6a65" target="_top" xlink:title="Begins TLS authentication.">
<polygon fill="none" stroke="black" points="1284.5,-133.5 1284.5,-152.5 1391.5,-152.5 1391.5,-133.5 1284.5,-133.5"/>
<text text-anchor="middle" x="1338" y="-140.5" font-family="DejaVuSansMono" font-size="10.00">handle_starttls</text>
</a>
</g>
<!-- Node16&#45;&gt;Node17 -->
<g id="edge32" class="edge"><title>Node16&#45;&gt;Node17</title>
<path fill="none" stroke="midnightblue" d="M1258.09,-143C1266.81,-143 1275.62,-143 1284.04,-143"/>
<polygon fill="midnightblue" stroke="midnightblue" points="1257.92,-139.5 1247.92,-143 1257.92,-146.5 1257.92,-139.5"/>
</g>
<!-- Node17&#45;&gt;Node11 -->
<g id="edge34" class="edge"><title>Node17&#45;&gt;Node11</title>
<path fill="none" stroke="midnightblue" d="M1402.06,-143C1417.29,-143 1433.69,-143 1449.36,-143"/>
<polygon fill="midnightblue" stroke="midnightblue" points="1401.73,-139.5 1391.73,-143 1401.73,-146.5 1401.73,-139.5"/>
</g>
<!-- Node18&#45;&gt;Node12 -->
<g id="edge38" class="edge"><title>Node18&#45;&gt;Node12</title>
<path fill="none" stroke="midnightblue" d="M1401.54,-39.4092C1410.41,-40.7185 1419.43,-41.9608 1428,-43 1507.35,-52.6174 1599.77,-59.7286 1656.32,-63.619"/>
<polygon fill="midnightblue" stroke="midnightblue" points="1402.03,-35.9439 1391.62,-37.9096 1400.99,-42.8652 1402.03,-35.9439"/>
</g>
<!-- Node18&#45;&gt;Node13 -->
<g id="edge54" class="edge"><title>Node18&#45;&gt;Node13</title>
<path fill="none" stroke="midnightblue" d="M1401.75,-30.7046C1484.73,-33.2106 1635.48,-38.6362 1764,-48 1776.7,-48.9254 1790.4,-50.1813 1803.15,-51.4611"/>
<polygon fill="midnightblue" stroke="midnightblue" points="1401.83,-27.2054 1391.73,-30.4062 1401.62,-34.2023 1401.83,-27.2054"/>
</g>
<!-- Node19 -->
<g id="node39" class="node"><title>Node19</title>
<a xlink:href="../../d1/d2e/xmpp__server_8h.html#af7d75415fd5671841797bf77bbc1a981" target="_top" xlink:title="Cleans up an XMPP server instance.">
<polygon fill="none" stroke="black" points="1800.5,-0.5 1800.5,-19.5 1907.5,-19.5 1907.5,-0.5 1800.5,-0.5"/>
<text text-anchor="middle" x="1854" y="-7.5" font-family="DejaVuSansMono" font-size="10.00">xmpp_server_del</text>
</a>
</g>
<!-- Node18&#45;&gt;Node19 -->
<g id="edge40" class="edge"><title>Node18&#45;&gt;Node19</title>
<path fill="none" stroke="midnightblue" d="M1401.48,-18.0087C1410.36,-16.7866 1419.39,-15.7237 1428,-15 1561.64,-3.76185 1719.74,-5.96077 1800.21,-8.1817"/>
<polygon fill="midnightblue" stroke="midnightblue" points="1400.95,-14.5488 1391.56,-19.4464 1401.95,-21.4765 1400.95,-14.5488"/>
</g>
<!-- Node20 -->
<g id="node43" class="node"><title>Node20</title>
<a xlink:href="../../d1/d2e/xmpp__server_8h.html#a79e02871228c509de0c70961d74a1bcb" target="_top" xlink:title="Attempt to cleanly disconnect a client, and clean up its resources.">
<polygon fill="none" stroke="black" points="1428.5,-95.5 1428.5,-114.5 1619.5,-114.5 1619.5,-95.5 1428.5,-95.5"/>
<text text-anchor="middle" x="1524" y="-102.5" font-family="DejaVuSansMono" font-size="10.00">xmpp_server_disconnect_client</text>
</a>
</g>
<!-- Node18&#45;&gt;Node20 -->
<g id="edge46" class="edge"><title>Node18&#45;&gt;Node20</title>
<path fill="none" stroke="midnightblue" d="M1372.73,-42.8275C1379.27,-45.9079 1385.96,-49.3524 1392,-53 1409.35,-63.4757 1409.79,-72.1059 1428,-81 1440.69,-87.1954 1455.13,-91.8963 1468.87,-95.4205"/>
<polygon fill="midnightblue" stroke="midnightblue" points="1373.91,-39.5204 1363.35,-38.5936 1371.03,-45.8998 1373.91,-39.5204"/>
</g>
<!-- Node19&#45;&gt;Node14 -->
<g id="edge44" class="edge"><title>Node19&#45;&gt;Node14</title>
<path fill="none" stroke="midnightblue" d="M1900.49,-22.1742C1920.13,-27.4287 1942.77,-33.4866 1961.18,-38.4141"/>
<polygon fill="midnightblue" stroke="midnightblue" points="1901.4,-18.7931 1890.83,-19.589 1899.59,-25.5552 1901.4,-18.7931"/>
</g>
<!-- Node19&#45;&gt;Node15 -->
<g id="edge42" class="edge"><title>Node19&#45;&gt;Node15</title>
<path fill="none" stroke="midnightblue" d="M1917.9,-14.7236C1973.84,-18.9246 2052.21,-24.81 2088.34,-27.5233"/>
<polygon fill="midnightblue" stroke="midnightblue" points="1917.96,-11.2187 1907.73,-13.9599 1917.44,-18.199 1917.96,-11.2187"/>
</g>
<!-- Node20&#45;&gt;Node7 -->
<g id="edge48" class="edge"><title>Node20&#45;&gt;Node7</title>
<path fill="none" stroke="midnightblue" d="M1461.48,-93.7713C1394.65,-82.5647 1284.62,-67 1189,-67 875,-67 875,-67 875,-67 772.273,-67 653.41,-98.233 598.589,-114.459"/>
<polygon fill="midnightblue" stroke="midnightblue" points="1460.98,-97.2361 1471.43,-95.46 1462.15,-90.335 1460.98,-97.2361"/>
</g>
<!-- Node21 -->
<g id="node46" class="node"><title>Node21</title>
<a xlink:href="../../d0/df0/xmpp__server_8c.html#abece91815ef240322d79073f5bfca1db" target="_top" xlink:title="Callback for new data from a client.">
<polygon fill="none" stroke="black" points="1668.5,-95.5 1668.5,-114.5 1751.5,-114.5 1751.5,-95.5 1668.5,-95.5"/>
<text text-anchor="middle" x="1710" y="-102.5" font-family="DejaVuSansMono" font-size="10.00">read_client</text>
</a>
</g>
<!-- Node20&#45;&gt;Node21 -->
<g id="edge50" class="edge"><title>Node20&#45;&gt;Node21</title>
<path fill="none" stroke="midnightblue" d="M1630.07,-105C1643.56,-105 1656.68,-105 1668.21,-105"/>
<polygon fill="midnightblue" stroke="midnightblue" points="1629.7,-101.5 1619.69,-105 1629.69,-108.5 1629.7,-101.5"/>
</g>
<!-- Node21&#45;&gt;Node13 -->
<g id="edge52" class="edge"><title>Node21&#45;&gt;Node13</title>
<path fill="none" stroke="midnightblue" d="M1749.15,-92.103C1772.92,-84.0677 1803,-73.9025 1824.65,-66.5815"/>
<polygon fill="midnightblue" stroke="midnightblue" points="1747.75,-88.8838 1739.39,-95.4018 1749.99,-95.5152 1747.75,-88.8838"/>
</g>
<!-- Node23 -->
<g id="node52" class="node"><title>Node23</title>
<a xlink:href="../../d1/dc2/xmpp__parser_8c.html#a03a135f29e3d4e01abbb60e53ac6967c" target="_top" xlink:title="init_parser">
<polygon fill="none" stroke="black" points="687.5,-214.5 687.5,-233.5 770.5,-233.5 770.5,-214.5 687.5,-214.5"/>
<text text-anchor="middle" x="729" y="-221.5" font-family="DejaVuSansMono" font-size="10.00">init_parser</text>
</a>
</g>
<!-- Node22&#45;&gt;Node23 -->
<g id="edge58" class="edge"><title>Node22&#45;&gt;Node23</title>
<path fill="none" stroke="midnightblue" d="M621.96,-229.965C643.337,-228.762 667.499,-227.403 687.354,-226.286"/>
<polygon fill="midnightblue" stroke="midnightblue" points="621.508,-226.485 611.721,-230.541 621.902,-233.473 621.508,-226.485"/>
</g>
<!-- Node24 -->
<g id="node54" class="node"><title>Node24</title>
<a xlink:href="../../d8/d55/xmpp__parser_8h.html#adf25a1d2047994dfa6cc71a9482548c2" target="_top" xlink:title="xmpp_parser_new">
<polygon fill="none" stroke="black" points="822.5,-209.5 822.5,-228.5 929.5,-228.5 929.5,-209.5 822.5,-209.5"/>
<text text-anchor="middle" x="876" y="-216.5" font-family="DejaVuSansMono" font-size="10.00">xmpp_parser_new</text>
</a>
</g>
<!-- Node23&#45;&gt;Node24 -->
<g id="edge60" class="edge"><title>Node23&#45;&gt;Node24</title>
<path fill="none" stroke="midnightblue" d="M780.809,-222.248C794.253,-221.784 808.793,-221.283 822.334,-220.816"/>
<polygon fill="midnightblue" stroke="midnightblue" points="780.65,-218.751 770.776,-222.594 780.891,-225.747 780.65,-218.751"/>
</g>
<!-- Node26 -->
<g id="node59" class="node"><title>Node26</title>
<a xlink:href="../../d8/d55/xmpp__parser_8h.html#af5e1eb5bbef0496c3543bd35113766ac" target="_top" xlink:title="Reset the state of the parser as if it was just created.">
<polygon fill="none" stroke="black" points="816.5,-247.5 816.5,-266.5 935.5,-266.5 935.5,-247.5 816.5,-247.5"/>
<text text-anchor="middle" x="876" y="-254.5" font-family="DejaVuSansMono" font-size="10.00">xmpp_parser_reset</text>
</a>
</g>
<!-- Node23&#45;&gt;Node26 -->
<g id="edge66" class="edge"><title>Node23&#45;&gt;Node26</title>
<path fill="none" stroke="midnightblue" d="M780.614,-235.519C797.731,-239.415 816.644,-243.719 833.017,-247.445"/>
<polygon fill="midnightblue" stroke="midnightblue" points="781.304,-232.087 770.776,-233.28 779.75,-238.912 781.304,-232.087"/>
</g>
<!-- Node24&#45;&gt;Node12 -->
<g id="edge64" class="edge"><title>Node24&#45;&gt;Node12</title>
<path fill="none" stroke="midnightblue" d="M939.769,-219C1002.39,-219 1101.35,-219 1187,-219 1187,-219 1187,-219 1339,-219 1466.43,-219 1519.66,-240.561 1620,-162 1649.43,-138.958 1628.31,-111.1 1656,-86 1660.27,-82.127 1665.39,-79.03 1670.74,-76.557"/>
<polygon fill="midnightblue" stroke="midnightblue" points="939.657,-215.5 929.657,-219 939.657,-222.5 939.657,-215.5"/>
</g>
<!-- Node25 -->
<g id="node56" class="node"><title>Node25</title>
<a xlink:href="../../d6/d78/xmp3__multicast_8c.html#a08afc39c59ec9297d756a99c395eff3c" target="_top" xlink:title="multicast_new">
<polygon fill="none" stroke="black" points="984.5,-171.5 984.5,-190.5 1079.5,-190.5 1079.5,-171.5 984.5,-171.5"/>
<text text-anchor="middle" x="1032" y="-178.5" font-family="DejaVuSansMono" font-size="10.00">multicast_new</text>
</a>
</g>
<!-- Node24&#45;&gt;Node25 -->
<g id="edge62" class="edge"><title>Node24&#45;&gt;Node25</title>
<path fill="none" stroke="midnightblue" d="M925.794,-206.96C947.308,-201.651 972.232,-195.501 992.419,-190.52"/>
<polygon fill="midnightblue" stroke="midnightblue" points="924.731,-203.617 915.861,-209.411 926.408,-210.413 924.731,-203.617"/>
</g>
<!-- Node27 -->
<g id="node61" class="node"><title>Node27</title>
<a xlink:href="../../d6/d78/xmp3__multicast_8c.html#a9865e8026fb8ee000629fc1da465716d" target="_top" xlink:title="socket_handler">
<polygon fill="none" stroke="black" points="1137.5,-285.5 1137.5,-304.5 1238.5,-304.5 1238.5,-285.5 1137.5,-285.5"/>
<text text-anchor="middle" x="1188" y="-292.5" font-family="DejaVuSansMono" font-size="10.00">socket_handler</text>
</a>
</g>
<!-- Node26&#45;&gt;Node27 -->
<g id="edge68" class="edge"><title>Node26&#45;&gt;Node27</title>
<path fill="none" stroke="midnightblue" d="M929.244,-268.514C943.092,-271.273 958.067,-273.997 972,-276 1028.38,-284.104 1093.6,-289.283 1137.29,-292.153"/>
<polygon fill="midnightblue" stroke="midnightblue" points="929.888,-265.073 919.391,-266.508 928.492,-271.933 929.888,-265.073"/>
</g>
<!-- Node28 -->
<g id="node64" class="node"><title>Node28</title>
<a xlink:href="../../d8/d55/xmpp__parser_8h.html#a578b7a9a50212eb204a86789001287af" target="_top" xlink:title="xmpp_parser_parse">
<polygon fill="none" stroke="black" points="972.5,-247.5 972.5,-266.5 1091.5,-266.5 1091.5,-247.5 972.5,-247.5"/>
<text text-anchor="middle" x="1032" y="-254.5" font-family="DejaVuSansMono" font-size="10.00">xmpp_parser_parse</text>
</a>
</g>
<!-- Node26&#45;&gt;Node28 -->
<g id="edge72" class="edge"><title>Node26&#45;&gt;Node28</title>
<path fill="none" stroke="midnightblue" d="M945.894,-257C954.691,-257 963.631,-257 972.248,-257"/>
<polygon fill="midnightblue" stroke="midnightblue" points="945.66,-253.5 935.66,-257 945.66,-260.5 945.66,-253.5"/>
</g>
<!-- Node27&#45;&gt;Node5 -->
<g id="edge70" class="edge"><title>Node27&#45;&gt;Node5</title>
<path fill="none" stroke="midnightblue" d="M1248.87,-302.686C1260.64,-304.196 1272.89,-305.77 1284.4,-307.247"/>
<polygon fill="midnightblue" stroke="midnightblue" points="1249.06,-299.181 1238.69,-301.38 1248.17,-306.125 1249.06,-299.181"/>
</g>
<!-- Node28&#45;&gt;Node21 -->
<g id="edge76" class="edge"><title>Node28&#45;&gt;Node21</title>
<path fill="none" stroke="midnightblue" d="M1101.91,-261.692C1237.37,-269.712 1532.75,-280.895 1620,-233 1668.88,-206.169 1696.72,-139.636 1705.73,-114.671"/>
<polygon fill="midnightblue" stroke="midnightblue" points="1101.85,-258.182 1091.65,-261.073 1101.43,-265.169 1101.85,-258.182"/>
</g>
<!-- Node28&#45;&gt;Node27 -->
<g id="edge74" class="edge"><title>Node28&#45;&gt;Node27</title>
<path fill="none" stroke="midnightblue" d="M1081.79,-269.04C1103.31,-274.349 1128.23,-280.499 1148.42,-285.48"/>
<polygon fill="midnightblue" stroke="midnightblue" points="1082.41,-265.587 1071.86,-266.589 1080.73,-272.383 1082.41,-265.587"/>
</g>
<!-- Node29&#45;&gt;Node23 -->
<g id="edge80" class="edge"><title>Node29&#45;&gt;Node23</title>
<path fill="none" stroke="midnightblue" d="M594.467,-199.797C619.706,-204.372 658.081,-211.327 687.226,-216.61"/>
<polygon fill="midnightblue" stroke="midnightblue" points="594.984,-196.334 584.52,-197.994 593.736,-203.222 594.984,-196.334"/>
</g>
</g>
</svg>
        <g id="navigator" transform="translate(0 0)" fill="#404254">
                <rect fill="#f2f5e9" fill-opacity="0.5" stroke="#606060" stroke-width=".5" x="0" y="0" width="60" height="60"/>
                <use id="zoomplus" xlink:href="#zoomPlus" x="17" y="9" onmousedown="handleZoom(evt,'in')"/>
                <use id="zoomminus" xlink:href="#zoomMin" x="42" y="9" onmousedown="handleZoom(evt,'out')"/>
                <use id="reset" xlink:href="#resetDef" x="30" y="36" onmousedown="handleReset()"/>
                <g id="arrowUp" xlink:href="#dirArrow" transform="translate(30 24)" onmousedown="handlePan(0,-1)">
                  <use xlink:href="#rim" fill="#404040">
                        <set attributeName="fill" to="#808080" begin="arrowUp.mouseover" end="arrowUp.mouseout"/>
                  </use>
                  <path fill="none" stroke="white" stroke-width="1.5" d="M0,-3.0v7 M-2.5,-0.5L0,-3.0L2.5,-0.5"/>
                </g>
                <g id="arrowRight" xlink:href="#dirArrow" transform="rotate(90) translate(36 -43)" onmousedown="handlePan(1,0)">
                  <use xlink:href="#rim" fill="#404040">
                        <set attributeName="fill" to="#808080" begin="arrowRight.mouseover" end="arrowRight.mouseout"/>
                  </use>
                  <path fill="none" stroke="white" stroke-width="1.5" d="M0,-3.0v7 M-2.5,-0.5L0,-3.0L2.5,-0.5"/>
                </g>
                <g id="arrowDown" xlink:href="#dirArrow" transform="rotate(180) translate(-30 -48)" onmousedown="handlePan(0,1)">
                  <use xlink:href="#rim" fill="#404040">
                        <set attributeName="fill" to="#808080" begin="arrowDown.mouseover" end="arrowDown.mouseout"/>
                  </use>
                  <path fill="none" stroke="white" stroke-width="1.5" d="M0,-3.0v7 M-2.5,-0.5L0,-3.0L2.5,-0.5"/>
                </g>
                <g id="arrowLeft" xlink:href="#dirArrow" transform="rotate(270) translate(-36 17)" onmousedown="handlePan(-1,0)">
                  <use xlink:href="#rim" fill="#404040">
                        <set attributeName="fill" to="#808080" begin="arrowLeft.mouseover" end="arrowLeft.mouseout"/>
                  </use>
                  <path fill="none" stroke="white" stroke-width="1.5" d="M0,-3.0v7 M-2.5,-0.5L0,-3.0L2.5,-0.5"/>
                </g>
        </g>
        <svg viewBox="0 0 25 25" width="100%" height="30px" preserveAspectRatio="xMaxYMin meet"> 
          <g id="printButton" transform="scale(0.4 0.4)" onmousedown="handlePrint(evt)">
            <rect height="23.33753581" id="paper" rx="2" style="fill:#f2f5e9;fill-rule:evenodd;stroke:#111111;stroke-width:3.224;stroke-linejoin:round;" transform="matrix(1.000000,0.000000,-0.339266,0.940691,0.000000,0.000000)" width="25.55231285" x="26.69387353" y="7.36162977"/>
            <rect height="26.272097" id="body" rx="2" style="fill:#404040;fill-rule:evenodd;stroke:#111111;stroke-width:3.125;stroke-linejoin:round;" width="50" x="4.5295201" y="27.078951"/>
            <rect height="8.27750969" id="tray" style="fill:#d2d5c9;fill-rule:evenodd;stroke:#111111;stroke-width:3.125;stroke-linecap:round;stroke-linejoin:round;" width="40" x="10.28778839" y="44.96812282"/>
          </g>
        </svg>
</svg>
