<?xml version="1.0" encoding="UTF-8" standalone="no"?>
<!DOCTYPE svg PUBLIC "-//W3C//DTD SVG 1.1//EN"
 "http://www.w3.org/Graphics/SVG/1.1/DTD/svg11.dtd">
<!-- Generated by graphviz version 2.28.0 (20120217.0315)
 -->
<!-- Title: G Pages: 1 -->
<!--zoomable 260 -->
<svg id="main" version="1.1" xmlns="http://www.w3.org/2000/svg" xmlns:xlink="http://www.w3.org/1999/xlink" xml:space="preserve" onload="init(evt)">
        <defs>
                <circle id="rim" cx="0" cy="0" r="7"/>
                <circle id="rim2" cx="0" cy="0" r="3.5"/>
                <g id="zoomPlus">
                        <use xlink:href="#rim" fill="#404040">
                                <set attributeName="fill" to="#808080" begin="zoomplus.mouseover" end="zoomplus.mouseout"/>
                        </use>
                        <path d="M-4,0h8M0,-4v8" fill="none" stroke="white" stroke-width="1.5" pointer-events="none"/>
                </g>
                <g id="zoomMin">
                        <use xlink:href="#rim" fill="#404040">
                                <set attributeName="fill" to="#808080" begin="zoomminus.mouseover" end="zoomminus.mouseout"/>
                        </use>
                        <path d="M-4,0h8" fill="none" stroke="white" stroke-width="1.5" pointer-events="none"/>
                </g>
                <g id="dirArrow">
                        <path fill="none" stroke="white" stroke-width="1.5" d="M0,-3.0v7 M-2.5,-0.5L0,-3.0L2.5,-0.5"/>
                </g>
               <g id="resetDef">
                       <use xlink:href="#rim2" fill="#404040">
                               <set attributeName="fill" to="#808080" begin="reset.mouseover" end="reset.mouseout"/>
                       </use>
               </g>
        </defs>

<script type="text/javascript">
var viewWidth = 788;
var viewHeight = 260;
var sectionId = 'dynsection-12';
</script>
<script xlink:href="../../svgpan.js"/>
<svg id="graph" class="graph">
<g id="viewport">
<title>G</title>
<!-- Node1 -->
<g id="node1" class="node"><title>Node1</title>
<polygon fill="#bfbfbf" stroke="black" points="0.5,-108.5 0.5,-127.5 89.5,-127.5 89.5,-108.5 0.5,-108.5"/>
<text text-anchor="middle" x="45" y="-115.5" font-family="DejaVuSansMono" font-size="10.00">stream_start</text>
</g>
<!-- Node2 -->
<g id="node3" class="node"><title>Node2</title>
<a xlink:href="../../d1/d59/xmpp__stanza_8c.html#aa2b621549a5e0499793adbec29964932" target="_top" xlink:title="Allocate stanza with namespace information.">
<polygon fill="none" stroke="black" points="309.5,-118.5 309.5,-137.5 434.5,-137.5 434.5,-118.5 309.5,-118.5"/>
<text text-anchor="middle" x="372" y="-125.5" font-family="DejaVuSansMono" font-size="10.00">xmpp_stanza_ns_new</text>
</a>
</g>
<!-- Node1&#45;&gt;Node2 -->
<g id="edge2" class="edge"><title>Node1&#45;&gt;Node2</title>
<path fill="none" stroke="midnightblue" d="M89.8309,-119.349C143.529,-121.001 235.24,-123.823 299.269,-125.793"/>
<polygon fill="midnightblue" stroke="midnightblue" points="299.195,-129.292 309.298,-126.101 299.41,-122.295 299.195,-129.292"/>
</g>
<!-- Node6 -->
<g id="node11" class="node"><title>Node6</title>
<a xlink:href="../../d1/d59/xmpp__stanza_8c.html#a513b6e2da3dce364271ba9315d7b3d95" target="_top" xlink:title="Returns the stanza (and its children) packed into a null&#45;terminated string.">
<polygon fill="none" stroke="black" points="126.5,-184.5 126.5,-203.5 251.5,-203.5 251.5,-184.5 126.5,-184.5"/>
<text text-anchor="middle" x="189" y="-191.5" font-family="DejaVuSansMono" font-size="10.00">xmpp_stanza_string</text>
</a>
</g>
<!-- Node1&#45;&gt;Node6 -->
<g id="edge10" class="edge"><title>Node1&#45;&gt;Node6</title>
<path fill="none" stroke="midnightblue" d="M63.9844,-127.625C88.5246,-140.76 132.697,-164.401 161.162,-179.636"/>
<polygon fill="midnightblue" stroke="midnightblue" points="159.693,-182.82 170.162,-184.453 162.997,-176.648 159.693,-182.82"/>
</g>
<!-- Node11 -->
<g id="node21" class="node"><title>Node11</title>
<a xlink:href="../../d1/dc2/xmpp__parser_8c.html#a0f2993ab3e982d5e2b4a5635dcaf291c" target="_top" xlink:title="Expat callback for the start of any other element.">
<polygon fill="none" stroke="black" points="165.5,-89.5 165.5,-108.5 212.5,-108.5 212.5,-89.5 165.5,-89.5"/>
<text text-anchor="middle" x="189" y="-96.5" font-family="DejaVuSansMono" font-size="10.00">start</text>
</a>
</g>
<!-- Node1&#45;&gt;Node11 -->
<g id="edge20" class="edge"><title>Node1&#45;&gt;Node11</title>
<path fill="none" stroke="midnightblue" d="M89.7634,-112.144C110.803,-109.329 135.604,-106.011 155.023,-103.412"/>
<polygon fill="midnightblue" stroke="midnightblue" points="155.751,-106.846 165.199,-102.051 154.823,-99.9081 155.751,-106.846"/>
</g>
<!-- Node14 -->
<g id="node28" class="node"><title>Node14</title>
<a xlink:href="../../d1/d59/xmpp__stanza_8c.html#af40757ae1d137034570b1bb33303d024" target="_top" xlink:title="Cleans up and frees an XMPP stanza.">
<polygon fill="none" stroke="black" points="135.5,-33.5 135.5,-52.5 242.5,-52.5 242.5,-33.5 135.5,-33.5"/>
<text text-anchor="middle" x="189" y="-40.5" font-family="DejaVuSansMono" font-size="10.00">xmpp_stanza_del</text>
</a>
</g>
<!-- Node1&#45;&gt;Node14 -->
<g id="edge28" class="edge"><title>Node1&#45;&gt;Node14</title>
<path fill="none" stroke="midnightblue" d="M64.2733,-108.349C88.77,-95.4102 132.451,-72.3393 160.815,-57.3584"/>
<polygon fill="midnightblue" stroke="midnightblue" points="162.589,-60.3795 169.797,-52.6144 159.32,-54.1898 162.589,-60.3795"/>
</g>
<!-- Node3 -->
<g id="node5" class="node"><title>Node3</title>
<a xlink:href="../../d1/d59/xmpp__stanza_8c.html#aa80dd21d794b5c63fcb13c49745cc373" target="_top" xlink:title="Allocate and initialize a new XMPP stanza structure.">
<polygon fill="none" stroke="black" points="531.5,-118.5 531.5,-137.5 638.5,-137.5 638.5,-118.5 531.5,-118.5"/>
<text text-anchor="middle" x="585" y="-125.5" font-family="DejaVuSansMono" font-size="10.00">xmpp_stanza_new</text>
</a>
</g>
<!-- Node2&#45;&gt;Node3 -->
<g id="edge4" class="edge"><title>Node2&#45;&gt;Node3</title>
<path fill="none" stroke="midnightblue" d="M434.597,-128C461.778,-128 493.691,-128 521.028,-128"/>
<polygon fill="midnightblue" stroke="midnightblue" points="521.262,-131.5 531.262,-128 521.262,-124.5 521.262,-131.5"/>
</g>
<!-- Node4 -->
<g id="node7" class="node"><title>Node4</title>
<a xlink:href="../../d1/d59/xmpp__stanza_8c.html#a5a80203f56df7a360fa457c0111686f6" target="_top" xlink:title="Parse the namespace triple that Expat gives us.">
<polygon fill="none" stroke="black" points="714.5,-137.5 714.5,-156.5 779.5,-156.5 779.5,-137.5 714.5,-137.5"/>
<text text-anchor="middle" x="747" y="-144.5" font-family="DejaVuSansMono" font-size="10.00">parse_ns</text>
</a>
</g>
<!-- Node3&#45;&gt;Node4 -->
<g id="edge6" class="edge"><title>Node3&#45;&gt;Node4</title>
<path fill="none" stroke="midnightblue" d="M638.833,-134.274C660.072,-136.796 684.209,-139.662 704.192,-142.035"/>
<polygon fill="midnightblue" stroke="midnightblue" points="703.883,-145.523 714.226,-143.227 704.709,-138.572 703.883,-145.523"/>
</g>
<!-- Node5 -->
<g id="node9" class="node"><title>Node5</title>
<a xlink:href="../../d1/d59/xmpp__stanza_8c.html#aff4b8f6e10ce1c351d2a5bc39f0e819f" target="_top" xlink:title="Convenience function to build a key for the attribute hash table.">
<polygon fill="none" stroke="black" points="714.5,-99.5 714.5,-118.5 779.5,-118.5 779.5,-99.5 714.5,-99.5"/>
<text text-anchor="middle" x="747" y="-106.5" font-family="DejaVuSansMono" font-size="10.00">make_key</text>
</a>
</g>
<!-- Node3&#45;&gt;Node5 -->
<g id="edge8" class="edge"><title>Node3&#45;&gt;Node5</title>
<path fill="none" stroke="midnightblue" d="M638.833,-121.726C660.072,-119.204 684.209,-116.338 704.192,-113.965"/>
<polygon fill="midnightblue" stroke="midnightblue" points="704.709,-117.428 714.226,-112.773 703.883,-110.477 704.709,-117.428"/>
</g>
<!-- Node7 -->
<g id="node13" class="node"><title>Node7</title>
<a xlink:href="../../d1/d59/xmpp__stanza_8c.html#aae8c30c30fcbc2325d34897f8035ca46" target="_top" xlink:title="Function that gets called recursively to convert a stanza to a string.">
<polygon fill="none" stroke="black" points="327.5,-189.5 327.5,-208.5 416.5,-208.5 416.5,-189.5 327.5,-189.5"/>
<text text-anchor="middle" x="372" y="-196.5" font-family="DejaVuSansMono" font-size="10.00">stanza_tostr</text>
</a>
</g>
<!-- Node6&#45;&gt;Node7 -->
<g id="edge12" class="edge"><title>Node6&#45;&gt;Node7</title>
<path fill="none" stroke="midnightblue" d="M251.531,-195.7C272.835,-196.288 296.534,-196.943 317.171,-197.513"/>
<polygon fill="midnightblue" stroke="midnightblue" points="317.249,-201.016 327.342,-197.794 317.443,-194.019 317.249,-201.016"/>
</g>
<!-- Node8 -->
<g id="node15" class="node"><title>Node8</title>
<a xlink:href="../../d1/dc2/xmpp__parser_8c.html#acce8bfe5926da4e64c3b5038dc683618" target="_top" xlink:title="xmpp_parser_namespace_prefix">
<polygon fill="none" stroke="black" points="492.5,-156.5 492.5,-175.5 677.5,-175.5 677.5,-156.5 492.5,-156.5"/>
<text text-anchor="middle" x="585" y="-163.5" font-family="DejaVuSansMono" font-size="10.00">xmpp_parser_namespace_prefix</text>
</a>
</g>
<!-- Node7&#45;&gt;Node8 -->
<g id="edge14" class="edge"><title>Node7&#45;&gt;Node8</title>
<path fill="none" stroke="midnightblue" d="M416.719,-192.162C444.494,-187.818 481.09,-182.095 512.969,-177.109"/>
<polygon fill="midnightblue" stroke="midnightblue" points="513.797,-180.522 523.136,-175.519 512.715,-173.606 513.797,-180.522"/>
</g>
<!-- Node9 -->
<g id="node17" class="node"><title>Node9</title>
<a xlink:href="../../d1/dc2/xmpp__parser_8c.html#afde3cf0e74a12bfe4ac90fa8dbae51a0" target="_top" xlink:title="xmpp_parser_namespace_uri">
<polygon fill="none" stroke="black" points="501.5,-232.5 501.5,-251.5 668.5,-251.5 668.5,-232.5 501.5,-232.5"/>
<text text-anchor="middle" x="585" y="-239.5" font-family="DejaVuSansMono" font-size="10.00">xmpp_parser_namespace_uri</text>
</a>
</g>
<!-- Node7&#45;&gt;Node9 -->
<g id="edge16" class="edge"><title>Node7&#45;&gt;Node9</title>
<path fill="none" stroke="midnightblue" d="M416.719,-207.91C448.69,-214.425 492.347,-223.322 527.046,-230.393"/>
<polygon fill="midnightblue" stroke="midnightblue" points="526.542,-233.862 537.039,-232.43 527.94,-227.003 526.542,-233.862"/>
</g>
<!-- Node10 -->
<g id="node19" class="node"><title>Node10</title>
<a xlink:href="../../d1/dc2/xmpp__parser_8c.html#af924e15caac53b347a48878fcb046bc4" target="_top" xlink:title="Return the next namespace in the namespace list.">
<polygon fill="none" stroke="black" points="498.5,-194.5 498.5,-213.5 671.5,-213.5 671.5,-194.5 498.5,-194.5"/>
<text text-anchor="middle" x="585" y="-201.5" font-family="DejaVuSansMono" font-size="10.00">xmpp_parser_namespace_next</text>
</a>
</g>
<!-- Node7&#45;&gt;Node10 -->
<g id="edge18" class="edge"><title>Node7&#45;&gt;Node10</title>
<path fill="none" stroke="midnightblue" d="M416.719,-200.036C437.407,-200.526 462.989,-201.132 487.87,-201.722"/>
<polygon fill="midnightblue" stroke="midnightblue" points="488.02,-205.226 498.1,-201.964 488.186,-198.228 488.02,-205.226"/>
</g>
<!-- Node11&#45;&gt;Node2 -->
<g id="edge22" class="edge"><title>Node11&#45;&gt;Node2</title>
<path fill="none" stroke="midnightblue" d="M212.558,-102.614C234.791,-106.176 269.916,-111.804 301.451,-116.857"/>
<polygon fill="midnightblue" stroke="midnightblue" points="301.114,-120.347 311.542,-118.474 302.222,-113.436 301.114,-120.347"/>
</g>
<!-- Node12 -->
<g id="node24" class="node"><title>Node12</title>
<a xlink:href="../../d1/d59/xmpp__stanza_8c.html#ac13c8bb45e2ca03b99836e8d52b265b4" target="_top" xlink:title="Appends a child stanza.">
<polygon fill="none" stroke="black" points="291.5,-80.5 291.5,-99.5 452.5,-99.5 452.5,-80.5 291.5,-80.5"/>
<text text-anchor="middle" x="372" y="-87.5" font-family="DejaVuSansMono" font-size="10.00">xmpp_stanza_append_child</text>
</a>
</g>
<!-- Node11&#45;&gt;Node12 -->
<g id="edge24" class="edge"><title>Node11&#45;&gt;Node12</title>
<path fill="none" stroke="midnightblue" d="M212.558,-97.8783C230.127,-97.0048 255.746,-95.7309 281.282,-94.4611"/>
<polygon fill="midnightblue" stroke="midnightblue" points="281.614,-97.949 291.428,-93.9566 281.266,-90.9577 281.614,-97.949"/>
</g>
<!-- Node13 -->
<g id="node26" class="node"><title>Node13</title>
<a xlink:href="../../d1/d59/xmpp__stanza_8c.html#afc77f00b7f38c79566a7b16876230e30" target="_top" xlink:title="Removes a child stanza.">
<polygon fill="none" stroke="black" points="504.5,-80.5 504.5,-99.5 665.5,-99.5 665.5,-80.5 504.5,-80.5"/>
<text text-anchor="middle" x="585" y="-87.5" font-family="DejaVuSansMono" font-size="10.00">xmpp_stanza_remove_child</text>
</a>
</g>
<!-- Node12&#45;&gt;Node13 -->
<g id="edge26" class="edge"><title>Node12&#45;&gt;Node13</title>
<path fill="none" stroke="midnightblue" d="M452.77,-90C466.387,-90 480.613,-90 494.463,-90"/>
<polygon fill="midnightblue" stroke="midnightblue" points="494.467,-93.5001 504.467,-90 494.467,-86.5001 494.467,-93.5001"/>
</g>
<!-- Node14&#45;&gt;Node14 -->
<g id="edge34" class="edge"><title>Node14&#45;&gt;Node14</title>
<path fill="none" stroke="midnightblue" d="M166.805,-52.7571C156.008,-61.5653 163.406,-71 189,-71 205.796,-71 214.756,-66.9368 215.879,-61.6539"/>
<polygon fill="midnightblue" stroke="midnightblue" points="218.951,-59.9747 211.195,-52.7571 212.757,-63.2361 218.951,-59.9747"/>
</g>
<!-- Node15 -->
<g id="node30" class="node"><title>Node15</title>
<a xlink:href="../../d1/d59/xmpp__stanza_8c.html#a2fb472c6bf9b7f540a97ddc6c11adb74" target="_top" xlink:title="attribute_del">
<polygon fill="none" stroke="black" points="324.5,-0.5 324.5,-19.5 419.5,-19.5 419.5,-0.5 324.5,-0.5"/>
<text text-anchor="middle" x="372" y="-7.5" font-family="DejaVuSansMono" font-size="10.00">attribute_del</text>
</a>
</g>
<!-- Node14&#45;&gt;Node15 -->
<g id="edge30" class="edge"><title>Node14&#45;&gt;Node15</title>
<path fill="none" stroke="midnightblue" d="M242.353,-33.455C264.908,-29.3428 291.332,-24.525 314.346,-20.3293"/>
<polygon fill="midnightblue" stroke="midnightblue" points="315.104,-23.7487 324.314,-18.5117 313.849,-16.8622 315.104,-23.7487"/>
</g>
<!-- Node16 -->
<g id="node32" class="node"><title>Node16</title>
<a xlink:href="../../d1/dc2/xmpp__parser_8c.html#a87065f39f10a449e7af17fa45ca475f2" target="_top" xlink:title="xmpp_parser_namespace_del">
<polygon fill="none" stroke="black" points="288.5,-38.5 288.5,-57.5 455.5,-57.5 455.5,-38.5 288.5,-38.5"/>
<text text-anchor="middle" x="372" y="-45.5" font-family="DejaVuSansMono" font-size="10.00">xmpp_parser_namespace_del</text>
</a>
</g>
<!-- Node14&#45;&gt;Node16 -->
<g id="edge32" class="edge"><title>Node14&#45;&gt;Node16</title>
<path fill="none" stroke="midnightblue" d="M242.839,-44.4596C254.007,-44.7682 266.107,-45.1024 278.26,-45.4381"/>
<polygon fill="midnightblue" stroke="midnightblue" points="278.37,-48.9424 288.463,-45.72 278.563,-41.9451 278.37,-48.9424"/>
</g>
</g>
</svg>
        <g id="navigator" transform="translate(0 0)" fill="#404254">
                <rect fill="#f2f5e9" fill-opacity="0.5" stroke="#606060" stroke-width=".5" x="0" y="0" width="60" height="60"/>
                <use id="zoomplus" xlink:href="#zoomPlus" x="17" y="9" onmousedown="handleZoom(evt,'in')"/>
                <use id="zoomminus" xlink:href="#zoomMin" x="42" y="9" onmousedown="handleZoom(evt,'out')"/>
                <use id="reset" xlink:href="#resetDef" x="30" y="36" onmousedown="handleReset()"/>
                <g id="arrowUp" xlink:href="#dirArrow" transform="translate(30 24)" onmousedown="handlePan(0,-1)">
                  <use xlink:href="#rim" fill="#404040">
                        <set attributeName="fill" to="#808080" begin="arrowUp.mouseover" end="arrowUp.mouseout"/>
                  </use>
                  <path fill="none" stroke="white" stroke-width="1.5" d="M0,-3.0v7 M-2.5,-0.5L0,-3.0L2.5,-0.5"/>
                </g>
                <g id="arrowRight" xlink:href="#dirArrow" transform="rotate(90) translate(36 -43)" onmousedown="handlePan(1,0)">
                  <use xlink:href="#rim" fill="#404040">
                        <set attributeName="fill" to="#808080" begin="arrowRight.mouseover" end="arrowRight.mouseout"/>
                  </use>
                  <path fill="none" stroke="white" stroke-width="1.5" d="M0,-3.0v7 M-2.5,-0.5L0,-3.0L2.5,-0.5"/>
                </g>
                <g id="arrowDown" xlink:href="#dirArrow" transform="rotate(180) translate(-30 -48)" onmousedown="handlePan(0,1)">
                  <use xlink:href="#rim" fill="#404040">
                        <set attributeName="fill" to="#808080" begin="arrowDown.mouseover" end="arrowDown.mouseout"/>
                  </use>
                  <path fill="none" stroke="white" stroke-width="1.5" d="M0,-3.0v7 M-2.5,-0.5L0,-3.0L2.5,-0.5"/>
                </g>
                <g id="arrowLeft" xlink:href="#dirArrow" transform="rotate(270) translate(-36 17)" onmousedown="handlePan(-1,0)">
                  <use xlink:href="#rim" fill="#404040">
                        <set attributeName="fill" to="#808080" begin="arrowLeft.mouseover" end="arrowLeft.mouseout"/>
                  </use>
                  <path fill="none" stroke="white" stroke-width="1.5" d="M0,-3.0v7 M-2.5,-0.5L0,-3.0L2.5,-0.5"/>
                </g>
        </g>
        <svg viewBox="0 0 25 25" width="100%" height="30px" preserveAspectRatio="xMaxYMin meet"> 
          <g id="printButton" transform="scale(0.4 0.4)" onmousedown="handlePrint(evt)">
            <rect height="23.33753581" id="paper" rx="2" style="fill:#f2f5e9;fill-rule:evenodd;stroke:#111111;stroke-width:3.224;stroke-linejoin:round;" transform="matrix(1.000000,0.000000,-0.339266,0.940691,0.000000,0.000000)" width="25.55231285" x="26.69387353" y="7.36162977"/>
            <rect height="26.272097" id="body" rx="2" style="fill:#404040;fill-rule:evenodd;stroke:#111111;stroke-width:3.125;stroke-linejoin:round;" width="50" x="4.5295201" y="27.078951"/>
            <rect height="8.27750969" id="tray" style="fill:#d2d5c9;fill-rule:evenodd;stroke:#111111;stroke-width:3.125;stroke-linecap:round;stroke-linejoin:round;" width="40" x="10.28778839" y="44.96812282"/>
          </g>
        </svg>
</svg>
