<?xml version="1.0" encoding="UTF-8" standalone="no"?>
<!DOCTYPE svg PUBLIC "-//W3C//DTD SVG 1.1//EN"
 "http://www.w3.org/Graphics/SVG/1.1/DTD/svg11.dtd">
<!-- Generated by graphviz version 2.28.0 (20120217.0315)
 -->
<!-- Title: G Pages: 1 -->
<!--zoomable 250 -->
<svg id="main" version="1.1" xmlns="http://www.w3.org/2000/svg" xmlns:xlink="http://www.w3.org/1999/xlink" xml:space="preserve" onload="init(evt)">
        <defs>
                <circle id="rim" cx="0" cy="0" r="7"/>
                <circle id="rim2" cx="0" cy="0" r="3.5"/>
                <g id="zoomPlus">
                        <use xlink:href="#rim" fill="#404040">
                                <set attributeName="fill" to="#808080" begin="zoomplus.mouseover" end="zoomplus.mouseout"/>
                        </use>
                        <path d="M-4,0h8M0,-4v8" fill="none" stroke="white" stroke-width="1.5" pointer-events="none"/>
                </g>
                <g id="zoomMin">
                        <use xlink:href="#rim" fill="#404040">
                                <set attributeName="fill" to="#808080" begin="zoomminus.mouseover" end="zoomminus.mouseout"/>
                        </use>
                        <path d="M-4,0h8" fill="none" stroke="white" stroke-width="1.5" pointer-events="none"/>
                </g>
                <g id="dirArrow">
                        <path fill="none" stroke="white" stroke-width="1.5" d="M0,-3.0v7 M-2.5,-0.5L0,-3.0L2.5,-0.5"/>
                </g>
               <g id="resetDef">
                       <use xlink:href="#rim2" fill="#404040">
                               <set attributeName="fill" to="#808080" begin="reset.mouseover" end="reset.mouseout"/>
                       </use>
               </g>
        </defs>

<script type="text/javascript">
var viewWidth = 1094;
var viewHeight = 250;
var sectionId = 'dynsection-24';
</script>
<script xlink:href="../../svgpan.js"/>
<svg id="graph" class="graph">
<g id="viewport">
<title>G</title>
<!-- Node1 -->
<g id="node1" class="node"><title>Node1</title>
<polygon fill="#bfbfbf" stroke="black" points="0.5,-85.5 0.5,-104.5 119.5,-104.5 119.5,-85.5 0.5,-85.5"/>
<text text-anchor="middle" x="60" y="-92.5" font-family="DejaVuSansMono" font-size="10.00">xmpp_parser_reset</text>
</g>
<!-- Node2 -->
<g id="node3" class="node"><title>Node2</title>
<a xlink:href="../../d1/dc2/xmpp__parser_8c.html#a03a135f29e3d4e01abbb60e53ac6967c" target="_top" xlink:title="init_parser">
<polygon fill="none" stroke="black" points="156.5,-85.5 156.5,-104.5 239.5,-104.5 239.5,-85.5 156.5,-85.5"/>
<text text-anchor="middle" x="198" y="-92.5" font-family="DejaVuSansMono" font-size="10.00">init_parser</text>
</a>
</g>
<!-- Node1&#45;&gt;Node2 -->
<g id="edge2" class="edge"><title>Node1&#45;&gt;Node2</title>
<path fill="none" stroke="midnightblue" d="M119.861,-95C128.639,-95 137.624,-95 146.217,-95"/>
<polygon fill="midnightblue" stroke="midnightblue" points="146.463,-98.5001 156.463,-95 146.463,-91.5001 146.463,-98.5001"/>
</g>
<!-- Node3 -->
<g id="node5" class="node"><title>Node3</title>
<a xlink:href="../../d1/dc2/xmpp__parser_8c.html#a0f2993ab3e982d5e2b4a5635dcaf291c" target="_top" xlink:title="Expat callback for the start of any other element.">
<polygon fill="none" stroke="black" points="456.5,-208.5 456.5,-227.5 503.5,-227.5 503.5,-208.5 456.5,-208.5"/>
<text text-anchor="middle" x="480" y="-215.5" font-family="DejaVuSansMono" font-size="10.00">start</text>
</a>
</g>
<!-- Node2&#45;&gt;Node3 -->
<g id="edge4" class="edge"><title>Node2&#45;&gt;Node3</title>
<path fill="none" stroke="midnightblue" d="M207.499,-104.567C220.746,-118.904 247.744,-145.886 276,-161 331.824,-190.861 404.87,-206.39 446.391,-213.323"/>
<polygon fill="midnightblue" stroke="midnightblue" points="446.057,-216.814 456.485,-214.942 447.165,-209.903 446.057,-216.814"/>
</g>
<!-- Node10 -->
<g id="node19" class="node"><title>Node10</title>
<a xlink:href="../../d1/dc2/xmpp__parser_8c.html#adc3f7670edafd5b590af11d276887f1e" target="_top" xlink:title="Expat callback for end elements.">
<polygon fill="none" stroke="black" points="303.5,-85.5 303.5,-104.5 338.5,-104.5 338.5,-85.5 303.5,-85.5"/>
<text text-anchor="middle" x="321" y="-92.5" font-family="DejaVuSansMono" font-size="10.00">end</text>
</a>
</g>
<!-- Node2&#45;&gt;Node10 -->
<g id="edge18" class="edge"><title>Node2&#45;&gt;Node10</title>
<path fill="none" stroke="midnightblue" d="M239.628,-95C257.255,-95 277.415,-95 293.134,-95"/>
<polygon fill="midnightblue" stroke="midnightblue" points="293.221,-98.5001 303.221,-95 293.221,-91.5001 293.221,-98.5001"/>
</g>
<!-- Node20 -->
<g id="node40" class="node"><title>Node20</title>
<a xlink:href="../../d1/dc2/xmpp__parser_8c.html#a78918dc72ccbf110d41d34080ebbf014" target="_top" xlink:title="Expat callback for XML data.">
<polygon fill="none" stroke="black" points="288.5,-47.5 288.5,-66.5 353.5,-66.5 353.5,-47.5 288.5,-47.5"/>
<text text-anchor="middle" x="321" y="-54.5" font-family="DejaVuSansMono" font-size="10.00">chardata</text>
</a>
</g>
<!-- Node2&#45;&gt;Node20 -->
<g id="edge40" class="edge"><title>Node2&#45;&gt;Node20</title>
<path fill="none" stroke="midnightblue" d="M229.533,-85.411C244.723,-80.6406 263.285,-74.8112 279.633,-69.6771"/>
<polygon fill="midnightblue" stroke="midnightblue" points="280.984,-72.9214 289.476,-66.5859 278.887,-66.243 280.984,-72.9214"/>
</g>
<!-- Node22 -->
<g id="node44" class="node"><title>Node22</title>
<a xlink:href="../../d1/dc2/xmpp__parser_8c.html#a97bcfc9f28eea4b3aa3a7d8ac7af8aee" target="_top" xlink:title="Expat callback for namespace declarations.">
<polygon fill="none" stroke="black" points="288.5,-9.5 288.5,-28.5 353.5,-28.5 353.5,-9.5 288.5,-9.5"/>
<text text-anchor="middle" x="321" y="-16.5" font-family="DejaVuSansMono" font-size="10.00">ns_start</text>
</a>
</g>
<!-- Node2&#45;&gt;Node22 -->
<g id="edge44" class="edge"><title>Node2&#45;&gt;Node22</title>
<path fill="none" stroke="midnightblue" d="M210.17,-85.4379C224.666,-73.341 251.064,-52.3579 276,-38 279.049,-36.2445 282.291,-34.5506 285.579,-32.9458"/>
<polygon fill="midnightblue" stroke="midnightblue" points="287.224,-36.0416 294.846,-28.6821 284.298,-29.6824 287.224,-36.0416"/>
</g>
<!-- Node23 -->
<g id="node46" class="node"><title>Node23</title>
<a xlink:href="../../d1/dc2/xmpp__parser_8c.html#a2268b636f6d02bbe04f3033ff93d829c" target="_top" xlink:title="Expat callback for the start of an XMPP stream.">
<polygon fill="none" stroke="black" points="276.5,-132.5 276.5,-151.5 365.5,-151.5 365.5,-132.5 276.5,-132.5"/>
<text text-anchor="middle" x="321" y="-139.5" font-family="DejaVuSansMono" font-size="10.00">stream_start</text>
</a>
</g>
<!-- Node2&#45;&gt;Node23 -->
<g id="edge46" class="edge"><title>Node2&#45;&gt;Node23</title>
<path fill="none" stroke="midnightblue" d="M223.486,-104.511C241.327,-111.441 265.737,-120.923 285.544,-128.616"/>
<polygon fill="midnightblue" stroke="midnightblue" points="284.546,-131.983 295.135,-132.342 287.081,-125.458 284.546,-131.983"/>
</g>
<!-- Node4 -->
<g id="node7" class="node"><title>Node4</title>
<a xlink:href="../../d1/d59/xmpp__stanza_8c.html#aa2b621549a5e0499793adbec29964932" target="_top" xlink:title="Allocate stanza with namespace information.">
<polygon fill="none" stroke="black" points="615.5,-184.5 615.5,-203.5 740.5,-203.5 740.5,-184.5 615.5,-184.5"/>
<text text-anchor="middle" x="678" y="-191.5" font-family="DejaVuSansMono" font-size="10.00">xmpp_stanza_ns_new</text>
</a>
</g>
<!-- Node3&#45;&gt;Node4 -->
<g id="edge6" class="edge"><title>Node3&#45;&gt;Node4</title>
<path fill="none" stroke="midnightblue" d="M503.867,-215.2C528.697,-212.16 569.608,-207.15 605.428,-202.764"/>
<polygon fill="midnightblue" stroke="midnightblue" points="605.878,-206.235 615.378,-201.546 605.027,-199.287 605.878,-206.235"/>
</g>
<!-- Node8 -->
<g id="node15" class="node"><title>Node8</title>
<a xlink:href="../../d1/d59/xmpp__stanza_8c.html#ac13c8bb45e2ca03b99836e8d52b265b4" target="_top" xlink:title="Appends a child stanza.">
<polygon fill="none" stroke="black" points="597.5,-222.5 597.5,-241.5 758.5,-241.5 758.5,-222.5 597.5,-222.5"/>
<text text-anchor="middle" x="678" y="-229.5" font-family="DejaVuSansMono" font-size="10.00">xmpp_stanza_append_child</text>
</a>
</g>
<!-- Node3&#45;&gt;Node8 -->
<g id="edge14" class="edge"><title>Node3&#45;&gt;Node8</title>
<path fill="none" stroke="midnightblue" d="M503.867,-219.633C524.462,-221.104 556.12,-223.366 586.76,-225.554"/>
<polygon fill="midnightblue" stroke="midnightblue" points="586.871,-229.071 597.095,-226.292 587.37,-222.089 586.871,-229.071"/>
</g>
<!-- Node5 -->
<g id="node9" class="node"><title>Node5</title>
<a xlink:href="../../d1/d59/xmpp__stanza_8c.html#aa80dd21d794b5c63fcb13c49745cc373" target="_top" xlink:title="Allocate and initialize a new XMPP stanza structure.">
<polygon fill="none" stroke="black" points="837.5,-184.5 837.5,-203.5 944.5,-203.5 944.5,-184.5 837.5,-184.5"/>
<text text-anchor="middle" x="891" y="-191.5" font-family="DejaVuSansMono" font-size="10.00">xmpp_stanza_new</text>
</a>
</g>
<!-- Node4&#45;&gt;Node5 -->
<g id="edge8" class="edge"><title>Node4&#45;&gt;Node5</title>
<path fill="none" stroke="midnightblue" d="M740.597,-194C767.778,-194 799.691,-194 827.028,-194"/>
<polygon fill="midnightblue" stroke="midnightblue" points="827.262,-197.5 837.262,-194 827.262,-190.5 827.262,-197.5"/>
</g>
<!-- Node6 -->
<g id="node11" class="node"><title>Node6</title>
<a xlink:href="../../d1/d59/xmpp__stanza_8c.html#a5a80203f56df7a360fa457c0111686f6" target="_top" xlink:title="Parse the namespace triple that Expat gives us.">
<polygon fill="none" stroke="black" points="1020.5,-203.5 1020.5,-222.5 1085.5,-222.5 1085.5,-203.5 1020.5,-203.5"/>
<text text-anchor="middle" x="1053" y="-210.5" font-family="DejaVuSansMono" font-size="10.00">parse_ns</text>
</a>
</g>
<!-- Node5&#45;&gt;Node6 -->
<g id="edge10" class="edge"><title>Node5&#45;&gt;Node6</title>
<path fill="none" stroke="midnightblue" d="M944.833,-200.274C966.072,-202.796 990.209,-205.662 1010.19,-208.035"/>
<polygon fill="midnightblue" stroke="midnightblue" points="1009.88,-211.523 1020.23,-209.227 1010.71,-204.572 1009.88,-211.523"/>
</g>
<!-- Node7 -->
<g id="node13" class="node"><title>Node7</title>
<a xlink:href="../../d1/d59/xmpp__stanza_8c.html#aff4b8f6e10ce1c351d2a5bc39f0e819f" target="_top" xlink:title="Convenience function to build a key for the attribute hash table.">
<polygon fill="none" stroke="black" points="1020.5,-165.5 1020.5,-184.5 1085.5,-184.5 1085.5,-165.5 1020.5,-165.5"/>
<text text-anchor="middle" x="1053" y="-172.5" font-family="DejaVuSansMono" font-size="10.00">make_key</text>
</a>
</g>
<!-- Node5&#45;&gt;Node7 -->
<g id="edge12" class="edge"><title>Node5&#45;&gt;Node7</title>
<path fill="none" stroke="midnightblue" d="M944.833,-187.726C966.072,-185.204 990.209,-182.338 1010.19,-179.965"/>
<polygon fill="midnightblue" stroke="midnightblue" points="1010.71,-183.428 1020.23,-178.773 1009.88,-176.477 1010.71,-183.428"/>
</g>
<!-- Node9 -->
<g id="node17" class="node"><title>Node9</title>
<a xlink:href="../../d1/d59/xmpp__stanza_8c.html#afc77f00b7f38c79566a7b16876230e30" target="_top" xlink:title="Removes a child stanza.">
<polygon fill="none" stroke="black" points="810.5,-222.5 810.5,-241.5 971.5,-241.5 971.5,-222.5 810.5,-222.5"/>
<text text-anchor="middle" x="891" y="-229.5" font-family="DejaVuSansMono" font-size="10.00">xmpp_stanza_remove_child</text>
</a>
</g>
<!-- Node8&#45;&gt;Node9 -->
<g id="edge16" class="edge"><title>Node8&#45;&gt;Node9</title>
<path fill="none" stroke="midnightblue" d="M758.77,-232C772.387,-232 786.613,-232 800.463,-232"/>
<polygon fill="midnightblue" stroke="midnightblue" points="800.467,-235.5 810.467,-232 800.467,-228.5 800.467,-235.5"/>
</g>
<!-- Node11 -->
<g id="node21" class="node"><title>Node11</title>
<a xlink:href="../../d1/d59/xmpp__stanza_8c.html#a513b6e2da3dce364271ba9315d7b3d95" target="_top" xlink:title="Returns the stanza (and its children) packed into a null&#45;terminated string.">
<polygon fill="none" stroke="black" points="417.5,-132.5 417.5,-151.5 542.5,-151.5 542.5,-132.5 417.5,-132.5"/>
<text text-anchor="middle" x="480" y="-139.5" font-family="DejaVuSansMono" font-size="10.00">xmpp_stanza_string</text>
</a>
</g>
<!-- Node10&#45;&gt;Node11 -->
<g id="edge20" class="edge"><title>Node10&#45;&gt;Node11</title>
<path fill="none" stroke="midnightblue" d="M338.705,-101.367C354.785,-107.371 379.857,-116.409 402,-123 410.157,-125.428 418.864,-127.791 427.38,-129.979"/>
<polygon fill="midnightblue" stroke="midnightblue" points="426.693,-133.416 437.245,-132.461 428.401,-126.627 426.693,-133.416"/>
</g>
<!-- Node16 -->
<g id="node31" class="node"><title>Node16</title>
<a xlink:href="../../d1/d59/xmpp__stanza_8c.html#af40757ae1d137034570b1bb33303d024" target="_top" xlink:title="Cleans up and frees an XMPP stanza.">
<polygon fill="none" stroke="black" points="426.5,-76.5 426.5,-95.5 533.5,-95.5 533.5,-76.5 426.5,-76.5"/>
<text text-anchor="middle" x="480" y="-83.5" font-family="DejaVuSansMono" font-size="10.00">xmpp_stanza_del</text>
</a>
</g>
<!-- Node10&#45;&gt;Node16 -->
<g id="edge30" class="edge"><title>Node10&#45;&gt;Node16</title>
<path fill="none" stroke="midnightblue" d="M338.505,-94.0539C356.946,-92.9967 387.919,-91.2212 416.098,-89.6059"/>
<polygon fill="midnightblue" stroke="midnightblue" points="416.541,-93.0863 426.325,-89.0196 416.141,-86.0977 416.541,-93.0863"/>
</g>
<!-- Node19 -->
<g id="node38" class="node"><title>Node19</title>
<a xlink:href="../../d1/d59/xmpp__stanza_8c.html#aacbe1cdb2a1d254b0b712653787b3c45" target="_top" xlink:title="Returns a pointer to the parent stanza.">
<polygon fill="none" stroke="black" points="417.5,-38.5 417.5,-57.5 542.5,-57.5 542.5,-38.5 417.5,-38.5"/>
<text text-anchor="middle" x="480" y="-45.5" font-family="DejaVuSansMono" font-size="10.00">xmpp_stanza_parent</text>
</a>
</g>
<!-- Node10&#45;&gt;Node19 -->
<g id="edge38" class="edge"><title>Node10&#45;&gt;Node19</title>
<path fill="none" stroke="midnightblue" d="M338.705,-88.6333C354.785,-82.6287 379.857,-73.5907 402,-67 410.157,-64.572 418.864,-62.2088 427.38,-60.0206"/>
<polygon fill="midnightblue" stroke="midnightblue" points="428.401,-63.373 437.245,-57.539 426.693,-56.5845 428.401,-63.373"/>
</g>
<!-- Node12 -->
<g id="node23" class="node"><title>Node12</title>
<a xlink:href="../../d1/d59/xmpp__stanza_8c.html#aae8c30c30fcbc2325d34897f8035ca46" target="_top" xlink:title="Function that gets called recursively to convert a stanza to a string.">
<polygon fill="none" stroke="black" points="633.5,-123.5 633.5,-142.5 722.5,-142.5 722.5,-123.5 633.5,-123.5"/>
<text text-anchor="middle" x="678" y="-130.5" font-family="DejaVuSansMono" font-size="10.00">stanza_tostr</text>
</a>
</g>
<!-- Node11&#45;&gt;Node12 -->
<g id="edge22" class="edge"><title>Node11&#45;&gt;Node12</title>
<path fill="none" stroke="midnightblue" d="M542.747,-139.165C568.586,-137.978 598.339,-136.612 623.259,-135.468"/>
<polygon fill="midnightblue" stroke="midnightblue" points="623.432,-138.964 633.261,-135.008 623.111,-131.971 623.432,-138.964"/>
</g>
<!-- Node13 -->
<g id="node25" class="node"><title>Node13</title>
<a xlink:href="../../d1/dc2/xmpp__parser_8c.html#acce8bfe5926da4e64c3b5038dc683618" target="_top" xlink:title="xmpp_parser_namespace_prefix">
<polygon fill="none" stroke="black" points="798.5,-70.5 798.5,-89.5 983.5,-89.5 983.5,-70.5 798.5,-70.5"/>
<text text-anchor="middle" x="891" y="-77.5" font-family="DejaVuSansMono" font-size="10.00">xmpp_parser_namespace_prefix</text>
</a>
</g>
<!-- Node12&#45;&gt;Node13 -->
<g id="edge24" class="edge"><title>Node12&#45;&gt;Node13</title>
<path fill="none" stroke="midnightblue" d="M714.193,-123.467C728.982,-119.404 746.352,-114.558 762,-110 778.063,-105.321 781.79,-103.141 798,-99 808.179,-96.3999 819.06,-93.9053 829.645,-91.6278"/>
<polygon fill="midnightblue" stroke="midnightblue" points="830.608,-95.0018 839.671,-89.5143 829.164,-88.1523 830.608,-95.0018"/>
</g>
<!-- Node14 -->
<g id="node27" class="node"><title>Node14</title>
<a xlink:href="../../d1/dc2/xmpp__parser_8c.html#afde3cf0e74a12bfe4ac90fa8dbae51a0" target="_top" xlink:title="xmpp_parser_namespace_uri">
<polygon fill="none" stroke="black" points="807.5,-146.5 807.5,-165.5 974.5,-165.5 974.5,-146.5 807.5,-146.5"/>
<text text-anchor="middle" x="891" y="-153.5" font-family="DejaVuSansMono" font-size="10.00">xmpp_parser_namespace_uri</text>
</a>
</g>
<!-- Node12&#45;&gt;Node14 -->
<g id="edge26" class="edge"><title>Node12&#45;&gt;Node14</title>
<path fill="none" stroke="midnightblue" d="M722.719,-137.766C744.245,-140.112 771.069,-143.036 796.889,-145.851"/>
<polygon fill="midnightblue" stroke="midnightblue" points="796.784,-149.36 807.104,-146.964 797.542,-142.401 796.784,-149.36"/>
</g>
<!-- Node15 -->
<g id="node29" class="node"><title>Node15</title>
<a xlink:href="../../d1/dc2/xmpp__parser_8c.html#af924e15caac53b347a48878fcb046bc4" target="_top" xlink:title="Return the next namespace in the namespace list.">
<polygon fill="none" stroke="black" points="804.5,-108.5 804.5,-127.5 977.5,-127.5 977.5,-108.5 804.5,-108.5"/>
<text text-anchor="middle" x="891" y="-115.5" font-family="DejaVuSansMono" font-size="10.00">xmpp_parser_namespace_next</text>
</a>
</g>
<!-- Node12&#45;&gt;Node15 -->
<g id="edge28" class="edge"><title>Node12&#45;&gt;Node15</title>
<path fill="none" stroke="midnightblue" d="M722.719,-129.892C743.407,-128.421 768.989,-126.603 793.87,-124.834"/>
<polygon fill="midnightblue" stroke="midnightblue" points="794.373,-128.307 804.1,-124.107 793.877,-121.325 794.373,-128.307"/>
</g>
<!-- Node16&#45;&gt;Node16 -->
<g id="edge36" class="edge"><title>Node16&#45;&gt;Node16</title>
<path fill="none" stroke="midnightblue" d="M455.648,-95.7571C443.801,-104.565 451.918,-114 480,-114 498.429,-114 508.26,-109.937 509.492,-104.654"/>
<polygon fill="midnightblue" stroke="midnightblue" points="512.386,-102.665 504.352,-95.7571 506.324,-106.167 512.386,-102.665"/>
</g>
<!-- Node17 -->
<g id="node33" class="node"><title>Node17</title>
<a xlink:href="../../d1/d59/xmpp__stanza_8c.html#a2fb472c6bf9b7f540a97ddc6c11adb74" target="_top" xlink:title="attribute_del">
<polygon fill="none" stroke="black" points="630.5,-43.5 630.5,-62.5 725.5,-62.5 725.5,-43.5 630.5,-43.5"/>
<text text-anchor="middle" x="678" y="-50.5" font-family="DejaVuSansMono" font-size="10.00">attribute_del</text>
</a>
</g>
<!-- Node16&#45;&gt;Node17 -->
<g id="edge32" class="edge"><title>Node16&#45;&gt;Node17</title>
<path fill="none" stroke="midnightblue" d="M533.524,-77.1566C560.27,-72.6535 592.823,-67.1727 620.156,-62.5707"/>
<polygon fill="midnightblue" stroke="midnightblue" points="621.073,-65.9657 630.353,-60.8539 619.91,-59.0629 621.073,-65.9657"/>
</g>
<!-- Node18 -->
<g id="node35" class="node"><title>Node18</title>
<a xlink:href="../../d1/dc2/xmpp__parser_8c.html#a87065f39f10a449e7af17fa45ca475f2" target="_top" xlink:title="xmpp_parser_namespace_del">
<polygon fill="none" stroke="black" points="594.5,-81.5 594.5,-100.5 761.5,-100.5 761.5,-81.5 594.5,-81.5"/>
<text text-anchor="middle" x="678" y="-88.5" font-family="DejaVuSansMono" font-size="10.00">xmpp_parser_namespace_del</text>
</a>
</g>
<!-- Node16&#45;&gt;Node18 -->
<g id="edge34" class="edge"><title>Node16&#45;&gt;Node18</title>
<path fill="none" stroke="midnightblue" d="M533.524,-87.3399C549.165,-87.7389 566.791,-88.1885 584.197,-88.6326"/>
<polygon fill="midnightblue" stroke="midnightblue" points="584.318,-92.1367 594.404,-88.893 584.497,-85.139 584.318,-92.1367"/>
</g>
<!-- Node21 -->
<g id="node42" class="node"><title>Node21</title>
<a xlink:href="../../d1/d59/xmpp__stanza_8c.html#a4adffe2c21d8f7aa52ce23cc48772b7f" target="_top" xlink:title="Copies data.">
<polygon fill="none" stroke="black" points="402.5,-0.5 402.5,-19.5 557.5,-19.5 557.5,-0.5 402.5,-0.5"/>
<text text-anchor="middle" x="480" y="-7.5" font-family="DejaVuSansMono" font-size="10.00">xmpp_stanza_append_data</text>
</a>
</g>
<!-- Node20&#45;&gt;Node21 -->
<g id="edge42" class="edge"><title>Node20&#45;&gt;Node21</title>
<path fill="none" stroke="midnightblue" d="M347.379,-47.4255C363.009,-41.7023 383.524,-34.4992 402,-29 410.157,-26.572 418.864,-24.2088 427.38,-22.0206"/>
<polygon fill="midnightblue" stroke="midnightblue" points="428.401,-25.373 437.245,-19.539 426.693,-18.5845 428.401,-25.373"/>
</g>
<!-- Node23&#45;&gt;Node3 -->
<g id="edge52" class="edge"><title>Node23&#45;&gt;Node3</title>
<path fill="none" stroke="midnightblue" d="M334.39,-151.608C349.597,-163.023 376.513,-182.024 402,-194 416.175,-200.661 432.663,-206.082 446.736,-210.077"/>
<polygon fill="midnightblue" stroke="midnightblue" points="445.921,-213.482 456.489,-212.73 447.759,-206.727 445.921,-213.482"/>
</g>
<!-- Node23&#45;&gt;Node4 -->
<g id="edge48" class="edge"><title>Node23&#45;&gt;Node4</title>
<path fill="none" stroke="midnightblue" d="M358.457,-151.582C372.053,-154.911 387.665,-158.446 402,-161 470.521,-173.207 549.469,-182.16 605.149,-187.636"/>
<polygon fill="midnightblue" stroke="midnightblue" points="604.975,-191.135 615.267,-188.618 605.652,-184.168 604.975,-191.135"/>
</g>
<!-- Node23&#45;&gt;Node11 -->
<g id="edge50" class="edge"><title>Node23&#45;&gt;Node11</title>
<path fill="none" stroke="midnightblue" d="M365.733,-142C378.583,-142 392.991,-142 407.111,-142"/>
<polygon fill="midnightblue" stroke="midnightblue" points="407.316,-145.5 417.316,-142 407.316,-138.5 407.316,-145.5"/>
</g>
<!-- Node23&#45;&gt;Node16 -->
<g id="edge54" class="edge"><title>Node23&#45;&gt;Node16</title>
<path fill="none" stroke="midnightblue" d="M348.989,-132.373C374.87,-123.142 414.125,-109.14 442.729,-98.9375"/>
<polygon fill="midnightblue" stroke="midnightblue" points="444.12,-102.157 452.363,-95.5011 441.768,-95.5642 444.12,-102.157"/>
</g>
</g>
</svg>
        <g id="navigator" transform="translate(0 0)" fill="#404254">
                <rect fill="#f2f5e9" fill-opacity="0.5" stroke="#606060" stroke-width=".5" x="0" y="0" width="60" height="60"/>
                <use id="zoomplus" xlink:href="#zoomPlus" x="17" y="9" onmousedown="handleZoom(evt,'in')"/>
                <use id="zoomminus" xlink:href="#zoomMin" x="42" y="9" onmousedown="handleZoom(evt,'out')"/>
                <use id="reset" xlink:href="#resetDef" x="30" y="36" onmousedown="handleReset()"/>
                <g id="arrowUp" xlink:href="#dirArrow" transform="translate(30 24)" onmousedown="handlePan(0,-1)">
                  <use xlink:href="#rim" fill="#404040">
                        <set attributeName="fill" to="#808080" begin="arrowUp.mouseover" end="arrowUp.mouseout"/>
                  </use>
                  <path fill="none" stroke="white" stroke-width="1.5" d="M0,-3.0v7 M-2.5,-0.5L0,-3.0L2.5,-0.5"/>
                </g>
                <g id="arrowRight" xlink:href="#dirArrow" transform="rotate(90) translate(36 -43)" onmousedown="handlePan(1,0)">
                  <use xlink:href="#rim" fill="#404040">
                        <set attributeName="fill" to="#808080" begin="arrowRight.mouseover" end="arrowRight.mouseout"/>
                  </use>
                  <path fill="none" stroke="white" stroke-width="1.5" d="M0,-3.0v7 M-2.5,-0.5L0,-3.0L2.5,-0.5"/>
                </g>
                <g id="arrowDown" xlink:href="#dirArrow" transform="rotate(180) translate(-30 -48)" onmousedown="handlePan(0,1)">
                  <use xlink:href="#rim" fill="#404040">
                        <set attributeName="fill" to="#808080" begin="arrowDown.mouseover" end="arrowDown.mouseout"/>
                  </use>
                  <path fill="none" stroke="white" stroke-width="1.5" d="M0,-3.0v7 M-2.5,-0.5L0,-3.0L2.5,-0.5"/>
                </g>
                <g id="arrowLeft" xlink:href="#dirArrow" transform="rotate(270) translate(-36 17)" onmousedown="handlePan(-1,0)">
                  <use xlink:href="#rim" fill="#404040">
                        <set attributeName="fill" to="#808080" begin="arrowLeft.mouseover" end="arrowLeft.mouseout"/>
                  </use>
                  <path fill="none" stroke="white" stroke-width="1.5" d="M0,-3.0v7 M-2.5,-0.5L0,-3.0L2.5,-0.5"/>
                </g>
        </g>
        <svg viewBox="0 0 25 25" width="100%" height="30px" preserveAspectRatio="xMaxYMin meet"> 
          <g id="printButton" transform="scale(0.4 0.4)" onmousedown="handlePrint(evt)">
            <rect height="23.33753581" id="paper" rx="2" style="fill:#f2f5e9;fill-rule:evenodd;stroke:#111111;stroke-width:3.224;stroke-linejoin:round;" transform="matrix(1.000000,0.000000,-0.339266,0.940691,0.000000,0.000000)" width="25.55231285" x="26.69387353" y="7.36162977"/>
            <rect height="26.272097" id="body" rx="2" style="fill:#404040;fill-rule:evenodd;stroke:#111111;stroke-width:3.125;stroke-linejoin:round;" width="50" x="4.5295201" y="27.078951"/>
            <rect height="8.27750969" id="tray" style="fill:#d2d5c9;fill-rule:evenodd;stroke:#111111;stroke-width:3.125;stroke-linecap:round;stroke-linejoin:round;" width="40" x="10.28778839" y="44.96812282"/>
          </g>
        </svg>
</svg>
