<?xml version="1.0" encoding="UTF-8" standalone="no"?>
<!DOCTYPE svg PUBLIC "-//W3C//DTD SVG 1.1//EN"
 "http://www.w3.org/Graphics/SVG/1.1/DTD/svg11.dtd">
<!-- Generated by graphviz version 2.28.0 (20120217.0315)
 -->
<!-- Title: G Pages: 1 -->
<!--zoomable 284 -->
<svg id="main" version="1.1" xmlns="http://www.w3.org/2000/svg" xmlns:xlink="http://www.w3.org/1999/xlink" xml:space="preserve" onload="init(evt)">
        <defs>
                <circle id="rim" cx="0" cy="0" r="7"/>
                <circle id="rim2" cx="0" cy="0" r="3.5"/>
                <g id="zoomPlus">
                        <use xlink:href="#rim" fill="#404040">
                                <set attributeName="fill" to="#808080" begin="zoomplus.mouseover" end="zoomplus.mouseout"/>
                        </use>
                        <path d="M-4,0h8M0,-4v8" fill="none" stroke="white" stroke-width="1.5" pointer-events="none"/>
                </g>
                <g id="zoomMin">
                        <use xlink:href="#rim" fill="#404040">
                                <set attributeName="fill" to="#808080" begin="zoomminus.mouseover" end="zoomminus.mouseout"/>
                        </use>
                        <path d="M-4,0h8" fill="none" stroke="white" stroke-width="1.5" pointer-events="none"/>
                </g>
                <g id="dirArrow">
                        <path fill="none" stroke="white" stroke-width="1.5" d="M0,-3.0v7 M-2.5,-0.5L0,-3.0L2.5,-0.5"/>
                </g>
               <g id="resetDef">
                       <use xlink:href="#rim2" fill="#404040">
                               <set attributeName="fill" to="#808080" begin="reset.mouseover" end="reset.mouseout"/>
                       </use>
               </g>
        </defs>

<script type="text/javascript">
var viewWidth = 1604;
var viewHeight = 284;
var sectionId = 'dynsection-27';
</script>
<script xlink:href="../../svgpan.js"/>
<svg id="graph" class="graph">
<g id="viewport">
<title>G</title>
<!-- Node1 -->
<g id="node1" class="node"><title>Node1</title>
<polygon fill="#bfbfbf" stroke="black" points="0.5,-123.5 0.5,-142.5 155.5,-142.5 155.5,-123.5 0.5,-123.5"/>
<text text-anchor="middle" x="78" y="-130.5" font-family="DejaVuSansMono" font-size="10.00">xmpp_parser_set_handler</text>
</g>
<!-- Node2 -->
<g id="node3" class="node"><title>Node2</title>
<a xlink:href="../../d6/d78/xmp3__multicast_8c.html#a08afc39c59ec9297d756a99c395eff3c" target="_top" xlink:title="multicast_new">
<polygon fill="none" stroke="black" points="195.5,-256.5 195.5,-275.5 290.5,-275.5 290.5,-256.5 195.5,-256.5"/>
<text text-anchor="middle" x="243" y="-263.5" font-family="DejaVuSansMono" font-size="10.00">multicast_new</text>
</a>
</g>
<!-- Node1&#45;&gt;Node2 -->
<g id="edge2" class="edge"><title>Node1&#45;&gt;Node2</title>
<path fill="none" stroke="midnightblue" d="M93.5494,-150.124C113.82,-173.206 152.532,-214.565 192,-242 200.064,-247.606 209.64,-252.555 218.243,-256.48"/>
<polygon fill="midnightblue" stroke="midnightblue" points="96.1425,-147.771 86.9486,-142.506 90.8524,-152.356 96.1425,-147.771"/>
</g>
<!-- Node3 -->
<g id="node5" class="node"><title>Node3</title>
<a xlink:href="../../d3/d24/xmpp__auth_8h.html#ad3efd9ab093646bdfd8832c34ae2de4d" target="_top" xlink:title="Handler for the inital stream start to begin authentication.">
<polygon fill="none" stroke="black" points="942.5,-144.5 942.5,-163.5 1091.5,-163.5 1091.5,-144.5 942.5,-144.5"/>
<text text-anchor="middle" x="1017" y="-151.5" font-family="DejaVuSansMono" font-size="10.00">xmpp_auth_stream_start</text>
</a>
</g>
<!-- Node1&#45;&gt;Node3 -->
<g id="edge4" class="edge"><title>Node1&#45;&gt;Node3</title>
<path fill="none" stroke="midnightblue" d="M119.546,-145.33C178.343,-162.09 290.973,-190 389,-190 389,-190 389,-190 703,-190 795.851,-190 903.186,-174.171 964.972,-163.506"/>
<polygon fill="midnightblue" stroke="midnightblue" points="120.474,-141.955 109.895,-142.541 118.53,-148.68 120.474,-141.955"/>
</g>
<!-- Node4 -->
<g id="node7" class="node"><title>Node4</title>
<a xlink:href="../../d4/d2f/xmpp__client_8h.html#a1619c0b8f58b2cf09a322bf34fbc3414" target="_top" xlink:title="xmpp_client_new">
<polygon fill="none" stroke="black" points="1128.5,-193.5 1128.5,-212.5 1235.5,-212.5 1235.5,-193.5 1128.5,-193.5"/>
<text text-anchor="middle" x="1182" y="-200.5" font-family="DejaVuSansMono" font-size="10.00">xmpp_client_new</text>
</a>
</g>
<!-- Node1&#45;&gt;Node4 -->
<g id="edge36" class="edge"><title>Node1&#45;&gt;Node4</title>
<path fill="none" stroke="midnightblue" d="M104.569,-147.412C127,-159.516 160.815,-176.475 192,-187 276.736,-215.598 299.568,-228 389,-228 389,-228 389,-228 853,-228 950.372,-228 1063.53,-216.911 1128.26,-209.503"/>
<polygon fill="midnightblue" stroke="midnightblue" points="106.146,-144.286 95.6933,-142.555 102.785,-150.426 106.146,-144.286"/>
</g>
<!-- Node8 -->
<g id="node15" class="node"><title>Node8</title>
<a xlink:href="../../df/da9/xmpp__auth_8c.html#afd7b12689591d40109a88ad108b5c3a2" target="_top" xlink:title="stream_sasl_start">
<polygon fill="none" stroke="black" points="642.5,-57.5 642.5,-76.5 761.5,-76.5 761.5,-57.5 642.5,-57.5"/>
<text text-anchor="middle" x="702" y="-64.5" font-family="DejaVuSansMono" font-size="10.00">stream_sasl_start</text>
</a>
</g>
<!-- Node1&#45;&gt;Node8 -->
<g id="edge14" class="edge"><title>Node1&#45;&gt;Node8</title>
<path fill="none" stroke="midnightblue" d="M103.098,-118.414C125.3,-105.844 159.614,-88.5622 192,-81 351.474,-43.7626 546.682,-53.0866 642.399,-61.0844"/>
<polygon fill="midnightblue" stroke="midnightblue" points="101.265,-115.431 94.365,-123.471 104.773,-121.489 101.265,-115.431"/>
</g>
<!-- Node9 -->
<g id="node17" class="node"><title>Node9</title>
<a xlink:href="../../df/da9/xmpp__auth_8c.html#a8dd789e057b9812e4dd1aa524dfb6a65" target="_top" xlink:title="Begins TLS authentication.">
<polygon fill="none" stroke="black" points="798.5,-57.5 798.5,-76.5 905.5,-76.5 905.5,-57.5 798.5,-57.5"/>
<text text-anchor="middle" x="852" y="-64.5" font-family="DejaVuSansMono" font-size="10.00">handle_starttls</text>
</a>
</g>
<!-- Node1&#45;&gt;Node9 -->
<g id="edge28" class="edge"><title>Node1&#45;&gt;Node9</title>
<path fill="none" stroke="midnightblue" d="M99.4476,-117.243C147.261,-82.0256 271.262,-0 389,-0 389,-0 389,-0 547,-0 652.387,-1.42109e-14 773.609,-38.8744 825.395,-57.4005"/>
<polygon fill="midnightblue" stroke="midnightblue" points="97.0836,-114.641 91.1744,-123.435 101.278,-120.245 97.0836,-114.641"/>
</g>
<!-- Node10 -->
<g id="node20" class="node"><title>Node10</title>
<a xlink:href="../../df/da9/xmpp__auth_8c.html#a01804bd53eccc182ce76337fc0863e8d" target="_top" xlink:title="stream_bind_start">
<polygon fill="none" stroke="black" points="330.5,-104.5 330.5,-123.5 449.5,-123.5 449.5,-104.5 330.5,-104.5"/>
<text text-anchor="middle" x="390" y="-111.5" font-family="DejaVuSansMono" font-size="10.00">stream_bind_start</text>
</a>
</g>
<!-- Node1&#45;&gt;Node10 -->
<g id="edge20" class="edge"><title>Node1&#45;&gt;Node10</title>
<path fill="none" stroke="midnightblue" d="M165.624,-136.883C204.902,-137.646 251.885,-137.17 294,-133 312.746,-131.144 333.273,-127.275 350.435,-123.51"/>
<polygon fill="midnightblue" stroke="midnightblue" points="165.626,-133.382 155.55,-136.657 165.469,-140.38 165.626,-133.382"/>
</g>
<!-- Node11 -->
<g id="node22" class="node"><title>Node11</title>
<a xlink:href="../../df/da9/xmpp__auth_8c.html#afb770a216868aa3fb43813b19d2a0115" target="_top" xlink:title="Begins SASL PLAIN authentication.">
<polygon fill="none" stroke="black" points="486.5,-85.5 486.5,-104.5 605.5,-104.5 605.5,-85.5 486.5,-85.5"/>
<text text-anchor="middle" x="546" y="-92.5" font-family="DejaVuSansMono" font-size="10.00">handle_sasl_plain</text>
</a>
</g>
<!-- Node1&#45;&gt;Node11 -->
<g id="edge30" class="edge"><title>Node1&#45;&gt;Node11</title>
<path fill="none" stroke="midnightblue" d="M109.846,-119.594C132.18,-110.644 163.353,-99.6877 192,-95 294.514,-78.2247 416.028,-83.6636 486.441,-89.2543"/>
<polygon fill="midnightblue" stroke="midnightblue" points="108.471,-116.374 100.548,-123.408 111.128,-122.85 108.471,-116.374"/>
</g>
<!-- Node12 -->
<g id="node28" class="node"><title>Node12</title>
<a xlink:href="../../df/da9/xmpp__auth_8c.html#a603b4a63af3c4e4af99442805fe89ae8" target="_top" xlink:title="Step 15: Client binds a resource.">
<polygon fill="none" stroke="black" points="192.5,-104.5 192.5,-123.5 293.5,-123.5 293.5,-104.5 192.5,-104.5"/>
<text text-anchor="middle" x="243" y="-111.5" font-family="DejaVuSansMono" font-size="10.00">handle_bind_iq</text>
</a>
</g>
<!-- Node1&#45;&gt;Node12 -->
<g id="edge32" class="edge"><title>Node1&#45;&gt;Node12</title>
<path fill="none" stroke="midnightblue" d="M165.897,-122.871C174.892,-121.822 183.799,-120.784 192.178,-119.808"/>
<polygon fill="midnightblue" stroke="midnightblue" points="165.255,-119.422 155.727,-124.056 166.065,-126.375 165.255,-119.422"/>
</g>
<!-- Node3&#45;&gt;Node4 -->
<g id="edge6" class="edge"><title>Node3&#45;&gt;Node4</title>
<path fill="none" stroke="midnightblue" d="M1059.68,-166.53C1087.57,-174.914 1123.71,-185.777 1149.27,-193.46"/>
<polygon fill="midnightblue" stroke="midnightblue" points="1060.4,-163.091 1049.81,-163.564 1058.38,-169.795 1060.4,-163.091"/>
</g>
<!-- Node5 -->
<g id="node9" class="node"><title>Node5</title>
<a xlink:href="../../d0/df0/xmpp__server_8c.html#a66363912ef1221a2574f9f99805fe8fd" target="_top" xlink:title="Callback for new client connections.">
<polygon fill="none" stroke="black" points="1272.5,-193.5 1272.5,-212.5 1373.5,-212.5 1373.5,-193.5 1272.5,-193.5"/>
<text text-anchor="middle" x="1323" y="-200.5" font-family="DejaVuSansMono" font-size="10.00">connect_client</text>
</a>
</g>
<!-- Node4&#45;&gt;Node5 -->
<g id="edge8" class="edge"><title>Node4&#45;&gt;Node5</title>
<path fill="none" stroke="midnightblue" d="M1245.8,-203C1254.63,-203 1263.59,-203 1272.13,-203"/>
<polygon fill="midnightblue" stroke="midnightblue" points="1245.55,-199.5 1235.55,-203 1245.55,-206.5 1245.55,-199.5"/>
</g>
<!-- Node6 -->
<g id="node11" class="node"><title>Node6</title>
<a xlink:href="../../d1/d2e/xmpp__server_8h.html#a27bfc8e4d424a8bc17ab21a4a09cdf92" target="_top" xlink:title="Allocates and initializes the XMPP server.">
<polygon fill="none" stroke="black" points="1410.5,-193.5 1410.5,-212.5 1517.5,-212.5 1517.5,-193.5 1410.5,-193.5"/>
<text text-anchor="middle" x="1464" y="-200.5" font-family="DejaVuSansMono" font-size="10.00">xmpp_server_new</text>
</a>
</g>
<!-- Node5&#45;&gt;Node6 -->
<g id="edge10" class="edge"><title>Node5&#45;&gt;Node6</title>
<path fill="none" stroke="midnightblue" d="M1383.94,-203C1392.7,-203 1401.67,-203 1410.27,-203"/>
<polygon fill="midnightblue" stroke="midnightblue" points="1383.79,-199.5 1373.79,-203 1383.79,-206.5 1383.79,-199.5"/>
</g>
<!-- Node7 -->
<g id="node13" class="node"><title>Node7</title>
<a xlink:href="../../d0/d29/main_8c.html#a0ddf1224851353fc92bfbff6f499fa97" target="_top" xlink:title="main">
<polygon fill="none" stroke="black" points="1554.5,-193.5 1554.5,-212.5 1595.5,-212.5 1595.5,-193.5 1554.5,-193.5"/>
<text text-anchor="middle" x="1575" y="-200.5" font-family="DejaVuSansMono" font-size="10.00">main</text>
</a>
</g>
<!-- Node6&#45;&gt;Node7 -->
<g id="edge12" class="edge"><title>Node6&#45;&gt;Node7</title>
<path fill="none" stroke="midnightblue" d="M1527.75,-203C1537.43,-203 1546.76,-203 1554.47,-203"/>
<polygon fill="midnightblue" stroke="midnightblue" points="1527.58,-199.5 1517.58,-203 1527.58,-206.5 1527.58,-199.5"/>
</g>
<!-- Node8&#45;&gt;Node9 -->
<g id="edge16" class="edge"><title>Node8&#45;&gt;Node9</title>
<path fill="none" stroke="midnightblue" d="M772.085,-67C780.806,-67 789.619,-67 798.036,-67"/>
<polygon fill="midnightblue" stroke="midnightblue" points="771.919,-63.5001 761.919,-67 771.919,-70.5001 771.919,-63.5001"/>
</g>
<!-- Node9&#45;&gt;Node3 -->
<g id="edge18" class="edge"><title>Node9&#45;&gt;Node3</title>
<path fill="none" stroke="midnightblue" d="M880.257,-81.5481C913.647,-99.3697 969.284,-129.066 997.852,-144.314"/>
<polygon fill="midnightblue" stroke="midnightblue" points="881.537,-78.264 871.067,-76.6429 878.241,-84.4394 881.537,-78.264"/>
</g>
<!-- Node10&#45;&gt;Node11 -->
<g id="edge22" class="edge"><title>Node10&#45;&gt;Node11</title>
<path fill="none" stroke="midnightblue" d="M459.607,-105.535C468.497,-104.439 477.538,-103.323 486.248,-102.249"/>
<polygon fill="midnightblue" stroke="midnightblue" points="459.156,-102.064 449.66,-106.763 460.013,-109.012 459.156,-102.064"/>
</g>
<!-- Node11&#45;&gt;Node3 -->
<g id="edge24" class="edge"><title>Node11&#45;&gt;Node3</title>
<path fill="none" stroke="midnightblue" d="M615.987,-103.679C703.236,-114.654 852.847,-133.475 942.283,-144.726"/>
<polygon fill="midnightblue" stroke="midnightblue" points="616.283,-100.188 605.924,-102.413 615.409,-107.134 616.283,-100.188"/>
</g>
<!-- Node11&#45;&gt;Node8 -->
<g id="edge26" class="edge"><title>Node11&#45;&gt;Node8</title>
<path fill="none" stroke="midnightblue" d="M609.78,-83.5855C622.697,-81.2368 636.168,-78.7875 648.67,-76.5146"/>
<polygon fill="midnightblue" stroke="midnightblue" points="608.78,-80.2098 599.567,-85.4423 610.032,-87.0969 608.78,-80.2098"/>
</g>
<!-- Node12&#45;&gt;Node10 -->
<g id="edge34" class="edge"><title>Node12&#45;&gt;Node10</title>
<path fill="none" stroke="midnightblue" d="M303.961,-114C312.655,-114 321.597,-114 330.266,-114"/>
<polygon fill="midnightblue" stroke="midnightblue" points="303.901,-110.5 293.901,-114 303.901,-117.5 303.901,-110.5"/>
</g>
</g>
</svg>
        <g id="navigator" transform="translate(0 0)" fill="#404254">
                <rect fill="#f2f5e9" fill-opacity="0.5" stroke="#606060" stroke-width=".5" x="0" y="0" width="60" height="60"/>
                <use id="zoomplus" xlink:href="#zoomPlus" x="17" y="9" onmousedown="handleZoom(evt,'in')"/>
                <use id="zoomminus" xlink:href="#zoomMin" x="42" y="9" onmousedown="handleZoom(evt,'out')"/>
                <use id="reset" xlink:href="#resetDef" x="30" y="36" onmousedown="handleReset()"/>
                <g id="arrowUp" xlink:href="#dirArrow" transform="translate(30 24)" onmousedown="handlePan(0,-1)">
                  <use xlink:href="#rim" fill="#404040">
                        <set attributeName="fill" to="#808080" begin="arrowUp.mouseover" end="arrowUp.mouseout"/>
                  </use>
                  <path fill="none" stroke="white" stroke-width="1.5" d="M0,-3.0v7 M-2.5,-0.5L0,-3.0L2.5,-0.5"/>
                </g>
                <g id="arrowRight" xlink:href="#dirArrow" transform="rotate(90) translate(36 -43)" onmousedown="handlePan(1,0)">
                  <use xlink:href="#rim" fill="#404040">
                        <set attributeName="fill" to="#808080" begin="arrowRight.mouseover" end="arrowRight.mouseout"/>
                  </use>
                  <path fill="none" stroke="white" stroke-width="1.5" d="M0,-3.0v7 M-2.5,-0.5L0,-3.0L2.5,-0.5"/>
                </g>
                <g id="arrowDown" xlink:href="#dirArrow" transform="rotate(180) translate(-30 -48)" onmousedown="handlePan(0,1)">
                  <use xlink:href="#rim" fill="#404040">
                        <set attributeName="fill" to="#808080" begin="arrowDown.mouseover" end="arrowDown.mouseout"/>
                  </use>
                  <path fill="none" stroke="white" stroke-width="1.5" d="M0,-3.0v7 M-2.5,-0.5L0,-3.0L2.5,-0.5"/>
                </g>
                <g id="arrowLeft" xlink:href="#dirArrow" transform="rotate(270) translate(-36 17)" onmousedown="handlePan(-1,0)">
                  <use xlink:href="#rim" fill="#404040">
                        <set attributeName="fill" to="#808080" begin="arrowLeft.mouseover" end="arrowLeft.mouseout"/>
                  </use>
                  <path fill="none" stroke="white" stroke-width="1.5" d="M0,-3.0v7 M-2.5,-0.5L0,-3.0L2.5,-0.5"/>
                </g>
        </g>
        <svg viewBox="0 0 25 25" width="100%" height="30px" preserveAspectRatio="xMaxYMin meet"> 
          <g id="printButton" transform="scale(0.4 0.4)" onmousedown="handlePrint(evt)">
            <rect height="23.33753581" id="paper" rx="2" style="fill:#f2f5e9;fill-rule:evenodd;stroke:#111111;stroke-width:3.224;stroke-linejoin:round;" transform="matrix(1.000000,0.000000,-0.339266,0.940691,0.000000,0.000000)" width="25.55231285" x="26.69387353" y="7.36162977"/>
            <rect height="26.272097" id="body" rx="2" style="fill:#404040;fill-rule:evenodd;stroke:#111111;stroke-width:3.125;stroke-linejoin:round;" width="50" x="4.5295201" y="27.078951"/>
            <rect height="8.27750969" id="tray" style="fill:#d2d5c9;fill-rule:evenodd;stroke:#111111;stroke-width:3.125;stroke-linecap:round;stroke-linejoin:round;" width="40" x="10.28778839" y="44.96812282"/>
          </g>
        </svg>
</svg>
