<?xml version="1.0" encoding="UTF-8" standalone="no"?>
<!DOCTYPE svg PUBLIC "-//W3C//DTD SVG 1.1//EN"
 "http://www.w3.org/Graphics/SVG/1.1/DTD/svg11.dtd">
<!-- Generated by graphviz version 2.28.0 (20120217.0315)
 -->
<!-- Title: G Pages: 1 -->
<!--zoomable 250 -->
<svg id="main" version="1.1" xmlns="http://www.w3.org/2000/svg" xmlns:xlink="http://www.w3.org/1999/xlink" xml:space="preserve" onload="init(evt)">
        <defs>
                <circle id="rim" cx="0" cy="0" r="7"/>
                <circle id="rim2" cx="0" cy="0" r="3.5"/>
                <g id="zoomPlus">
                        <use xlink:href="#rim" fill="#404040">
                                <set attributeName="fill" to="#808080" begin="zoomplus.mouseover" end="zoomplus.mouseout"/>
                        </use>
                        <path d="M-4,0h8M0,-4v8" fill="none" stroke="white" stroke-width="1.5" pointer-events="none"/>
                </g>
                <g id="zoomMin">
                        <use xlink:href="#rim" fill="#404040">
                                <set attributeName="fill" to="#808080" begin="zoomminus.mouseover" end="zoomminus.mouseout"/>
                        </use>
                        <path d="M-4,0h8" fill="none" stroke="white" stroke-width="1.5" pointer-events="none"/>
                </g>
                <g id="dirArrow">
                        <path fill="none" stroke="white" stroke-width="1.5" d="M0,-3.0v7 M-2.5,-0.5L0,-3.0L2.5,-0.5"/>
                </g>
               <g id="resetDef">
                       <use xlink:href="#rim2" fill="#404040">
                               <set attributeName="fill" to="#808080" begin="reset.mouseover" end="reset.mouseout"/>
                       </use>
               </g>
        </defs>

<script type="text/javascript">
var viewWidth = 938;
var viewHeight = 250;
var sectionId = 'dynsection-7';
</script>
<script xlink:href="../../svgpan.js"/>
<svg id="graph" class="graph">
<g id="viewport">
<title>G</title>
<!-- Node1 -->
<g id="node1" class="node"><title>Node1</title>
<polygon fill="#bfbfbf" stroke="black" points="0.5,-85.5 0.5,-104.5 83.5,-104.5 83.5,-85.5 0.5,-85.5"/>
<text text-anchor="middle" x="42" y="-92.5" font-family="DejaVuSansMono" font-size="10.00">init_parser</text>
</g>
<!-- Node2 -->
<g id="node3" class="node"><title>Node2</title>
<a xlink:href="../../d1/dc2/xmpp__parser_8c.html#a0f2993ab3e982d5e2b4a5635dcaf291c" target="_top" xlink:title="Expat callback for the start of any other element.">
<polygon fill="none" stroke="black" points="300.5,-208.5 300.5,-227.5 347.5,-227.5 347.5,-208.5 300.5,-208.5"/>
<text text-anchor="middle" x="324" y="-215.5" font-family="DejaVuSansMono" font-size="10.00">start</text>
</a>
</g>
<!-- Node1&#45;&gt;Node2 -->
<g id="edge2" class="edge"><title>Node1&#45;&gt;Node2</title>
<path fill="none" stroke="midnightblue" d="M51.4992,-104.567C64.7463,-118.904 91.7441,-145.886 120,-161 175.824,-190.861 248.87,-206.39 290.391,-213.323"/>
<polygon fill="midnightblue" stroke="midnightblue" points="290.057,-216.814 300.485,-214.942 291.165,-209.903 290.057,-216.814"/>
</g>
<!-- Node9 -->
<g id="node17" class="node"><title>Node9</title>
<a xlink:href="../../d1/dc2/xmpp__parser_8c.html#adc3f7670edafd5b590af11d276887f1e" target="_top" xlink:title="Expat callback for end elements.">
<polygon fill="none" stroke="black" points="147.5,-85.5 147.5,-104.5 182.5,-104.5 182.5,-85.5 147.5,-85.5"/>
<text text-anchor="middle" x="165" y="-92.5" font-family="DejaVuSansMono" font-size="10.00">end</text>
</a>
</g>
<!-- Node1&#45;&gt;Node9 -->
<g id="edge16" class="edge"><title>Node1&#45;&gt;Node9</title>
<path fill="none" stroke="midnightblue" d="M83.6279,-95C101.255,-95 121.415,-95 137.134,-95"/>
<polygon fill="midnightblue" stroke="midnightblue" points="137.221,-98.5001 147.221,-95 137.221,-91.5001 137.221,-98.5001"/>
</g>
<!-- Node19 -->
<g id="node38" class="node"><title>Node19</title>
<a xlink:href="../../d1/dc2/xmpp__parser_8c.html#a78918dc72ccbf110d41d34080ebbf014" target="_top" xlink:title="Expat callback for XML data.">
<polygon fill="none" stroke="black" points="132.5,-47.5 132.5,-66.5 197.5,-66.5 197.5,-47.5 132.5,-47.5"/>
<text text-anchor="middle" x="165" y="-54.5" font-family="DejaVuSansMono" font-size="10.00">chardata</text>
</a>
</g>
<!-- Node1&#45;&gt;Node19 -->
<g id="edge38" class="edge"><title>Node1&#45;&gt;Node19</title>
<path fill="none" stroke="midnightblue" d="M73.5334,-85.411C88.7234,-80.6406 107.285,-74.8112 123.633,-69.6771"/>
<polygon fill="midnightblue" stroke="midnightblue" points="124.984,-72.9214 133.476,-66.5859 122.887,-66.243 124.984,-72.9214"/>
</g>
<!-- Node21 -->
<g id="node42" class="node"><title>Node21</title>
<a xlink:href="../../d1/dc2/xmpp__parser_8c.html#a97bcfc9f28eea4b3aa3a7d8ac7af8aee" target="_top" xlink:title="Expat callback for namespace declarations.">
<polygon fill="none" stroke="black" points="132.5,-9.5 132.5,-28.5 197.5,-28.5 197.5,-9.5 132.5,-9.5"/>
<text text-anchor="middle" x="165" y="-16.5" font-family="DejaVuSansMono" font-size="10.00">ns_start</text>
</a>
</g>
<!-- Node1&#45;&gt;Node21 -->
<g id="edge42" class="edge"><title>Node1&#45;&gt;Node21</title>
<path fill="none" stroke="midnightblue" d="M54.1702,-85.4379C68.6664,-73.341 95.0644,-52.3579 120,-38 123.049,-36.2445 126.291,-34.5506 129.579,-32.9458"/>
<polygon fill="midnightblue" stroke="midnightblue" points="131.224,-36.0416 138.846,-28.6821 128.298,-29.6824 131.224,-36.0416"/>
</g>
<!-- Node22 -->
<g id="node44" class="node"><title>Node22</title>
<a xlink:href="../../d1/dc2/xmpp__parser_8c.html#a2268b636f6d02bbe04f3033ff93d829c" target="_top" xlink:title="Expat callback for the start of an XMPP stream.">
<polygon fill="none" stroke="black" points="120.5,-132.5 120.5,-151.5 209.5,-151.5 209.5,-132.5 120.5,-132.5"/>
<text text-anchor="middle" x="165" y="-139.5" font-family="DejaVuSansMono" font-size="10.00">stream_start</text>
</a>
</g>
<!-- Node1&#45;&gt;Node22 -->
<g id="edge44" class="edge"><title>Node1&#45;&gt;Node22</title>
<path fill="none" stroke="midnightblue" d="M67.4862,-104.511C85.3268,-111.441 109.737,-120.923 129.544,-128.616"/>
<polygon fill="midnightblue" stroke="midnightblue" points="128.546,-131.983 139.135,-132.342 131.081,-125.458 128.546,-131.983"/>
</g>
<!-- Node3 -->
<g id="node5" class="node"><title>Node3</title>
<a xlink:href="../../d1/d59/xmpp__stanza_8c.html#aa2b621549a5e0499793adbec29964932" target="_top" xlink:title="Allocate stanza with namespace information.">
<polygon fill="none" stroke="black" points="459.5,-184.5 459.5,-203.5 584.5,-203.5 584.5,-184.5 459.5,-184.5"/>
<text text-anchor="middle" x="522" y="-191.5" font-family="DejaVuSansMono" font-size="10.00">xmpp_stanza_ns_new</text>
</a>
</g>
<!-- Node2&#45;&gt;Node3 -->
<g id="edge4" class="edge"><title>Node2&#45;&gt;Node3</title>
<path fill="none" stroke="midnightblue" d="M347.867,-215.2C372.697,-212.16 413.608,-207.15 449.428,-202.764"/>
<polygon fill="midnightblue" stroke="midnightblue" points="449.878,-206.235 459.378,-201.546 449.027,-199.287 449.878,-206.235"/>
</g>
<!-- Node7 -->
<g id="node13" class="node"><title>Node7</title>
<a xlink:href="../../d1/d59/xmpp__stanza_8c.html#ac13c8bb45e2ca03b99836e8d52b265b4" target="_top" xlink:title="Appends a child stanza.">
<polygon fill="none" stroke="black" points="441.5,-222.5 441.5,-241.5 602.5,-241.5 602.5,-222.5 441.5,-222.5"/>
<text text-anchor="middle" x="522" y="-229.5" font-family="DejaVuSansMono" font-size="10.00">xmpp_stanza_append_child</text>
</a>
</g>
<!-- Node2&#45;&gt;Node7 -->
<g id="edge12" class="edge"><title>Node2&#45;&gt;Node7</title>
<path fill="none" stroke="midnightblue" d="M347.867,-219.633C368.462,-221.104 400.12,-223.366 430.76,-225.554"/>
<polygon fill="midnightblue" stroke="midnightblue" points="430.871,-229.071 441.095,-226.292 431.37,-222.089 430.871,-229.071"/>
</g>
<!-- Node4 -->
<g id="node7" class="node"><title>Node4</title>
<a xlink:href="../../d1/d59/xmpp__stanza_8c.html#aa80dd21d794b5c63fcb13c49745cc373" target="_top" xlink:title="Allocate and initialize a new XMPP stanza structure.">
<polygon fill="none" stroke="black" points="681.5,-184.5 681.5,-203.5 788.5,-203.5 788.5,-184.5 681.5,-184.5"/>
<text text-anchor="middle" x="735" y="-191.5" font-family="DejaVuSansMono" font-size="10.00">xmpp_stanza_new</text>
</a>
</g>
<!-- Node3&#45;&gt;Node4 -->
<g id="edge6" class="edge"><title>Node3&#45;&gt;Node4</title>
<path fill="none" stroke="midnightblue" d="M584.597,-194C611.778,-194 643.691,-194 671.028,-194"/>
<polygon fill="midnightblue" stroke="midnightblue" points="671.262,-197.5 681.262,-194 671.262,-190.5 671.262,-197.5"/>
</g>
<!-- Node5 -->
<g id="node9" class="node"><title>Node5</title>
<a xlink:href="../../d1/d59/xmpp__stanza_8c.html#a5a80203f56df7a360fa457c0111686f6" target="_top" xlink:title="Parse the namespace triple that Expat gives us.">
<polygon fill="none" stroke="black" points="864.5,-203.5 864.5,-222.5 929.5,-222.5 929.5,-203.5 864.5,-203.5"/>
<text text-anchor="middle" x="897" y="-210.5" font-family="DejaVuSansMono" font-size="10.00">parse_ns</text>
</a>
</g>
<!-- Node4&#45;&gt;Node5 -->
<g id="edge8" class="edge"><title>Node4&#45;&gt;Node5</title>
<path fill="none" stroke="midnightblue" d="M788.833,-200.274C810.072,-202.796 834.209,-205.662 854.192,-208.035"/>
<polygon fill="midnightblue" stroke="midnightblue" points="853.883,-211.523 864.226,-209.227 854.709,-204.572 853.883,-211.523"/>
</g>
<!-- Node6 -->
<g id="node11" class="node"><title>Node6</title>
<a xlink:href="../../d1/d59/xmpp__stanza_8c.html#aff4b8f6e10ce1c351d2a5bc39f0e819f" target="_top" xlink:title="Convenience function to build a key for the attribute hash table.">
<polygon fill="none" stroke="black" points="864.5,-165.5 864.5,-184.5 929.5,-184.5 929.5,-165.5 864.5,-165.5"/>
<text text-anchor="middle" x="897" y="-172.5" font-family="DejaVuSansMono" font-size="10.00">make_key</text>
</a>
</g>
<!-- Node4&#45;&gt;Node6 -->
<g id="edge10" class="edge"><title>Node4&#45;&gt;Node6</title>
<path fill="none" stroke="midnightblue" d="M788.833,-187.726C810.072,-185.204 834.209,-182.338 854.192,-179.965"/>
<polygon fill="midnightblue" stroke="midnightblue" points="854.709,-183.428 864.226,-178.773 853.883,-176.477 854.709,-183.428"/>
</g>
<!-- Node8 -->
<g id="node15" class="node"><title>Node8</title>
<a xlink:href="../../d1/d59/xmpp__stanza_8c.html#afc77f00b7f38c79566a7b16876230e30" target="_top" xlink:title="Removes a child stanza.">
<polygon fill="none" stroke="black" points="654.5,-222.5 654.5,-241.5 815.5,-241.5 815.5,-222.5 654.5,-222.5"/>
<text text-anchor="middle" x="735" y="-229.5" font-family="DejaVuSansMono" font-size="10.00">xmpp_stanza_remove_child</text>
</a>
</g>
<!-- Node7&#45;&gt;Node8 -->
<g id="edge14" class="edge"><title>Node7&#45;&gt;Node8</title>
<path fill="none" stroke="midnightblue" d="M602.77,-232C616.387,-232 630.613,-232 644.463,-232"/>
<polygon fill="midnightblue" stroke="midnightblue" points="644.467,-235.5 654.467,-232 644.467,-228.5 644.467,-235.5"/>
</g>
<!-- Node10 -->
<g id="node19" class="node"><title>Node10</title>
<a xlink:href="../../d1/d59/xmpp__stanza_8c.html#a513b6e2da3dce364271ba9315d7b3d95" target="_top" xlink:title="Returns the stanza (and its children) packed into a null&#45;terminated string.">
<polygon fill="none" stroke="black" points="261.5,-132.5 261.5,-151.5 386.5,-151.5 386.5,-132.5 261.5,-132.5"/>
<text text-anchor="middle" x="324" y="-139.5" font-family="DejaVuSansMono" font-size="10.00">xmpp_stanza_string</text>
</a>
</g>
<!-- Node9&#45;&gt;Node10 -->
<g id="edge18" class="edge"><title>Node9&#45;&gt;Node10</title>
<path fill="none" stroke="midnightblue" d="M182.705,-101.367C198.785,-107.371 223.857,-116.409 246,-123 254.157,-125.428 262.864,-127.791 271.38,-129.979"/>
<polygon fill="midnightblue" stroke="midnightblue" points="270.693,-133.416 281.245,-132.461 272.401,-126.627 270.693,-133.416"/>
</g>
<!-- Node15 -->
<g id="node29" class="node"><title>Node15</title>
<a xlink:href="../../d1/d59/xmpp__stanza_8c.html#af40757ae1d137034570b1bb33303d024" target="_top" xlink:title="Cleans up and frees an XMPP stanza.">
<polygon fill="none" stroke="black" points="270.5,-76.5 270.5,-95.5 377.5,-95.5 377.5,-76.5 270.5,-76.5"/>
<text text-anchor="middle" x="324" y="-83.5" font-family="DejaVuSansMono" font-size="10.00">xmpp_stanza_del</text>
</a>
</g>
<!-- Node9&#45;&gt;Node15 -->
<g id="edge28" class="edge"><title>Node9&#45;&gt;Node15</title>
<path fill="none" stroke="midnightblue" d="M182.505,-94.0539C200.946,-92.9967 231.919,-91.2212 260.098,-89.6059"/>
<polygon fill="midnightblue" stroke="midnightblue" points="260.541,-93.0863 270.325,-89.0196 260.141,-86.0977 260.541,-93.0863"/>
</g>
<!-- Node18 -->
<g id="node36" class="node"><title>Node18</title>
<a xlink:href="../../d1/d59/xmpp__stanza_8c.html#aacbe1cdb2a1d254b0b712653787b3c45" target="_top" xlink:title="Returns a pointer to the parent stanza.">
<polygon fill="none" stroke="black" points="261.5,-38.5 261.5,-57.5 386.5,-57.5 386.5,-38.5 261.5,-38.5"/>
<text text-anchor="middle" x="324" y="-45.5" font-family="DejaVuSansMono" font-size="10.00">xmpp_stanza_parent</text>
</a>
</g>
<!-- Node9&#45;&gt;Node18 -->
<g id="edge36" class="edge"><title>Node9&#45;&gt;Node18</title>
<path fill="none" stroke="midnightblue" d="M182.705,-88.6333C198.785,-82.6287 223.857,-73.5907 246,-67 254.157,-64.572 262.864,-62.2088 271.38,-60.0206"/>
<polygon fill="midnightblue" stroke="midnightblue" points="272.401,-63.373 281.245,-57.539 270.693,-56.5845 272.401,-63.373"/>
</g>
<!-- Node11 -->
<g id="node21" class="node"><title>Node11</title>
<a xlink:href="../../d1/d59/xmpp__stanza_8c.html#aae8c30c30fcbc2325d34897f8035ca46" target="_top" xlink:title="Function that gets called recursively to convert a stanza to a string.">
<polygon fill="none" stroke="black" points="477.5,-123.5 477.5,-142.5 566.5,-142.5 566.5,-123.5 477.5,-123.5"/>
<text text-anchor="middle" x="522" y="-130.5" font-family="DejaVuSansMono" font-size="10.00">stanza_tostr</text>
</a>
</g>
<!-- Node10&#45;&gt;Node11 -->
<g id="edge20" class="edge"><title>Node10&#45;&gt;Node11</title>
<path fill="none" stroke="midnightblue" d="M386.747,-139.165C412.586,-137.978 442.339,-136.612 467.259,-135.468"/>
<polygon fill="midnightblue" stroke="midnightblue" points="467.432,-138.964 477.261,-135.008 467.111,-131.971 467.432,-138.964"/>
</g>
<!-- Node12 -->
<g id="node23" class="node"><title>Node12</title>
<a xlink:href="../../d1/dc2/xmpp__parser_8c.html#acce8bfe5926da4e64c3b5038dc683618" target="_top" xlink:title="xmpp_parser_namespace_prefix">
<polygon fill="none" stroke="black" points="642.5,-70.5 642.5,-89.5 827.5,-89.5 827.5,-70.5 642.5,-70.5"/>
<text text-anchor="middle" x="735" y="-77.5" font-family="DejaVuSansMono" font-size="10.00">xmpp_parser_namespace_prefix</text>
</a>
</g>
<!-- Node11&#45;&gt;Node12 -->
<g id="edge22" class="edge"><title>Node11&#45;&gt;Node12</title>
<path fill="none" stroke="midnightblue" d="M558.193,-123.467C572.982,-119.404 590.352,-114.558 606,-110 622.063,-105.321 625.79,-103.141 642,-99 652.179,-96.3999 663.06,-93.9053 673.645,-91.6278"/>
<polygon fill="midnightblue" stroke="midnightblue" points="674.608,-95.0018 683.671,-89.5143 673.164,-88.1523 674.608,-95.0018"/>
</g>
<!-- Node13 -->
<g id="node25" class="node"><title>Node13</title>
<a xlink:href="../../d1/dc2/xmpp__parser_8c.html#afde3cf0e74a12bfe4ac90fa8dbae51a0" target="_top" xlink:title="xmpp_parser_namespace_uri">
<polygon fill="none" stroke="black" points="651.5,-146.5 651.5,-165.5 818.5,-165.5 818.5,-146.5 651.5,-146.5"/>
<text text-anchor="middle" x="735" y="-153.5" font-family="DejaVuSansMono" font-size="10.00">xmpp_parser_namespace_uri</text>
</a>
</g>
<!-- Node11&#45;&gt;Node13 -->
<g id="edge24" class="edge"><title>Node11&#45;&gt;Node13</title>
<path fill="none" stroke="midnightblue" d="M566.719,-137.766C588.245,-140.112 615.069,-143.036 640.889,-145.851"/>
<polygon fill="midnightblue" stroke="midnightblue" points="640.784,-149.36 651.104,-146.964 641.542,-142.401 640.784,-149.36"/>
</g>
<!-- Node14 -->
<g id="node27" class="node"><title>Node14</title>
<a xlink:href="../../d1/dc2/xmpp__parser_8c.html#af924e15caac53b347a48878fcb046bc4" target="_top" xlink:title="Return the next namespace in the namespace list.">
<polygon fill="none" stroke="black" points="648.5,-108.5 648.5,-127.5 821.5,-127.5 821.5,-108.5 648.5,-108.5"/>
<text text-anchor="middle" x="735" y="-115.5" font-family="DejaVuSansMono" font-size="10.00">xmpp_parser_namespace_next</text>
</a>
</g>
<!-- Node11&#45;&gt;Node14 -->
<g id="edge26" class="edge"><title>Node11&#45;&gt;Node14</title>
<path fill="none" stroke="midnightblue" d="M566.719,-129.892C587.407,-128.421 612.989,-126.603 637.87,-124.834"/>
<polygon fill="midnightblue" stroke="midnightblue" points="638.373,-128.307 648.1,-124.107 637.877,-121.325 638.373,-128.307"/>
</g>
<!-- Node15&#45;&gt;Node15 -->
<g id="edge34" class="edge"><title>Node15&#45;&gt;Node15</title>
<path fill="none" stroke="midnightblue" d="M299.648,-95.7571C287.801,-104.565 295.918,-114 324,-114 342.429,-114 352.26,-109.937 353.492,-104.654"/>
<polygon fill="midnightblue" stroke="midnightblue" points="356.386,-102.665 348.352,-95.7571 350.324,-106.167 356.386,-102.665"/>
</g>
<!-- Node16 -->
<g id="node31" class="node"><title>Node16</title>
<a xlink:href="../../d1/d59/xmpp__stanza_8c.html#a2fb472c6bf9b7f540a97ddc6c11adb74" target="_top" xlink:title="attribute_del">
<polygon fill="none" stroke="black" points="474.5,-43.5 474.5,-62.5 569.5,-62.5 569.5,-43.5 474.5,-43.5"/>
<text text-anchor="middle" x="522" y="-50.5" font-family="DejaVuSansMono" font-size="10.00">attribute_del</text>
</a>
</g>
<!-- Node15&#45;&gt;Node16 -->
<g id="edge30" class="edge"><title>Node15&#45;&gt;Node16</title>
<path fill="none" stroke="midnightblue" d="M377.524,-77.1566C404.27,-72.6535 436.823,-67.1727 464.156,-62.5707"/>
<polygon fill="midnightblue" stroke="midnightblue" points="465.073,-65.9657 474.353,-60.8539 463.91,-59.0629 465.073,-65.9657"/>
</g>
<!-- Node17 -->
<g id="node33" class="node"><title>Node17</title>
<a xlink:href="../../d1/dc2/xmpp__parser_8c.html#a87065f39f10a449e7af17fa45ca475f2" target="_top" xlink:title="xmpp_parser_namespace_del">
<polygon fill="none" stroke="black" points="438.5,-81.5 438.5,-100.5 605.5,-100.5 605.5,-81.5 438.5,-81.5"/>
<text text-anchor="middle" x="522" y="-88.5" font-family="DejaVuSansMono" font-size="10.00">xmpp_parser_namespace_del</text>
</a>
</g>
<!-- Node15&#45;&gt;Node17 -->
<g id="edge32" class="edge"><title>Node15&#45;&gt;Node17</title>
<path fill="none" stroke="midnightblue" d="M377.524,-87.3399C393.165,-87.7389 410.791,-88.1885 428.197,-88.6326"/>
<polygon fill="midnightblue" stroke="midnightblue" points="428.318,-92.1367 438.404,-88.893 428.497,-85.139 428.318,-92.1367"/>
</g>
<!-- Node20 -->
<g id="node40" class="node"><title>Node20</title>
<a xlink:href="../../d1/d59/xmpp__stanza_8c.html#a4adffe2c21d8f7aa52ce23cc48772b7f" target="_top" xlink:title="Copies data.">
<polygon fill="none" stroke="black" points="246.5,-0.5 246.5,-19.5 401.5,-19.5 401.5,-0.5 246.5,-0.5"/>
<text text-anchor="middle" x="324" y="-7.5" font-family="DejaVuSansMono" font-size="10.00">xmpp_stanza_append_data</text>
</a>
</g>
<!-- Node19&#45;&gt;Node20 -->
<g id="edge40" class="edge"><title>Node19&#45;&gt;Node20</title>
<path fill="none" stroke="midnightblue" d="M191.379,-47.4255C207.009,-41.7023 227.524,-34.4992 246,-29 254.157,-26.572 262.864,-24.2088 271.38,-22.0206"/>
<polygon fill="midnightblue" stroke="midnightblue" points="272.401,-25.373 281.245,-19.539 270.693,-18.5845 272.401,-25.373"/>
</g>
<!-- Node22&#45;&gt;Node2 -->
<g id="edge50" class="edge"><title>Node22&#45;&gt;Node2</title>
<path fill="none" stroke="midnightblue" d="M178.39,-151.608C193.597,-163.023 220.513,-182.024 246,-194 260.175,-200.661 276.663,-206.082 290.736,-210.077"/>
<polygon fill="midnightblue" stroke="midnightblue" points="289.921,-213.482 300.489,-212.73 291.759,-206.727 289.921,-213.482"/>
</g>
<!-- Node22&#45;&gt;Node3 -->
<g id="edge46" class="edge"><title>Node22&#45;&gt;Node3</title>
<path fill="none" stroke="midnightblue" d="M202.457,-151.582C216.053,-154.911 231.665,-158.446 246,-161 314.521,-173.207 393.469,-182.16 449.149,-187.636"/>
<polygon fill="midnightblue" stroke="midnightblue" points="448.975,-191.135 459.267,-188.618 449.652,-184.168 448.975,-191.135"/>
</g>
<!-- Node22&#45;&gt;Node10 -->
<g id="edge48" class="edge"><title>Node22&#45;&gt;Node10</title>
<path fill="none" stroke="midnightblue" d="M209.733,-142C222.583,-142 236.991,-142 251.111,-142"/>
<polygon fill="midnightblue" stroke="midnightblue" points="251.316,-145.5 261.316,-142 251.316,-138.5 251.316,-145.5"/>
</g>
<!-- Node22&#45;&gt;Node15 -->
<g id="edge52" class="edge"><title>Node22&#45;&gt;Node15</title>
<path fill="none" stroke="midnightblue" d="M192.989,-132.373C218.87,-123.142 258.125,-109.14 286.729,-98.9375"/>
<polygon fill="midnightblue" stroke="midnightblue" points="288.12,-102.157 296.363,-95.5011 285.768,-95.5642 288.12,-102.157"/>
</g>
</g>
</svg>
        <g id="navigator" transform="translate(0 0)" fill="#404254">
                <rect fill="#f2f5e9" fill-opacity="0.5" stroke="#606060" stroke-width=".5" x="0" y="0" width="60" height="60"/>
                <use id="zoomplus" xlink:href="#zoomPlus" x="17" y="9" onmousedown="handleZoom(evt,'in')"/>
                <use id="zoomminus" xlink:href="#zoomMin" x="42" y="9" onmousedown="handleZoom(evt,'out')"/>
                <use id="reset" xlink:href="#resetDef" x="30" y="36" onmousedown="handleReset()"/>
                <g id="arrowUp" xlink:href="#dirArrow" transform="translate(30 24)" onmousedown="handlePan(0,-1)">
                  <use xlink:href="#rim" fill="#404040">
                        <set attributeName="fill" to="#808080" begin="arrowUp.mouseover" end="arrowUp.mouseout"/>
                  </use>
                  <path fill="none" stroke="white" stroke-width="1.5" d="M0,-3.0v7 M-2.5,-0.5L0,-3.0L2.5,-0.5"/>
                </g>
                <g id="arrowRight" xlink:href="#dirArrow" transform="rotate(90) translate(36 -43)" onmousedown="handlePan(1,0)">
                  <use xlink:href="#rim" fill="#404040">
                        <set attributeName="fill" to="#808080" begin="arrowRight.mouseover" end="arrowRight.mouseout"/>
                  </use>
                  <path fill="none" stroke="white" stroke-width="1.5" d="M0,-3.0v7 M-2.5,-0.5L0,-3.0L2.5,-0.5"/>
                </g>
                <g id="arrowDown" xlink:href="#dirArrow" transform="rotate(180) translate(-30 -48)" onmousedown="handlePan(0,1)">
                  <use xlink:href="#rim" fill="#404040">
                        <set attributeName="fill" to="#808080" begin="arrowDown.mouseover" end="arrowDown.mouseout"/>
                  </use>
                  <path fill="none" stroke="white" stroke-width="1.5" d="M0,-3.0v7 M-2.5,-0.5L0,-3.0L2.5,-0.5"/>
                </g>
                <g id="arrowLeft" xlink:href="#dirArrow" transform="rotate(270) translate(-36 17)" onmousedown="handlePan(-1,0)">
                  <use xlink:href="#rim" fill="#404040">
                        <set attributeName="fill" to="#808080" begin="arrowLeft.mouseover" end="arrowLeft.mouseout"/>
                  </use>
                  <path fill="none" stroke="white" stroke-width="1.5" d="M0,-3.0v7 M-2.5,-0.5L0,-3.0L2.5,-0.5"/>
                </g>
        </g>
        <svg viewBox="0 0 25 25" width="100%" height="30px" preserveAspectRatio="xMaxYMin meet"> 
          <g id="printButton" transform="scale(0.4 0.4)" onmousedown="handlePrint(evt)">
            <rect height="23.33753581" id="paper" rx="2" style="fill:#f2f5e9;fill-rule:evenodd;stroke:#111111;stroke-width:3.224;stroke-linejoin:round;" transform="matrix(1.000000,0.000000,-0.339266,0.940691,0.000000,0.000000)" width="25.55231285" x="26.69387353" y="7.36162977"/>
            <rect height="26.272097" id="body" rx="2" style="fill:#404040;fill-rule:evenodd;stroke:#111111;stroke-width:3.125;stroke-linejoin:round;" width="50" x="4.5295201" y="27.078951"/>
            <rect height="8.27750969" id="tray" style="fill:#d2d5c9;fill-rule:evenodd;stroke:#111111;stroke-width:3.125;stroke-linecap:round;stroke-linejoin:round;" width="40" x="10.28778839" y="44.96812282"/>
          </g>
        </svg>
</svg>
