<?xml version="1.0" encoding="UTF-8" standalone="no"?>
<!DOCTYPE svg PUBLIC "-//W3C//DTD SVG 1.1//EN"
 "http://www.w3.org/Graphics/SVG/1.1/DTD/svg11.dtd">
<!-- Generated by graphviz version 2.28.0 (20120217.0315)
 -->
<!-- Title: G Pages: 1 -->
<!--zoomable 250 -->
<svg id="main" version="1.1" xmlns="http://www.w3.org/2000/svg" xmlns:xlink="http://www.w3.org/1999/xlink" xml:space="preserve" onload="init(evt)">
        <defs>
                <circle id="rim" cx="0" cy="0" r="7"/>
                <circle id="rim2" cx="0" cy="0" r="3.5"/>
                <g id="zoomPlus">
                        <use xlink:href="#rim" fill="#404040">
                                <set attributeName="fill" to="#808080" begin="zoomplus.mouseover" end="zoomplus.mouseout"/>
                        </use>
                        <path d="M-4,0h8M0,-4v8" fill="none" stroke="white" stroke-width="1.5" pointer-events="none"/>
                </g>
                <g id="zoomMin">
                        <use xlink:href="#rim" fill="#404040">
                                <set attributeName="fill" to="#808080" begin="zoomminus.mouseover" end="zoomminus.mouseout"/>
                        </use>
                        <path d="M-4,0h8" fill="none" stroke="white" stroke-width="1.5" pointer-events="none"/>
                </g>
                <g id="dirArrow">
                        <path fill="none" stroke="white" stroke-width="1.5" d="M0,-3.0v7 M-2.5,-0.5L0,-3.0L2.5,-0.5"/>
                </g>
               <g id="resetDef">
                       <use xlink:href="#rim2" fill="#404040">
                               <set attributeName="fill" to="#808080" begin="reset.mouseover" end="reset.mouseout"/>
                       </use>
               </g>
        </defs>

<script type="text/javascript">
var viewWidth = 1082;
var viewHeight = 250;
var sectionId = 'dynsection-19';
</script>
<script xlink:href="../../svgpan.js"/>
<svg id="graph" class="graph">
<g id="viewport">
<title>G</title>
<!-- Node1 -->
<g id="node1" class="node"><title>Node1</title>
<polygon fill="#bfbfbf" stroke="black" points="0.5,-85.5 0.5,-104.5 107.5,-104.5 107.5,-85.5 0.5,-85.5"/>
<text text-anchor="middle" x="54" y="-92.5" font-family="DejaVuSansMono" font-size="10.00">xmpp_parser_new</text>
</g>
<!-- Node2 -->
<g id="node3" class="node"><title>Node2</title>
<a xlink:href="../../d1/dc2/xmpp__parser_8c.html#a03a135f29e3d4e01abbb60e53ac6967c" target="_top" xlink:title="init_parser">
<polygon fill="none" stroke="black" points="144.5,-85.5 144.5,-104.5 227.5,-104.5 227.5,-85.5 144.5,-85.5"/>
<text text-anchor="middle" x="186" y="-92.5" font-family="DejaVuSansMono" font-size="10.00">init_parser</text>
</a>
</g>
<!-- Node1&#45;&gt;Node2 -->
<g id="edge2" class="edge"><title>Node1&#45;&gt;Node2</title>
<path fill="none" stroke="midnightblue" d="M107.501,-95C116.314,-95 125.446,-95 134.214,-95"/>
<polygon fill="midnightblue" stroke="midnightblue" points="134.3,-98.5001 144.3,-95 134.3,-91.5001 134.3,-98.5001"/>
</g>
<!-- Node3 -->
<g id="node5" class="node"><title>Node3</title>
<a xlink:href="../../d1/dc2/xmpp__parser_8c.html#a0f2993ab3e982d5e2b4a5635dcaf291c" target="_top" xlink:title="Expat callback for the start of any other element.">
<polygon fill="none" stroke="black" points="444.5,-208.5 444.5,-227.5 491.5,-227.5 491.5,-208.5 444.5,-208.5"/>
<text text-anchor="middle" x="468" y="-215.5" font-family="DejaVuSansMono" font-size="10.00">start</text>
</a>
</g>
<!-- Node2&#45;&gt;Node3 -->
<g id="edge4" class="edge"><title>Node2&#45;&gt;Node3</title>
<path fill="none" stroke="midnightblue" d="M195.499,-104.567C208.746,-118.904 235.744,-145.886 264,-161 319.824,-190.861 392.87,-206.39 434.391,-213.323"/>
<polygon fill="midnightblue" stroke="midnightblue" points="434.057,-216.814 444.485,-214.942 435.165,-209.903 434.057,-216.814"/>
</g>
<!-- Node10 -->
<g id="node19" class="node"><title>Node10</title>
<a xlink:href="../../d1/dc2/xmpp__parser_8c.html#adc3f7670edafd5b590af11d276887f1e" target="_top" xlink:title="Expat callback for end elements.">
<polygon fill="none" stroke="black" points="291.5,-85.5 291.5,-104.5 326.5,-104.5 326.5,-85.5 291.5,-85.5"/>
<text text-anchor="middle" x="309" y="-92.5" font-family="DejaVuSansMono" font-size="10.00">end</text>
</a>
</g>
<!-- Node2&#45;&gt;Node10 -->
<g id="edge18" class="edge"><title>Node2&#45;&gt;Node10</title>
<path fill="none" stroke="midnightblue" d="M227.628,-95C245.255,-95 265.415,-95 281.134,-95"/>
<polygon fill="midnightblue" stroke="midnightblue" points="281.221,-98.5001 291.221,-95 281.221,-91.5001 281.221,-98.5001"/>
</g>
<!-- Node20 -->
<g id="node40" class="node"><title>Node20</title>
<a xlink:href="../../d1/dc2/xmpp__parser_8c.html#a78918dc72ccbf110d41d34080ebbf014" target="_top" xlink:title="Expat callback for XML data.">
<polygon fill="none" stroke="black" points="276.5,-47.5 276.5,-66.5 341.5,-66.5 341.5,-47.5 276.5,-47.5"/>
<text text-anchor="middle" x="309" y="-54.5" font-family="DejaVuSansMono" font-size="10.00">chardata</text>
</a>
</g>
<!-- Node2&#45;&gt;Node20 -->
<g id="edge40" class="edge"><title>Node2&#45;&gt;Node20</title>
<path fill="none" stroke="midnightblue" d="M217.533,-85.411C232.723,-80.6406 251.285,-74.8112 267.633,-69.6771"/>
<polygon fill="midnightblue" stroke="midnightblue" points="268.984,-72.9214 277.476,-66.5859 266.887,-66.243 268.984,-72.9214"/>
</g>
<!-- Node22 -->
<g id="node44" class="node"><title>Node22</title>
<a xlink:href="../../d1/dc2/xmpp__parser_8c.html#a97bcfc9f28eea4b3aa3a7d8ac7af8aee" target="_top" xlink:title="Expat callback for namespace declarations.">
<polygon fill="none" stroke="black" points="276.5,-9.5 276.5,-28.5 341.5,-28.5 341.5,-9.5 276.5,-9.5"/>
<text text-anchor="middle" x="309" y="-16.5" font-family="DejaVuSansMono" font-size="10.00">ns_start</text>
</a>
</g>
<!-- Node2&#45;&gt;Node22 -->
<g id="edge44" class="edge"><title>Node2&#45;&gt;Node22</title>
<path fill="none" stroke="midnightblue" d="M198.17,-85.4379C212.666,-73.341 239.064,-52.3579 264,-38 267.049,-36.2445 270.291,-34.5506 273.579,-32.9458"/>
<polygon fill="midnightblue" stroke="midnightblue" points="275.224,-36.0416 282.846,-28.6821 272.298,-29.6824 275.224,-36.0416"/>
</g>
<!-- Node23 -->
<g id="node46" class="node"><title>Node23</title>
<a xlink:href="../../d1/dc2/xmpp__parser_8c.html#a2268b636f6d02bbe04f3033ff93d829c" target="_top" xlink:title="Expat callback for the start of an XMPP stream.">
<polygon fill="none" stroke="black" points="264.5,-132.5 264.5,-151.5 353.5,-151.5 353.5,-132.5 264.5,-132.5"/>
<text text-anchor="middle" x="309" y="-139.5" font-family="DejaVuSansMono" font-size="10.00">stream_start</text>
</a>
</g>
<!-- Node2&#45;&gt;Node23 -->
<g id="edge46" class="edge"><title>Node2&#45;&gt;Node23</title>
<path fill="none" stroke="midnightblue" d="M211.486,-104.511C229.327,-111.441 253.737,-120.923 273.544,-128.616"/>
<polygon fill="midnightblue" stroke="midnightblue" points="272.546,-131.983 283.135,-132.342 275.081,-125.458 272.546,-131.983"/>
</g>
<!-- Node4 -->
<g id="node7" class="node"><title>Node4</title>
<a xlink:href="../../d1/d59/xmpp__stanza_8c.html#aa2b621549a5e0499793adbec29964932" target="_top" xlink:title="Allocate stanza with namespace information.">
<polygon fill="none" stroke="black" points="603.5,-184.5 603.5,-203.5 728.5,-203.5 728.5,-184.5 603.5,-184.5"/>
<text text-anchor="middle" x="666" y="-191.5" font-family="DejaVuSansMono" font-size="10.00">xmpp_stanza_ns_new</text>
</a>
</g>
<!-- Node3&#45;&gt;Node4 -->
<g id="edge6" class="edge"><title>Node3&#45;&gt;Node4</title>
<path fill="none" stroke="midnightblue" d="M491.867,-215.2C516.697,-212.16 557.608,-207.15 593.428,-202.764"/>
<polygon fill="midnightblue" stroke="midnightblue" points="593.878,-206.235 603.378,-201.546 593.027,-199.287 593.878,-206.235"/>
</g>
<!-- Node8 -->
<g id="node15" class="node"><title>Node8</title>
<a xlink:href="../../d1/d59/xmpp__stanza_8c.html#ac13c8bb45e2ca03b99836e8d52b265b4" target="_top" xlink:title="Appends a child stanza.">
<polygon fill="none" stroke="black" points="585.5,-222.5 585.5,-241.5 746.5,-241.5 746.5,-222.5 585.5,-222.5"/>
<text text-anchor="middle" x="666" y="-229.5" font-family="DejaVuSansMono" font-size="10.00">xmpp_stanza_append_child</text>
</a>
</g>
<!-- Node3&#45;&gt;Node8 -->
<g id="edge14" class="edge"><title>Node3&#45;&gt;Node8</title>
<path fill="none" stroke="midnightblue" d="M491.867,-219.633C512.462,-221.104 544.12,-223.366 574.76,-225.554"/>
<polygon fill="midnightblue" stroke="midnightblue" points="574.871,-229.071 585.095,-226.292 575.37,-222.089 574.871,-229.071"/>
</g>
<!-- Node5 -->
<g id="node9" class="node"><title>Node5</title>
<a xlink:href="../../d1/d59/xmpp__stanza_8c.html#aa80dd21d794b5c63fcb13c49745cc373" target="_top" xlink:title="Allocate and initialize a new XMPP stanza structure.">
<polygon fill="none" stroke="black" points="825.5,-184.5 825.5,-203.5 932.5,-203.5 932.5,-184.5 825.5,-184.5"/>
<text text-anchor="middle" x="879" y="-191.5" font-family="DejaVuSansMono" font-size="10.00">xmpp_stanza_new</text>
</a>
</g>
<!-- Node4&#45;&gt;Node5 -->
<g id="edge8" class="edge"><title>Node4&#45;&gt;Node5</title>
<path fill="none" stroke="midnightblue" d="M728.597,-194C755.778,-194 787.691,-194 815.028,-194"/>
<polygon fill="midnightblue" stroke="midnightblue" points="815.262,-197.5 825.262,-194 815.262,-190.5 815.262,-197.5"/>
</g>
<!-- Node6 -->
<g id="node11" class="node"><title>Node6</title>
<a xlink:href="../../d1/d59/xmpp__stanza_8c.html#a5a80203f56df7a360fa457c0111686f6" target="_top" xlink:title="Parse the namespace triple that Expat gives us.">
<polygon fill="none" stroke="black" points="1008.5,-203.5 1008.5,-222.5 1073.5,-222.5 1073.5,-203.5 1008.5,-203.5"/>
<text text-anchor="middle" x="1041" y="-210.5" font-family="DejaVuSansMono" font-size="10.00">parse_ns</text>
</a>
</g>
<!-- Node5&#45;&gt;Node6 -->
<g id="edge10" class="edge"><title>Node5&#45;&gt;Node6</title>
<path fill="none" stroke="midnightblue" d="M932.833,-200.274C954.072,-202.796 978.209,-205.662 998.192,-208.035"/>
<polygon fill="midnightblue" stroke="midnightblue" points="997.883,-211.523 1008.23,-209.227 998.709,-204.572 997.883,-211.523"/>
</g>
<!-- Node7 -->
<g id="node13" class="node"><title>Node7</title>
<a xlink:href="../../d1/d59/xmpp__stanza_8c.html#aff4b8f6e10ce1c351d2a5bc39f0e819f" target="_top" xlink:title="Convenience function to build a key for the attribute hash table.">
<polygon fill="none" stroke="black" points="1008.5,-165.5 1008.5,-184.5 1073.5,-184.5 1073.5,-165.5 1008.5,-165.5"/>
<text text-anchor="middle" x="1041" y="-172.5" font-family="DejaVuSansMono" font-size="10.00">make_key</text>
</a>
</g>
<!-- Node5&#45;&gt;Node7 -->
<g id="edge12" class="edge"><title>Node5&#45;&gt;Node7</title>
<path fill="none" stroke="midnightblue" d="M932.833,-187.726C954.072,-185.204 978.209,-182.338 998.192,-179.965"/>
<polygon fill="midnightblue" stroke="midnightblue" points="998.709,-183.428 1008.23,-178.773 997.883,-176.477 998.709,-183.428"/>
</g>
<!-- Node9 -->
<g id="node17" class="node"><title>Node9</title>
<a xlink:href="../../d1/d59/xmpp__stanza_8c.html#afc77f00b7f38c79566a7b16876230e30" target="_top" xlink:title="Removes a child stanza.">
<polygon fill="none" stroke="black" points="798.5,-222.5 798.5,-241.5 959.5,-241.5 959.5,-222.5 798.5,-222.5"/>
<text text-anchor="middle" x="879" y="-229.5" font-family="DejaVuSansMono" font-size="10.00">xmpp_stanza_remove_child</text>
</a>
</g>
<!-- Node8&#45;&gt;Node9 -->
<g id="edge16" class="edge"><title>Node8&#45;&gt;Node9</title>
<path fill="none" stroke="midnightblue" d="M746.77,-232C760.387,-232 774.613,-232 788.463,-232"/>
<polygon fill="midnightblue" stroke="midnightblue" points="788.467,-235.5 798.467,-232 788.467,-228.5 788.467,-235.5"/>
</g>
<!-- Node11 -->
<g id="node21" class="node"><title>Node11</title>
<a xlink:href="../../d1/d59/xmpp__stanza_8c.html#a513b6e2da3dce364271ba9315d7b3d95" target="_top" xlink:title="Returns the stanza (and its children) packed into a null&#45;terminated string.">
<polygon fill="none" stroke="black" points="405.5,-132.5 405.5,-151.5 530.5,-151.5 530.5,-132.5 405.5,-132.5"/>
<text text-anchor="middle" x="468" y="-139.5" font-family="DejaVuSansMono" font-size="10.00">xmpp_stanza_string</text>
</a>
</g>
<!-- Node10&#45;&gt;Node11 -->
<g id="edge20" class="edge"><title>Node10&#45;&gt;Node11</title>
<path fill="none" stroke="midnightblue" d="M326.705,-101.367C342.785,-107.371 367.857,-116.409 390,-123 398.157,-125.428 406.864,-127.791 415.38,-129.979"/>
<polygon fill="midnightblue" stroke="midnightblue" points="414.693,-133.416 425.245,-132.461 416.401,-126.627 414.693,-133.416"/>
</g>
<!-- Node16 -->
<g id="node31" class="node"><title>Node16</title>
<a xlink:href="../../d1/d59/xmpp__stanza_8c.html#af40757ae1d137034570b1bb33303d024" target="_top" xlink:title="Cleans up and frees an XMPP stanza.">
<polygon fill="none" stroke="black" points="414.5,-76.5 414.5,-95.5 521.5,-95.5 521.5,-76.5 414.5,-76.5"/>
<text text-anchor="middle" x="468" y="-83.5" font-family="DejaVuSansMono" font-size="10.00">xmpp_stanza_del</text>
</a>
</g>
<!-- Node10&#45;&gt;Node16 -->
<g id="edge30" class="edge"><title>Node10&#45;&gt;Node16</title>
<path fill="none" stroke="midnightblue" d="M326.505,-94.0539C344.946,-92.9967 375.919,-91.2212 404.098,-89.6059"/>
<polygon fill="midnightblue" stroke="midnightblue" points="404.541,-93.0863 414.325,-89.0196 404.141,-86.0977 404.541,-93.0863"/>
</g>
<!-- Node19 -->
<g id="node38" class="node"><title>Node19</title>
<a xlink:href="../../d1/d59/xmpp__stanza_8c.html#aacbe1cdb2a1d254b0b712653787b3c45" target="_top" xlink:title="Returns a pointer to the parent stanza.">
<polygon fill="none" stroke="black" points="405.5,-38.5 405.5,-57.5 530.5,-57.5 530.5,-38.5 405.5,-38.5"/>
<text text-anchor="middle" x="468" y="-45.5" font-family="DejaVuSansMono" font-size="10.00">xmpp_stanza_parent</text>
</a>
</g>
<!-- Node10&#45;&gt;Node19 -->
<g id="edge38" class="edge"><title>Node10&#45;&gt;Node19</title>
<path fill="none" stroke="midnightblue" d="M326.705,-88.6333C342.785,-82.6287 367.857,-73.5907 390,-67 398.157,-64.572 406.864,-62.2088 415.38,-60.0206"/>
<polygon fill="midnightblue" stroke="midnightblue" points="416.401,-63.373 425.245,-57.539 414.693,-56.5845 416.401,-63.373"/>
</g>
<!-- Node12 -->
<g id="node23" class="node"><title>Node12</title>
<a xlink:href="../../d1/d59/xmpp__stanza_8c.html#aae8c30c30fcbc2325d34897f8035ca46" target="_top" xlink:title="Function that gets called recursively to convert a stanza to a string.">
<polygon fill="none" stroke="black" points="621.5,-123.5 621.5,-142.5 710.5,-142.5 710.5,-123.5 621.5,-123.5"/>
<text text-anchor="middle" x="666" y="-130.5" font-family="DejaVuSansMono" font-size="10.00">stanza_tostr</text>
</a>
</g>
<!-- Node11&#45;&gt;Node12 -->
<g id="edge22" class="edge"><title>Node11&#45;&gt;Node12</title>
<path fill="none" stroke="midnightblue" d="M530.747,-139.165C556.586,-137.978 586.339,-136.612 611.259,-135.468"/>
<polygon fill="midnightblue" stroke="midnightblue" points="611.432,-138.964 621.261,-135.008 611.111,-131.971 611.432,-138.964"/>
</g>
<!-- Node13 -->
<g id="node25" class="node"><title>Node13</title>
<a xlink:href="../../d1/dc2/xmpp__parser_8c.html#acce8bfe5926da4e64c3b5038dc683618" target="_top" xlink:title="xmpp_parser_namespace_prefix">
<polygon fill="none" stroke="black" points="786.5,-70.5 786.5,-89.5 971.5,-89.5 971.5,-70.5 786.5,-70.5"/>
<text text-anchor="middle" x="879" y="-77.5" font-family="DejaVuSansMono" font-size="10.00">xmpp_parser_namespace_prefix</text>
</a>
</g>
<!-- Node12&#45;&gt;Node13 -->
<g id="edge24" class="edge"><title>Node12&#45;&gt;Node13</title>
<path fill="none" stroke="midnightblue" d="M702.193,-123.467C716.982,-119.404 734.352,-114.558 750,-110 766.063,-105.321 769.79,-103.141 786,-99 796.179,-96.3999 807.06,-93.9053 817.645,-91.6278"/>
<polygon fill="midnightblue" stroke="midnightblue" points="818.608,-95.0018 827.671,-89.5143 817.164,-88.1523 818.608,-95.0018"/>
</g>
<!-- Node14 -->
<g id="node27" class="node"><title>Node14</title>
<a xlink:href="../../d1/dc2/xmpp__parser_8c.html#afde3cf0e74a12bfe4ac90fa8dbae51a0" target="_top" xlink:title="xmpp_parser_namespace_uri">
<polygon fill="none" stroke="black" points="795.5,-146.5 795.5,-165.5 962.5,-165.5 962.5,-146.5 795.5,-146.5"/>
<text text-anchor="middle" x="879" y="-153.5" font-family="DejaVuSansMono" font-size="10.00">xmpp_parser_namespace_uri</text>
</a>
</g>
<!-- Node12&#45;&gt;Node14 -->
<g id="edge26" class="edge"><title>Node12&#45;&gt;Node14</title>
<path fill="none" stroke="midnightblue" d="M710.719,-137.766C732.245,-140.112 759.069,-143.036 784.889,-145.851"/>
<polygon fill="midnightblue" stroke="midnightblue" points="784.784,-149.36 795.104,-146.964 785.542,-142.401 784.784,-149.36"/>
</g>
<!-- Node15 -->
<g id="node29" class="node"><title>Node15</title>
<a xlink:href="../../d1/dc2/xmpp__parser_8c.html#af924e15caac53b347a48878fcb046bc4" target="_top" xlink:title="Return the next namespace in the namespace list.">
<polygon fill="none" stroke="black" points="792.5,-108.5 792.5,-127.5 965.5,-127.5 965.5,-108.5 792.5,-108.5"/>
<text text-anchor="middle" x="879" y="-115.5" font-family="DejaVuSansMono" font-size="10.00">xmpp_parser_namespace_next</text>
</a>
</g>
<!-- Node12&#45;&gt;Node15 -->
<g id="edge28" class="edge"><title>Node12&#45;&gt;Node15</title>
<path fill="none" stroke="midnightblue" d="M710.719,-129.892C731.407,-128.421 756.989,-126.603 781.87,-124.834"/>
<polygon fill="midnightblue" stroke="midnightblue" points="782.373,-128.307 792.1,-124.107 781.877,-121.325 782.373,-128.307"/>
</g>
<!-- Node16&#45;&gt;Node16 -->
<g id="edge36" class="edge"><title>Node16&#45;&gt;Node16</title>
<path fill="none" stroke="midnightblue" d="M443.648,-95.7571C431.801,-104.565 439.918,-114 468,-114 486.429,-114 496.26,-109.937 497.492,-104.654"/>
<polygon fill="midnightblue" stroke="midnightblue" points="500.386,-102.665 492.352,-95.7571 494.324,-106.167 500.386,-102.665"/>
</g>
<!-- Node17 -->
<g id="node33" class="node"><title>Node17</title>
<a xlink:href="../../d1/d59/xmpp__stanza_8c.html#a2fb472c6bf9b7f540a97ddc6c11adb74" target="_top" xlink:title="attribute_del">
<polygon fill="none" stroke="black" points="618.5,-43.5 618.5,-62.5 713.5,-62.5 713.5,-43.5 618.5,-43.5"/>
<text text-anchor="middle" x="666" y="-50.5" font-family="DejaVuSansMono" font-size="10.00">attribute_del</text>
</a>
</g>
<!-- Node16&#45;&gt;Node17 -->
<g id="edge32" class="edge"><title>Node16&#45;&gt;Node17</title>
<path fill="none" stroke="midnightblue" d="M521.524,-77.1566C548.27,-72.6535 580.823,-67.1727 608.156,-62.5707"/>
<polygon fill="midnightblue" stroke="midnightblue" points="609.073,-65.9657 618.353,-60.8539 607.91,-59.0629 609.073,-65.9657"/>
</g>
<!-- Node18 -->
<g id="node35" class="node"><title>Node18</title>
<a xlink:href="../../d1/dc2/xmpp__parser_8c.html#a87065f39f10a449e7af17fa45ca475f2" target="_top" xlink:title="xmpp_parser_namespace_del">
<polygon fill="none" stroke="black" points="582.5,-81.5 582.5,-100.5 749.5,-100.5 749.5,-81.5 582.5,-81.5"/>
<text text-anchor="middle" x="666" y="-88.5" font-family="DejaVuSansMono" font-size="10.00">xmpp_parser_namespace_del</text>
</a>
</g>
<!-- Node16&#45;&gt;Node18 -->
<g id="edge34" class="edge"><title>Node16&#45;&gt;Node18</title>
<path fill="none" stroke="midnightblue" d="M521.524,-87.3399C537.165,-87.7389 554.791,-88.1885 572.197,-88.6326"/>
<polygon fill="midnightblue" stroke="midnightblue" points="572.318,-92.1367 582.404,-88.893 572.497,-85.139 572.318,-92.1367"/>
</g>
<!-- Node21 -->
<g id="node42" class="node"><title>Node21</title>
<a xlink:href="../../d1/d59/xmpp__stanza_8c.html#a4adffe2c21d8f7aa52ce23cc48772b7f" target="_top" xlink:title="Copies data.">
<polygon fill="none" stroke="black" points="390.5,-0.5 390.5,-19.5 545.5,-19.5 545.5,-0.5 390.5,-0.5"/>
<text text-anchor="middle" x="468" y="-7.5" font-family="DejaVuSansMono" font-size="10.00">xmpp_stanza_append_data</text>
</a>
</g>
<!-- Node20&#45;&gt;Node21 -->
<g id="edge42" class="edge"><title>Node20&#45;&gt;Node21</title>
<path fill="none" stroke="midnightblue" d="M335.379,-47.4255C351.009,-41.7023 371.524,-34.4992 390,-29 398.157,-26.572 406.864,-24.2088 415.38,-22.0206"/>
<polygon fill="midnightblue" stroke="midnightblue" points="416.401,-25.373 425.245,-19.539 414.693,-18.5845 416.401,-25.373"/>
</g>
<!-- Node23&#45;&gt;Node3 -->
<g id="edge52" class="edge"><title>Node23&#45;&gt;Node3</title>
<path fill="none" stroke="midnightblue" d="M322.39,-151.608C337.597,-163.023 364.513,-182.024 390,-194 404.175,-200.661 420.663,-206.082 434.736,-210.077"/>
<polygon fill="midnightblue" stroke="midnightblue" points="433.921,-213.482 444.489,-212.73 435.759,-206.727 433.921,-213.482"/>
</g>
<!-- Node23&#45;&gt;Node4 -->
<g id="edge48" class="edge"><title>Node23&#45;&gt;Node4</title>
<path fill="none" stroke="midnightblue" d="M346.457,-151.582C360.053,-154.911 375.665,-158.446 390,-161 458.521,-173.207 537.469,-182.16 593.149,-187.636"/>
<polygon fill="midnightblue" stroke="midnightblue" points="592.975,-191.135 603.267,-188.618 593.652,-184.168 592.975,-191.135"/>
</g>
<!-- Node23&#45;&gt;Node11 -->
<g id="edge50" class="edge"><title>Node23&#45;&gt;Node11</title>
<path fill="none" stroke="midnightblue" d="M353.733,-142C366.583,-142 380.991,-142 395.111,-142"/>
<polygon fill="midnightblue" stroke="midnightblue" points="395.316,-145.5 405.316,-142 395.316,-138.5 395.316,-145.5"/>
</g>
<!-- Node23&#45;&gt;Node16 -->
<g id="edge54" class="edge"><title>Node23&#45;&gt;Node16</title>
<path fill="none" stroke="midnightblue" d="M336.989,-132.373C362.87,-123.142 402.125,-109.14 430.729,-98.9375"/>
<polygon fill="midnightblue" stroke="midnightblue" points="432.12,-102.157 440.363,-95.5011 429.768,-95.5642 432.12,-102.157"/>
</g>
</g>
</svg>
        <g id="navigator" transform="translate(0 0)" fill="#404254">
                <rect fill="#f2f5e9" fill-opacity="0.5" stroke="#606060" stroke-width=".5" x="0" y="0" width="60" height="60"/>
                <use id="zoomplus" xlink:href="#zoomPlus" x="17" y="9" onmousedown="handleZoom(evt,'in')"/>
                <use id="zoomminus" xlink:href="#zoomMin" x="42" y="9" onmousedown="handleZoom(evt,'out')"/>
                <use id="reset" xlink:href="#resetDef" x="30" y="36" onmousedown="handleReset()"/>
                <g id="arrowUp" xlink:href="#dirArrow" transform="translate(30 24)" onmousedown="handlePan(0,-1)">
                  <use xlink:href="#rim" fill="#404040">
                        <set attributeName="fill" to="#808080" begin="arrowUp.mouseover" end="arrowUp.mouseout"/>
                  </use>
                  <path fill="none" stroke="white" stroke-width="1.5" d="M0,-3.0v7 M-2.5,-0.5L0,-3.0L2.5,-0.5"/>
                </g>
                <g id="arrowRight" xlink:href="#dirArrow" transform="rotate(90) translate(36 -43)" onmousedown="handlePan(1,0)">
                  <use xlink:href="#rim" fill="#404040">
                        <set attributeName="fill" to="#808080" begin="arrowRight.mouseover" end="arrowRight.mouseout"/>
                  </use>
                  <path fill="none" stroke="white" stroke-width="1.5" d="M0,-3.0v7 M-2.5,-0.5L0,-3.0L2.5,-0.5"/>
                </g>
                <g id="arrowDown" xlink:href="#dirArrow" transform="rotate(180) translate(-30 -48)" onmousedown="handlePan(0,1)">
                  <use xlink:href="#rim" fill="#404040">
                        <set attributeName="fill" to="#808080" begin="arrowDown.mouseover" end="arrowDown.mouseout"/>
                  </use>
                  <path fill="none" stroke="white" stroke-width="1.5" d="M0,-3.0v7 M-2.5,-0.5L0,-3.0L2.5,-0.5"/>
                </g>
                <g id="arrowLeft" xlink:href="#dirArrow" transform="rotate(270) translate(-36 17)" onmousedown="handlePan(-1,0)">
                  <use xlink:href="#rim" fill="#404040">
                        <set attributeName="fill" to="#808080" begin="arrowLeft.mouseover" end="arrowLeft.mouseout"/>
                  </use>
                  <path fill="none" stroke="white" stroke-width="1.5" d="M0,-3.0v7 M-2.5,-0.5L0,-3.0L2.5,-0.5"/>
                </g>
        </g>
        <svg viewBox="0 0 25 25" width="100%" height="30px" preserveAspectRatio="xMaxYMin meet"> 
          <g id="printButton" transform="scale(0.4 0.4)" onmousedown="handlePrint(evt)">
            <rect height="23.33753581" id="paper" rx="2" style="fill:#f2f5e9;fill-rule:evenodd;stroke:#111111;stroke-width:3.224;stroke-linejoin:round;" transform="matrix(1.000000,0.000000,-0.339266,0.940691,0.000000,0.000000)" width="25.55231285" x="26.69387353" y="7.36162977"/>
            <rect height="26.272097" id="body" rx="2" style="fill:#404040;fill-rule:evenodd;stroke:#111111;stroke-width:3.125;stroke-linejoin:round;" width="50" x="4.5295201" y="27.078951"/>
            <rect height="8.27750969" id="tray" style="fill:#d2d5c9;fill-rule:evenodd;stroke:#111111;stroke-width:3.125;stroke-linecap:round;stroke-linejoin:round;" width="40" x="10.28778839" y="44.96812282"/>
          </g>
        </svg>
</svg>
