<?xml version="1.0" encoding="UTF-8" standalone="no"?>
<!DOCTYPE svg PUBLIC "-//W3C//DTD SVG 1.1//EN"
 "http://www.w3.org/Graphics/SVG/1.1/DTD/svg11.dtd">
<!-- Generated by graphviz version 2.28.0 (20120217.0315)
 -->
<!-- Title: G Pages: 1 -->
<!--zoomable 250 -->
<svg id="main" version="1.1" xmlns="http://www.w3.org/2000/svg" xmlns:xlink="http://www.w3.org/1999/xlink" xml:space="preserve" onload="init(evt)">
        <defs>
                <circle id="rim" cx="0" cy="0" r="7"/>
                <circle id="rim2" cx="0" cy="0" r="3.5"/>
                <g id="zoomPlus">
                        <use xlink:href="#rim" fill="#404040">
                                <set attributeName="fill" to="#808080" begin="zoomplus.mouseover" end="zoomplus.mouseout"/>
                        </use>
                        <path d="M-4,0h8M0,-4v8" fill="none" stroke="white" stroke-width="1.5" pointer-events="none"/>
                </g>
                <g id="zoomMin">
                        <use xlink:href="#rim" fill="#404040">
                                <set attributeName="fill" to="#808080" begin="zoomminus.mouseover" end="zoomminus.mouseout"/>
                        </use>
                        <path d="M-4,0h8" fill="none" stroke="white" stroke-width="1.5" pointer-events="none"/>
                </g>
                <g id="dirArrow">
                        <path fill="none" stroke="white" stroke-width="1.5" d="M0,-3.0v7 M-2.5,-0.5L0,-3.0L2.5,-0.5"/>
                </g>
               <g id="resetDef">
                       <use xlink:href="#rim2" fill="#404040">
                               <set attributeName="fill" to="#808080" begin="reset.mouseover" end="reset.mouseout"/>
                       </use>
               </g>
        </defs>

<script type="text/javascript">
var viewWidth = 1250;
var viewHeight = 250;
var sectionId = 'dynsection-22';
</script>
<script xlink:href="../../svgpan.js"/>
<svg id="graph" class="graph">
<g id="viewport">
<title>G</title>
<!-- Node1 -->
<g id="node1" class="node"><title>Node1</title>
<polygon fill="#bfbfbf" stroke="black" points="0.5,-85.5 0.5,-104.5 119.5,-104.5 119.5,-85.5 0.5,-85.5"/>
<text text-anchor="middle" x="60" y="-92.5" font-family="DejaVuSansMono" font-size="10.00">xmpp_parser_parse</text>
</g>
<!-- Node2 -->
<g id="node3" class="node"><title>Node2</title>
<a xlink:href="../../d1/dc2/xmpp__parser_8c.html#af5e1eb5bbef0496c3543bd35113766ac" target="_top" xlink:title="Reset the state of the parser as if it was just created.">
<polygon fill="none" stroke="black" points="156.5,-85.5 156.5,-104.5 275.5,-104.5 275.5,-85.5 156.5,-85.5"/>
<text text-anchor="middle" x="216" y="-92.5" font-family="DejaVuSansMono" font-size="10.00">xmpp_parser_reset</text>
</a>
</g>
<!-- Node1&#45;&gt;Node2 -->
<g id="edge2" class="edge"><title>Node1&#45;&gt;Node2</title>
<path fill="none" stroke="midnightblue" d="M119.66,-95C128.274,-95 137.214,-95 146.012,-95"/>
<polygon fill="midnightblue" stroke="midnightblue" points="146.248,-98.5001 156.248,-95 146.248,-91.5001 146.248,-98.5001"/>
</g>
<!-- Node3 -->
<g id="node5" class="node"><title>Node3</title>
<a xlink:href="../../d1/dc2/xmpp__parser_8c.html#a03a135f29e3d4e01abbb60e53ac6967c" target="_top" xlink:title="init_parser">
<polygon fill="none" stroke="black" points="312.5,-85.5 312.5,-104.5 395.5,-104.5 395.5,-85.5 312.5,-85.5"/>
<text text-anchor="middle" x="354" y="-92.5" font-family="DejaVuSansMono" font-size="10.00">init_parser</text>
</a>
</g>
<!-- Node2&#45;&gt;Node3 -->
<g id="edge4" class="edge"><title>Node2&#45;&gt;Node3</title>
<path fill="none" stroke="midnightblue" d="M275.861,-95C284.639,-95 293.624,-95 302.217,-95"/>
<polygon fill="midnightblue" stroke="midnightblue" points="302.463,-98.5001 312.463,-95 302.463,-91.5001 302.463,-98.5001"/>
</g>
<!-- Node4 -->
<g id="node7" class="node"><title>Node4</title>
<a xlink:href="../../d1/dc2/xmpp__parser_8c.html#a0f2993ab3e982d5e2b4a5635dcaf291c" target="_top" xlink:title="Expat callback for the start of any other element.">
<polygon fill="none" stroke="black" points="612.5,-208.5 612.5,-227.5 659.5,-227.5 659.5,-208.5 612.5,-208.5"/>
<text text-anchor="middle" x="636" y="-215.5" font-family="DejaVuSansMono" font-size="10.00">start</text>
</a>
</g>
<!-- Node3&#45;&gt;Node4 -->
<g id="edge6" class="edge"><title>Node3&#45;&gt;Node4</title>
<path fill="none" stroke="midnightblue" d="M363.499,-104.567C376.746,-118.904 403.744,-145.886 432,-161 487.824,-190.861 560.87,-206.39 602.391,-213.323"/>
<polygon fill="midnightblue" stroke="midnightblue" points="602.057,-216.814 612.485,-214.942 603.165,-209.903 602.057,-216.814"/>
</g>
<!-- Node11 -->
<g id="node21" class="node"><title>Node11</title>
<a xlink:href="../../d1/dc2/xmpp__parser_8c.html#adc3f7670edafd5b590af11d276887f1e" target="_top" xlink:title="Expat callback for end elements.">
<polygon fill="none" stroke="black" points="459.5,-85.5 459.5,-104.5 494.5,-104.5 494.5,-85.5 459.5,-85.5"/>
<text text-anchor="middle" x="477" y="-92.5" font-family="DejaVuSansMono" font-size="10.00">end</text>
</a>
</g>
<!-- Node3&#45;&gt;Node11 -->
<g id="edge20" class="edge"><title>Node3&#45;&gt;Node11</title>
<path fill="none" stroke="midnightblue" d="M395.628,-95C413.255,-95 433.415,-95 449.134,-95"/>
<polygon fill="midnightblue" stroke="midnightblue" points="449.221,-98.5001 459.221,-95 449.221,-91.5001 449.221,-98.5001"/>
</g>
<!-- Node21 -->
<g id="node42" class="node"><title>Node21</title>
<a xlink:href="../../d1/dc2/xmpp__parser_8c.html#a78918dc72ccbf110d41d34080ebbf014" target="_top" xlink:title="Expat callback for XML data.">
<polygon fill="none" stroke="black" points="444.5,-47.5 444.5,-66.5 509.5,-66.5 509.5,-47.5 444.5,-47.5"/>
<text text-anchor="middle" x="477" y="-54.5" font-family="DejaVuSansMono" font-size="10.00">chardata</text>
</a>
</g>
<!-- Node3&#45;&gt;Node21 -->
<g id="edge42" class="edge"><title>Node3&#45;&gt;Node21</title>
<path fill="none" stroke="midnightblue" d="M385.533,-85.411C400.723,-80.6406 419.285,-74.8112 435.633,-69.6771"/>
<polygon fill="midnightblue" stroke="midnightblue" points="436.984,-72.9214 445.476,-66.5859 434.887,-66.243 436.984,-72.9214"/>
</g>
<!-- Node23 -->
<g id="node46" class="node"><title>Node23</title>
<a xlink:href="../../d1/dc2/xmpp__parser_8c.html#a97bcfc9f28eea4b3aa3a7d8ac7af8aee" target="_top" xlink:title="Expat callback for namespace declarations.">
<polygon fill="none" stroke="black" points="444.5,-9.5 444.5,-28.5 509.5,-28.5 509.5,-9.5 444.5,-9.5"/>
<text text-anchor="middle" x="477" y="-16.5" font-family="DejaVuSansMono" font-size="10.00">ns_start</text>
</a>
</g>
<!-- Node3&#45;&gt;Node23 -->
<g id="edge46" class="edge"><title>Node3&#45;&gt;Node23</title>
<path fill="none" stroke="midnightblue" d="M366.17,-85.4379C380.666,-73.341 407.064,-52.3579 432,-38 435.049,-36.2445 438.291,-34.5506 441.579,-32.9458"/>
<polygon fill="midnightblue" stroke="midnightblue" points="443.224,-36.0416 450.846,-28.6821 440.298,-29.6824 443.224,-36.0416"/>
</g>
<!-- Node24 -->
<g id="node48" class="node"><title>Node24</title>
<a xlink:href="../../d1/dc2/xmpp__parser_8c.html#a2268b636f6d02bbe04f3033ff93d829c" target="_top" xlink:title="Expat callback for the start of an XMPP stream.">
<polygon fill="none" stroke="black" points="432.5,-132.5 432.5,-151.5 521.5,-151.5 521.5,-132.5 432.5,-132.5"/>
<text text-anchor="middle" x="477" y="-139.5" font-family="DejaVuSansMono" font-size="10.00">stream_start</text>
</a>
</g>
<!-- Node3&#45;&gt;Node24 -->
<g id="edge48" class="edge"><title>Node3&#45;&gt;Node24</title>
<path fill="none" stroke="midnightblue" d="M379.486,-104.511C397.327,-111.441 421.737,-120.923 441.544,-128.616"/>
<polygon fill="midnightblue" stroke="midnightblue" points="440.546,-131.983 451.135,-132.342 443.081,-125.458 440.546,-131.983"/>
</g>
<!-- Node5 -->
<g id="node9" class="node"><title>Node5</title>
<a xlink:href="../../d1/d59/xmpp__stanza_8c.html#aa2b621549a5e0499793adbec29964932" target="_top" xlink:title="Allocate stanza with namespace information.">
<polygon fill="none" stroke="black" points="771.5,-184.5 771.5,-203.5 896.5,-203.5 896.5,-184.5 771.5,-184.5"/>
<text text-anchor="middle" x="834" y="-191.5" font-family="DejaVuSansMono" font-size="10.00">xmpp_stanza_ns_new</text>
</a>
</g>
<!-- Node4&#45;&gt;Node5 -->
<g id="edge8" class="edge"><title>Node4&#45;&gt;Node5</title>
<path fill="none" stroke="midnightblue" d="M659.867,-215.2C684.697,-212.16 725.608,-207.15 761.428,-202.764"/>
<polygon fill="midnightblue" stroke="midnightblue" points="761.878,-206.235 771.378,-201.546 761.027,-199.287 761.878,-206.235"/>
</g>
<!-- Node9 -->
<g id="node17" class="node"><title>Node9</title>
<a xlink:href="../../d1/d59/xmpp__stanza_8c.html#ac13c8bb45e2ca03b99836e8d52b265b4" target="_top" xlink:title="Appends a child stanza.">
<polygon fill="none" stroke="black" points="753.5,-222.5 753.5,-241.5 914.5,-241.5 914.5,-222.5 753.5,-222.5"/>
<text text-anchor="middle" x="834" y="-229.5" font-family="DejaVuSansMono" font-size="10.00">xmpp_stanza_append_child</text>
</a>
</g>
<!-- Node4&#45;&gt;Node9 -->
<g id="edge16" class="edge"><title>Node4&#45;&gt;Node9</title>
<path fill="none" stroke="midnightblue" d="M659.867,-219.633C680.462,-221.104 712.12,-223.366 742.76,-225.554"/>
<polygon fill="midnightblue" stroke="midnightblue" points="742.871,-229.071 753.095,-226.292 743.37,-222.089 742.871,-229.071"/>
</g>
<!-- Node6 -->
<g id="node11" class="node"><title>Node6</title>
<a xlink:href="../../d1/d59/xmpp__stanza_8c.html#aa80dd21d794b5c63fcb13c49745cc373" target="_top" xlink:title="Allocate and initialize a new XMPP stanza structure.">
<polygon fill="none" stroke="black" points="993.5,-184.5 993.5,-203.5 1100.5,-203.5 1100.5,-184.5 993.5,-184.5"/>
<text text-anchor="middle" x="1047" y="-191.5" font-family="DejaVuSansMono" font-size="10.00">xmpp_stanza_new</text>
</a>
</g>
<!-- Node5&#45;&gt;Node6 -->
<g id="edge10" class="edge"><title>Node5&#45;&gt;Node6</title>
<path fill="none" stroke="midnightblue" d="M896.597,-194C923.778,-194 955.691,-194 983.028,-194"/>
<polygon fill="midnightblue" stroke="midnightblue" points="983.262,-197.5 993.262,-194 983.262,-190.5 983.262,-197.5"/>
</g>
<!-- Node7 -->
<g id="node13" class="node"><title>Node7</title>
<a xlink:href="../../d1/d59/xmpp__stanza_8c.html#a5a80203f56df7a360fa457c0111686f6" target="_top" xlink:title="Parse the namespace triple that Expat gives us.">
<polygon fill="none" stroke="black" points="1176.5,-203.5 1176.5,-222.5 1241.5,-222.5 1241.5,-203.5 1176.5,-203.5"/>
<text text-anchor="middle" x="1209" y="-210.5" font-family="DejaVuSansMono" font-size="10.00">parse_ns</text>
</a>
</g>
<!-- Node6&#45;&gt;Node7 -->
<g id="edge12" class="edge"><title>Node6&#45;&gt;Node7</title>
<path fill="none" stroke="midnightblue" d="M1100.83,-200.274C1122.07,-202.796 1146.21,-205.662 1166.19,-208.035"/>
<polygon fill="midnightblue" stroke="midnightblue" points="1165.88,-211.523 1176.23,-209.227 1166.71,-204.572 1165.88,-211.523"/>
</g>
<!-- Node8 -->
<g id="node15" class="node"><title>Node8</title>
<a xlink:href="../../d1/d59/xmpp__stanza_8c.html#aff4b8f6e10ce1c351d2a5bc39f0e819f" target="_top" xlink:title="Convenience function to build a key for the attribute hash table.">
<polygon fill="none" stroke="black" points="1176.5,-165.5 1176.5,-184.5 1241.5,-184.5 1241.5,-165.5 1176.5,-165.5"/>
<text text-anchor="middle" x="1209" y="-172.5" font-family="DejaVuSansMono" font-size="10.00">make_key</text>
</a>
</g>
<!-- Node6&#45;&gt;Node8 -->
<g id="edge14" class="edge"><title>Node6&#45;&gt;Node8</title>
<path fill="none" stroke="midnightblue" d="M1100.83,-187.726C1122.07,-185.204 1146.21,-182.338 1166.19,-179.965"/>
<polygon fill="midnightblue" stroke="midnightblue" points="1166.71,-183.428 1176.23,-178.773 1165.88,-176.477 1166.71,-183.428"/>
</g>
<!-- Node10 -->
<g id="node19" class="node"><title>Node10</title>
<a xlink:href="../../d1/d59/xmpp__stanza_8c.html#afc77f00b7f38c79566a7b16876230e30" target="_top" xlink:title="Removes a child stanza.">
<polygon fill="none" stroke="black" points="966.5,-222.5 966.5,-241.5 1127.5,-241.5 1127.5,-222.5 966.5,-222.5"/>
<text text-anchor="middle" x="1047" y="-229.5" font-family="DejaVuSansMono" font-size="10.00">xmpp_stanza_remove_child</text>
</a>
</g>
<!-- Node9&#45;&gt;Node10 -->
<g id="edge18" class="edge"><title>Node9&#45;&gt;Node10</title>
<path fill="none" stroke="midnightblue" d="M914.77,-232C928.387,-232 942.613,-232 956.463,-232"/>
<polygon fill="midnightblue" stroke="midnightblue" points="956.467,-235.5 966.467,-232 956.467,-228.5 956.467,-235.5"/>
</g>
<!-- Node12 -->
<g id="node23" class="node"><title>Node12</title>
<a xlink:href="../../d1/d59/xmpp__stanza_8c.html#a513b6e2da3dce364271ba9315d7b3d95" target="_top" xlink:title="Returns the stanza (and its children) packed into a null&#45;terminated string.">
<polygon fill="none" stroke="black" points="573.5,-132.5 573.5,-151.5 698.5,-151.5 698.5,-132.5 573.5,-132.5"/>
<text text-anchor="middle" x="636" y="-139.5" font-family="DejaVuSansMono" font-size="10.00">xmpp_stanza_string</text>
</a>
</g>
<!-- Node11&#45;&gt;Node12 -->
<g id="edge22" class="edge"><title>Node11&#45;&gt;Node12</title>
<path fill="none" stroke="midnightblue" d="M494.705,-101.367C510.785,-107.371 535.857,-116.409 558,-123 566.157,-125.428 574.864,-127.791 583.38,-129.979"/>
<polygon fill="midnightblue" stroke="midnightblue" points="582.693,-133.416 593.245,-132.461 584.401,-126.627 582.693,-133.416"/>
</g>
<!-- Node17 -->
<g id="node33" class="node"><title>Node17</title>
<a xlink:href="../../d1/d59/xmpp__stanza_8c.html#af40757ae1d137034570b1bb33303d024" target="_top" xlink:title="Cleans up and frees an XMPP stanza.">
<polygon fill="none" stroke="black" points="582.5,-76.5 582.5,-95.5 689.5,-95.5 689.5,-76.5 582.5,-76.5"/>
<text text-anchor="middle" x="636" y="-83.5" font-family="DejaVuSansMono" font-size="10.00">xmpp_stanza_del</text>
</a>
</g>
<!-- Node11&#45;&gt;Node17 -->
<g id="edge32" class="edge"><title>Node11&#45;&gt;Node17</title>
<path fill="none" stroke="midnightblue" d="M494.505,-94.0539C512.946,-92.9967 543.919,-91.2212 572.098,-89.6059"/>
<polygon fill="midnightblue" stroke="midnightblue" points="572.541,-93.0863 582.325,-89.0196 572.141,-86.0977 572.541,-93.0863"/>
</g>
<!-- Node20 -->
<g id="node40" class="node"><title>Node20</title>
<a xlink:href="../../d1/d59/xmpp__stanza_8c.html#aacbe1cdb2a1d254b0b712653787b3c45" target="_top" xlink:title="Returns a pointer to the parent stanza.">
<polygon fill="none" stroke="black" points="573.5,-38.5 573.5,-57.5 698.5,-57.5 698.5,-38.5 573.5,-38.5"/>
<text text-anchor="middle" x="636" y="-45.5" font-family="DejaVuSansMono" font-size="10.00">xmpp_stanza_parent</text>
</a>
</g>
<!-- Node11&#45;&gt;Node20 -->
<g id="edge40" class="edge"><title>Node11&#45;&gt;Node20</title>
<path fill="none" stroke="midnightblue" d="M494.705,-88.6333C510.785,-82.6287 535.857,-73.5907 558,-67 566.157,-64.572 574.864,-62.2088 583.38,-60.0206"/>
<polygon fill="midnightblue" stroke="midnightblue" points="584.401,-63.373 593.245,-57.539 582.693,-56.5845 584.401,-63.373"/>
</g>
<!-- Node13 -->
<g id="node25" class="node"><title>Node13</title>
<a xlink:href="../../d1/d59/xmpp__stanza_8c.html#aae8c30c30fcbc2325d34897f8035ca46" target="_top" xlink:title="Function that gets called recursively to convert a stanza to a string.">
<polygon fill="none" stroke="black" points="789.5,-123.5 789.5,-142.5 878.5,-142.5 878.5,-123.5 789.5,-123.5"/>
<text text-anchor="middle" x="834" y="-130.5" font-family="DejaVuSansMono" font-size="10.00">stanza_tostr</text>
</a>
</g>
<!-- Node12&#45;&gt;Node13 -->
<g id="edge24" class="edge"><title>Node12&#45;&gt;Node13</title>
<path fill="none" stroke="midnightblue" d="M698.747,-139.165C724.586,-137.978 754.339,-136.612 779.259,-135.468"/>
<polygon fill="midnightblue" stroke="midnightblue" points="779.432,-138.964 789.261,-135.008 779.111,-131.971 779.432,-138.964"/>
</g>
<!-- Node14 -->
<g id="node27" class="node"><title>Node14</title>
<a xlink:href="../../d1/dc2/xmpp__parser_8c.html#acce8bfe5926da4e64c3b5038dc683618" target="_top" xlink:title="xmpp_parser_namespace_prefix">
<polygon fill="none" stroke="black" points="954.5,-70.5 954.5,-89.5 1139.5,-89.5 1139.5,-70.5 954.5,-70.5"/>
<text text-anchor="middle" x="1047" y="-77.5" font-family="DejaVuSansMono" font-size="10.00">xmpp_parser_namespace_prefix</text>
</a>
</g>
<!-- Node13&#45;&gt;Node14 -->
<g id="edge26" class="edge"><title>Node13&#45;&gt;Node14</title>
<path fill="none" stroke="midnightblue" d="M870.193,-123.467C884.982,-119.404 902.352,-114.558 918,-110 934.063,-105.321 937.79,-103.141 954,-99 964.179,-96.3999 975.06,-93.9053 985.645,-91.6278"/>
<polygon fill="midnightblue" stroke="midnightblue" points="986.608,-95.0018 995.671,-89.5143 985.164,-88.1523 986.608,-95.0018"/>
</g>
<!-- Node15 -->
<g id="node29" class="node"><title>Node15</title>
<a xlink:href="../../d1/dc2/xmpp__parser_8c.html#afde3cf0e74a12bfe4ac90fa8dbae51a0" target="_top" xlink:title="xmpp_parser_namespace_uri">
<polygon fill="none" stroke="black" points="963.5,-146.5 963.5,-165.5 1130.5,-165.5 1130.5,-146.5 963.5,-146.5"/>
<text text-anchor="middle" x="1047" y="-153.5" font-family="DejaVuSansMono" font-size="10.00">xmpp_parser_namespace_uri</text>
</a>
</g>
<!-- Node13&#45;&gt;Node15 -->
<g id="edge28" class="edge"><title>Node13&#45;&gt;Node15</title>
<path fill="none" stroke="midnightblue" d="M878.719,-137.766C900.245,-140.112 927.069,-143.036 952.889,-145.851"/>
<polygon fill="midnightblue" stroke="midnightblue" points="952.784,-149.36 963.104,-146.964 953.542,-142.401 952.784,-149.36"/>
</g>
<!-- Node16 -->
<g id="node31" class="node"><title>Node16</title>
<a xlink:href="../../d1/dc2/xmpp__parser_8c.html#af924e15caac53b347a48878fcb046bc4" target="_top" xlink:title="Return the next namespace in the namespace list.">
<polygon fill="none" stroke="black" points="960.5,-108.5 960.5,-127.5 1133.5,-127.5 1133.5,-108.5 960.5,-108.5"/>
<text text-anchor="middle" x="1047" y="-115.5" font-family="DejaVuSansMono" font-size="10.00">xmpp_parser_namespace_next</text>
</a>
</g>
<!-- Node13&#45;&gt;Node16 -->
<g id="edge30" class="edge"><title>Node13&#45;&gt;Node16</title>
<path fill="none" stroke="midnightblue" d="M878.719,-129.892C899.407,-128.421 924.989,-126.603 949.87,-124.834"/>
<polygon fill="midnightblue" stroke="midnightblue" points="950.373,-128.307 960.1,-124.107 949.877,-121.325 950.373,-128.307"/>
</g>
<!-- Node17&#45;&gt;Node17 -->
<g id="edge38" class="edge"><title>Node17&#45;&gt;Node17</title>
<path fill="none" stroke="midnightblue" d="M611.648,-95.7571C599.801,-104.565 607.918,-114 636,-114 654.429,-114 664.26,-109.937 665.492,-104.654"/>
<polygon fill="midnightblue" stroke="midnightblue" points="668.386,-102.665 660.352,-95.7571 662.324,-106.167 668.386,-102.665"/>
</g>
<!-- Node18 -->
<g id="node35" class="node"><title>Node18</title>
<a xlink:href="../../d1/d59/xmpp__stanza_8c.html#a2fb472c6bf9b7f540a97ddc6c11adb74" target="_top" xlink:title="attribute_del">
<polygon fill="none" stroke="black" points="786.5,-43.5 786.5,-62.5 881.5,-62.5 881.5,-43.5 786.5,-43.5"/>
<text text-anchor="middle" x="834" y="-50.5" font-family="DejaVuSansMono" font-size="10.00">attribute_del</text>
</a>
</g>
<!-- Node17&#45;&gt;Node18 -->
<g id="edge34" class="edge"><title>Node17&#45;&gt;Node18</title>
<path fill="none" stroke="midnightblue" d="M689.524,-77.1566C716.27,-72.6535 748.823,-67.1727 776.156,-62.5707"/>
<polygon fill="midnightblue" stroke="midnightblue" points="777.073,-65.9657 786.353,-60.8539 775.91,-59.0629 777.073,-65.9657"/>
</g>
<!-- Node19 -->
<g id="node37" class="node"><title>Node19</title>
<a xlink:href="../../d1/dc2/xmpp__parser_8c.html#a87065f39f10a449e7af17fa45ca475f2" target="_top" xlink:title="xmpp_parser_namespace_del">
<polygon fill="none" stroke="black" points="750.5,-81.5 750.5,-100.5 917.5,-100.5 917.5,-81.5 750.5,-81.5"/>
<text text-anchor="middle" x="834" y="-88.5" font-family="DejaVuSansMono" font-size="10.00">xmpp_parser_namespace_del</text>
</a>
</g>
<!-- Node17&#45;&gt;Node19 -->
<g id="edge36" class="edge"><title>Node17&#45;&gt;Node19</title>
<path fill="none" stroke="midnightblue" d="M689.524,-87.3399C705.165,-87.7389 722.791,-88.1885 740.197,-88.6326"/>
<polygon fill="midnightblue" stroke="midnightblue" points="740.318,-92.1367 750.404,-88.893 740.497,-85.139 740.318,-92.1367"/>
</g>
<!-- Node22 -->
<g id="node44" class="node"><title>Node22</title>
<a xlink:href="../../d1/d59/xmpp__stanza_8c.html#a4adffe2c21d8f7aa52ce23cc48772b7f" target="_top" xlink:title="Copies data.">
<polygon fill="none" stroke="black" points="558.5,-0.5 558.5,-19.5 713.5,-19.5 713.5,-0.5 558.5,-0.5"/>
<text text-anchor="middle" x="636" y="-7.5" font-family="DejaVuSansMono" font-size="10.00">xmpp_stanza_append_data</text>
</a>
</g>
<!-- Node21&#45;&gt;Node22 -->
<g id="edge44" class="edge"><title>Node21&#45;&gt;Node22</title>
<path fill="none" stroke="midnightblue" d="M503.379,-47.4255C519.009,-41.7023 539.524,-34.4992 558,-29 566.157,-26.572 574.864,-24.2088 583.38,-22.0206"/>
<polygon fill="midnightblue" stroke="midnightblue" points="584.401,-25.373 593.245,-19.539 582.693,-18.5845 584.401,-25.373"/>
</g>
<!-- Node24&#45;&gt;Node4 -->
<g id="edge54" class="edge"><title>Node24&#45;&gt;Node4</title>
<path fill="none" stroke="midnightblue" d="M490.39,-151.608C505.597,-163.023 532.513,-182.024 558,-194 572.175,-200.661 588.663,-206.082 602.736,-210.077"/>
<polygon fill="midnightblue" stroke="midnightblue" points="601.921,-213.482 612.489,-212.73 603.759,-206.727 601.921,-213.482"/>
</g>
<!-- Node24&#45;&gt;Node5 -->
<g id="edge50" class="edge"><title>Node24&#45;&gt;Node5</title>
<path fill="none" stroke="midnightblue" d="M514.457,-151.582C528.053,-154.911 543.665,-158.446 558,-161 626.521,-173.207 705.469,-182.16 761.149,-187.636"/>
<polygon fill="midnightblue" stroke="midnightblue" points="760.975,-191.135 771.267,-188.618 761.652,-184.168 760.975,-191.135"/>
</g>
<!-- Node24&#45;&gt;Node12 -->
<g id="edge52" class="edge"><title>Node24&#45;&gt;Node12</title>
<path fill="none" stroke="midnightblue" d="M521.733,-142C534.583,-142 548.991,-142 563.111,-142"/>
<polygon fill="midnightblue" stroke="midnightblue" points="563.316,-145.5 573.316,-142 563.316,-138.5 563.316,-145.5"/>
</g>
<!-- Node24&#45;&gt;Node17 -->
<g id="edge56" class="edge"><title>Node24&#45;&gt;Node17</title>
<path fill="none" stroke="midnightblue" d="M504.989,-132.373C530.87,-123.142 570.125,-109.14 598.729,-98.9375"/>
<polygon fill="midnightblue" stroke="midnightblue" points="600.12,-102.157 608.363,-95.5011 597.768,-95.5642 600.12,-102.157"/>
</g>
</g>
</svg>
        <g id="navigator" transform="translate(0 0)" fill="#404254">
                <rect fill="#f2f5e9" fill-opacity="0.5" stroke="#606060" stroke-width=".5" x="0" y="0" width="60" height="60"/>
                <use id="zoomplus" xlink:href="#zoomPlus" x="17" y="9" onmousedown="handleZoom(evt,'in')"/>
                <use id="zoomminus" xlink:href="#zoomMin" x="42" y="9" onmousedown="handleZoom(evt,'out')"/>
                <use id="reset" xlink:href="#resetDef" x="30" y="36" onmousedown="handleReset()"/>
                <g id="arrowUp" xlink:href="#dirArrow" transform="translate(30 24)" onmousedown="handlePan(0,-1)">
                  <use xlink:href="#rim" fill="#404040">
                        <set attributeName="fill" to="#808080" begin="arrowUp.mouseover" end="arrowUp.mouseout"/>
                  </use>
                  <path fill="none" stroke="white" stroke-width="1.5" d="M0,-3.0v7 M-2.5,-0.5L0,-3.0L2.5,-0.5"/>
                </g>
                <g id="arrowRight" xlink:href="#dirArrow" transform="rotate(90) translate(36 -43)" onmousedown="handlePan(1,0)">
                  <use xlink:href="#rim" fill="#404040">
                        <set attributeName="fill" to="#808080" begin="arrowRight.mouseover" end="arrowRight.mouseout"/>
                  </use>
                  <path fill="none" stroke="white" stroke-width="1.5" d="M0,-3.0v7 M-2.5,-0.5L0,-3.0L2.5,-0.5"/>
                </g>
                <g id="arrowDown" xlink:href="#dirArrow" transform="rotate(180) translate(-30 -48)" onmousedown="handlePan(0,1)">
                  <use xlink:href="#rim" fill="#404040">
                        <set attributeName="fill" to="#808080" begin="arrowDown.mouseover" end="arrowDown.mouseout"/>
                  </use>
                  <path fill="none" stroke="white" stroke-width="1.5" d="M0,-3.0v7 M-2.5,-0.5L0,-3.0L2.5,-0.5"/>
                </g>
                <g id="arrowLeft" xlink:href="#dirArrow" transform="rotate(270) translate(-36 17)" onmousedown="handlePan(-1,0)">
                  <use xlink:href="#rim" fill="#404040">
                        <set attributeName="fill" to="#808080" begin="arrowLeft.mouseover" end="arrowLeft.mouseout"/>
                  </use>
                  <path fill="none" stroke="white" stroke-width="1.5" d="M0,-3.0v7 M-2.5,-0.5L0,-3.0L2.5,-0.5"/>
                </g>
        </g>
        <svg viewBox="0 0 25 25" width="100%" height="30px" preserveAspectRatio="xMaxYMin meet"> 
          <g id="printButton" transform="scale(0.4 0.4)" onmousedown="handlePrint(evt)">
            <rect height="23.33753581" id="paper" rx="2" style="fill:#f2f5e9;fill-rule:evenodd;stroke:#111111;stroke-width:3.224;stroke-linejoin:round;" transform="matrix(1.000000,0.000000,-0.339266,0.940691,0.000000,0.000000)" width="25.55231285" x="26.69387353" y="7.36162977"/>
            <rect height="26.272097" id="body" rx="2" style="fill:#404040;fill-rule:evenodd;stroke:#111111;stroke-width:3.125;stroke-linejoin:round;" width="50" x="4.5295201" y="27.078951"/>
            <rect height="8.27750969" id="tray" style="fill:#d2d5c9;fill-rule:evenodd;stroke:#111111;stroke-width:3.125;stroke-linecap:round;stroke-linejoin:round;" width="40" x="10.28778839" y="44.96812282"/>
          </g>
        </svg>
</svg>
