<?xml version="1.0" encoding="UTF-8" standalone="no"?>
<!DOCTYPE svg PUBLIC "-//W3C//DTD SVG 1.1//EN"
 "http://www.w3.org/Graphics/SVG/1.1/DTD/svg11.dtd">
<!-- Generated by graphviz version 2.28.0 (20120217.0315)
 -->
<!-- Title: G Pages: 1 -->
<svg width="464pt" height="66pt"
 viewBox="0.00 0.00 464.00 66.00" xmlns="http://www.w3.org/2000/svg" xmlns:xlink="http://www.w3.org/1999/xlink">
<g id="graph1" class="graph" transform="scale(1 1) rotate(0) translate(4 62)">
<title>G</title>
<!-- Node1 -->
<g id="node1" class="node"><title>Node1</title>
<polygon fill="#bfbfbf" stroke="black" points="0.5,-19.5 0.5,-38.5 95.5,-38.5 95.5,-19.5 0.5,-19.5"/>
<text text-anchor="middle" x="48" y="-26.5" font-family="DejaVuSansMono" font-size="10.00">base64_decode</text>
</g>
<!-- Node2 -->
<g id="node3" class="node"><title>Node2</title>
<a xlink:href="../../d3/d91/utils_8c.html#aa46f4a06df6250902681cbb5fc9c300d" target="_top" xlink:title="base64_init_decodestate">
<polygon fill="none" stroke="black" points="132.5,-38.5 132.5,-57.5 287.5,-57.5 287.5,-38.5 132.5,-38.5"/>
<text text-anchor="middle" x="210" y="-45.5" font-family="DejaVuSansMono" font-size="10.00">base64_init_decodestate</text>
</a>
</g>
<!-- Node1&#45;&gt;Node2 -->
<g id="edge2" class="edge"><title>Node1&#45;&gt;Node2</title>
<path fill="none" stroke="midnightblue" d="M95.7087,-34.5467C104.176,-35.5521 113.249,-36.6295 122.438,-37.7207"/>
<polygon fill="midnightblue" stroke="midnightblue" points="122.088,-41.2038 132.431,-38.9075 122.914,-34.2526 122.088,-41.2038"/>
</g>
<!-- Node3 -->
<g id="node5" class="node"><title>Node3</title>
<a xlink:href="../../d3/d91/utils_8c.html#a7178b286c19aff569de46e0533a9231b" target="_top" xlink:title="base64_decode_block">
<polygon fill="none" stroke="black" points="144.5,-0.5 144.5,-19.5 275.5,-19.5 275.5,-0.5 144.5,-0.5"/>
<text text-anchor="middle" x="210" y="-7.5" font-family="DejaVuSansMono" font-size="10.00">base64_decode_block</text>
</a>
</g>
<!-- Node1&#45;&gt;Node3 -->
<g id="edge4" class="edge"><title>Node1&#45;&gt;Node3</title>
<path fill="none" stroke="midnightblue" d="M95.7087,-23.4533C107.837,-22.0131 121.207,-20.4254 134.382,-18.8609"/>
<polygon fill="midnightblue" stroke="midnightblue" points="134.877,-22.3268 144.395,-17.6719 134.052,-15.3756 134.877,-22.3268"/>
</g>
<!-- Node4 -->
<g id="node7" class="node"><title>Node4</title>
<a xlink:href="../../d3/d91/utils_8c.html#ad82796a72b64cff4add60bd588eadf99" target="_top" xlink:title="base64_decode_value">
<polygon fill="none" stroke="black" points="324.5,-0.5 324.5,-19.5 455.5,-19.5 455.5,-0.5 324.5,-0.5"/>
<text text-anchor="middle" x="390" y="-7.5" font-family="DejaVuSansMono" font-size="10.00">base64_decode_value</text>
</a>
</g>
<!-- Node3&#45;&gt;Node4 -->
<g id="edge6" class="edge"><title>Node3&#45;&gt;Node4</title>
<path fill="none" stroke="midnightblue" d="M275.514,-10C288.075,-10 301.341,-10 314.202,-10"/>
<polygon fill="midnightblue" stroke="midnightblue" points="314.408,-13.5001 324.408,-10 314.408,-6.5001 314.408,-13.5001"/>
</g>
</g>
</svg>
