<?xml version="1.0" encoding="UTF-8" standalone="no"?>
<!DOCTYPE svg PUBLIC "-//W3C//DTD SVG 1.1//EN"
 "http://www.w3.org/Graphics/SVG/1.1/DTD/svg11.dtd">
<!-- Generated by graphviz version 2.28.0 (20120217.0315)
 -->
<!-- Title: G Pages: 1 -->
<!--zoomable 151 -->
<svg id="main" version="1.1" xmlns="http://www.w3.org/2000/svg" xmlns:xlink="http://www.w3.org/1999/xlink" xml:space="preserve" onload="init(evt)">
        <defs>
                <circle id="rim" cx="0" cy="0" r="7"/>
                <circle id="rim2" cx="0" cy="0" r="3.5"/>
                <g id="zoomPlus">
                        <use xlink:href="#rim" fill="#404040">
                                <set attributeName="fill" to="#808080" begin="zoomplus.mouseover" end="zoomplus.mouseout"/>
                        </use>
                        <path d="M-4,0h8M0,-4v8" fill="none" stroke="white" stroke-width="1.5" pointer-events="none"/>
                </g>
                <g id="zoomMin">
                        <use xlink:href="#rim" fill="#404040">
                                <set attributeName="fill" to="#808080" begin="zoomminus.mouseover" end="zoomminus.mouseout"/>
                        </use>
                        <path d="M-4,0h8" fill="none" stroke="white" stroke-width="1.5" pointer-events="none"/>
                </g>
                <g id="dirArrow">
                        <path fill="none" stroke="white" stroke-width="1.5" d="M0,-3.0v7 M-2.5,-0.5L0,-3.0L2.5,-0.5"/>
                </g>
               <g id="resetDef">
                       <use xlink:href="#rim2" fill="#404040">
                               <set attributeName="fill" to="#808080" begin="reset.mouseover" end="reset.mouseout"/>
                       </use>
               </g>
        </defs>

<script type="text/javascript">
var viewWidth = 1586;
var viewHeight = 151;
var sectionId = 'dynsection-5';
</script>
<script xlink:href="../../svgpan.js"/>
<svg id="graph" class="graph">
<g id="viewport">
<title>G</title>
<!-- Node1 -->
<g id="node1" class="node"><title>Node1</title>
<polygon fill="#bfbfbf" stroke="black" points="0.5,-71.5 0.5,-90.5 71.5,-90.5 71.5,-71.5 0.5,-71.5"/>
<text text-anchor="middle" x="36" y="-78.5" font-family="DejaVuSansMono" font-size="10.00">make_uuid</text>
</g>
<!-- Node2 -->
<g id="node3" class="node"><title>Node2</title>
<a xlink:href="../../d7/d71/xep__muc_8c.html#a8333f88612fa054ae107699f5bb548cc" target="_top" xlink:title="send_nickname_conflict">
<polygon fill="none" stroke="black" points="111.5,-109.5 111.5,-128.5 260.5,-128.5 260.5,-109.5 111.5,-109.5"/>
<text text-anchor="middle" x="186" y="-116.5" font-family="DejaVuSansMono" font-size="10.00">send_nickname_conflict</text>
</a>
</g>
<!-- Node1&#45;&gt;Node2 -->
<g id="edge2" class="edge"><title>Node1&#45;&gt;Node2</title>
<path fill="none" stroke="midnightblue" d="M81.3724,-93.0174C90.1869,-95.3642 99.3803,-97.7834 108,-100 120.268,-103.155 133.663,-106.496 145.791,-109.482"/>
<polygon fill="midnightblue" stroke="midnightblue" points="82.1971,-89.615 71.6323,-90.4131 80.3889,-96.3774 82.1971,-89.615"/>
</g>
<!-- Node8 -->
<g id="node15" class="node"><title>Node8</title>
<a xlink:href="../../d7/d71/xep__muc_8c.html#a115281f539cd77f88872ff153ec5b38d" target="_top" xlink:title="send_presence_broadcast">
<polygon fill="none" stroke="black" points="108.5,-71.5 108.5,-90.5 263.5,-90.5 263.5,-71.5 108.5,-71.5"/>
<text text-anchor="middle" x="186" y="-78.5" font-family="DejaVuSansMono" font-size="10.00">send_presence_broadcast</text>
</a>
</g>
<!-- Node1&#45;&gt;Node8 -->
<g id="edge14" class="edge"><title>Node1&#45;&gt;Node8</title>
<path fill="none" stroke="midnightblue" d="M81.7107,-81C90.1982,-81 99.2988,-81 108.451,-81"/>
<polygon fill="midnightblue" stroke="midnightblue" points="81.6995,-77.5001 71.6994,-81 81.6994,-84.5001 81.6995,-77.5001"/>
</g>
<!-- Node9 -->
<g id="node18" class="node"><title>Node9</title>
<a xlink:href="../../df/da9/xmpp__auth_8c.html#a603b4a63af3c4e4af99442805fe89ae8" target="_top" xlink:title="Step 15: Client binds a resource.">
<polygon fill="none" stroke="black" points="135.5,-33.5 135.5,-52.5 236.5,-52.5 236.5,-33.5 135.5,-33.5"/>
<text text-anchor="middle" x="186" y="-40.5" font-family="DejaVuSansMono" font-size="10.00">handle_bind_iq</text>
</a>
</g>
<!-- Node1&#45;&gt;Node9 -->
<g id="edge18" class="edge"><title>Node1&#45;&gt;Node9</title>
<path fill="none" stroke="midnightblue" d="M81.3724,-68.9826C90.1869,-66.6358 99.3803,-64.2166 108,-62 120.268,-58.8452 133.663,-55.504 145.791,-52.5179"/>
<polygon fill="midnightblue" stroke="midnightblue" points="80.3889,-65.6226 71.6323,-71.5869 82.1971,-72.385 80.3889,-65.6226"/>
</g>
<!-- Node3 -->
<g id="node5" class="node"><title>Node3</title>
<a xlink:href="../../d7/d71/xep__muc_8c.html#aefd23f2960520a68fea212344b85cb0b" target="_top" xlink:title="enter_room_presence">
<polygon fill="none" stroke="black" points="300.5,-104.5 300.5,-123.5 431.5,-123.5 431.5,-104.5 300.5,-104.5"/>
<text text-anchor="middle" x="366" y="-111.5" font-family="DejaVuSansMono" font-size="10.00">enter_room_presence</text>
</a>
</g>
<!-- Node2&#45;&gt;Node3 -->
<g id="edge4" class="edge"><title>Node2&#45;&gt;Node3</title>
<path fill="none" stroke="midnightblue" d="M270.964,-116.641C280.878,-116.363 290.875,-116.082 300.462,-115.813"/>
<polygon fill="midnightblue" stroke="midnightblue" points="270.582,-113.151 260.684,-116.93 270.779,-120.148 270.582,-113.151"/>
</g>
<!-- Node4 -->
<g id="node7" class="node"><title>Node4</title>
<a xlink:href="../../d7/d71/xep__muc_8c.html#a9936322b944d46aead9fbd942687ec0a" target="_top" xlink:title="handle_presence">
<polygon fill="none" stroke="black" points="474.5,-104.5 474.5,-123.5 581.5,-123.5 581.5,-104.5 474.5,-104.5"/>
<text text-anchor="middle" x="528" y="-111.5" font-family="DejaVuSansMono" font-size="10.00">handle_presence</text>
</a>
</g>
<!-- Node3&#45;&gt;Node4 -->
<g id="edge6" class="edge"><title>Node3&#45;&gt;Node4</title>
<path fill="none" stroke="midnightblue" d="M441.705,-114C452.757,-114 463.945,-114 474.42,-114"/>
<polygon fill="midnightblue" stroke="midnightblue" points="441.617,-110.5 431.617,-114 441.617,-117.5 441.617,-110.5"/>
</g>
<!-- Node5 -->
<g id="node9" class="node"><title>Node5</title>
<a xlink:href="../../d7/d71/xep__muc_8c.html#a1798db1c16a1fa62ff8f39fea202a26f" target="_top" xlink:title="stanza_handler">
<polygon fill="none" stroke="black" points="633.5,-104.5 633.5,-123.5 734.5,-123.5 734.5,-104.5 633.5,-104.5"/>
<text text-anchor="middle" x="684" y="-111.5" font-family="DejaVuSansMono" font-size="10.00">stanza_handler</text>
</a>
</g>
<!-- Node4&#45;&gt;Node5 -->
<g id="edge8" class="edge"><title>Node4&#45;&gt;Node5</title>
<path fill="none" stroke="midnightblue" d="M591.944,-114C605.712,-114 620.1,-114 633.266,-114"/>
<polygon fill="midnightblue" stroke="midnightblue" points="591.567,-110.5 581.567,-114 591.567,-117.5 591.567,-110.5"/>
</g>
<!-- Node6 -->
<g id="node11" class="node"><title>Node6</title>
<a xlink:href="../../d7/d71/xep__muc_8c.html#addf05166cf3fbe386ae6650be21ef251" target="_top" xlink:title="xep_muc_start">
<polygon fill="none" stroke="black" points="786.5,-123.5 786.5,-142.5 881.5,-142.5 881.5,-123.5 786.5,-123.5"/>
<text text-anchor="middle" x="834" y="-130.5" font-family="DejaVuSansMono" font-size="10.00">xep_muc_start</text>
</a>
</g>
<!-- Node5&#45;&gt;Node6 -->
<g id="edge10" class="edge"><title>Node5&#45;&gt;Node6</title>
<path fill="none" stroke="midnightblue" d="M744.618,-121.654C758.456,-123.43 772.993,-125.296 786.189,-126.991"/>
<polygon fill="midnightblue" stroke="midnightblue" points="745.058,-118.181 734.694,-120.38 744.166,-125.125 745.058,-118.181"/>
</g>
<!-- Node7 -->
<g id="node13" class="node"><title>Node7</title>
<a xlink:href="../../d7/d71/xep__muc_8c.html#a20d385a5584d8014ec4d5774eb79d1de" target="_top" xlink:title="xep_muc_stop">
<polygon fill="none" stroke="black" points="789.5,-85.5 789.5,-104.5 878.5,-104.5 878.5,-85.5 789.5,-85.5"/>
<text text-anchor="middle" x="834" y="-92.5" font-family="DejaVuSansMono" font-size="10.00">xep_muc_stop</text>
</a>
</g>
<!-- Node5&#45;&gt;Node7 -->
<g id="edge12" class="edge"><title>Node5&#45;&gt;Node7</title>
<path fill="none" stroke="midnightblue" d="M744.801,-106.323C759.627,-104.419 775.244,-102.415 789.147,-100.63"/>
<polygon fill="midnightblue" stroke="midnightblue" points="744.166,-102.875 734.694,-107.62 745.058,-109.819 744.166,-102.875"/>
</g>
<!-- Node8&#45;&gt;Node3 -->
<g id="edge16" class="edge"><title>Node8&#45;&gt;Node3</title>
<path fill="none" stroke="midnightblue" d="M248.391,-92.3814C269.656,-96.3239 293.256,-100.699 313.631,-104.476"/>
<polygon fill="midnightblue" stroke="midnightblue" points="248.955,-88.9266 238.485,-90.545 247.679,-95.8093 248.955,-88.9266"/>
</g>
<!-- Node10 -->
<g id="node20" class="node"><title>Node10</title>
<a xlink:href="../../df/da9/xmpp__auth_8c.html#a01804bd53eccc182ce76337fc0863e8d" target="_top" xlink:title="stream_bind_start">
<polygon fill="none" stroke="black" points="306.5,-33.5 306.5,-52.5 425.5,-52.5 425.5,-33.5 306.5,-33.5"/>
<text text-anchor="middle" x="366" y="-40.5" font-family="DejaVuSansMono" font-size="10.00">stream_bind_start</text>
</a>
</g>
<!-- Node9&#45;&gt;Node10 -->
<g id="edge20" class="edge"><title>Node9&#45;&gt;Node10</title>
<path fill="none" stroke="midnightblue" d="M246.702,-43C265.882,-43 287.106,-43 306.219,-43"/>
<polygon fill="midnightblue" stroke="midnightblue" points="246.583,-39.5001 236.583,-43 246.583,-46.5001 246.583,-39.5001"/>
</g>
<!-- Node11 -->
<g id="node22" class="node"><title>Node11</title>
<a xlink:href="../../df/da9/xmpp__auth_8c.html#afb770a216868aa3fb43813b19d2a0115" target="_top" xlink:title="Begins SASL PLAIN authentication.">
<polygon fill="none" stroke="black" points="468.5,-33.5 468.5,-52.5 587.5,-52.5 587.5,-33.5 468.5,-33.5"/>
<text text-anchor="middle" x="528" y="-40.5" font-family="DejaVuSansMono" font-size="10.00">handle_sasl_plain</text>
</a>
</g>
<!-- Node10&#45;&gt;Node11 -->
<g id="edge22" class="edge"><title>Node10&#45;&gt;Node11</title>
<path fill="none" stroke="midnightblue" d="M435.915,-43C446.717,-43 457.794,-43 468.338,-43"/>
<polygon fill="midnightblue" stroke="midnightblue" points="435.67,-39.5001 425.67,-43 435.67,-46.5001 435.67,-39.5001"/>
</g>
<!-- Node12 -->
<g id="node24" class="node"><title>Node12</title>
<a xlink:href="../../d3/d24/xmpp__auth_8h.html#ad3efd9ab093646bdfd8832c34ae2de4d" target="_top" xlink:title="Handler for the inital stream start to begin authentication.">
<polygon fill="none" stroke="black" points="924.5,-19.5 924.5,-38.5 1073.5,-38.5 1073.5,-19.5 924.5,-19.5"/>
<text text-anchor="middle" x="999" y="-26.5" font-family="DejaVuSansMono" font-size="10.00">xmpp_auth_stream_start</text>
</a>
</g>
<!-- Node11&#45;&gt;Node12 -->
<g id="edge24" class="edge"><title>Node11&#45;&gt;Node12</title>
<path fill="none" stroke="midnightblue" d="M597.987,-40.9407C685.236,-38.3362 834.847,-33.8703 924.283,-31.2005"/>
<polygon fill="midnightblue" stroke="midnightblue" points="597.815,-37.4442 587.924,-41.2411 598.024,-44.441 597.815,-37.4442"/>
</g>
<!-- Node17 -->
<g id="node34" class="node"><title>Node17</title>
<a xlink:href="../../df/da9/xmpp__auth_8c.html#afd7b12689591d40109a88ad108b5c3a2" target="_top" xlink:title="stream_sasl_start">
<polygon fill="none" stroke="black" points="624.5,-0.5 624.5,-19.5 743.5,-19.5 743.5,-0.5 624.5,-0.5"/>
<text text-anchor="middle" x="684" y="-7.5" font-family="DejaVuSansMono" font-size="10.00">stream_sasl_start</text>
</a>
</g>
<!-- Node11&#45;&gt;Node17 -->
<g id="edge34" class="edge"><title>Node11&#45;&gt;Node17</title>
<path fill="none" stroke="midnightblue" d="M583.365,-31.3503C601.434,-27.4784 621.328,-23.2154 638.557,-19.5235"/>
<polygon fill="midnightblue" stroke="midnightblue" points="582.588,-27.9374 573.543,-33.455 584.055,-34.782 582.588,-27.9374"/>
</g>
<!-- Node13 -->
<g id="node26" class="node"><title>Node13</title>
<a xlink:href="../../d4/d2f/xmpp__client_8h.html#a1619c0b8f58b2cf09a322bf34fbc3414" target="_top" xlink:title="xmpp_client_new">
<polygon fill="none" stroke="black" points="1110.5,-19.5 1110.5,-38.5 1217.5,-38.5 1217.5,-19.5 1110.5,-19.5"/>
<text text-anchor="middle" x="1164" y="-26.5" font-family="DejaVuSansMono" font-size="10.00">xmpp_client_new</text>
</a>
</g>
<!-- Node12&#45;&gt;Node13 -->
<g id="edge26" class="edge"><title>Node12&#45;&gt;Node13</title>
<path fill="none" stroke="midnightblue" d="M1083.99,-29C1092.95,-29 1101.88,-29 1110.33,-29"/>
<polygon fill="midnightblue" stroke="midnightblue" points="1083.87,-25.5001 1073.87,-29 1083.87,-32.5001 1083.87,-25.5001"/>
</g>
<!-- Node14 -->
<g id="node28" class="node"><title>Node14</title>
<a xlink:href="../../d0/df0/xmpp__server_8c.html#a66363912ef1221a2574f9f99805fe8fd" target="_top" xlink:title="Callback for new client connections.">
<polygon fill="none" stroke="black" points="1254.5,-19.5 1254.5,-38.5 1355.5,-38.5 1355.5,-19.5 1254.5,-19.5"/>
<text text-anchor="middle" x="1305" y="-26.5" font-family="DejaVuSansMono" font-size="10.00">connect_client</text>
</a>
</g>
<!-- Node13&#45;&gt;Node14 -->
<g id="edge28" class="edge"><title>Node13&#45;&gt;Node14</title>
<path fill="none" stroke="midnightblue" d="M1227.8,-29C1236.63,-29 1245.59,-29 1254.13,-29"/>
<polygon fill="midnightblue" stroke="midnightblue" points="1227.55,-25.5001 1217.55,-29 1227.55,-32.5001 1227.55,-25.5001"/>
</g>
<!-- Node15 -->
<g id="node30" class="node"><title>Node15</title>
<a xlink:href="../../d1/d2e/xmpp__server_8h.html#a27bfc8e4d424a8bc17ab21a4a09cdf92" target="_top" xlink:title="Allocates and initializes the XMPP server.">
<polygon fill="none" stroke="black" points="1392.5,-19.5 1392.5,-38.5 1499.5,-38.5 1499.5,-19.5 1392.5,-19.5"/>
<text text-anchor="middle" x="1446" y="-26.5" font-family="DejaVuSansMono" font-size="10.00">xmpp_server_new</text>
</a>
</g>
<!-- Node14&#45;&gt;Node15 -->
<g id="edge30" class="edge"><title>Node14&#45;&gt;Node15</title>
<path fill="none" stroke="midnightblue" d="M1365.94,-29C1374.7,-29 1383.67,-29 1392.27,-29"/>
<polygon fill="midnightblue" stroke="midnightblue" points="1365.79,-25.5001 1355.79,-29 1365.79,-32.5001 1365.79,-25.5001"/>
</g>
<!-- Node16 -->
<g id="node32" class="node"><title>Node16</title>
<a xlink:href="../../d0/d29/main_8c.html#a0ddf1224851353fc92bfbff6f499fa97" target="_top" xlink:title="main">
<polygon fill="none" stroke="black" points="1536.5,-19.5 1536.5,-38.5 1577.5,-38.5 1577.5,-19.5 1536.5,-19.5"/>
<text text-anchor="middle" x="1557" y="-26.5" font-family="DejaVuSansMono" font-size="10.00">main</text>
</a>
</g>
<!-- Node15&#45;&gt;Node16 -->
<g id="edge32" class="edge"><title>Node15&#45;&gt;Node16</title>
<path fill="none" stroke="midnightblue" d="M1509.75,-29C1519.43,-29 1528.76,-29 1536.47,-29"/>
<polygon fill="midnightblue" stroke="midnightblue" points="1509.58,-25.5001 1499.58,-29 1509.58,-32.5001 1509.58,-25.5001"/>
</g>
<!-- Node18 -->
<g id="node36" class="node"><title>Node18</title>
<a xlink:href="../../df/da9/xmpp__auth_8c.html#a8dd789e057b9812e4dd1aa524dfb6a65" target="_top" xlink:title="Begins TLS authentication.">
<polygon fill="none" stroke="black" points="780.5,-0.5 780.5,-19.5 887.5,-19.5 887.5,-0.5 780.5,-0.5"/>
<text text-anchor="middle" x="834" y="-7.5" font-family="DejaVuSansMono" font-size="10.00">handle_starttls</text>
</a>
</g>
<!-- Node17&#45;&gt;Node18 -->
<g id="edge36" class="edge"><title>Node17&#45;&gt;Node18</title>
<path fill="none" stroke="midnightblue" d="M754.085,-10C762.806,-10 771.619,-10 780.036,-10"/>
<polygon fill="midnightblue" stroke="midnightblue" points="753.919,-6.5001 743.919,-10 753.919,-13.5001 753.919,-6.5001"/>
</g>
<!-- Node18&#45;&gt;Node12 -->
<g id="edge38" class="edge"><title>Node18&#45;&gt;Node12</title>
<path fill="none" stroke="midnightblue" d="M897.911,-17.3332C906.558,-18.3411 915.499,-19.3833 924.317,-20.4112"/>
<polygon fill="midnightblue" stroke="midnightblue" points="898.259,-13.8502 887.921,-16.1688 897.449,-20.8031 898.259,-13.8502"/>
</g>
</g>
</svg>
        <g id="navigator" transform="translate(0 0)" fill="#404254">
                <rect fill="#f2f5e9" fill-opacity="0.5" stroke="#606060" stroke-width=".5" x="0" y="0" width="60" height="60"/>
                <use id="zoomplus" xlink:href="#zoomPlus" x="17" y="9" onmousedown="handleZoom(evt,'in')"/>
                <use id="zoomminus" xlink:href="#zoomMin" x="42" y="9" onmousedown="handleZoom(evt,'out')"/>
                <use id="reset" xlink:href="#resetDef" x="30" y="36" onmousedown="handleReset()"/>
                <g id="arrowUp" xlink:href="#dirArrow" transform="translate(30 24)" onmousedown="handlePan(0,-1)">
                  <use xlink:href="#rim" fill="#404040">
                        <set attributeName="fill" to="#808080" begin="arrowUp.mouseover" end="arrowUp.mouseout"/>
                  </use>
                  <path fill="none" stroke="white" stroke-width="1.5" d="M0,-3.0v7 M-2.5,-0.5L0,-3.0L2.5,-0.5"/>
                </g>
                <g id="arrowRight" xlink:href="#dirArrow" transform="rotate(90) translate(36 -43)" onmousedown="handlePan(1,0)">
                  <use xlink:href="#rim" fill="#404040">
                        <set attributeName="fill" to="#808080" begin="arrowRight.mouseover" end="arrowRight.mouseout"/>
                  </use>
                  <path fill="none" stroke="white" stroke-width="1.5" d="M0,-3.0v7 M-2.5,-0.5L0,-3.0L2.5,-0.5"/>
                </g>
                <g id="arrowDown" xlink:href="#dirArrow" transform="rotate(180) translate(-30 -48)" onmousedown="handlePan(0,1)">
                  <use xlink:href="#rim" fill="#404040">
                        <set attributeName="fill" to="#808080" begin="arrowDown.mouseover" end="arrowDown.mouseout"/>
                  </use>
                  <path fill="none" stroke="white" stroke-width="1.5" d="M0,-3.0v7 M-2.5,-0.5L0,-3.0L2.5,-0.5"/>
                </g>
                <g id="arrowLeft" xlink:href="#dirArrow" transform="rotate(270) translate(-36 17)" onmousedown="handlePan(-1,0)">
                  <use xlink:href="#rim" fill="#404040">
                        <set attributeName="fill" to="#808080" begin="arrowLeft.mouseover" end="arrowLeft.mouseout"/>
                  </use>
                  <path fill="none" stroke="white" stroke-width="1.5" d="M0,-3.0v7 M-2.5,-0.5L0,-3.0L2.5,-0.5"/>
                </g>
        </g>
        <svg viewBox="0 0 25 25" width="100%" height="30px" preserveAspectRatio="xMaxYMin meet"> 
          <g id="printButton" transform="scale(0.4 0.4)" onmousedown="handlePrint(evt)">
            <rect height="23.33753581" id="paper" rx="2" style="fill:#f2f5e9;fill-rule:evenodd;stroke:#111111;stroke-width:3.224;stroke-linejoin:round;" transform="matrix(1.000000,0.000000,-0.339266,0.940691,0.000000,0.000000)" width="25.55231285" x="26.69387353" y="7.36162977"/>
            <rect height="26.272097" id="body" rx="2" style="fill:#404040;fill-rule:evenodd;stroke:#111111;stroke-width:3.125;stroke-linejoin:round;" width="50" x="4.5295201" y="27.078951"/>
            <rect height="8.27750969" id="tray" style="fill:#d2d5c9;fill-rule:evenodd;stroke:#111111;stroke-width:3.125;stroke-linecap:round;stroke-linejoin:round;" width="40" x="10.28778839" y="44.96812282"/>
          </g>
        </svg>
</svg>
