<?xml version="1.0" encoding="UTF-8" standalone="no"?>
<!DOCTYPE svg PUBLIC "-//W3C//DTD SVG 1.1//EN"
 "http://www.w3.org/Graphics/SVG/1.1/DTD/svg11.dtd">
<!-- Generated by graphviz version 2.28.0 (20120217.0315)
 -->
<!-- Title: G Pages: 1 -->
<svg width="133pt" height="98pt"
 viewBox="0.00 0.00 133.00 98.00" xmlns="http://www.w3.org/2000/svg" xmlns:xlink="http://www.w3.org/1999/xlink">
<g id="graph1" class="graph" transform="scale(1 1) rotate(0) translate(4 94)">
<title>G</title>
<!-- Node1 -->
<g id="node1" class="node"><title>Node1</title>
<polygon fill="#bfbfbf" stroke="black" points="-0.5,-1.5 -0.5,-20.5 76.5,-20.5 76.5,-1.5 -0.5,-1.5"/>
<text text-anchor="middle" x="38" y="-8.5" font-family="DejaVuSansMono" font-size="10.00">disco_item</text>
</g>
<!-- Node1&#45;&gt;Node1 -->
<g id="edge2" class="edge"><title>Node1&#45;&gt;Node1</title>
<path fill="none" stroke="#9a32cd" stroke-dasharray="5,2" d="M86.8716,-16.042C91.2509,-14.9872 94,-13.3066 94,-11 94,-7.21484 86.5967,-5.11526 76.7352,-4.70126"/>
<polygon fill="#9a32cd" stroke="#9a32cd" points="86.2286,-12.5948 76.7352,-17.2987 87.0899,-19.5416 86.2286,-12.5948"/>
<text text-anchor="middle" x="109.5" y="-14" font-family="DejaVuSansMono" font-size="10.00"> prev</text>
<text text-anchor="middle" x="109.5" y="-3" font-family="DejaVuSansMono" font-size="10.00">next</text>
</g>
<!-- Node2 -->
<g id="node3" class="node"><title>Node2</title>
<a xlink:href="../../d3/d5a/jid_8c.html#df/d09/structjid" target="_top" xlink:title="Represents a JID (local/resource).">
<polygon fill="none" stroke="black" points="20.5,-70.5 20.5,-89.5 55.5,-89.5 55.5,-70.5 20.5,-70.5"/>
<text text-anchor="middle" x="38" y="-77.5" font-family="DejaVuSansMono" font-size="10.00">jid</text>
</a>
</g>
<!-- Node2&#45;&gt;Node1 -->
<g id="edge4" class="edge"><title>Node2&#45;&gt;Node1</title>
<path fill="none" stroke="#9a32cd" stroke-dasharray="5,2" d="M38,-60.0183C38,-47.034 38,-30.4419 38,-20.5494"/>
<polygon fill="#9a32cd" stroke="#9a32cd" points="34.5001,-60.2409 38,-70.2409 41.5001,-60.241 34.5001,-60.2409"/>
<text text-anchor="middle" x="50.5" y="-43.5" font-family="DejaVuSansMono" font-size="10.00"> jid</text>
</g>
</g>
</svg>
