<?xml version="1.0" encoding="UTF-8" standalone="no"?>
<!DOCTYPE svg PUBLIC "-//W3C//DTD SVG 1.1//EN"
 "http://www.w3.org/Graphics/SVG/1.1/DTD/svg11.dtd">
<!-- Generated by graphviz version 2.28.0 (20120217.0315)
 -->
<!-- Title: G Pages: 1 -->
<svg width="409pt" height="190pt"
 viewBox="0.00 0.00 409.00 190.00" xmlns="http://www.w3.org/2000/svg" xmlns:xlink="http://www.w3.org/1999/xlink">
<g id="graph1" class="graph" transform="scale(1 1) rotate(0) translate(4 186)">
<title>G</title>
<!-- Node1 -->
<g id="node1" class="node"><title>Node1</title>
<polygon fill="#bfbfbf" stroke="black" points="263.5,-1.5 263.5,-20.5 352.5,-20.5 352.5,-1.5 263.5,-1.5"/>
<text text-anchor="middle" x="308" y="-8.5" font-family="DejaVuSansMono" font-size="10.00">stanza_route</text>
</g>
<!-- Node1&#45;&gt;Node1 -->
<g id="edge2" class="edge"><title>Node1&#45;&gt;Node1</title>
<path fill="none" stroke="#9a32cd" stroke-dasharray="5,2" d="M362.516,-15.9508C367.126,-14.8915 370,-13.2412 370,-11 370,-7.41406 362.644,-5.34094 352.586,-4.78064"/>
<polygon fill="#9a32cd" stroke="#9a32cd" points="362.062,-12.4803 352.586,-17.2194 362.949,-19.4238 362.062,-12.4803"/>
<text text-anchor="middle" x="385.5" y="-14" font-family="DejaVuSansMono" font-size="10.00"> prev</text>
<text text-anchor="middle" x="385.5" y="-3" font-family="DejaVuSansMono" font-size="10.00">next</text>
</g>
<!-- Node2 -->
<g id="node3" class="node"><title>Node2</title>
<a xlink:href="../../d1/d59/xmpp__stanza_8c.html#d5/d6b/structxmpp__stanza" target="_top" xlink:title="xmpp_stanza">
<polygon fill="none" stroke="black" points="158.5,-82.5 158.5,-101.5 241.5,-101.5 241.5,-82.5 158.5,-82.5"/>
<text text-anchor="middle" x="200" y="-89.5" font-family="DejaVuSansMono" font-size="10.00">xmpp_stanza</text>
</a>
</g>
<!-- Node2&#45;&gt;Node1 -->
<g id="edge4" class="edge"><title>Node2&#45;&gt;Node1</title>
<path fill="none" stroke="#9a32cd" stroke-dasharray="5,2" d="M220.14,-76.2682C242.565,-59.8645 278.051,-33.9068 296.304,-20.5553"/>
<polygon fill="#9a32cd" stroke="#9a32cd" points="217.975,-73.5149 211.971,-82.2438 222.108,-79.1647 217.975,-73.5149"/>
<text text-anchor="middle" x="276.5" y="-43.5" font-family="DejaVuSansMono" font-size="10.00"> cb</text>
</g>
<!-- Node2&#45;&gt;Node2 -->
<g id="edge10" class="edge"><title>Node2&#45;&gt;Node2</title>
<path fill="none" stroke="#9a32cd" stroke-dasharray="5,2" d="M251.508,-98.8157C256.111,-97.3884 259,-95.1165 259,-92 259,-87.0137 251.605,-84.1894 241.625,-83.5271"/>
<polygon fill="#9a32cd" stroke="#9a32cd" points="250.909,-95.3673 241.625,-100.473 252.066,-102.271 250.909,-95.3673"/>
<text text-anchor="middle" x="283.5" y="-106" font-family="DejaVuSansMono" font-size="10.00"> prev</text>
<text text-anchor="middle" x="283.5" y="-95" font-family="DejaVuSansMono" font-size="10.00">next</text>
<text text-anchor="middle" x="283.5" y="-84" font-family="DejaVuSansMono" font-size="10.00">parent</text>
<text text-anchor="middle" x="283.5" y="-73" font-family="DejaVuSansMono" font-size="10.00">children</text>
</g>
<!-- Node3 -->
<g id="node5" class="node"><title>Node3</title>
<a xlink:href="../../d1/dc2/xmpp__parser_8c.html#dc/d9d/structxmpp__parser__namespace" target="_top" xlink:title="Structure representing an XML namespace.">
<polygon fill="none" stroke="black" points="-0.5,-162.5 -0.5,-181.5 142.5,-181.5 142.5,-162.5 -0.5,-162.5"/>
<text text-anchor="middle" x="71" y="-169.5" font-family="DejaVuSansMono" font-size="10.00">xmpp_parser_namespace</text>
</a>
</g>
<!-- Node3&#45;&gt;Node2 -->
<g id="edge6" class="edge"><title>Node3&#45;&gt;Node2</title>
<path fill="none" stroke="#9a32cd" stroke-dasharray="5,2" d="M93.9477,-157.125C120.502,-141.069 163.417,-115.12 185.638,-101.684"/>
<polygon fill="#9a32cd" stroke="#9a32cd" points="92.0445,-154.185 85.2981,-162.355 95.6665,-160.175 92.0445,-154.185"/>
<text text-anchor="middle" x="169.5" y="-135.5" font-family="DejaVuSansMono" font-size="10.00"> namespaces</text>
</g>
<!-- Node3&#45;&gt;Node3 -->
<g id="edge8" class="edge"><title>Node3&#45;&gt;Node3</title>
<path fill="none" stroke="#9a32cd" stroke-dasharray="5,2" d="M152.666,-176.301C157.261,-175.26 160,-173.826 160,-172 160,-169.078 152.989,-167.161 142.582,-166.248"/>
<polygon fill="#9a32cd" stroke="#9a32cd" points="151.981,-172.864 142.582,-177.752 152.978,-179.793 151.981,-172.864"/>
<text text-anchor="middle" x="175.5" y="-169.5" font-family="DejaVuSansMono" font-size="10.00"> next</text>
</g>
<!-- Node4 -->
<g id="node9" class="node"><title>Node4</title>
<a xlink:href="../../d1/d59/xmpp__stanza_8c.html#d9/d18/structattribute" target="_top" xlink:title="Structure to store a stanza attribute.">
<polygon fill="none" stroke="black" points="209.5,-162.5 209.5,-181.5 280.5,-181.5 280.5,-162.5 209.5,-162.5"/>
<text text-anchor="middle" x="245" y="-169.5" font-family="DejaVuSansMono" font-size="10.00">attribute</text>
</a>
</g>
<!-- Node4&#45;&gt;Node2 -->
<g id="edge12" class="edge"><title>Node4&#45;&gt;Node2</title>
<path fill="none" stroke="#9a32cd" stroke-dasharray="5,2" d="M234.874,-153.448C225.638,-137.439 212.365,-114.432 205.148,-101.924"/>
<polygon fill="#9a32cd" stroke="#9a32cd" points="231.983,-155.442 240.012,-162.355 238.047,-151.944 231.983,-155.442"/>
<text text-anchor="middle" x="263.5" y="-135.5" font-family="DejaVuSansMono" font-size="10.00"> attributes</text>
</g>
<!-- Node5 -->
<g id="node11" class="node"><title>Node5</title>
<a xlink:href="../../d3/d5a/jid_8c.html#df/d09/structjid" target="_top" xlink:title="Represents a JID (local/resource).">
<polygon fill="none" stroke="black" points="326.5,-82.5 326.5,-101.5 361.5,-101.5 361.5,-82.5 326.5,-82.5"/>
<text text-anchor="middle" x="344" y="-89.5" font-family="DejaVuSansMono" font-size="10.00">jid</text>
</a>
</g>
<!-- Node5&#45;&gt;Node1 -->
<g id="edge14" class="edge"><title>Node5&#45;&gt;Node1</title>
<path fill="none" stroke="#9a32cd" stroke-dasharray="5,2" d="M335.85,-73.115C328.368,-56.6968 317.606,-33.0797 311.899,-20.5553"/>
<polygon fill="#9a32cd" stroke="#9a32cd" points="332.678,-74.5954 340.01,-82.2438 339.048,-71.6927 332.678,-74.5954"/>
<text text-anchor="middle" x="338.5" y="-43.5" font-family="DejaVuSansMono" font-size="10.00"> jid</text>
</g>
</g>
</svg>
