<?xml version="1.0" encoding="UTF-8" standalone="no"?>
<!DOCTYPE svg PUBLIC "-//W3C//DTD SVG 1.1//EN"
 "http://www.w3.org/Graphics/SVG/1.1/DTD/svg11.dtd">
<!-- Generated by graphviz version 2.28.0 (20120217.0315)
 -->
<!-- Title: G Pages: 1 -->
<!--zoomable 341 -->
<svg id="main" version="1.1" xmlns="http://www.w3.org/2000/svg" xmlns:xlink="http://www.w3.org/1999/xlink" xml:space="preserve" onload="init(evt)">
        <defs>
                <circle id="rim" cx="0" cy="0" r="7"/>
                <circle id="rim2" cx="0" cy="0" r="3.5"/>
                <g id="zoomPlus">
                        <use xlink:href="#rim" fill="#404040">
                                <set attributeName="fill" to="#808080" begin="zoomplus.mouseover" end="zoomplus.mouseout"/>
                        </use>
                        <path d="M-4,0h8M0,-4v8" fill="none" stroke="white" stroke-width="1.5" pointer-events="none"/>
                </g>
                <g id="zoomMin">
                        <use xlink:href="#rim" fill="#404040">
                                <set attributeName="fill" to="#808080" begin="zoomminus.mouseover" end="zoomminus.mouseout"/>
                        </use>
                        <path d="M-4,0h8" fill="none" stroke="white" stroke-width="1.5" pointer-events="none"/>
                </g>
                <g id="dirArrow">
                        <path fill="none" stroke="white" stroke-width="1.5" d="M0,-3.0v7 M-2.5,-0.5L0,-3.0L2.5,-0.5"/>
                </g>
               <g id="resetDef">
                       <use xlink:href="#rim2" fill="#404040">
                               <set attributeName="fill" to="#808080" begin="reset.mouseover" end="reset.mouseout"/>
                       </use>
               </g>
        </defs>

<script type="text/javascript">
var viewWidth = 1934;
var viewHeight = 341;
var sectionId = 'dynsection-6';
</script>
<script xlink:href="../../svgpan.js"/>
<svg id="graph" class="graph">
<g id="viewport">
<title>G</title>
<!-- Node1 -->
<g id="node1" class="node"><title>Node1</title>
<polygon fill="#bfbfbf" stroke="black" points="0.5,-204.5 0.5,-223.5 89.5,-223.5 89.5,-204.5 0.5,-204.5"/>
<text text-anchor="middle" x="45" y="-211.5" font-family="DejaVuSansMono" font-size="10.00">stanza_tostr</text>
</g>
<!-- Node2 -->
<g id="node3" class="node"><title>Node2</title>
<a xlink:href="../../dd/d21/xmpp__stanza_8h.html#a513b6e2da3dce364271ba9315d7b3d95" target="_top" xlink:title="Returns the stanza (and its children) packed into a null&#45;terminated string.">
<polygon fill="none" stroke="black" points="126.5,-204.5 126.5,-223.5 251.5,-223.5 251.5,-204.5 126.5,-204.5"/>
<text text-anchor="middle" x="189" y="-211.5" font-family="DejaVuSansMono" font-size="10.00">xmpp_stanza_string</text>
</a>
</g>
<!-- Node1&#45;&gt;Node2 -->
<g id="edge2" class="edge"><title>Node1&#45;&gt;Node2</title>
<path fill="none" stroke="midnightblue" d="M100.047,-214C108.65,-214 117.607,-214 126.37,-214"/>
<polygon fill="midnightblue" stroke="midnightblue" points="99.7634,-210.5 89.7634,-214 99.7633,-217.5 99.7634,-210.5"/>
</g>
<!-- Node3 -->
<g id="node5" class="node"><title>Node3</title>
<a xlink:href="../../d6/d78/xmp3__multicast_8c.html#a3ef84feef94d4ad6045cd45fd91b531c" target="_top" xlink:title="local_stanza_handler">
<polygon fill="none" stroke="black" points="294.5,-280.5 294.5,-299.5 431.5,-299.5 431.5,-280.5 294.5,-280.5"/>
<text text-anchor="middle" x="363" y="-287.5" font-family="DejaVuSansMono" font-size="10.00">local_stanza_handler</text>
</a>
</g>
<!-- Node2&#45;&gt;Node3 -->
<g id="edge4" class="edge"><title>Node2&#45;&gt;Node3</title>
<path fill="none" stroke="midnightblue" d="M221.372,-227.862C255.869,-243.105 310.376,-267.19 340.393,-280.453"/>
<polygon fill="midnightblue" stroke="midnightblue" points="222.345,-224.466 211.784,-223.625 219.516,-230.869 222.345,-224.466"/>
</g>
<!-- Node6 -->
<g id="node11" class="node"><title>Node6</title>
<a xlink:href="../../d8/d28/xmpp__core_8h.html#a3b41e83061abd7ed5b258c7aa7dda0d6" target="_top" xlink:title="An xmpp_server stanza route for stanzas directed to a local client.">
<polygon fill="none" stroke="black" points="288.5,-114.5 288.5,-133.5 437.5,-133.5 437.5,-114.5 288.5,-114.5"/>
<text text-anchor="middle" x="363" y="-121.5" font-family="DejaVuSansMono" font-size="10.00">xmpp_core_route_client</text>
</a>
</g>
<!-- Node2&#45;&gt;Node6 -->
<g id="edge10" class="edge"><title>Node2&#45;&gt;Node6</title>
<path fill="none" stroke="midnightblue" d="M217.696,-199.508C253.139,-180.962 313.553,-149.35 343.725,-133.562"/>
<polygon fill="midnightblue" stroke="midnightblue" points="215.645,-196.631 208.407,-204.368 218.89,-202.833 215.645,-196.631"/>
</g>
<!-- Node21 -->
<g id="node48" class="node"><title>Node21</title>
<a xlink:href="../../d1/dc2/xmpp__parser_8c.html#a2268b636f6d02bbe04f3033ff93d829c" target="_top" xlink:title="Expat callback for the start of an XMPP stream.">
<polygon fill="none" stroke="black" points="318.5,-223.5 318.5,-242.5 407.5,-242.5 407.5,-223.5 318.5,-223.5"/>
<text text-anchor="middle" x="363" y="-230.5" font-family="DejaVuSansMono" font-size="10.00">stream_start</text>
</a>
</g>
<!-- Node2&#45;&gt;Node21 -->
<g id="edge54" class="edge"><title>Node2&#45;&gt;Node21</title>
<path fill="none" stroke="midnightblue" d="M261.573,-221.906C280.84,-224.035 301.1,-226.273 318.337,-228.177"/>
<polygon fill="midnightblue" stroke="midnightblue" points="261.934,-218.425 251.61,-220.806 261.165,-225.383 261.934,-218.425"/>
</g>
<!-- Node28 -->
<g id="node66" class="node"><title>Node28</title>
<a xlink:href="../../d1/dc2/xmpp__parser_8c.html#adc3f7670edafd5b590af11d276887f1e" target="_top" xlink:title="Expat callback for end elements.">
<polygon fill="none" stroke="black" points="345.5,-185.5 345.5,-204.5 380.5,-204.5 380.5,-185.5 345.5,-185.5"/>
<text text-anchor="middle" x="363" y="-192.5" font-family="DejaVuSansMono" font-size="10.00">end</text>
</a>
</g>
<!-- Node2&#45;&gt;Node28 -->
<g id="edge76" class="edge"><title>Node2&#45;&gt;Node28</title>
<path fill="none" stroke="midnightblue" d="M261.914,-206.056C292.644,-202.661 325.842,-198.994 345.23,-196.852"/>
<polygon fill="midnightblue" stroke="midnightblue" points="261.165,-202.617 251.61,-207.194 261.934,-209.575 261.165,-202.617"/>
</g>
<!-- Node4 -->
<g id="node7" class="node"><title>Node4</title>
<a xlink:href="../../d6/d78/xmp3__multicast_8c.html#a991c928ab73b350c4b7029352e91a219" target="_top" xlink:title="multicast_start">
<polygon fill="none" stroke="black" points="1080.5,-304.5 1080.5,-323.5 1187.5,-323.5 1187.5,-304.5 1080.5,-304.5"/>
<text text-anchor="middle" x="1134" y="-311.5" font-family="DejaVuSansMono" font-size="10.00">multicast_start</text>
</a>
</g>
<!-- Node3&#45;&gt;Node4 -->
<g id="edge6" class="edge"><title>Node3&#45;&gt;Node4</title>
<path fill="none" stroke="midnightblue" d="M415.549,-301.69C476.297,-314.423 580.441,-333 671,-333 671,-333 671,-333 829,-333 917.311,-333 1019.77,-324.915 1080.34,-319.293"/>
<polygon fill="midnightblue" stroke="midnightblue" points="415.963,-298.199 405.453,-299.543 414.507,-305.046 415.963,-298.199"/>
</g>
<!-- Node5 -->
<g id="node9" class="node"><title>Node5</title>
<a xlink:href="../../d6/d78/xmp3__multicast_8c.html#ad161abeabc58820fd3a24b4422c5b9a7" target="_top" xlink:title="multicast_stop">
<polygon fill="none" stroke="black" points="474.5,-280.5 474.5,-299.5 575.5,-299.5 575.5,-280.5 474.5,-280.5"/>
<text text-anchor="middle" x="525" y="-287.5" font-family="DejaVuSansMono" font-size="10.00">multicast_stop</text>
</a>
</g>
<!-- Node3&#45;&gt;Node5 -->
<g id="edge8" class="edge"><title>Node3&#45;&gt;Node5</title>
<path fill="none" stroke="midnightblue" d="M441.978,-290C453.045,-290 464.163,-290 474.484,-290"/>
<polygon fill="midnightblue" stroke="midnightblue" points="441.854,-286.5 431.854,-290 441.854,-293.5 441.854,-286.5"/>
</g>
<!-- Node7 -->
<g id="node13" class="node"><title>Node7</title>
<a xlink:href="../../df/da9/xmpp__auth_8c.html#a603b4a63af3c4e4af99442805fe89ae8" target="_top" xlink:title="Step 15: Client binds a resource.">
<polygon fill="none" stroke="black" points="474.5,-133.5 474.5,-152.5 575.5,-152.5 575.5,-133.5 474.5,-133.5"/>
<text text-anchor="middle" x="525" y="-140.5" font-family="DejaVuSansMono" font-size="10.00">handle_bind_iq</text>
</a>
</g>
<!-- Node6&#45;&gt;Node7 -->
<g id="edge12" class="edge"><title>Node6&#45;&gt;Node7</title>
<path fill="none" stroke="midnightblue" d="M448.006,-133.976C456.943,-135.037 465.813,-136.09 474.168,-137.082"/>
<polygon fill="midnightblue" stroke="midnightblue" points="448.254,-130.481 437.911,-132.777 447.429,-137.432 448.254,-130.481"/>
</g>
<!-- Node17 -->
<g id="node34" class="node"><title>Node17</title>
<a xlink:href="../../d4/d2f/xmpp__client_8h.html#add2df61245a543667b6d98e3fcd57077" target="_top" xlink:title="xmpp_client_del">
<polygon fill="none" stroke="black" points="1080.5,-19.5 1080.5,-38.5 1187.5,-38.5 1187.5,-19.5 1080.5,-19.5"/>
<text text-anchor="middle" x="1134" y="-26.5" font-family="DejaVuSansMono" font-size="10.00">xmpp_client_del</text>
</a>
</g>
<!-- Node6&#45;&gt;Node17 -->
<g id="edge34" class="edge"><title>Node6&#45;&gt;Node17</title>
<path fill="none" stroke="midnightblue" d="M447.806,-116.01C509.473,-110.814 595.376,-105 671,-105 671,-105 671,-105 829,-105 937.26,-105 1060.91,-59.076 1110.6,-38.6255"/>
<polygon fill="midnightblue" stroke="midnightblue" points="447.404,-112.532 437.739,-116.871 448,-119.506 447.404,-112.532"/>
</g>
<!-- Node8 -->
<g id="node15" class="node"><title>Node8</title>
<a xlink:href="../../df/da9/xmpp__auth_8c.html#a01804bd53eccc182ce76337fc0863e8d" target="_top" xlink:title="stream_bind_start">
<polygon fill="none" stroke="black" points="612.5,-133.5 612.5,-152.5 731.5,-152.5 731.5,-133.5 612.5,-133.5"/>
<text text-anchor="middle" x="672" y="-140.5" font-family="DejaVuSansMono" font-size="10.00">stream_bind_start</text>
</a>
</g>
<!-- Node7&#45;&gt;Node8 -->
<g id="edge14" class="edge"><title>Node7&#45;&gt;Node8</title>
<path fill="none" stroke="midnightblue" d="M585.961,-143C594.655,-143 603.597,-143 612.266,-143"/>
<polygon fill="midnightblue" stroke="midnightblue" points="585.901,-139.5 575.901,-143 585.901,-146.5 585.901,-139.5"/>
</g>
<!-- Node9 -->
<g id="node17" class="node"><title>Node9</title>
<a xlink:href="../../df/da9/xmpp__auth_8c.html#afb770a216868aa3fb43813b19d2a0115" target="_top" xlink:title="Begins SASL PLAIN authentication.">
<polygon fill="none" stroke="black" points="768.5,-133.5 768.5,-152.5 887.5,-152.5 887.5,-133.5 768.5,-133.5"/>
<text text-anchor="middle" x="828" y="-140.5" font-family="DejaVuSansMono" font-size="10.00">handle_sasl_plain</text>
</a>
</g>
<!-- Node8&#45;&gt;Node9 -->
<g id="edge16" class="edge"><title>Node8&#45;&gt;Node9</title>
<path fill="none" stroke="midnightblue" d="M741.894,-143C750.691,-143 759.631,-143 768.248,-143"/>
<polygon fill="midnightblue" stroke="midnightblue" points="741.66,-139.5 731.66,-143 741.66,-146.5 741.66,-139.5"/>
</g>
<!-- Node10 -->
<g id="node19" class="node"><title>Node10</title>
<a xlink:href="../../d3/d24/xmpp__auth_8h.html#ad3efd9ab093646bdfd8832c34ae2de4d" target="_top" xlink:title="Handler for the inital stream start to begin authentication.">
<polygon fill="none" stroke="black" points="1245.5,-133.5 1245.5,-152.5 1394.5,-152.5 1394.5,-133.5 1245.5,-133.5"/>
<text text-anchor="middle" x="1320" y="-140.5" font-family="DejaVuSansMono" font-size="10.00">xmpp_auth_stream_start</text>
</a>
</g>
<!-- Node9&#45;&gt;Node10 -->
<g id="edge18" class="edge"><title>Node9&#45;&gt;Node10</title>
<path fill="none" stroke="midnightblue" d="M877.54,-154.625C892.362,-157.655 908.769,-160.492 924,-162 1040.76,-173.562 1070.97,-170.443 1188,-162 1213.67,-160.148 1241.96,-156.28 1265.65,-152.514"/>
<polygon fill="midnightblue" stroke="midnightblue" points="878.074,-151.16 867.565,-152.51 876.622,-158.008 878.074,-151.16"/>
</g>
<!-- Node15 -->
<g id="node29" class="node"><title>Node15</title>
<a xlink:href="../../df/da9/xmpp__auth_8c.html#afd7b12689591d40109a88ad108b5c3a2" target="_top" xlink:title="stream_sasl_start">
<polygon fill="none" stroke="black" points="924.5,-133.5 924.5,-152.5 1043.5,-152.5 1043.5,-133.5 924.5,-133.5"/>
<text text-anchor="middle" x="984" y="-140.5" font-family="DejaVuSansMono" font-size="10.00">stream_sasl_start</text>
</a>
</g>
<!-- Node9&#45;&gt;Node15 -->
<g id="edge28" class="edge"><title>Node9&#45;&gt;Node15</title>
<path fill="none" stroke="midnightblue" d="M897.894,-143C906.691,-143 915.631,-143 924.248,-143"/>
<polygon fill="midnightblue" stroke="midnightblue" points="897.66,-139.5 887.66,-143 897.66,-146.5 897.66,-139.5"/>
</g>
<!-- Node11 -->
<g id="node21" class="node"><title>Node11</title>
<a xlink:href="../../d4/d2f/xmpp__client_8h.html#a1619c0b8f58b2cf09a322bf34fbc3414" target="_top" xlink:title="xmpp_client_new">
<polygon fill="none" stroke="black" points="1452.5,-57.5 1452.5,-76.5 1559.5,-76.5 1559.5,-57.5 1452.5,-57.5"/>
<text text-anchor="middle" x="1506" y="-64.5" font-family="DejaVuSansMono" font-size="10.00">xmpp_client_new</text>
</a>
</g>
<!-- Node10&#45;&gt;Node11 -->
<g id="edge20" class="edge"><title>Node10&#45;&gt;Node11</title>
<path fill="none" stroke="midnightblue" d="M1402.79,-130.148C1407.37,-128.357 1411.8,-126.319 1416,-124 1436.36,-112.746 1432.52,-98.7167 1452,-86 1457.73,-82.2599 1464.29,-79.1445 1470.79,-76.5919"/>
<polygon fill="midnightblue" stroke="midnightblue" points="1401.52,-126.883 1393.24,-133.488 1403.83,-133.491 1401.52,-126.883"/>
</g>
<!-- Node12 -->
<g id="node23" class="node"><title>Node12</title>
<a xlink:href="../../d0/df0/xmpp__server_8c.html#a66363912ef1221a2574f9f99805fe8fd" target="_top" xlink:title="Callback for new client connections.">
<polygon fill="none" stroke="black" points="1599.5,-47.5 1599.5,-66.5 1700.5,-66.5 1700.5,-47.5 1599.5,-47.5"/>
<text text-anchor="middle" x="1650" y="-54.5" font-family="DejaVuSansMono" font-size="10.00">connect_client</text>
</a>
</g>
<!-- Node11&#45;&gt;Node12 -->
<g id="edge22" class="edge"><title>Node11&#45;&gt;Node12</title>
<path fill="none" stroke="midnightblue" d="M1570.02,-62.5622C1579.85,-61.8696 1589.89,-61.1625 1599.37,-60.4949"/>
<polygon fill="midnightblue" stroke="midnightblue" points="1569.6,-59.0824 1559.88,-63.2764 1570.1,-66.0651 1569.6,-59.0824"/>
</g>
<!-- Node13 -->
<g id="node25" class="node"><title>Node13</title>
<a xlink:href="../../d1/d2e/xmpp__server_8h.html#a27bfc8e4d424a8bc17ab21a4a09cdf92" target="_top" xlink:title="Allocates and initializes the XMPP server.">
<polygon fill="none" stroke="black" points="1740.5,-38.5 1740.5,-57.5 1847.5,-57.5 1847.5,-38.5 1740.5,-38.5"/>
<text text-anchor="middle" x="1794" y="-45.5" font-family="DejaVuSansMono" font-size="10.00">xmpp_server_new</text>
</a>
</g>
<!-- Node12&#45;&gt;Node13 -->
<g id="edge24" class="edge"><title>Node12&#45;&gt;Node13</title>
<path fill="none" stroke="midnightblue" d="M1710.73,-53.2141C1720.53,-52.5933 1730.62,-51.954 1740.23,-51.3449"/>
<polygon fill="midnightblue" stroke="midnightblue" points="1710.42,-49.7266 1700.66,-53.8522 1710.87,-56.7126 1710.42,-49.7266"/>
</g>
<!-- Node14 -->
<g id="node27" class="node"><title>Node14</title>
<a xlink:href="../../d0/d29/main_8c.html#a0ddf1224851353fc92bfbff6f499fa97" target="_top" xlink:title="main">
<polygon fill="none" stroke="black" points="1884.5,-19.5 1884.5,-38.5 1925.5,-38.5 1925.5,-19.5 1884.5,-19.5"/>
<text text-anchor="middle" x="1905" y="-26.5" font-family="DejaVuSansMono" font-size="10.00">main</text>
</a>
</g>
<!-- Node13&#45;&gt;Node14 -->
<g id="edge26" class="edge"><title>Node13&#45;&gt;Node14</title>
<path fill="none" stroke="midnightblue" d="M1857.45,-37.1151C1867.24,-35.4082 1876.68,-33.7622 1884.47,-32.404"/>
<polygon fill="midnightblue" stroke="midnightblue" points="1856.83,-33.6686 1847.58,-38.8339 1858.04,-40.5646 1856.83,-33.6686"/>
</g>
<!-- Node16 -->
<g id="node31" class="node"><title>Node16</title>
<a xlink:href="../../df/da9/xmpp__auth_8c.html#a8dd789e057b9812e4dd1aa524dfb6a65" target="_top" xlink:title="Begins TLS authentication.">
<polygon fill="none" stroke="black" points="1080.5,-133.5 1080.5,-152.5 1187.5,-152.5 1187.5,-133.5 1080.5,-133.5"/>
<text text-anchor="middle" x="1134" y="-140.5" font-family="DejaVuSansMono" font-size="10.00">handle_starttls</text>
</a>
</g>
<!-- Node15&#45;&gt;Node16 -->
<g id="edge30" class="edge"><title>Node15&#45;&gt;Node16</title>
<path fill="none" stroke="midnightblue" d="M1054.09,-143C1062.81,-143 1071.62,-143 1080.04,-143"/>
<polygon fill="midnightblue" stroke="midnightblue" points="1053.92,-139.5 1043.92,-143 1053.92,-146.5 1053.92,-139.5"/>
</g>
<!-- Node16&#45;&gt;Node10 -->
<g id="edge32" class="edge"><title>Node16&#45;&gt;Node10</title>
<path fill="none" stroke="midnightblue" d="M1198.06,-143C1213.29,-143 1229.69,-143 1245.36,-143"/>
<polygon fill="midnightblue" stroke="midnightblue" points="1197.73,-139.5 1187.73,-143 1197.73,-146.5 1197.73,-139.5"/>
</g>
<!-- Node17&#45;&gt;Node11 -->
<g id="edge36" class="edge"><title>Node17&#45;&gt;Node11</title>
<path fill="none" stroke="midnightblue" d="M1197.54,-39.4092C1206.41,-40.7185 1215.43,-41.9608 1224,-43 1303.35,-52.6174 1395.77,-59.7286 1452.32,-63.619"/>
<polygon fill="midnightblue" stroke="midnightblue" points="1198.03,-35.9439 1187.62,-37.9096 1196.99,-42.8652 1198.03,-35.9439"/>
</g>
<!-- Node17&#45;&gt;Node12 -->
<g id="edge52" class="edge"><title>Node17&#45;&gt;Node12</title>
<path fill="none" stroke="midnightblue" d="M1197.75,-30.7046C1280.73,-33.2106 1431.48,-38.6362 1560,-48 1572.7,-48.9254 1586.4,-50.1813 1599.15,-51.4611"/>
<polygon fill="midnightblue" stroke="midnightblue" points="1197.83,-27.2054 1187.73,-30.4062 1197.62,-34.2023 1197.83,-27.2054"/>
</g>
<!-- Node18 -->
<g id="node37" class="node"><title>Node18</title>
<a xlink:href="../../d1/d2e/xmpp__server_8h.html#af7d75415fd5671841797bf77bbc1a981" target="_top" xlink:title="Cleans up an XMPP server instance.">
<polygon fill="none" stroke="black" points="1596.5,-0.5 1596.5,-19.5 1703.5,-19.5 1703.5,-0.5 1596.5,-0.5"/>
<text text-anchor="middle" x="1650" y="-7.5" font-family="DejaVuSansMono" font-size="10.00">xmpp_server_del</text>
</a>
</g>
<!-- Node17&#45;&gt;Node18 -->
<g id="edge38" class="edge"><title>Node17&#45;&gt;Node18</title>
<path fill="none" stroke="midnightblue" d="M1197.48,-18.0087C1206.36,-16.7866 1215.39,-15.7237 1224,-15 1357.64,-3.76185 1515.74,-5.96077 1596.21,-8.1817"/>
<polygon fill="midnightblue" stroke="midnightblue" points="1196.95,-14.5488 1187.56,-19.4464 1197.95,-21.4765 1196.95,-14.5488"/>
</g>
<!-- Node19 -->
<g id="node41" class="node"><title>Node19</title>
<a xlink:href="../../d1/d2e/xmpp__server_8h.html#a79e02871228c509de0c70961d74a1bcb" target="_top" xlink:title="Attempt to cleanly disconnect a client, and clean up its resources.">
<polygon fill="none" stroke="black" points="1224.5,-95.5 1224.5,-114.5 1415.5,-114.5 1415.5,-95.5 1224.5,-95.5"/>
<text text-anchor="middle" x="1320" y="-102.5" font-family="DejaVuSansMono" font-size="10.00">xmpp_server_disconnect_client</text>
</a>
</g>
<!-- Node17&#45;&gt;Node19 -->
<g id="edge44" class="edge"><title>Node17&#45;&gt;Node19</title>
<path fill="none" stroke="midnightblue" d="M1168.73,-42.8275C1175.27,-45.9079 1181.96,-49.3524 1188,-53 1205.35,-63.4757 1205.79,-72.1059 1224,-81 1236.69,-87.1954 1251.13,-91.8963 1264.87,-95.4205"/>
<polygon fill="midnightblue" stroke="midnightblue" points="1169.91,-39.5204 1159.35,-38.5936 1167.03,-45.8998 1169.91,-39.5204"/>
</g>
<!-- Node18&#45;&gt;Node13 -->
<g id="edge42" class="edge"><title>Node18&#45;&gt;Node13</title>
<path fill="none" stroke="midnightblue" d="M1696.49,-22.1742C1716.13,-27.4287 1738.77,-33.4866 1757.18,-38.4141"/>
<polygon fill="midnightblue" stroke="midnightblue" points="1697.4,-18.7931 1686.83,-19.589 1695.59,-25.5552 1697.4,-18.7931"/>
</g>
<!-- Node18&#45;&gt;Node14 -->
<g id="edge40" class="edge"><title>Node18&#45;&gt;Node14</title>
<path fill="none" stroke="midnightblue" d="M1713.9,-14.7236C1769.84,-18.9246 1848.21,-24.81 1884.34,-27.5233"/>
<polygon fill="midnightblue" stroke="midnightblue" points="1713.96,-11.2187 1703.73,-13.9599 1713.44,-18.199 1713.96,-11.2187"/>
</g>
<!-- Node19&#45;&gt;Node6 -->
<g id="edge46" class="edge"><title>Node19&#45;&gt;Node6</title>
<path fill="none" stroke="midnightblue" d="M1257.48,-93.7713C1190.65,-82.5647 1080.62,-67 985,-67 671,-67 671,-67 671,-67 568.273,-67 449.41,-98.233 394.589,-114.459"/>
<polygon fill="midnightblue" stroke="midnightblue" points="1256.98,-97.2361 1267.43,-95.46 1258.15,-90.335 1256.98,-97.2361"/>
</g>
<!-- Node20 -->
<g id="node44" class="node"><title>Node20</title>
<a xlink:href="../../d0/df0/xmpp__server_8c.html#abece91815ef240322d79073f5bfca1db" target="_top" xlink:title="Callback for new data from a client.">
<polygon fill="none" stroke="black" points="1464.5,-95.5 1464.5,-114.5 1547.5,-114.5 1547.5,-95.5 1464.5,-95.5"/>
<text text-anchor="middle" x="1506" y="-102.5" font-family="DejaVuSansMono" font-size="10.00">read_client</text>
</a>
</g>
<!-- Node19&#45;&gt;Node20 -->
<g id="edge48" class="edge"><title>Node19&#45;&gt;Node20</title>
<path fill="none" stroke="midnightblue" d="M1426.07,-105C1439.56,-105 1452.68,-105 1464.21,-105"/>
<polygon fill="midnightblue" stroke="midnightblue" points="1425.7,-101.5 1415.69,-105 1425.69,-108.5 1425.7,-101.5"/>
</g>
<!-- Node20&#45;&gt;Node12 -->
<g id="edge50" class="edge"><title>Node20&#45;&gt;Node12</title>
<path fill="none" stroke="midnightblue" d="M1545.15,-92.103C1568.92,-84.0677 1599,-73.9025 1620.65,-66.5815"/>
<polygon fill="midnightblue" stroke="midnightblue" points="1543.75,-88.8838 1535.39,-95.4018 1545.99,-95.5152 1543.75,-88.8838"/>
</g>
<!-- Node22 -->
<g id="node50" class="node"><title>Node22</title>
<a xlink:href="../../d1/dc2/xmpp__parser_8c.html#a03a135f29e3d4e01abbb60e53ac6967c" target="_top" xlink:title="init_parser">
<polygon fill="none" stroke="black" points="483.5,-214.5 483.5,-233.5 566.5,-233.5 566.5,-214.5 483.5,-214.5"/>
<text text-anchor="middle" x="525" y="-221.5" font-family="DejaVuSansMono" font-size="10.00">init_parser</text>
</a>
</g>
<!-- Node21&#45;&gt;Node22 -->
<g id="edge56" class="edge"><title>Node21&#45;&gt;Node22</title>
<path fill="none" stroke="midnightblue" d="M417.96,-229.965C439.337,-228.762 463.499,-227.403 483.354,-226.286"/>
<polygon fill="midnightblue" stroke="midnightblue" points="417.508,-226.485 407.721,-230.541 417.902,-233.473 417.508,-226.485"/>
</g>
<!-- Node23 -->
<g id="node52" class="node"><title>Node23</title>
<a xlink:href="../../d8/d55/xmpp__parser_8h.html#adf25a1d2047994dfa6cc71a9482548c2" target="_top" xlink:title="xmpp_parser_new">
<polygon fill="none" stroke="black" points="618.5,-209.5 618.5,-228.5 725.5,-228.5 725.5,-209.5 618.5,-209.5"/>
<text text-anchor="middle" x="672" y="-216.5" font-family="DejaVuSansMono" font-size="10.00">xmpp_parser_new</text>
</a>
</g>
<!-- Node22&#45;&gt;Node23 -->
<g id="edge58" class="edge"><title>Node22&#45;&gt;Node23</title>
<path fill="none" stroke="midnightblue" d="M576.809,-222.248C590.253,-221.784 604.793,-221.283 618.334,-220.816"/>
<polygon fill="midnightblue" stroke="midnightblue" points="576.65,-218.751 566.776,-222.594 576.891,-225.747 576.65,-218.751"/>
</g>
<!-- Node25 -->
<g id="node57" class="node"><title>Node25</title>
<a xlink:href="../../d8/d55/xmpp__parser_8h.html#af5e1eb5bbef0496c3543bd35113766ac" target="_top" xlink:title="Reset the state of the parser as if it was just created.">
<polygon fill="none" stroke="black" points="612.5,-247.5 612.5,-266.5 731.5,-266.5 731.5,-247.5 612.5,-247.5"/>
<text text-anchor="middle" x="672" y="-254.5" font-family="DejaVuSansMono" font-size="10.00">xmpp_parser_reset</text>
</a>
</g>
<!-- Node22&#45;&gt;Node25 -->
<g id="edge64" class="edge"><title>Node22&#45;&gt;Node25</title>
<path fill="none" stroke="midnightblue" d="M576.614,-235.519C593.731,-239.415 612.644,-243.719 629.017,-247.445"/>
<polygon fill="midnightblue" stroke="midnightblue" points="577.304,-232.087 566.776,-233.28 575.75,-238.912 577.304,-232.087"/>
</g>
<!-- Node23&#45;&gt;Node11 -->
<g id="edge62" class="edge"><title>Node23&#45;&gt;Node11</title>
<path fill="none" stroke="midnightblue" d="M735.769,-219C798.392,-219 897.351,-219 983,-219 983,-219 983,-219 1135,-219 1262.43,-219 1315.66,-240.561 1416,-162 1445.43,-138.958 1424.31,-111.1 1452,-86 1456.27,-82.127 1461.39,-79.03 1466.74,-76.557"/>
<polygon fill="midnightblue" stroke="midnightblue" points="735.657,-215.5 725.657,-219 735.657,-222.5 735.657,-215.5"/>
</g>
<!-- Node24 -->
<g id="node54" class="node"><title>Node24</title>
<a xlink:href="../../d6/d78/xmp3__multicast_8c.html#a08afc39c59ec9297d756a99c395eff3c" target="_top" xlink:title="multicast_new">
<polygon fill="none" stroke="black" points="780.5,-171.5 780.5,-190.5 875.5,-190.5 875.5,-171.5 780.5,-171.5"/>
<text text-anchor="middle" x="828" y="-178.5" font-family="DejaVuSansMono" font-size="10.00">multicast_new</text>
</a>
</g>
<!-- Node23&#45;&gt;Node24 -->
<g id="edge60" class="edge"><title>Node23&#45;&gt;Node24</title>
<path fill="none" stroke="midnightblue" d="M721.794,-206.96C743.308,-201.651 768.232,-195.501 788.419,-190.52"/>
<polygon fill="midnightblue" stroke="midnightblue" points="720.731,-203.617 711.861,-209.411 722.408,-210.413 720.731,-203.617"/>
</g>
<!-- Node26 -->
<g id="node59" class="node"><title>Node26</title>
<a xlink:href="../../d6/d78/xmp3__multicast_8c.html#a9865e8026fb8ee000629fc1da465716d" target="_top" xlink:title="socket_handler">
<polygon fill="none" stroke="black" points="933.5,-285.5 933.5,-304.5 1034.5,-304.5 1034.5,-285.5 933.5,-285.5"/>
<text text-anchor="middle" x="984" y="-292.5" font-family="DejaVuSansMono" font-size="10.00">socket_handler</text>
</a>
</g>
<!-- Node25&#45;&gt;Node26 -->
<g id="edge66" class="edge"><title>Node25&#45;&gt;Node26</title>
<path fill="none" stroke="midnightblue" d="M725.244,-268.514C739.092,-271.273 754.067,-273.997 768,-276 824.378,-284.104 889.603,-289.283 933.294,-292.153"/>
<polygon fill="midnightblue" stroke="midnightblue" points="725.888,-265.073 715.391,-266.508 724.492,-271.933 725.888,-265.073"/>
</g>
<!-- Node27 -->
<g id="node62" class="node"><title>Node27</title>
<a xlink:href="../../d8/d55/xmpp__parser_8h.html#a578b7a9a50212eb204a86789001287af" target="_top" xlink:title="xmpp_parser_parse">
<polygon fill="none" stroke="black" points="768.5,-247.5 768.5,-266.5 887.5,-266.5 887.5,-247.5 768.5,-247.5"/>
<text text-anchor="middle" x="828" y="-254.5" font-family="DejaVuSansMono" font-size="10.00">xmpp_parser_parse</text>
</a>
</g>
<!-- Node25&#45;&gt;Node27 -->
<g id="edge70" class="edge"><title>Node25&#45;&gt;Node27</title>
<path fill="none" stroke="midnightblue" d="M741.894,-257C750.691,-257 759.631,-257 768.248,-257"/>
<polygon fill="midnightblue" stroke="midnightblue" points="741.66,-253.5 731.66,-257 741.66,-260.5 741.66,-253.5"/>
</g>
<!-- Node26&#45;&gt;Node4 -->
<g id="edge68" class="edge"><title>Node26&#45;&gt;Node4</title>
<path fill="none" stroke="midnightblue" d="M1044.87,-302.686C1056.64,-304.196 1068.89,-305.77 1080.4,-307.247"/>
<polygon fill="midnightblue" stroke="midnightblue" points="1045.06,-299.181 1034.69,-301.38 1044.17,-306.125 1045.06,-299.181"/>
</g>
<!-- Node27&#45;&gt;Node20 -->
<g id="edge74" class="edge"><title>Node27&#45;&gt;Node20</title>
<path fill="none" stroke="midnightblue" d="M897.909,-261.692C1033.37,-269.712 1328.75,-280.895 1416,-233 1464.88,-206.169 1492.72,-139.636 1501.73,-114.671"/>
<polygon fill="midnightblue" stroke="midnightblue" points="897.847,-258.182 887.654,-261.073 897.425,-265.169 897.847,-258.182"/>
</g>
<!-- Node27&#45;&gt;Node26 -->
<g id="edge72" class="edge"><title>Node27&#45;&gt;Node26</title>
<path fill="none" stroke="midnightblue" d="M877.794,-269.04C899.308,-274.349 924.232,-280.499 944.419,-285.48"/>
<polygon fill="midnightblue" stroke="midnightblue" points="878.408,-265.587 867.861,-266.589 876.731,-272.383 878.408,-265.587"/>
</g>
<!-- Node28&#45;&gt;Node22 -->
<g id="edge78" class="edge"><title>Node28&#45;&gt;Node22</title>
<path fill="none" stroke="midnightblue" d="M390.467,-199.797C415.706,-204.372 454.081,-211.327 483.226,-216.61"/>
<polygon fill="midnightblue" stroke="midnightblue" points="390.984,-196.334 380.52,-197.994 389.736,-203.222 390.984,-196.334"/>
</g>
</g>
</svg>
        <g id="navigator" transform="translate(0 0)" fill="#404254">
                <rect fill="#f2f5e9" fill-opacity="0.5" stroke="#606060" stroke-width=".5" x="0" y="0" width="60" height="60"/>
                <use id="zoomplus" xlink:href="#zoomPlus" x="17" y="9" onmousedown="handleZoom(evt,'in')"/>
                <use id="zoomminus" xlink:href="#zoomMin" x="42" y="9" onmousedown="handleZoom(evt,'out')"/>
                <use id="reset" xlink:href="#resetDef" x="30" y="36" onmousedown="handleReset()"/>
                <g id="arrowUp" xlink:href="#dirArrow" transform="translate(30 24)" onmousedown="handlePan(0,-1)">
                  <use xlink:href="#rim" fill="#404040">
                        <set attributeName="fill" to="#808080" begin="arrowUp.mouseover" end="arrowUp.mouseout"/>
                  </use>
                  <path fill="none" stroke="white" stroke-width="1.5" d="M0,-3.0v7 M-2.5,-0.5L0,-3.0L2.5,-0.5"/>
                </g>
                <g id="arrowRight" xlink:href="#dirArrow" transform="rotate(90) translate(36 -43)" onmousedown="handlePan(1,0)">
                  <use xlink:href="#rim" fill="#404040">
                        <set attributeName="fill" to="#808080" begin="arrowRight.mouseover" end="arrowRight.mouseout"/>
                  </use>
                  <path fill="none" stroke="white" stroke-width="1.5" d="M0,-3.0v7 M-2.5,-0.5L0,-3.0L2.5,-0.5"/>
                </g>
                <g id="arrowDown" xlink:href="#dirArrow" transform="rotate(180) translate(-30 -48)" onmousedown="handlePan(0,1)">
                  <use xlink:href="#rim" fill="#404040">
                        <set attributeName="fill" to="#808080" begin="arrowDown.mouseover" end="arrowDown.mouseout"/>
                  </use>
                  <path fill="none" stroke="white" stroke-width="1.5" d="M0,-3.0v7 M-2.5,-0.5L0,-3.0L2.5,-0.5"/>
                </g>
                <g id="arrowLeft" xlink:href="#dirArrow" transform="rotate(270) translate(-36 17)" onmousedown="handlePan(-1,0)">
                  <use xlink:href="#rim" fill="#404040">
                        <set attributeName="fill" to="#808080" begin="arrowLeft.mouseover" end="arrowLeft.mouseout"/>
                  </use>
                  <path fill="none" stroke="white" stroke-width="1.5" d="M0,-3.0v7 M-2.5,-0.5L0,-3.0L2.5,-0.5"/>
                </g>
        </g>
        <svg viewBox="0 0 25 25" width="100%" height="30px" preserveAspectRatio="xMaxYMin meet"> 
          <g id="printButton" transform="scale(0.4 0.4)" onmousedown="handlePrint(evt)">
            <rect height="23.33753581" id="paper" rx="2" style="fill:#f2f5e9;fill-rule:evenodd;stroke:#111111;stroke-width:3.224;stroke-linejoin:round;" transform="matrix(1.000000,0.000000,-0.339266,0.940691,0.000000,0.000000)" width="25.55231285" x="26.69387353" y="7.36162977"/>
            <rect height="26.272097" id="body" rx="2" style="fill:#404040;fill-rule:evenodd;stroke:#111111;stroke-width:3.125;stroke-linejoin:round;" width="50" x="4.5295201" y="27.078951"/>
            <rect height="8.27750969" id="tray" style="fill:#d2d5c9;fill-rule:evenodd;stroke:#111111;stroke-width:3.125;stroke-linecap:round;stroke-linejoin:round;" width="40" x="10.28778839" y="44.96812282"/>
          </g>
        </svg>
</svg>
