<?xml version="1.0" encoding="UTF-8" standalone="no"?>
<!DOCTYPE svg PUBLIC "-//W3C//DTD SVG 1.1//EN"
 "http://www.w3.org/Graphics/SVG/1.1/DTD/svg11.dtd">
<!-- Generated by graphviz version 2.28.0 (20120217.0315)
 -->
<!-- Title: G Pages: 1 -->
<!--zoomable 564 -->
<svg id="main" version="1.1" xmlns="http://www.w3.org/2000/svg" xmlns:xlink="http://www.w3.org/1999/xlink" xml:space="preserve" onload="init(evt)">
        <defs>
                <circle id="rim" cx="0" cy="0" r="7"/>
                <circle id="rim2" cx="0" cy="0" r="3.5"/>
                <g id="zoomPlus">
                        <use xlink:href="#rim" fill="#404040">
                                <set attributeName="fill" to="#808080" begin="zoomplus.mouseover" end="zoomplus.mouseout"/>
                        </use>
                        <path d="M-4,0h8M0,-4v8" fill="none" stroke="white" stroke-width="1.5" pointer-events="none"/>
                </g>
                <g id="zoomMin">
                        <use xlink:href="#rim" fill="#404040">
                                <set attributeName="fill" to="#808080" begin="zoomminus.mouseover" end="zoomminus.mouseout"/>
                        </use>
                        <path d="M-4,0h8" fill="none" stroke="white" stroke-width="1.5" pointer-events="none"/>
                </g>
                <g id="dirArrow">
                        <path fill="none" stroke="white" stroke-width="1.5" d="M0,-3.0v7 M-2.5,-0.5L0,-3.0L2.5,-0.5"/>
                </g>
               <g id="resetDef">
                       <use xlink:href="#rim2" fill="#404040">
                               <set attributeName="fill" to="#808080" begin="reset.mouseover" end="reset.mouseout"/>
                       </use>
               </g>
        </defs>

<script type="text/javascript">
var viewWidth = 1862;
var viewHeight = 564;
var sectionId = 'dynsection-22';
</script>
<script xlink:href="../../svgpan.js"/>
<svg id="graph" class="graph">
<g id="viewport">
<title>G</title>
<!-- Node1 -->
<g id="node1" class="node"><title>Node1</title>
<polygon fill="#bfbfbf" stroke="black" points="0.5,-232.76 0.5,-251.76 113.5,-251.76 113.5,-232.76 0.5,-232.76"/>
<text text-anchor="middle" x="57" y="-239.76" font-family="DejaVuSansMono" font-size="10.00">xmpp_stanza_name</text>
</g>
<!-- Node2 -->
<g id="node3" class="node"><title>Node2</title>
<a xlink:href="../../d7/d71/xep__muc_8c.html#a1798db1c16a1fa62ff8f39fea202a26f" target="_top" xlink:title="stanza_handler">
<polygon fill="none" stroke="black" points="177.5,-498.76 177.5,-517.76 278.5,-517.76 278.5,-498.76 177.5,-498.76"/>
<text text-anchor="middle" x="228" y="-505.76" font-family="DejaVuSansMono" font-size="10.00">stanza_handler</text>
</a>
</g>
<!-- Node1&#45;&gt;Node2 -->
<g id="edge2" class="edge"><title>Node1&#45;&gt;Node2</title>
<path fill="none" stroke="midnightblue" d="M62.9305,-261.801C73.5683,-301.036 101.697,-390.804 150,-451.26 166.403,-471.791 191.89,-488.691 208.999,-498.622"/>
<polygon fill="midnightblue" stroke="midnightblue" points="66.2656,-260.721 60.3402,-251.938 59.4952,-262.499 66.2656,-260.721"/>
</g>
<!-- Node5 -->
<g id="node9" class="node"><title>Node5</title>
<a xlink:href="../../d6/d78/xmp3__multicast_8c.html#a3ef84feef94d4ad6045cd45fd91b531c" target="_top" xlink:title="local_stanza_handler">
<polygon fill="none" stroke="black" points="159.5,-422.76 159.5,-441.76 296.5,-441.76 296.5,-422.76 159.5,-422.76"/>
<text text-anchor="middle" x="228" y="-429.76" font-family="DejaVuSansMono" font-size="10.00">local_stanza_handler</text>
</a>
</g>
<!-- Node1&#45;&gt;Node5 -->
<g id="edge8" class="edge"><title>Node1&#45;&gt;Node5</title>
<path fill="none" stroke="midnightblue" d="M63.4453,-261.573C74.1794,-296.136 101.355,-368.646 150,-408.26 157.817,-414.626 167.328,-419.31 176.962,-422.754"/>
<polygon fill="midnightblue" stroke="midnightblue" points="66.7367,-260.362 60.5315,-251.775 60.0271,-262.358 66.7367,-260.362"/>
</g>
<!-- Node8 -->
<g id="node15" class="node"><title>Node8</title>
<a xlink:href="../../d3/d24/xmpp__auth_8h.html#ad3efd9ab093646bdfd8832c34ae2de4d" target="_top" xlink:title="Handler for the inital stream start to begin authentication.">
<polygon fill="none" stroke="black" points="1200.5,-213.76 1200.5,-232.76 1349.5,-232.76 1349.5,-213.76 1200.5,-213.76"/>
<text text-anchor="middle" x="1275" y="-220.76" font-family="DejaVuSansMono" font-size="10.00">xmpp_auth_stream_start</text>
</a>
</g>
<!-- Node1&#45;&gt;Node8 -->
<g id="edge14" class="edge"><title>Node1&#45;&gt;Node8</title>
<path fill="none" stroke="midnightblue" d="M66.4335,-261.235C79.8027,-288.848 108.652,-339.405 150,-363.26 245.069,-418.109 285.243,-394.26 395,-394.26 395,-394.26 395,-394.26 910,-394.26 1062.91,-394.26 1220.58,-269.117 1262.97,-232.943"/>
<polygon fill="midnightblue" stroke="midnightblue" points="69.47,-259.465 62.0737,-251.879 63.1251,-262.421 69.47,-259.465"/>
</g>
<!-- Node13 -->
<g id="node25" class="node"><title>Node13</title>
<a xlink:href="../../df/da9/xmpp__auth_8c.html#afd7b12689591d40109a88ad108b5c3a2" target="_top" xlink:title="stream_sasl_start">
<polygon fill="none" stroke="black" points="849.5,-194.76 849.5,-213.76 968.5,-213.76 968.5,-194.76 849.5,-194.76"/>
<text text-anchor="middle" x="909" y="-201.76" font-family="DejaVuSansMono" font-size="10.00">stream_sasl_start</text>
</a>
</g>
<!-- Node1&#45;&gt;Node13 -->
<g id="edge24" class="edge"><title>Node1&#45;&gt;Node13</title>
<path fill="none" stroke="midnightblue" d="M120.075,-231.031C187.511,-219.824 298.535,-204.26 395,-204.26 395,-204.26 395,-204.26 562,-204.26 662.917,-204.26 780.39,-204.26 849.228,-204.26"/>
<polygon fill="midnightblue" stroke="midnightblue" points="119.322,-227.608 110.042,-232.72 120.484,-234.511 119.322,-227.608"/>
</g>
<!-- Node14 -->
<g id="node27" class="node"><title>Node14</title>
<a xlink:href="../../df/da9/xmpp__auth_8c.html#a8dd789e057b9812e4dd1aa524dfb6a65" target="_top" xlink:title="Begins TLS authentication.">
<polygon fill="none" stroke="black" points="1038.5,-194.76 1038.5,-213.76 1145.5,-213.76 1145.5,-194.76 1038.5,-194.76"/>
<text text-anchor="middle" x="1092" y="-201.76" font-family="DejaVuSansMono" font-size="10.00">handle_starttls</text>
</a>
</g>
<!-- Node1&#45;&gt;Node14 -->
<g id="edge38" class="edge"><title>Node1&#45;&gt;Node14</title>
<path fill="none" stroke="midnightblue" d="M86.1439,-228.146C104.023,-219.734 127.885,-209.509 150,-203.26 255.973,-173.312 284.876,-166.26 395,-166.26 395,-166.26 395,-166.26 736,-166.26 846.545,-166.26 874.333,-171.357 984,-185.26 1003.47,-187.728 1024.77,-191.326 1043.22,-194.729"/>
<polygon fill="midnightblue" stroke="midnightblue" points="84.3752,-225.113 76.8754,-232.596 87.4051,-231.423 84.3752,-225.113"/>
</g>
<!-- Node15 -->
<g id="node30" class="node"><title>Node15</title>
<a xlink:href="../../df/da9/xmpp__auth_8c.html#a01804bd53eccc182ce76337fc0863e8d" target="_top" xlink:title="stream_bind_start">
<polygon fill="none" stroke="black" points="501.5,-289.76 501.5,-308.76 620.5,-308.76 620.5,-289.76 501.5,-289.76"/>
<text text-anchor="middle" x="561" y="-296.76" font-family="DejaVuSansMono" font-size="10.00">stream_bind_start</text>
</a>
</g>
<!-- Node1&#45;&gt;Node15 -->
<g id="edge30" class="edge"><title>Node1&#45;&gt;Node15</title>
<path fill="none" stroke="midnightblue" d="M68.9423,-260.451C83.9253,-283.379 113.211,-321.674 150,-337.26 286.911,-395.261 472.006,-333.924 536.603,-308.884"/>
<polygon fill="midnightblue" stroke="midnightblue" points="71.8757,-258.541 63.5816,-251.949 65.9545,-262.274 71.8757,-258.541"/>
</g>
<!-- Node16 -->
<g id="node32" class="node"><title>Node16</title>
<a xlink:href="../../df/da9/xmpp__auth_8c.html#afb770a216868aa3fb43813b19d2a0115" target="_top" xlink:title="Begins SASL PLAIN authentication.">
<polygon fill="none" stroke="black" points="675.5,-232.76 675.5,-251.76 794.5,-251.76 794.5,-232.76 675.5,-232.76"/>
<text text-anchor="middle" x="735" y="-239.76" font-family="DejaVuSansMono" font-size="10.00">handle_sasl_plain</text>
</a>
</g>
<!-- Node1&#45;&gt;Node16 -->
<g id="edge40" class="edge"><title>Node1&#45;&gt;Node16</title>
<path fill="none" stroke="midnightblue" d="M123.945,-242.26C255.657,-242.26 549.402,-242.26 675.096,-242.26"/>
<polygon fill="midnightblue" stroke="midnightblue" points="123.607,-238.76 113.607,-242.26 123.607,-245.76 123.607,-238.76"/>
</g>
<!-- Node17 -->
<g id="node38" class="node"><title>Node17</title>
<a xlink:href="../../df/da9/xmpp__auth_8c.html#a603b4a63af3c4e4af99442805fe89ae8" target="_top" xlink:title="Step 15: Client binds a resource.">
<polygon fill="none" stroke="black" points="345.5,-289.76 345.5,-308.76 446.5,-308.76 446.5,-289.76 345.5,-289.76"/>
<text text-anchor="middle" x="396" y="-296.76" font-family="DejaVuSansMono" font-size="10.00">handle_bind_iq</text>
</a>
</g>
<!-- Node1&#45;&gt;Node17 -->
<g id="edge42" class="edge"><title>Node1&#45;&gt;Node17</title>
<path fill="none" stroke="midnightblue" d="M123.779,-253.386C188.731,-264.371 286.61,-280.927 345.314,-290.856"/>
<polygon fill="midnightblue" stroke="midnightblue" points="124.092,-249.889 113.649,-251.672 122.925,-256.791 124.092,-249.889"/>
</g>
<!-- Node18 -->
<g id="node41" class="node"><title>Node18</title>
<a xlink:href="../../d8/d28/xmpp__core_8h.html#ae6da3d9438fd752c4afd6e50a6af9b66" target="_top" xlink:title="An xmpp_parser handler for stanzas from a local client.">
<polygon fill="none" stroke="black" points="150.5,-308.76 150.5,-327.76 305.5,-327.76 305.5,-308.76 150.5,-308.76"/>
<text text-anchor="middle" x="228" y="-315.76" font-family="DejaVuSansMono" font-size="10.00">xmpp_core_handle_stanza</text>
</a>
</g>
<!-- Node1&#45;&gt;Node18 -->
<g id="edge46" class="edge"><title>Node1&#45;&gt;Node18</title>
<path fill="none" stroke="midnightblue" d="M81.5289,-257.407C99.7048,-268.646 125.767,-283.776 150,-294.26 162.98,-299.875 177.703,-304.795 190.774,-308.695"/>
<polygon fill="midnightblue" stroke="midnightblue" points="83.1257,-254.277 72.7943,-251.929 79.4067,-260.207 83.1257,-254.277"/>
</g>
<!-- Node19 -->
<g id="node44" class="node"><title>Node19</title>
<a xlink:href="../../d8/d28/xmpp__core_8h.html#a777c384ae6685d30bfa255c4b33022aa" target="_top" xlink:title="An xmpp_server stanza route for stanzas directed to the server itself.">
<polygon fill="none" stroke="black" points="486.5,-118.76 486.5,-137.76 635.5,-137.76 635.5,-118.76 486.5,-118.76"/>
<text text-anchor="middle" x="561" y="-125.76" font-family="DejaVuSansMono" font-size="10.00">xmpp_core_route_server</text>
</a>
</g>
<!-- Node1&#45;&gt;Node19 -->
<g id="edge50" class="edge"><title>Node1&#45;&gt;Node19</title>
<path fill="none" stroke="midnightblue" d="M69.9989,-224.383C85.5757,-202.884 114.955,-167.76 150,-152.26 263.952,-101.858 413.379,-109.083 496.751,-118.747"/>
<polygon fill="midnightblue" stroke="midnightblue" points="67.067,-222.468 64.192,-232.665 72.7986,-226.486 67.067,-222.468"/>
</g>
<!-- Node20 -->
<g id="node47" class="node"><title>Node20</title>
<a xlink:href="../../d9/dd7/xmpp__im_8h.html#aee8f65a08bdaf68accfdcee40ed1488d" target="_top" xlink:title="IQ stanza callback for handling a session IQ.">
<polygon fill="none" stroke="black" points="672.5,-80.7598 672.5,-99.7598 797.5,-99.7598 797.5,-80.7598 672.5,-80.7598"/>
<text text-anchor="middle" x="735" y="-87.7598" font-family="DejaVuSansMono" font-size="10.00">xmpp_im_iq_session</text>
</a>
</g>
<!-- Node1&#45;&gt;Node20 -->
<g id="edge54" class="edge"><title>Node1&#45;&gt;Node20</title>
<path fill="none" stroke="midnightblue" d="M64.7964,-223.212C76.7234,-192.996 104.563,-134.975 150,-110.26 238.45,-62.1494 540.852,-76.6231 672.234,-85.5521"/>
<polygon fill="midnightblue" stroke="midnightblue" points="61.4948,-222.048 61.2386,-232.64 68.0439,-224.52 61.4948,-222.048"/>
</g>
<!-- Node21 -->
<g id="node50" class="node"><title>Node21</title>
<a xlink:href="../../d9/dd7/xmpp__im_8h.html#a7542fa668dcf982bb5d3725c5cacb0ca" target="_top" xlink:title="IQ stanza callback for handling a disco items query.">
<polygon fill="none" stroke="black" points="834.5,-42.7598 834.5,-61.7598 983.5,-61.7598 983.5,-42.7598 834.5,-42.7598"/>
<text text-anchor="middle" x="909" y="-49.7598" font-family="DejaVuSansMono" font-size="10.00">xmpp_im_iq_disco_items</text>
</a>
</g>
<!-- Node1&#45;&gt;Node21 -->
<g id="edge58" class="edge"><title>Node1&#45;&gt;Node21</title>
<path fill="none" stroke="midnightblue" d="M62.392,-222.771C71.6441,-186.723 96.8192,-110.135 150,-75.2598 241.456,-15.284 285.632,-52.2598 395,-52.2598 395,-52.2598 395,-52.2598 562,-52.2598 656.009,-52.2598 764.385,-52.2598 834.429,-52.2598"/>
<polygon fill="midnightblue" stroke="midnightblue" points="58.9721,-222.023 60.0185,-232.566 65.7752,-223.672 58.9721,-222.023"/>
</g>
<!-- Node22 -->
<g id="node53" class="node"><title>Node22</title>
<a xlink:href="../../d9/dd7/xmpp__im_8h.html#a93be77ae71bc544a1c23fae07f39fd23" target="_top" xlink:title="IQ stanza callback for handling a disco info query.">
<polygon fill="none" stroke="black" points="1020.5,-4.75977 1020.5,-23.7598 1163.5,-23.7598 1163.5,-4.75977 1020.5,-4.75977"/>
<text text-anchor="middle" x="1092" y="-11.7598" font-family="DejaVuSansMono" font-size="10.00">xmpp_im_iq_disco_info</text>
</a>
</g>
<!-- Node1&#45;&gt;Node22 -->
<g id="edge62" class="edge"><title>Node1&#45;&gt;Node22</title>
<path fill="none" stroke="midnightblue" d="M60.3216,-222.179C66.3967,-179.773 86.9331,-81.2994 150,-36.2598 238.968,27.2776 285.673,-14.2598 395,-14.2598 395,-14.2598 395,-14.2598 736,-14.2598 834.611,-14.2598 948.63,-14.2598 1020.28,-14.2598"/>
<polygon fill="midnightblue" stroke="midnightblue" points="56.8186,-221.976 58.9937,-232.345 63.7596,-222.882 56.8186,-221.976"/>
</g>
<!-- Node3 -->
<g id="node5" class="node"><title>Node3</title>
<a xlink:href="../../d7/d71/xep__muc_8c.html#addf05166cf3fbe386ae6650be21ef251" target="_top" xlink:title="xep_muc_start">
<polygon fill="none" stroke="black" points="348.5,-536.76 348.5,-555.76 443.5,-555.76 443.5,-536.76 348.5,-536.76"/>
<text text-anchor="middle" x="396" y="-543.76" font-family="DejaVuSansMono" font-size="10.00">xep_muc_start</text>
</a>
</g>
<!-- Node2&#45;&gt;Node3 -->
<g id="edge4" class="edge"><title>Node2&#45;&gt;Node3</title>
<path fill="none" stroke="midnightblue" d="M280.653,-520.084C304.056,-525.441 331.357,-531.691 353.412,-536.74"/>
<polygon fill="midnightblue" stroke="midnightblue" points="281.418,-516.669 270.889,-517.849 279.856,-523.492 281.418,-516.669"/>
</g>
<!-- Node4 -->
<g id="node7" class="node"><title>Node4</title>
<a xlink:href="../../d7/d71/xep__muc_8c.html#a20d385a5584d8014ec4d5774eb79d1de" target="_top" xlink:title="xep_muc_stop">
<polygon fill="none" stroke="black" points="351.5,-498.76 351.5,-517.76 440.5,-517.76 440.5,-498.76 351.5,-498.76"/>
<text text-anchor="middle" x="396" y="-505.76" font-family="DejaVuSansMono" font-size="10.00">xep_muc_stop</text>
</a>
</g>
<!-- Node2&#45;&gt;Node4 -->
<g id="edge6" class="edge"><title>Node2&#45;&gt;Node4</title>
<path fill="none" stroke="midnightblue" d="M289.057,-508.26C309.682,-508.26 332.36,-508.26 351.423,-508.26"/>
<polygon fill="midnightblue" stroke="midnightblue" points="288.806,-504.76 278.805,-508.26 288.805,-511.76 288.806,-504.76"/>
</g>
<!-- Node6 -->
<g id="node11" class="node"><title>Node6</title>
<a xlink:href="../../d6/d78/xmp3__multicast_8c.html#a991c928ab73b350c4b7029352e91a219" target="_top" xlink:title="multicast_start">
<polygon fill="none" stroke="black" points="342.5,-460.76 342.5,-479.76 449.5,-479.76 449.5,-460.76 342.5,-460.76"/>
<text text-anchor="middle" x="396" y="-467.76" font-family="DejaVuSansMono" font-size="10.00">multicast_start</text>
</a>
</g>
<!-- Node5&#45;&gt;Node6 -->
<g id="edge10" class="edge"><title>Node5&#45;&gt;Node6</title>
<path fill="none" stroke="midnightblue" d="M280.653,-444.084C304.056,-449.441 331.357,-455.691 353.412,-460.74"/>
<polygon fill="midnightblue" stroke="midnightblue" points="281.418,-440.669 270.889,-441.849 279.856,-447.492 281.418,-440.669"/>
</g>
<!-- Node7 -->
<g id="node13" class="node"><title>Node7</title>
<a xlink:href="../../d6/d78/xmp3__multicast_8c.html#ad161abeabc58820fd3a24b4422c5b9a7" target="_top" xlink:title="multicast_stop">
<polygon fill="none" stroke="black" points="345.5,-422.76 345.5,-441.76 446.5,-441.76 446.5,-422.76 345.5,-422.76"/>
<text text-anchor="middle" x="396" y="-429.76" font-family="DejaVuSansMono" font-size="10.00">multicast_stop</text>
</a>
</g>
<!-- Node5&#45;&gt;Node7 -->
<g id="edge12" class="edge"><title>Node5&#45;&gt;Node7</title>
<path fill="none" stroke="midnightblue" d="M306.554,-432.26C319.754,-432.26 333.138,-432.26 345.363,-432.26"/>
<polygon fill="midnightblue" stroke="midnightblue" points="306.519,-428.76 296.519,-432.26 306.519,-435.76 306.519,-428.76"/>
</g>
<!-- Node9 -->
<g id="node17" class="node"><title>Node9</title>
<a xlink:href="../../d4/d2f/xmpp__client_8h.html#a1619c0b8f58b2cf09a322bf34fbc3414" target="_top" xlink:title="xmpp_client_new">
<polygon fill="none" stroke="black" points="1386.5,-198.76 1386.5,-217.76 1493.5,-217.76 1493.5,-198.76 1386.5,-198.76"/>
<text text-anchor="middle" x="1440" y="-205.76" font-family="DejaVuSansMono" font-size="10.00">xmpp_client_new</text>
</a>
</g>
<!-- Node8&#45;&gt;Node9 -->
<g id="edge16" class="edge"><title>Node8&#45;&gt;Node9</title>
<path fill="none" stroke="midnightblue" d="M1359.99,-215.531C1368.95,-214.706 1377.88,-213.884 1386.33,-213.107"/>
<polygon fill="midnightblue" stroke="midnightblue" points="1359.51,-212.06 1349.87,-216.462 1360.15,-219.031 1359.51,-212.06"/>
</g>
<!-- Node10 -->
<g id="node19" class="node"><title>Node10</title>
<a xlink:href="../../d0/df0/xmpp__server_8c.html#a66363912ef1221a2574f9f99805fe8fd" target="_top" xlink:title="Callback for new client connections.">
<polygon fill="none" stroke="black" points="1530.5,-170.76 1530.5,-189.76 1631.5,-189.76 1631.5,-170.76 1530.5,-170.76"/>
<text text-anchor="middle" x="1581" y="-177.76" font-family="DejaVuSansMono" font-size="10.00">connect_client</text>
</a>
</g>
<!-- Node9&#45;&gt;Node10 -->
<g id="edge18" class="edge"><title>Node9&#45;&gt;Node10</title>
<path fill="none" stroke="midnightblue" d="M1498.36,-196.706C1509.81,-194.4 1521.71,-192.002 1532.77,-189.774"/>
<polygon fill="midnightblue" stroke="midnightblue" points="1497.56,-193.296 1488.45,-198.702 1498.94,-200.158 1497.56,-193.296"/>
</g>
<!-- Node11 -->
<g id="node21" class="node"><title>Node11</title>
<a xlink:href="../../d1/d2e/xmpp__server_8h.html#a27bfc8e4d424a8bc17ab21a4a09cdf92" target="_top" xlink:title="Allocates and initializes the XMPP server.">
<polygon fill="none" stroke="black" points="1668.5,-80.7598 1668.5,-99.7598 1775.5,-99.7598 1775.5,-80.7598 1668.5,-80.7598"/>
<text text-anchor="middle" x="1722" y="-87.7598" font-family="DejaVuSansMono" font-size="10.00">xmpp_server_new</text>
</a>
</g>
<!-- Node10&#45;&gt;Node11 -->
<g id="edge20" class="edge"><title>Node10&#45;&gt;Node11</title>
<path fill="none" stroke="midnightblue" d="M1605.49,-165.048C1634.27,-146.414 1682.16,-115.407 1706.23,-99.8221"/>
<polygon fill="midnightblue" stroke="midnightblue" points="1603.37,-162.255 1596.88,-170.628 1607.17,-168.131 1603.37,-162.255"/>
</g>
<!-- Node12 -->
<g id="node23" class="node"><title>Node12</title>
<a xlink:href="../../d0/d29/main_8c.html#a0ddf1224851353fc92bfbff6f499fa97" target="_top" xlink:title="main">
<polygon fill="none" stroke="black" points="1812.5,-80.7598 1812.5,-99.7598 1853.5,-99.7598 1853.5,-80.7598 1812.5,-80.7598"/>
<text text-anchor="middle" x="1833" y="-87.7598" font-family="DejaVuSansMono" font-size="10.00">main</text>
</a>
</g>
<!-- Node11&#45;&gt;Node12 -->
<g id="edge22" class="edge"><title>Node11&#45;&gt;Node12</title>
<path fill="none" stroke="midnightblue" d="M1785.75,-90.2598C1795.43,-90.2598 1804.76,-90.2598 1812.47,-90.2598"/>
<polygon fill="midnightblue" stroke="midnightblue" points="1785.58,-86.7599 1775.58,-90.2598 1785.58,-93.7599 1785.58,-86.7599"/>
</g>
<!-- Node13&#45;&gt;Node14 -->
<g id="edge26" class="edge"><title>Node13&#45;&gt;Node14</title>
<path fill="none" stroke="midnightblue" d="M978.915,-204.26C998.618,-204.26 1019.77,-204.26 1038.33,-204.26"/>
<polygon fill="midnightblue" stroke="midnightblue" points="978.766,-200.76 968.766,-204.26 978.765,-207.76 978.766,-200.76"/>
</g>
<!-- Node14&#45;&gt;Node8 -->
<g id="edge28" class="edge"><title>Node14&#45;&gt;Node8</title>
<path fill="none" stroke="midnightblue" d="M1156.03,-210.876C1170.3,-212.374 1185.58,-213.978 1200.24,-215.518"/>
<polygon fill="midnightblue" stroke="midnightblue" points="1156.15,-207.37 1145.84,-209.806 1155.42,-214.331 1156.15,-207.37"/>
</g>
<!-- Node15&#45;&gt;Node16 -->
<g id="edge32" class="edge"><title>Node15&#45;&gt;Node16</title>
<path fill="none" stroke="midnightblue" d="M600.6,-286.468C632.278,-275.97 676.434,-261.337 705.117,-251.831"/>
<polygon fill="midnightblue" stroke="midnightblue" points="599.18,-283.251 590.789,-289.719 601.382,-289.896 599.18,-283.251"/>
</g>
<!-- Node16&#45;&gt;Node8 -->
<g id="edge34" class="edge"><title>Node16&#45;&gt;Node8</title>
<path fill="none" stroke="midnightblue" d="M804.744,-239.832C906.29,-236.246 1095.6,-229.56 1200.05,-225.871"/>
<polygon fill="midnightblue" stroke="midnightblue" points="804.47,-236.339 794.6,-240.19 804.717,-243.335 804.47,-236.339"/>
</g>
<!-- Node16&#45;&gt;Node13 -->
<g id="edge36" class="edge"><title>Node16&#45;&gt;Node13</title>
<path fill="none" stroke="midnightblue" d="M789.196,-230.507C813.517,-225.134 841.955,-218.851 864.909,-213.78"/>
<polygon fill="midnightblue" stroke="midnightblue" points="788.412,-227.096 779.403,-232.671 789.922,-233.931 788.412,-227.096"/>
</g>
<!-- Node17&#45;&gt;Node15 -->
<g id="edge44" class="edge"><title>Node17&#45;&gt;Node15</title>
<path fill="none" stroke="midnightblue" d="M457.113,-299.26C471.561,-299.26 486.974,-299.26 501.355,-299.26"/>
<polygon fill="midnightblue" stroke="midnightblue" points="456.791,-295.76 446.791,-299.26 456.791,-302.76 456.791,-295.76"/>
</g>
<!-- Node18&#45;&gt;Node17 -->
<g id="edge48" class="edge"><title>Node18&#45;&gt;Node17</title>
<path fill="none" stroke="midnightblue" d="M315.769,-308.328C325.853,-307.174 335.862,-306.029 345.2,-304.96"/>
<polygon fill="midnightblue" stroke="midnightblue" points="315.22,-304.868 305.683,-309.483 316.016,-311.823 315.22,-304.868"/>
</g>
<!-- Node19&#45;&gt;Node11 -->
<g id="edge52" class="edge"><title>Node19&#45;&gt;Node11</title>
<path fill="none" stroke="midnightblue" d="M645.668,-128.26C715.744,-128.26 818.398,-128.26 908,-128.26 908,-128.26 908,-128.26 1441,-128.26 1525.38,-128.26 1622.77,-111.106 1677.6,-99.8488"/>
<polygon fill="midnightblue" stroke="midnightblue" points="645.571,-124.76 635.571,-128.26 645.571,-131.76 645.571,-124.76"/>
</g>
<!-- Node20&#45;&gt;Node11 -->
<g id="edge56" class="edge"><title>Node20&#45;&gt;Node11</title>
<path fill="none" stroke="midnightblue" d="M807.839,-90.2598C879.55,-90.2598 992.899,-90.2598 1091,-90.2598 1091,-90.2598 1091,-90.2598 1441,-90.2598 1520.24,-90.2598 1612.09,-90.2598 1668.36,-90.2598"/>
<polygon fill="midnightblue" stroke="midnightblue" points="807.567,-86.7599 797.567,-90.2598 807.567,-93.7599 807.567,-86.7599"/>
</g>
<!-- Node21&#45;&gt;Node11 -->
<g id="edge60" class="edge"><title>Node21&#45;&gt;Node11</title>
<path fill="none" stroke="midnightblue" d="M993.714,-52.2598C1067.49,-52.2598 1177.88,-52.2598 1274,-52.2598 1274,-52.2598 1274,-52.2598 1441,-52.2598 1525.38,-52.2598 1622.77,-69.4136 1677.6,-80.6708"/>
<polygon fill="midnightblue" stroke="midnightblue" points="993.552,-48.7599 983.552,-52.2598 993.552,-55.7599 993.552,-48.7599"/>
</g>
<!-- Node22&#45;&gt;Node11 -->
<g id="edge64" class="edge"><title>Node22&#45;&gt;Node11</title>
<path fill="none" stroke="midnightblue" d="M1173.77,-6.00828C1280.94,2.29227 1474.89,8.04774 1632,-38.2598 1662.04,-47.1139 1692.6,-68.1624 1708.93,-80.5957"/>
<polygon fill="midnightblue" stroke="midnightblue" points="1173.36,-2.52965 1163.67,-6.81784 1173.92,-9.50725 1173.36,-2.52965"/>
</g>
</g>
</svg>
        <g id="navigator" transform="translate(0 0)" fill="#404254">
                <rect fill="#f2f5e9" fill-opacity="0.5" stroke="#606060" stroke-width=".5" x="0" y="0" width="60" height="60"/>
                <use id="zoomplus" xlink:href="#zoomPlus" x="17" y="9" onmousedown="handleZoom(evt,'in')"/>
                <use id="zoomminus" xlink:href="#zoomMin" x="42" y="9" onmousedown="handleZoom(evt,'out')"/>
                <use id="reset" xlink:href="#resetDef" x="30" y="36" onmousedown="handleReset()"/>
                <g id="arrowUp" xlink:href="#dirArrow" transform="translate(30 24)" onmousedown="handlePan(0,-1)">
                  <use xlink:href="#rim" fill="#404040">
                        <set attributeName="fill" to="#808080" begin="arrowUp.mouseover" end="arrowUp.mouseout"/>
                  </use>
                  <path fill="none" stroke="white" stroke-width="1.5" d="M0,-3.0v7 M-2.5,-0.5L0,-3.0L2.5,-0.5"/>
                </g>
                <g id="arrowRight" xlink:href="#dirArrow" transform="rotate(90) translate(36 -43)" onmousedown="handlePan(1,0)">
                  <use xlink:href="#rim" fill="#404040">
                        <set attributeName="fill" to="#808080" begin="arrowRight.mouseover" end="arrowRight.mouseout"/>
                  </use>
                  <path fill="none" stroke="white" stroke-width="1.5" d="M0,-3.0v7 M-2.5,-0.5L0,-3.0L2.5,-0.5"/>
                </g>
                <g id="arrowDown" xlink:href="#dirArrow" transform="rotate(180) translate(-30 -48)" onmousedown="handlePan(0,1)">
                  <use xlink:href="#rim" fill="#404040">
                        <set attributeName="fill" to="#808080" begin="arrowDown.mouseover" end="arrowDown.mouseout"/>
                  </use>
                  <path fill="none" stroke="white" stroke-width="1.5" d="M0,-3.0v7 M-2.5,-0.5L0,-3.0L2.5,-0.5"/>
                </g>
                <g id="arrowLeft" xlink:href="#dirArrow" transform="rotate(270) translate(-36 17)" onmousedown="handlePan(-1,0)">
                  <use xlink:href="#rim" fill="#404040">
                        <set attributeName="fill" to="#808080" begin="arrowLeft.mouseover" end="arrowLeft.mouseout"/>
                  </use>
                  <path fill="none" stroke="white" stroke-width="1.5" d="M0,-3.0v7 M-2.5,-0.5L0,-3.0L2.5,-0.5"/>
                </g>
        </g>
        <svg viewBox="0 0 25 25" width="100%" height="30px" preserveAspectRatio="xMaxYMin meet"> 
          <g id="printButton" transform="scale(0.4 0.4)" onmousedown="handlePrint(evt)">
            <rect height="23.33753581" id="paper" rx="2" style="fill:#f2f5e9;fill-rule:evenodd;stroke:#111111;stroke-width:3.224;stroke-linejoin:round;" transform="matrix(1.000000,0.000000,-0.339266,0.940691,0.000000,0.000000)" width="25.55231285" x="26.69387353" y="7.36162977"/>
            <rect height="26.272097" id="body" rx="2" style="fill:#404040;fill-rule:evenodd;stroke:#111111;stroke-width:3.125;stroke-linejoin:round;" width="50" x="4.5295201" y="27.078951"/>
            <rect height="8.27750969" id="tray" style="fill:#d2d5c9;fill-rule:evenodd;stroke:#111111;stroke-width:3.125;stroke-linecap:round;stroke-linejoin:round;" width="40" x="10.28778839" y="44.96812282"/>
          </g>
        </svg>
</svg>
