<?xml version="1.0" encoding="UTF-8" standalone="no"?>
<!DOCTYPE svg PUBLIC "-//W3C//DTD SVG 1.1//EN"
 "http://www.w3.org/Graphics/SVG/1.1/DTD/svg11.dtd">
<!-- Generated by graphviz version 2.28.0 (20120217.0315)
 -->
<!-- Title: G Pages: 1 -->
<!--zoomable 256 -->
<svg id="main" version="1.1" xmlns="http://www.w3.org/2000/svg" xmlns:xlink="http://www.w3.org/1999/xlink" xml:space="preserve" onload="init(evt)">
        <defs>
                <circle id="rim" cx="0" cy="0" r="7"/>
                <circle id="rim2" cx="0" cy="0" r="3.5"/>
                <g id="zoomPlus">
                        <use xlink:href="#rim" fill="#404040">
                                <set attributeName="fill" to="#808080" begin="zoomplus.mouseover" end="zoomplus.mouseout"/>
                        </use>
                        <path d="M-4,0h8M0,-4v8" fill="none" stroke="white" stroke-width="1.5" pointer-events="none"/>
                </g>
                <g id="zoomMin">
                        <use xlink:href="#rim" fill="#404040">
                                <set attributeName="fill" to="#808080" begin="zoomminus.mouseover" end="zoomminus.mouseout"/>
                        </use>
                        <path d="M-4,0h8" fill="none" stroke="white" stroke-width="1.5" pointer-events="none"/>
                </g>
                <g id="dirArrow">
                        <path fill="none" stroke="white" stroke-width="1.5" d="M0,-3.0v7 M-2.5,-0.5L0,-3.0L2.5,-0.5"/>
                </g>
               <g id="resetDef">
                       <use xlink:href="#rim2" fill="#404040">
                               <set attributeName="fill" to="#808080" begin="reset.mouseover" end="reset.mouseout"/>
                       </use>
               </g>
        </defs>

<script type="text/javascript">
var viewWidth = 1694;
var viewHeight = 256;
var sectionId = 'dynsection-11';
</script>
<script xlink:href="../../svgpan.js"/>
<svg id="graph" class="graph">
<g id="viewport">
<title>G</title>
<!-- Node1 -->
<g id="node1" class="node"><title>Node1</title>
<polygon fill="#bfbfbf" stroke="black" points="0.5,-95.5 0.5,-114.5 137.5,-114.5 137.5,-95.5 0.5,-95.5"/>
<text text-anchor="middle" x="69" y="-102.5" font-family="DejaVuSansMono" font-size="10.00">xmpp_stanza_children</text>
</g>
<!-- Node2 -->
<g id="node3" class="node"><title>Node2</title>
<a xlink:href="../../d7/d71/xep__muc_8c.html#aec1096d47742f472668c4905fa3c299a" target="_top" xlink:title="handle_iq">
<polygon fill="none" stroke="black" points="189.5,-190.5 189.5,-209.5 260.5,-209.5 260.5,-190.5 189.5,-190.5"/>
<text text-anchor="middle" x="225" y="-197.5" font-family="DejaVuSansMono" font-size="10.00">handle_iq</text>
</a>
</g>
<!-- Node1&#45;&gt;Node2 -->
<g id="edge2" class="edge"><title>Node1&#45;&gt;Node2</title>
<path fill="none" stroke="midnightblue" d="M88.9352,-121.266C109.02,-137.918 142.182,-163.737 174,-181 180.53,-184.543 187.861,-187.727 194.856,-190.43"/>
<polygon fill="midnightblue" stroke="midnightblue" points="91.0783,-118.495 81.1703,-114.742 86.5754,-123.855 91.0783,-118.495"/>
</g>
<!-- Node6 -->
<g id="node11" class="node"><title>Node6</title>
<a xlink:href="../../df/da9/xmpp__auth_8c.html#a603b4a63af3c4e4af99442805fe89ae8" target="_top" xlink:title="Step 15: Client binds a resource.">
<polygon fill="none" stroke="black" points="174.5,-152.5 174.5,-171.5 275.5,-171.5 275.5,-152.5 174.5,-152.5"/>
<text text-anchor="middle" x="225" y="-159.5" font-family="DejaVuSansMono" font-size="10.00">handle_bind_iq</text>
</a>
</g>
<!-- Node1&#45;&gt;Node6 -->
<g id="edge10" class="edge"><title>Node1&#45;&gt;Node6</title>
<path fill="none" stroke="midnightblue" d="M105.3,-118.065C133.607,-128.543 172.68,-143.005 198.14,-152.428"/>
<polygon fill="midnightblue" stroke="midnightblue" points="106.369,-114.729 95.7761,-114.541 103.939,-121.294 106.369,-114.729"/>
</g>
<!-- Node16 -->
<g id="node32" class="node"><title>Node16</title>
<a xlink:href="../../d9/dd7/xmpp__im_8h.html#aee8f65a08bdaf68accfdcee40ed1488d" target="_top" xlink:title="IQ stanza callback for handling a session IQ.">
<polygon fill="none" stroke="black" points="642.5,-114.5 642.5,-133.5 767.5,-133.5 767.5,-114.5 642.5,-114.5"/>
<text text-anchor="middle" x="705" y="-121.5" font-family="DejaVuSansMono" font-size="10.00">xmpp_im_iq_session</text>
</a>
</g>
<!-- Node1&#45;&gt;Node16 -->
<g id="edge32" class="edge"><title>Node1&#45;&gt;Node16</title>
<path fill="none" stroke="midnightblue" d="M147.623,-107.326C275.036,-111.145 525.963,-118.664 642.202,-122.148"/>
<polygon fill="midnightblue" stroke="midnightblue" points="147.649,-103.826 137.549,-107.024 147.439,-110.822 147.649,-103.826"/>
</g>
<!-- Node17 -->
<g id="node35" class="node"><title>Node17</title>
<a xlink:href="../../d9/dd7/xmpp__im_8h.html#a7542fa668dcf982bb5d3725c5cacb0ca" target="_top" xlink:title="IQ stanza callback for handling a disco items query.">
<polygon fill="none" stroke="black" points="804.5,-76.5 804.5,-95.5 953.5,-95.5 953.5,-76.5 804.5,-76.5"/>
<text text-anchor="middle" x="879" y="-83.5" font-family="DejaVuSansMono" font-size="10.00">xmpp_im_iq_disco_items</text>
</a>
</g>
<!-- Node1&#45;&gt;Node17 -->
<g id="edge36" class="edge"><title>Node1&#45;&gt;Node17</title>
<path fill="none" stroke="midnightblue" d="M147.855,-97.5808C210.501,-92.25 300.831,-86 380,-86 380,-86 380,-86 547,-86 635.497,-86 737.302,-86 804.379,-86"/>
<polygon fill="midnightblue" stroke="midnightblue" points="147.319,-94.114 137.657,-98.4613 147.921,-101.088 147.319,-94.114"/>
</g>
<!-- Node18 -->
<g id="node38" class="node"><title>Node18</title>
<a xlink:href="../../d9/dd7/xmpp__im_8h.html#a93be77ae71bc544a1c23fae07f39fd23" target="_top" xlink:title="IQ stanza callback for handling a disco info query.">
<polygon fill="none" stroke="black" points="993.5,-38.5 993.5,-57.5 1136.5,-57.5 1136.5,-38.5 993.5,-38.5"/>
<text text-anchor="middle" x="1065" y="-45.5" font-family="DejaVuSansMono" font-size="10.00">xmpp_im_iq_disco_info</text>
</a>
</g>
<!-- Node1&#45;&gt;Node18 -->
<g id="edge40" class="edge"><title>Node1&#45;&gt;Node18</title>
<path fill="none" stroke="midnightblue" d="M110.546,-92.6702C169.343,-75.9103 281.973,-48 380,-48 380,-48 380,-48 706,-48 805.755,-48 921.146,-48 993.356,-48"/>
<polygon fill="midnightblue" stroke="midnightblue" points="109.53,-89.3205 100.895,-95.4595 111.474,-96.0452 109.53,-89.3205"/>
</g>
<!-- Node19 -->
<g id="node41" class="node"><title>Node19</title>
<a xlink:href="../../d1/d2e/xmpp__server_8h.html#a8ddb3bbfd497811c13e9426ce6f02003" target="_top" xlink:title="Deliver an IQ stanza to a registered callback function.">
<polygon fill="none" stroke="black" points="312.5,-0.5 312.5,-19.5 449.5,-19.5 449.5,-0.5 312.5,-0.5"/>
<text text-anchor="middle" x="381" y="-7.5" font-family="DejaVuSansMono" font-size="10.00">xmpp_server_route_iq</text>
</a>
</g>
<!-- Node1&#45;&gt;Node19 -->
<g id="edge44" class="edge"><title>Node1&#45;&gt;Node19</title>
<path fill="none" stroke="midnightblue" d="M87.7621,-88.8275C107.33,-72.039 140.49,-46.5176 174,-34 218.185,-17.4945 271.092,-11.5968 312.224,-9.77258"/>
<polygon fill="midnightblue" stroke="midnightblue" points="85.4531,-86.1971 80.2466,-95.4245 90.0709,-91.4579 85.4531,-86.1971"/>
</g>
<!-- Node3 -->
<g id="node5" class="node"><title>Node3</title>
<a xlink:href="../../d7/d71/xep__muc_8c.html#a1798db1c16a1fa62ff8f39fea202a26f" target="_top" xlink:title="stanza_handler">
<polygon fill="none" stroke="black" points="330.5,-190.5 330.5,-209.5 431.5,-209.5 431.5,-190.5 330.5,-190.5"/>
<text text-anchor="middle" x="381" y="-197.5" font-family="DejaVuSansMono" font-size="10.00">stanza_handler</text>
</a>
</g>
<!-- Node2&#45;&gt;Node3 -->
<g id="edge4" class="edge"><title>Node2&#45;&gt;Node3</title>
<path fill="none" stroke="midnightblue" d="M270.599,-200C289.311,-200 311.146,-200 330.366,-200"/>
<polygon fill="midnightblue" stroke="midnightblue" points="270.561,-196.5 260.561,-200 270.561,-203.5 270.561,-196.5"/>
</g>
<!-- Node4 -->
<g id="node7" class="node"><title>Node4</title>
<a xlink:href="../../d7/d71/xep__muc_8c.html#addf05166cf3fbe386ae6650be21ef251" target="_top" xlink:title="xep_muc_start">
<polygon fill="none" stroke="black" points="498.5,-228.5 498.5,-247.5 593.5,-247.5 593.5,-228.5 498.5,-228.5"/>
<text text-anchor="middle" x="546" y="-235.5" font-family="DejaVuSansMono" font-size="10.00">xep_muc_start</text>
</a>
</g>
<!-- Node3&#45;&gt;Node4 -->
<g id="edge6" class="edge"><title>Node3&#45;&gt;Node4</title>
<path fill="none" stroke="midnightblue" d="M433.028,-211.896C455.939,-217.237 482.604,-223.454 504.164,-228.48"/>
<polygon fill="midnightblue" stroke="midnightblue" points="433.665,-208.451 423.132,-209.589 432.076,-215.268 433.665,-208.451"/>
</g>
<!-- Node5 -->
<g id="node9" class="node"><title>Node5</title>
<a xlink:href="../../d7/d71/xep__muc_8c.html#a20d385a5584d8014ec4d5774eb79d1de" target="_top" xlink:title="xep_muc_stop">
<polygon fill="none" stroke="black" points="501.5,-190.5 501.5,-209.5 590.5,-209.5 590.5,-190.5 501.5,-190.5"/>
<text text-anchor="middle" x="546" y="-197.5" font-family="DejaVuSansMono" font-size="10.00">xep_muc_stop</text>
</a>
</g>
<!-- Node3&#45;&gt;Node5 -->
<g id="edge8" class="edge"><title>Node3&#45;&gt;Node5</title>
<path fill="none" stroke="midnightblue" d="M441.891,-200C461.571,-200 483.064,-200 501.309,-200"/>
<polygon fill="midnightblue" stroke="midnightblue" points="441.791,-196.5 431.791,-200 441.791,-203.5 441.791,-196.5"/>
</g>
<!-- Node7 -->
<g id="node13" class="node"><title>Node7</title>
<a xlink:href="../../df/da9/xmpp__auth_8c.html#a01804bd53eccc182ce76337fc0863e8d" target="_top" xlink:title="stream_bind_start">
<polygon fill="none" stroke="black" points="321.5,-152.5 321.5,-171.5 440.5,-171.5 440.5,-152.5 321.5,-152.5"/>
<text text-anchor="middle" x="381" y="-159.5" font-family="DejaVuSansMono" font-size="10.00">stream_bind_start</text>
</a>
</g>
<!-- Node6&#45;&gt;Node7 -->
<g id="edge12" class="edge"><title>Node6&#45;&gt;Node7</title>
<path fill="none" stroke="midnightblue" d="M285.699,-162C297.418,-162 309.701,-162 321.385,-162"/>
<polygon fill="midnightblue" stroke="midnightblue" points="285.574,-158.5 275.574,-162 285.574,-165.5 285.574,-158.5"/>
</g>
<!-- Node8 -->
<g id="node15" class="node"><title>Node8</title>
<a xlink:href="../../df/da9/xmpp__auth_8c.html#afb770a216868aa3fb43813b19d2a0115" target="_top" xlink:title="Begins SASL PLAIN authentication.">
<polygon fill="none" stroke="black" points="486.5,-152.5 486.5,-171.5 605.5,-171.5 605.5,-152.5 486.5,-152.5"/>
<text text-anchor="middle" x="546" y="-159.5" font-family="DejaVuSansMono" font-size="10.00">handle_sasl_plain</text>
</a>
</g>
<!-- Node7&#45;&gt;Node8 -->
<g id="edge14" class="edge"><title>Node7&#45;&gt;Node8</title>
<path fill="none" stroke="midnightblue" d="M451.029,-162C462.747,-162 474.817,-162 486.24,-162"/>
<polygon fill="midnightblue" stroke="midnightblue" points="450.847,-158.5 440.847,-162 450.847,-165.5 450.847,-158.5"/>
</g>
<!-- Node9 -->
<g id="node17" class="node"><title>Node9</title>
<a xlink:href="../../d3/d24/xmpp__auth_8h.html#ad3efd9ab093646bdfd8832c34ae2de4d" target="_top" xlink:title="Handler for the inital stream start to begin authentication.">
<polygon fill="none" stroke="black" points="990.5,-152.5 990.5,-171.5 1139.5,-171.5 1139.5,-152.5 990.5,-152.5"/>
<text text-anchor="middle" x="1065" y="-159.5" font-family="DejaVuSansMono" font-size="10.00">xmpp_auth_stream_start</text>
</a>
</g>
<!-- Node8&#45;&gt;Node9 -->
<g id="edge16" class="edge"><title>Node8&#45;&gt;Node9</title>
<path fill="none" stroke="midnightblue" d="M595.54,-173.625C610.362,-176.655 626.769,-179.492 642,-181 779.992,-194.664 815.84,-192.844 954,-181 975.626,-179.146 999.384,-175.278 1019.27,-171.512"/>
<polygon fill="midnightblue" stroke="midnightblue" points="596.074,-170.16 585.565,-171.51 594.622,-177.008 596.074,-170.16"/>
</g>
<!-- Node14 -->
<g id="node27" class="node"><title>Node14</title>
<a xlink:href="../../df/da9/xmpp__auth_8c.html#afd7b12689591d40109a88ad108b5c3a2" target="_top" xlink:title="stream_sasl_start">
<polygon fill="none" stroke="black" points="645.5,-152.5 645.5,-171.5 764.5,-171.5 764.5,-152.5 645.5,-152.5"/>
<text text-anchor="middle" x="705" y="-159.5" font-family="DejaVuSansMono" font-size="10.00">stream_sasl_start</text>
</a>
</g>
<!-- Node8&#45;&gt;Node14 -->
<g id="edge26" class="edge"><title>Node8&#45;&gt;Node14</title>
<path fill="none" stroke="midnightblue" d="M615.992,-162C625.762,-162 635.732,-162 645.284,-162"/>
<polygon fill="midnightblue" stroke="midnightblue" points="615.908,-158.5 605.908,-162 615.908,-165.5 615.908,-158.5"/>
</g>
<!-- Node10 -->
<g id="node19" class="node"><title>Node10</title>
<a xlink:href="../../d4/d2f/xmpp__client_8h.html#a1619c0b8f58b2cf09a322bf34fbc3414" target="_top" xlink:title="xmpp_client_new">
<polygon fill="none" stroke="black" points="1197.5,-152.5 1197.5,-171.5 1304.5,-171.5 1304.5,-152.5 1197.5,-152.5"/>
<text text-anchor="middle" x="1251" y="-159.5" font-family="DejaVuSansMono" font-size="10.00">xmpp_client_new</text>
</a>
</g>
<!-- Node9&#45;&gt;Node10 -->
<g id="edge18" class="edge"><title>Node9&#45;&gt;Node10</title>
<path fill="none" stroke="midnightblue" d="M1149.56,-162C1165.79,-162 1182.38,-162 1197.28,-162"/>
<polygon fill="midnightblue" stroke="midnightblue" points="1149.51,-158.5 1139.51,-162 1149.51,-165.5 1149.51,-158.5"/>
</g>
<!-- Node11 -->
<g id="node21" class="node"><title>Node11</title>
<a xlink:href="../../d0/df0/xmpp__server_8c.html#a66363912ef1221a2574f9f99805fe8fd" target="_top" xlink:title="Callback for new client connections.">
<polygon fill="none" stroke="black" points="1362.5,-152.5 1362.5,-171.5 1463.5,-171.5 1463.5,-152.5 1362.5,-152.5"/>
<text text-anchor="middle" x="1413" y="-159.5" font-family="DejaVuSansMono" font-size="10.00">connect_client</text>
</a>
</g>
<!-- Node10&#45;&gt;Node11 -->
<g id="edge20" class="edge"><title>Node10&#45;&gt;Node11</title>
<path fill="none" stroke="midnightblue" d="M1315.03,-162C1330.79,-162 1347.47,-162 1362.47,-162"/>
<polygon fill="midnightblue" stroke="midnightblue" points="1314.83,-158.5 1304.83,-162 1314.83,-165.5 1314.83,-158.5"/>
</g>
<!-- Node12 -->
<g id="node23" class="node"><title>Node12</title>
<a xlink:href="../../d1/d2e/xmpp__server_8h.html#a27bfc8e4d424a8bc17ab21a4a09cdf92" target="_top" xlink:title="Allocates and initializes the XMPP server.">
<polygon fill="none" stroke="black" points="1500.5,-76.5 1500.5,-95.5 1607.5,-95.5 1607.5,-76.5 1500.5,-76.5"/>
<text text-anchor="middle" x="1554" y="-83.5" font-family="DejaVuSansMono" font-size="10.00">xmpp_server_new</text>
</a>
</g>
<!-- Node11&#45;&gt;Node12 -->
<g id="edge22" class="edge"><title>Node11&#45;&gt;Node12</title>
<path fill="none" stroke="midnightblue" d="M1444.36,-147.912C1450.89,-144.748 1457.71,-141.337 1464,-138 1490.24,-124.068 1519.87,-106.34 1537.46,-95.5962"/>
<polygon fill="midnightblue" stroke="midnightblue" points="1442.63,-144.864 1435.11,-152.332 1445.64,-151.18 1442.63,-144.864"/>
</g>
<!-- Node13 -->
<g id="node25" class="node"><title>Node13</title>
<a xlink:href="../../d0/d29/main_8c.html#a0ddf1224851353fc92bfbff6f499fa97" target="_top" xlink:title="main">
<polygon fill="none" stroke="black" points="1644.5,-76.5 1644.5,-95.5 1685.5,-95.5 1685.5,-76.5 1644.5,-76.5"/>
<text text-anchor="middle" x="1665" y="-83.5" font-family="DejaVuSansMono" font-size="10.00">main</text>
</a>
</g>
<!-- Node12&#45;&gt;Node13 -->
<g id="edge24" class="edge"><title>Node12&#45;&gt;Node13</title>
<path fill="none" stroke="midnightblue" d="M1617.75,-86C1627.43,-86 1636.76,-86 1644.47,-86"/>
<polygon fill="midnightblue" stroke="midnightblue" points="1617.58,-82.5001 1607.58,-86 1617.58,-89.5001 1617.58,-82.5001"/>
</g>
<!-- Node15 -->
<g id="node29" class="node"><title>Node15</title>
<a xlink:href="../../df/da9/xmpp__auth_8c.html#a8dd789e057b9812e4dd1aa524dfb6a65" target="_top" xlink:title="Begins TLS authentication.">
<polygon fill="none" stroke="black" points="825.5,-152.5 825.5,-171.5 932.5,-171.5 932.5,-152.5 825.5,-152.5"/>
<text text-anchor="middle" x="879" y="-159.5" font-family="DejaVuSansMono" font-size="10.00">handle_starttls</text>
</a>
</g>
<!-- Node14&#45;&gt;Node15 -->
<g id="edge28" class="edge"><title>Node14&#45;&gt;Node15</title>
<path fill="none" stroke="midnightblue" d="M775.012,-162C791.78,-162 809.445,-162 825.319,-162"/>
<polygon fill="midnightblue" stroke="midnightblue" points="774.712,-158.5 764.712,-162 774.712,-165.5 774.712,-158.5"/>
</g>
<!-- Node15&#45;&gt;Node9 -->
<g id="edge30" class="edge"><title>Node15&#45;&gt;Node9</title>
<path fill="none" stroke="midnightblue" d="M943.057,-162C958.285,-162 974.691,-162 990.356,-162"/>
<polygon fill="midnightblue" stroke="midnightblue" points="942.727,-158.5 932.727,-162 942.727,-165.5 942.727,-158.5"/>
</g>
<!-- Node16&#45;&gt;Node12 -->
<g id="edge34" class="edge"><title>Node16&#45;&gt;Node12</title>
<path fill="none" stroke="midnightblue" d="M778.121,-124C850.42,-124 964.922,-124 1064,-124 1064,-124 1064,-124 1252,-124 1342.73,-124 1447.63,-106.796 1506.56,-95.54"/>
<polygon fill="midnightblue" stroke="midnightblue" points="777.767,-120.5 767.767,-124 777.767,-127.5 777.767,-120.5"/>
</g>
<!-- Node17&#45;&gt;Node12 -->
<g id="edge38" class="edge"><title>Node17&#45;&gt;Node12</title>
<path fill="none" stroke="midnightblue" d="M963.926,-86C1104.66,-86 1384.22,-86 1500.43,-86"/>
<polygon fill="midnightblue" stroke="midnightblue" points="963.626,-82.5001 953.626,-86 963.626,-89.5001 963.626,-82.5001"/>
</g>
<!-- Node18&#45;&gt;Node12 -->
<g id="edge42" class="edge"><title>Node18&#45;&gt;Node12</title>
<path fill="none" stroke="midnightblue" d="M1146.7,-50.5987C1227.24,-53.7254 1354.45,-60.108 1464,-72 1475.82,-73.2828 1488.46,-75.0379 1500.4,-76.8717"/>
<polygon fill="midnightblue" stroke="midnightblue" points="1146.75,-47.0983 1136.63,-50.2152 1146.49,-54.0932 1146.75,-47.0983"/>
</g>
<!-- Node20 -->
<g id="node43" class="node"><title>Node20</title>
<a xlink:href="../../d8/d28/xmpp__core_8h.html#a777c384ae6685d30bfa255c4b33022aa" target="_top" xlink:title="An xmpp_server stanza route for stanzas directed to the server itself.">
<polygon fill="none" stroke="black" points="1176.5,-0.5 1176.5,-19.5 1325.5,-19.5 1325.5,-0.5 1176.5,-0.5"/>
<text text-anchor="middle" x="1251" y="-7.5" font-family="DejaVuSansMono" font-size="10.00">xmpp_core_route_server</text>
</a>
</g>
<!-- Node19&#45;&gt;Node20 -->
<g id="edge46" class="edge"><title>Node19&#45;&gt;Node20</title>
<path fill="none" stroke="midnightblue" d="M459.733,-10C524.951,-10 620.557,-10 704,-10 704,-10 704,-10 880,-10 982.778,-10 1101.61,-10 1176.29,-10"/>
<polygon fill="midnightblue" stroke="midnightblue" points="459.533,-6.5001 449.533,-10 459.533,-13.5001 459.533,-6.5001"/>
</g>
<!-- Node20&#45;&gt;Node12 -->
<g id="edge48" class="edge"><title>Node20&#45;&gt;Node12</title>
<path fill="none" stroke="midnightblue" d="M1335.9,-11.5023C1375.57,-14.2162 1423.09,-20.4102 1464,-34 1493.55,-43.8172 1524.05,-64.3118 1540.55,-76.434"/>
<polygon fill="midnightblue" stroke="midnightblue" points="1335.92,-7.99723 1325.73,-10.8701 1335.49,-14.9838 1335.92,-7.99723"/>
</g>
</g>
</svg>
        <g id="navigator" transform="translate(0 0)" fill="#404254">
                <rect fill="#f2f5e9" fill-opacity="0.5" stroke="#606060" stroke-width=".5" x="0" y="0" width="60" height="60"/>
                <use id="zoomplus" xlink:href="#zoomPlus" x="17" y="9" onmousedown="handleZoom(evt,'in')"/>
                <use id="zoomminus" xlink:href="#zoomMin" x="42" y="9" onmousedown="handleZoom(evt,'out')"/>
                <use id="reset" xlink:href="#resetDef" x="30" y="36" onmousedown="handleReset()"/>
                <g id="arrowUp" xlink:href="#dirArrow" transform="translate(30 24)" onmousedown="handlePan(0,-1)">
                  <use xlink:href="#rim" fill="#404040">
                        <set attributeName="fill" to="#808080" begin="arrowUp.mouseover" end="arrowUp.mouseout"/>
                  </use>
                  <path fill="none" stroke="white" stroke-width="1.5" d="M0,-3.0v7 M-2.5,-0.5L0,-3.0L2.5,-0.5"/>
                </g>
                <g id="arrowRight" xlink:href="#dirArrow" transform="rotate(90) translate(36 -43)" onmousedown="handlePan(1,0)">
                  <use xlink:href="#rim" fill="#404040">
                        <set attributeName="fill" to="#808080" begin="arrowRight.mouseover" end="arrowRight.mouseout"/>
                  </use>
                  <path fill="none" stroke="white" stroke-width="1.5" d="M0,-3.0v7 M-2.5,-0.5L0,-3.0L2.5,-0.5"/>
                </g>
                <g id="arrowDown" xlink:href="#dirArrow" transform="rotate(180) translate(-30 -48)" onmousedown="handlePan(0,1)">
                  <use xlink:href="#rim" fill="#404040">
                        <set attributeName="fill" to="#808080" begin="arrowDown.mouseover" end="arrowDown.mouseout"/>
                  </use>
                  <path fill="none" stroke="white" stroke-width="1.5" d="M0,-3.0v7 M-2.5,-0.5L0,-3.0L2.5,-0.5"/>
                </g>
                <g id="arrowLeft" xlink:href="#dirArrow" transform="rotate(270) translate(-36 17)" onmousedown="handlePan(-1,0)">
                  <use xlink:href="#rim" fill="#404040">
                        <set attributeName="fill" to="#808080" begin="arrowLeft.mouseover" end="arrowLeft.mouseout"/>
                  </use>
                  <path fill="none" stroke="white" stroke-width="1.5" d="M0,-3.0v7 M-2.5,-0.5L0,-3.0L2.5,-0.5"/>
                </g>
        </g>
        <svg viewBox="0 0 25 25" width="100%" height="30px" preserveAspectRatio="xMaxYMin meet"> 
          <g id="printButton" transform="scale(0.4 0.4)" onmousedown="handlePrint(evt)">
            <rect height="23.33753581" id="paper" rx="2" style="fill:#f2f5e9;fill-rule:evenodd;stroke:#111111;stroke-width:3.224;stroke-linejoin:round;" transform="matrix(1.000000,0.000000,-0.339266,0.940691,0.000000,0.000000)" width="25.55231285" x="26.69387353" y="7.36162977"/>
            <rect height="26.272097" id="body" rx="2" style="fill:#404040;fill-rule:evenodd;stroke:#111111;stroke-width:3.125;stroke-linejoin:round;" width="50" x="4.5295201" y="27.078951"/>
            <rect height="8.27750969" id="tray" style="fill:#d2d5c9;fill-rule:evenodd;stroke:#111111;stroke-width:3.125;stroke-linecap:round;stroke-linejoin:round;" width="40" x="10.28778839" y="44.96812282"/>
          </g>
        </svg>
</svg>
