<?xml version="1.0" encoding="UTF-8" standalone="no"?>
<!DOCTYPE svg PUBLIC "-//W3C//DTD SVG 1.1//EN"
 "http://www.w3.org/Graphics/SVG/1.1/DTD/svg11.dtd">
<!-- Generated by graphviz version 2.28.0 (20120217.0315)
 -->
<!-- Title: G Pages: 1 -->
<svg width="320pt" height="104pt"
 viewBox="0.00 0.00 320.00 104.00" xmlns="http://www.w3.org/2000/svg" xmlns:xlink="http://www.w3.org/1999/xlink">
<g id="graph1" class="graph" transform="scale(1 1) rotate(0) translate(4 100)">
<title>G</title>
<!-- Node1 -->
<g id="node1" class="node"><title>Node1</title>
<polygon fill="#bfbfbf" stroke="black" points="0.5,-38.5 0.5,-57.5 89.5,-57.5 89.5,-38.5 0.5,-38.5"/>
<text text-anchor="middle" x="45" y="-45.5" font-family="DejaVuSansMono" font-size="10.00">stanza_tostr</text>
</g>
<!-- Node2 -->
<g id="node3" class="node"><title>Node2</title>
<a xlink:href="../../d1/dc2/xmpp__parser_8c.html#acce8bfe5926da4e64c3b5038dc683618" target="_top" xlink:title="xmpp_parser_namespace_prefix">
<polygon fill="none" stroke="black" points="126.5,-76.5 126.5,-95.5 311.5,-95.5 311.5,-76.5 126.5,-76.5"/>
<text text-anchor="middle" x="219" y="-83.5" font-family="DejaVuSansMono" font-size="10.00">xmpp_parser_namespace_prefix</text>
</a>
</g>
<!-- Node1&#45;&gt;Node2 -->
<g id="edge2" class="edge"><title>Node1&#45;&gt;Node2</title>
<path fill="none" stroke="midnightblue" d="M85.0094,-57.5084C98.0267,-60.6162 112.621,-64.0305 126,-67 137.083,-69.46 148.941,-71.987 160.333,-74.3626"/>
<polygon fill="midnightblue" stroke="midnightblue" points="159.691,-77.8038 170.193,-76.4059 161.111,-70.9495 159.691,-77.8038"/>
</g>
<!-- Node3 -->
<g id="node5" class="node"><title>Node3</title>
<a xlink:href="../../d1/dc2/xmpp__parser_8c.html#afde3cf0e74a12bfe4ac90fa8dbae51a0" target="_top" xlink:title="xmpp_parser_namespace_uri">
<polygon fill="none" stroke="black" points="135.5,-38.5 135.5,-57.5 302.5,-57.5 302.5,-38.5 135.5,-38.5"/>
<text text-anchor="middle" x="219" y="-45.5" font-family="DejaVuSansMono" font-size="10.00">xmpp_parser_namespace_uri</text>
</a>
</g>
<!-- Node1&#45;&gt;Node3 -->
<g id="edge4" class="edge"><title>Node1&#45;&gt;Node3</title>
<path fill="none" stroke="midnightblue" d="M89.8479,-48C100.734,-48 112.817,-48 125.089,-48"/>
<polygon fill="midnightblue" stroke="midnightblue" points="125.42,-51.5001 135.42,-48 125.42,-44.5001 125.42,-51.5001"/>
</g>
<!-- Node4 -->
<g id="node7" class="node"><title>Node4</title>
<a xlink:href="../../d1/dc2/xmpp__parser_8c.html#af924e15caac53b347a48878fcb046bc4" target="_top" xlink:title="Return the next namespace in the namespace list.">
<polygon fill="none" stroke="black" points="132.5,-0.5 132.5,-19.5 305.5,-19.5 305.5,-0.5 132.5,-0.5"/>
<text text-anchor="middle" x="219" y="-7.5" font-family="DejaVuSansMono" font-size="10.00">xmpp_parser_namespace_next</text>
</a>
</g>
<!-- Node1&#45;&gt;Node4 -->
<g id="edge6" class="edge"><title>Node1&#45;&gt;Node4</title>
<path fill="none" stroke="midnightblue" d="M85.0094,-38.4916C98.0267,-35.3838 112.621,-31.9695 126,-29 137.083,-26.54 148.941,-24.013 160.333,-21.6374"/>
<polygon fill="midnightblue" stroke="midnightblue" points="161.111,-25.0505 170.193,-19.5941 159.691,-18.1962 161.111,-25.0505"/>
</g>
</g>
</svg>
