<?xml version="1.0" encoding="UTF-8" standalone="no"?>
<!DOCTYPE svg PUBLIC "-//W3C//DTD SVG 1.1//EN"
 "http://www.w3.org/Graphics/SVG/1.1/DTD/svg11.dtd">
<!-- Generated by graphviz version 2.28.0 (20120217.0315)
 -->
<!-- Title: G Pages: 1 -->
<!--zoomable 538 -->
<svg id="main" version="1.1" xmlns="http://www.w3.org/2000/svg" xmlns:xlink="http://www.w3.org/1999/xlink" xml:space="preserve" onload="init(evt)">
        <defs>
                <circle id="rim" cx="0" cy="0" r="7"/>
                <circle id="rim2" cx="0" cy="0" r="3.5"/>
                <g id="zoomPlus">
                        <use xlink:href="#rim" fill="#404040">
                                <set attributeName="fill" to="#808080" begin="zoomplus.mouseover" end="zoomplus.mouseout"/>
                        </use>
                        <path d="M-4,0h8M0,-4v8" fill="none" stroke="white" stroke-width="1.5" pointer-events="none"/>
                </g>
                <g id="zoomMin">
                        <use xlink:href="#rim" fill="#404040">
                                <set attributeName="fill" to="#808080" begin="zoomminus.mouseover" end="zoomminus.mouseout"/>
                        </use>
                        <path d="M-4,0h8" fill="none" stroke="white" stroke-width="1.5" pointer-events="none"/>
                </g>
                <g id="dirArrow">
                        <path fill="none" stroke="white" stroke-width="1.5" d="M0,-3.0v7 M-2.5,-0.5L0,-3.0L2.5,-0.5"/>
                </g>
               <g id="resetDef">
                       <use xlink:href="#rim2" fill="#404040">
                               <set attributeName="fill" to="#808080" begin="reset.mouseover" end="reset.mouseout"/>
                       </use>
               </g>
        </defs>

<script type="text/javascript">
var viewWidth = 1934;
var viewHeight = 538;
var sectionId = 'dynsection-3';
</script>
<script xlink:href="../../svgpan.js"/>
<svg id="graph" class="graph">
<g id="viewport">
<title>G</title>
<!-- Node1 -->
<g id="node1" class="node"><title>Node1</title>
<polygon fill="#bfbfbf" stroke="black" points="0.5,-152.5 0.5,-171.5 65.5,-171.5 65.5,-152.5 0.5,-152.5"/>
<text text-anchor="middle" x="33" y="-159.5" font-family="DejaVuSansMono" font-size="10.00">make_key</text>
</g>
<!-- Node2 -->
<g id="node3" class="node"><title>Node2</title>
<a xlink:href="../../dd/d21/xmpp__stanza_8h.html#aa80dd21d794b5c63fcb13c49745cc373" target="_top" xlink:title="Allocate and initialize a new XMPP stanza structure.">
<polygon fill="none" stroke="black" points="126.5,-228.5 126.5,-247.5 233.5,-247.5 233.5,-228.5 126.5,-228.5"/>
<text text-anchor="middle" x="180" y="-235.5" font-family="DejaVuSansMono" font-size="10.00">xmpp_stanza_new</text>
</a>
</g>
<!-- Node1&#45;&gt;Node2 -->
<g id="edge2" class="edge"><title>Node1&#45;&gt;Node2</title>
<path fill="none" stroke="midnightblue" d="M61.5789,-176.455C90.7087,-191.723 135.806,-215.36 160.785,-228.453"/>
<polygon fill="midnightblue" stroke="midnightblue" points="62.8463,-173.168 52.3644,-171.625 59.5966,-179.368 62.8463,-173.168"/>
</g>
<!-- Node40 -->
<g id="node94" class="node"><title>Node40</title>
<a xlink:href="../../dd/d21/xmpp__stanza_8h.html#a73fb790be9974e2b22e8a46b43cca1ec" target="_top" xlink:title="Return the value of an atribute qualified by a namespace.">
<polygon fill="none" stroke="black" points="114.5,-152.5 114.5,-171.5 245.5,-171.5 245.5,-152.5 114.5,-152.5"/>
<text text-anchor="middle" x="180" y="-159.5" font-family="DejaVuSansMono" font-size="10.00">xmpp_stanza_ns_attr</text>
</a>
</g>
<!-- Node1&#45;&gt;Node40 -->
<g id="edge108" class="edge"><title>Node1&#45;&gt;Node40</title>
<path fill="none" stroke="midnightblue" d="M75.9453,-162C87.9129,-162 101.24,-162 114.232,-162"/>
<polygon fill="midnightblue" stroke="midnightblue" points="75.8209,-158.5 65.8209,-162 75.8208,-165.5 75.8209,-158.5"/>
</g>
<!-- Node41 -->
<g id="node96" class="node"><title>Node41</title>
<a xlink:href="../../dd/d21/xmpp__stanza_8h.html#af338ba30125abf5027089206578817b6" target="_top" xlink:title="Set the value of an attribute qualified by a namespace.">
<polygon fill="none" stroke="black" points="102.5,-38.5 102.5,-57.5 257.5,-57.5 257.5,-38.5 102.5,-38.5"/>
<text text-anchor="middle" x="180" y="-45.5" font-family="DejaVuSansMono" font-size="10.00">xmpp_stanza_set_ns_attr</text>
</a>
</g>
<!-- Node1&#45;&gt;Node41 -->
<g id="edge110" class="edge"><title>Node1&#45;&gt;Node41</title>
<path fill="none" stroke="midnightblue" d="M54.6148,-145.792C85.2268,-121.725 141.762,-77.2769 166.669,-57.695"/>
<polygon fill="midnightblue" stroke="midnightblue" points="52.0607,-143.348 46.3626,-152.28 56.3872,-148.851 52.0607,-143.348"/>
</g>
<!-- Node3 -->
<g id="node5" class="node"><title>Node3</title>
<a xlink:href="../../d7/d71/xep__muc_8c.html#af88baacca4f1cccf8ec2bc295db0e063" target="_top" xlink:title="leave_room">
<polygon fill="none" stroke="black" points="354.5,-304.5 354.5,-323.5 431.5,-323.5 431.5,-304.5 354.5,-304.5"/>
<text text-anchor="middle" x="393" y="-311.5" font-family="DejaVuSansMono" font-size="10.00">leave_room</text>
</a>
</g>
<!-- Node2&#45;&gt;Node3 -->
<g id="edge4" class="edge"><title>Node2&#45;&gt;Node3</title>
<path fill="none" stroke="midnightblue" d="M205.273,-252.724C227.593,-265.652 261.981,-284.056 294,-295 313.351,-301.614 335.684,-306.168 354.139,-309.155"/>
<polygon fill="midnightblue" stroke="midnightblue" points="206.882,-249.61 196.488,-247.556 203.332,-255.643 206.882,-249.61"/>
</g>
<!-- Node11 -->
<g id="node22" class="node"><title>Node11</title>
<a xlink:href="../../d7/d71/xep__muc_8c.html#a4b26d057ea25fe1b3c99edff73a82d78" target="_top" xlink:title="handle_items_query">
<polygon fill="none" stroke="black" points="330.5,-266.5 330.5,-285.5 455.5,-285.5 455.5,-266.5 330.5,-266.5"/>
<text text-anchor="middle" x="393" y="-273.5" font-family="DejaVuSansMono" font-size="10.00">handle_items_query</text>
</a>
</g>
<!-- Node2&#45;&gt;Node11 -->
<g id="edge22" class="edge"><title>Node2&#45;&gt;Node11</title>
<path fill="none" stroke="midnightblue" d="M243.774,-249.305C274.178,-254.781 310.279,-261.282 339.241,-266.498"/>
<polygon fill="midnightblue" stroke="midnightblue" points="244.162,-245.819 233.7,-247.491 242.921,-252.708 244.162,-245.819"/>
</g>
<!-- Node13 -->
<g id="node27" class="node"><title>Node13</title>
<a xlink:href="../../d7/d71/xep__muc_8c.html#a20d9ff75edcc76b952adf38d558fee26" target="_top" xlink:title="handle_info_query">
<polygon fill="none" stroke="black" points="333.5,-228.5 333.5,-247.5 452.5,-247.5 452.5,-228.5 333.5,-228.5"/>
<text text-anchor="middle" x="393" y="-235.5" font-family="DejaVuSansMono" font-size="10.00">handle_info_query</text>
</a>
</g>
<!-- Node2&#45;&gt;Node13 -->
<g id="edge28" class="edge"><title>Node2&#45;&gt;Node13</title>
<path fill="none" stroke="midnightblue" d="M243.894,-238C272.221,-238 305.474,-238 333.286,-238"/>
<polygon fill="midnightblue" stroke="midnightblue" points="243.7,-234.5 233.7,-238 243.7,-241.5 243.7,-234.5"/>
</g>
<!-- Node14 -->
<g id="node30" class="node"><title>Node14</title>
<a xlink:href="../../d7/d71/xep__muc_8c.html#a8333f88612fa054ae107699f5bb548cc" target="_top" xlink:title="send_nickname_conflict">
<polygon fill="none" stroke="black" points="534.5,-380.5 534.5,-399.5 683.5,-399.5 683.5,-380.5 534.5,-380.5"/>
<text text-anchor="middle" x="609" y="-387.5" font-family="DejaVuSansMono" font-size="10.00">send_nickname_conflict</text>
</a>
</g>
<!-- Node2&#45;&gt;Node14 -->
<g id="edge32" class="edge"><title>Node2&#45;&gt;Node14</title>
<path fill="none" stroke="midnightblue" d="M191.617,-256.38C208.983,-284.495 246.35,-337.397 294,-361 369.671,-398.483 468.151,-401.325 534.481,-397.662"/>
<polygon fill="midnightblue" stroke="midnightblue" points="194.471,-254.333 186.325,-247.558 188.468,-257.934 194.471,-254.333"/>
</g>
<!-- Node15 -->
<g id="node33" class="node"><title>Node15</title>
<a xlink:href="../../d7/d71/xep__muc_8c.html#a115281f539cd77f88872ff153ec5b38d" target="_top" xlink:title="send_presence_broadcast">
<polygon fill="none" stroke="black" points="531.5,-342.5 531.5,-361.5 686.5,-361.5 686.5,-342.5 531.5,-342.5"/>
<text text-anchor="middle" x="609" y="-349.5" font-family="DejaVuSansMono" font-size="10.00">send_presence_broadcast</text>
</a>
</g>
<!-- Node2&#45;&gt;Node15 -->
<g id="edge36" class="edge"><title>Node2&#45;&gt;Node15</title>
<path fill="none" stroke="midnightblue" d="M195.078,-255.3C214.59,-277.835 252.207,-316.319 294,-333 370.464,-363.519 465.758,-364.683 531.19,-360.482"/>
<polygon fill="midnightblue" stroke="midnightblue" points="197.639,-252.908 188.515,-247.523 192.289,-257.423 197.639,-252.908"/>
</g>
<!-- Node16 -->
<g id="node36" class="node"><title>Node16</title>
<a xlink:href="../../d9/dd7/xmpp__im_8h.html#aee8f65a08bdaf68accfdcee40ed1488d" target="_top" xlink:title="IQ stanza callback for handling a session IQ.">
<polygon fill="none" stroke="black" points="900.5,-190.5 900.5,-209.5 1025.5,-209.5 1025.5,-190.5 900.5,-190.5"/>
<text text-anchor="middle" x="963" y="-197.5" font-family="DejaVuSansMono" font-size="10.00">xmpp_im_iq_session</text>
</a>
</g>
<!-- Node2&#45;&gt;Node16 -->
<g id="edge40" class="edge"><title>Node2&#45;&gt;Node16</title>
<path fill="none" stroke="midnightblue" d="M238.794,-226.704C256.446,-223.68 275.96,-220.765 294,-219 516.276,-197.257 781.979,-197.47 900.117,-198.914"/>
<polygon fill="midnightblue" stroke="midnightblue" points="237.883,-223.31 228.64,-228.488 239.095,-230.204 237.883,-223.31"/>
</g>
<!-- Node19 -->
<g id="node42" class="node"><title>Node19</title>
<a xlink:href="../../d9/dd7/xmpp__im_8h.html#a7542fa668dcf982bb5d3725c5cacb0ca" target="_top" xlink:title="IQ stanza callback for handling a disco items query.">
<polygon fill="none" stroke="black" points="534.5,-152.5 534.5,-171.5 683.5,-171.5 683.5,-152.5 534.5,-152.5"/>
<text text-anchor="middle" x="609" y="-159.5" font-family="DejaVuSansMono" font-size="10.00">xmpp_im_iq_disco_items</text>
</a>
</g>
<!-- Node2&#45;&gt;Node19 -->
<g id="edge46" class="edge"><title>Node2&#45;&gt;Node19</title>
<path fill="none" stroke="midnightblue" d="M205.954,-223.368C228.235,-211.083 262.174,-194.255 294,-186 374.441,-165.135 470.056,-160.587 534.466,-160.334"/>
<polygon fill="midnightblue" stroke="midnightblue" points="204.158,-220.362 197.159,-228.316 207.59,-226.463 204.158,-220.362"/>
</g>
<!-- Node20 -->
<g id="node45" class="node"><title>Node20</title>
<a xlink:href="../../d9/dd7/xmpp__im_8h.html#a93be77ae71bc544a1c23fae07f39fd23" target="_top" xlink:title="IQ stanza callback for handling a disco info query.">
<polygon fill="none" stroke="black" points="1404.5,-85.5 1404.5,-104.5 1547.5,-104.5 1547.5,-85.5 1404.5,-85.5"/>
<text text-anchor="middle" x="1476" y="-92.5" font-family="DejaVuSansMono" font-size="10.00">xmpp_im_iq_disco_info</text>
</a>
</g>
<!-- Node2&#45;&gt;Node20 -->
<g id="edge50" class="edge"><title>Node2&#45;&gt;Node20</title>
<path fill="none" stroke="midnightblue" d="M207.549,-222.984C223.745,-212.788 243.963,-198.078 258,-181 281.732,-152.126 263.035,-125.932 294,-105 351.914,-65.8505 538.095,-86 608,-86 608,-86 608,-86 1138,-86 1230.03,-86 1336.16,-89.3958 1404.34,-92.0156"/>
<polygon fill="midnightblue" stroke="midnightblue" points="205.283,-220.266 198.555,-228.451 208.918,-226.248 205.283,-220.266"/>
</g>
<!-- Node21 -->
<g id="node48" class="node"><title>Node21</title>
<a xlink:href="../../dc/da6/xmpp__im_8c.html#af5cf3adac08463b9b6029c8814e4f972" target="_top" xlink:title="get_roster">
<polygon fill="none" stroke="black" points="924.5,-38.5 924.5,-57.5 1001.5,-57.5 1001.5,-38.5 924.5,-38.5"/>
<text text-anchor="middle" x="963" y="-45.5" font-family="DejaVuSansMono" font-size="10.00">get_roster</text>
</a>
</g>
<!-- Node2&#45;&gt;Node21 -->
<g id="edge54" class="edge"><title>Node2&#45;&gt;Node21</title>
<path fill="none" stroke="midnightblue" d="M208.779,-223.271C225.176,-213.304 245.168,-198.737 258,-181 287.903,-139.664 253.196,-102.625 294,-72 344.409,-34.1652 790.339,-43.2619 924.183,-46.8826"/>
<polygon fill="midnightblue" stroke="midnightblue" points="206.984,-220.266 200.107,-228.326 210.509,-226.313 206.984,-220.266"/>
</g>
<!-- Node23 -->
<g id="node53" class="node"><title>Node23</title>
<a xlink:href="../../d1/d2e/xmpp__server_8h.html#ae539771fafbb092bcd304e4e063370aa" target="_top" xlink:title="Append to the given stanza all the items set on this server.">
<polygon fill="none" stroke="black" points="294.5,-114.5 294.5,-133.5 491.5,-133.5 491.5,-114.5 294.5,-114.5"/>
<text text-anchor="middle" x="393" y="-121.5" font-family="DejaVuSansMono" font-size="10.00">xmpp_server_append_disco_items</text>
</a>
</g>
<!-- Node2&#45;&gt;Node23 -->
<g id="edge60" class="edge"><title>Node2&#45;&gt;Node23</title>
<path fill="none" stroke="midnightblue" d="M203.452,-222.325C219.067,-211.197 240.194,-195.684 258,-181 274.746,-167.191 274.86,-158.235 294,-148 305.817,-141.681 319.322,-136.995 332.452,-133.531"/>
<polygon fill="midnightblue" stroke="midnightblue" points="201.103,-219.699 194.961,-228.332 205.146,-225.414 201.103,-219.699"/>
</g>
<!-- Node24 -->
<g id="node56" class="node"><title>Node24</title>
<a xlink:href="../../d0/df0/xmpp__server_8c.html#a3b400cb24e5bc51623f63c96c8a0a342" target="_top" xlink:title="Sends a &lt;service&#45;unavailable&gt; error stanza to a client.">
<polygon fill="none" stroke="black" points="528.5,-494.5 528.5,-513.5 689.5,-513.5 689.5,-494.5 528.5,-494.5"/>
<text text-anchor="middle" x="609" y="-501.5" font-family="DejaVuSansMono" font-size="10.00">send_service_unavailable</text>
</a>
</g>
<!-- Node2&#45;&gt;Node24 -->
<g id="edge64" class="edge"><title>Node2&#45;&gt;Node24</title>
<path fill="none" stroke="midnightblue" d="M185.545,-257.76C196.353,-299.97 227.786,-398.99 294,-447 362.179,-496.435 460.093,-507.261 528.395,-507.898"/>
<polygon fill="midnightblue" stroke="midnightblue" points="188.905,-256.766 183.131,-247.882 182.105,-258.427 188.905,-256.766"/>
</g>
<!-- Node27 -->
<g id="node63" class="node"><title>Node27</title>
<a xlink:href="../../dd/d21/xmpp__stanza_8h.html#aa2b621549a5e0499793adbec29964932" target="_top" xlink:title="Allocate stanza with namespace information.">
<polygon fill="none" stroke="black" points="330.5,-418.5 330.5,-437.5 455.5,-437.5 455.5,-418.5 330.5,-418.5"/>
<text text-anchor="middle" x="393" y="-425.5" font-family="DejaVuSansMono" font-size="10.00">xmpp_stanza_ns_new</text>
</a>
</g>
<!-- Node2&#45;&gt;Node27 -->
<g id="edge72" class="edge"><title>Node2&#45;&gt;Node27</title>
<path fill="none" stroke="midnightblue" d="M188.524,-257.208C203.235,-292.148 239.231,-365.993 294,-404 304.793,-411.49 317.674,-416.651 330.492,-420.205"/>
<polygon fill="midnightblue" stroke="midnightblue" points="191.662,-255.635 184.645,-247.697 185.181,-258.278 191.662,-255.635"/>
</g>
<!-- Node4 -->
<g id="node7" class="node"><title>Node4</title>
<a xlink:href="../../d7/d71/xep__muc_8c.html#a40cdc65e1b60c76aef97dfc9d3f2510f" target="_top" xlink:title="leave_room_presence">
<polygon fill="none" stroke="black" points="729.5,-266.5 729.5,-285.5 860.5,-285.5 860.5,-266.5 729.5,-266.5"/>
<text text-anchor="middle" x="795" y="-273.5" font-family="DejaVuSansMono" font-size="10.00">leave_room_presence</text>
</a>
</g>
<!-- Node3&#45;&gt;Node4 -->
<g id="edge6" class="edge"><title>Node3&#45;&gt;Node4</title>
<path fill="none" stroke="midnightblue" d="M441.898,-306.385C467.41,-302.537 499.353,-298.05 528,-295 596.597,-287.696 675.453,-282.458 729.388,-279.355"/>
<polygon fill="midnightblue" stroke="midnightblue" points="441.103,-302.965 431.745,-307.933 442.158,-309.885 441.103,-302.965"/>
</g>
<!-- Node9 -->
<g id="node17" class="node"><title>Node9</title>
<a xlink:href="../../d7/d71/xep__muc_8c.html#a0214cd898b2f0c746cb45f79746e5095" target="_top" xlink:title="client_disconnect">
<polygon fill="none" stroke="black" points="549.5,-304.5 549.5,-323.5 668.5,-323.5 668.5,-304.5 549.5,-304.5"/>
<text text-anchor="middle" x="609" y="-311.5" font-family="DejaVuSansMono" font-size="10.00">client_disconnect</text>
</a>
</g>
<!-- Node3&#45;&gt;Node9 -->
<g id="edge16" class="edge"><title>Node3&#45;&gt;Node9</title>
<path fill="none" stroke="midnightblue" d="M442.11,-314C473.823,-314 515.558,-314 549.233,-314"/>
<polygon fill="midnightblue" stroke="midnightblue" points="441.766,-310.5 431.766,-314 441.766,-317.5 441.766,-310.5"/>
</g>
<!-- Node5 -->
<g id="node9" class="node"><title>Node5</title>
<a xlink:href="../../d7/d71/xep__muc_8c.html#a9936322b944d46aead9fbd942687ec0a" target="_top" xlink:title="handle_presence">
<polygon fill="none" stroke="black" points="909.5,-266.5 909.5,-285.5 1016.5,-285.5 1016.5,-266.5 909.5,-266.5"/>
<text text-anchor="middle" x="963" y="-273.5" font-family="DejaVuSansMono" font-size="10.00">handle_presence</text>
</a>
</g>
<!-- Node4&#45;&gt;Node5 -->
<g id="edge8" class="edge"><title>Node4&#45;&gt;Node5</title>
<path fill="none" stroke="midnightblue" d="M870.957,-276C883.904,-276 897.113,-276 909.311,-276"/>
<polygon fill="midnightblue" stroke="midnightblue" points="870.655,-272.5 860.655,-276 870.655,-279.5 870.655,-272.5"/>
</g>
<!-- Node6 -->
<g id="node11" class="node"><title>Node6</title>
<a xlink:href="../../d7/d71/xep__muc_8c.html#a1798db1c16a1fa62ff8f39fea202a26f" target="_top" xlink:title="stanza_handler">
<polygon fill="none" stroke="black" points="1086.5,-247.5 1086.5,-266.5 1187.5,-266.5 1187.5,-247.5 1086.5,-247.5"/>
<text text-anchor="middle" x="1137" y="-254.5" font-family="DejaVuSansMono" font-size="10.00">stanza_handler</text>
</a>
</g>
<!-- Node5&#45;&gt;Node6 -->
<g id="edge10" class="edge"><title>Node5&#45;&gt;Node6</title>
<path fill="none" stroke="midnightblue" d="M1026.65,-269.08C1046.33,-266.905 1067.78,-264.536 1086.43,-262.476"/>
<polygon fill="midnightblue" stroke="midnightblue" points="1026.1,-265.619 1016.54,-270.196 1026.86,-272.577 1026.1,-265.619"/>
</g>
<!-- Node7 -->
<g id="node13" class="node"><title>Node7</title>
<a xlink:href="../../d7/d71/xep__muc_8c.html#addf05166cf3fbe386ae6650be21ef251" target="_top" xlink:title="xep_muc_start">
<polygon fill="none" stroke="black" points="1260.5,-238.5 1260.5,-257.5 1355.5,-257.5 1355.5,-238.5 1260.5,-238.5"/>
<text text-anchor="middle" x="1308" y="-245.5" font-family="DejaVuSansMono" font-size="10.00">xep_muc_start</text>
</a>
</g>
<!-- Node6&#45;&gt;Node7 -->
<g id="edge12" class="edge"><title>Node6&#45;&gt;Node7</title>
<path fill="none" stroke="midnightblue" d="M1197.99,-253.805C1218.51,-252.712 1241.15,-251.507 1260.46,-250.479"/>
<polygon fill="midnightblue" stroke="midnightblue" points="1197.59,-250.321 1187.79,-254.348 1197.96,-257.312 1197.59,-250.321"/>
</g>
<!-- Node8 -->
<g id="node15" class="node"><title>Node8</title>
<a xlink:href="../../d7/d71/xep__muc_8c.html#a20d385a5584d8014ec4d5774eb79d1de" target="_top" xlink:title="xep_muc_stop">
<polygon fill="none" stroke="black" points="1263.5,-276.5 1263.5,-295.5 1352.5,-295.5 1352.5,-276.5 1263.5,-276.5"/>
<text text-anchor="middle" x="1308" y="-283.5" font-family="DejaVuSansMono" font-size="10.00">xep_muc_stop</text>
</a>
</g>
<!-- Node6&#45;&gt;Node8 -->
<g id="edge14" class="edge"><title>Node6&#45;&gt;Node8</title>
<path fill="none" stroke="midnightblue" d="M1197.84,-267.269C1219.42,-270.972 1243.36,-275.079 1263.3,-278.501"/>
<polygon fill="midnightblue" stroke="midnightblue" points="1198.24,-263.786 1187.79,-265.544 1197.06,-270.685 1198.24,-263.786"/>
</g>
<!-- Node10 -->
<g id="node19" class="node"><title>Node10</title>
<a xlink:href="../../d7/d71/xep__muc_8c.html#aefd23f2960520a68fea212344b85cb0b" target="_top" xlink:title="enter_room_presence">
<polygon fill="none" stroke="black" points="729.5,-323.5 729.5,-342.5 860.5,-342.5 860.5,-323.5 729.5,-323.5"/>
<text text-anchor="middle" x="795" y="-330.5" font-family="DejaVuSansMono" font-size="10.00">enter_room_presence</text>
</a>
</g>
<!-- Node9&#45;&gt;Node10 -->
<g id="edge18" class="edge"><title>Node9&#45;&gt;Node10</title>
<path fill="none" stroke="midnightblue" d="M678.883,-321.113C695.454,-322.824 713.095,-324.646 729.46,-326.336"/>
<polygon fill="midnightblue" stroke="midnightblue" points="679.031,-317.61 668.725,-320.064 678.312,-324.573 679.031,-317.61"/>
</g>
<!-- Node10&#45;&gt;Node5 -->
<g id="edge20" class="edge"><title>Node10&#45;&gt;Node5</title>
<path fill="none" stroke="midnightblue" d="M833.254,-320.208C863.826,-309.71 906.442,-295.077 934.125,-285.572"/>
<polygon fill="midnightblue" stroke="midnightblue" points="832.106,-316.902 823.785,-323.459 834.379,-323.522 832.106,-316.902"/>
</g>
<!-- Node12 -->
<g id="node24" class="node"><title>Node12</title>
<a xlink:href="../../d7/d71/xep__muc_8c.html#aec1096d47742f472668c4905fa3c299a" target="_top" xlink:title="handle_iq">
<polygon fill="none" stroke="black" points="573.5,-228.5 573.5,-247.5 644.5,-247.5 644.5,-228.5 573.5,-228.5"/>
<text text-anchor="middle" x="609" y="-235.5" font-family="DejaVuSansMono" font-size="10.00">handle_iq</text>
</a>
</g>
<!-- Node11&#45;&gt;Node12 -->
<g id="edge24" class="edge"><title>Node11&#45;&gt;Node12</title>
<path fill="none" stroke="midnightblue" d="M457.658,-264.696C495.553,-257.967 542.176,-249.688 573.364,-244.15"/>
<polygon fill="midnightblue" stroke="midnightblue" points="456.959,-261.266 447.725,-266.46 458.183,-268.158 456.959,-261.266"/>
</g>
<!-- Node12&#45;&gt;Node6 -->
<g id="edge26" class="edge"><title>Node12&#45;&gt;Node6</title>
<path fill="none" stroke="midnightblue" d="M654.643,-239.613C752.34,-243.142 984.487,-251.527 1086.49,-255.211"/>
<polygon fill="midnightblue" stroke="midnightblue" points="654.632,-236.11 644.512,-239.247 654.379,-243.105 654.632,-236.11"/>
</g>
<!-- Node13&#45;&gt;Node12 -->
<g id="edge30" class="edge"><title>Node13&#45;&gt;Node12</title>
<path fill="none" stroke="midnightblue" d="M462.963,-238C499.854,-238 543.679,-238 573.427,-238"/>
<polygon fill="midnightblue" stroke="midnightblue" points="462.76,-234.5 452.759,-238 462.759,-241.5 462.76,-234.5"/>
</g>
<!-- Node14&#45;&gt;Node10 -->
<g id="edge34" class="edge"><title>Node14&#45;&gt;Node10</title>
<path fill="none" stroke="midnightblue" d="M664.008,-378.085C672.743,-375.897 681.656,-373.506 690,-371 717.984,-362.596 749.401,-350.775 770.309,-342.558"/>
<polygon fill="midnightblue" stroke="midnightblue" points="663.144,-374.693 654.26,-380.465 664.805,-381.493 663.144,-374.693"/>
</g>
<!-- Node15&#45;&gt;Node10 -->
<g id="edge38" class="edge"><title>Node15&#45;&gt;Node10</title>
<path fill="none" stroke="midnightblue" d="M696.749,-343.042C707.741,-341.907 718.833,-340.762 729.395,-339.671"/>
<polygon fill="midnightblue" stroke="midnightblue" points="696.288,-339.571 686.7,-344.08 697.007,-346.534 696.288,-339.571"/>
</g>
<!-- Node17 -->
<g id="node38" class="node"><title>Node17</title>
<a xlink:href="../../d1/d2e/xmpp__server_8h.html#a27bfc8e4d424a8bc17ab21a4a09cdf92" target="_top" xlink:title="Allocates and initializes the XMPP server.">
<polygon fill="none" stroke="black" points="1740.5,-171.5 1740.5,-190.5 1847.5,-190.5 1847.5,-171.5 1740.5,-171.5"/>
<text text-anchor="middle" x="1794" y="-178.5" font-family="DejaVuSansMono" font-size="10.00">xmpp_server_new</text>
</a>
</g>
<!-- Node16&#45;&gt;Node17 -->
<g id="edge42" class="edge"><title>Node16&#45;&gt;Node17</title>
<path fill="none" stroke="midnightblue" d="M1036.03,-200C1105.43,-200 1213.4,-200 1307,-200 1307,-200 1307,-200 1477,-200 1569.88,-200 1677.85,-191.72 1740.5,-186.092"/>
<polygon fill="midnightblue" stroke="midnightblue" points="1035.65,-196.5 1025.65,-200 1035.65,-203.5 1035.65,-196.5"/>
</g>
<!-- Node18 -->
<g id="node40" class="node"><title>Node18</title>
<a xlink:href="../../d0/d29/main_8c.html#a0ddf1224851353fc92bfbff6f499fa97" target="_top" xlink:title="main">
<polygon fill="none" stroke="black" points="1884.5,-171.5 1884.5,-190.5 1925.5,-190.5 1925.5,-171.5 1884.5,-171.5"/>
<text text-anchor="middle" x="1905" y="-178.5" font-family="DejaVuSansMono" font-size="10.00">main</text>
</a>
</g>
<!-- Node17&#45;&gt;Node18 -->
<g id="edge44" class="edge"><title>Node17&#45;&gt;Node18</title>
<path fill="none" stroke="midnightblue" d="M1857.75,-181C1867.43,-181 1876.76,-181 1884.47,-181"/>
<polygon fill="midnightblue" stroke="midnightblue" points="1857.58,-177.5 1847.58,-181 1857.58,-184.5 1857.58,-177.5"/>
</g>
<!-- Node19&#45;&gt;Node17 -->
<g id="edge48" class="edge"><title>Node19&#45;&gt;Node17</title>
<path fill="none" stroke="midnightblue" d="M694.096,-162C765.409,-162 870.407,-162 962,-162 962,-162 962,-162 1477,-162 1569.88,-162 1677.85,-170.28 1740.5,-175.908"/>
<polygon fill="midnightblue" stroke="midnightblue" points="693.825,-158.5 683.825,-162 693.825,-165.5 693.825,-158.5"/>
</g>
<!-- Node20&#45;&gt;Node17 -->
<g id="edge52" class="edge"><title>Node20&#45;&gt;Node17</title>
<path fill="none" stroke="midnightblue" d="M1535.56,-106.558C1581.72,-116.174 1647.5,-131.002 1704,-148 1726.57,-154.789 1751.69,-164.29 1769.48,-171.355"/>
<polygon fill="midnightblue" stroke="midnightblue" points="1536.23,-103.123 1525.73,-104.527 1534.82,-109.978 1536.23,-103.123"/>
</g>
<!-- Node22 -->
<g id="node50" class="node"><title>Node22</title>
<a xlink:href="../../d9/dd7/xmpp__im_8h.html#a40f3cf6fffd6aafe9c7cde476fdbc9c2" target="_top" xlink:title="IQ stanza callback for handing a roster query.">
<polygon fill="none" stroke="black" points="1584.5,-48.5 1584.5,-67.5 1703.5,-67.5 1703.5,-48.5 1584.5,-48.5"/>
<text text-anchor="middle" x="1644" y="-55.5" font-family="DejaVuSansMono" font-size="10.00">xmpp_im_iq_roster</text>
</a>
</g>
<!-- Node21&#45;&gt;Node22 -->
<g id="edge56" class="edge"><title>Node21&#45;&gt;Node22</title>
<path fill="none" stroke="midnightblue" d="M1012.06,-48.7078C1133.46,-50.4957 1452.12,-55.1889 1584.27,-57.1351"/>
<polygon fill="midnightblue" stroke="midnightblue" points="1012.01,-45.2068 1001.96,-48.5591 1011.91,-52.206 1012.01,-45.2068"/>
</g>
<!-- Node22&#45;&gt;Node17 -->
<g id="edge58" class="edge"><title>Node22&#45;&gt;Node17</title>
<path fill="none" stroke="midnightblue" d="M1674.29,-72.2747C1684.11,-77.5985 1694.87,-84.0522 1704,-91 1737.4,-116.417 1770.5,-154.006 1785.16,-171.456"/>
<polygon fill="midnightblue" stroke="midnightblue" points="1675.74,-69.081 1665.26,-67.5375 1672.49,-75.2807 1675.74,-69.081"/>
</g>
<!-- Node23&#45;&gt;Node19 -->
<g id="edge62" class="edge"><title>Node23&#45;&gt;Node19</title>
<path fill="none" stroke="midnightblue" d="M457.901,-135.347C488.605,-140.799 524.994,-147.261 554.253,-152.456"/>
<polygon fill="midnightblue" stroke="midnightblue" points="458.183,-131.842 447.725,-133.54 456.959,-138.734 458.183,-131.842"/>
</g>
<!-- Node25 -->
<g id="node58" class="node"><title>Node25</title>
<a xlink:href="../../d1/d2e/xmpp__server_8h.html#a8ddb3bbfd497811c13e9426ce6f02003" target="_top" xlink:title="Deliver an IQ stanza to a registered callback function.">
<polygon fill="none" stroke="black" points="726.5,-494.5 726.5,-513.5 863.5,-513.5 863.5,-494.5 726.5,-494.5"/>
<text text-anchor="middle" x="795" y="-501.5" font-family="DejaVuSansMono" font-size="10.00">xmpp_server_route_iq</text>
</a>
</g>
<!-- Node24&#45;&gt;Node25 -->
<g id="edge66" class="edge"><title>Node24&#45;&gt;Node25</title>
<path fill="none" stroke="midnightblue" d="M699.722,-504C708.684,-504 717.674,-504 726.353,-504"/>
<polygon fill="midnightblue" stroke="midnightblue" points="699.635,-500.5 689.635,-504 699.635,-507.5 699.635,-500.5"/>
</g>
<!-- Node26 -->
<g id="node60" class="node"><title>Node26</title>
<a xlink:href="../../d8/d28/xmpp__core_8h.html#a777c384ae6685d30bfa255c4b33022aa" target="_top" xlink:title="An xmpp_server stanza route for stanzas directed to the server itself.">
<polygon fill="none" stroke="black" points="1062.5,-482.5 1062.5,-501.5 1211.5,-501.5 1211.5,-482.5 1062.5,-482.5"/>
<text text-anchor="middle" x="1137" y="-489.5" font-family="DejaVuSansMono" font-size="10.00">xmpp_core_route_server</text>
</a>
</g>
<!-- Node25&#45;&gt;Node26 -->
<g id="edge68" class="edge"><title>Node25&#45;&gt;Node26</title>
<path fill="none" stroke="midnightblue" d="M873.919,-501.25C930.562,-499.251 1006.74,-496.562 1062.36,-494.599"/>
<polygon fill="midnightblue" stroke="midnightblue" points="873.45,-497.764 863.58,-501.615 873.697,-504.76 873.45,-497.764"/>
</g>
<!-- Node26&#45;&gt;Node17 -->
<g id="edge70" class="edge"><title>Node26&#45;&gt;Node17</title>
<path fill="none" stroke="midnightblue" d="M1184.97,-503.884C1290.37,-527.56 1548.63,-568.492 1704,-447 1788.97,-380.558 1793.53,-229.956 1793.22,-190.571"/>
<polygon fill="midnightblue" stroke="midnightblue" points="1185.49,-500.412 1174.96,-501.583 1183.92,-507.234 1185.49,-500.412"/>
</g>
<!-- Node28 -->
<g id="node65" class="node"><title>Node28</title>
<a xlink:href="../../d1/dc2/xmpp__parser_8c.html#a2268b636f6d02bbe04f3033ff93d829c" target="_top" xlink:title="Expat callback for the start of an XMPP stream.">
<polygon fill="none" stroke="black" points="750.5,-418.5 750.5,-437.5 839.5,-437.5 839.5,-418.5 750.5,-418.5"/>
<text text-anchor="middle" x="795" y="-425.5" font-family="DejaVuSansMono" font-size="10.00">stream_start</text>
</a>
</g>
<!-- Node27&#45;&gt;Node28 -->
<g id="edge74" class="edge"><title>Node27&#45;&gt;Node28</title>
<path fill="none" stroke="midnightblue" d="M465.697,-428C548.379,-428 681.691,-428 750.222,-428"/>
<polygon fill="midnightblue" stroke="midnightblue" points="465.623,-424.5 455.623,-428 465.623,-431.5 465.623,-424.5"/>
</g>
<!-- Node39 -->
<g id="node90" class="node"><title>Node39</title>
<a xlink:href="../../d1/dc2/xmpp__parser_8c.html#a0f2993ab3e982d5e2b4a5635dcaf291c" target="_top" xlink:title="Expat callback for the start of any other element.">
<polygon fill="none" stroke="black" points="585.5,-456.5 585.5,-475.5 632.5,-475.5 632.5,-456.5 585.5,-456.5"/>
<text text-anchor="middle" x="609" y="-463.5" font-family="DejaVuSansMono" font-size="10.00">start</text>
</a>
</g>
<!-- Node27&#45;&gt;Node39 -->
<g id="edge102" class="edge"><title>Node27&#45;&gt;Node39</title>
<path fill="none" stroke="midnightblue" d="M457.574,-439.289C500.675,-446.942 555.097,-456.606 585.253,-461.961"/>
<polygon fill="midnightblue" stroke="midnightblue" points="458.183,-435.842 447.725,-437.54 456.959,-442.734 458.183,-435.842"/>
</g>
<!-- Node29 -->
<g id="node67" class="node"><title>Node29</title>
<a xlink:href="../../d1/dc2/xmpp__parser_8c.html#a03a135f29e3d4e01abbb60e53ac6967c" target="_top" xlink:title="init_parser">
<polygon fill="none" stroke="black" points="921.5,-418.5 921.5,-437.5 1004.5,-437.5 1004.5,-418.5 921.5,-418.5"/>
<text text-anchor="middle" x="963" y="-425.5" font-family="DejaVuSansMono" font-size="10.00">init_parser</text>
</a>
</g>
<!-- Node28&#45;&gt;Node29 -->
<g id="edge76" class="edge"><title>Node28&#45;&gt;Node29</title>
<path fill="none" stroke="midnightblue" d="M849.672,-428C872.912,-428 899.672,-428 921.242,-428"/>
<polygon fill="midnightblue" stroke="midnightblue" points="849.615,-424.5 839.615,-428 849.615,-431.5 849.615,-424.5"/>
</g>
<!-- Node30 -->
<g id="node69" class="node"><title>Node30</title>
<a xlink:href="../../d8/d55/xmpp__parser_8h.html#adf25a1d2047994dfa6cc71a9482548c2" target="_top" xlink:title="xmpp_parser_new">
<polygon fill="none" stroke="black" points="1083.5,-361.5 1083.5,-380.5 1190.5,-380.5 1190.5,-361.5 1083.5,-361.5"/>
<text text-anchor="middle" x="1137" y="-368.5" font-family="DejaVuSansMono" font-size="10.00">xmpp_parser_new</text>
</a>
</g>
<!-- Node29&#45;&gt;Node30 -->
<g id="edge78" class="edge"><title>Node29&#45;&gt;Node30</title>
<path fill="none" stroke="midnightblue" d="M1002.6,-415.208C1034.28,-404.71 1078.43,-390.077 1107.12,-380.572"/>
<polygon fill="midnightblue" stroke="midnightblue" points="1001.18,-411.991 992.789,-418.459 1003.38,-418.636 1001.18,-411.991"/>
</g>
<!-- Node34 -->
<g id="node78" class="node"><title>Node34</title>
<a xlink:href="../../d8/d55/xmpp__parser_8h.html#af5e1eb5bbef0496c3543bd35113766ac" target="_top" xlink:title="Reset the state of the parser as if it was just created.">
<polygon fill="none" stroke="black" points="1077.5,-418.5 1077.5,-437.5 1196.5,-437.5 1196.5,-418.5 1077.5,-418.5"/>
<text text-anchor="middle" x="1137" y="-425.5" font-family="DejaVuSansMono" font-size="10.00">xmpp_parser_reset</text>
</a>
</g>
<!-- Node29&#45;&gt;Node34 -->
<g id="edge88" class="edge"><title>Node29&#45;&gt;Node34</title>
<path fill="none" stroke="midnightblue" d="M1015,-428C1034.57,-428 1057.06,-428 1077.3,-428"/>
<polygon fill="midnightblue" stroke="midnightblue" points="1014.76,-424.5 1004.76,-428 1014.76,-431.5 1014.76,-424.5"/>
</g>
<!-- Node31 -->
<g id="node71" class="node"><title>Node31</title>
<a xlink:href="../../d6/d78/xmp3__multicast_8c.html#a08afc39c59ec9297d756a99c395eff3c" target="_top" xlink:title="multicast_new">
<polygon fill="none" stroke="black" points="1260.5,-361.5 1260.5,-380.5 1355.5,-380.5 1355.5,-361.5 1260.5,-361.5"/>
<text text-anchor="middle" x="1308" y="-368.5" font-family="DejaVuSansMono" font-size="10.00">multicast_new</text>
</a>
</g>
<!-- Node30&#45;&gt;Node31 -->
<g id="edge80" class="edge"><title>Node30&#45;&gt;Node31</title>
<path fill="none" stroke="midnightblue" d="M1200.72,-371C1220.52,-371 1242.04,-371 1260.5,-371"/>
<polygon fill="midnightblue" stroke="midnightblue" points="1200.55,-367.5 1190.55,-371 1200.55,-374.5 1200.55,-367.5"/>
</g>
<!-- Node32 -->
<g id="node73" class="node"><title>Node32</title>
<a xlink:href="../../d4/d2f/xmpp__client_8h.html#a1619c0b8f58b2cf09a322bf34fbc3414" target="_top" xlink:title="xmpp_client_new">
<polygon fill="none" stroke="black" points="1422.5,-323.5 1422.5,-342.5 1529.5,-342.5 1529.5,-323.5 1422.5,-323.5"/>
<text text-anchor="middle" x="1476" y="-330.5" font-family="DejaVuSansMono" font-size="10.00">xmpp_client_new</text>
</a>
</g>
<!-- Node30&#45;&gt;Node32 -->
<g id="edge82" class="edge"><title>Node30&#45;&gt;Node32</title>
<path fill="none" stroke="midnightblue" d="M1197.63,-359.721C1213.92,-356.908 1231.6,-354.098 1248,-352 1307.43,-344.395 1376.02,-339.137 1422.11,-336.112"/>
<polygon fill="midnightblue" stroke="midnightblue" points="1196.93,-356.29 1187.69,-361.467 1198.15,-363.184 1196.93,-356.29"/>
</g>
<!-- Node33 -->
<g id="node75" class="node"><title>Node33</title>
<a xlink:href="../../d0/df0/xmpp__server_8c.html#a66363912ef1221a2574f9f99805fe8fd" target="_top" xlink:title="Callback for new client connections.">
<polygon fill="none" stroke="black" points="1593.5,-323.5 1593.5,-342.5 1694.5,-342.5 1694.5,-323.5 1593.5,-323.5"/>
<text text-anchor="middle" x="1644" y="-330.5" font-family="DejaVuSansMono" font-size="10.00">connect_client</text>
</a>
</g>
<!-- Node32&#45;&gt;Node33 -->
<g id="edge84" class="edge"><title>Node32&#45;&gt;Node33</title>
<path fill="none" stroke="midnightblue" d="M1539.78,-333C1557.5,-333 1576.53,-333 1593.36,-333"/>
<polygon fill="midnightblue" stroke="midnightblue" points="1539.52,-329.5 1529.52,-333 1539.52,-336.5 1539.52,-329.5"/>
</g>
<!-- Node33&#45;&gt;Node17 -->
<g id="edge86" class="edge"><title>Node33&#45;&gt;Node17</title>
<path fill="none" stroke="midnightblue" d="M1661.35,-316.207C1692.46,-284.257 1759.25,-215.665 1783.75,-190.505"/>
<polygon fill="midnightblue" stroke="midnightblue" points="1658.73,-313.885 1654.26,-323.492 1663.74,-318.769 1658.73,-313.885"/>
</g>
<!-- Node35 -->
<g id="node80" class="node"><title>Node35</title>
<a xlink:href="../../d6/d78/xmp3__multicast_8c.html#a9865e8026fb8ee000629fc1da465716d" target="_top" xlink:title="socket_handler">
<polygon fill="none" stroke="black" points="1425.5,-418.5 1425.5,-437.5 1526.5,-437.5 1526.5,-418.5 1425.5,-418.5"/>
<text text-anchor="middle" x="1476" y="-425.5" font-family="DejaVuSansMono" font-size="10.00">socket_handler</text>
</a>
</g>
<!-- Node34&#45;&gt;Node35 -->
<g id="edge90" class="edge"><title>Node34&#45;&gt;Node35</title>
<path fill="none" stroke="midnightblue" d="M1206.86,-428C1271.84,-428 1367.69,-428 1425.46,-428"/>
<polygon fill="midnightblue" stroke="midnightblue" points="1206.7,-424.5 1196.7,-428 1206.7,-431.5 1206.7,-424.5"/>
</g>
<!-- Node37 -->
<g id="node84" class="node"><title>Node37</title>
<a xlink:href="../../d8/d55/xmpp__parser_8h.html#a578b7a9a50212eb204a86789001287af" target="_top" xlink:title="xmpp_parser_parse">
<polygon fill="none" stroke="black" points="1248.5,-399.5 1248.5,-418.5 1367.5,-418.5 1367.5,-399.5 1248.5,-399.5"/>
<text text-anchor="middle" x="1308" y="-406.5" font-family="DejaVuSansMono" font-size="10.00">xmpp_parser_parse</text>
</a>
</g>
<!-- Node34&#45;&gt;Node37 -->
<g id="edge94" class="edge"><title>Node34&#45;&gt;Node37</title>
<path fill="none" stroke="midnightblue" d="M1206.61,-420.286C1220.5,-418.725 1234.97,-417.098 1248.47,-415.58"/>
<polygon fill="midnightblue" stroke="midnightblue" points="1206.18,-416.813 1196.63,-421.408 1206.96,-423.769 1206.18,-416.813"/>
</g>
<!-- Node36 -->
<g id="node82" class="node"><title>Node36</title>
<a xlink:href="../../d6/d78/xmp3__multicast_8c.html#a991c928ab73b350c4b7029352e91a219" target="_top" xlink:title="multicast_start">
<polygon fill="none" stroke="black" points="1590.5,-418.5 1590.5,-437.5 1697.5,-437.5 1697.5,-418.5 1590.5,-418.5"/>
<text text-anchor="middle" x="1644" y="-425.5" font-family="DejaVuSansMono" font-size="10.00">multicast_start</text>
</a>
</g>
<!-- Node35&#45;&gt;Node36 -->
<g id="edge92" class="edge"><title>Node35&#45;&gt;Node36</title>
<path fill="none" stroke="midnightblue" d="M1536.9,-428C1554.38,-428 1573.35,-428 1590.34,-428"/>
<polygon fill="midnightblue" stroke="midnightblue" points="1536.81,-424.5 1526.81,-428 1536.81,-431.5 1536.81,-424.5"/>
</g>
<!-- Node37&#45;&gt;Node35 -->
<g id="edge96" class="edge"><title>Node37&#45;&gt;Node35</title>
<path fill="none" stroke="midnightblue" d="M1377.84,-416.88C1393.74,-418.699 1410.35,-420.6 1425.25,-422.306"/>
<polygon fill="midnightblue" stroke="midnightblue" points="1377.86,-413.359 1367.53,-415.699 1377.06,-420.313 1377.86,-413.359"/>
</g>
<!-- Node38 -->
<g id="node87" class="node"><title>Node38</title>
<a xlink:href="../../d0/df0/xmpp__server_8c.html#abece91815ef240322d79073f5bfca1db" target="_top" xlink:title="Callback for new data from a client.">
<polygon fill="none" stroke="black" points="1434.5,-371.5 1434.5,-390.5 1517.5,-390.5 1517.5,-371.5 1434.5,-371.5"/>
<text text-anchor="middle" x="1476" y="-378.5" font-family="DejaVuSansMono" font-size="10.00">read_client</text>
</a>
</g>
<!-- Node37&#45;&gt;Node38 -->
<g id="edge98" class="edge"><title>Node37&#45;&gt;Node38</title>
<path fill="none" stroke="midnightblue" d="M1375.6,-397.767C1395.46,-394.417 1416.62,-390.847 1434.3,-387.865"/>
<polygon fill="midnightblue" stroke="midnightblue" points="1374.94,-394.328 1365.66,-399.442 1376.11,-401.23 1374.94,-394.328"/>
</g>
<!-- Node38&#45;&gt;Node33 -->
<g id="edge100" class="edge"><title>Node38&#45;&gt;Node33</title>
<path fill="none" stroke="midnightblue" d="M1520.12,-368.531C1548.13,-360.432 1584.09,-350.033 1609.86,-342.582"/>
<polygon fill="midnightblue" stroke="midnightblue" points="1518.83,-365.262 1510.19,-371.402 1520.77,-371.986 1518.83,-365.262"/>
</g>
<!-- Node39&#45;&gt;Node28 -->
<g id="edge106" class="edge"><title>Node39&#45;&gt;Node28</title>
<path fill="none" stroke="midnightblue" d="M642.493,-459.29C672.425,-453.108 717.079,-443.886 750.161,-437.054"/>
<polygon fill="midnightblue" stroke="midnightblue" points="641.647,-455.89 632.562,-461.34 643.063,-462.746 641.647,-455.89"/>
</g>
<!-- Node39&#45;&gt;Node29 -->
<g id="edge104" class="edge"><title>Node39&#45;&gt;Node29</title>
<path fill="none" stroke="midnightblue" d="M642.717,-464.776C691.21,-462.685 784.95,-457.583 864,-447 882.895,-444.47 903.646,-440.607 921.17,-437.022"/>
<polygon fill="midnightblue" stroke="midnightblue" points="642.363,-461.287 632.516,-465.2 642.653,-468.281 642.363,-461.287"/>
</g>
<!-- Node42 -->
<g id="node98" class="node"><title>Node42</title>
<a xlink:href="../../dd/d21/xmpp__stanza_8h.html#abef52cde6bdc7effa8ebfb41ce82abd0" target="_top" xlink:title="Set the value of an attribute qualified by a namespace, copies value.">
<polygon fill="none" stroke="black" points="312.5,-0.5 312.5,-19.5 473.5,-19.5 473.5,-0.5 312.5,-0.5"/>
<text text-anchor="middle" x="393" y="-7.5" font-family="DejaVuSansMono" font-size="10.00">xmpp_stanza_copy_ns_attr</text>
</a>
</g>
<!-- Node41&#45;&gt;Node42 -->
<g id="edge112" class="edge"><title>Node41&#45;&gt;Node42</title>
<path fill="none" stroke="midnightblue" d="M244.005,-36.653C274.279,-31.2009 310.158,-24.7393 339.006,-19.5439"/>
<polygon fill="midnightblue" stroke="midnightblue" points="243.193,-33.2429 233.972,-38.46 244.434,-40.1321 243.193,-33.2429"/>
</g>
</g>
</svg>
        <g id="navigator" transform="translate(0 0)" fill="#404254">
                <rect fill="#f2f5e9" fill-opacity="0.5" stroke="#606060" stroke-width=".5" x="0" y="0" width="60" height="60"/>
                <use id="zoomplus" xlink:href="#zoomPlus" x="17" y="9" onmousedown="handleZoom(evt,'in')"/>
                <use id="zoomminus" xlink:href="#zoomMin" x="42" y="9" onmousedown="handleZoom(evt,'out')"/>
                <use id="reset" xlink:href="#resetDef" x="30" y="36" onmousedown="handleReset()"/>
                <g id="arrowUp" xlink:href="#dirArrow" transform="translate(30 24)" onmousedown="handlePan(0,-1)">
                  <use xlink:href="#rim" fill="#404040">
                        <set attributeName="fill" to="#808080" begin="arrowUp.mouseover" end="arrowUp.mouseout"/>
                  </use>
                  <path fill="none" stroke="white" stroke-width="1.5" d="M0,-3.0v7 M-2.5,-0.5L0,-3.0L2.5,-0.5"/>
                </g>
                <g id="arrowRight" xlink:href="#dirArrow" transform="rotate(90) translate(36 -43)" onmousedown="handlePan(1,0)">
                  <use xlink:href="#rim" fill="#404040">
                        <set attributeName="fill" to="#808080" begin="arrowRight.mouseover" end="arrowRight.mouseout"/>
                  </use>
                  <path fill="none" stroke="white" stroke-width="1.5" d="M0,-3.0v7 M-2.5,-0.5L0,-3.0L2.5,-0.5"/>
                </g>
                <g id="arrowDown" xlink:href="#dirArrow" transform="rotate(180) translate(-30 -48)" onmousedown="handlePan(0,1)">
                  <use xlink:href="#rim" fill="#404040">
                        <set attributeName="fill" to="#808080" begin="arrowDown.mouseover" end="arrowDown.mouseout"/>
                  </use>
                  <path fill="none" stroke="white" stroke-width="1.5" d="M0,-3.0v7 M-2.5,-0.5L0,-3.0L2.5,-0.5"/>
                </g>
                <g id="arrowLeft" xlink:href="#dirArrow" transform="rotate(270) translate(-36 17)" onmousedown="handlePan(-1,0)">
                  <use xlink:href="#rim" fill="#404040">
                        <set attributeName="fill" to="#808080" begin="arrowLeft.mouseover" end="arrowLeft.mouseout"/>
                  </use>
                  <path fill="none" stroke="white" stroke-width="1.5" d="M0,-3.0v7 M-2.5,-0.5L0,-3.0L2.5,-0.5"/>
                </g>
        </g>
        <svg viewBox="0 0 25 25" width="100%" height="30px" preserveAspectRatio="xMaxYMin meet"> 
          <g id="printButton" transform="scale(0.4 0.4)" onmousedown="handlePrint(evt)">
            <rect height="23.33753581" id="paper" rx="2" style="fill:#f2f5e9;fill-rule:evenodd;stroke:#111111;stroke-width:3.224;stroke-linejoin:round;" transform="matrix(1.000000,0.000000,-0.339266,0.940691,0.000000,0.000000)" width="25.55231285" x="26.69387353" y="7.36162977"/>
            <rect height="26.272097" id="body" rx="2" style="fill:#404040;fill-rule:evenodd;stroke:#111111;stroke-width:3.125;stroke-linejoin:round;" width="50" x="4.5295201" y="27.078951"/>
            <rect height="8.27750969" id="tray" style="fill:#d2d5c9;fill-rule:evenodd;stroke:#111111;stroke-width:3.125;stroke-linecap:round;stroke-linejoin:round;" width="40" x="10.28778839" y="44.96812282"/>
          </g>
        </svg>
</svg>
