<?xml version="1.0" encoding="UTF-8" standalone="no"?>
<!DOCTYPE svg PUBLIC "-//W3C//DTD SVG 1.1//EN"
 "http://www.w3.org/Graphics/SVG/1.1/DTD/svg11.dtd">
<!-- Generated by graphviz version 2.28.0 (20120217.0315)
 -->
<!-- Title: G Pages: 1 -->
<svg width="320pt" height="66pt"
 viewBox="0.00 0.00 320.00 66.00" xmlns="http://www.w3.org/2000/svg" xmlns:xlink="http://www.w3.org/1999/xlink">
<g id="graph1" class="graph" transform="scale(1 1) rotate(0) translate(4 62)">
<title>G</title>
<!-- Node1 -->
<g id="node1" class="node"><title>Node1</title>
<polygon fill="#bfbfbf" stroke="black" points="0.5,-19.5 0.5,-38.5 107.5,-38.5 107.5,-19.5 0.5,-19.5"/>
<text text-anchor="middle" x="54" y="-26.5" font-family="DejaVuSansMono" font-size="10.00">xmpp_stanza_del</text>
</g>
<!-- Node1&#45;&gt;Node1 -->
<g id="edge6" class="edge"><title>Node1&#45;&gt;Node1</title>
<path fill="none" stroke="midnightblue" d="M27.1815,-38.7571C14.1347,-47.5653 23.0742,-57 54,-57 74.7783,-57 85.6316,-52.741 86.5599,-47.2746"/>
<polygon fill="midnightblue" stroke="midnightblue" points="89.3102,-45.0928 80.8185,-38.7571 83.5057,-49.0054 89.3102,-45.0928"/>
</g>
<!-- Node2 -->
<g id="node3" class="node"><title>Node2</title>
<a xlink:href="../../d1/d59/xmpp__stanza_8c.html#a2fb472c6bf9b7f540a97ddc6c11adb74" target="_top" xlink:title="attribute_del">
<polygon fill="none" stroke="black" points="180.5,-38.5 180.5,-57.5 275.5,-57.5 275.5,-38.5 180.5,-38.5"/>
<text text-anchor="middle" x="228" y="-45.5" font-family="DejaVuSansMono" font-size="10.00">attribute_del</text>
</a>
</g>
<!-- Node1&#45;&gt;Node2 -->
<g id="edge2" class="edge"><title>Node1&#45;&gt;Node2</title>
<path fill="none" stroke="midnightblue" d="M107.54,-34.8039C127.401,-36.9978 150.083,-39.5033 170.308,-41.7375"/>
<polygon fill="midnightblue" stroke="midnightblue" points="169.999,-45.2246 180.323,-42.8438 170.768,-38.2669 169.999,-45.2246"/>
</g>
<!-- Node3 -->
<g id="node5" class="node"><title>Node3</title>
<a xlink:href="../../d1/dc2/xmpp__parser_8c.html#a87065f39f10a449e7af17fa45ca475f2" target="_top" xlink:title="xmpp_parser_namespace_del">
<polygon fill="none" stroke="black" points="144.5,-0.5 144.5,-19.5 311.5,-19.5 311.5,-0.5 144.5,-0.5"/>
<text text-anchor="middle" x="228" y="-7.5" font-family="DejaVuSansMono" font-size="10.00">xmpp_parser_namespace_del</text>
</a>
</g>
<!-- Node1&#45;&gt;Node3 -->
<g id="edge4" class="edge"><title>Node1&#45;&gt;Node3</title>
<path fill="none" stroke="midnightblue" d="M107.54,-23.1961C116.101,-22.2504 125.186,-21.2468 134.373,-20.2321"/>
<polygon fill="midnightblue" stroke="midnightblue" points="134.806,-23.7056 144.361,-19.1287 134.037,-16.7479 134.806,-23.7056"/>
</g>
</g>
</svg>
