<?xml version="1.0" encoding="UTF-8" standalone="no"?>
<!DOCTYPE svg PUBLIC "-//W3C//DTD SVG 1.1//EN"
 "http://www.w3.org/Graphics/SVG/1.1/DTD/svg11.dtd">
<!-- Generated by graphviz version 2.28.0 (20120217.0315)
 -->
<!-- Title: G Pages: 1 -->
<!--zoomable 609 -->
<svg id="main" version="1.1" xmlns="http://www.w3.org/2000/svg" xmlns:xlink="http://www.w3.org/1999/xlink" xml:space="preserve" onload="init(evt)">
        <defs>
                <circle id="rim" cx="0" cy="0" r="7"/>
                <circle id="rim2" cx="0" cy="0" r="3.5"/>
                <g id="zoomPlus">
                        <use xlink:href="#rim" fill="#404040">
                                <set attributeName="fill" to="#808080" begin="zoomplus.mouseover" end="zoomplus.mouseout"/>
                        </use>
                        <path d="M-4,0h8M0,-4v8" fill="none" stroke="white" stroke-width="1.5" pointer-events="none"/>
                </g>
                <g id="zoomMin">
                        <use xlink:href="#rim" fill="#404040">
                                <set attributeName="fill" to="#808080" begin="zoomminus.mouseover" end="zoomminus.mouseout"/>
                        </use>
                        <path d="M-4,0h8" fill="none" stroke="white" stroke-width="1.5" pointer-events="none"/>
                </g>
                <g id="dirArrow">
                        <path fill="none" stroke="white" stroke-width="1.5" d="M0,-3.0v7 M-2.5,-0.5L0,-3.0L2.5,-0.5"/>
                </g>
               <g id="resetDef">
                       <use xlink:href="#rim2" fill="#404040">
                               <set attributeName="fill" to="#808080" begin="reset.mouseover" end="reset.mouseout"/>
                       </use>
               </g>
        </defs>

<script type="text/javascript">
var viewWidth = 1880;
var viewHeight = 609;
var sectionId = 'dynsection-4';
</script>
<script xlink:href="../../svgpan.js"/>
<svg id="graph" class="graph">
<g id="viewport">
<title>G</title>
<!-- Node1 -->
<g id="node1" class="node"><title>Node1</title>
<polygon fill="#bfbfbf" stroke="black" points="0.5,-353.085 0.5,-372.085 65.5,-372.085 65.5,-353.085 0.5,-353.085"/>
<text text-anchor="middle" x="33" y="-360.085" font-family="DejaVuSansMono" font-size="10.00">parse_ns</text>
</g>
<!-- Node2 -->
<g id="node3" class="node"><title>Node2</title>
<a xlink:href="../../dd/d21/xmpp__stanza_8h.html#aa80dd21d794b5c63fcb13c49745cc373" target="_top" xlink:title="Allocate and initialize a new XMPP stanza structure.">
<polygon fill="none" stroke="black" points="102.5,-353.085 102.5,-372.085 209.5,-372.085 209.5,-353.085 102.5,-353.085"/>
<text text-anchor="middle" x="156" y="-360.085" font-family="DejaVuSansMono" font-size="10.00">xmpp_stanza_new</text>
</a>
</g>
<!-- Node1&#45;&gt;Node2 -->
<g id="edge2" class="edge"><title>Node1&#45;&gt;Node2</title>
<path fill="none" stroke="midnightblue" d="M75.883,-362.585C84.422,-362.585 93.5092,-362.585 102.368,-362.585"/>
<polygon fill="midnightblue" stroke="midnightblue" points="75.7914,-359.085 65.7913,-362.585 75.7913,-366.085 75.7914,-359.085"/>
</g>
<!-- Node3 -->
<g id="node5" class="node"><title>Node3</title>
<a xlink:href="../../d7/d71/xep__muc_8c.html#af88baacca4f1cccf8ec2bc295db0e063" target="_top" xlink:title="leave_room">
<polygon fill="none" stroke="black" points="306.5,-562.085 306.5,-581.085 383.5,-581.085 383.5,-562.085 306.5,-562.085"/>
<text text-anchor="middle" x="345" y="-569.085" font-family="DejaVuSansMono" font-size="10.00">leave_room</text>
</a>
</g>
<!-- Node2&#45;&gt;Node3 -->
<g id="edge4" class="edge"><title>Node2&#45;&gt;Node3</title>
<path fill="none" stroke="midnightblue" d="M160.699,-382.301C168.907,-420.369 192.329,-504.069 246,-547.585 262.872,-561.265 286.392,-567.323 306.161,-569.934"/>
<polygon fill="midnightblue" stroke="midnightblue" points="164.117,-381.548 158.698,-372.444 157.257,-382.94 164.117,-381.548"/>
</g>
<!-- Node11 -->
<g id="node22" class="node"><title>Node11</title>
<a xlink:href="../../d7/d71/xep__muc_8c.html#a4b26d057ea25fe1b3c99edff73a82d78" target="_top" xlink:title="handle_items_query">
<polygon fill="none" stroke="black" points="282.5,-448.085 282.5,-467.085 407.5,-467.085 407.5,-448.085 282.5,-448.085"/>
<text text-anchor="middle" x="345" y="-455.085" font-family="DejaVuSansMono" font-size="10.00">handle_items_query</text>
</a>
</g>
<!-- Node2&#45;&gt;Node11 -->
<g id="edge22" class="edge"><title>Node2&#45;&gt;Node11</title>
<path fill="none" stroke="midnightblue" d="M172.326,-380.163C188.735,-397.799 216.429,-424.332 246,-438.585 257.241,-444.003 269.91,-447.876 282.316,-450.645"/>
<polygon fill="midnightblue" stroke="midnightblue" points="174.525,-377.377 165.219,-372.313 169.336,-382.075 174.525,-377.377"/>
</g>
<!-- Node13 -->
<g id="node27" class="node"><title>Node13</title>
<a xlink:href="../../d7/d71/xep__muc_8c.html#a20d9ff75edcc76b952adf38d558fee26" target="_top" xlink:title="handle_info_query">
<polygon fill="none" stroke="black" points="285.5,-410.085 285.5,-429.085 404.5,-429.085 404.5,-410.085 285.5,-410.085"/>
<text text-anchor="middle" x="345" y="-417.085" font-family="DejaVuSansMono" font-size="10.00">handle_info_query</text>
</a>
</g>
<!-- Node2&#45;&gt;Node13 -->
<g id="edge28" class="edge"><title>Node2&#45;&gt;Node13</title>
<path fill="none" stroke="midnightblue" d="M190.32,-375.975C206.902,-382.373 227.343,-389.863 246,-395.585 263.584,-400.979 283.23,-405.986 300.288,-410.015"/>
<polygon fill="midnightblue" stroke="midnightblue" points="191.133,-372.536 180.545,-372.159 188.587,-379.056 191.133,-372.536"/>
</g>
<!-- Node14 -->
<g id="node30" class="node"><title>Node14</title>
<a xlink:href="../../d7/d71/xep__muc_8c.html#a8333f88612fa054ae107699f5bb548cc" target="_top" xlink:title="send_nickname_conflict">
<polygon fill="none" stroke="black" points="483.5,-524.085 483.5,-543.085 632.5,-543.085 632.5,-524.085 483.5,-524.085"/>
<text text-anchor="middle" x="558" y="-531.085" font-family="DejaVuSansMono" font-size="10.00">send_nickname_conflict</text>
</a>
</g>
<!-- Node2&#45;&gt;Node14 -->
<g id="edge32" class="edge"><title>Node2&#45;&gt;Node14</title>
<path fill="none" stroke="midnightblue" d="M162.531,-381.797C172.943,-414.075 198.77,-478.508 246,-507.585 324.435,-555.875 435.843,-551.495 501.844,-543.103"/>
<polygon fill="midnightblue" stroke="midnightblue" points="165.86,-380.715 159.582,-372.18 159.168,-382.767 165.86,-380.715"/>
</g>
<!-- Node15 -->
<g id="node33" class="node"><title>Node15</title>
<a xlink:href="../../d7/d71/xep__muc_8c.html#a115281f539cd77f88872ff153ec5b38d" target="_top" xlink:title="send_presence_broadcast">
<polygon fill="none" stroke="black" points="480.5,-486.085 480.5,-505.085 635.5,-505.085 635.5,-486.085 480.5,-486.085"/>
<text text-anchor="middle" x="558" y="-493.085" font-family="DejaVuSansMono" font-size="10.00">send_presence_broadcast</text>
</a>
</g>
<!-- Node2&#45;&gt;Node15 -->
<g id="edge36" class="edge"><title>Node2&#45;&gt;Node15</title>
<path fill="none" stroke="midnightblue" d="M165.471,-381.546C178.496,-408.146 206.181,-455.628 246,-476.585 327.377,-519.415 437.819,-513.74 502.839,-505.094"/>
<polygon fill="midnightblue" stroke="midnightblue" points="168.485,-379.731 161.065,-372.168 162.15,-382.708 168.485,-379.731"/>
</g>
<!-- Node16 -->
<g id="node36" class="node"><title>Node16</title>
<a xlink:href="../../d9/dd7/xmpp__im_8h.html#aee8f65a08bdaf68accfdcee40ed1488d" target="_top" xlink:title="IQ stanza callback for handling a session IQ.">
<polygon fill="none" stroke="black" points="846.5,-372.085 846.5,-391.085 971.5,-391.085 971.5,-372.085 846.5,-372.085"/>
<text text-anchor="middle" x="909" y="-379.085" font-family="DejaVuSansMono" font-size="10.00">xmpp_im_iq_session</text>
</a>
</g>
<!-- Node2&#45;&gt;Node16 -->
<g id="edge40" class="edge"><title>Node2&#45;&gt;Node16</title>
<path fill="none" stroke="midnightblue" d="M219.776,-364.174C361.655,-367.763 705.61,-376.465 846.382,-380.026"/>
<polygon fill="midnightblue" stroke="midnightblue" points="219.596,-360.668 209.51,-363.914 219.419,-367.666 219.596,-360.668"/>
</g>
<!-- Node19 -->
<g id="node42" class="node"><title>Node19</title>
<a xlink:href="../../d9/dd7/xmpp__im_8h.html#a7542fa668dcf982bb5d3725c5cacb0ca" target="_top" xlink:title="IQ stanza callback for handling a disco items query.">
<polygon fill="none" stroke="black" points="483.5,-296.085 483.5,-315.085 632.5,-315.085 632.5,-296.085 483.5,-296.085"/>
<text text-anchor="middle" x="558" y="-303.085" font-family="DejaVuSansMono" font-size="10.00">xmpp_im_iq_disco_items</text>
</a>
</g>
<!-- Node2&#45;&gt;Node19 -->
<g id="edge46" class="edge"><title>Node2&#45;&gt;Node19</title>
<path fill="none" stroke="midnightblue" d="M219.854,-354.905C278.059,-347.64 366.986,-336.155 444,-324.585 463.181,-321.704 484.142,-318.261 502.746,-315.103"/>
<polygon fill="midnightblue" stroke="midnightblue" points="219.202,-351.459 209.711,-356.167 220.067,-358.405 219.202,-351.459"/>
</g>
<!-- Node20 -->
<g id="node45" class="node"><title>Node20</title>
<a xlink:href="../../d9/dd7/xmpp__im_8h.html#a93be77ae71bc544a1c23fae07f39fd23" target="_top" xlink:title="IQ stanza callback for handling a disco info query.">
<polygon fill="none" stroke="black" points="1350.5,-258.085 1350.5,-277.085 1493.5,-277.085 1493.5,-258.085 1350.5,-258.085"/>
<text text-anchor="middle" x="1422" y="-265.085" font-family="DejaVuSansMono" font-size="10.00">xmpp_im_iq_disco_info</text>
</a>
</g>
<!-- Node2&#45;&gt;Node20 -->
<g id="edge50" class="edge"><title>Node2&#45;&gt;Node20</title>
<path fill="none" stroke="midnightblue" d="M171.027,-345.285C187.007,-327.005 214.959,-299.124 246,-286.585 374.4,-234.72 418.52,-267.585 557,-267.585 557,-267.585 557,-267.585 1084,-267.585 1176,-267.585 1282.13,-267.585 1350.32,-267.585"/>
<polygon fill="midnightblue" stroke="midnightblue" points="168.353,-343.026 164.559,-352.919 173.694,-347.552 168.353,-343.026"/>
</g>
<!-- Node21 -->
<g id="node48" class="node"><title>Node21</title>
<a xlink:href="../../dc/da6/xmpp__im_8c.html#af5cf3adac08463b9b6029c8814e4f972" target="_top" xlink:title="get_roster">
<polygon fill="none" stroke="black" points="870.5,-220.085 870.5,-239.085 947.5,-239.085 947.5,-220.085 870.5,-220.085"/>
<text text-anchor="middle" x="909" y="-227.085" font-family="DejaVuSansMono" font-size="10.00">get_roster</text>
</a>
</g>
<!-- Node2&#45;&gt;Node21 -->
<g id="edge54" class="edge"><title>Node2&#45;&gt;Node21</title>
<path fill="none" stroke="midnightblue" d="M165.832,-343.926C179.138,-318.241 206.985,-272.972 246,-253.585 356.46,-198.7 746.577,-218.941 870.158,-226.946"/>
<polygon fill="midnightblue" stroke="midnightblue" points="162.632,-342.501 161.31,-353.013 168.899,-345.62 162.632,-342.501"/>
</g>
<!-- Node23 -->
<g id="node53" class="node"><title>Node23</title>
<a xlink:href="../../d1/d2e/xmpp__server_8h.html#ae539771fafbb092bcd304e4e063370aa" target="_top" xlink:title="Append to the given stanza all the items set on this server.">
<polygon fill="none" stroke="black" points="246.5,-296.085 246.5,-315.085 443.5,-315.085 443.5,-296.085 246.5,-296.085"/>
<text text-anchor="middle" x="345" y="-303.085" font-family="DejaVuSansMono" font-size="10.00">xmpp_server_append_disco_items</text>
</a>
</g>
<!-- Node2&#45;&gt;Node23 -->
<g id="edge60" class="edge"><title>Node2&#45;&gt;Node23</title>
<path fill="none" stroke="midnightblue" d="M190.32,-349.195C206.902,-342.798 227.343,-335.308 246,-329.585 263.584,-324.192 283.23,-319.185 300.288,-315.155"/>
<polygon fill="midnightblue" stroke="midnightblue" points="188.587,-346.115 180.545,-353.012 191.133,-352.635 188.587,-346.115"/>
</g>
<!-- Node24 -->
<g id="node56" class="node"><title>Node24</title>
<a xlink:href="../../d0/df0/xmpp__server_8c.html#a3b400cb24e5bc51623f63c96c8a0a342" target="_top" xlink:title="Sends a &lt;service&#45;unavailable&gt; error stanza to a client.">
<polygon fill="none" stroke="black" points="264.5,-87.0854 264.5,-106.085 425.5,-106.085 425.5,-87.0854 264.5,-87.0854"/>
<text text-anchor="middle" x="345" y="-94.0854" font-family="DejaVuSansMono" font-size="10.00">send_service_unavailable</text>
</a>
</g>
<!-- Node2&#45;&gt;Node24 -->
<g id="edge64" class="edge"><title>Node2&#45;&gt;Node24</title>
<path fill="none" stroke="midnightblue" d="M162.694,-343.21C174.059,-306.873 202.289,-227.238 246,-172.585 269.265,-143.497 305.841,-119.016 327.112,-106.199"/>
<polygon fill="midnightblue" stroke="midnightblue" points="159.271,-342.435 159.709,-353.021 165.968,-344.472 159.271,-342.435"/>
</g>
<!-- Node27 -->
<g id="node63" class="node"><title>Node27</title>
<a xlink:href="../../dd/d21/xmpp__stanza_8h.html#aa2b621549a5e0499793adbec29964932" target="_top" xlink:title="Allocate stanza with namespace information.">
<polygon fill="none" stroke="black" points="282.5,-182.085 282.5,-201.085 407.5,-201.085 407.5,-182.085 282.5,-182.085"/>
<text text-anchor="middle" x="345" y="-189.085" font-family="DejaVuSansMono" font-size="10.00">xmpp_stanza_ns_new</text>
</a>
</g>
<!-- Node2&#45;&gt;Node27 -->
<g id="edge72" class="edge"><title>Node2&#45;&gt;Node27</title>
<path fill="none" stroke="midnightblue" d="M163.279,-343.021C174.537,-311.187 201.254,-248.435 246,-215.585 256.661,-207.759 269.557,-202.461 282.443,-198.882"/>
<polygon fill="midnightblue" stroke="midnightblue" points="159.829,-342.298 159.938,-352.893 166.459,-344.543 159.829,-342.298"/>
</g>
<!-- Node4 -->
<g id="node7" class="node"><title>Node4</title>
<a xlink:href="../../d7/d71/xep__muc_8c.html#a40cdc65e1b60c76aef97dfc9d3f2510f" target="_top" xlink:title="leave_room_presence">
<polygon fill="none" stroke="black" points="675.5,-581.085 675.5,-600.085 806.5,-600.085 806.5,-581.085 675.5,-581.085"/>
<text text-anchor="middle" x="741" y="-588.085" font-family="DejaVuSansMono" font-size="10.00">leave_room_presence</text>
</a>
</g>
<!-- Node3&#45;&gt;Node4 -->
<g id="edge6" class="edge"><title>Node3&#45;&gt;Node4</title>
<path fill="none" stroke="midnightblue" d="M393.824,-580.034C419.315,-584.115 451.263,-588.558 480,-590.585 546.415,-595.27 622.61,-594.557 675.268,-593.11"/>
<polygon fill="midnightblue" stroke="midnightblue" points="394.115,-576.535 383.681,-578.376 392.985,-583.443 394.115,-576.535"/>
</g>
<!-- Node9 -->
<g id="node17" class="node"><title>Node9</title>
<a xlink:href="../../d7/d71/xep__muc_8c.html#a0214cd898b2f0c746cb45f79746e5095" target="_top" xlink:title="client_disconnect">
<polygon fill="none" stroke="black" points="498.5,-562.085 498.5,-581.085 617.5,-581.085 617.5,-562.085 498.5,-562.085"/>
<text text-anchor="middle" x="558" y="-569.085" font-family="DejaVuSansMono" font-size="10.00">client_disconnect</text>
</a>
</g>
<!-- Node3&#45;&gt;Node9 -->
<g id="edge16" class="edge"><title>Node3&#45;&gt;Node9</title>
<path fill="none" stroke="midnightblue" d="M393.817,-571.585C424.735,-571.585 465.196,-571.585 498.093,-571.585"/>
<polygon fill="midnightblue" stroke="midnightblue" points="393.723,-568.085 383.723,-571.585 393.723,-575.085 393.723,-568.085"/>
</g>
<!-- Node5 -->
<g id="node9" class="node"><title>Node5</title>
<a xlink:href="../../d7/d71/xep__muc_8c.html#a9936322b944d46aead9fbd942687ec0a" target="_top" xlink:title="handle_presence">
<polygon fill="none" stroke="black" points="855.5,-524.085 855.5,-543.085 962.5,-543.085 962.5,-524.085 855.5,-524.085"/>
<text text-anchor="middle" x="909" y="-531.085" font-family="DejaVuSansMono" font-size="10.00">handle_presence</text>
</a>
</g>
<!-- Node4&#45;&gt;Node5 -->
<g id="edge8" class="edge"><title>Node4&#45;&gt;Node5</title>
<path fill="none" stroke="midnightblue" d="M779.254,-577.793C809.826,-567.296 852.442,-552.663 880.125,-543.157"/>
<polygon fill="midnightblue" stroke="midnightblue" points="778.106,-574.487 769.785,-581.045 780.379,-581.107 778.106,-574.487"/>
</g>
<!-- Node6 -->
<g id="node11" class="node"><title>Node6</title>
<a xlink:href="../../d7/d71/xep__muc_8c.html#a1798db1c16a1fa62ff8f39fea202a26f" target="_top" xlink:title="stanza_handler">
<polygon fill="none" stroke="black" points="1032.5,-467.085 1032.5,-486.085 1133.5,-486.085 1133.5,-467.085 1032.5,-467.085"/>
<text text-anchor="middle" x="1083" y="-474.085" font-family="DejaVuSansMono" font-size="10.00">stanza_handler</text>
</a>
</g>
<!-- Node5&#45;&gt;Node6 -->
<g id="edge10" class="edge"><title>Node5&#45;&gt;Node6</title>
<path fill="none" stroke="midnightblue" d="M948.6,-520.793C980.278,-510.296 1024.43,-495.663 1053.12,-486.157"/>
<polygon fill="midnightblue" stroke="midnightblue" points="947.18,-517.577 938.789,-524.045 949.382,-524.221 947.18,-517.577"/>
</g>
<!-- Node7 -->
<g id="node13" class="node"><title>Node7</title>
<a xlink:href="../../d7/d71/xep__muc_8c.html#addf05166cf3fbe386ae6650be21ef251" target="_top" xlink:title="xep_muc_start">
<polygon fill="none" stroke="black" points="1206.5,-429.085 1206.5,-448.085 1301.5,-448.085 1301.5,-429.085 1206.5,-429.085"/>
<text text-anchor="middle" x="1254" y="-436.085" font-family="DejaVuSansMono" font-size="10.00">xep_muc_start</text>
</a>
</g>
<!-- Node6&#45;&gt;Node7 -->
<g id="edge12" class="edge"><title>Node6&#45;&gt;Node7</title>
<path fill="none" stroke="midnightblue" d="M1136.59,-464.761C1160.41,-459.404 1188.21,-453.154 1210.66,-448.105"/>
<polygon fill="midnightblue" stroke="midnightblue" points="1135.63,-461.388 1126.65,-466.996 1137.17,-468.217 1135.63,-461.388"/>
</g>
<!-- Node8 -->
<g id="node15" class="node"><title>Node8</title>
<a xlink:href="../../d7/d71/xep__muc_8c.html#a20d385a5584d8014ec4d5774eb79d1de" target="_top" xlink:title="xep_muc_stop">
<polygon fill="none" stroke="black" points="1209.5,-467.085 1209.5,-486.085 1298.5,-486.085 1298.5,-467.085 1209.5,-467.085"/>
<text text-anchor="middle" x="1254" y="-474.085" font-family="DejaVuSansMono" font-size="10.00">xep_muc_stop</text>
</a>
</g>
<!-- Node6&#45;&gt;Node8 -->
<g id="edge14" class="edge"><title>Node6&#45;&gt;Node8</title>
<path fill="none" stroke="midnightblue" d="M1143.84,-476.585C1165.42,-476.585 1189.36,-476.585 1209.3,-476.585"/>
<polygon fill="midnightblue" stroke="midnightblue" points="1143.79,-473.085 1133.79,-476.585 1143.79,-480.085 1143.79,-473.085"/>
</g>
<!-- Node10 -->
<g id="node19" class="node"><title>Node10</title>
<a xlink:href="../../d7/d71/xep__muc_8c.html#aefd23f2960520a68fea212344b85cb0b" target="_top" xlink:title="enter_room_presence">
<polygon fill="none" stroke="black" points="675.5,-524.085 675.5,-543.085 806.5,-543.085 806.5,-524.085 675.5,-524.085"/>
<text text-anchor="middle" x="741" y="-531.085" font-family="DejaVuSansMono" font-size="10.00">enter_room_presence</text>
</a>
</g>
<!-- Node9&#45;&gt;Node10 -->
<g id="edge18" class="edge"><title>Node9&#45;&gt;Node10</title>
<path fill="none" stroke="midnightblue" d="M614.638,-559.904C640.307,-554.515 670.391,-548.199 694.654,-543.105"/>
<polygon fill="midnightblue" stroke="midnightblue" points="613.741,-556.516 604.674,-561.996 615.18,-563.367 613.741,-556.516"/>
</g>
<!-- Node10&#45;&gt;Node5 -->
<g id="edge20" class="edge"><title>Node10&#45;&gt;Node5</title>
<path fill="none" stroke="midnightblue" d="M816.957,-533.585C829.904,-533.585 843.113,-533.585 855.311,-533.585"/>
<polygon fill="midnightblue" stroke="midnightblue" points="816.655,-530.085 806.655,-533.585 816.655,-537.085 816.655,-530.085"/>
</g>
<!-- Node12 -->
<g id="node24" class="node"><title>Node12</title>
<a xlink:href="../../d7/d71/xep__muc_8c.html#aec1096d47742f472668c4905fa3c299a" target="_top" xlink:title="handle_iq">
<polygon fill="none" stroke="black" points="522.5,-448.085 522.5,-467.085 593.5,-467.085 593.5,-448.085 522.5,-448.085"/>
<text text-anchor="middle" x="558" y="-455.085" font-family="DejaVuSansMono" font-size="10.00">handle_iq</text>
</a>
</g>
<!-- Node11&#45;&gt;Node12 -->
<g id="edge24" class="edge"><title>Node11&#45;&gt;Node12</title>
<path fill="none" stroke="midnightblue" d="M417.861,-457.585C453.133,-457.585 494.008,-457.585 522.286,-457.585"/>
<polygon fill="midnightblue" stroke="midnightblue" points="417.597,-454.085 407.597,-457.585 417.597,-461.085 417.597,-454.085"/>
</g>
<!-- Node12&#45;&gt;Node6 -->
<g id="edge26" class="edge"><title>Node12&#45;&gt;Node6</title>
<path fill="none" stroke="midnightblue" d="M603.815,-459.213C701.108,-462.748 931.058,-471.102 1032.48,-474.786"/>
<polygon fill="midnightblue" stroke="midnightblue" points="603.841,-455.712 593.721,-458.847 603.587,-462.708 603.841,-455.712"/>
</g>
<!-- Node13&#45;&gt;Node12 -->
<g id="edge30" class="edge"><title>Node13&#45;&gt;Node12</title>
<path fill="none" stroke="midnightblue" d="M409.177,-430.963C446.209,-437.633 491.582,-445.804 522.215,-451.321"/>
<polygon fill="midnightblue" stroke="midnightblue" points="409.434,-427.453 398.972,-429.125 408.193,-434.342 409.434,-427.453"/>
</g>
<!-- Node14&#45;&gt;Node10 -->
<g id="edge34" class="edge"><title>Node14&#45;&gt;Node10</title>
<path fill="none" stroke="midnightblue" d="M642.674,-533.585C653.684,-533.585 664.829,-533.585 675.453,-533.585"/>
<polygon fill="midnightblue" stroke="midnightblue" points="642.62,-530.085 632.62,-533.585 642.62,-537.085 642.62,-530.085"/>
</g>
<!-- Node15&#45;&gt;Node10 -->
<g id="edge38" class="edge"><title>Node15&#45;&gt;Node10</title>
<path fill="none" stroke="midnightblue" d="M614.638,-507.266C640.307,-512.655 670.391,-518.971 694.654,-524.065"/>
<polygon fill="midnightblue" stroke="midnightblue" points="615.18,-503.804 604.674,-505.174 613.741,-510.654 615.18,-503.804"/>
</g>
<!-- Node17 -->
<g id="node38" class="node"><title>Node17</title>
<a xlink:href="../../d1/d2e/xmpp__server_8h.html#a27bfc8e4d424a8bc17ab21a4a09cdf92" target="_top" xlink:title="Allocates and initializes the XMPP server.">
<polygon fill="none" stroke="black" points="1686.5,-239.085 1686.5,-258.085 1793.5,-258.085 1793.5,-239.085 1686.5,-239.085"/>
<text text-anchor="middle" x="1740" y="-246.085" font-family="DejaVuSansMono" font-size="10.00">xmpp_server_new</text>
</a>
</g>
<!-- Node16&#45;&gt;Node17 -->
<g id="edge42" class="edge"><title>Node16&#45;&gt;Node17</title>
<path fill="none" stroke="midnightblue" d="M982.029,-381.585C1051.43,-381.585 1159.4,-381.585 1253,-381.585 1253,-381.585 1253,-381.585 1423,-381.585 1527.58,-381.585 1556.76,-366.95 1650,-319.585 1682.43,-303.114 1714.22,-273.642 1729.53,-258.366"/>
<polygon fill="midnightblue" stroke="midnightblue" points="981.652,-378.085 971.652,-381.585 981.652,-385.085 981.652,-378.085"/>
</g>
<!-- Node18 -->
<g id="node40" class="node"><title>Node18</title>
<a xlink:href="../../d0/d29/main_8c.html#a0ddf1224851353fc92bfbff6f499fa97" target="_top" xlink:title="main">
<polygon fill="none" stroke="black" points="1830.5,-239.085 1830.5,-258.085 1871.5,-258.085 1871.5,-239.085 1830.5,-239.085"/>
<text text-anchor="middle" x="1851" y="-246.085" font-family="DejaVuSansMono" font-size="10.00">main</text>
</a>
</g>
<!-- Node17&#45;&gt;Node18 -->
<g id="edge44" class="edge"><title>Node17&#45;&gt;Node18</title>
<path fill="none" stroke="midnightblue" d="M1803.75,-248.585C1813.43,-248.585 1822.76,-248.585 1830.47,-248.585"/>
<polygon fill="midnightblue" stroke="midnightblue" points="1803.58,-245.085 1793.58,-248.585 1803.58,-252.085 1803.58,-245.085"/>
</g>
<!-- Node19&#45;&gt;Node17 -->
<g id="edge48" class="edge"><title>Node19&#45;&gt;Node17</title>
<path fill="none" stroke="midnightblue" d="M642.717,-305.585C713.415,-305.585 817.332,-305.585 908,-305.585 908,-305.585 908,-305.585 1423,-305.585 1528.64,-305.585 1651.03,-274.352 1707.49,-258.126"/>
<polygon fill="midnightblue" stroke="midnightblue" points="642.533,-302.085 632.533,-305.585 642.533,-309.085 642.533,-302.085"/>
</g>
<!-- Node20&#45;&gt;Node17 -->
<g id="edge52" class="edge"><title>Node20&#45;&gt;Node17</title>
<path fill="none" stroke="midnightblue" d="M1503.66,-262.736C1561.07,-259.284 1636.57,-254.744 1686.38,-251.749"/>
<polygon fill="midnightblue" stroke="midnightblue" points="1503.3,-259.251 1493.52,-263.345 1503.72,-266.238 1503.3,-259.251"/>
</g>
<!-- Node22 -->
<g id="node50" class="node"><title>Node22</title>
<a xlink:href="../../d9/dd7/xmpp__im_8h.html#a40f3cf6fffd6aafe9c7cde476fdbc9c2" target="_top" xlink:title="IQ stanza callback for handing a roster query.">
<polygon fill="none" stroke="black" points="1530.5,-220.085 1530.5,-239.085 1649.5,-239.085 1649.5,-220.085 1530.5,-220.085"/>
<text text-anchor="middle" x="1590" y="-227.085" font-family="DejaVuSansMono" font-size="10.00">xmpp_im_iq_roster</text>
</a>
</g>
<!-- Node21&#45;&gt;Node22 -->
<g id="edge56" class="edge"><title>Node21&#45;&gt;Node22</title>
<path fill="none" stroke="midnightblue" d="M958.063,-229.585C1079.46,-229.585 1398.12,-229.585 1530.27,-229.585"/>
<polygon fill="midnightblue" stroke="midnightblue" points="957.961,-226.085 947.961,-229.585 957.961,-233.085 957.961,-226.085"/>
</g>
<!-- Node22&#45;&gt;Node17 -->
<g id="edge58" class="edge"><title>Node22&#45;&gt;Node17</title>
<path fill="none" stroke="midnightblue" d="M1660.09,-238.454C1668.81,-239.574 1677.62,-240.705 1686.04,-241.786"/>
<polygon fill="midnightblue" stroke="midnightblue" points="1660.28,-234.951 1649.92,-237.149 1659.39,-241.894 1660.28,-234.951"/>
</g>
<!-- Node23&#45;&gt;Node19 -->
<g id="edge62" class="edge"><title>Node23&#45;&gt;Node19</title>
<path fill="none" stroke="midnightblue" d="M454.053,-305.585C463.915,-305.585 473.747,-305.585 483.204,-305.585"/>
<polygon fill="midnightblue" stroke="midnightblue" points="453.779,-302.085 443.779,-305.585 453.779,-309.085 453.779,-302.085"/>
</g>
<!-- Node25 -->
<g id="node58" class="node"><title>Node25</title>
<a xlink:href="../../d1/d2e/xmpp__server_8h.html#a8ddb3bbfd497811c13e9426ce6f02003" target="_top" xlink:title="Deliver an IQ stanza to a registered callback function.">
<polygon fill="none" stroke="black" points="672.5,-55.0854 672.5,-74.0854 809.5,-74.0854 809.5,-55.0854 672.5,-55.0854"/>
<text text-anchor="middle" x="741" y="-62.0854" font-family="DejaVuSansMono" font-size="10.00">xmpp_server_route_iq</text>
</a>
</g>
<!-- Node24&#45;&gt;Node25 -->
<g id="edge66" class="edge"><title>Node24&#45;&gt;Node25</title>
<path fill="none" stroke="midnightblue" d="M436.125,-89.2655C507.958,-83.4314 606.978,-75.3892 672.199,-70.092"/>
<polygon fill="midnightblue" stroke="midnightblue" points="435.416,-85.8116 425.732,-90.1097 435.982,-92.7886 435.416,-85.8116"/>
</g>
<!-- Node26 -->
<g id="node60" class="node"><title>Node26</title>
<a xlink:href="../../d8/d28/xmpp__core_8h.html#a777c384ae6685d30bfa255c4b33022aa" target="_top" xlink:title="An xmpp_server stanza route for stanzas directed to the server itself.">
<polygon fill="none" stroke="black" points="1008.5,-34.0854 1008.5,-53.0854 1157.5,-53.0854 1157.5,-34.0854 1008.5,-34.0854"/>
<text text-anchor="middle" x="1083" y="-41.0854" font-family="DejaVuSansMono" font-size="10.00">xmpp_core_route_server</text>
</a>
</g>
<!-- Node25&#45;&gt;Node26 -->
<g id="edge68" class="edge"><title>Node25&#45;&gt;Node26</title>
<path fill="none" stroke="midnightblue" d="M819.567,-59.7944C876.246,-56.2937 952.621,-51.5764 1008.36,-48.1337"/>
<polygon fill="midnightblue" stroke="midnightblue" points="819.345,-56.3014 809.58,-60.4113 819.776,-63.2881 819.345,-56.3014"/>
</g>
<!-- Node26&#45;&gt;Node17 -->
<g id="edge70" class="edge"><title>Node26&#45;&gt;Node17</title>
<path fill="none" stroke="midnightblue" d="M1128.44,-31.5422C1230.3,-6.70211 1484.52,39.329 1650,-68.5854 1712.49,-109.337 1732.7,-207.739 1737.65,-238.931"/>
<polygon fill="midnightblue" stroke="midnightblue" points="1127.36,-28.2061 1118.5,-34.0194 1129.05,-34.9985 1127.36,-28.2061"/>
</g>
<!-- Node28 -->
<g id="node65" class="node"><title>Node28</title>
<a xlink:href="../../d1/dc2/xmpp__parser_8c.html#a2268b636f6d02bbe04f3033ff93d829c" target="_top" xlink:title="Expat callback for the start of an XMPP stream.">
<polygon fill="none" stroke="black" points="696.5,-182.085 696.5,-201.085 785.5,-201.085 785.5,-182.085 696.5,-182.085"/>
<text text-anchor="middle" x="741" y="-189.085" font-family="DejaVuSansMono" font-size="10.00">stream_start</text>
</a>
</g>
<!-- Node27&#45;&gt;Node28 -->
<g id="edge74" class="edge"><title>Node27&#45;&gt;Node28</title>
<path fill="none" stroke="midnightblue" d="M417.713,-191.585C498.974,-191.585 628.846,-191.585 696.235,-191.585"/>
<polygon fill="midnightblue" stroke="midnightblue" points="417.563,-188.085 407.562,-191.585 417.562,-195.085 417.563,-188.085"/>
</g>
<!-- Node39 -->
<g id="node90" class="node"><title>Node39</title>
<a xlink:href="../../d1/dc2/xmpp__parser_8c.html#a0f2993ab3e982d5e2b4a5635dcaf291c" target="_top" xlink:title="Expat callback for the start of any other element.">
<polygon fill="none" stroke="black" points="534.5,-144.085 534.5,-163.085 581.5,-163.085 581.5,-144.085 534.5,-144.085"/>
<text text-anchor="middle" x="558" y="-151.085" font-family="DejaVuSansMono" font-size="10.00">start</text>
</a>
</g>
<!-- Node27&#45;&gt;Node39 -->
<g id="edge102" class="edge"><title>Node27&#45;&gt;Node39</title>
<path fill="none" stroke="midnightblue" d="M408.923,-180.253C451.253,-172.63 504.572,-163.027 534.302,-157.673"/>
<polygon fill="midnightblue" stroke="midnightblue" points="408.193,-176.828 398.972,-182.045 409.434,-183.717 408.193,-176.828"/>
</g>
<!-- Node29 -->
<g id="node67" class="node"><title>Node29</title>
<a xlink:href="../../d1/dc2/xmpp__parser_8c.html#a03a135f29e3d4e01abbb60e53ac6967c" target="_top" xlink:title="init_parser">
<polygon fill="none" stroke="black" points="867.5,-144.085 867.5,-163.085 950.5,-163.085 950.5,-144.085 867.5,-144.085"/>
<text text-anchor="middle" x="909" y="-151.085" font-family="DejaVuSansMono" font-size="10.00">init_parser</text>
</a>
</g>
<!-- Node28&#45;&gt;Node29 -->
<g id="edge76" class="edge"><title>Node28&#45;&gt;Node29</title>
<path fill="none" stroke="midnightblue" d="M793.768,-179.735C817.451,-174.314 845.105,-167.983 867.272,-162.909"/>
<polygon fill="midnightblue" stroke="midnightblue" points="792.856,-176.353 783.889,-181.996 794.418,-183.177 792.856,-176.353"/>
</g>
<!-- Node30 -->
<g id="node69" class="node"><title>Node30</title>
<a xlink:href="../../d8/d55/xmpp__parser_8h.html#adf25a1d2047994dfa6cc71a9482548c2" target="_top" xlink:title="xmpp_parser_new">
<polygon fill="none" stroke="black" points="1029.5,-144.085 1029.5,-163.085 1136.5,-163.085 1136.5,-144.085 1029.5,-144.085"/>
<text text-anchor="middle" x="1083" y="-151.085" font-family="DejaVuSansMono" font-size="10.00">xmpp_parser_new</text>
</a>
</g>
<!-- Node29&#45;&gt;Node30 -->
<g id="edge78" class="edge"><title>Node29&#45;&gt;Node30</title>
<path fill="none" stroke="midnightblue" d="M961.039,-153.585C982.615,-153.585 1007.73,-153.585 1029.47,-153.585"/>
<polygon fill="midnightblue" stroke="midnightblue" points="960.762,-150.085 950.762,-153.585 960.762,-157.085 960.762,-150.085"/>
</g>
<!-- Node34 -->
<g id="node78" class="node"><title>Node34</title>
<a xlink:href="../../d8/d55/xmpp__parser_8h.html#af5e1eb5bbef0496c3543bd35113766ac" target="_top" xlink:title="Reset the state of the parser as if it was just created.">
<polygon fill="none" stroke="black" points="1023.5,-106.085 1023.5,-125.085 1142.5,-125.085 1142.5,-106.085 1023.5,-106.085"/>
<text text-anchor="middle" x="1083" y="-113.085" font-family="DejaVuSansMono" font-size="10.00">xmpp_parser_reset</text>
</a>
</g>
<!-- Node29&#45;&gt;Node34 -->
<g id="edge88" class="edge"><title>Node29&#45;&gt;Node34</title>
<path fill="none" stroke="midnightblue" d="M960.723,-142.379C985.542,-136.896 1015.1,-130.365 1038.83,-125.123"/>
<polygon fill="midnightblue" stroke="midnightblue" points="959.771,-139.005 950.762,-144.58 961.281,-145.84 959.771,-139.005"/>
</g>
<!-- Node31 -->
<g id="node71" class="node"><title>Node31</title>
<a xlink:href="../../d6/d78/xmp3__multicast_8c.html#a08afc39c59ec9297d756a99c395eff3c" target="_top" xlink:title="multicast_new">
<polygon fill="none" stroke="black" points="1206.5,-144.085 1206.5,-163.085 1301.5,-163.085 1301.5,-144.085 1206.5,-144.085"/>
<text text-anchor="middle" x="1254" y="-151.085" font-family="DejaVuSansMono" font-size="10.00">multicast_new</text>
</a>
</g>
<!-- Node30&#45;&gt;Node31 -->
<g id="edge80" class="edge"><title>Node30&#45;&gt;Node31</title>
<path fill="none" stroke="midnightblue" d="M1146.72,-153.585C1166.52,-153.585 1188.04,-153.585 1206.5,-153.585"/>
<polygon fill="midnightblue" stroke="midnightblue" points="1146.55,-150.085 1136.55,-153.585 1146.55,-157.085 1146.55,-150.085"/>
</g>
<!-- Node32 -->
<g id="node73" class="node"><title>Node32</title>
<a xlink:href="../../d4/d2f/xmpp__client_8h.html#a1619c0b8f58b2cf09a322bf34fbc3414" target="_top" xlink:title="xmpp_client_new">
<polygon fill="none" stroke="black" points="1368.5,-182.085 1368.5,-201.085 1475.5,-201.085 1475.5,-182.085 1368.5,-182.085"/>
<text text-anchor="middle" x="1422" y="-189.085" font-family="DejaVuSansMono" font-size="10.00">xmpp_client_new</text>
</a>
</g>
<!-- Node30&#45;&gt;Node32 -->
<g id="edge82" class="edge"><title>Node30&#45;&gt;Node32</title>
<path fill="none" stroke="midnightblue" d="M1143.63,-164.864C1159.92,-167.678 1177.6,-170.487 1194,-172.585 1253.43,-180.19 1322.02,-185.448 1368.11,-188.474"/>
<polygon fill="midnightblue" stroke="midnightblue" points="1144.15,-161.401 1133.69,-163.118 1142.93,-168.296 1144.15,-161.401"/>
</g>
<!-- Node33 -->
<g id="node75" class="node"><title>Node33</title>
<a xlink:href="../../d0/df0/xmpp__server_8c.html#a66363912ef1221a2574f9f99805fe8fd" target="_top" xlink:title="Callback for new client connections.">
<polygon fill="none" stroke="black" points="1539.5,-182.085 1539.5,-201.085 1640.5,-201.085 1640.5,-182.085 1539.5,-182.085"/>
<text text-anchor="middle" x="1590" y="-189.085" font-family="DejaVuSansMono" font-size="10.00">connect_client</text>
</a>
</g>
<!-- Node32&#45;&gt;Node33 -->
<g id="edge84" class="edge"><title>Node32&#45;&gt;Node33</title>
<path fill="none" stroke="midnightblue" d="M1485.78,-191.585C1503.5,-191.585 1522.53,-191.585 1539.36,-191.585"/>
<polygon fill="midnightblue" stroke="midnightblue" points="1485.52,-188.085 1475.52,-191.585 1485.52,-195.085 1485.52,-188.085"/>
</g>
<!-- Node33&#45;&gt;Node17 -->
<g id="edge86" class="edge"><title>Node33&#45;&gt;Node17</title>
<path fill="none" stroke="midnightblue" d="M1632.31,-204.354C1638.28,-206.353 1644.32,-208.462 1650,-210.585 1673.61,-219.405 1700.11,-230.935 1718,-238.972"/>
<polygon fill="midnightblue" stroke="midnightblue" points="1633.01,-200.9 1622.42,-201.112 1630.83,-207.552 1633.01,-200.9"/>
</g>
<!-- Node35 -->
<g id="node80" class="node"><title>Node35</title>
<a xlink:href="../../d6/d78/xmp3__multicast_8c.html#a9865e8026fb8ee000629fc1da465716d" target="_top" xlink:title="socket_handler">
<polygon fill="none" stroke="black" points="1371.5,-78.0854 1371.5,-97.0854 1472.5,-97.0854 1472.5,-78.0854 1371.5,-78.0854"/>
<text text-anchor="middle" x="1422" y="-85.0854" font-family="DejaVuSansMono" font-size="10.00">socket_handler</text>
</a>
</g>
<!-- Node34&#45;&gt;Node35 -->
<g id="edge90" class="edge"><title>Node34&#45;&gt;Node35</title>
<path fill="none" stroke="midnightblue" d="M1141.21,-104.237C1158.14,-101.276 1176.76,-98.4077 1194,-96.5854 1254.79,-90.1579 1325.19,-88.2144 1371.27,-87.6813"/>
<polygon fill="midnightblue" stroke="midnightblue" points="1140.14,-100.873 1130.92,-106.083 1141.38,-107.763 1140.14,-100.873"/>
</g>
<!-- Node37 -->
<g id="node84" class="node"><title>Node37</title>
<a xlink:href="../../d8/d55/xmpp__parser_8h.html#a578b7a9a50212eb204a86789001287af" target="_top" xlink:title="xmpp_parser_parse">
<polygon fill="none" stroke="black" points="1194.5,-106.085 1194.5,-125.085 1313.5,-125.085 1313.5,-106.085 1194.5,-106.085"/>
<text text-anchor="middle" x="1254" y="-113.085" font-family="DejaVuSansMono" font-size="10.00">xmpp_parser_parse</text>
</a>
</g>
<!-- Node34&#45;&gt;Node37 -->
<g id="edge94" class="edge"><title>Node34&#45;&gt;Node37</title>
<path fill="none" stroke="midnightblue" d="M1153.02,-115.585C1166.78,-115.585 1181.1,-115.585 1194.47,-115.585"/>
<polygon fill="midnightblue" stroke="midnightblue" points="1152.63,-112.085 1142.63,-115.585 1152.63,-119.085 1152.63,-112.085"/>
</g>
<!-- Node36 -->
<g id="node82" class="node"><title>Node36</title>
<a xlink:href="../../d6/d78/xmp3__multicast_8c.html#a991c928ab73b350c4b7029352e91a219" target="_top" xlink:title="multicast_start">
<polygon fill="none" stroke="black" points="1536.5,-78.0854 1536.5,-97.0854 1643.5,-97.0854 1643.5,-78.0854 1536.5,-78.0854"/>
<text text-anchor="middle" x="1590" y="-85.0854" font-family="DejaVuSansMono" font-size="10.00">multicast_start</text>
</a>
</g>
<!-- Node35&#45;&gt;Node36 -->
<g id="edge92" class="edge"><title>Node35&#45;&gt;Node36</title>
<path fill="none" stroke="midnightblue" d="M1482.9,-87.5854C1500.38,-87.5854 1519.35,-87.5854 1536.34,-87.5854"/>
<polygon fill="midnightblue" stroke="midnightblue" points="1482.81,-84.0855 1472.81,-87.5854 1482.81,-91.0855 1482.81,-84.0855"/>
</g>
<!-- Node37&#45;&gt;Node35 -->
<g id="edge96" class="edge"><title>Node37&#45;&gt;Node35</title>
<path fill="none" stroke="midnightblue" d="M1321.8,-104.317C1338.31,-101.532 1355.71,-98.5973 1371.25,-95.9765"/>
<polygon fill="midnightblue" stroke="midnightblue" points="1320.94,-100.913 1311.66,-106.028 1322.11,-107.816 1320.94,-100.913"/>
</g>
<!-- Node38 -->
<g id="node87" class="node"><title>Node38</title>
<a xlink:href="../../d0/df0/xmpp__server_8c.html#abece91815ef240322d79073f5bfca1db" target="_top" xlink:title="Callback for new data from a client.">
<polygon fill="none" stroke="black" points="1380.5,-125.085 1380.5,-144.085 1463.5,-144.085 1463.5,-125.085 1380.5,-125.085"/>
<text text-anchor="middle" x="1422" y="-132.085" font-family="DejaVuSansMono" font-size="10.00">read_client</text>
</a>
</g>
<!-- Node37&#45;&gt;Node38 -->
<g id="edge98" class="edge"><title>Node37&#45;&gt;Node38</title>
<path fill="none" stroke="midnightblue" d="M1323.52,-123.428C1342.87,-125.643 1363.3,-127.982 1380.44,-129.943"/>
<polygon fill="midnightblue" stroke="midnightblue" points="1323.86,-119.944 1313.53,-122.284 1323.06,-126.899 1323.86,-119.944"/>
</g>
<!-- Node38&#45;&gt;Node33 -->
<g id="edge100" class="edge"><title>Node38&#45;&gt;Node33</title>
<path fill="none" stroke="midnightblue" d="M1460.25,-147.377C1490.83,-157.875 1533.44,-172.508 1561.12,-182.014"/>
<polygon fill="midnightblue" stroke="midnightblue" points="1461.38,-144.063 1450.78,-144.126 1459.11,-150.684 1461.38,-144.063"/>
</g>
<!-- Node39&#45;&gt;Node28 -->
<g id="edge106" class="edge"><title>Node39&#45;&gt;Node28</title>
<path fill="none" stroke="midnightblue" d="M591.669,-160.444C620.946,-166.591 664.117,-175.654 696.345,-182.42"/>
<polygon fill="midnightblue" stroke="midnightblue" points="592.064,-156.951 581.558,-158.321 590.625,-163.801 592.064,-156.951"/>
</g>
<!-- Node39&#45;&gt;Node29 -->
<g id="edge104" class="edge"><title>Node39&#45;&gt;Node29</title>
<path fill="none" stroke="midnightblue" d="M591.954,-153.585C656.078,-153.585 797.451,-153.585 867.303,-153.585"/>
<polygon fill="midnightblue" stroke="midnightblue" points="591.63,-150.085 581.63,-153.585 591.63,-157.085 591.63,-150.085"/>
</g>
</g>
</svg>
        <g id="navigator" transform="translate(0 0)" fill="#404254">
                <rect fill="#f2f5e9" fill-opacity="0.5" stroke="#606060" stroke-width=".5" x="0" y="0" width="60" height="60"/>
                <use id="zoomplus" xlink:href="#zoomPlus" x="17" y="9" onmousedown="handleZoom(evt,'in')"/>
                <use id="zoomminus" xlink:href="#zoomMin" x="42" y="9" onmousedown="handleZoom(evt,'out')"/>
                <use id="reset" xlink:href="#resetDef" x="30" y="36" onmousedown="handleReset()"/>
                <g id="arrowUp" xlink:href="#dirArrow" transform="translate(30 24)" onmousedown="handlePan(0,-1)">
                  <use xlink:href="#rim" fill="#404040">
                        <set attributeName="fill" to="#808080" begin="arrowUp.mouseover" end="arrowUp.mouseout"/>
                  </use>
                  <path fill="none" stroke="white" stroke-width="1.5" d="M0,-3.0v7 M-2.5,-0.5L0,-3.0L2.5,-0.5"/>
                </g>
                <g id="arrowRight" xlink:href="#dirArrow" transform="rotate(90) translate(36 -43)" onmousedown="handlePan(1,0)">
                  <use xlink:href="#rim" fill="#404040">
                        <set attributeName="fill" to="#808080" begin="arrowRight.mouseover" end="arrowRight.mouseout"/>
                  </use>
                  <path fill="none" stroke="white" stroke-width="1.5" d="M0,-3.0v7 M-2.5,-0.5L0,-3.0L2.5,-0.5"/>
                </g>
                <g id="arrowDown" xlink:href="#dirArrow" transform="rotate(180) translate(-30 -48)" onmousedown="handlePan(0,1)">
                  <use xlink:href="#rim" fill="#404040">
                        <set attributeName="fill" to="#808080" begin="arrowDown.mouseover" end="arrowDown.mouseout"/>
                  </use>
                  <path fill="none" stroke="white" stroke-width="1.5" d="M0,-3.0v7 M-2.5,-0.5L0,-3.0L2.5,-0.5"/>
                </g>
                <g id="arrowLeft" xlink:href="#dirArrow" transform="rotate(270) translate(-36 17)" onmousedown="handlePan(-1,0)">
                  <use xlink:href="#rim" fill="#404040">
                        <set attributeName="fill" to="#808080" begin="arrowLeft.mouseover" end="arrowLeft.mouseout"/>
                  </use>
                  <path fill="none" stroke="white" stroke-width="1.5" d="M0,-3.0v7 M-2.5,-0.5L0,-3.0L2.5,-0.5"/>
                </g>
        </g>
        <svg viewBox="0 0 25 25" width="100%" height="30px" preserveAspectRatio="xMaxYMin meet"> 
          <g id="printButton" transform="scale(0.4 0.4)" onmousedown="handlePrint(evt)">
            <rect height="23.33753581" id="paper" rx="2" style="fill:#f2f5e9;fill-rule:evenodd;stroke:#111111;stroke-width:3.224;stroke-linejoin:round;" transform="matrix(1.000000,0.000000,-0.339266,0.940691,0.000000,0.000000)" width="25.55231285" x="26.69387353" y="7.36162977"/>
            <rect height="26.272097" id="body" rx="2" style="fill:#404040;fill-rule:evenodd;stroke:#111111;stroke-width:3.125;stroke-linejoin:round;" width="50" x="4.5295201" y="27.078951"/>
            <rect height="8.27750969" id="tray" style="fill:#d2d5c9;fill-rule:evenodd;stroke:#111111;stroke-width:3.125;stroke-linecap:round;stroke-linejoin:round;" width="40" x="10.28778839" y="44.96812282"/>
          </g>
        </svg>
</svg>
