<?xml version="1.0" encoding="UTF-8" standalone="no"?>
<!DOCTYPE svg PUBLIC "-//W3C//DTD SVG 1.1//EN"
 "http://www.w3.org/Graphics/SVG/1.1/DTD/svg11.dtd">
<!-- Generated by graphviz version 2.28.0 (20120217.0315)
 -->
<!-- Title: G Pages: 1 -->
<!--zoomable 332 -->
<svg id="main" version="1.1" xmlns="http://www.w3.org/2000/svg" xmlns:xlink="http://www.w3.org/1999/xlink" xml:space="preserve" onload="init(evt)">
        <defs>
                <circle id="rim" cx="0" cy="0" r="7"/>
                <circle id="rim2" cx="0" cy="0" r="3.5"/>
                <g id="zoomPlus">
                        <use xlink:href="#rim" fill="#404040">
                                <set attributeName="fill" to="#808080" begin="zoomplus.mouseover" end="zoomplus.mouseout"/>
                        </use>
                        <path d="M-4,0h8M0,-4v8" fill="none" stroke="white" stroke-width="1.5" pointer-events="none"/>
                </g>
                <g id="zoomMin">
                        <use xlink:href="#rim" fill="#404040">
                                <set attributeName="fill" to="#808080" begin="zoomminus.mouseover" end="zoomminus.mouseout"/>
                        </use>
                        <path d="M-4,0h8" fill="none" stroke="white" stroke-width="1.5" pointer-events="none"/>
                </g>
                <g id="dirArrow">
                        <path fill="none" stroke="white" stroke-width="1.5" d="M0,-3.0v7 M-2.5,-0.5L0,-3.0L2.5,-0.5"/>
                </g>
               <g id="resetDef">
                       <use xlink:href="#rim2" fill="#404040">
                               <set attributeName="fill" to="#808080" begin="reset.mouseover" end="reset.mouseout"/>
                       </use>
               </g>
        </defs>

<script type="text/javascript">
var viewWidth = 1604;
var viewHeight = 332;
var sectionId = 'dynsection-36';
</script>
<script xlink:href="../../svgpan.js"/>
<svg id="graph" class="graph">
<g id="viewport">
<title>G</title>
<!-- Node1 -->
<g id="node1" class="node"><title>Node1</title>
<polygon fill="#bfbfbf" stroke="black" points="0.5,-133.5 0.5,-152.5 107.5,-152.5 107.5,-133.5 0.5,-133.5"/>
<text text-anchor="middle" x="54" y="-140.5" font-family="DejaVuSansMono" font-size="10.00">xmpp_stanza_uri</text>
</g>
<!-- Node2 -->
<g id="node3" class="node"><title>Node2</title>
<a xlink:href="../../d7/d71/xep__muc_8c.html#aec1096d47742f472668c4905fa3c299a" target="_top" xlink:title="handle_iq">
<polygon fill="none" stroke="black" points="159.5,-266.5 159.5,-285.5 230.5,-285.5 230.5,-266.5 159.5,-266.5"/>
<text text-anchor="middle" x="195" y="-273.5" font-family="DejaVuSansMono" font-size="10.00">handle_iq</text>
</a>
</g>
<!-- Node1&#45;&gt;Node2 -->
<g id="edge2" class="edge"><title>Node1&#45;&gt;Node2</title>
<path fill="none" stroke="midnightblue" d="M66.2565,-161.284C81.4769,-184.791 110.592,-225.706 144,-252 151.339,-257.776 160.295,-262.621 168.589,-266.411"/>
<polygon fill="midnightblue" stroke="midnightblue" points="69.0903,-159.217 60.7818,-152.643 63.1771,-162.963 69.0903,-159.217"/>
</g>
<!-- Node6 -->
<g id="node11" class="node"><title>Node6</title>
<a xlink:href="../../d3/d24/xmpp__auth_8h.html#ad3efd9ab093646bdfd8832c34ae2de4d" target="_top" xlink:title="Handler for the inital stream start to begin authentication.">
<polygon fill="none" stroke="black" points="942.5,-95.5 942.5,-114.5 1091.5,-114.5 1091.5,-95.5 942.5,-95.5"/>
<text text-anchor="middle" x="1017" y="-102.5" font-family="DejaVuSansMono" font-size="10.00">xmpp_auth_stream_start</text>
</a>
</g>
<!-- Node1&#45;&gt;Node6 -->
<g id="edge10" class="edge"><title>Node1&#45;&gt;Node6</title>
<path fill="none" stroke="midnightblue" d="M75.4284,-158.623C92.7712,-171.126 118.79,-188.145 144,-198 230.864,-231.958 256.734,-238 350,-238 350,-238 350,-238 688,-238 819.498,-238 960.351,-145.061 1003.03,-114.565"/>
<polygon fill="midnightblue" stroke="midnightblue" points="77.3267,-155.674 67.2003,-152.558 73.1735,-161.309 77.3267,-155.674"/>
</g>
<!-- Node11 -->
<g id="node21" class="node"><title>Node11</title>
<a xlink:href="../../df/da9/xmpp__auth_8c.html#afd7b12689591d40109a88ad108b5c3a2" target="_top" xlink:title="stream_sasl_start">
<polygon fill="none" stroke="black" points="627.5,-76.5 627.5,-95.5 746.5,-95.5 746.5,-76.5 627.5,-76.5"/>
<text text-anchor="middle" x="687" y="-83.5" font-family="DejaVuSansMono" font-size="10.00">stream_sasl_start</text>
</a>
</g>
<!-- Node1&#45;&gt;Node11 -->
<g id="edge20" class="edge"><title>Node1&#45;&gt;Node11</title>
<path fill="none" stroke="midnightblue" d="M117.242,-131.649C126.216,-130.059 135.341,-128.468 144,-127 205.234,-116.616 220.218,-111.358 282,-105 404.408,-92.4038 548.551,-88.1495 627.306,-86.7189"/>
<polygon fill="midnightblue" stroke="midnightblue" points="116.439,-128.237 107.208,-133.436 117.667,-135.128 116.439,-128.237"/>
</g>
<!-- Node12 -->
<g id="node23" class="node"><title>Node12</title>
<a xlink:href="../../df/da9/xmpp__auth_8c.html#a8dd789e057b9812e4dd1aa524dfb6a65" target="_top" xlink:title="Begins TLS authentication.">
<polygon fill="none" stroke="black" points="798.5,-76.5 798.5,-95.5 905.5,-95.5 905.5,-76.5 798.5,-76.5"/>
<text text-anchor="middle" x="852" y="-83.5" font-family="DejaVuSansMono" font-size="10.00">handle_starttls</text>
</a>
</g>
<!-- Node1&#45;&gt;Node12 -->
<g id="edge34" class="edge"><title>Node1&#45;&gt;Node12</title>
<path fill="none" stroke="midnightblue" d="M80.892,-128.595C131.15,-102.028 246.124,-48 350,-48 350,-48 350,-48 517,-48 626.216,-48 653.912,-51.3422 762,-67 778.418,-69.3784 796.341,-73.0021 811.771,-76.4494"/>
<polygon fill="midnightblue" stroke="midnightblue" points="79.1567,-125.554 72.0015,-133.368 82.4677,-131.722 79.1567,-125.554"/>
</g>
<!-- Node13 -->
<g id="node26" class="node"><title>Node13</title>
<a xlink:href="../../df/da9/xmpp__auth_8c.html#a01804bd53eccc182ce76337fc0863e8d" target="_top" xlink:title="stream_bind_start">
<polygon fill="none" stroke="black" points="291.5,-114.5 291.5,-133.5 410.5,-133.5 410.5,-114.5 291.5,-114.5"/>
<text text-anchor="middle" x="351" y="-121.5" font-family="DejaVuSansMono" font-size="10.00">stream_bind_start</text>
</a>
</g>
<!-- Node1&#45;&gt;Node13 -->
<g id="edge26" class="edge"><title>Node1&#45;&gt;Node13</title>
<path fill="none" stroke="midnightblue" d="M117.722,-138.96C169.077,-135.653 241.191,-131.008 291.394,-127.775"/>
<polygon fill="midnightblue" stroke="midnightblue" points="117.494,-135.468 107.74,-139.603 117.944,-142.453 117.494,-135.468"/>
</g>
<!-- Node14 -->
<g id="node28" class="node"><title>Node14</title>
<a xlink:href="../../df/da9/xmpp__auth_8c.html#afb770a216868aa3fb43813b19d2a0115" target="_top" xlink:title="Begins SASL PLAIN authentication.">
<polygon fill="none" stroke="black" points="456.5,-114.5 456.5,-133.5 575.5,-133.5 575.5,-114.5 456.5,-114.5"/>
<text text-anchor="middle" x="516" y="-121.5" font-family="DejaVuSansMono" font-size="10.00">handle_sasl_plain</text>
</a>
</g>
<!-- Node1&#45;&gt;Node14 -->
<g id="edge36" class="edge"><title>Node1&#45;&gt;Node14</title>
<path fill="none" stroke="midnightblue" d="M80.6371,-157.233C97.9498,-166.007 121.64,-176.426 144,-181 273.922,-207.576 431.723,-155.882 490.983,-133.562"/>
<polygon fill="midnightblue" stroke="midnightblue" points="82.208,-154.105 71.724,-152.576 78.9661,-160.309 82.208,-154.105"/>
</g>
<!-- Node15 -->
<g id="node34" class="node"><title>Node15</title>
<a xlink:href="../../df/da9/xmpp__auth_8c.html#a603b4a63af3c4e4af99442805fe89ae8" target="_top" xlink:title="Step 15: Client binds a resource.">
<polygon fill="none" stroke="black" points="144.5,-152.5 144.5,-171.5 245.5,-171.5 245.5,-152.5 144.5,-152.5"/>
<text text-anchor="middle" x="195" y="-159.5" font-family="DejaVuSansMono" font-size="10.00">handle_bind_iq</text>
</a>
</g>
<!-- Node1&#45;&gt;Node15 -->
<g id="edge38" class="edge"><title>Node1&#45;&gt;Node15</title>
<path fill="none" stroke="midnightblue" d="M117.517,-151.546C126.432,-152.764 135.501,-154.004 144.131,-155.183"/>
<polygon fill="midnightblue" stroke="midnightblue" points="117.932,-148.07 107.55,-150.183 116.984,-155.005 117.932,-148.07"/>
</g>
<!-- Node16 -->
<g id="node37" class="node"><title>Node16</title>
<a xlink:href="../../d1/d2e/xmpp__server_8h.html#a8ddb3bbfd497811c13e9426ce6f02003" target="_top" xlink:title="Deliver an IQ stanza to a registered callback function.">
<polygon fill="none" stroke="black" points="282.5,-0.5 282.5,-19.5 419.5,-19.5 419.5,-0.5 282.5,-0.5"/>
<text text-anchor="middle" x="351" y="-7.5" font-family="DejaVuSansMono" font-size="10.00">xmpp_server_route_iq</text>
</a>
</g>
<!-- Node1&#45;&gt;Node16 -->
<g id="edge42" class="edge"><title>Node1&#45;&gt;Node16</title>
<path fill="none" stroke="midnightblue" d="M64.257,-124.39C77.9051,-99.1481 105.977,-54.8224 144,-34 186.002,-10.9984 239.963,-5.41897 282.121,-5.36744"/>
<polygon fill="midnightblue" stroke="midnightblue" points="61.1137,-122.849 59.5949,-133.334 67.321,-126.085 61.1137,-122.849"/>
</g>
<!-- Node3 -->
<g id="node5" class="node"><title>Node3</title>
<a xlink:href="../../d7/d71/xep__muc_8c.html#a1798db1c16a1fa62ff8f39fea202a26f" target="_top" xlink:title="stanza_handler">
<polygon fill="none" stroke="black" points="300.5,-266.5 300.5,-285.5 401.5,-285.5 401.5,-266.5 300.5,-266.5"/>
<text text-anchor="middle" x="351" y="-273.5" font-family="DejaVuSansMono" font-size="10.00">stanza_handler</text>
</a>
</g>
<!-- Node2&#45;&gt;Node3 -->
<g id="edge4" class="edge"><title>Node2&#45;&gt;Node3</title>
<path fill="none" stroke="midnightblue" d="M240.599,-276C259.311,-276 281.146,-276 300.366,-276"/>
<polygon fill="midnightblue" stroke="midnightblue" points="240.561,-272.5 230.561,-276 240.561,-279.5 240.561,-272.5"/>
</g>
<!-- Node4 -->
<g id="node7" class="node"><title>Node4</title>
<a xlink:href="../../d7/d71/xep__muc_8c.html#addf05166cf3fbe386ae6650be21ef251" target="_top" xlink:title="xep_muc_start">
<polygon fill="none" stroke="black" points="468.5,-266.5 468.5,-285.5 563.5,-285.5 563.5,-266.5 468.5,-266.5"/>
<text text-anchor="middle" x="516" y="-273.5" font-family="DejaVuSansMono" font-size="10.00">xep_muc_start</text>
</a>
</g>
<!-- Node3&#45;&gt;Node4 -->
<g id="edge6" class="edge"><title>Node3&#45;&gt;Node4</title>
<path fill="none" stroke="midnightblue" d="M411.93,-276C430.527,-276 450.739,-276 468.298,-276"/>
<polygon fill="midnightblue" stroke="midnightblue" points="411.791,-272.5 401.791,-276 411.791,-279.5 411.791,-272.5"/>
</g>
<!-- Node5 -->
<g id="node9" class="node"><title>Node5</title>
<a xlink:href="../../d7/d71/xep__muc_8c.html#a20d385a5584d8014ec4d5774eb79d1de" target="_top" xlink:title="xep_muc_stop">
<polygon fill="none" stroke="black" points="471.5,-304.5 471.5,-323.5 560.5,-323.5 560.5,-304.5 471.5,-304.5"/>
<text text-anchor="middle" x="516" y="-311.5" font-family="DejaVuSansMono" font-size="10.00">xep_muc_stop</text>
</a>
</g>
<!-- Node3&#45;&gt;Node5 -->
<g id="edge8" class="edge"><title>Node3&#45;&gt;Node5</title>
<path fill="none" stroke="midnightblue" d="M403.028,-287.896C425.939,-293.237 452.604,-299.454 474.164,-304.48"/>
<polygon fill="midnightblue" stroke="midnightblue" points="403.665,-284.451 393.132,-285.589 402.076,-291.268 403.665,-284.451"/>
</g>
<!-- Node7 -->
<g id="node13" class="node"><title>Node7</title>
<a xlink:href="../../d4/d2f/xmpp__client_8h.html#a1619c0b8f58b2cf09a322bf34fbc3414" target="_top" xlink:title="xmpp_client_new">
<polygon fill="none" stroke="black" points="1128.5,-66.5 1128.5,-85.5 1235.5,-85.5 1235.5,-66.5 1128.5,-66.5"/>
<text text-anchor="middle" x="1182" y="-73.5" font-family="DejaVuSansMono" font-size="10.00">xmpp_client_new</text>
</a>
</g>
<!-- Node6&#45;&gt;Node7 -->
<g id="edge12" class="edge"><title>Node6&#45;&gt;Node7</title>
<path fill="none" stroke="midnightblue" d="M1081.8,-93.6493C1097.21,-90.9075 1113.51,-88.0078 1128.34,-85.3685"/>
<polygon fill="midnightblue" stroke="midnightblue" points="1081.06,-90.2263 1071.82,-95.4239 1082.28,-97.1181 1081.06,-90.2263"/>
</g>
<!-- Node8 -->
<g id="node15" class="node"><title>Node8</title>
<a xlink:href="../../d0/df0/xmpp__server_8c.html#a66363912ef1221a2574f9f99805fe8fd" target="_top" xlink:title="Callback for new client connections.">
<polygon fill="none" stroke="black" points="1272.5,-61.5 1272.5,-80.5 1373.5,-80.5 1373.5,-61.5 1272.5,-61.5"/>
<text text-anchor="middle" x="1323" y="-68.5" font-family="DejaVuSansMono" font-size="10.00">connect_client</text>
</a>
</g>
<!-- Node7&#45;&gt;Node8 -->
<g id="edge14" class="edge"><title>Node7&#45;&gt;Node8</title>
<path fill="none" stroke="midnightblue" d="M1245.8,-73.7408C1254.63,-73.4235 1263.59,-73.1009 1272.13,-72.7939"/>
<polygon fill="midnightblue" stroke="midnightblue" points="1245.42,-70.2524 1235.55,-74.1097 1245.67,-77.2479 1245.42,-70.2524"/>
</g>
<!-- Node9 -->
<g id="node17" class="node"><title>Node9</title>
<a xlink:href="../../d1/d2e/xmpp__server_8h.html#a27bfc8e4d424a8bc17ab21a4a09cdf92" target="_top" xlink:title="Allocates and initializes the XMPP server.">
<polygon fill="none" stroke="black" points="1410.5,-40.5 1410.5,-59.5 1517.5,-59.5 1517.5,-40.5 1410.5,-40.5"/>
<text text-anchor="middle" x="1464" y="-47.5" font-family="DejaVuSansMono" font-size="10.00">xmpp_server_new</text>
</a>
</g>
<!-- Node8&#45;&gt;Node9 -->
<g id="edge16" class="edge"><title>Node8&#45;&gt;Node9</title>
<path fill="none" stroke="midnightblue" d="M1383.94,-61.9438C1392.7,-60.6204 1401.67,-59.2658 1410.27,-57.9663"/>
<polygon fill="midnightblue" stroke="midnightblue" points="1383.15,-58.5232 1373.79,-63.4778 1384.2,-65.4446 1383.15,-58.5232"/>
</g>
<!-- Node10 -->
<g id="node19" class="node"><title>Node10</title>
<a xlink:href="../../d0/d29/main_8c.html#a0ddf1224851353fc92bfbff6f499fa97" target="_top" xlink:title="main">
<polygon fill="none" stroke="black" points="1554.5,-40.5 1554.5,-59.5 1595.5,-59.5 1595.5,-40.5 1554.5,-40.5"/>
<text text-anchor="middle" x="1575" y="-47.5" font-family="DejaVuSansMono" font-size="10.00">main</text>
</a>
</g>
<!-- Node9&#45;&gt;Node10 -->
<g id="edge18" class="edge"><title>Node9&#45;&gt;Node10</title>
<path fill="none" stroke="midnightblue" d="M1527.75,-50C1537.43,-50 1546.76,-50 1554.47,-50"/>
<polygon fill="midnightblue" stroke="midnightblue" points="1527.58,-46.5001 1517.58,-50 1527.58,-53.5001 1527.58,-46.5001"/>
</g>
<!-- Node11&#45;&gt;Node12 -->
<g id="edge22" class="edge"><title>Node11&#45;&gt;Node12</title>
<path fill="none" stroke="midnightblue" d="M756.869,-86C770.787,-86 785.21,-86 798.458,-86"/>
<polygon fill="midnightblue" stroke="midnightblue" points="756.847,-82.5001 746.847,-86 756.847,-89.5001 756.847,-82.5001"/>
</g>
<!-- Node12&#45;&gt;Node6 -->
<g id="edge24" class="edge"><title>Node12&#45;&gt;Node6</title>
<path fill="none" stroke="midnightblue" d="M915.911,-93.3332C924.558,-94.3411 933.499,-95.3833 942.317,-96.4112"/>
<polygon fill="midnightblue" stroke="midnightblue" points="916.259,-89.8502 905.921,-92.1688 915.449,-96.8031 916.259,-89.8502"/>
</g>
<!-- Node13&#45;&gt;Node14 -->
<g id="edge28" class="edge"><title>Node13&#45;&gt;Node14</title>
<path fill="none" stroke="midnightblue" d="M421.029,-124C432.747,-124 444.817,-124 456.24,-124"/>
<polygon fill="midnightblue" stroke="midnightblue" points="420.847,-120.5 410.847,-124 420.847,-127.5 420.847,-120.5"/>
</g>
<!-- Node14&#45;&gt;Node6 -->
<g id="edge30" class="edge"><title>Node14&#45;&gt;Node6</title>
<path fill="none" stroke="midnightblue" d="M585.918,-121.376C679.498,-117.813 846.076,-111.47 942.146,-107.812"/>
<polygon fill="midnightblue" stroke="midnightblue" points="585.569,-117.887 575.709,-121.765 585.835,-124.881 585.569,-117.887"/>
</g>
<!-- Node14&#45;&gt;Node11 -->
<g id="edge32" class="edge"><title>Node14&#45;&gt;Node11</title>
<path fill="none" stroke="midnightblue" d="M569.587,-112.176C593.413,-106.818 621.207,-100.569 643.661,-95.5201"/>
<polygon fill="midnightblue" stroke="midnightblue" points="568.634,-108.802 559.646,-114.411 570.17,-115.632 568.634,-108.802"/>
</g>
<!-- Node15&#45;&gt;Node13 -->
<g id="edge40" class="edge"><title>Node15&#45;&gt;Node13</title>
<path fill="none" stroke="midnightblue" d="M244.794,-149.96C266.308,-144.651 291.232,-138.501 311.419,-133.52"/>
<polygon fill="midnightblue" stroke="midnightblue" points="243.731,-146.617 234.861,-152.411 245.408,-153.413 243.731,-146.617"/>
</g>
<!-- Node17 -->
<g id="node39" class="node"><title>Node17</title>
<a xlink:href="../../d8/d28/xmpp__core_8h.html#a777c384ae6685d30bfa255c4b33022aa" target="_top" xlink:title="An xmpp_server stanza route for stanzas directed to the server itself.">
<polygon fill="none" stroke="black" points="612.5,-0.5 612.5,-19.5 761.5,-19.5 761.5,-0.5 612.5,-0.5"/>
<text text-anchor="middle" x="687" y="-7.5" font-family="DejaVuSansMono" font-size="10.00">xmpp_core_route_server</text>
</a>
</g>
<!-- Node16&#45;&gt;Node17 -->
<g id="edge44" class="edge"><title>Node16&#45;&gt;Node17</title>
<path fill="none" stroke="midnightblue" d="M429.656,-10C484.76,-10 558.256,-10 612.421,-10"/>
<polygon fill="midnightblue" stroke="midnightblue" points="429.59,-6.5001 419.59,-10 429.59,-13.5001 429.59,-6.5001"/>
</g>
<!-- Node17&#45;&gt;Node9 -->
<g id="edge46" class="edge"><title>Node17&#45;&gt;Node9</title>
<path fill="none" stroke="midnightblue" d="M771.5,-17.5088C837.742,-22.8197 932.719,-29 1016,-29 1016,-29 1016,-29 1183,-29 1262.46,-29 1354.25,-37.5136 1410.45,-43.6993"/>
<polygon fill="midnightblue" stroke="midnightblue" points="771.782,-14.0202 761.531,-16.6987 771.215,-20.9972 771.782,-14.0202"/>
</g>
</g>
</svg>
        <g id="navigator" transform="translate(0 0)" fill="#404254">
                <rect fill="#f2f5e9" fill-opacity="0.5" stroke="#606060" stroke-width=".5" x="0" y="0" width="60" height="60"/>
                <use id="zoomplus" xlink:href="#zoomPlus" x="17" y="9" onmousedown="handleZoom(evt,'in')"/>
                <use id="zoomminus" xlink:href="#zoomMin" x="42" y="9" onmousedown="handleZoom(evt,'out')"/>
                <use id="reset" xlink:href="#resetDef" x="30" y="36" onmousedown="handleReset()"/>
                <g id="arrowUp" xlink:href="#dirArrow" transform="translate(30 24)" onmousedown="handlePan(0,-1)">
                  <use xlink:href="#rim" fill="#404040">
                        <set attributeName="fill" to="#808080" begin="arrowUp.mouseover" end="arrowUp.mouseout"/>
                  </use>
                  <path fill="none" stroke="white" stroke-width="1.5" d="M0,-3.0v7 M-2.5,-0.5L0,-3.0L2.5,-0.5"/>
                </g>
                <g id="arrowRight" xlink:href="#dirArrow" transform="rotate(90) translate(36 -43)" onmousedown="handlePan(1,0)">
                  <use xlink:href="#rim" fill="#404040">
                        <set attributeName="fill" to="#808080" begin="arrowRight.mouseover" end="arrowRight.mouseout"/>
                  </use>
                  <path fill="none" stroke="white" stroke-width="1.5" d="M0,-3.0v7 M-2.5,-0.5L0,-3.0L2.5,-0.5"/>
                </g>
                <g id="arrowDown" xlink:href="#dirArrow" transform="rotate(180) translate(-30 -48)" onmousedown="handlePan(0,1)">
                  <use xlink:href="#rim" fill="#404040">
                        <set attributeName="fill" to="#808080" begin="arrowDown.mouseover" end="arrowDown.mouseout"/>
                  </use>
                  <path fill="none" stroke="white" stroke-width="1.5" d="M0,-3.0v7 M-2.5,-0.5L0,-3.0L2.5,-0.5"/>
                </g>
                <g id="arrowLeft" xlink:href="#dirArrow" transform="rotate(270) translate(-36 17)" onmousedown="handlePan(-1,0)">
                  <use xlink:href="#rim" fill="#404040">
                        <set attributeName="fill" to="#808080" begin="arrowLeft.mouseover" end="arrowLeft.mouseout"/>
                  </use>
                  <path fill="none" stroke="white" stroke-width="1.5" d="M0,-3.0v7 M-2.5,-0.5L0,-3.0L2.5,-0.5"/>
                </g>
        </g>
        <svg viewBox="0 0 25 25" width="100%" height="30px" preserveAspectRatio="xMaxYMin meet"> 
          <g id="printButton" transform="scale(0.4 0.4)" onmousedown="handlePrint(evt)">
            <rect height="23.33753581" id="paper" rx="2" style="fill:#f2f5e9;fill-rule:evenodd;stroke:#111111;stroke-width:3.224;stroke-linejoin:round;" transform="matrix(1.000000,0.000000,-0.339266,0.940691,0.000000,0.000000)" width="25.55231285" x="26.69387353" y="7.36162977"/>
            <rect height="26.272097" id="body" rx="2" style="fill:#404040;fill-rule:evenodd;stroke:#111111;stroke-width:3.125;stroke-linejoin:round;" width="50" x="4.5295201" y="27.078951"/>
            <rect height="8.27750969" id="tray" style="fill:#d2d5c9;fill-rule:evenodd;stroke:#111111;stroke-width:3.125;stroke-linecap:round;stroke-linejoin:round;" width="40" x="10.28778839" y="44.96812282"/>
          </g>
        </svg>
</svg>
