<?xml version="1.0" encoding="UTF-8" standalone="no"?>
<!DOCTYPE svg PUBLIC "-//W3C//DTD SVG 1.1//EN"
 "http://www.w3.org/Graphics/SVG/1.1/DTD/svg11.dtd">
<!-- Generated by graphviz version 2.28.0 (20120217.0315)
 -->
<!-- Title: G Pages: 1 -->
<!--zoomable 452 -->
<svg id="main" version="1.1" xmlns="http://www.w3.org/2000/svg" xmlns:xlink="http://www.w3.org/1999/xlink" xml:space="preserve" onload="init(evt)">
        <defs>
                <circle id="rim" cx="0" cy="0" r="7"/>
                <circle id="rim2" cx="0" cy="0" r="3.5"/>
                <g id="zoomPlus">
                        <use xlink:href="#rim" fill="#404040">
                                <set attributeName="fill" to="#808080" begin="zoomplus.mouseover" end="zoomplus.mouseout"/>
                        </use>
                        <path d="M-4,0h8M0,-4v8" fill="none" stroke="white" stroke-width="1.5" pointer-events="none"/>
                </g>
                <g id="zoomMin">
                        <use xlink:href="#rim" fill="#404040">
                                <set attributeName="fill" to="#808080" begin="zoomminus.mouseover" end="zoomminus.mouseout"/>
                        </use>
                        <path d="M-4,0h8" fill="none" stroke="white" stroke-width="1.5" pointer-events="none"/>
                </g>
                <g id="dirArrow">
                        <path fill="none" stroke="white" stroke-width="1.5" d="M0,-3.0v7 M-2.5,-0.5L0,-3.0L2.5,-0.5"/>
                </g>
               <g id="resetDef">
                       <use xlink:href="#rim2" fill="#404040">
                               <set attributeName="fill" to="#808080" begin="reset.mouseover" end="reset.mouseout"/>
                       </use>
               </g>
        </defs>

<script type="text/javascript">
var viewWidth = 1826;
var viewHeight = 452;
var sectionId = 'dynsection-29';
</script>
<script xlink:href="../../svgpan.js"/>
<svg id="graph" class="graph">
<g id="viewport">
<title>G</title>
<!-- Node1 -->
<g id="node1" class="node"><title>Node1</title>
<polygon fill="#bfbfbf" stroke="black" points="0.5,-291.057 0.5,-310.057 161.5,-310.057 161.5,-291.057 0.5,-291.057"/>
<text text-anchor="middle" x="81" y="-298.057" font-family="DejaVuSansMono" font-size="10.00">xmpp_stanza_remove_child</text>
</g>
<!-- Node2 -->
<g id="node3" class="node"><title>Node2</title>
<a xlink:href="../../d7/d71/xep__muc_8c.html#af88baacca4f1cccf8ec2bc295db0e063" target="_top" xlink:title="leave_room">
<polygon fill="none" stroke="black" points="456.5,-405.057 456.5,-424.057 533.5,-424.057 533.5,-405.057 456.5,-405.057"/>
<text text-anchor="middle" x="495" y="-412.057" font-family="DejaVuSansMono" font-size="10.00">leave_room</text>
</a>
</g>
<!-- Node1&#45;&gt;Node2 -->
<g id="edge2" class="edge"><title>Node1&#45;&gt;Node2</title>
<path fill="none" stroke="midnightblue" d="M123.845,-313.113C183.896,-331.003 298.078,-364.544 396,-390.557 415.807,-395.819 437.98,-401.284 456.218,-405.668"/>
<polygon fill="midnightblue" stroke="midnightblue" points="124.563,-309.675 113.98,-310.17 122.562,-316.383 124.563,-309.675"/>
</g>
<!-- Node10 -->
<g id="node20" class="node"><title>Node10</title>
<a xlink:href="../../dd/d21/xmpp__stanza_8h.html#ac13c8bb45e2ca03b99836e8d52b265b4" target="_top" xlink:title="Appends a child stanza.">
<polygon fill="none" stroke="black" points="198.5,-234.057 198.5,-253.057 359.5,-253.057 359.5,-234.057 198.5,-234.057"/>
<text text-anchor="middle" x="279" y="-241.057" font-family="DejaVuSansMono" font-size="10.00">xmpp_stanza_append_child</text>
</a>
</g>
<!-- Node1&#45;&gt;Node10 -->
<g id="edge20" class="edge"><title>Node1&#45;&gt;Node10</title>
<path fill="none" stroke="midnightblue" d="M124.587,-288.172C160.774,-277.648 211.977,-262.758 245.087,-253.129"/>
<polygon fill="midnightblue" stroke="midnightblue" points="123.431,-284.863 114.806,-291.017 125.386,-291.585 123.431,-284.863"/>
</g>
<!-- Node3 -->
<g id="node5" class="node"><title>Node3</title>
<a xlink:href="../../d7/d71/xep__muc_8c.html#a40cdc65e1b60c76aef97dfc9d3f2510f" target="_top" xlink:title="leave_room_presence">
<polygon fill="none" stroke="black" points="825.5,-424.057 825.5,-443.057 956.5,-443.057 956.5,-424.057 825.5,-424.057"/>
<text text-anchor="middle" x="891" y="-431.057" font-family="DejaVuSansMono" font-size="10.00">leave_room_presence</text>
</a>
</g>
<!-- Node2&#45;&gt;Node3 -->
<g id="edge4" class="edge"><title>Node2&#45;&gt;Node3</title>
<path fill="none" stroke="midnightblue" d="M543.824,-423.006C569.315,-427.086 601.263,-431.53 630,-433.557 696.415,-438.242 772.61,-437.528 825.268,-436.082"/>
<polygon fill="midnightblue" stroke="midnightblue" points="544.115,-419.507 533.681,-421.347 542.985,-426.415 544.115,-419.507"/>
</g>
<!-- Node8 -->
<g id="node15" class="node"><title>Node8</title>
<a xlink:href="../../d7/d71/xep__muc_8c.html#a0214cd898b2f0c746cb45f79746e5095" target="_top" xlink:title="client_disconnect">
<polygon fill="none" stroke="black" points="648.5,-405.057 648.5,-424.057 767.5,-424.057 767.5,-405.057 648.5,-405.057"/>
<text text-anchor="middle" x="708" y="-412.057" font-family="DejaVuSansMono" font-size="10.00">client_disconnect</text>
</a>
</g>
<!-- Node2&#45;&gt;Node8 -->
<g id="edge14" class="edge"><title>Node2&#45;&gt;Node8</title>
<path fill="none" stroke="midnightblue" d="M543.817,-414.557C574.735,-414.557 615.196,-414.557 648.093,-414.557"/>
<polygon fill="midnightblue" stroke="midnightblue" points="543.723,-411.057 533.723,-414.557 543.723,-418.057 543.723,-411.057"/>
</g>
<!-- Node4 -->
<g id="node7" class="node"><title>Node4</title>
<a xlink:href="../../d7/d71/xep__muc_8c.html#a9936322b944d46aead9fbd942687ec0a" target="_top" xlink:title="handle_presence">
<polygon fill="none" stroke="black" points="1002.5,-367.057 1002.5,-386.057 1109.5,-386.057 1109.5,-367.057 1002.5,-367.057"/>
<text text-anchor="middle" x="1056" y="-374.057" font-family="DejaVuSansMono" font-size="10.00">handle_presence</text>
</a>
</g>
<!-- Node3&#45;&gt;Node4 -->
<g id="edge6" class="edge"><title>Node3&#45;&gt;Node4</title>
<path fill="none" stroke="midnightblue" d="M928.971,-420.629C958.963,-410.141 1000.56,-395.593 1027.63,-386.129"/>
<polygon fill="midnightblue" stroke="midnightblue" points="927.567,-417.412 919.283,-424.017 929.877,-424.019 927.567,-417.412"/>
</g>
<!-- Node5 -->
<g id="node9" class="node"><title>Node5</title>
<a xlink:href="../../d7/d71/xep__muc_8c.html#a1798db1c16a1fa62ff8f39fea202a26f" target="_top" xlink:title="stanza_handler">
<polygon fill="none" stroke="black" points="1161.5,-348.057 1161.5,-367.057 1262.5,-367.057 1262.5,-348.057 1161.5,-348.057"/>
<text text-anchor="middle" x="1212" y="-355.057" font-family="DejaVuSansMono" font-size="10.00">stanza_handler</text>
</a>
</g>
<!-- Node4&#45;&gt;Node5 -->
<g id="edge8" class="edge"><title>Node4&#45;&gt;Node5</title>
<path fill="none" stroke="midnightblue" d="M1119.54,-368.841C1133.43,-367.127 1147.97,-365.333 1161.27,-363.693"/>
<polygon fill="midnightblue" stroke="midnightblue" points="1119.06,-365.373 1109.57,-370.071 1119.92,-372.321 1119.06,-365.373"/>
</g>
<!-- Node6 -->
<g id="node11" class="node"><title>Node6</title>
<a xlink:href="../../d7/d71/xep__muc_8c.html#addf05166cf3fbe386ae6650be21ef251" target="_top" xlink:title="xep_muc_start">
<polygon fill="none" stroke="black" points="1311.5,-377.057 1311.5,-396.057 1406.5,-396.057 1406.5,-377.057 1311.5,-377.057"/>
<text text-anchor="middle" x="1359" y="-384.057" font-family="DejaVuSansMono" font-size="10.00">xep_muc_start</text>
</a>
</g>
<!-- Node5&#45;&gt;Node6 -->
<g id="edge10" class="edge"><title>Node5&#45;&gt;Node6</title>
<path fill="none" stroke="midnightblue" d="M1270.93,-369.143C1284.29,-371.815 1298.34,-374.625 1311.16,-377.188"/>
<polygon fill="midnightblue" stroke="midnightblue" points="1271.37,-365.662 1260.88,-367.133 1270,-372.526 1271.37,-365.662"/>
</g>
<!-- Node7 -->
<g id="node13" class="node"><title>Node7</title>
<a xlink:href="../../d7/d71/xep__muc_8c.html#a20d385a5584d8014ec4d5774eb79d1de" target="_top" xlink:title="xep_muc_stop">
<polygon fill="none" stroke="black" points="1314.5,-339.057 1314.5,-358.057 1403.5,-358.057 1403.5,-339.057 1314.5,-339.057"/>
<text text-anchor="middle" x="1359" y="-346.057" font-family="DejaVuSansMono" font-size="10.00">xep_muc_stop</text>
</a>
</g>
<!-- Node5&#45;&gt;Node7 -->
<g id="edge12" class="edge"><title>Node5&#45;&gt;Node7</title>
<path fill="none" stroke="midnightblue" d="M1273.27,-353.816C1287.03,-352.962 1301.4,-352.07 1314.3,-351.269"/>
<polygon fill="midnightblue" stroke="midnightblue" points="1272.66,-350.347 1262.9,-354.46 1273.1,-357.333 1272.66,-350.347"/>
</g>
<!-- Node9 -->
<g id="node17" class="node"><title>Node9</title>
<a xlink:href="../../d7/d71/xep__muc_8c.html#aefd23f2960520a68fea212344b85cb0b" target="_top" xlink:title="enter_room_presence">
<polygon fill="none" stroke="black" points="825.5,-367.057 825.5,-386.057 956.5,-386.057 956.5,-367.057 825.5,-367.057"/>
<text text-anchor="middle" x="891" y="-374.057" font-family="DejaVuSansMono" font-size="10.00">enter_room_presence</text>
</a>
</g>
<!-- Node8&#45;&gt;Node9 -->
<g id="edge16" class="edge"><title>Node8&#45;&gt;Node9</title>
<path fill="none" stroke="midnightblue" d="M764.638,-402.876C790.307,-397.487 820.391,-391.171 844.654,-386.077"/>
<polygon fill="midnightblue" stroke="midnightblue" points="763.741,-399.488 754.674,-404.968 765.18,-406.339 763.741,-399.488"/>
</g>
<!-- Node9&#45;&gt;Node4 -->
<g id="edge18" class="edge"><title>Node9&#45;&gt;Node4</title>
<path fill="none" stroke="midnightblue" d="M967.245,-376.557C979.11,-376.557 991.152,-376.557 1002.36,-376.557"/>
<polygon fill="midnightblue" stroke="midnightblue" points="966.89,-373.057 956.89,-376.557 966.89,-380.057 966.89,-373.057"/>
</g>
<!-- Node10&#45;&gt;Node2 -->
<g id="edge22" class="edge"><title>Node10&#45;&gt;Node2</title>
<path fill="none" stroke="midnightblue" d="M294.165,-261.034C310.243,-280.924 337.198,-314.43 360,-343.557 376.22,-364.276 373.971,-376.167 396,-390.557 413.891,-402.245 436.987,-408.243 456.263,-411.321"/>
<polygon fill="midnightblue" stroke="midnightblue" points="296.802,-258.729 287.791,-253.157 291.361,-263.132 296.802,-258.729"/>
</g>
<!-- Node11 -->
<g id="node23" class="node"><title>Node11</title>
<a xlink:href="../../d7/d71/xep__muc_8c.html#a4b26d057ea25fe1b3c99edff73a82d78" target="_top" xlink:title="handle_items_query">
<polygon fill="none" stroke="black" points="432.5,-253.057 432.5,-272.057 557.5,-272.057 557.5,-253.057 432.5,-253.057"/>
<text text-anchor="middle" x="495" y="-260.057" font-family="DejaVuSansMono" font-size="10.00">handle_items_query</text>
</a>
</g>
<!-- Node10&#45;&gt;Node11 -->
<g id="edge24" class="edge"><title>Node10&#45;&gt;Node11</title>
<path fill="none" stroke="midnightblue" d="M369.915,-251.54C390.929,-253.406 412.845,-255.352 432.309,-257.08"/>
<polygon fill="midnightblue" stroke="midnightblue" points="369.956,-248.03 359.686,-250.632 369.337,-255.003 369.956,-248.03"/>
</g>
<!-- Node13 -->
<g id="node28" class="node"><title>Node13</title>
<a xlink:href="../../d7/d71/xep__muc_8c.html#a20d9ff75edcc76b952adf38d558fee26" target="_top" xlink:title="handle_info_query">
<polygon fill="none" stroke="black" points="435.5,-291.057 435.5,-310.057 554.5,-310.057 554.5,-291.057 435.5,-291.057"/>
<text text-anchor="middle" x="495" y="-298.057" font-family="DejaVuSansMono" font-size="10.00">handle_info_query</text>
</a>
</g>
<!-- Node10&#45;&gt;Node13 -->
<g id="edge30" class="edge"><title>Node10&#45;&gt;Node13</title>
<path fill="none" stroke="midnightblue" d="M315.568,-256.489C338.349,-264.452 368.662,-274.459 396,-281.557 409.671,-285.107 424.57,-288.322 438.53,-291.056"/>
<polygon fill="midnightblue" stroke="midnightblue" points="316.578,-253.134 305.983,-253.104 314.247,-259.734 316.578,-253.134"/>
</g>
<!-- Node14 -->
<g id="node31" class="node"><title>Node14</title>
<a xlink:href="../../d7/d71/xep__muc_8c.html#a8333f88612fa054ae107699f5bb548cc" target="_top" xlink:title="send_nickname_conflict">
<polygon fill="none" stroke="black" points="633.5,-367.057 633.5,-386.057 782.5,-386.057 782.5,-367.057 633.5,-367.057"/>
<text text-anchor="middle" x="708" y="-374.057" font-family="DejaVuSansMono" font-size="10.00">send_nickname_conflict</text>
</a>
</g>
<!-- Node10&#45;&gt;Node14 -->
<g id="edge34" class="edge"><title>Node10&#45;&gt;Node14</title>
<path fill="none" stroke="midnightblue" d="M293.809,-261.199C313.58,-285.001 352.416,-326.598 396,-345.557 472.128,-378.673 568.346,-383.278 633.448,-381.623"/>
<polygon fill="midnightblue" stroke="midnightblue" points="296.429,-258.874 287.413,-253.309 290.992,-263.282 296.429,-258.874"/>
</g>
<!-- Node15 -->
<g id="node34" class="node"><title>Node15</title>
<a xlink:href="../../d7/d71/xep__muc_8c.html#a115281f539cd77f88872ff153ec5b38d" target="_top" xlink:title="send_presence_broadcast">
<polygon fill="none" stroke="black" points="630.5,-329.057 630.5,-348.057 785.5,-348.057 785.5,-329.057 630.5,-329.057"/>
<text text-anchor="middle" x="708" y="-336.057" font-family="DejaVuSansMono" font-size="10.00">send_presence_broadcast</text>
</a>
</g>
<!-- Node10&#45;&gt;Node15 -->
<g id="edge38" class="edge"><title>Node10&#45;&gt;Node15</title>
<path fill="none" stroke="midnightblue" d="M298.192,-259.894C319.771,-278.156 357.672,-306.834 396,-319.557 472.88,-345.078 566.234,-347.243 630.482,-344.644"/>
<polygon fill="midnightblue" stroke="midnightblue" points="300.349,-257.132 290.498,-253.233 295.768,-262.425 300.349,-257.132"/>
</g>
<!-- Node16 -->
<g id="node37" class="node"><title>Node16</title>
<a xlink:href="../../d9/dd7/xmpp__im_8h.html#a7542fa668dcf982bb5d3725c5cacb0ca" target="_top" xlink:title="IQ stanza callback for handling a disco items query.">
<polygon fill="none" stroke="black" points="633.5,-177.057 633.5,-196.057 782.5,-196.057 782.5,-177.057 633.5,-177.057"/>
<text text-anchor="middle" x="708" y="-184.057" font-family="DejaVuSansMono" font-size="10.00">xmpp_im_iq_disco_items</text>
</a>
</g>
<!-- Node10&#45;&gt;Node16 -->
<g id="edge42" class="edge"><title>Node10&#45;&gt;Node16</title>
<path fill="none" stroke="midnightblue" d="M297.722,-227.095C319.118,-208.453 357.098,-179.166 396,-167.557 480.325,-142.393 506.305,-160.236 594,-167.557 616.203,-169.411 640.608,-173.279 661.037,-177.045"/>
<polygon fill="midnightblue" stroke="midnightblue" points="295.242,-224.618 290.115,-233.89 299.905,-229.838 295.242,-224.618"/>
</g>
<!-- Node19 -->
<g id="node43" class="node"><title>Node19</title>
<a xlink:href="../../d9/dd7/xmpp__im_8h.html#a93be77ae71bc544a1c23fae07f39fd23" target="_top" xlink:title="IQ stanza callback for handling a disco info query.">
<polygon fill="none" stroke="black" points="1449.5,-72.057 1449.5,-91.057 1592.5,-91.057 1592.5,-72.057 1449.5,-72.057"/>
<text text-anchor="middle" x="1521" y="-79.057" font-family="DejaVuSansMono" font-size="10.00">xmpp_im_iq_disco_info</text>
</a>
</g>
<!-- Node10&#45;&gt;Node19 -->
<g id="edge48" class="edge"><title>Node10&#45;&gt;Node19</title>
<path fill="none" stroke="midnightblue" d="M287.983,-224.542C303.286,-190.818 340.257,-121.287 396,-91.557 518.187,-26.3882 568.52,-72.557 707,-72.557 707,-72.557 707,-72.557 1213,-72.557 1294.05,-72.557 1387.08,-75.7299 1449.29,-78.3078"/>
<polygon fill="midnightblue" stroke="midnightblue" points="284.744,-223.212 283.932,-233.775 291.155,-226.024 284.744,-223.212"/>
</g>
<!-- Node20 -->
<g id="node46" class="node"><title>Node20</title>
<a xlink:href="../../dc/da6/xmpp__im_8c.html#af5cf3adac08463b9b6029c8814e4f972" target="_top" xlink:title="get_roster">
<polygon fill="none" stroke="black" points="852.5,-25.057 852.5,-44.057 929.5,-44.057 929.5,-25.057 852.5,-25.057"/>
<text text-anchor="middle" x="891" y="-32.057" font-family="DejaVuSansMono" font-size="10.00">get_roster</text>
</a>
</g>
<!-- Node10&#45;&gt;Node20 -->
<g id="edge52" class="edge"><title>Node10&#45;&gt;Node20</title>
<path fill="none" stroke="midnightblue" d="M285.463,-224.335C297.764,-185.07 331.706,-96.197 396,-58.557 545.127,28.7476 765.081,-6.38172 852.342,-25.401"/>
<polygon fill="midnightblue" stroke="midnightblue" points="282.082,-223.426 282.561,-234.01 288.787,-225.438 282.082,-223.426"/>
</g>
<!-- Node22 -->
<g id="node51" class="node"><title>Node22</title>
<a xlink:href="../../d1/dc2/xmpp__parser_8c.html#a0f2993ab3e982d5e2b4a5635dcaf291c" target="_top" xlink:title="Expat callback for the start of any other element.">
<polygon fill="none" stroke="black" points="471.5,-101.057 471.5,-120.057 518.5,-120.057 518.5,-101.057 471.5,-101.057"/>
<text text-anchor="middle" x="495" y="-108.057" font-family="DejaVuSansMono" font-size="10.00">start</text>
</a>
</g>
<!-- Node10&#45;&gt;Node22 -->
<g id="edge58" class="edge"><title>Node10&#45;&gt;Node22</title>
<path fill="none" stroke="midnightblue" d="M293.662,-225.952C313.518,-201.613 352.736,-158.037 396,-134.557 419.863,-121.606 450.755,-115.54 471.417,-112.769"/>
<polygon fill="midnightblue" stroke="midnightblue" points="290.759,-223.979 287.25,-233.976 296.227,-228.348 290.759,-223.979"/>
</g>
<!-- Node34 -->
<g id="node79" class="node"><title>Node34</title>
<a xlink:href="../../d1/d2e/xmpp__server_8h.html#ae539771fafbb092bcd304e4e063370aa" target="_top" xlink:title="Append to the given stanza all the items set on this server.">
<polygon fill="none" stroke="black" points="396.5,-177.057 396.5,-196.057 593.5,-196.057 593.5,-177.057 396.5,-177.057"/>
<text text-anchor="middle" x="495" y="-184.057" font-family="DejaVuSansMono" font-size="10.00">xmpp_server_append_disco_items</text>
</a>
</g>
<!-- Node10&#45;&gt;Node34 -->
<g id="edge90" class="edge"><title>Node10&#45;&gt;Node34</title>
<path fill="none" stroke="midnightblue" d="M315.568,-230.625C338.349,-222.662 368.662,-212.655 396,-205.557 409.671,-202.007 424.57,-198.792 438.53,-196.058"/>
<polygon fill="midnightblue" stroke="midnightblue" points="314.247,-227.38 305.983,-234.01 316.578,-233.98 314.247,-227.38"/>
</g>
<!-- Node35 -->
<g id="node82" class="node"><title>Node35</title>
<a xlink:href="../../d0/df0/xmpp__server_8c.html#a3b400cb24e5bc51623f63c96c8a0a342" target="_top" xlink:title="Sends a &lt;service&#45;unavailable&gt; error stanza to a client.">
<polygon fill="none" stroke="black" points="414.5,-215.057 414.5,-234.057 575.5,-234.057 575.5,-215.057 414.5,-215.057"/>
<text text-anchor="middle" x="495" y="-222.057" font-family="DejaVuSansMono" font-size="10.00">send_service_unavailable</text>
</a>
</g>
<!-- Node10&#45;&gt;Node35 -->
<g id="edge94" class="edge"><title>Node10&#45;&gt;Node35</title>
<path fill="none" stroke="midnightblue" d="M369.812,-235.583C384.564,-234.273 399.763,-232.924 414.248,-231.638"/>
<polygon fill="midnightblue" stroke="midnightblue" points="369.337,-232.111 359.686,-236.482 369.956,-239.084 369.337,-232.111"/>
</g>
<!-- Node12 -->
<g id="node25" class="node"><title>Node12</title>
<a xlink:href="../../d7/d71/xep__muc_8c.html#aec1096d47742f472668c4905fa3c299a" target="_top" xlink:title="handle_iq">
<polygon fill="none" stroke="black" points="672.5,-291.057 672.5,-310.057 743.5,-310.057 743.5,-291.057 672.5,-291.057"/>
<text text-anchor="middle" x="708" y="-298.057" font-family="DejaVuSansMono" font-size="10.00">handle_iq</text>
</a>
</g>
<!-- Node11&#45;&gt;Node12 -->
<g id="edge26" class="edge"><title>Node11&#45;&gt;Node12</title>
<path fill="none" stroke="midnightblue" d="M559.177,-273.935C596.209,-280.604 641.582,-288.776 672.215,-294.292"/>
<polygon fill="midnightblue" stroke="midnightblue" points="559.434,-270.425 548.972,-272.097 558.193,-277.314 559.434,-270.425"/>
</g>
<!-- Node12&#45;&gt;Node5 -->
<g id="edge28" class="edge"><title>Node12&#45;&gt;Node5</title>
<path fill="none" stroke="midnightblue" d="M753.638,-308.794C774.375,-312.433 799.394,-316.556 822,-319.557 943.583,-335.697 1087.4,-347.989 1161.44,-353.821"/>
<polygon fill="midnightblue" stroke="midnightblue" points="753.984,-305.301 743.526,-306.999 752.76,-312.193 753.984,-305.301"/>
</g>
<!-- Node13&#45;&gt;Node12 -->
<g id="edge32" class="edge"><title>Node13&#45;&gt;Node12</title>
<path fill="none" stroke="midnightblue" d="M565.188,-300.557C601.042,-300.557 643.27,-300.557 672.265,-300.557"/>
<polygon fill="midnightblue" stroke="midnightblue" points="564.775,-297.057 554.775,-300.557 564.775,-304.057 564.775,-297.057"/>
</g>
<!-- Node14&#45;&gt;Node9 -->
<g id="edge36" class="edge"><title>Node14&#45;&gt;Node9</title>
<path fill="none" stroke="midnightblue" d="M792.674,-376.557C803.684,-376.557 814.829,-376.557 825.453,-376.557"/>
<polygon fill="midnightblue" stroke="midnightblue" points="792.62,-373.057 782.62,-376.557 792.62,-380.057 792.62,-373.057"/>
</g>
<!-- Node15&#45;&gt;Node9 -->
<g id="edge40" class="edge"><title>Node15&#45;&gt;Node9</title>
<path fill="none" stroke="midnightblue" d="M764.638,-350.238C790.307,-355.627 820.391,-361.943 844.654,-367.037"/>
<polygon fill="midnightblue" stroke="midnightblue" points="765.18,-346.775 754.674,-348.146 763.741,-353.626 765.18,-346.775"/>
</g>
<!-- Node17 -->
<g id="node39" class="node"><title>Node17</title>
<a xlink:href="../../d1/d2e/xmpp__server_8h.html#a27bfc8e4d424a8bc17ab21a4a09cdf92" target="_top" xlink:title="Allocates and initializes the XMPP server.">
<polygon fill="none" stroke="black" points="1632.5,-195.057 1632.5,-214.057 1739.5,-214.057 1739.5,-195.057 1632.5,-195.057"/>
<text text-anchor="middle" x="1686" y="-202.057" font-family="DejaVuSansMono" font-size="10.00">xmpp_server_new</text>
</a>
</g>
<!-- Node16&#45;&gt;Node17 -->
<g id="edge44" class="edge"><title>Node16&#45;&gt;Node17</title>
<path fill="none" stroke="midnightblue" d="M744.294,-199.62C806.263,-221.349 939.066,-262.557 1055,-262.557 1055,-262.557 1055,-262.557 1360,-262.557 1468.9,-262.557 1595.17,-230.608 1653.05,-214.135"/>
<polygon fill="midnightblue" stroke="midnightblue" points="745.213,-196.232 734.619,-196.182 742.87,-202.828 745.213,-196.232"/>
</g>
<!-- Node18 -->
<g id="node41" class="node"><title>Node18</title>
<a xlink:href="../../d0/d29/main_8c.html#a0ddf1224851353fc92bfbff6f499fa97" target="_top" xlink:title="main">
<polygon fill="none" stroke="black" points="1776.5,-195.057 1776.5,-214.057 1817.5,-214.057 1817.5,-195.057 1776.5,-195.057"/>
<text text-anchor="middle" x="1797" y="-202.057" font-family="DejaVuSansMono" font-size="10.00">main</text>
</a>
</g>
<!-- Node17&#45;&gt;Node18 -->
<g id="edge46" class="edge"><title>Node17&#45;&gt;Node18</title>
<path fill="none" stroke="midnightblue" d="M1749.75,-204.557C1759.43,-204.557 1768.76,-204.557 1776.47,-204.557"/>
<polygon fill="midnightblue" stroke="midnightblue" points="1749.58,-201.057 1739.58,-204.557 1749.58,-208.057 1749.58,-201.057"/>
</g>
<!-- Node19&#45;&gt;Node17 -->
<g id="edge50" class="edge"><title>Node19&#45;&gt;Node17</title>
<path fill="none" stroke="midnightblue" d="M1585.26,-94.903C1589,-96.5714 1592.61,-98.4475 1596,-100.557 1635.94,-125.437 1667.34,-174.044 1679.51,-194.792"/>
<polygon fill="midnightblue" stroke="midnightblue" points="1586.36,-91.5718 1575.77,-91.1689 1583.79,-98.0861 1586.36,-91.5718"/>
</g>
<!-- Node21 -->
<g id="node48" class="node"><title>Node21</title>
<a xlink:href="../../d9/dd7/xmpp__im_8h.html#a40f3cf6fffd6aafe9c7cde476fdbc9c2" target="_top" xlink:title="IQ stanza callback for handing a roster query.">
<polygon fill="none" stroke="black" points="996.5,-25.057 996.5,-44.057 1115.5,-44.057 1115.5,-25.057 996.5,-25.057"/>
<text text-anchor="middle" x="1056" y="-32.057" font-family="DejaVuSansMono" font-size="10.00">xmpp_im_iq_roster</text>
</a>
</g>
<!-- Node20&#45;&gt;Node21 -->
<g id="edge54" class="edge"><title>Node20&#45;&gt;Node21</title>
<path fill="none" stroke="midnightblue" d="M939.886,-34.557C957.564,-34.557 977.801,-34.557 996.326,-34.557"/>
<polygon fill="midnightblue" stroke="midnightblue" points="939.805,-31.0571 929.805,-34.557 939.805,-38.0571 939.805,-31.0571"/>
</g>
<!-- Node21&#45;&gt;Node17 -->
<g id="edge56" class="edge"><title>Node21&#45;&gt;Node17</title>
<path fill="none" stroke="midnightblue" d="M1106.57,-22.9661C1206.93,-2.36165 1438.05,30.2912 1596,-62.557 1648.17,-93.2244 1674.32,-167.799 1682.29,-194.687"/>
<polygon fill="midnightblue" stroke="midnightblue" points="1105.76,-19.5584 1096.7,-25.0408 1107.2,-26.4087 1105.76,-19.5584"/>
</g>
<!-- Node23 -->
<g id="node53" class="node"><title>Node23</title>
<a xlink:href="../../d1/dc2/xmpp__parser_8c.html#a03a135f29e3d4e01abbb60e53ac6967c" target="_top" xlink:title="init_parser">
<polygon fill="none" stroke="black" points="849.5,-139.057 849.5,-158.057 932.5,-158.057 932.5,-139.057 849.5,-139.057"/>
<text text-anchor="middle" x="891" y="-146.057" font-family="DejaVuSansMono" font-size="10.00">init_parser</text>
</a>
</g>
<!-- Node22&#45;&gt;Node23 -->
<g id="edge60" class="edge"><title>Node22&#45;&gt;Node23</title>
<path fill="none" stroke="midnightblue" d="M528.962,-111.48C582.885,-113.267 693.245,-118.084 786,-129.557 806.948,-132.148 830.062,-136.245 849.17,-139.973"/>
<polygon fill="midnightblue" stroke="midnightblue" points="528.751,-107.972 518.645,-111.153 528.529,-114.968 528.751,-107.972"/>
</g>
<!-- Node33 -->
<g id="node76" class="node"><title>Node33</title>
<a xlink:href="../../d1/dc2/xmpp__parser_8c.html#a2268b636f6d02bbe04f3033ff93d829c" target="_top" xlink:title="Expat callback for the start of an XMPP stream.">
<polygon fill="none" stroke="black" points="663.5,-139.057 663.5,-158.057 752.5,-158.057 752.5,-139.057 663.5,-139.057"/>
<text text-anchor="middle" x="708" y="-146.057" font-family="DejaVuSansMono" font-size="10.00">stream_start</text>
</a>
</g>
<!-- Node22&#45;&gt;Node33 -->
<g id="edge86" class="edge"><title>Node22&#45;&gt;Node33</title>
<path fill="none" stroke="midnightblue" d="M528.597,-116.428C564.76,-122.94 623.287,-133.481 663.377,-140.701"/>
<polygon fill="midnightblue" stroke="midnightblue" points="529.043,-112.952 518.581,-114.624 527.802,-119.841 529.043,-112.952"/>
</g>
<!-- Node24 -->
<g id="node55" class="node"><title>Node24</title>
<a xlink:href="../../d8/d55/xmpp__parser_8h.html#adf25a1d2047994dfa6cc71a9482548c2" target="_top" xlink:title="xmpp_parser_new">
<polygon fill="none" stroke="black" points="1002.5,-177.057 1002.5,-196.057 1109.5,-196.057 1109.5,-177.057 1002.5,-177.057"/>
<text text-anchor="middle" x="1056" y="-184.057" font-family="DejaVuSansMono" font-size="10.00">xmpp_parser_new</text>
</a>
</g>
<!-- Node23&#45;&gt;Node24 -->
<g id="edge62" class="edge"><title>Node23&#45;&gt;Node24</title>
<path fill="none" stroke="midnightblue" d="M942.65,-160.365C965.674,-165.732 992.55,-171.998 1014.24,-177.055"/>
<polygon fill="midnightblue" stroke="midnightblue" points="943.245,-156.91 932.711,-158.048 941.656,-163.727 943.245,-156.91"/>
</g>
<!-- Node28 -->
<g id="node64" class="node"><title>Node28</title>
<a xlink:href="../../d8/d55/xmpp__parser_8h.html#af5e1eb5bbef0496c3543bd35113766ac" target="_top" xlink:title="Reset the state of the parser as if it was just created.">
<polygon fill="none" stroke="black" points="996.5,-139.057 996.5,-158.057 1115.5,-158.057 1115.5,-139.057 996.5,-139.057"/>
<text text-anchor="middle" x="1056" y="-146.057" font-family="DejaVuSansMono" font-size="10.00">xmpp_parser_reset</text>
</a>
</g>
<!-- Node23&#45;&gt;Node28 -->
<g id="edge72" class="edge"><title>Node23&#45;&gt;Node28</title>
<path fill="none" stroke="midnightblue" d="M942.96,-148.557C959.899,-148.557 978.895,-148.557 996.366,-148.557"/>
<polygon fill="midnightblue" stroke="midnightblue" points="942.711,-145.057 932.711,-148.557 942.711,-152.057 942.711,-145.057"/>
</g>
<!-- Node25 -->
<g id="node57" class="node"><title>Node25</title>
<a xlink:href="../../d6/d78/xmp3__multicast_8c.html#a08afc39c59ec9297d756a99c395eff3c" target="_top" xlink:title="multicast_new">
<polygon fill="none" stroke="black" points="1164.5,-177.057 1164.5,-196.057 1259.5,-196.057 1259.5,-177.057 1164.5,-177.057"/>
<text text-anchor="middle" x="1212" y="-184.057" font-family="DejaVuSansMono" font-size="10.00">multicast_new</text>
</a>
</g>
<!-- Node24&#45;&gt;Node25 -->
<g id="edge64" class="edge"><title>Node24&#45;&gt;Node25</title>
<path fill="none" stroke="midnightblue" d="M1119.74,-186.557C1134.65,-186.557 1150.3,-186.557 1164.34,-186.557"/>
<polygon fill="midnightblue" stroke="midnightblue" points="1119.57,-183.057 1109.57,-186.557 1119.57,-190.057 1119.57,-183.057"/>
</g>
<!-- Node26 -->
<g id="node59" class="node"><title>Node26</title>
<a xlink:href="../../d4/d2f/xmpp__client_8h.html#a1619c0b8f58b2cf09a322bf34fbc3414" target="_top" xlink:title="xmpp_client_new">
<polygon fill="none" stroke="black" points="1158.5,-215.057 1158.5,-234.057 1265.5,-234.057 1265.5,-215.057 1158.5,-215.057"/>
<text text-anchor="middle" x="1212" y="-222.057" font-family="DejaVuSansMono" font-size="10.00">xmpp_client_new</text>
</a>
</g>
<!-- Node24&#45;&gt;Node26 -->
<g id="edge66" class="edge"><title>Node24&#45;&gt;Node26</title>
<path fill="none" stroke="midnightblue" d="M1105.79,-198.597C1127.31,-203.906 1152.23,-210.056 1172.42,-215.037"/>
<polygon fill="midnightblue" stroke="midnightblue" points="1106.41,-195.144 1095.86,-196.146 1104.73,-201.94 1106.41,-195.144"/>
</g>
<!-- Node27 -->
<g id="node61" class="node"><title>Node27</title>
<a xlink:href="../../d0/df0/xmpp__server_8c.html#a66363912ef1221a2574f9f99805fe8fd" target="_top" xlink:title="Callback for new client connections.">
<polygon fill="none" stroke="black" points="1470.5,-195.057 1470.5,-214.057 1571.5,-214.057 1571.5,-195.057 1470.5,-195.057"/>
<text text-anchor="middle" x="1521" y="-202.057" font-family="DejaVuSansMono" font-size="10.00">connect_client</text>
</a>
</g>
<!-- Node26&#45;&gt;Node27 -->
<g id="edge68" class="edge"><title>Node26&#45;&gt;Node27</title>
<path fill="none" stroke="midnightblue" d="M1275.85,-220.463C1333.42,-216.712 1417.5,-211.235 1470.45,-207.785"/>
<polygon fill="midnightblue" stroke="midnightblue" points="1275.53,-216.976 1265.78,-221.119 1275.98,-223.961 1275.53,-216.976"/>
</g>
<!-- Node27&#45;&gt;Node17 -->
<g id="edge70" class="edge"><title>Node27&#45;&gt;Node17</title>
<path fill="none" stroke="midnightblue" d="M1581.91,-204.557C1598.46,-204.557 1616.3,-204.557 1632.41,-204.557"/>
<polygon fill="midnightblue" stroke="midnightblue" points="1581.79,-201.057 1571.79,-204.557 1581.79,-208.057 1581.79,-201.057"/>
</g>
<!-- Node29 -->
<g id="node66" class="node"><title>Node29</title>
<a xlink:href="../../d6/d78/xmp3__multicast_8c.html#a9865e8026fb8ee000629fc1da465716d" target="_top" xlink:title="socket_handler">
<polygon fill="none" stroke="black" points="1308.5,-110.057 1308.5,-129.057 1409.5,-129.057 1409.5,-110.057 1308.5,-110.057"/>
<text text-anchor="middle" x="1359" y="-117.057" font-family="DejaVuSansMono" font-size="10.00">socket_handler</text>
</a>
</g>
<!-- Node28&#45;&gt;Node29 -->
<g id="edge74" class="edge"><title>Node28&#45;&gt;Node29</title>
<path fill="none" stroke="midnightblue" d="M1108,-136.906C1122.18,-134.064 1137.63,-131.333 1152,-129.557 1205.13,-122.992 1266.46,-120.684 1308.29,-119.901"/>
<polygon fill="midnightblue" stroke="midnightblue" points="1107.02,-133.534 1097.93,-138.983 1108.43,-140.39 1107.02,-133.534"/>
</g>
<!-- Node31 -->
<g id="node70" class="node"><title>Node31</title>
<a xlink:href="../../d8/d55/xmpp__parser_8h.html#a578b7a9a50212eb204a86789001287af" target="_top" xlink:title="xmpp_parser_parse">
<polygon fill="none" stroke="black" points="1152.5,-139.057 1152.5,-158.057 1271.5,-158.057 1271.5,-139.057 1152.5,-139.057"/>
<text text-anchor="middle" x="1212" y="-146.057" font-family="DejaVuSansMono" font-size="10.00">xmpp_parser_parse</text>
</a>
</g>
<!-- Node28&#45;&gt;Node31 -->
<g id="edge78" class="edge"><title>Node28&#45;&gt;Node31</title>
<path fill="none" stroke="midnightblue" d="M1125.89,-148.557C1134.69,-148.557 1143.63,-148.557 1152.25,-148.557"/>
<polygon fill="midnightblue" stroke="midnightblue" points="1125.66,-145.057 1115.66,-148.557 1125.66,-152.057 1125.66,-145.057"/>
</g>
<!-- Node30 -->
<g id="node68" class="node"><title>Node30</title>
<a xlink:href="../../d6/d78/xmp3__multicast_8c.html#a991c928ab73b350c4b7029352e91a219" target="_top" xlink:title="multicast_start">
<polygon fill="none" stroke="black" points="1467.5,-110.057 1467.5,-129.057 1574.5,-129.057 1574.5,-110.057 1467.5,-110.057"/>
<text text-anchor="middle" x="1521" y="-117.057" font-family="DejaVuSansMono" font-size="10.00">multicast_start</text>
</a>
</g>
<!-- Node29&#45;&gt;Node30 -->
<g id="edge76" class="edge"><title>Node29&#45;&gt;Node30</title>
<path fill="none" stroke="midnightblue" d="M1419.8,-119.557C1435.38,-119.557 1452.05,-119.557 1467.23,-119.557"/>
<polygon fill="midnightblue" stroke="midnightblue" points="1419.75,-116.057 1409.75,-119.557 1419.75,-123.057 1419.75,-116.057"/>
</g>
<!-- Node31&#45;&gt;Node29 -->
<g id="edge80" class="edge"><title>Node31&#45;&gt;Node29</title>
<path fill="none" stroke="midnightblue" d="M1270.72,-137.013C1283.8,-134.397 1297.55,-131.647 1310.17,-129.123"/>
<polygon fill="midnightblue" stroke="midnightblue" points="1270,-133.588 1260.88,-138.981 1271.37,-140.452 1270,-133.588"/>
</g>
<!-- Node32 -->
<g id="node73" class="node"><title>Node32</title>
<a xlink:href="../../d0/df0/xmpp__server_8c.html#abece91815ef240322d79073f5bfca1db" target="_top" xlink:title="Callback for new data from a client.">
<polygon fill="none" stroke="black" points="1317.5,-167.057 1317.5,-186.057 1400.5,-186.057 1400.5,-167.057 1317.5,-167.057"/>
<text text-anchor="middle" x="1359" y="-174.057" font-family="DejaVuSansMono" font-size="10.00">read_client</text>
</a>
</g>
<!-- Node31&#45;&gt;Node32 -->
<g id="edge82" class="edge"><title>Node31&#45;&gt;Node32</title>
<path fill="none" stroke="midnightblue" d="M1272.74,-160.093C1287.77,-162.995 1303.54,-166.041 1317.38,-168.714"/>
<polygon fill="midnightblue" stroke="midnightblue" points="1272.98,-156.574 1262.5,-158.115 1271.65,-163.447 1272.98,-156.574"/>
</g>
<!-- Node32&#45;&gt;Node27 -->
<g id="edge84" class="edge"><title>Node32&#45;&gt;Node27</title>
<path fill="none" stroke="midnightblue" d="M1410.79,-185.445C1429.85,-188.781 1451.48,-192.566 1470.43,-195.883"/>
<polygon fill="midnightblue" stroke="midnightblue" points="1411.24,-181.971 1400.79,-183.695 1410.04,-188.867 1411.24,-181.971"/>
</g>
<!-- Node33&#45;&gt;Node23 -->
<g id="edge88" class="edge"><title>Node33&#45;&gt;Node23</title>
<path fill="none" stroke="midnightblue" d="M763.127,-148.557C790.801,-148.557 823.918,-148.557 849.377,-148.557"/>
<polygon fill="midnightblue" stroke="midnightblue" points="762.815,-145.057 752.815,-148.557 762.815,-152.057 762.815,-145.057"/>
</g>
<!-- Node34&#45;&gt;Node16 -->
<g id="edge92" class="edge"><title>Node34&#45;&gt;Node16</title>
<path fill="none" stroke="midnightblue" d="M604.053,-186.557C613.915,-186.557 623.747,-186.557 633.204,-186.557"/>
<polygon fill="midnightblue" stroke="midnightblue" points="603.779,-183.057 593.779,-186.557 603.779,-190.057 603.779,-183.057"/>
</g>
<!-- Node36 -->
<g id="node84" class="node"><title>Node36</title>
<a xlink:href="../../d1/d2e/xmpp__server_8h.html#a8ddb3bbfd497811c13e9426ce6f02003" target="_top" xlink:title="Deliver an IQ stanza to a registered callback function.">
<polygon fill="none" stroke="black" points="822.5,-291.057 822.5,-310.057 959.5,-310.057 959.5,-291.057 822.5,-291.057"/>
<text text-anchor="middle" x="891" y="-298.057" font-family="DejaVuSansMono" font-size="10.00">xmpp_server_route_iq</text>
</a>
</g>
<!-- Node35&#45;&gt;Node36 -->
<g id="edge96" class="edge"><title>Node35&#45;&gt;Node36</title>
<path fill="none" stroke="midnightblue" d="M555.632,-236.06C633.484,-251.077 768.324,-277.087 840.701,-291.048"/>
<polygon fill="midnightblue" stroke="midnightblue" points="555.983,-232.563 545.501,-234.106 554.657,-239.436 555.983,-232.563"/>
</g>
<!-- Node37 -->
<g id="node86" class="node"><title>Node37</title>
<a xlink:href="../../d8/d28/xmpp__core_8h.html#a777c384ae6685d30bfa255c4b33022aa" target="_top" xlink:title="An xmpp_server stanza route for stanzas directed to the server itself.">
<polygon fill="none" stroke="black" points="1446.5,-291.057 1446.5,-310.057 1595.5,-310.057 1595.5,-291.057 1446.5,-291.057"/>
<text text-anchor="middle" x="1521" y="-298.057" font-family="DejaVuSansMono" font-size="10.00">xmpp_core_route_server</text>
</a>
</g>
<!-- Node36&#45;&gt;Node37 -->
<g id="edge98" class="edge"><title>Node36&#45;&gt;Node37</title>
<path fill="none" stroke="midnightblue" d="M969.515,-300.557C1091.45,-300.557 1326.46,-300.557 1446.11,-300.557"/>
<polygon fill="midnightblue" stroke="midnightblue" points="969.505,-297.057 959.505,-300.557 969.505,-304.057 969.505,-297.057"/>
</g>
<!-- Node37&#45;&gt;Node17 -->
<g id="edge100" class="edge"><title>Node37&#45;&gt;Node17</title>
<path fill="none" stroke="midnightblue" d="M1569.93,-287.862C1578.84,-284.713 1587.89,-280.954 1596,-276.557 1628.15,-259.124 1660.06,-229.556 1675.47,-214.302"/>
<polygon fill="midnightblue" stroke="midnightblue" points="1568.75,-284.565 1560.37,-291.04 1570.96,-291.208 1568.75,-284.565"/>
</g>
</g>
</svg>
        <g id="navigator" transform="translate(0 0)" fill="#404254">
                <rect fill="#f2f5e9" fill-opacity="0.5" stroke="#606060" stroke-width=".5" x="0" y="0" width="60" height="60"/>
                <use id="zoomplus" xlink:href="#zoomPlus" x="17" y="9" onmousedown="handleZoom(evt,'in')"/>
                <use id="zoomminus" xlink:href="#zoomMin" x="42" y="9" onmousedown="handleZoom(evt,'out')"/>
                <use id="reset" xlink:href="#resetDef" x="30" y="36" onmousedown="handleReset()"/>
                <g id="arrowUp" xlink:href="#dirArrow" transform="translate(30 24)" onmousedown="handlePan(0,-1)">
                  <use xlink:href="#rim" fill="#404040">
                        <set attributeName="fill" to="#808080" begin="arrowUp.mouseover" end="arrowUp.mouseout"/>
                  </use>
                  <path fill="none" stroke="white" stroke-width="1.5" d="M0,-3.0v7 M-2.5,-0.5L0,-3.0L2.5,-0.5"/>
                </g>
                <g id="arrowRight" xlink:href="#dirArrow" transform="rotate(90) translate(36 -43)" onmousedown="handlePan(1,0)">
                  <use xlink:href="#rim" fill="#404040">
                        <set attributeName="fill" to="#808080" begin="arrowRight.mouseover" end="arrowRight.mouseout"/>
                  </use>
                  <path fill="none" stroke="white" stroke-width="1.5" d="M0,-3.0v7 M-2.5,-0.5L0,-3.0L2.5,-0.5"/>
                </g>
                <g id="arrowDown" xlink:href="#dirArrow" transform="rotate(180) translate(-30 -48)" onmousedown="handlePan(0,1)">
                  <use xlink:href="#rim" fill="#404040">
                        <set attributeName="fill" to="#808080" begin="arrowDown.mouseover" end="arrowDown.mouseout"/>
                  </use>
                  <path fill="none" stroke="white" stroke-width="1.5" d="M0,-3.0v7 M-2.5,-0.5L0,-3.0L2.5,-0.5"/>
                </g>
                <g id="arrowLeft" xlink:href="#dirArrow" transform="rotate(270) translate(-36 17)" onmousedown="handlePan(-1,0)">
                  <use xlink:href="#rim" fill="#404040">
                        <set attributeName="fill" to="#808080" begin="arrowLeft.mouseover" end="arrowLeft.mouseout"/>
                  </use>
                  <path fill="none" stroke="white" stroke-width="1.5" d="M0,-3.0v7 M-2.5,-0.5L0,-3.0L2.5,-0.5"/>
                </g>
        </g>
        <svg viewBox="0 0 25 25" width="100%" height="30px" preserveAspectRatio="xMaxYMin meet"> 
          <g id="printButton" transform="scale(0.4 0.4)" onmousedown="handlePrint(evt)">
            <rect height="23.33753581" id="paper" rx="2" style="fill:#f2f5e9;fill-rule:evenodd;stroke:#111111;stroke-width:3.224;stroke-linejoin:round;" transform="matrix(1.000000,0.000000,-0.339266,0.940691,0.000000,0.000000)" width="25.55231285" x="26.69387353" y="7.36162977"/>
            <rect height="26.272097" id="body" rx="2" style="fill:#404040;fill-rule:evenodd;stroke:#111111;stroke-width:3.125;stroke-linejoin:round;" width="50" x="4.5295201" y="27.078951"/>
            <rect height="8.27750969" id="tray" style="fill:#d2d5c9;fill-rule:evenodd;stroke:#111111;stroke-width:3.125;stroke-linecap:round;stroke-linejoin:round;" width="40" x="10.28778839" y="44.96812282"/>
          </g>
        </svg>
</svg>
