<?xml version="1.0" encoding="UTF-8" standalone="no"?>
<!DOCTYPE svg PUBLIC "-//W3C//DTD SVG 1.1//EN"
 "http://www.w3.org/Graphics/SVG/1.1/DTD/svg11.dtd">
<!-- Generated by graphviz version 2.28.0 (20120217.0315)
 -->
<!-- Title: G Pages: 1 -->
<!--zoomable 142 -->
<svg id="main" version="1.1" xmlns="http://www.w3.org/2000/svg" xmlns:xlink="http://www.w3.org/1999/xlink" xml:space="preserve" onload="init(evt)">
        <defs>
                <circle id="rim" cx="0" cy="0" r="7"/>
                <circle id="rim2" cx="0" cy="0" r="3.5"/>
                <g id="zoomPlus">
                        <use xlink:href="#rim" fill="#404040">
                                <set attributeName="fill" to="#808080" begin="zoomplus.mouseover" end="zoomplus.mouseout"/>
                        </use>
                        <path d="M-4,0h8M0,-4v8" fill="none" stroke="white" stroke-width="1.5" pointer-events="none"/>
                </g>
                <g id="zoomMin">
                        <use xlink:href="#rim" fill="#404040">
                                <set attributeName="fill" to="#808080" begin="zoomminus.mouseover" end="zoomminus.mouseout"/>
                        </use>
                        <path d="M-4,0h8" fill="none" stroke="white" stroke-width="1.5" pointer-events="none"/>
                </g>
                <g id="dirArrow">
                        <path fill="none" stroke="white" stroke-width="1.5" d="M0,-3.0v7 M-2.5,-0.5L0,-3.0L2.5,-0.5"/>
                </g>
               <g id="resetDef">
                       <use xlink:href="#rim2" fill="#404040">
                               <set attributeName="fill" to="#808080" begin="reset.mouseover" end="reset.mouseout"/>
                       </use>
               </g>
        </defs>

<script type="text/javascript">
var viewWidth = 1286;
var viewHeight = 142;
var sectionId = 'dynsection-27';
</script>
<script xlink:href="../../svgpan.js"/>
<svg id="graph" class="graph">
<g id="viewport">
<title>G</title>
<!-- Node1 -->
<g id="node1" class="node"><title>Node1</title>
<polygon fill="#bfbfbf" stroke="black" points="0.5,-57.5 0.5,-76.5 125.5,-76.5 125.5,-57.5 0.5,-57.5"/>
<text text-anchor="middle" x="63" y="-64.5" font-family="DejaVuSansMono" font-size="10.00">xmpp_stanza_ns_new</text>
</g>
<!-- Node2 -->
<g id="node3" class="node"><title>Node2</title>
<a xlink:href="../../d1/dc2/xmpp__parser_8c.html#a2268b636f6d02bbe04f3033ff93d829c" target="_top" xlink:title="Expat callback for the start of an XMPP stream.">
<polygon fill="none" stroke="black" points="246.5,-76.5 246.5,-95.5 335.5,-95.5 335.5,-76.5 246.5,-76.5"/>
<text text-anchor="middle" x="291" y="-83.5" font-family="DejaVuSansMono" font-size="10.00">stream_start</text>
</a>
</g>
<!-- Node1&#45;&gt;Node2 -->
<g id="edge2" class="edge"><title>Node1&#45;&gt;Node2</title>
<path fill="none" stroke="midnightblue" d="M135.798,-73.0361C172.075,-76.086 214.916,-79.6876 246.224,-82.3197"/>
<polygon fill="midnightblue" stroke="midnightblue" points="136.014,-69.542 125.755,-72.1918 135.427,-76.5174 136.014,-69.542"/>
</g>
<!-- Node15 -->
<g id="node31" class="node"><title>Node15</title>
<a xlink:href="../../d1/dc2/xmpp__parser_8c.html#a0f2993ab3e982d5e2b4a5635dcaf291c" target="_top" xlink:title="Expat callback for the start of any other element.">
<polygon fill="none" stroke="black" points="162.5,-38.5 162.5,-57.5 209.5,-57.5 209.5,-38.5 162.5,-38.5"/>
<text text-anchor="middle" x="186" y="-45.5" font-family="DejaVuSansMono" font-size="10.00">start</text>
</a>
</g>
<!-- Node1&#45;&gt;Node15 -->
<g id="edge32" class="edge"><title>Node1&#45;&gt;Node15</title>
<path fill="none" stroke="midnightblue" d="M134.872,-55.8713C144.803,-54.3119 154.35,-52.8128 162.398,-51.549"/>
<polygon fill="midnightblue" stroke="midnightblue" points="134.19,-52.4354 124.854,-57.4443 135.276,-59.3506 134.19,-52.4354"/>
</g>
<!-- Node3 -->
<g id="node5" class="node"><title>Node3</title>
<a xlink:href="../../d1/dc2/xmpp__parser_8c.html#a03a135f29e3d4e01abbb60e53ac6967c" target="_top" xlink:title="init_parser">
<polygon fill="none" stroke="black" points="372.5,-57.5 372.5,-76.5 455.5,-76.5 455.5,-57.5 372.5,-57.5"/>
<text text-anchor="middle" x="414" y="-64.5" font-family="DejaVuSansMono" font-size="10.00">init_parser</text>
</a>
</g>
<!-- Node2&#45;&gt;Node3 -->
<g id="edge4" class="edge"><title>Node2&#45;&gt;Node3</title>
<path fill="none" stroke="midnightblue" d="M345.627,-77.5792C354.547,-76.1786 363.669,-74.7462 372.204,-73.406"/>
<polygon fill="midnightblue" stroke="midnightblue" points="345.02,-74.1316 335.684,-79.1406 346.106,-81.0469 345.02,-74.1316"/>
</g>
<!-- Node4 -->
<g id="node7" class="node"><title>Node4</title>
<a xlink:href="../../d8/d55/xmpp__parser_8h.html#adf25a1d2047994dfa6cc71a9482548c2" target="_top" xlink:title="xmpp_parser_new">
<polygon fill="none" stroke="black" points="498.5,-76.5 498.5,-95.5 605.5,-95.5 605.5,-76.5 498.5,-76.5"/>
<text text-anchor="middle" x="552" y="-83.5" font-family="DejaVuSansMono" font-size="10.00">xmpp_parser_new</text>
</a>
</g>
<!-- Node3&#45;&gt;Node4 -->
<g id="edge6" class="edge"><title>Node3&#45;&gt;Node4</title>
<path fill="none" stroke="midnightblue" d="M465.724,-74.0865C476.3,-75.564 487.473,-77.1249 498.124,-78.6129"/>
<polygon fill="midnightblue" stroke="midnightblue" points="466.193,-70.618 455.804,-72.7006 465.224,-77.5507 466.193,-70.618"/>
</g>
<!-- Node10 -->
<g id="node19" class="node"><title>Node10</title>
<a xlink:href="../../d8/d55/xmpp__parser_8h.html#af5e1eb5bbef0496c3543bd35113766ac" target="_top" xlink:title="Reset the state of the parser as if it was just created.">
<polygon fill="none" stroke="black" points="492.5,-38.5 492.5,-57.5 611.5,-57.5 611.5,-38.5 492.5,-38.5"/>
<text text-anchor="middle" x="552" y="-45.5" font-family="DejaVuSansMono" font-size="10.00">xmpp_parser_reset</text>
</a>
</g>
<!-- Node3&#45;&gt;Node10 -->
<g id="edge18" class="edge"><title>Node3&#45;&gt;Node10</title>
<path fill="none" stroke="midnightblue" d="M465.767,-59.9076C474.441,-58.6957 483.517,-57.4278 492.376,-56.1902"/>
<polygon fill="midnightblue" stroke="midnightblue" points="465.224,-56.4493 455.804,-61.2994 466.193,-63.382 465.224,-56.4493"/>
</g>
<!-- Node5 -->
<g id="node9" class="node"><title>Node5</title>
<a xlink:href="../../d6/d78/xmp3__multicast_8c.html#a08afc39c59ec9297d756a99c395eff3c" target="_top" xlink:title="multicast_new">
<polygon fill="none" stroke="black" points="660.5,-114.5 660.5,-133.5 755.5,-133.5 755.5,-114.5 660.5,-114.5"/>
<text text-anchor="middle" x="708" y="-121.5" font-family="DejaVuSansMono" font-size="10.00">multicast_new</text>
</a>
</g>
<!-- Node4&#45;&gt;Node5 -->
<g id="edge8" class="edge"><title>Node4&#45;&gt;Node5</title>
<path fill="none" stroke="midnightblue" d="M601.794,-98.04C623.308,-103.349 648.232,-109.499 668.419,-114.48"/>
<polygon fill="midnightblue" stroke="midnightblue" points="602.408,-94.5867 591.861,-95.589 600.731,-101.383 602.408,-94.5867"/>
</g>
<!-- Node6 -->
<g id="node11" class="node"><title>Node6</title>
<a xlink:href="../../d4/d2f/xmpp__client_8h.html#a1619c0b8f58b2cf09a322bf34fbc3414" target="_top" xlink:title="xmpp_client_new">
<polygon fill="none" stroke="black" points="804.5,-76.5 804.5,-95.5 911.5,-95.5 911.5,-76.5 804.5,-76.5"/>
<text text-anchor="middle" x="858" y="-83.5" font-family="DejaVuSansMono" font-size="10.00">xmpp_client_new</text>
</a>
</g>
<!-- Node4&#45;&gt;Node6 -->
<g id="edge10" class="edge"><title>Node4&#45;&gt;Node6</title>
<path fill="none" stroke="midnightblue" d="M615.702,-86C671.384,-86 751.838,-86 804.275,-86"/>
<polygon fill="midnightblue" stroke="midnightblue" points="615.606,-82.5001 605.606,-86 615.606,-89.5001 615.606,-82.5001"/>
</g>
<!-- Node7 -->
<g id="node13" class="node"><title>Node7</title>
<a xlink:href="../../d0/df0/xmpp__server_8c.html#a66363912ef1221a2574f9f99805fe8fd" target="_top" xlink:title="Callback for new client connections.">
<polygon fill="none" stroke="black" points="951.5,-57.5 951.5,-76.5 1052.5,-76.5 1052.5,-57.5 951.5,-57.5"/>
<text text-anchor="middle" x="1002" y="-64.5" font-family="DejaVuSansMono" font-size="10.00">connect_client</text>
</a>
</g>
<!-- Node6&#45;&gt;Node7 -->
<g id="edge12" class="edge"><title>Node6&#45;&gt;Node7</title>
<path fill="none" stroke="midnightblue" d="M922.017,-77.5682C931.851,-76.2523 941.892,-74.9088 951.373,-73.6403"/>
<polygon fill="midnightblue" stroke="midnightblue" points="921.323,-74.1297 911.876,-78.9251 922.251,-81.0679 921.323,-74.1297"/>
</g>
<!-- Node8 -->
<g id="node15" class="node"><title>Node8</title>
<a xlink:href="../../d1/d2e/xmpp__server_8h.html#a27bfc8e4d424a8bc17ab21a4a09cdf92" target="_top" xlink:title="Allocates and initializes the XMPP server.">
<polygon fill="none" stroke="black" points="1092.5,-57.5 1092.5,-76.5 1199.5,-76.5 1199.5,-57.5 1092.5,-57.5"/>
<text text-anchor="middle" x="1146" y="-64.5" font-family="DejaVuSansMono" font-size="10.00">xmpp_server_new</text>
</a>
</g>
<!-- Node7&#45;&gt;Node8 -->
<g id="edge14" class="edge"><title>Node7&#45;&gt;Node8</title>
<path fill="none" stroke="midnightblue" d="M1062.73,-67C1072.53,-67 1082.62,-67 1092.23,-67"/>
<polygon fill="midnightblue" stroke="midnightblue" points="1062.66,-63.5001 1052.66,-67 1062.66,-70.5001 1062.66,-63.5001"/>
</g>
<!-- Node9 -->
<g id="node17" class="node"><title>Node9</title>
<a xlink:href="../../d0/d29/main_8c.html#a0ddf1224851353fc92bfbff6f499fa97" target="_top" xlink:title="main">
<polygon fill="none" stroke="black" points="1236.5,-57.5 1236.5,-76.5 1277.5,-76.5 1277.5,-57.5 1236.5,-57.5"/>
<text text-anchor="middle" x="1257" y="-64.5" font-family="DejaVuSansMono" font-size="10.00">main</text>
</a>
</g>
<!-- Node8&#45;&gt;Node9 -->
<g id="edge16" class="edge"><title>Node8&#45;&gt;Node9</title>
<path fill="none" stroke="midnightblue" d="M1209.75,-67C1219.43,-67 1228.76,-67 1236.47,-67"/>
<polygon fill="midnightblue" stroke="midnightblue" points="1209.58,-63.5001 1199.58,-67 1209.58,-70.5001 1209.58,-63.5001"/>
</g>
<!-- Node11 -->
<g id="node21" class="node"><title>Node11</title>
<a xlink:href="../../d6/d78/xmp3__multicast_8c.html#a9865e8026fb8ee000629fc1da465716d" target="_top" xlink:title="socket_handler">
<polygon fill="none" stroke="black" points="807.5,-0.5 807.5,-19.5 908.5,-19.5 908.5,-0.5 807.5,-0.5"/>
<text text-anchor="middle" x="858" y="-7.5" font-family="DejaVuSansMono" font-size="10.00">socket_handler</text>
</a>
</g>
<!-- Node10&#45;&gt;Node11 -->
<g id="edge20" class="edge"><title>Node10&#45;&gt;Node11</title>
<path fill="none" stroke="midnightblue" d="M606.047,-36.3507C619.671,-33.6455 634.338,-30.9815 648,-29 702.266,-21.1297 764.961,-15.9465 807.419,-13.011"/>
<polygon fill="midnightblue" stroke="midnightblue" points="604.971,-32.9977 595.867,-38.4167 606.363,-39.8578 604.971,-32.9977"/>
</g>
<!-- Node13 -->
<g id="node25" class="node"><title>Node13</title>
<a xlink:href="../../d8/d55/xmpp__parser_8h.html#a578b7a9a50212eb204a86789001287af" target="_top" xlink:title="xmpp_parser_parse">
<polygon fill="none" stroke="black" points="648.5,-38.5 648.5,-57.5 767.5,-57.5 767.5,-38.5 648.5,-38.5"/>
<text text-anchor="middle" x="708" y="-45.5" font-family="DejaVuSansMono" font-size="10.00">xmpp_parser_parse</text>
</a>
</g>
<!-- Node10&#45;&gt;Node13 -->
<g id="edge24" class="edge"><title>Node10&#45;&gt;Node13</title>
<path fill="none" stroke="midnightblue" d="M621.894,-48C630.691,-48 639.631,-48 648.248,-48"/>
<polygon fill="midnightblue" stroke="midnightblue" points="621.66,-44.5001 611.66,-48 621.66,-51.5001 621.66,-44.5001"/>
</g>
<!-- Node12 -->
<g id="node23" class="node"><title>Node12</title>
<a xlink:href="../../d6/d78/xmp3__multicast_8c.html#a991c928ab73b350c4b7029352e91a219" target="_top" xlink:title="multicast_start">
<polygon fill="none" stroke="black" points="948.5,-0.5 948.5,-19.5 1055.5,-19.5 1055.5,-0.5 948.5,-0.5"/>
<text text-anchor="middle" x="1002" y="-7.5" font-family="DejaVuSansMono" font-size="10.00">multicast_start</text>
</a>
</g>
<!-- Node11&#45;&gt;Node12 -->
<g id="edge22" class="edge"><title>Node11&#45;&gt;Node12</title>
<path fill="none" stroke="midnightblue" d="M918.733,-10C928.527,-10 938.615,-10 948.225,-10"/>
<polygon fill="midnightblue" stroke="midnightblue" points="918.665,-6.5001 908.665,-10 918.665,-13.5001 918.665,-6.5001"/>
</g>
<!-- Node13&#45;&gt;Node11 -->
<g id="edge26" class="edge"><title>Node13&#45;&gt;Node11</title>
<path fill="none" stroke="midnightblue" d="M756.173,-35.8879C776.786,-30.5956 800.609,-24.4787 819.922,-19.5201"/>
<polygon fill="midnightblue" stroke="midnightblue" points="755.162,-32.534 746.347,-38.411 756.903,-39.3141 755.162,-32.534"/>
</g>
<!-- Node14 -->
<g id="node28" class="node"><title>Node14</title>
<a xlink:href="../../d0/df0/xmpp__server_8c.html#abece91815ef240322d79073f5bfca1db" target="_top" xlink:title="Callback for new data from a client.">
<polygon fill="none" stroke="black" points="816.5,-38.5 816.5,-57.5 899.5,-57.5 899.5,-38.5 816.5,-38.5"/>
<text text-anchor="middle" x="858" y="-45.5" font-family="DejaVuSansMono" font-size="10.00">read_client</text>
</a>
</g>
<!-- Node13&#45;&gt;Node14 -->
<g id="edge28" class="edge"><title>Node13&#45;&gt;Node14</title>
<path fill="none" stroke="midnightblue" d="M777.939,-48C791.135,-48 804.546,-48 816.483,-48"/>
<polygon fill="midnightblue" stroke="midnightblue" points="777.919,-44.5001 767.919,-48 777.919,-51.5001 777.919,-44.5001"/>
</g>
<!-- Node14&#45;&gt;Node7 -->
<g id="edge30" class="edge"><title>Node14&#45;&gt;Node7</title>
<path fill="none" stroke="midnightblue" d="M909.812,-54.7988C923.367,-56.6125 937.993,-58.5695 951.478,-60.3738"/>
<polygon fill="midnightblue" stroke="midnightblue" points="910.067,-51.3018 899.692,-53.4446 909.139,-58.24 910.067,-51.3018"/>
</g>
<!-- Node15&#45;&gt;Node2 -->
<g id="edge36" class="edge"><title>Node15&#45;&gt;Node2</title>
<path fill="none" stroke="midnightblue" d="M219.183,-59.8734C233.67,-65.2182 250.542,-71.4428 264.183,-76.4754"/>
<polygon fill="midnightblue" stroke="midnightblue" points="220.197,-56.5169 209.604,-56.3393 217.774,-63.0843 220.197,-56.5169"/>
</g>
<!-- Node15&#45;&gt;Node3 -->
<g id="edge34" class="edge"><title>Node15&#45;&gt;Node3</title>
<path fill="none" stroke="midnightblue" d="M220.019,-50.7759C260.342,-54.1659 328.548,-59.9001 372.14,-63.5648"/>
<polygon fill="midnightblue" stroke="midnightblue" points="220.172,-47.2765 209.914,-49.9264 219.585,-54.2519 220.172,-47.2765"/>
</g>
</g>
</svg>
        <g id="navigator" transform="translate(0 0)" fill="#404254">
                <rect fill="#f2f5e9" fill-opacity="0.5" stroke="#606060" stroke-width=".5" x="0" y="0" width="60" height="60"/>
                <use id="zoomplus" xlink:href="#zoomPlus" x="17" y="9" onmousedown="handleZoom(evt,'in')"/>
                <use id="zoomminus" xlink:href="#zoomMin" x="42" y="9" onmousedown="handleZoom(evt,'out')"/>
                <use id="reset" xlink:href="#resetDef" x="30" y="36" onmousedown="handleReset()"/>
                <g id="arrowUp" xlink:href="#dirArrow" transform="translate(30 24)" onmousedown="handlePan(0,-1)">
                  <use xlink:href="#rim" fill="#404040">
                        <set attributeName="fill" to="#808080" begin="arrowUp.mouseover" end="arrowUp.mouseout"/>
                  </use>
                  <path fill="none" stroke="white" stroke-width="1.5" d="M0,-3.0v7 M-2.5,-0.5L0,-3.0L2.5,-0.5"/>
                </g>
                <g id="arrowRight" xlink:href="#dirArrow" transform="rotate(90) translate(36 -43)" onmousedown="handlePan(1,0)">
                  <use xlink:href="#rim" fill="#404040">
                        <set attributeName="fill" to="#808080" begin="arrowRight.mouseover" end="arrowRight.mouseout"/>
                  </use>
                  <path fill="none" stroke="white" stroke-width="1.5" d="M0,-3.0v7 M-2.5,-0.5L0,-3.0L2.5,-0.5"/>
                </g>
                <g id="arrowDown" xlink:href="#dirArrow" transform="rotate(180) translate(-30 -48)" onmousedown="handlePan(0,1)">
                  <use xlink:href="#rim" fill="#404040">
                        <set attributeName="fill" to="#808080" begin="arrowDown.mouseover" end="arrowDown.mouseout"/>
                  </use>
                  <path fill="none" stroke="white" stroke-width="1.5" d="M0,-3.0v7 M-2.5,-0.5L0,-3.0L2.5,-0.5"/>
                </g>
                <g id="arrowLeft" xlink:href="#dirArrow" transform="rotate(270) translate(-36 17)" onmousedown="handlePan(-1,0)">
                  <use xlink:href="#rim" fill="#404040">
                        <set attributeName="fill" to="#808080" begin="arrowLeft.mouseover" end="arrowLeft.mouseout"/>
                  </use>
                  <path fill="none" stroke="white" stroke-width="1.5" d="M0,-3.0v7 M-2.5,-0.5L0,-3.0L2.5,-0.5"/>
                </g>
        </g>
        <svg viewBox="0 0 25 25" width="100%" height="30px" preserveAspectRatio="xMaxYMin meet"> 
          <g id="printButton" transform="scale(0.4 0.4)" onmousedown="handlePrint(evt)">
            <rect height="23.33753581" id="paper" rx="2" style="fill:#f2f5e9;fill-rule:evenodd;stroke:#111111;stroke-width:3.224;stroke-linejoin:round;" transform="matrix(1.000000,0.000000,-0.339266,0.940691,0.000000,0.000000)" width="25.55231285" x="26.69387353" y="7.36162977"/>
            <rect height="26.272097" id="body" rx="2" style="fill:#404040;fill-rule:evenodd;stroke:#111111;stroke-width:3.125;stroke-linejoin:round;" width="50" x="4.5295201" y="27.078951"/>
            <rect height="8.27750969" id="tray" style="fill:#d2d5c9;fill-rule:evenodd;stroke:#111111;stroke-width:3.125;stroke-linecap:round;stroke-linejoin:round;" width="40" x="10.28778839" y="44.96812282"/>
          </g>
        </svg>
</svg>
