<?xml version="1.0" encoding="UTF-8" standalone="no"?>
<!DOCTYPE svg PUBLIC "-//W3C//DTD SVG 1.1//EN"
 "http://www.w3.org/Graphics/SVG/1.1/DTD/svg11.dtd">
<!-- Generated by graphviz version 2.28.0 (20120217.0315)
 -->
<!-- Title: G Pages: 1 -->
<!--zoomable 47 -->
<svg id="main" version="1.1" xmlns="http://www.w3.org/2000/svg" xmlns:xlink="http://www.w3.org/1999/xlink" xml:space="preserve" onload="init(evt)">
        <defs>
                <circle id="rim" cx="0" cy="0" r="7"/>
                <circle id="rim2" cx="0" cy="0" r="3.5"/>
                <g id="zoomPlus">
                        <use xlink:href="#rim" fill="#404040">
                                <set attributeName="fill" to="#808080" begin="zoomplus.mouseover" end="zoomplus.mouseout"/>
                        </use>
                        <path d="M-4,0h8M0,-4v8" fill="none" stroke="white" stroke-width="1.5" pointer-events="none"/>
                </g>
                <g id="zoomMin">
                        <use xlink:href="#rim" fill="#404040">
                                <set attributeName="fill" to="#808080" begin="zoomminus.mouseover" end="zoomminus.mouseout"/>
                        </use>
                        <path d="M-4,0h8" fill="none" stroke="white" stroke-width="1.5" pointer-events="none"/>
                </g>
                <g id="dirArrow">
                        <path fill="none" stroke="white" stroke-width="1.5" d="M0,-3.0v7 M-2.5,-0.5L0,-3.0L2.5,-0.5"/>
                </g>
               <g id="resetDef">
                       <use xlink:href="#rim2" fill="#404040">
                               <set attributeName="fill" to="#808080" begin="reset.mouseover" end="reset.mouseout"/>
                       </use>
               </g>
        </defs>

<script type="text/javascript">
var viewWidth = 1604;
var viewHeight = 47;
var sectionId = 'dynsection-19';
</script>
<script xlink:href="../../svgpan.js"/>
<svg id="graph" class="graph">
<g id="viewport">
<title>G</title>
<!-- Node1 -->
<g id="node1" class="node"><title>Node1</title>
<polygon fill="#bfbfbf" stroke="black" points="0.5,-19.5 0.5,-38.5 155.5,-38.5 155.5,-19.5 0.5,-19.5"/>
<text text-anchor="middle" x="78" y="-26.5" font-family="DejaVuSansMono" font-size="10.00">xmpp_stanza_data_length</text>
</g>
<!-- Node2 -->
<g id="node3" class="node"><title>Node2</title>
<a xlink:href="../../df/da9/xmpp__auth_8c.html#afb770a216868aa3fb43813b19d2a0115" target="_top" xlink:title="Begins SASL PLAIN authentication.">
<polygon fill="none" stroke="black" points="486.5,-19.5 486.5,-38.5 605.5,-38.5 605.5,-19.5 486.5,-19.5"/>
<text text-anchor="middle" x="546" y="-26.5" font-family="DejaVuSansMono" font-size="10.00">handle_sasl_plain</text>
</a>
</g>
<!-- Node1&#45;&gt;Node2 -->
<g id="edge2" class="edge"><title>Node1&#45;&gt;Node2</title>
<path fill="none" stroke="midnightblue" d="M165.693,-29C259.188,-29 405.47,-29 486.331,-29"/>
<polygon fill="midnightblue" stroke="midnightblue" points="165.689,-25.5001 155.689,-29 165.689,-32.5001 165.689,-25.5001"/>
</g>
<!-- Node10 -->
<g id="node20" class="node"><title>Node10</title>
<a xlink:href="../../df/da9/xmpp__auth_8c.html#a603b4a63af3c4e4af99442805fe89ae8" target="_top" xlink:title="Step 15: Client binds a resource.">
<polygon fill="none" stroke="black" points="192.5,-0.5 192.5,-19.5 293.5,-19.5 293.5,-0.5 192.5,-0.5"/>
<text text-anchor="middle" x="243" y="-7.5" font-family="DejaVuSansMono" font-size="10.00">handle_bind_iq</text>
</a>
</g>
<!-- Node1&#45;&gt;Node10 -->
<g id="edge20" class="edge"><title>Node1&#45;&gt;Node10</title>
<path fill="none" stroke="midnightblue" d="M165.897,-18.8709C174.892,-17.8224 183.799,-16.7841 192.178,-15.8075"/>
<polygon fill="midnightblue" stroke="midnightblue" points="165.255,-15.422 155.727,-20.0564 166.065,-22.3749 165.255,-15.422"/>
</g>
<!-- Node3 -->
<g id="node5" class="node"><title>Node3</title>
<a xlink:href="../../d3/d24/xmpp__auth_8h.html#ad3efd9ab093646bdfd8832c34ae2de4d" target="_top" xlink:title="Handler for the inital stream start to begin authentication.">
<polygon fill="none" stroke="black" points="942.5,-19.5 942.5,-38.5 1091.5,-38.5 1091.5,-19.5 942.5,-19.5"/>
<text text-anchor="middle" x="1017" y="-26.5" font-family="DejaVuSansMono" font-size="10.00">xmpp_auth_stream_start</text>
</a>
</g>
<!-- Node2&#45;&gt;Node3 -->
<g id="edge4" class="edge"><title>Node2&#45;&gt;Node3</title>
<path fill="none" stroke="midnightblue" d="M615.987,-29C703.236,-29 852.847,-29 942.283,-29"/>
<polygon fill="midnightblue" stroke="midnightblue" points="615.924,-25.5001 605.924,-29 615.924,-32.5001 615.924,-25.5001"/>
</g>
<!-- Node8 -->
<g id="node15" class="node"><title>Node8</title>
<a xlink:href="../../df/da9/xmpp__auth_8c.html#afd7b12689591d40109a88ad108b5c3a2" target="_top" xlink:title="stream_sasl_start">
<polygon fill="none" stroke="black" points="642.5,-0.5 642.5,-19.5 761.5,-19.5 761.5,-0.5 642.5,-0.5"/>
<text text-anchor="middle" x="702" y="-7.5" font-family="DejaVuSansMono" font-size="10.00">stream_sasl_start</text>
</a>
</g>
<!-- Node2&#45;&gt;Node8 -->
<g id="edge14" class="edge"><title>Node2&#45;&gt;Node8</title>
<path fill="none" stroke="midnightblue" d="M615.607,-20.5355C624.497,-19.4387 633.538,-18.3233 642.248,-17.2486"/>
<polygon fill="midnightblue" stroke="midnightblue" points="615.156,-17.0645 605.66,-21.7627 616.013,-24.0118 615.156,-17.0645"/>
</g>
<!-- Node4 -->
<g id="node7" class="node"><title>Node4</title>
<a xlink:href="../../d4/d2f/xmpp__client_8h.html#a1619c0b8f58b2cf09a322bf34fbc3414" target="_top" xlink:title="xmpp_client_new">
<polygon fill="none" stroke="black" points="1128.5,-19.5 1128.5,-38.5 1235.5,-38.5 1235.5,-19.5 1128.5,-19.5"/>
<text text-anchor="middle" x="1182" y="-26.5" font-family="DejaVuSansMono" font-size="10.00">xmpp_client_new</text>
</a>
</g>
<!-- Node3&#45;&gt;Node4 -->
<g id="edge6" class="edge"><title>Node3&#45;&gt;Node4</title>
<path fill="none" stroke="midnightblue" d="M1101.99,-29C1110.95,-29 1119.88,-29 1128.33,-29"/>
<polygon fill="midnightblue" stroke="midnightblue" points="1101.87,-25.5001 1091.87,-29 1101.87,-32.5001 1101.87,-25.5001"/>
</g>
<!-- Node5 -->
<g id="node9" class="node"><title>Node5</title>
<a xlink:href="../../d0/df0/xmpp__server_8c.html#a66363912ef1221a2574f9f99805fe8fd" target="_top" xlink:title="Callback for new client connections.">
<polygon fill="none" stroke="black" points="1272.5,-19.5 1272.5,-38.5 1373.5,-38.5 1373.5,-19.5 1272.5,-19.5"/>
<text text-anchor="middle" x="1323" y="-26.5" font-family="DejaVuSansMono" font-size="10.00">connect_client</text>
</a>
</g>
<!-- Node4&#45;&gt;Node5 -->
<g id="edge8" class="edge"><title>Node4&#45;&gt;Node5</title>
<path fill="none" stroke="midnightblue" d="M1245.8,-29C1254.63,-29 1263.59,-29 1272.13,-29"/>
<polygon fill="midnightblue" stroke="midnightblue" points="1245.55,-25.5001 1235.55,-29 1245.55,-32.5001 1245.55,-25.5001"/>
</g>
<!-- Node6 -->
<g id="node11" class="node"><title>Node6</title>
<a xlink:href="../../d1/d2e/xmpp__server_8h.html#a27bfc8e4d424a8bc17ab21a4a09cdf92" target="_top" xlink:title="Allocates and initializes the XMPP server.">
<polygon fill="none" stroke="black" points="1410.5,-19.5 1410.5,-38.5 1517.5,-38.5 1517.5,-19.5 1410.5,-19.5"/>
<text text-anchor="middle" x="1464" y="-26.5" font-family="DejaVuSansMono" font-size="10.00">xmpp_server_new</text>
</a>
</g>
<!-- Node5&#45;&gt;Node6 -->
<g id="edge10" class="edge"><title>Node5&#45;&gt;Node6</title>
<path fill="none" stroke="midnightblue" d="M1383.94,-29C1392.7,-29 1401.67,-29 1410.27,-29"/>
<polygon fill="midnightblue" stroke="midnightblue" points="1383.79,-25.5001 1373.79,-29 1383.79,-32.5001 1383.79,-25.5001"/>
</g>
<!-- Node7 -->
<g id="node13" class="node"><title>Node7</title>
<a xlink:href="../../d0/d29/main_8c.html#a0ddf1224851353fc92bfbff6f499fa97" target="_top" xlink:title="main">
<polygon fill="none" stroke="black" points="1554.5,-19.5 1554.5,-38.5 1595.5,-38.5 1595.5,-19.5 1554.5,-19.5"/>
<text text-anchor="middle" x="1575" y="-26.5" font-family="DejaVuSansMono" font-size="10.00">main</text>
</a>
</g>
<!-- Node6&#45;&gt;Node7 -->
<g id="edge12" class="edge"><title>Node6&#45;&gt;Node7</title>
<path fill="none" stroke="midnightblue" d="M1527.75,-29C1537.43,-29 1546.76,-29 1554.47,-29"/>
<polygon fill="midnightblue" stroke="midnightblue" points="1527.58,-25.5001 1517.58,-29 1527.58,-32.5001 1527.58,-25.5001"/>
</g>
<!-- Node9 -->
<g id="node17" class="node"><title>Node9</title>
<a xlink:href="../../df/da9/xmpp__auth_8c.html#a8dd789e057b9812e4dd1aa524dfb6a65" target="_top" xlink:title="Begins TLS authentication.">
<polygon fill="none" stroke="black" points="798.5,-0.5 798.5,-19.5 905.5,-19.5 905.5,-0.5 798.5,-0.5"/>
<text text-anchor="middle" x="852" y="-7.5" font-family="DejaVuSansMono" font-size="10.00">handle_starttls</text>
</a>
</g>
<!-- Node8&#45;&gt;Node9 -->
<g id="edge16" class="edge"><title>Node8&#45;&gt;Node9</title>
<path fill="none" stroke="midnightblue" d="M772.085,-10C780.806,-10 789.619,-10 798.036,-10"/>
<polygon fill="midnightblue" stroke="midnightblue" points="771.919,-6.5001 761.919,-10 771.919,-13.5001 771.919,-6.5001"/>
</g>
<!-- Node9&#45;&gt;Node3 -->
<g id="edge18" class="edge"><title>Node9&#45;&gt;Node3</title>
<path fill="none" stroke="midnightblue" d="M915.911,-17.3332C924.558,-18.3411 933.499,-19.3833 942.317,-20.4112"/>
<polygon fill="midnightblue" stroke="midnightblue" points="916.259,-13.8502 905.921,-16.1688 915.449,-20.8031 916.259,-13.8502"/>
</g>
<!-- Node11 -->
<g id="node22" class="node"><title>Node11</title>
<a xlink:href="../../df/da9/xmpp__auth_8c.html#a01804bd53eccc182ce76337fc0863e8d" target="_top" xlink:title="stream_bind_start">
<polygon fill="none" stroke="black" points="330.5,-0.5 330.5,-19.5 449.5,-19.5 449.5,-0.5 330.5,-0.5"/>
<text text-anchor="middle" x="390" y="-7.5" font-family="DejaVuSansMono" font-size="10.00">stream_bind_start</text>
</a>
</g>
<!-- Node10&#45;&gt;Node11 -->
<g id="edge22" class="edge"><title>Node10&#45;&gt;Node11</title>
<path fill="none" stroke="midnightblue" d="M303.961,-10C312.655,-10 321.597,-10 330.266,-10"/>
<polygon fill="midnightblue" stroke="midnightblue" points="303.901,-6.5001 293.901,-10 303.901,-13.5001 303.901,-6.5001"/>
</g>
<!-- Node11&#45;&gt;Node2 -->
<g id="edge24" class="edge"><title>Node11&#45;&gt;Node2</title>
<path fill="none" stroke="midnightblue" d="M459.607,-18.4645C468.497,-19.5613 477.538,-20.6767 486.248,-21.7514"/>
<polygon fill="midnightblue" stroke="midnightblue" points="460.013,-14.9882 449.66,-17.2373 459.156,-21.9355 460.013,-14.9882"/>
</g>
</g>
</svg>
        <g id="navigator" transform="translate(0 0)" fill="#404254">
                <rect fill="#f2f5e9" fill-opacity="0.5" stroke="#606060" stroke-width=".5" x="0" y="0" width="60" height="60"/>
                <use id="zoomplus" xlink:href="#zoomPlus" x="17" y="9" onmousedown="handleZoom(evt,'in')"/>
                <use id="zoomminus" xlink:href="#zoomMin" x="42" y="9" onmousedown="handleZoom(evt,'out')"/>
                <use id="reset" xlink:href="#resetDef" x="30" y="36" onmousedown="handleReset()"/>
                <g id="arrowUp" xlink:href="#dirArrow" transform="translate(30 24)" onmousedown="handlePan(0,-1)">
                  <use xlink:href="#rim" fill="#404040">
                        <set attributeName="fill" to="#808080" begin="arrowUp.mouseover" end="arrowUp.mouseout"/>
                  </use>
                  <path fill="none" stroke="white" stroke-width="1.5" d="M0,-3.0v7 M-2.5,-0.5L0,-3.0L2.5,-0.5"/>
                </g>
                <g id="arrowRight" xlink:href="#dirArrow" transform="rotate(90) translate(36 -43)" onmousedown="handlePan(1,0)">
                  <use xlink:href="#rim" fill="#404040">
                        <set attributeName="fill" to="#808080" begin="arrowRight.mouseover" end="arrowRight.mouseout"/>
                  </use>
                  <path fill="none" stroke="white" stroke-width="1.5" d="M0,-3.0v7 M-2.5,-0.5L0,-3.0L2.5,-0.5"/>
                </g>
                <g id="arrowDown" xlink:href="#dirArrow" transform="rotate(180) translate(-30 -48)" onmousedown="handlePan(0,1)">
                  <use xlink:href="#rim" fill="#404040">
                        <set attributeName="fill" to="#808080" begin="arrowDown.mouseover" end="arrowDown.mouseout"/>
                  </use>
                  <path fill="none" stroke="white" stroke-width="1.5" d="M0,-3.0v7 M-2.5,-0.5L0,-3.0L2.5,-0.5"/>
                </g>
                <g id="arrowLeft" xlink:href="#dirArrow" transform="rotate(270) translate(-36 17)" onmousedown="handlePan(-1,0)">
                  <use xlink:href="#rim" fill="#404040">
                        <set attributeName="fill" to="#808080" begin="arrowLeft.mouseover" end="arrowLeft.mouseout"/>
                  </use>
                  <path fill="none" stroke="white" stroke-width="1.5" d="M0,-3.0v7 M-2.5,-0.5L0,-3.0L2.5,-0.5"/>
                </g>
        </g>
        <svg viewBox="0 0 25 25" width="100%" height="30px" preserveAspectRatio="xMaxYMin meet"> 
          <g id="printButton" transform="scale(0.4 0.4)" onmousedown="handlePrint(evt)">
            <rect height="23.33753581" id="paper" rx="2" style="fill:#f2f5e9;fill-rule:evenodd;stroke:#111111;stroke-width:3.224;stroke-linejoin:round;" transform="matrix(1.000000,0.000000,-0.339266,0.940691,0.000000,0.000000)" width="25.55231285" x="26.69387353" y="7.36162977"/>
            <rect height="26.272097" id="body" rx="2" style="fill:#404040;fill-rule:evenodd;stroke:#111111;stroke-width:3.125;stroke-linejoin:round;" width="50" x="4.5295201" y="27.078951"/>
            <rect height="8.27750969" id="tray" style="fill:#d2d5c9;fill-rule:evenodd;stroke:#111111;stroke-width:3.125;stroke-linecap:round;stroke-linejoin:round;" width="40" x="10.28778839" y="44.96812282"/>
          </g>
        </svg>
</svg>
