<?xml version="1.0" encoding="UTF-8" standalone="no"?>
<!DOCTYPE svg PUBLIC "-//W3C//DTD SVG 1.1//EN"
 "http://www.w3.org/Graphics/SVG/1.1/DTD/svg11.dtd">
<!-- Generated by graphviz version 2.28.0 (20120217.0315)
 -->
<!-- Title: G Pages: 1 -->
<!--zoomable 524 -->
<svg id="main" version="1.1" xmlns="http://www.w3.org/2000/svg" xmlns:xlink="http://www.w3.org/1999/xlink" xml:space="preserve" onload="init(evt)">
        <defs>
                <circle id="rim" cx="0" cy="0" r="7"/>
                <circle id="rim2" cx="0" cy="0" r="3.5"/>
                <g id="zoomPlus">
                        <use xlink:href="#rim" fill="#404040">
                                <set attributeName="fill" to="#808080" begin="zoomplus.mouseover" end="zoomplus.mouseout"/>
                        </use>
                        <path d="M-4,0h8M0,-4v8" fill="none" stroke="white" stroke-width="1.5" pointer-events="none"/>
                </g>
                <g id="zoomMin">
                        <use xlink:href="#rim" fill="#404040">
                                <set attributeName="fill" to="#808080" begin="zoomminus.mouseover" end="zoomminus.mouseout"/>
                        </use>
                        <path d="M-4,0h8" fill="none" stroke="white" stroke-width="1.5" pointer-events="none"/>
                </g>
                <g id="dirArrow">
                        <path fill="none" stroke="white" stroke-width="1.5" d="M0,-3.0v7 M-2.5,-0.5L0,-3.0L2.5,-0.5"/>
                </g>
               <g id="resetDef">
                       <use xlink:href="#rim2" fill="#404040">
                               <set attributeName="fill" to="#808080" begin="reset.mouseover" end="reset.mouseout"/>
                       </use>
               </g>
        </defs>

<script type="text/javascript">
var viewWidth = 1508;
var viewHeight = 524;
var sectionId = 'dynsection-21';
</script>
<script xlink:href="../../svgpan.js"/>
<svg id="graph" class="graph">
<g id="viewport">
<title>G</title>
<!-- Node1 -->
<g id="node1" class="node"><title>Node1</title>
<polygon fill="#bfbfbf" stroke="black" points="0.5,-250.5 0.5,-269.5 107.5,-269.5 107.5,-250.5 0.5,-250.5"/>
<text text-anchor="middle" x="54" y="-257.5" font-family="DejaVuSansMono" font-size="10.00">xmpp_stanza_del</text>
</g>
<!-- Node2 -->
<g id="node3" class="node"><title>Node2</title>
<a xlink:href="../../d7/d71/xep__muc_8c.html#af88baacca4f1cccf8ec2bc295db0e063" target="_top" xlink:title="leave_room">
<polygon fill="none" stroke="black" points="330.5,-335.5 330.5,-354.5 407.5,-354.5 407.5,-335.5 330.5,-335.5"/>
<text text-anchor="middle" x="369" y="-342.5" font-family="DejaVuSansMono" font-size="10.00">leave_room</text>
</a>
</g>
<!-- Node1&#45;&gt;Node2 -->
<g id="edge2" class="edge"><title>Node1&#45;&gt;Node2</title>
<path fill="none" stroke="midnightblue" d="M74.6371,-275.898C91.8519,-288.93 118.107,-306.689 144,-316 206.731,-338.557 284.926,-343.944 330.385,-345.017"/>
<polygon fill="midnightblue" stroke="midnightblue" points="76.5531,-272.954 66.5087,-269.584 72.2588,-278.482 76.5531,-272.954"/>
</g>
<!-- Node10 -->
<g id="node20" class="node"><title>Node10</title>
<a xlink:href="../../d7/d71/xep__muc_8c.html#a4b26d057ea25fe1b3c99edff73a82d78" target="_top" xlink:title="handle_items_query">
<polygon fill="none" stroke="black" points="306.5,-458.5 306.5,-477.5 431.5,-477.5 431.5,-458.5 306.5,-458.5"/>
<text text-anchor="middle" x="369" y="-465.5" font-family="DejaVuSansMono" font-size="10.00">handle_items_query</text>
</a>
</g>
<!-- Node1&#45;&gt;Node10 -->
<g id="edge20" class="edge"><title>Node1&#45;&gt;Node10</title>
<path fill="none" stroke="midnightblue" d="M61.4421,-279.347C72.9347,-310.87 99.9813,-373.182 144,-407 190.984,-443.096 257.868,-457.851 306.307,-463.873"/>
<polygon fill="midnightblue" stroke="midnightblue" points="64.6302,-277.861 58.0234,-269.579 58.0232,-280.173 64.6302,-277.861"/>
</g>
<!-- Node12 -->
<g id="node25" class="node"><title>Node12</title>
<a xlink:href="../../d7/d71/xep__muc_8c.html#a20d9ff75edcc76b952adf38d558fee26" target="_top" xlink:title="handle_info_query">
<polygon fill="none" stroke="black" points="309.5,-496.5 309.5,-515.5 428.5,-515.5 428.5,-496.5 309.5,-496.5"/>
<text text-anchor="middle" x="369" y="-503.5" font-family="DejaVuSansMono" font-size="10.00">handle_info_query</text>
</a>
</g>
<!-- Node1&#45;&gt;Node12 -->
<g id="edge26" class="edge"><title>Node1&#45;&gt;Node12</title>
<path fill="none" stroke="midnightblue" d="M59.0967,-279.726C67.8983,-317.153 92.1649,-398.685 144,-443 190.366,-482.639 259.968,-497.435 309.263,-502.904"/>
<polygon fill="midnightblue" stroke="midnightblue" points="62.4359,-278.618 56.8483,-269.616 55.6028,-280.137 62.4359,-278.618"/>
</g>
<!-- Node13 -->
<g id="node28" class="node"><title>Node13</title>
<a xlink:href="../../d7/d71/xep__muc_8c.html#a8333f88612fa054ae107699f5bb548cc" target="_top" xlink:title="send_nickname_conflict">
<polygon fill="none" stroke="black" points="294.5,-382.5 294.5,-401.5 443.5,-401.5 443.5,-382.5 294.5,-382.5"/>
<text text-anchor="middle" x="369" y="-389.5" font-family="DejaVuSansMono" font-size="10.00">send_nickname_conflict</text>
</a>
</g>
<!-- Node1&#45;&gt;Node13 -->
<g id="edge30" class="edge"><title>Node1&#45;&gt;Node13</title>
<path fill="none" stroke="midnightblue" d="M69.2271,-277.461C85.3818,-296.092 113.484,-325.07 144,-341 190.759,-365.41 248.987,-378.21 294.355,-384.881"/>
<polygon fill="midnightblue" stroke="midnightblue" points="71.8075,-275.092 62.6797,-269.712 66.4608,-279.61 71.8075,-275.092"/>
</g>
<!-- Node14 -->
<g id="node31" class="node"><title>Node14</title>
<a xlink:href="../../d7/d71/xep__muc_8c.html#a115281f539cd77f88872ff153ec5b38d" target="_top" xlink:title="send_presence_broadcast">
<polygon fill="none" stroke="black" points="291.5,-420.5 291.5,-439.5 446.5,-439.5 446.5,-420.5 291.5,-420.5"/>
<text text-anchor="middle" x="369" y="-427.5" font-family="DejaVuSansMono" font-size="10.00">send_presence_broadcast</text>
</a>
</g>
<!-- Node1&#45;&gt;Node14 -->
<g id="edge34" class="edge"><title>Node1&#45;&gt;Node14</title>
<path fill="none" stroke="midnightblue" d="M64.8083,-278.698C78.929,-303.766 107.366,-347.898 144,-372 187.963,-400.923 245.589,-415.433 291.382,-422.707"/>
<polygon fill="midnightblue" stroke="midnightblue" points="67.8213,-276.913 59.9561,-269.814 61.678,-280.268 67.8213,-276.913"/>
</g>
<!-- Node15 -->
<g id="node34" class="node"><title>Node15</title>
<a xlink:href="../../d9/dd7/xmpp__im_8h.html#aee8f65a08bdaf68accfdcee40ed1488d" target="_top" xlink:title="IQ stanza callback for handling a session IQ.">
<polygon fill="none" stroke="black" points="306.5,-98.5 306.5,-117.5 431.5,-117.5 431.5,-98.5 306.5,-98.5"/>
<text text-anchor="middle" x="369" y="-105.5" font-family="DejaVuSansMono" font-size="10.00">xmpp_im_iq_session</text>
</a>
</g>
<!-- Node1&#45;&gt;Node15 -->
<g id="edge38" class="edge"><title>Node1&#45;&gt;Node15</title>
<path fill="none" stroke="midnightblue" d="M67.074,-242.111C82.4357,-220.754 110.974,-185.486 144,-166 194.167,-136.401 259.367,-121.725 306.476,-114.562"/>
<polygon fill="midnightblue" stroke="midnightblue" points="64.1909,-240.126 61.3224,-250.325 69.9251,-244.141 64.1909,-240.126"/>
</g>
<!-- Node18 -->
<g id="node40" class="node"><title>Node18</title>
<a xlink:href="../../d9/dd7/xmpp__im_8h.html#a7542fa668dcf982bb5d3725c5cacb0ca" target="_top" xlink:title="IQ stanza callback for handling a disco items query.">
<polygon fill="none" stroke="black" points="294.5,-60.5 294.5,-79.5 443.5,-79.5 443.5,-60.5 294.5,-60.5"/>
<text text-anchor="middle" x="369" y="-67.5" font-family="DejaVuSansMono" font-size="10.00">xmpp_im_iq_disco_items</text>
</a>
</g>
<!-- Node1&#45;&gt;Node18 -->
<g id="edge44" class="edge"><title>Node1&#45;&gt;Node18</title>
<path fill="none" stroke="midnightblue" d="M61.6997,-240.971C73.4139,-210.604 100.588,-151.508 144,-121 187.972,-90.0988 247.715,-77.5981 294.443,-72.6887"/>
<polygon fill="midnightblue" stroke="midnightblue" points="58.3912,-239.827 58.1998,-250.421 64.9553,-242.259 58.3912,-239.827"/>
</g>
<!-- Node19 -->
<g id="node43" class="node"><title>Node19</title>
<a xlink:href="../../d9/dd7/xmpp__im_8h.html#a93be77ae71bc544a1c23fae07f39fd23" target="_top" xlink:title="IQ stanza callback for handling a disco info query.">
<polygon fill="none" stroke="black" points="297.5,-22.5 297.5,-41.5 440.5,-41.5 440.5,-22.5 297.5,-22.5"/>
<text text-anchor="middle" x="369" y="-29.5" font-family="DejaVuSansMono" font-size="10.00">xmpp_im_iq_disco_info</text>
</a>
</g>
<!-- Node1&#45;&gt;Node19 -->
<g id="edge48" class="edge"><title>Node1&#45;&gt;Node19</title>
<path fill="none" stroke="midnightblue" d="M58.3976,-240.582C66.1677,-202.345 88.99,-117.344 144,-75 187.538,-41.4859 249.683,-31.6691 297.476,-29.707"/>
<polygon fill="midnightblue" stroke="midnightblue" points="54.9505,-239.974 56.5201,-250.452 61.8272,-241.282 54.9505,-239.974"/>
</g>
<!-- Node20 -->
<g id="node46" class="node"><title>Node20</title>
<a xlink:href="../../dc/da6/xmpp__im_8c.html#af5cf3adac08463b9b6029c8814e4f972" target="_top" xlink:title="get_roster">
<polygon fill="none" stroke="black" points="330.5,-294.5 330.5,-313.5 407.5,-313.5 407.5,-294.5 330.5,-294.5"/>
<text text-anchor="middle" x="369" y="-301.5" font-family="DejaVuSansMono" font-size="10.00">get_roster</text>
</a>
</g>
<!-- Node1&#45;&gt;Node20 -->
<g id="edge52" class="edge"><title>Node1&#45;&gt;Node20</title>
<path fill="none" stroke="midnightblue" d="M82.1874,-274.338C99.3944,-282.636 122.396,-292.336 144,-297 208.274,-310.875 285.307,-309.482 330.242,-306.932"/>
<polygon fill="midnightblue" stroke="midnightblue" points="83.2929,-270.979 72.7802,-269.662 80.1775,-277.247 83.2929,-270.979"/>
</g>
<!-- Node22 -->
<g id="node51" class="node"><title>Node22</title>
<a xlink:href="../../d1/dc2/xmpp__parser_8c.html#a2268b636f6d02bbe04f3033ff93d829c" target="_top" xlink:title="Expat callback for the start of an XMPP stream.">
<polygon fill="none" stroke="black" points="324.5,-176.5 324.5,-195.5 413.5,-195.5 413.5,-176.5 324.5,-176.5"/>
<text text-anchor="middle" x="369" y="-183.5" font-family="DejaVuSansMono" font-size="10.00">stream_start</text>
</a>
</g>
<!-- Node1&#45;&gt;Node22 -->
<g id="edge58" class="edge"><title>Node1&#45;&gt;Node22</title>
<path fill="none" stroke="midnightblue" d="M93.8612,-247.402C109.372,-242.586 127.448,-237.239 144,-233 206.167,-217.081 279.045,-202.542 324.378,-193.977"/>
<polygon fill="midnightblue" stroke="midnightblue" points="92.5727,-244.138 84.0804,-250.473 94.6696,-250.817 92.5727,-244.138"/>
</g>
<!-- Node33 -->
<g id="node76" class="node"><title>Node33</title>
<a xlink:href="../../d1/dc2/xmpp__parser_8c.html#adc3f7670edafd5b590af11d276887f1e" target="_top" xlink:title="Expat callback for end elements.">
<polygon fill="none" stroke="black" points="351.5,-138.5 351.5,-157.5 386.5,-157.5 386.5,-138.5 351.5,-138.5"/>
<text text-anchor="middle" x="369" y="-145.5" font-family="DejaVuSansMono" font-size="10.00">end</text>
</a>
</g>
<!-- Node1&#45;&gt;Node33 -->
<g id="edge86" class="edge"><title>Node1&#45;&gt;Node33</title>
<path fill="none" stroke="midnightblue" d="M76.2082,-244.39C93.6512,-232.182 119.414,-215.562 144,-205 217.924,-173.241 313.456,-156.265 351.404,-150.397"/>
<polygon fill="midnightblue" stroke="midnightblue" points="74.0063,-241.661 67.8952,-250.316 78.0697,-247.361 74.0063,-241.661"/>
</g>
<!-- Node34 -->
<g id="node79" class="node"><title>Node34</title>
<a xlink:href="../../d0/df0/xmpp__server_8c.html#a3b400cb24e5bc51623f63c96c8a0a342" target="_top" xlink:title="Sends a &lt;service&#45;unavailable&gt; error stanza to a client.">
<polygon fill="none" stroke="black" points="288.5,-250.5 288.5,-269.5 449.5,-269.5 449.5,-250.5 288.5,-250.5"/>
<text text-anchor="middle" x="369" y="-257.5" font-family="DejaVuSansMono" font-size="10.00">send_service_unavailable</text>
</a>
</g>
<!-- Node1&#45;&gt;Node34 -->
<g id="edge90" class="edge"><title>Node1&#45;&gt;Node34</title>
<path fill="none" stroke="midnightblue" d="M101.241,-248.202C114.914,-245.238 129.977,-242.48 144,-241 191.735,-235.961 204.158,-237.108 252,-241 274.781,-242.853 299.832,-246.722 320.806,-250.487"/>
<polygon fill="midnightblue" stroke="midnightblue" points="100.08,-244.876 91.0962,-250.491 101.621,-251.704 100.08,-244.876"/>
</g>
<!-- Node37 -->
<g id="node86" class="node"><title>Node37</title>
<a xlink:href="../../dd/d21/xmpp__stanza_8h.html#af40757ae1d137034570b1bb33303d024" target="_top" xlink:title="Cleans up and frees an XMPP stanza.">
<polygon fill="none" stroke="black" points="144.5,-250.5 144.5,-269.5 251.5,-269.5 251.5,-250.5 144.5,-250.5"/>
<text text-anchor="middle" x="198" y="-257.5" font-family="DejaVuSansMono" font-size="10.00">xmpp_stanza_del</text>
</a>
</g>
<!-- Node1&#45;&gt;Node37 -->
<g id="edge98" class="edge"><title>Node1&#45;&gt;Node37</title>
<path fill="none" stroke="midnightblue" d="M117.994,-260C126.704,-260 135.578,-260 144.08,-260"/>
<polygon fill="midnightblue" stroke="midnightblue" points="117.876,-256.5 107.876,-260 117.876,-263.5 117.876,-256.5"/>
</g>
<!-- Node3 -->
<g id="node5" class="node"><title>Node3</title>
<a xlink:href="../../d7/d71/xep__muc_8c.html#a40cdc65e1b60c76aef97dfc9d3f2510f" target="_top" xlink:title="leave_room_presence">
<polygon fill="none" stroke="black" points="660.5,-351.5 660.5,-370.5 791.5,-370.5 791.5,-351.5 660.5,-351.5"/>
<text text-anchor="middle" x="726" y="-358.5" font-family="DejaVuSansMono" font-size="10.00">leave_room_presence</text>
</a>
</g>
<!-- Node2&#45;&gt;Node3 -->
<g id="edge4" class="edge"><title>Node2&#45;&gt;Node3</title>
<path fill="none" stroke="midnightblue" d="M418.028,-347.165C480.614,-349.985 590.291,-354.929 660.198,-358.079"/>
<polygon fill="midnightblue" stroke="midnightblue" points="417.803,-343.651 407.655,-346.697 417.487,-350.644 417.803,-343.651"/>
</g>
<!-- Node8 -->
<g id="node15" class="node"><title>Node8</title>
<a xlink:href="../../d7/d71/xep__muc_8c.html#a0214cd898b2f0c746cb45f79746e5095" target="_top" xlink:title="client_disconnect">
<polygon fill="none" stroke="black" points="495.5,-370.5 495.5,-389.5 614.5,-389.5 614.5,-370.5 495.5,-370.5"/>
<text text-anchor="middle" x="555" y="-377.5" font-family="DejaVuSansMono" font-size="10.00">client_disconnect</text>
</a>
</g>
<!-- Node2&#45;&gt;Node8 -->
<g id="edge14" class="edge"><title>Node2&#45;&gt;Node8</title>
<path fill="none" stroke="midnightblue" d="M417.832,-354.098C444.245,-359.123 477.026,-365.358 503.805,-370.452"/>
<polygon fill="midnightblue" stroke="midnightblue" points="418.157,-350.598 407.679,-352.167 416.849,-357.474 418.157,-350.598"/>
</g>
<!-- Node4 -->
<g id="node7" class="node"><title>Node4</title>
<a xlink:href="../../d7/d71/xep__muc_8c.html#a9936322b944d46aead9fbd942687ec0a" target="_top" xlink:title="handle_presence">
<polygon fill="none" stroke="black" points="849.5,-408.5 849.5,-427.5 956.5,-427.5 956.5,-408.5 849.5,-408.5"/>
<text text-anchor="middle" x="903" y="-415.5" font-family="DejaVuSansMono" font-size="10.00">handle_presence</text>
</a>
</g>
<!-- Node3&#45;&gt;Node4 -->
<g id="edge6" class="edge"><title>Node3&#45;&gt;Node4</title>
<path fill="none" stroke="midnightblue" d="M765.855,-373.656C798.114,-384.163 843.303,-398.882 872.613,-408.428"/>
<polygon fill="midnightblue" stroke="midnightblue" points="766.883,-370.31 756.291,-370.541 764.715,-376.966 766.883,-370.31"/>
</g>
<!-- Node5 -->
<g id="node9" class="node"><title>Node5</title>
<a xlink:href="../../d7/d71/xep__muc_8c.html#a1798db1c16a1fa62ff8f39fea202a26f" target="_top" xlink:title="stanza_handler">
<polygon fill="none" stroke="black" points="1023.5,-436.5 1023.5,-455.5 1124.5,-455.5 1124.5,-436.5 1023.5,-436.5"/>
<text text-anchor="middle" x="1074" y="-443.5" font-family="DejaVuSansMono" font-size="10.00">stanza_handler</text>
</a>
</g>
<!-- Node4&#45;&gt;Node5 -->
<g id="edge8" class="edge"><title>Node4&#45;&gt;Node5</title>
<path fill="none" stroke="midnightblue" d="M966.487,-428.353C985.247,-431.461 1005.56,-434.827 1023.37,-437.778"/>
<polygon fill="midnightblue" stroke="midnightblue" points="966.984,-424.888 956.546,-426.706 965.84,-431.793 966.984,-424.888"/>
</g>
<!-- Node6 -->
<g id="node11" class="node"><title>Node6</title>
<a xlink:href="../../d7/d71/xep__muc_8c.html#addf05166cf3fbe386ae6650be21ef251" target="_top" xlink:title="xep_muc_start">
<polygon fill="none" stroke="black" points="1176.5,-417.5 1176.5,-436.5 1271.5,-436.5 1271.5,-417.5 1176.5,-417.5"/>
<text text-anchor="middle" x="1224" y="-424.5" font-family="DejaVuSansMono" font-size="10.00">xep_muc_start</text>
</a>
</g>
<!-- Node5&#45;&gt;Node6 -->
<g id="edge10" class="edge"><title>Node5&#45;&gt;Node6</title>
<path fill="none" stroke="midnightblue" d="M1134.62,-438.346C1148.46,-436.57 1162.99,-434.704 1176.19,-433.009"/>
<polygon fill="midnightblue" stroke="midnightblue" points="1134.17,-434.875 1124.69,-439.62 1135.06,-441.819 1134.17,-434.875"/>
</g>
<!-- Node7 -->
<g id="node13" class="node"><title>Node7</title>
<a xlink:href="../../d7/d71/xep__muc_8c.html#a20d385a5584d8014ec4d5774eb79d1de" target="_top" xlink:title="xep_muc_stop">
<polygon fill="none" stroke="black" points="1179.5,-455.5 1179.5,-474.5 1268.5,-474.5 1268.5,-455.5 1179.5,-455.5"/>
<text text-anchor="middle" x="1224" y="-462.5" font-family="DejaVuSansMono" font-size="10.00">xep_muc_stop</text>
</a>
</g>
<!-- Node5&#45;&gt;Node7 -->
<g id="edge12" class="edge"><title>Node5&#45;&gt;Node7</title>
<path fill="none" stroke="midnightblue" d="M1134.8,-453.677C1149.63,-455.581 1165.24,-457.585 1179.15,-459.37"/>
<polygon fill="midnightblue" stroke="midnightblue" points="1135.06,-450.181 1124.69,-452.38 1134.17,-457.125 1135.06,-450.181"/>
</g>
<!-- Node9 -->
<g id="node17" class="node"><title>Node9</title>
<a xlink:href="../../d7/d71/xep__muc_8c.html#aefd23f2960520a68fea212344b85cb0b" target="_top" xlink:title="enter_room_presence">
<polygon fill="none" stroke="black" points="660.5,-408.5 660.5,-427.5 791.5,-427.5 791.5,-408.5 660.5,-408.5"/>
<text text-anchor="middle" x="726" y="-415.5" font-family="DejaVuSansMono" font-size="10.00">enter_room_presence</text>
</a>
</g>
<!-- Node8&#45;&gt;Node9 -->
<g id="edge16" class="edge"><title>Node8&#45;&gt;Node9</title>
<path fill="none" stroke="midnightblue" d="M608.587,-391.824C632.413,-397.182 660.207,-403.431 682.661,-408.48"/>
<polygon fill="midnightblue" stroke="midnightblue" points="609.17,-388.368 598.646,-389.589 607.634,-395.198 609.17,-388.368"/>
</g>
<!-- Node9&#45;&gt;Node4 -->
<g id="edge18" class="edge"><title>Node9&#45;&gt;Node4</title>
<path fill="none" stroke="midnightblue" d="M802.028,-418C817.953,-418 834.441,-418 849.323,-418"/>
<polygon fill="midnightblue" stroke="midnightblue" points="801.666,-414.5 791.666,-418 801.666,-421.5 801.666,-414.5"/>
</g>
<!-- Node11 -->
<g id="node22" class="node"><title>Node11</title>
<a xlink:href="../../d7/d71/xep__muc_8c.html#aec1096d47742f472668c4905fa3c299a" target="_top" xlink:title="handle_iq">
<polygon fill="none" stroke="black" points="519.5,-484.5 519.5,-503.5 590.5,-503.5 590.5,-484.5 519.5,-484.5"/>
<text text-anchor="middle" x="555" y="-491.5" font-family="DejaVuSansMono" font-size="10.00">handle_iq</text>
</a>
</g>
<!-- Node10&#45;&gt;Node11 -->
<g id="edge22" class="edge"><title>Node10&#45;&gt;Node11</title>
<path fill="none" stroke="midnightblue" d="M441.625,-478.121C468.337,-481.895 497.462,-486.011 519.367,-489.106"/>
<polygon fill="midnightblue" stroke="midnightblue" points="441.917,-474.627 431.525,-476.694 440.937,-481.559 441.917,-474.627"/>
</g>
<!-- Node11&#45;&gt;Node5 -->
<g id="edge24" class="edge"><title>Node11&#45;&gt;Node5</title>
<path fill="none" stroke="midnightblue" d="M600.71,-489.849C696.903,-480.918 922.905,-459.935 1023.36,-450.608"/>
<polygon fill="midnightblue" stroke="midnightblue" points="600.358,-486.366 590.725,-490.776 601.005,-493.337 600.358,-486.366"/>
</g>
<!-- Node12&#45;&gt;Node11 -->
<g id="edge28" class="edge"><title>Node12&#45;&gt;Node11</title>
<path fill="none" stroke="midnightblue" d="M439.062,-501.496C466.461,-499.709 496.76,-497.733 519.367,-496.259"/>
<polygon fill="midnightblue" stroke="midnightblue" points="438.476,-498.027 428.725,-502.17 438.931,-505.012 438.476,-498.027"/>
</g>
<!-- Node13&#45;&gt;Node9 -->
<g id="edge32" class="edge"><title>Node13&#45;&gt;Node9</title>
<path fill="none" stroke="midnightblue" d="M453.9,-398.145C517.125,-402.775 602.541,-409.031 660.477,-413.274"/>
<polygon fill="midnightblue" stroke="midnightblue" points="453.785,-394.627 443.556,-397.387 453.274,-401.608 453.785,-394.627"/>
</g>
<!-- Node14&#45;&gt;Node9 -->
<g id="edge36" class="edge"><title>Node14&#45;&gt;Node9</title>
<path fill="none" stroke="midnightblue" d="M456.779,-433.972C505.904,-435.397 568.449,-435.832 624,-432 637.775,-431.05 652.532,-429.379 666.394,-427.515"/>
<polygon fill="midnightblue" stroke="midnightblue" points="456.611,-430.466 446.507,-433.655 456.394,-437.462 456.611,-430.466"/>
</g>
<!-- Node16 -->
<g id="node36" class="node"><title>Node16</title>
<a xlink:href="../../d1/d2e/xmpp__server_8h.html#a27bfc8e4d424a8bc17ab21a4a09cdf92" target="_top" xlink:title="Allocates and initializes the XMPP server.">
<polygon fill="none" stroke="black" points="1314.5,-104.5 1314.5,-123.5 1421.5,-123.5 1421.5,-104.5 1314.5,-104.5"/>
<text text-anchor="middle" x="1368" y="-111.5" font-family="DejaVuSansMono" font-size="10.00">xmpp_server_new</text>
</a>
</g>
<!-- Node15&#45;&gt;Node16 -->
<g id="edge40" class="edge"><title>Node15&#45;&gt;Node16</title>
<path fill="none" stroke="midnightblue" d="M441.99,-97.6871C513.588,-88.3339 626.649,-76 725,-76 725,-76 725,-76 1075,-76 1165.62,-76 1188.43,-81.2949 1278,-95 1294.24,-97.4851 1311.98,-101.087 1327.31,-104.488"/>
<polygon fill="midnightblue" stroke="midnightblue" points="441.188,-94.2626 431.733,-99.0437 442.106,-101.202 441.188,-94.2626"/>
</g>
<!-- Node17 -->
<g id="node38" class="node"><title>Node17</title>
<a xlink:href="../../d0/d29/main_8c.html#a0ddf1224851353fc92bfbff6f499fa97" target="_top" xlink:title="main">
<polygon fill="none" stroke="black" points="1458.5,-104.5 1458.5,-123.5 1499.5,-123.5 1499.5,-104.5 1458.5,-104.5"/>
<text text-anchor="middle" x="1479" y="-111.5" font-family="DejaVuSansMono" font-size="10.00">main</text>
</a>
</g>
<!-- Node16&#45;&gt;Node17 -->
<g id="edge42" class="edge"><title>Node16&#45;&gt;Node17</title>
<path fill="none" stroke="midnightblue" d="M1431.75,-114C1441.43,-114 1450.76,-114 1458.47,-114"/>
<polygon fill="midnightblue" stroke="midnightblue" points="1431.58,-110.5 1421.58,-114 1431.58,-117.5 1431.58,-110.5"/>
</g>
<!-- Node18&#45;&gt;Node16 -->
<g id="edge46" class="edge"><title>Node18&#45;&gt;Node16</title>
<path fill="none" stroke="midnightblue" d="M446.223,-59.137C517.989,-49.8578 628.566,-38 725,-38 725,-38 725,-38 1075,-38 1166.71,-38 1190.3,-48.1925 1278,-75 1303.33,-82.742 1331.06,-95.6564 1348.73,-104.487"/>
<polygon fill="midnightblue" stroke="midnightblue" points="445.383,-55.7169 435.922,-60.4856 446.292,-62.6577 445.383,-55.7169"/>
</g>
<!-- Node19&#45;&gt;Node16 -->
<g id="edge50" class="edge"><title>Node19&#45;&gt;Node16</title>
<path fill="none" stroke="midnightblue" d="M446.223,-21.137C517.989,-11.8578 628.566,-7.10543e-15 725,-0 725,-0 725,-0 1075,-0 1167.04,-7.10543e-15 1194.85,-1.53513 1278,-41 1311.76,-57.0229 1343.69,-88.589 1358.45,-104.441"/>
<polygon fill="midnightblue" stroke="midnightblue" points="445.383,-17.7169 435.922,-22.4856 446.292,-24.6577 445.383,-17.7169"/>
</g>
<!-- Node21 -->
<g id="node48" class="node"><title>Node21</title>
<a xlink:href="../../d9/dd7/xmpp__im_8h.html#a40f3cf6fffd6aafe9c7cde476fdbc9c2" target="_top" xlink:title="IQ stanza callback for handing a roster query.">
<polygon fill="none" stroke="black" points="1014.5,-289.5 1014.5,-308.5 1133.5,-308.5 1133.5,-289.5 1014.5,-289.5"/>
<text text-anchor="middle" x="1074" y="-296.5" font-family="DejaVuSansMono" font-size="10.00">xmpp_im_iq_roster</text>
</a>
</g>
<!-- Node20&#45;&gt;Node21 -->
<g id="edge54" class="edge"><title>Node20&#45;&gt;Node21</title>
<path fill="none" stroke="midnightblue" d="M417.818,-303.66C542.684,-302.772 878.279,-300.385 1014.42,-299.417"/>
<polygon fill="midnightblue" stroke="midnightblue" points="417.771,-300.16 407.796,-303.731 417.821,-307.16 417.771,-300.16"/>
</g>
<!-- Node21&#45;&gt;Node16 -->
<g id="edge56" class="edge"><title>Node21&#45;&gt;Node16</title>
<path fill="none" stroke="midnightblue" d="M1143.85,-303.783C1185.93,-303.366 1238.97,-296.536 1278,-270 1332.15,-233.183 1357.35,-151.795 1364.66,-123.734"/>
<polygon fill="midnightblue" stroke="midnightblue" points="1143.68,-300.283 1133.68,-303.763 1143.67,-307.283 1143.68,-300.283"/>
</g>
<!-- Node23 -->
<g id="node53" class="node"><title>Node23</title>
<a xlink:href="../../d1/dc2/xmpp__parser_8c.html#a03a135f29e3d4e01abbb60e53ac6967c" target="_top" xlink:title="init_parser">
<polygon fill="none" stroke="black" points="513.5,-142.5 513.5,-161.5 596.5,-161.5 596.5,-142.5 513.5,-142.5"/>
<text text-anchor="middle" x="555" y="-149.5" font-family="DejaVuSansMono" font-size="10.00">init_parser</text>
</a>
</g>
<!-- Node22&#45;&gt;Node23 -->
<g id="edge60" class="edge"><title>Node22&#45;&gt;Node23</title>
<path fill="none" stroke="midnightblue" d="M423.456,-176.122C452.087,-170.832 486.798,-164.418 513.229,-159.534"/>
<polygon fill="midnightblue" stroke="midnightblue" points="422.803,-172.684 413.605,-177.942 424.075,-179.567 422.803,-172.684"/>
</g>
<!-- Node24 -->
<g id="node55" class="node"><title>Node24</title>
<a xlink:href="../../d8/d55/xmpp__parser_8h.html#adf25a1d2047994dfa6cc71a9482548c2" target="_top" xlink:title="xmpp_parser_new">
<polygon fill="none" stroke="black" points="672.5,-180.5 672.5,-199.5 779.5,-199.5 779.5,-180.5 672.5,-180.5"/>
<text text-anchor="middle" x="726" y="-187.5" font-family="DejaVuSansMono" font-size="10.00">xmpp_parser_new</text>
</a>
</g>
<!-- Node23&#45;&gt;Node24 -->
<g id="edge62" class="edge"><title>Node23&#45;&gt;Node24</title>
<path fill="none" stroke="midnightblue" d="M606.98,-163.463C631.17,-168.902 659.734,-175.325 682.702,-180.489"/>
<polygon fill="midnightblue" stroke="midnightblue" points="607.434,-159.978 596.91,-161.199 605.899,-166.807 607.434,-159.978"/>
</g>
<!-- Node28 -->
<g id="node64" class="node"><title>Node28</title>
<a xlink:href="../../d8/d55/xmpp__parser_8h.html#af5e1eb5bbef0496c3543bd35113766ac" target="_top" xlink:title="Reset the state of the parser as if it was just created.">
<polygon fill="none" stroke="black" points="666.5,-142.5 666.5,-161.5 785.5,-161.5 785.5,-142.5 666.5,-142.5"/>
<text text-anchor="middle" x="726" y="-149.5" font-family="DejaVuSansMono" font-size="10.00">xmpp_parser_reset</text>
</a>
</g>
<!-- Node23&#45;&gt;Node28 -->
<g id="edge72" class="edge"><title>Node23&#45;&gt;Node28</title>
<path fill="none" stroke="midnightblue" d="M606.99,-152C625.669,-152 646.956,-152 666.259,-152"/>
<polygon fill="midnightblue" stroke="midnightblue" points="606.91,-148.5 596.91,-152 606.91,-155.5 606.91,-148.5"/>
</g>
<!-- Node25 -->
<g id="node57" class="node"><title>Node25</title>
<a xlink:href="../../d6/d78/xmp3__multicast_8c.html#a08afc39c59ec9297d756a99c395eff3c" target="_top" xlink:title="multicast_new">
<polygon fill="none" stroke="black" points="855.5,-180.5 855.5,-199.5 950.5,-199.5 950.5,-180.5 855.5,-180.5"/>
<text text-anchor="middle" x="903" y="-187.5" font-family="DejaVuSansMono" font-size="10.00">multicast_new</text>
</a>
</g>
<!-- Node24&#45;&gt;Node25 -->
<g id="edge64" class="edge"><title>Node24&#45;&gt;Node25</title>
<path fill="none" stroke="midnightblue" d="M789.632,-190C811.347,-190 835.291,-190 855.477,-190"/>
<polygon fill="midnightblue" stroke="midnightblue" points="789.506,-186.5 779.506,-190 789.506,-193.5 789.506,-186.5"/>
</g>
<!-- Node26 -->
<g id="node59" class="node"><title>Node26</title>
<a xlink:href="../../d4/d2f/xmpp__client_8h.html#a1619c0b8f58b2cf09a322bf34fbc3414" target="_top" xlink:title="xmpp_client_new">
<polygon fill="none" stroke="black" points="849.5,-218.5 849.5,-237.5 956.5,-237.5 956.5,-218.5 849.5,-218.5"/>
<text text-anchor="middle" x="903" y="-225.5" font-family="DejaVuSansMono" font-size="10.00">xmpp_client_new</text>
</a>
</g>
<!-- Node24&#45;&gt;Node26 -->
<g id="edge66" class="edge"><title>Node24&#45;&gt;Node26</title>
<path fill="none" stroke="midnightblue" d="M781.124,-201.753C805.869,-207.126 834.803,-213.409 858.158,-218.48"/>
<polygon fill="midnightblue" stroke="midnightblue" points="781.675,-198.291 771.16,-199.589 780.189,-205.131 781.675,-198.291"/>
</g>
<!-- Node27 -->
<g id="node61" class="node"><title>Node27</title>
<a xlink:href="../../d0/df0/xmpp__server_8c.html#a66363912ef1221a2574f9f99805fe8fd" target="_top" xlink:title="Callback for new client connections.">
<polygon fill="none" stroke="black" points="1173.5,-142.5 1173.5,-161.5 1274.5,-161.5 1274.5,-142.5 1173.5,-142.5"/>
<text text-anchor="middle" x="1224" y="-149.5" font-family="DejaVuSansMono" font-size="10.00">connect_client</text>
</a>
</g>
<!-- Node26&#45;&gt;Node27 -->
<g id="edge68" class="edge"><title>Node26&#45;&gt;Node27</title>
<path fill="none" stroke="midnightblue" d="M953.834,-216.127C1017.09,-201.056 1124.96,-175.357 1183.09,-161.509"/>
<polygon fill="midnightblue" stroke="midnightblue" points="952.995,-212.729 944.079,-218.452 954.617,-219.539 952.995,-212.729"/>
</g>
<!-- Node27&#45;&gt;Node16 -->
<g id="edge70" class="edge"><title>Node27&#45;&gt;Node16</title>
<path fill="none" stroke="midnightblue" d="M1270.49,-139.826C1290.13,-134.571 1312.77,-128.513 1331.18,-123.586"/>
<polygon fill="midnightblue" stroke="midnightblue" points="1269.59,-136.445 1260.83,-142.411 1271.4,-143.207 1269.59,-136.445"/>
</g>
<!-- Node29 -->
<g id="node66" class="node"><title>Node29</title>
<a xlink:href="../../d6/d78/xmp3__multicast_8c.html#a9865e8026fb8ee000629fc1da465716d" target="_top" xlink:title="socket_handler">
<polygon fill="none" stroke="black" points="1023.5,-104.5 1023.5,-123.5 1124.5,-123.5 1124.5,-104.5 1023.5,-104.5"/>
<text text-anchor="middle" x="1074" y="-111.5" font-family="DejaVuSansMono" font-size="10.00">socket_handler</text>
</a>
</g>
<!-- Node28&#45;&gt;Node29 -->
<g id="edge74" class="edge"><title>Node28&#45;&gt;Node29</title>
<path fill="none" stroke="midnightblue" d="M782.129,-140.509C796.97,-137.722 813.054,-134.979 828,-133 895.246,-124.094 973.471,-118.922 1023.1,-116.28"/>
<polygon fill="midnightblue" stroke="midnightblue" points="781.243,-137.115 772.081,-142.436 782.562,-143.989 781.243,-137.115"/>
</g>
<!-- Node31 -->
<g id="node70" class="node"><title>Node31</title>
<a xlink:href="../../d8/d55/xmpp__parser_8h.html#a578b7a9a50212eb204a86789001287af" target="_top" xlink:title="xmpp_parser_parse">
<polygon fill="none" stroke="black" points="843.5,-142.5 843.5,-161.5 962.5,-161.5 962.5,-142.5 843.5,-142.5"/>
<text text-anchor="middle" x="903" y="-149.5" font-family="DejaVuSansMono" font-size="10.00">xmpp_parser_parse</text>
</a>
</g>
<!-- Node28&#45;&gt;Node31 -->
<g id="edge78" class="edge"><title>Node28&#45;&gt;Node31</title>
<path fill="none" stroke="midnightblue" d="M795.934,-152C811.636,-152 828.173,-152 843.396,-152"/>
<polygon fill="midnightblue" stroke="midnightblue" points="795.759,-148.5 785.759,-152 795.759,-155.5 795.759,-148.5"/>
</g>
<!-- Node30 -->
<g id="node68" class="node"><title>Node30</title>
<a xlink:href="../../d6/d78/xmp3__multicast_8c.html#a991c928ab73b350c4b7029352e91a219" target="_top" xlink:title="multicast_start">
<polygon fill="none" stroke="black" points="1170.5,-104.5 1170.5,-123.5 1277.5,-123.5 1277.5,-104.5 1170.5,-104.5"/>
<text text-anchor="middle" x="1224" y="-111.5" font-family="DejaVuSansMono" font-size="10.00">multicast_start</text>
</a>
</g>
<!-- Node29&#45;&gt;Node30 -->
<g id="edge76" class="edge"><title>Node29&#45;&gt;Node30</title>
<path fill="none" stroke="midnightblue" d="M1134.87,-114C1146.64,-114 1158.89,-114 1170.4,-114"/>
<polygon fill="midnightblue" stroke="midnightblue" points="1134.69,-110.5 1124.69,-114 1134.69,-117.5 1134.69,-110.5"/>
</g>
<!-- Node31&#45;&gt;Node29 -->
<g id="edge80" class="edge"><title>Node31&#45;&gt;Node29</title>
<path fill="none" stroke="midnightblue" d="M956.587,-140.176C980.413,-134.818 1008.21,-128.569 1030.66,-123.52"/>
<polygon fill="midnightblue" stroke="midnightblue" points="955.634,-136.802 946.646,-142.411 957.17,-143.632 955.634,-136.802"/>
</g>
<!-- Node32 -->
<g id="node73" class="node"><title>Node32</title>
<a xlink:href="../../d0/df0/xmpp__server_8c.html#abece91815ef240322d79073f5bfca1db" target="_top" xlink:title="Callback for new data from a client.">
<polygon fill="none" stroke="black" points="1032.5,-142.5 1032.5,-161.5 1115.5,-161.5 1115.5,-142.5 1032.5,-142.5"/>
<text text-anchor="middle" x="1074" y="-149.5" font-family="DejaVuSansMono" font-size="10.00">read_client</text>
</a>
</g>
<!-- Node31&#45;&gt;Node32 -->
<g id="edge82" class="edge"><title>Node31&#45;&gt;Node32</title>
<path fill="none" stroke="midnightblue" d="M972.749,-152C992.964,-152 1014.43,-152 1032.28,-152"/>
<polygon fill="midnightblue" stroke="midnightblue" points="972.634,-148.5 962.634,-152 972.634,-155.5 972.634,-148.5"/>
</g>
<!-- Node32&#45;&gt;Node27 -->
<g id="edge84" class="edge"><title>Node32&#45;&gt;Node27</title>
<path fill="none" stroke="midnightblue" d="M1126.15,-152C1141.43,-152 1158.16,-152 1173.35,-152"/>
<polygon fill="midnightblue" stroke="midnightblue" points="1125.83,-148.5 1115.83,-152 1125.83,-155.5 1125.83,-148.5"/>
</g>
<!-- Node33&#45;&gt;Node23 -->
<g id="edge88" class="edge"><title>Node33&#45;&gt;Node23</title>
<path fill="none" stroke="midnightblue" d="M396.99,-148.587C427.637,-149.253 477.966,-150.347 513.365,-151.117"/>
<polygon fill="midnightblue" stroke="midnightblue" points="396.727,-145.08 386.653,-148.362 396.575,-152.079 396.727,-145.08"/>
</g>
<!-- Node35 -->
<g id="node81" class="node"><title>Node35</title>
<a xlink:href="../../d1/d2e/xmpp__server_8h.html#a8ddb3bbfd497811c13e9426ce6f02003" target="_top" xlink:title="Deliver an IQ stanza to a registered callback function.">
<polygon fill="none" stroke="black" points="486.5,-253.5 486.5,-272.5 623.5,-272.5 623.5,-253.5 486.5,-253.5"/>
<text text-anchor="middle" x="555" y="-260.5" font-family="DejaVuSansMono" font-size="10.00">xmpp_server_route_iq</text>
</a>
</g>
<!-- Node34&#45;&gt;Node35 -->
<g id="edge92" class="edge"><title>Node34&#45;&gt;Node35</title>
<path fill="none" stroke="midnightblue" d="M459.722,-261.463C468.684,-261.609 477.674,-261.756 486.353,-261.897"/>
<polygon fill="midnightblue" stroke="midnightblue" points="459.691,-257.962 449.635,-261.298 459.577,-264.961 459.691,-257.962"/>
</g>
<!-- Node36 -->
<g id="node83" class="node"><title>Node36</title>
<a xlink:href="../../d8/d28/xmpp__core_8h.html#a777c384ae6685d30bfa255c4b33022aa" target="_top" xlink:title="An xmpp_server stanza route for stanzas directed to the server itself.">
<polygon fill="none" stroke="black" points="828.5,-256.5 828.5,-275.5 977.5,-275.5 977.5,-256.5 828.5,-256.5"/>
<text text-anchor="middle" x="903" y="-263.5" font-family="DejaVuSansMono" font-size="10.00">xmpp_core_route_server</text>
</a>
</g>
<!-- Node35&#45;&gt;Node36 -->
<g id="edge94" class="edge"><title>Node35&#45;&gt;Node36</title>
<path fill="none" stroke="midnightblue" d="M633.787,-263.674C692.016,-264.179 771.146,-264.865 828.352,-265.361"/>
<polygon fill="midnightblue" stroke="midnightblue" points="633.564,-260.172 623.534,-263.586 633.503,-267.172 633.564,-260.172"/>
</g>
<!-- Node36&#45;&gt;Node16 -->
<g id="edge96" class="edge"><title>Node36&#45;&gt;Node16</title>
<path fill="none" stroke="midnightblue" d="M976.302,-254.742C1053.32,-241.137 1177.71,-214.493 1278,-171 1307.46,-158.224 1338.23,-136.279 1354.76,-123.671"/>
<polygon fill="midnightblue" stroke="midnightblue" points="975.472,-251.333 966.22,-256.496 976.672,-258.23 975.472,-251.333"/>
</g>
<!-- Node37&#45;&gt;Node2 -->
<g id="edge100" class="edge"><title>Node37&#45;&gt;Node2</title>
<path fill="none" stroke="midnightblue" d="M217.82,-276.292C235.046,-290.45 261.773,-310.583 288,-323 301.279,-329.287 316.677,-334.057 330.397,-337.52"/>
<polygon fill="midnightblue" stroke="midnightblue" points="219.642,-273.251 209.731,-269.505 215.143,-278.614 219.642,-273.251"/>
</g>
<!-- Node37&#45;&gt;Node10 -->
<g id="edge102" class="edge"><title>Node37&#45;&gt;Node10</title>
<path fill="none" stroke="midnightblue" d="M202.426,-279.621C210.248,-318.296 233.157,-404.475 288,-449 293.43,-453.409 299.713,-456.826 306.322,-459.47"/>
<polygon fill="midnightblue" stroke="midnightblue" points="205.836,-278.815 200.535,-269.642 198.959,-280.119 205.836,-278.815"/>
</g>
<!-- Node37&#45;&gt;Node12 -->
<g id="edge104" class="edge"><title>Node37&#45;&gt;Node12</title>
<path fill="none" stroke="midnightblue" d="M200.697,-279.506C205.615,-323.579 223.909,-431.334 288,-487 294.143,-492.336 301.517,-496.237 309.268,-499.079"/>
<polygon fill="midnightblue" stroke="midnightblue" points="204.176,-279.121 199.696,-269.52 197.211,-279.82 204.176,-279.121"/>
</g>
<!-- Node37&#45;&gt;Node13 -->
<g id="edge106" class="edge"><title>Node37&#45;&gt;Node13</title>
<path fill="none" stroke="midnightblue" d="M210.033,-277.982C225.011,-300.991 253.863,-340.655 288,-364 299.903,-372.14 314.417,-378.152 327.798,-382.471"/>
<polygon fill="midnightblue" stroke="midnightblue" points="212.967,-276.074 204.654,-269.506 207.057,-279.825 212.967,-276.074"/>
</g>
<!-- Node37&#45;&gt;Node14 -->
<g id="edge108" class="edge"><title>Node37&#45;&gt;Node14</title>
<path fill="none" stroke="midnightblue" d="M204.798,-279.23C215.61,-311.678 242.022,-377.074 288,-411 293.284,-414.899 299.252,-418.01 305.488,-420.491"/>
<polygon fill="midnightblue" stroke="midnightblue" points="208.094,-278.047 201.723,-269.582 201.425,-280.173 208.094,-278.047"/>
</g>
<!-- Node37&#45;&gt;Node15 -->
<g id="edge110" class="edge"><title>Node37&#45;&gt;Node15</title>
<path fill="none" stroke="midnightblue" d="M206.648,-241.005C219.217,-212.255 247.008,-157.979 288,-129 294.801,-124.192 302.626,-120.485 310.663,-117.627"/>
<polygon fill="midnightblue" stroke="midnightblue" points="203.369,-239.774 202.709,-250.348 209.819,-242.493 203.369,-239.774"/>
</g>
<!-- Node37&#45;&gt;Node18 -->
<g id="edge112" class="edge"><title>Node37&#45;&gt;Node18</title>
<path fill="none" stroke="midnightblue" d="M203.505,-240.293C212.778,-204.379 237.503,-128.357 288,-89 292.954,-85.1388 298.569,-82.0436 304.47,-79.5652"/>
<polygon fill="midnightblue" stroke="midnightblue" points="199.998,-239.902 201.024,-250.447 206.798,-241.564 199.998,-239.902"/>
</g>
<!-- Node37&#45;&gt;Node19 -->
<g id="edge114" class="edge"><title>Node37&#45;&gt;Node19</title>
<path fill="none" stroke="midnightblue" d="M201.457,-240.341C207.743,-198.7 228.354,-101.311 288,-51 292.583,-47.1343 297.815,-44.0257 303.361,-41.5297"/>
<polygon fill="midnightblue" stroke="midnightblue" points="197.982,-239.923 200.07,-250.31 204.915,-240.887 197.982,-239.923"/>
</g>
<!-- Node37&#45;&gt;Node20 -->
<g id="edge116" class="edge"><title>Node37&#45;&gt;Node20</title>
<path fill="none" stroke="midnightblue" d="M245.685,-272.155C272.728,-279.195 306.281,-287.931 331.401,-294.471"/>
<polygon fill="midnightblue" stroke="midnightblue" points="246.23,-268.68 235.67,-269.547 244.466,-275.454 246.23,-268.68"/>
</g>
<!-- Node37&#45;&gt;Node22 -->
<g id="edge118" class="edge"><title>Node37&#45;&gt;Node22</title>
<path fill="none" stroke="midnightblue" d="M230.111,-246.378C263.752,-231.647 316.518,-208.543 346.068,-195.603"/>
<polygon fill="midnightblue" stroke="midnightblue" points="228.504,-243.26 220.748,-250.477 231.312,-249.672 228.504,-243.26"/>
</g>
<!-- Node37&#45;&gt;Node33 -->
<g id="edge120" class="edge"><title>Node37&#45;&gt;Node33</title>
<path fill="none" stroke="midnightblue" d="M211.26,-241.908C226.65,-220.644 255.062,-185.871 288,-167 307.942,-155.575 334.443,-151.005 351.365,-149.187"/>
<polygon fill="midnightblue" stroke="midnightblue" points="208.202,-240.173 205.311,-250.365 213.927,-244.2 208.202,-240.173"/>
</g>
<!-- Node37&#45;&gt;Node34 -->
<g id="edge122" class="edge"><title>Node37&#45;&gt;Node34</title>
<path fill="none" stroke="midnightblue" d="M261.642,-260C270.395,-260 279.484,-260 288.497,-260"/>
<polygon fill="midnightblue" stroke="midnightblue" points="261.546,-256.5 251.546,-260 261.546,-263.5 261.546,-256.5"/>
</g>
<!-- Node37&#45;&gt;Node37 -->
<g id="edge124" class="edge"><title>Node37&#45;&gt;Node37</title>
<path fill="none" stroke="midnightblue" d="M171.121,-278.654C172.244,-283.937 181.204,-288 198,-288 223.594,-288 230.992,-278.565 220.195,-269.757"/>
<polygon fill="midnightblue" stroke="midnightblue" points="174.243,-280.236 175.805,-269.757 168.049,-276.975 174.243,-280.236"/>
</g>
</g>
</svg>
        <g id="navigator" transform="translate(0 0)" fill="#404254">
                <rect fill="#f2f5e9" fill-opacity="0.5" stroke="#606060" stroke-width=".5" x="0" y="0" width="60" height="60"/>
                <use id="zoomplus" xlink:href="#zoomPlus" x="17" y="9" onmousedown="handleZoom(evt,'in')"/>
                <use id="zoomminus" xlink:href="#zoomMin" x="42" y="9" onmousedown="handleZoom(evt,'out')"/>
                <use id="reset" xlink:href="#resetDef" x="30" y="36" onmousedown="handleReset()"/>
                <g id="arrowUp" xlink:href="#dirArrow" transform="translate(30 24)" onmousedown="handlePan(0,-1)">
                  <use xlink:href="#rim" fill="#404040">
                        <set attributeName="fill" to="#808080" begin="arrowUp.mouseover" end="arrowUp.mouseout"/>
                  </use>
                  <path fill="none" stroke="white" stroke-width="1.5" d="M0,-3.0v7 M-2.5,-0.5L0,-3.0L2.5,-0.5"/>
                </g>
                <g id="arrowRight" xlink:href="#dirArrow" transform="rotate(90) translate(36 -43)" onmousedown="handlePan(1,0)">
                  <use xlink:href="#rim" fill="#404040">
                        <set attributeName="fill" to="#808080" begin="arrowRight.mouseover" end="arrowRight.mouseout"/>
                  </use>
                  <path fill="none" stroke="white" stroke-width="1.5" d="M0,-3.0v7 M-2.5,-0.5L0,-3.0L2.5,-0.5"/>
                </g>
                <g id="arrowDown" xlink:href="#dirArrow" transform="rotate(180) translate(-30 -48)" onmousedown="handlePan(0,1)">
                  <use xlink:href="#rim" fill="#404040">
                        <set attributeName="fill" to="#808080" begin="arrowDown.mouseover" end="arrowDown.mouseout"/>
                  </use>
                  <path fill="none" stroke="white" stroke-width="1.5" d="M0,-3.0v7 M-2.5,-0.5L0,-3.0L2.5,-0.5"/>
                </g>
                <g id="arrowLeft" xlink:href="#dirArrow" transform="rotate(270) translate(-36 17)" onmousedown="handlePan(-1,0)">
                  <use xlink:href="#rim" fill="#404040">
                        <set attributeName="fill" to="#808080" begin="arrowLeft.mouseover" end="arrowLeft.mouseout"/>
                  </use>
                  <path fill="none" stroke="white" stroke-width="1.5" d="M0,-3.0v7 M-2.5,-0.5L0,-3.0L2.5,-0.5"/>
                </g>
        </g>
        <svg viewBox="0 0 25 25" width="100%" height="30px" preserveAspectRatio="xMaxYMin meet"> 
          <g id="printButton" transform="scale(0.4 0.4)" onmousedown="handlePrint(evt)">
            <rect height="23.33753581" id="paper" rx="2" style="fill:#f2f5e9;fill-rule:evenodd;stroke:#111111;stroke-width:3.224;stroke-linejoin:round;" transform="matrix(1.000000,0.000000,-0.339266,0.940691,0.000000,0.000000)" width="25.55231285" x="26.69387353" y="7.36162977"/>
            <rect height="26.272097" id="body" rx="2" style="fill:#404040;fill-rule:evenodd;stroke:#111111;stroke-width:3.125;stroke-linejoin:round;" width="50" x="4.5295201" y="27.078951"/>
            <rect height="8.27750969" id="tray" style="fill:#d2d5c9;fill-rule:evenodd;stroke:#111111;stroke-width:3.125;stroke-linecap:round;stroke-linejoin:round;" width="40" x="10.28778839" y="44.96812282"/>
          </g>
        </svg>
</svg>
