<?xml version="1.0" encoding="UTF-8" standalone="no"?>
<!DOCTYPE svg PUBLIC "-//W3C//DTD SVG 1.1//EN"
 "http://www.w3.org/Graphics/SVG/1.1/DTD/svg11.dtd">
<!-- Generated by graphviz version 2.28.0 (20120217.0315)
 -->
<!-- Title: G Pages: 1 -->
<!--zoomable 84 -->
<svg id="main" version="1.1" xmlns="http://www.w3.org/2000/svg" xmlns:xlink="http://www.w3.org/1999/xlink" xml:space="preserve" onload="init(evt)">
        <defs>
                <circle id="rim" cx="0" cy="0" r="7"/>
                <circle id="rim2" cx="0" cy="0" r="3.5"/>
                <g id="zoomPlus">
                        <use xlink:href="#rim" fill="#404040">
                                <set attributeName="fill" to="#808080" begin="zoomplus.mouseover" end="zoomplus.mouseout"/>
                        </use>
                        <path d="M-4,0h8M0,-4v8" fill="none" stroke="white" stroke-width="1.5" pointer-events="none"/>
                </g>
                <g id="zoomMin">
                        <use xlink:href="#rim" fill="#404040">
                                <set attributeName="fill" to="#808080" begin="zoomminus.mouseover" end="zoomminus.mouseout"/>
                        </use>
                        <path d="M-4,0h8" fill="none" stroke="white" stroke-width="1.5" pointer-events="none"/>
                </g>
                <g id="dirArrow">
                        <path fill="none" stroke="white" stroke-width="1.5" d="M0,-3.0v7 M-2.5,-0.5L0,-3.0L2.5,-0.5"/>
                </g>
               <g id="resetDef">
                       <use xlink:href="#rim2" fill="#404040">
                               <set attributeName="fill" to="#808080" begin="reset.mouseover" end="reset.mouseout"/>
                       </use>
               </g>
        </defs>

<script type="text/javascript">
var viewWidth = 989;
var viewHeight = 84;
var sectionId = 'dynsection-1';
</script>
<script xlink:href="../../svgpan.js"/>
<svg id="graph" class="graph">
<g id="viewport">
<title>G</title>
<!-- Node1 -->
<g id="node1" class="node"><title>Node1</title>
<polygon fill="#bfbfbf" stroke="black" points="421.5,-56.5 421.5,-75.5 540.5,-75.5 540.5,-56.5 421.5,-56.5"/>
<text text-anchor="middle" x="481" y="-63.5" font-family="DejaVuSansMono" font-size="10.00">src/xmpp_server.h</text>
</g>
<!-- Node2 -->
<g id="node3" class="node"><title>Node2</title>
<a xlink:href="../../d0/d29/main_8c.html" target="_top" xlink:title="Main function and argument parsing.">
<polygon fill="none" stroke="black" points="-0.5,-0.5 -0.5,-19.5 76.5,-19.5 76.5,-0.5 -0.5,-0.5"/>
<text text-anchor="middle" x="38" y="-7.5" font-family="DejaVuSansMono" font-size="10.00">src/main.c</text>
</a>
</g>
<!-- Node1&#45;&gt;Node2 -->
<g id="edge2" class="edge"><title>Node1&#45;&gt;Node2</title>
<path fill="none" stroke="midnightblue" d="M411.091,-58.6778C331.801,-51.1309 198.744,-37.3274 85,-20 82.2896,-19.5871 79.497,-19.1311 76.6885,-18.65"/>
<polygon fill="midnightblue" stroke="midnightblue" points="411.154,-62.1992 421.44,-59.6562 411.813,-55.2303 411.154,-62.1992"/>
</g>
<!-- Node3 -->
<g id="node5" class="node"><title>Node3</title>
<a xlink:href="../../d7/d71/xep__muc_8c.html" target="_top" xlink:title="Implements XEP&#45;0045 Multi&#45;User Chat.">
<polygon fill="none" stroke="black" points="94.5,-0.5 94.5,-19.5 189.5,-19.5 189.5,-0.5 94.5,-0.5"/>
<text text-anchor="middle" x="142" y="-7.5" font-family="DejaVuSansMono" font-size="10.00">src/xep_muc.c</text>
</a>
</g>
<!-- Node1&#45;&gt;Node3 -->
<g id="edge4" class="edge"><title>Node1&#45;&gt;Node3</title>
<path fill="none" stroke="midnightblue" d="M417.262,-54.896C359.902,-45.7956 273.307,-32.0388 198,-20 195.277,-19.5648 192.48,-19.1171 189.658,-18.6648"/>
<polygon fill="midnightblue" stroke="midnightblue" points="416.844,-58.3734 427.269,-56.4835 417.941,-51.4598 416.844,-58.3734"/>
</g>
<!-- Node4 -->
<g id="node7" class="node"><title>Node4</title>
<a xlink:href="../../d6/d78/xmp3__multicast_8c.html" target="_top" xlink:title="Simple extension module that multicasts messages to other XMP3 instances.">
<polygon fill="none" stroke="black" points="207.5,-0.5 207.5,-19.5 344.5,-19.5 344.5,-0.5 207.5,-0.5"/>
<text text-anchor="middle" x="276" y="-7.5" font-family="DejaVuSansMono" font-size="10.00">src/xmp3_multicast.c</text>
</a>
</g>
<!-- Node1&#45;&gt;Node4 -->
<g id="edge6" class="edge"><title>Node1&#45;&gt;Node4</title>
<path fill="none" stroke="midnightblue" d="M438.592,-53.8291C399.886,-43.6333 343.507,-28.7823 308.331,-19.5164"/>
<polygon fill="midnightblue" stroke="midnightblue" points="437.955,-57.2808 448.517,-56.4435 439.739,-50.5117 437.955,-57.2808"/>
</g>
<!-- Node5 -->
<g id="node9" class="node"><title>Node5</title>
<a xlink:href="../../df/da9/xmpp__auth_8c.html" target="_top" xlink:title="Implement initial XMPP authendication.">
<polygon fill="none" stroke="black" points="362.5,-0.5 362.5,-19.5 469.5,-19.5 469.5,-0.5 362.5,-0.5"/>
<text text-anchor="middle" x="416" y="-7.5" font-family="DejaVuSansMono" font-size="10.00">src/xmpp_auth.c</text>
</a>
</g>
<!-- Node1&#45;&gt;Node5 -->
<g id="edge8" class="edge"><title>Node1&#45;&gt;Node5</title>
<path fill="none" stroke="midnightblue" d="M462.727,-49.8197C451.082,-40.1452 436.401,-27.9481 426.633,-19.8339"/>
<polygon fill="midnightblue" stroke="midnightblue" points="460.628,-52.6259 470.557,-56.324 465.101,-47.2416 460.628,-52.6259"/>
</g>
<!-- Node6 -->
<g id="node11" class="node"><title>Node6</title>
<a xlink:href="../../dd/d4d/xmpp__client_8c.html" target="_top" xlink:title="A connected XMPP server client.">
<polygon fill="none" stroke="black" points="487.5,-0.5 487.5,-19.5 606.5,-19.5 606.5,-0.5 487.5,-0.5"/>
<text text-anchor="middle" x="547" y="-7.5" font-family="DejaVuSansMono" font-size="10.00">src/xmpp_client.c</text>
</a>
</g>
<!-- Node1&#45;&gt;Node6 -->
<g id="edge10" class="edge"><title>Node1&#45;&gt;Node6</title>
<path fill="none" stroke="midnightblue" d="M499.554,-49.8197C511.378,-40.1452 526.286,-27.9481 536.203,-19.8339"/>
<polygon fill="midnightblue" stroke="midnightblue" points="497.127,-47.2827 491.604,-56.324 501.56,-52.7004 497.127,-47.2827"/>
</g>
<!-- Node7 -->
<g id="node13" class="node"><title>Node7</title>
<a xlink:href="../../d6/d13/xmpp__core_8c.html" target="_top" xlink:title="Handles base stanza routing.">
<polygon fill="none" stroke="black" points="624.5,-0.5 624.5,-19.5 731.5,-19.5 731.5,-0.5 624.5,-0.5"/>
<text text-anchor="middle" x="678" y="-7.5" font-family="DejaVuSansMono" font-size="10.00">src/xmpp_core.c</text>
</a>
</g>
<!-- Node1&#45;&gt;Node7 -->
<g id="edge12" class="edge"><title>Node1&#45;&gt;Node7</title>
<path fill="none" stroke="midnightblue" d="M522.229,-53.6986C559.409,-43.507 613.271,-28.7429 646.931,-19.5164"/>
<polygon fill="midnightblue" stroke="midnightblue" points="520.934,-50.4244 512.215,-56.4435 522.785,-57.1754 520.934,-50.4244"/>
</g>
<!-- Node8 -->
<g id="node15" class="node"><title>Node8</title>
<a xlink:href="../../dc/da6/xmpp__im_8c.html" target="_top" xlink:title="Implements the parsing for RFC6121 IM and Presence.">
<polygon fill="none" stroke="black" points="749.5,-0.5 749.5,-19.5 844.5,-19.5 844.5,-0.5 749.5,-0.5"/>
<text text-anchor="middle" x="797" y="-7.5" font-family="DejaVuSansMono" font-size="10.00">src/xmpp_im.c</text>
</a>
</g>
<!-- Node1&#45;&gt;Node8 -->
<g id="edge14" class="edge"><title>Node1&#45;&gt;Node8</title>
<path fill="none" stroke="midnightblue" d="M541.25,-54.704C601.803,-44.3564 693.908,-28.6171 749.488,-19.1192"/>
<polygon fill="midnightblue" stroke="midnightblue" points="540.339,-51.309 531.071,-56.4435 541.518,-58.209 540.339,-51.309"/>
</g>
<!-- Node9 -->
<g id="node17" class="node"><title>Node9</title>
<a xlink:href="../../d0/df0/xmpp__server_8c.html" target="_top" xlink:title="Main XMPP server data/functions.">
<polygon fill="none" stroke="black" points="862.5,-0.5 862.5,-19.5 981.5,-19.5 981.5,-0.5 862.5,-0.5"/>
<text text-anchor="middle" x="922" y="-7.5" font-family="DejaVuSansMono" font-size="10.00">src/xmpp_server.c</text>
</a>
</g>
<!-- Node1&#45;&gt;Node9 -->
<g id="edge16" class="edge"><title>Node1&#45;&gt;Node9</title>
<path fill="none" stroke="midnightblue" d="M550.848,-56.7475C625.626,-47.8664 747.738,-33.2312 853,-20 855.997,-19.6233 859.066,-19.2344 862.165,-18.8392"/>
<polygon fill="midnightblue" stroke="midnightblue" points="550.135,-53.3074 540.617,-57.9617 550.96,-60.2587 550.135,-53.3074"/>
</g>
</g>
</svg>
        <g id="navigator" transform="translate(0 0)" fill="#404254">
                <rect fill="#f2f5e9" fill-opacity="0.5" stroke="#606060" stroke-width=".5" x="0" y="0" width="60" height="60"/>
                <use id="zoomplus" xlink:href="#zoomPlus" x="17" y="9" onmousedown="handleZoom(evt,'in')"/>
                <use id="zoomminus" xlink:href="#zoomMin" x="42" y="9" onmousedown="handleZoom(evt,'out')"/>
                <use id="reset" xlink:href="#resetDef" x="30" y="36" onmousedown="handleReset()"/>
                <g id="arrowUp" xlink:href="#dirArrow" transform="translate(30 24)" onmousedown="handlePan(0,-1)">
                  <use xlink:href="#rim" fill="#404040">
                        <set attributeName="fill" to="#808080" begin="arrowUp.mouseover" end="arrowUp.mouseout"/>
                  </use>
                  <path fill="none" stroke="white" stroke-width="1.5" d="M0,-3.0v7 M-2.5,-0.5L0,-3.0L2.5,-0.5"/>
                </g>
                <g id="arrowRight" xlink:href="#dirArrow" transform="rotate(90) translate(36 -43)" onmousedown="handlePan(1,0)">
                  <use xlink:href="#rim" fill="#404040">
                        <set attributeName="fill" to="#808080" begin="arrowRight.mouseover" end="arrowRight.mouseout"/>
                  </use>
                  <path fill="none" stroke="white" stroke-width="1.5" d="M0,-3.0v7 M-2.5,-0.5L0,-3.0L2.5,-0.5"/>
                </g>
                <g id="arrowDown" xlink:href="#dirArrow" transform="rotate(180) translate(-30 -48)" onmousedown="handlePan(0,1)">
                  <use xlink:href="#rim" fill="#404040">
                        <set attributeName="fill" to="#808080" begin="arrowDown.mouseover" end="arrowDown.mouseout"/>
                  </use>
                  <path fill="none" stroke="white" stroke-width="1.5" d="M0,-3.0v7 M-2.5,-0.5L0,-3.0L2.5,-0.5"/>
                </g>
                <g id="arrowLeft" xlink:href="#dirArrow" transform="rotate(270) translate(-36 17)" onmousedown="handlePan(-1,0)">
                  <use xlink:href="#rim" fill="#404040">
                        <set attributeName="fill" to="#808080" begin="arrowLeft.mouseover" end="arrowLeft.mouseout"/>
                  </use>
                  <path fill="none" stroke="white" stroke-width="1.5" d="M0,-3.0v7 M-2.5,-0.5L0,-3.0L2.5,-0.5"/>
                </g>
        </g>
        <svg viewBox="0 0 25 25" width="100%" height="30px" preserveAspectRatio="xMaxYMin meet"> 
          <g id="printButton" transform="scale(0.4 0.4)" onmousedown="handlePrint(evt)">
            <rect height="23.33753581" id="paper" rx="2" style="fill:#f2f5e9;fill-rule:evenodd;stroke:#111111;stroke-width:3.224;stroke-linejoin:round;" transform="matrix(1.000000,0.000000,-0.339266,0.940691,0.000000,0.000000)" width="25.55231285" x="26.69387353" y="7.36162977"/>
            <rect height="26.272097" id="body" rx="2" style="fill:#404040;fill-rule:evenodd;stroke:#111111;stroke-width:3.125;stroke-linejoin:round;" width="50" x="4.5295201" y="27.078951"/>
            <rect height="8.27750969" id="tray" style="fill:#d2d5c9;fill-rule:evenodd;stroke:#111111;stroke-width:3.125;stroke-linecap:round;stroke-linejoin:round;" width="40" x="10.28778839" y="44.96812282"/>
          </g>
        </svg>
</svg>
