<?xml version="1.0" encoding="UTF-8" standalone="no"?>
<!DOCTYPE svg PUBLIC "-//W3C//DTD SVG 1.1//EN"
 "http://www.w3.org/Graphics/SVG/1.1/DTD/svg11.dtd">
<!-- Generated by graphviz version 2.28.0 (20120217.0315)
 -->
<!-- Title: G Pages: 1 -->
<!--zoomable 84 -->
<svg id="main" version="1.1" xmlns="http://www.w3.org/2000/svg" xmlns:xlink="http://www.w3.org/1999/xlink" xml:space="preserve" onload="init(evt)">
        <defs>
                <circle id="rim" cx="0" cy="0" r="7"/>
                <circle id="rim2" cx="0" cy="0" r="3.5"/>
                <g id="zoomPlus">
                        <use xlink:href="#rim" fill="#404040">
                                <set attributeName="fill" to="#808080" begin="zoomplus.mouseover" end="zoomplus.mouseout"/>
                        </use>
                        <path d="M-4,0h8M0,-4v8" fill="none" stroke="white" stroke-width="1.5" pointer-events="none"/>
                </g>
                <g id="zoomMin">
                        <use xlink:href="#rim" fill="#404040">
                                <set attributeName="fill" to="#808080" begin="zoomminus.mouseover" end="zoomminus.mouseout"/>
                        </use>
                        <path d="M-4,0h8" fill="none" stroke="white" stroke-width="1.5" pointer-events="none"/>
                </g>
                <g id="dirArrow">
                        <path fill="none" stroke="white" stroke-width="1.5" d="M0,-3.0v7 M-2.5,-0.5L0,-3.0L2.5,-0.5"/>
                </g>
               <g id="resetDef">
                       <use xlink:href="#rim2" fill="#404040">
                               <set attributeName="fill" to="#808080" begin="reset.mouseover" end="reset.mouseout"/>
                       </use>
               </g>
        </defs>

<script type="text/javascript">
var viewWidth = 965;
var viewHeight = 84;
var sectionId = 'dynsection-0';
</script>
<script xlink:href="../../svgpan.js"/>
<svg id="graph" class="graph">
<g id="viewport">
<title>G</title>
<!-- Node1 -->
<g id="node1" class="node"><title>Node1</title>
<polygon fill="#bfbfbf" stroke="black" points="399.5,-56.5 399.5,-75.5 470.5,-75.5 470.5,-56.5 399.5,-56.5"/>
<text text-anchor="middle" x="435" y="-63.5" font-family="DejaVuSansMono" font-size="10.00">src/jid.h</text>
</g>
<!-- Node2 -->
<g id="node3" class="node"><title>Node2</title>
<a xlink:href="../../d3/d5a/jid_8c.html" target="_top" xlink:title="Defines structures and functions for XMP3 extension modules.">
<polygon fill="none" stroke="black" points="-0.5,-0.5 -0.5,-19.5 70.5,-19.5 70.5,-0.5 -0.5,-0.5"/>
<text text-anchor="middle" x="35" y="-7.5" font-family="DejaVuSansMono" font-size="10.00">src/jid.c</text>
</a>
</g>
<!-- Node1&#45;&gt;Node2 -->
<g id="edge2" class="edge"><title>Node1&#45;&gt;Node2</title>
<path fill="none" stroke="midnightblue" d="M388.884,-60.3037C320.857,-53.12 189.705,-38.2918 79,-20 76.3845,-19.5678 73.6876,-19.0917 70.977,-18.5909"/>
<polygon fill="midnightblue" stroke="midnightblue" points="388.936,-63.8283 399.247,-61.3904 389.666,-56.8665 388.936,-63.8283"/>
</g>
<!-- Node3 -->
<g id="node5" class="node"><title>Node3</title>
<a xlink:href="../../d0/d29/main_8c.html" target="_top" xlink:title="Main function and argument parsing.">
<polygon fill="none" stroke="black" points="88.5,-0.5 88.5,-19.5 165.5,-19.5 165.5,-0.5 88.5,-0.5"/>
<text text-anchor="middle" x="127" y="-7.5" font-family="DejaVuSansMono" font-size="10.00">src/main.c</text>
</a>
</g>
<!-- Node1&#45;&gt;Node3 -->
<g id="edge4" class="edge"><title>Node1&#45;&gt;Node3</title>
<path fill="none" stroke="midnightblue" d="M389.133,-57.3553C336.973,-48.6005 249.28,-33.696 174,-20 171.303,-19.5093 168.52,-18.9955 165.718,-18.4728"/>
<polygon fill="midnightblue" stroke="midnightblue" points="388.636,-60.8208 399.077,-59.0221 389.794,-53.9171 388.636,-60.8208"/>
</g>
<!-- Node4 -->
<g id="node7" class="node"><title>Node4</title>
<a xlink:href="../../d7/d71/xep__muc_8c.html" target="_top" xlink:title="Implements XEP&#45;0045 Multi&#45;User Chat.">
<polygon fill="none" stroke="black" points="183.5,-0.5 183.5,-19.5 278.5,-19.5 278.5,-0.5 183.5,-0.5"/>
<text text-anchor="middle" x="231" y="-7.5" font-family="DejaVuSansMono" font-size="10.00">src/xep_muc.c</text>
</a>
</g>
<!-- Node1&#45;&gt;Node4 -->
<g id="edge6" class="edge"><title>Node1&#45;&gt;Node4</title>
<path fill="none" stroke="midnightblue" d="M392.799,-53.8291C354.282,-43.6333 298.178,-28.7823 263.173,-19.5164"/>
<polygon fill="midnightblue" stroke="midnightblue" points="392.113,-57.268 402.676,-56.4435 393.904,-50.5011 392.113,-57.268"/>
</g>
<!-- Node5 -->
<g id="node9" class="node"><title>Node5</title>
<a xlink:href="../../d6/d78/xmp3__multicast_8c.html" target="_top" xlink:title="Simple extension module that multicasts messages to other XMP3 instances.">
<polygon fill="none" stroke="black" points="296.5,-0.5 296.5,-19.5 433.5,-19.5 433.5,-0.5 296.5,-0.5"/>
<text text-anchor="middle" x="365" y="-7.5" font-family="DejaVuSansMono" font-size="10.00">src/xmp3_multicast.c</text>
</a>
</g>
<!-- Node1&#45;&gt;Node5 -->
<g id="edge8" class="edge"><title>Node1&#45;&gt;Node5</title>
<path fill="none" stroke="midnightblue" d="M415.686,-50.1008C403.088,-40.3824 387.072,-28.0269 376.451,-19.8339"/>
<polygon fill="midnightblue" stroke="midnightblue" points="413.698,-52.9871 423.753,-56.324 417.973,-47.4446 413.698,-52.9871"/>
</g>
<!-- Node6 -->
<g id="node11" class="node"><title>Node6</title>
<a xlink:href="../../df/da9/xmpp__auth_8c.html" target="_top" xlink:title="Implement initial XMPP authendication.">
<polygon fill="none" stroke="black" points="451.5,-0.5 451.5,-19.5 558.5,-19.5 558.5,-0.5 451.5,-0.5"/>
<text text-anchor="middle" x="505" y="-7.5" font-family="DejaVuSansMono" font-size="10.00">src/xmpp_auth.c</text>
</a>
</g>
<!-- Node1&#45;&gt;Node6 -->
<g id="edge10" class="edge"><title>Node1&#45;&gt;Node6</title>
<path fill="none" stroke="midnightblue" d="M454.314,-50.1008C466.912,-40.3824 482.928,-28.0269 493.549,-19.8339"/>
<polygon fill="midnightblue" stroke="midnightblue" points="452.027,-47.4446 446.247,-56.324 456.302,-52.9871 452.027,-47.4446"/>
</g>
<!-- Node7 -->
<g id="node13" class="node"><title>Node7</title>
<a xlink:href="../../dd/d4d/xmpp__client_8c.html" target="_top" xlink:title="A connected XMPP server client.">
<polygon fill="none" stroke="black" points="576.5,-0.5 576.5,-19.5 695.5,-19.5 695.5,-0.5 576.5,-0.5"/>
<text text-anchor="middle" x="636" y="-7.5" font-family="DejaVuSansMono" font-size="10.00">src/xmpp_client.c</text>
</a>
</g>
<!-- Node1&#45;&gt;Node7 -->
<g id="edge12" class="edge"><title>Node1&#45;&gt;Node7</title>
<path fill="none" stroke="midnightblue" d="M476.581,-53.8291C514.531,-43.6333 569.81,-28.7823 604.3,-19.5164"/>
<polygon fill="midnightblue" stroke="midnightblue" points="475.598,-50.4688 466.849,-56.4435 477.415,-57.229 475.598,-50.4688"/>
</g>
<!-- Node8 -->
<g id="node15" class="node"><title>Node8</title>
<a xlink:href="../../d6/d13/xmpp__core_8c.html" target="_top" xlink:title="Handles base stanza routing.">
<polygon fill="none" stroke="black" points="713.5,-0.5 713.5,-19.5 820.5,-19.5 820.5,-0.5 713.5,-0.5"/>
<text text-anchor="middle" x="767" y="-7.5" font-family="DejaVuSansMono" font-size="10.00">src/xmpp_core.c</text>
</a>
</g>
<!-- Node1&#45;&gt;Node8 -->
<g id="edge14" class="edge"><title>Node1&#45;&gt;Node8</title>
<path fill="none" stroke="midnightblue" d="M480.658,-57.5737C541.843,-47.6219 650.182,-30.0005 714.617,-19.5201"/>
<polygon fill="midnightblue" stroke="midnightblue" points="479.838,-54.161 470.53,-59.2211 480.962,-61.0702 479.838,-54.161"/>
</g>
<!-- Node9 -->
<g id="node17" class="node"><title>Node9</title>
<a xlink:href="../../d0/df0/xmpp__server_8c.html" target="_top" xlink:title="Main XMPP server data/functions.">
<polygon fill="none" stroke="black" points="838.5,-0.5 838.5,-19.5 957.5,-19.5 957.5,-0.5 838.5,-0.5"/>
<text text-anchor="middle" x="898" y="-7.5" font-family="DejaVuSansMono" font-size="10.00">src/xmpp_server.c</text>
</a>
</g>
<!-- Node1&#45;&gt;Node9 -->
<g id="edge16" class="edge"><title>Node1&#45;&gt;Node9</title>
<path fill="none" stroke="midnightblue" d="M480.898,-59.9985C554.42,-51.9329 703.127,-35.3963 829,-20 831.998,-19.6333 835.068,-19.2524 838.168,-18.8636"/>
<polygon fill="midnightblue" stroke="midnightblue" points="480.168,-56.5576 470.608,-61.1259 480.93,-63.5159 480.168,-56.5576"/>
</g>
</g>
</svg>
        <g id="navigator" transform="translate(0 0)" fill="#404254">
                <rect fill="#f2f5e9" fill-opacity="0.5" stroke="#606060" stroke-width=".5" x="0" y="0" width="60" height="60"/>
                <use id="zoomplus" xlink:href="#zoomPlus" x="17" y="9" onmousedown="handleZoom(evt,'in')"/>
                <use id="zoomminus" xlink:href="#zoomMin" x="42" y="9" onmousedown="handleZoom(evt,'out')"/>
                <use id="reset" xlink:href="#resetDef" x="30" y="36" onmousedown="handleReset()"/>
                <g id="arrowUp" xlink:href="#dirArrow" transform="translate(30 24)" onmousedown="handlePan(0,-1)">
                  <use xlink:href="#rim" fill="#404040">
                        <set attributeName="fill" to="#808080" begin="arrowUp.mouseover" end="arrowUp.mouseout"/>
                  </use>
                  <path fill="none" stroke="white" stroke-width="1.5" d="M0,-3.0v7 M-2.5,-0.5L0,-3.0L2.5,-0.5"/>
                </g>
                <g id="arrowRight" xlink:href="#dirArrow" transform="rotate(90) translate(36 -43)" onmousedown="handlePan(1,0)">
                  <use xlink:href="#rim" fill="#404040">
                        <set attributeName="fill" to="#808080" begin="arrowRight.mouseover" end="arrowRight.mouseout"/>
                  </use>
                  <path fill="none" stroke="white" stroke-width="1.5" d="M0,-3.0v7 M-2.5,-0.5L0,-3.0L2.5,-0.5"/>
                </g>
                <g id="arrowDown" xlink:href="#dirArrow" transform="rotate(180) translate(-30 -48)" onmousedown="handlePan(0,1)">
                  <use xlink:href="#rim" fill="#404040">
                        <set attributeName="fill" to="#808080" begin="arrowDown.mouseover" end="arrowDown.mouseout"/>
                  </use>
                  <path fill="none" stroke="white" stroke-width="1.5" d="M0,-3.0v7 M-2.5,-0.5L0,-3.0L2.5,-0.5"/>
                </g>
                <g id="arrowLeft" xlink:href="#dirArrow" transform="rotate(270) translate(-36 17)" onmousedown="handlePan(-1,0)">
                  <use xlink:href="#rim" fill="#404040">
                        <set attributeName="fill" to="#808080" begin="arrowLeft.mouseover" end="arrowLeft.mouseout"/>
                  </use>
                  <path fill="none" stroke="white" stroke-width="1.5" d="M0,-3.0v7 M-2.5,-0.5L0,-3.0L2.5,-0.5"/>
                </g>
        </g>
        <svg viewBox="0 0 25 25" width="100%" height="30px" preserveAspectRatio="xMaxYMin meet"> 
          <g id="printButton" transform="scale(0.4 0.4)" onmousedown="handlePrint(evt)">
            <rect height="23.33753581" id="paper" rx="2" style="fill:#f2f5e9;fill-rule:evenodd;stroke:#111111;stroke-width:3.224;stroke-linejoin:round;" transform="matrix(1.000000,0.000000,-0.339266,0.940691,0.000000,0.000000)" width="25.55231285" x="26.69387353" y="7.36162977"/>
            <rect height="26.272097" id="body" rx="2" style="fill:#404040;fill-rule:evenodd;stroke:#111111;stroke-width:3.125;stroke-linejoin:round;" width="50" x="4.5295201" y="27.078951"/>
            <rect height="8.27750969" id="tray" style="fill:#d2d5c9;fill-rule:evenodd;stroke:#111111;stroke-width:3.125;stroke-linecap:round;stroke-linejoin:round;" width="40" x="10.28778839" y="44.96812282"/>
          </g>
        </svg>
</svg>
