<?xml version="1.0" encoding="UTF-8" standalone="no"?>
<!DOCTYPE svg PUBLIC "-//W3C//DTD SVG 1.1//EN"
 "http://www.w3.org/Graphics/SVG/1.1/DTD/svg11.dtd">
<!-- Generated by graphviz version 2.28.0 (20120217.0315)
 -->
<!-- Title: G Pages: 1 -->
<!--zoomable 440 -->
<svg id="main" version="1.1" xmlns="http://www.w3.org/2000/svg" xmlns:xlink="http://www.w3.org/1999/xlink" xml:space="preserve" onload="init(evt)">
        <defs>
                <circle id="rim" cx="0" cy="0" r="7"/>
                <circle id="rim2" cx="0" cy="0" r="3.5"/>
                <g id="zoomPlus">
                        <use xlink:href="#rim" fill="#404040">
                                <set attributeName="fill" to="#808080" begin="zoomplus.mouseover" end="zoomplus.mouseout"/>
                        </use>
                        <path d="M-4,0h8M0,-4v8" fill="none" stroke="white" stroke-width="1.5" pointer-events="none"/>
                </g>
                <g id="zoomMin">
                        <use xlink:href="#rim" fill="#404040">
                                <set attributeName="fill" to="#808080" begin="zoomminus.mouseover" end="zoomminus.mouseout"/>
                        </use>
                        <path d="M-4,0h8" fill="none" stroke="white" stroke-width="1.5" pointer-events="none"/>
                </g>
                <g id="dirArrow">
                        <path fill="none" stroke="white" stroke-width="1.5" d="M0,-3.0v7 M-2.5,-0.5L0,-3.0L2.5,-0.5"/>
                </g>
               <g id="resetDef">
                       <use xlink:href="#rim2" fill="#404040">
                               <set attributeName="fill" to="#808080" begin="reset.mouseover" end="reset.mouseout"/>
                       </use>
               </g>
        </defs>

<script type="text/javascript">
var viewWidth = 1370;
var viewHeight = 440;
var sectionId = 'dynsection-7';
</script>
<script xlink:href="../../svgpan.js"/>
<svg id="graph" class="graph">
<g id="viewport">
<title>G</title>
<!-- Node1 -->
<g id="node1" class="node"><title>Node1</title>
<polygon fill="#bfbfbf" stroke="black" points="0.5,-154.5 0.5,-173.5 95.5,-173.5 95.5,-154.5 0.5,-154.5"/>
<text text-anchor="middle" x="48" y="-161.5" font-family="DejaVuSansMono" font-size="10.00">multicast_new</text>
</g>
<!-- Node2 -->
<g id="node3" class="node"><title>Node2</title>
<a xlink:href="../../d1/dc2/xmpp__parser_8c.html#adf25a1d2047994dfa6cc71a9482548c2" target="_top" xlink:title="xmpp_parser_new">
<polygon fill="none" stroke="black" points="156.5,-235.5 156.5,-254.5 263.5,-254.5 263.5,-235.5 156.5,-235.5"/>
<text text-anchor="middle" x="210" y="-242.5" font-family="DejaVuSansMono" font-size="10.00">xmpp_parser_new</text>
</a>
</g>
<!-- Node1&#45;&gt;Node2 -->
<g id="edge2" class="edge"><title>Node1&#45;&gt;Node2</title>
<path fill="none" stroke="midnightblue" d="M67.9824,-173.61C96.0092,-187.798 148.635,-214.44 181.07,-230.861"/>
<polygon fill="midnightblue" stroke="midnightblue" points="179.54,-234.009 190.042,-235.403 182.701,-227.763 179.54,-234.009"/>
</g>
<!-- Node25 -->
<g id="node54" class="node"><title>Node25</title>
<a xlink:href="../../d1/dc2/xmpp__parser_8c.html#a4b76e73aab788d1a49c67151aa027d88" target="_top" xlink:title="xmpp_parser_set_handler">
<polygon fill="none" stroke="black" points="132.5,-173.5 132.5,-192.5 287.5,-192.5 287.5,-173.5 132.5,-173.5"/>
<text text-anchor="middle" x="210" y="-180.5" font-family="DejaVuSansMono" font-size="10.00">xmpp_parser_set_handler</text>
</a>
</g>
<!-- Node1&#45;&gt;Node25 -->
<g id="edge58" class="edge"><title>Node1&#45;&gt;Node25</title>
<path fill="none" stroke="midnightblue" d="M95.7087,-169.547C104.176,-170.552 113.249,-171.63 122.438,-172.721"/>
<polygon fill="midnightblue" stroke="midnightblue" points="122.088,-176.204 132.431,-173.907 122.914,-169.253 122.088,-176.204"/>
</g>
<!-- Node26 -->
<g id="node56" class="node"><title>Node26</title>
<a xlink:href="../../d6/d78/xmp3__multicast_8c.html#a6c09d6ba5f9adac2980596c21f7e29b0" target="_top" xlink:title="remote_stanza_handler">
<polygon fill="none" stroke="black" points="138.5,-135.5 138.5,-154.5 281.5,-154.5 281.5,-135.5 138.5,-135.5"/>
<text text-anchor="middle" x="210" y="-142.5" font-family="DejaVuSansMono" font-size="10.00">remote_stanza_handler</text>
</a>
</g>
<!-- Node1&#45;&gt;Node26 -->
<g id="edge60" class="edge"><title>Node1&#45;&gt;Node26</title>
<path fill="none" stroke="midnightblue" d="M95.7087,-158.453C105.949,-157.237 117.074,-155.916 128.22,-154.593"/>
<polygon fill="midnightblue" stroke="midnightblue" points="128.919,-158.034 138.437,-153.379 128.094,-151.083 128.919,-158.034"/>
</g>
<!-- Node34 -->
<g id="node73" class="node"><title>Node34</title>
<a xlink:href="../../d1/dc2/xmpp__parser_8c.html#afcf5f55c5d72ea0ecfba2b096a69297c" target="_top" xlink:title="xmpp_parser_set_data">
<polygon fill="none" stroke="black" points="141.5,-97.5 141.5,-116.5 278.5,-116.5 278.5,-97.5 141.5,-97.5"/>
<text text-anchor="middle" x="210" y="-104.5" font-family="DejaVuSansMono" font-size="10.00">xmpp_parser_set_data</text>
</a>
</g>
<!-- Node1&#45;&gt;Node34 -->
<g id="edge78" class="edge"><title>Node1&#45;&gt;Node34</title>
<path fill="none" stroke="midnightblue" d="M67.3778,-154.374C83.9299,-146 109.105,-133.986 132,-126 139.141,-123.509 146.763,-121.212 154.33,-119.141"/>
<polygon fill="midnightblue" stroke="midnightblue" points="155.418,-122.474 164.202,-116.551 153.641,-115.703 155.418,-122.474"/>
</g>
<!-- Node3 -->
<g id="node5" class="node"><title>Node3</title>
<a xlink:href="../../d1/dc2/xmpp__parser_8c.html#a03a135f29e3d4e01abbb60e53ac6967c" target="_top" xlink:title="init_parser">
<polygon fill="none" stroke="black" points="363.5,-247.5 363.5,-266.5 446.5,-266.5 446.5,-247.5 363.5,-247.5"/>
<text text-anchor="middle" x="405" y="-254.5" font-family="DejaVuSansMono" font-size="10.00">init_parser</text>
</a>
</g>
<!-- Node2&#45;&gt;Node3 -->
<g id="edge4" class="edge"><title>Node2&#45;&gt;Node3</title>
<path fill="none" stroke="midnightblue" d="M263.738,-248.279C291.547,-250.008 325.508,-252.12 353.047,-253.832"/>
<polygon fill="midnightblue" stroke="midnightblue" points="353.063,-257.34 363.261,-254.467 353.498,-250.353 353.063,-257.34"/>
</g>
<!-- Node4 -->
<g id="node7" class="node"><title>Node4</title>
<a xlink:href="../../d1/dc2/xmpp__parser_8c.html#a0f2993ab3e982d5e2b4a5635dcaf291c" target="_top" xlink:title="Expat callback for the start of any other element.">
<polygon fill="none" stroke="black" points="732.5,-398.5 732.5,-417.5 779.5,-417.5 779.5,-398.5 732.5,-398.5"/>
<text text-anchor="middle" x="756" y="-405.5" font-family="DejaVuSansMono" font-size="10.00">start</text>
</a>
</g>
<!-- Node3&#45;&gt;Node4 -->
<g id="edge6" class="edge"><title>Node3&#45;&gt;Node4</title>
<path fill="none" stroke="midnightblue" d="M414.907,-266.642C433.116,-285.756 476.719,-328.539 522,-351 588.626,-384.049 675.686,-398.727 722.246,-404.582"/>
<polygon fill="midnightblue" stroke="midnightblue" points="722.015,-408.079 732.36,-405.794 722.848,-401.129 722.015,-408.079"/>
</g>
<!-- Node11 -->
<g id="node21" class="node"><title>Node11</title>
<a xlink:href="../../d1/dc2/xmpp__parser_8c.html#adc3f7670edafd5b590af11d276887f1e" target="_top" xlink:title="Expat callback for end elements.">
<polygon fill="none" stroke="black" points="564.5,-266.5 564.5,-285.5 599.5,-285.5 599.5,-266.5 564.5,-266.5"/>
<text text-anchor="middle" x="582" y="-273.5" font-family="DejaVuSansMono" font-size="10.00">end</text>
</a>
</g>
<!-- Node3&#45;&gt;Node11 -->
<g id="edge20" class="edge"><title>Node3&#45;&gt;Node11</title>
<path fill="none" stroke="midnightblue" d="M446.588,-261.407C479.715,-265.003 525.579,-269.983 554.253,-273.096"/>
<polygon fill="midnightblue" stroke="midnightblue" points="554.02,-276.591 564.339,-274.191 554.775,-269.632 554.02,-276.591"/>
</g>
<!-- Node21 -->
<g id="node42" class="node"><title>Node21</title>
<a xlink:href="../../d1/dc2/xmpp__parser_8c.html#a78918dc72ccbf110d41d34080ebbf014" target="_top" xlink:title="Expat callback for XML data.">
<polygon fill="none" stroke="black" points="549.5,-228.5 549.5,-247.5 614.5,-247.5 614.5,-228.5 549.5,-228.5"/>
<text text-anchor="middle" x="582" y="-235.5" font-family="DejaVuSansMono" font-size="10.00">chardata</text>
</a>
</g>
<!-- Node3&#45;&gt;Node21 -->
<g id="edge42" class="edge"><title>Node3&#45;&gt;Node21</title>
<path fill="none" stroke="midnightblue" d="M446.588,-252.593C474.343,-249.58 511.039,-245.596 539.075,-242.552"/>
<polygon fill="midnightblue" stroke="midnightblue" points="539.796,-245.994 549.36,-241.435 539.04,-239.035 539.796,-245.994"/>
</g>
<!-- Node23 -->
<g id="node46" class="node"><title>Node23</title>
<a xlink:href="../../d1/dc2/xmpp__parser_8c.html#a97bcfc9f28eea4b3aa3a7d8ac7af8aee" target="_top" xlink:title="Expat callback for namespace declarations.">
<polygon fill="none" stroke="black" points="549.5,-190.5 549.5,-209.5 614.5,-209.5 614.5,-190.5 549.5,-190.5"/>
<text text-anchor="middle" x="582" y="-197.5" font-family="DejaVuSansMono" font-size="10.00">ns_start</text>
</a>
</g>
<!-- Node3&#45;&gt;Node23 -->
<g id="edge46" class="edge"><title>Node3&#45;&gt;Node23</title>
<path fill="none" stroke="midnightblue" d="M435.067,-247.433C458.521,-239.725 492.372,-228.624 522,-219 528.246,-216.971 534.868,-214.83 541.33,-212.745"/>
<polygon fill="midnightblue" stroke="midnightblue" points="542.834,-215.938 551.278,-209.539 540.687,-209.275 542.834,-215.938"/>
</g>
<!-- Node24 -->
<g id="node48" class="node"><title>Node24</title>
<a xlink:href="../../d1/dc2/xmpp__parser_8c.html#a2268b636f6d02bbe04f3033ff93d829c" target="_top" xlink:title="Expat callback for the start of an XMPP stream.">
<polygon fill="none" stroke="black" points="537.5,-322.5 537.5,-341.5 626.5,-341.5 626.5,-322.5 537.5,-322.5"/>
<text text-anchor="middle" x="582" y="-329.5" font-family="DejaVuSansMono" font-size="10.00">stream_start</text>
</a>
</g>
<!-- Node3&#45;&gt;Node24 -->
<g id="edge48" class="edge"><title>Node3&#45;&gt;Node24</title>
<path fill="none" stroke="midnightblue" d="M428.52,-266.651C459.234,-279.815 514.421,-303.466 549.304,-318.416"/>
<polygon fill="midnightblue" stroke="midnightblue" points="547.996,-321.663 558.567,-322.386 550.754,-315.229 547.996,-321.663"/>
</g>
<!-- Node5 -->
<g id="node9" class="node"><title>Node5</title>
<a xlink:href="../../d1/d59/xmpp__stanza_8c.html#aa2b621549a5e0499793adbec29964932" target="_top" xlink:title="Allocate stanza with namespace information.">
<polygon fill="none" stroke="black" points="891.5,-374.5 891.5,-393.5 1016.5,-393.5 1016.5,-374.5 891.5,-374.5"/>
<text text-anchor="middle" x="954" y="-381.5" font-family="DejaVuSansMono" font-size="10.00">xmpp_stanza_ns_new</text>
</a>
</g>
<!-- Node4&#45;&gt;Node5 -->
<g id="edge8" class="edge"><title>Node4&#45;&gt;Node5</title>
<path fill="none" stroke="midnightblue" d="M779.867,-405.2C804.697,-402.16 845.608,-397.15 881.428,-392.764"/>
<polygon fill="midnightblue" stroke="midnightblue" points="881.878,-396.235 891.378,-391.546 881.027,-389.287 881.878,-396.235"/>
</g>
<!-- Node9 -->
<g id="node17" class="node"><title>Node9</title>
<a xlink:href="../../d1/d59/xmpp__stanza_8c.html#ac13c8bb45e2ca03b99836e8d52b265b4" target="_top" xlink:title="Appends a child stanza.">
<polygon fill="none" stroke="black" points="873.5,-412.5 873.5,-431.5 1034.5,-431.5 1034.5,-412.5 873.5,-412.5"/>
<text text-anchor="middle" x="954" y="-419.5" font-family="DejaVuSansMono" font-size="10.00">xmpp_stanza_append_child</text>
</a>
</g>
<!-- Node4&#45;&gt;Node9 -->
<g id="edge16" class="edge"><title>Node4&#45;&gt;Node9</title>
<path fill="none" stroke="midnightblue" d="M779.867,-409.633C800.462,-411.104 832.12,-413.366 862.76,-415.554"/>
<polygon fill="midnightblue" stroke="midnightblue" points="862.871,-419.071 873.095,-416.292 863.37,-412.089 862.871,-419.071"/>
</g>
<!-- Node6 -->
<g id="node11" class="node"><title>Node6</title>
<a xlink:href="../../d1/d59/xmpp__stanza_8c.html#aa80dd21d794b5c63fcb13c49745cc373" target="_top" xlink:title="Allocate and initialize a new XMPP stanza structure.">
<polygon fill="none" stroke="black" points="1113.5,-374.5 1113.5,-393.5 1220.5,-393.5 1220.5,-374.5 1113.5,-374.5"/>
<text text-anchor="middle" x="1167" y="-381.5" font-family="DejaVuSansMono" font-size="10.00">xmpp_stanza_new</text>
</a>
</g>
<!-- Node5&#45;&gt;Node6 -->
<g id="edge10" class="edge"><title>Node5&#45;&gt;Node6</title>
<path fill="none" stroke="midnightblue" d="M1016.6,-384C1043.78,-384 1075.69,-384 1103.03,-384"/>
<polygon fill="midnightblue" stroke="midnightblue" points="1103.26,-387.5 1113.26,-384 1103.26,-380.5 1103.26,-387.5"/>
</g>
<!-- Node7 -->
<g id="node13" class="node"><title>Node7</title>
<a xlink:href="../../d1/d59/xmpp__stanza_8c.html#a5a80203f56df7a360fa457c0111686f6" target="_top" xlink:title="Parse the namespace triple that Expat gives us.">
<polygon fill="none" stroke="black" points="1296.5,-393.5 1296.5,-412.5 1361.5,-412.5 1361.5,-393.5 1296.5,-393.5"/>
<text text-anchor="middle" x="1329" y="-400.5" font-family="DejaVuSansMono" font-size="10.00">parse_ns</text>
</a>
</g>
<!-- Node6&#45;&gt;Node7 -->
<g id="edge12" class="edge"><title>Node6&#45;&gt;Node7</title>
<path fill="none" stroke="midnightblue" d="M1220.83,-390.274C1242.07,-392.796 1266.21,-395.662 1286.19,-398.035"/>
<polygon fill="midnightblue" stroke="midnightblue" points="1285.88,-401.523 1296.23,-399.227 1286.71,-394.572 1285.88,-401.523"/>
</g>
<!-- Node8 -->
<g id="node15" class="node"><title>Node8</title>
<a xlink:href="../../d1/d59/xmpp__stanza_8c.html#aff4b8f6e10ce1c351d2a5bc39f0e819f" target="_top" xlink:title="Convenience function to build a key for the attribute hash table.">
<polygon fill="none" stroke="black" points="1296.5,-355.5 1296.5,-374.5 1361.5,-374.5 1361.5,-355.5 1296.5,-355.5"/>
<text text-anchor="middle" x="1329" y="-362.5" font-family="DejaVuSansMono" font-size="10.00">make_key</text>
</a>
</g>
<!-- Node6&#45;&gt;Node8 -->
<g id="edge14" class="edge"><title>Node6&#45;&gt;Node8</title>
<path fill="none" stroke="midnightblue" d="M1220.83,-377.726C1242.07,-375.204 1266.21,-372.338 1286.19,-369.965"/>
<polygon fill="midnightblue" stroke="midnightblue" points="1286.71,-373.428 1296.23,-368.773 1285.88,-366.477 1286.71,-373.428"/>
</g>
<!-- Node10 -->
<g id="node19" class="node"><title>Node10</title>
<a xlink:href="../../d1/d59/xmpp__stanza_8c.html#afc77f00b7f38c79566a7b16876230e30" target="_top" xlink:title="Removes a child stanza.">
<polygon fill="none" stroke="black" points="1086.5,-412.5 1086.5,-431.5 1247.5,-431.5 1247.5,-412.5 1086.5,-412.5"/>
<text text-anchor="middle" x="1167" y="-419.5" font-family="DejaVuSansMono" font-size="10.00">xmpp_stanza_remove_child</text>
</a>
</g>
<!-- Node9&#45;&gt;Node10 -->
<g id="edge18" class="edge"><title>Node9&#45;&gt;Node10</title>
<path fill="none" stroke="midnightblue" d="M1034.77,-422C1048.39,-422 1062.61,-422 1076.46,-422"/>
<polygon fill="midnightblue" stroke="midnightblue" points="1076.47,-425.5 1086.47,-422 1076.47,-418.5 1076.47,-425.5"/>
</g>
<!-- Node12 -->
<g id="node23" class="node"><title>Node12</title>
<a xlink:href="../../d1/d59/xmpp__stanza_8c.html#a513b6e2da3dce364271ba9315d7b3d95" target="_top" xlink:title="Returns the stanza (and its children) packed into a null&#45;terminated string.">
<polygon fill="none" stroke="black" points="693.5,-322.5 693.5,-341.5 818.5,-341.5 818.5,-322.5 693.5,-322.5"/>
<text text-anchor="middle" x="756" y="-329.5" font-family="DejaVuSansMono" font-size="10.00">xmpp_stanza_string</text>
</a>
</g>
<!-- Node11&#45;&gt;Node12 -->
<g id="edge22" class="edge"><title>Node11&#45;&gt;Node12</title>
<path fill="none" stroke="midnightblue" d="M599.583,-283.215C618.36,-291.206 649.989,-304.13 678,-313 685.746,-315.453 694.012,-317.784 702.147,-319.92"/>
<polygon fill="midnightblue" stroke="midnightblue" points="701.406,-323.343 711.96,-322.423 703.136,-316.56 701.406,-323.343"/>
</g>
<!-- Node17 -->
<g id="node33" class="node"><title>Node17</title>
<a xlink:href="../../d1/d59/xmpp__stanza_8c.html#af40757ae1d137034570b1bb33303d024" target="_top" xlink:title="Cleans up and frees an XMPP stanza.">
<polygon fill="none" stroke="black" points="702.5,-266.5 702.5,-285.5 809.5,-285.5 809.5,-266.5 702.5,-266.5"/>
<text text-anchor="middle" x="756" y="-273.5" font-family="DejaVuSansMono" font-size="10.00">xmpp_stanza_del</text>
</a>
</g>
<!-- Node11&#45;&gt;Node17 -->
<g id="edge32" class="edge"><title>Node11&#45;&gt;Node17</title>
<path fill="none" stroke="midnightblue" d="M599.805,-276C621.178,-276 659.29,-276 692.395,-276"/>
<polygon fill="midnightblue" stroke="midnightblue" points="692.484,-279.5 702.484,-276 692.484,-272.5 692.484,-279.5"/>
</g>
<!-- Node20 -->
<g id="node40" class="node"><title>Node20</title>
<a xlink:href="../../d1/d59/xmpp__stanza_8c.html#aacbe1cdb2a1d254b0b712653787b3c45" target="_top" xlink:title="Returns a pointer to the parent stanza.">
<polygon fill="none" stroke="black" points="693.5,-228.5 693.5,-247.5 818.5,-247.5 818.5,-228.5 693.5,-228.5"/>
<text text-anchor="middle" x="756" y="-235.5" font-family="DejaVuSansMono" font-size="10.00">xmpp_stanza_parent</text>
</a>
</g>
<!-- Node11&#45;&gt;Node20 -->
<g id="edge40" class="edge"><title>Node11&#45;&gt;Node20</title>
<path fill="none" stroke="midnightblue" d="M599.805,-272.287C623.194,-267.12 666.627,-257.524 701.609,-249.796"/>
<polygon fill="midnightblue" stroke="midnightblue" points="702.685,-253.142 711.694,-247.568 701.175,-246.307 702.685,-253.142"/>
</g>
<!-- Node13 -->
<g id="node25" class="node"><title>Node13</title>
<a xlink:href="../../d1/d59/xmpp__stanza_8c.html#aae8c30c30fcbc2325d34897f8035ca46" target="_top" xlink:title="Function that gets called recursively to convert a stanza to a string.">
<polygon fill="none" stroke="black" points="909.5,-313.5 909.5,-332.5 998.5,-332.5 998.5,-313.5 909.5,-313.5"/>
<text text-anchor="middle" x="954" y="-320.5" font-family="DejaVuSansMono" font-size="10.00">stanza_tostr</text>
</a>
</g>
<!-- Node12&#45;&gt;Node13 -->
<g id="edge24" class="edge"><title>Node12&#45;&gt;Node13</title>
<path fill="none" stroke="midnightblue" d="M818.747,-329.165C844.586,-327.978 874.339,-326.612 899.259,-325.468"/>
<polygon fill="midnightblue" stroke="midnightblue" points="899.432,-328.964 909.261,-325.008 899.111,-321.971 899.432,-328.964"/>
</g>
<!-- Node14 -->
<g id="node27" class="node"><title>Node14</title>
<a xlink:href="../../d1/dc2/xmpp__parser_8c.html#acce8bfe5926da4e64c3b5038dc683618" target="_top" xlink:title="xmpp_parser_namespace_prefix">
<polygon fill="none" stroke="black" points="1074.5,-260.5 1074.5,-279.5 1259.5,-279.5 1259.5,-260.5 1074.5,-260.5"/>
<text text-anchor="middle" x="1167" y="-267.5" font-family="DejaVuSansMono" font-size="10.00">xmpp_parser_namespace_prefix</text>
</a>
</g>
<!-- Node13&#45;&gt;Node14 -->
<g id="edge26" class="edge"><title>Node13&#45;&gt;Node14</title>
<path fill="none" stroke="midnightblue" d="M990.193,-313.467C1004.98,-309.404 1022.35,-304.558 1038,-300 1054.06,-295.321 1057.79,-293.141 1074,-289 1084.18,-286.4 1095.06,-283.905 1105.65,-281.628"/>
<polygon fill="midnightblue" stroke="midnightblue" points="1106.61,-285.002 1115.67,-279.514 1105.16,-278.152 1106.61,-285.002"/>
</g>
<!-- Node15 -->
<g id="node29" class="node"><title>Node15</title>
<a xlink:href="../../d1/dc2/xmpp__parser_8c.html#afde3cf0e74a12bfe4ac90fa8dbae51a0" target="_top" xlink:title="xmpp_parser_namespace_uri">
<polygon fill="none" stroke="black" points="1083.5,-336.5 1083.5,-355.5 1250.5,-355.5 1250.5,-336.5 1083.5,-336.5"/>
<text text-anchor="middle" x="1167" y="-343.5" font-family="DejaVuSansMono" font-size="10.00">xmpp_parser_namespace_uri</text>
</a>
</g>
<!-- Node13&#45;&gt;Node15 -->
<g id="edge28" class="edge"><title>Node13&#45;&gt;Node15</title>
<path fill="none" stroke="midnightblue" d="M998.719,-327.766C1020.25,-330.112 1047.07,-333.036 1072.89,-335.851"/>
<polygon fill="midnightblue" stroke="midnightblue" points="1072.78,-339.36 1083.1,-336.964 1073.54,-332.401 1072.78,-339.36"/>
</g>
<!-- Node16 -->
<g id="node31" class="node"><title>Node16</title>
<a xlink:href="../../d1/dc2/xmpp__parser_8c.html#af924e15caac53b347a48878fcb046bc4" target="_top" xlink:title="Return the next namespace in the namespace list.">
<polygon fill="none" stroke="black" points="1080.5,-298.5 1080.5,-317.5 1253.5,-317.5 1253.5,-298.5 1080.5,-298.5"/>
<text text-anchor="middle" x="1167" y="-305.5" font-family="DejaVuSansMono" font-size="10.00">xmpp_parser_namespace_next</text>
</a>
</g>
<!-- Node13&#45;&gt;Node16 -->
<g id="edge30" class="edge"><title>Node13&#45;&gt;Node16</title>
<path fill="none" stroke="midnightblue" d="M998.719,-319.892C1019.41,-318.421 1044.99,-316.603 1069.87,-314.834"/>
<polygon fill="midnightblue" stroke="midnightblue" points="1070.37,-318.307 1080.1,-314.107 1069.88,-311.325 1070.37,-318.307"/>
</g>
<!-- Node17&#45;&gt;Node17 -->
<g id="edge38" class="edge"><title>Node17&#45;&gt;Node17</title>
<path fill="none" stroke="midnightblue" d="M729.182,-285.757C716.135,-294.565 725.074,-304 756,-304 776.778,-304 787.632,-299.741 788.56,-294.275"/>
<polygon fill="midnightblue" stroke="midnightblue" points="791.31,-292.093 782.818,-285.757 785.506,-296.005 791.31,-292.093"/>
</g>
<!-- Node18 -->
<g id="node35" class="node"><title>Node18</title>
<a xlink:href="../../d1/d59/xmpp__stanza_8c.html#a2fb472c6bf9b7f540a97ddc6c11adb74" target="_top" xlink:title="attribute_del">
<polygon fill="none" stroke="black" points="906.5,-233.5 906.5,-252.5 1001.5,-252.5 1001.5,-233.5 906.5,-233.5"/>
<text text-anchor="middle" x="954" y="-240.5" font-family="DejaVuSansMono" font-size="10.00">attribute_del</text>
</a>
</g>
<!-- Node17&#45;&gt;Node18 -->
<g id="edge34" class="edge"><title>Node17&#45;&gt;Node18</title>
<path fill="none" stroke="midnightblue" d="M809.524,-267.157C836.27,-262.653 868.823,-257.173 896.156,-252.571"/>
<polygon fill="midnightblue" stroke="midnightblue" points="897.073,-255.966 906.353,-250.854 895.91,-249.063 897.073,-255.966"/>
</g>
<!-- Node19 -->
<g id="node37" class="node"><title>Node19</title>
<a xlink:href="../../d1/dc2/xmpp__parser_8c.html#a87065f39f10a449e7af17fa45ca475f2" target="_top" xlink:title="xmpp_parser_namespace_del">
<polygon fill="none" stroke="black" points="870.5,-271.5 870.5,-290.5 1037.5,-290.5 1037.5,-271.5 870.5,-271.5"/>
<text text-anchor="middle" x="954" y="-278.5" font-family="DejaVuSansMono" font-size="10.00">xmpp_parser_namespace_del</text>
</a>
</g>
<!-- Node17&#45;&gt;Node19 -->
<g id="edge36" class="edge"><title>Node17&#45;&gt;Node19</title>
<path fill="none" stroke="midnightblue" d="M809.524,-277.34C825.165,-277.739 842.791,-278.189 860.197,-278.633"/>
<polygon fill="midnightblue" stroke="midnightblue" points="860.318,-282.137 870.404,-278.893 860.497,-275.139 860.318,-282.137"/>
</g>
<!-- Node22 -->
<g id="node44" class="node"><title>Node22</title>
<a xlink:href="../../d1/d59/xmpp__stanza_8c.html#a4adffe2c21d8f7aa52ce23cc48772b7f" target="_top" xlink:title="Copies data.">
<polygon fill="none" stroke="black" points="678.5,-190.5 678.5,-209.5 833.5,-209.5 833.5,-190.5 678.5,-190.5"/>
<text text-anchor="middle" x="756" y="-197.5" font-family="DejaVuSansMono" font-size="10.00">xmpp_stanza_append_data</text>
</a>
</g>
<!-- Node21&#45;&gt;Node22 -->
<g id="edge44" class="edge"><title>Node21&#45;&gt;Node22</title>
<path fill="none" stroke="midnightblue" d="M614.547,-231.03C639.012,-225.625 673.464,-218.014 702.123,-211.682"/>
<polygon fill="midnightblue" stroke="midnightblue" points="702.983,-215.077 711.992,-209.502 701.473,-208.241 702.983,-215.077"/>
</g>
<!-- Node24&#45;&gt;Node4 -->
<g id="edge54" class="edge"><title>Node24&#45;&gt;Node4</title>
<path fill="none" stroke="midnightblue" d="M598.324,-341.633C616.718,-352.898 648.751,-371.583 678,-384 692.313,-390.076 708.697,-395.397 722.662,-399.474"/>
<polygon fill="midnightblue" stroke="midnightblue" points="721.764,-402.858 732.34,-402.216 723.673,-396.123 721.764,-402.858"/>
</g>
<!-- Node24&#45;&gt;Node5 -->
<g id="edge50" class="edge"><title>Node24&#45;&gt;Node5</title>
<path fill="none" stroke="midnightblue" d="M626.857,-341.514C642.899,-344.797 661.225,-348.32 678,-351 746.728,-361.979 825.649,-371.093 881.266,-376.94"/>
<polygon fill="midnightblue" stroke="midnightblue" points="881.063,-380.438 891.372,-377.994 881.789,-373.475 881.063,-380.438"/>
</g>
<!-- Node24&#45;&gt;Node12 -->
<g id="edge52" class="edge"><title>Node24&#45;&gt;Node12</title>
<path fill="none" stroke="midnightblue" d="M626.848,-332C643.974,-332 664.064,-332 683.191,-332"/>
<polygon fill="midnightblue" stroke="midnightblue" points="683.387,-335.5 693.387,-332 683.387,-328.5 683.387,-335.5"/>
</g>
<!-- Node24&#45;&gt;Node17 -->
<g id="edge56" class="edge"><title>Node24&#45;&gt;Node17</title>
<path fill="none" stroke="midnightblue" d="M612.568,-322.373C641.169,-313.061 684.679,-298.895 716.082,-288.671"/>
<polygon fill="midnightblue" stroke="midnightblue" points="717.393,-291.925 725.818,-285.501 715.226,-285.269 717.393,-291.925"/>
</g>
<!-- Node27 -->
<g id="node58" class="node"><title>Node27</title>
<a xlink:href="../../d0/df0/xmpp__server_8c.html#a6d3f7e5e289f785b1c8c52f95068c627" target="_top" xlink:title="Deliver a stanza to a registered callback function.">
<polygon fill="none" stroke="black" points="324.5,-88.5 324.5,-107.5 485.5,-107.5 485.5,-88.5 324.5,-88.5"/>
<text text-anchor="middle" x="405" y="-95.5" font-family="DejaVuSansMono" font-size="10.00">xmpp_server_route_stanza</text>
</a>
</g>
<!-- Node26&#45;&gt;Node27 -->
<g id="edge62" class="edge"><title>Node26&#45;&gt;Node27</title>
<path fill="none" stroke="midnightblue" d="M250.056,-135.489C280.302,-128.123 322.385,-117.875 354.908,-109.955"/>
<polygon fill="midnightblue" stroke="midnightblue" points="355.783,-113.344 364.671,-107.578 354.127,-106.543 355.783,-113.344"/>
</g>
<!-- Node28 -->
<g id="node60" class="node"><title>Node28</title>
<a xlink:href="../../d3/d5a/jid_8c.html#a0151ea37a9f52813a8d48d2b7eec2044" target="_top" xlink:title="Allocate and initialize a new JID from an existing JID string.">
<polygon fill="none" stroke="black" points="525.5,-152.5 525.5,-171.5 638.5,-171.5 638.5,-152.5 525.5,-152.5"/>
<text text-anchor="middle" x="582" y="-159.5" font-family="DejaVuSansMono" font-size="10.00">jid_new_from_str</text>
</a>
</g>
<!-- Node27&#45;&gt;Node28 -->
<g id="edge64" class="edge"><title>Node27&#45;&gt;Node28</title>
<path fill="none" stroke="midnightblue" d="M432.199,-107.581C462.313,-118.594 511.894,-136.727 545.468,-149.005"/>
<polygon fill="midnightblue" stroke="midnightblue" points="544.314,-152.31 554.908,-152.458 546.718,-145.736 544.314,-152.31"/>
</g>
<!-- Node30 -->
<g id="node64" class="node"><title>Node30</title>
<a xlink:href="../../d3/d5a/jid_8c.html#ab83fd5aae95de2c9d38fb9d9cd161580" target="_top" xlink:title="Cleans up and frees an existing JID.">
<polygon fill="none" stroke="black" points="726.5,-114.5 726.5,-133.5 785.5,-133.5 785.5,-114.5 726.5,-114.5"/>
<text text-anchor="middle" x="756" y="-121.5" font-family="DejaVuSansMono" font-size="10.00">jid_del</text>
</a>
</g>
<!-- Node27&#45;&gt;Node30 -->
<g id="edge76" class="edge"><title>Node27&#45;&gt;Node30</title>
<path fill="none" stroke="midnightblue" d="M485.63,-103.932C557.639,-109.297 660.613,-116.968 716.066,-121.1"/>
<polygon fill="midnightblue" stroke="midnightblue" points="715.942,-124.6 726.175,-121.853 716.463,-117.619 715.942,-124.6"/>
</g>
<!-- Node31 -->
<g id="node66" class="node"><title>Node31</title>
<a xlink:href="../../d1/d59/xmpp__stanza_8c.html#a20c90c791fa856784f2d43c9f44f1d3c" target="_top" xlink:title="Returns the value of an attribute of this stanza.">
<polygon fill="none" stroke="black" points="525.5,-76.5 525.5,-95.5 638.5,-95.5 638.5,-76.5 525.5,-76.5"/>
<text text-anchor="middle" x="582" y="-83.5" font-family="DejaVuSansMono" font-size="10.00">xmpp_stanza_attr</text>
</a>
</g>
<!-- Node27&#45;&gt;Node31 -->
<g id="edge70" class="edge"><title>Node27&#45;&gt;Node31</title>
<path fill="none" stroke="midnightblue" d="M485.563,-92.5443C495.548,-91.8596 505.672,-91.1654 515.409,-90.4977"/>
<polygon fill="midnightblue" stroke="midnightblue" points="515.657,-93.989 525.394,-89.813 515.178,-87.0054 515.657,-93.989"/>
</g>
<!-- Node32 -->
<g id="node68" class="node"><title>Node32</title>
<a xlink:href="../../d3/d5a/jid_8c.html#a3d51f2b27d20189e523b0d0b2a77e4a9" target="_top" xlink:title="Converts a JID to a newly allocated string.">
<polygon fill="none" stroke="black" points="543.5,-38.5 543.5,-57.5 620.5,-57.5 620.5,-38.5 543.5,-38.5"/>
<text text-anchor="middle" x="582" y="-45.5" font-family="DejaVuSansMono" font-size="10.00">jid_to_str</text>
</a>
</g>
<!-- Node27&#45;&gt;Node32 -->
<g id="edge72" class="edge"><title>Node27&#45;&gt;Node32</title>
<path fill="none" stroke="midnightblue" d="M439.328,-88.4777C467.216,-80.5098 507.207,-69.0838 537.593,-60.402"/>
<polygon fill="midnightblue" stroke="midnightblue" points="538.845,-63.6845 547.498,-57.5719 536.922,-56.9538 538.845,-63.6845"/>
</g>
<!-- Node33 -->
<g id="node70" class="node"><title>Node33</title>
<a xlink:href="../../d3/d5a/jid_8c.html#a5b2f969326a86fa7e585f633d7b0f565" target="_top" xlink:title="Compare two JIDs with wildcard matches.">
<polygon fill="none" stroke="black" points="522.5,-0.5 522.5,-19.5 641.5,-19.5 641.5,-0.5 522.5,-0.5"/>
<text text-anchor="middle" x="582" y="-7.5" font-family="DejaVuSansMono" font-size="10.00">jid_cmp_wildcards</text>
</a>
</g>
<!-- Node27&#45;&gt;Node33 -->
<g id="edge74" class="edge"><title>Node27&#45;&gt;Node33</title>
<path fill="none" stroke="midnightblue" d="M419.731,-88.4357C440.899,-74.0199 483.131,-46.5483 522,-29 526.781,-26.8414 531.881,-24.8159 537.005,-22.9511"/>
<polygon fill="midnightblue" stroke="midnightblue" points="538.497,-26.1389 546.81,-19.5703 536.215,-19.5212 538.497,-26.1389"/>
</g>
<!-- Node29 -->
<g id="node62" class="node"><title>Node29</title>
<a xlink:href="../../d3/d5a/jid_8c.html#abd2028a1e581e6374acaa6beaf6e5413" target="_top" xlink:title="Allocate and initialize a new blank JID.">
<polygon fill="none" stroke="black" points="726.5,-152.5 726.5,-171.5 785.5,-171.5 785.5,-152.5 726.5,-152.5"/>
<text text-anchor="middle" x="756" y="-159.5" font-family="DejaVuSansMono" font-size="10.00">jid_new</text>
</a>
</g>
<!-- Node28&#45;&gt;Node29 -->
<g id="edge66" class="edge"><title>Node28&#45;&gt;Node29</title>
<path fill="none" stroke="midnightblue" d="M638.843,-162C664.192,-162 693.544,-162 716.4,-162"/>
<polygon fill="midnightblue" stroke="midnightblue" points="716.406,-165.5 726.406,-162 716.406,-158.5 716.406,-165.5"/>
</g>
<!-- Node28&#45;&gt;Node30 -->
<g id="edge68" class="edge"><title>Node28&#45;&gt;Node30</title>
<path fill="none" stroke="midnightblue" d="M626.403,-152.411C654.2,-146.27 689.941,-138.374 716.685,-132.465"/>
<polygon fill="midnightblue" stroke="midnightblue" points="717.45,-135.881 726.459,-130.306 715.939,-129.045 717.45,-135.881"/>
</g>
</g>
</svg>
        <g id="navigator" transform="translate(0 0)" fill="#404254">
                <rect fill="#f2f5e9" fill-opacity="0.5" stroke="#606060" stroke-width=".5" x="0" y="0" width="60" height="60"/>
                <use id="zoomplus" xlink:href="#zoomPlus" x="17" y="9" onmousedown="handleZoom(evt,'in')"/>
                <use id="zoomminus" xlink:href="#zoomMin" x="42" y="9" onmousedown="handleZoom(evt,'out')"/>
                <use id="reset" xlink:href="#resetDef" x="30" y="36" onmousedown="handleReset()"/>
                <g id="arrowUp" xlink:href="#dirArrow" transform="translate(30 24)" onmousedown="handlePan(0,-1)">
                  <use xlink:href="#rim" fill="#404040">
                        <set attributeName="fill" to="#808080" begin="arrowUp.mouseover" end="arrowUp.mouseout"/>
                  </use>
                  <path fill="none" stroke="white" stroke-width="1.5" d="M0,-3.0v7 M-2.5,-0.5L0,-3.0L2.5,-0.5"/>
                </g>
                <g id="arrowRight" xlink:href="#dirArrow" transform="rotate(90) translate(36 -43)" onmousedown="handlePan(1,0)">
                  <use xlink:href="#rim" fill="#404040">
                        <set attributeName="fill" to="#808080" begin="arrowRight.mouseover" end="arrowRight.mouseout"/>
                  </use>
                  <path fill="none" stroke="white" stroke-width="1.5" d="M0,-3.0v7 M-2.5,-0.5L0,-3.0L2.5,-0.5"/>
                </g>
                <g id="arrowDown" xlink:href="#dirArrow" transform="rotate(180) translate(-30 -48)" onmousedown="handlePan(0,1)">
                  <use xlink:href="#rim" fill="#404040">
                        <set attributeName="fill" to="#808080" begin="arrowDown.mouseover" end="arrowDown.mouseout"/>
                  </use>
                  <path fill="none" stroke="white" stroke-width="1.5" d="M0,-3.0v7 M-2.5,-0.5L0,-3.0L2.5,-0.5"/>
                </g>
                <g id="arrowLeft" xlink:href="#dirArrow" transform="rotate(270) translate(-36 17)" onmousedown="handlePan(-1,0)">
                  <use xlink:href="#rim" fill="#404040">
                        <set attributeName="fill" to="#808080" begin="arrowLeft.mouseover" end="arrowLeft.mouseout"/>
                  </use>
                  <path fill="none" stroke="white" stroke-width="1.5" d="M0,-3.0v7 M-2.5,-0.5L0,-3.0L2.5,-0.5"/>
                </g>
        </g>
        <svg viewBox="0 0 25 25" width="100%" height="30px" preserveAspectRatio="xMaxYMin meet"> 
          <g id="printButton" transform="scale(0.4 0.4)" onmousedown="handlePrint(evt)">
            <rect height="23.33753581" id="paper" rx="2" style="fill:#f2f5e9;fill-rule:evenodd;stroke:#111111;stroke-width:3.224;stroke-linejoin:round;" transform="matrix(1.000000,0.000000,-0.339266,0.940691,0.000000,0.000000)" width="25.55231285" x="26.69387353" y="7.36162977"/>
            <rect height="26.272097" id="body" rx="2" style="fill:#404040;fill-rule:evenodd;stroke:#111111;stroke-width:3.125;stroke-linejoin:round;" width="50" x="4.5295201" y="27.078951"/>
            <rect height="8.27750969" id="tray" style="fill:#d2d5c9;fill-rule:evenodd;stroke:#111111;stroke-width:3.125;stroke-linecap:round;stroke-linejoin:round;" width="40" x="10.28778839" y="44.96812282"/>
          </g>
        </svg>
</svg>
