<?xml version="1.0" encoding="UTF-8" standalone="no"?>
<!DOCTYPE svg PUBLIC "-//W3C//DTD SVG 1.1//EN"
 "http://www.w3.org/Graphics/SVG/1.1/DTD/svg11.dtd">
<!-- Generated by graphviz version 2.28.0 (20120217.0315)
 -->
<!-- Title: G Pages: 1 -->
<svg width="290pt" height="66pt"
 viewBox="0.00 0.00 290.00 66.00" xmlns="http://www.w3.org/2000/svg" xmlns:xlink="http://www.w3.org/1999/xlink">
<g id="graph1" class="graph" transform="scale(1 1) rotate(0) translate(4 62)">
<title>G</title>
<!-- Node1 -->
<g id="node1" class="node"><title>Node1</title>
<polygon fill="#bfbfbf" stroke="black" points="0.5,-19.5 0.5,-38.5 137.5,-38.5 137.5,-19.5 0.5,-19.5"/>
<text text-anchor="middle" x="69" y="-26.5" font-family="DejaVuSansMono" font-size="10.00">local_stanza_handler</text>
</g>
<!-- Node2 -->
<g id="node3" class="node"><title>Node2</title>
<a xlink:href="../../d6/d78/xmp3__multicast_8c.html#a991c928ab73b350c4b7029352e91a219" target="_top" xlink:title="multicast_start">
<polygon fill="none" stroke="black" points="174.5,-38.5 174.5,-57.5 281.5,-57.5 281.5,-38.5 174.5,-38.5"/>
<text text-anchor="middle" x="228" y="-45.5" font-family="DejaVuSansMono" font-size="10.00">multicast_start</text>
</a>
</g>
<!-- Node1&#45;&gt;Node2 -->
<g id="edge2" class="edge"><title>Node1&#45;&gt;Node2</title>
<path fill="none" stroke="midnightblue" d="M147.927,-38.4307C156.789,-39.5032 165.661,-40.5769 174.091,-41.5971"/>
<polygon fill="midnightblue" stroke="midnightblue" points="148.297,-34.95 137.949,-37.2232 147.456,-41.8993 148.297,-34.95"/>
</g>
<!-- Node3 -->
<g id="node5" class="node"><title>Node3</title>
<a xlink:href="../../d6/d78/xmp3__multicast_8c.html#ad161abeabc58820fd3a24b4422c5b9a7" target="_top" xlink:title="multicast_stop">
<polygon fill="none" stroke="black" points="177.5,-0.5 177.5,-19.5 278.5,-19.5 278.5,-0.5 177.5,-0.5"/>
<text text-anchor="middle" x="228" y="-7.5" font-family="DejaVuSansMono" font-size="10.00">multicast_stop</text>
</a>
</g>
<!-- Node1&#45;&gt;Node3 -->
<g id="edge4" class="edge"><title>Node1&#45;&gt;Node3</title>
<path fill="none" stroke="midnightblue" d="M147.947,-19.567C157.972,-18.3537 168.01,-17.139 177.405,-16.0019"/>
<polygon fill="midnightblue" stroke="midnightblue" points="147.456,-16.1007 137.949,-20.7768 148.297,-23.05 147.456,-16.1007"/>
</g>
</g>
</svg>
