<?xml version="1.0" encoding="UTF-8" standalone="no"?>
<!DOCTYPE svg PUBLIC "-//W3C//DTD SVG 1.1//EN"
 "http://www.w3.org/Graphics/SVG/1.1/DTD/svg11.dtd">
<!-- Generated by graphviz version 2.28.0 (20120217.0315)
 -->
<!-- Title: G Pages: 1 -->
<!--zoomable 256 -->
<svg id="main" version="1.1" xmlns="http://www.w3.org/2000/svg" xmlns:xlink="http://www.w3.org/1999/xlink" xml:space="preserve" onload="init(evt)">
        <defs>
                <circle id="rim" cx="0" cy="0" r="7"/>
                <circle id="rim2" cx="0" cy="0" r="3.5"/>
                <g id="zoomPlus">
                        <use xlink:href="#rim" fill="#404040">
                                <set attributeName="fill" to="#808080" begin="zoomplus.mouseover" end="zoomplus.mouseout"/>
                        </use>
                        <path d="M-4,0h8M0,-4v8" fill="none" stroke="white" stroke-width="1.5" pointer-events="none"/>
                </g>
                <g id="zoomMin">
                        <use xlink:href="#rim" fill="#404040">
                                <set attributeName="fill" to="#808080" begin="zoomminus.mouseover" end="zoomminus.mouseout"/>
                        </use>
                        <path d="M-4,0h8" fill="none" stroke="white" stroke-width="1.5" pointer-events="none"/>
                </g>
                <g id="dirArrow">
                        <path fill="none" stroke="white" stroke-width="1.5" d="M0,-3.0v7 M-2.5,-0.5L0,-3.0L2.5,-0.5"/>
                </g>
               <g id="resetDef">
                       <use xlink:href="#rim2" fill="#404040">
                               <set attributeName="fill" to="#808080" begin="reset.mouseover" end="reset.mouseout"/>
                       </use>
               </g>
        </defs>

<script type="text/javascript">
var viewWidth = 704;
var viewHeight = 256;
var sectionId = 'dynsection-3';
</script>
<script xlink:href="../../svgpan.js"/>
<svg id="graph" class="graph">
<g id="viewport">
<title>G</title>
<!-- Node1 -->
<g id="node1" class="node"><title>Node1</title>
<polygon fill="#bfbfbf" stroke="black" points="0.5,-133.5 0.5,-152.5 137.5,-152.5 137.5,-133.5 0.5,-133.5"/>
<text text-anchor="middle" x="69" y="-140.5" font-family="DejaVuSansMono" font-size="10.00">local_stanza_handler</text>
</g>
<!-- Node2 -->
<g id="node3" class="node"><title>Node2</title>
<a xlink:href="../../d1/d59/xmpp__stanza_8c.html#a10c606a11c37c01bf59881827dc2229a" target="_top" xlink:title="Returns the name of the tag of this stanza (message/presence/IQ)">
<polygon fill="none" stroke="black" points="195.5,-228.5 195.5,-247.5 308.5,-247.5 308.5,-228.5 195.5,-228.5"/>
<text text-anchor="middle" x="252" y="-235.5" font-family="DejaVuSansMono" font-size="10.00">xmpp_stanza_name</text>
</a>
</g>
<!-- Node1&#45;&gt;Node2 -->
<g id="edge2" class="edge"><title>Node1&#45;&gt;Node2</title>
<path fill="none" stroke="midnightblue" d="M80.3337,-152.734C98.0781,-168.917 136.103,-201.32 174,-219 179.276,-221.461 184.909,-223.628 190.639,-225.53"/>
<polygon fill="midnightblue" stroke="midnightblue" points="189.738,-228.914 200.324,-228.486 191.782,-222.219 189.738,-228.914"/>
</g>
<!-- Node3 -->
<g id="node5" class="node"><title>Node3</title>
<a xlink:href="../../d3/d5a/jid_8c.html#a0151ea37a9f52813a8d48d2b7eec2044" target="_top" xlink:title="Allocate and initialize a new JID from an existing JID string.">
<polygon fill="none" stroke="black" points="195.5,-190.5 195.5,-209.5 308.5,-209.5 308.5,-190.5 195.5,-190.5"/>
<text text-anchor="middle" x="252" y="-197.5" font-family="DejaVuSansMono" font-size="10.00">jid_new_from_str</text>
</a>
</g>
<!-- Node1&#45;&gt;Node3 -->
<g id="edge4" class="edge"><title>Node1&#45;&gt;Node3</title>
<path fill="none" stroke="midnightblue" d="M100.024,-152.572C120.79,-159.181 149.063,-168.157 174,-176 185.896,-179.741 198.835,-183.784 210.651,-187.466"/>
<polygon fill="midnightblue" stroke="midnightblue" points="209.676,-190.828 220.264,-190.459 211.757,-184.145 209.676,-190.828"/>
</g>
<!-- Node5 -->
<g id="node9" class="node"><title>Node5</title>
<a xlink:href="../../d3/d5a/jid_8c.html#ab83fd5aae95de2c9d38fb9d9cd161580" target="_top" xlink:title="Cleans up and frees an existing JID.">
<polygon fill="none" stroke="black" points="390.5,-152.5 390.5,-171.5 449.5,-171.5 449.5,-152.5 390.5,-152.5"/>
<text text-anchor="middle" x="420" y="-159.5" font-family="DejaVuSansMono" font-size="10.00">jid_del</text>
</a>
</g>
<!-- Node1&#45;&gt;Node5 -->
<g id="edge18" class="edge"><title>Node1&#45;&gt;Node5</title>
<path fill="none" stroke="midnightblue" d="M137.705,-146.686C209.736,-150.607 321.215,-156.676 379.864,-159.869"/>
<polygon fill="midnightblue" stroke="midnightblue" points="380.003,-163.382 390.179,-160.431 380.384,-156.392 380.003,-163.382"/>
</g>
<!-- Node6 -->
<g id="node11" class="node"><title>Node6</title>
<a xlink:href="../../d1/d59/xmpp__stanza_8c.html#a20c90c791fa856784f2d43c9f44f1d3c" target="_top" xlink:title="Returns the value of an attribute of this stanza.">
<polygon fill="none" stroke="black" points="195.5,-114.5 195.5,-133.5 308.5,-133.5 308.5,-114.5 195.5,-114.5"/>
<text text-anchor="middle" x="252" y="-121.5" font-family="DejaVuSansMono" font-size="10.00">xmpp_stanza_attr</text>
</a>
</g>
<!-- Node1&#45;&gt;Node6 -->
<g id="edge10" class="edge"><title>Node1&#45;&gt;Node6</title>
<path fill="none" stroke="midnightblue" d="M137.655,-135.898C153.223,-134.264 169.755,-132.528 185.241,-130.903"/>
<polygon fill="midnightblue" stroke="midnightblue" points="185.666,-134.378 195.246,-129.853 184.935,-127.416 185.666,-134.378"/>
</g>
<!-- Node7 -->
<g id="node13" class="node"><title>Node7</title>
<a xlink:href="../../d0/df0/xmpp__server_8c.html#a312f47af548e12ec5d866bea1d142d5e" target="_top" xlink:title="Find a locally connected client by JID.">
<polygon fill="none" stroke="black" points="174.5,-76.5 174.5,-95.5 329.5,-95.5 329.5,-76.5 174.5,-76.5"/>
<text text-anchor="middle" x="252" y="-83.5" font-family="DejaVuSansMono" font-size="10.00">xmpp_server_find_client</text>
</a>
</g>
<!-- Node1&#45;&gt;Node7 -->
<g id="edge12" class="edge"><title>Node1&#45;&gt;Node7</title>
<path fill="none" stroke="midnightblue" d="M94.1234,-133.341C115.042,-125.169 146.237,-113.47 174,-105 182.046,-102.545 190.637,-100.18 199.055,-98.0015"/>
<polygon fill="midnightblue" stroke="midnightblue" points="199.976,-101.379 208.813,-95.5356 198.261,-94.5922 199.976,-101.379"/>
</g>
<!-- Node10 -->
<g id="node20" class="node"><title>Node10</title>
<a xlink:href="../../d1/d59/xmpp__stanza_8c.html#a513b6e2da3dce364271ba9315d7b3d95" target="_top" xlink:title="Returns the stanza (and its children) packed into a null&#45;terminated string.">
<polygon fill="none" stroke="black" points="189.5,-38.5 189.5,-57.5 314.5,-57.5 314.5,-38.5 189.5,-38.5"/>
<text text-anchor="middle" x="252" y="-45.5" font-family="DejaVuSansMono" font-size="10.00">xmpp_stanza_string</text>
</a>
</g>
<!-- Node1&#45;&gt;Node10 -->
<g id="edge20" class="edge"><title>Node1&#45;&gt;Node10</title>
<path fill="none" stroke="midnightblue" d="M80.3337,-133.266C98.0781,-117.083 136.103,-84.6796 174,-67 179.276,-64.5388 184.909,-62.3722 190.639,-60.4702"/>
<polygon fill="midnightblue" stroke="midnightblue" points="191.782,-63.7807 200.324,-57.5136 189.738,-57.0857 191.782,-63.7807"/>
</g>
<!-- Node4 -->
<g id="node7" class="node"><title>Node4</title>
<a xlink:href="../../d3/d5a/jid_8c.html#abd2028a1e581e6374acaa6beaf6e5413" target="_top" xlink:title="Allocate and initialize a new blank JID.">
<polygon fill="none" stroke="black" points="390.5,-190.5 390.5,-209.5 449.5,-209.5 449.5,-190.5 390.5,-190.5"/>
<text text-anchor="middle" x="420" y="-197.5" font-family="DejaVuSansMono" font-size="10.00">jid_new</text>
</a>
</g>
<!-- Node3&#45;&gt;Node4 -->
<g id="edge6" class="edge"><title>Node3&#45;&gt;Node4</title>
<path fill="none" stroke="midnightblue" d="M308.737,-200C332.104,-200 358.714,-200 379.939,-200"/>
<polygon fill="midnightblue" stroke="midnightblue" points="380.193,-203.5 390.193,-200 380.193,-196.5 380.193,-203.5"/>
</g>
<!-- Node3&#45;&gt;Node5 -->
<g id="edge8" class="edge"><title>Node3&#45;&gt;Node5</title>
<path fill="none" stroke="midnightblue" d="M294.889,-190.411C321.259,-184.374 355.036,-176.642 380.694,-170.769"/>
<polygon fill="midnightblue" stroke="midnightblue" points="381.479,-174.18 390.446,-168.536 379.917,-167.356 381.479,-174.18"/>
</g>
<!-- Node8 -->
<g id="node15" class="node"><title>Node8</title>
<a xlink:href="../../d3/d5a/jid_8c.html#a03139cec95c699c543f239f338c0c568" target="_top" xlink:title="Compare two JIDs exactly.">
<polygon fill="none" stroke="black" points="390.5,-114.5 390.5,-133.5 449.5,-133.5 449.5,-114.5 390.5,-114.5"/>
<text text-anchor="middle" x="420" y="-121.5" font-family="DejaVuSansMono" font-size="10.00">jid_cmp</text>
</a>
</g>
<!-- Node7&#45;&gt;Node8 -->
<g id="edge14" class="edge"><title>Node7&#45;&gt;Node8</title>
<path fill="none" stroke="midnightblue" d="M294.889,-95.589C321.259,-101.626 355.036,-109.358 380.694,-115.231"/>
<polygon fill="midnightblue" stroke="midnightblue" points="379.917,-118.644 390.446,-117.464 381.479,-111.82 379.917,-118.644"/>
</g>
<!-- Node9 -->
<g id="node17" class="node"><title>Node9</title>
<a xlink:href="../../dd/d4d/xmpp__client_8c.html#af963b026952bdbc45a4df0fa3d69b641" target="_top" xlink:title="Return the JID for this client.">
<polygon fill="none" stroke="black" points="366.5,-76.5 366.5,-95.5 473.5,-95.5 473.5,-76.5 366.5,-76.5"/>
<text text-anchor="middle" x="420" y="-83.5" font-family="DejaVuSansMono" font-size="10.00">xmpp_client_jid</text>
</a>
</g>
<!-- Node7&#45;&gt;Node9 -->
<g id="edge16" class="edge"><title>Node7&#45;&gt;Node9</title>
<path fill="none" stroke="midnightblue" d="M329.683,-86C338.598,-86 347.61,-86 356.306,-86"/>
<polygon fill="midnightblue" stroke="midnightblue" points="356.343,-89.5001 366.343,-86 356.343,-82.5001 356.343,-89.5001"/>
</g>
<!-- Node11 -->
<g id="node22" class="node"><title>Node11</title>
<a xlink:href="../../d1/d59/xmpp__stanza_8c.html#aae8c30c30fcbc2325d34897f8035ca46" target="_top" xlink:title="Function that gets called recursively to convert a stanza to a string.">
<polygon fill="none" stroke="black" points="375.5,-38.5 375.5,-57.5 464.5,-57.5 464.5,-38.5 375.5,-38.5"/>
<text text-anchor="middle" x="420" y="-45.5" font-family="DejaVuSansMono" font-size="10.00">stanza_tostr</text>
</a>
</g>
<!-- Node10&#45;&gt;Node11 -->
<g id="edge22" class="edge"><title>Node10&#45;&gt;Node11</title>
<path fill="none" stroke="midnightblue" d="M314.812,-48C331.297,-48 348.976,-48 365.005,-48"/>
<polygon fill="midnightblue" stroke="midnightblue" points="365.27,-51.5001 375.27,-48 365.27,-44.5001 365.27,-51.5001"/>
</g>
<!-- Node12 -->
<g id="node24" class="node"><title>Node12</title>
<a xlink:href="../../d1/dc2/xmpp__parser_8c.html#acce8bfe5926da4e64c3b5038dc683618" target="_top" xlink:title="xmpp_parser_namespace_prefix">
<polygon fill="none" stroke="black" points="510.5,-76.5 510.5,-95.5 695.5,-95.5 695.5,-76.5 510.5,-76.5"/>
<text text-anchor="middle" x="603" y="-83.5" font-family="DejaVuSansMono" font-size="10.00">xmpp_parser_namespace_prefix</text>
</a>
</g>
<!-- Node11&#45;&gt;Node12 -->
<g id="edge24" class="edge"><title>Node11&#45;&gt;Node12</title>
<path fill="none" stroke="midnightblue" d="M464.898,-57.4322C479.268,-60.5035 495.311,-63.9153 510,-67 521.481,-69.411 533.773,-71.9671 545.514,-74.3964"/>
<polygon fill="midnightblue" stroke="midnightblue" points="545.155,-77.8961 555.657,-76.4919 546.572,-71.0409 545.155,-77.8961"/>
</g>
<!-- Node13 -->
<g id="node26" class="node"><title>Node13</title>
<a xlink:href="../../d1/dc2/xmpp__parser_8c.html#afde3cf0e74a12bfe4ac90fa8dbae51a0" target="_top" xlink:title="xmpp_parser_namespace_uri">
<polygon fill="none" stroke="black" points="519.5,-38.5 519.5,-57.5 686.5,-57.5 686.5,-38.5 519.5,-38.5"/>
<text text-anchor="middle" x="603" y="-45.5" font-family="DejaVuSansMono" font-size="10.00">xmpp_parser_namespace_uri</text>
</a>
</g>
<!-- Node11&#45;&gt;Node13 -->
<g id="edge26" class="edge"><title>Node11&#45;&gt;Node13</title>
<path fill="none" stroke="midnightblue" d="M464.815,-48C478.289,-48 493.665,-48 509.133,-48"/>
<polygon fill="midnightblue" stroke="midnightblue" points="509.292,-51.5001 519.292,-48 509.292,-44.5001 509.292,-51.5001"/>
</g>
<!-- Node14 -->
<g id="node28" class="node"><title>Node14</title>
<a xlink:href="../../d1/dc2/xmpp__parser_8c.html#af924e15caac53b347a48878fcb046bc4" target="_top" xlink:title="Return the next namespace in the namespace list.">
<polygon fill="none" stroke="black" points="516.5,-0.5 516.5,-19.5 689.5,-19.5 689.5,-0.5 516.5,-0.5"/>
<text text-anchor="middle" x="603" y="-7.5" font-family="DejaVuSansMono" font-size="10.00">xmpp_parser_namespace_next</text>
</a>
</g>
<!-- Node11&#45;&gt;Node14 -->
<g id="edge28" class="edge"><title>Node11&#45;&gt;Node14</title>
<path fill="none" stroke="midnightblue" d="M464.898,-38.5678C479.268,-35.4965 495.311,-32.0847 510,-29 521.481,-26.589 533.773,-24.0329 545.514,-21.6036"/>
<polygon fill="midnightblue" stroke="midnightblue" points="546.572,-24.9591 555.657,-19.5081 545.155,-18.1039 546.572,-24.9591"/>
</g>
</g>
</svg>
        <g id="navigator" transform="translate(0 0)" fill="#404254">
                <rect fill="#f2f5e9" fill-opacity="0.5" stroke="#606060" stroke-width=".5" x="0" y="0" width="60" height="60"/>
                <use id="zoomplus" xlink:href="#zoomPlus" x="17" y="9" onmousedown="handleZoom(evt,'in')"/>
                <use id="zoomminus" xlink:href="#zoomMin" x="42" y="9" onmousedown="handleZoom(evt,'out')"/>
                <use id="reset" xlink:href="#resetDef" x="30" y="36" onmousedown="handleReset()"/>
                <g id="arrowUp" xlink:href="#dirArrow" transform="translate(30 24)" onmousedown="handlePan(0,-1)">
                  <use xlink:href="#rim" fill="#404040">
                        <set attributeName="fill" to="#808080" begin="arrowUp.mouseover" end="arrowUp.mouseout"/>
                  </use>
                  <path fill="none" stroke="white" stroke-width="1.5" d="M0,-3.0v7 M-2.5,-0.5L0,-3.0L2.5,-0.5"/>
                </g>
                <g id="arrowRight" xlink:href="#dirArrow" transform="rotate(90) translate(36 -43)" onmousedown="handlePan(1,0)">
                  <use xlink:href="#rim" fill="#404040">
                        <set attributeName="fill" to="#808080" begin="arrowRight.mouseover" end="arrowRight.mouseout"/>
                  </use>
                  <path fill="none" stroke="white" stroke-width="1.5" d="M0,-3.0v7 M-2.5,-0.5L0,-3.0L2.5,-0.5"/>
                </g>
                <g id="arrowDown" xlink:href="#dirArrow" transform="rotate(180) translate(-30 -48)" onmousedown="handlePan(0,1)">
                  <use xlink:href="#rim" fill="#404040">
                        <set attributeName="fill" to="#808080" begin="arrowDown.mouseover" end="arrowDown.mouseout"/>
                  </use>
                  <path fill="none" stroke="white" stroke-width="1.5" d="M0,-3.0v7 M-2.5,-0.5L0,-3.0L2.5,-0.5"/>
                </g>
                <g id="arrowLeft" xlink:href="#dirArrow" transform="rotate(270) translate(-36 17)" onmousedown="handlePan(-1,0)">
                  <use xlink:href="#rim" fill="#404040">
                        <set attributeName="fill" to="#808080" begin="arrowLeft.mouseover" end="arrowLeft.mouseout"/>
                  </use>
                  <path fill="none" stroke="white" stroke-width="1.5" d="M0,-3.0v7 M-2.5,-0.5L0,-3.0L2.5,-0.5"/>
                </g>
        </g>
        <svg viewBox="0 0 25 25" width="100%" height="30px" preserveAspectRatio="xMaxYMin meet"> 
          <g id="printButton" transform="scale(0.4 0.4)" onmousedown="handlePrint(evt)">
            <rect height="23.33753581" id="paper" rx="2" style="fill:#f2f5e9;fill-rule:evenodd;stroke:#111111;stroke-width:3.224;stroke-linejoin:round;" transform="matrix(1.000000,0.000000,-0.339266,0.940691,0.000000,0.000000)" width="25.55231285" x="26.69387353" y="7.36162977"/>
            <rect height="26.272097" id="body" rx="2" style="fill:#404040;fill-rule:evenodd;stroke:#111111;stroke-width:3.125;stroke-linejoin:round;" width="50" x="4.5295201" y="27.078951"/>
            <rect height="8.27750969" id="tray" style="fill:#d2d5c9;fill-rule:evenodd;stroke:#111111;stroke-width:3.125;stroke-linecap:round;stroke-linejoin:round;" width="40" x="10.28778839" y="44.96812282"/>
          </g>
        </svg>
</svg>
