<?xml version="1.0" encoding="UTF-8" standalone="no"?>
<!DOCTYPE svg PUBLIC "-//W3C//DTD SVG 1.1//EN"
 "http://www.w3.org/Graphics/SVG/1.1/DTD/svg11.dtd">
<!-- Generated by graphviz version 2.28.0 (20120217.0315)
 -->
<!-- Title: G Pages: 1 -->
<!--zoomable 250 -->
<svg id="main" version="1.1" xmlns="http://www.w3.org/2000/svg" xmlns:xlink="http://www.w3.org/1999/xlink" xml:space="preserve" onload="init(evt)">
        <defs>
                <circle id="rim" cx="0" cy="0" r="7"/>
                <circle id="rim2" cx="0" cy="0" r="3.5"/>
                <g id="zoomPlus">
                        <use xlink:href="#rim" fill="#404040">
                                <set attributeName="fill" to="#808080" begin="zoomplus.mouseover" end="zoomplus.mouseout"/>
                        </use>
                        <path d="M-4,0h8M0,-4v8" fill="none" stroke="white" stroke-width="1.5" pointer-events="none"/>
                </g>
                <g id="zoomMin">
                        <use xlink:href="#rim" fill="#404040">
                                <set attributeName="fill" to="#808080" begin="zoomminus.mouseover" end="zoomminus.mouseout"/>
                        </use>
                        <path d="M-4,0h8" fill="none" stroke="white" stroke-width="1.5" pointer-events="none"/>
                </g>
                <g id="dirArrow">
                        <path fill="none" stroke="white" stroke-width="1.5" d="M0,-3.0v7 M-2.5,-0.5L0,-3.0L2.5,-0.5"/>
                </g>
               <g id="resetDef">
                       <use xlink:href="#rim2" fill="#404040">
                               <set attributeName="fill" to="#808080" begin="reset.mouseover" end="reset.mouseout"/>
                       </use>
               </g>
        </defs>

<script type="text/javascript">
var viewWidth = 1388;
var viewHeight = 250;
var sectionId = 'dynsection-12';
</script>
<script xlink:href="../../svgpan.js"/>
<svg id="graph" class="graph">
<g id="viewport">
<title>G</title>
<!-- Node1 -->
<g id="node1" class="node"><title>Node1</title>
<polygon fill="#bfbfbf" stroke="black" points="0.5,-85.5 0.5,-104.5 101.5,-104.5 101.5,-85.5 0.5,-85.5"/>
<text text-anchor="middle" x="51" y="-92.5" font-family="DejaVuSansMono" font-size="10.00">socket_handler</text>
</g>
<!-- Node2 -->
<g id="node3" class="node"><title>Node2</title>
<a xlink:href="../../d1/dc2/xmpp__parser_8c.html#af5e1eb5bbef0496c3543bd35113766ac" target="_top" xlink:title="Reset the state of the parser as if it was just created.">
<polygon fill="none" stroke="black" points="294.5,-85.5 294.5,-104.5 413.5,-104.5 413.5,-85.5 294.5,-85.5"/>
<text text-anchor="middle" x="354" y="-92.5" font-family="DejaVuSansMono" font-size="10.00">xmpp_parser_reset</text>
</a>
</g>
<!-- Node1&#45;&gt;Node2 -->
<g id="edge2" class="edge"><title>Node1&#45;&gt;Node2</title>
<path fill="none" stroke="midnightblue" d="M101.704,-95C151.534,-95 228.649,-95 284.313,-95"/>
<polygon fill="midnightblue" stroke="midnightblue" points="284.445,-98.5001 294.445,-95 284.445,-91.5001 284.445,-98.5001"/>
</g>
<!-- Node25 -->
<g id="node54" class="node"><title>Node25</title>
<a xlink:href="../../d1/dc2/xmpp__parser_8c.html#a578b7a9a50212eb204a86789001287af" target="_top" xlink:title="xmpp_parser_parse">
<polygon fill="none" stroke="black" points="138.5,-66.5 138.5,-85.5 257.5,-85.5 257.5,-66.5 138.5,-66.5"/>
<text text-anchor="middle" x="198" y="-73.5" font-family="DejaVuSansMono" font-size="10.00">xmpp_parser_parse</text>
</a>
</g>
<!-- Node1&#45;&gt;Node25 -->
<g id="edge58" class="edge"><title>Node1&#45;&gt;Node25</title>
<path fill="none" stroke="midnightblue" d="M101.901,-88.4613C110.412,-87.346 119.385,-86.1702 128.282,-85.0044"/>
<polygon fill="midnightblue" stroke="midnightblue" points="128.806,-88.4658 138.266,-83.6961 127.896,-81.5251 128.806,-88.4658"/>
</g>
<!-- Node3 -->
<g id="node5" class="node"><title>Node3</title>
<a xlink:href="../../d1/dc2/xmpp__parser_8c.html#a03a135f29e3d4e01abbb60e53ac6967c" target="_top" xlink:title="init_parser">
<polygon fill="none" stroke="black" points="450.5,-85.5 450.5,-104.5 533.5,-104.5 533.5,-85.5 450.5,-85.5"/>
<text text-anchor="middle" x="492" y="-92.5" font-family="DejaVuSansMono" font-size="10.00">init_parser</text>
</a>
</g>
<!-- Node2&#45;&gt;Node3 -->
<g id="edge4" class="edge"><title>Node2&#45;&gt;Node3</title>
<path fill="none" stroke="midnightblue" d="M413.861,-95C422.639,-95 431.624,-95 440.217,-95"/>
<polygon fill="midnightblue" stroke="midnightblue" points="440.463,-98.5001 450.463,-95 440.463,-91.5001 440.463,-98.5001"/>
</g>
<!-- Node4 -->
<g id="node7" class="node"><title>Node4</title>
<a xlink:href="../../d1/dc2/xmpp__parser_8c.html#a0f2993ab3e982d5e2b4a5635dcaf291c" target="_top" xlink:title="Expat callback for the start of any other element.">
<polygon fill="none" stroke="black" points="750.5,-208.5 750.5,-227.5 797.5,-227.5 797.5,-208.5 750.5,-208.5"/>
<text text-anchor="middle" x="774" y="-215.5" font-family="DejaVuSansMono" font-size="10.00">start</text>
</a>
</g>
<!-- Node3&#45;&gt;Node4 -->
<g id="edge6" class="edge"><title>Node3&#45;&gt;Node4</title>
<path fill="none" stroke="midnightblue" d="M501.499,-104.567C514.746,-118.904 541.744,-145.886 570,-161 625.824,-190.861 698.87,-206.39 740.391,-213.323"/>
<polygon fill="midnightblue" stroke="midnightblue" points="740.057,-216.814 750.485,-214.942 741.165,-209.903 740.057,-216.814"/>
</g>
<!-- Node11 -->
<g id="node21" class="node"><title>Node11</title>
<a xlink:href="../../d1/dc2/xmpp__parser_8c.html#adc3f7670edafd5b590af11d276887f1e" target="_top" xlink:title="Expat callback for end elements.">
<polygon fill="none" stroke="black" points="597.5,-85.5 597.5,-104.5 632.5,-104.5 632.5,-85.5 597.5,-85.5"/>
<text text-anchor="middle" x="615" y="-92.5" font-family="DejaVuSansMono" font-size="10.00">end</text>
</a>
</g>
<!-- Node3&#45;&gt;Node11 -->
<g id="edge20" class="edge"><title>Node3&#45;&gt;Node11</title>
<path fill="none" stroke="midnightblue" d="M533.628,-95C551.255,-95 571.415,-95 587.134,-95"/>
<polygon fill="midnightblue" stroke="midnightblue" points="587.221,-98.5001 597.221,-95 587.221,-91.5001 587.221,-98.5001"/>
</g>
<!-- Node21 -->
<g id="node42" class="node"><title>Node21</title>
<a xlink:href="../../d1/dc2/xmpp__parser_8c.html#a78918dc72ccbf110d41d34080ebbf014" target="_top" xlink:title="Expat callback for XML data.">
<polygon fill="none" stroke="black" points="582.5,-47.5 582.5,-66.5 647.5,-66.5 647.5,-47.5 582.5,-47.5"/>
<text text-anchor="middle" x="615" y="-54.5" font-family="DejaVuSansMono" font-size="10.00">chardata</text>
</a>
</g>
<!-- Node3&#45;&gt;Node21 -->
<g id="edge42" class="edge"><title>Node3&#45;&gt;Node21</title>
<path fill="none" stroke="midnightblue" d="M523.533,-85.411C538.723,-80.6406 557.285,-74.8112 573.633,-69.6771"/>
<polygon fill="midnightblue" stroke="midnightblue" points="574.984,-72.9214 583.476,-66.5859 572.887,-66.243 574.984,-72.9214"/>
</g>
<!-- Node23 -->
<g id="node46" class="node"><title>Node23</title>
<a xlink:href="../../d1/dc2/xmpp__parser_8c.html#a97bcfc9f28eea4b3aa3a7d8ac7af8aee" target="_top" xlink:title="Expat callback for namespace declarations.">
<polygon fill="none" stroke="black" points="582.5,-9.5 582.5,-28.5 647.5,-28.5 647.5,-9.5 582.5,-9.5"/>
<text text-anchor="middle" x="615" y="-16.5" font-family="DejaVuSansMono" font-size="10.00">ns_start</text>
</a>
</g>
<!-- Node3&#45;&gt;Node23 -->
<g id="edge46" class="edge"><title>Node3&#45;&gt;Node23</title>
<path fill="none" stroke="midnightblue" d="M504.17,-85.4379C518.666,-73.341 545.064,-52.3579 570,-38 573.049,-36.2445 576.291,-34.5506 579.579,-32.9458"/>
<polygon fill="midnightblue" stroke="midnightblue" points="581.224,-36.0416 588.846,-28.6821 578.298,-29.6824 581.224,-36.0416"/>
</g>
<!-- Node24 -->
<g id="node48" class="node"><title>Node24</title>
<a xlink:href="../../d1/dc2/xmpp__parser_8c.html#a2268b636f6d02bbe04f3033ff93d829c" target="_top" xlink:title="Expat callback for the start of an XMPP stream.">
<polygon fill="none" stroke="black" points="570.5,-132.5 570.5,-151.5 659.5,-151.5 659.5,-132.5 570.5,-132.5"/>
<text text-anchor="middle" x="615" y="-139.5" font-family="DejaVuSansMono" font-size="10.00">stream_start</text>
</a>
</g>
<!-- Node3&#45;&gt;Node24 -->
<g id="edge48" class="edge"><title>Node3&#45;&gt;Node24</title>
<path fill="none" stroke="midnightblue" d="M517.486,-104.511C535.327,-111.441 559.737,-120.923 579.544,-128.616"/>
<polygon fill="midnightblue" stroke="midnightblue" points="578.546,-131.983 589.135,-132.342 581.081,-125.458 578.546,-131.983"/>
</g>
<!-- Node5 -->
<g id="node9" class="node"><title>Node5</title>
<a xlink:href="../../d1/d59/xmpp__stanza_8c.html#aa2b621549a5e0499793adbec29964932" target="_top" xlink:title="Allocate stanza with namespace information.">
<polygon fill="none" stroke="black" points="909.5,-184.5 909.5,-203.5 1034.5,-203.5 1034.5,-184.5 909.5,-184.5"/>
<text text-anchor="middle" x="972" y="-191.5" font-family="DejaVuSansMono" font-size="10.00">xmpp_stanza_ns_new</text>
</a>
</g>
<!-- Node4&#45;&gt;Node5 -->
<g id="edge8" class="edge"><title>Node4&#45;&gt;Node5</title>
<path fill="none" stroke="midnightblue" d="M797.867,-215.2C822.697,-212.16 863.608,-207.15 899.428,-202.764"/>
<polygon fill="midnightblue" stroke="midnightblue" points="899.878,-206.235 909.378,-201.546 899.027,-199.287 899.878,-206.235"/>
</g>
<!-- Node9 -->
<g id="node17" class="node"><title>Node9</title>
<a xlink:href="../../d1/d59/xmpp__stanza_8c.html#ac13c8bb45e2ca03b99836e8d52b265b4" target="_top" xlink:title="Appends a child stanza.">
<polygon fill="none" stroke="black" points="891.5,-222.5 891.5,-241.5 1052.5,-241.5 1052.5,-222.5 891.5,-222.5"/>
<text text-anchor="middle" x="972" y="-229.5" font-family="DejaVuSansMono" font-size="10.00">xmpp_stanza_append_child</text>
</a>
</g>
<!-- Node4&#45;&gt;Node9 -->
<g id="edge16" class="edge"><title>Node4&#45;&gt;Node9</title>
<path fill="none" stroke="midnightblue" d="M797.867,-219.633C818.462,-221.104 850.12,-223.366 880.76,-225.554"/>
<polygon fill="midnightblue" stroke="midnightblue" points="880.871,-229.071 891.095,-226.292 881.37,-222.089 880.871,-229.071"/>
</g>
<!-- Node6 -->
<g id="node11" class="node"><title>Node6</title>
<a xlink:href="../../d1/d59/xmpp__stanza_8c.html#aa80dd21d794b5c63fcb13c49745cc373" target="_top" xlink:title="Allocate and initialize a new XMPP stanza structure.">
<polygon fill="none" stroke="black" points="1131.5,-184.5 1131.5,-203.5 1238.5,-203.5 1238.5,-184.5 1131.5,-184.5"/>
<text text-anchor="middle" x="1185" y="-191.5" font-family="DejaVuSansMono" font-size="10.00">xmpp_stanza_new</text>
</a>
</g>
<!-- Node5&#45;&gt;Node6 -->
<g id="edge10" class="edge"><title>Node5&#45;&gt;Node6</title>
<path fill="none" stroke="midnightblue" d="M1034.6,-194C1061.78,-194 1093.69,-194 1121.03,-194"/>
<polygon fill="midnightblue" stroke="midnightblue" points="1121.26,-197.5 1131.26,-194 1121.26,-190.5 1121.26,-197.5"/>
</g>
<!-- Node7 -->
<g id="node13" class="node"><title>Node7</title>
<a xlink:href="../../d1/d59/xmpp__stanza_8c.html#a5a80203f56df7a360fa457c0111686f6" target="_top" xlink:title="Parse the namespace triple that Expat gives us.">
<polygon fill="none" stroke="black" points="1314.5,-203.5 1314.5,-222.5 1379.5,-222.5 1379.5,-203.5 1314.5,-203.5"/>
<text text-anchor="middle" x="1347" y="-210.5" font-family="DejaVuSansMono" font-size="10.00">parse_ns</text>
</a>
</g>
<!-- Node6&#45;&gt;Node7 -->
<g id="edge12" class="edge"><title>Node6&#45;&gt;Node7</title>
<path fill="none" stroke="midnightblue" d="M1238.83,-200.274C1260.07,-202.796 1284.21,-205.662 1304.19,-208.035"/>
<polygon fill="midnightblue" stroke="midnightblue" points="1303.88,-211.523 1314.23,-209.227 1304.71,-204.572 1303.88,-211.523"/>
</g>
<!-- Node8 -->
<g id="node15" class="node"><title>Node8</title>
<a xlink:href="../../d1/d59/xmpp__stanza_8c.html#aff4b8f6e10ce1c351d2a5bc39f0e819f" target="_top" xlink:title="Convenience function to build a key for the attribute hash table.">
<polygon fill="none" stroke="black" points="1314.5,-165.5 1314.5,-184.5 1379.5,-184.5 1379.5,-165.5 1314.5,-165.5"/>
<text text-anchor="middle" x="1347" y="-172.5" font-family="DejaVuSansMono" font-size="10.00">make_key</text>
</a>
</g>
<!-- Node6&#45;&gt;Node8 -->
<g id="edge14" class="edge"><title>Node6&#45;&gt;Node8</title>
<path fill="none" stroke="midnightblue" d="M1238.83,-187.726C1260.07,-185.204 1284.21,-182.338 1304.19,-179.965"/>
<polygon fill="midnightblue" stroke="midnightblue" points="1304.71,-183.428 1314.23,-178.773 1303.88,-176.477 1304.71,-183.428"/>
</g>
<!-- Node10 -->
<g id="node19" class="node"><title>Node10</title>
<a xlink:href="../../d1/d59/xmpp__stanza_8c.html#afc77f00b7f38c79566a7b16876230e30" target="_top" xlink:title="Removes a child stanza.">
<polygon fill="none" stroke="black" points="1104.5,-222.5 1104.5,-241.5 1265.5,-241.5 1265.5,-222.5 1104.5,-222.5"/>
<text text-anchor="middle" x="1185" y="-229.5" font-family="DejaVuSansMono" font-size="10.00">xmpp_stanza_remove_child</text>
</a>
</g>
<!-- Node9&#45;&gt;Node10 -->
<g id="edge18" class="edge"><title>Node9&#45;&gt;Node10</title>
<path fill="none" stroke="midnightblue" d="M1052.77,-232C1066.39,-232 1080.61,-232 1094.46,-232"/>
<polygon fill="midnightblue" stroke="midnightblue" points="1094.47,-235.5 1104.47,-232 1094.47,-228.5 1094.47,-235.5"/>
</g>
<!-- Node12 -->
<g id="node23" class="node"><title>Node12</title>
<a xlink:href="../../d1/d59/xmpp__stanza_8c.html#a513b6e2da3dce364271ba9315d7b3d95" target="_top" xlink:title="Returns the stanza (and its children) packed into a null&#45;terminated string.">
<polygon fill="none" stroke="black" points="711.5,-132.5 711.5,-151.5 836.5,-151.5 836.5,-132.5 711.5,-132.5"/>
<text text-anchor="middle" x="774" y="-139.5" font-family="DejaVuSansMono" font-size="10.00">xmpp_stanza_string</text>
</a>
</g>
<!-- Node11&#45;&gt;Node12 -->
<g id="edge22" class="edge"><title>Node11&#45;&gt;Node12</title>
<path fill="none" stroke="midnightblue" d="M632.705,-101.367C648.785,-107.371 673.857,-116.409 696,-123 704.157,-125.428 712.864,-127.791 721.38,-129.979"/>
<polygon fill="midnightblue" stroke="midnightblue" points="720.693,-133.416 731.245,-132.461 722.401,-126.627 720.693,-133.416"/>
</g>
<!-- Node17 -->
<g id="node33" class="node"><title>Node17</title>
<a xlink:href="../../d1/d59/xmpp__stanza_8c.html#af40757ae1d137034570b1bb33303d024" target="_top" xlink:title="Cleans up and frees an XMPP stanza.">
<polygon fill="none" stroke="black" points="720.5,-76.5 720.5,-95.5 827.5,-95.5 827.5,-76.5 720.5,-76.5"/>
<text text-anchor="middle" x="774" y="-83.5" font-family="DejaVuSansMono" font-size="10.00">xmpp_stanza_del</text>
</a>
</g>
<!-- Node11&#45;&gt;Node17 -->
<g id="edge32" class="edge"><title>Node11&#45;&gt;Node17</title>
<path fill="none" stroke="midnightblue" d="M632.505,-94.0539C650.946,-92.9967 681.919,-91.2212 710.098,-89.6059"/>
<polygon fill="midnightblue" stroke="midnightblue" points="710.541,-93.0863 720.325,-89.0196 710.141,-86.0977 710.541,-93.0863"/>
</g>
<!-- Node20 -->
<g id="node40" class="node"><title>Node20</title>
<a xlink:href="../../d1/d59/xmpp__stanza_8c.html#aacbe1cdb2a1d254b0b712653787b3c45" target="_top" xlink:title="Returns a pointer to the parent stanza.">
<polygon fill="none" stroke="black" points="711.5,-38.5 711.5,-57.5 836.5,-57.5 836.5,-38.5 711.5,-38.5"/>
<text text-anchor="middle" x="774" y="-45.5" font-family="DejaVuSansMono" font-size="10.00">xmpp_stanza_parent</text>
</a>
</g>
<!-- Node11&#45;&gt;Node20 -->
<g id="edge40" class="edge"><title>Node11&#45;&gt;Node20</title>
<path fill="none" stroke="midnightblue" d="M632.705,-88.6333C648.785,-82.6287 673.857,-73.5907 696,-67 704.157,-64.572 712.864,-62.2088 721.38,-60.0206"/>
<polygon fill="midnightblue" stroke="midnightblue" points="722.401,-63.373 731.245,-57.539 720.693,-56.5845 722.401,-63.373"/>
</g>
<!-- Node13 -->
<g id="node25" class="node"><title>Node13</title>
<a xlink:href="../../d1/d59/xmpp__stanza_8c.html#aae8c30c30fcbc2325d34897f8035ca46" target="_top" xlink:title="Function that gets called recursively to convert a stanza to a string.">
<polygon fill="none" stroke="black" points="927.5,-123.5 927.5,-142.5 1016.5,-142.5 1016.5,-123.5 927.5,-123.5"/>
<text text-anchor="middle" x="972" y="-130.5" font-family="DejaVuSansMono" font-size="10.00">stanza_tostr</text>
</a>
</g>
<!-- Node12&#45;&gt;Node13 -->
<g id="edge24" class="edge"><title>Node12&#45;&gt;Node13</title>
<path fill="none" stroke="midnightblue" d="M836.747,-139.165C862.586,-137.978 892.339,-136.612 917.259,-135.468"/>
<polygon fill="midnightblue" stroke="midnightblue" points="917.432,-138.964 927.261,-135.008 917.111,-131.971 917.432,-138.964"/>
</g>
<!-- Node14 -->
<g id="node27" class="node"><title>Node14</title>
<a xlink:href="../../d1/dc2/xmpp__parser_8c.html#acce8bfe5926da4e64c3b5038dc683618" target="_top" xlink:title="xmpp_parser_namespace_prefix">
<polygon fill="none" stroke="black" points="1092.5,-70.5 1092.5,-89.5 1277.5,-89.5 1277.5,-70.5 1092.5,-70.5"/>
<text text-anchor="middle" x="1185" y="-77.5" font-family="DejaVuSansMono" font-size="10.00">xmpp_parser_namespace_prefix</text>
</a>
</g>
<!-- Node13&#45;&gt;Node14 -->
<g id="edge26" class="edge"><title>Node13&#45;&gt;Node14</title>
<path fill="none" stroke="midnightblue" d="M1008.19,-123.467C1022.98,-119.404 1040.35,-114.558 1056,-110 1072.06,-105.321 1075.79,-103.141 1092,-99 1102.18,-96.3999 1113.06,-93.9053 1123.65,-91.6278"/>
<polygon fill="midnightblue" stroke="midnightblue" points="1124.61,-95.0018 1133.67,-89.5143 1123.16,-88.1523 1124.61,-95.0018"/>
</g>
<!-- Node15 -->
<g id="node29" class="node"><title>Node15</title>
<a xlink:href="../../d1/dc2/xmpp__parser_8c.html#afde3cf0e74a12bfe4ac90fa8dbae51a0" target="_top" xlink:title="xmpp_parser_namespace_uri">
<polygon fill="none" stroke="black" points="1101.5,-146.5 1101.5,-165.5 1268.5,-165.5 1268.5,-146.5 1101.5,-146.5"/>
<text text-anchor="middle" x="1185" y="-153.5" font-family="DejaVuSansMono" font-size="10.00">xmpp_parser_namespace_uri</text>
</a>
</g>
<!-- Node13&#45;&gt;Node15 -->
<g id="edge28" class="edge"><title>Node13&#45;&gt;Node15</title>
<path fill="none" stroke="midnightblue" d="M1016.72,-137.766C1038.25,-140.112 1065.07,-143.036 1090.89,-145.851"/>
<polygon fill="midnightblue" stroke="midnightblue" points="1090.78,-149.36 1101.1,-146.964 1091.54,-142.401 1090.78,-149.36"/>
</g>
<!-- Node16 -->
<g id="node31" class="node"><title>Node16</title>
<a xlink:href="../../d1/dc2/xmpp__parser_8c.html#af924e15caac53b347a48878fcb046bc4" target="_top" xlink:title="Return the next namespace in the namespace list.">
<polygon fill="none" stroke="black" points="1098.5,-108.5 1098.5,-127.5 1271.5,-127.5 1271.5,-108.5 1098.5,-108.5"/>
<text text-anchor="middle" x="1185" y="-115.5" font-family="DejaVuSansMono" font-size="10.00">xmpp_parser_namespace_next</text>
</a>
</g>
<!-- Node13&#45;&gt;Node16 -->
<g id="edge30" class="edge"><title>Node13&#45;&gt;Node16</title>
<path fill="none" stroke="midnightblue" d="M1016.72,-129.892C1037.41,-128.421 1062.99,-126.603 1087.87,-124.834"/>
<polygon fill="midnightblue" stroke="midnightblue" points="1088.37,-128.307 1098.1,-124.107 1087.88,-121.325 1088.37,-128.307"/>
</g>
<!-- Node17&#45;&gt;Node17 -->
<g id="edge38" class="edge"><title>Node17&#45;&gt;Node17</title>
<path fill="none" stroke="midnightblue" d="M749.648,-95.7571C737.801,-104.565 745.918,-114 774,-114 792.429,-114 802.26,-109.937 803.492,-104.654"/>
<polygon fill="midnightblue" stroke="midnightblue" points="806.386,-102.665 798.352,-95.7571 800.324,-106.167 806.386,-102.665"/>
</g>
<!-- Node18 -->
<g id="node35" class="node"><title>Node18</title>
<a xlink:href="../../d1/d59/xmpp__stanza_8c.html#a2fb472c6bf9b7f540a97ddc6c11adb74" target="_top" xlink:title="attribute_del">
<polygon fill="none" stroke="black" points="924.5,-43.5 924.5,-62.5 1019.5,-62.5 1019.5,-43.5 924.5,-43.5"/>
<text text-anchor="middle" x="972" y="-50.5" font-family="DejaVuSansMono" font-size="10.00">attribute_del</text>
</a>
</g>
<!-- Node17&#45;&gt;Node18 -->
<g id="edge34" class="edge"><title>Node17&#45;&gt;Node18</title>
<path fill="none" stroke="midnightblue" d="M827.524,-77.1566C854.27,-72.6535 886.823,-67.1727 914.156,-62.5707"/>
<polygon fill="midnightblue" stroke="midnightblue" points="915.073,-65.9657 924.353,-60.8539 913.91,-59.0629 915.073,-65.9657"/>
</g>
<!-- Node19 -->
<g id="node37" class="node"><title>Node19</title>
<a xlink:href="../../d1/dc2/xmpp__parser_8c.html#a87065f39f10a449e7af17fa45ca475f2" target="_top" xlink:title="xmpp_parser_namespace_del">
<polygon fill="none" stroke="black" points="888.5,-81.5 888.5,-100.5 1055.5,-100.5 1055.5,-81.5 888.5,-81.5"/>
<text text-anchor="middle" x="972" y="-88.5" font-family="DejaVuSansMono" font-size="10.00">xmpp_parser_namespace_del</text>
</a>
</g>
<!-- Node17&#45;&gt;Node19 -->
<g id="edge36" class="edge"><title>Node17&#45;&gt;Node19</title>
<path fill="none" stroke="midnightblue" d="M827.524,-87.3399C843.165,-87.7389 860.791,-88.1885 878.197,-88.6326"/>
<polygon fill="midnightblue" stroke="midnightblue" points="878.318,-92.1367 888.404,-88.893 878.497,-85.139 878.318,-92.1367"/>
</g>
<!-- Node22 -->
<g id="node44" class="node"><title>Node22</title>
<a xlink:href="../../d1/d59/xmpp__stanza_8c.html#a4adffe2c21d8f7aa52ce23cc48772b7f" target="_top" xlink:title="Copies data.">
<polygon fill="none" stroke="black" points="696.5,-0.5 696.5,-19.5 851.5,-19.5 851.5,-0.5 696.5,-0.5"/>
<text text-anchor="middle" x="774" y="-7.5" font-family="DejaVuSansMono" font-size="10.00">xmpp_stanza_append_data</text>
</a>
</g>
<!-- Node21&#45;&gt;Node22 -->
<g id="edge44" class="edge"><title>Node21&#45;&gt;Node22</title>
<path fill="none" stroke="midnightblue" d="M641.379,-47.4255C657.009,-41.7023 677.524,-34.4992 696,-29 704.157,-26.572 712.864,-24.2088 721.38,-22.0206"/>
<polygon fill="midnightblue" stroke="midnightblue" points="722.401,-25.373 731.245,-19.539 720.693,-18.5845 722.401,-25.373"/>
</g>
<!-- Node24&#45;&gt;Node4 -->
<g id="edge54" class="edge"><title>Node24&#45;&gt;Node4</title>
<path fill="none" stroke="midnightblue" d="M628.39,-151.608C643.597,-163.023 670.513,-182.024 696,-194 710.175,-200.661 726.663,-206.082 740.736,-210.077"/>
<polygon fill="midnightblue" stroke="midnightblue" points="739.921,-213.482 750.489,-212.73 741.759,-206.727 739.921,-213.482"/>
</g>
<!-- Node24&#45;&gt;Node5 -->
<g id="edge50" class="edge"><title>Node24&#45;&gt;Node5</title>
<path fill="none" stroke="midnightblue" d="M652.457,-151.582C666.053,-154.911 681.665,-158.446 696,-161 764.521,-173.207 843.469,-182.16 899.149,-187.636"/>
<polygon fill="midnightblue" stroke="midnightblue" points="898.975,-191.135 909.267,-188.618 899.652,-184.168 898.975,-191.135"/>
</g>
<!-- Node24&#45;&gt;Node12 -->
<g id="edge52" class="edge"><title>Node24&#45;&gt;Node12</title>
<path fill="none" stroke="midnightblue" d="M659.733,-142C672.583,-142 686.991,-142 701.111,-142"/>
<polygon fill="midnightblue" stroke="midnightblue" points="701.316,-145.5 711.316,-142 701.316,-138.5 701.316,-145.5"/>
</g>
<!-- Node24&#45;&gt;Node17 -->
<g id="edge56" class="edge"><title>Node24&#45;&gt;Node17</title>
<path fill="none" stroke="midnightblue" d="M642.989,-132.373C668.87,-123.142 708.125,-109.14 736.729,-98.9375"/>
<polygon fill="midnightblue" stroke="midnightblue" points="738.12,-102.157 746.363,-95.5011 735.768,-95.5642 738.12,-102.157"/>
</g>
<!-- Node25&#45;&gt;Node2 -->
<g id="edge60" class="edge"><title>Node25&#45;&gt;Node2</title>
<path fill="none" stroke="midnightblue" d="M257.66,-83.2373C266.368,-84.3116 275.408,-85.427 284.299,-86.5239"/>
<polygon fill="midnightblue" stroke="midnightblue" points="283.895,-90.0005 294.248,-87.7514 284.752,-83.0531 283.895,-90.0005"/>
</g>
</g>
</svg>
        <g id="navigator" transform="translate(0 0)" fill="#404254">
                <rect fill="#f2f5e9" fill-opacity="0.5" stroke="#606060" stroke-width=".5" x="0" y="0" width="60" height="60"/>
                <use id="zoomplus" xlink:href="#zoomPlus" x="17" y="9" onmousedown="handleZoom(evt,'in')"/>
                <use id="zoomminus" xlink:href="#zoomMin" x="42" y="9" onmousedown="handleZoom(evt,'out')"/>
                <use id="reset" xlink:href="#resetDef" x="30" y="36" onmousedown="handleReset()"/>
                <g id="arrowUp" xlink:href="#dirArrow" transform="translate(30 24)" onmousedown="handlePan(0,-1)">
                  <use xlink:href="#rim" fill="#404040">
                        <set attributeName="fill" to="#808080" begin="arrowUp.mouseover" end="arrowUp.mouseout"/>
                  </use>
                  <path fill="none" stroke="white" stroke-width="1.5" d="M0,-3.0v7 M-2.5,-0.5L0,-3.0L2.5,-0.5"/>
                </g>
                <g id="arrowRight" xlink:href="#dirArrow" transform="rotate(90) translate(36 -43)" onmousedown="handlePan(1,0)">
                  <use xlink:href="#rim" fill="#404040">
                        <set attributeName="fill" to="#808080" begin="arrowRight.mouseover" end="arrowRight.mouseout"/>
                  </use>
                  <path fill="none" stroke="white" stroke-width="1.5" d="M0,-3.0v7 M-2.5,-0.5L0,-3.0L2.5,-0.5"/>
                </g>
                <g id="arrowDown" xlink:href="#dirArrow" transform="rotate(180) translate(-30 -48)" onmousedown="handlePan(0,1)">
                  <use xlink:href="#rim" fill="#404040">
                        <set attributeName="fill" to="#808080" begin="arrowDown.mouseover" end="arrowDown.mouseout"/>
                  </use>
                  <path fill="none" stroke="white" stroke-width="1.5" d="M0,-3.0v7 M-2.5,-0.5L0,-3.0L2.5,-0.5"/>
                </g>
                <g id="arrowLeft" xlink:href="#dirArrow" transform="rotate(270) translate(-36 17)" onmousedown="handlePan(-1,0)">
                  <use xlink:href="#rim" fill="#404040">
                        <set attributeName="fill" to="#808080" begin="arrowLeft.mouseover" end="arrowLeft.mouseout"/>
                  </use>
                  <path fill="none" stroke="white" stroke-width="1.5" d="M0,-3.0v7 M-2.5,-0.5L0,-3.0L2.5,-0.5"/>
                </g>
        </g>
        <svg viewBox="0 0 25 25" width="100%" height="30px" preserveAspectRatio="xMaxYMin meet"> 
          <g id="printButton" transform="scale(0.4 0.4)" onmousedown="handlePrint(evt)">
            <rect height="23.33753581" id="paper" rx="2" style="fill:#f2f5e9;fill-rule:evenodd;stroke:#111111;stroke-width:3.224;stroke-linejoin:round;" transform="matrix(1.000000,0.000000,-0.339266,0.940691,0.000000,0.000000)" width="25.55231285" x="26.69387353" y="7.36162977"/>
            <rect height="26.272097" id="body" rx="2" style="fill:#404040;fill-rule:evenodd;stroke:#111111;stroke-width:3.125;stroke-linejoin:round;" width="50" x="4.5295201" y="27.078951"/>
            <rect height="8.27750969" id="tray" style="fill:#d2d5c9;fill-rule:evenodd;stroke:#111111;stroke-width:3.125;stroke-linecap:round;stroke-linejoin:round;" width="40" x="10.28778839" y="44.96812282"/>
          </g>
        </svg>
</svg>
