<?xml version="1.0" encoding="UTF-8" standalone="no"?>
<!DOCTYPE svg PUBLIC "-//W3C//DTD SVG 1.1//EN"
 "http://www.w3.org/Graphics/SVG/1.1/DTD/svg11.dtd">
<!-- Generated by graphviz version 2.28.0 (20120217.0315)
 -->
<!-- Title: G Pages: 1 -->
<!--zoomable 280 -->
<svg id="main" version="1.1" xmlns="http://www.w3.org/2000/svg" xmlns:xlink="http://www.w3.org/1999/xlink" xml:space="preserve" onload="init(evt)">
        <defs>
                <circle id="rim" cx="0" cy="0" r="7"/>
                <circle id="rim2" cx="0" cy="0" r="3.5"/>
                <g id="zoomPlus">
                        <use xlink:href="#rim" fill="#404040">
                                <set attributeName="fill" to="#808080" begin="zoomplus.mouseover" end="zoomplus.mouseout"/>
                        </use>
                        <path d="M-4,0h8M0,-4v8" fill="none" stroke="white" stroke-width="1.5" pointer-events="none"/>
                </g>
                <g id="zoomMin">
                        <use xlink:href="#rim" fill="#404040">
                                <set attributeName="fill" to="#808080" begin="zoomminus.mouseover" end="zoomminus.mouseout"/>
                        </use>
                        <path d="M-4,0h8" fill="none" stroke="white" stroke-width="1.5" pointer-events="none"/>
                </g>
                <g id="dirArrow">
                        <path fill="none" stroke="white" stroke-width="1.5" d="M0,-3.0v7 M-2.5,-0.5L0,-3.0L2.5,-0.5"/>
                </g>
               <g id="resetDef">
                       <use xlink:href="#rim2" fill="#404040">
                               <set attributeName="fill" to="#808080" begin="reset.mouseover" end="reset.mouseout"/>
                       </use>
               </g>
        </defs>

<script type="text/javascript">
var viewWidth = 890;
var viewHeight = 280;
var sectionId = 'dynsection-9';
</script>
<script xlink:href="../../svgpan.js"/>
<svg id="graph" class="graph">
<g id="viewport">
<title>G</title>
<!-- Node1 -->
<g id="node1" class="node"><title>Node1</title>
<polygon fill="#bfbfbf" stroke="black" points="0.5,-143.5 0.5,-162.5 101.5,-162.5 101.5,-143.5 0.5,-143.5"/>
<text text-anchor="middle" x="51" y="-150.5" font-family="DejaVuSansMono" font-size="10.00">multicast_stop</text>
</g>
<!-- Node2 -->
<g id="node3" class="node"><title>Node2</title>
<a xlink:href="../../d3/d5a/jid_8c.html#a0151ea37a9f52813a8d48d2b7eec2044" target="_top" xlink:title="Allocate and initialize a new JID from an existing JID string.">
<polygon fill="none" stroke="black" points="381.5,-228.5 381.5,-247.5 494.5,-247.5 494.5,-228.5 381.5,-228.5"/>
<text text-anchor="middle" x="438" y="-235.5" font-family="DejaVuSansMono" font-size="10.00">jid_new_from_str</text>
</a>
</g>
<!-- Node1&#45;&gt;Node2 -->
<g id="edge2" class="edge"><title>Node1&#45;&gt;Node2</title>
<path fill="none" stroke="midnightblue" d="M69.9326,-162.577C86.9791,-171.277 113.57,-183.816 138,-191 216.394,-214.052 309.874,-226.441 371.187,-232.615"/>
<polygon fill="midnightblue" stroke="midnightblue" points="371.202,-236.133 381.496,-233.625 371.885,-229.166 371.202,-236.133"/>
</g>
<!-- Node4 -->
<g id="node7" class="node"><title>Node4</title>
<a xlink:href="../../d3/d5a/jid_8c.html#ab83fd5aae95de2c9d38fb9d9cd161580" target="_top" xlink:title="Cleans up and frees an existing JID.">
<polygon fill="none" stroke="black" points="576.5,-247.5 576.5,-266.5 635.5,-266.5 635.5,-247.5 576.5,-247.5"/>
<text text-anchor="middle" x="606" y="-254.5" font-family="DejaVuSansMono" font-size="10.00">jid_del</text>
</a>
</g>
<!-- Node1&#45;&gt;Node4 -->
<g id="edge36" class="edge"><title>Node1&#45;&gt;Node4</title>
<path fill="none" stroke="midnightblue" d="M60.9372,-162.924C75.452,-178.344 105.786,-207.758 138,-222 285.079,-287.023 483.657,-272.463 566.358,-262.48"/>
<polygon fill="midnightblue" stroke="midnightblue" points="566.834,-265.948 576.321,-261.23 565.963,-259.002 566.834,-265.948"/>
</g>
<!-- Node5 -->
<g id="node9" class="node"><title>Node5</title>
<a xlink:href="../../d0/df0/xmpp__server_8c.html#af2e493f9f89b437fae7212b941c536cf" target="_top" xlink:title="Remove a callback from the list of routes for stanza delivery.">
<polygon fill="none" stroke="black" points="138.5,-124.5 138.5,-143.5 323.5,-143.5 323.5,-124.5 138.5,-124.5"/>
<text text-anchor="middle" x="231" y="-131.5" font-family="DejaVuSansMono" font-size="10.00">xmpp_server_del_stanza_route</text>
</a>
</g>
<!-- Node1&#45;&gt;Node5 -->
<g id="edge8" class="edge"><title>Node1&#45;&gt;Node5</title>
<path fill="none" stroke="midnightblue" d="M101.583,-147.707C110.764,-146.727 120.646,-145.673 130.706,-144.599"/>
<polygon fill="midnightblue" stroke="midnightblue" points="131.234,-148.062 140.806,-143.521 130.491,-141.102 131.234,-148.062"/>
</g>
<!-- Node6 -->
<g id="node11" class="node"><title>Node6</title>
<a xlink:href="../../d6/d78/xmp3__multicast_8c.html#a3ef84feef94d4ad6045cd45fd91b531c" target="_top" xlink:title="local_stanza_handler">
<polygon fill="none" stroke="black" points="162.5,-162.5 162.5,-181.5 299.5,-181.5 299.5,-162.5 162.5,-162.5"/>
<text text-anchor="middle" x="231" y="-169.5" font-family="DejaVuSansMono" font-size="10.00">local_stanza_handler</text>
</a>
</g>
<!-- Node1&#45;&gt;Node6 -->
<g id="edge10" class="edge"><title>Node1&#45;&gt;Node6</title>
<path fill="none" stroke="midnightblue" d="M101.583,-158.293C117.319,-159.972 135.116,-161.872 152.337,-163.71"/>
<polygon fill="midnightblue" stroke="midnightblue" points="152.076,-167.202 162.391,-164.783 152.819,-160.242 152.076,-167.202"/>
</g>
<!-- Node17 -->
<g id="node36" class="node"><title>Node17</title>
<a xlink:href="../../d0/deb/event_8c.html#a9c3c87f32e90d8fa0245d154fac61da9" target="_top" xlink:title="Deregisters a callback for a particular file descriptor.">
<polygon fill="none" stroke="black" points="147.5,-86.5 147.5,-105.5 314.5,-105.5 314.5,-86.5 147.5,-86.5"/>
<text text-anchor="middle" x="231" y="-93.5" font-family="DejaVuSansMono" font-size="10.00">event_deregister_callback</text>
</a>
</g>
<!-- Node1&#45;&gt;Node17 -->
<g id="edge38" class="edge"><title>Node1&#45;&gt;Node17</title>
<path fill="none" stroke="midnightblue" d="M70.6768,-143.36C87.801,-134.859 114.06,-122.665 138,-115 146.351,-112.326 155.253,-109.937 164.105,-107.832"/>
<polygon fill="midnightblue" stroke="midnightblue" points="165.069,-111.202 174.046,-105.575 163.519,-104.376 165.069,-111.202"/>
</g>
<!-- Node18 -->
<g id="node38" class="node"><title>Node18</title>
<a xlink:href="../../d0/df0/xmpp__server_8c.html#ac84f99d96a630f056f36dc0aa9cac9dd" target="_top" xlink:title="Gets the event loop instance this server is using.">
<polygon fill="none" stroke="black" points="174.5,-48.5 174.5,-67.5 287.5,-67.5 287.5,-48.5 174.5,-48.5"/>
<text text-anchor="middle" x="231" y="-55.5" font-family="DejaVuSansMono" font-size="10.00">xmpp_server_loop</text>
</a>
</g>
<!-- Node1&#45;&gt;Node18 -->
<g id="edge40" class="edge"><title>Node1&#45;&gt;Node18</title>
<path fill="none" stroke="midnightblue" d="M59.8883,-143.308C73.8207,-126.888 104.496,-93.7542 138,-77 146.249,-72.8752 155.342,-69.6455 164.504,-67.1169"/>
<polygon fill="midnightblue" stroke="midnightblue" points="165.581,-70.4555 174.437,-64.639 163.887,-63.6637 165.581,-70.4555"/>
</g>
<!-- Node3 -->
<g id="node5" class="node"><title>Node3</title>
<a xlink:href="../../d3/d5a/jid_8c.html#abd2028a1e581e6374acaa6beaf6e5413" target="_top" xlink:title="Allocate and initialize a new blank JID.">
<polygon fill="none" stroke="black" points="576.5,-209.5 576.5,-228.5 635.5,-228.5 635.5,-209.5 576.5,-209.5"/>
<text text-anchor="middle" x="606" y="-216.5" font-family="DejaVuSansMono" font-size="10.00">jid_new</text>
</a>
</g>
<!-- Node2&#45;&gt;Node3 -->
<g id="edge4" class="edge"><title>Node2&#45;&gt;Node3</title>
<path fill="none" stroke="midnightblue" d="M494.737,-231.62C518.211,-228.934 544.957,-225.872 566.229,-223.438"/>
<polygon fill="midnightblue" stroke="midnightblue" points="566.656,-226.912 576.193,-222.297 565.86,-219.957 566.656,-226.912"/>
</g>
<!-- Node2&#45;&gt;Node4 -->
<g id="edge6" class="edge"><title>Node2&#45;&gt;Node4</title>
<path fill="none" stroke="midnightblue" d="M494.737,-244.38C518.211,-247.066 544.957,-250.128 566.229,-252.562"/>
<polygon fill="midnightblue" stroke="midnightblue" points="565.86,-256.043 576.193,-253.703 566.656,-249.088 565.86,-256.043"/>
</g>
<!-- Node6&#45;&gt;Node2 -->
<g id="edge14" class="edge"><title>Node6&#45;&gt;Node2</title>
<path fill="none" stroke="midnightblue" d="M255.795,-181.632C281.298,-191.743 323.101,-207.711 360,-219 368.044,-221.461 376.634,-223.83 385.051,-226.01"/>
<polygon fill="midnightblue" stroke="midnightblue" points="384.257,-229.419 394.81,-228.476 385.973,-222.632 384.257,-229.419"/>
</g>
<!-- Node6&#45;&gt;Node4 -->
<g id="edge24" class="edge"><title>Node6&#45;&gt;Node4</title>
<path fill="none" stroke="midnightblue" d="M281.315,-162.453C295.166,-159.598 310.209,-156.336 324,-153 407.054,-132.912 445.683,-94.4501 516,-143 553.156,-168.654 519.786,-206.361 552,-238 556.244,-242.168 561.466,-245.429 566.96,-247.977"/>
<polygon fill="midnightblue" stroke="midnightblue" points="565.752,-251.262 576.34,-251.628 568.291,-244.739 565.752,-251.262"/>
</g>
<!-- Node7 -->
<g id="node13" class="node"><title>Node7</title>
<a xlink:href="../../d1/d59/xmpp__stanza_8c.html#a10c606a11c37c01bf59881827dc2229a" target="_top" xlink:title="Returns the name of the tag of this stanza (message/presence/IQ)">
<polygon fill="none" stroke="black" points="381.5,-190.5 381.5,-209.5 494.5,-209.5 494.5,-190.5 381.5,-190.5"/>
<text text-anchor="middle" x="438" y="-197.5" font-family="DejaVuSansMono" font-size="10.00">xmpp_stanza_name</text>
</a>
</g>
<!-- Node6&#45;&gt;Node7 -->
<g id="edge12" class="edge"><title>Node6&#45;&gt;Node7</title>
<path fill="none" stroke="midnightblue" d="M299.693,-181.246C322.754,-184.396 348.483,-187.91 371.379,-191.037"/>
<polygon fill="midnightblue" stroke="midnightblue" points="370.958,-194.512 381.339,-192.398 371.905,-187.576 370.958,-194.512"/>
</g>
<!-- Node8 -->
<g id="node16" class="node"><title>Node8</title>
<a xlink:href="../../d1/d59/xmpp__stanza_8c.html#a20c90c791fa856784f2d43c9f44f1d3c" target="_top" xlink:title="Returns the value of an attribute of this stanza.">
<polygon fill="none" stroke="black" points="381.5,-152.5 381.5,-171.5 494.5,-171.5 494.5,-152.5 381.5,-152.5"/>
<text text-anchor="middle" x="438" y="-159.5" font-family="DejaVuSansMono" font-size="10.00">xmpp_stanza_attr</text>
</a>
</g>
<!-- Node6&#45;&gt;Node8 -->
<g id="edge16" class="edge"><title>Node6&#45;&gt;Node8</title>
<path fill="none" stroke="midnightblue" d="M299.693,-168.698C322.651,-167.578 348.252,-166.329 371.07,-165.216"/>
<polygon fill="midnightblue" stroke="midnightblue" points="371.522,-168.698 381.339,-164.715 371.181,-161.707 371.522,-168.698"/>
</g>
<!-- Node9 -->
<g id="node18" class="node"><title>Node9</title>
<a xlink:href="../../d0/df0/xmpp__server_8c.html#a312f47af548e12ec5d866bea1d142d5e" target="_top" xlink:title="Find a locally connected client by JID.">
<polygon fill="none" stroke="black" points="360.5,-76.5 360.5,-95.5 515.5,-95.5 515.5,-76.5 360.5,-76.5"/>
<text text-anchor="middle" x="438" y="-83.5" font-family="DejaVuSansMono" font-size="10.00">xmpp_server_find_client</text>
</a>
</g>
<!-- Node6&#45;&gt;Node9 -->
<g id="edge18" class="edge"><title>Node6&#45;&gt;Node9</title>
<path fill="none" stroke="midnightblue" d="M299.806,-163.471C308.29,-160.847 316.58,-157.435 324,-153 345.394,-140.213 339.261,-123.825 360,-110 366.554,-105.631 373.945,-102.024 381.489,-99.0537"/>
<polygon fill="midnightblue" stroke="midnightblue" points="382.839,-102.288 391.075,-95.6233 380.481,-95.6972 382.839,-102.288"/>
</g>
<!-- Node12 -->
<g id="node25" class="node"><title>Node12</title>
<a xlink:href="../../d1/d59/xmpp__stanza_8c.html#a513b6e2da3dce364271ba9315d7b3d95" target="_top" xlink:title="Returns the stanza (and its children) packed into a null&#45;terminated string.">
<polygon fill="none" stroke="black" points="375.5,-38.5 375.5,-57.5 500.5,-57.5 500.5,-38.5 375.5,-38.5"/>
<text text-anchor="middle" x="438" y="-45.5" font-family="DejaVuSansMono" font-size="10.00">xmpp_stanza_string</text>
</a>
</g>
<!-- Node6&#45;&gt;Node12 -->
<g id="edge26" class="edge"><title>Node6&#45;&gt;Node12</title>
<path fill="none" stroke="midnightblue" d="M299.811,-165.962C308.582,-162.982 316.95,-158.807 324,-153 355.983,-126.656 328.526,-93.9508 360,-67 361.968,-65.3152 364.062,-63.7754 366.253,-62.3685"/>
<polygon fill="midnightblue" stroke="midnightblue" points="367.993,-65.4068 375.127,-57.5742 364.666,-59.2481 367.993,-65.4068"/>
</g>
<!-- Node10 -->
<g id="node20" class="node"><title>Node10</title>
<a xlink:href="../../d3/d5a/jid_8c.html#a03139cec95c699c543f239f338c0c568" target="_top" xlink:title="Compare two JIDs exactly.">
<polygon fill="none" stroke="black" points="576.5,-114.5 576.5,-133.5 635.5,-133.5 635.5,-114.5 576.5,-114.5"/>
<text text-anchor="middle" x="606" y="-121.5" font-family="DejaVuSansMono" font-size="10.00">jid_cmp</text>
</a>
</g>
<!-- Node9&#45;&gt;Node10 -->
<g id="edge20" class="edge"><title>Node9&#45;&gt;Node10</title>
<path fill="none" stroke="midnightblue" d="M480.889,-95.589C507.259,-101.626 541.036,-109.358 566.694,-115.231"/>
<polygon fill="midnightblue" stroke="midnightblue" points="565.917,-118.644 576.446,-117.464 567.479,-111.82 565.917,-118.644"/>
</g>
<!-- Node11 -->
<g id="node22" class="node"><title>Node11</title>
<a xlink:href="../../dd/d4d/xmpp__client_8c.html#af963b026952bdbc45a4df0fa3d69b641" target="_top" xlink:title="Return the JID for this client.">
<polygon fill="none" stroke="black" points="552.5,-76.5 552.5,-95.5 659.5,-95.5 659.5,-76.5 552.5,-76.5"/>
<text text-anchor="middle" x="606" y="-83.5" font-family="DejaVuSansMono" font-size="10.00">xmpp_client_jid</text>
</a>
</g>
<!-- Node9&#45;&gt;Node11 -->
<g id="edge22" class="edge"><title>Node9&#45;&gt;Node11</title>
<path fill="none" stroke="midnightblue" d="M515.683,-86C524.598,-86 533.61,-86 542.306,-86"/>
<polygon fill="midnightblue" stroke="midnightblue" points="542.343,-89.5001 552.343,-86 542.343,-82.5001 542.343,-89.5001"/>
</g>
<!-- Node13 -->
<g id="node27" class="node"><title>Node13</title>
<a xlink:href="../../d1/d59/xmpp__stanza_8c.html#aae8c30c30fcbc2325d34897f8035ca46" target="_top" xlink:title="Function that gets called recursively to convert a stanza to a string.">
<polygon fill="none" stroke="black" points="561.5,-38.5 561.5,-57.5 650.5,-57.5 650.5,-38.5 561.5,-38.5"/>
<text text-anchor="middle" x="606" y="-45.5" font-family="DejaVuSansMono" font-size="10.00">stanza_tostr</text>
</a>
</g>
<!-- Node12&#45;&gt;Node13 -->
<g id="edge28" class="edge"><title>Node12&#45;&gt;Node13</title>
<path fill="none" stroke="midnightblue" d="M500.812,-48C517.297,-48 534.976,-48 551.005,-48"/>
<polygon fill="midnightblue" stroke="midnightblue" points="551.27,-51.5001 561.27,-48 551.27,-44.5001 551.27,-51.5001"/>
</g>
<!-- Node14 -->
<g id="node29" class="node"><title>Node14</title>
<a xlink:href="../../d1/dc2/xmpp__parser_8c.html#acce8bfe5926da4e64c3b5038dc683618" target="_top" xlink:title="xmpp_parser_namespace_prefix">
<polygon fill="none" stroke="black" points="696.5,-76.5 696.5,-95.5 881.5,-95.5 881.5,-76.5 696.5,-76.5"/>
<text text-anchor="middle" x="789" y="-83.5" font-family="DejaVuSansMono" font-size="10.00">xmpp_parser_namespace_prefix</text>
</a>
</g>
<!-- Node13&#45;&gt;Node14 -->
<g id="edge30" class="edge"><title>Node13&#45;&gt;Node14</title>
<path fill="none" stroke="midnightblue" d="M650.898,-57.4322C665.268,-60.5035 681.311,-63.9153 696,-67 707.481,-69.411 719.773,-71.9671 731.514,-74.3964"/>
<polygon fill="midnightblue" stroke="midnightblue" points="731.155,-77.8961 741.657,-76.4919 732.572,-71.0409 731.155,-77.8961"/>
</g>
<!-- Node15 -->
<g id="node31" class="node"><title>Node15</title>
<a xlink:href="../../d1/dc2/xmpp__parser_8c.html#afde3cf0e74a12bfe4ac90fa8dbae51a0" target="_top" xlink:title="xmpp_parser_namespace_uri">
<polygon fill="none" stroke="black" points="705.5,-38.5 705.5,-57.5 872.5,-57.5 872.5,-38.5 705.5,-38.5"/>
<text text-anchor="middle" x="789" y="-45.5" font-family="DejaVuSansMono" font-size="10.00">xmpp_parser_namespace_uri</text>
</a>
</g>
<!-- Node13&#45;&gt;Node15 -->
<g id="edge32" class="edge"><title>Node13&#45;&gt;Node15</title>
<path fill="none" stroke="midnightblue" d="M650.815,-48C664.289,-48 679.665,-48 695.133,-48"/>
<polygon fill="midnightblue" stroke="midnightblue" points="695.292,-51.5001 705.292,-48 695.292,-44.5001 695.292,-51.5001"/>
</g>
<!-- Node16 -->
<g id="node33" class="node"><title>Node16</title>
<a xlink:href="../../d1/dc2/xmpp__parser_8c.html#af924e15caac53b347a48878fcb046bc4" target="_top" xlink:title="Return the next namespace in the namespace list.">
<polygon fill="none" stroke="black" points="702.5,-0.5 702.5,-19.5 875.5,-19.5 875.5,-0.5 702.5,-0.5"/>
<text text-anchor="middle" x="789" y="-7.5" font-family="DejaVuSansMono" font-size="10.00">xmpp_parser_namespace_next</text>
</a>
</g>
<!-- Node13&#45;&gt;Node16 -->
<g id="edge34" class="edge"><title>Node13&#45;&gt;Node16</title>
<path fill="none" stroke="midnightblue" d="M650.898,-38.5678C665.268,-35.4965 681.311,-32.0847 696,-29 707.481,-26.589 719.773,-24.0329 731.514,-21.6036"/>
<polygon fill="midnightblue" stroke="midnightblue" points="732.572,-24.9591 741.657,-19.5081 731.155,-18.1039 732.572,-24.9591"/>
</g>
</g>
</svg>
        <g id="navigator" transform="translate(0 0)" fill="#404254">
                <rect fill="#f2f5e9" fill-opacity="0.5" stroke="#606060" stroke-width=".5" x="0" y="0" width="60" height="60"/>
                <use id="zoomplus" xlink:href="#zoomPlus" x="17" y="9" onmousedown="handleZoom(evt,'in')"/>
                <use id="zoomminus" xlink:href="#zoomMin" x="42" y="9" onmousedown="handleZoom(evt,'out')"/>
                <use id="reset" xlink:href="#resetDef" x="30" y="36" onmousedown="handleReset()"/>
                <g id="arrowUp" xlink:href="#dirArrow" transform="translate(30 24)" onmousedown="handlePan(0,-1)">
                  <use xlink:href="#rim" fill="#404040">
                        <set attributeName="fill" to="#808080" begin="arrowUp.mouseover" end="arrowUp.mouseout"/>
                  </use>
                  <path fill="none" stroke="white" stroke-width="1.5" d="M0,-3.0v7 M-2.5,-0.5L0,-3.0L2.5,-0.5"/>
                </g>
                <g id="arrowRight" xlink:href="#dirArrow" transform="rotate(90) translate(36 -43)" onmousedown="handlePan(1,0)">
                  <use xlink:href="#rim" fill="#404040">
                        <set attributeName="fill" to="#808080" begin="arrowRight.mouseover" end="arrowRight.mouseout"/>
                  </use>
                  <path fill="none" stroke="white" stroke-width="1.5" d="M0,-3.0v7 M-2.5,-0.5L0,-3.0L2.5,-0.5"/>
                </g>
                <g id="arrowDown" xlink:href="#dirArrow" transform="rotate(180) translate(-30 -48)" onmousedown="handlePan(0,1)">
                  <use xlink:href="#rim" fill="#404040">
                        <set attributeName="fill" to="#808080" begin="arrowDown.mouseover" end="arrowDown.mouseout"/>
                  </use>
                  <path fill="none" stroke="white" stroke-width="1.5" d="M0,-3.0v7 M-2.5,-0.5L0,-3.0L2.5,-0.5"/>
                </g>
                <g id="arrowLeft" xlink:href="#dirArrow" transform="rotate(270) translate(-36 17)" onmousedown="handlePan(-1,0)">
                  <use xlink:href="#rim" fill="#404040">
                        <set attributeName="fill" to="#808080" begin="arrowLeft.mouseover" end="arrowLeft.mouseout"/>
                  </use>
                  <path fill="none" stroke="white" stroke-width="1.5" d="M0,-3.0v7 M-2.5,-0.5L0,-3.0L2.5,-0.5"/>
                </g>
        </g>
        <svg viewBox="0 0 25 25" width="100%" height="30px" preserveAspectRatio="xMaxYMin meet"> 
          <g id="printButton" transform="scale(0.4 0.4)" onmousedown="handlePrint(evt)">
            <rect height="23.33753581" id="paper" rx="2" style="fill:#f2f5e9;fill-rule:evenodd;stroke:#111111;stroke-width:3.224;stroke-linejoin:round;" transform="matrix(1.000000,0.000000,-0.339266,0.940691,0.000000,0.000000)" width="25.55231285" x="26.69387353" y="7.36162977"/>
            <rect height="26.272097" id="body" rx="2" style="fill:#404040;fill-rule:evenodd;stroke:#111111;stroke-width:3.125;stroke-linejoin:round;" width="50" x="4.5295201" y="27.078951"/>
            <rect height="8.27750969" id="tray" style="fill:#d2d5c9;fill-rule:evenodd;stroke:#111111;stroke-width:3.125;stroke-linecap:round;stroke-linejoin:round;" width="40" x="10.28778839" y="44.96812282"/>
          </g>
        </svg>
</svg>
