<?xml version="1.0" encoding="UTF-8" standalone="no"?>
<!DOCTYPE svg PUBLIC "-//W3C//DTD SVG 1.1//EN"
 "http://www.w3.org/Graphics/SVG/1.1/DTD/svg11.dtd">
<!-- Generated by graphviz version 2.28.0 (20120217.0315)
 -->
<!-- Title: G Pages: 1 -->
<!--zoomable 497 -->
<svg id="main" version="1.1" xmlns="http://www.w3.org/2000/svg" xmlns:xlink="http://www.w3.org/1999/xlink" xml:space="preserve" onload="init(evt)">
        <defs>
                <circle id="rim" cx="0" cy="0" r="7"/>
                <circle id="rim2" cx="0" cy="0" r="3.5"/>
                <g id="zoomPlus">
                        <use xlink:href="#rim" fill="#404040">
                                <set attributeName="fill" to="#808080" begin="zoomplus.mouseover" end="zoomplus.mouseout"/>
                        </use>
                        <path d="M-4,0h8M0,-4v8" fill="none" stroke="white" stroke-width="1.5" pointer-events="none"/>
                </g>
                <g id="zoomMin">
                        <use xlink:href="#rim" fill="#404040">
                                <set attributeName="fill" to="#808080" begin="zoomminus.mouseover" end="zoomminus.mouseout"/>
                        </use>
                        <path d="M-4,0h8" fill="none" stroke="white" stroke-width="1.5" pointer-events="none"/>
                </g>
                <g id="dirArrow">
                        <path fill="none" stroke="white" stroke-width="1.5" d="M0,-3.0v7 M-2.5,-0.5L0,-3.0L2.5,-0.5"/>
                </g>
               <g id="resetDef">
                       <use xlink:href="#rim2" fill="#404040">
                               <set attributeName="fill" to="#808080" begin="reset.mouseover" end="reset.mouseout"/>
                       </use>
               </g>
        </defs>

<script type="text/javascript">
var viewWidth = 1652;
var viewHeight = 497;
var sectionId = 'dynsection-8';
</script>
<script xlink:href="../../svgpan.js"/>
<svg id="graph" class="graph">
<g id="viewport">
<title>G</title>
<!-- Node1 -->
<g id="node1" class="node"><title>Node1</title>
<polygon fill="#bfbfbf" stroke="black" points="0.5,-298.5 0.5,-317.5 107.5,-317.5 107.5,-298.5 0.5,-298.5"/>
<text text-anchor="middle" x="54" y="-305.5" font-family="DejaVuSansMono" font-size="10.00">multicast_start</text>
</g>
<!-- Node2 -->
<g id="node3" class="node"><title>Node2</title>
<a xlink:href="../../d6/d78/xmp3__multicast_8c.html#ae6925b5f94ab702733b58c4e6aac04b5" target="_top" xlink:title="bind_socket">
<polygon fill="none" stroke="black" points="195.5,-469.5 195.5,-488.5 278.5,-488.5 278.5,-469.5 195.5,-469.5"/>
<text text-anchor="middle" x="237" y="-476.5" font-family="DejaVuSansMono" font-size="10.00">bind_socket</text>
</a>
</g>
<!-- Node1&#45;&gt;Node2 -->
<g id="edge2" class="edge"><title>Node1&#45;&gt;Node2</title>
<path fill="none" stroke="midnightblue" d="M57.9669,-317.653C66.5919,-344.045 94.2555,-417.902 144,-455 156.041,-463.98 171.147,-469.608 185.617,-473.133"/>
<polygon fill="midnightblue" stroke="midnightblue" points="184.976,-476.575 195.487,-475.253 186.445,-469.731 184.976,-476.575"/>
</g>
<!-- Node3 -->
<g id="node5" class="node"><title>Node3</title>
<a xlink:href="../../d3/d5a/jid_8c.html#a0151ea37a9f52813a8d48d2b7eec2044" target="_top" xlink:title="Allocate and initialize a new JID from an existing JID string.">
<polygon fill="none" stroke="black" points="387.5,-431.5 387.5,-450.5 500.5,-450.5 500.5,-431.5 387.5,-431.5"/>
<text text-anchor="middle" x="444" y="-438.5" font-family="DejaVuSansMono" font-size="10.00">jid_new_from_str</text>
</a>
</g>
<!-- Node1&#45;&gt;Node3 -->
<g id="edge4" class="edge"><title>Node1&#45;&gt;Node3</title>
<path fill="none" stroke="midnightblue" d="M59.5373,-317.773C70.4487,-340.004 100.514,-394.19 144,-417 216.845,-455.21 313.63,-455.404 377.078,-449.949"/>
<polygon fill="midnightblue" stroke="midnightblue" points="377.723,-453.404 387.355,-448.991 377.073,-446.434 377.723,-453.404"/>
</g>
<!-- Node5 -->
<g id="node9" class="node"><title>Node5</title>
<a xlink:href="../../d3/d5a/jid_8c.html#ab83fd5aae95de2c9d38fb9d9cd161580" target="_top" xlink:title="Cleans up and frees an existing JID.">
<polygon fill="none" stroke="black" points="588.5,-393.5 588.5,-412.5 647.5,-412.5 647.5,-393.5 588.5,-393.5"/>
<text text-anchor="middle" x="618" y="-400.5" font-family="DejaVuSansMono" font-size="10.00">jid_del</text>
</a>
</g>
<!-- Node1&#45;&gt;Node5 -->
<g id="edge38" class="edge"><title>Node1&#45;&gt;Node5</title>
<path fill="none" stroke="midnightblue" d="M73.9642,-317.641C91.6628,-326.262 119.02,-338.64 144,-346 300.387,-392.078 496.364,-400.991 578.252,-402.654"/>
<polygon fill="midnightblue" stroke="midnightblue" points="578.29,-406.155 588.35,-402.833 578.414,-399.156 578.29,-406.155"/>
</g>
<!-- Node6 -->
<g id="node11" class="node"><title>Node6</title>
<a xlink:href="../../d0/df0/xmpp__server_8c.html#add7e09cc71b8417eab325d96bc2be357" target="_top" xlink:title="Add a callback to the list of routes for stanza delivery.">
<polygon fill="none" stroke="black" points="144.5,-241.5 144.5,-260.5 329.5,-260.5 329.5,-241.5 144.5,-241.5"/>
<text text-anchor="middle" x="237" y="-248.5" font-family="DejaVuSansMono" font-size="10.00">xmpp_server_add_stanza_route</text>
</a>
</g>
<!-- Node1&#45;&gt;Node6 -->
<g id="edge10" class="edge"><title>Node1&#45;&gt;Node6</title>
<path fill="none" stroke="midnightblue" d="M74.3691,-298.393C92.118,-289.915 119.31,-277.735 144,-270 152.572,-267.315 161.714,-264.905 170.784,-262.777"/>
<polygon fill="midnightblue" stroke="midnightblue" points="171.578,-266.186 180.568,-260.579 170.044,-259.357 171.578,-266.186"/>
</g>
<!-- Node7 -->
<g id="node13" class="node"><title>Node7</title>
<a xlink:href="../../d6/d78/xmp3__multicast_8c.html#a3ef84feef94d4ad6045cd45fd91b531c" target="_top" xlink:title="local_stanza_handler">
<polygon fill="none" stroke="black" points="168.5,-317.5 168.5,-336.5 305.5,-336.5 305.5,-317.5 168.5,-317.5"/>
<text text-anchor="middle" x="237" y="-324.5" font-family="DejaVuSansMono" font-size="10.00">local_stanza_handler</text>
</a>
</g>
<!-- Node1&#45;&gt;Node7 -->
<g id="edge12" class="edge"><title>Node1&#45;&gt;Node7</title>
<path fill="none" stroke="midnightblue" d="M107.839,-313.547C123.48,-315.188 140.946,-317.022 157.83,-318.794"/>
<polygon fill="midnightblue" stroke="midnightblue" points="157.935,-322.324 168.245,-319.888 158.665,-315.363 157.935,-322.324"/>
</g>
<!-- Node18 -->
<g id="node38" class="node"><title>Node18</title>
<a xlink:href="../../d0/deb/event_8c.html#aca48eb884e29dd7b5155327401f78a87" target="_top" xlink:title="Register a callback function for read events on a file&#45;descriptor.">
<polygon fill="none" stroke="black" points="159.5,-203.5 159.5,-222.5 314.5,-222.5 314.5,-203.5 159.5,-203.5"/>
<text text-anchor="middle" x="237" y="-210.5" font-family="DejaVuSansMono" font-size="10.00">event_register_callback</text>
</a>
</g>
<!-- Node1&#45;&gt;Node18 -->
<g id="edge40" class="edge"><title>Node1&#45;&gt;Node18</title>
<path fill="none" stroke="midnightblue" d="M63.2405,-298.317C77.7752,-281.909 109.691,-248.794 144,-232 148.944,-229.58 154.183,-227.468 159.554,-225.624"/>
<polygon fill="midnightblue" stroke="midnightblue" points="160.817,-228.897 169.329,-222.588 158.74,-222.212 160.817,-228.897"/>
</g>
<!-- Node19 -->
<g id="node40" class="node"><title>Node19</title>
<a xlink:href="../../d0/df0/xmpp__server_8c.html#ac84f99d96a630f056f36dc0aa9cac9dd" target="_top" xlink:title="Gets the event loop instance this server is using.">
<polygon fill="none" stroke="black" points="180.5,-165.5 180.5,-184.5 293.5,-184.5 293.5,-165.5 180.5,-165.5"/>
<text text-anchor="middle" x="237" y="-172.5" font-family="DejaVuSansMono" font-size="10.00">xmpp_server_loop</text>
</a>
</g>
<!-- Node1&#45;&gt;Node19 -->
<g id="edge42" class="edge"><title>Node1&#45;&gt;Node19</title>
<path fill="none" stroke="midnightblue" d="M59.4582,-298.495C70.4101,-276.268 100.914,-220.761 144,-194 152.02,-189.018 161.118,-185.318 170.396,-182.575"/>
<polygon fill="midnightblue" stroke="midnightblue" points="171.297,-185.957 180.091,-180.048 169.532,-179.183 171.297,-185.957"/>
</g>
<!-- Node20 -->
<g id="node42" class="node"><title>Node20</title>
<a xlink:href="../../d6/d78/xmp3__multicast_8c.html#a9865e8026fb8ee000629fc1da465716d" target="_top" xlink:title="socket_handler">
<polygon fill="none" stroke="black" points="186.5,-279.5 186.5,-298.5 287.5,-298.5 287.5,-279.5 186.5,-279.5"/>
<text text-anchor="middle" x="237" y="-286.5" font-family="DejaVuSansMono" font-size="10.00">socket_handler</text>
</a>
</g>
<!-- Node1&#45;&gt;Node20 -->
<g id="edge44" class="edge"><title>Node1&#45;&gt;Node20</title>
<path fill="none" stroke="midnightblue" d="M107.839,-302.453C129.188,-300.212 153.94,-297.614 175.966,-295.302"/>
<polygon fill="midnightblue" stroke="midnightblue" points="176.621,-298.752 186.201,-294.227 175.891,-291.791 176.621,-298.752"/>
</g>
<!-- Node4 -->
<g id="node7" class="node"><title>Node4</title>
<a xlink:href="../../d3/d5a/jid_8c.html#abd2028a1e581e6374acaa6beaf6e5413" target="_top" xlink:title="Allocate and initialize a new blank JID.">
<polygon fill="none" stroke="black" points="588.5,-431.5 588.5,-450.5 647.5,-450.5 647.5,-431.5 588.5,-431.5"/>
<text text-anchor="middle" x="618" y="-438.5" font-family="DejaVuSansMono" font-size="10.00">jid_new</text>
</a>
</g>
<!-- Node3&#45;&gt;Node4 -->
<g id="edge6" class="edge"><title>Node3&#45;&gt;Node4</title>
<path fill="none" stroke="midnightblue" d="M500.843,-441C526.192,-441 555.544,-441 578.4,-441"/>
<polygon fill="midnightblue" stroke="midnightblue" points="578.406,-444.5 588.406,-441 578.406,-437.5 578.406,-444.5"/>
</g>
<!-- Node3&#45;&gt;Node5 -->
<g id="edge8" class="edge"><title>Node3&#45;&gt;Node5</title>
<path fill="none" stroke="midnightblue" d="M488.403,-431.411C516.2,-425.27 551.941,-417.374 578.685,-411.465"/>
<polygon fill="midnightblue" stroke="midnightblue" points="579.45,-414.881 588.459,-409.306 577.939,-408.045 579.45,-414.881"/>
</g>
<!-- Node7&#45;&gt;Node3 -->
<g id="edge16" class="edge"><title>Node7&#45;&gt;Node3</title>
<path fill="none" stroke="midnightblue" d="M255.126,-336.523C291.001,-356.473 374.239,-402.762 416.847,-426.456"/>
<polygon fill="midnightblue" stroke="midnightblue" points="415.338,-429.622 425.779,-431.423 418.74,-423.504 415.338,-429.622"/>
</g>
<!-- Node7&#45;&gt;Node5 -->
<g id="edge26" class="edge"><title>Node7&#45;&gt;Node5</title>
<path fill="none" stroke="midnightblue" d="M293.61,-317.48C364.345,-306.365 482.11,-291.477 522,-308 559.501,-323.533 589.916,-361.848 605.551,-384.793"/>
<polygon fill="midnightblue" stroke="midnightblue" points="602.73,-386.873 611.151,-393.302 608.577,-383.025 602.73,-386.873"/>
</g>
<!-- Node8 -->
<g id="node15" class="node"><title>Node8</title>
<a xlink:href="../../d1/d59/xmpp__stanza_8c.html#a10c606a11c37c01bf59881827dc2229a" target="_top" xlink:title="Returns the name of the tag of this stanza (message/presence/IQ)">
<polygon fill="none" stroke="black" points="387.5,-355.5 387.5,-374.5 500.5,-374.5 500.5,-355.5 387.5,-355.5"/>
<text text-anchor="middle" x="444" y="-362.5" font-family="DejaVuSansMono" font-size="10.00">xmpp_stanza_name</text>
</a>
</g>
<!-- Node7&#45;&gt;Node8 -->
<g id="edge14" class="edge"><title>Node7&#45;&gt;Node8</title>
<path fill="none" stroke="midnightblue" d="M289.466,-336.54C317.368,-341.712 352.045,-348.14 381.38,-353.578"/>
<polygon fill="midnightblue" stroke="midnightblue" points="381.043,-357.075 391.513,-355.456 382.319,-350.192 381.043,-357.075"/>
</g>
<!-- Node9 -->
<g id="node18" class="node"><title>Node9</title>
<a xlink:href="../../d1/d59/xmpp__stanza_8c.html#a20c90c791fa856784f2d43c9f44f1d3c" target="_top" xlink:title="Returns the value of an attribute of this stanza.">
<polygon fill="none" stroke="black" points="387.5,-317.5 387.5,-336.5 500.5,-336.5 500.5,-317.5 387.5,-317.5"/>
<text text-anchor="middle" x="444" y="-324.5" font-family="DejaVuSansMono" font-size="10.00">xmpp_stanza_attr</text>
</a>
</g>
<!-- Node7&#45;&gt;Node9 -->
<g id="edge18" class="edge"><title>Node7&#45;&gt;Node9</title>
<path fill="none" stroke="midnightblue" d="M305.693,-327C328.651,-327 354.252,-327 377.07,-327"/>
<polygon fill="midnightblue" stroke="midnightblue" points="377.339,-330.5 387.339,-327 377.339,-323.5 377.339,-330.5"/>
</g>
<!-- Node10 -->
<g id="node20" class="node"><title>Node10</title>
<a xlink:href="../../d0/df0/xmpp__server_8c.html#a312f47af548e12ec5d866bea1d142d5e" target="_top" xlink:title="Find a locally connected client by JID.">
<polygon fill="none" stroke="black" points="366.5,-241.5 366.5,-260.5 521.5,-260.5 521.5,-241.5 366.5,-241.5"/>
<text text-anchor="middle" x="444" y="-248.5" font-family="DejaVuSansMono" font-size="10.00">xmpp_server_find_client</text>
</a>
</g>
<!-- Node7&#45;&gt;Node10 -->
<g id="edge20" class="edge"><title>Node7&#45;&gt;Node10</title>
<path fill="none" stroke="midnightblue" d="M305.771,-317.391C314.171,-314.939 322.45,-311.862 330,-308 349.324,-298.116 347.186,-285.823 366,-275 373.76,-270.536 382.447,-266.804 391.114,-263.718"/>
<polygon fill="midnightblue" stroke="midnightblue" points="392.444,-266.965 400.84,-260.503 390.247,-260.319 392.444,-266.965"/>
</g>
<!-- Node13 -->
<g id="node27" class="node"><title>Node13</title>
<a xlink:href="../../d1/d59/xmpp__stanza_8c.html#a513b6e2da3dce364271ba9315d7b3d95" target="_top" xlink:title="Returns the stanza (and its children) packed into a null&#45;terminated string.">
<polygon fill="none" stroke="black" points="975.5,-208.5 975.5,-227.5 1100.5,-227.5 1100.5,-208.5 975.5,-208.5"/>
<text text-anchor="middle" x="1038" y="-215.5" font-family="DejaVuSansMono" font-size="10.00">xmpp_stanza_string</text>
</a>
</g>
<!-- Node7&#45;&gt;Node13 -->
<g id="edge28" class="edge"><title>Node7&#45;&gt;Node13</title>
<path fill="none" stroke="midnightblue" d="M305.57,-320.663C314.377,-317.727 322.819,-313.643 330,-308 359.388,-284.906 335.195,-253.165 366,-232 458.208,-168.647 505.125,-213 617,-213 617,-213 617,-213 757,-213 827.715,-213 908.459,-214.614 965.01,-216.008"/>
<polygon fill="midnightblue" stroke="midnightblue" points="965.196,-219.514 975.28,-216.265 965.371,-212.516 965.196,-219.514"/>
</g>
<!-- Node11 -->
<g id="node22" class="node"><title>Node11</title>
<a xlink:href="../../d3/d5a/jid_8c.html#a03139cec95c699c543f239f338c0c568" target="_top" xlink:title="Compare two JIDs exactly.">
<polygon fill="none" stroke="black" points="588.5,-279.5 588.5,-298.5 647.5,-298.5 647.5,-279.5 588.5,-279.5"/>
<text text-anchor="middle" x="618" y="-286.5" font-family="DejaVuSansMono" font-size="10.00">jid_cmp</text>
</a>
</g>
<!-- Node10&#45;&gt;Node11 -->
<g id="edge22" class="edge"><title>Node10&#45;&gt;Node11</title>
<path fill="none" stroke="midnightblue" d="M488.403,-260.589C516.2,-266.73 551.941,-274.626 578.685,-280.535"/>
<polygon fill="midnightblue" stroke="midnightblue" points="577.939,-283.955 588.459,-282.694 579.45,-277.119 577.939,-283.955"/>
</g>
<!-- Node12 -->
<g id="node24" class="node"><title>Node12</title>
<a xlink:href="../../dd/d4d/xmpp__client_8c.html#af963b026952bdbc45a4df0fa3d69b641" target="_top" xlink:title="Return the JID for this client.">
<polygon fill="none" stroke="black" points="564.5,-241.5 564.5,-260.5 671.5,-260.5 671.5,-241.5 564.5,-241.5"/>
<text text-anchor="middle" x="618" y="-248.5" font-family="DejaVuSansMono" font-size="10.00">xmpp_client_jid</text>
</a>
</g>
<!-- Node10&#45;&gt;Node12 -->
<g id="edge24" class="edge"><title>Node10&#45;&gt;Node12</title>
<path fill="none" stroke="midnightblue" d="M521.694,-251C532.511,-251 543.527,-251 554.046,-251"/>
<polygon fill="midnightblue" stroke="midnightblue" points="554.374,-254.5 564.374,-251 554.374,-247.5 554.374,-254.5"/>
</g>
<!-- Node14 -->
<g id="node29" class="node"><title>Node14</title>
<a xlink:href="../../d1/d59/xmpp__stanza_8c.html#aae8c30c30fcbc2325d34897f8035ca46" target="_top" xlink:title="Function that gets called recursively to convert a stanza to a string.">
<polygon fill="none" stroke="black" points="1191.5,-208.5 1191.5,-227.5 1280.5,-227.5 1280.5,-208.5 1191.5,-208.5"/>
<text text-anchor="middle" x="1236" y="-215.5" font-family="DejaVuSansMono" font-size="10.00">stanza_tostr</text>
</a>
</g>
<!-- Node13&#45;&gt;Node14 -->
<g id="edge30" class="edge"><title>Node13&#45;&gt;Node14</title>
<path fill="none" stroke="midnightblue" d="M1100.75,-218C1126.59,-218 1156.34,-218 1181.26,-218"/>
<polygon fill="midnightblue" stroke="midnightblue" points="1181.26,-221.5 1191.26,-218 1181.26,-214.5 1181.26,-221.5"/>
</g>
<!-- Node15 -->
<g id="node31" class="node"><title>Node15</title>
<a xlink:href="../../d1/dc2/xmpp__parser_8c.html#acce8bfe5926da4e64c3b5038dc683618" target="_top" xlink:title="xmpp_parser_namespace_prefix">
<polygon fill="none" stroke="black" points="1356.5,-170.5 1356.5,-189.5 1541.5,-189.5 1541.5,-170.5 1356.5,-170.5"/>
<text text-anchor="middle" x="1449" y="-177.5" font-family="DejaVuSansMono" font-size="10.00">xmpp_parser_namespace_prefix</text>
</a>
</g>
<!-- Node14&#45;&gt;Node15 -->
<g id="edge32" class="edge"><title>Node14&#45;&gt;Node15</title>
<path fill="none" stroke="midnightblue" d="M1280.72,-210.126C1310.8,-204.709 1351.23,-197.427 1384.81,-191.38"/>
<polygon fill="midnightblue" stroke="midnightblue" points="1385.77,-194.764 1394.99,-189.546 1384.53,-187.874 1385.77,-194.764"/>
</g>
<!-- Node16 -->
<g id="node33" class="node"><title>Node16</title>
<a xlink:href="../../d1/dc2/xmpp__parser_8c.html#afde3cf0e74a12bfe4ac90fa8dbae51a0" target="_top" xlink:title="xmpp_parser_namespace_uri">
<polygon fill="none" stroke="black" points="1365.5,-246.5 1365.5,-265.5 1532.5,-265.5 1532.5,-246.5 1365.5,-246.5"/>
<text text-anchor="middle" x="1449" y="-253.5" font-family="DejaVuSansMono" font-size="10.00">xmpp_parser_namespace_uri</text>
</a>
</g>
<!-- Node14&#45;&gt;Node16 -->
<g id="edge34" class="edge"><title>Node14&#45;&gt;Node16</title>
<path fill="none" stroke="midnightblue" d="M1280.72,-225.874C1310.8,-231.291 1351.23,-238.573 1384.81,-244.62"/>
<polygon fill="midnightblue" stroke="midnightblue" points="1384.53,-248.126 1394.99,-246.454 1385.77,-241.236 1384.53,-248.126"/>
</g>
<!-- Node17 -->
<g id="node35" class="node"><title>Node17</title>
<a xlink:href="../../d1/dc2/xmpp__parser_8c.html#af924e15caac53b347a48878fcb046bc4" target="_top" xlink:title="Return the next namespace in the namespace list.">
<polygon fill="none" stroke="black" points="1362.5,-208.5 1362.5,-227.5 1535.5,-227.5 1535.5,-208.5 1362.5,-208.5"/>
<text text-anchor="middle" x="1449" y="-215.5" font-family="DejaVuSansMono" font-size="10.00">xmpp_parser_namespace_next</text>
</a>
</g>
<!-- Node14&#45;&gt;Node17 -->
<g id="edge36" class="edge"><title>Node14&#45;&gt;Node17</title>
<path fill="none" stroke="midnightblue" d="M1280.72,-218C1301.41,-218 1326.99,-218 1351.87,-218"/>
<polygon fill="midnightblue" stroke="midnightblue" points="1352.1,-221.5 1362.1,-218 1352.1,-214.5 1352.1,-221.5"/>
</g>
<!-- Node21 -->
<g id="node44" class="node"><title>Node21</title>
<a xlink:href="../../d1/dc2/xmpp__parser_8c.html#af5e1eb5bbef0496c3543bd35113766ac" target="_top" xlink:title="Reset the state of the parser as if it was just created.">
<polygon fill="none" stroke="black" points="558.5,-127.5 558.5,-146.5 677.5,-146.5 677.5,-127.5 558.5,-127.5"/>
<text text-anchor="middle" x="618" y="-134.5" font-family="DejaVuSansMono" font-size="10.00">xmpp_parser_reset</text>
</a>
</g>
<!-- Node20&#45;&gt;Node21 -->
<g id="edge46" class="edge"><title>Node20&#45;&gt;Node21</title>
<path fill="none" stroke="midnightblue" d="M287.74,-286.903C302.512,-284.237 317.949,-279.211 330,-270 358.11,-248.515 338.309,-221.022 366,-199 381.173,-186.934 490.169,-162.919 559.451,-148.577"/>
<polygon fill="midnightblue" stroke="midnightblue" points="560.281,-151.979 569.369,-146.533 558.868,-145.123 560.281,-151.979"/>
</g>
<!-- Node39 -->
<g id="node86" class="node"><title>Node39</title>
<a xlink:href="../../d1/dc2/xmpp__parser_8c.html#a578b7a9a50212eb204a86789001287af" target="_top" xlink:title="xmpp_parser_parse">
<polygon fill="none" stroke="black" points="384.5,-127.5 384.5,-146.5 503.5,-146.5 503.5,-127.5 384.5,-127.5"/>
<text text-anchor="middle" x="444" y="-134.5" font-family="DejaVuSansMono" font-size="10.00">xmpp_parser_parse</text>
</a>
</g>
<!-- Node20&#45;&gt;Node39 -->
<g id="edge94" class="edge"><title>Node20&#45;&gt;Node39</title>
<path fill="none" stroke="midnightblue" d="M287.667,-288.136C302.779,-285.58 318.431,-280.306 330,-270 368.095,-236.064 329.622,-196.77 366,-161 369.994,-157.073 374.619,-153.787 379.582,-151.038"/>
<polygon fill="midnightblue" stroke="midnightblue" points="381.287,-154.103 388.814,-146.647 378.28,-147.782 381.287,-154.103"/>
</g>
<!-- Node22 -->
<g id="node46" class="node"><title>Node22</title>
<a xlink:href="../../d1/dc2/xmpp__parser_8c.html#a03a135f29e3d4e01abbb60e53ac6967c" target="_top" xlink:title="init_parser">
<polygon fill="none" stroke="black" points="714.5,-99.5 714.5,-118.5 797.5,-118.5 797.5,-99.5 714.5,-99.5"/>
<text text-anchor="middle" x="756" y="-106.5" font-family="DejaVuSansMono" font-size="10.00">init_parser</text>
</a>
</g>
<!-- Node21&#45;&gt;Node22 -->
<g id="edge48" class="edge"><title>Node21&#45;&gt;Node22</title>
<path fill="none" stroke="midnightblue" d="M665.423,-127.442C677.931,-124.867 691.525,-122.068 704.256,-119.447"/>
<polygon fill="midnightblue" stroke="midnightblue" points="705.154,-122.836 714.243,-117.391 703.743,-115.98 705.154,-122.836"/>
</g>
<!-- Node23 -->
<g id="node48" class="node"><title>Node23</title>
<a xlink:href="../../d1/dc2/xmpp__parser_8c.html#a0f2993ab3e982d5e2b4a5635dcaf291c" target="_top" xlink:title="Expat callback for the start of any other element.">
<polygon fill="none" stroke="black" points="1014.5,-38.5 1014.5,-57.5 1061.5,-57.5 1061.5,-38.5 1014.5,-38.5"/>
<text text-anchor="middle" x="1038" y="-45.5" font-family="DejaVuSansMono" font-size="10.00">start</text>
</a>
</g>
<!-- Node22&#45;&gt;Node23 -->
<g id="edge50" class="edge"><title>Node22&#45;&gt;Node23</title>
<path fill="none" stroke="midnightblue" d="M772.277,-99.475C787.367,-90.556 811.401,-77.6365 834,-71 892.262,-53.8907 963.387,-49.3789 1004.11,-48.2672"/>
<polygon fill="midnightblue" stroke="midnightblue" points="1004.35,-51.7629 1014.27,-48.044 1004.2,-44.7646 1004.35,-51.7629"/>
</g>
<!-- Node30 -->
<g id="node62" class="node"><title>Node30</title>
<a xlink:href="../../d1/dc2/xmpp__parser_8c.html#adc3f7670edafd5b590af11d276887f1e" target="_top" xlink:title="Expat callback for end elements.">
<polygon fill="none" stroke="black" points="861.5,-118.5 861.5,-137.5 896.5,-137.5 896.5,-118.5 861.5,-118.5"/>
<text text-anchor="middle" x="879" y="-125.5" font-family="DejaVuSansMono" font-size="10.00">end</text>
</a>
</g>
<!-- Node22&#45;&gt;Node30 -->
<g id="edge64" class="edge"><title>Node22&#45;&gt;Node30</title>
<path fill="none" stroke="midnightblue" d="M797.628,-115.38C815.255,-118.148 835.415,-121.313 851.134,-123.781"/>
<polygon fill="midnightblue" stroke="midnightblue" points="850.799,-127.272 861.221,-125.365 851.885,-120.356 850.799,-127.272"/>
</g>
<!-- Node35 -->
<g id="node74" class="node"><title>Node35</title>
<a xlink:href="../../d1/dc2/xmpp__parser_8c.html#a78918dc72ccbf110d41d34080ebbf014" target="_top" xlink:title="Expat callback for XML data.">
<polygon fill="none" stroke="black" points="846.5,-4.5 846.5,-23.5 911.5,-23.5 911.5,-4.5 846.5,-4.5"/>
<text text-anchor="middle" x="879" y="-11.5" font-family="DejaVuSansMono" font-size="10.00">chardata</text>
</a>
</g>
<!-- Node22&#45;&gt;Node35 -->
<g id="edge78" class="edge"><title>Node22&#45;&gt;Node35</title>
<path fill="none" stroke="midnightblue" d="M765.841,-99.4665C779.534,-85.0353 807.106,-57.2858 834,-38 838.685,-34.6406 843.891,-31.4127 849.036,-28.4731"/>
<polygon fill="midnightblue" stroke="midnightblue" points="851.001,-31.3883 858.104,-23.5272 847.649,-25.243 851.001,-31.3883"/>
</g>
<!-- Node37 -->
<g id="node78" class="node"><title>Node37</title>
<a xlink:href="../../d1/dc2/xmpp__parser_8c.html#a97bcfc9f28eea4b3aa3a7d8ac7af8aee" target="_top" xlink:title="Expat callback for namespace declarations.">
<polygon fill="none" stroke="black" points="846.5,-156.5 846.5,-175.5 911.5,-175.5 911.5,-156.5 846.5,-156.5"/>
<text text-anchor="middle" x="879" y="-163.5" font-family="DejaVuSansMono" font-size="10.00">ns_start</text>
</a>
</g>
<!-- Node22&#45;&gt;Node37 -->
<g id="edge82" class="edge"><title>Node22&#45;&gt;Node37</title>
<path fill="none" stroke="midnightblue" d="M775.857,-118.64C791.367,-126.488 813.974,-137.742 834,-147 837.824,-148.768 841.856,-150.579 845.864,-152.348"/>
<polygon fill="midnightblue" stroke="midnightblue" points="844.5,-155.571 855.065,-156.358 847.296,-149.154 844.5,-155.571"/>
</g>
<!-- Node38 -->
<g id="node80" class="node"><title>Node38</title>
<a xlink:href="../../d1/dc2/xmpp__parser_8c.html#a2268b636f6d02bbe04f3033ff93d829c" target="_top" xlink:title="Expat callback for the start of an XMPP stream.">
<polygon fill="none" stroke="black" points="834.5,-80.5 834.5,-99.5 923.5,-99.5 923.5,-80.5 834.5,-80.5"/>
<text text-anchor="middle" x="879" y="-87.5" font-family="DejaVuSansMono" font-size="10.00">stream_start</text>
</a>
</g>
<!-- Node22&#45;&gt;Node38 -->
<g id="edge84" class="edge"><title>Node22&#45;&gt;Node38</title>
<path fill="none" stroke="midnightblue" d="M797.628,-102.62C806.208,-101.273 815.387,-99.8317 824.363,-98.4224"/>
<polygon fill="midnightblue" stroke="midnightblue" points="825.031,-101.86 834.367,-96.8515 823.945,-94.9452 825.031,-101.86"/>
</g>
<!-- Node24 -->
<g id="node50" class="node"><title>Node24</title>
<a xlink:href="../../d1/d59/xmpp__stanza_8c.html#aa2b621549a5e0499793adbec29964932" target="_top" xlink:title="Allocate stanza with namespace information.">
<polygon fill="none" stroke="black" points="1173.5,-76.5 1173.5,-95.5 1298.5,-95.5 1298.5,-76.5 1173.5,-76.5"/>
<text text-anchor="middle" x="1236" y="-83.5" font-family="DejaVuSansMono" font-size="10.00">xmpp_stanza_ns_new</text>
</a>
</g>
<!-- Node23&#45;&gt;Node24 -->
<g id="edge52" class="edge"><title>Node23&#45;&gt;Node24</title>
<path fill="none" stroke="midnightblue" d="M1061.87,-52.4335C1089.58,-57.8071 1137.34,-67.0657 1175.68,-74.4998"/>
<polygon fill="midnightblue" stroke="midnightblue" points="1175.23,-77.9775 1185.72,-76.4449 1176.56,-71.1055 1175.23,-77.9775"/>
</g>
<!-- Node28 -->
<g id="node58" class="node"><title>Node28</title>
<a xlink:href="../../d1/d59/xmpp__stanza_8c.html#ac13c8bb45e2ca03b99836e8d52b265b4" target="_top" xlink:title="Appends a child stanza.">
<polygon fill="none" stroke="black" points="1155.5,-38.5 1155.5,-57.5 1316.5,-57.5 1316.5,-38.5 1155.5,-38.5"/>
<text text-anchor="middle" x="1236" y="-45.5" font-family="DejaVuSansMono" font-size="10.00">xmpp_stanza_append_child</text>
</a>
</g>
<!-- Node23&#45;&gt;Node28 -->
<g id="edge60" class="edge"><title>Node23&#45;&gt;Node28</title>
<path fill="none" stroke="midnightblue" d="M1061.87,-48C1082.46,-48 1114.12,-48 1144.76,-48"/>
<polygon fill="midnightblue" stroke="midnightblue" points="1145.09,-51.5001 1155.09,-48 1145.09,-44.5001 1145.09,-51.5001"/>
</g>
<!-- Node25 -->
<g id="node52" class="node"><title>Node25</title>
<a xlink:href="../../d1/d59/xmpp__stanza_8c.html#aa80dd21d794b5c63fcb13c49745cc373" target="_top" xlink:title="Allocate and initialize a new XMPP stanza structure.">
<polygon fill="none" stroke="black" points="1395.5,-76.5 1395.5,-95.5 1502.5,-95.5 1502.5,-76.5 1395.5,-76.5"/>
<text text-anchor="middle" x="1449" y="-83.5" font-family="DejaVuSansMono" font-size="10.00">xmpp_stanza_new</text>
</a>
</g>
<!-- Node24&#45;&gt;Node25 -->
<g id="edge54" class="edge"><title>Node24&#45;&gt;Node25</title>
<path fill="none" stroke="midnightblue" d="M1298.6,-86C1325.78,-86 1357.69,-86 1385.03,-86"/>
<polygon fill="midnightblue" stroke="midnightblue" points="1385.26,-89.5001 1395.26,-86 1385.26,-82.5001 1385.26,-89.5001"/>
</g>
<!-- Node26 -->
<g id="node54" class="node"><title>Node26</title>
<a xlink:href="../../d1/d59/xmpp__stanza_8c.html#a5a80203f56df7a360fa457c0111686f6" target="_top" xlink:title="Parse the namespace triple that Expat gives us.">
<polygon fill="none" stroke="black" points="1578.5,-95.5 1578.5,-114.5 1643.5,-114.5 1643.5,-95.5 1578.5,-95.5"/>
<text text-anchor="middle" x="1611" y="-102.5" font-family="DejaVuSansMono" font-size="10.00">parse_ns</text>
</a>
</g>
<!-- Node25&#45;&gt;Node26 -->
<g id="edge56" class="edge"><title>Node25&#45;&gt;Node26</title>
<path fill="none" stroke="midnightblue" d="M1502.83,-92.274C1524.07,-94.796 1548.21,-97.6623 1568.19,-100.035"/>
<polygon fill="midnightblue" stroke="midnightblue" points="1567.88,-103.523 1578.23,-101.227 1568.71,-96.572 1567.88,-103.523"/>
</g>
<!-- Node27 -->
<g id="node56" class="node"><title>Node27</title>
<a xlink:href="../../d1/d59/xmpp__stanza_8c.html#aff4b8f6e10ce1c351d2a5bc39f0e819f" target="_top" xlink:title="Convenience function to build a key for the attribute hash table.">
<polygon fill="none" stroke="black" points="1578.5,-57.5 1578.5,-76.5 1643.5,-76.5 1643.5,-57.5 1578.5,-57.5"/>
<text text-anchor="middle" x="1611" y="-64.5" font-family="DejaVuSansMono" font-size="10.00">make_key</text>
</a>
</g>
<!-- Node25&#45;&gt;Node27 -->
<g id="edge58" class="edge"><title>Node25&#45;&gt;Node27</title>
<path fill="none" stroke="midnightblue" d="M1502.83,-79.726C1524.07,-77.204 1548.21,-74.3377 1568.19,-71.9647"/>
<polygon fill="midnightblue" stroke="midnightblue" points="1568.71,-75.428 1578.23,-70.7731 1567.88,-68.4769 1568.71,-75.428"/>
</g>
<!-- Node29 -->
<g id="node60" class="node"><title>Node29</title>
<a xlink:href="../../d1/d59/xmpp__stanza_8c.html#afc77f00b7f38c79566a7b16876230e30" target="_top" xlink:title="Removes a child stanza.">
<polygon fill="none" stroke="black" points="1368.5,-38.5 1368.5,-57.5 1529.5,-57.5 1529.5,-38.5 1368.5,-38.5"/>
<text text-anchor="middle" x="1449" y="-45.5" font-family="DejaVuSansMono" font-size="10.00">xmpp_stanza_remove_child</text>
</a>
</g>
<!-- Node28&#45;&gt;Node29 -->
<g id="edge62" class="edge"><title>Node28&#45;&gt;Node29</title>
<path fill="none" stroke="midnightblue" d="M1316.77,-48C1330.39,-48 1344.61,-48 1358.46,-48"/>
<polygon fill="midnightblue" stroke="midnightblue" points="1358.47,-51.5001 1368.47,-48 1358.47,-44.5001 1358.47,-51.5001"/>
</g>
<!-- Node30&#45;&gt;Node13 -->
<g id="edge66" class="edge"><title>Node30&#45;&gt;Node13</title>
<path fill="none" stroke="midnightblue" d="M896.665,-132.729C905.447,-135.799 916.019,-140.461 924,-147 945.743,-164.815 936.858,-183.045 960,-199 962.923,-201.015 966.037,-202.817 969.276,-204.428"/>
<polygon fill="midnightblue" stroke="midnightblue" points="968.107,-207.735 978.675,-208.482 970.879,-201.307 968.107,-207.735"/>
</g>
<!-- Node31 -->
<g id="node65" class="node"><title>Node31</title>
<a xlink:href="../../d1/d59/xmpp__stanza_8c.html#af40757ae1d137034570b1bb33303d024" target="_top" xlink:title="Cleans up and frees an XMPP stanza.">
<polygon fill="none" stroke="black" points="984.5,-114.5 984.5,-133.5 1091.5,-133.5 1091.5,-114.5 984.5,-114.5"/>
<text text-anchor="middle" x="1038" y="-121.5" font-family="DejaVuSansMono" font-size="10.00">xmpp_stanza_del</text>
</a>
</g>
<!-- Node30&#45;&gt;Node31 -->
<g id="edge68" class="edge"><title>Node30&#45;&gt;Node31</title>
<path fill="none" stroke="midnightblue" d="M896.505,-127.579C914.946,-127.11 945.919,-126.321 974.098,-125.603"/>
<polygon fill="midnightblue" stroke="midnightblue" points="974.417,-129.096 984.325,-125.342 974.239,-122.098 974.417,-129.096"/>
</g>
<!-- Node34 -->
<g id="node72" class="node"><title>Node34</title>
<a xlink:href="../../d1/d59/xmpp__stanza_8c.html#aacbe1cdb2a1d254b0b712653787b3c45" target="_top" xlink:title="Returns a pointer to the parent stanza.">
<polygon fill="none" stroke="black" points="975.5,-170.5 975.5,-189.5 1100.5,-189.5 1100.5,-170.5 975.5,-170.5"/>
<text text-anchor="middle" x="1038" y="-177.5" font-family="DejaVuSansMono" font-size="10.00">xmpp_stanza_parent</text>
</a>
</g>
<!-- Node30&#45;&gt;Node34 -->
<g id="edge76" class="edge"><title>Node30&#45;&gt;Node34</title>
<path fill="none" stroke="midnightblue" d="M896.565,-135.176C916.199,-143.62 947.793,-157.001 960,-161 967.628,-163.499 975.775,-165.845 983.809,-167.978"/>
<polygon fill="midnightblue" stroke="midnightblue" points="982.953,-171.372 993.51,-170.471 984.695,-164.592 982.953,-171.372"/>
</g>
<!-- Node31&#45;&gt;Node31 -->
<g id="edge74" class="edge"><title>Node31&#45;&gt;Node31</title>
<path fill="none" stroke="midnightblue" d="M1013.65,-133.757C1001.8,-142.565 1009.92,-152 1038,-152 1056.43,-152 1066.26,-147.937 1067.49,-142.654"/>
<polygon fill="midnightblue" stroke="midnightblue" points="1070.39,-140.665 1062.35,-133.757 1064.32,-144.167 1070.39,-140.665"/>
</g>
<!-- Node32 -->
<g id="node67" class="node"><title>Node32</title>
<a xlink:href="../../d1/d59/xmpp__stanza_8c.html#a2fb472c6bf9b7f540a97ddc6c11adb74" target="_top" xlink:title="attribute_del">
<polygon fill="none" stroke="black" points="1188.5,-114.5 1188.5,-133.5 1283.5,-133.5 1283.5,-114.5 1188.5,-114.5"/>
<text text-anchor="middle" x="1236" y="-121.5" font-family="DejaVuSansMono" font-size="10.00">attribute_del</text>
</a>
</g>
<!-- Node31&#45;&gt;Node32 -->
<g id="edge70" class="edge"><title>Node31&#45;&gt;Node32</title>
<path fill="none" stroke="midnightblue" d="M1091.52,-124C1118.27,-124 1150.82,-124 1178.16,-124"/>
<polygon fill="midnightblue" stroke="midnightblue" points="1178.35,-127.5 1188.35,-124 1178.35,-120.5 1178.35,-127.5"/>
</g>
<!-- Node33 -->
<g id="node69" class="node"><title>Node33</title>
<a xlink:href="../../d1/dc2/xmpp__parser_8c.html#a87065f39f10a449e7af17fa45ca475f2" target="_top" xlink:title="xmpp_parser_namespace_del">
<polygon fill="none" stroke="black" points="1152.5,-152.5 1152.5,-171.5 1319.5,-171.5 1319.5,-152.5 1152.5,-152.5"/>
<text text-anchor="middle" x="1236" y="-159.5" font-family="DejaVuSansMono" font-size="10.00">xmpp_parser_namespace_del</text>
</a>
</g>
<!-- Node31&#45;&gt;Node33 -->
<g id="edge72" class="edge"><title>Node31&#45;&gt;Node33</title>
<path fill="none" stroke="midnightblue" d="M1088.21,-133.54C1114.77,-138.69 1147.75,-145.084 1175.72,-150.506"/>
<polygon fill="midnightblue" stroke="midnightblue" points="1175.29,-153.989 1185.77,-152.456 1176.62,-147.117 1175.29,-153.989"/>
</g>
<!-- Node36 -->
<g id="node76" class="node"><title>Node36</title>
<a xlink:href="../../d1/d59/xmpp__stanza_8c.html#a4adffe2c21d8f7aa52ce23cc48772b7f" target="_top" xlink:title="Copies data.">
<polygon fill="none" stroke="black" points="960.5,-0.5 960.5,-19.5 1115.5,-19.5 1115.5,-0.5 960.5,-0.5"/>
<text text-anchor="middle" x="1038" y="-7.5" font-family="DejaVuSansMono" font-size="10.00">xmpp_stanza_append_data</text>
</a>
</g>
<!-- Node35&#45;&gt;Node36 -->
<g id="edge80" class="edge"><title>Node35&#45;&gt;Node36</title>
<path fill="none" stroke="midnightblue" d="M911.771,-13.1905C923.163,-12.9003 936.62,-12.5575 950.412,-12.2061"/>
<polygon fill="midnightblue" stroke="midnightblue" points="950.583,-15.7029 960.491,-11.9493 950.405,-8.70521 950.583,-15.7029"/>
</g>
<!-- Node38&#45;&gt;Node13 -->
<g id="edge88" class="edge"><title>Node38&#45;&gt;Node13</title>
<path fill="none" stroke="midnightblue" d="M910.857,-99.5914C915.679,-102.088 920.286,-105.184 924,-109 954.047,-139.873 927.501,-170.719 960,-199 961.999,-200.74 964.134,-202.326 966.371,-203.77"/>
<polygon fill="midnightblue" stroke="midnightblue" points="964.983,-206.999 975.445,-208.673 968.311,-200.84 964.983,-206.999"/>
</g>
<!-- Node38&#45;&gt;Node23 -->
<g id="edge90" class="edge"><title>Node38&#45;&gt;Node23</title>
<path fill="none" stroke="midnightblue" d="M915.626,-80.4695C942.302,-73.3332 978.508,-63.6477 1004.42,-56.7159"/>
<polygon fill="midnightblue" stroke="midnightblue" points="1005.39,-60.0789 1014.15,-54.1135 1003.58,-53.3167 1005.39,-60.0789"/>
</g>
<!-- Node38&#45;&gt;Node24 -->
<g id="edge86" class="edge"><title>Node38&#45;&gt;Node24</title>
<path fill="none" stroke="midnightblue" d="M923.53,-89.5095C983.176,-88.8375 1091.08,-87.6217 1162.89,-86.8125"/>
<polygon fill="midnightblue" stroke="midnightblue" points="1163.25,-90.3087 1173.21,-86.6962 1163.18,-83.3092 1163.25,-90.3087"/>
</g>
<!-- Node38&#45;&gt;Node31 -->
<g id="edge92" class="edge"><title>Node38&#45;&gt;Node31</title>
<path fill="none" stroke="midnightblue" d="M923.733,-99.4709C942.122,-103.453 963.701,-108.126 983.063,-112.319"/>
<polygon fill="midnightblue" stroke="midnightblue" points="982.442,-115.766 992.957,-114.462 983.924,-108.925 982.442,-115.766"/>
</g>
<!-- Node39&#45;&gt;Node21 -->
<g id="edge96" class="edge"><title>Node39&#45;&gt;Node21</title>
<path fill="none" stroke="midnightblue" d="M503.712,-137C518.023,-137 533.46,-137 548.195,-137"/>
<polygon fill="midnightblue" stroke="midnightblue" points="548.261,-140.5 558.261,-137 548.261,-133.5 548.261,-140.5"/>
</g>
</g>
</svg>
        <g id="navigator" transform="translate(0 0)" fill="#404254">
                <rect fill="#f2f5e9" fill-opacity="0.5" stroke="#606060" stroke-width=".5" x="0" y="0" width="60" height="60"/>
                <use id="zoomplus" xlink:href="#zoomPlus" x="17" y="9" onmousedown="handleZoom(evt,'in')"/>
                <use id="zoomminus" xlink:href="#zoomMin" x="42" y="9" onmousedown="handleZoom(evt,'out')"/>
                <use id="reset" xlink:href="#resetDef" x="30" y="36" onmousedown="handleReset()"/>
                <g id="arrowUp" xlink:href="#dirArrow" transform="translate(30 24)" onmousedown="handlePan(0,-1)">
                  <use xlink:href="#rim" fill="#404040">
                        <set attributeName="fill" to="#808080" begin="arrowUp.mouseover" end="arrowUp.mouseout"/>
                  </use>
                  <path fill="none" stroke="white" stroke-width="1.5" d="M0,-3.0v7 M-2.5,-0.5L0,-3.0L2.5,-0.5"/>
                </g>
                <g id="arrowRight" xlink:href="#dirArrow" transform="rotate(90) translate(36 -43)" onmousedown="handlePan(1,0)">
                  <use xlink:href="#rim" fill="#404040">
                        <set attributeName="fill" to="#808080" begin="arrowRight.mouseover" end="arrowRight.mouseout"/>
                  </use>
                  <path fill="none" stroke="white" stroke-width="1.5" d="M0,-3.0v7 M-2.5,-0.5L0,-3.0L2.5,-0.5"/>
                </g>
                <g id="arrowDown" xlink:href="#dirArrow" transform="rotate(180) translate(-30 -48)" onmousedown="handlePan(0,1)">
                  <use xlink:href="#rim" fill="#404040">
                        <set attributeName="fill" to="#808080" begin="arrowDown.mouseover" end="arrowDown.mouseout"/>
                  </use>
                  <path fill="none" stroke="white" stroke-width="1.5" d="M0,-3.0v7 M-2.5,-0.5L0,-3.0L2.5,-0.5"/>
                </g>
                <g id="arrowLeft" xlink:href="#dirArrow" transform="rotate(270) translate(-36 17)" onmousedown="handlePan(-1,0)">
                  <use xlink:href="#rim" fill="#404040">
                        <set attributeName="fill" to="#808080" begin="arrowLeft.mouseover" end="arrowLeft.mouseout"/>
                  </use>
                  <path fill="none" stroke="white" stroke-width="1.5" d="M0,-3.0v7 M-2.5,-0.5L0,-3.0L2.5,-0.5"/>
                </g>
        </g>
        <svg viewBox="0 0 25 25" width="100%" height="30px" preserveAspectRatio="xMaxYMin meet"> 
          <g id="printButton" transform="scale(0.4 0.4)" onmousedown="handlePrint(evt)">
            <rect height="23.33753581" id="paper" rx="2" style="fill:#f2f5e9;fill-rule:evenodd;stroke:#111111;stroke-width:3.224;stroke-linejoin:round;" transform="matrix(1.000000,0.000000,-0.339266,0.940691,0.000000,0.000000)" width="25.55231285" x="26.69387353" y="7.36162977"/>
            <rect height="26.272097" id="body" rx="2" style="fill:#404040;fill-rule:evenodd;stroke:#111111;stroke-width:3.125;stroke-linejoin:round;" width="50" x="4.5295201" y="27.078951"/>
            <rect height="8.27750969" id="tray" style="fill:#d2d5c9;fill-rule:evenodd;stroke:#111111;stroke-width:3.125;stroke-linecap:round;stroke-linejoin:round;" width="40" x="10.28778839" y="44.96812282"/>
          </g>
        </svg>
</svg>
