<?xml version="1.0" encoding="UTF-8" standalone="no"?>
<!DOCTYPE svg PUBLIC "-//W3C//DTD SVG 1.1//EN"
 "http://www.w3.org/Graphics/SVG/1.1/DTD/svg11.dtd">
<!-- Generated by graphviz version 2.28.0 (20120217.0315)
 -->
<!-- Title: G Pages: 1 -->
<!--zoomable 180 -->
<svg id="main" version="1.1" xmlns="http://www.w3.org/2000/svg" xmlns:xlink="http://www.w3.org/1999/xlink" xml:space="preserve" onload="init(evt)">
        <defs>
                <circle id="rim" cx="0" cy="0" r="7"/>
                <circle id="rim2" cx="0" cy="0" r="3.5"/>
                <g id="zoomPlus">
                        <use xlink:href="#rim" fill="#404040">
                                <set attributeName="fill" to="#808080" begin="zoomplus.mouseover" end="zoomplus.mouseout"/>
                        </use>
                        <path d="M-4,0h8M0,-4v8" fill="none" stroke="white" stroke-width="1.5" pointer-events="none"/>
                </g>
                <g id="zoomMin">
                        <use xlink:href="#rim" fill="#404040">
                                <set attributeName="fill" to="#808080" begin="zoomminus.mouseover" end="zoomminus.mouseout"/>
                        </use>
                        <path d="M-4,0h8" fill="none" stroke="white" stroke-width="1.5" pointer-events="none"/>
                </g>
                <g id="dirArrow">
                        <path fill="none" stroke="white" stroke-width="1.5" d="M0,-3.0v7 M-2.5,-0.5L0,-3.0L2.5,-0.5"/>
                </g>
               <g id="resetDef">
                       <use xlink:href="#rim2" fill="#404040">
                               <set attributeName="fill" to="#808080" begin="reset.mouseover" end="reset.mouseout"/>
                       </use>
               </g>
        </defs>

<script type="text/javascript">
var viewWidth = 1640;
var viewHeight = 180;
var sectionId = 'dynsection-41';
</script>
<script xlink:href="../../svgpan.js"/>
<svg id="graph" class="graph">
<g id="viewport">
<title>G</title>
<!-- Node1 -->
<g id="node1" class="node"><title>Node1</title>
<polygon fill="#bfbfbf" stroke="black" points="0.5,-71.5 0.5,-90.5 155.5,-90.5 155.5,-71.5 0.5,-71.5"/>
<text text-anchor="middle" x="78" y="-78.5" font-family="DejaVuSansMono" font-size="10.00">xmpp_server_find_client</text>
</g>
<!-- Node2 -->
<g id="node3" class="node"><title>Node2</title>
<a xlink:href="../../d7/d71/xep__muc_8c.html#aefd23f2960520a68fea212344b85cb0b" target="_top" xlink:title="enter_room_presence">
<polygon fill="none" stroke="black" points="195.5,-128.5 195.5,-147.5 326.5,-147.5 326.5,-128.5 195.5,-128.5"/>
<text text-anchor="middle" x="261" y="-135.5" font-family="DejaVuSansMono" font-size="10.00">enter_room_presence</text>
</a>
</g>
<!-- Node1&#45;&gt;Node2 -->
<g id="edge2" class="edge"><title>Node1&#45;&gt;Node2</title>
<path fill="none" stroke="midnightblue" d="M119.188,-93.6558C152.553,-104.163 199.291,-118.882 229.606,-128.428"/>
<polygon fill="midnightblue" stroke="midnightblue" points="119.885,-90.206 109.295,-90.5405 117.782,-96.8827 119.885,-90.206"/>
</g>
<!-- Node7 -->
<g id="node13" class="node"><title>Node7</title>
<a xlink:href="../../d6/d78/xmp3__multicast_8c.html#a3ef84feef94d4ad6045cd45fd91b531c" target="_top" xlink:title="local_stanza_handler">
<polygon fill="none" stroke="black" points="192.5,-71.5 192.5,-90.5 329.5,-90.5 329.5,-71.5 192.5,-71.5"/>
<text text-anchor="middle" x="261" y="-78.5" font-family="DejaVuSansMono" font-size="10.00">local_stanza_handler</text>
</a>
</g>
<!-- Node1&#45;&gt;Node7 -->
<g id="edge12" class="edge"><title>Node1&#45;&gt;Node7</title>
<path fill="none" stroke="midnightblue" d="M165.776,-81C174.682,-81 183.636,-81 192.293,-81"/>
<polygon fill="midnightblue" stroke="midnightblue" points="165.76,-77.5001 155.76,-81 165.76,-84.5001 165.76,-77.5001"/>
</g>
<!-- Node10 -->
<g id="node19" class="node"><title>Node10</title>
<a xlink:href="../../df/da9/xmpp__auth_8c.html#a603b4a63af3c4e4af99442805fe89ae8" target="_top" xlink:title="Step 15: Client binds a resource.">
<polygon fill="none" stroke="black" points="210.5,-24.5 210.5,-43.5 311.5,-43.5 311.5,-24.5 210.5,-24.5"/>
<text text-anchor="middle" x="261" y="-31.5" font-family="DejaVuSansMono" font-size="10.00">handle_bind_iq</text>
</a>
</g>
<!-- Node1&#45;&gt;Node10 -->
<g id="edge18" class="edge"><title>Node1&#45;&gt;Node10</title>
<path fill="none" stroke="midnightblue" d="M125.555,-68.9112C155.892,-61.0336 194.93,-50.8967 223.116,-43.5776"/>
<polygon fill="midnightblue" stroke="midnightblue" points="124.427,-65.5878 115.628,-71.4888 126.187,-72.3631 124.427,-65.5878"/>
</g>
<!-- Node3 -->
<g id="node5" class="node"><title>Node3</title>
<a xlink:href="../../d7/d71/xep__muc_8c.html#a9936322b944d46aead9fbd942687ec0a" target="_top" xlink:title="handle_presence">
<polygon fill="none" stroke="black" points="372.5,-133.5 372.5,-152.5 479.5,-152.5 479.5,-133.5 372.5,-133.5"/>
<text text-anchor="middle" x="426" y="-140.5" font-family="DejaVuSansMono" font-size="10.00">handle_presence</text>
</a>
</g>
<!-- Node2&#45;&gt;Node3 -->
<g id="edge4" class="edge"><title>Node2&#45;&gt;Node3</title>
<path fill="none" stroke="midnightblue" d="M336.886,-140.297C348.866,-140.665 361.039,-141.038 372.358,-141.385"/>
<polygon fill="midnightblue" stroke="midnightblue" points="336.993,-136.799 326.89,-139.99 336.778,-143.796 336.993,-136.799"/>
</g>
<!-- Node4 -->
<g id="node7" class="node"><title>Node4</title>
<a xlink:href="../../d7/d71/xep__muc_8c.html#a1798db1c16a1fa62ff8f39fea202a26f" target="_top" xlink:title="stanza_handler">
<polygon fill="none" stroke="black" points="531.5,-133.5 531.5,-152.5 632.5,-152.5 632.5,-133.5 531.5,-133.5"/>
<text text-anchor="middle" x="582" y="-140.5" font-family="DejaVuSansMono" font-size="10.00">stanza_handler</text>
</a>
</g>
<!-- Node3&#45;&gt;Node4 -->
<g id="edge6" class="edge"><title>Node3&#45;&gt;Node4</title>
<path fill="none" stroke="midnightblue" d="M489.944,-143C503.712,-143 518.1,-143 531.266,-143"/>
<polygon fill="midnightblue" stroke="midnightblue" points="489.567,-139.5 479.567,-143 489.567,-146.5 489.567,-139.5"/>
</g>
<!-- Node5 -->
<g id="node9" class="node"><title>Node5</title>
<a xlink:href="../../d7/d71/xep__muc_8c.html#addf05166cf3fbe386ae6650be21ef251" target="_top" xlink:title="xep_muc_start">
<polygon fill="none" stroke="black" points="690.5,-152.5 690.5,-171.5 785.5,-171.5 785.5,-152.5 690.5,-152.5"/>
<text text-anchor="middle" x="738" y="-159.5" font-family="DejaVuSansMono" font-size="10.00">xep_muc_start</text>
</a>
</g>
<!-- Node4&#45;&gt;Node5 -->
<g id="edge8" class="edge"><title>Node4&#45;&gt;Node5</title>
<path fill="none" stroke="midnightblue" d="M642.782,-150.376C658.585,-152.325 675.407,-154.401 690.398,-156.25"/>
<polygon fill="midnightblue" stroke="midnightblue" points="642.928,-146.867 632.574,-149.116 642.07,-153.815 642.928,-146.867"/>
</g>
<!-- Node6 -->
<g id="node11" class="node"><title>Node6</title>
<a xlink:href="../../d7/d71/xep__muc_8c.html#a20d385a5584d8014ec4d5774eb79d1de" target="_top" xlink:title="xep_muc_stop">
<polygon fill="none" stroke="black" points="693.5,-114.5 693.5,-133.5 782.5,-133.5 782.5,-114.5 693.5,-114.5"/>
<text text-anchor="middle" x="738" y="-121.5" font-family="DejaVuSansMono" font-size="10.00">xep_muc_stop</text>
</a>
</g>
<!-- Node4&#45;&gt;Node6 -->
<g id="edge10" class="edge"><title>Node4&#45;&gt;Node6</title>
<path fill="none" stroke="midnightblue" d="M642.896,-135.61C659.761,-133.529 677.78,-131.306 693.489,-129.368"/>
<polygon fill="midnightblue" stroke="midnightblue" points="642.07,-132.185 632.574,-136.884 642.928,-139.133 642.07,-132.185"/>
</g>
<!-- Node8 -->
<g id="node15" class="node"><title>Node8</title>
<a xlink:href="../../d6/d78/xmp3__multicast_8c.html#a991c928ab73b350c4b7029352e91a219" target="_top" xlink:title="multicast_start">
<polygon fill="none" stroke="black" points="372.5,-95.5 372.5,-114.5 479.5,-114.5 479.5,-95.5 372.5,-95.5"/>
<text text-anchor="middle" x="426" y="-102.5" font-family="DejaVuSansMono" font-size="10.00">multicast_start</text>
</a>
</g>
<!-- Node7&#45;&gt;Node8 -->
<g id="edge14" class="edge"><title>Node7&#45;&gt;Node8</title>
<path fill="none" stroke="midnightblue" d="M336.886,-92.0261C348.866,-93.7901 361.039,-95.5824 372.358,-97.2491"/>
<polygon fill="midnightblue" stroke="midnightblue" points="337.293,-88.5485 326.89,-90.5544 336.274,-95.4738 337.293,-88.5485"/>
</g>
<!-- Node9 -->
<g id="node17" class="node"><title>Node9</title>
<a xlink:href="../../d6/d78/xmp3__multicast_8c.html#ad161abeabc58820fd3a24b4422c5b9a7" target="_top" xlink:title="multicast_stop">
<polygon fill="none" stroke="black" points="375.5,-57.5 375.5,-76.5 476.5,-76.5 476.5,-57.5 375.5,-57.5"/>
<text text-anchor="middle" x="426" y="-64.5" font-family="DejaVuSansMono" font-size="10.00">multicast_stop</text>
</a>
</g>
<!-- Node7&#45;&gt;Node9 -->
<g id="edge16" class="edge"><title>Node7&#45;&gt;Node9</title>
<path fill="none" stroke="midnightblue" d="M339.77,-74.3204C351.804,-73.2868 363.946,-72.2439 375.145,-71.282"/>
<polygon fill="midnightblue" stroke="midnightblue" points="339.374,-70.8414 329.711,-75.1844 339.973,-77.8157 339.374,-70.8414"/>
</g>
<!-- Node11 -->
<g id="node21" class="node"><title>Node11</title>
<a xlink:href="../../df/da9/xmpp__auth_8c.html#a01804bd53eccc182ce76337fc0863e8d" target="_top" xlink:title="stream_bind_start">
<polygon fill="none" stroke="black" points="366.5,-19.5 366.5,-38.5 485.5,-38.5 485.5,-19.5 366.5,-19.5"/>
<text text-anchor="middle" x="426" y="-26.5" font-family="DejaVuSansMono" font-size="10.00">stream_bind_start</text>
</a>
</g>
<!-- Node10&#45;&gt;Node11 -->
<g id="edge20" class="edge"><title>Node10&#45;&gt;Node11</title>
<path fill="none" stroke="midnightblue" d="M322.113,-32.1561C336.561,-31.7129 351.974,-31.2401 366.355,-30.7989"/>
<polygon fill="midnightblue" stroke="midnightblue" points="321.679,-28.6676 311.791,-32.4727 321.894,-35.6643 321.679,-28.6676"/>
</g>
<!-- Node12 -->
<g id="node23" class="node"><title>Node12</title>
<a xlink:href="../../df/da9/xmpp__auth_8c.html#afb770a216868aa3fb43813b19d2a0115" target="_top" xlink:title="Begins SASL PLAIN authentication.">
<polygon fill="none" stroke="black" points="522.5,-19.5 522.5,-38.5 641.5,-38.5 641.5,-19.5 522.5,-19.5"/>
<text text-anchor="middle" x="582" y="-26.5" font-family="DejaVuSansMono" font-size="10.00">handle_sasl_plain</text>
</a>
</g>
<!-- Node11&#45;&gt;Node12 -->
<g id="edge22" class="edge"><title>Node11&#45;&gt;Node12</title>
<path fill="none" stroke="midnightblue" d="M495.894,-29C504.691,-29 513.631,-29 522.248,-29"/>
<polygon fill="midnightblue" stroke="midnightblue" points="495.66,-25.5001 485.66,-29 495.66,-32.5001 495.66,-25.5001"/>
</g>
<!-- Node13 -->
<g id="node25" class="node"><title>Node13</title>
<a xlink:href="../../d3/d24/xmpp__auth_8h.html#ad3efd9ab093646bdfd8832c34ae2de4d" target="_top" xlink:title="Handler for the inital stream start to begin authentication.">
<polygon fill="none" stroke="black" points="978.5,-19.5 978.5,-38.5 1127.5,-38.5 1127.5,-19.5 978.5,-19.5"/>
<text text-anchor="middle" x="1053" y="-26.5" font-family="DejaVuSansMono" font-size="10.00">xmpp_auth_stream_start</text>
</a>
</g>
<!-- Node12&#45;&gt;Node13 -->
<g id="edge24" class="edge"><title>Node12&#45;&gt;Node13</title>
<path fill="none" stroke="midnightblue" d="M651.987,-29C739.236,-29 888.847,-29 978.283,-29"/>
<polygon fill="midnightblue" stroke="midnightblue" points="651.924,-25.5001 641.924,-29 651.924,-32.5001 651.924,-25.5001"/>
</g>
<!-- Node18 -->
<g id="node35" class="node"><title>Node18</title>
<a xlink:href="../../df/da9/xmpp__auth_8c.html#afd7b12689591d40109a88ad108b5c3a2" target="_top" xlink:title="stream_sasl_start">
<polygon fill="none" stroke="black" points="678.5,-0.5 678.5,-19.5 797.5,-19.5 797.5,-0.5 678.5,-0.5"/>
<text text-anchor="middle" x="738" y="-7.5" font-family="DejaVuSansMono" font-size="10.00">stream_sasl_start</text>
</a>
</g>
<!-- Node12&#45;&gt;Node18 -->
<g id="edge34" class="edge"><title>Node12&#45;&gt;Node18</title>
<path fill="none" stroke="midnightblue" d="M651.607,-20.5355C660.497,-19.4387 669.538,-18.3233 678.248,-17.2486"/>
<polygon fill="midnightblue" stroke="midnightblue" points="651.156,-17.0645 641.66,-21.7627 652.013,-24.0118 651.156,-17.0645"/>
</g>
<!-- Node14 -->
<g id="node27" class="node"><title>Node14</title>
<a xlink:href="../../d4/d2f/xmpp__client_8h.html#a1619c0b8f58b2cf09a322bf34fbc3414" target="_top" xlink:title="xmpp_client_new">
<polygon fill="none" stroke="black" points="1164.5,-19.5 1164.5,-38.5 1271.5,-38.5 1271.5,-19.5 1164.5,-19.5"/>
<text text-anchor="middle" x="1218" y="-26.5" font-family="DejaVuSansMono" font-size="10.00">xmpp_client_new</text>
</a>
</g>
<!-- Node13&#45;&gt;Node14 -->
<g id="edge26" class="edge"><title>Node13&#45;&gt;Node14</title>
<path fill="none" stroke="midnightblue" d="M1137.99,-29C1146.95,-29 1155.88,-29 1164.33,-29"/>
<polygon fill="midnightblue" stroke="midnightblue" points="1137.87,-25.5001 1127.87,-29 1137.87,-32.5001 1137.87,-25.5001"/>
</g>
<!-- Node15 -->
<g id="node29" class="node"><title>Node15</title>
<a xlink:href="../../d0/df0/xmpp__server_8c.html#a66363912ef1221a2574f9f99805fe8fd" target="_top" xlink:title="Callback for new client connections.">
<polygon fill="none" stroke="black" points="1308.5,-19.5 1308.5,-38.5 1409.5,-38.5 1409.5,-19.5 1308.5,-19.5"/>
<text text-anchor="middle" x="1359" y="-26.5" font-family="DejaVuSansMono" font-size="10.00">connect_client</text>
</a>
</g>
<!-- Node14&#45;&gt;Node15 -->
<g id="edge28" class="edge"><title>Node14&#45;&gt;Node15</title>
<path fill="none" stroke="midnightblue" d="M1281.8,-29C1290.63,-29 1299.59,-29 1308.13,-29"/>
<polygon fill="midnightblue" stroke="midnightblue" points="1281.55,-25.5001 1271.55,-29 1281.55,-32.5001 1281.55,-25.5001"/>
</g>
<!-- Node16 -->
<g id="node31" class="node"><title>Node16</title>
<a xlink:href="../../d1/d2e/xmpp__server_8h.html#a27bfc8e4d424a8bc17ab21a4a09cdf92" target="_top" xlink:title="Allocates and initializes the XMPP server.">
<polygon fill="none" stroke="black" points="1446.5,-19.5 1446.5,-38.5 1553.5,-38.5 1553.5,-19.5 1446.5,-19.5"/>
<text text-anchor="middle" x="1500" y="-26.5" font-family="DejaVuSansMono" font-size="10.00">xmpp_server_new</text>
</a>
</g>
<!-- Node15&#45;&gt;Node16 -->
<g id="edge30" class="edge"><title>Node15&#45;&gt;Node16</title>
<path fill="none" stroke="midnightblue" d="M1419.94,-29C1428.7,-29 1437.67,-29 1446.27,-29"/>
<polygon fill="midnightblue" stroke="midnightblue" points="1419.79,-25.5001 1409.79,-29 1419.79,-32.5001 1419.79,-25.5001"/>
</g>
<!-- Node17 -->
<g id="node33" class="node"><title>Node17</title>
<a xlink:href="../../d0/d29/main_8c.html#a0ddf1224851353fc92bfbff6f499fa97" target="_top" xlink:title="main">
<polygon fill="none" stroke="black" points="1590.5,-19.5 1590.5,-38.5 1631.5,-38.5 1631.5,-19.5 1590.5,-19.5"/>
<text text-anchor="middle" x="1611" y="-26.5" font-family="DejaVuSansMono" font-size="10.00">main</text>
</a>
</g>
<!-- Node16&#45;&gt;Node17 -->
<g id="edge32" class="edge"><title>Node16&#45;&gt;Node17</title>
<path fill="none" stroke="midnightblue" d="M1563.75,-29C1573.43,-29 1582.76,-29 1590.47,-29"/>
<polygon fill="midnightblue" stroke="midnightblue" points="1563.58,-25.5001 1553.58,-29 1563.58,-32.5001 1563.58,-25.5001"/>
</g>
<!-- Node19 -->
<g id="node37" class="node"><title>Node19</title>
<a xlink:href="../../df/da9/xmpp__auth_8c.html#a8dd789e057b9812e4dd1aa524dfb6a65" target="_top" xlink:title="Begins TLS authentication.">
<polygon fill="none" stroke="black" points="834.5,-0.5 834.5,-19.5 941.5,-19.5 941.5,-0.5 834.5,-0.5"/>
<text text-anchor="middle" x="888" y="-7.5" font-family="DejaVuSansMono" font-size="10.00">handle_starttls</text>
</a>
</g>
<!-- Node18&#45;&gt;Node19 -->
<g id="edge36" class="edge"><title>Node18&#45;&gt;Node19</title>
<path fill="none" stroke="midnightblue" d="M808.085,-10C816.806,-10 825.619,-10 834.036,-10"/>
<polygon fill="midnightblue" stroke="midnightblue" points="807.919,-6.5001 797.919,-10 807.919,-13.5001 807.919,-6.5001"/>
</g>
<!-- Node19&#45;&gt;Node13 -->
<g id="edge38" class="edge"><title>Node19&#45;&gt;Node13</title>
<path fill="none" stroke="midnightblue" d="M951.911,-17.3332C960.558,-18.3411 969.499,-19.3833 978.317,-20.4112"/>
<polygon fill="midnightblue" stroke="midnightblue" points="952.259,-13.8502 941.921,-16.1688 951.449,-20.8031 952.259,-13.8502"/>
</g>
</g>
</svg>
        <g id="navigator" transform="translate(0 0)" fill="#404254">
                <rect fill="#f2f5e9" fill-opacity="0.5" stroke="#606060" stroke-width=".5" x="0" y="0" width="60" height="60"/>
                <use id="zoomplus" xlink:href="#zoomPlus" x="17" y="9" onmousedown="handleZoom(evt,'in')"/>
                <use id="zoomminus" xlink:href="#zoomMin" x="42" y="9" onmousedown="handleZoom(evt,'out')"/>
                <use id="reset" xlink:href="#resetDef" x="30" y="36" onmousedown="handleReset()"/>
                <g id="arrowUp" xlink:href="#dirArrow" transform="translate(30 24)" onmousedown="handlePan(0,-1)">
                  <use xlink:href="#rim" fill="#404040">
                        <set attributeName="fill" to="#808080" begin="arrowUp.mouseover" end="arrowUp.mouseout"/>
                  </use>
                  <path fill="none" stroke="white" stroke-width="1.5" d="M0,-3.0v7 M-2.5,-0.5L0,-3.0L2.5,-0.5"/>
                </g>
                <g id="arrowRight" xlink:href="#dirArrow" transform="rotate(90) translate(36 -43)" onmousedown="handlePan(1,0)">
                  <use xlink:href="#rim" fill="#404040">
                        <set attributeName="fill" to="#808080" begin="arrowRight.mouseover" end="arrowRight.mouseout"/>
                  </use>
                  <path fill="none" stroke="white" stroke-width="1.5" d="M0,-3.0v7 M-2.5,-0.5L0,-3.0L2.5,-0.5"/>
                </g>
                <g id="arrowDown" xlink:href="#dirArrow" transform="rotate(180) translate(-30 -48)" onmousedown="handlePan(0,1)">
                  <use xlink:href="#rim" fill="#404040">
                        <set attributeName="fill" to="#808080" begin="arrowDown.mouseover" end="arrowDown.mouseout"/>
                  </use>
                  <path fill="none" stroke="white" stroke-width="1.5" d="M0,-3.0v7 M-2.5,-0.5L0,-3.0L2.5,-0.5"/>
                </g>
                <g id="arrowLeft" xlink:href="#dirArrow" transform="rotate(270) translate(-36 17)" onmousedown="handlePan(-1,0)">
                  <use xlink:href="#rim" fill="#404040">
                        <set attributeName="fill" to="#808080" begin="arrowLeft.mouseover" end="arrowLeft.mouseout"/>
                  </use>
                  <path fill="none" stroke="white" stroke-width="1.5" d="M0,-3.0v7 M-2.5,-0.5L0,-3.0L2.5,-0.5"/>
                </g>
        </g>
        <svg viewBox="0 0 25 25" width="100%" height="30px" preserveAspectRatio="xMaxYMin meet"> 
          <g id="printButton" transform="scale(0.4 0.4)" onmousedown="handlePrint(evt)">
            <rect height="23.33753581" id="paper" rx="2" style="fill:#f2f5e9;fill-rule:evenodd;stroke:#111111;stroke-width:3.224;stroke-linejoin:round;" transform="matrix(1.000000,0.000000,-0.339266,0.940691,0.000000,0.000000)" width="25.55231285" x="26.69387353" y="7.36162977"/>
            <rect height="26.272097" id="body" rx="2" style="fill:#404040;fill-rule:evenodd;stroke:#111111;stroke-width:3.125;stroke-linejoin:round;" width="50" x="4.5295201" y="27.078951"/>
            <rect height="8.27750969" id="tray" style="fill:#d2d5c9;fill-rule:evenodd;stroke:#111111;stroke-width:3.125;stroke-linecap:round;stroke-linejoin:round;" width="40" x="10.28778839" y="44.96812282"/>
          </g>
        </svg>
</svg>
