<?xml version="1.0" encoding="UTF-8" standalone="no"?>
<!DOCTYPE svg PUBLIC "-//W3C//DTD SVG 1.1//EN"
 "http://www.w3.org/Graphics/SVG/1.1/DTD/svg11.dtd">
<!-- Generated by graphviz version 2.28.0 (20120217.0315)
 -->
<!-- Title: G Pages: 1 -->
<!--zoomable 370 -->
<svg id="main" version="1.1" xmlns="http://www.w3.org/2000/svg" xmlns:xlink="http://www.w3.org/1999/xlink" xml:space="preserve" onload="init(evt)">
        <defs>
                <circle id="rim" cx="0" cy="0" r="7"/>
                <circle id="rim2" cx="0" cy="0" r="3.5"/>
                <g id="zoomPlus">
                        <use xlink:href="#rim" fill="#404040">
                                <set attributeName="fill" to="#808080" begin="zoomplus.mouseover" end="zoomplus.mouseout"/>
                        </use>
                        <path d="M-4,0h8M0,-4v8" fill="none" stroke="white" stroke-width="1.5" pointer-events="none"/>
                </g>
                <g id="zoomMin">
                        <use xlink:href="#rim" fill="#404040">
                                <set attributeName="fill" to="#808080" begin="zoomminus.mouseover" end="zoomminus.mouseout"/>
                        </use>
                        <path d="M-4,0h8" fill="none" stroke="white" stroke-width="1.5" pointer-events="none"/>
                </g>
                <g id="dirArrow">
                        <path fill="none" stroke="white" stroke-width="1.5" d="M0,-3.0v7 M-2.5,-0.5L0,-3.0L2.5,-0.5"/>
                </g>
               <g id="resetDef">
                       <use xlink:href="#rim2" fill="#404040">
                               <set attributeName="fill" to="#808080" begin="reset.mouseover" end="reset.mouseout"/>
                       </use>
               </g>
        </defs>

<script type="text/javascript">
var viewWidth = 668;
var viewHeight = 370;
var sectionId = 'dynsection-18';
</script>
<script xlink:href="../../svgpan.js"/>
<svg id="graph" class="graph">
<g id="viewport">
<title>G</title>
<!-- Node1 -->
<g id="node1" class="node"><title>Node1</title>
<polygon fill="#bfbfbf" stroke="black" points="0.5,-228.5 0.5,-247.5 161.5,-247.5 161.5,-228.5 0.5,-228.5"/>
<text text-anchor="middle" x="81" y="-235.5" font-family="DejaVuSansMono" font-size="10.00">send_service_unavailable</text>
</g>
<!-- Node2 -->
<g id="node3" class="node"><title>Node2</title>
<a xlink:href="../../d1/d59/xmpp__stanza_8c.html#a20c90c791fa856784f2d43c9f44f1d3c" target="_top" xlink:title="Returns the value of an attribute of this stanza.">
<polygon fill="none" stroke="black" points="423.5,-228.5 423.5,-247.5 536.5,-247.5 536.5,-228.5 423.5,-228.5"/>
<text text-anchor="middle" x="480" y="-235.5" font-family="DejaVuSansMono" font-size="10.00">xmpp_stanza_attr</text>
</a>
</g>
<!-- Node1&#45;&gt;Node2 -->
<g id="edge2" class="edge"><title>Node1&#45;&gt;Node2</title>
<path fill="none" stroke="midnightblue" d="M161.861,-238C235.626,-238 343.915,-238 412.931,-238"/>
<polygon fill="midnightblue" stroke="midnightblue" points="413.239,-241.5 423.239,-238 413.239,-234.5 413.239,-241.5"/>
</g>
<!-- Node3 -->
<g id="node5" class="node"><title>Node3</title>
<a xlink:href="../../d1/d59/xmpp__stanza_8c.html#aa80dd21d794b5c63fcb13c49745cc373" target="_top" xlink:title="Allocate and initialize a new XMPP stanza structure.">
<polygon fill="none" stroke="black" points="225.5,-304.5 225.5,-323.5 332.5,-323.5 332.5,-304.5 225.5,-304.5"/>
<text text-anchor="middle" x="279" y="-311.5" font-family="DejaVuSansMono" font-size="10.00">xmpp_stanza_new</text>
</a>
</g>
<!-- Node1&#45;&gt;Node3 -->
<g id="edge4" class="edge"><title>Node1&#45;&gt;Node3</title>
<path fill="none" stroke="midnightblue" d="M98.3914,-247.52C120.408,-259.961 161.045,-281.721 198,-295 205.099,-297.551 212.676,-299.858 220.232,-301.914"/>
<polygon fill="midnightblue" stroke="midnightblue" points="219.551,-305.353 230.109,-304.471 221.305,-298.576 219.551,-305.353"/>
</g>
<!-- Node6 -->
<g id="node11" class="node"><title>Node6</title>
<a xlink:href="../../d1/d59/xmpp__stanza_8c.html#ac13c8bb45e2ca03b99836e8d52b265b4" target="_top" xlink:title="Appends a child stanza.">
<polygon fill="none" stroke="black" points="198.5,-266.5 198.5,-285.5 359.5,-285.5 359.5,-266.5 198.5,-266.5"/>
<text text-anchor="middle" x="279" y="-273.5" font-family="DejaVuSansMono" font-size="10.00">xmpp_stanza_append_child</text>
</a>
</g>
<!-- Node1&#45;&gt;Node6 -->
<g id="edge10" class="edge"><title>Node1&#45;&gt;Node6</title>
<path fill="none" stroke="midnightblue" d="M131.206,-247.54C157.767,-252.69 190.749,-259.084 218.718,-264.506"/>
<polygon fill="midnightblue" stroke="midnightblue" points="218.29,-267.989 228.774,-266.456 219.623,-261.117 218.29,-267.989"/>
</g>
<!-- Node8 -->
<g id="node15" class="node"><title>Node8</title>
<a xlink:href="../../d0/df0/xmpp__server_8c.html#a6d3f7e5e289f785b1c8c52f95068c627" target="_top" xlink:title="Deliver a stanza to a registered callback function.">
<polygon fill="none" stroke="black" points="198.5,-171.5 198.5,-190.5 359.5,-190.5 359.5,-171.5 198.5,-171.5"/>
<text text-anchor="middle" x="279" y="-178.5" font-family="DejaVuSansMono" font-size="10.00">xmpp_server_route_stanza</text>
</a>
</g>
<!-- Node1&#45;&gt;Node8 -->
<g id="edge14" class="edge"><title>Node1&#45;&gt;Node8</title>
<path fill="none" stroke="midnightblue" d="M114.806,-228.459C147.877,-218.842 199.076,-203.952 235.296,-193.419"/>
<polygon fill="midnightblue" stroke="midnightblue" points="236.462,-196.725 245.087,-190.572 234.507,-190.003 236.462,-196.725"/>
</g>
<!-- Node14 -->
<g id="node29" class="node"><title>Node14</title>
<a xlink:href="../../d1/d59/xmpp__stanza_8c.html#af40757ae1d137034570b1bb33303d024" target="_top" xlink:title="Cleans up and frees an XMPP stanza.">
<polygon fill="none" stroke="black" points="225.5,-38.5 225.5,-57.5 332.5,-57.5 332.5,-38.5 225.5,-38.5"/>
<text text-anchor="middle" x="279" y="-45.5" font-family="DejaVuSansMono" font-size="10.00">xmpp_stanza_del</text>
</a>
</g>
<!-- Node1&#45;&gt;Node14 -->
<g id="edge30" class="edge"><title>Node1&#45;&gt;Node14</title>
<path fill="none" stroke="midnightblue" d="M91.9891,-228.317C123.437,-197.832 220.676,-103.569 260.61,-64.8578"/>
<polygon fill="midnightblue" stroke="midnightblue" points="263.052,-67.3651 267.796,-57.8917 258.18,-62.339 263.052,-67.3651"/>
</g>
<!-- Node4 -->
<g id="node7" class="node"><title>Node4</title>
<a xlink:href="../../d1/d59/xmpp__stanza_8c.html#a5a80203f56df7a360fa457c0111686f6" target="_top" xlink:title="Parse the namespace triple that Expat gives us.">
<polygon fill="none" stroke="black" points="447.5,-342.5 447.5,-361.5 512.5,-361.5 512.5,-342.5 447.5,-342.5"/>
<text text-anchor="middle" x="480" y="-349.5" font-family="DejaVuSansMono" font-size="10.00">parse_ns</text>
</a>
</g>
<!-- Node3&#45;&gt;Node4 -->
<g id="edge6" class="edge"><title>Node3&#45;&gt;Node4</title>
<path fill="none" stroke="midnightblue" d="M329.959,-323.54C363.06,-329.861 405.981,-338.057 437.256,-344.029"/>
<polygon fill="midnightblue" stroke="midnightblue" points="436.906,-347.525 447.385,-345.963 438.219,-340.649 436.906,-347.525"/>
</g>
<!-- Node5 -->
<g id="node9" class="node"><title>Node5</title>
<a xlink:href="../../d1/d59/xmpp__stanza_8c.html#aff4b8f6e10ce1c351d2a5bc39f0e819f" target="_top" xlink:title="Convenience function to build a key for the attribute hash table.">
<polygon fill="none" stroke="black" points="447.5,-304.5 447.5,-323.5 512.5,-323.5 512.5,-304.5 447.5,-304.5"/>
<text text-anchor="middle" x="480" y="-311.5" font-family="DejaVuSansMono" font-size="10.00">make_key</text>
</a>
</g>
<!-- Node3&#45;&gt;Node5 -->
<g id="edge8" class="edge"><title>Node3&#45;&gt;Node5</title>
<path fill="none" stroke="midnightblue" d="M332.545,-314C365.198,-314 406.606,-314 437.054,-314"/>
<polygon fill="midnightblue" stroke="midnightblue" points="437.335,-317.5 447.335,-314 437.335,-310.5 437.335,-317.5"/>
</g>
<!-- Node7 -->
<g id="node13" class="node"><title>Node7</title>
<a xlink:href="../../d1/d59/xmpp__stanza_8c.html#afc77f00b7f38c79566a7b16876230e30" target="_top" xlink:title="Removes a child stanza.">
<polygon fill="none" stroke="black" points="399.5,-266.5 399.5,-285.5 560.5,-285.5 560.5,-266.5 399.5,-266.5"/>
<text text-anchor="middle" x="480" y="-273.5" font-family="DejaVuSansMono" font-size="10.00">xmpp_stanza_remove_child</text>
</a>
</g>
<!-- Node6&#45;&gt;Node7 -->
<g id="edge12" class="edge"><title>Node6&#45;&gt;Node7</title>
<path fill="none" stroke="midnightblue" d="M359.508,-276C369.23,-276 379.218,-276 389.079,-276"/>
<polygon fill="midnightblue" stroke="midnightblue" points="389.294,-279.5 399.294,-276 389.293,-272.5 389.294,-279.5"/>
</g>
<!-- Node8&#45;&gt;Node2 -->
<g id="edge22" class="edge"><title>Node8&#45;&gt;Node2</title>
<path fill="none" stroke="midnightblue" d="M306.974,-190.614C330.349,-198.757 365.166,-210.44 396,-219 404.996,-221.497 414.605,-223.919 423.976,-226.15"/>
<polygon fill="midnightblue" stroke="midnightblue" points="423.479,-229.628 434.013,-228.491 425.069,-222.811 423.479,-229.628"/>
</g>
<!-- Node9 -->
<g id="node17" class="node"><title>Node9</title>
<a xlink:href="../../d3/d5a/jid_8c.html#a0151ea37a9f52813a8d48d2b7eec2044" target="_top" xlink:title="Allocate and initialize a new JID from an existing JID string.">
<polygon fill="none" stroke="black" points="423.5,-114.5 423.5,-133.5 536.5,-133.5 536.5,-114.5 423.5,-114.5"/>
<text text-anchor="middle" x="480" y="-121.5" font-family="DejaVuSansMono" font-size="10.00">jid_new_from_str</text>
</a>
</g>
<!-- Node8&#45;&gt;Node9 -->
<g id="edge16" class="edge"><title>Node8&#45;&gt;Node9</title>
<path fill="none" stroke="midnightblue" d="M306.974,-171.386C330.349,-163.243 365.166,-151.56 396,-143 404.996,-140.503 414.605,-138.081 423.976,-135.85"/>
<polygon fill="midnightblue" stroke="midnightblue" points="425.069,-139.189 434.013,-133.509 423.479,-132.372 425.069,-139.189"/>
</g>
<!-- Node11 -->
<g id="node21" class="node"><title>Node11</title>
<a xlink:href="../../d3/d5a/jid_8c.html#ab83fd5aae95de2c9d38fb9d9cd161580" target="_top" xlink:title="Cleans up and frees an existing JID.">
<polygon fill="none" stroke="black" points="600.5,-76.5 600.5,-95.5 659.5,-95.5 659.5,-76.5 600.5,-76.5"/>
<text text-anchor="middle" x="630" y="-83.5" font-family="DejaVuSansMono" font-size="10.00">jid_del</text>
</a>
</g>
<!-- Node8&#45;&gt;Node11 -->
<g id="edge28" class="edge"><title>Node8&#45;&gt;Node11</title>
<path fill="none" stroke="midnightblue" d="M290.528,-171.412C309.793,-154.523 352.733,-119.853 396,-105 461.487,-82.5191 543.165,-81.563 590.373,-83.427"/>
<polygon fill="midnightblue" stroke="midnightblue" points="590.321,-86.9282 600.471,-83.8902 590.642,-79.9355 590.321,-86.9282"/>
</g>
<!-- Node12 -->
<g id="node24" class="node"><title>Node12</title>
<a xlink:href="../../d3/d5a/jid_8c.html#a3d51f2b27d20189e523b0d0b2a77e4a9" target="_top" xlink:title="Converts a JID to a newly allocated string.">
<polygon fill="none" stroke="black" points="441.5,-190.5 441.5,-209.5 518.5,-209.5 518.5,-190.5 441.5,-190.5"/>
<text text-anchor="middle" x="480" y="-197.5" font-family="DejaVuSansMono" font-size="10.00">jid_to_str</text>
</a>
</g>
<!-- Node8&#45;&gt;Node12 -->
<g id="edge24" class="edge"><title>Node8&#45;&gt;Node12</title>
<path fill="none" stroke="midnightblue" d="M359.508,-188.591C383.79,-190.91 409.73,-193.386 431.214,-195.438"/>
<polygon fill="midnightblue" stroke="midnightblue" points="431.089,-198.941 441.376,-196.408 431.754,-191.973 431.089,-198.941"/>
</g>
<!-- Node13 -->
<g id="node26" class="node"><title>Node13</title>
<a xlink:href="../../d3/d5a/jid_8c.html#a5b2f969326a86fa7e585f633d7b0f565" target="_top" xlink:title="Compare two JIDs with wildcard matches.">
<polygon fill="none" stroke="black" points="420.5,-152.5 420.5,-171.5 539.5,-171.5 539.5,-152.5 420.5,-152.5"/>
<text text-anchor="middle" x="480" y="-159.5" font-family="DejaVuSansMono" font-size="10.00">jid_cmp_wildcards</text>
</a>
</g>
<!-- Node8&#45;&gt;Node13 -->
<g id="edge26" class="edge"><title>Node8&#45;&gt;Node13</title>
<path fill="none" stroke="midnightblue" d="M359.508,-173.409C376.363,-171.8 394.016,-170.114 410.423,-168.548"/>
<polygon fill="midnightblue" stroke="midnightblue" points="410.838,-172.024 420.46,-167.589 410.173,-165.056 410.838,-172.024"/>
</g>
<!-- Node10 -->
<g id="node19" class="node"><title>Node10</title>
<a xlink:href="../../d3/d5a/jid_8c.html#abd2028a1e581e6374acaa6beaf6e5413" target="_top" xlink:title="Allocate and initialize a new blank JID.">
<polygon fill="none" stroke="black" points="600.5,-114.5 600.5,-133.5 659.5,-133.5 659.5,-114.5 600.5,-114.5"/>
<text text-anchor="middle" x="630" y="-121.5" font-family="DejaVuSansMono" font-size="10.00">jid_new</text>
</a>
</g>
<!-- Node9&#45;&gt;Node10 -->
<g id="edge18" class="edge"><title>Node9&#45;&gt;Node10</title>
<path fill="none" stroke="midnightblue" d="M536.531,-124C554.294,-124 573.574,-124 589.909,-124"/>
<polygon fill="midnightblue" stroke="midnightblue" points="590.173,-127.5 600.173,-124 590.173,-120.5 590.173,-127.5"/>
</g>
<!-- Node9&#45;&gt;Node11 -->
<g id="edge20" class="edge"><title>Node9&#45;&gt;Node11</title>
<path fill="none" stroke="midnightblue" d="M518.347,-114.411C540.327,-108.767 568.081,-101.641 590.293,-95.9382"/>
<polygon fill="midnightblue" stroke="midnightblue" points="591.253,-99.3053 600.069,-93.4283 589.512,-92.5252 591.253,-99.3053"/>
</g>
<!-- Node14&#45;&gt;Node14 -->
<g id="edge36" class="edge"><title>Node14&#45;&gt;Node14</title>
<path fill="none" stroke="midnightblue" d="M248.482,-57.7571C233.636,-66.5653 243.809,-76 279,-76 303.744,-76 316.119,-71.3356 316.125,-65.5043"/>
<polygon fill="midnightblue" stroke="midnightblue" points="318.67,-63.0944 309.518,-57.7571 313.344,-67.6369 318.67,-63.0944"/>
</g>
<!-- Node15 -->
<g id="node31" class="node"><title>Node15</title>
<a xlink:href="../../d1/d59/xmpp__stanza_8c.html#a2fb472c6bf9b7f540a97ddc6c11adb74" target="_top" xlink:title="attribute_del">
<polygon fill="none" stroke="black" points="432.5,-38.5 432.5,-57.5 527.5,-57.5 527.5,-38.5 432.5,-38.5"/>
<text text-anchor="middle" x="480" y="-45.5" font-family="DejaVuSansMono" font-size="10.00">attribute_del</text>
</a>
</g>
<!-- Node14&#45;&gt;Node15 -->
<g id="edge32" class="edge"><title>Node14&#45;&gt;Node15</title>
<path fill="none" stroke="midnightblue" d="M332.545,-48C360.133,-48 393.97,-48 422.167,-48"/>
<polygon fill="midnightblue" stroke="midnightblue" points="422.278,-51.5001 432.278,-48 422.278,-44.5001 422.278,-51.5001"/>
</g>
<!-- Node16 -->
<g id="node33" class="node"><title>Node16</title>
<a xlink:href="../../d1/dc2/xmpp__parser_8c.html#a87065f39f10a449e7af17fa45ca475f2" target="_top" xlink:title="xmpp_parser_namespace_del">
<polygon fill="none" stroke="black" points="396.5,-0.5 396.5,-19.5 563.5,-19.5 563.5,-0.5 396.5,-0.5"/>
<text text-anchor="middle" x="480" y="-7.5" font-family="DejaVuSansMono" font-size="10.00">xmpp_parser_namespace_del</text>
</a>
</g>
<!-- Node14&#45;&gt;Node16 -->
<g id="edge34" class="edge"><title>Node14&#45;&gt;Node16</title>
<path fill="none" stroke="midnightblue" d="M329.959,-38.46C357.045,-33.2878 390.708,-26.8599 419.183,-21.4222"/>
<polygon fill="midnightblue" stroke="midnightblue" points="419.854,-24.8575 429.02,-19.5439 418.541,-17.9817 419.854,-24.8575"/>
</g>
</g>
</svg>
        <g id="navigator" transform="translate(0 0)" fill="#404254">
                <rect fill="#f2f5e9" fill-opacity="0.5" stroke="#606060" stroke-width=".5" x="0" y="0" width="60" height="60"/>
                <use id="zoomplus" xlink:href="#zoomPlus" x="17" y="9" onmousedown="handleZoom(evt,'in')"/>
                <use id="zoomminus" xlink:href="#zoomMin" x="42" y="9" onmousedown="handleZoom(evt,'out')"/>
                <use id="reset" xlink:href="#resetDef" x="30" y="36" onmousedown="handleReset()"/>
                <g id="arrowUp" xlink:href="#dirArrow" transform="translate(30 24)" onmousedown="handlePan(0,-1)">
                  <use xlink:href="#rim" fill="#404040">
                        <set attributeName="fill" to="#808080" begin="arrowUp.mouseover" end="arrowUp.mouseout"/>
                  </use>
                  <path fill="none" stroke="white" stroke-width="1.5" d="M0,-3.0v7 M-2.5,-0.5L0,-3.0L2.5,-0.5"/>
                </g>
                <g id="arrowRight" xlink:href="#dirArrow" transform="rotate(90) translate(36 -43)" onmousedown="handlePan(1,0)">
                  <use xlink:href="#rim" fill="#404040">
                        <set attributeName="fill" to="#808080" begin="arrowRight.mouseover" end="arrowRight.mouseout"/>
                  </use>
                  <path fill="none" stroke="white" stroke-width="1.5" d="M0,-3.0v7 M-2.5,-0.5L0,-3.0L2.5,-0.5"/>
                </g>
                <g id="arrowDown" xlink:href="#dirArrow" transform="rotate(180) translate(-30 -48)" onmousedown="handlePan(0,1)">
                  <use xlink:href="#rim" fill="#404040">
                        <set attributeName="fill" to="#808080" begin="arrowDown.mouseover" end="arrowDown.mouseout"/>
                  </use>
                  <path fill="none" stroke="white" stroke-width="1.5" d="M0,-3.0v7 M-2.5,-0.5L0,-3.0L2.5,-0.5"/>
                </g>
                <g id="arrowLeft" xlink:href="#dirArrow" transform="rotate(270) translate(-36 17)" onmousedown="handlePan(-1,0)">
                  <use xlink:href="#rim" fill="#404040">
                        <set attributeName="fill" to="#808080" begin="arrowLeft.mouseover" end="arrowLeft.mouseout"/>
                  </use>
                  <path fill="none" stroke="white" stroke-width="1.5" d="M0,-3.0v7 M-2.5,-0.5L0,-3.0L2.5,-0.5"/>
                </g>
        </g>
        <svg viewBox="0 0 25 25" width="100%" height="30px" preserveAspectRatio="xMaxYMin meet"> 
          <g id="printButton" transform="scale(0.4 0.4)" onmousedown="handlePrint(evt)">
            <rect height="23.33753581" id="paper" rx="2" style="fill:#f2f5e9;fill-rule:evenodd;stroke:#111111;stroke-width:3.224;stroke-linejoin:round;" transform="matrix(1.000000,0.000000,-0.339266,0.940691,0.000000,0.000000)" width="25.55231285" x="26.69387353" y="7.36162977"/>
            <rect height="26.272097" id="body" rx="2" style="fill:#404040;fill-rule:evenodd;stroke:#111111;stroke-width:3.125;stroke-linejoin:round;" width="50" x="4.5295201" y="27.078951"/>
            <rect height="8.27750969" id="tray" style="fill:#d2d5c9;fill-rule:evenodd;stroke:#111111;stroke-width:3.125;stroke-linecap:round;stroke-linejoin:round;" width="40" x="10.28778839" y="44.96812282"/>
          </g>
        </svg>
</svg>
