<?xml version="1.0" encoding="UTF-8" standalone="no"?>
<!DOCTYPE svg PUBLIC "-//W3C//DTD SVG 1.1//EN"
 "http://www.w3.org/Graphics/SVG/1.1/DTD/svg11.dtd">
<!-- Generated by graphviz version 2.28.0 (20120217.0315)
 -->
<!-- Title: G Pages: 1 -->
<svg width="296pt" height="66pt"
 viewBox="0.00 0.00 296.00 66.00" xmlns="http://www.w3.org/2000/svg" xmlns:xlink="http://www.w3.org/1999/xlink">
<g id="graph1" class="graph" transform="scale(1 1) rotate(0) translate(4 62)">
<title>G</title>
<!-- Node1 -->
<g id="node1" class="node"><title>Node1</title>
<polygon fill="#bfbfbf" stroke="black" points="0.5,-19.5 0.5,-38.5 65.5,-38.5 65.5,-19.5 0.5,-19.5"/>
<text text-anchor="middle" x="33" y="-26.5" font-family="DejaVuSansMono" font-size="10.00">init_ssl</text>
</g>
<!-- Node2 -->
<g id="node3" class="node"><title>Node2</title>
<a xlink:href="../../dd/d68/xmp3__options_8c.html#aba7e661d04ed9e50b5a430da6deda7fb" target="_top" xlink:title="Get the path to the OpenSSL certificate file.">
<polygon fill="none" stroke="black" points="102.5,-38.5 102.5,-57.5 287.5,-57.5 287.5,-38.5 102.5,-38.5"/>
<text text-anchor="middle" x="195" y="-45.5" font-family="DejaVuSansMono" font-size="10.00">xmp3_options_get_certificate</text>
</a>
</g>
<!-- Node1&#45;&gt;Node2 -->
<g id="edge2" class="edge"><title>Node1&#45;&gt;Node2</title>
<path fill="none" stroke="midnightblue" d="M65.6109,-32.7538C76.8234,-34.0853 90.0673,-35.658 103.717,-37.2789"/>
<polygon fill="midnightblue" stroke="midnightblue" points="103.362,-40.7613 113.705,-38.465 104.188,-33.8101 103.362,-40.7613"/>
</g>
<!-- Node3 -->
<g id="node5" class="node"><title>Node3</title>
<a xlink:href="../../dd/d68/xmp3__options_8c.html#a22885dc299b1e8dac7924df8ca67437e" target="_top" xlink:title="Return the path to the OpenSSL private key file.">
<polygon fill="none" stroke="black" points="114.5,-0.5 114.5,-19.5 275.5,-19.5 275.5,-0.5 114.5,-0.5"/>
<text text-anchor="middle" x="195" y="-7.5" font-family="DejaVuSansMono" font-size="10.00">xmp3_options_get_keyfile</text>
</a>
</g>
<!-- Node1&#45;&gt;Node3 -->
<g id="edge4" class="edge"><title>Node1&#45;&gt;Node3</title>
<path fill="none" stroke="midnightblue" d="M65.6109,-25.2462C76.97,-23.8973 90.4139,-22.3008 104.253,-20.6575"/>
<polygon fill="midnightblue" stroke="midnightblue" points="104.858,-24.1103 114.375,-19.4554 104.032,-17.1591 104.858,-24.1103"/>
</g>
</g>
</svg>
