<?xml version="1.0" encoding="UTF-8" standalone="no"?>
<!DOCTYPE svg PUBLIC "-//W3C//DTD SVG 1.1//EN"
 "http://www.w3.org/Graphics/SVG/1.1/DTD/svg11.dtd">
<!-- Generated by graphviz version 2.28.0 (20120217.0315)
 -->
<!-- Title: G Pages: 1 -->
<!--zoomable 208 -->
<svg id="main" version="1.1" xmlns="http://www.w3.org/2000/svg" xmlns:xlink="http://www.w3.org/1999/xlink" xml:space="preserve" onload="init(evt)">
        <defs>
                <circle id="rim" cx="0" cy="0" r="7"/>
                <circle id="rim2" cx="0" cy="0" r="3.5"/>
                <g id="zoomPlus">
                        <use xlink:href="#rim" fill="#404040">
                                <set attributeName="fill" to="#808080" begin="zoomplus.mouseover" end="zoomplus.mouseout"/>
                        </use>
                        <path d="M-4,0h8M0,-4v8" fill="none" stroke="white" stroke-width="1.5" pointer-events="none"/>
                </g>
                <g id="zoomMin">
                        <use xlink:href="#rim" fill="#404040">
                                <set attributeName="fill" to="#808080" begin="zoomminus.mouseover" end="zoomminus.mouseout"/>
                        </use>
                        <path d="M-4,0h8" fill="none" stroke="white" stroke-width="1.5" pointer-events="none"/>
                </g>
                <g id="dirArrow">
                        <path fill="none" stroke="white" stroke-width="1.5" d="M0,-3.0v7 M-2.5,-0.5L0,-3.0L2.5,-0.5"/>
                </g>
               <g id="resetDef">
                       <use xlink:href="#rim2" fill="#404040">
                               <set attributeName="fill" to="#808080" begin="reset.mouseover" end="reset.mouseout"/>
                       </use>
               </g>
        </defs>

<script type="text/javascript">
var viewWidth = 1874;
var viewHeight = 208;
var sectionId = 'dynsection-39';
</script>
<script xlink:href="../../svgpan.js"/>
<svg id="graph" class="graph">
<g id="viewport">
<title>G</title>
<!-- Node1 -->
<g id="node1" class="node"><title>Node1</title>
<polygon fill="#bfbfbf" stroke="black" points="0.5,-152.5 0.5,-171.5 191.5,-171.5 191.5,-152.5 0.5,-152.5"/>
<text text-anchor="middle" x="96" y="-159.5" font-family="DejaVuSansMono" font-size="10.00">xmpp_server_disconnect_client</text>
</g>
<!-- Node2 -->
<g id="node3" class="node"><title>Node2</title>
<a xlink:href="../../d8/d28/xmpp__core_8h.html#a3b41e83061abd7ed5b258c7aa7dda0d6" target="_top" xlink:title="An xmpp_server stanza route for stanzas directed to a local client.">
<polygon fill="none" stroke="black" points="228.5,-95.5 228.5,-114.5 377.5,-114.5 377.5,-95.5 228.5,-95.5"/>
<text text-anchor="middle" x="303" y="-102.5" font-family="DejaVuSansMono" font-size="10.00">xmpp_core_route_client</text>
</a>
</g>
<!-- Node1&#45;&gt;Node2 -->
<g id="edge2" class="edge"><title>Node1&#45;&gt;Node2</title>
<path fill="none" stroke="midnightblue" d="M141.058,-149.75C178.933,-139.219 232.797,-124.242 267.576,-114.572"/>
<polygon fill="midnightblue" stroke="midnightblue" points="140.009,-146.408 131.312,-152.459 141.885,-153.153 140.009,-146.408"/>
</g>
<!-- Node16 -->
<g id="node36" class="node"><title>Node16</title>
<a xlink:href="../../d0/df0/xmpp__server_8c.html#abece91815ef240322d79073f5bfca1db" target="_top" xlink:title="Callback for new data from a client.">
<polygon fill="none" stroke="black" points="1404.5,-95.5 1404.5,-114.5 1487.5,-114.5 1487.5,-95.5 1404.5,-95.5"/>
<text text-anchor="middle" x="1446" y="-102.5" font-family="DejaVuSansMono" font-size="10.00">read_client</text>
</a>
</g>
<!-- Node1&#45;&gt;Node16 -->
<g id="edge46" class="edge"><title>Node1&#45;&gt;Node16</title>
<path fill="none" stroke="midnightblue" d="M163.738,-173.091C237.121,-184.307 358.62,-200 464,-200 464,-200 464,-200 1075,-200 1201.03,-200 1237.7,-205.453 1356,-162 1386.66,-150.739 1417.71,-127.58 1433.79,-114.514"/>
<polygon fill="midnightblue" stroke="midnightblue" points="164.127,-169.609 153.709,-171.54 163.057,-176.527 164.127,-169.609"/>
</g>
<!-- Node3 -->
<g id="node5" class="node"><title>Node3</title>
<a xlink:href="../../df/da9/xmpp__auth_8c.html#a603b4a63af3c4e4af99442805fe89ae8" target="_top" xlink:title="Step 15: Client binds a resource.">
<polygon fill="none" stroke="black" points="414.5,-114.5 414.5,-133.5 515.5,-133.5 515.5,-114.5 414.5,-114.5"/>
<text text-anchor="middle" x="465" y="-121.5" font-family="DejaVuSansMono" font-size="10.00">handle_bind_iq</text>
</a>
</g>
<!-- Node2&#45;&gt;Node3 -->
<g id="edge4" class="edge"><title>Node2&#45;&gt;Node3</title>
<path fill="none" stroke="midnightblue" d="M388.006,-114.976C396.943,-116.037 405.813,-117.09 414.168,-118.082"/>
<polygon fill="midnightblue" stroke="midnightblue" points="388.254,-111.481 377.911,-113.777 387.429,-118.432 388.254,-111.481"/>
</g>
<!-- Node13 -->
<g id="node26" class="node"><title>Node13</title>
<a xlink:href="../../d4/d2f/xmpp__client_8h.html#add2df61245a543667b6d98e3fcd57077" target="_top" xlink:title="xmpp_client_del">
<polygon fill="none" stroke="black" points="1020.5,-38.5 1020.5,-57.5 1127.5,-57.5 1127.5,-38.5 1020.5,-38.5"/>
<text text-anchor="middle" x="1074" y="-45.5" font-family="DejaVuSansMono" font-size="10.00">xmpp_client_del</text>
</a>
</g>
<!-- Node2&#45;&gt;Node13 -->
<g id="edge26" class="edge"><title>Node2&#45;&gt;Node13</title>
<path fill="none" stroke="midnightblue" d="M340.814,-92.2427C361.992,-85.3375 389.235,-77.1839 414,-72 500.332,-53.9288 522.797,-48 611,-48 611,-48 611,-48 769,-48 857.139,-48 959.652,-48 1020.28,-48"/>
<polygon fill="midnightblue" stroke="midnightblue" points="339.634,-88.9462 331.242,-95.4127 341.835,-95.5913 339.634,-88.9462"/>
</g>
<!-- Node4 -->
<g id="node7" class="node"><title>Node4</title>
<a xlink:href="../../df/da9/xmpp__auth_8c.html#a01804bd53eccc182ce76337fc0863e8d" target="_top" xlink:title="stream_bind_start">
<polygon fill="none" stroke="black" points="552.5,-114.5 552.5,-133.5 671.5,-133.5 671.5,-114.5 552.5,-114.5"/>
<text text-anchor="middle" x="612" y="-121.5" font-family="DejaVuSansMono" font-size="10.00">stream_bind_start</text>
</a>
</g>
<!-- Node3&#45;&gt;Node4 -->
<g id="edge6" class="edge"><title>Node3&#45;&gt;Node4</title>
<path fill="none" stroke="midnightblue" d="M525.961,-124C534.655,-124 543.597,-124 552.266,-124"/>
<polygon fill="midnightblue" stroke="midnightblue" points="525.901,-120.5 515.901,-124 525.901,-127.5 525.901,-120.5"/>
</g>
<!-- Node5 -->
<g id="node9" class="node"><title>Node5</title>
<a xlink:href="../../df/da9/xmpp__auth_8c.html#afb770a216868aa3fb43813b19d2a0115" target="_top" xlink:title="Begins SASL PLAIN authentication.">
<polygon fill="none" stroke="black" points="708.5,-114.5 708.5,-133.5 827.5,-133.5 827.5,-114.5 708.5,-114.5"/>
<text text-anchor="middle" x="768" y="-121.5" font-family="DejaVuSansMono" font-size="10.00">handle_sasl_plain</text>
</a>
</g>
<!-- Node4&#45;&gt;Node5 -->
<g id="edge8" class="edge"><title>Node4&#45;&gt;Node5</title>
<path fill="none" stroke="midnightblue" d="M681.894,-124C690.691,-124 699.631,-124 708.248,-124"/>
<polygon fill="midnightblue" stroke="midnightblue" points="681.66,-120.5 671.66,-124 681.66,-127.5 681.66,-120.5"/>
</g>
<!-- Node6 -->
<g id="node11" class="node"><title>Node6</title>
<a xlink:href="../../d3/d24/xmpp__auth_8h.html#ad3efd9ab093646bdfd8832c34ae2de4d" target="_top" xlink:title="Handler for the inital stream start to begin authentication.">
<polygon fill="none" stroke="black" points="1185.5,-133.5 1185.5,-152.5 1334.5,-152.5 1334.5,-133.5 1185.5,-133.5"/>
<text text-anchor="middle" x="1260" y="-140.5" font-family="DejaVuSansMono" font-size="10.00">xmpp_auth_stream_start</text>
</a>
</g>
<!-- Node5&#45;&gt;Node6 -->
<g id="edge10" class="edge"><title>Node5&#45;&gt;Node6</title>
<path fill="none" stroke="midnightblue" d="M837.621,-126.661C929.253,-130.214 1090.93,-136.483 1185.14,-140.136"/>
<polygon fill="midnightblue" stroke="midnightblue" points="837.747,-123.163 827.619,-126.273 837.476,-130.158 837.747,-123.163"/>
</g>
<!-- Node11 -->
<g id="node21" class="node"><title>Node11</title>
<a xlink:href="../../df/da9/xmpp__auth_8c.html#afd7b12689591d40109a88ad108b5c3a2" target="_top" xlink:title="stream_sasl_start">
<polygon fill="none" stroke="black" points="864.5,-152.5 864.5,-171.5 983.5,-171.5 983.5,-152.5 864.5,-152.5"/>
<text text-anchor="middle" x="924" y="-159.5" font-family="DejaVuSansMono" font-size="10.00">stream_sasl_start</text>
</a>
</g>
<!-- Node5&#45;&gt;Node11 -->
<g id="edge20" class="edge"><title>Node5&#45;&gt;Node11</title>
<path fill="none" stroke="midnightblue" d="M817.794,-136.04C839.308,-141.349 864.232,-147.499 884.419,-152.48"/>
<polygon fill="midnightblue" stroke="midnightblue" points="818.408,-132.587 807.861,-133.589 816.731,-139.383 818.408,-132.587"/>
</g>
<!-- Node7 -->
<g id="node13" class="node"><title>Node7</title>
<a xlink:href="../../d4/d2f/xmpp__client_8h.html#a1619c0b8f58b2cf09a322bf34fbc3414" target="_top" xlink:title="xmpp_client_new">
<polygon fill="none" stroke="black" points="1392.5,-57.5 1392.5,-76.5 1499.5,-76.5 1499.5,-57.5 1392.5,-57.5"/>
<text text-anchor="middle" x="1446" y="-64.5" font-family="DejaVuSansMono" font-size="10.00">xmpp_client_new</text>
</a>
</g>
<!-- Node6&#45;&gt;Node7 -->
<g id="edge12" class="edge"><title>Node6&#45;&gt;Node7</title>
<path fill="none" stroke="midnightblue" d="M1342.79,-130.148C1347.37,-128.357 1351.8,-126.319 1356,-124 1376.36,-112.746 1372.52,-98.7167 1392,-86 1397.73,-82.2599 1404.29,-79.1445 1410.79,-76.5919"/>
<polygon fill="midnightblue" stroke="midnightblue" points="1341.52,-126.883 1333.24,-133.488 1343.83,-133.491 1341.52,-126.883"/>
</g>
<!-- Node8 -->
<g id="node15" class="node"><title>Node8</title>
<a xlink:href="../../d0/df0/xmpp__server_8c.html#a66363912ef1221a2574f9f99805fe8fd" target="_top" xlink:title="Callback for new client connections.">
<polygon fill="none" stroke="black" points="1539.5,-38.5 1539.5,-57.5 1640.5,-57.5 1640.5,-38.5 1539.5,-38.5"/>
<text text-anchor="middle" x="1590" y="-45.5" font-family="DejaVuSansMono" font-size="10.00">connect_client</text>
</a>
</g>
<!-- Node7&#45;&gt;Node8 -->
<g id="edge14" class="edge"><title>Node7&#45;&gt;Node8</title>
<path fill="none" stroke="midnightblue" d="M1510.02,-58.5682C1519.85,-57.2523 1529.89,-55.9088 1539.37,-54.6403"/>
<polygon fill="midnightblue" stroke="midnightblue" points="1509.32,-55.1297 1499.88,-59.9251 1510.25,-62.0679 1509.32,-55.1297"/>
</g>
<!-- Node9 -->
<g id="node17" class="node"><title>Node9</title>
<a xlink:href="../../d1/d2e/xmpp__server_8h.html#a27bfc8e4d424a8bc17ab21a4a09cdf92" target="_top" xlink:title="Allocates and initializes the XMPP server.">
<polygon fill="none" stroke="black" points="1680.5,-38.5 1680.5,-57.5 1787.5,-57.5 1787.5,-38.5 1680.5,-38.5"/>
<text text-anchor="middle" x="1734" y="-45.5" font-family="DejaVuSansMono" font-size="10.00">xmpp_server_new</text>
</a>
</g>
<!-- Node8&#45;&gt;Node9 -->
<g id="edge16" class="edge"><title>Node8&#45;&gt;Node9</title>
<path fill="none" stroke="midnightblue" d="M1650.73,-48C1660.53,-48 1670.62,-48 1680.23,-48"/>
<polygon fill="midnightblue" stroke="midnightblue" points="1650.66,-44.5001 1640.66,-48 1650.66,-51.5001 1650.66,-44.5001"/>
</g>
<!-- Node10 -->
<g id="node19" class="node"><title>Node10</title>
<a xlink:href="../../d0/d29/main_8c.html#a0ddf1224851353fc92bfbff6f499fa97" target="_top" xlink:title="main">
<polygon fill="none" stroke="black" points="1824.5,-19.5 1824.5,-38.5 1865.5,-38.5 1865.5,-19.5 1824.5,-19.5"/>
<text text-anchor="middle" x="1845" y="-26.5" font-family="DejaVuSansMono" font-size="10.00">main</text>
</a>
</g>
<!-- Node9&#45;&gt;Node10 -->
<g id="edge18" class="edge"><title>Node9&#45;&gt;Node10</title>
<path fill="none" stroke="midnightblue" d="M1797.45,-37.1151C1807.24,-35.4082 1816.68,-33.7622 1824.47,-32.404"/>
<polygon fill="midnightblue" stroke="midnightblue" points="1796.83,-33.6686 1787.58,-38.8339 1798.04,-40.5646 1796.83,-33.6686"/>
</g>
<!-- Node12 -->
<g id="node23" class="node"><title>Node12</title>
<a xlink:href="../../df/da9/xmpp__auth_8c.html#a8dd789e057b9812e4dd1aa524dfb6a65" target="_top" xlink:title="Begins TLS authentication.">
<polygon fill="none" stroke="black" points="1020.5,-152.5 1020.5,-171.5 1127.5,-171.5 1127.5,-152.5 1020.5,-152.5"/>
<text text-anchor="middle" x="1074" y="-159.5" font-family="DejaVuSansMono" font-size="10.00">handle_starttls</text>
</a>
</g>
<!-- Node11&#45;&gt;Node12 -->
<g id="edge22" class="edge"><title>Node11&#45;&gt;Node12</title>
<path fill="none" stroke="midnightblue" d="M994.085,-162C1002.81,-162 1011.62,-162 1020.04,-162"/>
<polygon fill="midnightblue" stroke="midnightblue" points="993.919,-158.5 983.919,-162 993.919,-165.5 993.919,-158.5"/>
</g>
<!-- Node12&#45;&gt;Node6 -->
<g id="edge24" class="edge"><title>Node12&#45;&gt;Node6</title>
<path fill="none" stroke="midnightblue" d="M1138.06,-155.489C1153.29,-153.916 1169.69,-152.222 1185.36,-150.605"/>
<polygon fill="midnightblue" stroke="midnightblue" points="1137.31,-152.047 1127.73,-156.555 1138.03,-159.01 1137.31,-152.047"/>
</g>
<!-- Node13&#45;&gt;Node7 -->
<g id="edge28" class="edge"><title>Node13&#45;&gt;Node7</title>
<path fill="none" stroke="midnightblue" d="M1137.85,-51.2275C1209.45,-54.9041 1325.17,-60.8468 1392.26,-64.2919"/>
<polygon fill="midnightblue" stroke="midnightblue" points="1137.79,-47.7196 1127.62,-50.7021 1137.43,-54.7104 1137.79,-47.7196"/>
</g>
<!-- Node13&#45;&gt;Node8 -->
<g id="edge44" class="edge"><title>Node13&#45;&gt;Node8</title>
<path fill="none" stroke="midnightblue" d="M1137.88,-48C1241.25,-48 1444.99,-48 1539.14,-48"/>
<polygon fill="midnightblue" stroke="midnightblue" points="1137.59,-44.5001 1127.59,-48 1137.59,-51.5001 1137.59,-44.5001"/>
</g>
<!-- Node14 -->
<g id="node29" class="node"><title>Node14</title>
<a xlink:href="../../d1/d2e/xmpp__server_8h.html#af7d75415fd5671841797bf77bbc1a981" target="_top" xlink:title="Cleans up an XMPP server instance.">
<polygon fill="none" stroke="black" points="1536.5,-0.5 1536.5,-19.5 1643.5,-19.5 1643.5,-0.5 1536.5,-0.5"/>
<text text-anchor="middle" x="1590" y="-7.5" font-family="DejaVuSansMono" font-size="10.00">xmpp_server_del</text>
</a>
</g>
<!-- Node13&#45;&gt;Node14 -->
<g id="edge30" class="edge"><title>Node13&#45;&gt;Node14</title>
<path fill="none" stroke="midnightblue" d="M1137.78,-43.3585C1240.16,-35.7898 1441.18,-20.9285 1536.48,-13.8826"/>
<polygon fill="midnightblue" stroke="midnightblue" points="1137.31,-39.8841 1127.59,-44.1119 1137.82,-46.865 1137.31,-39.8841"/>
</g>
<!-- Node15 -->
<g id="node33" class="node"><title>Node15</title>
<a xlink:href="../../d1/d2e/xmpp__server_8h.html#a79e02871228c509de0c70961d74a1bcb" target="_top" xlink:title="Attempt to cleanly disconnect a client, and clean up its resources.">
<polygon fill="none" stroke="black" points="1164.5,-95.5 1164.5,-114.5 1355.5,-114.5 1355.5,-95.5 1164.5,-95.5"/>
<text text-anchor="middle" x="1260" y="-102.5" font-family="DejaVuSansMono" font-size="10.00">xmpp_server_disconnect_client</text>
</a>
</g>
<!-- Node13&#45;&gt;Node15 -->
<g id="edge36" class="edge"><title>Node13&#45;&gt;Node15</title>
<path fill="none" stroke="midnightblue" d="M1108.34,-61.3313C1124.92,-67.7145 1145.36,-75.2093 1164,-81 1181.22,-86.3505 1200.47,-91.3849 1217.11,-95.4476"/>
<polygon fill="midnightblue" stroke="midnightblue" points="1109.15,-57.8908 1098.56,-57.5256 1106.61,-64.4142 1109.15,-57.8908"/>
</g>
<!-- Node14&#45;&gt;Node9 -->
<g id="edge34" class="edge"><title>Node14&#45;&gt;Node9</title>
<path fill="none" stroke="midnightblue" d="M1636.49,-22.1742C1656.13,-27.4287 1678.77,-33.4866 1697.18,-38.4141"/>
<polygon fill="midnightblue" stroke="midnightblue" points="1637.4,-18.7931 1626.83,-19.589 1635.59,-25.5552 1637.4,-18.7931"/>
</g>
<!-- Node14&#45;&gt;Node10 -->
<g id="edge32" class="edge"><title>Node14&#45;&gt;Node10</title>
<path fill="none" stroke="midnightblue" d="M1653.9,-14.7236C1709.84,-18.9246 1788.21,-24.81 1824.34,-27.5233"/>
<polygon fill="midnightblue" stroke="midnightblue" points="1653.96,-11.2187 1643.73,-13.9599 1653.44,-18.199 1653.96,-11.2187"/>
</g>
<!-- Node15&#45;&gt;Node2 -->
<g id="edge38" class="edge"><title>Node15&#45;&gt;Node2</title>
<path fill="none" stroke="midnightblue" d="M1154.05,-95.965C1088.3,-91.0652 1001.77,-86 925,-86 611,-86 611,-86 611,-86 531.166,-86 439.877,-92.4797 377.739,-97.871"/>
<polygon fill="midnightblue" stroke="midnightblue" points="1154.19,-99.4851 1164.42,-96.7492 1154.72,-92.505 1154.19,-99.4851"/>
</g>
<!-- Node15&#45;&gt;Node16 -->
<g id="edge40" class="edge"><title>Node15&#45;&gt;Node16</title>
<path fill="none" stroke="midnightblue" d="M1366.07,-105C1379.56,-105 1392.68,-105 1404.21,-105"/>
<polygon fill="midnightblue" stroke="midnightblue" points="1365.7,-101.5 1355.69,-105 1365.69,-108.5 1365.7,-101.5"/>
</g>
<!-- Node16&#45;&gt;Node8 -->
<g id="edge42" class="edge"><title>Node16&#45;&gt;Node8</title>
<path fill="none" stroke="midnightblue" d="M1484.1,-92.0166C1489.45,-90.0511 1494.88,-88.0081 1500,-86 1523.3,-76.8572 1549.63,-65.4843 1567.57,-57.5745"/>
<polygon fill="midnightblue" stroke="midnightblue" points="1482.84,-88.7519 1474.62,-95.4468 1485.22,-95.3339 1482.84,-88.7519"/>
</g>
</g>
</svg>
        <g id="navigator" transform="translate(0 0)" fill="#404254">
                <rect fill="#f2f5e9" fill-opacity="0.5" stroke="#606060" stroke-width=".5" x="0" y="0" width="60" height="60"/>
                <use id="zoomplus" xlink:href="#zoomPlus" x="17" y="9" onmousedown="handleZoom(evt,'in')"/>
                <use id="zoomminus" xlink:href="#zoomMin" x="42" y="9" onmousedown="handleZoom(evt,'out')"/>
                <use id="reset" xlink:href="#resetDef" x="30" y="36" onmousedown="handleReset()"/>
                <g id="arrowUp" xlink:href="#dirArrow" transform="translate(30 24)" onmousedown="handlePan(0,-1)">
                  <use xlink:href="#rim" fill="#404040">
                        <set attributeName="fill" to="#808080" begin="arrowUp.mouseover" end="arrowUp.mouseout"/>
                  </use>
                  <path fill="none" stroke="white" stroke-width="1.5" d="M0,-3.0v7 M-2.5,-0.5L0,-3.0L2.5,-0.5"/>
                </g>
                <g id="arrowRight" xlink:href="#dirArrow" transform="rotate(90) translate(36 -43)" onmousedown="handlePan(1,0)">
                  <use xlink:href="#rim" fill="#404040">
                        <set attributeName="fill" to="#808080" begin="arrowRight.mouseover" end="arrowRight.mouseout"/>
                  </use>
                  <path fill="none" stroke="white" stroke-width="1.5" d="M0,-3.0v7 M-2.5,-0.5L0,-3.0L2.5,-0.5"/>
                </g>
                <g id="arrowDown" xlink:href="#dirArrow" transform="rotate(180) translate(-30 -48)" onmousedown="handlePan(0,1)">
                  <use xlink:href="#rim" fill="#404040">
                        <set attributeName="fill" to="#808080" begin="arrowDown.mouseover" end="arrowDown.mouseout"/>
                  </use>
                  <path fill="none" stroke="white" stroke-width="1.5" d="M0,-3.0v7 M-2.5,-0.5L0,-3.0L2.5,-0.5"/>
                </g>
                <g id="arrowLeft" xlink:href="#dirArrow" transform="rotate(270) translate(-36 17)" onmousedown="handlePan(-1,0)">
                  <use xlink:href="#rim" fill="#404040">
                        <set attributeName="fill" to="#808080" begin="arrowLeft.mouseover" end="arrowLeft.mouseout"/>
                  </use>
                  <path fill="none" stroke="white" stroke-width="1.5" d="M0,-3.0v7 M-2.5,-0.5L0,-3.0L2.5,-0.5"/>
                </g>
        </g>
        <svg viewBox="0 0 25 25" width="100%" height="30px" preserveAspectRatio="xMaxYMin meet"> 
          <g id="printButton" transform="scale(0.4 0.4)" onmousedown="handlePrint(evt)">
            <rect height="23.33753581" id="paper" rx="2" style="fill:#f2f5e9;fill-rule:evenodd;stroke:#111111;stroke-width:3.224;stroke-linejoin:round;" transform="matrix(1.000000,0.000000,-0.339266,0.940691,0.000000,0.000000)" width="25.55231285" x="26.69387353" y="7.36162977"/>
            <rect height="26.272097" id="body" rx="2" style="fill:#404040;fill-rule:evenodd;stroke:#111111;stroke-width:3.125;stroke-linejoin:round;" width="50" x="4.5295201" y="27.078951"/>
            <rect height="8.27750969" id="tray" style="fill:#d2d5c9;fill-rule:evenodd;stroke:#111111;stroke-width:3.125;stroke-linecap:round;stroke-linejoin:round;" width="40" x="10.28778839" y="44.96812282"/>
          </g>
        </svg>
</svg>
