<?xml version="1.0" encoding="UTF-8" standalone="no"?>
<!DOCTYPE svg PUBLIC "-//W3C//DTD SVG 1.1//EN"
 "http://www.w3.org/Graphics/SVG/1.1/DTD/svg11.dtd">
<!-- Generated by graphviz version 2.28.0 (20120217.0315)
 -->
<!-- Title: G Pages: 1 -->
<!--zoomable 256 -->
<svg id="main" version="1.1" xmlns="http://www.w3.org/2000/svg" xmlns:xlink="http://www.w3.org/1999/xlink" xml:space="preserve" onload="init(evt)">
        <defs>
                <circle id="rim" cx="0" cy="0" r="7"/>
                <circle id="rim2" cx="0" cy="0" r="3.5"/>
                <g id="zoomPlus">
                        <use xlink:href="#rim" fill="#404040">
                                <set attributeName="fill" to="#808080" begin="zoomplus.mouseover" end="zoomplus.mouseout"/>
                        </use>
                        <path d="M-4,0h8M0,-4v8" fill="none" stroke="white" stroke-width="1.5" pointer-events="none"/>
                </g>
                <g id="zoomMin">
                        <use xlink:href="#rim" fill="#404040">
                                <set attributeName="fill" to="#808080" begin="zoomminus.mouseover" end="zoomminus.mouseout"/>
                        </use>
                        <path d="M-4,0h8" fill="none" stroke="white" stroke-width="1.5" pointer-events="none"/>
                </g>
                <g id="dirArrow">
                        <path fill="none" stroke="white" stroke-width="1.5" d="M0,-3.0v7 M-2.5,-0.5L0,-3.0L2.5,-0.5"/>
                </g>
               <g id="resetDef">
                       <use xlink:href="#rim2" fill="#404040">
                               <set attributeName="fill" to="#808080" begin="reset.mouseover" end="reset.mouseout"/>
                       </use>
               </g>
        </defs>

<script type="text/javascript">
var viewWidth = 542;
var viewHeight = 256;
var sectionId = 'dynsection-22';
</script>
<script xlink:href="../../svgpan.js"/>
<svg id="graph" class="graph">
<g id="viewport">
<title>G</title>
<!-- Node1 -->
<g id="node1" class="node"><title>Node1</title>
<polygon fill="#bfbfbf" stroke="black" points="0.5,-114.5 0.5,-133.5 113.5,-133.5 113.5,-114.5 0.5,-114.5"/>
<text text-anchor="middle" x="57" y="-121.5" font-family="DejaVuSansMono" font-size="10.00">stanza_route_new</text>
</g>
<!-- Node2 -->
<g id="node3" class="node"><title>Node2</title>
<a xlink:href="../../d3/d5a/jid_8c.html#a6da80c5b44d3c4ef896850a5d1d790b0" target="_top" xlink:title="Allocate and initialize a new JID from an existing JID structure.">
<polygon fill="none" stroke="black" points="150.5,-114.5 150.5,-133.5 263.5,-133.5 263.5,-114.5 150.5,-114.5"/>
<text text-anchor="middle" x="207" y="-121.5" font-family="DejaVuSansMono" font-size="10.00">jid_new_from_jid</text>
</a>
</g>
<!-- Node1&#45;&gt;Node2 -->
<g id="edge2" class="edge"><title>Node1&#45;&gt;Node2</title>
<path fill="none" stroke="midnightblue" d="M113.531,-124C122.138,-124 131.101,-124 139.913,-124"/>
<polygon fill="midnightblue" stroke="midnightblue" points="140.158,-127.5 150.158,-124 140.158,-120.5 140.158,-127.5"/>
</g>
<!-- Node3 -->
<g id="node5" class="node"><title>Node3</title>
<a xlink:href="../../d3/d5a/jid_8c.html#abd2028a1e581e6374acaa6beaf6e5413" target="_top" xlink:title="Allocate and initialize a new blank JID.">
<polygon fill="none" stroke="black" points="327.5,-228.5 327.5,-247.5 386.5,-247.5 386.5,-228.5 327.5,-228.5"/>
<text text-anchor="middle" x="357" y="-235.5" font-family="DejaVuSansMono" font-size="10.00">jid_new</text>
</a>
</g>
<!-- Node2&#45;&gt;Node3 -->
<g id="edge4" class="edge"><title>Node2&#45;&gt;Node3</title>
<path fill="none" stroke="midnightblue" d="M214.738,-133.533C228.592,-152.469 262.17,-195.057 300,-219 305.465,-222.459 311.632,-225.366 317.824,-227.784"/>
<polygon fill="midnightblue" stroke="midnightblue" points="316.883,-231.163 327.478,-231.189 319.212,-224.562 316.883,-231.163"/>
</g>
<!-- Node4 -->
<g id="node7" class="node"><title>Node4</title>
<a xlink:href="../../d3/d5a/jid_8c.html#a1a93fd4eaa48c375952cb6f9c9127907" target="_top" xlink:title="Sets the localpart of a JID.">
<polygon fill="none" stroke="black" points="309.5,-190.5 309.5,-209.5 404.5,-209.5 404.5,-190.5 309.5,-190.5"/>
<text text-anchor="middle" x="357" y="-197.5" font-family="DejaVuSansMono" font-size="10.00">jid_set_local</text>
</a>
</g>
<!-- Node2&#45;&gt;Node4 -->
<g id="edge6" class="edge"><title>Node2&#45;&gt;Node4</title>
<path fill="none" stroke="midnightblue" d="M221.17,-133.504C238.557,-145.73 270.433,-167.048 300,-181 304.583,-183.163 309.48,-185.197 314.401,-187.074"/>
<polygon fill="midnightblue" stroke="midnightblue" points="313.22,-190.369 323.814,-190.478 315.601,-183.786 313.22,-190.369"/>
</g>
<!-- Node6 -->
<g id="node11" class="node"><title>Node6</title>
<a xlink:href="../../d3/d5a/jid_8c.html#ac1dcf40e9090a5a9717b685b6b055feb" target="_top" xlink:title="Returns the localpart of a JID.">
<polygon fill="none" stroke="black" points="321.5,-152.5 321.5,-171.5 392.5,-171.5 392.5,-152.5 321.5,-152.5"/>
<text text-anchor="middle" x="357" y="-159.5" font-family="DejaVuSansMono" font-size="10.00">jid_local</text>
</a>
</g>
<!-- Node2&#45;&gt;Node6 -->
<g id="edge10" class="edge"><title>Node2&#45;&gt;Node6</title>
<path fill="none" stroke="midnightblue" d="M245.347,-133.589C265.454,-138.752 290.392,-145.155 311.501,-150.574"/>
<polygon fill="midnightblue" stroke="midnightblue" points="310.651,-153.97 321.207,-153.067 312.392,-147.19 310.651,-153.97"/>
</g>
<!-- Node7 -->
<g id="node13" class="node"><title>Node7</title>
<a xlink:href="../../d3/d5a/jid_8c.html#aeefeabfe802b3db2ce1b8894ae6a0d05" target="_top" xlink:title="Sets the domainpart of a JID.">
<polygon fill="none" stroke="black" points="306.5,-114.5 306.5,-133.5 407.5,-133.5 407.5,-114.5 306.5,-114.5"/>
<text text-anchor="middle" x="357" y="-121.5" font-family="DejaVuSansMono" font-size="10.00">jid_set_domain</text>
</a>
</g>
<!-- Node2&#45;&gt;Node7 -->
<g id="edge12" class="edge"><title>Node2&#45;&gt;Node7</title>
<path fill="none" stroke="midnightblue" d="M263.531,-124C274.222,-124 285.463,-124 296.28,-124"/>
<polygon fill="midnightblue" stroke="midnightblue" points="296.49,-127.5 306.49,-124 296.49,-120.5 296.49,-127.5"/>
</g>
<!-- Node8 -->
<g id="node16" class="node"><title>Node8</title>
<a xlink:href="../../d3/d5a/jid_8c.html#a32b3d0744d90d33622986e4989042ee6" target="_top" xlink:title="Returns the domainpart of a JID.">
<polygon fill="none" stroke="black" points="318.5,-76.5 318.5,-95.5 395.5,-95.5 395.5,-76.5 318.5,-76.5"/>
<text text-anchor="middle" x="357" y="-83.5" font-family="DejaVuSansMono" font-size="10.00">jid_domain</text>
</a>
</g>
<!-- Node2&#45;&gt;Node8 -->
<g id="edge16" class="edge"><title>Node2&#45;&gt;Node8</title>
<path fill="none" stroke="midnightblue" d="M245.347,-114.411C264.701,-109.442 288.53,-103.323 309.113,-98.0387"/>
<polygon fill="midnightblue" stroke="midnightblue" points="310.107,-101.397 318.922,-95.5201 308.366,-94.617 310.107,-101.397"/>
</g>
<!-- Node9 -->
<g id="node18" class="node"><title>Node9</title>
<a xlink:href="../../d3/d5a/jid_8c.html#ad4e057d210bd0776fcb89289e5d59f81" target="_top" xlink:title="Sets the resourcepart of a JID.">
<polygon fill="none" stroke="black" points="300.5,-38.5 300.5,-57.5 413.5,-57.5 413.5,-38.5 300.5,-38.5"/>
<text text-anchor="middle" x="357" y="-45.5" font-family="DejaVuSansMono" font-size="10.00">jid_set_resource</text>
</a>
</g>
<!-- Node2&#45;&gt;Node9 -->
<g id="edge18" class="edge"><title>Node2&#45;&gt;Node9</title>
<path fill="none" stroke="midnightblue" d="M221.17,-114.496C238.557,-102.27 270.433,-80.9517 300,-67 304.583,-64.8375 309.48,-62.8025 314.401,-60.9263"/>
<polygon fill="midnightblue" stroke="midnightblue" points="315.601,-64.2143 323.814,-57.5222 313.22,-57.6315 315.601,-64.2143"/>
</g>
<!-- Node10 -->
<g id="node21" class="node"><title>Node10</title>
<a xlink:href="../../d3/d5a/jid_8c.html#a54f945004eef842630b39c94a3689e28" target="_top" xlink:title="Returns the resourcepart of a JID.">
<polygon fill="none" stroke="black" points="312.5,-0.5 312.5,-19.5 401.5,-19.5 401.5,-0.5 312.5,-0.5"/>
<text text-anchor="middle" x="357" y="-7.5" font-family="DejaVuSansMono" font-size="10.00">jid_resource</text>
</a>
</g>
<!-- Node2&#45;&gt;Node10 -->
<g id="edge22" class="edge"><title>Node2&#45;&gt;Node10</title>
<path fill="none" stroke="midnightblue" d="M214.738,-114.467C228.592,-95.531 262.17,-52.9433 300,-29 303.18,-26.9874 306.597,-25.1616 310.119,-23.5103"/>
<polygon fill="midnightblue" stroke="midnightblue" points="311.724,-26.6327 319.593,-19.5388 309.018,-20.177 311.724,-26.6327"/>
</g>
<!-- Node5 -->
<g id="node9" class="node"><title>Node5</title>
<a xlink:href="../../d3/d91/utils_8c.html#a07891e77aee8f9b825d52bd33e474f30" target="_top" xlink:title="Simple string copy, freeing original if neccessary.">
<polygon fill="none" stroke="black" points="450.5,-114.5 450.5,-133.5 533.5,-133.5 533.5,-114.5 450.5,-114.5"/>
<text text-anchor="middle" x="492" y="-121.5" font-family="DejaVuSansMono" font-size="10.00">copy_string</text>
</a>
</g>
<!-- Node4&#45;&gt;Node5 -->
<g id="edge8" class="edge"><title>Node4&#45;&gt;Node5</title>
<path fill="none" stroke="midnightblue" d="M391.576,-190.499C399.139,-187.845 406.996,-184.666 414,-181 435.434,-169.782 457.369,-152.911 472.316,-140.432"/>
<polygon fill="midnightblue" stroke="midnightblue" points="474.912,-142.818 480.253,-133.668 470.371,-137.49 474.912,-142.818"/>
</g>
<!-- Node7&#45;&gt;Node5 -->
<g id="edge14" class="edge"><title>Node7&#45;&gt;Node5</title>
<path fill="none" stroke="midnightblue" d="M407.524,-124C418.158,-124 429.413,-124 440.098,-124"/>
<polygon fill="midnightblue" stroke="midnightblue" points="440.129,-127.5 450.129,-124 440.129,-120.5 440.129,-127.5"/>
</g>
<!-- Node9&#45;&gt;Node5 -->
<g id="edge20" class="edge"><title>Node9&#45;&gt;Node5</title>
<path fill="none" stroke="midnightblue" d="M391.576,-57.5008C399.139,-60.1549 406.996,-63.3343 414,-67 435.434,-78.2179 457.369,-95.0893 472.316,-107.568"/>
<polygon fill="midnightblue" stroke="midnightblue" points="470.371,-110.51 480.253,-114.332 474.912,-105.182 470.371,-110.51"/>
</g>
</g>
</svg>
        <g id="navigator" transform="translate(0 0)" fill="#404254">
                <rect fill="#f2f5e9" fill-opacity="0.5" stroke="#606060" stroke-width=".5" x="0" y="0" width="60" height="60"/>
                <use id="zoomplus" xlink:href="#zoomPlus" x="17" y="9" onmousedown="handleZoom(evt,'in')"/>
                <use id="zoomminus" xlink:href="#zoomMin" x="42" y="9" onmousedown="handleZoom(evt,'out')"/>
                <use id="reset" xlink:href="#resetDef" x="30" y="36" onmousedown="handleReset()"/>
                <g id="arrowUp" xlink:href="#dirArrow" transform="translate(30 24)" onmousedown="handlePan(0,-1)">
                  <use xlink:href="#rim" fill="#404040">
                        <set attributeName="fill" to="#808080" begin="arrowUp.mouseover" end="arrowUp.mouseout"/>
                  </use>
                  <path fill="none" stroke="white" stroke-width="1.5" d="M0,-3.0v7 M-2.5,-0.5L0,-3.0L2.5,-0.5"/>
                </g>
                <g id="arrowRight" xlink:href="#dirArrow" transform="rotate(90) translate(36 -43)" onmousedown="handlePan(1,0)">
                  <use xlink:href="#rim" fill="#404040">
                        <set attributeName="fill" to="#808080" begin="arrowRight.mouseover" end="arrowRight.mouseout"/>
                  </use>
                  <path fill="none" stroke="white" stroke-width="1.5" d="M0,-3.0v7 M-2.5,-0.5L0,-3.0L2.5,-0.5"/>
                </g>
                <g id="arrowDown" xlink:href="#dirArrow" transform="rotate(180) translate(-30 -48)" onmousedown="handlePan(0,1)">
                  <use xlink:href="#rim" fill="#404040">
                        <set attributeName="fill" to="#808080" begin="arrowDown.mouseover" end="arrowDown.mouseout"/>
                  </use>
                  <path fill="none" stroke="white" stroke-width="1.5" d="M0,-3.0v7 M-2.5,-0.5L0,-3.0L2.5,-0.5"/>
                </g>
                <g id="arrowLeft" xlink:href="#dirArrow" transform="rotate(270) translate(-36 17)" onmousedown="handlePan(-1,0)">
                  <use xlink:href="#rim" fill="#404040">
                        <set attributeName="fill" to="#808080" begin="arrowLeft.mouseover" end="arrowLeft.mouseout"/>
                  </use>
                  <path fill="none" stroke="white" stroke-width="1.5" d="M0,-3.0v7 M-2.5,-0.5L0,-3.0L2.5,-0.5"/>
                </g>
        </g>
        <svg viewBox="0 0 25 25" width="100%" height="30px" preserveAspectRatio="xMaxYMin meet"> 
          <g id="printButton" transform="scale(0.4 0.4)" onmousedown="handlePrint(evt)">
            <rect height="23.33753581" id="paper" rx="2" style="fill:#f2f5e9;fill-rule:evenodd;stroke:#111111;stroke-width:3.224;stroke-linejoin:round;" transform="matrix(1.000000,0.000000,-0.339266,0.940691,0.000000,0.000000)" width="25.55231285" x="26.69387353" y="7.36162977"/>
            <rect height="26.272097" id="body" rx="2" style="fill:#404040;fill-rule:evenodd;stroke:#111111;stroke-width:3.125;stroke-linejoin:round;" width="50" x="4.5295201" y="27.078951"/>
            <rect height="8.27750969" id="tray" style="fill:#d2d5c9;fill-rule:evenodd;stroke:#111111;stroke-width:3.125;stroke-linecap:round;stroke-linejoin:round;" width="40" x="10.28778839" y="44.96812282"/>
          </g>
        </svg>
</svg>
