<?xml version="1.0" encoding="UTF-8" standalone="no"?>
<!DOCTYPE svg PUBLIC "-//W3C//DTD SVG 1.1//EN"
 "http://www.w3.org/Graphics/SVG/1.1/DTD/svg11.dtd">
<!-- Generated by graphviz version 2.28.0 (20120217.0315)
 -->
<!-- Title: G Pages: 1 -->
<!--zoomable 512 -->
<svg id="main" version="1.1" xmlns="http://www.w3.org/2000/svg" xmlns:xlink="http://www.w3.org/1999/xlink" xml:space="preserve" onload="init(evt)">
        <defs>
                <circle id="rim" cx="0" cy="0" r="7"/>
                <circle id="rim2" cx="0" cy="0" r="3.5"/>
                <g id="zoomPlus">
                        <use xlink:href="#rim" fill="#404040">
                                <set attributeName="fill" to="#808080" begin="zoomplus.mouseover" end="zoomplus.mouseout"/>
                        </use>
                        <path d="M-4,0h8M0,-4v8" fill="none" stroke="white" stroke-width="1.5" pointer-events="none"/>
                </g>
                <g id="zoomMin">
                        <use xlink:href="#rim" fill="#404040">
                                <set attributeName="fill" to="#808080" begin="zoomminus.mouseover" end="zoomminus.mouseout"/>
                        </use>
                        <path d="M-4,0h8" fill="none" stroke="white" stroke-width="1.5" pointer-events="none"/>
                </g>
                <g id="dirArrow">
                        <path fill="none" stroke="white" stroke-width="1.5" d="M0,-3.0v7 M-2.5,-0.5L0,-3.0L2.5,-0.5"/>
                </g>
               <g id="resetDef">
                       <use xlink:href="#rim2" fill="#404040">
                               <set attributeName="fill" to="#808080" begin="reset.mouseover" end="reset.mouseout"/>
                       </use>
               </g>
        </defs>

<script type="text/javascript">
var viewWidth = 1604;
var viewHeight = 512;
var sectionId = 'dynsection-16';
</script>
<script xlink:href="../../svgpan.js"/>
<svg id="graph" class="graph">
<g id="viewport">
<title>G</title>
<!-- Node1 -->
<g id="node1" class="node"><title>Node1</title>
<polygon fill="#bfbfbf" stroke="black" points="0.5,-323.5 0.5,-342.5 83.5,-342.5 83.5,-323.5 0.5,-323.5"/>
<text text-anchor="middle" x="42" y="-330.5" font-family="DejaVuSansMono" font-size="10.00">read_client</text>
</g>
<!-- Node2 -->
<g id="node3" class="node"><title>Node2</title>
<a xlink:href="../../dd/d4d/xmpp__client_8c.html#a5ff8a826aface187b00ffcdfb7ce125a" target="_top" xlink:title="Return the server this client is connected to.">
<polygon fill="none" stroke="black" points="348.5,-247.5 348.5,-266.5 473.5,-266.5 473.5,-247.5 348.5,-247.5"/>
<text text-anchor="middle" x="411" y="-254.5" font-family="DejaVuSansMono" font-size="10.00">xmpp_client_server</text>
</a>
</g>
<!-- Node1&#45;&gt;Node2 -->
<g id="edge2" class="edge"><title>Node1&#45;&gt;Node2</title>
<path fill="none" stroke="midnightblue" d="M58.591,-323.393C73.7159,-314.544 97.6022,-301.79 120,-295 192.349,-273.066 278.635,-263.791 338.174,-259.871"/>
<polygon fill="midnightblue" stroke="midnightblue" points="338.469,-263.359 348.231,-259.243 338.032,-256.373 338.469,-263.359"/>
</g>
<!-- Node3 -->
<g id="node5" class="node"><title>Node3</title>
<a xlink:href="../../d4/d8e/client__socket_8c.html#a30c35d21434afc1e9434e06aed7503df" target="_top" xlink:title="Receive some data from a client_socket.">
<polygon fill="none" stroke="black" points="153.5,-418.5 153.5,-437.5 278.5,-437.5 278.5,-418.5 153.5,-418.5"/>
<text text-anchor="middle" x="216" y="-425.5" font-family="DejaVuSansMono" font-size="10.00">client_socket_recv</text>
</a>
</g>
<!-- Node1&#45;&gt;Node3 -->
<g id="edge4" class="edge"><title>Node1&#45;&gt;Node3</title>
<path fill="none" stroke="midnightblue" d="M50.8641,-342.91C63.6711,-358.362 90.5767,-388.072 120,-404 128.752,-408.738 138.464,-412.563 148.242,-415.646"/>
<polygon fill="midnightblue" stroke="midnightblue" points="147.428,-419.054 158.008,-418.488 149.384,-412.333 147.428,-419.054"/>
</g>
<!-- Node4 -->
<g id="node7" class="node"><title>Node4</title>
<a xlink:href="../../dd/d4d/xmpp__client_8c.html#a07c89140b5b826454868ac9395e2efd7" target="_top" xlink:title="Return the socket used to communicate with this client.">
<polygon fill="none" stroke="black" points="741.5,-224.5 741.5,-243.5 866.5,-243.5 866.5,-224.5 741.5,-224.5"/>
<text text-anchor="middle" x="804" y="-231.5" font-family="DejaVuSansMono" font-size="10.00">xmpp_client_socket</text>
</a>
</g>
<!-- Node1&#45;&gt;Node4 -->
<g id="edge6" class="edge"><title>Node1&#45;&gt;Node4</title>
<path fill="none" stroke="midnightblue" d="M57.2851,-342.562C72.1976,-351.923 96.627,-365.547 120,-371 244.652,-400.084 583.9,-432.786 696,-371 722.241,-356.537 713.996,-337.951 732,-314 749.103,-291.247 771.179,-267.061 786.141,-251.314"/>
<polygon fill="midnightblue" stroke="midnightblue" points="788.856,-253.541 793.253,-243.901 783.804,-248.694 788.856,-253.541"/>
</g>
<!-- Node5 -->
<g id="node9" class="node"><title>Node5</title>
<a xlink:href="../../d4/d8e/client__socket_8c.html#aeca3084baf23d5cd017d2b55ddbe96c6" target="_top" xlink:title="Returns a string version of the address of this client.">
<polygon fill="none" stroke="black" points="141.5,-342.5 141.5,-361.5 290.5,-361.5 290.5,-342.5 141.5,-342.5"/>
<text text-anchor="middle" x="216" y="-349.5" font-family="DejaVuSansMono" font-size="10.00">client_socket_addr_str</text>
</a>
</g>
<!-- Node1&#45;&gt;Node5 -->
<g id="edge8" class="edge"><title>Node1&#45;&gt;Node5</title>
<path fill="none" stroke="midnightblue" d="M83.7616,-337.503C97.9938,-339.075 114.537,-340.902 130.983,-342.719"/>
<polygon fill="midnightblue" stroke="midnightblue" points="130.865,-346.227 141.189,-343.846 131.634,-339.27 130.865,-346.227"/>
</g>
<!-- Node6 -->
<g id="node11" class="node"><title>Node6</title>
<a xlink:href="../../dd/d4d/xmpp__client_8c.html#acf28b15c5d0ca2fa50937dc12c436bfd" target="_top" xlink:title="Return the XMPP parser instance for this client.">
<polygon fill="none" stroke="black" points="153.5,-304.5 153.5,-323.5 278.5,-323.5 278.5,-304.5 153.5,-304.5"/>
<text text-anchor="middle" x="216" y="-311.5" font-family="DejaVuSansMono" font-size="10.00">xmpp_client_parser</text>
</a>
</g>
<!-- Node1&#45;&gt;Node6 -->
<g id="edge10" class="edge"><title>Node1&#45;&gt;Node6</title>
<path fill="none" stroke="midnightblue" d="M83.7616,-328.497C101.523,-326.535 122.884,-324.176 143.164,-321.935"/>
<polygon fill="midnightblue" stroke="midnightblue" points="143.772,-325.39 153.327,-320.813 143.003,-318.432 143.772,-325.39"/>
</g>
<!-- Node7 -->
<g id="node13" class="node"><title>Node7</title>
<a xlink:href="../../d1/dc2/xmpp__parser_8c.html#a578b7a9a50212eb204a86789001287af" target="_top" xlink:title="xmpp_parser_parse">
<polygon fill="none" stroke="black" points="156.5,-456.5 156.5,-475.5 275.5,-475.5 275.5,-456.5 156.5,-456.5"/>
<text text-anchor="middle" x="216" y="-463.5" font-family="DejaVuSansMono" font-size="10.00">xmpp_parser_parse</text>
</a>
</g>
<!-- Node1&#45;&gt;Node7 -->
<g id="edge12" class="edge"><title>Node1&#45;&gt;Node7</title>
<path fill="none" stroke="midnightblue" d="M46.4713,-342.51C55.113,-364.747 79.8333,-420.276 120,-447 128.003,-452.324 137.167,-456.218 146.575,-459.055"/>
<polygon fill="midnightblue" stroke="midnightblue" points="145.868,-462.488 156.429,-461.645 147.647,-455.718 145.868,-462.488"/>
</g>
<!-- Node31 -->
<g id="node66" class="node"><title>Node31</title>
<a xlink:href="../../d1/dc2/xmpp__parser_8c.html#aa17d06a915f678465ef840566568e820" target="_top" xlink:title="xmpp_parser_strerror">
<polygon fill="none" stroke="black" points="147.5,-228.5 147.5,-247.5 284.5,-247.5 284.5,-228.5 147.5,-228.5"/>
<text text-anchor="middle" x="216" y="-235.5" font-family="DejaVuSansMono" font-size="10.00">xmpp_parser_strerror</text>
</a>
</g>
<!-- Node1&#45;&gt;Node31 -->
<g id="edge70" class="edge"><title>Node1&#45;&gt;Node31</title>
<path fill="none" stroke="midnightblue" d="M50.8641,-323.09C63.6711,-307.638 90.5767,-277.928 120,-262 128.752,-257.262 138.464,-253.437 148.242,-250.354"/>
<polygon fill="midnightblue" stroke="midnightblue" points="149.384,-253.667 158.008,-247.512 147.428,-246.946 149.384,-253.667"/>
</g>
<!-- Node32 -->
<g id="node68" class="node"><title>Node32</title>
<a xlink:href="../../d0/df0/xmpp__server_8c.html#a79e02871228c509de0c70961d74a1bcb" target="_top" xlink:title="Attempt to cleanly disconnect a client, and clean up its resources.">
<polygon fill="none" stroke="black" points="120.5,-190.5 120.5,-209.5 311.5,-209.5 311.5,-190.5 120.5,-190.5"/>
<text text-anchor="middle" x="216" y="-197.5" font-family="DejaVuSansMono" font-size="10.00">xmpp_server_disconnect_client</text>
</a>
</g>
<!-- Node1&#45;&gt;Node32 -->
<g id="edge72" class="edge"><title>Node1&#45;&gt;Node32</title>
<path fill="none" stroke="midnightblue" d="M46.4713,-323.49C55.113,-301.253 79.8333,-245.724 120,-219 122.96,-217.03 126.08,-215.256 129.312,-213.659"/>
<polygon fill="midnightblue" stroke="midnightblue" points="130.888,-216.791 138.679,-209.611 128.111,-210.366 130.888,-216.791"/>
</g>
<!-- Node8 -->
<g id="node15" class="node"><title>Node8</title>
<a xlink:href="../../d1/dc2/xmpp__parser_8c.html#af5e1eb5bbef0496c3543bd35113766ac" target="_top" xlink:title="Reset the state of the parser as if it was just created.">
<polygon fill="none" stroke="black" points="351.5,-437.5 351.5,-456.5 470.5,-456.5 470.5,-437.5 351.5,-437.5"/>
<text text-anchor="middle" x="411" y="-444.5" font-family="DejaVuSansMono" font-size="10.00">xmpp_parser_reset</text>
</a>
</g>
<!-- Node7&#45;&gt;Node8 -->
<g id="edge14" class="edge"><title>Node7&#45;&gt;Node8</title>
<path fill="none" stroke="midnightblue" d="M275.692,-460.222C296.372,-458.186 319.803,-455.879 341.239,-453.769"/>
<polygon fill="midnightblue" stroke="midnightblue" points="341.645,-457.246 351.254,-452.783 340.959,-450.28 341.645,-457.246"/>
</g>
<!-- Node9 -->
<g id="node17" class="node"><title>Node9</title>
<a xlink:href="../../d1/dc2/xmpp__parser_8c.html#a03a135f29e3d4e01abbb60e53ac6967c" target="_top" xlink:title="init_parser">
<polygon fill="none" stroke="black" points="561.5,-427.5 561.5,-446.5 644.5,-446.5 644.5,-427.5 561.5,-427.5"/>
<text text-anchor="middle" x="603" y="-434.5" font-family="DejaVuSansMono" font-size="10.00">init_parser</text>
</a>
</g>
<!-- Node8&#45;&gt;Node9 -->
<g id="edge16" class="edge"><title>Node8&#45;&gt;Node9</title>
<path fill="none" stroke="midnightblue" d="M470.557,-443.918C496.316,-442.562 526.29,-440.985 551.104,-439.679"/>
<polygon fill="midnightblue" stroke="midnightblue" points="551.593,-443.158 561.395,-439.137 551.225,-436.168 551.593,-443.158"/>
</g>
<!-- Node10 -->
<g id="node19" class="node"><title>Node10</title>
<a xlink:href="../../d1/dc2/xmpp__parser_8c.html#a0f2993ab3e982d5e2b4a5635dcaf291c" target="_top" xlink:title="Expat callback for the start of any other element.">
<polygon fill="none" stroke="black" points="966.5,-446.5 966.5,-465.5 1013.5,-465.5 1013.5,-446.5 966.5,-446.5"/>
<text text-anchor="middle" x="990" y="-453.5" font-family="DejaVuSansMono" font-size="10.00">start</text>
</a>
</g>
<!-- Node9&#45;&gt;Node10 -->
<g id="edge18" class="edge"><title>Node9&#45;&gt;Node10</title>
<path fill="none" stroke="midnightblue" d="M644.837,-439.015C721.596,-442.803 885.972,-450.915 956.148,-454.379"/>
<polygon fill="midnightblue" stroke="midnightblue" points="956.025,-457.877 966.186,-454.874 956.37,-450.885 956.025,-457.877"/>
</g>
<!-- Node17 -->
<g id="node33" class="node"><title>Node17</title>
<a xlink:href="../../d1/dc2/xmpp__parser_8c.html#adc3f7670edafd5b590af11d276887f1e" target="_top" xlink:title="Expat callback for end elements.">
<polygon fill="none" stroke="black" points="786.5,-323.5 786.5,-342.5 821.5,-342.5 821.5,-323.5 786.5,-323.5"/>
<text text-anchor="middle" x="804" y="-330.5" font-family="DejaVuSansMono" font-size="10.00">end</text>
</a>
</g>
<!-- Node9&#45;&gt;Node17 -->
<g id="edge32" class="edge"><title>Node9&#45;&gt;Node17</title>
<path fill="none" stroke="midnightblue" d="M644.701,-427.463C661.552,-422.273 680.691,-414.679 696,-404 716.442,-389.74 711.783,-375.577 732,-361 745.405,-351.334 762.602,-344.44 776.713,-339.912"/>
<polygon fill="midnightblue" stroke="midnightblue" points="777.77,-343.249 786.345,-337.027 775.761,-336.544 777.77,-343.249"/>
</g>
<!-- Node27 -->
<g id="node54" class="node"><title>Node27</title>
<a xlink:href="../../d1/dc2/xmpp__parser_8c.html#a78918dc72ccbf110d41d34080ebbf014" target="_top" xlink:title="Expat callback for XML data.">
<polygon fill="none" stroke="black" points="771.5,-484.5 771.5,-503.5 836.5,-503.5 836.5,-484.5 771.5,-484.5"/>
<text text-anchor="middle" x="804" y="-491.5" font-family="DejaVuSansMono" font-size="10.00">chardata</text>
</a>
</g>
<!-- Node9&#45;&gt;Node27 -->
<g id="edge54" class="edge"><title>Node9&#45;&gt;Node27</title>
<path fill="none" stroke="midnightblue" d="M637.308,-446.541C671.391,-456.303 724.438,-471.497 761.293,-482.054"/>
<polygon fill="midnightblue" stroke="midnightblue" points="760.653,-485.511 771.23,-484.9 762.58,-478.782 760.653,-485.511"/>
</g>
<!-- Node29 -->
<g id="node58" class="node"><title>Node29</title>
<a xlink:href="../../d1/dc2/xmpp__parser_8c.html#a97bcfc9f28eea4b3aa3a7d8ac7af8aee" target="_top" xlink:title="Expat callback for namespace declarations.">
<polygon fill="none" stroke="black" points="771.5,-370.5 771.5,-389.5 836.5,-389.5 836.5,-370.5 771.5,-370.5"/>
<text text-anchor="middle" x="804" y="-377.5" font-family="DejaVuSansMono" font-size="10.00">ns_start</text>
</a>
</g>
<!-- Node9&#45;&gt;Node29 -->
<g id="edge58" class="edge"><title>Node9&#45;&gt;Node29</title>
<path fill="none" stroke="midnightblue" d="M635.231,-427.471C661.105,-419.638 698.87,-408.349 732,-399 741.57,-396.299 751.893,-393.482 761.624,-390.87"/>
<polygon fill="midnightblue" stroke="midnightblue" points="762.734,-394.196 771.493,-388.235 760.929,-387.433 762.734,-394.196"/>
</g>
<!-- Node30 -->
<g id="node60" class="node"><title>Node30</title>
<a xlink:href="../../d1/dc2/xmpp__parser_8c.html#a2268b636f6d02bbe04f3033ff93d829c" target="_top" xlink:title="Expat callback for the start of an XMPP stream.">
<polygon fill="none" stroke="black" points="759.5,-408.5 759.5,-427.5 848.5,-427.5 848.5,-408.5 759.5,-408.5"/>
<text text-anchor="middle" x="804" y="-415.5" font-family="DejaVuSansMono" font-size="10.00">stream_start</text>
</a>
</g>
<!-- Node9&#45;&gt;Node30 -->
<g id="edge60" class="edge"><title>Node9&#45;&gt;Node30</title>
<path fill="none" stroke="midnightblue" d="M644.751,-433.109C674.815,-430.239 716.027,-426.304 748.857,-423.169"/>
<polygon fill="midnightblue" stroke="midnightblue" points="749.575,-426.617 759.197,-422.182 748.909,-419.649 749.575,-426.617"/>
</g>
<!-- Node11 -->
<g id="node21" class="node"><title>Node11</title>
<a xlink:href="../../d1/d59/xmpp__stanza_8c.html#aa2b621549a5e0499793adbec29964932" target="_top" xlink:title="Allocate stanza with namespace information.">
<polygon fill="none" stroke="black" points="1125.5,-408.5 1125.5,-427.5 1250.5,-427.5 1250.5,-408.5 1125.5,-408.5"/>
<text text-anchor="middle" x="1188" y="-415.5" font-family="DejaVuSansMono" font-size="10.00">xmpp_stanza_ns_new</text>
</a>
</g>
<!-- Node10&#45;&gt;Node11 -->
<g id="edge20" class="edge"><title>Node10&#45;&gt;Node11</title>
<path fill="none" stroke="midnightblue" d="M1013.87,-451.567C1041.58,-446.193 1089.34,-436.934 1127.68,-429.5"/>
<polygon fill="midnightblue" stroke="midnightblue" points="1128.56,-432.895 1137.72,-427.555 1127.23,-426.022 1128.56,-432.895"/>
</g>
<!-- Node15 -->
<g id="node29" class="node"><title>Node15</title>
<a xlink:href="../../d1/d59/xmpp__stanza_8c.html#ac13c8bb45e2ca03b99836e8d52b265b4" target="_top" xlink:title="Appends a child stanza.">
<polygon fill="none" stroke="black" points="1107.5,-446.5 1107.5,-465.5 1268.5,-465.5 1268.5,-446.5 1107.5,-446.5"/>
<text text-anchor="middle" x="1188" y="-453.5" font-family="DejaVuSansMono" font-size="10.00">xmpp_stanza_append_child</text>
</a>
</g>
<!-- Node10&#45;&gt;Node15 -->
<g id="edge28" class="edge"><title>Node10&#45;&gt;Node15</title>
<path fill="none" stroke="midnightblue" d="M1013.87,-456C1034.46,-456 1066.12,-456 1096.76,-456"/>
<polygon fill="midnightblue" stroke="midnightblue" points="1097.09,-459.5 1107.09,-456 1097.09,-452.5 1097.09,-459.5"/>
</g>
<!-- Node12 -->
<g id="node23" class="node"><title>Node12</title>
<a xlink:href="../../d1/d59/xmpp__stanza_8c.html#aa80dd21d794b5c63fcb13c49745cc373" target="_top" xlink:title="Allocate and initialize a new XMPP stanza structure.">
<polygon fill="none" stroke="black" points="1347.5,-408.5 1347.5,-427.5 1454.5,-427.5 1454.5,-408.5 1347.5,-408.5"/>
<text text-anchor="middle" x="1401" y="-415.5" font-family="DejaVuSansMono" font-size="10.00">xmpp_stanza_new</text>
</a>
</g>
<!-- Node11&#45;&gt;Node12 -->
<g id="edge22" class="edge"><title>Node11&#45;&gt;Node12</title>
<path fill="none" stroke="midnightblue" d="M1250.6,-418C1277.78,-418 1309.69,-418 1337.03,-418"/>
<polygon fill="midnightblue" stroke="midnightblue" points="1337.26,-421.5 1347.26,-418 1337.26,-414.5 1337.26,-421.5"/>
</g>
<!-- Node13 -->
<g id="node25" class="node"><title>Node13</title>
<a xlink:href="../../d1/d59/xmpp__stanza_8c.html#a5a80203f56df7a360fa457c0111686f6" target="_top" xlink:title="Parse the namespace triple that Expat gives us.">
<polygon fill="none" stroke="black" points="1530.5,-427.5 1530.5,-446.5 1595.5,-446.5 1595.5,-427.5 1530.5,-427.5"/>
<text text-anchor="middle" x="1563" y="-434.5" font-family="DejaVuSansMono" font-size="10.00">parse_ns</text>
</a>
</g>
<!-- Node12&#45;&gt;Node13 -->
<g id="edge24" class="edge"><title>Node12&#45;&gt;Node13</title>
<path fill="none" stroke="midnightblue" d="M1454.83,-424.274C1476.07,-426.796 1500.21,-429.662 1520.19,-432.035"/>
<polygon fill="midnightblue" stroke="midnightblue" points="1519.88,-435.523 1530.23,-433.227 1520.71,-428.572 1519.88,-435.523"/>
</g>
<!-- Node14 -->
<g id="node27" class="node"><title>Node14</title>
<a xlink:href="../../d1/d59/xmpp__stanza_8c.html#aff4b8f6e10ce1c351d2a5bc39f0e819f" target="_top" xlink:title="Convenience function to build a key for the attribute hash table.">
<polygon fill="none" stroke="black" points="1530.5,-389.5 1530.5,-408.5 1595.5,-408.5 1595.5,-389.5 1530.5,-389.5"/>
<text text-anchor="middle" x="1563" y="-396.5" font-family="DejaVuSansMono" font-size="10.00">make_key</text>
</a>
</g>
<!-- Node12&#45;&gt;Node14 -->
<g id="edge26" class="edge"><title>Node12&#45;&gt;Node14</title>
<path fill="none" stroke="midnightblue" d="M1454.83,-411.726C1476.07,-409.204 1500.21,-406.338 1520.19,-403.965"/>
<polygon fill="midnightblue" stroke="midnightblue" points="1520.71,-407.428 1530.23,-402.773 1519.88,-400.477 1520.71,-407.428"/>
</g>
<!-- Node16 -->
<g id="node31" class="node"><title>Node16</title>
<a xlink:href="../../d1/d59/xmpp__stanza_8c.html#afc77f00b7f38c79566a7b16876230e30" target="_top" xlink:title="Removes a child stanza.">
<polygon fill="none" stroke="black" points="1320.5,-446.5 1320.5,-465.5 1481.5,-465.5 1481.5,-446.5 1320.5,-446.5"/>
<text text-anchor="middle" x="1401" y="-453.5" font-family="DejaVuSansMono" font-size="10.00">xmpp_stanza_remove_child</text>
</a>
</g>
<!-- Node15&#45;&gt;Node16 -->
<g id="edge30" class="edge"><title>Node15&#45;&gt;Node16</title>
<path fill="none" stroke="midnightblue" d="M1268.77,-456C1282.39,-456 1296.61,-456 1310.46,-456"/>
<polygon fill="midnightblue" stroke="midnightblue" points="1310.47,-459.5 1320.47,-456 1310.47,-452.5 1310.47,-459.5"/>
</g>
<!-- Node18 -->
<g id="node35" class="node"><title>Node18</title>
<a xlink:href="../../d1/d59/xmpp__stanza_8c.html#a513b6e2da3dce364271ba9315d7b3d95" target="_top" xlink:title="Returns the stanza (and its children) packed into a null&#45;terminated string.">
<polygon fill="none" stroke="black" points="927.5,-276.5 927.5,-295.5 1052.5,-295.5 1052.5,-276.5 927.5,-276.5"/>
<text text-anchor="middle" x="990" y="-283.5" font-family="DejaVuSansMono" font-size="10.00">xmpp_stanza_string</text>
</a>
</g>
<!-- Node17&#45;&gt;Node18 -->
<g id="edge34" class="edge"><title>Node17&#45;&gt;Node18</title>
<path fill="none" stroke="midnightblue" d="M821.662,-328.563C842.692,-322.979 879.991,-313.137 912,-305 921.016,-302.708 930.636,-300.303 939.914,-298.003"/>
<polygon fill="midnightblue" stroke="midnightblue" points="940.933,-301.356 949.802,-295.56 939.254,-294.561 940.933,-301.356"/>
</g>
<!-- Node23 -->
<g id="node45" class="node"><title>Node23</title>
<a xlink:href="../../d1/d59/xmpp__stanza_8c.html#af40757ae1d137034570b1bb33303d024" target="_top" xlink:title="Cleans up and frees an XMPP stanza.">
<polygon fill="none" stroke="black" points="936.5,-352.5 936.5,-371.5 1043.5,-371.5 1043.5,-352.5 936.5,-352.5"/>
<text text-anchor="middle" x="990" y="-359.5" font-family="DejaVuSansMono" font-size="10.00">xmpp_stanza_del</text>
</a>
</g>
<!-- Node17&#45;&gt;Node23 -->
<g id="edge44" class="edge"><title>Node17&#45;&gt;Node23</title>
<path fill="none" stroke="midnightblue" d="M821.653,-335.625C845.103,-339.321 889.128,-346.259 926.138,-352.092"/>
<polygon fill="midnightblue" stroke="midnightblue" points="925.944,-355.605 936.367,-353.705 927.034,-348.69 925.944,-355.605"/>
</g>
<!-- Node26 -->
<g id="node52" class="node"><title>Node26</title>
<a xlink:href="../../d1/d59/xmpp__stanza_8c.html#aacbe1cdb2a1d254b0b712653787b3c45" target="_top" xlink:title="Returns a pointer to the parent stanza.">
<polygon fill="none" stroke="black" points="927.5,-314.5 927.5,-333.5 1052.5,-333.5 1052.5,-314.5 927.5,-314.5"/>
<text text-anchor="middle" x="990" y="-321.5" font-family="DejaVuSansMono" font-size="10.00">xmpp_stanza_parent</text>
</a>
</g>
<!-- Node17&#45;&gt;Node26 -->
<g id="edge52" class="edge"><title>Node17&#45;&gt;Node26</title>
<path fill="none" stroke="midnightblue" d="M821.653,-332.185C843.231,-331.13 882.232,-329.222 917.156,-327.514"/>
<polygon fill="midnightblue" stroke="midnightblue" points="917.542,-331 927.359,-327.015 917.2,-324.008 917.542,-331"/>
</g>
<!-- Node19 -->
<g id="node37" class="node"><title>Node19</title>
<a xlink:href="../../d1/d59/xmpp__stanza_8c.html#aae8c30c30fcbc2325d34897f8035ca46" target="_top" xlink:title="Function that gets called recursively to convert a stanza to a string.">
<polygon fill="none" stroke="black" points="1143.5,-276.5 1143.5,-295.5 1232.5,-295.5 1232.5,-276.5 1143.5,-276.5"/>
<text text-anchor="middle" x="1188" y="-283.5" font-family="DejaVuSansMono" font-size="10.00">stanza_tostr</text>
</a>
</g>
<!-- Node18&#45;&gt;Node19 -->
<g id="edge36" class="edge"><title>Node18&#45;&gt;Node19</title>
<path fill="none" stroke="midnightblue" d="M1052.75,-286C1078.59,-286 1108.34,-286 1133.26,-286"/>
<polygon fill="midnightblue" stroke="midnightblue" points="1133.26,-289.5 1143.26,-286 1133.26,-282.5 1133.26,-289.5"/>
</g>
<!-- Node20 -->
<g id="node39" class="node"><title>Node20</title>
<a xlink:href="../../d1/dc2/xmpp__parser_8c.html#acce8bfe5926da4e64c3b5038dc683618" target="_top" xlink:title="xmpp_parser_namespace_prefix">
<polygon fill="none" stroke="black" points="1308.5,-314.5 1308.5,-333.5 1493.5,-333.5 1493.5,-314.5 1308.5,-314.5"/>
<text text-anchor="middle" x="1401" y="-321.5" font-family="DejaVuSansMono" font-size="10.00">xmpp_parser_namespace_prefix</text>
</a>
</g>
<!-- Node19&#45;&gt;Node20 -->
<g id="edge38" class="edge"><title>Node19&#45;&gt;Node20</title>
<path fill="none" stroke="midnightblue" d="M1232.72,-293.874C1262.8,-299.291 1303.23,-306.573 1336.81,-312.62"/>
<polygon fill="midnightblue" stroke="midnightblue" points="1336.53,-316.126 1346.99,-314.454 1337.77,-309.236 1336.53,-316.126"/>
</g>
<!-- Node21 -->
<g id="node41" class="node"><title>Node21</title>
<a xlink:href="../../d1/dc2/xmpp__parser_8c.html#afde3cf0e74a12bfe4ac90fa8dbae51a0" target="_top" xlink:title="xmpp_parser_namespace_uri">
<polygon fill="none" stroke="black" points="1317.5,-276.5 1317.5,-295.5 1484.5,-295.5 1484.5,-276.5 1317.5,-276.5"/>
<text text-anchor="middle" x="1401" y="-283.5" font-family="DejaVuSansMono" font-size="10.00">xmpp_parser_namespace_uri</text>
</a>
</g>
<!-- Node19&#45;&gt;Node21 -->
<g id="edge40" class="edge"><title>Node19&#45;&gt;Node21</title>
<path fill="none" stroke="midnightblue" d="M1232.72,-286C1254.25,-286 1281.07,-286 1306.89,-286"/>
<polygon fill="midnightblue" stroke="midnightblue" points="1307.1,-289.5 1317.1,-286 1307.1,-282.5 1307.1,-289.5"/>
</g>
<!-- Node22 -->
<g id="node43" class="node"><title>Node22</title>
<a xlink:href="../../d1/dc2/xmpp__parser_8c.html#af924e15caac53b347a48878fcb046bc4" target="_top" xlink:title="Return the next namespace in the namespace list.">
<polygon fill="none" stroke="black" points="1314.5,-238.5 1314.5,-257.5 1487.5,-257.5 1487.5,-238.5 1314.5,-238.5"/>
<text text-anchor="middle" x="1401" y="-245.5" font-family="DejaVuSansMono" font-size="10.00">xmpp_parser_namespace_next</text>
</a>
</g>
<!-- Node19&#45;&gt;Node22 -->
<g id="edge42" class="edge"><title>Node19&#45;&gt;Node22</title>
<path fill="none" stroke="midnightblue" d="M1232.72,-278.126C1262.8,-272.709 1303.23,-265.427 1336.81,-259.38"/>
<polygon fill="midnightblue" stroke="midnightblue" points="1337.77,-262.764 1346.99,-257.546 1336.53,-255.874 1337.77,-262.764"/>
</g>
<!-- Node23&#45;&gt;Node23 -->
<g id="edge50" class="edge"><title>Node23&#45;&gt;Node23</title>
<path fill="none" stroke="midnightblue" d="M961.332,-371.757C947.385,-380.565 956.941,-390 990,-390 1012.73,-390 1024.35,-385.541 1024.86,-379.891"/>
<polygon fill="midnightblue" stroke="midnightblue" points="1027.51,-377.596 1018.67,-371.757 1021.94,-381.835 1027.51,-377.596"/>
</g>
<!-- Node24 -->
<g id="node47" class="node"><title>Node24</title>
<a xlink:href="../../d1/d59/xmpp__stanza_8c.html#a2fb472c6bf9b7f540a97ddc6c11adb74" target="_top" xlink:title="attribute_del">
<polygon fill="none" stroke="black" points="1140.5,-323.5 1140.5,-342.5 1235.5,-342.5 1235.5,-323.5 1140.5,-323.5"/>
<text text-anchor="middle" x="1188" y="-330.5" font-family="DejaVuSansMono" font-size="10.00">attribute_del</text>
</a>
</g>
<!-- Node23&#45;&gt;Node24 -->
<g id="edge46" class="edge"><title>Node23&#45;&gt;Node24</title>
<path fill="none" stroke="midnightblue" d="M1043.52,-354.229C1070.27,-350.271 1102.82,-345.455 1130.16,-341.411"/>
<polygon fill="midnightblue" stroke="midnightblue" points="1130.97,-344.828 1140.35,-339.902 1129.95,-337.903 1130.97,-344.828"/>
</g>
<!-- Node25 -->
<g id="node49" class="node"><title>Node25</title>
<a xlink:href="../../d1/dc2/xmpp__parser_8c.html#a87065f39f10a449e7af17fa45ca475f2" target="_top" xlink:title="xmpp_parser_namespace_del">
<polygon fill="none" stroke="black" points="1104.5,-361.5 1104.5,-380.5 1271.5,-380.5 1271.5,-361.5 1104.5,-361.5"/>
<text text-anchor="middle" x="1188" y="-368.5" font-family="DejaVuSansMono" font-size="10.00">xmpp_parser_namespace_del</text>
</a>
</g>
<!-- Node23&#45;&gt;Node25 -->
<g id="edge48" class="edge"><title>Node23&#45;&gt;Node25</title>
<path fill="none" stroke="midnightblue" d="M1043.52,-364.412C1059.16,-365.13 1076.79,-365.939 1094.2,-366.739"/>
<polygon fill="midnightblue" stroke="midnightblue" points="1094.25,-370.245 1104.4,-367.207 1094.58,-363.252 1094.25,-370.245"/>
</g>
<!-- Node28 -->
<g id="node56" class="node"><title>Node28</title>
<a xlink:href="../../d1/d59/xmpp__stanza_8c.html#a4adffe2c21d8f7aa52ce23cc48772b7f" target="_top" xlink:title="Copies data.">
<polygon fill="none" stroke="black" points="912.5,-484.5 912.5,-503.5 1067.5,-503.5 1067.5,-484.5 912.5,-484.5"/>
<text text-anchor="middle" x="990" y="-491.5" font-family="DejaVuSansMono" font-size="10.00">xmpp_stanza_append_data</text>
</a>
</g>
<!-- Node27&#45;&gt;Node28 -->
<g id="edge56" class="edge"><title>Node27&#45;&gt;Node28</title>
<path fill="none" stroke="midnightblue" d="M836.631,-494C854.882,-494 878.808,-494 902.275,-494"/>
<polygon fill="midnightblue" stroke="midnightblue" points="902.286,-497.5 912.286,-494 902.286,-490.5 902.286,-497.5"/>
</g>
<!-- Node30&#45;&gt;Node10 -->
<g id="edge66" class="edge"><title>Node30&#45;&gt;Node10</title>
<path fill="none" stroke="midnightblue" d="M848.605,-427.005C881.688,-433.838 926.441,-443.08 956.444,-449.276"/>
<polygon fill="midnightblue" stroke="midnightblue" points="955.896,-452.737 966.398,-451.332 957.312,-445.882 955.896,-452.737"/>
</g>
<!-- Node30&#45;&gt;Node11 -->
<g id="edge62" class="edge"><title>Node30&#45;&gt;Node11</title>
<path fill="none" stroke="midnightblue" d="M848.82,-418C913.901,-418 1036.83,-418 1115.18,-418"/>
<polygon fill="midnightblue" stroke="midnightblue" points="1115.46,-421.5 1125.46,-418 1115.46,-414.5 1115.46,-421.5"/>
</g>
<!-- Node30&#45;&gt;Node18 -->
<g id="edge64" class="edge"><title>Node30&#45;&gt;Node18</title>
<path fill="none" stroke="midnightblue" d="M848.778,-413.095C858.638,-410.25 868.415,-405.832 876,-399 909.239,-369.058 878.47,-334.616 912,-305 913.987,-303.245 916.11,-301.647 918.338,-300.192"/>
<polygon fill="midnightblue" stroke="midnightblue" points="920.281,-303.119 927.384,-295.258 916.929,-296.973 920.281,-303.119"/>
</g>
<!-- Node30&#45;&gt;Node23 -->
<g id="edge68" class="edge"><title>Node30&#45;&gt;Node23</title>
<path fill="none" stroke="midnightblue" d="M842.325,-408.424C853.216,-405.518 865.114,-402.236 876,-399 901.396,-391.451 929.729,-382.171 951.672,-374.794"/>
<polygon fill="midnightblue" stroke="midnightblue" points="952.917,-378.068 961.271,-371.551 950.676,-371.436 952.917,-378.068"/>
</g>
<!-- Node32&#45;&gt;Node2 -->
<g id="edge74" class="edge"><title>Node32&#45;&gt;Node2</title>
<path fill="none" stroke="midnightblue" d="M272.899,-209.51C285.842,-212.171 299.486,-215.352 312,-219 334.974,-225.697 360.128,-235.505 379.199,-243.479"/>
<polygon fill="midnightblue" stroke="midnightblue" points="378.001,-246.772 388.573,-247.455 380.734,-240.328 378.001,-246.772"/>
</g>
<!-- Node33 -->
<g id="node71" class="node"><title>Node33</title>
<a xlink:href="../../dd/d4d/xmpp__client_8c.html#add2df61245a543667b6d98e3fcd57077" target="_top" xlink:title="xmpp_client_del">
<polygon fill="none" stroke="black" points="357.5,-190.5 357.5,-209.5 464.5,-209.5 464.5,-190.5 357.5,-190.5"/>
<text text-anchor="middle" x="411" y="-197.5" font-family="DejaVuSansMono" font-size="10.00">xmpp_client_del</text>
</a>
</g>
<!-- Node32&#45;&gt;Node33 -->
<g id="edge76" class="edge"><title>Node32&#45;&gt;Node33</title>
<path fill="none" stroke="midnightblue" d="M311.521,-200C323.587,-200 335.693,-200 347.086,-200"/>
<polygon fill="midnightblue" stroke="midnightblue" points="347.327,-203.5 357.327,-200 347.327,-196.5 347.327,-203.5"/>
</g>
<!-- Node34 -->
<g id="node73" class="node"><title>Node34</title>
<a xlink:href="../../d0/df0/xmpp__server_8c.html#af2e493f9f89b437fae7212b941c536cf" target="_top" xlink:title="Remove a callback from the list of routes for stanza delivery.">
<polygon fill="none" stroke="black" points="510.5,-342.5 510.5,-361.5 695.5,-361.5 695.5,-342.5 510.5,-342.5"/>
<text text-anchor="middle" x="603" y="-349.5" font-family="DejaVuSansMono" font-size="10.00">xmpp_server_del_stanza_route</text>
</a>
</g>
<!-- Node33&#45;&gt;Node34 -->
<g id="edge78" class="edge"><title>Node33&#45;&gt;Node34</title>
<path fill="none" stroke="midnightblue" d="M434.968,-209.516C447.952,-215.905 463.613,-225.456 474,-238 502.796,-272.778 475.644,-303.702 510,-333 511.815,-334.548 513.723,-335.981 515.707,-337.307"/>
<polygon fill="midnightblue" stroke="midnightblue" points="514.415,-340.597 524.844,-342.462 517.855,-334.5 514.415,-340.597"/>
</g>
<!-- Node35 -->
<g id="node75" class="node"><title>Node35</title>
<a xlink:href="../../d6/d13/xmpp__core_8c.html#a3b41e83061abd7ed5b258c7aa7dda0d6" target="_top" xlink:title="An xmpp_server stanza route for stanzas directed to a local client.">
<polygon fill="none" stroke="black" points="528.5,-38.5 528.5,-57.5 677.5,-57.5 677.5,-38.5 528.5,-38.5"/>
<text text-anchor="middle" x="603" y="-45.5" font-family="DejaVuSansMono" font-size="10.00">xmpp_core_route_client</text>
</a>
</g>
<!-- Node33&#45;&gt;Node35 -->
<g id="edge80" class="edge"><title>Node33&#45;&gt;Node35</title>
<path fill="none" stroke="midnightblue" d="M419.595,-190.388C431.438,-175.332 454.922,-145.197 474,-119 490.547,-96.2775 486.557,-82.5091 510,-67 513.107,-64.9444 516.393,-63.1043 519.799,-61.4578"/>
<polygon fill="midnightblue" stroke="midnightblue" points="521.218,-64.6579 529.062,-57.5359 518.489,-58.2118 521.218,-64.6579"/>
</g>
<!-- Node40 -->
<g id="node88" class="node"><title>Node40</title>
<a xlink:href="../../d3/d5a/jid_8c.html#ab83fd5aae95de2c9d38fb9d9cd161580" target="_top" xlink:title="Cleans up and frees an existing JID.">
<polygon fill="none" stroke="black" points="573.5,-304.5 573.5,-323.5 632.5,-323.5 632.5,-304.5 573.5,-304.5"/>
<text text-anchor="middle" x="603" y="-311.5" font-family="DejaVuSansMono" font-size="10.00">jid_del</text>
</a>
</g>
<!-- Node33&#45;&gt;Node40 -->
<g id="edge96" class="edge"><title>Node33&#45;&gt;Node40</title>
<path fill="none" stroke="midnightblue" d="M432.617,-209.57C445.535,-216.264 461.957,-226.119 474,-238 495.329,-259.044 485.365,-277.944 510,-295 525.469,-305.71 545.678,-310.625 563.214,-312.794"/>
<polygon fill="midnightblue" stroke="midnightblue" points="562.879,-316.278 573.174,-313.777 563.566,-309.312 562.879,-316.278"/>
</g>
<!-- Node41 -->
<g id="node90" class="node"><title>Node41</title>
<a xlink:href="../../d0/deb/event_8c.html#a9c3c87f32e90d8fa0245d154fac61da9" target="_top" xlink:title="Deregisters a callback for a particular file descriptor.">
<polygon fill="none" stroke="black" points="519.5,-266.5 519.5,-285.5 686.5,-285.5 686.5,-266.5 519.5,-266.5"/>
<text text-anchor="middle" x="603" y="-273.5" font-family="DejaVuSansMono" font-size="10.00">event_deregister_callback</text>
</a>
</g>
<!-- Node33&#45;&gt;Node41 -->
<g id="edge98" class="edge"><title>Node33&#45;&gt;Node41</title>
<path fill="none" stroke="midnightblue" d="M428.057,-209.721C453.591,-225.122 501.451,-253.731 510,-257 516.991,-259.673 524.432,-261.999 531.936,-264.015"/>
<polygon fill="midnightblue" stroke="midnightblue" points="531.256,-267.452 541.807,-266.491 532.959,-260.663 531.256,-267.452"/>
</g>
<!-- Node42 -->
<g id="node92" class="node"><title>Node42</title>
<a xlink:href="../../d0/df0/xmpp__server_8c.html#ac84f99d96a630f056f36dc0aa9cac9dd" target="_top" xlink:title="Gets the event loop instance this server is using.">
<polygon fill="none" stroke="black" points="546.5,-228.5 546.5,-247.5 659.5,-247.5 659.5,-228.5 546.5,-228.5"/>
<text text-anchor="middle" x="603" y="-235.5" font-family="DejaVuSansMono" font-size="10.00">xmpp_server_loop</text>
</a>
</g>
<!-- Node33&#45;&gt;Node42 -->
<g id="edge100" class="edge"><title>Node33&#45;&gt;Node42</title>
<path fill="none" stroke="midnightblue" d="M459.945,-209.589C485.582,-214.716 517.336,-221.067 544.316,-226.463"/>
<polygon fill="midnightblue" stroke="midnightblue" points="543.908,-229.951 554.4,-228.48 545.28,-223.087 543.908,-229.951"/>
</g>
<!-- Node43 -->
<g id="node94" class="node"><title>Node43</title>
<a xlink:href="../../d4/d8e/client__socket_8c.html#a66a8a7fa65db357c88039c8589c7aaa9" target="_top" xlink:title="client_socket_fd">
<polygon fill="none" stroke="black" points="546.5,-190.5 546.5,-209.5 659.5,-209.5 659.5,-190.5 546.5,-190.5"/>
<text text-anchor="middle" x="603" y="-197.5" font-family="DejaVuSansMono" font-size="10.00">client_socket_fd</text>
</a>
</g>
<!-- Node33&#45;&gt;Node43 -->
<g id="edge102" class="edge"><title>Node33&#45;&gt;Node43</title>
<path fill="none" stroke="midnightblue" d="M464.673,-200C486.772,-200 512.712,-200 536.061,-200"/>
<polygon fill="midnightblue" stroke="midnightblue" points="536.235,-203.5 546.235,-200 536.235,-196.5 536.235,-203.5"/>
</g>
<!-- Node44 -->
<g id="node96" class="node"><title>Node44</title>
<a xlink:href="../../d4/d8e/client__socket_8c.html#abb4fb0de12fd5f701186d9b641ae0905" target="_top" xlink:title="Closes a client_socket.">
<polygon fill="none" stroke="black" points="537.5,-152.5 537.5,-171.5 668.5,-171.5 668.5,-152.5 537.5,-152.5"/>
<text text-anchor="middle" x="603" y="-159.5" font-family="DejaVuSansMono" font-size="10.00">client_socket_close</text>
</a>
</g>
<!-- Node33&#45;&gt;Node44 -->
<g id="edge104" class="edge"><title>Node33&#45;&gt;Node44</title>
<path fill="none" stroke="midnightblue" d="M459.945,-190.411C485.582,-185.284 517.336,-178.933 544.316,-173.537"/>
<polygon fill="midnightblue" stroke="midnightblue" points="545.28,-176.913 554.4,-171.52 543.908,-170.049 545.28,-176.913"/>
</g>
<!-- Node45 -->
<g id="node98" class="node"><title>Node45</title>
<a xlink:href="../../d4/d8e/client__socket_8c.html#a9983d6e2b69132508044b4c07bca147e" target="_top" xlink:title="Closes, cleans up and deallocates a client_socket structure.">
<polygon fill="none" stroke="black" points="543.5,-114.5 543.5,-133.5 662.5,-133.5 662.5,-114.5 543.5,-114.5"/>
<text text-anchor="middle" x="603" y="-121.5" font-family="DejaVuSansMono" font-size="10.00">client_socket_del</text>
</a>
</g>
<!-- Node33&#45;&gt;Node45 -->
<g id="edge106" class="edge"><title>Node33&#45;&gt;Node45</title>
<path fill="none" stroke="midnightblue" d="M425.25,-190.405C443.457,-177.674 477.644,-155.373 510,-143 517.473,-140.143 525.46,-137.682 533.489,-135.573"/>
<polygon fill="midnightblue" stroke="midnightblue" points="534.397,-138.954 543.274,-133.169 532.727,-132.156 534.397,-138.954"/>
</g>
<!-- Node46 -->
<g id="node100" class="node"><title>Node46</title>
<a xlink:href="../../d1/dc2/xmpp__parser_8c.html#a2620ca01bcf1a68025ec51681c6416f2" target="_top" xlink:title="xmpp_parser_del">
<polygon fill="none" stroke="black" points="549.5,-76.5 549.5,-95.5 656.5,-95.5 656.5,-76.5 549.5,-76.5"/>
<text text-anchor="middle" x="603" y="-83.5" font-family="DejaVuSansMono" font-size="10.00">xmpp_parser_del</text>
</a>
</g>
<!-- Node33&#45;&gt;Node46 -->
<g id="edge108" class="edge"><title>Node33&#45;&gt;Node46</title>
<path fill="none" stroke="midnightblue" d="M418.862,-190.371C433.312,-170.871 468.95,-126.725 510,-105 518.973,-100.251 529.023,-96.6882 539.094,-94.0154"/>
<polygon fill="midnightblue" stroke="midnightblue" points="540.214,-97.3466 549.133,-91.6283 538.595,-90.5365 540.214,-97.3466"/>
</g>
<!-- Node35&#45;&gt;Node4 -->
<g id="edge92" class="edge"><title>Node35&#45;&gt;Node4</title>
<path fill="none" stroke="midnightblue" d="M677.633,-56.5727C684.228,-59.2533 690.486,-62.6668 696,-67 725.388,-90.0936 712.386,-111.185 732,-143 748.809,-170.265 772.308,-198.96 787.589,-216.669"/>
<polygon fill="midnightblue" stroke="midnightblue" points="785.15,-219.197 794.365,-224.426 790.422,-214.592 785.15,-219.197"/>
</g>
<!-- Node35&#45;&gt;Node18 -->
<g id="edge86" class="edge"><title>Node35&#45;&gt;Node18</title>
<path fill="none" stroke="midnightblue" d="M661.355,-57.5465C735.871,-70.3264 858.555,-92.7974 876,-105 934.849,-146.163 969.37,-228.781 982.661,-266.462"/>
<polygon fill="midnightblue" stroke="midnightblue" points="979.447,-267.882 985.979,-276.224 986.075,-265.629 979.447,-267.882"/>
</g>
<!-- Node35&#45;&gt;Node32 -->
<g id="edge94" class="edge"><title>Node35&#45;&gt;Node32</title>
<path fill="none" stroke="midnightblue" d="M545.53,-57.5935C533.666,-60.1833 521.32,-63.3127 510,-67 407.704,-100.32 293.498,-158.778 243.197,-185.695"/>
<polygon fill="midnightblue" stroke="midnightblue" points="241.434,-182.669 234.288,-190.491 244.752,-188.832 241.434,-182.669"/>
</g>
<!-- Node36 -->
<g id="node77" class="node"><title>Node36</title>
<a xlink:href="../../d3/d5a/jid_8c.html#a3d51f2b27d20189e523b0d0b2a77e4a9" target="_top" xlink:title="Converts a JID to a newly allocated string.">
<polygon fill="none" stroke="black" points="765.5,-0.5 765.5,-19.5 842.5,-19.5 842.5,-0.5 765.5,-0.5"/>
<text text-anchor="middle" x="804" y="-7.5" font-family="DejaVuSansMono" font-size="10.00">jid_to_str</text>
</a>
</g>
<!-- Node35&#45;&gt;Node36 -->
<g id="edge82" class="edge"><title>Node35&#45;&gt;Node36</title>
<path fill="none" stroke="midnightblue" d="M653.959,-38.46C684.991,-32.5344 724.654,-24.9606 755.261,-19.116"/>
<polygon fill="midnightblue" stroke="midnightblue" points="756.102,-22.5187 765.268,-17.2051 754.789,-15.643 756.102,-22.5187"/>
</g>
<!-- Node37 -->
<g id="node79" class="node"><title>Node37</title>
<a xlink:href="../../dd/d4d/xmpp__client_8c.html#af963b026952bdbc45a4df0fa3d69b641" target="_top" xlink:title="Return the JID for this client.">
<polygon fill="none" stroke="black" points="750.5,-114.5 750.5,-133.5 857.5,-133.5 857.5,-114.5 750.5,-114.5"/>
<text text-anchor="middle" x="804" y="-121.5" font-family="DejaVuSansMono" font-size="10.00">xmpp_client_jid</text>
</a>
</g>
<!-- Node35&#45;&gt;Node37 -->
<g id="edge84" class="edge"><title>Node35&#45;&gt;Node37</title>
<path fill="none" stroke="midnightblue" d="M671.771,-57.6094C680.171,-60.061 688.45,-63.138 696,-67 715.324,-76.8841 713.316,-88.9533 732,-100 739.326,-104.331 747.543,-108.016 755.717,-111.102"/>
<polygon fill="midnightblue" stroke="midnightblue" points="754.644,-114.434 765.238,-114.452 756.967,-107.831 754.644,-114.434"/>
</g>
<!-- Node38 -->
<g id="node82" class="node"><title>Node38</title>
<a xlink:href="../../d4/d8e/client__socket_8c.html#a7cf0a0cfe0cf2bdccee28f6eab9aa632" target="_top" xlink:title="Send all data in a buffer to the connected socket.">
<polygon fill="none" stroke="black" points="732.5,-38.5 732.5,-57.5 875.5,-57.5 875.5,-38.5 732.5,-38.5"/>
<text text-anchor="middle" x="804" y="-45.5" font-family="DejaVuSansMono" font-size="10.00">client_socket_sendall</text>
</a>
</g>
<!-- Node35&#45;&gt;Node38 -->
<g id="edge88" class="edge"><title>Node35&#45;&gt;Node38</title>
<path fill="none" stroke="midnightblue" d="M677.535,-48C692.108,-48 707.48,-48 722.278,-48"/>
<polygon fill="midnightblue" stroke="midnightblue" points="722.413,-51.5001 732.413,-48 722.413,-44.5001 722.413,-51.5001"/>
</g>
<!-- Node39 -->
<g id="node84" class="node"><title>Node39</title>
<a xlink:href="../../d4/d8e/client__socket_8c.html#a164381b69f823fab1b8bce59ca03aefe" target="_top" xlink:title="Send some data to a client_socket.">
<polygon fill="none" stroke="black" points="927.5,-38.5 927.5,-57.5 1052.5,-57.5 1052.5,-38.5 927.5,-38.5"/>
<text text-anchor="middle" x="990" y="-45.5" font-family="DejaVuSansMono" font-size="10.00">client_socket_send</text>
</a>
</g>
<!-- Node38&#45;&gt;Node39 -->
<g id="edge90" class="edge"><title>Node38&#45;&gt;Node39</title>
<path fill="none" stroke="midnightblue" d="M875.613,-48C889.181,-48 903.405,-48 917.016,-48"/>
<polygon fill="midnightblue" stroke="midnightblue" points="917.283,-51.5001 927.283,-48 917.283,-44.5001 917.283,-51.5001"/>
</g>
</g>
</svg>
        <g id="navigator" transform="translate(0 0)" fill="#404254">
                <rect fill="#f2f5e9" fill-opacity="0.5" stroke="#606060" stroke-width=".5" x="0" y="0" width="60" height="60"/>
                <use id="zoomplus" xlink:href="#zoomPlus" x="17" y="9" onmousedown="handleZoom(evt,'in')"/>
                <use id="zoomminus" xlink:href="#zoomMin" x="42" y="9" onmousedown="handleZoom(evt,'out')"/>
                <use id="reset" xlink:href="#resetDef" x="30" y="36" onmousedown="handleReset()"/>
                <g id="arrowUp" xlink:href="#dirArrow" transform="translate(30 24)" onmousedown="handlePan(0,-1)">
                  <use xlink:href="#rim" fill="#404040">
                        <set attributeName="fill" to="#808080" begin="arrowUp.mouseover" end="arrowUp.mouseout"/>
                  </use>
                  <path fill="none" stroke="white" stroke-width="1.5" d="M0,-3.0v7 M-2.5,-0.5L0,-3.0L2.5,-0.5"/>
                </g>
                <g id="arrowRight" xlink:href="#dirArrow" transform="rotate(90) translate(36 -43)" onmousedown="handlePan(1,0)">
                  <use xlink:href="#rim" fill="#404040">
                        <set attributeName="fill" to="#808080" begin="arrowRight.mouseover" end="arrowRight.mouseout"/>
                  </use>
                  <path fill="none" stroke="white" stroke-width="1.5" d="M0,-3.0v7 M-2.5,-0.5L0,-3.0L2.5,-0.5"/>
                </g>
                <g id="arrowDown" xlink:href="#dirArrow" transform="rotate(180) translate(-30 -48)" onmousedown="handlePan(0,1)">
                  <use xlink:href="#rim" fill="#404040">
                        <set attributeName="fill" to="#808080" begin="arrowDown.mouseover" end="arrowDown.mouseout"/>
                  </use>
                  <path fill="none" stroke="white" stroke-width="1.5" d="M0,-3.0v7 M-2.5,-0.5L0,-3.0L2.5,-0.5"/>
                </g>
                <g id="arrowLeft" xlink:href="#dirArrow" transform="rotate(270) translate(-36 17)" onmousedown="handlePan(-1,0)">
                  <use xlink:href="#rim" fill="#404040">
                        <set attributeName="fill" to="#808080" begin="arrowLeft.mouseover" end="arrowLeft.mouseout"/>
                  </use>
                  <path fill="none" stroke="white" stroke-width="1.5" d="M0,-3.0v7 M-2.5,-0.5L0,-3.0L2.5,-0.5"/>
                </g>
        </g>
        <svg viewBox="0 0 25 25" width="100%" height="30px" preserveAspectRatio="xMaxYMin meet"> 
          <g id="printButton" transform="scale(0.4 0.4)" onmousedown="handlePrint(evt)">
            <rect height="23.33753581" id="paper" rx="2" style="fill:#f2f5e9;fill-rule:evenodd;stroke:#111111;stroke-width:3.224;stroke-linejoin:round;" transform="matrix(1.000000,0.000000,-0.339266,0.940691,0.000000,0.000000)" width="25.55231285" x="26.69387353" y="7.36162977"/>
            <rect height="26.272097" id="body" rx="2" style="fill:#404040;fill-rule:evenodd;stroke:#111111;stroke-width:3.125;stroke-linejoin:round;" width="50" x="4.5295201" y="27.078951"/>
            <rect height="8.27750969" id="tray" style="fill:#d2d5c9;fill-rule:evenodd;stroke:#111111;stroke-width:3.125;stroke-linecap:round;stroke-linejoin:round;" width="40" x="10.28778839" y="44.96812282"/>
          </g>
        </svg>
</svg>
