<?xml version="1.0" encoding="UTF-8" standalone="no"?>
<!DOCTYPE svg PUBLIC "-//W3C//DTD SVG 1.1//EN"
 "http://www.w3.org/Graphics/SVG/1.1/DTD/svg11.dtd">
<!-- Generated by graphviz version 2.28.0 (20120217.0315)
 -->
<!-- Title: G Pages: 1 -->
<svg width="338pt" height="47pt"
 viewBox="0.00 0.00 338.00 47.00" xmlns="http://www.w3.org/2000/svg" xmlns:xlink="http://www.w3.org/1999/xlink">
<g id="graph1" class="graph" transform="scale(1 1) rotate(0) translate(4 43)">
<title>G</title>
<!-- Node1 -->
<g id="node1" class="node"><title>Node1</title>
<polygon fill="#bfbfbf" stroke="black" points="0.5,-19.5 0.5,-38.5 107.5,-38.5 107.5,-19.5 0.5,-19.5"/>
<text text-anchor="middle" x="54" y="-26.5" font-family="DejaVuSansMono" font-size="10.00">xmpp_server_del</text>
</g>
<!-- Node2 -->
<g id="node3" class="node"><title>Node2</title>
<a xlink:href="../../d0/d29/main_8c.html#a0ddf1224851353fc92bfbff6f499fa97" target="_top" xlink:title="main">
<polygon fill="none" stroke="black" points="288.5,-19.5 288.5,-38.5 329.5,-38.5 329.5,-19.5 288.5,-19.5"/>
<text text-anchor="middle" x="309" y="-26.5" font-family="DejaVuSansMono" font-size="10.00">main</text>
</a>
</g>
<!-- Node1&#45;&gt;Node2 -->
<g id="edge2" class="edge"><title>Node1&#45;&gt;Node2</title>
<path fill="none" stroke="midnightblue" d="M117.898,-29C173.838,-29 252.206,-29 288.337,-29"/>
<polygon fill="midnightblue" stroke="midnightblue" points="117.729,-25.5001 107.729,-29 117.729,-32.5001 117.729,-25.5001"/>
</g>
<!-- Node3 -->
<g id="node5" class="node"><title>Node3</title>
<a xlink:href="../../d1/d2e/xmpp__server_8h.html#a27bfc8e4d424a8bc17ab21a4a09cdf92" target="_top" xlink:title="Allocates and initializes the XMPP server.">
<polygon fill="none" stroke="black" points="144.5,-0.5 144.5,-19.5 251.5,-19.5 251.5,-0.5 144.5,-0.5"/>
<text text-anchor="middle" x="198" y="-7.5" font-family="DejaVuSansMono" font-size="10.00">xmpp_server_new</text>
</a>
</g>
<!-- Node1&#45;&gt;Node3 -->
<g id="edge4" class="edge"><title>Node1&#45;&gt;Node3</title>
<path fill="none" stroke="midnightblue" d="M117.994,-20.5712C126.704,-19.4057 135.578,-18.2185 144.08,-17.0808"/>
<polygon fill="midnightblue" stroke="midnightblue" points="117.323,-17.1297 107.876,-21.9251 118.251,-24.0679 117.323,-17.1297"/>
</g>
<!-- Node3&#45;&gt;Node2 -->
<g id="edge6" class="edge"><title>Node3&#45;&gt;Node2</title>
<path fill="none" stroke="midnightblue" d="M261.445,-20.8849C271.237,-22.5918 280.68,-24.2378 288.472,-25.596"/>
<polygon fill="midnightblue" stroke="midnightblue" points="262.037,-17.4354 251.584,-19.1661 260.835,-24.3314 262.037,-17.4354"/>
</g>
</g>
</svg>
