<?xml version="1.0" encoding="UTF-8" standalone="no"?>
<!DOCTYPE svg PUBLIC "-//W3C//DTD SVG 1.1//EN"
 "http://www.w3.org/Graphics/SVG/1.1/DTD/svg11.dtd">
<!-- Generated by graphviz version 2.28.0 (20120217.0315)
 -->
<!-- Title: G Pages: 1 -->
<svg width="272pt" height="66pt"
 viewBox="0.00 0.00 272.00 66.00" xmlns="http://www.w3.org/2000/svg" xmlns:xlink="http://www.w3.org/1999/xlink">
<g id="graph1" class="graph" transform="scale(1 1) rotate(0) translate(4 62)">
<title>G</title>
<!-- Node1 -->
<g id="node1" class="node"><title>Node1</title>
<polygon fill="#bfbfbf" stroke="black" points="0.5,-19.5 0.5,-38.5 83.5,-38.5 83.5,-19.5 0.5,-19.5"/>
<text text-anchor="middle" x="42" y="-26.5" font-family="DejaVuSansMono" font-size="10.00">init_socket</text>
</g>
<!-- Node2 -->
<g id="node3" class="node"><title>Node2</title>
<a xlink:href="../../dd/d68/xmp3__options_8c.html#a8f2e47d0d2d44cb1ab251a7fbdac2aed" target="_top" xlink:title="Get the port that the server will bind to.">
<polygon fill="none" stroke="black" points="120.5,-38.5 120.5,-57.5 263.5,-57.5 263.5,-38.5 120.5,-38.5"/>
<text text-anchor="middle" x="192" y="-45.5" font-family="DejaVuSansMono" font-size="10.00">xmp3_options_get_port</text>
</a>
</g>
<!-- Node1&#45;&gt;Node2 -->
<g id="edge2" class="edge"><title>Node1&#45;&gt;Node2</title>
<path fill="none" stroke="midnightblue" d="M83.8334,-34.2421C92.1903,-35.315 101.259,-36.4792 110.463,-37.6608"/>
<polygon fill="midnightblue" stroke="midnightblue" points="110.113,-41.1445 120.477,-38.9464 111.004,-34.2014 110.113,-41.1445"/>
</g>
<!-- Node3 -->
<g id="node5" class="node"><title>Node3</title>
<a xlink:href="../../dd/d68/xmp3__options_8c.html#a7aeb503b1902d9541ab828903c8ee6fe" target="_top" xlink:title="Get the address that the server will bind to.">
<polygon fill="none" stroke="black" points="120.5,-0.5 120.5,-19.5 263.5,-19.5 263.5,-0.5 120.5,-0.5"/>
<text text-anchor="middle" x="192" y="-7.5" font-family="DejaVuSansMono" font-size="10.00">xmp3_options_get_addr</text>
</a>
</g>
<!-- Node1&#45;&gt;Node3 -->
<g id="edge4" class="edge"><title>Node1&#45;&gt;Node3</title>
<path fill="none" stroke="midnightblue" d="M83.8334,-23.7579C92.1903,-22.685 101.259,-21.5208 110.463,-20.3392"/>
<polygon fill="midnightblue" stroke="midnightblue" points="111.004,-23.7986 120.477,-19.0536 110.113,-16.8555 111.004,-23.7986"/>
</g>
</g>
</svg>
