<?xml version="1.0" encoding="UTF-8" standalone="no"?>
<!DOCTYPE svg PUBLIC "-//W3C//DTD SVG 1.1//EN"
 "http://www.w3.org/Graphics/SVG/1.1/DTD/svg11.dtd">
<!-- Generated by graphviz version 2.28.0 (20120217.0315)
 -->
<!-- Title: G Pages: 1 -->
<!--zoomable 408 -->
<svg id="main" version="1.1" xmlns="http://www.w3.org/2000/svg" xmlns:xlink="http://www.w3.org/1999/xlink" xml:space="preserve" onload="init(evt)">
        <defs>
                <circle id="rim" cx="0" cy="0" r="7"/>
                <circle id="rim2" cx="0" cy="0" r="3.5"/>
                <g id="zoomPlus">
                        <use xlink:href="#rim" fill="#404040">
                                <set attributeName="fill" to="#808080" begin="zoomplus.mouseover" end="zoomplus.mouseout"/>
                        </use>
                        <path d="M-4,0h8M0,-4v8" fill="none" stroke="white" stroke-width="1.5" pointer-events="none"/>
                </g>
                <g id="zoomMin">
                        <use xlink:href="#rim" fill="#404040">
                                <set attributeName="fill" to="#808080" begin="zoomminus.mouseover" end="zoomminus.mouseout"/>
                        </use>
                        <path d="M-4,0h8" fill="none" stroke="white" stroke-width="1.5" pointer-events="none"/>
                </g>
                <g id="dirArrow">
                        <path fill="none" stroke="white" stroke-width="1.5" d="M0,-3.0v7 M-2.5,-0.5L0,-3.0L2.5,-0.5"/>
                </g>
               <g id="resetDef">
                       <use xlink:href="#rim2" fill="#404040">
                               <set attributeName="fill" to="#808080" begin="reset.mouseover" end="reset.mouseout"/>
                       </use>
               </g>
        </defs>

<script type="text/javascript">
var viewWidth = 1148;
var viewHeight = 408;
var sectionId = 'dynsection-38';
</script>
<script xlink:href="../../svgpan.js"/>
<svg id="graph" class="graph">
<g id="viewport">
<title>G</title>
<!-- Node1 -->
<g id="node1" class="node"><title>Node1</title>
<polygon fill="#bfbfbf" stroke="black" points="0.5,-266.5 0.5,-285.5 191.5,-285.5 191.5,-266.5 0.5,-266.5"/>
<text text-anchor="middle" x="96" y="-273.5" font-family="DejaVuSansMono" font-size="10.00">xmpp_server_disconnect_client</text>
</g>
<!-- Node2 -->
<g id="node3" class="node"><title>Node2</title>
<a xlink:href="../../dd/d4d/xmpp__client_8c.html#a5ff8a826aface187b00ffcdfb7ce125a" target="_top" xlink:title="Return the server this client is connected to.">
<polygon fill="none" stroke="black" points="228.5,-304.5 228.5,-323.5 353.5,-323.5 353.5,-304.5 228.5,-304.5"/>
<text text-anchor="middle" x="291" y="-311.5" font-family="DejaVuSansMono" font-size="10.00">xmpp_client_server</text>
</a>
</g>
<!-- Node1&#45;&gt;Node2 -->
<g id="edge2" class="edge"><title>Node1&#45;&gt;Node2</title>
<path fill="none" stroke="midnightblue" d="M145.702,-285.589C171.859,-290.739 204.284,-297.123 231.767,-302.534"/>
<polygon fill="midnightblue" stroke="midnightblue" points="231.16,-305.982 241.648,-304.48 232.513,-299.114 231.16,-305.982"/>
</g>
<!-- Node3 -->
<g id="node5" class="node"><title>Node3</title>
<a xlink:href="../../dd/d4d/xmpp__client_8c.html#add2df61245a543667b6d98e3fcd57077" target="_top" xlink:title="xmpp_client_del">
<polygon fill="none" stroke="black" points="237.5,-171.5 237.5,-190.5 344.5,-190.5 344.5,-171.5 237.5,-171.5"/>
<text text-anchor="middle" x="291" y="-178.5" font-family="DejaVuSansMono" font-size="10.00">xmpp_client_del</text>
</a>
</g>
<!-- Node1&#45;&gt;Node3 -->
<g id="edge4" class="edge"><title>Node1&#45;&gt;Node3</title>
<path fill="none" stroke="midnightblue" d="M116.568,-266.368C150.83,-249.503 221.808,-214.566 261.52,-195.019"/>
<polygon fill="midnightblue" stroke="midnightblue" points="263.241,-198.073 270.667,-190.516 260.149,-191.792 263.241,-198.073"/>
</g>
<!-- Node4 -->
<g id="node7" class="node"><title>Node4</title>
<a xlink:href="../../d0/df0/xmpp__server_8c.html#af2e493f9f89b437fae7212b941c536cf" target="_top" xlink:title="Remove a callback from the list of routes for stanza delivery.">
<polygon fill="none" stroke="black" points="390.5,-266.5 390.5,-285.5 575.5,-285.5 575.5,-266.5 390.5,-266.5"/>
<text text-anchor="middle" x="483" y="-273.5" font-family="DejaVuSansMono" font-size="10.00">xmpp_server_del_stanza_route</text>
</a>
</g>
<!-- Node3&#45;&gt;Node4 -->
<g id="edge6" class="edge"><title>Node3&#45;&gt;Node4</title>
<path fill="none" stroke="midnightblue" d="M301.288,-190.654C317.617,-207.016 353.235,-240.066 390,-257 395.409,-259.492 401.147,-261.659 407.01,-263.544"/>
<polygon fill="midnightblue" stroke="midnightblue" points="406.378,-267.006 416.958,-266.457 408.345,-260.288 406.378,-267.006"/>
</g>
<!-- Node5 -->
<g id="node9" class="node"><title>Node5</title>
<a xlink:href="../../d6/d13/xmpp__core_8c.html#a3b41e83061abd7ed5b258c7aa7dda0d6" target="_top" xlink:title="An xmpp_server stanza route for stanzas directed to a local client.">
<polygon fill="none" stroke="black" points="408.5,-304.5 408.5,-323.5 557.5,-323.5 557.5,-304.5 408.5,-304.5"/>
<text text-anchor="middle" x="483" y="-311.5" font-family="DejaVuSansMono" font-size="10.00">xmpp_core_route_client</text>
</a>
</g>
<!-- Node3&#45;&gt;Node5 -->
<g id="edge8" class="edge"><title>Node3&#45;&gt;Node5</title>
<path fill="none" stroke="midnightblue" d="M299.104,-190.786C317.494,-215.854 366.835,-281.359 390,-295 393.715,-297.188 397.645,-299.127 401.704,-300.844"/>
<polygon fill="midnightblue" stroke="midnightblue" points="400.78,-304.235 411.372,-304.464 403.234,-297.68 400.78,-304.235"/>
</g>
<!-- Node16 -->
<g id="node32" class="node"><title>Node16</title>
<a xlink:href="../../d3/d5a/jid_8c.html#ab83fd5aae95de2c9d38fb9d9cd161580" target="_top" xlink:title="Cleans up and frees an existing JID.">
<polygon fill="none" stroke="black" points="453.5,-228.5 453.5,-247.5 512.5,-247.5 512.5,-228.5 453.5,-228.5"/>
<text text-anchor="middle" x="483" y="-235.5" font-family="DejaVuSansMono" font-size="10.00">jid_del</text>
</a>
</g>
<!-- Node3&#45;&gt;Node16 -->
<g id="edge32" class="edge"><title>Node3&#45;&gt;Node16</title>
<path fill="none" stroke="midnightblue" d="M313.438,-190.505C333.057,-198.914 363.046,-211.051 390,-219 407.23,-224.081 426.663,-228.307 443.215,-231.473"/>
<polygon fill="midnightblue" stroke="midnightblue" points="442.632,-234.925 453.103,-233.306 443.908,-228.042 442.632,-234.925"/>
</g>
<!-- Node17 -->
<g id="node34" class="node"><title>Node17</title>
<a xlink:href="../../d0/deb/event_8c.html#a9c3c87f32e90d8fa0245d154fac61da9" target="_top" xlink:title="Deregisters a callback for a particular file descriptor.">
<polygon fill="none" stroke="black" points="399.5,-190.5 399.5,-209.5 566.5,-209.5 566.5,-190.5 399.5,-190.5"/>
<text text-anchor="middle" x="483" y="-197.5" font-family="DejaVuSansMono" font-size="10.00">event_deregister_callback</text>
</a>
</g>
<!-- Node3&#45;&gt;Node17 -->
<g id="edge34" class="edge"><title>Node3&#45;&gt;Node17</title>
<path fill="none" stroke="midnightblue" d="M344.673,-186.267C358.547,-187.655 373.935,-189.193 389.245,-190.724"/>
<polygon fill="midnightblue" stroke="midnightblue" points="388.979,-194.215 399.277,-191.728 389.675,-187.25 388.979,-194.215"/>
</g>
<!-- Node18 -->
<g id="node36" class="node"><title>Node18</title>
<a xlink:href="../../d0/df0/xmpp__server_8c.html#ac84f99d96a630f056f36dc0aa9cac9dd" target="_top" xlink:title="Gets the event loop instance this server is using.">
<polygon fill="none" stroke="black" points="426.5,-152.5 426.5,-171.5 539.5,-171.5 539.5,-152.5 426.5,-152.5"/>
<text text-anchor="middle" x="483" y="-159.5" font-family="DejaVuSansMono" font-size="10.00">xmpp_server_loop</text>
</a>
</g>
<!-- Node3&#45;&gt;Node18 -->
<g id="edge36" class="edge"><title>Node3&#45;&gt;Node18</title>
<path fill="none" stroke="midnightblue" d="M344.673,-175.733C366.772,-173.523 392.712,-170.929 416.061,-168.594"/>
<polygon fill="midnightblue" stroke="midnightblue" points="416.633,-172.054 426.235,-167.576 415.936,-165.089 416.633,-172.054"/>
</g>
<!-- Node19 -->
<g id="node38" class="node"><title>Node19</title>
<a xlink:href="../../d4/d8e/client__socket_8c.html#a66a8a7fa65db357c88039c8589c7aaa9" target="_top" xlink:title="client_socket_fd">
<polygon fill="none" stroke="black" points="426.5,-114.5 426.5,-133.5 539.5,-133.5 539.5,-114.5 426.5,-114.5"/>
<text text-anchor="middle" x="483" y="-121.5" font-family="DejaVuSansMono" font-size="10.00">client_socket_fd</text>
</a>
</g>
<!-- Node3&#45;&gt;Node19 -->
<g id="edge38" class="edge"><title>Node3&#45;&gt;Node19</title>
<path fill="none" stroke="midnightblue" d="M313.438,-171.495C333.057,-163.086 363.046,-150.949 390,-143 399.056,-140.329 408.721,-137.895 418.256,-135.726"/>
<polygon fill="midnightblue" stroke="midnightblue" points="419.097,-139.125 428.115,-133.564 417.597,-132.288 419.097,-139.125"/>
</g>
<!-- Node20 -->
<g id="node40" class="node"><title>Node20</title>
<a xlink:href="../../d4/d8e/client__socket_8c.html#abb4fb0de12fd5f701186d9b641ae0905" target="_top" xlink:title="Closes a client_socket.">
<polygon fill="none" stroke="black" points="417.5,-76.5 417.5,-95.5 548.5,-95.5 548.5,-76.5 417.5,-76.5"/>
<text text-anchor="middle" x="483" y="-83.5" font-family="DejaVuSansMono" font-size="10.00">client_socket_close</text>
</a>
</g>
<!-- Node3&#45;&gt;Node20 -->
<g id="edge40" class="edge"><title>Node3&#45;&gt;Node20</title>
<path fill="none" stroke="midnightblue" d="M301.288,-171.346C317.617,-154.984 353.235,-121.934 390,-105 395.638,-102.403 401.634,-100.158 407.756,-98.2182"/>
<polygon fill="midnightblue" stroke="midnightblue" points="408.813,-101.556 417.446,-95.4139 406.867,-94.8316 408.813,-101.556"/>
</g>
<!-- Node21 -->
<g id="node42" class="node"><title>Node21</title>
<a xlink:href="../../d4/d8e/client__socket_8c.html#a9983d6e2b69132508044b4c07bca147e" target="_top" xlink:title="Closes, cleans up and deallocates a client_socket structure.">
<polygon fill="none" stroke="black" points="423.5,-38.5 423.5,-57.5 542.5,-57.5 542.5,-38.5 423.5,-38.5"/>
<text text-anchor="middle" x="483" y="-45.5" font-family="DejaVuSansMono" font-size="10.00">client_socket_del</text>
</a>
</g>
<!-- Node3&#45;&gt;Node21 -->
<g id="edge42" class="edge"><title>Node3&#45;&gt;Node21</title>
<path fill="none" stroke="midnightblue" d="M297.178,-171.494C309.818,-149.265 344.571,-93.7519 390,-67 397.273,-62.7173 405.365,-59.3897 413.647,-56.806"/>
<polygon fill="midnightblue" stroke="midnightblue" points="414.716,-60.1419 423.42,-54.1021 412.849,-53.3954 414.716,-60.1419"/>
</g>
<!-- Node22 -->
<g id="node44" class="node"><title>Node22</title>
<a xlink:href="../../d1/dc2/xmpp__parser_8c.html#a2620ca01bcf1a68025ec51681c6416f2" target="_top" xlink:title="xmpp_parser_del">
<polygon fill="none" stroke="black" points="429.5,-0.5 429.5,-19.5 536.5,-19.5 536.5,-0.5 429.5,-0.5"/>
<text text-anchor="middle" x="483" y="-7.5" font-family="DejaVuSansMono" font-size="10.00">xmpp_parser_del</text>
</a>
</g>
<!-- Node3&#45;&gt;Node22 -->
<g id="edge44" class="edge"><title>Node3&#45;&gt;Node22</title>
<path fill="none" stroke="midnightblue" d="M295.224,-171.263C304.806,-143.934 335.873,-66.1015 390,-29 398.767,-22.9905 409.033,-18.8094 419.466,-15.9153"/>
<polygon fill="midnightblue" stroke="midnightblue" points="420.568,-19.2505 429.477,-13.5171 418.937,-12.4431 420.568,-19.2505"/>
</g>
<!-- Node5&#45;&gt;Node1 -->
<g id="edge30" class="edge"><title>Node5&#45;&gt;Node1</title>
<path fill="none" stroke="midnightblue" d="M424.133,-304.489C402.211,-301.128 376.998,-297.554 354,-295 304.081,-289.457 248.521,-285.122 201.867,-282.001"/>
<polygon fill="midnightblue" stroke="midnightblue" points="201.956,-278.5 191.747,-281.334 201.495,-285.484 201.956,-278.5"/>
</g>
<!-- Node6 -->
<g id="node11" class="node"><title>Node6</title>
<a xlink:href="../../d3/d5a/jid_8c.html#a3d51f2b27d20189e523b0d0b2a77e4a9" target="_top" xlink:title="Converts a JID to a newly allocated string.">
<polygon fill="none" stroke="black" points="645.5,-380.5 645.5,-399.5 722.5,-399.5 722.5,-380.5 645.5,-380.5"/>
<text text-anchor="middle" x="684" y="-387.5" font-family="DejaVuSansMono" font-size="10.00">jid_to_str</text>
</a>
</g>
<!-- Node5&#45;&gt;Node6 -->
<g id="edge10" class="edge"><title>Node5&#45;&gt;Node6</title>
<path fill="none" stroke="midnightblue" d="M503.13,-323.661C527.82,-335.863 572.328,-356.957 612,-371 619.527,-373.665 627.617,-376.162 635.545,-378.414"/>
<polygon fill="midnightblue" stroke="midnightblue" points="634.875,-381.86 645.445,-381.131 636.727,-375.109 634.875,-381.86"/>
</g>
<!-- Node7 -->
<g id="node13" class="node"><title>Node7</title>
<a xlink:href="../../dd/d4d/xmpp__client_8c.html#af963b026952bdbc45a4df0fa3d69b641" target="_top" xlink:title="Return the JID for this client.">
<polygon fill="none" stroke="black" points="630.5,-342.5 630.5,-361.5 737.5,-361.5 737.5,-342.5 630.5,-342.5"/>
<text text-anchor="middle" x="684" y="-349.5" font-family="DejaVuSansMono" font-size="10.00">xmpp_client_jid</text>
</a>
</g>
<!-- Node5&#45;&gt;Node7 -->
<g id="edge12" class="edge"><title>Node5&#45;&gt;Node7</title>
<path fill="none" stroke="midnightblue" d="M533.959,-323.54C561.045,-328.712 594.708,-335.14 623.183,-340.578"/>
<polygon fill="midnightblue" stroke="midnightblue" points="622.541,-344.018 633.02,-342.456 623.854,-337.142 622.541,-344.018"/>
</g>
<!-- Node8 -->
<g id="node15" class="node"><title>Node8</title>
<a xlink:href="../../d1/d59/xmpp__stanza_8c.html#a513b6e2da3dce364271ba9315d7b3d95" target="_top" xlink:title="Returns the stanza (and its children) packed into a null&#45;terminated string.">
<polygon fill="none" stroke="black" points="621.5,-304.5 621.5,-323.5 746.5,-323.5 746.5,-304.5 621.5,-304.5"/>
<text text-anchor="middle" x="684" y="-311.5" font-family="DejaVuSansMono" font-size="10.00">xmpp_stanza_string</text>
</a>
</g>
<!-- Node5&#45;&gt;Node8 -->
<g id="edge14" class="edge"><title>Node5&#45;&gt;Node8</title>
<path fill="none" stroke="midnightblue" d="M557.535,-314C575.027,-314 593.671,-314 611.09,-314"/>
<polygon fill="midnightblue" stroke="midnightblue" points="611.187,-317.5 621.187,-314 611.187,-310.5 611.187,-317.5"/>
</g>
<!-- Node13 -->
<g id="node25" class="node"><title>Node13</title>
<a xlink:href="../../d4/d8e/client__socket_8c.html#a7cf0a0cfe0cf2bdccee28f6eab9aa632" target="_top" xlink:title="Send all data in a buffer to the connected socket.">
<polygon fill="none" stroke="black" points="612.5,-266.5 612.5,-285.5 755.5,-285.5 755.5,-266.5 612.5,-266.5"/>
<text text-anchor="middle" x="684" y="-273.5" font-family="DejaVuSansMono" font-size="10.00">client_socket_sendall</text>
</a>
</g>
<!-- Node5&#45;&gt;Node13 -->
<g id="edge24" class="edge"><title>Node5&#45;&gt;Node13</title>
<path fill="none" stroke="midnightblue" d="M533.959,-304.46C561.045,-299.288 594.708,-292.86 623.183,-287.422"/>
<polygon fill="midnightblue" stroke="midnightblue" points="623.854,-290.858 633.02,-285.544 622.541,-283.982 623.854,-290.858"/>
</g>
<!-- Node15 -->
<g id="node29" class="node"><title>Node15</title>
<a xlink:href="../../dd/d4d/xmpp__client_8c.html#a07c89140b5b826454868ac9395e2efd7" target="_top" xlink:title="Return the socket used to communicate with this client.">
<polygon fill="none" stroke="black" points="621.5,-228.5 621.5,-247.5 746.5,-247.5 746.5,-228.5 621.5,-228.5"/>
<text text-anchor="middle" x="684" y="-235.5" font-family="DejaVuSansMono" font-size="10.00">xmpp_client_socket</text>
</a>
</g>
<!-- Node5&#45;&gt;Node15 -->
<g id="edge28" class="edge"><title>Node5&#45;&gt;Node15</title>
<path fill="none" stroke="midnightblue" d="M553.483,-304.447C561.338,-301.983 569.018,-298.888 576,-295 596.326,-283.683 592.009,-268.9 612,-257 615.639,-254.834 619.527,-252.91 623.54,-251.202"/>
<polygon fill="midnightblue" stroke="midnightblue" points="624.954,-254.409 633.068,-247.596 622.476,-247.862 624.954,-254.409"/>
</g>
<!-- Node9 -->
<g id="node17" class="node"><title>Node9</title>
<a xlink:href="../../d1/d59/xmpp__stanza_8c.html#aae8c30c30fcbc2325d34897f8035ca46" target="_top" xlink:title="Function that gets called recursively to convert a stanza to a string.">
<polygon fill="none" stroke="black" points="810.5,-304.5 810.5,-323.5 899.5,-323.5 899.5,-304.5 810.5,-304.5"/>
<text text-anchor="middle" x="855" y="-311.5" font-family="DejaVuSansMono" font-size="10.00">stanza_tostr</text>
</a>
</g>
<!-- Node8&#45;&gt;Node9 -->
<g id="edge16" class="edge"><title>Node8&#45;&gt;Node9</title>
<path fill="none" stroke="midnightblue" d="M746.97,-314C764.367,-314 783.138,-314 800.029,-314"/>
<polygon fill="midnightblue" stroke="midnightblue" points="800.274,-317.5 810.274,-314 800.274,-310.5 800.274,-317.5"/>
</g>
<!-- Node10 -->
<g id="node19" class="node"><title>Node10</title>
<a xlink:href="../../d1/dc2/xmpp__parser_8c.html#acce8bfe5926da4e64c3b5038dc683618" target="_top" xlink:title="xmpp_parser_namespace_prefix">
<polygon fill="none" stroke="black" points="954.5,-342.5 954.5,-361.5 1139.5,-361.5 1139.5,-342.5 954.5,-342.5"/>
<text text-anchor="middle" x="1047" y="-349.5" font-family="DejaVuSansMono" font-size="10.00">xmpp_parser_namespace_prefix</text>
</a>
</g>
<!-- Node9&#45;&gt;Node10 -->
<g id="edge18" class="edge"><title>Node9&#45;&gt;Node10</title>
<path fill="none" stroke="midnightblue" d="M899.59,-322.718C925.953,-327.991 959.875,-334.775 988.428,-340.486"/>
<polygon fill="midnightblue" stroke="midnightblue" points="987.79,-343.927 998.282,-342.456 989.163,-337.063 987.79,-343.927"/>
</g>
<!-- Node11 -->
<g id="node21" class="node"><title>Node11</title>
<a xlink:href="../../d1/dc2/xmpp__parser_8c.html#afde3cf0e74a12bfe4ac90fa8dbae51a0" target="_top" xlink:title="xmpp_parser_namespace_uri">
<polygon fill="none" stroke="black" points="963.5,-304.5 963.5,-323.5 1130.5,-323.5 1130.5,-304.5 963.5,-304.5"/>
<text text-anchor="middle" x="1047" y="-311.5" font-family="DejaVuSansMono" font-size="10.00">xmpp_parser_namespace_uri</text>
</a>
</g>
<!-- Node9&#45;&gt;Node11 -->
<g id="edge20" class="edge"><title>Node9&#45;&gt;Node11</title>
<path fill="none" stroke="midnightblue" d="M899.59,-314C915.656,-314 934.53,-314 953.285,-314"/>
<polygon fill="midnightblue" stroke="midnightblue" points="953.368,-317.5 963.368,-314 953.368,-310.5 953.368,-317.5"/>
</g>
<!-- Node12 -->
<g id="node23" class="node"><title>Node12</title>
<a xlink:href="../../d1/dc2/xmpp__parser_8c.html#af924e15caac53b347a48878fcb046bc4" target="_top" xlink:title="Return the next namespace in the namespace list.">
<polygon fill="none" stroke="black" points="960.5,-266.5 960.5,-285.5 1133.5,-285.5 1133.5,-266.5 960.5,-266.5"/>
<text text-anchor="middle" x="1047" y="-273.5" font-family="DejaVuSansMono" font-size="10.00">xmpp_parser_namespace_next</text>
</a>
</g>
<!-- Node9&#45;&gt;Node12 -->
<g id="edge22" class="edge"><title>Node9&#45;&gt;Node12</title>
<path fill="none" stroke="midnightblue" d="M899.59,-305.282C925.953,-300.009 959.875,-293.225 988.428,-287.514"/>
<polygon fill="midnightblue" stroke="midnightblue" points="989.163,-290.937 998.282,-285.544 987.79,-284.073 989.163,-290.937"/>
</g>
<!-- Node14 -->
<g id="node27" class="node"><title>Node14</title>
<a xlink:href="../../d4/d8e/client__socket_8c.html#a164381b69f823fab1b8bce59ca03aefe" target="_top" xlink:title="Send some data to a client_socket.">
<polygon fill="none" stroke="black" points="792.5,-266.5 792.5,-285.5 917.5,-285.5 917.5,-266.5 792.5,-266.5"/>
<text text-anchor="middle" x="855" y="-273.5" font-family="DejaVuSansMono" font-size="10.00">client_socket_send</text>
</a>
</g>
<!-- Node13&#45;&gt;Node14 -->
<g id="edge26" class="edge"><title>Node13&#45;&gt;Node14</title>
<path fill="none" stroke="midnightblue" d="M755.692,-276C764.468,-276 773.449,-276 782.242,-276"/>
<polygon fill="midnightblue" stroke="midnightblue" points="782.453,-279.5 792.453,-276 782.453,-272.5 782.453,-279.5"/>
</g>
</g>
</svg>
        <g id="navigator" transform="translate(0 0)" fill="#404254">
                <rect fill="#f2f5e9" fill-opacity="0.5" stroke="#606060" stroke-width=".5" x="0" y="0" width="60" height="60"/>
                <use id="zoomplus" xlink:href="#zoomPlus" x="17" y="9" onmousedown="handleZoom(evt,'in')"/>
                <use id="zoomminus" xlink:href="#zoomMin" x="42" y="9" onmousedown="handleZoom(evt,'out')"/>
                <use id="reset" xlink:href="#resetDef" x="30" y="36" onmousedown="handleReset()"/>
                <g id="arrowUp" xlink:href="#dirArrow" transform="translate(30 24)" onmousedown="handlePan(0,-1)">
                  <use xlink:href="#rim" fill="#404040">
                        <set attributeName="fill" to="#808080" begin="arrowUp.mouseover" end="arrowUp.mouseout"/>
                  </use>
                  <path fill="none" stroke="white" stroke-width="1.5" d="M0,-3.0v7 M-2.5,-0.5L0,-3.0L2.5,-0.5"/>
                </g>
                <g id="arrowRight" xlink:href="#dirArrow" transform="rotate(90) translate(36 -43)" onmousedown="handlePan(1,0)">
                  <use xlink:href="#rim" fill="#404040">
                        <set attributeName="fill" to="#808080" begin="arrowRight.mouseover" end="arrowRight.mouseout"/>
                  </use>
                  <path fill="none" stroke="white" stroke-width="1.5" d="M0,-3.0v7 M-2.5,-0.5L0,-3.0L2.5,-0.5"/>
                </g>
                <g id="arrowDown" xlink:href="#dirArrow" transform="rotate(180) translate(-30 -48)" onmousedown="handlePan(0,1)">
                  <use xlink:href="#rim" fill="#404040">
                        <set attributeName="fill" to="#808080" begin="arrowDown.mouseover" end="arrowDown.mouseout"/>
                  </use>
                  <path fill="none" stroke="white" stroke-width="1.5" d="M0,-3.0v7 M-2.5,-0.5L0,-3.0L2.5,-0.5"/>
                </g>
                <g id="arrowLeft" xlink:href="#dirArrow" transform="rotate(270) translate(-36 17)" onmousedown="handlePan(-1,0)">
                  <use xlink:href="#rim" fill="#404040">
                        <set attributeName="fill" to="#808080" begin="arrowLeft.mouseover" end="arrowLeft.mouseout"/>
                  </use>
                  <path fill="none" stroke="white" stroke-width="1.5" d="M0,-3.0v7 M-2.5,-0.5L0,-3.0L2.5,-0.5"/>
                </g>
        </g>
        <svg viewBox="0 0 25 25" width="100%" height="30px" preserveAspectRatio="xMaxYMin meet"> 
          <g id="printButton" transform="scale(0.4 0.4)" onmousedown="handlePrint(evt)">
            <rect height="23.33753581" id="paper" rx="2" style="fill:#f2f5e9;fill-rule:evenodd;stroke:#111111;stroke-width:3.224;stroke-linejoin:round;" transform="matrix(1.000000,0.000000,-0.339266,0.940691,0.000000,0.000000)" width="25.55231285" x="26.69387353" y="7.36162977"/>
            <rect height="26.272097" id="body" rx="2" style="fill:#404040;fill-rule:evenodd;stroke:#111111;stroke-width:3.125;stroke-linejoin:round;" width="50" x="4.5295201" y="27.078951"/>
            <rect height="8.27750969" id="tray" style="fill:#d2d5c9;fill-rule:evenodd;stroke:#111111;stroke-width:3.125;stroke-linecap:round;stroke-linejoin:round;" width="40" x="10.28778839" y="44.96812282"/>
          </g>
        </svg>
</svg>
