<?xml version="1.0" encoding="UTF-8" standalone="no"?>
<!DOCTYPE svg PUBLIC "-//W3C//DTD SVG 1.1//EN"
 "http://www.w3.org/Graphics/SVG/1.1/DTD/svg11.dtd">
<!-- Generated by graphviz version 2.28.0 (20120217.0315)
 -->
<!-- Title: G Pages: 1 -->
<svg width="446pt" height="28pt"
 viewBox="0.00 0.00 446.00 28.00" xmlns="http://www.w3.org/2000/svg" xmlns:xlink="http://www.w3.org/1999/xlink">
<g id="graph1" class="graph" transform="scale(1 1) rotate(0) translate(4 24)">
<title>G</title>
<!-- Node1 -->
<g id="node1" class="node"><title>Node1</title>
<polygon fill="#bfbfbf" stroke="black" points="0.5,-0.5 0.5,-19.5 101.5,-19.5 101.5,-0.5 0.5,-0.5"/>
<text text-anchor="middle" x="51" y="-7.5" font-family="DejaVuSansMono" font-size="10.00">disco_item_del</text>
</g>
<!-- Node2 -->
<g id="node3" class="node"><title>Node2</title>
<a xlink:href="../../d1/d2e/xmpp__server_8h.html#aefac210c3c13fc8c6f7f35bd8feee86b" target="_top" xlink:title="Remove an item from the response for disco item queries.">
<polygon fill="none" stroke="black" points="138.5,-0.5 138.5,-19.5 311.5,-19.5 311.5,-0.5 138.5,-0.5"/>
<text text-anchor="middle" x="225" y="-7.5" font-family="DejaVuSansMono" font-size="10.00">xmpp_server_del_disco_item</text>
</a>
</g>
<!-- Node1&#45;&gt;Node2 -->
<g id="edge2" class="edge"><title>Node1&#45;&gt;Node2</title>
<path fill="none" stroke="midnightblue" d="M111.97,-10C120.524,-10 129.458,-10 138.386,-10"/>
<polygon fill="midnightblue" stroke="midnightblue" points="111.75,-6.5001 101.75,-10 111.749,-13.5001 111.75,-6.5001"/>
</g>
<!-- Node3 -->
<g id="node5" class="node"><title>Node3</title>
<a xlink:href="../../d7/d71/xep__muc_8c.html#a20d385a5584d8014ec4d5774eb79d1de" target="_top" xlink:title="xep_muc_stop">
<polygon fill="none" stroke="black" points="348.5,-0.5 348.5,-19.5 437.5,-19.5 437.5,-0.5 348.5,-0.5"/>
<text text-anchor="middle" x="393" y="-7.5" font-family="DejaVuSansMono" font-size="10.00">xep_muc_stop</text>
</a>
</g>
<!-- Node2&#45;&gt;Node3 -->
<g id="edge4" class="edge"><title>Node2&#45;&gt;Node3</title>
<path fill="none" stroke="midnightblue" d="M321.963,-10C331.162,-10 340.143,-10 348.44,-10"/>
<polygon fill="midnightblue" stroke="midnightblue" points="321.917,-6.5001 311.917,-10 321.917,-13.5001 321.917,-6.5001"/>
</g>
</g>
</svg>
