<?xml version="1.0" encoding="UTF-8" standalone="no"?>
<!DOCTYPE svg PUBLIC "-//W3C//DTD SVG 1.1//EN"
 "http://www.w3.org/Graphics/SVG/1.1/DTD/svg11.dtd">
<!-- Generated by graphviz version 2.28.0 (20120217.0315)
 -->
<!-- Title: G Pages: 1 -->
<svg width="464pt" height="89pt"
 viewBox="0.00 0.00 464.00 89.06" xmlns="http://www.w3.org/2000/svg" xmlns:xlink="http://www.w3.org/1999/xlink">
<g id="graph1" class="graph" transform="scale(1 1) rotate(0) translate(4 85.0604)">
<title>G</title>
<!-- Node1 -->
<g id="node1" class="node"><title>Node1</title>
<polygon fill="#bfbfbf" stroke="black" points="0.5,-28.5 0.5,-47.5 107.5,-47.5 107.5,-28.5 0.5,-28.5"/>
<text text-anchor="middle" x="54" y="-35.5" font-family="DejaVuSansMono" font-size="10.00">xmpp_stanza_del</text>
</g>
<!-- Node2 -->
<g id="node3" class="node"><title>Node2</title>
<a xlink:href="../../d1/d59/xmpp__stanza_8c.html#a2fb472c6bf9b7f540a97ddc6c11adb74" target="_top" xlink:title="attribute_del">
<polygon fill="none" stroke="black" points="324.5,-47.5 324.5,-66.5 419.5,-66.5 419.5,-47.5 324.5,-47.5"/>
<text text-anchor="middle" x="372" y="-54.5" font-family="DejaVuSansMono" font-size="10.00">attribute_del</text>
</a>
</g>
<!-- Node1&#45;&gt;Node2 -->
<g id="edge2" class="edge"><title>Node1&#45;&gt;Node2</title>
<path fill="none" stroke="midnightblue" d="M72.4122,-47.6678C89.8951,-56.7807 117.908,-69.7925 144,-75 204.552,-87.0853 275.714,-77.7238 322,-68.5866"/>
<polygon fill="midnightblue" stroke="midnightblue" points="322.965,-71.9617 332.06,-66.5267 321.561,-65.104 322.965,-71.9617"/>
</g>
<!-- Node3 -->
<g id="node5" class="node"><title>Node3</title>
<a xlink:href="../../d1/dc2/xmpp__parser_8c.html#a87065f39f10a449e7af17fa45ca475f2" target="_top" xlink:title="xmpp_parser_namespace_del">
<polygon fill="none" stroke="black" points="288.5,-0.5 288.5,-19.5 455.5,-19.5 455.5,-0.5 288.5,-0.5"/>
<text text-anchor="middle" x="372" y="-7.5" font-family="DejaVuSansMono" font-size="10.00">xmpp_parser_namespace_del</text>
</a>
</g>
<!-- Node1&#45;&gt;Node3 -->
<g id="edge4" class="edge"><title>Node1&#45;&gt;Node3</title>
<path fill="none" stroke="midnightblue" d="M92.8689,-28.4243C108.584,-24.8409 127.07,-21.127 144,-19 187.925,-13.4817 236.971,-11.0722 278.203,-10.1063"/>
<polygon fill="midnightblue" stroke="midnightblue" points="278.311,-13.6049 288.236,-9.89592 278.164,-6.60647 278.311,-13.6049"/>
</g>
<!-- Node4 -->
<g id="node7" class="node"><title>Node4</title>
<a xlink:href="../../d1/d59/xmpp__stanza_8c.html#af40757ae1d137034570b1bb33303d024" target="_top" xlink:title="Cleans up and frees an XMPP stanza.">
<polygon fill="none" stroke="black" points="144.5,-28.5 144.5,-47.5 251.5,-47.5 251.5,-28.5 144.5,-28.5"/>
<text text-anchor="middle" x="198" y="-35.5" font-family="DejaVuSansMono" font-size="10.00">xmpp_stanza_del</text>
</a>
</g>
<!-- Node1&#45;&gt;Node4 -->
<g id="edge6" class="edge"><title>Node1&#45;&gt;Node4</title>
<path fill="none" stroke="midnightblue" d="M107.876,-38C116.377,-38 125.25,-38 133.961,-38"/>
<polygon fill="midnightblue" stroke="midnightblue" points="134.08,-41.5001 144.08,-38 134.08,-34.5001 134.08,-41.5001"/>
</g>
<!-- Node4&#45;&gt;Node2 -->
<g id="edge8" class="edge"><title>Node4&#45;&gt;Node2</title>
<path fill="none" stroke="midnightblue" d="M251.54,-43.8039C271.401,-45.9978 294.083,-48.5033 314.308,-50.7375"/>
<polygon fill="midnightblue" stroke="midnightblue" points="313.999,-54.2246 324.323,-51.8438 314.768,-47.2669 313.999,-54.2246"/>
</g>
<!-- Node4&#45;&gt;Node3 -->
<g id="edge10" class="edge"><title>Node4&#45;&gt;Node3</title>
<path fill="none" stroke="midnightblue" d="M251.54,-29.4469C267.644,-26.8253 285.603,-23.9019 302.603,-21.1344"/>
<polygon fill="midnightblue" stroke="midnightblue" points="303.172,-24.5879 312.48,-19.5265 302.047,-17.6788 303.172,-24.5879"/>
</g>
<!-- Node4&#45;&gt;Node4 -->
<g id="edge12" class="edge"><title>Node4&#45;&gt;Node4</title>
<path fill="none" stroke="midnightblue" d="M175.805,-47.7571C165.008,-56.5653 172.406,-66 198,-66 214.796,-66 223.756,-61.9368 224.879,-56.6539"/>
<polygon fill="midnightblue" stroke="midnightblue" points="227.951,-54.9747 220.195,-47.7571 221.757,-58.2361 227.951,-54.9747"/>
</g>
</g>
</svg>
