<?xml version="1.0" encoding="UTF-8" standalone="no"?>
<!DOCTYPE svg PUBLIC "-//W3C//DTD SVG 1.1//EN"
 "http://www.w3.org/Graphics/SVG/1.1/DTD/svg11.dtd">
<!-- Generated by graphviz version 2.28.0 (20120217.0315)
 -->
<!-- Title: G Pages: 1 -->
<!--zoomable 303 -->
<svg id="main" version="1.1" xmlns="http://www.w3.org/2000/svg" xmlns:xlink="http://www.w3.org/1999/xlink" xml:space="preserve" onload="init(evt)">
        <defs>
                <circle id="rim" cx="0" cy="0" r="7"/>
                <circle id="rim2" cx="0" cy="0" r="3.5"/>
                <g id="zoomPlus">
                        <use xlink:href="#rim" fill="#404040">
                                <set attributeName="fill" to="#808080" begin="zoomplus.mouseover" end="zoomplus.mouseout"/>
                        </use>
                        <path d="M-4,0h8M0,-4v8" fill="none" stroke="white" stroke-width="1.5" pointer-events="none"/>
                </g>
                <g id="zoomMin">
                        <use xlink:href="#rim" fill="#404040">
                                <set attributeName="fill" to="#808080" begin="zoomminus.mouseover" end="zoomminus.mouseout"/>
                        </use>
                        <path d="M-4,0h8" fill="none" stroke="white" stroke-width="1.5" pointer-events="none"/>
                </g>
                <g id="dirArrow">
                        <path fill="none" stroke="white" stroke-width="1.5" d="M0,-3.0v7 M-2.5,-0.5L0,-3.0L2.5,-0.5"/>
                </g>
               <g id="resetDef">
                       <use xlink:href="#rim2" fill="#404040">
                               <set attributeName="fill" to="#808080" begin="reset.mouseover" end="reset.mouseout"/>
                       </use>
               </g>
        </defs>

<script type="text/javascript">
var viewWidth = 1850;
var viewHeight = 303;
var sectionId = 'dynsection-26';
</script>
<script xlink:href="../../svgpan.js"/>
<svg id="graph" class="graph">
<g id="viewport">
<title>G</title>
<!-- Node1 -->
<g id="node1" class="node"><title>Node1</title>
<polygon fill="#bfbfbf" stroke="black" points="0.5,-133.5 0.5,-152.5 137.5,-152.5 137.5,-133.5 0.5,-133.5"/>
<text text-anchor="middle" x="69" y="-140.5" font-family="DejaVuSansMono" font-size="10.00">xmpp_stanza_set_attr</text>
</g>
<!-- Node2 -->
<g id="node3" class="node"><title>Node2</title>
<a xlink:href="../../d7/d71/xep__muc_8c.html#acf84f00141033b025df269e540461383" target="_top" xlink:title="handle_message">
<polygon fill="none" stroke="black" points="579.5,-228.5 579.5,-247.5 680.5,-247.5 680.5,-228.5 579.5,-228.5"/>
<text text-anchor="middle" x="630" y="-235.5" font-family="DejaVuSansMono" font-size="10.00">handle_message</text>
</a>
</g>
<!-- Node1&#45;&gt;Node2 -->
<g id="edge2" class="edge"><title>Node1&#45;&gt;Node2</title>
<path fill="none" stroke="midnightblue" d="M86.4449,-159.949C105.532,-178.343 138.906,-206.728 174,-219 314.305,-268.064 493.921,-255.312 579.443,-245.076"/>
<polygon fill="midnightblue" stroke="midnightblue" points="88.7451,-157.301 79.1759,-152.753 83.8206,-162.276 88.7451,-157.301"/>
</g>
<!-- Node6 -->
<g id="node11" class="node"><title>Node6</title>
<a xlink:href="../../d7/d71/xep__muc_8c.html#af88baacca4f1cccf8ec2bc295db0e063" target="_top" xlink:title="leave_room">
<polygon fill="none" stroke="black" points="213.5,-190.5 213.5,-209.5 290.5,-209.5 290.5,-190.5 213.5,-190.5"/>
<text text-anchor="middle" x="252" y="-197.5" font-family="DejaVuSansMono" font-size="10.00">leave_room</text>
</a>
</g>
<!-- Node1&#45;&gt;Node6 -->
<g id="edge10" class="edge"><title>Node1&#45;&gt;Node6</title>
<path fill="none" stroke="midnightblue" d="M109.732,-155.66C129.11,-161.821 152.765,-169.322 174,-176 189.227,-180.789 206.162,-186.072 220.264,-190.459"/>
<polygon fill="midnightblue" stroke="midnightblue" points="110.615,-152.268 100.024,-152.572 108.493,-158.938 110.615,-152.268"/>
</g>
<!-- Node11 -->
<g id="node23" class="node"><title>Node11</title>
<a xlink:href="../../d7/d71/xep__muc_8c.html#a4b26d057ea25fe1b3c99edff73a82d78" target="_top" xlink:title="handle_items_query">
<polygon fill="none" stroke="black" points="567.5,-266.5 567.5,-285.5 692.5,-285.5 692.5,-266.5 567.5,-266.5"/>
<text text-anchor="middle" x="630" y="-273.5" font-family="DejaVuSansMono" font-size="10.00">handle_items_query</text>
</a>
</g>
<!-- Node1&#45;&gt;Node11 -->
<g id="edge24" class="edge"><title>Node1&#45;&gt;Node11</title>
<path fill="none" stroke="midnightblue" d="M81.7152,-161.256C98.692,-185.917 132.669,-228.97 174,-248 304.478,-308.075 478.652,-297.04 568.977,-285.529"/>
<polygon fill="midnightblue" stroke="midnightblue" points="84.5269,-159.165 76.0611,-152.794 78.7066,-163.054 84.5269,-159.165"/>
</g>
<!-- Node13 -->
<g id="node28" class="node"><title>Node13</title>
<a xlink:href="../../d7/d71/xep__muc_8c.html#a8333f88612fa054ae107699f5bb548cc" target="_top" xlink:title="send_nickname_conflict">
<polygon fill="none" stroke="black" points="372.5,-114.5 372.5,-133.5 521.5,-133.5 521.5,-114.5 372.5,-114.5"/>
<text text-anchor="middle" x="447" y="-121.5" font-family="DejaVuSansMono" font-size="10.00">send_nickname_conflict</text>
</a>
</g>
<!-- Node1&#45;&gt;Node13 -->
<g id="edge30" class="edge"><title>Node1&#45;&gt;Node13</title>
<path fill="none" stroke="midnightblue" d="M147.792,-143.551C199.502,-143.413 268.882,-142.265 330,-138 345.177,-136.941 361.417,-135.301 376.796,-133.511"/>
<polygon fill="midnightblue" stroke="midnightblue" points="147.688,-140.051 137.693,-143.565 147.698,-147.051 147.688,-140.051"/>
</g>
<!-- Node14 -->
<g id="node31" class="node"><title>Node14</title>
<a xlink:href="../../d7/d71/xep__muc_8c.html#a115281f539cd77f88872ff153ec5b38d" target="_top" xlink:title="send_presence_broadcast">
<polygon fill="none" stroke="black" points="369.5,-76.5 369.5,-95.5 524.5,-95.5 524.5,-76.5 369.5,-76.5"/>
<text text-anchor="middle" x="447" y="-83.5" font-family="DejaVuSansMono" font-size="10.00">send_presence_broadcast</text>
</a>
</g>
<!-- Node1&#45;&gt;Node14 -->
<g id="edge34" class="edge"><title>Node1&#45;&gt;Node14</title>
<path fill="none" stroke="midnightblue" d="M147.486,-132.031C199.208,-124.622 268.719,-114.496 330,-105 349.259,-102.016 370.292,-98.6137 389.095,-95.5212"/>
<polygon fill="midnightblue" stroke="midnightblue" points="146.79,-128.595 137.386,-133.476 147.781,-135.525 146.79,-128.595"/>
</g>
<!-- Node15 -->
<g id="node34" class="node"><title>Node15</title>
<a xlink:href="../../d8/d28/xmpp__core_8h.html#ae6da3d9438fd752c4afd6e50a6af9b66" target="_top" xlink:title="An xmpp_parser handler for stanzas from a local client.">
<polygon fill="none" stroke="black" points="174.5,-38.5 174.5,-57.5 329.5,-57.5 329.5,-38.5 174.5,-38.5"/>
<text text-anchor="middle" x="252" y="-45.5" font-family="DejaVuSansMono" font-size="10.00">xmpp_core_handle_stanza</text>
</a>
</g>
<!-- Node1&#45;&gt;Node15 -->
<g id="edge38" class="edge"><title>Node1&#45;&gt;Node15</title>
<path fill="none" stroke="midnightblue" d="M87.8986,-126.497C107.582,-109.212 140.84,-82.4697 174,-67 182.235,-63.1581 191.343,-60.0342 200.324,-57.5136"/>
<polygon fill="midnightblue" stroke="midnightblue" points="85.4524,-123.99 80.3337,-133.266 90.12,-129.206 85.4524,-123.99"/>
</g>
<!-- Node26 -->
<g id="node57" class="node"><title>Node26</title>
<a xlink:href="../../dd/d21/xmpp__stanza_8h.html#af338ba30125abf5027089206578817b6" target="_top" xlink:title="Set the value of an attribute qualified by a namespace.">
<polygon fill="none" stroke="black" points="174.5,-0.5 174.5,-19.5 329.5,-19.5 329.5,-0.5 174.5,-0.5"/>
<text text-anchor="middle" x="252" y="-7.5" font-family="DejaVuSansMono" font-size="10.00">xmpp_stanza_set_ns_attr</text>
</a>
</g>
<!-- Node1&#45;&gt;Node26 -->
<g id="edge62" class="edge"><title>Node1&#45;&gt;Node26</title>
<path fill="none" stroke="midnightblue" d="M81.6003,-124.588C98.6564,-99.0874 132.962,-53.4088 174,-29 180.509,-25.1287 187.775,-22.0439 195.172,-19.5862"/>
<polygon fill="midnightblue" stroke="midnightblue" points="78.4587,-122.998 75.9299,-133.287 84.3228,-126.821 78.4587,-122.998"/>
</g>
<!-- Node28 -->
<g id="node61" class="node"><title>Node28</title>
<a xlink:href="../../dd/d21/xmpp__stanza_8h.html#a7cce775ca11aac48b725baaf0a5f3518" target="_top" xlink:title="Sets the value of an attribute in a stanza.">
<polygon fill="none" stroke="black" points="180.5,-76.5 180.5,-95.5 323.5,-95.5 323.5,-76.5 180.5,-76.5"/>
<text text-anchor="middle" x="252" y="-83.5" font-family="DejaVuSansMono" font-size="10.00">xmpp_stanza_copy_attr</text>
</a>
</g>
<!-- Node1&#45;&gt;Node28 -->
<g id="edge66" class="edge"><title>Node1&#45;&gt;Node28</title>
<path fill="none" stroke="midnightblue" d="M109.732,-130.34C129.11,-124.179 152.765,-116.678 174,-110 189.227,-105.211 206.162,-99.928 220.264,-95.5405"/>
<polygon fill="midnightblue" stroke="midnightblue" points="108.493,-127.062 100.024,-133.428 110.615,-133.732 108.493,-127.062"/>
</g>
<!-- Node3 -->
<g id="node5" class="node"><title>Node3</title>
<a xlink:href="../../d7/d71/xep__muc_8c.html#a1798db1c16a1fa62ff8f39fea202a26f" target="_top" xlink:title="stanza_handler">
<polygon fill="none" stroke="black" points="897.5,-228.5 897.5,-247.5 998.5,-247.5 998.5,-228.5 897.5,-228.5"/>
<text text-anchor="middle" x="948" y="-235.5" font-family="DejaVuSansMono" font-size="10.00">stanza_handler</text>
</a>
</g>
<!-- Node2&#45;&gt;Node3 -->
<g id="edge4" class="edge"><title>Node2&#45;&gt;Node3</title>
<path fill="none" stroke="midnightblue" d="M690.77,-238C750.532,-238 841.374,-238 897.307,-238"/>
<polygon fill="midnightblue" stroke="midnightblue" points="690.723,-234.5 680.723,-238 690.723,-241.5 690.723,-234.5"/>
</g>
<!-- Node4 -->
<g id="node7" class="node"><title>Node4</title>
<a xlink:href="../../d7/d71/xep__muc_8c.html#addf05166cf3fbe386ae6650be21ef251" target="_top" xlink:title="xep_muc_start">
<polygon fill="none" stroke="black" points="1050.5,-247.5 1050.5,-266.5 1145.5,-266.5 1145.5,-247.5 1050.5,-247.5"/>
<text text-anchor="middle" x="1098" y="-254.5" font-family="DejaVuSansMono" font-size="10.00">xep_muc_start</text>
</a>
</g>
<!-- Node3&#45;&gt;Node4 -->
<g id="edge6" class="edge"><title>Node3&#45;&gt;Node4</title>
<path fill="none" stroke="midnightblue" d="M1008.62,-245.654C1022.46,-247.43 1036.99,-249.296 1050.19,-250.991"/>
<polygon fill="midnightblue" stroke="midnightblue" points="1009.06,-242.181 998.694,-244.38 1008.17,-249.125 1009.06,-242.181"/>
</g>
<!-- Node5 -->
<g id="node9" class="node"><title>Node5</title>
<a xlink:href="../../d7/d71/xep__muc_8c.html#a20d385a5584d8014ec4d5774eb79d1de" target="_top" xlink:title="xep_muc_stop">
<polygon fill="none" stroke="black" points="1053.5,-209.5 1053.5,-228.5 1142.5,-228.5 1142.5,-209.5 1053.5,-209.5"/>
<text text-anchor="middle" x="1098" y="-216.5" font-family="DejaVuSansMono" font-size="10.00">xep_muc_stop</text>
</a>
</g>
<!-- Node3&#45;&gt;Node5 -->
<g id="edge8" class="edge"><title>Node3&#45;&gt;Node5</title>
<path fill="none" stroke="midnightblue" d="M1008.8,-230.323C1023.63,-228.419 1039.24,-226.415 1053.15,-224.63"/>
<polygon fill="midnightblue" stroke="midnightblue" points="1008.17,-226.875 998.694,-231.62 1009.06,-233.819 1008.17,-226.875"/>
</g>
<!-- Node7 -->
<g id="node13" class="node"><title>Node7</title>
<a xlink:href="../../d7/d71/xep__muc_8c.html#a40cdc65e1b60c76aef97dfc9d3f2510f" target="_top" xlink:title="leave_room_presence">
<polygon fill="none" stroke="black" points="564.5,-190.5 564.5,-209.5 695.5,-209.5 695.5,-190.5 564.5,-190.5"/>
<text text-anchor="middle" x="630" y="-197.5" font-family="DejaVuSansMono" font-size="10.00">leave_room_presence</text>
</a>
</g>
<!-- Node6&#45;&gt;Node7 -->
<g id="edge12" class="edge"><title>Node6&#45;&gt;Node7</title>
<path fill="none" stroke="midnightblue" d="M301.033,-200C367.973,-200 489.499,-200 564.343,-200"/>
<polygon fill="midnightblue" stroke="midnightblue" points="300.774,-196.5 290.774,-200 300.774,-203.5 300.774,-196.5"/>
</g>
<!-- Node9 -->
<g id="node18" class="node"><title>Node9</title>
<a xlink:href="../../d7/d71/xep__muc_8c.html#a0214cd898b2f0c746cb45f79746e5095" target="_top" xlink:title="client_disconnect">
<polygon fill="none" stroke="black" points="387.5,-152.5 387.5,-171.5 506.5,-171.5 506.5,-152.5 387.5,-152.5"/>
<text text-anchor="middle" x="447" y="-159.5" font-family="DejaVuSansMono" font-size="10.00">client_disconnect</text>
</a>
</g>
<!-- Node6&#45;&gt;Node9 -->
<g id="edge18" class="edge"><title>Node6&#45;&gt;Node9</title>
<path fill="none" stroke="midnightblue" d="M300.716,-190.605C330.162,-184.808 367.83,-177.391 397.432,-171.563"/>
<polygon fill="midnightblue" stroke="midnightblue" points="299.806,-187.217 290.671,-192.583 301.158,-194.085 299.806,-187.217"/>
</g>
<!-- Node8 -->
<g id="node15" class="node"><title>Node8</title>
<a xlink:href="../../d7/d71/xep__muc_8c.html#a9936322b944d46aead9fbd942687ec0a" target="_top" xlink:title="handle_presence">
<polygon fill="none" stroke="black" points="738.5,-190.5 738.5,-209.5 845.5,-209.5 845.5,-190.5 738.5,-190.5"/>
<text text-anchor="middle" x="792" y="-197.5" font-family="DejaVuSansMono" font-size="10.00">handle_presence</text>
</a>
</g>
<!-- Node7&#45;&gt;Node8 -->
<g id="edge14" class="edge"><title>Node7&#45;&gt;Node8</title>
<path fill="none" stroke="midnightblue" d="M705.705,-200C716.757,-200 727.945,-200 738.42,-200"/>
<polygon fill="midnightblue" stroke="midnightblue" points="705.617,-196.5 695.617,-200 705.617,-203.5 705.617,-196.5"/>
</g>
<!-- Node8&#45;&gt;Node3 -->
<g id="edge16" class="edge"><title>Node8&#45;&gt;Node3</title>
<path fill="none" stroke="midnightblue" d="M841.794,-212.04C863.308,-217.349 888.232,-223.499 908.419,-228.48"/>
<polygon fill="midnightblue" stroke="midnightblue" points="842.408,-208.587 831.861,-209.589 840.731,-215.383 842.408,-208.587"/>
</g>
<!-- Node10 -->
<g id="node20" class="node"><title>Node10</title>
<a xlink:href="../../d7/d71/xep__muc_8c.html#aefd23f2960520a68fea212344b85cb0b" target="_top" xlink:title="enter_room_presence">
<polygon fill="none" stroke="black" points="564.5,-133.5 564.5,-152.5 695.5,-152.5 695.5,-133.5 564.5,-133.5"/>
<text text-anchor="middle" x="630" y="-140.5" font-family="DejaVuSansMono" font-size="10.00">enter_room_presence</text>
</a>
</g>
<!-- Node9&#45;&gt;Node10 -->
<g id="edge20" class="edge"><title>Node9&#45;&gt;Node10</title>
<path fill="none" stroke="midnightblue" d="M516.843,-154.773C532.409,-153.139 548.883,-151.41 564.272,-149.795"/>
<polygon fill="midnightblue" stroke="midnightblue" points="516.345,-151.306 506.766,-155.831 517.076,-158.268 516.345,-151.306"/>
</g>
<!-- Node10&#45;&gt;Node8 -->
<g id="edge22" class="edge"><title>Node10&#45;&gt;Node8</title>
<path fill="none" stroke="midnightblue" d="M667.29,-155.928C696.73,-166.416 737.565,-180.964 764.132,-190.428"/>
<polygon fill="midnightblue" stroke="midnightblue" points="668.375,-152.599 657.78,-152.541 666.026,-159.194 668.375,-152.599"/>
</g>
<!-- Node12 -->
<g id="node25" class="node"><title>Node12</title>
<a xlink:href="../../d7/d71/xep__muc_8c.html#aec1096d47742f472668c4905fa3c299a" target="_top" xlink:title="handle_iq">
<polygon fill="none" stroke="black" points="756.5,-266.5 756.5,-285.5 827.5,-285.5 827.5,-266.5 756.5,-266.5"/>
<text text-anchor="middle" x="792" y="-273.5" font-family="DejaVuSansMono" font-size="10.00">handle_iq</text>
</a>
</g>
<!-- Node11&#45;&gt;Node12 -->
<g id="edge26" class="edge"><title>Node11&#45;&gt;Node12</title>
<path fill="none" stroke="midnightblue" d="M703.027,-276C721.48,-276 740.503,-276 756.119,-276"/>
<polygon fill="midnightblue" stroke="midnightblue" points="702.86,-272.5 692.86,-276 702.86,-279.5 702.86,-272.5"/>
</g>
<!-- Node12&#45;&gt;Node3 -->
<g id="edge28" class="edge"><title>Node12&#45;&gt;Node3</title>
<path fill="none" stroke="midnightblue" d="M837.525,-265.013C859.98,-259.472 886.947,-252.818 908.497,-247.501"/>
<polygon fill="midnightblue" stroke="midnightblue" points="836.431,-261.678 827.561,-267.472 838.108,-268.474 836.431,-261.678"/>
</g>
<!-- Node13&#45;&gt;Node10 -->
<g id="edge32" class="edge"><title>Node13&#45;&gt;Node10</title>
<path fill="none" stroke="midnightblue" d="M531.674,-132.783C542.684,-133.939 553.829,-135.109 564.453,-136.224"/>
<polygon fill="midnightblue" stroke="midnightblue" points="531.93,-129.291 521.62,-131.728 531.2,-136.253 531.93,-129.291"/>
</g>
<!-- Node14&#45;&gt;Node10 -->
<g id="edge36" class="edge"><title>Node14&#45;&gt;Node10</title>
<path fill="none" stroke="midnightblue" d="M502.619,-97.9944C511.163,-100.151 519.856,-102.512 528,-105 555.234,-113.321 585.734,-125.157 606.021,-133.401"/>
<polygon fill="midnightblue" stroke="midnightblue" points="503.246,-94.5445 492.7,-95.5603 501.578,-101.343 503.246,-94.5445"/>
</g>
<!-- Node16 -->
<g id="node36" class="node"><title>Node16</title>
<a xlink:href="../../df/da9/xmpp__auth_8c.html#a603b4a63af3c4e4af99442805fe89ae8" target="_top" xlink:title="Step 15: Client binds a resource.">
<polygon fill="none" stroke="black" points="396.5,-38.5 396.5,-57.5 497.5,-57.5 497.5,-38.5 396.5,-38.5"/>
<text text-anchor="middle" x="447" y="-45.5" font-family="DejaVuSansMono" font-size="10.00">handle_bind_iq</text>
</a>
</g>
<!-- Node15&#45;&gt;Node16 -->
<g id="edge40" class="edge"><title>Node15&#45;&gt;Node16</title>
<path fill="none" stroke="midnightblue" d="M339.668,-48C359.133,-48 379.136,-48 396.467,-48"/>
<polygon fill="midnightblue" stroke="midnightblue" points="339.556,-44.5001 329.556,-48 339.556,-51.5001 339.556,-44.5001"/>
</g>
<!-- Node17 -->
<g id="node38" class="node"><title>Node17</title>
<a xlink:href="../../df/da9/xmpp__auth_8c.html#a01804bd53eccc182ce76337fc0863e8d" target="_top" xlink:title="stream_bind_start">
<polygon fill="none" stroke="black" points="570.5,-38.5 570.5,-57.5 689.5,-57.5 689.5,-38.5 570.5,-38.5"/>
<text text-anchor="middle" x="630" y="-45.5" font-family="DejaVuSansMono" font-size="10.00">stream_bind_start</text>
</a>
</g>
<!-- Node16&#45;&gt;Node17 -->
<g id="edge42" class="edge"><title>Node16&#45;&gt;Node17</title>
<path fill="none" stroke="midnightblue" d="M508.162,-48C528.148,-48 550.366,-48 570.244,-48"/>
<polygon fill="midnightblue" stroke="midnightblue" points="507.938,-44.5001 497.938,-48 507.938,-51.5001 507.938,-44.5001"/>
</g>
<!-- Node18 -->
<g id="node40" class="node"><title>Node18</title>
<a xlink:href="../../df/da9/xmpp__auth_8c.html#afb770a216868aa3fb43813b19d2a0115" target="_top" xlink:title="Begins SASL PLAIN authentication.">
<polygon fill="none" stroke="black" points="732.5,-38.5 732.5,-57.5 851.5,-57.5 851.5,-38.5 732.5,-38.5"/>
<text text-anchor="middle" x="792" y="-45.5" font-family="DejaVuSansMono" font-size="10.00">handle_sasl_plain</text>
</a>
</g>
<!-- Node17&#45;&gt;Node18 -->
<g id="edge44" class="edge"><title>Node17&#45;&gt;Node18</title>
<path fill="none" stroke="midnightblue" d="M699.915,-48C710.717,-48 721.794,-48 732.338,-48"/>
<polygon fill="midnightblue" stroke="midnightblue" points="699.67,-44.5001 689.67,-48 699.67,-51.5001 699.67,-44.5001"/>
</g>
<!-- Node19 -->
<g id="node42" class="node"><title>Node19</title>
<a xlink:href="../../d3/d24/xmpp__auth_8h.html#ad3efd9ab093646bdfd8832c34ae2de4d" target="_top" xlink:title="Handler for the inital stream start to begin authentication.">
<polygon fill="none" stroke="black" points="1188.5,-38.5 1188.5,-57.5 1337.5,-57.5 1337.5,-38.5 1188.5,-38.5"/>
<text text-anchor="middle" x="1263" y="-45.5" font-family="DejaVuSansMono" font-size="10.00">xmpp_auth_stream_start</text>
</a>
</g>
<!-- Node18&#45;&gt;Node19 -->
<g id="edge46" class="edge"><title>Node18&#45;&gt;Node19</title>
<path fill="none" stroke="midnightblue" d="M861.987,-48C949.236,-48 1098.85,-48 1188.28,-48"/>
<polygon fill="midnightblue" stroke="midnightblue" points="861.924,-44.5001 851.924,-48 861.924,-51.5001 861.924,-44.5001"/>
</g>
<!-- Node24 -->
<g id="node52" class="node"><title>Node24</title>
<a xlink:href="../../df/da9/xmpp__auth_8c.html#afd7b12689591d40109a88ad108b5c3a2" target="_top" xlink:title="stream_sasl_start">
<polygon fill="none" stroke="black" points="888.5,-57.5 888.5,-76.5 1007.5,-76.5 1007.5,-57.5 888.5,-57.5"/>
<text text-anchor="middle" x="948" y="-64.5" font-family="DejaVuSansMono" font-size="10.00">stream_sasl_start</text>
</a>
</g>
<!-- Node18&#45;&gt;Node24 -->
<g id="edge56" class="edge"><title>Node18&#45;&gt;Node24</title>
<path fill="none" stroke="midnightblue" d="M861.607,-56.4645C870.497,-57.5613 879.538,-58.6767 888.248,-59.7514"/>
<polygon fill="midnightblue" stroke="midnightblue" points="862.013,-52.9882 851.66,-55.2373 861.156,-59.9355 862.013,-52.9882"/>
</g>
<!-- Node20 -->
<g id="node44" class="node"><title>Node20</title>
<a xlink:href="../../d4/d2f/xmpp__client_8h.html#a1619c0b8f58b2cf09a322bf34fbc3414" target="_top" xlink:title="xmpp_client_new">
<polygon fill="none" stroke="black" points="1374.5,-38.5 1374.5,-57.5 1481.5,-57.5 1481.5,-38.5 1374.5,-38.5"/>
<text text-anchor="middle" x="1428" y="-45.5" font-family="DejaVuSansMono" font-size="10.00">xmpp_client_new</text>
</a>
</g>
<!-- Node19&#45;&gt;Node20 -->
<g id="edge48" class="edge"><title>Node19&#45;&gt;Node20</title>
<path fill="none" stroke="midnightblue" d="M1347.99,-48C1356.95,-48 1365.88,-48 1374.33,-48"/>
<polygon fill="midnightblue" stroke="midnightblue" points="1347.87,-44.5001 1337.87,-48 1347.87,-51.5001 1347.87,-44.5001"/>
</g>
<!-- Node21 -->
<g id="node46" class="node"><title>Node21</title>
<a xlink:href="../../d0/df0/xmpp__server_8c.html#a66363912ef1221a2574f9f99805fe8fd" target="_top" xlink:title="Callback for new client connections.">
<polygon fill="none" stroke="black" points="1518.5,-38.5 1518.5,-57.5 1619.5,-57.5 1619.5,-38.5 1518.5,-38.5"/>
<text text-anchor="middle" x="1569" y="-45.5" font-family="DejaVuSansMono" font-size="10.00">connect_client</text>
</a>
</g>
<!-- Node20&#45;&gt;Node21 -->
<g id="edge50" class="edge"><title>Node20&#45;&gt;Node21</title>
<path fill="none" stroke="midnightblue" d="M1491.8,-48C1500.63,-48 1509.59,-48 1518.13,-48"/>
<polygon fill="midnightblue" stroke="midnightblue" points="1491.55,-44.5001 1481.55,-48 1491.55,-51.5001 1491.55,-44.5001"/>
</g>
<!-- Node22 -->
<g id="node48" class="node"><title>Node22</title>
<a xlink:href="../../d1/d2e/xmpp__server_8h.html#a27bfc8e4d424a8bc17ab21a4a09cdf92" target="_top" xlink:title="Allocates and initializes the XMPP server.">
<polygon fill="none" stroke="black" points="1656.5,-38.5 1656.5,-57.5 1763.5,-57.5 1763.5,-38.5 1656.5,-38.5"/>
<text text-anchor="middle" x="1710" y="-45.5" font-family="DejaVuSansMono" font-size="10.00">xmpp_server_new</text>
</a>
</g>
<!-- Node21&#45;&gt;Node22 -->
<g id="edge52" class="edge"><title>Node21&#45;&gt;Node22</title>
<path fill="none" stroke="midnightblue" d="M1629.94,-48C1638.7,-48 1647.67,-48 1656.27,-48"/>
<polygon fill="midnightblue" stroke="midnightblue" points="1629.79,-44.5001 1619.79,-48 1629.79,-51.5001 1629.79,-44.5001"/>
</g>
<!-- Node23 -->
<g id="node50" class="node"><title>Node23</title>
<a xlink:href="../../d0/d29/main_8c.html#a0ddf1224851353fc92bfbff6f499fa97" target="_top" xlink:title="main">
<polygon fill="none" stroke="black" points="1800.5,-38.5 1800.5,-57.5 1841.5,-57.5 1841.5,-38.5 1800.5,-38.5"/>
<text text-anchor="middle" x="1821" y="-45.5" font-family="DejaVuSansMono" font-size="10.00">main</text>
</a>
</g>
<!-- Node22&#45;&gt;Node23 -->
<g id="edge54" class="edge"><title>Node22&#45;&gt;Node23</title>
<path fill="none" stroke="midnightblue" d="M1773.75,-48C1783.43,-48 1792.76,-48 1800.47,-48"/>
<polygon fill="midnightblue" stroke="midnightblue" points="1773.58,-44.5001 1763.58,-48 1773.58,-51.5001 1773.58,-44.5001"/>
</g>
<!-- Node25 -->
<g id="node54" class="node"><title>Node25</title>
<a xlink:href="../../df/da9/xmpp__auth_8c.html#a8dd789e057b9812e4dd1aa524dfb6a65" target="_top" xlink:title="Begins TLS authentication.">
<polygon fill="none" stroke="black" points="1044.5,-57.5 1044.5,-76.5 1151.5,-76.5 1151.5,-57.5 1044.5,-57.5"/>
<text text-anchor="middle" x="1098" y="-64.5" font-family="DejaVuSansMono" font-size="10.00">handle_starttls</text>
</a>
</g>
<!-- Node24&#45;&gt;Node25 -->
<g id="edge58" class="edge"><title>Node24&#45;&gt;Node25</title>
<path fill="none" stroke="midnightblue" d="M1018.09,-67C1026.81,-67 1035.62,-67 1044.04,-67"/>
<polygon fill="midnightblue" stroke="midnightblue" points="1017.92,-63.5001 1007.92,-67 1017.92,-70.5001 1017.92,-63.5001"/>
</g>
<!-- Node25&#45;&gt;Node19 -->
<g id="edge60" class="edge"><title>Node25&#45;&gt;Node19</title>
<path fill="none" stroke="midnightblue" d="M1161.91,-59.6668C1170.56,-58.6589 1179.5,-57.6167 1188.32,-56.5888"/>
<polygon fill="midnightblue" stroke="midnightblue" points="1161.45,-56.1969 1151.92,-60.8312 1162.26,-63.1498 1161.45,-56.1969"/>
</g>
<!-- Node27 -->
<g id="node59" class="node"><title>Node27</title>
<a xlink:href="../../dd/d21/xmpp__stanza_8h.html#abef52cde6bdc7effa8ebfb41ce82abd0" target="_top" xlink:title="Set the value of an attribute qualified by a namespace, copies value.">
<polygon fill="none" stroke="black" points="366.5,-0.5 366.5,-19.5 527.5,-19.5 527.5,-0.5 366.5,-0.5"/>
<text text-anchor="middle" x="447" y="-7.5" font-family="DejaVuSansMono" font-size="10.00">xmpp_stanza_copy_ns_attr</text>
</a>
</g>
<!-- Node26&#45;&gt;Node27 -->
<g id="edge64" class="edge"><title>Node26&#45;&gt;Node27</title>
<path fill="none" stroke="midnightblue" d="M339.566,-10C348.489,-10 357.527,-10 366.371,-10"/>
<polygon fill="midnightblue" stroke="midnightblue" points="339.556,-6.5001 329.556,-10 339.556,-13.5001 339.556,-6.5001"/>
</g>
<!-- Node28&#45;&gt;Node14 -->
<g id="edge68" class="edge"><title>Node28&#45;&gt;Node14</title>
<path fill="none" stroke="midnightblue" d="M333.978,-86C345.706,-86 357.749,-86 369.388,-86"/>
<polygon fill="midnightblue" stroke="midnightblue" points="333.77,-82.5001 323.77,-86 333.77,-89.5001 333.77,-82.5001"/>
</g>
</g>
</svg>
        <g id="navigator" transform="translate(0 0)" fill="#404254">
                <rect fill="#f2f5e9" fill-opacity="0.5" stroke="#606060" stroke-width=".5" x="0" y="0" width="60" height="60"/>
                <use id="zoomplus" xlink:href="#zoomPlus" x="17" y="9" onmousedown="handleZoom(evt,'in')"/>
                <use id="zoomminus" xlink:href="#zoomMin" x="42" y="9" onmousedown="handleZoom(evt,'out')"/>
                <use id="reset" xlink:href="#resetDef" x="30" y="36" onmousedown="handleReset()"/>
                <g id="arrowUp" xlink:href="#dirArrow" transform="translate(30 24)" onmousedown="handlePan(0,-1)">
                  <use xlink:href="#rim" fill="#404040">
                        <set attributeName="fill" to="#808080" begin="arrowUp.mouseover" end="arrowUp.mouseout"/>
                  </use>
                  <path fill="none" stroke="white" stroke-width="1.5" d="M0,-3.0v7 M-2.5,-0.5L0,-3.0L2.5,-0.5"/>
                </g>
                <g id="arrowRight" xlink:href="#dirArrow" transform="rotate(90) translate(36 -43)" onmousedown="handlePan(1,0)">
                  <use xlink:href="#rim" fill="#404040">
                        <set attributeName="fill" to="#808080" begin="arrowRight.mouseover" end="arrowRight.mouseout"/>
                  </use>
                  <path fill="none" stroke="white" stroke-width="1.5" d="M0,-3.0v7 M-2.5,-0.5L0,-3.0L2.5,-0.5"/>
                </g>
                <g id="arrowDown" xlink:href="#dirArrow" transform="rotate(180) translate(-30 -48)" onmousedown="handlePan(0,1)">
                  <use xlink:href="#rim" fill="#404040">
                        <set attributeName="fill" to="#808080" begin="arrowDown.mouseover" end="arrowDown.mouseout"/>
                  </use>
                  <path fill="none" stroke="white" stroke-width="1.5" d="M0,-3.0v7 M-2.5,-0.5L0,-3.0L2.5,-0.5"/>
                </g>
                <g id="arrowLeft" xlink:href="#dirArrow" transform="rotate(270) translate(-36 17)" onmousedown="handlePan(-1,0)">
                  <use xlink:href="#rim" fill="#404040">
                        <set attributeName="fill" to="#808080" begin="arrowLeft.mouseover" end="arrowLeft.mouseout"/>
                  </use>
                  <path fill="none" stroke="white" stroke-width="1.5" d="M0,-3.0v7 M-2.5,-0.5L0,-3.0L2.5,-0.5"/>
                </g>
        </g>
        <svg viewBox="0 0 25 25" width="100%" height="30px" preserveAspectRatio="xMaxYMin meet"> 
          <g id="printButton" transform="scale(0.4 0.4)" onmousedown="handlePrint(evt)">
            <rect height="23.33753581" id="paper" rx="2" style="fill:#f2f5e9;fill-rule:evenodd;stroke:#111111;stroke-width:3.224;stroke-linejoin:round;" transform="matrix(1.000000,0.000000,-0.339266,0.940691,0.000000,0.000000)" width="25.55231285" x="26.69387353" y="7.36162977"/>
            <rect height="26.272097" id="body" rx="2" style="fill:#404040;fill-rule:evenodd;stroke:#111111;stroke-width:3.125;stroke-linejoin:round;" width="50" x="4.5295201" y="27.078951"/>
            <rect height="8.27750969" id="tray" style="fill:#d2d5c9;fill-rule:evenodd;stroke:#111111;stroke-width:3.125;stroke-linecap:round;stroke-linejoin:round;" width="40" x="10.28778839" y="44.96812282"/>
          </g>
        </svg>
</svg>
