<?xml version="1.0" encoding="UTF-8" standalone="no"?>
<!DOCTYPE svg PUBLIC "-//W3C//DTD SVG 1.1//EN"
 "http://www.w3.org/Graphics/SVG/1.1/DTD/svg11.dtd">
<!-- Generated by graphviz version 2.28.0 (20120217.0315)
 -->
<!-- Title: G Pages: 1 -->
<!--zoomable 609 -->
<svg id="main" version="1.1" xmlns="http://www.w3.org/2000/svg" xmlns:xlink="http://www.w3.org/1999/xlink" xml:space="preserve" onload="init(evt)">
        <defs>
                <circle id="rim" cx="0" cy="0" r="7"/>
                <circle id="rim2" cx="0" cy="0" r="3.5"/>
                <g id="zoomPlus">
                        <use xlink:href="#rim" fill="#404040">
                                <set attributeName="fill" to="#808080" begin="zoomplus.mouseover" end="zoomplus.mouseout"/>
                        </use>
                        <path d="M-4,0h8M0,-4v8" fill="none" stroke="white" stroke-width="1.5" pointer-events="none"/>
                </g>
                <g id="zoomMin">
                        <use xlink:href="#rim" fill="#404040">
                                <set attributeName="fill" to="#808080" begin="zoomminus.mouseover" end="zoomminus.mouseout"/>
                        </use>
                        <path d="M-4,0h8" fill="none" stroke="white" stroke-width="1.5" pointer-events="none"/>
                </g>
                <g id="dirArrow">
                        <path fill="none" stroke="white" stroke-width="1.5" d="M0,-3.0v7 M-2.5,-0.5L0,-3.0L2.5,-0.5"/>
                </g>
               <g id="resetDef">
                       <use xlink:href="#rim2" fill="#404040">
                               <set attributeName="fill" to="#808080" begin="reset.mouseover" end="reset.mouseout"/>
                       </use>
               </g>
        </defs>

<script type="text/javascript">
var viewWidth = 1778;
var viewHeight = 609;
var sectionId = 'dynsection-19';
</script>
<script xlink:href="../../svgpan.js"/>
<svg id="graph" class="graph">
<g id="viewport">
<title>G</title>
<!-- Node1 -->
<g id="node1" class="node"><title>Node1</title>
<polygon fill="#bfbfbf" stroke="black" points="0.5,-353.085 0.5,-372.085 107.5,-372.085 107.5,-353.085 0.5,-353.085"/>
<text text-anchor="middle" x="54" y="-360.085" font-family="DejaVuSansMono" font-size="10.00">xmpp_stanza_new</text>
</g>
<!-- Node2 -->
<g id="node3" class="node"><title>Node2</title>
<a xlink:href="../../d7/d71/xep__muc_8c.html#af88baacca4f1cccf8ec2bc295db0e063" target="_top" xlink:title="leave_room">
<polygon fill="none" stroke="black" points="204.5,-562.085 204.5,-581.085 281.5,-581.085 281.5,-562.085 204.5,-562.085"/>
<text text-anchor="middle" x="243" y="-569.085" font-family="DejaVuSansMono" font-size="10.00">leave_room</text>
</a>
</g>
<!-- Node1&#45;&gt;Node2 -->
<g id="edge2" class="edge"><title>Node1&#45;&gt;Node2</title>
<path fill="none" stroke="midnightblue" d="M58.6987,-382.301C66.9068,-420.369 90.3289,-504.069 144,-547.585 160.872,-561.265 184.392,-567.323 204.161,-569.934"/>
<polygon fill="midnightblue" stroke="midnightblue" points="62.1174,-381.548 56.6983,-372.444 55.2572,-382.94 62.1174,-381.548"/>
</g>
<!-- Node10 -->
<g id="node20" class="node"><title>Node10</title>
<a xlink:href="../../d7/d71/xep__muc_8c.html#a4b26d057ea25fe1b3c99edff73a82d78" target="_top" xlink:title="handle_items_query">
<polygon fill="none" stroke="black" points="180.5,-448.085 180.5,-467.085 305.5,-467.085 305.5,-448.085 180.5,-448.085"/>
<text text-anchor="middle" x="243" y="-455.085" font-family="DejaVuSansMono" font-size="10.00">handle_items_query</text>
</a>
</g>
<!-- Node1&#45;&gt;Node10 -->
<g id="edge20" class="edge"><title>Node1&#45;&gt;Node10</title>
<path fill="none" stroke="midnightblue" d="M70.3262,-380.163C86.7346,-397.799 114.429,-424.332 144,-438.585 155.241,-444.003 167.91,-447.876 180.316,-450.645"/>
<polygon fill="midnightblue" stroke="midnightblue" points="72.5252,-377.377 63.219,-372.313 67.3359,-382.075 72.5252,-377.377"/>
</g>
<!-- Node12 -->
<g id="node25" class="node"><title>Node12</title>
<a xlink:href="../../d7/d71/xep__muc_8c.html#a20d9ff75edcc76b952adf38d558fee26" target="_top" xlink:title="handle_info_query">
<polygon fill="none" stroke="black" points="183.5,-410.085 183.5,-429.085 302.5,-429.085 302.5,-410.085 183.5,-410.085"/>
<text text-anchor="middle" x="243" y="-417.085" font-family="DejaVuSansMono" font-size="10.00">handle_info_query</text>
</a>
</g>
<!-- Node1&#45;&gt;Node12 -->
<g id="edge26" class="edge"><title>Node1&#45;&gt;Node12</title>
<path fill="none" stroke="midnightblue" d="M88.3201,-375.975C104.902,-382.373 125.343,-389.863 144,-395.585 161.584,-400.979 181.23,-405.986 198.288,-410.015"/>
<polygon fill="midnightblue" stroke="midnightblue" points="89.1328,-372.536 78.5447,-372.159 86.587,-379.056 89.1328,-372.536"/>
</g>
<!-- Node13 -->
<g id="node28" class="node"><title>Node13</title>
<a xlink:href="../../d7/d71/xep__muc_8c.html#a8333f88612fa054ae107699f5bb548cc" target="_top" xlink:title="send_nickname_conflict">
<polygon fill="none" stroke="black" points="381.5,-524.085 381.5,-543.085 530.5,-543.085 530.5,-524.085 381.5,-524.085"/>
<text text-anchor="middle" x="456" y="-531.085" font-family="DejaVuSansMono" font-size="10.00">send_nickname_conflict</text>
</a>
</g>
<!-- Node1&#45;&gt;Node13 -->
<g id="edge30" class="edge"><title>Node1&#45;&gt;Node13</title>
<path fill="none" stroke="midnightblue" d="M60.531,-381.797C70.9427,-414.075 96.7699,-478.508 144,-507.585 222.435,-555.875 333.843,-551.495 399.844,-543.103"/>
<polygon fill="midnightblue" stroke="midnightblue" points="63.8602,-380.715 57.5824,-372.18 57.1677,-382.767 63.8602,-380.715"/>
</g>
<!-- Node14 -->
<g id="node31" class="node"><title>Node14</title>
<a xlink:href="../../d7/d71/xep__muc_8c.html#a115281f539cd77f88872ff153ec5b38d" target="_top" xlink:title="send_presence_broadcast">
<polygon fill="none" stroke="black" points="378.5,-486.085 378.5,-505.085 533.5,-505.085 533.5,-486.085 378.5,-486.085"/>
<text text-anchor="middle" x="456" y="-493.085" font-family="DejaVuSansMono" font-size="10.00">send_presence_broadcast</text>
</a>
</g>
<!-- Node1&#45;&gt;Node14 -->
<g id="edge34" class="edge"><title>Node1&#45;&gt;Node14</title>
<path fill="none" stroke="midnightblue" d="M63.471,-381.546C76.4964,-408.146 104.181,-455.628 144,-476.585 225.377,-519.415 335.819,-513.74 400.839,-505.094"/>
<polygon fill="midnightblue" stroke="midnightblue" points="66.4851,-379.731 59.0647,-372.168 60.1496,-382.708 66.4851,-379.731"/>
</g>
<!-- Node15 -->
<g id="node34" class="node"><title>Node15</title>
<a xlink:href="../../d9/dd7/xmpp__im_8h.html#aee8f65a08bdaf68accfdcee40ed1488d" target="_top" xlink:title="IQ stanza callback for handling a session IQ.">
<polygon fill="none" stroke="black" points="744.5,-372.085 744.5,-391.085 869.5,-391.085 869.5,-372.085 744.5,-372.085"/>
<text text-anchor="middle" x="807" y="-379.085" font-family="DejaVuSansMono" font-size="10.00">xmpp_im_iq_session</text>
</a>
</g>
<!-- Node1&#45;&gt;Node15 -->
<g id="edge38" class="edge"><title>Node1&#45;&gt;Node15</title>
<path fill="none" stroke="midnightblue" d="M117.776,-364.174C259.655,-367.763 603.61,-376.465 744.382,-380.026"/>
<polygon fill="midnightblue" stroke="midnightblue" points="117.596,-360.668 107.51,-363.914 117.419,-367.666 117.596,-360.668"/>
</g>
<!-- Node18 -->
<g id="node40" class="node"><title>Node18</title>
<a xlink:href="../../d9/dd7/xmpp__im_8h.html#a7542fa668dcf982bb5d3725c5cacb0ca" target="_top" xlink:title="IQ stanza callback for handling a disco items query.">
<polygon fill="none" stroke="black" points="381.5,-296.085 381.5,-315.085 530.5,-315.085 530.5,-296.085 381.5,-296.085"/>
<text text-anchor="middle" x="456" y="-303.085" font-family="DejaVuSansMono" font-size="10.00">xmpp_im_iq_disco_items</text>
</a>
</g>
<!-- Node1&#45;&gt;Node18 -->
<g id="edge44" class="edge"><title>Node1&#45;&gt;Node18</title>
<path fill="none" stroke="midnightblue" d="M117.854,-354.905C176.059,-347.64 264.986,-336.155 342,-324.585 361.181,-321.704 382.142,-318.261 400.746,-315.103"/>
<polygon fill="midnightblue" stroke="midnightblue" points="117.202,-351.459 107.711,-356.167 118.067,-358.405 117.202,-351.459"/>
</g>
<!-- Node19 -->
<g id="node43" class="node"><title>Node19</title>
<a xlink:href="../../d9/dd7/xmpp__im_8h.html#a93be77ae71bc544a1c23fae07f39fd23" target="_top" xlink:title="IQ stanza callback for handling a disco info query.">
<polygon fill="none" stroke="black" points="1248.5,-258.085 1248.5,-277.085 1391.5,-277.085 1391.5,-258.085 1248.5,-258.085"/>
<text text-anchor="middle" x="1320" y="-265.085" font-family="DejaVuSansMono" font-size="10.00">xmpp_im_iq_disco_info</text>
</a>
</g>
<!-- Node1&#45;&gt;Node19 -->
<g id="edge48" class="edge"><title>Node1&#45;&gt;Node19</title>
<path fill="none" stroke="midnightblue" d="M69.027,-345.285C85.0075,-327.005 112.959,-299.124 144,-286.585 272.4,-234.72 316.52,-267.585 455,-267.585 455,-267.585 455,-267.585 982,-267.585 1074,-267.585 1180.13,-267.585 1248.32,-267.585"/>
<polygon fill="midnightblue" stroke="midnightblue" points="66.3531,-343.026 62.5589,-352.919 71.6938,-347.552 66.3531,-343.026"/>
</g>
<!-- Node20 -->
<g id="node46" class="node"><title>Node20</title>
<a xlink:href="../../dc/da6/xmpp__im_8c.html#af5cf3adac08463b9b6029c8814e4f972" target="_top" xlink:title="get_roster">
<polygon fill="none" stroke="black" points="768.5,-220.085 768.5,-239.085 845.5,-239.085 845.5,-220.085 768.5,-220.085"/>
<text text-anchor="middle" x="807" y="-227.085" font-family="DejaVuSansMono" font-size="10.00">get_roster</text>
</a>
</g>
<!-- Node1&#45;&gt;Node20 -->
<g id="edge52" class="edge"><title>Node1&#45;&gt;Node20</title>
<path fill="none" stroke="midnightblue" d="M63.8324,-343.926C77.1383,-318.241 104.985,-272.972 144,-253.585 254.46,-198.7 644.577,-218.941 768.158,-226.946"/>
<polygon fill="midnightblue" stroke="midnightblue" points="60.6322,-342.501 59.3102,-353.013 66.899,-345.62 60.6322,-342.501"/>
</g>
<!-- Node22 -->
<g id="node51" class="node"><title>Node22</title>
<a xlink:href="../../d1/d2e/xmpp__server_8h.html#ae539771fafbb092bcd304e4e063370aa" target="_top" xlink:title="Append to the given stanza all the items set on this server.">
<polygon fill="none" stroke="black" points="144.5,-296.085 144.5,-315.085 341.5,-315.085 341.5,-296.085 144.5,-296.085"/>
<text text-anchor="middle" x="243" y="-303.085" font-family="DejaVuSansMono" font-size="10.00">xmpp_server_append_disco_items</text>
</a>
</g>
<!-- Node1&#45;&gt;Node22 -->
<g id="edge58" class="edge"><title>Node1&#45;&gt;Node22</title>
<path fill="none" stroke="midnightblue" d="M88.3201,-349.195C104.902,-342.798 125.343,-335.308 144,-329.585 161.584,-324.192 181.23,-319.185 198.288,-315.155"/>
<polygon fill="midnightblue" stroke="midnightblue" points="86.587,-346.115 78.5447,-353.012 89.1328,-352.635 86.587,-346.115"/>
</g>
<!-- Node23 -->
<g id="node54" class="node"><title>Node23</title>
<a xlink:href="../../d0/df0/xmpp__server_8c.html#a3b400cb24e5bc51623f63c96c8a0a342" target="_top" xlink:title="Sends a &lt;service&#45;unavailable&gt; error stanza to a client.">
<polygon fill="none" stroke="black" points="162.5,-87.0854 162.5,-106.085 323.5,-106.085 323.5,-87.0854 162.5,-87.0854"/>
<text text-anchor="middle" x="243" y="-94.0854" font-family="DejaVuSansMono" font-size="10.00">send_service_unavailable</text>
</a>
</g>
<!-- Node1&#45;&gt;Node23 -->
<g id="edge62" class="edge"><title>Node1&#45;&gt;Node23</title>
<path fill="none" stroke="midnightblue" d="M60.6935,-343.21C72.0594,-306.873 100.289,-227.238 144,-172.585 167.265,-143.497 203.841,-119.016 225.112,-106.199"/>
<polygon fill="midnightblue" stroke="midnightblue" points="57.2708,-342.435 57.7091,-353.021 63.9679,-344.472 57.2708,-342.435"/>
</g>
<!-- Node26 -->
<g id="node61" class="node"><title>Node26</title>
<a xlink:href="../../dd/d21/xmpp__stanza_8h.html#aa2b621549a5e0499793adbec29964932" target="_top" xlink:title="Allocate stanza with namespace information.">
<polygon fill="none" stroke="black" points="180.5,-182.085 180.5,-201.085 305.5,-201.085 305.5,-182.085 180.5,-182.085"/>
<text text-anchor="middle" x="243" y="-189.085" font-family="DejaVuSansMono" font-size="10.00">xmpp_stanza_ns_new</text>
</a>
</g>
<!-- Node1&#45;&gt;Node26 -->
<g id="edge70" class="edge"><title>Node1&#45;&gt;Node26</title>
<path fill="none" stroke="midnightblue" d="M61.2793,-343.021C72.5374,-311.187 99.2542,-248.435 144,-215.585 154.661,-207.759 167.557,-202.461 180.443,-198.882"/>
<polygon fill="midnightblue" stroke="midnightblue" points="57.829,-342.298 57.9377,-352.893 64.4594,-344.543 57.829,-342.298"/>
</g>
<!-- Node3 -->
<g id="node5" class="node"><title>Node3</title>
<a xlink:href="../../d7/d71/xep__muc_8c.html#a40cdc65e1b60c76aef97dfc9d3f2510f" target="_top" xlink:title="leave_room_presence">
<polygon fill="none" stroke="black" points="573.5,-581.085 573.5,-600.085 704.5,-600.085 704.5,-581.085 573.5,-581.085"/>
<text text-anchor="middle" x="639" y="-588.085" font-family="DejaVuSansMono" font-size="10.00">leave_room_presence</text>
</a>
</g>
<!-- Node2&#45;&gt;Node3 -->
<g id="edge4" class="edge"><title>Node2&#45;&gt;Node3</title>
<path fill="none" stroke="midnightblue" d="M291.824,-580.034C317.315,-584.115 349.263,-588.558 378,-590.585 444.415,-595.27 520.61,-594.557 573.268,-593.11"/>
<polygon fill="midnightblue" stroke="midnightblue" points="292.115,-576.535 281.681,-578.376 290.985,-583.443 292.115,-576.535"/>
</g>
<!-- Node8 -->
<g id="node15" class="node"><title>Node8</title>
<a xlink:href="../../d7/d71/xep__muc_8c.html#a0214cd898b2f0c746cb45f79746e5095" target="_top" xlink:title="client_disconnect">
<polygon fill="none" stroke="black" points="396.5,-562.085 396.5,-581.085 515.5,-581.085 515.5,-562.085 396.5,-562.085"/>
<text text-anchor="middle" x="456" y="-569.085" font-family="DejaVuSansMono" font-size="10.00">client_disconnect</text>
</a>
</g>
<!-- Node2&#45;&gt;Node8 -->
<g id="edge14" class="edge"><title>Node2&#45;&gt;Node8</title>
<path fill="none" stroke="midnightblue" d="M291.817,-571.585C322.735,-571.585 363.196,-571.585 396.093,-571.585"/>
<polygon fill="midnightblue" stroke="midnightblue" points="291.723,-568.085 281.723,-571.585 291.723,-575.085 291.723,-568.085"/>
</g>
<!-- Node4 -->
<g id="node7" class="node"><title>Node4</title>
<a xlink:href="../../d7/d71/xep__muc_8c.html#a9936322b944d46aead9fbd942687ec0a" target="_top" xlink:title="handle_presence">
<polygon fill="none" stroke="black" points="753.5,-524.085 753.5,-543.085 860.5,-543.085 860.5,-524.085 753.5,-524.085"/>
<text text-anchor="middle" x="807" y="-531.085" font-family="DejaVuSansMono" font-size="10.00">handle_presence</text>
</a>
</g>
<!-- Node3&#45;&gt;Node4 -->
<g id="edge6" class="edge"><title>Node3&#45;&gt;Node4</title>
<path fill="none" stroke="midnightblue" d="M677.254,-577.793C707.826,-567.296 750.442,-552.663 778.125,-543.157"/>
<polygon fill="midnightblue" stroke="midnightblue" points="676.106,-574.487 667.785,-581.045 678.379,-581.107 676.106,-574.487"/>
</g>
<!-- Node5 -->
<g id="node9" class="node"><title>Node5</title>
<a xlink:href="../../d7/d71/xep__muc_8c.html#a1798db1c16a1fa62ff8f39fea202a26f" target="_top" xlink:title="stanza_handler">
<polygon fill="none" stroke="black" points="930.5,-467.085 930.5,-486.085 1031.5,-486.085 1031.5,-467.085 930.5,-467.085"/>
<text text-anchor="middle" x="981" y="-474.085" font-family="DejaVuSansMono" font-size="10.00">stanza_handler</text>
</a>
</g>
<!-- Node4&#45;&gt;Node5 -->
<g id="edge8" class="edge"><title>Node4&#45;&gt;Node5</title>
<path fill="none" stroke="midnightblue" d="M846.6,-520.793C878.278,-510.296 922.434,-495.663 951.117,-486.157"/>
<polygon fill="midnightblue" stroke="midnightblue" points="845.18,-517.577 836.789,-524.045 847.382,-524.221 845.18,-517.577"/>
</g>
<!-- Node6 -->
<g id="node11" class="node"><title>Node6</title>
<a xlink:href="../../d7/d71/xep__muc_8c.html#addf05166cf3fbe386ae6650be21ef251" target="_top" xlink:title="xep_muc_start">
<polygon fill="none" stroke="black" points="1104.5,-429.085 1104.5,-448.085 1199.5,-448.085 1199.5,-429.085 1104.5,-429.085"/>
<text text-anchor="middle" x="1152" y="-436.085" font-family="DejaVuSansMono" font-size="10.00">xep_muc_start</text>
</a>
</g>
<!-- Node5&#45;&gt;Node6 -->
<g id="edge10" class="edge"><title>Node5&#45;&gt;Node6</title>
<path fill="none" stroke="midnightblue" d="M1034.59,-464.761C1058.41,-459.404 1086.21,-453.154 1108.66,-448.105"/>
<polygon fill="midnightblue" stroke="midnightblue" points="1033.63,-461.388 1024.65,-466.996 1035.17,-468.217 1033.63,-461.388"/>
</g>
<!-- Node7 -->
<g id="node13" class="node"><title>Node7</title>
<a xlink:href="../../d7/d71/xep__muc_8c.html#a20d385a5584d8014ec4d5774eb79d1de" target="_top" xlink:title="xep_muc_stop">
<polygon fill="none" stroke="black" points="1107.5,-467.085 1107.5,-486.085 1196.5,-486.085 1196.5,-467.085 1107.5,-467.085"/>
<text text-anchor="middle" x="1152" y="-474.085" font-family="DejaVuSansMono" font-size="10.00">xep_muc_stop</text>
</a>
</g>
<!-- Node5&#45;&gt;Node7 -->
<g id="edge12" class="edge"><title>Node5&#45;&gt;Node7</title>
<path fill="none" stroke="midnightblue" d="M1041.84,-476.585C1063.42,-476.585 1087.36,-476.585 1107.3,-476.585"/>
<polygon fill="midnightblue" stroke="midnightblue" points="1041.79,-473.085 1031.79,-476.585 1041.79,-480.085 1041.79,-473.085"/>
</g>
<!-- Node9 -->
<g id="node17" class="node"><title>Node9</title>
<a xlink:href="../../d7/d71/xep__muc_8c.html#aefd23f2960520a68fea212344b85cb0b" target="_top" xlink:title="enter_room_presence">
<polygon fill="none" stroke="black" points="573.5,-524.085 573.5,-543.085 704.5,-543.085 704.5,-524.085 573.5,-524.085"/>
<text text-anchor="middle" x="639" y="-531.085" font-family="DejaVuSansMono" font-size="10.00">enter_room_presence</text>
</a>
</g>
<!-- Node8&#45;&gt;Node9 -->
<g id="edge16" class="edge"><title>Node8&#45;&gt;Node9</title>
<path fill="none" stroke="midnightblue" d="M512.638,-559.904C538.307,-554.515 568.391,-548.199 592.654,-543.105"/>
<polygon fill="midnightblue" stroke="midnightblue" points="511.741,-556.516 502.674,-561.996 513.18,-563.367 511.741,-556.516"/>
</g>
<!-- Node9&#45;&gt;Node4 -->
<g id="edge18" class="edge"><title>Node9&#45;&gt;Node4</title>
<path fill="none" stroke="midnightblue" d="M714.957,-533.585C727.904,-533.585 741.113,-533.585 753.311,-533.585"/>
<polygon fill="midnightblue" stroke="midnightblue" points="714.655,-530.085 704.655,-533.585 714.655,-537.085 714.655,-530.085"/>
</g>
<!-- Node11 -->
<g id="node22" class="node"><title>Node11</title>
<a xlink:href="../../d7/d71/xep__muc_8c.html#aec1096d47742f472668c4905fa3c299a" target="_top" xlink:title="handle_iq">
<polygon fill="none" stroke="black" points="420.5,-448.085 420.5,-467.085 491.5,-467.085 491.5,-448.085 420.5,-448.085"/>
<text text-anchor="middle" x="456" y="-455.085" font-family="DejaVuSansMono" font-size="10.00">handle_iq</text>
</a>
</g>
<!-- Node10&#45;&gt;Node11 -->
<g id="edge22" class="edge"><title>Node10&#45;&gt;Node11</title>
<path fill="none" stroke="midnightblue" d="M315.861,-457.585C351.133,-457.585 392.008,-457.585 420.286,-457.585"/>
<polygon fill="midnightblue" stroke="midnightblue" points="315.597,-454.085 305.597,-457.585 315.597,-461.085 315.597,-454.085"/>
</g>
<!-- Node11&#45;&gt;Node5 -->
<g id="edge24" class="edge"><title>Node11&#45;&gt;Node5</title>
<path fill="none" stroke="midnightblue" d="M501.815,-459.213C599.108,-462.748 829.058,-471.102 930.477,-474.786"/>
<polygon fill="midnightblue" stroke="midnightblue" points="501.841,-455.712 491.721,-458.847 501.587,-462.708 501.841,-455.712"/>
</g>
<!-- Node12&#45;&gt;Node11 -->
<g id="edge28" class="edge"><title>Node12&#45;&gt;Node11</title>
<path fill="none" stroke="midnightblue" d="M307.177,-430.963C344.209,-437.633 389.582,-445.804 420.215,-451.321"/>
<polygon fill="midnightblue" stroke="midnightblue" points="307.434,-427.453 296.972,-429.125 306.193,-434.342 307.434,-427.453"/>
</g>
<!-- Node13&#45;&gt;Node9 -->
<g id="edge32" class="edge"><title>Node13&#45;&gt;Node9</title>
<path fill="none" stroke="midnightblue" d="M540.674,-533.585C551.684,-533.585 562.829,-533.585 573.453,-533.585"/>
<polygon fill="midnightblue" stroke="midnightblue" points="540.62,-530.085 530.62,-533.585 540.62,-537.085 540.62,-530.085"/>
</g>
<!-- Node14&#45;&gt;Node9 -->
<g id="edge36" class="edge"><title>Node14&#45;&gt;Node9</title>
<path fill="none" stroke="midnightblue" d="M512.638,-507.266C538.307,-512.655 568.391,-518.971 592.654,-524.065"/>
<polygon fill="midnightblue" stroke="midnightblue" points="513.18,-503.804 502.674,-505.174 511.741,-510.654 513.18,-503.804"/>
</g>
<!-- Node16 -->
<g id="node36" class="node"><title>Node16</title>
<a xlink:href="../../d1/d2e/xmpp__server_8h.html#a27bfc8e4d424a8bc17ab21a4a09cdf92" target="_top" xlink:title="Allocates and initializes the XMPP server.">
<polygon fill="none" stroke="black" points="1584.5,-239.085 1584.5,-258.085 1691.5,-258.085 1691.5,-239.085 1584.5,-239.085"/>
<text text-anchor="middle" x="1638" y="-246.085" font-family="DejaVuSansMono" font-size="10.00">xmpp_server_new</text>
</a>
</g>
<!-- Node15&#45;&gt;Node16 -->
<g id="edge40" class="edge"><title>Node15&#45;&gt;Node16</title>
<path fill="none" stroke="midnightblue" d="M880.029,-381.585C949.434,-381.585 1057.4,-381.585 1151,-381.585 1151,-381.585 1151,-381.585 1321,-381.585 1425.58,-381.585 1454.76,-366.95 1548,-319.585 1580.43,-303.114 1612.22,-273.642 1627.53,-258.366"/>
<polygon fill="midnightblue" stroke="midnightblue" points="879.652,-378.085 869.652,-381.585 879.652,-385.085 879.652,-378.085"/>
</g>
<!-- Node17 -->
<g id="node38" class="node"><title>Node17</title>
<a xlink:href="../../d0/d29/main_8c.html#a0ddf1224851353fc92bfbff6f499fa97" target="_top" xlink:title="main">
<polygon fill="none" stroke="black" points="1728.5,-239.085 1728.5,-258.085 1769.5,-258.085 1769.5,-239.085 1728.5,-239.085"/>
<text text-anchor="middle" x="1749" y="-246.085" font-family="DejaVuSansMono" font-size="10.00">main</text>
</a>
</g>
<!-- Node16&#45;&gt;Node17 -->
<g id="edge42" class="edge"><title>Node16&#45;&gt;Node17</title>
<path fill="none" stroke="midnightblue" d="M1701.75,-248.585C1711.43,-248.585 1720.76,-248.585 1728.47,-248.585"/>
<polygon fill="midnightblue" stroke="midnightblue" points="1701.58,-245.085 1691.58,-248.585 1701.58,-252.085 1701.58,-245.085"/>
</g>
<!-- Node18&#45;&gt;Node16 -->
<g id="edge46" class="edge"><title>Node18&#45;&gt;Node16</title>
<path fill="none" stroke="midnightblue" d="M540.717,-305.585C611.415,-305.585 715.332,-305.585 806,-305.585 806,-305.585 806,-305.585 1321,-305.585 1426.64,-305.585 1549.03,-274.352 1605.49,-258.126"/>
<polygon fill="midnightblue" stroke="midnightblue" points="540.533,-302.085 530.533,-305.585 540.533,-309.085 540.533,-302.085"/>
</g>
<!-- Node19&#45;&gt;Node16 -->
<g id="edge50" class="edge"><title>Node19&#45;&gt;Node16</title>
<path fill="none" stroke="midnightblue" d="M1401.66,-262.736C1459.07,-259.284 1534.57,-254.744 1584.38,-251.749"/>
<polygon fill="midnightblue" stroke="midnightblue" points="1401.3,-259.251 1391.52,-263.345 1401.72,-266.238 1401.3,-259.251"/>
</g>
<!-- Node21 -->
<g id="node48" class="node"><title>Node21</title>
<a xlink:href="../../d9/dd7/xmpp__im_8h.html#a40f3cf6fffd6aafe9c7cde476fdbc9c2" target="_top" xlink:title="IQ stanza callback for handing a roster query.">
<polygon fill="none" stroke="black" points="1428.5,-220.085 1428.5,-239.085 1547.5,-239.085 1547.5,-220.085 1428.5,-220.085"/>
<text text-anchor="middle" x="1488" y="-227.085" font-family="DejaVuSansMono" font-size="10.00">xmpp_im_iq_roster</text>
</a>
</g>
<!-- Node20&#45;&gt;Node21 -->
<g id="edge54" class="edge"><title>Node20&#45;&gt;Node21</title>
<path fill="none" stroke="midnightblue" d="M856.063,-229.585C977.456,-229.585 1296.12,-229.585 1428.27,-229.585"/>
<polygon fill="midnightblue" stroke="midnightblue" points="855.961,-226.085 845.961,-229.585 855.961,-233.085 855.961,-226.085"/>
</g>
<!-- Node21&#45;&gt;Node16 -->
<g id="edge56" class="edge"><title>Node21&#45;&gt;Node16</title>
<path fill="none" stroke="midnightblue" d="M1558.09,-238.454C1566.81,-239.574 1575.62,-240.705 1584.04,-241.786"/>
<polygon fill="midnightblue" stroke="midnightblue" points="1558.28,-234.951 1547.92,-237.149 1557.39,-241.894 1558.28,-234.951"/>
</g>
<!-- Node22&#45;&gt;Node18 -->
<g id="edge60" class="edge"><title>Node22&#45;&gt;Node18</title>
<path fill="none" stroke="midnightblue" d="M352.053,-305.585C361.915,-305.585 371.747,-305.585 381.204,-305.585"/>
<polygon fill="midnightblue" stroke="midnightblue" points="351.779,-302.085 341.779,-305.585 351.779,-309.085 351.779,-302.085"/>
</g>
<!-- Node24 -->
<g id="node56" class="node"><title>Node24</title>
<a xlink:href="../../d1/d2e/xmpp__server_8h.html#a8ddb3bbfd497811c13e9426ce6f02003" target="_top" xlink:title="Deliver an IQ stanza to a registered callback function.">
<polygon fill="none" stroke="black" points="570.5,-55.0854 570.5,-74.0854 707.5,-74.0854 707.5,-55.0854 570.5,-55.0854"/>
<text text-anchor="middle" x="639" y="-62.0854" font-family="DejaVuSansMono" font-size="10.00">xmpp_server_route_iq</text>
</a>
</g>
<!-- Node23&#45;&gt;Node24 -->
<g id="edge64" class="edge"><title>Node23&#45;&gt;Node24</title>
<path fill="none" stroke="midnightblue" d="M334.125,-89.2655C405.958,-83.4314 504.978,-75.3892 570.199,-70.092"/>
<polygon fill="midnightblue" stroke="midnightblue" points="333.416,-85.8116 323.732,-90.1097 333.982,-92.7886 333.416,-85.8116"/>
</g>
<!-- Node25 -->
<g id="node58" class="node"><title>Node25</title>
<a xlink:href="../../d8/d28/xmpp__core_8h.html#a777c384ae6685d30bfa255c4b33022aa" target="_top" xlink:title="An xmpp_server stanza route for stanzas directed to the server itself.">
<polygon fill="none" stroke="black" points="906.5,-34.0854 906.5,-53.0854 1055.5,-53.0854 1055.5,-34.0854 906.5,-34.0854"/>
<text text-anchor="middle" x="981" y="-41.0854" font-family="DejaVuSansMono" font-size="10.00">xmpp_core_route_server</text>
</a>
</g>
<!-- Node24&#45;&gt;Node25 -->
<g id="edge66" class="edge"><title>Node24&#45;&gt;Node25</title>
<path fill="none" stroke="midnightblue" d="M717.567,-59.7944C774.246,-56.2937 850.621,-51.5764 906.36,-48.1337"/>
<polygon fill="midnightblue" stroke="midnightblue" points="717.345,-56.3014 707.58,-60.4113 717.776,-63.2881 717.345,-56.3014"/>
</g>
<!-- Node25&#45;&gt;Node16 -->
<g id="edge68" class="edge"><title>Node25&#45;&gt;Node16</title>
<path fill="none" stroke="midnightblue" d="M1026.44,-31.5422C1128.3,-6.70211 1382.52,39.329 1548,-68.5854 1610.49,-109.337 1630.7,-207.739 1635.65,-238.931"/>
<polygon fill="midnightblue" stroke="midnightblue" points="1025.36,-28.2061 1016.5,-34.0194 1027.05,-34.9985 1025.36,-28.2061"/>
</g>
<!-- Node27 -->
<g id="node63" class="node"><title>Node27</title>
<a xlink:href="../../d1/dc2/xmpp__parser_8c.html#a2268b636f6d02bbe04f3033ff93d829c" target="_top" xlink:title="Expat callback for the start of an XMPP stream.">
<polygon fill="none" stroke="black" points="594.5,-182.085 594.5,-201.085 683.5,-201.085 683.5,-182.085 594.5,-182.085"/>
<text text-anchor="middle" x="639" y="-189.085" font-family="DejaVuSansMono" font-size="10.00">stream_start</text>
</a>
</g>
<!-- Node26&#45;&gt;Node27 -->
<g id="edge72" class="edge"><title>Node26&#45;&gt;Node27</title>
<path fill="none" stroke="midnightblue" d="M315.713,-191.585C396.974,-191.585 526.846,-191.585 594.235,-191.585"/>
<polygon fill="midnightblue" stroke="midnightblue" points="315.563,-188.085 305.562,-191.585 315.562,-195.085 315.563,-188.085"/>
</g>
<!-- Node38 -->
<g id="node88" class="node"><title>Node38</title>
<a xlink:href="../../d1/dc2/xmpp__parser_8c.html#a0f2993ab3e982d5e2b4a5635dcaf291c" target="_top" xlink:title="Expat callback for the start of any other element.">
<polygon fill="none" stroke="black" points="432.5,-144.085 432.5,-163.085 479.5,-163.085 479.5,-144.085 432.5,-144.085"/>
<text text-anchor="middle" x="456" y="-151.085" font-family="DejaVuSansMono" font-size="10.00">start</text>
</a>
</g>
<!-- Node26&#45;&gt;Node38 -->
<g id="edge100" class="edge"><title>Node26&#45;&gt;Node38</title>
<path fill="none" stroke="midnightblue" d="M306.923,-180.253C349.253,-172.63 402.572,-163.027 432.302,-157.673"/>
<polygon fill="midnightblue" stroke="midnightblue" points="306.193,-176.828 296.972,-182.045 307.434,-183.717 306.193,-176.828"/>
</g>
<!-- Node28 -->
<g id="node65" class="node"><title>Node28</title>
<a xlink:href="../../d1/dc2/xmpp__parser_8c.html#a03a135f29e3d4e01abbb60e53ac6967c" target="_top" xlink:title="init_parser">
<polygon fill="none" stroke="black" points="765.5,-144.085 765.5,-163.085 848.5,-163.085 848.5,-144.085 765.5,-144.085"/>
<text text-anchor="middle" x="807" y="-151.085" font-family="DejaVuSansMono" font-size="10.00">init_parser</text>
</a>
</g>
<!-- Node27&#45;&gt;Node28 -->
<g id="edge74" class="edge"><title>Node27&#45;&gt;Node28</title>
<path fill="none" stroke="midnightblue" d="M691.768,-179.735C715.451,-174.314 743.105,-167.983 765.272,-162.909"/>
<polygon fill="midnightblue" stroke="midnightblue" points="690.856,-176.353 681.889,-181.996 692.418,-183.177 690.856,-176.353"/>
</g>
<!-- Node29 -->
<g id="node67" class="node"><title>Node29</title>
<a xlink:href="../../d8/d55/xmpp__parser_8h.html#adf25a1d2047994dfa6cc71a9482548c2" target="_top" xlink:title="xmpp_parser_new">
<polygon fill="none" stroke="black" points="927.5,-144.085 927.5,-163.085 1034.5,-163.085 1034.5,-144.085 927.5,-144.085"/>
<text text-anchor="middle" x="981" y="-151.085" font-family="DejaVuSansMono" font-size="10.00">xmpp_parser_new</text>
</a>
</g>
<!-- Node28&#45;&gt;Node29 -->
<g id="edge76" class="edge"><title>Node28&#45;&gt;Node29</title>
<path fill="none" stroke="midnightblue" d="M859.039,-153.585C880.615,-153.585 905.73,-153.585 927.465,-153.585"/>
<polygon fill="midnightblue" stroke="midnightblue" points="858.762,-150.085 848.762,-153.585 858.762,-157.085 858.762,-150.085"/>
</g>
<!-- Node33 -->
<g id="node76" class="node"><title>Node33</title>
<a xlink:href="../../d8/d55/xmpp__parser_8h.html#af5e1eb5bbef0496c3543bd35113766ac" target="_top" xlink:title="Reset the state of the parser as if it was just created.">
<polygon fill="none" stroke="black" points="921.5,-106.085 921.5,-125.085 1040.5,-125.085 1040.5,-106.085 921.5,-106.085"/>
<text text-anchor="middle" x="981" y="-113.085" font-family="DejaVuSansMono" font-size="10.00">xmpp_parser_reset</text>
</a>
</g>
<!-- Node28&#45;&gt;Node33 -->
<g id="edge86" class="edge"><title>Node28&#45;&gt;Node33</title>
<path fill="none" stroke="midnightblue" d="M858.723,-142.379C883.542,-136.896 913.104,-130.365 936.828,-125.123"/>
<polygon fill="midnightblue" stroke="midnightblue" points="857.771,-139.005 848.762,-144.58 859.281,-145.84 857.771,-139.005"/>
</g>
<!-- Node30 -->
<g id="node69" class="node"><title>Node30</title>
<a xlink:href="../../d6/d78/xmp3__multicast_8c.html#a08afc39c59ec9297d756a99c395eff3c" target="_top" xlink:title="multicast_new">
<polygon fill="none" stroke="black" points="1104.5,-144.085 1104.5,-163.085 1199.5,-163.085 1199.5,-144.085 1104.5,-144.085"/>
<text text-anchor="middle" x="1152" y="-151.085" font-family="DejaVuSansMono" font-size="10.00">multicast_new</text>
</a>
</g>
<!-- Node29&#45;&gt;Node30 -->
<g id="edge78" class="edge"><title>Node29&#45;&gt;Node30</title>
<path fill="none" stroke="midnightblue" d="M1044.72,-153.585C1064.52,-153.585 1086.04,-153.585 1104.5,-153.585"/>
<polygon fill="midnightblue" stroke="midnightblue" points="1044.55,-150.085 1034.55,-153.585 1044.55,-157.085 1044.55,-150.085"/>
</g>
<!-- Node31 -->
<g id="node71" class="node"><title>Node31</title>
<a xlink:href="../../d4/d2f/xmpp__client_8h.html#a1619c0b8f58b2cf09a322bf34fbc3414" target="_top" xlink:title="xmpp_client_new">
<polygon fill="none" stroke="black" points="1266.5,-182.085 1266.5,-201.085 1373.5,-201.085 1373.5,-182.085 1266.5,-182.085"/>
<text text-anchor="middle" x="1320" y="-189.085" font-family="DejaVuSansMono" font-size="10.00">xmpp_client_new</text>
</a>
</g>
<!-- Node29&#45;&gt;Node31 -->
<g id="edge80" class="edge"><title>Node29&#45;&gt;Node31</title>
<path fill="none" stroke="midnightblue" d="M1041.63,-164.864C1057.92,-167.678 1075.6,-170.487 1092,-172.585 1151.43,-180.19 1220.02,-185.448 1266.11,-188.474"/>
<polygon fill="midnightblue" stroke="midnightblue" points="1042.15,-161.401 1031.69,-163.118 1040.93,-168.296 1042.15,-161.401"/>
</g>
<!-- Node32 -->
<g id="node73" class="node"><title>Node32</title>
<a xlink:href="../../d0/df0/xmpp__server_8c.html#a66363912ef1221a2574f9f99805fe8fd" target="_top" xlink:title="Callback for new client connections.">
<polygon fill="none" stroke="black" points="1437.5,-182.085 1437.5,-201.085 1538.5,-201.085 1538.5,-182.085 1437.5,-182.085"/>
<text text-anchor="middle" x="1488" y="-189.085" font-family="DejaVuSansMono" font-size="10.00">connect_client</text>
</a>
</g>
<!-- Node31&#45;&gt;Node32 -->
<g id="edge82" class="edge"><title>Node31&#45;&gt;Node32</title>
<path fill="none" stroke="midnightblue" d="M1383.78,-191.585C1401.5,-191.585 1420.53,-191.585 1437.36,-191.585"/>
<polygon fill="midnightblue" stroke="midnightblue" points="1383.52,-188.085 1373.52,-191.585 1383.52,-195.085 1383.52,-188.085"/>
</g>
<!-- Node32&#45;&gt;Node16 -->
<g id="edge84" class="edge"><title>Node32&#45;&gt;Node16</title>
<path fill="none" stroke="midnightblue" d="M1530.31,-204.354C1536.28,-206.353 1542.32,-208.462 1548,-210.585 1571.61,-219.405 1598.11,-230.935 1616,-238.972"/>
<polygon fill="midnightblue" stroke="midnightblue" points="1531.01,-200.9 1520.42,-201.112 1528.83,-207.552 1531.01,-200.9"/>
</g>
<!-- Node34 -->
<g id="node78" class="node"><title>Node34</title>
<a xlink:href="../../d6/d78/xmp3__multicast_8c.html#a9865e8026fb8ee000629fc1da465716d" target="_top" xlink:title="socket_handler">
<polygon fill="none" stroke="black" points="1269.5,-78.0854 1269.5,-97.0854 1370.5,-97.0854 1370.5,-78.0854 1269.5,-78.0854"/>
<text text-anchor="middle" x="1320" y="-85.0854" font-family="DejaVuSansMono" font-size="10.00">socket_handler</text>
</a>
</g>
<!-- Node33&#45;&gt;Node34 -->
<g id="edge88" class="edge"><title>Node33&#45;&gt;Node34</title>
<path fill="none" stroke="midnightblue" d="M1039.21,-104.237C1056.14,-101.276 1074.76,-98.4077 1092,-96.5854 1152.79,-90.1579 1223.19,-88.2144 1269.27,-87.6813"/>
<polygon fill="midnightblue" stroke="midnightblue" points="1038.14,-100.873 1028.92,-106.083 1039.38,-107.763 1038.14,-100.873"/>
</g>
<!-- Node36 -->
<g id="node82" class="node"><title>Node36</title>
<a xlink:href="../../d8/d55/xmpp__parser_8h.html#a578b7a9a50212eb204a86789001287af" target="_top" xlink:title="xmpp_parser_parse">
<polygon fill="none" stroke="black" points="1092.5,-106.085 1092.5,-125.085 1211.5,-125.085 1211.5,-106.085 1092.5,-106.085"/>
<text text-anchor="middle" x="1152" y="-113.085" font-family="DejaVuSansMono" font-size="10.00">xmpp_parser_parse</text>
</a>
</g>
<!-- Node33&#45;&gt;Node36 -->
<g id="edge92" class="edge"><title>Node33&#45;&gt;Node36</title>
<path fill="none" stroke="midnightblue" d="M1051.02,-115.585C1064.78,-115.585 1079.1,-115.585 1092.47,-115.585"/>
<polygon fill="midnightblue" stroke="midnightblue" points="1050.63,-112.085 1040.63,-115.585 1050.63,-119.085 1050.63,-112.085"/>
</g>
<!-- Node35 -->
<g id="node80" class="node"><title>Node35</title>
<a xlink:href="../../d6/d78/xmp3__multicast_8c.html#a991c928ab73b350c4b7029352e91a219" target="_top" xlink:title="multicast_start">
<polygon fill="none" stroke="black" points="1434.5,-78.0854 1434.5,-97.0854 1541.5,-97.0854 1541.5,-78.0854 1434.5,-78.0854"/>
<text text-anchor="middle" x="1488" y="-85.0854" font-family="DejaVuSansMono" font-size="10.00">multicast_start</text>
</a>
</g>
<!-- Node34&#45;&gt;Node35 -->
<g id="edge90" class="edge"><title>Node34&#45;&gt;Node35</title>
<path fill="none" stroke="midnightblue" d="M1380.9,-87.5854C1398.38,-87.5854 1417.35,-87.5854 1434.34,-87.5854"/>
<polygon fill="midnightblue" stroke="midnightblue" points="1380.81,-84.0855 1370.81,-87.5854 1380.81,-91.0855 1380.81,-84.0855"/>
</g>
<!-- Node36&#45;&gt;Node34 -->
<g id="edge94" class="edge"><title>Node36&#45;&gt;Node34</title>
<path fill="none" stroke="midnightblue" d="M1219.8,-104.317C1236.31,-101.532 1253.71,-98.5973 1269.25,-95.9765"/>
<polygon fill="midnightblue" stroke="midnightblue" points="1218.94,-100.913 1209.66,-106.028 1220.11,-107.816 1218.94,-100.913"/>
</g>
<!-- Node37 -->
<g id="node85" class="node"><title>Node37</title>
<a xlink:href="../../d0/df0/xmpp__server_8c.html#abece91815ef240322d79073f5bfca1db" target="_top" xlink:title="Callback for new data from a client.">
<polygon fill="none" stroke="black" points="1278.5,-125.085 1278.5,-144.085 1361.5,-144.085 1361.5,-125.085 1278.5,-125.085"/>
<text text-anchor="middle" x="1320" y="-132.085" font-family="DejaVuSansMono" font-size="10.00">read_client</text>
</a>
</g>
<!-- Node36&#45;&gt;Node37 -->
<g id="edge96" class="edge"><title>Node36&#45;&gt;Node37</title>
<path fill="none" stroke="midnightblue" d="M1221.52,-123.428C1240.87,-125.643 1261.3,-127.982 1278.44,-129.943"/>
<polygon fill="midnightblue" stroke="midnightblue" points="1221.86,-119.944 1211.53,-122.284 1221.06,-126.899 1221.86,-119.944"/>
</g>
<!-- Node37&#45;&gt;Node32 -->
<g id="edge98" class="edge"><title>Node37&#45;&gt;Node32</title>
<path fill="none" stroke="midnightblue" d="M1358.25,-147.377C1388.83,-157.875 1431.44,-172.508 1459.12,-182.014"/>
<polygon fill="midnightblue" stroke="midnightblue" points="1359.38,-144.063 1348.78,-144.126 1357.11,-150.684 1359.38,-144.063"/>
</g>
<!-- Node38&#45;&gt;Node27 -->
<g id="edge104" class="edge"><title>Node38&#45;&gt;Node27</title>
<path fill="none" stroke="midnightblue" d="M489.669,-160.444C518.946,-166.591 562.117,-175.654 594.345,-182.42"/>
<polygon fill="midnightblue" stroke="midnightblue" points="490.064,-156.951 479.558,-158.321 488.625,-163.801 490.064,-156.951"/>
</g>
<!-- Node38&#45;&gt;Node28 -->
<g id="edge102" class="edge"><title>Node38&#45;&gt;Node28</title>
<path fill="none" stroke="midnightblue" d="M489.954,-153.585C554.078,-153.585 695.451,-153.585 765.303,-153.585"/>
<polygon fill="midnightblue" stroke="midnightblue" points="489.63,-150.085 479.63,-153.585 489.63,-157.085 489.63,-150.085"/>
</g>
</g>
</svg>
        <g id="navigator" transform="translate(0 0)" fill="#404254">
                <rect fill="#f2f5e9" fill-opacity="0.5" stroke="#606060" stroke-width=".5" x="0" y="0" width="60" height="60"/>
                <use id="zoomplus" xlink:href="#zoomPlus" x="17" y="9" onmousedown="handleZoom(evt,'in')"/>
                <use id="zoomminus" xlink:href="#zoomMin" x="42" y="9" onmousedown="handleZoom(evt,'out')"/>
                <use id="reset" xlink:href="#resetDef" x="30" y="36" onmousedown="handleReset()"/>
                <g id="arrowUp" xlink:href="#dirArrow" transform="translate(30 24)" onmousedown="handlePan(0,-1)">
                  <use xlink:href="#rim" fill="#404040">
                        <set attributeName="fill" to="#808080" begin="arrowUp.mouseover" end="arrowUp.mouseout"/>
                  </use>
                  <path fill="none" stroke="white" stroke-width="1.5" d="M0,-3.0v7 M-2.5,-0.5L0,-3.0L2.5,-0.5"/>
                </g>
                <g id="arrowRight" xlink:href="#dirArrow" transform="rotate(90) translate(36 -43)" onmousedown="handlePan(1,0)">
                  <use xlink:href="#rim" fill="#404040">
                        <set attributeName="fill" to="#808080" begin="arrowRight.mouseover" end="arrowRight.mouseout"/>
                  </use>
                  <path fill="none" stroke="white" stroke-width="1.5" d="M0,-3.0v7 M-2.5,-0.5L0,-3.0L2.5,-0.5"/>
                </g>
                <g id="arrowDown" xlink:href="#dirArrow" transform="rotate(180) translate(-30 -48)" onmousedown="handlePan(0,1)">
                  <use xlink:href="#rim" fill="#404040">
                        <set attributeName="fill" to="#808080" begin="arrowDown.mouseover" end="arrowDown.mouseout"/>
                  </use>
                  <path fill="none" stroke="white" stroke-width="1.5" d="M0,-3.0v7 M-2.5,-0.5L0,-3.0L2.5,-0.5"/>
                </g>
                <g id="arrowLeft" xlink:href="#dirArrow" transform="rotate(270) translate(-36 17)" onmousedown="handlePan(-1,0)">
                  <use xlink:href="#rim" fill="#404040">
                        <set attributeName="fill" to="#808080" begin="arrowLeft.mouseover" end="arrowLeft.mouseout"/>
                  </use>
                  <path fill="none" stroke="white" stroke-width="1.5" d="M0,-3.0v7 M-2.5,-0.5L0,-3.0L2.5,-0.5"/>
                </g>
        </g>
        <svg viewBox="0 0 25 25" width="100%" height="30px" preserveAspectRatio="xMaxYMin meet"> 
          <g id="printButton" transform="scale(0.4 0.4)" onmousedown="handlePrint(evt)">
            <rect height="23.33753581" id="paper" rx="2" style="fill:#f2f5e9;fill-rule:evenodd;stroke:#111111;stroke-width:3.224;stroke-linejoin:round;" transform="matrix(1.000000,0.000000,-0.339266,0.940691,0.000000,0.000000)" width="25.55231285" x="26.69387353" y="7.36162977"/>
            <rect height="26.272097" id="body" rx="2" style="fill:#404040;fill-rule:evenodd;stroke:#111111;stroke-width:3.125;stroke-linejoin:round;" width="50" x="4.5295201" y="27.078951"/>
            <rect height="8.27750969" id="tray" style="fill:#d2d5c9;fill-rule:evenodd;stroke:#111111;stroke-width:3.125;stroke-linecap:round;stroke-linejoin:round;" width="40" x="10.28778839" y="44.96812282"/>
          </g>
        </svg>
</svg>
