<?xml version="1.0" encoding="UTF-8" standalone="no"?>
<!DOCTYPE svg PUBLIC "-//W3C//DTD SVG 1.1//EN"
 "http://www.w3.org/Graphics/SVG/1.1/DTD/svg11.dtd">
<!-- Generated by graphviz version 2.28.0 (20120217.0315)
 -->
<!-- Title: G Pages: 1 -->
<!--zoomable 341 -->
<svg id="main" version="1.1" xmlns="http://www.w3.org/2000/svg" xmlns:xlink="http://www.w3.org/1999/xlink" xml:space="preserve" onload="init(evt)">
        <defs>
                <circle id="rim" cx="0" cy="0" r="7"/>
                <circle id="rim2" cx="0" cy="0" r="3.5"/>
                <g id="zoomPlus">
                        <use xlink:href="#rim" fill="#404040">
                                <set attributeName="fill" to="#808080" begin="zoomplus.mouseover" end="zoomplus.mouseout"/>
                        </use>
                        <path d="M-4,0h8M0,-4v8" fill="none" stroke="white" stroke-width="1.5" pointer-events="none"/>
                </g>
                <g id="zoomMin">
                        <use xlink:href="#rim" fill="#404040">
                                <set attributeName="fill" to="#808080" begin="zoomminus.mouseover" end="zoomminus.mouseout"/>
                        </use>
                        <path d="M-4,0h8" fill="none" stroke="white" stroke-width="1.5" pointer-events="none"/>
                </g>
                <g id="dirArrow">
                        <path fill="none" stroke="white" stroke-width="1.5" d="M0,-3.0v7 M-2.5,-0.5L0,-3.0L2.5,-0.5"/>
                </g>
               <g id="resetDef">
                       <use xlink:href="#rim2" fill="#404040">
                               <set attributeName="fill" to="#808080" begin="reset.mouseover" end="reset.mouseout"/>
                       </use>
               </g>
        </defs>

<script type="text/javascript">
var viewWidth = 1808;
var viewHeight = 341;
var sectionId = 'dynsection-30';
</script>
<script xlink:href="../../svgpan.js"/>
<svg id="graph" class="graph">
<g id="viewport">
<title>G</title>
<!-- Node1 -->
<g id="node1" class="node"><title>Node1</title>
<polygon fill="#bfbfbf" stroke="black" points="0.5,-204.5 0.5,-223.5 125.5,-223.5 125.5,-204.5 0.5,-204.5"/>
<text text-anchor="middle" x="63" y="-211.5" font-family="DejaVuSansMono" font-size="10.00">xmpp_stanza_string</text>
</g>
<!-- Node2 -->
<g id="node3" class="node"><title>Node2</title>
<a xlink:href="../../d6/d78/xmp3__multicast_8c.html#a3ef84feef94d4ad6045cd45fd91b531c" target="_top" xlink:title="local_stanza_handler">
<polygon fill="none" stroke="black" points="168.5,-280.5 168.5,-299.5 305.5,-299.5 305.5,-280.5 168.5,-280.5"/>
<text text-anchor="middle" x="237" y="-287.5" font-family="DejaVuSansMono" font-size="10.00">local_stanza_handler</text>
</a>
</g>
<!-- Node1&#45;&gt;Node2 -->
<g id="edge2" class="edge"><title>Node1&#45;&gt;Node2</title>
<path fill="none" stroke="midnightblue" d="M95.3719,-227.862C129.869,-243.105 184.376,-267.19 214.393,-280.453"/>
<polygon fill="midnightblue" stroke="midnightblue" points="96.3454,-224.466 85.7839,-223.625 93.5162,-230.869 96.3454,-224.466"/>
</g>
<!-- Node5 -->
<g id="node9" class="node"><title>Node5</title>
<a xlink:href="../../d8/d28/xmpp__core_8h.html#a3b41e83061abd7ed5b258c7aa7dda0d6" target="_top" xlink:title="An xmpp_server stanza route for stanzas directed to a local client.">
<polygon fill="none" stroke="black" points="162.5,-114.5 162.5,-133.5 311.5,-133.5 311.5,-114.5 162.5,-114.5"/>
<text text-anchor="middle" x="237" y="-121.5" font-family="DejaVuSansMono" font-size="10.00">xmpp_core_route_client</text>
</a>
</g>
<!-- Node1&#45;&gt;Node5 -->
<g id="edge8" class="edge"><title>Node1&#45;&gt;Node5</title>
<path fill="none" stroke="midnightblue" d="M91.6959,-199.508C127.139,-180.962 187.553,-149.35 217.725,-133.562"/>
<polygon fill="midnightblue" stroke="midnightblue" points="89.6447,-196.631 82.407,-204.368 92.89,-202.833 89.6447,-196.631"/>
</g>
<!-- Node20 -->
<g id="node46" class="node"><title>Node20</title>
<a xlink:href="../../d1/dc2/xmpp__parser_8c.html#a2268b636f6d02bbe04f3033ff93d829c" target="_top" xlink:title="Expat callback for the start of an XMPP stream.">
<polygon fill="none" stroke="black" points="192.5,-223.5 192.5,-242.5 281.5,-242.5 281.5,-223.5 192.5,-223.5"/>
<text text-anchor="middle" x="237" y="-230.5" font-family="DejaVuSansMono" font-size="10.00">stream_start</text>
</a>
</g>
<!-- Node1&#45;&gt;Node20 -->
<g id="edge52" class="edge"><title>Node1&#45;&gt;Node20</title>
<path fill="none" stroke="midnightblue" d="M135.573,-221.906C154.84,-224.035 175.1,-226.273 192.337,-228.177"/>
<polygon fill="midnightblue" stroke="midnightblue" points="135.934,-218.425 125.61,-220.806 135.165,-225.383 135.934,-218.425"/>
</g>
<!-- Node27 -->
<g id="node64" class="node"><title>Node27</title>
<a xlink:href="../../d1/dc2/xmpp__parser_8c.html#adc3f7670edafd5b590af11d276887f1e" target="_top" xlink:title="Expat callback for end elements.">
<polygon fill="none" stroke="black" points="219.5,-185.5 219.5,-204.5 254.5,-204.5 254.5,-185.5 219.5,-185.5"/>
<text text-anchor="middle" x="237" y="-192.5" font-family="DejaVuSansMono" font-size="10.00">end</text>
</a>
</g>
<!-- Node1&#45;&gt;Node27 -->
<g id="edge74" class="edge"><title>Node1&#45;&gt;Node27</title>
<path fill="none" stroke="midnightblue" d="M135.914,-206.056C166.644,-202.661 199.842,-198.994 219.23,-196.852"/>
<polygon fill="midnightblue" stroke="midnightblue" points="135.165,-202.617 125.61,-207.194 135.934,-209.575 135.165,-202.617"/>
</g>
<!-- Node3 -->
<g id="node5" class="node"><title>Node3</title>
<a xlink:href="../../d6/d78/xmp3__multicast_8c.html#a991c928ab73b350c4b7029352e91a219" target="_top" xlink:title="multicast_start">
<polygon fill="none" stroke="black" points="954.5,-304.5 954.5,-323.5 1061.5,-323.5 1061.5,-304.5 954.5,-304.5"/>
<text text-anchor="middle" x="1008" y="-311.5" font-family="DejaVuSansMono" font-size="10.00">multicast_start</text>
</a>
</g>
<!-- Node2&#45;&gt;Node3 -->
<g id="edge4" class="edge"><title>Node2&#45;&gt;Node3</title>
<path fill="none" stroke="midnightblue" d="M289.549,-301.69C350.297,-314.423 454.441,-333 545,-333 545,-333 545,-333 703,-333 791.311,-333 893.772,-324.915 954.34,-319.293"/>
<polygon fill="midnightblue" stroke="midnightblue" points="289.963,-298.199 279.453,-299.543 288.507,-305.046 289.963,-298.199"/>
</g>
<!-- Node4 -->
<g id="node7" class="node"><title>Node4</title>
<a xlink:href="../../d6/d78/xmp3__multicast_8c.html#ad161abeabc58820fd3a24b4422c5b9a7" target="_top" xlink:title="multicast_stop">
<polygon fill="none" stroke="black" points="348.5,-280.5 348.5,-299.5 449.5,-299.5 449.5,-280.5 348.5,-280.5"/>
<text text-anchor="middle" x="399" y="-287.5" font-family="DejaVuSansMono" font-size="10.00">multicast_stop</text>
</a>
</g>
<!-- Node2&#45;&gt;Node4 -->
<g id="edge6" class="edge"><title>Node2&#45;&gt;Node4</title>
<path fill="none" stroke="midnightblue" d="M315.978,-290C327.045,-290 338.163,-290 348.484,-290"/>
<polygon fill="midnightblue" stroke="midnightblue" points="315.854,-286.5 305.854,-290 315.854,-293.5 315.854,-286.5"/>
</g>
<!-- Node6 -->
<g id="node11" class="node"><title>Node6</title>
<a xlink:href="../../df/da9/xmpp__auth_8c.html#a603b4a63af3c4e4af99442805fe89ae8" target="_top" xlink:title="Step 15: Client binds a resource.">
<polygon fill="none" stroke="black" points="348.5,-133.5 348.5,-152.5 449.5,-152.5 449.5,-133.5 348.5,-133.5"/>
<text text-anchor="middle" x="399" y="-140.5" font-family="DejaVuSansMono" font-size="10.00">handle_bind_iq</text>
</a>
</g>
<!-- Node5&#45;&gt;Node6 -->
<g id="edge10" class="edge"><title>Node5&#45;&gt;Node6</title>
<path fill="none" stroke="midnightblue" d="M322.006,-133.976C330.943,-135.037 339.813,-136.09 348.168,-137.082"/>
<polygon fill="midnightblue" stroke="midnightblue" points="322.254,-130.481 311.911,-132.777 321.429,-137.432 322.254,-130.481"/>
</g>
<!-- Node16 -->
<g id="node32" class="node"><title>Node16</title>
<a xlink:href="../../d4/d2f/xmpp__client_8h.html#add2df61245a543667b6d98e3fcd57077" target="_top" xlink:title="xmpp_client_del">
<polygon fill="none" stroke="black" points="954.5,-19.5 954.5,-38.5 1061.5,-38.5 1061.5,-19.5 954.5,-19.5"/>
<text text-anchor="middle" x="1008" y="-26.5" font-family="DejaVuSansMono" font-size="10.00">xmpp_client_del</text>
</a>
</g>
<!-- Node5&#45;&gt;Node16 -->
<g id="edge32" class="edge"><title>Node5&#45;&gt;Node16</title>
<path fill="none" stroke="midnightblue" d="M321.806,-116.01C383.473,-110.814 469.376,-105 545,-105 545,-105 545,-105 703,-105 811.26,-105 934.906,-59.076 984.599,-38.6255"/>
<polygon fill="midnightblue" stroke="midnightblue" points="321.404,-112.532 311.739,-116.871 322,-119.506 321.404,-112.532"/>
</g>
<!-- Node7 -->
<g id="node13" class="node"><title>Node7</title>
<a xlink:href="../../df/da9/xmpp__auth_8c.html#a01804bd53eccc182ce76337fc0863e8d" target="_top" xlink:title="stream_bind_start">
<polygon fill="none" stroke="black" points="486.5,-133.5 486.5,-152.5 605.5,-152.5 605.5,-133.5 486.5,-133.5"/>
<text text-anchor="middle" x="546" y="-140.5" font-family="DejaVuSansMono" font-size="10.00">stream_bind_start</text>
</a>
</g>
<!-- Node6&#45;&gt;Node7 -->
<g id="edge12" class="edge"><title>Node6&#45;&gt;Node7</title>
<path fill="none" stroke="midnightblue" d="M459.961,-143C468.655,-143 477.597,-143 486.266,-143"/>
<polygon fill="midnightblue" stroke="midnightblue" points="459.901,-139.5 449.901,-143 459.901,-146.5 459.901,-139.5"/>
</g>
<!-- Node8 -->
<g id="node15" class="node"><title>Node8</title>
<a xlink:href="../../df/da9/xmpp__auth_8c.html#afb770a216868aa3fb43813b19d2a0115" target="_top" xlink:title="Begins SASL PLAIN authentication.">
<polygon fill="none" stroke="black" points="642.5,-133.5 642.5,-152.5 761.5,-152.5 761.5,-133.5 642.5,-133.5"/>
<text text-anchor="middle" x="702" y="-140.5" font-family="DejaVuSansMono" font-size="10.00">handle_sasl_plain</text>
</a>
</g>
<!-- Node7&#45;&gt;Node8 -->
<g id="edge14" class="edge"><title>Node7&#45;&gt;Node8</title>
<path fill="none" stroke="midnightblue" d="M615.894,-143C624.691,-143 633.631,-143 642.248,-143"/>
<polygon fill="midnightblue" stroke="midnightblue" points="615.66,-139.5 605.66,-143 615.66,-146.5 615.66,-139.5"/>
</g>
<!-- Node9 -->
<g id="node17" class="node"><title>Node9</title>
<a xlink:href="../../d3/d24/xmpp__auth_8h.html#ad3efd9ab093646bdfd8832c34ae2de4d" target="_top" xlink:title="Handler for the inital stream start to begin authentication.">
<polygon fill="none" stroke="black" points="1119.5,-133.5 1119.5,-152.5 1268.5,-152.5 1268.5,-133.5 1119.5,-133.5"/>
<text text-anchor="middle" x="1194" y="-140.5" font-family="DejaVuSansMono" font-size="10.00">xmpp_auth_stream_start</text>
</a>
</g>
<!-- Node8&#45;&gt;Node9 -->
<g id="edge16" class="edge"><title>Node8&#45;&gt;Node9</title>
<path fill="none" stroke="midnightblue" d="M751.54,-154.625C766.362,-157.655 782.769,-160.492 798,-162 914.762,-173.562 944.971,-170.443 1062,-162 1087.67,-160.148 1115.96,-156.28 1139.65,-152.514"/>
<polygon fill="midnightblue" stroke="midnightblue" points="752.074,-151.16 741.565,-152.51 750.622,-158.008 752.074,-151.16"/>
</g>
<!-- Node14 -->
<g id="node27" class="node"><title>Node14</title>
<a xlink:href="../../df/da9/xmpp__auth_8c.html#afd7b12689591d40109a88ad108b5c3a2" target="_top" xlink:title="stream_sasl_start">
<polygon fill="none" stroke="black" points="798.5,-133.5 798.5,-152.5 917.5,-152.5 917.5,-133.5 798.5,-133.5"/>
<text text-anchor="middle" x="858" y="-140.5" font-family="DejaVuSansMono" font-size="10.00">stream_sasl_start</text>
</a>
</g>
<!-- Node8&#45;&gt;Node14 -->
<g id="edge26" class="edge"><title>Node8&#45;&gt;Node14</title>
<path fill="none" stroke="midnightblue" d="M771.894,-143C780.691,-143 789.631,-143 798.248,-143"/>
<polygon fill="midnightblue" stroke="midnightblue" points="771.66,-139.5 761.66,-143 771.66,-146.5 771.66,-139.5"/>
</g>
<!-- Node10 -->
<g id="node19" class="node"><title>Node10</title>
<a xlink:href="../../d4/d2f/xmpp__client_8h.html#a1619c0b8f58b2cf09a322bf34fbc3414" target="_top" xlink:title="xmpp_client_new">
<polygon fill="none" stroke="black" points="1326.5,-57.5 1326.5,-76.5 1433.5,-76.5 1433.5,-57.5 1326.5,-57.5"/>
<text text-anchor="middle" x="1380" y="-64.5" font-family="DejaVuSansMono" font-size="10.00">xmpp_client_new</text>
</a>
</g>
<!-- Node9&#45;&gt;Node10 -->
<g id="edge18" class="edge"><title>Node9&#45;&gt;Node10</title>
<path fill="none" stroke="midnightblue" d="M1276.79,-130.148C1281.37,-128.357 1285.8,-126.319 1290,-124 1310.36,-112.746 1306.52,-98.7167 1326,-86 1331.73,-82.2599 1338.29,-79.1445 1344.79,-76.5919"/>
<polygon fill="midnightblue" stroke="midnightblue" points="1275.52,-126.883 1267.24,-133.488 1277.83,-133.491 1275.52,-126.883"/>
</g>
<!-- Node11 -->
<g id="node21" class="node"><title>Node11</title>
<a xlink:href="../../d0/df0/xmpp__server_8c.html#a66363912ef1221a2574f9f99805fe8fd" target="_top" xlink:title="Callback for new client connections.">
<polygon fill="none" stroke="black" points="1473.5,-47.5 1473.5,-66.5 1574.5,-66.5 1574.5,-47.5 1473.5,-47.5"/>
<text text-anchor="middle" x="1524" y="-54.5" font-family="DejaVuSansMono" font-size="10.00">connect_client</text>
</a>
</g>
<!-- Node10&#45;&gt;Node11 -->
<g id="edge20" class="edge"><title>Node10&#45;&gt;Node11</title>
<path fill="none" stroke="midnightblue" d="M1444.02,-62.5622C1453.85,-61.8696 1463.89,-61.1625 1473.37,-60.4949"/>
<polygon fill="midnightblue" stroke="midnightblue" points="1443.6,-59.0824 1433.88,-63.2764 1444.1,-66.0651 1443.6,-59.0824"/>
</g>
<!-- Node12 -->
<g id="node23" class="node"><title>Node12</title>
<a xlink:href="../../d1/d2e/xmpp__server_8h.html#a27bfc8e4d424a8bc17ab21a4a09cdf92" target="_top" xlink:title="Allocates and initializes the XMPP server.">
<polygon fill="none" stroke="black" points="1614.5,-38.5 1614.5,-57.5 1721.5,-57.5 1721.5,-38.5 1614.5,-38.5"/>
<text text-anchor="middle" x="1668" y="-45.5" font-family="DejaVuSansMono" font-size="10.00">xmpp_server_new</text>
</a>
</g>
<!-- Node11&#45;&gt;Node12 -->
<g id="edge22" class="edge"><title>Node11&#45;&gt;Node12</title>
<path fill="none" stroke="midnightblue" d="M1584.73,-53.2141C1594.53,-52.5933 1604.62,-51.954 1614.23,-51.3449"/>
<polygon fill="midnightblue" stroke="midnightblue" points="1584.42,-49.7266 1574.66,-53.8522 1584.87,-56.7126 1584.42,-49.7266"/>
</g>
<!-- Node13 -->
<g id="node25" class="node"><title>Node13</title>
<a xlink:href="../../d0/d29/main_8c.html#a0ddf1224851353fc92bfbff6f499fa97" target="_top" xlink:title="main">
<polygon fill="none" stroke="black" points="1758.5,-19.5 1758.5,-38.5 1799.5,-38.5 1799.5,-19.5 1758.5,-19.5"/>
<text text-anchor="middle" x="1779" y="-26.5" font-family="DejaVuSansMono" font-size="10.00">main</text>
</a>
</g>
<!-- Node12&#45;&gt;Node13 -->
<g id="edge24" class="edge"><title>Node12&#45;&gt;Node13</title>
<path fill="none" stroke="midnightblue" d="M1731.45,-37.1151C1741.24,-35.4082 1750.68,-33.7622 1758.47,-32.404"/>
<polygon fill="midnightblue" stroke="midnightblue" points="1730.83,-33.6686 1721.58,-38.8339 1732.04,-40.5646 1730.83,-33.6686"/>
</g>
<!-- Node15 -->
<g id="node29" class="node"><title>Node15</title>
<a xlink:href="../../df/da9/xmpp__auth_8c.html#a8dd789e057b9812e4dd1aa524dfb6a65" target="_top" xlink:title="Begins TLS authentication.">
<polygon fill="none" stroke="black" points="954.5,-133.5 954.5,-152.5 1061.5,-152.5 1061.5,-133.5 954.5,-133.5"/>
<text text-anchor="middle" x="1008" y="-140.5" font-family="DejaVuSansMono" font-size="10.00">handle_starttls</text>
</a>
</g>
<!-- Node14&#45;&gt;Node15 -->
<g id="edge28" class="edge"><title>Node14&#45;&gt;Node15</title>
<path fill="none" stroke="midnightblue" d="M928.085,-143C936.806,-143 945.619,-143 954.036,-143"/>
<polygon fill="midnightblue" stroke="midnightblue" points="927.919,-139.5 917.919,-143 927.919,-146.5 927.919,-139.5"/>
</g>
<!-- Node15&#45;&gt;Node9 -->
<g id="edge30" class="edge"><title>Node15&#45;&gt;Node9</title>
<path fill="none" stroke="midnightblue" d="M1072.06,-143C1087.29,-143 1103.69,-143 1119.36,-143"/>
<polygon fill="midnightblue" stroke="midnightblue" points="1071.73,-139.5 1061.73,-143 1071.73,-146.5 1071.73,-139.5"/>
</g>
<!-- Node16&#45;&gt;Node10 -->
<g id="edge34" class="edge"><title>Node16&#45;&gt;Node10</title>
<path fill="none" stroke="midnightblue" d="M1071.54,-39.4092C1080.41,-40.7185 1089.43,-41.9608 1098,-43 1177.35,-52.6174 1269.77,-59.7286 1326.32,-63.619"/>
<polygon fill="midnightblue" stroke="midnightblue" points="1072.03,-35.9439 1061.62,-37.9096 1070.99,-42.8652 1072.03,-35.9439"/>
</g>
<!-- Node16&#45;&gt;Node11 -->
<g id="edge50" class="edge"><title>Node16&#45;&gt;Node11</title>
<path fill="none" stroke="midnightblue" d="M1071.75,-30.7046C1154.73,-33.2106 1305.48,-38.6362 1434,-48 1446.7,-48.9254 1460.4,-50.1813 1473.15,-51.4611"/>
<polygon fill="midnightblue" stroke="midnightblue" points="1071.83,-27.2054 1061.73,-30.4062 1071.62,-34.2023 1071.83,-27.2054"/>
</g>
<!-- Node17 -->
<g id="node35" class="node"><title>Node17</title>
<a xlink:href="../../d1/d2e/xmpp__server_8h.html#af7d75415fd5671841797bf77bbc1a981" target="_top" xlink:title="Cleans up an XMPP server instance.">
<polygon fill="none" stroke="black" points="1470.5,-0.5 1470.5,-19.5 1577.5,-19.5 1577.5,-0.5 1470.5,-0.5"/>
<text text-anchor="middle" x="1524" y="-7.5" font-family="DejaVuSansMono" font-size="10.00">xmpp_server_del</text>
</a>
</g>
<!-- Node16&#45;&gt;Node17 -->
<g id="edge36" class="edge"><title>Node16&#45;&gt;Node17</title>
<path fill="none" stroke="midnightblue" d="M1071.48,-18.0087C1080.36,-16.7866 1089.39,-15.7237 1098,-15 1231.64,-3.76185 1389.74,-5.96077 1470.21,-8.1817"/>
<polygon fill="midnightblue" stroke="midnightblue" points="1070.95,-14.5488 1061.56,-19.4464 1071.95,-21.4765 1070.95,-14.5488"/>
</g>
<!-- Node18 -->
<g id="node39" class="node"><title>Node18</title>
<a xlink:href="../../d1/d2e/xmpp__server_8h.html#a79e02871228c509de0c70961d74a1bcb" target="_top" xlink:title="Attempt to cleanly disconnect a client, and clean up its resources.">
<polygon fill="none" stroke="black" points="1098.5,-95.5 1098.5,-114.5 1289.5,-114.5 1289.5,-95.5 1098.5,-95.5"/>
<text text-anchor="middle" x="1194" y="-102.5" font-family="DejaVuSansMono" font-size="10.00">xmpp_server_disconnect_client</text>
</a>
</g>
<!-- Node16&#45;&gt;Node18 -->
<g id="edge42" class="edge"><title>Node16&#45;&gt;Node18</title>
<path fill="none" stroke="midnightblue" d="M1042.73,-42.8275C1049.27,-45.9079 1055.96,-49.3524 1062,-53 1079.35,-63.4757 1079.79,-72.1059 1098,-81 1110.69,-87.1954 1125.13,-91.8963 1138.87,-95.4205"/>
<polygon fill="midnightblue" stroke="midnightblue" points="1043.91,-39.5204 1033.35,-38.5936 1041.03,-45.8998 1043.91,-39.5204"/>
</g>
<!-- Node17&#45;&gt;Node12 -->
<g id="edge40" class="edge"><title>Node17&#45;&gt;Node12</title>
<path fill="none" stroke="midnightblue" d="M1570.49,-22.1742C1590.13,-27.4287 1612.77,-33.4866 1631.18,-38.4141"/>
<polygon fill="midnightblue" stroke="midnightblue" points="1571.4,-18.7931 1560.83,-19.589 1569.59,-25.5552 1571.4,-18.7931"/>
</g>
<!-- Node17&#45;&gt;Node13 -->
<g id="edge38" class="edge"><title>Node17&#45;&gt;Node13</title>
<path fill="none" stroke="midnightblue" d="M1587.9,-14.7236C1643.84,-18.9246 1722.21,-24.81 1758.34,-27.5233"/>
<polygon fill="midnightblue" stroke="midnightblue" points="1587.96,-11.2187 1577.73,-13.9599 1587.44,-18.199 1587.96,-11.2187"/>
</g>
<!-- Node18&#45;&gt;Node5 -->
<g id="edge44" class="edge"><title>Node18&#45;&gt;Node5</title>
<path fill="none" stroke="midnightblue" d="M1131.48,-93.7713C1064.65,-82.5647 954.617,-67 859,-67 545,-67 545,-67 545,-67 442.273,-67 323.41,-98.233 268.589,-114.459"/>
<polygon fill="midnightblue" stroke="midnightblue" points="1130.98,-97.2361 1141.43,-95.46 1132.15,-90.335 1130.98,-97.2361"/>
</g>
<!-- Node19 -->
<g id="node42" class="node"><title>Node19</title>
<a xlink:href="../../d0/df0/xmpp__server_8c.html#abece91815ef240322d79073f5bfca1db" target="_top" xlink:title="Callback for new data from a client.">
<polygon fill="none" stroke="black" points="1338.5,-95.5 1338.5,-114.5 1421.5,-114.5 1421.5,-95.5 1338.5,-95.5"/>
<text text-anchor="middle" x="1380" y="-102.5" font-family="DejaVuSansMono" font-size="10.00">read_client</text>
</a>
</g>
<!-- Node18&#45;&gt;Node19 -->
<g id="edge46" class="edge"><title>Node18&#45;&gt;Node19</title>
<path fill="none" stroke="midnightblue" d="M1300.07,-105C1313.56,-105 1326.68,-105 1338.21,-105"/>
<polygon fill="midnightblue" stroke="midnightblue" points="1299.7,-101.5 1289.69,-105 1299.69,-108.5 1299.7,-101.5"/>
</g>
<!-- Node19&#45;&gt;Node11 -->
<g id="edge48" class="edge"><title>Node19&#45;&gt;Node11</title>
<path fill="none" stroke="midnightblue" d="M1419.15,-92.103C1442.92,-84.0677 1473,-73.9025 1494.65,-66.5815"/>
<polygon fill="midnightblue" stroke="midnightblue" points="1417.75,-88.8838 1409.39,-95.4018 1419.99,-95.5152 1417.75,-88.8838"/>
</g>
<!-- Node21 -->
<g id="node48" class="node"><title>Node21</title>
<a xlink:href="../../d1/dc2/xmpp__parser_8c.html#a03a135f29e3d4e01abbb60e53ac6967c" target="_top" xlink:title="init_parser">
<polygon fill="none" stroke="black" points="357.5,-214.5 357.5,-233.5 440.5,-233.5 440.5,-214.5 357.5,-214.5"/>
<text text-anchor="middle" x="399" y="-221.5" font-family="DejaVuSansMono" font-size="10.00">init_parser</text>
</a>
</g>
<!-- Node20&#45;&gt;Node21 -->
<g id="edge54" class="edge"><title>Node20&#45;&gt;Node21</title>
<path fill="none" stroke="midnightblue" d="M291.96,-229.965C313.337,-228.762 337.499,-227.403 357.354,-226.286"/>
<polygon fill="midnightblue" stroke="midnightblue" points="291.508,-226.485 281.721,-230.541 291.902,-233.473 291.508,-226.485"/>
</g>
<!-- Node22 -->
<g id="node50" class="node"><title>Node22</title>
<a xlink:href="../../d8/d55/xmpp__parser_8h.html#adf25a1d2047994dfa6cc71a9482548c2" target="_top" xlink:title="xmpp_parser_new">
<polygon fill="none" stroke="black" points="492.5,-209.5 492.5,-228.5 599.5,-228.5 599.5,-209.5 492.5,-209.5"/>
<text text-anchor="middle" x="546" y="-216.5" font-family="DejaVuSansMono" font-size="10.00">xmpp_parser_new</text>
</a>
</g>
<!-- Node21&#45;&gt;Node22 -->
<g id="edge56" class="edge"><title>Node21&#45;&gt;Node22</title>
<path fill="none" stroke="midnightblue" d="M450.809,-222.248C464.253,-221.784 478.793,-221.283 492.334,-220.816"/>
<polygon fill="midnightblue" stroke="midnightblue" points="450.65,-218.751 440.776,-222.594 450.891,-225.747 450.65,-218.751"/>
</g>
<!-- Node24 -->
<g id="node55" class="node"><title>Node24</title>
<a xlink:href="../../d8/d55/xmpp__parser_8h.html#af5e1eb5bbef0496c3543bd35113766ac" target="_top" xlink:title="Reset the state of the parser as if it was just created.">
<polygon fill="none" stroke="black" points="486.5,-247.5 486.5,-266.5 605.5,-266.5 605.5,-247.5 486.5,-247.5"/>
<text text-anchor="middle" x="546" y="-254.5" font-family="DejaVuSansMono" font-size="10.00">xmpp_parser_reset</text>
</a>
</g>
<!-- Node21&#45;&gt;Node24 -->
<g id="edge62" class="edge"><title>Node21&#45;&gt;Node24</title>
<path fill="none" stroke="midnightblue" d="M450.614,-235.519C467.731,-239.415 486.644,-243.719 503.017,-247.445"/>
<polygon fill="midnightblue" stroke="midnightblue" points="451.304,-232.087 440.776,-233.28 449.75,-238.912 451.304,-232.087"/>
</g>
<!-- Node22&#45;&gt;Node10 -->
<g id="edge60" class="edge"><title>Node22&#45;&gt;Node10</title>
<path fill="none" stroke="midnightblue" d="M609.769,-219C672.392,-219 771.351,-219 857,-219 857,-219 857,-219 1009,-219 1136.43,-219 1189.66,-240.561 1290,-162 1319.43,-138.958 1298.31,-111.1 1326,-86 1330.27,-82.127 1335.39,-79.03 1340.74,-76.557"/>
<polygon fill="midnightblue" stroke="midnightblue" points="609.657,-215.5 599.657,-219 609.657,-222.5 609.657,-215.5"/>
</g>
<!-- Node23 -->
<g id="node52" class="node"><title>Node23</title>
<a xlink:href="../../d6/d78/xmp3__multicast_8c.html#a08afc39c59ec9297d756a99c395eff3c" target="_top" xlink:title="multicast_new">
<polygon fill="none" stroke="black" points="654.5,-171.5 654.5,-190.5 749.5,-190.5 749.5,-171.5 654.5,-171.5"/>
<text text-anchor="middle" x="702" y="-178.5" font-family="DejaVuSansMono" font-size="10.00">multicast_new</text>
</a>
</g>
<!-- Node22&#45;&gt;Node23 -->
<g id="edge58" class="edge"><title>Node22&#45;&gt;Node23</title>
<path fill="none" stroke="midnightblue" d="M595.794,-206.96C617.308,-201.651 642.232,-195.501 662.419,-190.52"/>
<polygon fill="midnightblue" stroke="midnightblue" points="594.731,-203.617 585.861,-209.411 596.408,-210.413 594.731,-203.617"/>
</g>
<!-- Node25 -->
<g id="node57" class="node"><title>Node25</title>
<a xlink:href="../../d6/d78/xmp3__multicast_8c.html#a9865e8026fb8ee000629fc1da465716d" target="_top" xlink:title="socket_handler">
<polygon fill="none" stroke="black" points="807.5,-285.5 807.5,-304.5 908.5,-304.5 908.5,-285.5 807.5,-285.5"/>
<text text-anchor="middle" x="858" y="-292.5" font-family="DejaVuSansMono" font-size="10.00">socket_handler</text>
</a>
</g>
<!-- Node24&#45;&gt;Node25 -->
<g id="edge64" class="edge"><title>Node24&#45;&gt;Node25</title>
<path fill="none" stroke="midnightblue" d="M599.244,-268.514C613.092,-271.273 628.067,-273.997 642,-276 698.378,-284.104 763.603,-289.283 807.294,-292.153"/>
<polygon fill="midnightblue" stroke="midnightblue" points="599.888,-265.073 589.391,-266.508 598.492,-271.933 599.888,-265.073"/>
</g>
<!-- Node26 -->
<g id="node60" class="node"><title>Node26</title>
<a xlink:href="../../d8/d55/xmpp__parser_8h.html#a578b7a9a50212eb204a86789001287af" target="_top" xlink:title="xmpp_parser_parse">
<polygon fill="none" stroke="black" points="642.5,-247.5 642.5,-266.5 761.5,-266.5 761.5,-247.5 642.5,-247.5"/>
<text text-anchor="middle" x="702" y="-254.5" font-family="DejaVuSansMono" font-size="10.00">xmpp_parser_parse</text>
</a>
</g>
<!-- Node24&#45;&gt;Node26 -->
<g id="edge68" class="edge"><title>Node24&#45;&gt;Node26</title>
<path fill="none" stroke="midnightblue" d="M615.894,-257C624.691,-257 633.631,-257 642.248,-257"/>
<polygon fill="midnightblue" stroke="midnightblue" points="615.66,-253.5 605.66,-257 615.66,-260.5 615.66,-253.5"/>
</g>
<!-- Node25&#45;&gt;Node3 -->
<g id="edge66" class="edge"><title>Node25&#45;&gt;Node3</title>
<path fill="none" stroke="midnightblue" d="M918.872,-302.686C930.636,-304.196 942.893,-305.77 954.397,-307.247"/>
<polygon fill="midnightblue" stroke="midnightblue" points="919.058,-299.181 908.694,-301.38 918.166,-306.125 919.058,-299.181"/>
</g>
<!-- Node26&#45;&gt;Node19 -->
<g id="edge72" class="edge"><title>Node26&#45;&gt;Node19</title>
<path fill="none" stroke="midnightblue" d="M771.909,-261.692C907.369,-269.712 1202.75,-280.895 1290,-233 1338.88,-206.169 1366.72,-139.636 1375.73,-114.671"/>
<polygon fill="midnightblue" stroke="midnightblue" points="771.847,-258.182 761.654,-261.073 771.425,-265.169 771.847,-258.182"/>
</g>
<!-- Node26&#45;&gt;Node25 -->
<g id="edge70" class="edge"><title>Node26&#45;&gt;Node25</title>
<path fill="none" stroke="midnightblue" d="M751.794,-269.04C773.308,-274.349 798.232,-280.499 818.419,-285.48"/>
<polygon fill="midnightblue" stroke="midnightblue" points="752.408,-265.587 741.861,-266.589 750.731,-272.383 752.408,-265.587"/>
</g>
<!-- Node27&#45;&gt;Node21 -->
<g id="edge76" class="edge"><title>Node27&#45;&gt;Node21</title>
<path fill="none" stroke="midnightblue" d="M264.467,-199.797C289.706,-204.372 328.081,-211.327 357.226,-216.61"/>
<polygon fill="midnightblue" stroke="midnightblue" points="264.984,-196.334 254.52,-197.994 263.736,-203.222 264.984,-196.334"/>
</g>
</g>
</svg>
        <g id="navigator" transform="translate(0 0)" fill="#404254">
                <rect fill="#f2f5e9" fill-opacity="0.5" stroke="#606060" stroke-width=".5" x="0" y="0" width="60" height="60"/>
                <use id="zoomplus" xlink:href="#zoomPlus" x="17" y="9" onmousedown="handleZoom(evt,'in')"/>
                <use id="zoomminus" xlink:href="#zoomMin" x="42" y="9" onmousedown="handleZoom(evt,'out')"/>
                <use id="reset" xlink:href="#resetDef" x="30" y="36" onmousedown="handleReset()"/>
                <g id="arrowUp" xlink:href="#dirArrow" transform="translate(30 24)" onmousedown="handlePan(0,-1)">
                  <use xlink:href="#rim" fill="#404040">
                        <set attributeName="fill" to="#808080" begin="arrowUp.mouseover" end="arrowUp.mouseout"/>
                  </use>
                  <path fill="none" stroke="white" stroke-width="1.5" d="M0,-3.0v7 M-2.5,-0.5L0,-3.0L2.5,-0.5"/>
                </g>
                <g id="arrowRight" xlink:href="#dirArrow" transform="rotate(90) translate(36 -43)" onmousedown="handlePan(1,0)">
                  <use xlink:href="#rim" fill="#404040">
                        <set attributeName="fill" to="#808080" begin="arrowRight.mouseover" end="arrowRight.mouseout"/>
                  </use>
                  <path fill="none" stroke="white" stroke-width="1.5" d="M0,-3.0v7 M-2.5,-0.5L0,-3.0L2.5,-0.5"/>
                </g>
                <g id="arrowDown" xlink:href="#dirArrow" transform="rotate(180) translate(-30 -48)" onmousedown="handlePan(0,1)">
                  <use xlink:href="#rim" fill="#404040">
                        <set attributeName="fill" to="#808080" begin="arrowDown.mouseover" end="arrowDown.mouseout"/>
                  </use>
                  <path fill="none" stroke="white" stroke-width="1.5" d="M0,-3.0v7 M-2.5,-0.5L0,-3.0L2.5,-0.5"/>
                </g>
                <g id="arrowLeft" xlink:href="#dirArrow" transform="rotate(270) translate(-36 17)" onmousedown="handlePan(-1,0)">
                  <use xlink:href="#rim" fill="#404040">
                        <set attributeName="fill" to="#808080" begin="arrowLeft.mouseover" end="arrowLeft.mouseout"/>
                  </use>
                  <path fill="none" stroke="white" stroke-width="1.5" d="M0,-3.0v7 M-2.5,-0.5L0,-3.0L2.5,-0.5"/>
                </g>
        </g>
        <svg viewBox="0 0 25 25" width="100%" height="30px" preserveAspectRatio="xMaxYMin meet"> 
          <g id="printButton" transform="scale(0.4 0.4)" onmousedown="handlePrint(evt)">
            <rect height="23.33753581" id="paper" rx="2" style="fill:#f2f5e9;fill-rule:evenodd;stroke:#111111;stroke-width:3.224;stroke-linejoin:round;" transform="matrix(1.000000,0.000000,-0.339266,0.940691,0.000000,0.000000)" width="25.55231285" x="26.69387353" y="7.36162977"/>
            <rect height="26.272097" id="body" rx="2" style="fill:#404040;fill-rule:evenodd;stroke:#111111;stroke-width:3.125;stroke-linejoin:round;" width="50" x="4.5295201" y="27.078951"/>
            <rect height="8.27750969" id="tray" style="fill:#d2d5c9;fill-rule:evenodd;stroke:#111111;stroke-width:3.125;stroke-linecap:round;stroke-linejoin:round;" width="40" x="10.28778839" y="44.96812282"/>
          </g>
        </svg>
</svg>
