<?xml version="1.0" encoding="UTF-8" standalone="no"?>
<!DOCTYPE svg PUBLIC "-//W3C//DTD SVG 1.1//EN"
 "http://www.w3.org/Graphics/SVG/1.1/DTD/svg11.dtd">
<!-- Generated by graphviz version 2.28.0 (20120217.0315)
 -->
<!-- Title: G Pages: 1 -->
<!--zoomable 920 -->
<svg id="main" version="1.1" xmlns="http://www.w3.org/2000/svg" xmlns:xlink="http://www.w3.org/1999/xlink" xml:space="preserve" onload="init(evt)">
        <defs>
                <circle id="rim" cx="0" cy="0" r="7"/>
                <circle id="rim2" cx="0" cy="0" r="3.5"/>
                <g id="zoomPlus">
                        <use xlink:href="#rim" fill="#404040">
                                <set attributeName="fill" to="#808080" begin="zoomplus.mouseover" end="zoomplus.mouseout"/>
                        </use>
                        <path d="M-4,0h8M0,-4v8" fill="none" stroke="white" stroke-width="1.5" pointer-events="none"/>
                </g>
                <g id="zoomMin">
                        <use xlink:href="#rim" fill="#404040">
                                <set attributeName="fill" to="#808080" begin="zoomminus.mouseover" end="zoomminus.mouseout"/>
                        </use>
                        <path d="M-4,0h8" fill="none" stroke="white" stroke-width="1.5" pointer-events="none"/>
                </g>
                <g id="dirArrow">
                        <path fill="none" stroke="white" stroke-width="1.5" d="M0,-3.0v7 M-2.5,-0.5L0,-3.0L2.5,-0.5"/>
                </g>
               <g id="resetDef">
                       <use xlink:href="#rim2" fill="#404040">
                               <set attributeName="fill" to="#808080" begin="reset.mouseover" end="reset.mouseout"/>
                       </use>
               </g>
        </defs>

<script type="text/javascript">
var viewWidth = 2024;
var viewHeight = 920;
var sectionId = 'dynsection-5';
</script>
<script xlink:href="../../svgpan.js"/>
<svg id="graph" class="graph">
<g id="viewport">
<title>G</title>
<!-- Node1 -->
<g id="node1" class="node"><title>Node1</title>
<polygon fill="#bfbfbf" stroke="black" points="0.5,-380.5 0.5,-399.5 113.5,-399.5 113.5,-380.5 0.5,-380.5"/>
<text text-anchor="middle" x="57" y="-387.5" font-family="DejaVuSansMono" font-size="10.00">xmpp_stanza_attr</text>
</g>
<!-- Node2 -->
<g id="node3" class="node"><title>Node2</title>
<a xlink:href="../../d7/d71/xep__muc_8c.html#a1798db1c16a1fa62ff8f39fea202a26f" target="_top" xlink:title="stanza_handler">
<polygon fill="none" stroke="black" points="1071.5,-731.5 1071.5,-750.5 1172.5,-750.5 1172.5,-731.5 1071.5,-731.5"/>
<text text-anchor="middle" x="1122" y="-738.5" font-family="DejaVuSansMono" font-size="10.00">stanza_handler</text>
</a>
</g>
<!-- Node1&#45;&gt;Node2 -->
<g id="edge2" class="edge"><title>Node1&#45;&gt;Node2</title>
<path fill="none" stroke="midnightblue" d="M60.313,-409.532C68.6183,-476.169 99.1686,-692.875 150,-737 196.98,-777.782 365.788,-770 428,-770 428,-770 428,-770 805,-770 899.482,-770 1009.19,-756.985 1071.32,-748.393"/>
<polygon fill="midnightblue" stroke="midnightblue" points="63.779,-409.04 59.0953,-399.536 56.8303,-409.886 63.779,-409.04"/>
</g>
<!-- Node5 -->
<g id="node9" class="node"><title>Node5</title>
<a xlink:href="../../d7/d71/xep__muc_8c.html#acf84f00141033b025df269e540461383" target="_top" xlink:title="handle_message">
<polygon fill="none" stroke="black" points="378.5,-570.5 378.5,-589.5 479.5,-589.5 479.5,-570.5 378.5,-570.5"/>
<text text-anchor="middle" x="429" y="-577.5" font-family="DejaVuSansMono" font-size="10.00">handle_message</text>
</a>
</g>
<!-- Node1&#45;&gt;Node5 -->
<g id="edge8" class="edge"><title>Node1&#45;&gt;Node5</title>
<path fill="none" stroke="midnightblue" d="M70.8348,-407.648C87.0679,-428.8 116.921,-464.013 150,-485 222.677,-531.109 320.335,-557.709 378.461,-570.485"/>
<polygon fill="midnightblue" stroke="midnightblue" points="73.5426,-405.425 64.742,-399.526 67.943,-409.626 73.5426,-405.425"/>
</g>
<!-- Node6 -->
<g id="node12" class="node"><title>Node6</title>
<a xlink:href="../../d7/d71/xep__muc_8c.html#a9936322b944d46aead9fbd942687ec0a" target="_top" xlink:title="handle_presence">
<polygon fill="none" stroke="black" points="912.5,-703.5 912.5,-722.5 1019.5,-722.5 1019.5,-703.5 912.5,-703.5"/>
<text text-anchor="middle" x="966" y="-710.5" font-family="DejaVuSansMono" font-size="10.00">handle_presence</text>
</a>
</g>
<!-- Node1&#45;&gt;Node6 -->
<g id="edge12" class="edge"><title>Node1&#45;&gt;Node6</title>
<path fill="none" stroke="midnightblue" d="M60.992,-409.916C70.7945,-472.362 103.975,-662.46 150,-701 245.317,-780.815 303.679,-732 428,-732 428,-732 428,-732 625,-732 726.834,-732 845.558,-723.398 912.339,-717.77"/>
<polygon fill="midnightblue" stroke="midnightblue" points="64.4166,-409.158 59.4358,-399.807 57.4981,-410.223 64.4166,-409.158"/>
</g>
<!-- Node7 -->
<g id="node15" class="node"><title>Node7</title>
<a xlink:href="../../d7/d71/xep__muc_8c.html#aec1096d47742f472668c4905fa3c299a" target="_top" xlink:title="handle_iq">
<polygon fill="none" stroke="black" points="588.5,-826.5 588.5,-845.5 659.5,-845.5 659.5,-826.5 588.5,-826.5"/>
<text text-anchor="middle" x="624" y="-833.5" font-family="DejaVuSansMono" font-size="10.00">handle_iq</text>
</a>
</g>
<!-- Node1&#45;&gt;Node7 -->
<g id="edge16" class="edge"><title>Node1&#45;&gt;Node7</title>
<path fill="none" stroke="midnightblue" d="M58.8251,-410.225C62.607,-491.85 81.1756,-795.488 150,-855 284.59,-971.38 529.83,-877.325 602.305,-845.53"/>
<polygon fill="midnightblue" stroke="midnightblue" points="62.3049,-409.685 58.3702,-399.848 55.3116,-409.992 62.3049,-409.685"/>
</g>
<!-- Node8 -->
<g id="node18" class="node"><title>Node8</title>
<a xlink:href="../../d7/d71/xep__muc_8c.html#aefd23f2960520a68fea212344b85cb0b" target="_top" xlink:title="enter_room_presence">
<polygon fill="none" stroke="black" points="738.5,-608.5 738.5,-627.5 869.5,-627.5 869.5,-608.5 738.5,-608.5"/>
<text text-anchor="middle" x="804" y="-615.5" font-family="DejaVuSansMono" font-size="10.00">enter_room_presence</text>
</a>
</g>
<!-- Node1&#45;&gt;Node8 -->
<g id="edge20" class="edge"><title>Node1&#45;&gt;Node8</title>
<path fill="none" stroke="midnightblue" d="M66.422,-409.012C80.2604,-438.49 110.285,-495.609 150,-532 223.44,-599.293 251.337,-612.956 348,-637 496.269,-673.881 679.967,-644.253 761.114,-627.513"/>
<polygon fill="midnightblue" stroke="midnightblue" points="69.5577,-407.454 62.2129,-399.818 63.1929,-410.367 69.5577,-407.454"/>
</g>
<!-- Node9 -->
<g id="node21" class="node"><title>Node9</title>
<a xlink:href="../../d7/d71/xep__muc_8c.html#a40cdc65e1b60c76aef97dfc9d3f2510f" target="_top" xlink:title="leave_room_presence">
<polygon fill="none" stroke="black" points="558.5,-684.5 558.5,-703.5 689.5,-703.5 689.5,-684.5 558.5,-684.5"/>
<text text-anchor="middle" x="624" y="-691.5" font-family="DejaVuSansMono" font-size="10.00">leave_room_presence</text>
</a>
</g>
<!-- Node1&#45;&gt;Node9 -->
<g id="edge24" class="edge"><title>Node1&#45;&gt;Node9</title>
<path fill="none" stroke="midnightblue" d="M57.5682,-409.894C57.6308,-462.526 65.869,-605.775 150,-670 212.252,-717.523 443.777,-707.608 558.177,-699.424"/>
<polygon fill="midnightblue" stroke="midnightblue" points="61.0709,-409.613 57.6651,-399.58 54.0713,-409.547 61.0709,-409.613"/>
</g>
<!-- Node10 -->
<g id="node24" class="node"><title>Node10</title>
<a xlink:href="../../d7/d71/xep__muc_8c.html#a4b26d057ea25fe1b3c99edff73a82d78" target="_top" xlink:title="handle_items_query">
<polygon fill="none" stroke="black" points="366.5,-836.5 366.5,-855.5 491.5,-855.5 491.5,-836.5 366.5,-836.5"/>
<text text-anchor="middle" x="429" y="-843.5" font-family="DejaVuSansMono" font-size="10.00">handle_items_query</text>
</a>
</g>
<!-- Node1&#45;&gt;Node10 -->
<g id="edge28" class="edge"><title>Node1&#45;&gt;Node10</title>
<path fill="none" stroke="midnightblue" d="M59.2561,-410.05C64.5249,-487.192 87.5398,-763.308 150,-819 215.328,-877.25 326.737,-866.781 386.769,-855.539"/>
<polygon fill="midnightblue" stroke="midnightblue" points="62.7308,-409.548 58.582,-399.8 55.7458,-410.008 62.7308,-409.548"/>
</g>
<!-- Node11 -->
<g id="node27" class="node"><title>Node11</title>
<a xlink:href="../../d7/d71/xep__muc_8c.html#a20d9ff75edcc76b952adf38d558fee26" target="_top" xlink:title="handle_info_query">
<polygon fill="none" stroke="black" points="369.5,-798.5 369.5,-817.5 488.5,-817.5 488.5,-798.5 369.5,-798.5"/>
<text text-anchor="middle" x="429" y="-805.5" font-family="DejaVuSansMono" font-size="10.00">handle_info_query</text>
</a>
</g>
<!-- Node1&#45;&gt;Node11 -->
<g id="edge32" class="edge"><title>Node1&#45;&gt;Node11</title>
<path fill="none" stroke="midnightblue" d="M59.6256,-409.831C66.0272,-482.67 92.0393,-733.801 150,-784 216.829,-841.88 329.658,-829.433 388.937,-817.514"/>
<polygon fill="midnightblue" stroke="midnightblue" points="63.1013,-409.397 58.7646,-399.73 56.1266,-409.991 63.1013,-409.397"/>
</g>
<!-- Node12 -->
<g id="node30" class="node"><title>Node12</title>
<a xlink:href="../../d6/d78/xmp3__multicast_8c.html#a3ef84feef94d4ad6045cd45fd91b531c" target="_top" xlink:title="local_stanza_handler">
<polygon fill="none" stroke="black" points="162.5,-38.5 162.5,-57.5 299.5,-57.5 299.5,-38.5 162.5,-38.5"/>
<text text-anchor="middle" x="231" y="-45.5" font-family="DejaVuSansMono" font-size="10.00">local_stanza_handler</text>
</a>
</g>
<!-- Node1&#45;&gt;Node12 -->
<g id="edge36" class="edge"><title>Node1&#45;&gt;Node12</title>
<path fill="none" stroke="midnightblue" d="M57.6182,-370.139C57.6725,-314.777 65.6213,-157.213 150,-72 156.224,-65.7148 164.024,-61.0622 172.295,-57.621"/>
<polygon fill="midnightblue" stroke="midnightblue" points="54.1199,-370.368 57.7018,-380.339 61.1197,-370.31 54.1199,-370.368"/>
</g>
<!-- Node15 -->
<g id="node36" class="node"><title>Node15</title>
<a xlink:href="../../df/da9/xmpp__auth_8c.html#afb770a216868aa3fb43813b19d2a0115" target="_top" xlink:title="Begins SASL PLAIN authentication.">
<polygon fill="none" stroke="black" points="906.5,-285.5 906.5,-304.5 1025.5,-304.5 1025.5,-285.5 906.5,-285.5"/>
<text text-anchor="middle" x="966" y="-292.5" font-family="DejaVuSansMono" font-size="10.00">handle_sasl_plain</text>
</a>
</g>
<!-- Node1&#45;&gt;Node15 -->
<g id="edge42" class="edge"><title>Node1&#45;&gt;Node15</title>
<path fill="none" stroke="midnightblue" d="M93.3788,-377.076C110.335,-371.24 131.037,-364.633 150,-360 271.658,-330.28 302.764,-314 428,-314 428,-314 428,-314 625,-314 723.878,-314 838.679,-305.89 906.394,-300.267"/>
<polygon fill="midnightblue" stroke="midnightblue" points="92.1536,-373.796 83.8698,-380.401 94.4647,-380.404 92.1536,-373.796"/>
</g>
<!-- Node23 -->
<g id="node53" class="node"><title>Node23</title>
<a xlink:href="../../df/da9/xmpp__auth_8c.html#a603b4a63af3c4e4af99442805fe89ae8" target="_top" xlink:title="Step 15: Client binds a resource.">
<polygon fill="none" stroke="black" points="573.5,-266.5 573.5,-285.5 674.5,-285.5 674.5,-266.5 573.5,-266.5"/>
<text text-anchor="middle" x="624" y="-273.5" font-family="DejaVuSansMono" font-size="10.00">handle_bind_iq</text>
</a>
</g>
<!-- Node1&#45;&gt;Node23 -->
<g id="edge60" class="edge"><title>Node1&#45;&gt;Node23</title>
<path fill="none" stroke="midnightblue" d="M65.3988,-370.996C77.8712,-341.912 106.101,-287.287 150,-264 300.938,-183.932 518.856,-241.896 595.268,-266.448"/>
<polygon fill="midnightblue" stroke="midnightblue" points="62.0776,-369.87 61.5168,-380.45 68.5529,-372.529 62.0776,-369.87"/>
</g>
<!-- Node25 -->
<g id="node58" class="node"><title>Node25</title>
<a xlink:href="../../d8/d28/xmpp__core_8h.html#ae6da3d9438fd752c4afd6e50a6af9b66" target="_top" xlink:title="An xmpp_parser handler for stanzas from a local client.">
<polygon fill="none" stroke="black" points="351.5,-266.5 351.5,-285.5 506.5,-285.5 506.5,-266.5 351.5,-266.5"/>
<text text-anchor="middle" x="429" y="-273.5" font-family="DejaVuSansMono" font-size="10.00">xmpp_core_handle_stanza</text>
</a>
</g>
<!-- Node1&#45;&gt;Node25 -->
<g id="edge66" class="edge"><title>Node1&#45;&gt;Node25</title>
<path fill="none" stroke="midnightblue" d="M70.0701,-372.281C85.7194,-350.943 115.173,-315.984 150,-300 213.4,-270.903 293.436,-266.946 351.332,-269.054"/>
<polygon fill="midnightblue" stroke="midnightblue" points="67.1717,-370.317 64.2329,-380.496 72.8781,-374.371 67.1717,-370.317"/>
</g>
<!-- Node26 -->
<g id="node61" class="node"><title>Node26</title>
<a xlink:href="../../d9/dd7/xmpp__im_8h.html#aee8f65a08bdaf68accfdcee40ed1488d" target="_top" xlink:title="IQ stanza callback for handling a session IQ.">
<polygon fill="none" stroke="black" points="366.5,-418.5 366.5,-437.5 491.5,-437.5 491.5,-418.5 366.5,-418.5"/>
<text text-anchor="middle" x="429" y="-425.5" font-family="DejaVuSansMono" font-size="10.00">xmpp_im_iq_session</text>
</a>
</g>
<!-- Node1&#45;&gt;Node26 -->
<g id="edge70" class="edge"><title>Node1&#45;&gt;Node26</title>
<path fill="none" stroke="midnightblue" d="M124.028,-400.575C132.751,-401.817 141.583,-402.997 150,-404 224.199,-412.839 309.912,-419.74 366.324,-423.829"/>
<polygon fill="midnightblue" stroke="midnightblue" points="124.271,-397.074 113.871,-399.095 123.261,-404.001 124.271,-397.074"/>
</g>
<!-- Node27 -->
<g id="node64" class="node"><title>Node27</title>
<a xlink:href="../../d9/dd7/xmpp__im_8h.html#a7542fa668dcf982bb5d3725c5cacb0ca" target="_top" xlink:title="IQ stanza callback for handling a disco items query.">
<polygon fill="none" stroke="black" points="354.5,-380.5 354.5,-399.5 503.5,-399.5 503.5,-380.5 354.5,-380.5"/>
<text text-anchor="middle" x="429" y="-387.5" font-family="DejaVuSansMono" font-size="10.00">xmpp_im_iq_disco_items</text>
</a>
</g>
<!-- Node1&#45;&gt;Node27 -->
<g id="edge74" class="edge"><title>Node1&#45;&gt;Node27</title>
<path fill="none" stroke="midnightblue" d="M123.868,-390C188.509,-390 286.917,-390 354.17,-390"/>
<polygon fill="midnightblue" stroke="midnightblue" points="123.793,-386.5 113.793,-390 123.793,-393.5 123.793,-386.5"/>
</g>
<!-- Node28 -->
<g id="node67" class="node"><title>Node28</title>
<a xlink:href="../../d9/dd7/xmpp__im_8h.html#a93be77ae71bc544a1c23fae07f39fd23" target="_top" xlink:title="IQ stanza callback for handling a disco info query.">
<polygon fill="none" stroke="black" points="357.5,-342.5 357.5,-361.5 500.5,-361.5 500.5,-342.5 357.5,-342.5"/>
<text text-anchor="middle" x="429" y="-349.5" font-family="DejaVuSansMono" font-size="10.00">xmpp_im_iq_disco_info</text>
</a>
</g>
<!-- Node1&#45;&gt;Node28 -->
<g id="edge78" class="edge"><title>Node1&#45;&gt;Node28</title>
<path fill="none" stroke="midnightblue" d="M124.031,-383.218C189.748,-376.469 290.247,-366.148 357.491,-359.241"/>
<polygon fill="midnightblue" stroke="midnightblue" points="123.383,-379.766 113.793,-384.27 124.099,-386.73 123.383,-379.766"/>
</g>
<!-- Node29 -->
<g id="node70" class="node"><title>Node29</title>
<a xlink:href="../../d9/dd7/xmpp__im_8h.html#a40f3cf6fffd6aafe9c7cde476fdbc9c2" target="_top" xlink:title="IQ stanza callback for handing a roster query.">
<polygon fill="none" stroke="black" points="564.5,-190.5 564.5,-209.5 683.5,-209.5 683.5,-190.5 564.5,-190.5"/>
<text text-anchor="middle" x="624" y="-197.5" font-family="DejaVuSansMono" font-size="10.00">xmpp_im_iq_roster</text>
</a>
</g>
<!-- Node1&#45;&gt;Node29 -->
<g id="edge82" class="edge"><title>Node1&#45;&gt;Node29</title>
<path fill="none" stroke="midnightblue" d="M59.8589,-370.188C65.0951,-327.058 84.195,-225.086 150,-182 216.93,-138.178 430.277,-174.344 510,-181 532.203,-182.854 556.608,-186.722 577.037,-190.488"/>
<polygon fill="midnightblue" stroke="midnightblue" points="56.3656,-369.937 58.7639,-380.257 63.3246,-370.694 56.3656,-369.937"/>
</g>
<!-- Node30 -->
<g id="node73" class="node"><title>Node30</title>
<a xlink:href="../../dc/da6/xmpp__im_8c.html#af5cf3adac08463b9b6029c8814e4f972" target="_top" xlink:title="get_roster">
<polygon fill="none" stroke="black" points="390.5,-190.5 390.5,-209.5 467.5,-209.5 467.5,-190.5 390.5,-190.5"/>
<text text-anchor="middle" x="429" y="-197.5" font-family="DejaVuSansMono" font-size="10.00">get_roster</text>
</a>
</g>
<!-- Node1&#45;&gt;Node30 -->
<g id="edge86" class="edge"><title>Node1&#45;&gt;Node30</title>
<path fill="none" stroke="midnightblue" d="M62.4052,-370.588C71.6794,-334.688 96.89,-258.449 150,-224 223.969,-176.021 333.273,-184.132 390.284,-192.83"/>
<polygon fill="midnightblue" stroke="midnightblue" points="58.9952,-369.798 60.0254,-380.343 65.7958,-371.458 58.9952,-369.798"/>
</g>
<!-- Node31 -->
<g id="node76" class="node"><title>Node31</title>
<a xlink:href="../../d1/d2e/xmpp__server_8h.html#a6d3f7e5e289f785b1c8c52f95068c627" target="_top" xlink:title="Deliver a stanza to a registered callback function.">
<polygon fill="none" stroke="black" points="150.5,-456.5 150.5,-475.5 311.5,-475.5 311.5,-456.5 150.5,-456.5"/>
<text text-anchor="middle" x="231" y="-463.5" font-family="DejaVuSansMono" font-size="10.00">xmpp_server_route_stanza</text>
</a>
</g>
<!-- Node1&#45;&gt;Node31 -->
<g id="edge90" class="edge"><title>Node1&#45;&gt;Node31</title>
<path fill="none" stroke="midnightblue" d="M81.1753,-405.022C99.3476,-416.32 125.567,-431.585 150,-442 163.339,-447.686 178.464,-452.592 191.944,-456.46"/>
<polygon fill="midnightblue" stroke="midnightblue" points="82.7829,-401.898 72.458,-399.522 79.0476,-407.818 82.7829,-401.898"/>
</g>
<!-- Node38 -->
<g id="node102" class="node"><title>Node38</title>
<a xlink:href="../../d0/df0/xmpp__server_8c.html#a3b400cb24e5bc51623f63c96c8a0a342" target="_top" xlink:title="Sends a &lt;service&#45;unavailable&gt; error stanza to a client.">
<polygon fill="none" stroke="black" points="348.5,-114.5 348.5,-133.5 509.5,-133.5 509.5,-114.5 348.5,-114.5"/>
<text text-anchor="middle" x="429" y="-121.5" font-family="DejaVuSansMono" font-size="10.00">send_service_unavailable</text>
</a>
</g>
<!-- Node1&#45;&gt;Node38 -->
<g id="edge138" class="edge"><title>Node1&#45;&gt;Node38</title>
<path fill="none" stroke="midnightblue" d="M58.8447,-370.094C62.0342,-322.678 77.2657,-202.928 150,-148 217.942,-96.6913 323.622,-104.52 383.202,-114.471"/>
<polygon fill="midnightblue" stroke="midnightblue" points="55.3395,-370.091 58.2759,-380.27 62.3286,-370.481 55.3395,-370.091"/>
</g>
<!-- Node39 -->
<g id="node104" class="node"><title>Node39</title>
<a xlink:href="../../d1/d2e/xmpp__server_8h.html#a8ddb3bbfd497811c13e9426ce6f02003" target="_top" xlink:title="Deliver an IQ stanza to a registered callback function.">
<polygon fill="none" stroke="black" points="555.5,-114.5 555.5,-133.5 692.5,-133.5 692.5,-114.5 555.5,-114.5"/>
<text text-anchor="middle" x="624" y="-121.5" font-family="DejaVuSansMono" font-size="10.00">xmpp_server_route_iq</text>
</a>
</g>
<!-- Node1&#45;&gt;Node39 -->
<g id="edge136" class="edge"><title>Node1&#45;&gt;Node39</title>
<path fill="none" stroke="midnightblue" d="M57.214,-370.09C56.3087,-316.169 62.1816,-167.069 150,-103 216.405,-54.5534 467.748,-94.622 574.534,-114.47"/>
<polygon fill="midnightblue" stroke="midnightblue" points="53.7224,-370.45 57.4931,-380.351 60.7198,-370.259 53.7224,-370.45"/>
</g>
<!-- Node41 -->
<g id="node111" class="node"><title>Node41</title>
<a xlink:href="../../dd/d21/xmpp__stanza_8h.html#a73fb790be9974e2b22e8a46b43cca1ec" target="_top" xlink:title="Return the value of an atribute qualified by a namespace.">
<polygon fill="none" stroke="black" points="165.5,-0.5 165.5,-19.5 296.5,-19.5 296.5,-0.5 165.5,-0.5"/>
<text text-anchor="middle" x="231" y="-7.5" font-family="DejaVuSansMono" font-size="10.00">xmpp_stanza_ns_attr</text>
</a>
</g>
<!-- Node1&#45;&gt;Node41 -->
<g id="edge140" class="edge"><title>Node1&#45;&gt;Node41</title>
<path fill="none" stroke="midnightblue" d="M60.3889,-369.905C68.942,-301.317 100.205,-77.9874 150,-29 154.478,-24.5951 159.779,-21.143 165.49,-18.4465"/>
<polygon fill="midnightblue" stroke="midnightblue" points="56.8708,-369.841 59.1332,-380.192 63.8192,-370.69 56.8708,-369.841"/>
</g>
<!-- Node3 -->
<g id="node5" class="node"><title>Node3</title>
<a xlink:href="../../d7/d71/xep__muc_8c.html#addf05166cf3fbe386ae6650be21ef251" target="_top" xlink:title="xep_muc_start">
<polygon fill="none" stroke="black" points="1224.5,-712.5 1224.5,-731.5 1319.5,-731.5 1319.5,-712.5 1224.5,-712.5"/>
<text text-anchor="middle" x="1272" y="-719.5" font-family="DejaVuSansMono" font-size="10.00">xep_muc_start</text>
</a>
</g>
<!-- Node2&#45;&gt;Node3 -->
<g id="edge4" class="edge"><title>Node2&#45;&gt;Node3</title>
<path fill="none" stroke="midnightblue" d="M1182.62,-733.346C1196.46,-731.57 1210.99,-729.704 1224.19,-728.009"/>
<polygon fill="midnightblue" stroke="midnightblue" points="1182.17,-729.875 1172.69,-734.62 1183.06,-736.819 1182.17,-729.875"/>
</g>
<!-- Node4 -->
<g id="node7" class="node"><title>Node4</title>
<a xlink:href="../../d7/d71/xep__muc_8c.html#a20d385a5584d8014ec4d5774eb79d1de" target="_top" xlink:title="xep_muc_stop">
<polygon fill="none" stroke="black" points="1227.5,-750.5 1227.5,-769.5 1316.5,-769.5 1316.5,-750.5 1227.5,-750.5"/>
<text text-anchor="middle" x="1272" y="-757.5" font-family="DejaVuSansMono" font-size="10.00">xep_muc_stop</text>
</a>
</g>
<!-- Node2&#45;&gt;Node4 -->
<g id="edge6" class="edge"><title>Node2&#45;&gt;Node4</title>
<path fill="none" stroke="midnightblue" d="M1182.8,-748.677C1197.63,-750.581 1213.24,-752.585 1227.15,-754.37"/>
<polygon fill="midnightblue" stroke="midnightblue" points="1183.06,-745.181 1172.69,-747.38 1182.17,-752.125 1183.06,-745.181"/>
</g>
<!-- Node5&#45;&gt;Node2 -->
<g id="edge10" class="edge"><title>Node5&#45;&gt;Node2</title>
<path fill="none" stroke="midnightblue" d="M489.801,-573.89C575.779,-567.035 738.447,-561.314 870,-599 970.593,-627.817 1074.23,-704.227 1108.9,-731.312"/>
<polygon fill="midnightblue" stroke="midnightblue" points="489.379,-570.413 479.703,-574.729 489.958,-577.389 489.379,-570.413"/>
</g>
<!-- Node6&#45;&gt;Node2 -->
<g id="edge14" class="edge"><title>Node6&#45;&gt;Node2</title>
<path fill="none" stroke="midnightblue" d="M1029.54,-724.371C1043.43,-726.896 1057.97,-729.54 1071.27,-731.958"/>
<polygon fill="midnightblue" stroke="midnightblue" points="1030.03,-720.903 1019.57,-722.558 1028.78,-727.79 1030.03,-720.903"/>
</g>
<!-- Node7&#45;&gt;Node2 -->
<g id="edge18" class="edge"><title>Node7&#45;&gt;Node2</title>
<path fill="none" stroke="midnightblue" d="M669.798,-834.499C744.832,-831.036 900.08,-819.8 1026,-784 1054.56,-775.881 1085.51,-760.517 1104.08,-750.523"/>
<polygon fill="midnightblue" stroke="midnightblue" points="669.592,-831.004 659.754,-834.937 669.897,-837.998 669.592,-831.004"/>
</g>
<!-- Node8&#45;&gt;Node6 -->
<g id="edge22" class="edge"><title>Node8&#45;&gt;Node6</title>
<path fill="none" stroke="midnightblue" d="M829.869,-632.766C862.996,-652.435 920.674,-686.681 948.735,-703.343"/>
<polygon fill="midnightblue" stroke="midnightblue" points="831.608,-629.728 821.222,-627.632 828.034,-635.747 831.608,-629.728"/>
</g>
<!-- Node9&#45;&gt;Node6 -->
<g id="edge26" class="edge"><title>Node9&#45;&gt;Node6</title>
<path fill="none" stroke="midnightblue" d="M699.849,-698.183C764.259,-701.782 855.551,-706.884 912.468,-710.064"/>
<polygon fill="midnightblue" stroke="midnightblue" points="699.931,-694.682 689.752,-697.618 699.541,-701.671 699.931,-694.682"/>
</g>
<!-- Node10&#45;&gt;Node7 -->
<g id="edge30" class="edge"><title>Node10&#45;&gt;Node7</title>
<path fill="none" stroke="midnightblue" d="M501.897,-842.275C531.462,-840.743 564.329,-839.04 588.354,-837.795"/>
<polygon fill="midnightblue" stroke="midnightblue" points="501.403,-838.796 491.597,-842.808 501.765,-845.786 501.403,-838.796"/>
</g>
<!-- Node11&#45;&gt;Node7 -->
<g id="edge34" class="edge"><title>Node11&#45;&gt;Node7</title>
<path fill="none" stroke="midnightblue" d="M498.819,-817.984C529.188,-822.39 563.554,-827.376 588.422,-830.983"/>
<polygon fill="midnightblue" stroke="midnightblue" points="499.091,-814.487 488.692,-816.515 498.086,-821.415 499.091,-814.487"/>
</g>
<!-- Node13 -->
<g id="node32" class="node"><title>Node13</title>
<a xlink:href="../../d6/d78/xmp3__multicast_8c.html#a991c928ab73b350c4b7029352e91a219" target="_top" xlink:title="multicast_start">
<polygon fill="none" stroke="black" points="375.5,-38.5 375.5,-57.5 482.5,-57.5 482.5,-38.5 375.5,-38.5"/>
<text text-anchor="middle" x="429" y="-45.5" font-family="DejaVuSansMono" font-size="10.00">multicast_start</text>
</a>
</g>
<!-- Node12&#45;&gt;Node13 -->
<g id="edge38" class="edge"><title>Node12&#45;&gt;Node13</title>
<path fill="none" stroke="midnightblue" d="M309.737,-48C331.78,-48 355.253,-48 375.427,-48"/>
<polygon fill="midnightblue" stroke="midnightblue" points="309.727,-44.5001 299.727,-48 309.726,-51.5001 309.727,-44.5001"/>
</g>
<!-- Node14 -->
<g id="node34" class="node"><title>Node14</title>
<a xlink:href="../../d6/d78/xmp3__multicast_8c.html#ad161abeabc58820fd3a24b4422c5b9a7" target="_top" xlink:title="multicast_stop">
<polygon fill="none" stroke="black" points="378.5,-0.5 378.5,-19.5 479.5,-19.5 479.5,-0.5 378.5,-0.5"/>
<text text-anchor="middle" x="429" y="-7.5" font-family="DejaVuSansMono" font-size="10.00">multicast_stop</text>
</a>
</g>
<!-- Node12&#45;&gt;Node14 -->
<g id="edge40" class="edge"><title>Node12&#45;&gt;Node14</title>
<path fill="none" stroke="midnightblue" d="M291.261,-36.5106C319.227,-31.0886 352.209,-24.6942 378.774,-19.5439"/>
<polygon fill="midnightblue" stroke="midnightblue" points="290.357,-33.1206 281.206,-38.46 291.689,-39.9927 290.357,-33.1206"/>
</g>
<!-- Node16 -->
<g id="node38" class="node"><title>Node16</title>
<a xlink:href="../../d3/d24/xmpp__auth_8h.html#ad3efd9ab093646bdfd8832c34ae2de4d" target="_top" xlink:title="Handler for the inital stream start to begin authentication.">
<polygon fill="none" stroke="black" points="1362.5,-304.5 1362.5,-323.5 1511.5,-323.5 1511.5,-304.5 1362.5,-304.5"/>
<text text-anchor="middle" x="1437" y="-311.5" font-family="DejaVuSansMono" font-size="10.00">xmpp_auth_stream_start</text>
</a>
</g>
<!-- Node15&#45;&gt;Node16 -->
<g id="edge44" class="edge"><title>Node15&#45;&gt;Node16</title>
<path fill="none" stroke="midnightblue" d="M1035.93,-291.513C1108.31,-288.667 1225.38,-286.374 1326,-295 1347.63,-296.854 1371.38,-300.722 1391.27,-304.488"/>
<polygon fill="midnightblue" stroke="midnightblue" points="1035.43,-288.031 1025.58,-291.936 1035.72,-295.025 1035.43,-288.031"/>
</g>
<!-- Node21 -->
<g id="node48" class="node"><title>Node21</title>
<a xlink:href="../../df/da9/xmpp__auth_8c.html#afd7b12689591d40109a88ad108b5c3a2" target="_top" xlink:title="stream_sasl_start">
<polygon fill="none" stroke="black" points="1062.5,-304.5 1062.5,-323.5 1181.5,-323.5 1181.5,-304.5 1062.5,-304.5"/>
<text text-anchor="middle" x="1122" y="-311.5" font-family="DejaVuSansMono" font-size="10.00">stream_sasl_start</text>
</a>
</g>
<!-- Node15&#45;&gt;Node21 -->
<g id="edge54" class="edge"><title>Node15&#45;&gt;Node21</title>
<path fill="none" stroke="midnightblue" d="M1035.61,-303.465C1044.5,-304.561 1053.54,-305.677 1062.25,-306.751"/>
<polygon fill="midnightblue" stroke="midnightblue" points="1036.01,-299.988 1025.66,-302.237 1035.16,-306.936 1036.01,-299.988"/>
</g>
<!-- Node17 -->
<g id="node40" class="node"><title>Node17</title>
<a xlink:href="../../d4/d2f/xmpp__client_8h.html#a1619c0b8f58b2cf09a322bf34fbc3414" target="_top" xlink:title="xmpp_client_new">
<polygon fill="none" stroke="black" points="1548.5,-304.5 1548.5,-323.5 1655.5,-323.5 1655.5,-304.5 1548.5,-304.5"/>
<text text-anchor="middle" x="1602" y="-311.5" font-family="DejaVuSansMono" font-size="10.00">xmpp_client_new</text>
</a>
</g>
<!-- Node16&#45;&gt;Node17 -->
<g id="edge46" class="edge"><title>Node16&#45;&gt;Node17</title>
<path fill="none" stroke="midnightblue" d="M1521.99,-314C1530.95,-314 1539.88,-314 1548.33,-314"/>
<polygon fill="midnightblue" stroke="midnightblue" points="1521.87,-310.5 1511.87,-314 1521.87,-317.5 1521.87,-310.5"/>
</g>
<!-- Node18 -->
<g id="node42" class="node"><title>Node18</title>
<a xlink:href="../../d0/df0/xmpp__server_8c.html#a66363912ef1221a2574f9f99805fe8fd" target="_top" xlink:title="Callback for new client connections.">
<polygon fill="none" stroke="black" points="1692.5,-304.5 1692.5,-323.5 1793.5,-323.5 1793.5,-304.5 1692.5,-304.5"/>
<text text-anchor="middle" x="1743" y="-311.5" font-family="DejaVuSansMono" font-size="10.00">connect_client</text>
</a>
</g>
<!-- Node17&#45;&gt;Node18 -->
<g id="edge48" class="edge"><title>Node17&#45;&gt;Node18</title>
<path fill="none" stroke="midnightblue" d="M1665.8,-314C1674.63,-314 1683.59,-314 1692.13,-314"/>
<polygon fill="midnightblue" stroke="midnightblue" points="1665.55,-310.5 1655.55,-314 1665.55,-317.5 1665.55,-310.5"/>
</g>
<!-- Node19 -->
<g id="node44" class="node"><title>Node19</title>
<a xlink:href="../../d1/d2e/xmpp__server_8h.html#a27bfc8e4d424a8bc17ab21a4a09cdf92" target="_top" xlink:title="Allocates and initializes the XMPP server.">
<polygon fill="none" stroke="black" points="1830.5,-323.5 1830.5,-342.5 1937.5,-342.5 1937.5,-323.5 1830.5,-323.5"/>
<text text-anchor="middle" x="1884" y="-330.5" font-family="DejaVuSansMono" font-size="10.00">xmpp_server_new</text>
</a>
</g>
<!-- Node18&#45;&gt;Node19 -->
<g id="edge50" class="edge"><title>Node18&#45;&gt;Node19</title>
<path fill="none" stroke="midnightblue" d="M1803.94,-322.194C1812.7,-323.391 1821.67,-324.617 1830.27,-325.792"/>
<polygon fill="midnightblue" stroke="midnightblue" points="1804.17,-318.692 1793.79,-320.806 1803.22,-325.628 1804.17,-318.692"/>
</g>
<!-- Node20 -->
<g id="node46" class="node"><title>Node20</title>
<a xlink:href="../../d0/d29/main_8c.html#a0ddf1224851353fc92bfbff6f499fa97" target="_top" xlink:title="main">
<polygon fill="none" stroke="black" points="1974.5,-323.5 1974.5,-342.5 2015.5,-342.5 2015.5,-323.5 1974.5,-323.5"/>
<text text-anchor="middle" x="1995" y="-330.5" font-family="DejaVuSansMono" font-size="10.00">main</text>
</a>
</g>
<!-- Node19&#45;&gt;Node20 -->
<g id="edge52" class="edge"><title>Node19&#45;&gt;Node20</title>
<path fill="none" stroke="midnightblue" d="M1947.75,-333C1957.43,-333 1966.76,-333 1974.47,-333"/>
<polygon fill="midnightblue" stroke="midnightblue" points="1947.58,-329.5 1937.58,-333 1947.58,-336.5 1947.58,-329.5"/>
</g>
<!-- Node22 -->
<g id="node50" class="node"><title>Node22</title>
<a xlink:href="../../df/da9/xmpp__auth_8c.html#a8dd789e057b9812e4dd1aa524dfb6a65" target="_top" xlink:title="Begins TLS authentication.">
<polygon fill="none" stroke="black" points="1218.5,-304.5 1218.5,-323.5 1325.5,-323.5 1325.5,-304.5 1218.5,-304.5"/>
<text text-anchor="middle" x="1272" y="-311.5" font-family="DejaVuSansMono" font-size="10.00">handle_starttls</text>
</a>
</g>
<!-- Node21&#45;&gt;Node22 -->
<g id="edge56" class="edge"><title>Node21&#45;&gt;Node22</title>
<path fill="none" stroke="midnightblue" d="M1192.09,-314C1200.81,-314 1209.62,-314 1218.04,-314"/>
<polygon fill="midnightblue" stroke="midnightblue" points="1191.92,-310.5 1181.92,-314 1191.92,-317.5 1191.92,-310.5"/>
</g>
<!-- Node22&#45;&gt;Node16 -->
<g id="edge58" class="edge"><title>Node22&#45;&gt;Node16</title>
<path fill="none" stroke="midnightblue" d="M1336.19,-314C1344.75,-314 1353.6,-314 1362.32,-314"/>
<polygon fill="midnightblue" stroke="midnightblue" points="1335.92,-310.5 1325.92,-314 1335.92,-317.5 1335.92,-310.5"/>
</g>
<!-- Node24 -->
<g id="node55" class="node"><title>Node24</title>
<a xlink:href="../../df/da9/xmpp__auth_8c.html#a01804bd53eccc182ce76337fc0863e8d" target="_top" xlink:title="stream_bind_start">
<polygon fill="none" stroke="black" points="744.5,-266.5 744.5,-285.5 863.5,-285.5 863.5,-266.5 744.5,-266.5"/>
<text text-anchor="middle" x="804" y="-273.5" font-family="DejaVuSansMono" font-size="10.00">stream_bind_start</text>
</a>
</g>
<!-- Node23&#45;&gt;Node24 -->
<g id="edge62" class="edge"><title>Node23&#45;&gt;Node24</title>
<path fill="none" stroke="midnightblue" d="M684.702,-276C703.882,-276 725.106,-276 744.219,-276"/>
<polygon fill="midnightblue" stroke="midnightblue" points="684.583,-272.5 674.583,-276 684.583,-279.5 684.583,-272.5"/>
</g>
<!-- Node24&#45;&gt;Node15 -->
<g id="edge64" class="edge"><title>Node24&#45;&gt;Node15</title>
<path fill="none" stroke="midnightblue" d="M873.915,-284.184C884.717,-285.466 895.794,-286.782 906.338,-288.034"/>
<polygon fill="midnightblue" stroke="midnightblue" points="874.013,-280.671 863.67,-282.967 873.187,-287.622 874.013,-280.671"/>
</g>
<!-- Node25&#45;&gt;Node23 -->
<g id="edge68" class="edge"><title>Node25&#45;&gt;Node23</title>
<path fill="none" stroke="midnightblue" d="M516.668,-276C536.133,-276 556.136,-276 573.467,-276"/>
<polygon fill="midnightblue" stroke="midnightblue" points="516.556,-272.5 506.556,-276 516.556,-279.5 516.556,-272.5"/>
</g>
<!-- Node26&#45;&gt;Node19 -->
<g id="edge72" class="edge"><title>Node26&#45;&gt;Node19</title>
<path fill="none" stroke="midnightblue" d="M501.998,-428C577.12,-428 698.322,-428 803,-428 803,-428 803,-428 1603,-428 1690.01,-428 1713.04,-416.879 1794,-385 1822.47,-373.789 1852.62,-354.353 1869.5,-342.683"/>
<polygon fill="midnightblue" stroke="midnightblue" points="501.71,-424.5 491.71,-428 501.71,-431.5 501.71,-424.5"/>
</g>
<!-- Node27&#45;&gt;Node19 -->
<g id="edge76" class="edge"><title>Node27&#45;&gt;Node19</title>
<path fill="none" stroke="midnightblue" d="M514.01,-390C589.608,-390 703.734,-390 803,-390 803,-390 803,-390 1603,-390 1697.01,-390 1805.26,-358.767 1855.16,-342.541"/>
<polygon fill="midnightblue" stroke="midnightblue" points="513.604,-386.5 503.604,-390 513.604,-393.5 513.604,-386.5"/>
</g>
<!-- Node28&#45;&gt;Node19 -->
<g id="edge80" class="edge"><title>Node28&#45;&gt;Node19</title>
<path fill="none" stroke="midnightblue" d="M511.202,-352C586.762,-352 702.497,-352 803,-352 803,-352 803,-352 1603,-352 1682.42,-352 1774.22,-344.297 1830.43,-338.701"/>
<polygon fill="midnightblue" stroke="midnightblue" points="510.813,-348.5 500.813,-352 510.813,-355.5 510.813,-348.5"/>
</g>
<!-- Node29&#45;&gt;Node19 -->
<g id="edge84" class="edge"><title>Node29&#45;&gt;Node19</title>
<path fill="none" stroke="midnightblue" d="M693.855,-206.108C762.494,-211.663 870.95,-219 965,-219 965,-219 965,-219 1603,-219 1713.48,-219 1831.59,-296.078 1870.08,-323.477"/>
<polygon fill="midnightblue" stroke="midnightblue" points="693.859,-202.596 683.606,-205.267 693.286,-209.573 693.859,-202.596"/>
</g>
<!-- Node30&#45;&gt;Node29 -->
<g id="edge88" class="edge"><title>Node30&#45;&gt;Node29</title>
<path fill="none" stroke="midnightblue" d="M477.708,-200C503.839,-200 536.449,-200 564.15,-200"/>
<polygon fill="midnightblue" stroke="midnightblue" points="477.671,-196.5 467.671,-200 477.67,-203.5 477.671,-196.5"/>
</g>
<!-- Node31&#45;&gt;Node5 -->
<g id="edge92" class="edge"><title>Node31&#45;&gt;Node5</title>
<path fill="none" stroke="midnightblue" d="M252.685,-482.015C268.843,-494.529 291.857,-512.361 312,-528 328.011,-540.431 329.986,-546.707 348,-556 359.727,-562.049 373.225,-566.831 385.754,-570.481"/>
<polygon fill="midnightblue" stroke="midnightblue" points="254.526,-479.014 244.476,-475.659 250.24,-484.549 254.526,-479.014"/>
</g>
<!-- Node31&#45;&gt;Node10 -->
<g id="edge102" class="edge"><title>Node31&#45;&gt;Node10</title>
<path fill="none" stroke="midnightblue" d="M232.018,-485.656C233.197,-546.297 245.404,-732.084 348,-827 353.239,-831.847 359.484,-835.526 366.141,-838.307"/>
<polygon fill="midnightblue" stroke="midnightblue" points="235.517,-485.509 231.906,-475.548 228.517,-485.586 235.517,-485.509"/>
</g>
<!-- Node31&#45;&gt;Node11 -->
<g id="edge104" class="edge"><title>Node31&#45;&gt;Node11</title>
<path fill="none" stroke="midnightblue" d="M242.483,-484.293C278.382,-546.932 395.634,-751.525 422.487,-798.38"/>
<polygon fill="midnightblue" stroke="midnightblue" points="245.456,-482.44 237.447,-475.504 239.382,-485.921 245.456,-482.44"/>
</g>
<!-- Node31&#45;&gt;Node25 -->
<g id="edge118" class="edge"><title>Node31&#45;&gt;Node25</title>
<path fill="none" stroke="midnightblue" d="M245.291,-448.246C265.717,-421.581 306.8,-370.342 348,-333 368.723,-314.218 395.727,-296.107 412.459,-285.516"/>
<polygon fill="midnightblue" stroke="midnightblue" points="242.443,-446.209 239.185,-456.291 248.019,-450.441 242.443,-446.209"/>
</g>
<!-- Node31&#45;&gt;Node26 -->
<g id="edge120" class="edge"><title>Node31&#45;&gt;Node26</title>
<path fill="none" stroke="midnightblue" d="M291.261,-454.511C319.227,-449.089 352.209,-442.694 378.774,-437.544"/>
<polygon fill="midnightblue" stroke="midnightblue" points="290.357,-451.121 281.206,-456.46 291.689,-457.993 290.357,-451.121"/>
</g>
<!-- Node31&#45;&gt;Node27 -->
<g id="edge122" class="edge"><title>Node31&#45;&gt;Node27</title>
<path fill="none" stroke="midnightblue" d="M257.169,-451.582C280.196,-438.893 315.52,-420.671 348,-409 358.21,-405.331 369.409,-402.166 380.109,-399.529"/>
<polygon fill="midnightblue" stroke="midnightblue" points="255.418,-448.551 248.391,-456.48 258.829,-454.663 255.418,-448.551"/>
</g>
<!-- Node31&#45;&gt;Node28 -->
<g id="edge124" class="edge"><title>Node31&#45;&gt;Node28</title>
<path fill="none" stroke="midnightblue" d="M247.98,-448.784C268.896,-427.303 307.663,-390.969 348,-371 355.804,-367.137 364.431,-364.036 373.046,-361.553"/>
<polygon fill="midnightblue" stroke="midnightblue" points="245.248,-446.576 240.871,-456.225 250.31,-451.412 245.248,-446.576"/>
</g>
<!-- Node31&#45;&gt;Node30 -->
<g id="edge126" class="edge"><title>Node31&#45;&gt;Node30</title>
<path fill="none" stroke="midnightblue" d="M239.291,-446.701C254.756,-407.584 293.914,-317.533 348,-257 366.066,-236.78 392.552,-219.689 410.029,-209.64"/>
<polygon fill="midnightblue" stroke="midnightblue" points="235.914,-445.728 235.564,-456.317 242.441,-448.257 235.914,-445.728"/>
</g>
<!-- Node32 -->
<g id="node79" class="node"><title>Node32</title>
<a xlink:href="../../d7/d71/xep__muc_8c.html#af88baacca4f1cccf8ec2bc295db0e063" target="_top" xlink:title="leave_room">
<polygon fill="none" stroke="black" points="390.5,-608.5 390.5,-627.5 467.5,-627.5 467.5,-608.5 390.5,-608.5"/>
<text text-anchor="middle" x="429" y="-615.5" font-family="DejaVuSansMono" font-size="10.00">leave_room</text>
</a>
</g>
<!-- Node31&#45;&gt;Node32 -->
<g id="edge94" class="edge"><title>Node31&#45;&gt;Node32</title>
<path fill="none" stroke="midnightblue" d="M242.6,-484.217C260.476,-513.24 299.462,-569.682 348,-599 360.708,-606.676 376.294,-611.251 390.322,-613.978"/>
<polygon fill="midnightblue" stroke="midnightblue" points="245.515,-482.273 237.364,-475.504 239.515,-485.878 245.515,-482.273"/>
</g>
<!-- Node34 -->
<g id="node87" class="node"><title>Node34</title>
<a xlink:href="../../d7/d71/xep__muc_8c.html#a8333f88612fa054ae107699f5bb548cc" target="_top" xlink:title="send_nickname_conflict">
<polygon fill="none" stroke="black" points="549.5,-532.5 549.5,-551.5 698.5,-551.5 698.5,-532.5 549.5,-532.5"/>
<text text-anchor="middle" x="624" y="-539.5" font-family="DejaVuSansMono" font-size="10.00">send_nickname_conflict</text>
</a>
</g>
<!-- Node31&#45;&gt;Node34 -->
<g id="edge106" class="edge"><title>Node31&#45;&gt;Node34</title>
<path fill="none" stroke="midnightblue" d="M265.636,-479.207C288.533,-487.724 319.702,-498.403 348,-505 415.323,-520.695 493.579,-530.42 549.358,-535.937"/>
<polygon fill="midnightblue" stroke="midnightblue" points="266.643,-475.846 256.051,-475.589 264.171,-482.395 266.643,-475.846"/>
</g>
<!-- Node35 -->
<g id="node90" class="node"><title>Node35</title>
<a xlink:href="../../d7/d71/xep__muc_8c.html#a115281f539cd77f88872ff153ec5b38d" target="_top" xlink:title="send_presence_broadcast">
<polygon fill="none" stroke="black" points="546.5,-494.5 546.5,-513.5 701.5,-513.5 701.5,-494.5 546.5,-494.5"/>
<text text-anchor="middle" x="624" y="-501.5" font-family="DejaVuSansMono" font-size="10.00">send_presence_broadcast</text>
</a>
</g>
<!-- Node31&#45;&gt;Node35 -->
<g id="edge110" class="edge"><title>Node31&#45;&gt;Node35</title>
<path fill="none" stroke="midnightblue" d="M293.643,-477.194C311.162,-480.077 330.292,-482.943 348,-485 414.79,-492.76 491.101,-497.725 546.364,-500.626"/>
<polygon fill="midnightblue" stroke="midnightblue" points="293.978,-473.702 283.537,-475.501 292.821,-480.605 293.978,-473.702"/>
</g>
<!-- Node36 -->
<g id="node93" class="node"><title>Node36</title>
<a xlink:href="../../d6/d78/xmp3__multicast_8c.html#a6c09d6ba5f9adac2980596c21f7e29b0" target="_top" xlink:title="remote_stanza_handler">
<polygon fill="none" stroke="black" points="357.5,-456.5 357.5,-475.5 500.5,-475.5 500.5,-456.5 357.5,-456.5"/>
<text text-anchor="middle" x="429" y="-463.5" font-family="DejaVuSansMono" font-size="10.00">remote_stanza_handler</text>
</a>
</g>
<!-- Node31&#45;&gt;Node36 -->
<g id="edge114" class="edge"><title>Node31&#45;&gt;Node36</title>
<path fill="none" stroke="midnightblue" d="M321.738,-466C333.728,-466 345.884,-466 357.482,-466"/>
<polygon fill="midnightblue" stroke="midnightblue" points="321.721,-462.5 311.721,-466 321.721,-469.5 321.721,-462.5"/>
</g>
<!-- Node31&#45;&gt;Node38 -->
<g id="edge128" class="edge"><title>Node31&#45;&gt;Node38</title>
<path fill="none" stroke="midnightblue" d="M235.957,-446.489C246.691,-397.425 280.213,-266.715 348,-181 364.608,-159.999 390.935,-143.319 408.813,-133.558"/>
<polygon fill="midnightblue" stroke="midnightblue" points="232.504,-445.901 233.858,-456.408 239.353,-447.35 232.504,-445.901"/>
</g>
<!-- Node32&#45;&gt;Node9 -->
<g id="edge96" class="edge"><title>Node32&#45;&gt;Node9</title>
<path fill="none" stroke="midnightblue" d="M464.21,-631.471C502.859,-646.691 564.784,-671.076 598.755,-684.453"/>
<polygon fill="midnightblue" stroke="midnightblue" points="465.031,-628.033 454.444,-627.625 462.466,-634.546 465.031,-628.033"/>
</g>
<!-- Node33 -->
<g id="node82" class="node"><title>Node33</title>
<a xlink:href="../../d7/d71/xep__muc_8c.html#a0214cd898b2f0c746cb45f79746e5095" target="_top" xlink:title="client_disconnect">
<polygon fill="none" stroke="black" points="564.5,-608.5 564.5,-627.5 683.5,-627.5 683.5,-608.5 564.5,-608.5"/>
<text text-anchor="middle" x="624" y="-615.5" font-family="DejaVuSansMono" font-size="10.00">client_disconnect</text>
</a>
</g>
<!-- Node32&#45;&gt;Node33 -->
<g id="edge98" class="edge"><title>Node32&#45;&gt;Node33</title>
<path fill="none" stroke="midnightblue" d="M477.708,-618C503.839,-618 536.449,-618 564.15,-618"/>
<polygon fill="midnightblue" stroke="midnightblue" points="477.671,-614.5 467.671,-618 477.67,-621.5 477.671,-614.5"/>
</g>
<!-- Node33&#45;&gt;Node8 -->
<g id="edge100" class="edge"><title>Node33&#45;&gt;Node8</title>
<path fill="none" stroke="midnightblue" d="M693.797,-618C708.48,-618 723.937,-618 738.454,-618"/>
<polygon fill="midnightblue" stroke="midnightblue" points="693.777,-614.5 683.777,-618 693.777,-621.5 693.777,-614.5"/>
</g>
<!-- Node34&#45;&gt;Node8 -->
<g id="edge108" class="edge"><title>Node34&#45;&gt;Node8</title>
<path fill="none" stroke="midnightblue" d="M657.008,-555.666C692.682,-570.898 749.442,-595.133 780.639,-608.453"/>
<polygon fill="midnightblue" stroke="midnightblue" points="658.115,-552.333 647.544,-551.625 655.366,-558.771 658.115,-552.333"/>
</g>
<!-- Node35&#45;&gt;Node8 -->
<g id="edge112" class="edge"><title>Node35&#45;&gt;Node8</title>
<path fill="none" stroke="midnightblue" d="M688.599,-516.877C693.244,-518.664 697.763,-520.694 702,-523 743.232,-545.437 780.251,-588.813 795.552,-608.211"/>
<polygon fill="midnightblue" stroke="midnightblue" points="689.534,-513.497 678.939,-513.539 687.248,-520.113 689.534,-513.497"/>
</g>
<!-- Node37 -->
<g id="node95" class="node"><title>Node37</title>
<a xlink:href="../../d6/d78/xmp3__multicast_8c.html#a08afc39c59ec9297d756a99c395eff3c" target="_top" xlink:title="multicast_new">
<polygon fill="none" stroke="black" points="576.5,-456.5 576.5,-475.5 671.5,-475.5 671.5,-456.5 576.5,-456.5"/>
<text text-anchor="middle" x="624" y="-463.5" font-family="DejaVuSansMono" font-size="10.00">multicast_new</text>
</a>
</g>
<!-- Node36&#45;&gt;Node37 -->
<g id="edge116" class="edge"><title>Node36&#45;&gt;Node37</title>
<path fill="none" stroke="midnightblue" d="M510.916,-466C533.212,-466 556.647,-466 576.292,-466"/>
<polygon fill="midnightblue" stroke="midnightblue" points="510.77,-462.5 500.77,-466 510.77,-469.5 510.77,-462.5"/>
</g>
<!-- Node38&#45;&gt;Node39 -->
<g id="edge130" class="edge"><title>Node38&#45;&gt;Node39</title>
<path fill="none" stroke="midnightblue" d="M519.63,-124C531.611,-124 543.735,-124 555.256,-124"/>
<polygon fill="midnightblue" stroke="midnightblue" points="519.615,-120.5 509.615,-124 519.615,-127.5 519.615,-120.5"/>
</g>
<!-- Node40 -->
<g id="node106" class="node"><title>Node40</title>
<a xlink:href="../../d8/d28/xmpp__core_8h.html#a777c384ae6685d30bfa255c4b33022aa" target="_top" xlink:title="An xmpp_server stanza route for stanzas directed to the server itself.">
<polygon fill="none" stroke="black" points="1362.5,-129.5 1362.5,-148.5 1511.5,-148.5 1511.5,-129.5 1362.5,-129.5"/>
<text text-anchor="middle" x="1437" y="-136.5" font-family="DejaVuSansMono" font-size="10.00">xmpp_core_route_server</text>
</a>
</g>
<!-- Node39&#45;&gt;Node40 -->
<g id="edge132" class="edge"><title>Node39&#45;&gt;Node40</title>
<path fill="none" stroke="midnightblue" d="M703.061,-126.52C771.968,-128.526 875.148,-131 965,-131 965,-131 965,-131 1123,-131 1204.94,-131 1298.92,-133.774 1362.34,-136.055"/>
<polygon fill="midnightblue" stroke="midnightblue" points="702.825,-123.011 692.726,-126.215 702.618,-130.008 702.825,-123.011"/>
</g>
<!-- Node40&#45;&gt;Node19 -->
<g id="edge134" class="edge"><title>Node40&#45;&gt;Node19</title>
<path fill="none" stroke="midnightblue" d="M1521.88,-137.026C1598.5,-139.06 1712,-152.06 1794,-205 1840.62,-235.094 1869.64,-299.071 1879.36,-323.367"/>
<polygon fill="midnightblue" stroke="midnightblue" points="1521.86,-133.525 1511.79,-136.815 1521.71,-140.523 1521.86,-133.525"/>
</g>
</g>
</svg>
        <g id="navigator" transform="translate(0 0)" fill="#404254">
                <rect fill="#f2f5e9" fill-opacity="0.5" stroke="#606060" stroke-width=".5" x="0" y="0" width="60" height="60"/>
                <use id="zoomplus" xlink:href="#zoomPlus" x="17" y="9" onmousedown="handleZoom(evt,'in')"/>
                <use id="zoomminus" xlink:href="#zoomMin" x="42" y="9" onmousedown="handleZoom(evt,'out')"/>
                <use id="reset" xlink:href="#resetDef" x="30" y="36" onmousedown="handleReset()"/>
                <g id="arrowUp" xlink:href="#dirArrow" transform="translate(30 24)" onmousedown="handlePan(0,-1)">
                  <use xlink:href="#rim" fill="#404040">
                        <set attributeName="fill" to="#808080" begin="arrowUp.mouseover" end="arrowUp.mouseout"/>
                  </use>
                  <path fill="none" stroke="white" stroke-width="1.5" d="M0,-3.0v7 M-2.5,-0.5L0,-3.0L2.5,-0.5"/>
                </g>
                <g id="arrowRight" xlink:href="#dirArrow" transform="rotate(90) translate(36 -43)" onmousedown="handlePan(1,0)">
                  <use xlink:href="#rim" fill="#404040">
                        <set attributeName="fill" to="#808080" begin="arrowRight.mouseover" end="arrowRight.mouseout"/>
                  </use>
                  <path fill="none" stroke="white" stroke-width="1.5" d="M0,-3.0v7 M-2.5,-0.5L0,-3.0L2.5,-0.5"/>
                </g>
                <g id="arrowDown" xlink:href="#dirArrow" transform="rotate(180) translate(-30 -48)" onmousedown="handlePan(0,1)">
                  <use xlink:href="#rim" fill="#404040">
                        <set attributeName="fill" to="#808080" begin="arrowDown.mouseover" end="arrowDown.mouseout"/>
                  </use>
                  <path fill="none" stroke="white" stroke-width="1.5" d="M0,-3.0v7 M-2.5,-0.5L0,-3.0L2.5,-0.5"/>
                </g>
                <g id="arrowLeft" xlink:href="#dirArrow" transform="rotate(270) translate(-36 17)" onmousedown="handlePan(-1,0)">
                  <use xlink:href="#rim" fill="#404040">
                        <set attributeName="fill" to="#808080" begin="arrowLeft.mouseover" end="arrowLeft.mouseout"/>
                  </use>
                  <path fill="none" stroke="white" stroke-width="1.5" d="M0,-3.0v7 M-2.5,-0.5L0,-3.0L2.5,-0.5"/>
                </g>
        </g>
        <svg viewBox="0 0 25 25" width="100%" height="30px" preserveAspectRatio="xMaxYMin meet"> 
          <g id="printButton" transform="scale(0.4 0.4)" onmousedown="handlePrint(evt)">
            <rect height="23.33753581" id="paper" rx="2" style="fill:#f2f5e9;fill-rule:evenodd;stroke:#111111;stroke-width:3.224;stroke-linejoin:round;" transform="matrix(1.000000,0.000000,-0.339266,0.940691,0.000000,0.000000)" width="25.55231285" x="26.69387353" y="7.36162977"/>
            <rect height="26.272097" id="body" rx="2" style="fill:#404040;fill-rule:evenodd;stroke:#111111;stroke-width:3.125;stroke-linejoin:round;" width="50" x="4.5295201" y="27.078951"/>
            <rect height="8.27750969" id="tray" style="fill:#d2d5c9;fill-rule:evenodd;stroke:#111111;stroke-width:3.125;stroke-linecap:round;stroke-linejoin:round;" width="40" x="10.28778839" y="44.96812282"/>
          </g>
        </svg>
</svg>
