<?xml version="1.0" encoding="UTF-8" standalone="no"?>
<!DOCTYPE svg PUBLIC "-//W3C//DTD SVG 1.1//EN"
 "http://www.w3.org/Graphics/SVG/1.1/DTD/svg11.dtd">
<!-- Generated by graphviz version 2.28.0 (20120217.0315)
 -->
<!-- Title: G Pages: 1 -->
<!--zoomable 541 -->
<svg id="main" version="1.1" xmlns="http://www.w3.org/2000/svg" xmlns:xlink="http://www.w3.org/1999/xlink" xml:space="preserve" onload="init(evt)">
        <defs>
                <circle id="rim" cx="0" cy="0" r="7"/>
                <circle id="rim2" cx="0" cy="0" r="3.5"/>
                <g id="zoomPlus">
                        <use xlink:href="#rim" fill="#404040">
                                <set attributeName="fill" to="#808080" begin="zoomplus.mouseover" end="zoomplus.mouseout"/>
                        </use>
                        <path d="M-4,0h8M0,-4v8" fill="none" stroke="white" stroke-width="1.5" pointer-events="none"/>
                </g>
                <g id="zoomMin">
                        <use xlink:href="#rim" fill="#404040">
                                <set attributeName="fill" to="#808080" begin="zoomminus.mouseover" end="zoomminus.mouseout"/>
                        </use>
                        <path d="M-4,0h8" fill="none" stroke="white" stroke-width="1.5" pointer-events="none"/>
                </g>
                <g id="dirArrow">
                        <path fill="none" stroke="white" stroke-width="1.5" d="M0,-3.0v7 M-2.5,-0.5L0,-3.0L2.5,-0.5"/>
                </g>
               <g id="resetDef">
                       <use xlink:href="#rim2" fill="#404040">
                               <set attributeName="fill" to="#808080" begin="reset.mouseover" end="reset.mouseout"/>
                       </use>
               </g>
        </defs>

<script type="text/javascript">
var viewWidth = 1628;
var viewHeight = 541;
var sectionId = 'dynsection-3';
</script>
<script xlink:href="../../svgpan.js"/>
<svg id="graph" class="graph">
<g id="viewport">
<title>G</title>
<!-- Node1 -->
<g id="node1" class="node"><title>Node1</title>
<polygon fill="#bfbfbf" stroke="black" points="0.5,-304.5 0.5,-323.5 161.5,-323.5 161.5,-304.5 0.5,-304.5"/>
<text text-anchor="middle" x="81" y="-311.5" font-family="DejaVuSansMono" font-size="10.00">xmpp_stanza_append_child</text>
</g>
<!-- Node2 -->
<g id="node3" class="node"><title>Node2</title>
<a xlink:href="../../d7/d71/xep__muc_8c.html#af88baacca4f1cccf8ec2bc295db0e063" target="_top" xlink:title="leave_room">
<polygon fill="none" stroke="black" points="258.5,-494.5 258.5,-513.5 335.5,-513.5 335.5,-494.5 258.5,-494.5"/>
<text text-anchor="middle" x="297" y="-501.5" font-family="DejaVuSansMono" font-size="10.00">leave_room</text>
</a>
</g>
<!-- Node1&#45;&gt;Node2 -->
<g id="edge2" class="edge"><title>Node1&#45;&gt;Node2</title>
<path fill="none" stroke="midnightblue" d="M89.8693,-333.212C105.208,-368.156 142.533,-442.01 198,-480 215.631,-492.076 238.715,-498.093 258.049,-501.083"/>
<polygon fill="midnightblue" stroke="midnightblue" points="92.9567,-331.528 85.8192,-323.699 86.5161,-334.27 92.9567,-331.528"/>
</g>
<!-- Node10 -->
<g id="node20" class="node"><title>Node10</title>
<a xlink:href="../../d7/d71/xep__muc_8c.html#a4b26d057ea25fe1b3c99edff73a82d78" target="_top" xlink:title="handle_items_query">
<polygon fill="none" stroke="black" points="234.5,-342.5 234.5,-361.5 359.5,-361.5 359.5,-342.5 234.5,-342.5"/>
<text text-anchor="middle" x="297" y="-349.5" font-family="DejaVuSansMono" font-size="10.00">handle_items_query</text>
</a>
</g>
<!-- Node1&#45;&gt;Node10 -->
<g id="edge20" class="edge"><title>Node1&#45;&gt;Node10</title>
<path fill="none" stroke="midnightblue" d="M145.901,-325.347C176.605,-330.799 212.994,-337.261 242.253,-342.456"/>
<polygon fill="midnightblue" stroke="midnightblue" points="146.183,-321.842 135.725,-323.54 144.959,-328.734 146.183,-321.842"/>
</g>
<!-- Node12 -->
<g id="node25" class="node"><title>Node12</title>
<a xlink:href="../../d7/d71/xep__muc_8c.html#a20d9ff75edcc76b952adf38d558fee26" target="_top" xlink:title="handle_info_query">
<polygon fill="none" stroke="black" points="237.5,-380.5 237.5,-399.5 356.5,-399.5 356.5,-380.5 237.5,-380.5"/>
<text text-anchor="middle" x="297" y="-387.5" font-family="DejaVuSansMono" font-size="10.00">handle_info_query</text>
</a>
</g>
<!-- Node1&#45;&gt;Node12 -->
<g id="edge26" class="edge"><title>Node1&#45;&gt;Node12</title>
<path fill="none" stroke="midnightblue" d="M106.664,-328.522C129.604,-341.439 165.097,-359.946 198,-371 210.486,-375.195 224.195,-378.573 237.301,-381.251"/>
<polygon fill="midnightblue" stroke="midnightblue" points="108.356,-325.458 97.9367,-323.536 104.883,-331.536 108.356,-325.458"/>
</g>
<!-- Node13 -->
<g id="node28" class="node"><title>Node13</title>
<a xlink:href="../../d7/d71/xep__muc_8c.html#a8333f88612fa054ae107699f5bb548cc" target="_top" xlink:title="send_nickname_conflict">
<polygon fill="none" stroke="black" points="435.5,-456.5 435.5,-475.5 584.5,-475.5 584.5,-456.5 435.5,-456.5"/>
<text text-anchor="middle" x="510" y="-463.5" font-family="DejaVuSansMono" font-size="10.00">send_nickname_conflict</text>
</a>
</g>
<!-- Node1&#45;&gt;Node13 -->
<g id="edge30" class="edge"><title>Node1&#45;&gt;Node13</title>
<path fill="none" stroke="midnightblue" d="M93.029,-332.382C111.031,-360.498 149.622,-413.402 198,-437 272.813,-473.493 369.723,-476.649 435.333,-473.326"/>
<polygon fill="midnightblue" stroke="midnightblue" points="95.7935,-330.199 87.5379,-323.559 89.8505,-333.898 95.7935,-330.199"/>
</g>
<!-- Node14 -->
<g id="node31" class="node"><title>Node14</title>
<a xlink:href="../../d7/d71/xep__muc_8c.html#a115281f539cd77f88872ff153ec5b38d" target="_top" xlink:title="send_presence_broadcast">
<polygon fill="none" stroke="black" points="432.5,-418.5 432.5,-437.5 587.5,-437.5 587.5,-418.5 432.5,-418.5"/>
<text text-anchor="middle" x="510" y="-425.5" font-family="DejaVuSansMono" font-size="10.00">send_presence_broadcast</text>
</a>
</g>
<!-- Node1&#45;&gt;Node14 -->
<g id="edge34" class="edge"><title>Node1&#45;&gt;Node14</title>
<path fill="none" stroke="midnightblue" d="M96.5557,-331.3C116.703,-353.836 155.451,-392.32 198,-409 273.669,-438.664 367.645,-440.052 432.374,-436.138"/>
<polygon fill="midnightblue" stroke="midnightblue" points="98.9852,-328.761 89.7756,-323.523 93.7087,-333.361 98.9852,-328.761"/>
</g>
<!-- Node15 -->
<g id="node34" class="node"><title>Node15</title>
<a xlink:href="../../d9/dd7/xmpp__im_8h.html#a7542fa668dcf982bb5d3725c5cacb0ca" target="_top" xlink:title="IQ stanza callback for handling a disco items query.">
<polygon fill="none" stroke="black" points="435.5,-228.5 435.5,-247.5 584.5,-247.5 584.5,-228.5 435.5,-228.5"/>
<text text-anchor="middle" x="510" y="-235.5" font-family="DejaVuSansMono" font-size="10.00">xmpp_im_iq_disco_items</text>
</a>
</g>
<!-- Node1&#45;&gt;Node15 -->
<g id="edge38" class="edge"><title>Node1&#45;&gt;Node15</title>
<path fill="none" stroke="midnightblue" d="M145.597,-302.681C229.805,-287.693 376.813,-261.528 455.572,-247.509"/>
<polygon fill="midnightblue" stroke="midnightblue" points="144.879,-299.253 135.647,-304.452 146.106,-306.145 144.879,-299.253"/>
</g>
<!-- Node18 -->
<g id="node40" class="node"><title>Node18</title>
<a xlink:href="../../d9/dd7/xmpp__im_8h.html#a93be77ae71bc544a1c23fae07f39fd23" target="_top" xlink:title="IQ stanza callback for handling a disco info query.">
<polygon fill="none" stroke="black" points="1251.5,-190.5 1251.5,-209.5 1394.5,-209.5 1394.5,-190.5 1251.5,-190.5"/>
<text text-anchor="middle" x="1323" y="-197.5" font-family="DejaVuSansMono" font-size="10.00">xmpp_im_iq_disco_info</text>
</a>
</g>
<!-- Node1&#45;&gt;Node18 -->
<g id="edge44" class="edge"><title>Node1&#45;&gt;Node18</title>
<path fill="none" stroke="midnightblue" d="M96.5557,-296.7C116.703,-274.164 155.451,-235.68 198,-219 326.927,-168.458 370.52,-200 509,-200 509,-200 509,-200 1015,-200 1096.01,-200 1189.05,-200 1251.28,-200"/>
<polygon fill="midnightblue" stroke="midnightblue" points="93.7087,-294.639 89.7756,-304.477 98.9852,-299.239 93.7087,-294.639"/>
</g>
<!-- Node19 -->
<g id="node43" class="node"><title>Node19</title>
<a xlink:href="../../dc/da6/xmpp__im_8c.html#af5cf3adac08463b9b6029c8814e4f972" target="_top" xlink:title="get_roster">
<polygon fill="none" stroke="black" points="654.5,-152.5 654.5,-171.5 731.5,-171.5 731.5,-152.5 654.5,-152.5"/>
<text text-anchor="middle" x="693" y="-159.5" font-family="DejaVuSansMono" font-size="10.00">get_roster</text>
</a>
</g>
<!-- Node1&#45;&gt;Node19 -->
<g id="edge48" class="edge"><title>Node1&#45;&gt;Node19</title>
<path fill="none" stroke="midnightblue" d="M92.2218,-295.433C109.565,-266.044 147.818,-209.719 198,-186 278.541,-147.931 553.069,-155.808 654.198,-160.159"/>
<polygon fill="midnightblue" stroke="midnightblue" points="89.0872,-293.863 87.1546,-304.28 95.1616,-297.342 89.0872,-293.863"/>
</g>
<!-- Node21 -->
<g id="node48" class="node"><title>Node21</title>
<a xlink:href="../../d1/dc2/xmpp__parser_8c.html#a0f2993ab3e982d5e2b4a5635dcaf291c" target="_top" xlink:title="Expat callback for the start of any other element.">
<polygon fill="none" stroke="black" points="273.5,-114.5 273.5,-133.5 320.5,-133.5 320.5,-114.5 273.5,-114.5"/>
<text text-anchor="middle" x="297" y="-121.5" font-family="DejaVuSansMono" font-size="10.00">start</text>
</a>
</g>
<!-- Node1&#45;&gt;Node21 -->
<g id="edge54" class="edge"><title>Node1&#45;&gt;Node21</title>
<path fill="none" stroke="midnightblue" d="M89.8693,-294.788C105.208,-259.844 142.533,-185.99 198,-148 220.545,-132.559 252.004,-127.024 273.142,-125.057"/>
<polygon fill="midnightblue" stroke="midnightblue" points="86.5161,-293.73 85.8192,-304.301 92.9567,-296.472 86.5161,-293.73"/>
</g>
<!-- Node33 -->
<g id="node76" class="node"><title>Node33</title>
<a xlink:href="../../d1/d2e/xmpp__server_8h.html#ae539771fafbb092bcd304e4e063370aa" target="_top" xlink:title="Append to the given stanza all the items set on this server.">
<polygon fill="none" stroke="black" points="198.5,-228.5 198.5,-247.5 395.5,-247.5 395.5,-228.5 198.5,-228.5"/>
<text text-anchor="middle" x="297" y="-235.5" font-family="DejaVuSansMono" font-size="10.00">xmpp_server_append_disco_items</text>
</a>
</g>
<!-- Node1&#45;&gt;Node33 -->
<g id="edge86" class="edge"><title>Node1&#45;&gt;Node33</title>
<path fill="none" stroke="midnightblue" d="M109.671,-299.881C132.82,-288.491 166.951,-272.663 198,-262 214.567,-256.311 233.145,-251.404 249.634,-247.537"/>
<polygon fill="midnightblue" stroke="midnightblue" points="107.857,-296.875 100.464,-304.463 110.976,-303.141 107.857,-296.875"/>
</g>
<!-- Node34 -->
<g id="node79" class="node"><title>Node34</title>
<a xlink:href="../../d0/df0/xmpp__server_8c.html#a3b400cb24e5bc51623f63c96c8a0a342" target="_top" xlink:title="Sends a &lt;service&#45;unavailable&gt; error stanza to a client.">
<polygon fill="none" stroke="black" points="216.5,-304.5 216.5,-323.5 377.5,-323.5 377.5,-304.5 216.5,-304.5"/>
<text text-anchor="middle" x="297" y="-311.5" font-family="DejaVuSansMono" font-size="10.00">send_service_unavailable</text>
</a>
</g>
<!-- Node1&#45;&gt;Node34 -->
<g id="edge90" class="edge"><title>Node1&#45;&gt;Node34</title>
<path fill="none" stroke="midnightblue" d="M171.812,-314C186.564,-314 201.763,-314 216.248,-314"/>
<polygon fill="midnightblue" stroke="midnightblue" points="171.686,-310.5 161.686,-314 171.686,-317.5 171.686,-310.5"/>
</g>
<!-- Node3 -->
<g id="node5" class="node"><title>Node3</title>
<a xlink:href="../../d7/d71/xep__muc_8c.html#a40cdc65e1b60c76aef97dfc9d3f2510f" target="_top" xlink:title="leave_room_presence">
<polygon fill="none" stroke="black" points="627.5,-513.5 627.5,-532.5 758.5,-532.5 758.5,-513.5 627.5,-513.5"/>
<text text-anchor="middle" x="693" y="-520.5" font-family="DejaVuSansMono" font-size="10.00">leave_room_presence</text>
</a>
</g>
<!-- Node2&#45;&gt;Node3 -->
<g id="edge4" class="edge"><title>Node2&#45;&gt;Node3</title>
<path fill="none" stroke="midnightblue" d="M345.824,-512.449C371.315,-516.529 403.263,-520.973 432,-523 498.415,-527.685 574.61,-526.971 627.268,-525.525"/>
<polygon fill="midnightblue" stroke="midnightblue" points="346.115,-508.95 335.681,-510.79 344.985,-515.858 346.115,-508.95"/>
</g>
<!-- Node8 -->
<g id="node15" class="node"><title>Node8</title>
<a xlink:href="../../d7/d71/xep__muc_8c.html#a0214cd898b2f0c746cb45f79746e5095" target="_top" xlink:title="client_disconnect">
<polygon fill="none" stroke="black" points="450.5,-494.5 450.5,-513.5 569.5,-513.5 569.5,-494.5 450.5,-494.5"/>
<text text-anchor="middle" x="510" y="-501.5" font-family="DejaVuSansMono" font-size="10.00">client_disconnect</text>
</a>
</g>
<!-- Node2&#45;&gt;Node8 -->
<g id="edge14" class="edge"><title>Node2&#45;&gt;Node8</title>
<path fill="none" stroke="midnightblue" d="M345.817,-504C376.735,-504 417.196,-504 450.093,-504"/>
<polygon fill="midnightblue" stroke="midnightblue" points="345.723,-500.5 335.723,-504 345.723,-507.5 345.723,-500.5"/>
</g>
<!-- Node4 -->
<g id="node7" class="node"><title>Node4</title>
<a xlink:href="../../d7/d71/xep__muc_8c.html#a9936322b944d46aead9fbd942687ec0a" target="_top" xlink:title="handle_presence">
<polygon fill="none" stroke="black" points="804.5,-456.5 804.5,-475.5 911.5,-475.5 911.5,-456.5 804.5,-456.5"/>
<text text-anchor="middle" x="858" y="-463.5" font-family="DejaVuSansMono" font-size="10.00">handle_presence</text>
</a>
</g>
<!-- Node3&#45;&gt;Node4 -->
<g id="edge6" class="edge"><title>Node3&#45;&gt;Node4</title>
<path fill="none" stroke="midnightblue" d="M730.971,-510.072C760.963,-499.584 802.564,-485.036 829.628,-475.572"/>
<polygon fill="midnightblue" stroke="midnightblue" points="729.567,-506.855 721.283,-513.459 731.877,-513.462 729.567,-506.855"/>
</g>
<!-- Node5 -->
<g id="node9" class="node"><title>Node5</title>
<a xlink:href="../../d7/d71/xep__muc_8c.html#a1798db1c16a1fa62ff8f39fea202a26f" target="_top" xlink:title="stanza_handler">
<polygon fill="none" stroke="black" points="963.5,-418.5 963.5,-437.5 1064.5,-437.5 1064.5,-418.5 963.5,-418.5"/>
<text text-anchor="middle" x="1014" y="-425.5" font-family="DejaVuSansMono" font-size="10.00">stanza_handler</text>
</a>
</g>
<!-- Node4&#45;&gt;Node5 -->
<g id="edge8" class="edge"><title>Node4&#45;&gt;Node5</title>
<path fill="none" stroke="midnightblue" d="M907.794,-453.96C929.308,-448.651 954.232,-442.501 974.419,-437.52"/>
<polygon fill="midnightblue" stroke="midnightblue" points="906.731,-450.617 897.861,-456.411 908.408,-457.413 906.731,-450.617"/>
</g>
<!-- Node6 -->
<g id="node11" class="node"><title>Node6</title>
<a xlink:href="../../d7/d71/xep__muc_8c.html#addf05166cf3fbe386ae6650be21ef251" target="_top" xlink:title="xep_muc_start">
<polygon fill="none" stroke="black" points="1113.5,-399.5 1113.5,-418.5 1208.5,-418.5 1208.5,-399.5 1113.5,-399.5"/>
<text text-anchor="middle" x="1161" y="-406.5" font-family="DejaVuSansMono" font-size="10.00">xep_muc_start</text>
</a>
</g>
<!-- Node5&#45;&gt;Node6 -->
<g id="edge10" class="edge"><title>Node5&#45;&gt;Node6</title>
<path fill="none" stroke="midnightblue" d="M1075.03,-420.134C1087.85,-418.454 1101.2,-416.705 1113.42,-415.103"/>
<polygon fill="midnightblue" stroke="midnightblue" points="1074.36,-416.692 1064.9,-421.461 1075.27,-423.632 1074.36,-416.692"/>
</g>
<!-- Node7 -->
<g id="node13" class="node"><title>Node7</title>
<a xlink:href="../../d7/d71/xep__muc_8c.html#a20d385a5584d8014ec4d5774eb79d1de" target="_top" xlink:title="xep_muc_stop">
<polygon fill="none" stroke="black" points="1116.5,-437.5 1116.5,-456.5 1205.5,-456.5 1205.5,-437.5 1116.5,-437.5"/>
<text text-anchor="middle" x="1161" y="-444.5" font-family="DejaVuSansMono" font-size="10.00">xep_muc_stop</text>
</a>
</g>
<!-- Node5&#45;&gt;Node7 -->
<g id="edge12" class="edge"><title>Node5&#45;&gt;Node7</title>
<path fill="none" stroke="midnightblue" d="M1074.87,-435.845C1088.75,-437.664 1103.27,-439.566 1116.3,-441.274"/>
<polygon fill="midnightblue" stroke="midnightblue" points="1075.27,-432.368 1064.9,-434.539 1074.36,-439.308 1075.27,-432.368"/>
</g>
<!-- Node9 -->
<g id="node17" class="node"><title>Node9</title>
<a xlink:href="../../d7/d71/xep__muc_8c.html#aefd23f2960520a68fea212344b85cb0b" target="_top" xlink:title="enter_room_presence">
<polygon fill="none" stroke="black" points="627.5,-456.5 627.5,-475.5 758.5,-475.5 758.5,-456.5 627.5,-456.5"/>
<text text-anchor="middle" x="693" y="-463.5" font-family="DejaVuSansMono" font-size="10.00">enter_room_presence</text>
</a>
</g>
<!-- Node8&#45;&gt;Node9 -->
<g id="edge16" class="edge"><title>Node8&#45;&gt;Node9</title>
<path fill="none" stroke="midnightblue" d="M566.638,-492.319C592.307,-486.93 622.391,-480.614 646.654,-475.52"/>
<polygon fill="midnightblue" stroke="midnightblue" points="565.741,-488.931 556.674,-494.411 567.18,-495.782 565.741,-488.931"/>
</g>
<!-- Node9&#45;&gt;Node4 -->
<g id="edge18" class="edge"><title>Node9&#45;&gt;Node4</title>
<path fill="none" stroke="midnightblue" d="M769.245,-466C781.11,-466 793.152,-466 804.358,-466"/>
<polygon fill="midnightblue" stroke="midnightblue" points="768.89,-462.5 758.89,-466 768.89,-469.5 768.89,-462.5"/>
</g>
<!-- Node11 -->
<g id="node22" class="node"><title>Node11</title>
<a xlink:href="../../d7/d71/xep__muc_8c.html#aec1096d47742f472668c4905fa3c299a" target="_top" xlink:title="handle_iq">
<polygon fill="none" stroke="black" points="474.5,-380.5 474.5,-399.5 545.5,-399.5 545.5,-380.5 474.5,-380.5"/>
<text text-anchor="middle" x="510" y="-387.5" font-family="DejaVuSansMono" font-size="10.00">handle_iq</text>
</a>
</g>
<!-- Node10&#45;&gt;Node11 -->
<g id="edge22" class="edge"><title>Node10&#45;&gt;Node11</title>
<path fill="none" stroke="midnightblue" d="M361.177,-363.378C398.209,-370.047 443.582,-378.219 474.215,-383.735"/>
<polygon fill="midnightblue" stroke="midnightblue" points="361.434,-359.868 350.972,-361.54 360.193,-366.757 361.434,-359.868"/>
</g>
<!-- Node11&#45;&gt;Node5 -->
<g id="edge24" class="edge"><title>Node11&#45;&gt;Node5</title>
<path fill="none" stroke="midnightblue" d="M555.497,-393.368C649.076,-400.452 865.658,-416.847 963.473,-424.251"/>
<polygon fill="midnightblue" stroke="midnightblue" points="555.74,-389.877 545.504,-392.612 555.212,-396.857 555.74,-389.877"/>
</g>
<!-- Node12&#45;&gt;Node11 -->
<g id="edge28" class="edge"><title>Node12&#45;&gt;Node11</title>
<path fill="none" stroke="midnightblue" d="M367.188,-390C403.042,-390 445.27,-390 474.265,-390"/>
<polygon fill="midnightblue" stroke="midnightblue" points="366.775,-386.5 356.775,-390 366.775,-393.5 366.775,-386.5"/>
</g>
<!-- Node13&#45;&gt;Node9 -->
<g id="edge32" class="edge"><title>Node13&#45;&gt;Node9</title>
<path fill="none" stroke="midnightblue" d="M594.674,-466C605.684,-466 616.829,-466 627.453,-466"/>
<polygon fill="midnightblue" stroke="midnightblue" points="594.62,-462.5 584.62,-466 594.62,-469.5 594.62,-462.5"/>
</g>
<!-- Node14&#45;&gt;Node9 -->
<g id="edge36" class="edge"><title>Node14&#45;&gt;Node9</title>
<path fill="none" stroke="midnightblue" d="M566.638,-439.681C592.307,-445.07 622.391,-451.386 646.654,-456.48"/>
<polygon fill="midnightblue" stroke="midnightblue" points="567.18,-436.218 556.674,-437.589 565.741,-443.069 567.18,-436.218"/>
</g>
<!-- Node16 -->
<g id="node36" class="node"><title>Node16</title>
<a xlink:href="../../d1/d2e/xmpp__server_8h.html#a27bfc8e4d424a8bc17ab21a4a09cdf92" target="_top" xlink:title="Allocates and initializes the XMPP server.">
<polygon fill="none" stroke="black" points="1434.5,-190.5 1434.5,-209.5 1541.5,-209.5 1541.5,-190.5 1434.5,-190.5"/>
<text text-anchor="middle" x="1488" y="-197.5" font-family="DejaVuSansMono" font-size="10.00">xmpp_server_new</text>
</a>
</g>
<!-- Node15&#45;&gt;Node16 -->
<g id="edge40" class="edge"><title>Node15&#45;&gt;Node16</title>
<path fill="none" stroke="midnightblue" d="M594.668,-238C664.744,-238 767.398,-238 857,-238 857,-238 857,-238 1162,-238 1267.23,-238 1293.88,-234.239 1398,-219 1414.41,-216.598 1432.34,-212.969 1447.77,-209.525"/>
<polygon fill="midnightblue" stroke="midnightblue" points="594.571,-234.5 584.571,-238 594.571,-241.5 594.571,-234.5"/>
</g>
<!-- Node17 -->
<g id="node38" class="node"><title>Node17</title>
<a xlink:href="../../d0/d29/main_8c.html#a0ddf1224851353fc92bfbff6f499fa97" target="_top" xlink:title="main">
<polygon fill="none" stroke="black" points="1578.5,-190.5 1578.5,-209.5 1619.5,-209.5 1619.5,-190.5 1578.5,-190.5"/>
<text text-anchor="middle" x="1599" y="-197.5" font-family="DejaVuSansMono" font-size="10.00">main</text>
</a>
</g>
<!-- Node16&#45;&gt;Node17 -->
<g id="edge42" class="edge"><title>Node16&#45;&gt;Node17</title>
<path fill="none" stroke="midnightblue" d="M1551.75,-200C1561.43,-200 1570.76,-200 1578.47,-200"/>
<polygon fill="midnightblue" stroke="midnightblue" points="1551.58,-196.5 1541.58,-200 1551.58,-203.5 1551.58,-196.5"/>
</g>
<!-- Node18&#45;&gt;Node16 -->
<g id="edge46" class="edge"><title>Node18&#45;&gt;Node16</title>
<path fill="none" stroke="midnightblue" d="M1404.85,-200C1414.76,-200 1424.69,-200 1434.04,-200"/>
<polygon fill="midnightblue" stroke="midnightblue" points="1404.55,-196.5 1394.55,-200 1404.55,-203.5 1404.55,-196.5"/>
</g>
<!-- Node20 -->
<g id="node45" class="node"><title>Node20</title>
<a xlink:href="../../d9/dd7/xmpp__im_8h.html#a40f3cf6fffd6aafe9c7cde476fdbc9c2" target="_top" xlink:title="IQ stanza callback for handing a roster query.">
<polygon fill="none" stroke="black" points="798.5,-152.5 798.5,-171.5 917.5,-171.5 917.5,-152.5 798.5,-152.5"/>
<text text-anchor="middle" x="858" y="-159.5" font-family="DejaVuSansMono" font-size="10.00">xmpp_im_iq_roster</text>
</a>
</g>
<!-- Node19&#45;&gt;Node20 -->
<g id="edge50" class="edge"><title>Node19&#45;&gt;Node20</title>
<path fill="none" stroke="midnightblue" d="M741.886,-162C759.564,-162 779.801,-162 798.326,-162"/>
<polygon fill="midnightblue" stroke="midnightblue" points="741.805,-158.5 731.805,-162 741.805,-165.5 741.805,-158.5"/>
</g>
<!-- Node20&#45;&gt;Node16 -->
<g id="edge52" class="edge"><title>Node20&#45;&gt;Node16</title>
<path fill="none" stroke="midnightblue" d="M928.139,-160.583C1031,-159.345 1230.22,-160.295 1398,-181 1415.09,-183.109 1433.76,-186.867 1449.57,-190.487"/>
<polygon fill="midnightblue" stroke="midnightblue" points="927.841,-157.086 917.887,-160.717 927.933,-164.086 927.841,-157.086"/>
</g>
<!-- Node22 -->
<g id="node50" class="node"><title>Node22</title>
<a xlink:href="../../d1/dc2/xmpp__parser_8c.html#a03a135f29e3d4e01abbb60e53ac6967c" target="_top" xlink:title="init_parser">
<polygon fill="none" stroke="black" points="651.5,-76.5 651.5,-95.5 734.5,-95.5 734.5,-76.5 651.5,-76.5"/>
<text text-anchor="middle" x="693" y="-83.5" font-family="DejaVuSansMono" font-size="10.00">init_parser</text>
</a>
</g>
<!-- Node21&#45;&gt;Node22 -->
<g id="edge56" class="edge"><title>Node21&#45;&gt;Node22</title>
<path fill="none" stroke="midnightblue" d="M330.792,-118.716C357.873,-114.505 397.351,-108.718 432,-105 509.402,-96.6941 600.163,-90.9724 651.392,-88.1117"/>
<polygon fill="midnightblue" stroke="midnightblue" points="330.038,-115.292 320.703,-120.301 331.125,-122.207 330.038,-115.292"/>
</g>
<!-- Node32 -->
<g id="node73" class="node"><title>Node32</title>
<a xlink:href="../../d1/dc2/xmpp__parser_8c.html#a2268b636f6d02bbe04f3033ff93d829c" target="_top" xlink:title="Expat callback for the start of an XMPP stream.">
<polygon fill="none" stroke="black" points="465.5,-114.5 465.5,-133.5 554.5,-133.5 554.5,-114.5 465.5,-114.5"/>
<text text-anchor="middle" x="510" y="-121.5" font-family="DejaVuSansMono" font-size="10.00">stream_start</text>
</a>
</g>
<!-- Node21&#45;&gt;Node32 -->
<g id="edge82" class="edge"><title>Node21&#45;&gt;Node32</title>
<path fill="none" stroke="midnightblue" d="M330.597,-124C366.76,-124 425.287,-124 465.377,-124"/>
<polygon fill="midnightblue" stroke="midnightblue" points="330.581,-120.5 320.581,-124 330.581,-127.5 330.581,-120.5"/>
</g>
<!-- Node23 -->
<g id="node52" class="node"><title>Node23</title>
<a xlink:href="../../d8/d55/xmpp__parser_8h.html#adf25a1d2047994dfa6cc71a9482548c2" target="_top" xlink:title="xmpp_parser_new">
<polygon fill="none" stroke="black" points="804.5,-38.5 804.5,-57.5 911.5,-57.5 911.5,-38.5 804.5,-38.5"/>
<text text-anchor="middle" x="858" y="-45.5" font-family="DejaVuSansMono" font-size="10.00">xmpp_parser_new</text>
</a>
</g>
<!-- Node22&#45;&gt;Node23 -->
<g id="edge58" class="edge"><title>Node22&#45;&gt;Node23</title>
<path fill="none" stroke="midnightblue" d="M744.65,-74.192C767.674,-68.8246 794.55,-62.5588 816.243,-57.5017"/>
<polygon fill="midnightblue" stroke="midnightblue" points="743.656,-70.8299 734.711,-76.509 745.245,-77.6471 743.656,-70.8299"/>
</g>
<!-- Node27 -->
<g id="node61" class="node"><title>Node27</title>
<a xlink:href="../../d8/d55/xmpp__parser_8h.html#af5e1eb5bbef0496c3543bd35113766ac" target="_top" xlink:title="Reset the state of the parser as if it was just created.">
<polygon fill="none" stroke="black" points="798.5,-76.5 798.5,-95.5 917.5,-95.5 917.5,-76.5 798.5,-76.5"/>
<text text-anchor="middle" x="858" y="-83.5" font-family="DejaVuSansMono" font-size="10.00">xmpp_parser_reset</text>
</a>
</g>
<!-- Node22&#45;&gt;Node27 -->
<g id="edge68" class="edge"><title>Node22&#45;&gt;Node27</title>
<path fill="none" stroke="midnightblue" d="M744.96,-86C761.899,-86 780.895,-86 798.366,-86"/>
<polygon fill="midnightblue" stroke="midnightblue" points="744.711,-82.5001 734.711,-86 744.711,-89.5001 744.711,-82.5001"/>
</g>
<!-- Node24 -->
<g id="node54" class="node"><title>Node24</title>
<a xlink:href="../../d6/d78/xmp3__multicast_8c.html#a08afc39c59ec9297d756a99c395eff3c" target="_top" xlink:title="multicast_new">
<polygon fill="none" stroke="black" points="966.5,-38.5 966.5,-57.5 1061.5,-57.5 1061.5,-38.5 966.5,-38.5"/>
<text text-anchor="middle" x="1014" y="-45.5" font-family="DejaVuSansMono" font-size="10.00">multicast_new</text>
</a>
</g>
<!-- Node23&#45;&gt;Node24 -->
<g id="edge60" class="edge"><title>Node23&#45;&gt;Node24</title>
<path fill="none" stroke="midnightblue" d="M921.742,-48C936.65,-48 952.297,-48 966.341,-48"/>
<polygon fill="midnightblue" stroke="midnightblue" points="921.567,-44.5001 911.567,-48 921.567,-51.5001 921.567,-44.5001"/>
</g>
<!-- Node25 -->
<g id="node56" class="node"><title>Node25</title>
<a xlink:href="../../d4/d2f/xmpp__client_8h.html#a1619c0b8f58b2cf09a322bf34fbc3414" target="_top" xlink:title="xmpp_client_new">
<polygon fill="none" stroke="black" points="960.5,-0.5 960.5,-19.5 1067.5,-19.5 1067.5,-0.5 960.5,-0.5"/>
<text text-anchor="middle" x="1014" y="-7.5" font-family="DejaVuSansMono" font-size="10.00">xmpp_client_new</text>
</a>
</g>
<!-- Node23&#45;&gt;Node25 -->
<g id="edge62" class="edge"><title>Node23&#45;&gt;Node25</title>
<path fill="none" stroke="midnightblue" d="M907.794,-35.96C929.308,-30.6512 954.232,-24.5012 974.419,-19.5201"/>
<polygon fill="midnightblue" stroke="midnightblue" points="906.731,-32.6172 897.861,-38.411 908.408,-39.4133 906.731,-32.6172"/>
</g>
<!-- Node26 -->
<g id="node58" class="node"><title>Node26</title>
<a xlink:href="../../d0/df0/xmpp__server_8c.html#a66363912ef1221a2574f9f99805fe8fd" target="_top" xlink:title="Callback for new client connections.">
<polygon fill="none" stroke="black" points="1272.5,-76.5 1272.5,-95.5 1373.5,-95.5 1373.5,-76.5 1272.5,-76.5"/>
<text text-anchor="middle" x="1323" y="-83.5" font-family="DejaVuSansMono" font-size="10.00">connect_client</text>
</a>
</g>
<!-- Node25&#45;&gt;Node26 -->
<g id="edge64" class="edge"><title>Node25&#45;&gt;Node26</title>
<path fill="none" stroke="midnightblue" d="M1063.32,-21.9623C1124.16,-37.0236 1227.46,-62.5971 1283.35,-76.4308"/>
<polygon fill="midnightblue" stroke="midnightblue" points="1064.12,-18.5542 1053.57,-19.5485 1062.44,-25.349 1064.12,-18.5542"/>
</g>
<!-- Node26&#45;&gt;Node16 -->
<g id="edge66" class="edge"><title>Node26&#45;&gt;Node16</title>
<path fill="none" stroke="midnightblue" d="M1383.54,-98.038C1388.59,-100.019 1393.48,-102.323 1398,-105 1435.92,-127.456 1467.71,-170.822 1480.71,-190.214"/>
<polygon fill="midnightblue" stroke="midnightblue" points="1384.32,-94.6009 1373.72,-94.611 1382.01,-101.21 1384.32,-94.6009"/>
</g>
<!-- Node28 -->
<g id="node63" class="node"><title>Node28</title>
<a xlink:href="../../d6/d78/xmp3__multicast_8c.html#a9865e8026fb8ee000629fc1da465716d" target="_top" xlink:title="socket_handler">
<polygon fill="none" stroke="black" points="1110.5,-114.5 1110.5,-133.5 1211.5,-133.5 1211.5,-114.5 1110.5,-114.5"/>
<text text-anchor="middle" x="1161" y="-121.5" font-family="DejaVuSansMono" font-size="10.00">socket_handler</text>
</a>
</g>
<!-- Node27&#45;&gt;Node28 -->
<g id="edge70" class="edge"><title>Node27&#45;&gt;Node28</title>
<path fill="none" stroke="midnightblue" d="M912.049,-97.6369C925.672,-100.342 940.339,-103.01 954,-105 1007.13,-112.742 1068.46,-117.921 1110.29,-120.891"/>
<polygon fill="midnightblue" stroke="midnightblue" points="912.365,-94.1298 901.869,-95.5712 910.973,-100.99 912.365,-94.1298"/>
</g>
<!-- Node30 -->
<g id="node67" class="node"><title>Node30</title>
<a xlink:href="../../d8/d55/xmpp__parser_8h.html#a578b7a9a50212eb204a86789001287af" target="_top" xlink:title="xmpp_parser_parse">
<polygon fill="none" stroke="black" points="954.5,-76.5 954.5,-95.5 1073.5,-95.5 1073.5,-76.5 954.5,-76.5"/>
<text text-anchor="middle" x="1014" y="-83.5" font-family="DejaVuSansMono" font-size="10.00">xmpp_parser_parse</text>
</a>
</g>
<!-- Node27&#45;&gt;Node30 -->
<g id="edge74" class="edge"><title>Node27&#45;&gt;Node30</title>
<path fill="none" stroke="midnightblue" d="M927.894,-86C936.691,-86 945.631,-86 954.248,-86"/>
<polygon fill="midnightblue" stroke="midnightblue" points="927.66,-82.5001 917.66,-86 927.66,-89.5001 927.66,-82.5001"/>
</g>
<!-- Node29 -->
<g id="node65" class="node"><title>Node29</title>
<a xlink:href="../../d6/d78/xmp3__multicast_8c.html#a991c928ab73b350c4b7029352e91a219" target="_top" xlink:title="multicast_start">
<polygon fill="none" stroke="black" points="1269.5,-114.5 1269.5,-133.5 1376.5,-133.5 1376.5,-114.5 1269.5,-114.5"/>
<text text-anchor="middle" x="1323" y="-121.5" font-family="DejaVuSansMono" font-size="10.00">multicast_start</text>
</a>
</g>
<!-- Node28&#45;&gt;Node29 -->
<g id="edge72" class="edge"><title>Node28&#45;&gt;Node29</title>
<path fill="none" stroke="midnightblue" d="M1221.8,-124C1237.38,-124 1254.05,-124 1269.23,-124"/>
<polygon fill="midnightblue" stroke="midnightblue" points="1221.75,-120.5 1211.75,-124 1221.75,-127.5 1221.75,-120.5"/>
</g>
<!-- Node30&#45;&gt;Node28 -->
<g id="edge76" class="edge"><title>Node30&#45;&gt;Node28</title>
<path fill="none" stroke="midnightblue" d="M1061.49,-98.1843C1081.62,-103.46 1104.84,-109.544 1123.67,-114.48"/>
<polygon fill="midnightblue" stroke="midnightblue" points="1062.15,-94.7385 1051.59,-95.589 1060.38,-101.51 1062.15,-94.7385"/>
</g>
<!-- Node31 -->
<g id="node70" class="node"><title>Node31</title>
<a xlink:href="../../d0/df0/xmpp__server_8c.html#abece91815ef240322d79073f5bfca1db" target="_top" xlink:title="Callback for new data from a client.">
<polygon fill="none" stroke="black" points="1119.5,-76.5 1119.5,-95.5 1202.5,-95.5 1202.5,-76.5 1119.5,-76.5"/>
<text text-anchor="middle" x="1161" y="-83.5" font-family="DejaVuSansMono" font-size="10.00">read_client</text>
</a>
</g>
<!-- Node30&#45;&gt;Node31 -->
<g id="edge78" class="edge"><title>Node30&#45;&gt;Node31</title>
<path fill="none" stroke="midnightblue" d="M1083.76,-86C1095.99,-86 1108.35,-86 1119.47,-86"/>
<polygon fill="midnightblue" stroke="midnightblue" points="1083.56,-82.5001 1073.56,-86 1083.56,-89.5001 1083.56,-82.5001"/>
</g>
<!-- Node31&#45;&gt;Node26 -->
<g id="edge80" class="edge"><title>Node31&#45;&gt;Node26</title>
<path fill="none" stroke="midnightblue" d="M1213.05,-86C1232.05,-86 1253.57,-86 1272.43,-86"/>
<polygon fill="midnightblue" stroke="midnightblue" points="1212.79,-82.5001 1202.79,-86 1212.79,-89.5001 1212.79,-82.5001"/>
</g>
<!-- Node32&#45;&gt;Node22 -->
<g id="edge84" class="edge"><title>Node32&#45;&gt;Node22</title>
<path fill="none" stroke="midnightblue" d="M564.762,-112.713C592.509,-106.888 625.805,-99.8972 651.377,-94.5287"/>
<polygon fill="midnightblue" stroke="midnightblue" points="563.883,-109.321 554.815,-114.801 565.321,-116.172 563.883,-109.321"/>
</g>
<!-- Node33&#45;&gt;Node15 -->
<g id="edge88" class="edge"><title>Node33&#45;&gt;Node15</title>
<path fill="none" stroke="midnightblue" d="M406.053,-238C415.915,-238 425.747,-238 435.204,-238"/>
<polygon fill="midnightblue" stroke="midnightblue" points="405.779,-234.5 395.779,-238 405.779,-241.5 405.779,-234.5"/>
</g>
<!-- Node35 -->
<g id="node81" class="node"><title>Node35</title>
<a xlink:href="../../d1/d2e/xmpp__server_8h.html#a8ddb3bbfd497811c13e9426ce6f02003" target="_top" xlink:title="Deliver an IQ stanza to a registered callback function.">
<polygon fill="none" stroke="black" points="624.5,-282.5 624.5,-301.5 761.5,-301.5 761.5,-282.5 624.5,-282.5"/>
<text text-anchor="middle" x="693" y="-289.5" font-family="DejaVuSansMono" font-size="10.00">xmpp_server_route_iq</text>
</a>
</g>
<!-- Node34&#45;&gt;Node35 -->
<g id="edge92" class="edge"><title>Node34&#45;&gt;Node35</title>
<path fill="none" stroke="midnightblue" d="M388.125,-308.968C459.958,-304.957 558.978,-299.428 624.199,-295.786"/>
<polygon fill="midnightblue" stroke="midnightblue" points="387.521,-305.496 377.732,-309.548 387.911,-312.485 387.521,-305.496"/>
</g>
<!-- Node36 -->
<g id="node83" class="node"><title>Node36</title>
<a xlink:href="../../d8/d28/xmpp__core_8h.html#a777c384ae6685d30bfa255c4b33022aa" target="_top" xlink:title="An xmpp_server stanza route for stanzas directed to the server itself.">
<polygon fill="none" stroke="black" points="1248.5,-271.5 1248.5,-290.5 1397.5,-290.5 1397.5,-271.5 1248.5,-271.5"/>
<text text-anchor="middle" x="1323" y="-278.5" font-family="DejaVuSansMono" font-size="10.00">xmpp_core_route_server</text>
</a>
</g>
<!-- Node35&#45;&gt;Node36 -->
<g id="edge94" class="edge"><title>Node35&#45;&gt;Node36</title>
<path fill="none" stroke="midnightblue" d="M771.515,-290.642C893.448,-288.506 1128.46,-284.39 1248.11,-282.294"/>
<polygon fill="midnightblue" stroke="midnightblue" points="771.442,-287.143 761.505,-290.818 771.565,-294.142 771.442,-287.143"/>
</g>
<!-- Node36&#45;&gt;Node16 -->
<g id="edge96" class="edge"><title>Node36&#45;&gt;Node16</title>
<path fill="none" stroke="midnightblue" d="M1361.17,-267.73C1373.1,-263.128 1386.26,-257.687 1398,-252 1425.06,-238.892 1454.93,-220.594 1472.27,-209.563"/>
<polygon fill="midnightblue" stroke="midnightblue" points="1359.61,-264.576 1351.5,-271.385 1362.09,-271.125 1359.61,-264.576"/>
</g>
</g>
</svg>
        <g id="navigator" transform="translate(0 0)" fill="#404254">
                <rect fill="#f2f5e9" fill-opacity="0.5" stroke="#606060" stroke-width=".5" x="0" y="0" width="60" height="60"/>
                <use id="zoomplus" xlink:href="#zoomPlus" x="17" y="9" onmousedown="handleZoom(evt,'in')"/>
                <use id="zoomminus" xlink:href="#zoomMin" x="42" y="9" onmousedown="handleZoom(evt,'out')"/>
                <use id="reset" xlink:href="#resetDef" x="30" y="36" onmousedown="handleReset()"/>
                <g id="arrowUp" xlink:href="#dirArrow" transform="translate(30 24)" onmousedown="handlePan(0,-1)">
                  <use xlink:href="#rim" fill="#404040">
                        <set attributeName="fill" to="#808080" begin="arrowUp.mouseover" end="arrowUp.mouseout"/>
                  </use>
                  <path fill="none" stroke="white" stroke-width="1.5" d="M0,-3.0v7 M-2.5,-0.5L0,-3.0L2.5,-0.5"/>
                </g>
                <g id="arrowRight" xlink:href="#dirArrow" transform="rotate(90) translate(36 -43)" onmousedown="handlePan(1,0)">
                  <use xlink:href="#rim" fill="#404040">
                        <set attributeName="fill" to="#808080" begin="arrowRight.mouseover" end="arrowRight.mouseout"/>
                  </use>
                  <path fill="none" stroke="white" stroke-width="1.5" d="M0,-3.0v7 M-2.5,-0.5L0,-3.0L2.5,-0.5"/>
                </g>
                <g id="arrowDown" xlink:href="#dirArrow" transform="rotate(180) translate(-30 -48)" onmousedown="handlePan(0,1)">
                  <use xlink:href="#rim" fill="#404040">
                        <set attributeName="fill" to="#808080" begin="arrowDown.mouseover" end="arrowDown.mouseout"/>
                  </use>
                  <path fill="none" stroke="white" stroke-width="1.5" d="M0,-3.0v7 M-2.5,-0.5L0,-3.0L2.5,-0.5"/>
                </g>
                <g id="arrowLeft" xlink:href="#dirArrow" transform="rotate(270) translate(-36 17)" onmousedown="handlePan(-1,0)">
                  <use xlink:href="#rim" fill="#404040">
                        <set attributeName="fill" to="#808080" begin="arrowLeft.mouseover" end="arrowLeft.mouseout"/>
                  </use>
                  <path fill="none" stroke="white" stroke-width="1.5" d="M0,-3.0v7 M-2.5,-0.5L0,-3.0L2.5,-0.5"/>
                </g>
        </g>
        <svg viewBox="0 0 25 25" width="100%" height="30px" preserveAspectRatio="xMaxYMin meet"> 
          <g id="printButton" transform="scale(0.4 0.4)" onmousedown="handlePrint(evt)">
            <rect height="23.33753581" id="paper" rx="2" style="fill:#f2f5e9;fill-rule:evenodd;stroke:#111111;stroke-width:3.224;stroke-linejoin:round;" transform="matrix(1.000000,0.000000,-0.339266,0.940691,0.000000,0.000000)" width="25.55231285" x="26.69387353" y="7.36162977"/>
            <rect height="26.272097" id="body" rx="2" style="fill:#404040;fill-rule:evenodd;stroke:#111111;stroke-width:3.125;stroke-linejoin:round;" width="50" x="4.5295201" y="27.078951"/>
            <rect height="8.27750969" id="tray" style="fill:#d2d5c9;fill-rule:evenodd;stroke:#111111;stroke-width:3.125;stroke-linecap:round;stroke-linejoin:round;" width="40" x="10.28778839" y="44.96812282"/>
          </g>
        </svg>
</svg>
