<?xml version="1.0" encoding="UTF-8" standalone="no"?>
<!DOCTYPE svg PUBLIC "-//W3C//DTD SVG 1.1//EN"
 "http://www.w3.org/Graphics/SVG/1.1/DTD/svg11.dtd">
<!-- Generated by graphviz version 2.28.0 (20120217.0315)
 -->
<!-- Title: G Pages: 1 -->
<svg width="470pt" height="66pt"
 viewBox="0.00 0.00 470.00 66.00" xmlns="http://www.w3.org/2000/svg" xmlns:xlink="http://www.w3.org/1999/xlink">
<g id="graph1" class="graph" transform="scale(1 1) rotate(0) translate(4 62)">
<title>G</title>
<!-- Node1 -->
<g id="node1" class="node"><title>Node1</title>
<polygon fill="#bfbfbf" stroke="black" points="0.5,-19.5 0.5,-38.5 155.5,-38.5 155.5,-19.5 0.5,-19.5"/>
<text text-anchor="middle" x="78" y="-26.5" font-family="DejaVuSansMono" font-size="10.00">xmpp_stanza_set_ns_attr</text>
</g>
<!-- Node2 -->
<g id="node3" class="node"><title>Node2</title>
<a xlink:href="../../d1/d59/xmpp__stanza_8c.html#aff4b8f6e10ce1c351d2a5bc39f0e819f" target="_top" xlink:title="Convenience function to build a key for the attribute hash table.">
<polygon fill="none" stroke="black" points="228.5,-38.5 228.5,-57.5 293.5,-57.5 293.5,-38.5 228.5,-38.5"/>
<text text-anchor="middle" x="261" y="-45.5" font-family="DejaVuSansMono" font-size="10.00">make_key</text>
</a>
</g>
<!-- Node1&#45;&gt;Node2 -->
<g id="edge2" class="edge"><title>Node1&#45;&gt;Node2</title>
<path fill="none" stroke="midnightblue" d="M155.76,-37.0577C177.123,-39.3002 199.532,-41.6525 218.074,-43.5989"/>
<polygon fill="midnightblue" stroke="midnightblue" points="217.915,-47.1014 228.226,-44.6646 218.646,-40.1397 217.915,-47.1014"/>
</g>
<!-- Node3 -->
<g id="node5" class="node"><title>Node3</title>
<a xlink:href="../../d1/d59/xmpp__stanza_8c.html#a7ca8bf259143d7ff53b24de8b666026d" target="_top" xlink:title="Sets the value of an attribute in a stanza.">
<polygon fill="none" stroke="black" points="192.5,-0.5 192.5,-19.5 329.5,-19.5 329.5,-0.5 192.5,-0.5"/>
<text text-anchor="middle" x="261" y="-7.5" font-family="DejaVuSansMono" font-size="10.00">xmpp_stanza_set_attr</text>
</a>
</g>
<!-- Node1&#45;&gt;Node3 -->
<g id="edge4" class="edge"><title>Node1&#45;&gt;Node3</title>
<path fill="none" stroke="midnightblue" d="M155.76,-20.9423C164.486,-20.0263 173.386,-19.092 182.126,-18.1746"/>
<polygon fill="midnightblue" stroke="midnightblue" points="182.713,-21.6324 192.293,-17.1074 181.982,-14.6706 182.713,-21.6324"/>
</g>
<!-- Node4 -->
<g id="node7" class="node"><title>Node4</title>
<a xlink:href="../../d1/d59/xmpp__stanza_8c.html#a2fb472c6bf9b7f540a97ddc6c11adb74" target="_top" xlink:title="attribute_del">
<polygon fill="none" stroke="black" points="366.5,-0.5 366.5,-19.5 461.5,-19.5 461.5,-0.5 366.5,-0.5"/>
<text text-anchor="middle" x="414" y="-7.5" font-family="DejaVuSansMono" font-size="10.00">attribute_del</text>
</a>
</g>
<!-- Node3&#45;&gt;Node4 -->
<g id="edge6" class="edge"><title>Node3&#45;&gt;Node4</title>
<path fill="none" stroke="midnightblue" d="M329.55,-10C338.468,-10 347.535,-10 356.246,-10"/>
<polygon fill="midnightblue" stroke="midnightblue" points="356.279,-13.5001 366.279,-10 356.279,-6.5001 356.279,-13.5001"/>
</g>
</g>
</svg>
