<?xml version="1.0" encoding="UTF-8" standalone="no"?>
<!DOCTYPE svg PUBLIC "-//W3C//DTD SVG 1.1//EN"
 "http://www.w3.org/Graphics/SVG/1.1/DTD/svg11.dtd">
<!-- Generated by graphviz version 2.28.0 (20120217.0315)
 -->
<!-- Title: G Pages: 1 -->
<svg width="380pt" height="66pt"
 viewBox="0.00 0.00 380.00 66.00" xmlns="http://www.w3.org/2000/svg" xmlns:xlink="http://www.w3.org/1999/xlink">
<g id="graph1" class="graph" transform="scale(1 1) rotate(0) translate(4 62)">
<title>G</title>
<!-- Node1 -->
<g id="node1" class="node"><title>Node1</title>
<polygon fill="#bfbfbf" stroke="black" points="0.5,-19.5 0.5,-38.5 125.5,-38.5 125.5,-19.5 0.5,-19.5"/>
<text text-anchor="middle" x="63" y="-26.5" font-family="DejaVuSansMono" font-size="10.00">xmpp_stanza_ns_new</text>
</g>
<!-- Node2 -->
<g id="node3" class="node"><title>Node2</title>
<a xlink:href="../../d1/d59/xmpp__stanza_8c.html#aa80dd21d794b5c63fcb13c49745cc373" target="_top" xlink:title="Allocate and initialize a new XMPP stanza structure.">
<polygon fill="none" stroke="black" points="162.5,-19.5 162.5,-38.5 269.5,-38.5 269.5,-19.5 162.5,-19.5"/>
<text text-anchor="middle" x="216" y="-26.5" font-family="DejaVuSansMono" font-size="10.00">xmpp_stanza_new</text>
</a>
</g>
<!-- Node1&#45;&gt;Node2 -->
<g id="edge2" class="edge"><title>Node1&#45;&gt;Node2</title>
<path fill="none" stroke="midnightblue" d="M125.853,-29C134.517,-29 143.429,-29 152.112,-29"/>
<polygon fill="midnightblue" stroke="midnightblue" points="152.171,-32.5001 162.171,-29 152.171,-25.5001 152.171,-32.5001"/>
</g>
<!-- Node3 -->
<g id="node5" class="node"><title>Node3</title>
<a xlink:href="../../d1/d59/xmpp__stanza_8c.html#a5a80203f56df7a360fa457c0111686f6" target="_top" xlink:title="Parse the namespace triple that Expat gives us.">
<polygon fill="none" stroke="black" points="306.5,-38.5 306.5,-57.5 371.5,-57.5 371.5,-38.5 306.5,-38.5"/>
<text text-anchor="middle" x="339" y="-45.5" font-family="DejaVuSansMono" font-size="10.00">parse_ns</text>
</a>
</g>
<!-- Node2&#45;&gt;Node3 -->
<g id="edge4" class="edge"><title>Node2&#45;&gt;Node3</title>
<path fill="none" stroke="midnightblue" d="M269.72,-37.2784C278.595,-38.6719 287.696,-40.101 296.243,-41.4432"/>
<polygon fill="midnightblue" stroke="midnightblue" points="295.92,-44.9352 306.342,-43.0289 297.006,-38.02 295.92,-44.9352"/>
</g>
<!-- Node4 -->
<g id="node7" class="node"><title>Node4</title>
<a xlink:href="../../d1/d59/xmpp__stanza_8c.html#aff4b8f6e10ce1c351d2a5bc39f0e819f" target="_top" xlink:title="Convenience function to build a key for the attribute hash table.">
<polygon fill="none" stroke="black" points="306.5,-0.5 306.5,-19.5 371.5,-19.5 371.5,-0.5 306.5,-0.5"/>
<text text-anchor="middle" x="339" y="-7.5" font-family="DejaVuSansMono" font-size="10.00">make_key</text>
</a>
</g>
<!-- Node2&#45;&gt;Node4 -->
<g id="edge6" class="edge"><title>Node2&#45;&gt;Node4</title>
<path fill="none" stroke="midnightblue" d="M269.72,-20.7216C278.595,-19.3281 287.696,-17.899 296.243,-16.5568"/>
<polygon fill="midnightblue" stroke="midnightblue" points="297.006,-19.98 306.342,-14.9711 295.92,-13.0648 297.006,-19.98"/>
</g>
</g>
</svg>
