<?xml version="1.0" encoding="UTF-8" standalone="no"?>
<!DOCTYPE svg PUBLIC "-//W3C//DTD SVG 1.1//EN"
 "http://www.w3.org/Graphics/SVG/1.1/DTD/svg11.dtd">
<!-- Generated by graphviz version 2.28.0 (20120217.0315)
 -->
<!-- Title: G Pages: 1 -->
<!--zoomable 142 -->
<svg id="main" version="1.1" xmlns="http://www.w3.org/2000/svg" xmlns:xlink="http://www.w3.org/1999/xlink" xml:space="preserve" onload="init(evt)">
        <defs>
                <circle id="rim" cx="0" cy="0" r="7"/>
                <circle id="rim2" cx="0" cy="0" r="3.5"/>
                <g id="zoomPlus">
                        <use xlink:href="#rim" fill="#404040">
                                <set attributeName="fill" to="#808080" begin="zoomplus.mouseover" end="zoomplus.mouseout"/>
                        </use>
                        <path d="M-4,0h8M0,-4v8" fill="none" stroke="white" stroke-width="1.5" pointer-events="none"/>
                </g>
                <g id="zoomMin">
                        <use xlink:href="#rim" fill="#404040">
                                <set attributeName="fill" to="#808080" begin="zoomminus.mouseover" end="zoomminus.mouseout"/>
                        </use>
                        <path d="M-4,0h8" fill="none" stroke="white" stroke-width="1.5" pointer-events="none"/>
                </g>
                <g id="dirArrow">
                        <path fill="none" stroke="white" stroke-width="1.5" d="M0,-3.0v7 M-2.5,-0.5L0,-3.0L2.5,-0.5"/>
                </g>
               <g id="resetDef">
                       <use xlink:href="#rim2" fill="#404040">
                               <set attributeName="fill" to="#808080" begin="reset.mouseover" end="reset.mouseout"/>
                       </use>
               </g>
        </defs>

<script type="text/javascript">
var viewWidth = 1208;
var viewHeight = 142;
var sectionId = 'dynsection-4';
</script>
<script xlink:href="../../svgpan.js"/>
<svg id="graph" class="graph">
<g id="viewport">
<title>G</title>
<!-- Node1 -->
<g id="node1" class="node"><title>Node1</title>
<polygon fill="#bfbfbf" stroke="black" points="0.5,-57.5 0.5,-76.5 155.5,-76.5 155.5,-57.5 0.5,-57.5"/>
<text text-anchor="middle" x="78" y="-64.5" font-family="DejaVuSansMono" font-size="10.00">xmpp_stanza_append_data</text>
</g>
<!-- Node2 -->
<g id="node3" class="node"><title>Node2</title>
<a xlink:href="../../d1/dc2/xmpp__parser_8c.html#a78918dc72ccbf110d41d34080ebbf014" target="_top" xlink:title="Expat callback for XML data.">
<polygon fill="none" stroke="black" points="192.5,-57.5 192.5,-76.5 257.5,-76.5 257.5,-57.5 192.5,-57.5"/>
<text text-anchor="middle" x="225" y="-64.5" font-family="DejaVuSansMono" font-size="10.00">chardata</text>
</a>
</g>
<!-- Node1&#45;&gt;Node2 -->
<g id="edge2" class="edge"><title>Node1&#45;&gt;Node2</title>
<path fill="none" stroke="midnightblue" d="M165.962,-67C175.285,-67 184.276,-67 192.283,-67"/>
<polygon fill="midnightblue" stroke="midnightblue" points="165.746,-63.5001 155.746,-67 165.746,-70.5001 165.746,-63.5001"/>
</g>
<!-- Node3 -->
<g id="node5" class="node"><title>Node3</title>
<a xlink:href="../../d1/dc2/xmpp__parser_8c.html#a03a135f29e3d4e01abbb60e53ac6967c" target="_top" xlink:title="init_parser">
<polygon fill="none" stroke="black" points="294.5,-57.5 294.5,-76.5 377.5,-76.5 377.5,-57.5 294.5,-57.5"/>
<text text-anchor="middle" x="336" y="-64.5" font-family="DejaVuSansMono" font-size="10.00">init_parser</text>
</a>
</g>
<!-- Node2&#45;&gt;Node3 -->
<g id="edge4" class="edge"><title>Node2&#45;&gt;Node3</title>
<path fill="none" stroke="midnightblue" d="M267.802,-67C276.461,-67 285.574,-67 294.197,-67"/>
<polygon fill="midnightblue" stroke="midnightblue" points="267.527,-63.5001 257.527,-67 267.527,-70.5001 267.527,-63.5001"/>
</g>
<!-- Node4 -->
<g id="node7" class="node"><title>Node4</title>
<a xlink:href="../../d8/d55/xmpp__parser_8h.html#adf25a1d2047994dfa6cc71a9482548c2" target="_top" xlink:title="xmpp_parser_new">
<polygon fill="none" stroke="black" points="420.5,-76.5 420.5,-95.5 527.5,-95.5 527.5,-76.5 420.5,-76.5"/>
<text text-anchor="middle" x="474" y="-83.5" font-family="DejaVuSansMono" font-size="10.00">xmpp_parser_new</text>
</a>
</g>
<!-- Node3&#45;&gt;Node4 -->
<g id="edge6" class="edge"><title>Node3&#45;&gt;Node4</title>
<path fill="none" stroke="midnightblue" d="M387.724,-74.0865C398.3,-75.564 409.473,-77.1249 420.124,-78.6129"/>
<polygon fill="midnightblue" stroke="midnightblue" points="388.193,-70.618 377.804,-72.7006 387.224,-77.5507 388.193,-70.618"/>
</g>
<!-- Node10 -->
<g id="node19" class="node"><title>Node10</title>
<a xlink:href="../../d8/d55/xmpp__parser_8h.html#af5e1eb5bbef0496c3543bd35113766ac" target="_top" xlink:title="Reset the state of the parser as if it was just created.">
<polygon fill="none" stroke="black" points="414.5,-38.5 414.5,-57.5 533.5,-57.5 533.5,-38.5 414.5,-38.5"/>
<text text-anchor="middle" x="474" y="-45.5" font-family="DejaVuSansMono" font-size="10.00">xmpp_parser_reset</text>
</a>
</g>
<!-- Node3&#45;&gt;Node10 -->
<g id="edge18" class="edge"><title>Node3&#45;&gt;Node10</title>
<path fill="none" stroke="midnightblue" d="M387.767,-59.9076C396.441,-58.6957 405.517,-57.4278 414.376,-56.1902"/>
<polygon fill="midnightblue" stroke="midnightblue" points="387.224,-56.4493 377.804,-61.2994 388.193,-63.382 387.224,-56.4493"/>
</g>
<!-- Node5 -->
<g id="node9" class="node"><title>Node5</title>
<a xlink:href="../../d6/d78/xmp3__multicast_8c.html#a08afc39c59ec9297d756a99c395eff3c" target="_top" xlink:title="multicast_new">
<polygon fill="none" stroke="black" points="582.5,-114.5 582.5,-133.5 677.5,-133.5 677.5,-114.5 582.5,-114.5"/>
<text text-anchor="middle" x="630" y="-121.5" font-family="DejaVuSansMono" font-size="10.00">multicast_new</text>
</a>
</g>
<!-- Node4&#45;&gt;Node5 -->
<g id="edge8" class="edge"><title>Node4&#45;&gt;Node5</title>
<path fill="none" stroke="midnightblue" d="M523.794,-98.04C545.308,-103.349 570.232,-109.499 590.419,-114.48"/>
<polygon fill="midnightblue" stroke="midnightblue" points="524.408,-94.5867 513.861,-95.589 522.731,-101.383 524.408,-94.5867"/>
</g>
<!-- Node6 -->
<g id="node11" class="node"><title>Node6</title>
<a xlink:href="../../d4/d2f/xmpp__client_8h.html#a1619c0b8f58b2cf09a322bf34fbc3414" target="_top" xlink:title="xmpp_client_new">
<polygon fill="none" stroke="black" points="726.5,-76.5 726.5,-95.5 833.5,-95.5 833.5,-76.5 726.5,-76.5"/>
<text text-anchor="middle" x="780" y="-83.5" font-family="DejaVuSansMono" font-size="10.00">xmpp_client_new</text>
</a>
</g>
<!-- Node4&#45;&gt;Node6 -->
<g id="edge10" class="edge"><title>Node4&#45;&gt;Node6</title>
<path fill="none" stroke="midnightblue" d="M537.702,-86C593.384,-86 673.838,-86 726.275,-86"/>
<polygon fill="midnightblue" stroke="midnightblue" points="537.606,-82.5001 527.606,-86 537.606,-89.5001 537.606,-82.5001"/>
</g>
<!-- Node7 -->
<g id="node13" class="node"><title>Node7</title>
<a xlink:href="../../d0/df0/xmpp__server_8c.html#a66363912ef1221a2574f9f99805fe8fd" target="_top" xlink:title="Callback for new client connections.">
<polygon fill="none" stroke="black" points="873.5,-57.5 873.5,-76.5 974.5,-76.5 974.5,-57.5 873.5,-57.5"/>
<text text-anchor="middle" x="924" y="-64.5" font-family="DejaVuSansMono" font-size="10.00">connect_client</text>
</a>
</g>
<!-- Node6&#45;&gt;Node7 -->
<g id="edge12" class="edge"><title>Node6&#45;&gt;Node7</title>
<path fill="none" stroke="midnightblue" d="M844.017,-77.5682C853.851,-76.2523 863.892,-74.9088 873.373,-73.6403"/>
<polygon fill="midnightblue" stroke="midnightblue" points="843.323,-74.1297 833.876,-78.9251 844.251,-81.0679 843.323,-74.1297"/>
</g>
<!-- Node8 -->
<g id="node15" class="node"><title>Node8</title>
<a xlink:href="../../d1/d2e/xmpp__server_8h.html#a27bfc8e4d424a8bc17ab21a4a09cdf92" target="_top" xlink:title="Allocates and initializes the XMPP server.">
<polygon fill="none" stroke="black" points="1014.5,-57.5 1014.5,-76.5 1121.5,-76.5 1121.5,-57.5 1014.5,-57.5"/>
<text text-anchor="middle" x="1068" y="-64.5" font-family="DejaVuSansMono" font-size="10.00">xmpp_server_new</text>
</a>
</g>
<!-- Node7&#45;&gt;Node8 -->
<g id="edge14" class="edge"><title>Node7&#45;&gt;Node8</title>
<path fill="none" stroke="midnightblue" d="M984.733,-67C994.527,-67 1004.62,-67 1014.23,-67"/>
<polygon fill="midnightblue" stroke="midnightblue" points="984.665,-63.5001 974.665,-67 984.665,-70.5001 984.665,-63.5001"/>
</g>
<!-- Node9 -->
<g id="node17" class="node"><title>Node9</title>
<a xlink:href="../../d0/d29/main_8c.html#a0ddf1224851353fc92bfbff6f499fa97" target="_top" xlink:title="main">
<polygon fill="none" stroke="black" points="1158.5,-57.5 1158.5,-76.5 1199.5,-76.5 1199.5,-57.5 1158.5,-57.5"/>
<text text-anchor="middle" x="1179" y="-64.5" font-family="DejaVuSansMono" font-size="10.00">main</text>
</a>
</g>
<!-- Node8&#45;&gt;Node9 -->
<g id="edge16" class="edge"><title>Node8&#45;&gt;Node9</title>
<path fill="none" stroke="midnightblue" d="M1131.75,-67C1141.43,-67 1150.76,-67 1158.47,-67"/>
<polygon fill="midnightblue" stroke="midnightblue" points="1131.58,-63.5001 1121.58,-67 1131.58,-70.5001 1131.58,-63.5001"/>
</g>
<!-- Node11 -->
<g id="node21" class="node"><title>Node11</title>
<a xlink:href="../../d6/d78/xmp3__multicast_8c.html#a9865e8026fb8ee000629fc1da465716d" target="_top" xlink:title="socket_handler">
<polygon fill="none" stroke="black" points="729.5,-0.5 729.5,-19.5 830.5,-19.5 830.5,-0.5 729.5,-0.5"/>
<text text-anchor="middle" x="780" y="-7.5" font-family="DejaVuSansMono" font-size="10.00">socket_handler</text>
</a>
</g>
<!-- Node10&#45;&gt;Node11 -->
<g id="edge20" class="edge"><title>Node10&#45;&gt;Node11</title>
<path fill="none" stroke="midnightblue" d="M528.047,-36.3507C541.671,-33.6455 556.338,-30.9815 570,-29 624.266,-21.1297 686.961,-15.9465 729.419,-13.011"/>
<polygon fill="midnightblue" stroke="midnightblue" points="526.971,-32.9977 517.867,-38.4167 528.363,-39.8578 526.971,-32.9977"/>
</g>
<!-- Node13 -->
<g id="node25" class="node"><title>Node13</title>
<a xlink:href="../../d8/d55/xmpp__parser_8h.html#a578b7a9a50212eb204a86789001287af" target="_top" xlink:title="xmpp_parser_parse">
<polygon fill="none" stroke="black" points="570.5,-38.5 570.5,-57.5 689.5,-57.5 689.5,-38.5 570.5,-38.5"/>
<text text-anchor="middle" x="630" y="-45.5" font-family="DejaVuSansMono" font-size="10.00">xmpp_parser_parse</text>
</a>
</g>
<!-- Node10&#45;&gt;Node13 -->
<g id="edge24" class="edge"><title>Node10&#45;&gt;Node13</title>
<path fill="none" stroke="midnightblue" d="M543.894,-48C552.691,-48 561.631,-48 570.248,-48"/>
<polygon fill="midnightblue" stroke="midnightblue" points="543.66,-44.5001 533.66,-48 543.66,-51.5001 543.66,-44.5001"/>
</g>
<!-- Node12 -->
<g id="node23" class="node"><title>Node12</title>
<a xlink:href="../../d6/d78/xmp3__multicast_8c.html#a991c928ab73b350c4b7029352e91a219" target="_top" xlink:title="multicast_start">
<polygon fill="none" stroke="black" points="870.5,-0.5 870.5,-19.5 977.5,-19.5 977.5,-0.5 870.5,-0.5"/>
<text text-anchor="middle" x="924" y="-7.5" font-family="DejaVuSansMono" font-size="10.00">multicast_start</text>
</a>
</g>
<!-- Node11&#45;&gt;Node12 -->
<g id="edge22" class="edge"><title>Node11&#45;&gt;Node12</title>
<path fill="none" stroke="midnightblue" d="M840.733,-10C850.527,-10 860.615,-10 870.225,-10"/>
<polygon fill="midnightblue" stroke="midnightblue" points="840.665,-6.5001 830.665,-10 840.665,-13.5001 840.665,-6.5001"/>
</g>
<!-- Node13&#45;&gt;Node11 -->
<g id="edge26" class="edge"><title>Node13&#45;&gt;Node11</title>
<path fill="none" stroke="midnightblue" d="M678.173,-35.8879C698.786,-30.5956 722.609,-24.4787 741.922,-19.5201"/>
<polygon fill="midnightblue" stroke="midnightblue" points="677.162,-32.534 668.347,-38.411 678.903,-39.3141 677.162,-32.534"/>
</g>
<!-- Node14 -->
<g id="node28" class="node"><title>Node14</title>
<a xlink:href="../../d0/df0/xmpp__server_8c.html#abece91815ef240322d79073f5bfca1db" target="_top" xlink:title="Callback for new data from a client.">
<polygon fill="none" stroke="black" points="738.5,-38.5 738.5,-57.5 821.5,-57.5 821.5,-38.5 738.5,-38.5"/>
<text text-anchor="middle" x="780" y="-45.5" font-family="DejaVuSansMono" font-size="10.00">read_client</text>
</a>
</g>
<!-- Node13&#45;&gt;Node14 -->
<g id="edge28" class="edge"><title>Node13&#45;&gt;Node14</title>
<path fill="none" stroke="midnightblue" d="M699.939,-48C713.135,-48 726.546,-48 738.483,-48"/>
<polygon fill="midnightblue" stroke="midnightblue" points="699.919,-44.5001 689.919,-48 699.919,-51.5001 699.919,-44.5001"/>
</g>
<!-- Node14&#45;&gt;Node7 -->
<g id="edge30" class="edge"><title>Node14&#45;&gt;Node7</title>
<path fill="none" stroke="midnightblue" d="M831.812,-54.7988C845.367,-56.6125 859.993,-58.5695 873.478,-60.3738"/>
<polygon fill="midnightblue" stroke="midnightblue" points="832.067,-51.3018 821.692,-53.4446 831.139,-58.24 832.067,-51.3018"/>
</g>
</g>
</svg>
        <g id="navigator" transform="translate(0 0)" fill="#404254">
                <rect fill="#f2f5e9" fill-opacity="0.5" stroke="#606060" stroke-width=".5" x="0" y="0" width="60" height="60"/>
                <use id="zoomplus" xlink:href="#zoomPlus" x="17" y="9" onmousedown="handleZoom(evt,'in')"/>
                <use id="zoomminus" xlink:href="#zoomMin" x="42" y="9" onmousedown="handleZoom(evt,'out')"/>
                <use id="reset" xlink:href="#resetDef" x="30" y="36" onmousedown="handleReset()"/>
                <g id="arrowUp" xlink:href="#dirArrow" transform="translate(30 24)" onmousedown="handlePan(0,-1)">
                  <use xlink:href="#rim" fill="#404040">
                        <set attributeName="fill" to="#808080" begin="arrowUp.mouseover" end="arrowUp.mouseout"/>
                  </use>
                  <path fill="none" stroke="white" stroke-width="1.5" d="M0,-3.0v7 M-2.5,-0.5L0,-3.0L2.5,-0.5"/>
                </g>
                <g id="arrowRight" xlink:href="#dirArrow" transform="rotate(90) translate(36 -43)" onmousedown="handlePan(1,0)">
                  <use xlink:href="#rim" fill="#404040">
                        <set attributeName="fill" to="#808080" begin="arrowRight.mouseover" end="arrowRight.mouseout"/>
                  </use>
                  <path fill="none" stroke="white" stroke-width="1.5" d="M0,-3.0v7 M-2.5,-0.5L0,-3.0L2.5,-0.5"/>
                </g>
                <g id="arrowDown" xlink:href="#dirArrow" transform="rotate(180) translate(-30 -48)" onmousedown="handlePan(0,1)">
                  <use xlink:href="#rim" fill="#404040">
                        <set attributeName="fill" to="#808080" begin="arrowDown.mouseover" end="arrowDown.mouseout"/>
                  </use>
                  <path fill="none" stroke="white" stroke-width="1.5" d="M0,-3.0v7 M-2.5,-0.5L0,-3.0L2.5,-0.5"/>
                </g>
                <g id="arrowLeft" xlink:href="#dirArrow" transform="rotate(270) translate(-36 17)" onmousedown="handlePan(-1,0)">
                  <use xlink:href="#rim" fill="#404040">
                        <set attributeName="fill" to="#808080" begin="arrowLeft.mouseover" end="arrowLeft.mouseout"/>
                  </use>
                  <path fill="none" stroke="white" stroke-width="1.5" d="M0,-3.0v7 M-2.5,-0.5L0,-3.0L2.5,-0.5"/>
                </g>
        </g>
        <svg viewBox="0 0 25 25" width="100%" height="30px" preserveAspectRatio="xMaxYMin meet"> 
          <g id="printButton" transform="scale(0.4 0.4)" onmousedown="handlePrint(evt)">
            <rect height="23.33753581" id="paper" rx="2" style="fill:#f2f5e9;fill-rule:evenodd;stroke:#111111;stroke-width:3.224;stroke-linejoin:round;" transform="matrix(1.000000,0.000000,-0.339266,0.940691,0.000000,0.000000)" width="25.55231285" x="26.69387353" y="7.36162977"/>
            <rect height="26.272097" id="body" rx="2" style="fill:#404040;fill-rule:evenodd;stroke:#111111;stroke-width:3.125;stroke-linejoin:round;" width="50" x="4.5295201" y="27.078951"/>
            <rect height="8.27750969" id="tray" style="fill:#d2d5c9;fill-rule:evenodd;stroke:#111111;stroke-width:3.125;stroke-linecap:round;stroke-linejoin:round;" width="40" x="10.28778839" y="44.96812282"/>
          </g>
        </svg>
</svg>
