<?xml version="1.0" encoding="UTF-8" standalone="no"?>
<!DOCTYPE svg PUBLIC "-//W3C//DTD SVG 1.1//EN"
 "http://www.w3.org/Graphics/SVG/1.1/DTD/svg11.dtd">
<!-- Generated by graphviz version 2.28.0 (20120217.0315)
 -->
<!-- Title: G Pages: 1 -->
<!--zoomable 465 -->
<svg id="main" version="1.1" xmlns="http://www.w3.org/2000/svg" xmlns:xlink="http://www.w3.org/1999/xlink" xml:space="preserve" onload="init(evt)">
        <defs>
                <circle id="rim" cx="0" cy="0" r="7"/>
                <circle id="rim2" cx="0" cy="0" r="3.5"/>
                <g id="zoomPlus">
                        <use xlink:href="#rim" fill="#404040">
                                <set attributeName="fill" to="#808080" begin="zoomplus.mouseover" end="zoomplus.mouseout"/>
                        </use>
                        <path d="M-4,0h8M0,-4v8" fill="none" stroke="white" stroke-width="1.5" pointer-events="none"/>
                </g>
                <g id="zoomMin">
                        <use xlink:href="#rim" fill="#404040">
                                <set attributeName="fill" to="#808080" begin="zoomminus.mouseover" end="zoomminus.mouseout"/>
                        </use>
                        <path d="M-4,0h8" fill="none" stroke="white" stroke-width="1.5" pointer-events="none"/>
                </g>
                <g id="dirArrow">
                        <path fill="none" stroke="white" stroke-width="1.5" d="M0,-3.0v7 M-2.5,-0.5L0,-3.0L2.5,-0.5"/>
                </g>
               <g id="resetDef">
                       <use xlink:href="#rim2" fill="#404040">
                               <set attributeName="fill" to="#808080" begin="reset.mouseover" end="reset.mouseout"/>
                       </use>
               </g>
        </defs>

<script type="text/javascript">
var viewWidth = 1394;
var viewHeight = 465;
var sectionId = 'dynsection-16';
</script>
<script xlink:href="../../svgpan.js"/>
<svg id="graph" class="graph">
<g id="viewport">
<title>G</title>
<!-- Node1 -->
<g id="node1" class="node"><title>Node1</title>
<polygon fill="#bfbfbf" stroke="black" points="0.5,-209.5 0.5,-228.5 107.5,-228.5 107.5,-209.5 0.5,-209.5"/>
<text text-anchor="middle" x="54" y="-216.5" font-family="DejaVuSansMono" font-size="10.00">xmpp_stanza_del</text>
</g>
<!-- Node1&#45;&gt;Node1 -->
<g id="edge98" class="edge"><title>Node1&#45;&gt;Node1</title>
<path fill="none" stroke="midnightblue" d="M25.6275,-237.654C26.8135,-242.937 36.271,-247 54,-247 81.0156,-247 88.8248,-237.565 77.4276,-228.757"/>
<polygon fill="midnightblue" stroke="midnightblue" points="28.7735,-239.198 30.5724,-228.757 22.6551,-235.797 28.7735,-239.198"/>
</g>
<!-- Node2 -->
<g id="node3" class="node"><title>Node2</title>
<a xlink:href="../../d7/d71/xep__muc_8c.html#af88baacca4f1cccf8ec2bc295db0e063" target="_top" xlink:title="leave_room">
<polygon fill="none" stroke="black" points="168.5,-418.5 168.5,-437.5 245.5,-437.5 245.5,-418.5 168.5,-418.5"/>
<text text-anchor="middle" x="207" y="-425.5" font-family="DejaVuSansMono" font-size="10.00">leave_room</text>
</a>
</g>
<!-- Node1&#45;&gt;Node2 -->
<g id="edge2" class="edge"><title>Node1&#45;&gt;Node2</title>
<path fill="none" stroke="midnightblue" d="M59.333,-238.598C68.5389,-275.849 93.467,-357.312 144,-404 150.867,-410.344 159.595,-415.077 168.32,-418.582"/>
<polygon fill="midnightblue" stroke="midnightblue" points="62.6653,-237.478 56.9699,-228.545 55.851,-239.08 62.6653,-237.478"/>
</g>
<!-- Node10 -->
<g id="node20" class="node"><title>Node10</title>
<a xlink:href="../../d7/d71/xep__muc_8c.html#a4b26d057ea25fe1b3c99edff73a82d78" target="_top" xlink:title="handle_items_query">
<polygon fill="none" stroke="black" points="144.5,-304.5 144.5,-323.5 269.5,-323.5 269.5,-304.5 144.5,-304.5"/>
<text text-anchor="middle" x="207" y="-311.5" font-family="DejaVuSansMono" font-size="10.00">handle_items_query</text>
</a>
</g>
<!-- Node1&#45;&gt;Node10 -->
<g id="edge20" class="edge"><title>Node1&#45;&gt;Node10</title>
<path fill="none" stroke="midnightblue" d="M70.9179,-236.221C87.6184,-253.352 115.377,-279.286 144,-295 150.908,-298.792 158.674,-301.932 166.312,-304.491"/>
<polygon fill="midnightblue" stroke="midnightblue" points="73.0867,-233.424 63.6526,-228.602 68.0207,-238.255 73.0867,-233.424"/>
</g>
<!-- Node12 -->
<g id="node25" class="node"><title>Node12</title>
<a xlink:href="../../d7/d71/xep__muc_8c.html#a20d9ff75edcc76b952adf38d558fee26" target="_top" xlink:title="handle_info_query">
<polygon fill="none" stroke="black" points="147.5,-266.5 147.5,-285.5 266.5,-285.5 266.5,-266.5 147.5,-266.5"/>
<text text-anchor="middle" x="207" y="-273.5" font-family="DejaVuSansMono" font-size="10.00">handle_info_query</text>
</a>
</g>
<!-- Node1&#45;&gt;Node12 -->
<g id="edge26" class="edge"><title>Node1&#45;&gt;Node12</title>
<path fill="none" stroke="midnightblue" d="M89.9763,-232.203C117.702,-242.669 155.789,-257.046 180.644,-266.428"/>
<polygon fill="midnightblue" stroke="midnightblue" points="90.8657,-228.798 80.274,-228.541 88.3936,-235.347 90.8657,-228.798"/>
</g>
<!-- Node13 -->
<g id="node28" class="node"><title>Node13</title>
<a xlink:href="../../d7/d71/xep__muc_8c.html#a8333f88612fa054ae107699f5bb548cc" target="_top" xlink:title="send_nickname_conflict">
<polygon fill="none" stroke="black" points="312.5,-380.5 312.5,-399.5 461.5,-399.5 461.5,-380.5 312.5,-380.5"/>
<text text-anchor="middle" x="387" y="-387.5" font-family="DejaVuSansMono" font-size="10.00">send_nickname_conflict</text>
</a>
</g>
<!-- Node1&#45;&gt;Node13 -->
<g id="edge30" class="edge"><title>Node1&#45;&gt;Node13</title>
<path fill="none" stroke="midnightblue" d="M61.0615,-238.513C72.006,-270.15 98.2815,-332.011 144,-361 193.852,-392.61 261.232,-398.381 312.235,-397.088"/>
<polygon fill="midnightblue" stroke="midnightblue" points="64.2773,-237.088 57.823,-228.687 57.6291,-239.28 64.2773,-237.088"/>
</g>
<!-- Node14 -->
<g id="node31" class="node"><title>Node14</title>
<a xlink:href="../../d7/d71/xep__muc_8c.html#a115281f539cd77f88872ff153ec5b38d" target="_top" xlink:title="send_presence_broadcast">
<polygon fill="none" stroke="black" points="309.5,-342.5 309.5,-361.5 464.5,-361.5 464.5,-342.5 309.5,-342.5"/>
<text text-anchor="middle" x="387" y="-349.5" font-family="DejaVuSansMono" font-size="10.00">send_presence_broadcast</text>
</a>
</g>
<!-- Node1&#45;&gt;Node14 -->
<g id="edge34" class="edge"><title>Node1&#45;&gt;Node14</title>
<path fill="none" stroke="midnightblue" d="M63.5204,-237.868C76.6063,-264.354 104.364,-311.698 144,-333 194.393,-360.083 259.39,-363.786 309.332,-361.289"/>
<polygon fill="midnightblue" stroke="midnightblue" points="66.5401,-236.067 59.0914,-228.533 60.2158,-239.068 66.5401,-236.067"/>
</g>
<!-- Node15 -->
<g id="node34" class="node"><title>Node15</title>
<a xlink:href="../../d9/dd7/xmpp__im_8h.html#aee8f65a08bdaf68accfdcee40ed1488d" target="_top" xlink:title="IQ stanza callback for handling a session IQ.">
<polygon fill="none" stroke="black" points="873.5,-76.5 873.5,-95.5 998.5,-95.5 998.5,-76.5 873.5,-76.5"/>
<text text-anchor="middle" x="936" y="-83.5" font-family="DejaVuSansMono" font-size="10.00">xmpp_im_iq_session</text>
</a>
</g>
<!-- Node1&#45;&gt;Node15 -->
<g id="edge38" class="edge"><title>Node1&#45;&gt;Node15</title>
<path fill="none" stroke="midnightblue" d="M63.5204,-200.132C76.6063,-173.646 104.364,-126.302 144,-105 239.032,-53.9269 278.113,-86 386,-86 386,-86 386,-86 574,-86 679.135,-86 801.493,-86 873.359,-86"/>
<polygon fill="midnightblue" stroke="midnightblue" points="60.2158,-198.932 59.0914,-209.467 66.5401,-201.933 60.2158,-198.932"/>
</g>
<!-- Node18 -->
<g id="node40" class="node"><title>Node18</title>
<a xlink:href="../../d9/dd7/xmpp__im_8h.html#a7542fa668dcf982bb5d3725c5cacb0ca" target="_top" xlink:title="IQ stanza callback for handling a disco items query.">
<polygon fill="none" stroke="black" points="678.5,-38.5 678.5,-57.5 827.5,-57.5 827.5,-38.5 678.5,-38.5"/>
<text text-anchor="middle" x="753" y="-45.5" font-family="DejaVuSansMono" font-size="10.00">xmpp_im_iq_disco_items</text>
</a>
</g>
<!-- Node1&#45;&gt;Node18 -->
<g id="edge44" class="edge"><title>Node1&#45;&gt;Node18</title>
<path fill="none" stroke="midnightblue" d="M60.3133,-199.307C70.3983,-166.257 95.7484,-100.461 144,-72 232.373,-19.8738 536.696,-33.0349 678.366,-42.417"/>
<polygon fill="midnightblue" stroke="midnightblue" points="56.8803,-198.579 57.4674,-209.158 63.6053,-200.522 56.8803,-198.579"/>
</g>
<!-- Node19 -->
<g id="node43" class="node"><title>Node19</title>
<a xlink:href="../../d9/dd7/xmpp__im_8h.html#a93be77ae71bc544a1c23fae07f39fd23" target="_top" xlink:title="IQ stanza callback for handling a disco info query.">
<polygon fill="none" stroke="black" points="864.5,-0.5 864.5,-19.5 1007.5,-19.5 1007.5,-0.5 864.5,-0.5"/>
<text text-anchor="middle" x="936" y="-7.5" font-family="DejaVuSansMono" font-size="10.00">xmpp_im_iq_disco_info</text>
</a>
</g>
<!-- Node1&#45;&gt;Node19 -->
<g id="edge48" class="edge"><title>Node1&#45;&gt;Node19</title>
<path fill="none" stroke="midnightblue" d="M58.3726,-199.148C66.0181,-160.862 88.5123,-77.1539 144,-38 232.466,24.4244 277.727,-10 386,-10 386,-10 386,-10 574,-10 674.905,-10 791.674,-10 864.443,-10"/>
<polygon fill="midnightblue" stroke="midnightblue" points="54.8402,-199.001 56.4565,-209.472 61.7227,-200.278 54.8402,-199.001"/>
</g>
<!-- Node20 -->
<g id="node46" class="node"><title>Node20</title>
<a xlink:href="../../dc/da6/xmpp__im_8c.html#af5cf3adac08463b9b6029c8814e4f972" target="_top" xlink:title="get_roster">
<polygon fill="none" stroke="black" points="534.5,-294.5 534.5,-313.5 611.5,-313.5 611.5,-294.5 534.5,-294.5"/>
<text text-anchor="middle" x="573" y="-301.5" font-family="DejaVuSansMono" font-size="10.00">get_roster</text>
</a>
</g>
<!-- Node1&#45;&gt;Node20 -->
<g id="edge52" class="edge"><title>Node1&#45;&gt;Node20</title>
<path fill="none" stroke="midnightblue" d="M118.068,-229.369C226.817,-247.248 446.394,-283.349 534.331,-297.807"/>
<polygon fill="midnightblue" stroke="midnightblue" points="118.334,-225.866 107.898,-227.697 117.198,-232.773 118.334,-225.866"/>
</g>
<!-- Node22 -->
<g id="node51" class="node"><title>Node22</title>
<a xlink:href="../../d1/dc2/xmpp__parser_8c.html#a2268b636f6d02bbe04f3033ff93d829c" target="_top" xlink:title="Expat callback for the start of an XMPP stream.">
<polygon fill="none" stroke="black" points="162.5,-114.5 162.5,-133.5 251.5,-133.5 251.5,-114.5 162.5,-114.5"/>
<text text-anchor="middle" x="207" y="-121.5" font-family="DejaVuSansMono" font-size="10.00">stream_start</text>
</a>
</g>
<!-- Node1&#45;&gt;Node22 -->
<g id="edge58" class="edge"><title>Node1&#45;&gt;Node22</title>
<path fill="none" stroke="midnightblue" d="M70.9179,-201.779C87.6184,-184.648 115.377,-158.714 144,-143 150.908,-139.208 158.674,-136.068 166.312,-133.509"/>
<polygon fill="midnightblue" stroke="midnightblue" points="68.0207,-199.745 63.6526,-209.398 73.0867,-204.576 68.0207,-199.745"/>
</g>
<!-- Node33 -->
<g id="node76" class="node"><title>Node33</title>
<a xlink:href="../../d1/dc2/xmpp__parser_8c.html#adc3f7670edafd5b590af11d276887f1e" target="_top" xlink:title="Expat callback for end elements.">
<polygon fill="none" stroke="black" points="189.5,-152.5 189.5,-171.5 224.5,-171.5 224.5,-152.5 189.5,-152.5"/>
<text text-anchor="middle" x="207" y="-159.5" font-family="DejaVuSansMono" font-size="10.00">end</text>
</a>
</g>
<!-- Node1&#45;&gt;Node33 -->
<g id="edge86" class="edge"><title>Node1&#45;&gt;Node33</title>
<path fill="none" stroke="midnightblue" d="M89.8708,-205.837C120.978,-194.094 165.19,-177.405 189.091,-168.383"/>
<polygon fill="midnightblue" stroke="midnightblue" points="88.3936,-202.653 80.274,-209.459 90.8657,-209.202 88.3936,-202.653"/>
</g>
<!-- Node34 -->
<g id="node79" class="node"><title>Node34</title>
<a xlink:href="../../d0/df0/xmpp__server_8c.html#a3b400cb24e5bc51623f63c96c8a0a342" target="_top" xlink:title="Sends a &lt;service&#45;unavailable&gt; error stanza to a client.">
<polygon fill="none" stroke="black" points="306.5,-190.5 306.5,-209.5 467.5,-209.5 467.5,-190.5 306.5,-190.5"/>
<text text-anchor="middle" x="387" y="-197.5" font-family="DejaVuSansMono" font-size="10.00">send_service_unavailable</text>
</a>
</g>
<!-- Node1&#45;&gt;Node34 -->
<g id="edge90" class="edge"><title>Node1&#45;&gt;Node34</title>
<path fill="none" stroke="midnightblue" d="M117.845,-215.393C171.308,-212.324 248.392,-207.899 306.205,-204.58"/>
<polygon fill="midnightblue" stroke="midnightblue" points="117.597,-211.901 107.814,-215.968 117.998,-218.889 117.597,-211.901"/>
</g>
<!-- Node3 -->
<g id="node5" class="node"><title>Node3</title>
<a xlink:href="../../d7/d71/xep__muc_8c.html#a40cdc65e1b60c76aef97dfc9d3f2510f" target="_top" xlink:title="leave_room_presence">
<polygon fill="none" stroke="black" points="507.5,-437.5 507.5,-456.5 638.5,-456.5 638.5,-437.5 507.5,-437.5"/>
<text text-anchor="middle" x="573" y="-444.5" font-family="DejaVuSansMono" font-size="10.00">leave_room_presence</text>
</a>
</g>
<!-- Node2&#45;&gt;Node3 -->
<g id="edge4" class="edge"><title>Node2&#45;&gt;Node3</title>
<path fill="none" stroke="midnightblue" d="M256.005,-439.209C271.832,-442.394 289.584,-445.423 306,-447 374.494,-453.578 453.367,-452.499 507.334,-450.448"/>
<polygon fill="midnightblue" stroke="midnightblue" points="256.419,-435.72 245.916,-437.108 254.992,-442.573 256.419,-435.72"/>
</g>
<!-- Node8 -->
<g id="node15" class="node"><title>Node8</title>
<a xlink:href="../../d7/d71/xep__muc_8c.html#a0214cd898b2f0c746cb45f79746e5095" target="_top" xlink:title="client_disconnect">
<polygon fill="none" stroke="black" points="327.5,-418.5 327.5,-437.5 446.5,-437.5 446.5,-418.5 327.5,-418.5"/>
<text text-anchor="middle" x="387" y="-425.5" font-family="DejaVuSansMono" font-size="10.00">client_disconnect</text>
</a>
</g>
<!-- Node2&#45;&gt;Node8 -->
<g id="edge14" class="edge"><title>Node2&#45;&gt;Node8</title>
<path fill="none" stroke="midnightblue" d="M255.842,-428C277.828,-428 304.111,-428 327.285,-428"/>
<polygon fill="midnightblue" stroke="midnightblue" points="255.749,-424.5 245.749,-428 255.749,-431.5 255.749,-424.5"/>
</g>
<!-- Node4 -->
<g id="node7" class="node"><title>Node4</title>
<a xlink:href="../../d7/d71/xep__muc_8c.html#a9936322b944d46aead9fbd942687ec0a" target="_top" xlink:title="handle_presence">
<polygon fill="none" stroke="black" points="699.5,-380.5 699.5,-399.5 806.5,-399.5 806.5,-380.5 699.5,-380.5"/>
<text text-anchor="middle" x="753" y="-387.5" font-family="DejaVuSansMono" font-size="10.00">handle_presence</text>
</a>
</g>
<!-- Node3&#45;&gt;Node4 -->
<g id="edge6" class="edge"><title>Node3&#45;&gt;Node4</title>
<path fill="none" stroke="midnightblue" d="M613.522,-434.344C646.334,-423.837 692.297,-409.118 722.11,-399.572"/>
<polygon fill="midnightblue" stroke="midnightblue" points="612.249,-431.076 603.793,-437.459 614.384,-437.743 612.249,-431.076"/>
</g>
<!-- Node5 -->
<g id="node9" class="node"><title>Node5</title>
<a xlink:href="../../d7/d71/xep__muc_8c.html#a1798db1c16a1fa62ff8f39fea202a26f" target="_top" xlink:title="stanza_handler">
<polygon fill="none" stroke="black" points="885.5,-342.5 885.5,-361.5 986.5,-361.5 986.5,-342.5 885.5,-342.5"/>
<text text-anchor="middle" x="936" y="-349.5" font-family="DejaVuSansMono" font-size="10.00">stanza_handler</text>
</a>
</g>
<!-- Node4&#45;&gt;Node5 -->
<g id="edge8" class="edge"><title>Node4&#45;&gt;Node5</title>
<path fill="none" stroke="midnightblue" d="M809.638,-378.319C835.307,-372.93 865.391,-366.614 889.654,-361.52"/>
<polygon fill="midnightblue" stroke="midnightblue" points="808.741,-374.931 799.674,-380.411 810.18,-381.782 808.741,-374.931"/>
</g>
<!-- Node6 -->
<g id="node11" class="node"><title>Node6</title>
<a xlink:href="../../d7/d71/xep__muc_8c.html#addf05166cf3fbe386ae6650be21ef251" target="_top" xlink:title="xep_muc_start">
<polygon fill="none" stroke="black" points="1056.5,-304.5 1056.5,-323.5 1151.5,-323.5 1151.5,-304.5 1056.5,-304.5"/>
<text text-anchor="middle" x="1104" y="-311.5" font-family="DejaVuSansMono" font-size="10.00">xep_muc_start</text>
</a>
</g>
<!-- Node5&#45;&gt;Node6 -->
<g id="edge10" class="edge"><title>Node5&#45;&gt;Node6</title>
<path fill="none" stroke="midnightblue" d="M988.653,-340.176C1012.06,-334.818 1039.36,-328.569 1061.41,-323.52"/>
<polygon fill="midnightblue" stroke="midnightblue" points="987.856,-336.768 978.889,-342.411 989.418,-343.591 987.856,-336.768"/>
</g>
<!-- Node7 -->
<g id="node13" class="node"><title>Node7</title>
<a xlink:href="../../d7/d71/xep__muc_8c.html#a20d385a5584d8014ec4d5774eb79d1de" target="_top" xlink:title="xep_muc_stop">
<polygon fill="none" stroke="black" points="1059.5,-342.5 1059.5,-361.5 1148.5,-361.5 1148.5,-342.5 1059.5,-342.5"/>
<text text-anchor="middle" x="1104" y="-349.5" font-family="DejaVuSansMono" font-size="10.00">xep_muc_stop</text>
</a>
</g>
<!-- Node5&#45;&gt;Node7 -->
<g id="edge12" class="edge"><title>Node5&#45;&gt;Node7</title>
<path fill="none" stroke="midnightblue" d="M997.057,-352C1017.68,-352 1040.36,-352 1059.42,-352"/>
<polygon fill="midnightblue" stroke="midnightblue" points="996.806,-348.5 986.805,-352 996.805,-355.5 996.806,-348.5"/>
</g>
<!-- Node9 -->
<g id="node17" class="node"><title>Node9</title>
<a xlink:href="../../d7/d71/xep__muc_8c.html#aefd23f2960520a68fea212344b85cb0b" target="_top" xlink:title="enter_room_presence">
<polygon fill="none" stroke="black" points="507.5,-380.5 507.5,-399.5 638.5,-399.5 638.5,-380.5 507.5,-380.5"/>
<text text-anchor="middle" x="573" y="-387.5" font-family="DejaVuSansMono" font-size="10.00">enter_room_presence</text>
</a>
</g>
<!-- Node8&#45;&gt;Node9 -->
<g id="edge16" class="edge"><title>Node8&#45;&gt;Node9</title>
<path fill="none" stroke="midnightblue" d="M444.561,-416.319C470.654,-410.93 501.238,-404.614 525.903,-399.52"/>
<polygon fill="midnightblue" stroke="midnightblue" points="443.516,-412.961 434.431,-418.411 444.932,-419.816 443.516,-412.961"/>
</g>
<!-- Node9&#45;&gt;Node4 -->
<g id="edge18" class="edge"><title>Node9&#45;&gt;Node4</title>
<path fill="none" stroke="midnightblue" d="M648.961,-390C665.921,-390 683.58,-390 699.387,-390"/>
<polygon fill="midnightblue" stroke="midnightblue" points="648.514,-386.5 638.514,-390 648.514,-393.5 648.514,-386.5"/>
</g>
<!-- Node11 -->
<g id="node22" class="node"><title>Node11</title>
<a xlink:href="../../d7/d71/xep__muc_8c.html#aec1096d47742f472668c4905fa3c299a" target="_top" xlink:title="handle_iq">
<polygon fill="none" stroke="black" points="351.5,-304.5 351.5,-323.5 422.5,-323.5 422.5,-304.5 351.5,-304.5"/>
<text text-anchor="middle" x="387" y="-311.5" font-family="DejaVuSansMono" font-size="10.00">handle_iq</text>
</a>
</g>
<!-- Node10&#45;&gt;Node11 -->
<g id="edge22" class="edge"><title>Node10&#45;&gt;Node11</title>
<path fill="none" stroke="midnightblue" d="M279.824,-314C304.484,-314 330.972,-314 351.323,-314"/>
<polygon fill="midnightblue" stroke="midnightblue" points="279.756,-310.5 269.756,-314 279.756,-317.5 279.756,-310.5"/>
</g>
<!-- Node11&#45;&gt;Node5 -->
<g id="edge24" class="edge"><title>Node11&#45;&gt;Node5</title>
<path fill="none" stroke="midnightblue" d="M432.68,-317.574C454.229,-319.27 480.454,-321.294 504,-323 642.005,-332.996 804.956,-343.647 885.214,-348.816"/>
<polygon fill="midnightblue" stroke="midnightblue" points="432.753,-314.069 422.508,-316.77 432.202,-321.047 432.753,-314.069"/>
</g>
<!-- Node12&#45;&gt;Node11 -->
<g id="edge28" class="edge"><title>Node12&#45;&gt;Node11</title>
<path fill="none" stroke="midnightblue" d="M262.881,-287.716C291.787,-293.887 326.351,-301.266 351.489,-306.632"/>
<polygon fill="midnightblue" stroke="midnightblue" points="263.427,-284.254 252.917,-285.589 261.966,-291.1 263.427,-284.254"/>
</g>
<!-- Node13&#45;&gt;Node9 -->
<g id="edge32" class="edge"><title>Node13&#45;&gt;Node9</title>
<path fill="none" stroke="midnightblue" d="M471.516,-390C483.497,-390 495.672,-390 507.219,-390"/>
<polygon fill="midnightblue" stroke="midnightblue" points="471.515,-386.5 461.515,-390 471.515,-393.5 471.515,-386.5"/>
</g>
<!-- Node14&#45;&gt;Node9 -->
<g id="edge36" class="edge"><title>Node14&#45;&gt;Node9</title>
<path fill="none" stroke="midnightblue" d="M444.561,-363.681C470.654,-369.07 501.238,-375.386 525.903,-380.48"/>
<polygon fill="midnightblue" stroke="midnightblue" points="444.932,-360.184 434.431,-361.589 443.516,-367.039 444.932,-360.184"/>
</g>
<!-- Node16 -->
<g id="node36" class="node"><title>Node16</title>
<a xlink:href="../../d1/d2e/xmpp__server_8h.html#a27bfc8e4d424a8bc17ab21a4a09cdf92" target="_top" xlink:title="Allocates and initializes the XMPP server.">
<polygon fill="none" stroke="black" points="1200.5,-114.5 1200.5,-133.5 1307.5,-133.5 1307.5,-114.5 1200.5,-114.5"/>
<text text-anchor="middle" x="1254" y="-121.5" font-family="DejaVuSansMono" font-size="10.00">xmpp_server_new</text>
</a>
</g>
<!-- Node15&#45;&gt;Node16 -->
<g id="edge40" class="edge"><title>Node15&#45;&gt;Node16</title>
<path fill="none" stroke="midnightblue" d="M1009.1,-89.6932C1053.85,-92.5645 1112.46,-97.3733 1164,-105 1180.25,-107.405 1197.99,-110.992 1213.32,-114.403"/>
<polygon fill="midnightblue" stroke="midnightblue" points="1009.1,-86.1866 998.904,-89.057 1008.67,-93.173 1009.1,-86.1866"/>
</g>
<!-- Node17 -->
<g id="node38" class="node"><title>Node17</title>
<a xlink:href="../../d0/d29/main_8c.html#a0ddf1224851353fc92bfbff6f499fa97" target="_top" xlink:title="main">
<polygon fill="none" stroke="black" points="1344.5,-114.5 1344.5,-133.5 1385.5,-133.5 1385.5,-114.5 1344.5,-114.5"/>
<text text-anchor="middle" x="1365" y="-121.5" font-family="DejaVuSansMono" font-size="10.00">main</text>
</a>
</g>
<!-- Node16&#45;&gt;Node17 -->
<g id="edge42" class="edge"><title>Node16&#45;&gt;Node17</title>
<path fill="none" stroke="midnightblue" d="M1317.75,-124C1327.43,-124 1336.76,-124 1344.47,-124"/>
<polygon fill="midnightblue" stroke="midnightblue" points="1317.58,-120.5 1307.58,-124 1317.58,-127.5 1317.58,-120.5"/>
</g>
<!-- Node18&#45;&gt;Node16 -->
<g id="edge46" class="edge"><title>Node18&#45;&gt;Node16</title>
<path fill="none" stroke="midnightblue" d="M838.081,-48.3138C921.956,-50.4544 1053.84,-58.8012 1164,-88 1188.65,-94.5336 1215.63,-106.116 1233.34,-114.379"/>
<polygon fill="midnightblue" stroke="midnightblue" points="837.92,-44.8092 827.842,-48.0772 837.758,-51.8073 837.92,-44.8092"/>
</g>
<!-- Node19&#45;&gt;Node16 -->
<g id="edge50" class="edge"><title>Node19&#45;&gt;Node16</title>
<path fill="none" stroke="midnightblue" d="M1017.63,-5.53268C1062.71,-6.14661 1118.76,-12.2486 1164,-34 1202.62,-52.5675 1234.04,-95.068 1246.83,-114.268"/>
<polygon fill="midnightblue" stroke="midnightblue" points="1017.62,-2.03266 1007.6,-5.48316 1017.58,-9.03258 1017.62,-2.03266"/>
</g>
<!-- Node21 -->
<g id="node48" class="node"><title>Node21</title>
<a xlink:href="../../d9/dd7/xmpp__im_8h.html#a40f3cf6fffd6aafe9c7cde476fdbc9c2" target="_top" xlink:title="IQ stanza callback for handing a roster query.">
<polygon fill="none" stroke="black" points="1044.5,-266.5 1044.5,-285.5 1163.5,-285.5 1163.5,-266.5 1044.5,-266.5"/>
<text text-anchor="middle" x="1104" y="-273.5" font-family="DejaVuSansMono" font-size="10.00">xmpp_im_iq_roster</text>
</a>
</g>
<!-- Node20&#45;&gt;Node21 -->
<g id="edge54" class="edge"><title>Node20&#45;&gt;Node21</title>
<path fill="none" stroke="midnightblue" d="M621.973,-302.78C673.06,-301.368 756.269,-298.748 828,-295 902.675,-291.098 988.639,-284.881 1044.29,-280.629"/>
<polygon fill="midnightblue" stroke="midnightblue" points="621.787,-299.284 611.886,-303.054 621.978,-306.281 621.787,-299.284"/>
</g>
<!-- Node21&#45;&gt;Node16 -->
<g id="edge56" class="edge"><title>Node21&#45;&gt;Node16</title>
<path fill="none" stroke="midnightblue" d="M1147.38,-262.291C1153.27,-259.4 1159.01,-255.99 1164,-252 1206.9,-217.675 1237.73,-157.301 1248.65,-133.774"/>
<polygon fill="midnightblue" stroke="midnightblue" points="1145.79,-259.165 1138.06,-266.412 1148.62,-265.567 1145.79,-259.165"/>
</g>
<!-- Node23 -->
<g id="node53" class="node"><title>Node23</title>
<a xlink:href="../../d1/dc2/xmpp__parser_8c.html#a03a135f29e3d4e01abbb60e53ac6967c" target="_top" xlink:title="init_parser">
<polygon fill="none" stroke="black" points="345.5,-152.5 345.5,-171.5 428.5,-171.5 428.5,-152.5 345.5,-152.5"/>
<text text-anchor="middle" x="387" y="-159.5" font-family="DejaVuSansMono" font-size="10.00">init_parser</text>
</a>
</g>
<!-- Node22&#45;&gt;Node23 -->
<g id="edge60" class="edge"><title>Node22&#45;&gt;Node23</title>
<path fill="none" stroke="midnightblue" d="M261.572,-135.437C288.462,-141.177 320.51,-148.019 345.346,-153.321"/>
<polygon fill="midnightblue" stroke="midnightblue" points="262.054,-131.961 251.544,-133.296 260.593,-138.807 262.054,-131.961"/>
</g>
<!-- Node24 -->
<g id="node55" class="node"><title>Node24</title>
<a xlink:href="../../d8/d55/xmpp__parser_8h.html#adf25a1d2047994dfa6cc71a9482548c2" target="_top" xlink:title="xmpp_parser_new">
<polygon fill="none" stroke="black" points="519.5,-190.5 519.5,-209.5 626.5,-209.5 626.5,-190.5 519.5,-190.5"/>
<text text-anchor="middle" x="573" y="-197.5" font-family="DejaVuSansMono" font-size="10.00">xmpp_parser_new</text>
</a>
</g>
<!-- Node23&#45;&gt;Node24 -->
<g id="edge62" class="edge"><title>Node23&#45;&gt;Node24</title>
<path fill="none" stroke="midnightblue" d="M438.934,-172.519C466.123,-178.134 499.333,-184.993 525.773,-190.453"/>
<polygon fill="midnightblue" stroke="midnightblue" points="439.337,-169.028 428.836,-170.433 437.921,-175.884 439.337,-169.028"/>
</g>
<!-- Node28 -->
<g id="node64" class="node"><title>Node28</title>
<a xlink:href="../../d8/d55/xmpp__parser_8h.html#af5e1eb5bbef0496c3543bd35113766ac" target="_top" xlink:title="Reset the state of the parser as if it was just created.">
<polygon fill="none" stroke="black" points="513.5,-152.5 513.5,-171.5 632.5,-171.5 632.5,-152.5 513.5,-152.5"/>
<text text-anchor="middle" x="573" y="-159.5" font-family="DejaVuSansMono" font-size="10.00">xmpp_parser_reset</text>
</a>
</g>
<!-- Node23&#45;&gt;Node28 -->
<g id="edge72" class="edge"><title>Node23&#45;&gt;Node28</title>
<path fill="none" stroke="midnightblue" d="M439.108,-162C462.188,-162 489.577,-162 513.477,-162"/>
<polygon fill="midnightblue" stroke="midnightblue" points="438.836,-158.5 428.836,-162 438.836,-165.5 438.836,-158.5"/>
</g>
<!-- Node25 -->
<g id="node57" class="node"><title>Node25</title>
<a xlink:href="../../d6/d78/xmp3__multicast_8c.html#a08afc39c59ec9297d756a99c395eff3c" target="_top" xlink:title="multicast_new">
<polygon fill="none" stroke="black" points="705.5,-190.5 705.5,-209.5 800.5,-209.5 800.5,-190.5 705.5,-190.5"/>
<text text-anchor="middle" x="753" y="-197.5" font-family="DejaVuSansMono" font-size="10.00">multicast_new</text>
</a>
</g>
<!-- Node24&#45;&gt;Node25 -->
<g id="edge64" class="edge"><title>Node24&#45;&gt;Node25</title>
<path fill="none" stroke="midnightblue" d="M637.063,-200C659.551,-200 684.46,-200 705.324,-200"/>
<polygon fill="midnightblue" stroke="midnightblue" points="636.924,-196.5 626.924,-200 636.924,-203.5 636.924,-196.5"/>
</g>
<!-- Node26 -->
<g id="node59" class="node"><title>Node26</title>
<a xlink:href="../../d4/d2f/xmpp__client_8h.html#a1619c0b8f58b2cf09a322bf34fbc3414" target="_top" xlink:title="xmpp_client_new">
<polygon fill="none" stroke="black" points="699.5,-228.5 699.5,-247.5 806.5,-247.5 806.5,-228.5 699.5,-228.5"/>
<text text-anchor="middle" x="753" y="-235.5" font-family="DejaVuSansMono" font-size="10.00">xmpp_client_new</text>
</a>
</g>
<!-- Node24&#45;&gt;Node26 -->
<g id="edge66" class="edge"><title>Node24&#45;&gt;Node26</title>
<path fill="none" stroke="midnightblue" d="M628.716,-211.681C653.959,-217.07 683.545,-223.386 707.406,-228.48"/>
<polygon fill="midnightblue" stroke="midnightblue" points="629.427,-208.254 618.917,-209.589 627.966,-215.1 629.427,-208.254"/>
</g>
<!-- Node27 -->
<g id="node61" class="node"><title>Node27</title>
<a xlink:href="../../d0/df0/xmpp__server_8c.html#a66363912ef1221a2574f9f99805fe8fd" target="_top" xlink:title="Callback for new client connections.">
<polygon fill="none" stroke="black" points="1053.5,-152.5 1053.5,-171.5 1154.5,-171.5 1154.5,-152.5 1053.5,-152.5"/>
<text text-anchor="middle" x="1104" y="-159.5" font-family="DejaVuSansMono" font-size="10.00">connect_client</text>
</a>
</g>
<!-- Node26&#45;&gt;Node27 -->
<g id="edge68" class="edge"><title>Node26&#45;&gt;Node27</title>
<path fill="none" stroke="midnightblue" d="M807.668,-226.313C876.755,-211.268 995.483,-185.414 1059.33,-171.509"/>
<polygon fill="midnightblue" stroke="midnightblue" points="806.874,-222.904 797.848,-228.452 808.363,-229.743 806.874,-222.904"/>
</g>
<!-- Node27&#45;&gt;Node16 -->
<g id="edge70" class="edge"><title>Node27&#45;&gt;Node16</title>
<path fill="none" stroke="midnightblue" d="M1152.17,-149.888C1172.79,-144.596 1196.61,-138.479 1215.92,-133.52"/>
<polygon fill="midnightblue" stroke="midnightblue" points="1151.16,-146.534 1142.35,-152.411 1152.9,-153.314 1151.16,-146.534"/>
</g>
<!-- Node29 -->
<g id="node66" class="node"><title>Node29</title>
<a xlink:href="../../d6/d78/xmp3__multicast_8c.html#a9865e8026fb8ee000629fc1da465716d" target="_top" xlink:title="socket_handler">
<polygon fill="none" stroke="black" points="885.5,-114.5 885.5,-133.5 986.5,-133.5 986.5,-114.5 885.5,-114.5"/>
<text text-anchor="middle" x="936" y="-121.5" font-family="DejaVuSansMono" font-size="10.00">socket_handler</text>
</a>
</g>
<!-- Node28&#45;&gt;Node29 -->
<g id="edge74" class="edge"><title>Node28&#45;&gt;Node29</title>
<path fill="none" stroke="midnightblue" d="M630.112,-150.615C645.577,-147.787 662.393,-144.997 678,-143 749.671,-133.831 833.195,-128.669 885.093,-126.107"/>
<polygon fill="midnightblue" stroke="midnightblue" points="629.358,-147.195 620.17,-152.471 630.643,-154.076 629.358,-147.195"/>
</g>
<!-- Node31 -->
<g id="node70" class="node"><title>Node31</title>
<a xlink:href="../../d8/d55/xmpp__parser_8h.html#a578b7a9a50212eb204a86789001287af" target="_top" xlink:title="xmpp_parser_parse">
<polygon fill="none" stroke="black" points="693.5,-152.5 693.5,-171.5 812.5,-171.5 812.5,-152.5 693.5,-152.5"/>
<text text-anchor="middle" x="753" y="-159.5" font-family="DejaVuSansMono" font-size="10.00">xmpp_parser_parse</text>
</a>
</g>
<!-- Node28&#45;&gt;Node31 -->
<g id="edge78" class="edge"><title>Node28&#45;&gt;Node31</title>
<path fill="none" stroke="midnightblue" d="M642.974,-162C659.589,-162 677.187,-162 693.285,-162"/>
<polygon fill="midnightblue" stroke="midnightblue" points="642.777,-158.5 632.777,-162 642.777,-165.5 642.777,-158.5"/>
</g>
<!-- Node30 -->
<g id="node68" class="node"><title>Node30</title>
<a xlink:href="../../d6/d78/xmp3__multicast_8c.html#a991c928ab73b350c4b7029352e91a219" target="_top" xlink:title="multicast_start">
<polygon fill="none" stroke="black" points="1050.5,-114.5 1050.5,-133.5 1157.5,-133.5 1157.5,-114.5 1050.5,-114.5"/>
<text text-anchor="middle" x="1104" y="-121.5" font-family="DejaVuSansMono" font-size="10.00">multicast_start</text>
</a>
</g>
<!-- Node29&#45;&gt;Node30 -->
<g id="edge76" class="edge"><title>Node29&#45;&gt;Node30</title>
<path fill="none" stroke="midnightblue" d="M996.9,-124C1014.38,-124 1033.35,-124 1050.34,-124"/>
<polygon fill="midnightblue" stroke="midnightblue" points="996.806,-120.5 986.805,-124 996.805,-127.5 996.806,-120.5"/>
</g>
<!-- Node31&#45;&gt;Node29 -->
<g id="edge80" class="edge"><title>Node31&#45;&gt;Node29</title>
<path fill="none" stroke="midnightblue" d="M809.638,-150.319C835.307,-144.93 865.391,-138.614 889.654,-133.52"/>
<polygon fill="midnightblue" stroke="midnightblue" points="808.741,-146.931 799.674,-152.411 810.18,-153.782 808.741,-146.931"/>
</g>
<!-- Node32 -->
<g id="node73" class="node"><title>Node32</title>
<a xlink:href="../../d0/df0/xmpp__server_8c.html#abece91815ef240322d79073f5bfca1db" target="_top" xlink:title="Callback for new data from a client.">
<polygon fill="none" stroke="black" points="894.5,-152.5 894.5,-171.5 977.5,-171.5 977.5,-152.5 894.5,-152.5"/>
<text text-anchor="middle" x="936" y="-159.5" font-family="DejaVuSansMono" font-size="10.00">read_client</text>
</a>
</g>
<!-- Node31&#45;&gt;Node32 -->
<g id="edge82" class="edge"><title>Node31&#45;&gt;Node32</title>
<path fill="none" stroke="midnightblue" d="M822.928,-162C846.999,-162 873.232,-162 894.262,-162"/>
<polygon fill="midnightblue" stroke="midnightblue" points="822.766,-158.5 812.766,-162 822.765,-165.5 822.766,-158.5"/>
</g>
<!-- Node32&#45;&gt;Node27 -->
<g id="edge84" class="edge"><title>Node32&#45;&gt;Node27</title>
<path fill="none" stroke="midnightblue" d="M987.849,-162C1008.65,-162 1032.65,-162 1053.33,-162"/>
<polygon fill="midnightblue" stroke="midnightblue" points="987.608,-158.5 977.608,-162 987.608,-165.5 987.608,-158.5"/>
</g>
<!-- Node33&#45;&gt;Node23 -->
<g id="edge88" class="edge"><title>Node33&#45;&gt;Node23</title>
<path fill="none" stroke="midnightblue" d="M235.04,-162C264.341,-162 311.427,-162 345.223,-162"/>
<polygon fill="midnightblue" stroke="midnightblue" points="234.746,-158.5 224.746,-162 234.746,-165.5 234.746,-158.5"/>
</g>
<!-- Node35 -->
<g id="node81" class="node"><title>Node35</title>
<a xlink:href="../../d1/d2e/xmpp__server_8h.html#a8ddb3bbfd497811c13e9426ce6f02003" target="_top" xlink:title="Deliver an IQ stanza to a registered callback function.">
<polygon fill="none" stroke="black" points="504.5,-237.5 504.5,-256.5 641.5,-256.5 641.5,-237.5 504.5,-237.5"/>
<text text-anchor="middle" x="573" y="-244.5" font-family="DejaVuSansMono" font-size="10.00">xmpp_server_route_iq</text>
</a>
</g>
<!-- Node34&#45;&gt;Node35 -->
<g id="edge92" class="edge"><title>Node34&#45;&gt;Node35</title>
<path fill="none" stroke="midnightblue" d="M434.924,-211.986C465.821,-219.878 505.727,-230.071 534.505,-237.422"/>
<polygon fill="midnightblue" stroke="midnightblue" points="435.79,-208.595 425.235,-209.511 434.058,-215.377 435.79,-208.595"/>
</g>
<!-- Node36 -->
<g id="node83" class="node"><title>Node36</title>
<a xlink:href="../../d8/d28/xmpp__core_8h.html#a777c384ae6685d30bfa255c4b33022aa" target="_top" xlink:title="An xmpp_server stanza route for stanzas directed to the server itself.">
<polygon fill="none" stroke="black" points="678.5,-266.5 678.5,-285.5 827.5,-285.5 827.5,-266.5 678.5,-266.5"/>
<text text-anchor="middle" x="753" y="-273.5" font-family="DejaVuSansMono" font-size="10.00">xmpp_core_route_server</text>
</a>
</g>
<!-- Node35&#45;&gt;Node36 -->
<g id="edge94" class="edge"><title>Node35&#45;&gt;Node36</title>
<path fill="none" stroke="midnightblue" d="M643.028,-258.246C659.732,-260.968 677.426,-263.85 693.588,-266.483"/>
<polygon fill="midnightblue" stroke="midnightblue" points="643.21,-254.73 632.777,-256.576 642.084,-261.639 643.21,-254.73"/>
</g>
<!-- Node36&#45;&gt;Node16 -->
<g id="edge96" class="edge"><title>Node36&#45;&gt;Node16</title>
<path fill="none" stroke="midnightblue" d="M837.899,-265.144C922.646,-252.221 1056.1,-226.448 1164,-181 1193.76,-168.464 1224.67,-146.224 1241.08,-133.548"/>
<polygon fill="midnightblue" stroke="midnightblue" points="837.181,-261.712 827.81,-266.657 838.219,-268.635 837.181,-261.712"/>
</g>
</g>
</svg>
        <g id="navigator" transform="translate(0 0)" fill="#404254">
                <rect fill="#f2f5e9" fill-opacity="0.5" stroke="#606060" stroke-width=".5" x="0" y="0" width="60" height="60"/>
                <use id="zoomplus" xlink:href="#zoomPlus" x="17" y="9" onmousedown="handleZoom(evt,'in')"/>
                <use id="zoomminus" xlink:href="#zoomMin" x="42" y="9" onmousedown="handleZoom(evt,'out')"/>
                <use id="reset" xlink:href="#resetDef" x="30" y="36" onmousedown="handleReset()"/>
                <g id="arrowUp" xlink:href="#dirArrow" transform="translate(30 24)" onmousedown="handlePan(0,-1)">
                  <use xlink:href="#rim" fill="#404040">
                        <set attributeName="fill" to="#808080" begin="arrowUp.mouseover" end="arrowUp.mouseout"/>
                  </use>
                  <path fill="none" stroke="white" stroke-width="1.5" d="M0,-3.0v7 M-2.5,-0.5L0,-3.0L2.5,-0.5"/>
                </g>
                <g id="arrowRight" xlink:href="#dirArrow" transform="rotate(90) translate(36 -43)" onmousedown="handlePan(1,0)">
                  <use xlink:href="#rim" fill="#404040">
                        <set attributeName="fill" to="#808080" begin="arrowRight.mouseover" end="arrowRight.mouseout"/>
                  </use>
                  <path fill="none" stroke="white" stroke-width="1.5" d="M0,-3.0v7 M-2.5,-0.5L0,-3.0L2.5,-0.5"/>
                </g>
                <g id="arrowDown" xlink:href="#dirArrow" transform="rotate(180) translate(-30 -48)" onmousedown="handlePan(0,1)">
                  <use xlink:href="#rim" fill="#404040">
                        <set attributeName="fill" to="#808080" begin="arrowDown.mouseover" end="arrowDown.mouseout"/>
                  </use>
                  <path fill="none" stroke="white" stroke-width="1.5" d="M0,-3.0v7 M-2.5,-0.5L0,-3.0L2.5,-0.5"/>
                </g>
                <g id="arrowLeft" xlink:href="#dirArrow" transform="rotate(270) translate(-36 17)" onmousedown="handlePan(-1,0)">
                  <use xlink:href="#rim" fill="#404040">
                        <set attributeName="fill" to="#808080" begin="arrowLeft.mouseover" end="arrowLeft.mouseout"/>
                  </use>
                  <path fill="none" stroke="white" stroke-width="1.5" d="M0,-3.0v7 M-2.5,-0.5L0,-3.0L2.5,-0.5"/>
                </g>
        </g>
        <svg viewBox="0 0 25 25" width="100%" height="30px" preserveAspectRatio="xMaxYMin meet"> 
          <g id="printButton" transform="scale(0.4 0.4)" onmousedown="handlePrint(evt)">
            <rect height="23.33753581" id="paper" rx="2" style="fill:#f2f5e9;fill-rule:evenodd;stroke:#111111;stroke-width:3.224;stroke-linejoin:round;" transform="matrix(1.000000,0.000000,-0.339266,0.940691,0.000000,0.000000)" width="25.55231285" x="26.69387353" y="7.36162977"/>
            <rect height="26.272097" id="body" rx="2" style="fill:#404040;fill-rule:evenodd;stroke:#111111;stroke-width:3.125;stroke-linejoin:round;" width="50" x="4.5295201" y="27.078951"/>
            <rect height="8.27750969" id="tray" style="fill:#d2d5c9;fill-rule:evenodd;stroke:#111111;stroke-width:3.125;stroke-linecap:round;stroke-linejoin:round;" width="40" x="10.28778839" y="44.96812282"/>
          </g>
        </svg>
</svg>
