<?xml version="1.0" encoding="UTF-8" standalone="no"?>
<!DOCTYPE svg PUBLIC "-//W3C//DTD SVG 1.1//EN"
 "http://www.w3.org/Graphics/SVG/1.1/DTD/svg11.dtd">
<!-- Generated by graphviz version 2.28.0 (20120217.0315)
 -->
<!-- Title: G Pages: 1 -->
<svg width="482pt" height="104pt"
 viewBox="0.00 0.00 482.00 104.00" xmlns="http://www.w3.org/2000/svg" xmlns:xlink="http://www.w3.org/1999/xlink">
<g id="graph1" class="graph" transform="scale(1 1) rotate(0) translate(4 100)">
<title>G</title>
<!-- Node1 -->
<g id="node1" class="node"><title>Node1</title>
<polygon fill="#bfbfbf" stroke="black" points="0.5,-38.5 0.5,-57.5 125.5,-57.5 125.5,-38.5 0.5,-38.5"/>
<text text-anchor="middle" x="63" y="-45.5" font-family="DejaVuSansMono" font-size="10.00">xmpp_stanza_string</text>
</g>
<!-- Node2 -->
<g id="node3" class="node"><title>Node2</title>
<a xlink:href="../../d1/d59/xmpp__stanza_8c.html#aae8c30c30fcbc2325d34897f8035ca46" target="_top" xlink:title="Function that gets called recursively to convert a stanza to a string.">
<polygon fill="none" stroke="black" points="162.5,-38.5 162.5,-57.5 251.5,-57.5 251.5,-38.5 162.5,-38.5"/>
<text text-anchor="middle" x="207" y="-45.5" font-family="DejaVuSansMono" font-size="10.00">stanza_tostr</text>
</a>
</g>
<!-- Node1&#45;&gt;Node2 -->
<g id="edge2" class="edge"><title>Node1&#45;&gt;Node2</title>
<path fill="none" stroke="midnightblue" d="M125.87,-48C134.584,-48 143.485,-48 152.035,-48"/>
<polygon fill="midnightblue" stroke="midnightblue" points="152.255,-51.5001 162.255,-48 152.255,-44.5001 152.255,-51.5001"/>
</g>
<!-- Node3 -->
<g id="node5" class="node"><title>Node3</title>
<a xlink:href="../../d1/dc2/xmpp__parser_8c.html#acce8bfe5926da4e64c3b5038dc683618" target="_top" xlink:title="xmpp_parser_namespace_prefix">
<polygon fill="none" stroke="black" points="288.5,-76.5 288.5,-95.5 473.5,-95.5 473.5,-76.5 288.5,-76.5"/>
<text text-anchor="middle" x="381" y="-83.5" font-family="DejaVuSansMono" font-size="10.00">xmpp_parser_namespace_prefix</text>
</a>
</g>
<!-- Node2&#45;&gt;Node3 -->
<g id="edge4" class="edge"><title>Node2&#45;&gt;Node3</title>
<path fill="none" stroke="midnightblue" d="M247.009,-57.5084C260.027,-60.6162 274.621,-64.0305 288,-67 299.083,-69.46 310.941,-71.987 322.333,-74.3626"/>
<polygon fill="midnightblue" stroke="midnightblue" points="321.691,-77.8038 332.193,-76.4059 323.111,-70.9495 321.691,-77.8038"/>
</g>
<!-- Node4 -->
<g id="node7" class="node"><title>Node4</title>
<a xlink:href="../../d1/dc2/xmpp__parser_8c.html#afde3cf0e74a12bfe4ac90fa8dbae51a0" target="_top" xlink:title="xmpp_parser_namespace_uri">
<polygon fill="none" stroke="black" points="297.5,-38.5 297.5,-57.5 464.5,-57.5 464.5,-38.5 297.5,-38.5"/>
<text text-anchor="middle" x="381" y="-45.5" font-family="DejaVuSansMono" font-size="10.00">xmpp_parser_namespace_uri</text>
</a>
</g>
<!-- Node2&#45;&gt;Node4 -->
<g id="edge6" class="edge"><title>Node2&#45;&gt;Node4</title>
<path fill="none" stroke="midnightblue" d="M251.848,-48C262.734,-48 274.817,-48 287.089,-48"/>
<polygon fill="midnightblue" stroke="midnightblue" points="287.42,-51.5001 297.42,-48 287.42,-44.5001 287.42,-51.5001"/>
</g>
<!-- Node5 -->
<g id="node9" class="node"><title>Node5</title>
<a xlink:href="../../d1/dc2/xmpp__parser_8c.html#af924e15caac53b347a48878fcb046bc4" target="_top" xlink:title="Return the next namespace in the namespace list.">
<polygon fill="none" stroke="black" points="294.5,-0.5 294.5,-19.5 467.5,-19.5 467.5,-0.5 294.5,-0.5"/>
<text text-anchor="middle" x="381" y="-7.5" font-family="DejaVuSansMono" font-size="10.00">xmpp_parser_namespace_next</text>
</a>
</g>
<!-- Node2&#45;&gt;Node5 -->
<g id="edge8" class="edge"><title>Node2&#45;&gt;Node5</title>
<path fill="none" stroke="midnightblue" d="M247.009,-38.4916C260.027,-35.3838 274.621,-31.9695 288,-29 299.083,-26.54 310.941,-24.013 322.333,-21.6374"/>
<polygon fill="midnightblue" stroke="midnightblue" points="323.111,-25.0505 332.193,-19.5941 321.691,-18.1962 323.111,-25.0505"/>
</g>
</g>
</svg>
