<?xml version="1.0" encoding="UTF-8" standalone="no"?>
<!DOCTYPE svg PUBLIC "-//W3C//DTD SVG 1.1//EN"
 "http://www.w3.org/Graphics/SVG/1.1/DTD/svg11.dtd">
<!-- Generated by graphviz version 2.28.0 (20120217.0315)
 -->
<!-- Title: G Pages: 1 -->
<!--zoomable 140 -->
<svg id="main" version="1.1" xmlns="http://www.w3.org/2000/svg" xmlns:xlink="http://www.w3.org/1999/xlink" xml:space="preserve" onload="init(evt)">
        <defs>
                <circle id="rim" cx="0" cy="0" r="7"/>
                <circle id="rim2" cx="0" cy="0" r="3.5"/>
                <g id="zoomPlus">
                        <use xlink:href="#rim" fill="#404040">
                                <set attributeName="fill" to="#808080" begin="zoomplus.mouseover" end="zoomplus.mouseout"/>
                        </use>
                        <path d="M-4,0h8M0,-4v8" fill="none" stroke="white" stroke-width="1.5" pointer-events="none"/>
                </g>
                <g id="zoomMin">
                        <use xlink:href="#rim" fill="#404040">
                                <set attributeName="fill" to="#808080" begin="zoomminus.mouseover" end="zoomminus.mouseout"/>
                        </use>
                        <path d="M-4,0h8" fill="none" stroke="white" stroke-width="1.5" pointer-events="none"/>
                </g>
                <g id="dirArrow">
                        <path fill="none" stroke="white" stroke-width="1.5" d="M0,-3.0v7 M-2.5,-0.5L0,-3.0L2.5,-0.5"/>
                </g>
               <g id="resetDef">
                       <use xlink:href="#rim2" fill="#404040">
                               <set attributeName="fill" to="#808080" begin="reset.mouseover" end="reset.mouseout"/>
                       </use>
               </g>
        </defs>

<script type="text/javascript">
var viewWidth = 903;
var viewHeight = 140;
var sectionId = 'dynsection-0';
</script>
<script xlink:href="../../svgpan.js"/>
<svg id="graph" class="graph">
<g id="viewport">
<title>G</title>
<!-- Node1 -->
<g id="node1" class="node"><title>Node1</title>
<polygon fill="#bfbfbf" stroke="black" points="324.5,-112.5 324.5,-131.5 419.5,-131.5 419.5,-112.5 324.5,-112.5"/>
<text text-anchor="middle" x="372" y="-119.5" font-family="DejaVuSansMono" font-size="10.00">src/xep_muc.c</text>
</g>
<!-- Node2 -->
<g id="node3" class="node"><title>Node2</title>
<polygon fill="none" stroke="#bfbfbf" points="-0.5,-56.5 -0.5,-75.5 64.5,-75.5 64.5,-56.5 -0.5,-56.5"/>
<text text-anchor="middle" x="32" y="-63.5" font-family="DejaVuSansMono" font-size="10.00">uthash.h</text>
</g>
<!-- Node1&#45;&gt;Node2 -->
<g id="edge2" class="edge"><title>Node1&#45;&gt;Node2</title>
<path fill="none" stroke="midnightblue" d="M324.453,-114.841C267.35,-107.223 168.452,-93.3271 74.5792,-76.1996"/>
<polygon fill="midnightblue" stroke="midnightblue" points="75.1023,-72.7372 64.6339,-74.3692 73.8352,-79.6215 75.1023,-72.7372"/>
</g>
<!-- Node3 -->
<g id="node5" class="node"><title>Node3</title>
<polygon fill="none" stroke="#bfbfbf" points="82.5,-56.5 82.5,-75.5 147.5,-75.5 147.5,-56.5 82.5,-56.5"/>
<text text-anchor="middle" x="115" y="-63.5" font-family="DejaVuSansMono" font-size="10.00">utlist.h</text>
</g>
<!-- Node1&#45;&gt;Node3 -->
<g id="edge4" class="edge"><title>Node1&#45;&gt;Node3</title>
<path fill="none" stroke="midnightblue" d="M330.16,-112.421C288.752,-103.901 223.28,-90.3456 157.755,-76.3603"/>
<polygon fill="midnightblue" stroke="midnightblue" points="158.178,-72.8716 147.667,-74.2037 156.714,-79.717 158.178,-72.8716"/>
</g>
<!-- Node4 -->
<g id="node7" class="node"><title>Node4</title>
<a xlink:href="../../d6/d24/jid_8h.html" target="_top" xlink:title="Functions and data structure to manipulate a JID.">
<polygon fill="none" stroke="black" points="165.5,-56.5 165.5,-75.5 212.5,-75.5 212.5,-56.5 165.5,-56.5"/>
<text text-anchor="middle" x="189" y="-63.5" font-family="DejaVuSansMono" font-size="10.00">jid.h</text>
</a>
</g>
<!-- Node1&#45;&gt;Node4 -->
<g id="edge6" class="edge"><title>Node1&#45;&gt;Node4</title>
<path fill="none" stroke="midnightblue" d="M343.003,-112.444C310.164,-102.753 256.751,-86.9921 222.25,-76.8115"/>
<polygon fill="midnightblue" stroke="midnightblue" points="223.206,-73.4443 212.624,-73.971 221.224,-80.1581 223.206,-73.4443"/>
</g>
<!-- Node5 -->
<g id="node9" class="node"><title>Node5</title>
<a xlink:href="../../d7/d7f/log_8h.html" target="_top" xlink:title="Debugging and logging functions/macros.">
<polygon fill="none" stroke="black" points="230.5,-56.5 230.5,-75.5 277.5,-75.5 277.5,-56.5 230.5,-56.5"/>
<text text-anchor="middle" x="254" y="-63.5" font-family="DejaVuSansMono" font-size="10.00">log.h</text>
</a>
</g>
<!-- Node1&#45;&gt;Node5 -->
<g id="edge8" class="edge"><title>Node1&#45;&gt;Node5</title>
<path fill="none" stroke="midnightblue" d="M353.303,-112.444C334.056,-103.636 303.848,-89.8116 281.8,-79.722"/>
<polygon fill="midnightblue" stroke="midnightblue" points="283.16,-76.4951 272.61,-75.5164 280.247,-82.8603 283.16,-76.4951"/>
</g>
<!-- Node9 -->
<g id="node17" class="node"><title>Node9</title>
<a xlink:href="../../d5/d60/utils_8h.html" target="_top" xlink:title="Miscellaneous utility functions.">
<polygon fill="none" stroke="black" points="295.5,-56.5 295.5,-75.5 354.5,-75.5 354.5,-56.5 295.5,-56.5"/>
<text text-anchor="middle" x="325" y="-63.5" font-family="DejaVuSansMono" font-size="10.00">utils.h</text>
</a>
</g>
<!-- Node1&#45;&gt;Node9 -->
<g id="edge16" class="edge"><title>Node1&#45;&gt;Node9</title>
<path fill="none" stroke="midnightblue" d="M364.239,-112.083C357.463,-104.298 347.457,-92.8015 339.245,-83.3665"/>
<polygon fill="midnightblue" stroke="midnightblue" points="341.822,-80.9963 332.617,-75.7511 336.542,-85.592 341.822,-80.9963"/>
</g>
<!-- Node11 -->
<g id="node22" class="node"><title>Node11</title>
<a xlink:href="../../d5/d89/xmp3__module_8h.html" target="_top" xlink:title="Defines structures and functions for XMP3 extension modules.">
<polygon fill="none" stroke="black" points="372.5,-56.5 372.5,-75.5 467.5,-75.5 467.5,-56.5 372.5,-56.5"/>
<text text-anchor="middle" x="420" y="-63.5" font-family="DejaVuSansMono" font-size="10.00">xmp3_module.h</text>
</a>
</g>
<!-- Node1&#45;&gt;Node11 -->
<g id="edge22" class="edge"><title>Node1&#45;&gt;Node11</title>
<path fill="none" stroke="midnightblue" d="M379.926,-112.083C386.846,-104.298 397.065,-92.8015 405.452,-83.3665"/>
<polygon fill="midnightblue" stroke="midnightblue" points="408.194,-85.5505 412.221,-75.7511 402.962,-80.8999 408.194,-85.5505"/>
</g>
<!-- Node12 -->
<g id="node25" class="node"><title>Node12</title>
<a xlink:href="../../d4/d2f/xmpp__client_8h.html" target="_top" xlink:title="A connected XMPP server client.">
<polygon fill="none" stroke="black" points="485.5,-56.5 485.5,-75.5 580.5,-75.5 580.5,-56.5 485.5,-56.5"/>
<text text-anchor="middle" x="533" y="-63.5" font-family="DejaVuSansMono" font-size="10.00">xmpp_client.h</text>
</a>
</g>
<!-- Node1&#45;&gt;Node12 -->
<g id="edge26" class="edge"><title>Node1&#45;&gt;Node12</title>
<path fill="none" stroke="midnightblue" d="M397.511,-112.444C424.596,-103.359 467.59,-88.9388 497.869,-78.7831"/>
<polygon fill="midnightblue" stroke="midnightblue" points="499.24,-82.0148 507.608,-75.5164 497.014,-75.3781 499.24,-82.0148"/>
</g>
<!-- Node13 -->
<g id="node27" class="node"><title>Node13</title>
<a xlink:href="../../d9/dd7/xmpp__im_8h.html" target="_top" xlink:title="Implements the parsing for RFC6121 IM and Presence.">
<polygon fill="none" stroke="black" points="598.5,-56.5 598.5,-75.5 669.5,-75.5 669.5,-56.5 598.5,-56.5"/>
<text text-anchor="middle" x="634" y="-63.5" font-family="DejaVuSansMono" font-size="10.00">xmpp_im.h</text>
</a>
</g>
<!-- Node1&#45;&gt;Node13 -->
<g id="edge28" class="edge"><title>Node1&#45;&gt;Node13</title>
<path fill="none" stroke="midnightblue" d="M413.515,-112.444C461.067,-102.643 538.753,-86.6311 588.078,-76.4647"/>
<polygon fill="midnightblue" stroke="midnightblue" points="589.065,-79.8351 598.153,-74.3884 587.652,-72.9792 589.065,-79.8351"/>
</g>
<!-- Node14 -->
<g id="node30" class="node"><title>Node14</title>
<a xlink:href="../../d1/d2e/xmpp__server_8h.html" target="_top" xlink:title="Main XMPP server data/functions.">
<polygon fill="none" stroke="black" points="800.5,-56.5 800.5,-75.5 895.5,-75.5 895.5,-56.5 800.5,-56.5"/>
<text text-anchor="middle" x="848" y="-63.5" font-family="DejaVuSansMono" font-size="10.00">xmpp_server.h</text>
</a>
</g>
<!-- Node1&#45;&gt;Node14 -->
<g id="edge32" class="edge"><title>Node1&#45;&gt;Node14</title>
<path fill="none" stroke="midnightblue" d="M419.533,-116.67C495.506,-109.579 649.221,-94.5373 790.305,-76.0288"/>
<polygon fill="midnightblue" stroke="midnightblue" points="790.984,-79.4695 800.44,-74.6902 790.068,-72.5298 790.984,-79.4695"/>
</g>
<!-- Node16 -->
<g id="node35" class="node"><title>Node16</title>
<a xlink:href="../../dd/d21/xmpp__stanza_8h.html" target="_top" xlink:title="Represents top&#45;level XMPP stanzas received from clients.">
<polygon fill="none" stroke="black" points="687.5,-56.5 687.5,-75.5 782.5,-75.5 782.5,-56.5 687.5,-56.5"/>
<text text-anchor="middle" x="735" y="-63.5" font-family="DejaVuSansMono" font-size="10.00">xmpp_stanza.h</text>
</a>
</g>
<!-- Node1&#45;&gt;Node16 -->
<g id="edge38" class="edge"><title>Node1&#45;&gt;Node16</title>
<path fill="none" stroke="midnightblue" d="M419.726,-114.141C477.95,-105.738 579.66,-90.9448 677.369,-76.0825"/>
<polygon fill="midnightblue" stroke="midnightblue" points="678.061,-79.5175 687.42,-74.5512 677.007,-72.5973 678.061,-79.5175"/>
</g>
<!-- Node6 -->
<g id="node11" class="node"><title>Node6</title>
<polygon fill="none" stroke="#bfbfbf" points="142.5,-0.5 142.5,-19.5 201.5,-19.5 201.5,-0.5 142.5,-0.5"/>
<text text-anchor="middle" x="172" y="-7.5" font-family="DejaVuSansMono" font-size="10.00">stdio.h</text>
</g>
<!-- Node5&#45;&gt;Node6 -->
<g id="edge10" class="edge"><title>Node5&#45;&gt;Node6</title>
<path fill="none" stroke="midnightblue" d="M240.825,-56.324C228.153,-47.979 208.767,-35.2122 193.794,-25.3524"/>
<polygon fill="midnightblue" stroke="midnightblue" points="195.419,-22.2313 185.142,-19.6545 191.569,-28.0776 195.419,-22.2313"/>
</g>
<!-- Node7 -->
<g id="node13" class="node"><title>Node7</title>
<polygon fill="none" stroke="#bfbfbf" points="219.5,-0.5 219.5,-19.5 278.5,-19.5 278.5,-0.5 219.5,-0.5"/>
<text text-anchor="middle" x="249" y="-7.5" font-family="DejaVuSansMono" font-size="10.00">errno.h</text>
</g>
<!-- Node5&#45;&gt;Node7 -->
<g id="edge12" class="edge"><title>Node5&#45;&gt;Node7</title>
<path fill="none" stroke="midnightblue" d="M253.174,-56.083C252.519,-49.0059 251.58,-38.8611 250.758,-29.9865"/>
<polygon fill="midnightblue" stroke="midnightblue" points="254.217,-29.3858 249.81,-19.7511 247.247,-30.0312 254.217,-29.3858"/>
</g>
<!-- Node8 -->
<g id="node15" class="node"><title>Node8</title>
<polygon fill="none" stroke="#bfbfbf" points="296.5,-0.5 296.5,-19.5 361.5,-19.5 361.5,-0.5 296.5,-0.5"/>
<text text-anchor="middle" x="329" y="-7.5" font-family="DejaVuSansMono" font-size="10.00">string.h</text>
</g>
<!-- Node5&#45;&gt;Node8 -->
<g id="edge14" class="edge"><title>Node5&#45;&gt;Node8</title>
<path fill="none" stroke="midnightblue" d="M266.05,-56.324C277.463,-48.1066 294.831,-35.6017 308.435,-25.8069"/>
<polygon fill="midnightblue" stroke="midnightblue" points="310.66,-28.5174 316.731,-19.8339 306.57,-22.8366 310.66,-28.5174"/>
</g>
<!-- Node9&#45;&gt;Node8 -->
<g id="edge20" class="edge"><title>Node9&#45;&gt;Node8</title>
<path fill="none" stroke="midnightblue" d="M325.661,-56.083C326.185,-49.0059 326.936,-38.8611 327.594,-29.9865"/>
<polygon fill="midnightblue" stroke="midnightblue" points="331.103,-29.9823 328.352,-19.7511 324.123,-29.4652 331.103,-29.9823"/>
</g>
<!-- Node10 -->
<g id="node19" class="node"><title>Node10</title>
<polygon fill="none" stroke="#bfbfbf" points="598.5,-0.5 598.5,-19.5 669.5,-19.5 669.5,-0.5 598.5,-0.5"/>
<text text-anchor="middle" x="634" y="-7.5" font-family="DejaVuSansMono" font-size="10.00">stdbool.h</text>
</g>
<!-- Node9&#45;&gt;Node10 -->
<g id="edge18" class="edge"><title>Node9&#45;&gt;Node10</title>
<path fill="none" stroke="midnightblue" d="M354.77,-57.9311C357.881,-57.2519 361.001,-56.5954 364,-56 442.603,-40.3957 534.807,-25.8231 588.587,-17.6939"/>
<polygon fill="midnightblue" stroke="midnightblue" points="589.124,-21.1525 598.493,-16.2039 588.083,-14.2304 589.124,-21.1525"/>
</g>
<!-- Node11&#45;&gt;Node10 -->
<g id="edge24" class="edge"><title>Node11&#45;&gt;Node10</title>
<path fill="none" stroke="midnightblue" d="M453.909,-56.4435C490.849,-47.1221 550.054,-32.1828 590.418,-21.9972"/>
<polygon fill="midnightblue" stroke="midnightblue" points="591.41,-25.3568 600.25,-19.5164 589.697,-18.5695 591.41,-25.3568"/>
</g>
<!-- Node13&#45;&gt;Node10 -->
<g id="edge30" class="edge"><title>Node13&#45;&gt;Node10</title>
<path fill="none" stroke="midnightblue" d="M634,-56.083C634,-49.0059 634,-38.8611 634,-29.9865"/>
<polygon fill="midnightblue" stroke="midnightblue" points="637.5,-29.751 634,-19.7511 630.5,-29.7511 637.5,-29.751"/>
</g>
<!-- Node14&#45;&gt;Node10 -->
<g id="edge34" class="edge"><title>Node14&#45;&gt;Node10</title>
<path fill="none" stroke="midnightblue" d="M814.091,-56.4435C777.151,-47.1221 717.946,-32.1828 677.582,-21.9972"/>
<polygon fill="midnightblue" stroke="midnightblue" points="678.303,-18.5695 667.75,-19.5164 676.59,-25.3568 678.303,-18.5695"/>
</g>
<!-- Node15 -->
<g id="node33" class="node"><title>Node15</title>
<polygon fill="none" stroke="#bfbfbf" points="800.5,-0.5 800.5,-19.5 895.5,-19.5 895.5,-0.5 800.5,-0.5"/>
<text text-anchor="middle" x="848" y="-7.5" font-family="DejaVuSansMono" font-size="10.00">openssl/ssl.h</text>
</g>
<!-- Node14&#45;&gt;Node15 -->
<g id="edge36" class="edge"><title>Node14&#45;&gt;Node15</title>
<path fill="none" stroke="midnightblue" d="M848,-56.083C848,-49.0059 848,-38.8611 848,-29.9865"/>
<polygon fill="midnightblue" stroke="midnightblue" points="851.5,-29.751 848,-19.7511 844.5,-29.7511 851.5,-29.751"/>
</g>
<!-- Node16&#45;&gt;Node10 -->
<g id="edge40" class="edge"><title>Node16&#45;&gt;Node10</title>
<path fill="none" stroke="midnightblue" d="M718.773,-56.324C702.649,-47.7034 677.7,-34.3643 659.036,-24.3855"/>
<polygon fill="midnightblue" stroke="midnightblue" points="660.656,-21.283 650.187,-19.6545 657.356,-27.456 660.656,-21.283"/>
</g>
</g>
</svg>
        <g id="navigator" transform="translate(0 0)" fill="#404254">
                <rect fill="#f2f5e9" fill-opacity="0.5" stroke="#606060" stroke-width=".5" x="0" y="0" width="60" height="60"/>
                <use id="zoomplus" xlink:href="#zoomPlus" x="17" y="9" onmousedown="handleZoom(evt,'in')"/>
                <use id="zoomminus" xlink:href="#zoomMin" x="42" y="9" onmousedown="handleZoom(evt,'out')"/>
                <use id="reset" xlink:href="#resetDef" x="30" y="36" onmousedown="handleReset()"/>
                <g id="arrowUp" xlink:href="#dirArrow" transform="translate(30 24)" onmousedown="handlePan(0,-1)">
                  <use xlink:href="#rim" fill="#404040">
                        <set attributeName="fill" to="#808080" begin="arrowUp.mouseover" end="arrowUp.mouseout"/>
                  </use>
                  <path fill="none" stroke="white" stroke-width="1.5" d="M0,-3.0v7 M-2.5,-0.5L0,-3.0L2.5,-0.5"/>
                </g>
                <g id="arrowRight" xlink:href="#dirArrow" transform="rotate(90) translate(36 -43)" onmousedown="handlePan(1,0)">
                  <use xlink:href="#rim" fill="#404040">
                        <set attributeName="fill" to="#808080" begin="arrowRight.mouseover" end="arrowRight.mouseout"/>
                  </use>
                  <path fill="none" stroke="white" stroke-width="1.5" d="M0,-3.0v7 M-2.5,-0.5L0,-3.0L2.5,-0.5"/>
                </g>
                <g id="arrowDown" xlink:href="#dirArrow" transform="rotate(180) translate(-30 -48)" onmousedown="handlePan(0,1)">
                  <use xlink:href="#rim" fill="#404040">
                        <set attributeName="fill" to="#808080" begin="arrowDown.mouseover" end="arrowDown.mouseout"/>
                  </use>
                  <path fill="none" stroke="white" stroke-width="1.5" d="M0,-3.0v7 M-2.5,-0.5L0,-3.0L2.5,-0.5"/>
                </g>
                <g id="arrowLeft" xlink:href="#dirArrow" transform="rotate(270) translate(-36 17)" onmousedown="handlePan(-1,0)">
                  <use xlink:href="#rim" fill="#404040">
                        <set attributeName="fill" to="#808080" begin="arrowLeft.mouseover" end="arrowLeft.mouseout"/>
                  </use>
                  <path fill="none" stroke="white" stroke-width="1.5" d="M0,-3.0v7 M-2.5,-0.5L0,-3.0L2.5,-0.5"/>
                </g>
        </g>
        <svg viewBox="0 0 25 25" width="100%" height="30px" preserveAspectRatio="xMaxYMin meet"> 
          <g id="printButton" transform="scale(0.4 0.4)" onmousedown="handlePrint(evt)">
            <rect height="23.33753581" id="paper" rx="2" style="fill:#f2f5e9;fill-rule:evenodd;stroke:#111111;stroke-width:3.224;stroke-linejoin:round;" transform="matrix(1.000000,0.000000,-0.339266,0.940691,0.000000,0.000000)" width="25.55231285" x="26.69387353" y="7.36162977"/>
            <rect height="26.272097" id="body" rx="2" style="fill:#404040;fill-rule:evenodd;stroke:#111111;stroke-width:3.125;stroke-linejoin:round;" width="50" x="4.5295201" y="27.078951"/>
            <rect height="8.27750969" id="tray" style="fill:#d2d5c9;fill-rule:evenodd;stroke:#111111;stroke-width:3.125;stroke-linecap:round;stroke-linejoin:round;" width="40" x="10.28778839" y="44.96812282"/>
          </g>
        </svg>
</svg>
