<?xml version="1.0" encoding="UTF-8" standalone="no"?>
<!DOCTYPE svg PUBLIC "-//W3C//DTD SVG 1.1//EN"
 "http://www.w3.org/Graphics/SVG/1.1/DTD/svg11.dtd">
<!-- Generated by graphviz version 2.28.0 (20120217.0315)
 -->
<!-- Title: G Pages: 1 -->
<svg width="133pt" height="98pt"
 viewBox="0.00 0.00 133.00 98.00" xmlns="http://www.w3.org/2000/svg" xmlns:xlink="http://www.w3.org/1999/xlink">
<g id="graph1" class="graph" transform="scale(1 1) rotate(0) translate(4 94)">
<title>G</title>
<!-- Node1 -->
<g id="node1" class="node"><title>Node1</title>
<polygon fill="#bfbfbf" stroke="black" points="-0.5,-69.5 -0.5,-88.5 76.5,-88.5 76.5,-69.5 -0.5,-69.5"/>
<text text-anchor="middle" x="38" y="-76.5" font-family="DejaVuSansMono" font-size="10.00">event_item</text>
</g>
<!-- Node1&#45;&gt;Node1 -->
<g id="edge6" class="edge"><title>Node1&#45;&gt;Node1</title>
<path fill="none" stroke="#9a32cd" stroke-dasharray="5,2" d="M86.8716,-84.042C91.2509,-82.9872 94,-81.3066 94,-79 94,-75.2148 86.5967,-73.1153 76.7352,-72.7013"/>
<polygon fill="#9a32cd" stroke="#9a32cd" points="86.2286,-80.5948 76.7352,-85.2987 87.0899,-87.5416 86.2286,-80.5948"/>
<text text-anchor="middle" x="109.5" y="-82" font-family="DejaVuSansMono" font-size="10.00"> prev</text>
<text text-anchor="middle" x="109.5" y="-71" font-family="DejaVuSansMono" font-size="10.00">next</text>
</g>
<!-- Node2 -->
<g id="node2" class="node"><title>Node2</title>
<a xlink:href="../../d0/deb/event_8c.html#d9/de5/structevent__loop" target="_top" xlink:title="Contains data about the whole event loop.">
<polygon fill="none" stroke="black" points="-0.5,-0.5 -0.5,-19.5 76.5,-19.5 76.5,-0.5 -0.5,-0.5"/>
<text text-anchor="middle" x="38" y="-7.5" font-family="DejaVuSansMono" font-size="10.00">event_loop</text>
</a>
</g>
<!-- Node1&#45;&gt;Node2 -->
<g id="edge4" class="edge"><title>Node1&#45;&gt;Node2</title>
<path fill="none" stroke="#9a32cd" stroke-dasharray="5,2" d="M12.503,-63.3977C3.77536,-56.3922 -2.73445,-47.4689 2,-38 5.91312,-30.1738 13.2929,-24.0275 20.357,-19.5893"/>
<polygon fill="#9a32cd" stroke="#9a32cd" points="10.6808,-66.3942 20.8827,-69.2528 14.6901,-60.6561 10.6808,-66.3942"/>
<text text-anchor="middle" x="23.5" y="-41.5" font-family="DejaVuSansMono" font-size="10.00"> events</text>
</g>
<!-- Node2&#45;&gt;Node1 -->
<g id="edge2" class="edge"><title>Node2&#45;&gt;Node1</title>
<path fill="none" stroke="#9a32cd" stroke-dasharray="5,2" d="M46.4438,-29.0048C47.5018,-31.9532 48.4162,-35.0197 49,-38 51.1322,-48.8846 46.7184,-61.1488 42.8627,-69.1938"/>
<polygon fill="#9a32cd" stroke="#9a32cd" points="49.6531,-27.6069 42.5659,-19.7315 43.195,-30.3076 49.6531,-27.6069"/>
<text text-anchor="middle" x="64.5" y="-41.5" font-family="DejaVuSansMono" font-size="10.00"> func</text>
</g>
</g>
</svg>
