<?xml version="1.0" encoding="UTF-8" standalone="no"?>
<!DOCTYPE svg PUBLIC "-//W3C//DTD SVG 1.1//EN"
 "http://www.w3.org/Graphics/SVG/1.1/DTD/svg11.dtd">
<!-- Generated by graphviz version 2.28.0 (20120217.0315)
 -->
<!-- Title: G Pages: 1 -->
<!--zoomable 140 -->
<svg id="main" version="1.1" xmlns="http://www.w3.org/2000/svg" xmlns:xlink="http://www.w3.org/1999/xlink" xml:space="preserve" onload="init(evt)">
        <defs>
                <circle id="rim" cx="0" cy="0" r="7"/>
                <circle id="rim2" cx="0" cy="0" r="3.5"/>
                <g id="zoomPlus">
                        <use xlink:href="#rim" fill="#404040">
                                <set attributeName="fill" to="#808080" begin="zoomplus.mouseover" end="zoomplus.mouseout"/>
                        </use>
                        <path d="M-4,0h8M0,-4v8" fill="none" stroke="white" stroke-width="1.5" pointer-events="none"/>
                </g>
                <g id="zoomMin">
                        <use xlink:href="#rim" fill="#404040">
                                <set attributeName="fill" to="#808080" begin="zoomminus.mouseover" end="zoomminus.mouseout"/>
                        </use>
                        <path d="M-4,0h8" fill="none" stroke="white" stroke-width="1.5" pointer-events="none"/>
                </g>
                <g id="dirArrow">
                        <path fill="none" stroke="white" stroke-width="1.5" d="M0,-3.0v7 M-2.5,-0.5L0,-3.0L2.5,-0.5"/>
                </g>
               <g id="resetDef">
                       <use xlink:href="#rim2" fill="#404040">
                               <set attributeName="fill" to="#808080" begin="reset.mouseover" end="reset.mouseout"/>
                       </use>
               </g>
        </defs>

<script type="text/javascript">
var viewWidth = 1343;
var viewHeight = 140;
var sectionId = 'dynsection-0';
</script>
<script xlink:href="../../svgpan.js"/>
<svg id="graph" class="graph">
<g id="viewport">
<title>G</title>
<!-- Node1 -->
<g id="node1" class="node"><title>Node1</title>
<polygon fill="#bfbfbf" stroke="black" points="580.749,-112.5 580.749,-131.5 717.749,-131.5 717.749,-112.5 580.749,-112.5"/>
<text text-anchor="middle" x="649.249" y="-119.5" font-family="DejaVuSansMono" font-size="10.00">src/xmp3_multicast.c</text>
</g>
<!-- Node2 -->
<g id="node3" class="node"><title>Node2</title>
<polygon fill="none" stroke="#bfbfbf" points="201.749,-0.5 201.749,-19.5 272.749,-19.5 272.749,-0.5 201.749,-0.5"/>
<text text-anchor="middle" x="237.249" y="-7.5" font-family="DejaVuSansMono" font-size="10.00">stdbool.h</text>
</g>
<!-- Node1&#45;&gt;Node2 -->
<g id="edge2" class="edge"><title>Node1&#45;&gt;Node2</title>
<path fill="none" stroke="midnightblue" d="M580.583,-121.314C423.68,-121.313 49.4317,-116.971 11.2486,-76 -42.0288,-18.8324 110.703,-10.8143 191.169,-10.4076"/>
<polygon fill="midnightblue" stroke="midnightblue" points="191.549,-13.9073 201.545,-10.3951 191.541,-6.90729 191.549,-13.9073"/>
</g>
<!-- Node3 -->
<g id="node5" class="node"><title>Node3</title>
<polygon fill="none" stroke="#bfbfbf" points="653.749,-56.5 653.749,-75.5 718.749,-75.5 718.749,-56.5 653.749,-56.5"/>
<text text-anchor="middle" x="686.249" y="-63.5" font-family="DejaVuSansMono" font-size="10.00">stdint.h</text>
</g>
<!-- Node1&#45;&gt;Node3 -->
<g id="edge4" class="edge"><title>Node1&#45;&gt;Node3</title>
<path fill="none" stroke="midnightblue" d="M655.358,-112.083C660.531,-104.534 668.095,-93.4948 674.443,-84.2298"/>
<polygon fill="midnightblue" stroke="midnightblue" points="677.487,-85.9787 680.252,-75.7511 671.713,-82.0221 677.487,-85.9787"/>
</g>
<!-- Node4 -->
<g id="node7" class="node"><title>Node4</title>
<polygon fill="none" stroke="#bfbfbf" points="736.749,-56.5 736.749,-75.5 801.749,-75.5 801.749,-56.5 736.749,-56.5"/>
<text text-anchor="middle" x="769.249" y="-63.5" font-family="DejaVuSansMono" font-size="10.00">stdlib.h</text>
</g>
<!-- Node1&#45;&gt;Node4 -->
<g id="edge6" class="edge"><title>Node1&#45;&gt;Node4</title>
<path fill="none" stroke="midnightblue" d="M668.263,-112.444C687.836,-103.636 718.556,-89.8116 740.978,-79.722"/>
<polygon fill="midnightblue" stroke="midnightblue" points="742.64,-82.8119 750.323,-75.5164 739.768,-76.4284 742.64,-82.8119"/>
</g>
<!-- Node5 -->
<g id="node9" class="node"><title>Node5</title>
<polygon fill="none" stroke="#bfbfbf" points="499.749,-0.5 499.749,-19.5 564.749,-19.5 564.749,-0.5 499.749,-0.5"/>
<text text-anchor="middle" x="532.249" y="-7.5" font-family="DejaVuSansMono" font-size="10.00">string.h</text>
</g>
<!-- Node1&#45;&gt;Node5 -->
<g id="edge8" class="edge"><title>Node1&#45;&gt;Node5</title>
<path fill="none" stroke="midnightblue" d="M632.168,-112.388C617.169,-104.302 595.3,-91.1968 579.249,-76 564.295,-61.8425 550.934,-42.3526 542.316,-28.4145"/>
<polygon fill="midnightblue" stroke="midnightblue" points="545.288,-26.565 537.146,-19.7859 539.284,-30.1629 545.288,-26.565"/>
</g>
<!-- Node6 -->
<g id="node11" class="node"><title>Node6</title>
<polygon fill="none" stroke="#bfbfbf" points="819.749,-56.5 819.749,-75.5 884.749,-75.5 884.749,-56.5 819.749,-56.5"/>
<text text-anchor="middle" x="852.249" y="-63.5" font-family="DejaVuSansMono" font-size="10.00">unistd.h</text>
</g>
<!-- Node1&#45;&gt;Node6 -->
<g id="edge10" class="edge"><title>Node1&#45;&gt;Node6</title>
<path fill="none" stroke="midnightblue" d="M681.415,-112.444C716.308,-103.162 772.142,-88.3093 810.419,-78.127"/>
<polygon fill="midnightblue" stroke="midnightblue" points="811.469,-81.4696 820.233,-75.5164 809.669,-74.7048 811.469,-81.4696"/>
</g>
<!-- Node7 -->
<g id="node13" class="node"><title>Node7</title>
<polygon fill="none" stroke="#bfbfbf" points="902.749,-56.5 902.749,-75.5 985.749,-75.5 985.749,-56.5 902.749,-56.5"/>
<text text-anchor="middle" x="944.249" y="-63.5" font-family="DejaVuSansMono" font-size="10.00">arpa/inet.h</text>
</g>
<!-- Node1&#45;&gt;Node7 -->
<g id="edge12" class="edge"><title>Node1&#45;&gt;Node7</title>
<path fill="none" stroke="midnightblue" d="M695.992,-112.444C749.523,-102.645 836.969,-86.6376 892.509,-76.4709"/>
<polygon fill="midnightblue" stroke="midnightblue" points="893.287,-79.8868 902.493,-74.6433 892.027,-73.0012 893.287,-79.8868"/>
</g>
<!-- Node8 -->
<g id="node15" class="node"><title>Node8</title>
<polygon fill="none" stroke="#bfbfbf" points="1003.75,-56.5 1003.75,-75.5 1092.75,-75.5 1092.75,-56.5 1003.75,-56.5"/>
<text text-anchor="middle" x="1048.25" y="-63.5" font-family="DejaVuSansMono" font-size="10.00">sys/socket.h</text>
</g>
<!-- Node1&#45;&gt;Node8 -->
<g id="edge14" class="edge"><title>Node1&#45;&gt;Node8</title>
<path fill="none" stroke="midnightblue" d="M717.752,-112.791C785.193,-104.544 891.387,-91.1185 993.312,-76.0933"/>
<polygon fill="midnightblue" stroke="midnightblue" points="994.1,-79.515 1003.48,-74.5871 993.074,-72.5905 994.1,-79.515"/>
</g>
<!-- Node9 -->
<g id="node17" class="node"><title>Node9</title>
<polygon fill="none" stroke="#bfbfbf" points="1110.75,-56.5 1110.75,-75.5 1193.75,-75.5 1193.75,-56.5 1110.75,-56.5"/>
<text text-anchor="middle" x="1152.25" y="-63.5" font-family="DejaVuSansMono" font-size="10.00">sys/types.h</text>
</g>
<!-- Node1&#45;&gt;Node9 -->
<g id="edge16" class="edge"><title>Node1&#45;&gt;Node9</title>
<path fill="none" stroke="midnightblue" d="M717.974,-115.781C804.653,-108.835 958.48,-95.3058 1100.35,-76.0227"/>
<polygon fill="midnightblue" stroke="midnightblue" points="1101.11,-79.4511 1110.54,-74.6244 1100.16,-72.5161 1101.11,-79.4511"/>
</g>
<!-- Node10 -->
<g id="node19" class="node"><title>Node10</title>
<a xlink:href="../../dd/d20/event_8h.html" target="_top" xlink:title="Simple event loop.">
<polygon fill="none" stroke="black" points="1211.75,-56.5 1211.75,-75.5 1270.75,-75.5 1270.75,-56.5 1211.75,-56.5"/>
<text text-anchor="middle" x="1241.25" y="-63.5" font-family="DejaVuSansMono" font-size="10.00">event.h</text>
</a>
</g>
<!-- Node1&#45;&gt;Node10 -->
<g id="edge18" class="edge"><title>Node1&#45;&gt;Node10</title>
<path fill="none" stroke="midnightblue" d="M718.164,-118.616C821.263,-114.338 1021.84,-103.264 1201.62,-75.8582"/>
<polygon fill="midnightblue" stroke="midnightblue" points="1202.18,-79.3144 1211.52,-74.3289 1201.11,-72.3964 1202.18,-79.3144"/>
</g>
<!-- Node11 -->
<g id="node21" class="node"><title>Node11</title>
<a xlink:href="../../d6/d24/jid_8h.html" target="_top" xlink:title="Functions and data structure to manipulate a JID.">
<polygon fill="none" stroke="black" points="1288.75,-56.5 1288.75,-75.5 1335.75,-75.5 1335.75,-56.5 1288.75,-56.5"/>
<text text-anchor="middle" x="1312.25" y="-63.5" font-family="DejaVuSansMono" font-size="10.00">jid.h</text>
</a>
</g>
<!-- Node1&#45;&gt;Node11 -->
<g id="edge20" class="edge"><title>Node1&#45;&gt;Node11</title>
<path fill="none" stroke="midnightblue" d="M717.826,-120.462C832.308,-118.609 1069.55,-110.697 1278.64,-75.7341"/>
<polygon fill="midnightblue" stroke="midnightblue" points="1279.31,-79.172 1288.58,-74.0487 1278.13,-72.2706 1279.31,-79.172"/>
</g>
<!-- Node12 -->
<g id="node23" class="node"><title>Node12</title>
<a xlink:href="../../d7/d7f/log_8h.html" target="_top" xlink:title="Debugging and logging functions/macros.">
<polygon fill="none" stroke="black" points="588.749,-56.5 588.749,-75.5 635.749,-75.5 635.749,-56.5 588.749,-56.5"/>
<text text-anchor="middle" x="612.249" y="-63.5" font-family="DejaVuSansMono" font-size="10.00">log.h</text>
</a>
</g>
<!-- Node1&#45;&gt;Node12 -->
<g id="edge22" class="edge"><title>Node1&#45;&gt;Node12</title>
<path fill="none" stroke="midnightblue" d="M643.139,-112.083C637.966,-104.534 630.402,-93.4948 624.054,-84.2298"/>
<polygon fill="midnightblue" stroke="midnightblue" points="626.784,-82.0221 618.245,-75.7511 621.01,-85.9787 626.784,-82.0221"/>
</g>
<!-- Node15 -->
<g id="node30" class="node"><title>Node15</title>
<a xlink:href="../../d5/d60/utils_8h.html" target="_top" xlink:title="Miscellaneous utility functions.">
<polygon fill="none" stroke="black" points="472.749,-56.5 472.749,-75.5 531.749,-75.5 531.749,-56.5 472.749,-56.5"/>
<text text-anchor="middle" x="502.249" y="-63.5" font-family="DejaVuSansMono" font-size="10.00">utils.h</text>
</a>
</g>
<!-- Node1&#45;&gt;Node15 -->
<g id="edge30" class="edge"><title>Node1&#45;&gt;Node15</title>
<path fill="none" stroke="midnightblue" d="M625.956,-112.444C601.441,-103.438 562.652,-89.1891 535.049,-79.049"/>
<polygon fill="midnightblue" stroke="midnightblue" points="536.026,-75.6793 525.432,-75.5164 533.612,-82.25 536.026,-75.6793"/>
</g>
<!-- Node16 -->
<g id="node34" class="node"><title>Node16</title>
<a xlink:href="../../d5/d89/xmp3__module_8h.html" target="_top" xlink:title="Defines structures and functions for XMP3 extension modules.">
<polygon fill="none" stroke="black" points="20.7486,-56.5 20.7486,-75.5 115.749,-75.5 115.749,-56.5 20.7486,-56.5"/>
<text text-anchor="middle" x="68.2486" y="-63.5" font-family="DejaVuSansMono" font-size="10.00">xmp3_module.h</text>
</a>
</g>
<!-- Node1&#45;&gt;Node16 -->
<g id="edge36" class="edge"><title>Node1&#45;&gt;Node16</title>
<path fill="none" stroke="midnightblue" d="M580.703,-116.746C482.263,-110.277 294.951,-96.628 125.95,-76.1323"/>
<polygon fill="midnightblue" stroke="midnightblue" points="126.225,-72.6398 115.873,-74.8993 125.374,-79.588 126.225,-72.6398"/>
</g>
<!-- Node17 -->
<g id="node37" class="node"><title>Node17</title>
<a xlink:href="../../d8/d55/xmpp__parser_8h.html" target="_top" xlink:title="DOM&#45;style XML parser for XMPP stanzas.">
<polygon fill="none" stroke="black" points="133.749,-56.5 133.749,-75.5 228.749,-75.5 228.749,-56.5 133.749,-56.5"/>
<text text-anchor="middle" x="181.249" y="-63.5" font-family="DejaVuSansMono" font-size="10.00">xmpp_parser.h</text>
</a>
</g>
<!-- Node1&#45;&gt;Node17 -->
<g id="edge40" class="edge"><title>Node1&#45;&gt;Node17</title>
<path fill="none" stroke="midnightblue" d="M580.594,-114.573C500.869,-106.868 365.15,-93.0096 239.101,-76.196"/>
<polygon fill="midnightblue" stroke="midnightblue" points="239.26,-72.686 228.883,-74.8235 238.328,-79.6237 239.26,-72.686"/>
</g>
<!-- Node18 -->
<g id="node40" class="node"><title>Node18</title>
<a xlink:href="../../d1/d2e/xmpp__server_8h.html" target="_top" xlink:title="Main XMPP server data/functions.">
<polygon fill="none" stroke="black" points="359.749,-56.5 359.749,-75.5 454.749,-75.5 454.749,-56.5 359.749,-56.5"/>
<text text-anchor="middle" x="407.249" y="-63.5" font-family="DejaVuSansMono" font-size="10.00">xmpp_server.h</text>
</a>
</g>
<!-- Node1&#45;&gt;Node18 -->
<g id="edge44" class="edge"><title>Node1&#45;&gt;Node18</title>
<path fill="none" stroke="midnightblue" d="M610.903,-112.444C568.775,-103.043 501.042,-87.9291 455.377,-77.7393"/>
<polygon fill="midnightblue" stroke="midnightblue" points="455.937,-74.2784 445.415,-75.5164 454.412,-81.1103 455.937,-74.2784"/>
</g>
<!-- Node20 -->
<g id="node45" class="node"><title>Node20</title>
<a xlink:href="../../dd/d21/xmpp__stanza_8h.html" target="_top" xlink:title="Represents top&#45;level XMPP stanzas received from clients.">
<polygon fill="none" stroke="black" points="246.749,-56.5 246.749,-75.5 341.749,-75.5 341.749,-56.5 246.749,-56.5"/>
<text text-anchor="middle" x="294.249" y="-63.5" font-family="DejaVuSansMono" font-size="10.00">xmpp_stanza.h</text>
</a>
</g>
<!-- Node1&#45;&gt;Node20 -->
<g id="edge50" class="edge"><title>Node1&#45;&gt;Node20</title>
<path fill="none" stroke="midnightblue" d="M591.344,-112.46C533.269,-103.855 440.986,-90.0754 351.905,-76.2469"/>
<polygon fill="midnightblue" stroke="midnightblue" points="352.321,-72.7696 341.902,-74.6918 351.246,-79.6865 352.321,-72.7696"/>
</g>
<!-- Node12&#45;&gt;Node5 -->
<g id="edge28" class="edge"><title>Node12&#45;&gt;Node5</title>
<path fill="none" stroke="midnightblue" d="M599.395,-56.324C587.032,-47.979 568.118,-35.2122 553.511,-25.3524"/>
<polygon fill="midnightblue" stroke="midnightblue" points="555.317,-22.3483 545.07,-19.6545 551.4,-28.1503 555.317,-22.3483"/>
</g>
<!-- Node13 -->
<g id="node25" class="node"><title>Node13</title>
<polygon fill="none" stroke="#bfbfbf" points="659.749,-0.5 659.749,-19.5 718.749,-19.5 718.749,-0.5 659.749,-0.5"/>
<text text-anchor="middle" x="689.249" y="-7.5" font-family="DejaVuSansMono" font-size="10.00">stdio.h</text>
</g>
<!-- Node12&#45;&gt;Node13 -->
<g id="edge24" class="edge"><title>Node12&#45;&gt;Node13</title>
<path fill="none" stroke="midnightblue" d="M624.62,-56.324C636.407,-48.0577 654.381,-35.4527 668.384,-25.6322"/>
<polygon fill="midnightblue" stroke="midnightblue" points="670.73,-28.2619 676.908,-19.6545 666.711,-22.5307 670.73,-28.2619"/>
</g>
<!-- Node14 -->
<g id="node27" class="node"><title>Node14</title>
<polygon fill="none" stroke="#bfbfbf" points="582.749,-0.5 582.749,-19.5 641.749,-19.5 641.749,-0.5 582.749,-0.5"/>
<text text-anchor="middle" x="612.249" y="-7.5" font-family="DejaVuSansMono" font-size="10.00">errno.h</text>
</g>
<!-- Node12&#45;&gt;Node14 -->
<g id="edge26" class="edge"><title>Node12&#45;&gt;Node14</title>
<path fill="none" stroke="midnightblue" d="M612.249,-56.083C612.249,-49.0059 612.249,-38.8611 612.249,-29.9865"/>
<polygon fill="midnightblue" stroke="midnightblue" points="615.749,-29.751 612.249,-19.7511 608.749,-29.7511 615.749,-29.751"/>
</g>
<!-- Node15&#45;&gt;Node2 -->
<g id="edge32" class="edge"><title>Node15&#45;&gt;Node2</title>
<path fill="none" stroke="midnightblue" d="M472.459,-58.0278C469.352,-57.3298 466.238,-56.6424 463.249,-56 400.886,-42.5988 328.538,-28.435 282.834,-19.6569"/>
<polygon fill="midnightblue" stroke="midnightblue" points="283.417,-16.2051 272.937,-17.7603 282.1,-23.08 283.417,-16.2051"/>
</g>
<!-- Node15&#45;&gt;Node5 -->
<g id="edge34" class="edge"><title>Node15&#45;&gt;Node5</title>
<path fill="none" stroke="midnightblue" d="M507.202,-56.083C511.353,-48.6127 517.402,-37.7244 522.515,-28.5199"/>
<polygon fill="midnightblue" stroke="midnightblue" points="525.59,-30.1924 527.387,-19.7511 519.471,-26.7929 525.59,-30.1924"/>
</g>
<!-- Node16&#45;&gt;Node2 -->
<g id="edge38" class="edge"><title>Node16&#45;&gt;Node2</title>
<path fill="none" stroke="midnightblue" d="M95.0271,-56.4435C123.582,-47.3196 168.981,-32.8133 200.785,-22.6509"/>
<polygon fill="midnightblue" stroke="midnightblue" points="202.135,-25.8941 210.595,-19.5164 200.004,-19.2262 202.135,-25.8941"/>
</g>
<!-- Node17&#45;&gt;Node2 -->
<g id="edge42" class="edge"><title>Node17&#45;&gt;Node2</title>
<path fill="none" stroke="midnightblue" d="M190.246,-56.324C198.443,-48.4196 210.754,-36.5482 220.721,-26.9377"/>
<polygon fill="midnightblue" stroke="midnightblue" points="223.318,-29.2947 228.087,-19.8339 218.46,-24.2558 223.318,-29.2947"/>
</g>
<!-- Node18&#45;&gt;Node2 -->
<g id="edge46" class="edge"><title>Node18&#45;&gt;Node2</title>
<path fill="none" stroke="midnightblue" d="M380.312,-56.4435C351.588,-47.3196 305.92,-32.8133 273.927,-22.6509"/>
<polygon fill="midnightblue" stroke="midnightblue" points="274.65,-19.2081 264.06,-19.5164 272.531,-25.8797 274.65,-19.2081"/>
</g>
<!-- Node19 -->
<g id="node43" class="node"><title>Node19</title>
<polygon fill="none" stroke="#bfbfbf" points="359.749,-0.5 359.749,-19.5 454.749,-19.5 454.749,-0.5 359.749,-0.5"/>
<text text-anchor="middle" x="407.249" y="-7.5" font-family="DejaVuSansMono" font-size="10.00">openssl/ssl.h</text>
</g>
<!-- Node18&#45;&gt;Node19 -->
<g id="edge48" class="edge"><title>Node18&#45;&gt;Node19</title>
<path fill="none" stroke="midnightblue" d="M407.249,-56.083C407.249,-49.0059 407.249,-38.8611 407.249,-29.9865"/>
<polygon fill="midnightblue" stroke="midnightblue" points="410.749,-29.751 407.249,-19.7511 403.749,-29.7511 410.749,-29.751"/>
</g>
<!-- Node20&#45;&gt;Node2 -->
<g id="edge52" class="edge"><title>Node20&#45;&gt;Node2</title>
<path fill="none" stroke="midnightblue" d="M285.091,-56.324C276.747,-48.4196 264.216,-36.5482 254.072,-26.9377"/>
<polygon fill="midnightblue" stroke="midnightblue" points="256.24,-24.1705 246.573,-19.8339 251.426,-29.2522 256.24,-24.1705"/>
</g>
</g>
</svg>
        <g id="navigator" transform="translate(0 0)" fill="#404254">
                <rect fill="#f2f5e9" fill-opacity="0.5" stroke="#606060" stroke-width=".5" x="0" y="0" width="60" height="60"/>
                <use id="zoomplus" xlink:href="#zoomPlus" x="17" y="9" onmousedown="handleZoom(evt,'in')"/>
                <use id="zoomminus" xlink:href="#zoomMin" x="42" y="9" onmousedown="handleZoom(evt,'out')"/>
                <use id="reset" xlink:href="#resetDef" x="30" y="36" onmousedown="handleReset()"/>
                <g id="arrowUp" xlink:href="#dirArrow" transform="translate(30 24)" onmousedown="handlePan(0,-1)">
                  <use xlink:href="#rim" fill="#404040">
                        <set attributeName="fill" to="#808080" begin="arrowUp.mouseover" end="arrowUp.mouseout"/>
                  </use>
                  <path fill="none" stroke="white" stroke-width="1.5" d="M0,-3.0v7 M-2.5,-0.5L0,-3.0L2.5,-0.5"/>
                </g>
                <g id="arrowRight" xlink:href="#dirArrow" transform="rotate(90) translate(36 -43)" onmousedown="handlePan(1,0)">
                  <use xlink:href="#rim" fill="#404040">
                        <set attributeName="fill" to="#808080" begin="arrowRight.mouseover" end="arrowRight.mouseout"/>
                  </use>
                  <path fill="none" stroke="white" stroke-width="1.5" d="M0,-3.0v7 M-2.5,-0.5L0,-3.0L2.5,-0.5"/>
                </g>
                <g id="arrowDown" xlink:href="#dirArrow" transform="rotate(180) translate(-30 -48)" onmousedown="handlePan(0,1)">
                  <use xlink:href="#rim" fill="#404040">
                        <set attributeName="fill" to="#808080" begin="arrowDown.mouseover" end="arrowDown.mouseout"/>
                  </use>
                  <path fill="none" stroke="white" stroke-width="1.5" d="M0,-3.0v7 M-2.5,-0.5L0,-3.0L2.5,-0.5"/>
                </g>
                <g id="arrowLeft" xlink:href="#dirArrow" transform="rotate(270) translate(-36 17)" onmousedown="handlePan(-1,0)">
                  <use xlink:href="#rim" fill="#404040">
                        <set attributeName="fill" to="#808080" begin="arrowLeft.mouseover" end="arrowLeft.mouseout"/>
                  </use>
                  <path fill="none" stroke="white" stroke-width="1.5" d="M0,-3.0v7 M-2.5,-0.5L0,-3.0L2.5,-0.5"/>
                </g>
        </g>
        <svg viewBox="0 0 25 25" width="100%" height="30px" preserveAspectRatio="xMaxYMin meet"> 
          <g id="printButton" transform="scale(0.4 0.4)" onmousedown="handlePrint(evt)">
            <rect height="23.33753581" id="paper" rx="2" style="fill:#f2f5e9;fill-rule:evenodd;stroke:#111111;stroke-width:3.224;stroke-linejoin:round;" transform="matrix(1.000000,0.000000,-0.339266,0.940691,0.000000,0.000000)" width="25.55231285" x="26.69387353" y="7.36162977"/>
            <rect height="26.272097" id="body" rx="2" style="fill:#404040;fill-rule:evenodd;stroke:#111111;stroke-width:3.125;stroke-linejoin:round;" width="50" x="4.5295201" y="27.078951"/>
            <rect height="8.27750969" id="tray" style="fill:#d2d5c9;fill-rule:evenodd;stroke:#111111;stroke-width:3.125;stroke-linecap:round;stroke-linejoin:round;" width="40" x="10.28778839" y="44.96812282"/>
          </g>
        </svg>
</svg>
