<?xml version="1.0" encoding="UTF-8" standalone="no"?>
<!DOCTYPE svg PUBLIC "-//W3C//DTD SVG 1.1//EN"
 "http://www.w3.org/Graphics/SVG/1.1/DTD/svg11.dtd">
<!-- Generated by graphviz version 2.28.0 (20120217.0315)
 -->
<!-- Title: G Pages: 1 -->
<svg width="174pt" height="166pt"
 viewBox="0.00 0.00 174.09 166.00" xmlns="http://www.w3.org/2000/svg" xmlns:xlink="http://www.w3.org/1999/xlink">
<g id="graph1" class="graph" transform="scale(1 1) rotate(0) translate(4 162)">
<title>G</title>
<!-- Node1 -->
<g id="node1" class="node"><title>Node1</title>
<polygon fill="#bfbfbf" stroke="black" points="-0.407157,-0.5 -0.407157,-19.5 40.5928,-19.5 40.5928,-0.5 -0.407157,-0.5"/>
<text text-anchor="middle" x="20.0928" y="-7.5" font-family="DejaVuSansMono" font-size="10.00">room</text>
</g>
<!-- Node2 -->
<g id="node2" class="node"><title>Node2</title>
<a xlink:href="../../d7/d71/xep__muc_8c.html#d3/d6d/structroom__client" target="_top" xlink:title="Represents a particular client in a chat room.">
<polygon fill="none" stroke="black" points="34.5928,-69.5 34.5928,-88.5 117.593,-88.5 117.593,-69.5 34.5928,-69.5"/>
<text text-anchor="middle" x="76.0928" y="-76.5" font-family="DejaVuSansMono" font-size="10.00">room_client</text>
</a>
</g>
<!-- Node2&#45;&gt;Node1 -->
<g id="edge2" class="edge"><title>Node2&#45;&gt;Node1</title>
<path fill="none" stroke="#9a32cd" stroke-dasharray="5,2" d="M62.1656,-61.337C51.0765,-48.0697 36.0081,-30.0414 27.2386,-19.5494"/>
<polygon fill="#9a32cd" stroke="#9a32cd" points="59.6732,-63.8127 68.7718,-69.2409 65.0442,-59.3235 59.6732,-63.8127"/>
<text text-anchor="middle" x="75.5928" y="-41.5" font-family="DejaVuSansMono" font-size="10.00"> clients</text>
</g>
<!-- Node2&#45;&gt;Node2 -->
<g id="edge4" class="edge"><title>Node2&#45;&gt;Node2</title>
<path fill="none" stroke="#9a32cd" stroke-dasharray="5,2" d="M127.943,-83.9574C132.347,-82.8984 135.093,-81.2459 135.093,-79 135.093,-75.3145 127.698,-73.2269 117.718,-72.7374"/>
<polygon fill="#9a32cd" stroke="#9a32cd" points="127.194,-80.5245 117.718,-85.2626 128.081,-87.4682 127.194,-80.5245"/>
<text text-anchor="middle" x="150.593" y="-82" font-family="DejaVuSansMono" font-size="10.00"> prev</text>
<text text-anchor="middle" x="150.593" y="-71" font-family="DejaVuSansMono" font-size="10.00">next</text>
</g>
<!-- Node3 -->
<g id="node5" class="node"><title>Node3</title>
<a xlink:href="../../d3/d5a/jid_8c.html#df/d09/structjid" target="_top" xlink:title="Represents a JID (local/resource).">
<polygon fill="none" stroke="black" points="2.59284,-138.5 2.59284,-157.5 37.5928,-157.5 37.5928,-138.5 2.59284,-138.5"/>
<text text-anchor="middle" x="20.0928" y="-145.5" font-family="DejaVuSansMono" font-size="10.00">jid</text>
</a>
</g>
<!-- Node3&#45;&gt;Node1 -->
<g id="edge8" class="edge"><title>Node3&#45;&gt;Node1</title>
<path fill="none" stroke="#9a32cd" stroke-dasharray="5,2" d="M12.4279,-128.983C8.1564,-117.952 3.27073,-103.421 1.09284,-90 -3.10999,-64.1009 8.82438,-34.1329 15.6652,-19.6806"/>
<polygon fill="#9a32cd" stroke="#9a32cd" points="9.22104,-130.389 16.2266,-138.337 15.7066,-127.755 9.22104,-130.389"/>
<text text-anchor="middle" x="13.5928" y="-76.5" font-family="DejaVuSansMono" font-size="10.00"> jid</text>
</g>
<!-- Node3&#45;&gt;Node2 -->
<g id="edge6" class="edge"><title>Node3&#45;&gt;Node2</title>
<path fill="none" stroke="#9a32cd" stroke-dasharray="5,2" d="M34.0201,-130.337C45.1092,-117.07 60.1776,-99.0414 68.9471,-88.5494"/>
<polygon fill="#9a32cd" stroke="#9a32cd" points="31.1415,-128.323 27.4139,-138.241 36.5125,-132.813 31.1415,-128.323"/>
<text text-anchor="middle" x="84.5928" y="-111.5" font-family="DejaVuSansMono" font-size="10.00"> client_jid</text>
</g>
</g>
</svg>
