<?xml version="1.0" encoding="UTF-8" standalone="no"?>
<!DOCTYPE svg PUBLIC "-//W3C//DTD SVG 1.1//EN"
 "http://www.w3.org/Graphics/SVG/1.1/DTD/svg11.dtd">
<!-- Generated by graphviz version 2.28.0 (20120217.0315)
 -->
<!-- Title: G Pages: 1 -->
<!--zoomable 327 -->
<svg id="main" version="1.1" xmlns="http://www.w3.org/2000/svg" xmlns:xlink="http://www.w3.org/1999/xlink" xml:space="preserve" onload="init(evt)">
        <defs>
                <circle id="rim" cx="0" cy="0" r="7"/>
                <circle id="rim2" cx="0" cy="0" r="3.5"/>
                <g id="zoomPlus">
                        <use xlink:href="#rim" fill="#404040">
                                <set attributeName="fill" to="#808080" begin="zoomplus.mouseover" end="zoomplus.mouseout"/>
                        </use>
                        <path d="M-4,0h8M0,-4v8" fill="none" stroke="white" stroke-width="1.5" pointer-events="none"/>
                </g>
                <g id="zoomMin">
                        <use xlink:href="#rim" fill="#404040">
                                <set attributeName="fill" to="#808080" begin="zoomminus.mouseover" end="zoomminus.mouseout"/>
                        </use>
                        <path d="M-4,0h8" fill="none" stroke="white" stroke-width="1.5" pointer-events="none"/>
                </g>
                <g id="dirArrow">
                        <path fill="none" stroke="white" stroke-width="1.5" d="M0,-3.0v7 M-2.5,-0.5L0,-3.0L2.5,-0.5"/>
                </g>
               <g id="resetDef">
                       <use xlink:href="#rim2" fill="#404040">
                               <set attributeName="fill" to="#808080" begin="reset.mouseover" end="reset.mouseout"/>
                       </use>
               </g>
        </defs>

<script type="text/javascript">
var viewWidth = 1982;
var viewHeight = 327;
var sectionId = 'dynsection-4';
</script>
<script xlink:href="../../svgpan.js"/>
<svg id="graph" class="graph">
<g id="viewport">
<title>G</title>
<!-- Node1 -->
<g id="node1" class="node"><title>Node1</title>
<polygon fill="#bfbfbf" stroke="black" points="0.5,-28.5 0.5,-47.5 77.5,-47.5 77.5,-28.5 0.5,-28.5"/>
<text text-anchor="middle" x="39" y="-35.5" font-family="DejaVuSansMono" font-size="10.00">jid_domain</text>
</g>
<!-- Node2 -->
<g id="node3" class="node"><title>Node2</title>
<a xlink:href="../../d6/d24/jid_8h.html#a6da80c5b44d3c4ef896850a5d1d790b0" target="_top" xlink:title="Allocate and initialize a new JID from an existing JID structure.">
<polygon fill="none" stroke="black" points="129.5,-161.5 129.5,-180.5 242.5,-180.5 242.5,-161.5 129.5,-161.5"/>
<text text-anchor="middle" x="186" y="-168.5" font-family="DejaVuSansMono" font-size="10.00">jid_new_from_jid</text>
</a>
</g>
<!-- Node1&#45;&gt;Node2 -->
<g id="edge2" class="edge"><title>Node1&#45;&gt;Node2</title>
<path fill="none" stroke="midnightblue" d="M57.8132,-54.339C88.2902,-82.2938 149.541,-138.475 174.275,-161.163"/>
<polygon fill="midnightblue" stroke="midnightblue" points="60.1634,-51.7453 50.428,-47.565 55.4316,-56.9039 60.1634,-51.7453"/>
</g>
<!-- Node14 -->
<g id="node30" class="node"><title>Node14</title>
<a xlink:href="../../df/da9/xmpp__auth_8c.html#afb770a216868aa3fb43813b19d2a0115" target="_top" xlink:title="Begins SASL PLAIN authentication.">
<polygon fill="none" stroke="black" points="864.5,-9.5 864.5,-28.5 983.5,-28.5 983.5,-9.5 864.5,-9.5"/>
<text text-anchor="middle" x="924" y="-16.5" font-family="DejaVuSansMono" font-size="10.00">handle_sasl_plain</text>
</a>
</g>
<!-- Node1&#45;&gt;Node14 -->
<g id="edge62" class="edge"><title>Node1&#45;&gt;Node14</title>
<path fill="none" stroke="midnightblue" d="M81.8612,-25.8742C92.284,-23.2374 103.486,-20.7244 114,-19 227.024,-0.463058 256.466,-7.01295e-15 371,-0 371,-0 371,-0 553,-0 663.149,-7.10543e-15 791.501,-8.50227 864.412,-14.1317"/>
<polygon fill="midnightblue" stroke="midnightblue" points="80.9406,-22.4972 72.1549,-28.4186 82.7156,-29.2685 80.9406,-22.4972"/>
</g>
<!-- Node24 -->
<g id="node52" class="node"><title>Node24</title>
<a xlink:href="../../d6/d24/jid_8h.html#ae6100aaa50b6af23516ebc89e2f8c338" target="_top" xlink:title="Allocate and initialize a new JID from an existing JID without the resource.">
<polygon fill="none" stroke="black" points="114.5,-28.5 114.5,-47.5 257.5,-47.5 257.5,-28.5 114.5,-28.5"/>
<text text-anchor="middle" x="186" y="-35.5" font-family="DejaVuSansMono" font-size="10.00">jid_new_from_jid_bare</text>
</a>
</g>
<!-- Node1&#45;&gt;Node24 -->
<g id="edge56" class="edge"><title>Node1&#45;&gt;Node24</title>
<path fill="none" stroke="midnightblue" d="M87.7989,-38C96.3028,-38 105.322,-38 114.304,-38"/>
<polygon fill="midnightblue" stroke="midnightblue" points="87.7186,-34.5001 77.7185,-38 87.7185,-41.5001 87.7186,-34.5001"/>
</g>
<!-- Node3 -->
<g id="node5" class="node"><title>Node3</title>
<a xlink:href="../../d7/d71/xep__muc_8c.html#acf84f00141033b025df269e540461383" target="_top" xlink:title="handle_message">
<polygon fill="none" stroke="black" points="501.5,-256.5 501.5,-275.5 602.5,-275.5 602.5,-256.5 501.5,-256.5"/>
<text text-anchor="middle" x="552" y="-263.5" font-family="DejaVuSansMono" font-size="10.00">handle_message</text>
</a>
</g>
<!-- Node2&#45;&gt;Node3 -->
<g id="edge4" class="edge"><title>Node2&#45;&gt;Node3</title>
<path fill="none" stroke="midnightblue" d="M203.827,-187.498C223.577,-205.695 258.201,-234.107 294,-247 362.612,-271.711 448.041,-272.657 501.056,-270.083"/>
<polygon fill="midnightblue" stroke="midnightblue" points="206.221,-184.944 196.547,-180.625 201.416,-190.035 206.221,-184.944"/>
</g>
<!-- Node7 -->
<g id="node13" class="node"><title>Node7</title>
<a xlink:href="../../d7/d71/xep__muc_8c.html#a1b52b88e96c04035a9e9f53e6210d149" target="_top" xlink:title="room_new">
<polygon fill="none" stroke="black" points="339.5,-104.5 339.5,-123.5 404.5,-123.5 404.5,-104.5 339.5,-104.5"/>
<text text-anchor="middle" x="372" y="-111.5" font-family="DejaVuSansMono" font-size="10.00">room_new</text>
</a>
</g>
<!-- Node2&#45;&gt;Node7 -->
<g id="edge12" class="edge"><title>Node2&#45;&gt;Node7</title>
<path fill="none" stroke="midnightblue" d="M221.237,-157.863C242.097,-150.104 269.388,-140.387 294,-133 308.77,-128.567 325.355,-124.376 339.339,-121.064"/>
<polygon fill="midnightblue" stroke="midnightblue" points="219.981,-154.596 211.847,-161.385 222.439,-161.15 219.981,-154.596"/>
</g>
<!-- Node10 -->
<g id="node20" class="node"><title>Node10</title>
<a xlink:href="../../d7/d71/xep__muc_8c.html#ad34287dce9e621d00af71d307f7a22dd" target="_top" xlink:title="room_client_new">
<polygon fill="none" stroke="black" points="318.5,-218.5 318.5,-237.5 425.5,-237.5 425.5,-218.5 318.5,-218.5"/>
<text text-anchor="middle" x="372" y="-225.5" font-family="DejaVuSansMono" font-size="10.00">room_client_new</text>
</a>
</g>
<!-- Node2&#45;&gt;Node10 -->
<g id="edge20" class="edge"><title>Node2&#45;&gt;Node10</title>
<path fill="none" stroke="midnightblue" d="M221.237,-184.137C242.097,-191.896 269.388,-201.613 294,-209 305.342,-212.404 317.753,-215.665 329.235,-218.495"/>
<polygon fill="midnightblue" stroke="midnightblue" points="222.439,-180.85 211.847,-180.615 219.981,-187.404 222.439,-180.85"/>
</g>
<!-- Node11 -->
<g id="node23" class="node"><title>Node11</title>
<a xlink:href="../../d7/d71/xep__muc_8c.html#a115281f539cd77f88872ff153ec5b38d" target="_top" xlink:title="send_presence_broadcast">
<polygon fill="none" stroke="black" points="294.5,-142.5 294.5,-161.5 449.5,-161.5 449.5,-142.5 294.5,-142.5"/>
<text text-anchor="middle" x="372" y="-149.5" font-family="DejaVuSansMono" font-size="10.00">send_presence_broadcast</text>
</a>
</g>
<!-- Node2&#45;&gt;Node11 -->
<g id="edge24" class="edge"><title>Node2&#45;&gt;Node11</title>
<path fill="none" stroke="midnightblue" d="M252.834,-164.202C266.315,-162.81 280.614,-161.333 294.435,-159.906"/>
<polygon fill="midnightblue" stroke="midnightblue" points="252.293,-160.739 242.705,-165.248 253.012,-167.702 252.293,-160.739"/>
</g>
<!-- Node12 -->
<g id="node26" class="node"><title>Node12</title>
<a xlink:href="../../df/da9/xmpp__auth_8c.html#a603b4a63af3c4e4af99442805fe89ae8" target="_top" xlink:title="Step 15: Client binds a resource.">
<polygon fill="none" stroke="black" points="501.5,-28.5 501.5,-47.5 602.5,-47.5 602.5,-28.5 501.5,-28.5"/>
<text text-anchor="middle" x="552" y="-35.5" font-family="DejaVuSansMono" font-size="10.00">handle_bind_iq</text>
</a>
</g>
<!-- Node2&#45;&gt;Node12 -->
<g id="edge28" class="edge"><title>Node2&#45;&gt;Node12</title>
<path fill="none" stroke="midnightblue" d="M205.108,-154.644C225.331,-137.256 259.744,-110.213 294,-95 312.953,-86.5834 434.214,-61.4497 503.187,-47.5339"/>
<polygon fill="midnightblue" stroke="midnightblue" points="202.565,-152.219 197.351,-161.442 207.178,-157.483 202.565,-152.219"/>
</g>
<!-- Node22 -->
<g id="node47" class="node"><title>Node22</title>
<a xlink:href="../../d1/d2e/xmpp__server_8h.html#a1c8e466b41f2895d5a0b57ee9f0a4c0b" target="_top" xlink:title="Add an item to the response for disco item queries.">
<polygon fill="none" stroke="black" points="654.5,-294.5 654.5,-313.5 827.5,-313.5 827.5,-294.5 654.5,-294.5"/>
<text text-anchor="middle" x="741" y="-301.5" font-family="DejaVuSansMono" font-size="10.00">xmpp_server_add_disco_item</text>
</a>
</g>
<!-- Node2&#45;&gt;Node22 -->
<g id="edge50" class="edge"><title>Node2&#45;&gt;Node22</title>
<path fill="none" stroke="midnightblue" d="M199.619,-188.94C217.519,-212.743 252.734,-253.863 294,-272 414.994,-325.178 572.312,-321.778 664.127,-313.534"/>
<polygon fill="midnightblue" stroke="midnightblue" points="202.358,-186.756 193.63,-180.75 196.707,-190.888 202.358,-186.756"/>
</g>
<!-- Node23 -->
<g id="node50" class="node"><title>Node23</title>
<a xlink:href="../../d0/df0/xmpp__server_8c.html#af1d37b8251dd106082d3fe8097dd565b" target="_top" xlink:title="stanza_route_new">
<polygon fill="none" stroke="black" points="315.5,-180.5 315.5,-199.5 428.5,-199.5 428.5,-180.5 315.5,-180.5"/>
<text text-anchor="middle" x="372" y="-187.5" font-family="DejaVuSansMono" font-size="10.00">stanza_route_new</text>
</a>
</g>
<!-- Node2&#45;&gt;Node23 -->
<g id="edge54" class="edge"><title>Node2&#45;&gt;Node23</title>
<path fill="none" stroke="midnightblue" d="M252.909,-177.806C273.4,-179.922 295.775,-182.232 315.484,-184.267"/>
<polygon fill="midnightblue" stroke="midnightblue" points="253.012,-174.298 242.705,-176.752 252.293,-181.261 253.012,-174.298"/>
</g>
<!-- Node4 -->
<g id="node7" class="node"><title>Node4</title>
<a xlink:href="../../d7/d71/xep__muc_8c.html#a1798db1c16a1fa62ff8f39fea202a26f" target="_top" xlink:title="stanza_handler">
<polygon fill="none" stroke="black" points="873.5,-256.5 873.5,-275.5 974.5,-275.5 974.5,-256.5 873.5,-256.5"/>
<text text-anchor="middle" x="924" y="-263.5" font-family="DejaVuSansMono" font-size="10.00">stanza_handler</text>
</a>
</g>
<!-- Node3&#45;&gt;Node4 -->
<g id="edge6" class="edge"><title>Node3&#45;&gt;Node4</title>
<path fill="none" stroke="midnightblue" d="M612.845,-266C685.308,-266 806.008,-266 873.482,-266"/>
<polygon fill="midnightblue" stroke="midnightblue" points="612.516,-262.5 602.516,-266 612.516,-269.5 612.516,-262.5"/>
</g>
<!-- Node5 -->
<g id="node9" class="node"><title>Node5</title>
<a xlink:href="../../d7/d71/xep__muc_8c.html#addf05166cf3fbe386ae6650be21ef251" target="_top" xlink:title="xep_muc_start">
<polygon fill="none" stroke="black" points="1032.5,-294.5 1032.5,-313.5 1127.5,-313.5 1127.5,-294.5 1032.5,-294.5"/>
<text text-anchor="middle" x="1080" y="-301.5" font-family="DejaVuSansMono" font-size="10.00">xep_muc_start</text>
</a>
</g>
<!-- Node4&#45;&gt;Node5 -->
<g id="edge8" class="edge"><title>Node4&#45;&gt;Node5</title>
<path fill="none" stroke="midnightblue" d="M973.794,-278.04C995.308,-283.349 1020.23,-289.499 1040.42,-294.48"/>
<polygon fill="midnightblue" stroke="midnightblue" points="974.408,-274.587 963.861,-275.589 972.731,-281.383 974.408,-274.587"/>
</g>
<!-- Node6 -->
<g id="node11" class="node"><title>Node6</title>
<a xlink:href="../../d7/d71/xep__muc_8c.html#a20d385a5584d8014ec4d5774eb79d1de" target="_top" xlink:title="xep_muc_stop">
<polygon fill="none" stroke="black" points="1035.5,-256.5 1035.5,-275.5 1124.5,-275.5 1124.5,-256.5 1035.5,-256.5"/>
<text text-anchor="middle" x="1080" y="-263.5" font-family="DejaVuSansMono" font-size="10.00">xep_muc_stop</text>
</a>
</g>
<!-- Node4&#45;&gt;Node6 -->
<g id="edge10" class="edge"><title>Node4&#45;&gt;Node6</title>
<path fill="none" stroke="midnightblue" d="M984.896,-266C1001.76,-266 1019.78,-266 1035.49,-266"/>
<polygon fill="midnightblue" stroke="midnightblue" points="984.574,-262.5 974.574,-266 984.574,-269.5 984.574,-262.5"/>
</g>
<!-- Node8 -->
<g id="node15" class="node"><title>Node8</title>
<a xlink:href="../../d7/d71/xep__muc_8c.html#aefd23f2960520a68fea212344b85cb0b" target="_top" xlink:title="enter_room_presence">
<polygon fill="none" stroke="black" points="486.5,-161.5 486.5,-180.5 617.5,-180.5 617.5,-161.5 486.5,-161.5"/>
<text text-anchor="middle" x="552" y="-168.5" font-family="DejaVuSansMono" font-size="10.00">enter_room_presence</text>
</a>
</g>
<!-- Node7&#45;&gt;Node8 -->
<g id="edge14" class="edge"><title>Node7&#45;&gt;Node8</title>
<path fill="none" stroke="midnightblue" d="M414.557,-123.304C426.11,-126.147 438.608,-129.465 450,-133 477.197,-141.44 507.704,-153.254 528.003,-161.46"/>
<polygon fill="midnightblue" stroke="midnightblue" points="415.242,-119.869 404.701,-120.934 413.605,-126.675 415.242,-119.869"/>
</g>
<!-- Node9 -->
<g id="node17" class="node"><title>Node9</title>
<a xlink:href="../../d7/d71/xep__muc_8c.html#a9936322b944d46aead9fbd942687ec0a" target="_top" xlink:title="handle_presence">
<polygon fill="none" stroke="black" points="687.5,-180.5 687.5,-199.5 794.5,-199.5 794.5,-180.5 687.5,-180.5"/>
<text text-anchor="middle" x="741" y="-187.5" font-family="DejaVuSansMono" font-size="10.00">handle_presence</text>
</a>
</g>
<!-- Node8&#45;&gt;Node9 -->
<g id="edge16" class="edge"><title>Node8&#45;&gt;Node9</title>
<path fill="none" stroke="midnightblue" d="M627.644,-178.584C647.669,-180.619 668.898,-182.776 687.447,-184.66"/>
<polygon fill="midnightblue" stroke="midnightblue" points="627.919,-175.094 617.617,-177.565 627.212,-182.058 627.919,-175.094"/>
</g>
<!-- Node9&#45;&gt;Node4 -->
<g id="edge18" class="edge"><title>Node9&#45;&gt;Node4</title>
<path fill="none" stroke="midnightblue" d="M774.547,-203.666C810.822,-218.898 868.54,-243.133 900.262,-256.453"/>
<polygon fill="midnightblue" stroke="midnightblue" points="775.499,-200.27 764.924,-199.625 772.789,-206.724 775.499,-200.27"/>
</g>
<!-- Node10&#45;&gt;Node8 -->
<g id="edge22" class="edge"><title>Node10&#45;&gt;Node8</title>
<path fill="none" stroke="midnightblue" d="M425.534,-215.917C433.767,-213.771 442.147,-211.437 450,-209 477.197,-200.56 507.704,-188.746 528.003,-180.54"/>
<polygon fill="midnightblue" stroke="midnightblue" points="424.441,-212.584 415.61,-218.437 426.164,-219.368 424.441,-212.584"/>
</g>
<!-- Node11&#45;&gt;Node8 -->
<g id="edge26" class="edge"><title>Node11&#45;&gt;Node8</title>
<path fill="none" stroke="midnightblue" d="M459.622,-161.246C468.598,-162.204 477.607,-163.166 486.282,-164.092"/>
<polygon fill="midnightblue" stroke="midnightblue" points="459.836,-157.749 449.521,-160.168 459.093,-164.71 459.836,-157.749"/>
</g>
<!-- Node13 -->
<g id="node28" class="node"><title>Node13</title>
<a xlink:href="../../df/da9/xmpp__auth_8c.html#a01804bd53eccc182ce76337fc0863e8d" target="_top" xlink:title="stream_bind_start">
<polygon fill="none" stroke="black" points="681.5,-28.5 681.5,-47.5 800.5,-47.5 800.5,-28.5 681.5,-28.5"/>
<text text-anchor="middle" x="741" y="-35.5" font-family="DejaVuSansMono" font-size="10.00">stream_bind_start</text>
</a>
</g>
<!-- Node12&#45;&gt;Node13 -->
<g id="edge30" class="edge"><title>Node12&#45;&gt;Node13</title>
<path fill="none" stroke="midnightblue" d="M612.778,-38C634.654,-38 659.373,-38 681.166,-38"/>
<polygon fill="midnightblue" stroke="midnightblue" points="612.622,-34.5001 602.622,-38 612.622,-41.5001 612.622,-34.5001"/>
</g>
<!-- Node13&#45;&gt;Node14 -->
<g id="edge32" class="edge"><title>Node13&#45;&gt;Node14</title>
<path fill="none" stroke="midnightblue" d="M810.95,-30.7621C828.51,-28.9188 847.22,-26.9548 864.22,-25.1703"/>
<polygon fill="midnightblue" stroke="midnightblue" points="810.345,-27.3063 800.766,-31.8312 811.076,-34.268 810.345,-27.3063"/>
</g>
<!-- Node15 -->
<g id="node32" class="node"><title>Node15</title>
<a xlink:href="../../d3/d24/xmpp__auth_8h.html#ad3efd9ab093646bdfd8832c34ae2de4d" target="_top" xlink:title="Handler for the inital stream start to begin authentication.">
<polygon fill="none" stroke="black" points="1320.5,-9.5 1320.5,-28.5 1469.5,-28.5 1469.5,-9.5 1320.5,-9.5"/>
<text text-anchor="middle" x="1395" y="-16.5" font-family="DejaVuSansMono" font-size="10.00">xmpp_auth_stream_start</text>
</a>
</g>
<!-- Node14&#45;&gt;Node15 -->
<g id="edge34" class="edge"><title>Node14&#45;&gt;Node15</title>
<path fill="none" stroke="midnightblue" d="M993.987,-19C1081.24,-19 1230.85,-19 1320.28,-19"/>
<polygon fill="midnightblue" stroke="midnightblue" points="993.924,-15.5001 983.924,-19 993.924,-22.5001 993.924,-15.5001"/>
</g>
<!-- Node20 -->
<g id="node42" class="node"><title>Node20</title>
<a xlink:href="../../df/da9/xmpp__auth_8c.html#afd7b12689591d40109a88ad108b5c3a2" target="_top" xlink:title="stream_sasl_start">
<polygon fill="none" stroke="black" points="1020.5,-28.5 1020.5,-47.5 1139.5,-47.5 1139.5,-28.5 1020.5,-28.5"/>
<text text-anchor="middle" x="1080" y="-35.5" font-family="DejaVuSansMono" font-size="10.00">stream_sasl_start</text>
</a>
</g>
<!-- Node14&#45;&gt;Node20 -->
<g id="edge44" class="edge"><title>Node14&#45;&gt;Node20</title>
<path fill="none" stroke="midnightblue" d="M993.607,-27.4645C1002.5,-28.5613 1011.54,-29.6767 1020.25,-30.7514"/>
<polygon fill="midnightblue" stroke="midnightblue" points="994.013,-23.9882 983.66,-26.2373 993.156,-30.9355 994.013,-23.9882"/>
</g>
<!-- Node16 -->
<g id="node34" class="node"><title>Node16</title>
<a xlink:href="../../d4/d2f/xmpp__client_8h.html#a1619c0b8f58b2cf09a322bf34fbc3414" target="_top" xlink:title="xmpp_client_new">
<polygon fill="none" stroke="black" points="1506.5,-9.5 1506.5,-28.5 1613.5,-28.5 1613.5,-9.5 1506.5,-9.5"/>
<text text-anchor="middle" x="1560" y="-16.5" font-family="DejaVuSansMono" font-size="10.00">xmpp_client_new</text>
</a>
</g>
<!-- Node15&#45;&gt;Node16 -->
<g id="edge36" class="edge"><title>Node15&#45;&gt;Node16</title>
<path fill="none" stroke="midnightblue" d="M1479.99,-19C1488.95,-19 1497.88,-19 1506.33,-19"/>
<polygon fill="midnightblue" stroke="midnightblue" points="1479.87,-15.5001 1469.87,-19 1479.87,-22.5001 1479.87,-15.5001"/>
</g>
<!-- Node17 -->
<g id="node36" class="node"><title>Node17</title>
<a xlink:href="../../d0/df0/xmpp__server_8c.html#a66363912ef1221a2574f9f99805fe8fd" target="_top" xlink:title="Callback for new client connections.">
<polygon fill="none" stroke="black" points="1650.5,-9.5 1650.5,-28.5 1751.5,-28.5 1751.5,-9.5 1650.5,-9.5"/>
<text text-anchor="middle" x="1701" y="-16.5" font-family="DejaVuSansMono" font-size="10.00">connect_client</text>
</a>
</g>
<!-- Node16&#45;&gt;Node17 -->
<g id="edge38" class="edge"><title>Node16&#45;&gt;Node17</title>
<path fill="none" stroke="midnightblue" d="M1623.8,-19C1632.63,-19 1641.59,-19 1650.13,-19"/>
<polygon fill="midnightblue" stroke="midnightblue" points="1623.55,-15.5001 1613.55,-19 1623.55,-22.5001 1623.55,-15.5001"/>
</g>
<!-- Node18 -->
<g id="node38" class="node"><title>Node18</title>
<a xlink:href="../../d1/d2e/xmpp__server_8h.html#a27bfc8e4d424a8bc17ab21a4a09cdf92" target="_top" xlink:title="Allocates and initializes the XMPP server.">
<polygon fill="none" stroke="black" points="1788.5,-9.5 1788.5,-28.5 1895.5,-28.5 1895.5,-9.5 1788.5,-9.5"/>
<text text-anchor="middle" x="1842" y="-16.5" font-family="DejaVuSansMono" font-size="10.00">xmpp_server_new</text>
</a>
</g>
<!-- Node17&#45;&gt;Node18 -->
<g id="edge40" class="edge"><title>Node17&#45;&gt;Node18</title>
<path fill="none" stroke="midnightblue" d="M1761.94,-19C1770.7,-19 1779.67,-19 1788.27,-19"/>
<polygon fill="midnightblue" stroke="midnightblue" points="1761.79,-15.5001 1751.79,-19 1761.79,-22.5001 1761.79,-15.5001"/>
</g>
<!-- Node19 -->
<g id="node40" class="node"><title>Node19</title>
<a xlink:href="../../d0/d29/main_8c.html#a0ddf1224851353fc92bfbff6f499fa97" target="_top" xlink:title="main">
<polygon fill="none" stroke="black" points="1932.5,-9.5 1932.5,-28.5 1973.5,-28.5 1973.5,-9.5 1932.5,-9.5"/>
<text text-anchor="middle" x="1953" y="-16.5" font-family="DejaVuSansMono" font-size="10.00">main</text>
</a>
</g>
<!-- Node18&#45;&gt;Node19 -->
<g id="edge42" class="edge"><title>Node18&#45;&gt;Node19</title>
<path fill="none" stroke="midnightblue" d="M1905.75,-19C1915.43,-19 1924.76,-19 1932.47,-19"/>
<polygon fill="midnightblue" stroke="midnightblue" points="1905.58,-15.5001 1895.58,-19 1905.58,-22.5001 1905.58,-15.5001"/>
</g>
<!-- Node21 -->
<g id="node44" class="node"><title>Node21</title>
<a xlink:href="../../df/da9/xmpp__auth_8c.html#a8dd789e057b9812e4dd1aa524dfb6a65" target="_top" xlink:title="Begins TLS authentication.">
<polygon fill="none" stroke="black" points="1176.5,-28.5 1176.5,-47.5 1283.5,-47.5 1283.5,-28.5 1176.5,-28.5"/>
<text text-anchor="middle" x="1230" y="-35.5" font-family="DejaVuSansMono" font-size="10.00">handle_starttls</text>
</a>
</g>
<!-- Node20&#45;&gt;Node21 -->
<g id="edge46" class="edge"><title>Node20&#45;&gt;Node21</title>
<path fill="none" stroke="midnightblue" d="M1150.09,-38C1158.81,-38 1167.62,-38 1176.04,-38"/>
<polygon fill="midnightblue" stroke="midnightblue" points="1149.92,-34.5001 1139.92,-38 1149.92,-41.5001 1149.92,-34.5001"/>
</g>
<!-- Node21&#45;&gt;Node15 -->
<g id="edge48" class="edge"><title>Node21&#45;&gt;Node15</title>
<path fill="none" stroke="midnightblue" d="M1293.91,-30.6668C1302.56,-29.6589 1311.5,-28.6167 1320.32,-27.5888"/>
<polygon fill="midnightblue" stroke="midnightblue" points="1293.45,-27.1969 1283.92,-31.8312 1294.26,-34.1498 1293.45,-27.1969"/>
</g>
<!-- Node22&#45;&gt;Node5 -->
<g id="edge52" class="edge"><title>Node22&#45;&gt;Node5</title>
<path fill="none" stroke="midnightblue" d="M837.965,-304C901.565,-304 982.204,-304 1032.2,-304"/>
<polygon fill="midnightblue" stroke="midnightblue" points="837.911,-300.5 827.911,-304 837.911,-307.5 837.911,-300.5"/>
</g>
<!-- Node25 -->
<g id="node54" class="node"><title>Node25</title>
<a xlink:href="../../d8/d28/xmpp__core_8h.html#ae6da3d9438fd752c4afd6e50a6af9b66" target="_top" xlink:title="An xmpp_parser handler for stanzas from a local client.">
<polygon fill="none" stroke="black" points="294.5,-28.5 294.5,-47.5 449.5,-47.5 449.5,-28.5 294.5,-28.5"/>
<text text-anchor="middle" x="372" y="-35.5" font-family="DejaVuSansMono" font-size="10.00">xmpp_core_handle_stanza</text>
</a>
</g>
<!-- Node24&#45;&gt;Node25 -->
<g id="edge58" class="edge"><title>Node24&#45;&gt;Node25</title>
<path fill="none" stroke="midnightblue" d="M267.892,-38C276.719,-38 285.685,-38 294.458,-38"/>
<polygon fill="midnightblue" stroke="midnightblue" points="267.613,-34.5001 257.613,-38 267.613,-41.5001 267.613,-34.5001"/>
</g>
<!-- Node25&#45;&gt;Node12 -->
<g id="edge60" class="edge"><title>Node25&#45;&gt;Node12</title>
<path fill="none" stroke="midnightblue" d="M459.845,-38C474.069,-38 488.367,-38 501.284,-38"/>
<polygon fill="midnightblue" stroke="midnightblue" points="459.521,-34.5001 449.521,-38 459.521,-41.5001 459.521,-34.5001"/>
</g>
</g>
</svg>
        <g id="navigator" transform="translate(0 0)" fill="#404254">
                <rect fill="#f2f5e9" fill-opacity="0.5" stroke="#606060" stroke-width=".5" x="0" y="0" width="60" height="60"/>
                <use id="zoomplus" xlink:href="#zoomPlus" x="17" y="9" onmousedown="handleZoom(evt,'in')"/>
                <use id="zoomminus" xlink:href="#zoomMin" x="42" y="9" onmousedown="handleZoom(evt,'out')"/>
                <use id="reset" xlink:href="#resetDef" x="30" y="36" onmousedown="handleReset()"/>
                <g id="arrowUp" xlink:href="#dirArrow" transform="translate(30 24)" onmousedown="handlePan(0,-1)">
                  <use xlink:href="#rim" fill="#404040">
                        <set attributeName="fill" to="#808080" begin="arrowUp.mouseover" end="arrowUp.mouseout"/>
                  </use>
                  <path fill="none" stroke="white" stroke-width="1.5" d="M0,-3.0v7 M-2.5,-0.5L0,-3.0L2.5,-0.5"/>
                </g>
                <g id="arrowRight" xlink:href="#dirArrow" transform="rotate(90) translate(36 -43)" onmousedown="handlePan(1,0)">
                  <use xlink:href="#rim" fill="#404040">
                        <set attributeName="fill" to="#808080" begin="arrowRight.mouseover" end="arrowRight.mouseout"/>
                  </use>
                  <path fill="none" stroke="white" stroke-width="1.5" d="M0,-3.0v7 M-2.5,-0.5L0,-3.0L2.5,-0.5"/>
                </g>
                <g id="arrowDown" xlink:href="#dirArrow" transform="rotate(180) translate(-30 -48)" onmousedown="handlePan(0,1)">
                  <use xlink:href="#rim" fill="#404040">
                        <set attributeName="fill" to="#808080" begin="arrowDown.mouseover" end="arrowDown.mouseout"/>
                  </use>
                  <path fill="none" stroke="white" stroke-width="1.5" d="M0,-3.0v7 M-2.5,-0.5L0,-3.0L2.5,-0.5"/>
                </g>
                <g id="arrowLeft" xlink:href="#dirArrow" transform="rotate(270) translate(-36 17)" onmousedown="handlePan(-1,0)">
                  <use xlink:href="#rim" fill="#404040">
                        <set attributeName="fill" to="#808080" begin="arrowLeft.mouseover" end="arrowLeft.mouseout"/>
                  </use>
                  <path fill="none" stroke="white" stroke-width="1.5" d="M0,-3.0v7 M-2.5,-0.5L0,-3.0L2.5,-0.5"/>
                </g>
        </g>
        <svg viewBox="0 0 25 25" width="100%" height="30px" preserveAspectRatio="xMaxYMin meet"> 
          <g id="printButton" transform="scale(0.4 0.4)" onmousedown="handlePrint(evt)">
            <rect height="23.33753581" id="paper" rx="2" style="fill:#f2f5e9;fill-rule:evenodd;stroke:#111111;stroke-width:3.224;stroke-linejoin:round;" transform="matrix(1.000000,0.000000,-0.339266,0.940691,0.000000,0.000000)" width="25.55231285" x="26.69387353" y="7.36162977"/>
            <rect height="26.272097" id="body" rx="2" style="fill:#404040;fill-rule:evenodd;stroke:#111111;stroke-width:3.125;stroke-linejoin:round;" width="50" x="4.5295201" y="27.078951"/>
            <rect height="8.27750969" id="tray" style="fill:#d2d5c9;fill-rule:evenodd;stroke:#111111;stroke-width:3.125;stroke-linecap:round;stroke-linejoin:round;" width="40" x="10.28778839" y="44.96812282"/>
          </g>
        </svg>
</svg>
