<?xml version="1.0" encoding="UTF-8" standalone="no"?>
<!DOCTYPE svg PUBLIC "-//W3C//DTD SVG 1.1//EN"
 "http://www.w3.org/Graphics/SVG/1.1/DTD/svg11.dtd">
<!-- Generated by graphviz version 2.28.0 (20120217.0315)
 -->
<!-- Title: G Pages: 1 -->
<!--zoomable 332 -->
<svg id="main" version="1.1" xmlns="http://www.w3.org/2000/svg" xmlns:xlink="http://www.w3.org/1999/xlink" xml:space="preserve" onload="init(evt)">
        <defs>
                <circle id="rim" cx="0" cy="0" r="7"/>
                <circle id="rim2" cx="0" cy="0" r="3.5"/>
                <g id="zoomPlus">
                        <use xlink:href="#rim" fill="#404040">
                                <set attributeName="fill" to="#808080" begin="zoomplus.mouseover" end="zoomplus.mouseout"/>
                        </use>
                        <path d="M-4,0h8M0,-4v8" fill="none" stroke="white" stroke-width="1.5" pointer-events="none"/>
                </g>
                <g id="zoomMin">
                        <use xlink:href="#rim" fill="#404040">
                                <set attributeName="fill" to="#808080" begin="zoomminus.mouseover" end="zoomminus.mouseout"/>
                        </use>
                        <path d="M-4,0h8" fill="none" stroke="white" stroke-width="1.5" pointer-events="none"/>
                </g>
                <g id="dirArrow">
                        <path fill="none" stroke="white" stroke-width="1.5" d="M0,-3.0v7 M-2.5,-0.5L0,-3.0L2.5,-0.5"/>
                </g>
               <g id="resetDef">
                       <use xlink:href="#rim2" fill="#404040">
                               <set attributeName="fill" to="#808080" begin="reset.mouseover" end="reset.mouseout"/>
                       </use>
               </g>
        </defs>

<script type="text/javascript">
var viewWidth = 1964;
var viewHeight = 332;
var sectionId = 'dynsection-5';
</script>
<script xlink:href="../../svgpan.js"/>
<svg id="graph" class="graph">
<g id="viewport">
<title>G</title>
<!-- Node1 -->
<g id="node1" class="node"><title>Node1</title>
<polygon fill="#bfbfbf" stroke="black" points="0.5,-218.5 0.5,-237.5 71.5,-237.5 71.5,-218.5 0.5,-218.5"/>
<text text-anchor="middle" x="36" y="-225.5" font-family="DejaVuSansMono" font-size="10.00">jid_local</text>
</g>
<!-- Node2 -->
<g id="node3" class="node"><title>Node2</title>
<a xlink:href="../../d6/d24/jid_8h.html#a6da80c5b44d3c4ef896850a5d1d790b0" target="_top" xlink:title="Allocate and initialize a new JID from an existing JID structure.">
<polygon fill="none" stroke="black" points="123.5,-171.5 123.5,-190.5 236.5,-190.5 236.5,-171.5 123.5,-171.5"/>
<text text-anchor="middle" x="180" y="-178.5" font-family="DejaVuSansMono" font-size="10.00">jid_new_from_jid</text>
</a>
</g>
<!-- Node1&#45;&gt;Node2 -->
<g id="edge2" class="edge"><title>Node1&#45;&gt;Node2</title>
<path fill="none" stroke="midnightblue" d="M75.3666,-215.301C98.7996,-207.545 128.294,-197.783 149.82,-190.658"/>
<polygon fill="midnightblue" stroke="midnightblue" points="74.1295,-212.024 65.7358,-218.489 76.3291,-218.669 74.1295,-212.024"/>
</g>
<!-- Node3 -->
<g id="node5" class="node"><title>Node3</title>
<a xlink:href="../../d7/d71/xep__muc_8c.html#acf84f00141033b025df269e540461383" target="_top" xlink:title="handle_message">
<polygon fill="none" stroke="black" points="315.5,-304.5 315.5,-323.5 416.5,-323.5 416.5,-304.5 315.5,-304.5"/>
<text text-anchor="middle" x="366" y="-311.5" font-family="DejaVuSansMono" font-size="10.00">handle_message</text>
</a>
</g>
<!-- Node1&#45;&gt;Node3 -->
<g id="edge62" class="edge"><title>Node1&#45;&gt;Node3</title>
<path fill="none" stroke="midnightblue" d="M51.2793,-245.485C64.3598,-260.133 85.1215,-280.179 108,-290 175.533,-318.989 262.012,-320.686 315.447,-318.161"/>
<polygon fill="midnightblue" stroke="midnightblue" points="53.6785,-242.906 44.5074,-237.602 48.3687,-247.468 53.6785,-242.906"/>
</g>
<!-- Node9 -->
<g id="node17" class="node"><title>Node9</title>
<a xlink:href="../../d7/d71/xep__muc_8c.html#a9936322b944d46aead9fbd942687ec0a" target="_top" xlink:title="handle_presence">
<polygon fill="none" stroke="black" points="696.5,-166.5 696.5,-185.5 803.5,-185.5 803.5,-166.5 696.5,-166.5"/>
<text text-anchor="middle" x="750" y="-173.5" font-family="DejaVuSansMono" font-size="10.00">handle_presence</text>
</a>
</g>
<!-- Node1&#45;&gt;Node9 -->
<g id="edge64" class="edge"><title>Node1&#45;&gt;Node9</title>
<path fill="none" stroke="midnightblue" d="M81.9837,-234.779C132.109,-241.963 215.633,-252.833 288,-257 357.219,-260.985 375.25,-265.974 444,-257 549.393,-243.244 670.205,-203.82 722.542,-185.531"/>
<polygon fill="midnightblue" stroke="midnightblue" points="82.2089,-231.275 71.8105,-233.305 81.2056,-238.203 82.2089,-231.275"/>
</g>
<!-- Node24 -->
<g id="node52" class="node"><title>Node24</title>
<a xlink:href="../../d6/d24/jid_8h.html#ae6100aaa50b6af23516ebc89e2f8c338" target="_top" xlink:title="Allocate and initialize a new JID from an existing JID without the resource.">
<polygon fill="none" stroke="black" points="108.5,-76.5 108.5,-95.5 251.5,-95.5 251.5,-76.5 108.5,-76.5"/>
<text text-anchor="middle" x="180" y="-83.5" font-family="DejaVuSansMono" font-size="10.00">jid_new_from_jid_bare</text>
</a>
</g>
<!-- Node1&#45;&gt;Node24 -->
<g id="edge56" class="edge"><title>Node1&#45;&gt;Node24</title>
<path fill="none" stroke="midnightblue" d="M53.9936,-211.006C83.9608,-181.039 145.287,-119.713 169.171,-95.8285"/>
<polygon fill="midnightblue" stroke="midnightblue" points="51.3564,-208.694 46.7602,-218.24 56.3062,-213.644 51.3564,-208.694"/>
</g>
<!-- Node2&#45;&gt;Node3 -->
<g id="edge4" class="edge"><title>Node2&#45;&gt;Node3</title>
<path fill="none" stroke="midnightblue" d="M202.625,-196.631C240.952,-224.335 319.736,-281.282 351.391,-304.163"/>
<polygon fill="midnightblue" stroke="midnightblue" points="204.388,-193.587 194.233,-190.565 200.287,-199.26 204.388,-193.587"/>
</g>
<!-- Node7 -->
<g id="node13" class="node"><title>Node7</title>
<a xlink:href="../../d7/d71/xep__muc_8c.html#a1b52b88e96c04035a9e9f53e6210d149" target="_top" xlink:title="room_new">
<polygon fill="none" stroke="black" points="333.5,-152.5 333.5,-171.5 398.5,-171.5 398.5,-152.5 333.5,-152.5"/>
<text text-anchor="middle" x="366" y="-159.5" font-family="DejaVuSansMono" font-size="10.00">room_new</text>
</a>
</g>
<!-- Node2&#45;&gt;Node7 -->
<g id="edge12" class="edge"><title>Node2&#45;&gt;Node7</title>
<path fill="none" stroke="midnightblue" d="M246.918,-174.193C276.308,-171.158 309.569,-167.724 333.283,-165.275"/>
<polygon fill="midnightblue" stroke="midnightblue" points="246.293,-170.739 236.705,-175.248 247.012,-177.702 246.293,-170.739"/>
</g>
<!-- Node10 -->
<g id="node20" class="node"><title>Node10</title>
<a xlink:href="../../d7/d71/xep__muc_8c.html#ad34287dce9e621d00af71d307f7a22dd" target="_top" xlink:title="room_client_new">
<polygon fill="none" stroke="black" points="312.5,-114.5 312.5,-133.5 419.5,-133.5 419.5,-114.5 312.5,-114.5"/>
<text text-anchor="middle" x="366" y="-121.5" font-family="DejaVuSansMono" font-size="10.00">room_client_new</text>
</a>
</g>
<!-- Node2&#45;&gt;Node10 -->
<g id="edge20" class="edge"><title>Node2&#45;&gt;Node10</title>
<path fill="none" stroke="midnightblue" d="M215.237,-167.863C236.097,-160.104 263.388,-150.387 288,-143 299.342,-139.596 311.753,-136.335 323.235,-133.505"/>
<polygon fill="midnightblue" stroke="midnightblue" points="213.981,-164.596 205.847,-171.385 216.439,-171.15 213.981,-164.596"/>
</g>
<!-- Node11 -->
<g id="node23" class="node"><title>Node11</title>
<a xlink:href="../../d7/d71/xep__muc_8c.html#a115281f539cd77f88872ff153ec5b38d" target="_top" xlink:title="send_presence_broadcast">
<polygon fill="none" stroke="black" points="288.5,-228.5 288.5,-247.5 443.5,-247.5 443.5,-228.5 288.5,-228.5"/>
<text text-anchor="middle" x="366" y="-235.5" font-family="DejaVuSansMono" font-size="10.00">send_presence_broadcast</text>
</a>
</g>
<!-- Node2&#45;&gt;Node11 -->
<g id="edge24" class="edge"><title>Node2&#45;&gt;Node11</title>
<path fill="none" stroke="midnightblue" d="M215.237,-194.137C236.097,-201.896 263.388,-211.613 288,-219 299.342,-222.404 311.753,-225.665 323.235,-228.495"/>
<polygon fill="midnightblue" stroke="midnightblue" points="216.439,-190.85 205.847,-190.615 213.981,-197.404 216.439,-190.85"/>
</g>
<!-- Node12 -->
<g id="node26" class="node"><title>Node12</title>
<a xlink:href="../../df/da9/xmpp__auth_8c.html#a603b4a63af3c4e4af99442805fe89ae8" target="_top" xlink:title="Step 15: Client binds a resource.">
<polygon fill="none" stroke="black" points="516.5,-24.5 516.5,-43.5 617.5,-43.5 617.5,-24.5 516.5,-24.5"/>
<text text-anchor="middle" x="567" y="-31.5" font-family="DejaVuSansMono" font-size="10.00">handle_bind_iq</text>
</a>
</g>
<!-- Node2&#45;&gt;Node12 -->
<g id="edge28" class="edge"><title>Node2&#45;&gt;Node12</title>
<path fill="none" stroke="midnightblue" d="M196.983,-163.835C221.343,-138.075 267.129,-91.3287 288,-81 361.812,-44.4722 458.683,-35.657 516.42,-33.9055"/>
<polygon fill="midnightblue" stroke="midnightblue" points="194.183,-161.704 189.885,-171.388 199.284,-166.497 194.183,-161.704"/>
</g>
<!-- Node22 -->
<g id="node47" class="node"><title>Node22</title>
<a xlink:href="../../d1/d2e/xmpp__server_8h.html#a1c8e466b41f2895d5a0b57ee9f0a4c0b" target="_top" xlink:title="Add an item to the response for disco item queries.">
<polygon fill="none" stroke="black" points="480.5,-88.5 480.5,-107.5 653.5,-107.5 653.5,-88.5 480.5,-88.5"/>
<text text-anchor="middle" x="567" y="-95.5" font-family="DejaVuSansMono" font-size="10.00">xmpp_server_add_disco_item</text>
</a>
</g>
<!-- Node2&#45;&gt;Node22 -->
<g id="edge50" class="edge"><title>Node2&#45;&gt;Node22</title>
<path fill="none" stroke="midnightblue" d="M197.408,-164.477C217.003,-145.999 251.708,-117.082 288,-105 355.108,-82.6582 436.45,-83.5948 493.758,-88.4837"/>
<polygon fill="midnightblue" stroke="midnightblue" points="194.957,-161.978 190.205,-171.448 199.825,-167.008 194.957,-161.978"/>
</g>
<!-- Node23 -->
<g id="node50" class="node"><title>Node23</title>
<a xlink:href="../../d0/df0/xmpp__server_8c.html#af1d37b8251dd106082d3fe8097dd565b" target="_top" xlink:title="stanza_route_new">
<polygon fill="none" stroke="black" points="309.5,-190.5 309.5,-209.5 422.5,-209.5 422.5,-190.5 309.5,-190.5"/>
<text text-anchor="middle" x="366" y="-197.5" font-family="DejaVuSansMono" font-size="10.00">stanza_route_new</text>
</a>
</g>
<!-- Node2&#45;&gt;Node23 -->
<g id="edge54" class="edge"><title>Node2&#45;&gt;Node23</title>
<path fill="none" stroke="midnightblue" d="M246.909,-187.806C267.4,-189.922 289.775,-192.232 309.484,-194.267"/>
<polygon fill="midnightblue" stroke="midnightblue" points="247.012,-184.298 236.705,-186.752 246.293,-191.261 247.012,-184.298"/>
</g>
<!-- Node4 -->
<g id="node7" class="node"><title>Node4</title>
<a xlink:href="../../d7/d71/xep__muc_8c.html#a1798db1c16a1fa62ff8f39fea202a26f" target="_top" xlink:title="stanza_handler">
<polygon fill="none" stroke="black" points="855.5,-166.5 855.5,-185.5 956.5,-185.5 956.5,-166.5 855.5,-166.5"/>
<text text-anchor="middle" x="906" y="-173.5" font-family="DejaVuSansMono" font-size="10.00">stanza_handler</text>
</a>
</g>
<!-- Node3&#45;&gt;Node4 -->
<g id="edge6" class="edge"><title>Node3&#45;&gt;Node4</title>
<path fill="none" stroke="midnightblue" d="M426.825,-314.903C485.585,-314.419 577.317,-309.979 654,-290 747.786,-265.564 850.252,-208.456 888.983,-185.654"/>
<polygon fill="midnightblue" stroke="midnightblue" points="426.592,-311.404 416.608,-314.95 426.624,-318.404 426.592,-311.404"/>
</g>
<!-- Node5 -->
<g id="node9" class="node"><title>Node5</title>
<a xlink:href="../../d7/d71/xep__muc_8c.html#addf05166cf3fbe386ae6650be21ef251" target="_top" xlink:title="xep_muc_start">
<polygon fill="none" stroke="black" points="1014.5,-109.5 1014.5,-128.5 1109.5,-128.5 1109.5,-109.5 1014.5,-109.5"/>
<text text-anchor="middle" x="1062" y="-116.5" font-family="DejaVuSansMono" font-size="10.00">xep_muc_start</text>
</a>
</g>
<!-- Node4&#45;&gt;Node5 -->
<g id="edge8" class="edge"><title>Node4&#45;&gt;Node5</title>
<path fill="none" stroke="midnightblue" d="M942.3,-162.935C970.607,-152.457 1009.68,-137.995 1035.14,-128.572"/>
<polygon fill="midnightblue" stroke="midnightblue" points="940.939,-159.706 932.776,-166.459 943.369,-166.271 940.939,-159.706"/>
</g>
<!-- Node6 -->
<g id="node11" class="node"><title>Node6</title>
<a xlink:href="../../d7/d71/xep__muc_8c.html#a20d385a5584d8014ec4d5774eb79d1de" target="_top" xlink:title="xep_muc_stop">
<polygon fill="none" stroke="black" points="1017.5,-166.5 1017.5,-185.5 1106.5,-185.5 1106.5,-166.5 1017.5,-166.5"/>
<text text-anchor="middle" x="1062" y="-173.5" font-family="DejaVuSansMono" font-size="10.00">xep_muc_stop</text>
</a>
</g>
<!-- Node4&#45;&gt;Node6 -->
<g id="edge10" class="edge"><title>Node4&#45;&gt;Node6</title>
<path fill="none" stroke="midnightblue" d="M966.896,-176C983.761,-176 1001.78,-176 1017.49,-176"/>
<polygon fill="midnightblue" stroke="midnightblue" points="966.574,-172.5 956.574,-176 966.574,-179.5 966.574,-172.5"/>
</g>
<!-- Node8 -->
<g id="node15" class="node"><title>Node8</title>
<a xlink:href="../../d7/d71/xep__muc_8c.html#aefd23f2960520a68fea212344b85cb0b" target="_top" xlink:title="enter_room_presence">
<polygon fill="none" stroke="black" points="501.5,-166.5 501.5,-185.5 632.5,-185.5 632.5,-166.5 501.5,-166.5"/>
<text text-anchor="middle" x="567" y="-173.5" font-family="DejaVuSansMono" font-size="10.00">enter_room_presence</text>
</a>
</g>
<!-- Node7&#45;&gt;Node8 -->
<g id="edge14" class="edge"><title>Node7&#45;&gt;Node8</title>
<path fill="none" stroke="midnightblue" d="M408.718,-164.935C435.512,-166.82 470.86,-169.307 501.258,-171.445"/>
<polygon fill="midnightblue" stroke="midnightblue" points="408.753,-161.429 398.532,-164.218 408.262,-168.412 408.753,-161.429"/>
</g>
<!-- Node8&#45;&gt;Node9 -->
<g id="edge16" class="edge"><title>Node8&#45;&gt;Node9</title>
<path fill="none" stroke="midnightblue" d="M642.762,-176C660.761,-176 679.617,-176 696.363,-176"/>
<polygon fill="midnightblue" stroke="midnightblue" points="642.579,-172.5 632.579,-176 642.579,-179.5 642.579,-172.5"/>
</g>
<!-- Node9&#45;&gt;Node4 -->
<g id="edge18" class="edge"><title>Node9&#45;&gt;Node4</title>
<path fill="none" stroke="midnightblue" d="M813.944,-176C827.712,-176 842.1,-176 855.266,-176"/>
<polygon fill="midnightblue" stroke="midnightblue" points="813.567,-172.5 803.567,-176 813.567,-179.5 813.567,-172.5"/>
</g>
<!-- Node10&#45;&gt;Node8 -->
<g id="edge22" class="edge"><title>Node10&#45;&gt;Node8</title>
<path fill="none" stroke="midnightblue" d="M416.404,-136.018C425.587,-138.301 435.091,-140.696 444,-143 473.634,-150.663 507.198,-159.774 531.61,-166.479"/>
<polygon fill="midnightblue" stroke="midnightblue" points="417.158,-132.599 406.61,-133.595 415.477,-139.394 417.158,-132.599"/>
</g>
<!-- Node11&#45;&gt;Node8 -->
<g id="edge26" class="edge"><title>Node11&#45;&gt;Node8</title>
<path fill="none" stroke="midnightblue" d="M418.624,-225.995C427.14,-223.805 435.845,-221.437 444,-219 477.997,-208.84 516.502,-194.842 540.999,-185.613"/>
<polygon fill="midnightblue" stroke="midnightblue" points="417.603,-222.643 408.76,-228.477 419.312,-229.431 417.603,-222.643"/>
</g>
<!-- Node13 -->
<g id="node28" class="node"><title>Node13</title>
<a xlink:href="../../df/da9/xmpp__auth_8c.html#a01804bd53eccc182ce76337fc0863e8d" target="_top" xlink:title="stream_bind_start">
<polygon fill="none" stroke="black" points="690.5,-24.5 690.5,-43.5 809.5,-43.5 809.5,-24.5 690.5,-24.5"/>
<text text-anchor="middle" x="750" y="-31.5" font-family="DejaVuSansMono" font-size="10.00">stream_bind_start</text>
</a>
</g>
<!-- Node12&#45;&gt;Node13 -->
<g id="edge30" class="edge"><title>Node12&#45;&gt;Node13</title>
<path fill="none" stroke="midnightblue" d="M628.162,-34C648.148,-34 670.366,-34 690.244,-34"/>
<polygon fill="midnightblue" stroke="midnightblue" points="627.938,-30.5001 617.938,-34 627.938,-37.5001 627.938,-30.5001"/>
</g>
<!-- Node14 -->
<g id="node30" class="node"><title>Node14</title>
<a xlink:href="../../df/da9/xmpp__auth_8c.html#afb770a216868aa3fb43813b19d2a0115" target="_top" xlink:title="Begins SASL PLAIN authentication.">
<polygon fill="none" stroke="black" points="846.5,-24.5 846.5,-43.5 965.5,-43.5 965.5,-24.5 846.5,-24.5"/>
<text text-anchor="middle" x="906" y="-31.5" font-family="DejaVuSansMono" font-size="10.00">handle_sasl_plain</text>
</a>
</g>
<!-- Node13&#45;&gt;Node14 -->
<g id="edge32" class="edge"><title>Node13&#45;&gt;Node14</title>
<path fill="none" stroke="midnightblue" d="M819.894,-34C828.691,-34 837.631,-34 846.248,-34"/>
<polygon fill="midnightblue" stroke="midnightblue" points="819.66,-30.5001 809.66,-34 819.66,-37.5001 819.66,-30.5001"/>
</g>
<!-- Node15 -->
<g id="node32" class="node"><title>Node15</title>
<a xlink:href="../../d3/d24/xmpp__auth_8h.html#ad3efd9ab093646bdfd8832c34ae2de4d" target="_top" xlink:title="Handler for the inital stream start to begin authentication.">
<polygon fill="none" stroke="black" points="1302.5,-43.5 1302.5,-62.5 1451.5,-62.5 1451.5,-43.5 1302.5,-43.5"/>
<text text-anchor="middle" x="1377" y="-50.5" font-family="DejaVuSansMono" font-size="10.00">xmpp_auth_stream_start</text>
</a>
</g>
<!-- Node14&#45;&gt;Node15 -->
<g id="edge34" class="edge"><title>Node14&#45;&gt;Node15</title>
<path fill="none" stroke="midnightblue" d="M955.54,-45.6248C970.362,-48.655 986.769,-51.4918 1002,-53 1105.87,-63.2849 1226.76,-60.6534 1302.34,-57.2714"/>
<polygon fill="midnightblue" stroke="midnightblue" points="956.074,-42.1603 945.565,-43.51 954.622,-49.0081 956.074,-42.1603"/>
</g>
<!-- Node20 -->
<g id="node42" class="node"><title>Node20</title>
<a xlink:href="../../df/da9/xmpp__auth_8c.html#afd7b12689591d40109a88ad108b5c3a2" target="_top" xlink:title="stream_sasl_start">
<polygon fill="none" stroke="black" points="1002.5,-24.5 1002.5,-43.5 1121.5,-43.5 1121.5,-24.5 1002.5,-24.5"/>
<text text-anchor="middle" x="1062" y="-31.5" font-family="DejaVuSansMono" font-size="10.00">stream_sasl_start</text>
</a>
</g>
<!-- Node14&#45;&gt;Node20 -->
<g id="edge44" class="edge"><title>Node14&#45;&gt;Node20</title>
<path fill="none" stroke="midnightblue" d="M975.894,-34C984.691,-34 993.631,-34 1002.25,-34"/>
<polygon fill="midnightblue" stroke="midnightblue" points="975.66,-30.5001 965.66,-34 975.66,-37.5001 975.66,-30.5001"/>
</g>
<!-- Node16 -->
<g id="node34" class="node"><title>Node16</title>
<a xlink:href="../../d4/d2f/xmpp__client_8h.html#a1619c0b8f58b2cf09a322bf34fbc3414" target="_top" xlink:title="xmpp_client_new">
<polygon fill="none" stroke="black" points="1488.5,-43.5 1488.5,-62.5 1595.5,-62.5 1595.5,-43.5 1488.5,-43.5"/>
<text text-anchor="middle" x="1542" y="-50.5" font-family="DejaVuSansMono" font-size="10.00">xmpp_client_new</text>
</a>
</g>
<!-- Node15&#45;&gt;Node16 -->
<g id="edge36" class="edge"><title>Node15&#45;&gt;Node16</title>
<path fill="none" stroke="midnightblue" d="M1461.99,-53C1470.95,-53 1479.88,-53 1488.33,-53"/>
<polygon fill="midnightblue" stroke="midnightblue" points="1461.87,-49.5001 1451.87,-53 1461.87,-56.5001 1461.87,-49.5001"/>
</g>
<!-- Node17 -->
<g id="node36" class="node"><title>Node17</title>
<a xlink:href="../../d0/df0/xmpp__server_8c.html#a66363912ef1221a2574f9f99805fe8fd" target="_top" xlink:title="Callback for new client connections.">
<polygon fill="none" stroke="black" points="1632.5,-43.5 1632.5,-62.5 1733.5,-62.5 1733.5,-43.5 1632.5,-43.5"/>
<text text-anchor="middle" x="1683" y="-50.5" font-family="DejaVuSansMono" font-size="10.00">connect_client</text>
</a>
</g>
<!-- Node16&#45;&gt;Node17 -->
<g id="edge38" class="edge"><title>Node16&#45;&gt;Node17</title>
<path fill="none" stroke="midnightblue" d="M1605.8,-53C1614.63,-53 1623.59,-53 1632.13,-53"/>
<polygon fill="midnightblue" stroke="midnightblue" points="1605.55,-49.5001 1595.55,-53 1605.55,-56.5001 1605.55,-49.5001"/>
</g>
<!-- Node18 -->
<g id="node38" class="node"><title>Node18</title>
<a xlink:href="../../d1/d2e/xmpp__server_8h.html#a27bfc8e4d424a8bc17ab21a4a09cdf92" target="_top" xlink:title="Allocates and initializes the XMPP server.">
<polygon fill="none" stroke="black" points="1770.5,-43.5 1770.5,-62.5 1877.5,-62.5 1877.5,-43.5 1770.5,-43.5"/>
<text text-anchor="middle" x="1824" y="-50.5" font-family="DejaVuSansMono" font-size="10.00">xmpp_server_new</text>
</a>
</g>
<!-- Node17&#45;&gt;Node18 -->
<g id="edge40" class="edge"><title>Node17&#45;&gt;Node18</title>
<path fill="none" stroke="midnightblue" d="M1743.94,-53C1752.7,-53 1761.67,-53 1770.27,-53"/>
<polygon fill="midnightblue" stroke="midnightblue" points="1743.79,-49.5001 1733.79,-53 1743.79,-56.5001 1743.79,-49.5001"/>
</g>
<!-- Node19 -->
<g id="node40" class="node"><title>Node19</title>
<a xlink:href="../../d0/d29/main_8c.html#a0ddf1224851353fc92bfbff6f499fa97" target="_top" xlink:title="main">
<polygon fill="none" stroke="black" points="1914.5,-43.5 1914.5,-62.5 1955.5,-62.5 1955.5,-43.5 1914.5,-43.5"/>
<text text-anchor="middle" x="1935" y="-50.5" font-family="DejaVuSansMono" font-size="10.00">main</text>
</a>
</g>
<!-- Node18&#45;&gt;Node19 -->
<g id="edge42" class="edge"><title>Node18&#45;&gt;Node19</title>
<path fill="none" stroke="midnightblue" d="M1887.75,-53C1897.43,-53 1906.76,-53 1914.47,-53"/>
<polygon fill="midnightblue" stroke="midnightblue" points="1887.58,-49.5001 1877.58,-53 1887.58,-56.5001 1887.58,-49.5001"/>
</g>
<!-- Node21 -->
<g id="node44" class="node"><title>Node21</title>
<a xlink:href="../../df/da9/xmpp__auth_8c.html#a8dd789e057b9812e4dd1aa524dfb6a65" target="_top" xlink:title="Begins TLS authentication.">
<polygon fill="none" stroke="black" points="1158.5,-24.5 1158.5,-43.5 1265.5,-43.5 1265.5,-24.5 1158.5,-24.5"/>
<text text-anchor="middle" x="1212" y="-31.5" font-family="DejaVuSansMono" font-size="10.00">handle_starttls</text>
</a>
</g>
<!-- Node20&#45;&gt;Node21 -->
<g id="edge46" class="edge"><title>Node20&#45;&gt;Node21</title>
<path fill="none" stroke="midnightblue" d="M1132.09,-34C1140.81,-34 1149.62,-34 1158.04,-34"/>
<polygon fill="midnightblue" stroke="midnightblue" points="1131.92,-30.5001 1121.92,-34 1131.92,-37.5001 1131.92,-30.5001"/>
</g>
<!-- Node21&#45;&gt;Node15 -->
<g id="edge48" class="edge"><title>Node21&#45;&gt;Node15</title>
<path fill="none" stroke="midnightblue" d="M1275.91,-41.3332C1284.56,-42.3411 1293.5,-43.3833 1302.32,-44.4112"/>
<polygon fill="midnightblue" stroke="midnightblue" points="1276.26,-37.8502 1265.92,-40.1688 1275.45,-44.8031 1276.26,-37.8502"/>
</g>
<!-- Node22&#45;&gt;Node5 -->
<g id="edge52" class="edge"><title>Node22&#45;&gt;Node5</title>
<path fill="none" stroke="midnightblue" d="M663.599,-102.072C768.979,-106.561 934.164,-113.597 1014.29,-117.01"/>
<polygon fill="midnightblue" stroke="midnightblue" points="663.732,-98.5748 653.592,-101.646 663.434,-105.568 663.732,-98.5748"/>
</g>
<!-- Node25 -->
<g id="node54" class="node"><title>Node25</title>
<a xlink:href="../../d8/d28/xmpp__core_8h.html#ae6da3d9438fd752c4afd6e50a6af9b66" target="_top" xlink:title="An xmpp_parser handler for stanzas from a local client.">
<polygon fill="none" stroke="black" points="288.5,-0.5 288.5,-19.5 443.5,-19.5 443.5,-0.5 288.5,-0.5"/>
<text text-anchor="middle" x="366" y="-7.5" font-family="DejaVuSansMono" font-size="10.00">xmpp_core_handle_stanza</text>
</a>
</g>
<!-- Node24&#45;&gt;Node25 -->
<g id="edge58" class="edge"><title>Node24&#45;&gt;Node25</title>
<path fill="none" stroke="midnightblue" d="M207.898,-71.5294C229.238,-60.3937 260.026,-45.0844 288,-34 301.669,-28.584 317.078,-23.5734 330.501,-19.5466"/>
<polygon fill="midnightblue" stroke="midnightblue" points="206.018,-68.5638 198.803,-76.3219 209.281,-74.7568 206.018,-68.5638"/>
</g>
<!-- Node25&#45;&gt;Node12 -->
<g id="edge60" class="edge"><title>Node25&#45;&gt;Node12</title>
<path fill="none" stroke="midnightblue" d="M453.761,-20.4637C475.195,-23.0487 497.431,-25.7304 516.402,-28.0183"/>
<polygon fill="midnightblue" stroke="midnightblue" points="454.001,-16.9673 443.654,-19.2447 453.163,-23.917 454.001,-16.9673"/>
</g>
</g>
</svg>
        <g id="navigator" transform="translate(0 0)" fill="#404254">
                <rect fill="#f2f5e9" fill-opacity="0.5" stroke="#606060" stroke-width=".5" x="0" y="0" width="60" height="60"/>
                <use id="zoomplus" xlink:href="#zoomPlus" x="17" y="9" onmousedown="handleZoom(evt,'in')"/>
                <use id="zoomminus" xlink:href="#zoomMin" x="42" y="9" onmousedown="handleZoom(evt,'out')"/>
                <use id="reset" xlink:href="#resetDef" x="30" y="36" onmousedown="handleReset()"/>
                <g id="arrowUp" xlink:href="#dirArrow" transform="translate(30 24)" onmousedown="handlePan(0,-1)">
                  <use xlink:href="#rim" fill="#404040">
                        <set attributeName="fill" to="#808080" begin="arrowUp.mouseover" end="arrowUp.mouseout"/>
                  </use>
                  <path fill="none" stroke="white" stroke-width="1.5" d="M0,-3.0v7 M-2.5,-0.5L0,-3.0L2.5,-0.5"/>
                </g>
                <g id="arrowRight" xlink:href="#dirArrow" transform="rotate(90) translate(36 -43)" onmousedown="handlePan(1,0)">
                  <use xlink:href="#rim" fill="#404040">
                        <set attributeName="fill" to="#808080" begin="arrowRight.mouseover" end="arrowRight.mouseout"/>
                  </use>
                  <path fill="none" stroke="white" stroke-width="1.5" d="M0,-3.0v7 M-2.5,-0.5L0,-3.0L2.5,-0.5"/>
                </g>
                <g id="arrowDown" xlink:href="#dirArrow" transform="rotate(180) translate(-30 -48)" onmousedown="handlePan(0,1)">
                  <use xlink:href="#rim" fill="#404040">
                        <set attributeName="fill" to="#808080" begin="arrowDown.mouseover" end="arrowDown.mouseout"/>
                  </use>
                  <path fill="none" stroke="white" stroke-width="1.5" d="M0,-3.0v7 M-2.5,-0.5L0,-3.0L2.5,-0.5"/>
                </g>
                <g id="arrowLeft" xlink:href="#dirArrow" transform="rotate(270) translate(-36 17)" onmousedown="handlePan(-1,0)">
                  <use xlink:href="#rim" fill="#404040">
                        <set attributeName="fill" to="#808080" begin="arrowLeft.mouseover" end="arrowLeft.mouseout"/>
                  </use>
                  <path fill="none" stroke="white" stroke-width="1.5" d="M0,-3.0v7 M-2.5,-0.5L0,-3.0L2.5,-0.5"/>
                </g>
        </g>
        <svg viewBox="0 0 25 25" width="100%" height="30px" preserveAspectRatio="xMaxYMin meet"> 
          <g id="printButton" transform="scale(0.4 0.4)" onmousedown="handlePrint(evt)">
            <rect height="23.33753581" id="paper" rx="2" style="fill:#f2f5e9;fill-rule:evenodd;stroke:#111111;stroke-width:3.224;stroke-linejoin:round;" transform="matrix(1.000000,0.000000,-0.339266,0.940691,0.000000,0.000000)" width="25.55231285" x="26.69387353" y="7.36162977"/>
            <rect height="26.272097" id="body" rx="2" style="fill:#404040;fill-rule:evenodd;stroke:#111111;stroke-width:3.125;stroke-linejoin:round;" width="50" x="4.5295201" y="27.078951"/>
            <rect height="8.27750969" id="tray" style="fill:#d2d5c9;fill-rule:evenodd;stroke:#111111;stroke-width:3.125;stroke-linecap:round;stroke-linejoin:round;" width="40" x="10.28778839" y="44.96812282"/>
          </g>
        </svg>
</svg>
