<?xml version="1.0" encoding="UTF-8" standalone="no"?>
<!DOCTYPE svg PUBLIC "-//W3C//DTD SVG 1.1//EN"
 "http://www.w3.org/Graphics/SVG/1.1/DTD/svg11.dtd">
<!-- Generated by graphviz version 2.28.0 (20120217.0315)
 -->
<!-- Title: G Pages: 1 -->
<!--zoomable 401 -->
<svg id="main" version="1.1" xmlns="http://www.w3.org/2000/svg" xmlns:xlink="http://www.w3.org/1999/xlink" xml:space="preserve" onload="init(evt)">
        <defs>
                <circle id="rim" cx="0" cy="0" r="7"/>
                <circle id="rim2" cx="0" cy="0" r="3.5"/>
                <g id="zoomPlus">
                        <use xlink:href="#rim" fill="#404040">
                                <set attributeName="fill" to="#808080" begin="zoomplus.mouseover" end="zoomplus.mouseout"/>
                        </use>
                        <path d="M-4,0h8M0,-4v8" fill="none" stroke="white" stroke-width="1.5" pointer-events="none"/>
                </g>
                <g id="zoomMin">
                        <use xlink:href="#rim" fill="#404040">
                                <set attributeName="fill" to="#808080" begin="zoomminus.mouseover" end="zoomminus.mouseout"/>
                        </use>
                        <path d="M-4,0h8" fill="none" stroke="white" stroke-width="1.5" pointer-events="none"/>
                </g>
                <g id="dirArrow">
                        <path fill="none" stroke="white" stroke-width="1.5" d="M0,-3.0v7 M-2.5,-0.5L0,-3.0L2.5,-0.5"/>
                </g>
               <g id="resetDef">
                       <use xlink:href="#rim2" fill="#404040">
                               <set attributeName="fill" to="#808080" begin="reset.mouseover" end="reset.mouseout"/>
                       </use>
               </g>
        </defs>

<script type="text/javascript">
var viewWidth = 2000;
var viewHeight = 401;
var sectionId = 'dynsection-17';
</script>
<script xlink:href="../../svgpan.js"/>
<svg id="graph" class="graph">
<g id="viewport">
<title>G</title>
<!-- Node1 -->
<g id="node1" class="node"><title>Node1</title>
<polygon fill="#bfbfbf" stroke="black" points="0.5,-145.313 0.5,-164.313 95.5,-164.313 95.5,-145.313 0.5,-145.313"/>
<text text-anchor="middle" x="48" y="-152.313" font-family="DejaVuSansMono" font-size="10.00">jid_set_local</text>
</g>
<!-- Node2 -->
<g id="node3" class="node"><title>Node2</title>
<a xlink:href="../../d6/d24/jid_8h.html#a6da80c5b44d3c4ef896850a5d1d790b0" target="_top" xlink:title="Allocate and initialize a new JID from an existing JID structure.">
<polygon fill="none" stroke="black" points="147.5,-212.313 147.5,-231.313 260.5,-231.313 260.5,-212.313 147.5,-212.313"/>
<text text-anchor="middle" x="204" y="-219.313" font-family="DejaVuSansMono" font-size="10.00">jid_new_from_jid</text>
</a>
</g>
<!-- Node1&#45;&gt;Node2 -->
<g id="edge2" class="edge"><title>Node1&#45;&gt;Node2</title>
<path fill="none" stroke="midnightblue" d="M80.622,-168.57C110.549,-181.59 154.693,-200.796 180.976,-212.231"/>
<polygon fill="midnightblue" stroke="midnightblue" points="81.6305,-165.192 71.0644,-164.412 78.8379,-171.611 81.6305,-165.192"/>
</g>
<!-- Node5 -->
<g id="node9" class="node"><title>Node5</title>
<a xlink:href="../../d7/d71/xep__muc_8c.html#addf05166cf3fbe386ae6650be21ef251" target="_top" xlink:title="xep_muc_start">
<polygon fill="none" stroke="black" points="1050.5,-307.313 1050.5,-326.313 1145.5,-326.313 1145.5,-307.313 1050.5,-307.313"/>
<text text-anchor="middle" x="1098" y="-314.313" font-family="DejaVuSansMono" font-size="10.00">xep_muc_start</text>
</a>
</g>
<!-- Node1&#45;&gt;Node5 -->
<g id="edge62" class="edge"><title>Node1&#45;&gt;Node5</title>
<path fill="none" stroke="midnightblue" d="M56.2023,-173.831C68.0172,-202.776 94.056,-258.075 132,-291.813 223.716,-373.36 266.274,-392.813 389,-392.813 389,-392.813 389,-392.813 760,-392.813 879.353,-392.813 1016.79,-346.888 1072.07,-326.438"/>
<polygon fill="midnightblue" stroke="midnightblue" points="59.4255,-172.463 52.4972,-164.448 52.9147,-175.034 59.4255,-172.463"/>
</g>
<!-- Node6 -->
<g id="node11" class="node"><title>Node6</title>
<a xlink:href="../../d7/d71/xep__muc_8c.html#a20d385a5584d8014ec4d5774eb79d1de" target="_top" xlink:title="xep_muc_stop">
<polygon fill="none" stroke="black" points="1053.5,-131.313 1053.5,-150.313 1142.5,-150.313 1142.5,-131.313 1053.5,-131.313"/>
<text text-anchor="middle" x="1098" y="-138.313" font-family="DejaVuSansMono" font-size="10.00">xep_muc_stop</text>
</a>
</g>
<!-- Node1&#45;&gt;Node6 -->
<g id="edge64" class="edge"><title>Node1&#45;&gt;Node6</title>
<path fill="none" stroke="midnightblue" d="M88.0517,-142.163C150.785,-122.998 278.215,-88.8125 389,-88.8125 389,-88.8125 389,-88.8125 760,-88.8125 870.111,-88.8125 998.117,-116.263 1059.89,-131.275"/>
<polygon fill="midnightblue" stroke="midnightblue" points="86.708,-138.915 78.1901,-145.216 88.7779,-145.602 86.708,-138.915"/>
</g>
<!-- Node7 -->
<g id="node13" class="node"><title>Node7</title>
<a xlink:href="../../d7/d71/xep__muc_8c.html#a1b52b88e96c04035a9e9f53e6210d149" target="_top" xlink:title="room_new">
<polygon fill="none" stroke="black" points="357.5,-345.313 357.5,-364.313 422.5,-364.313 422.5,-345.313 357.5,-345.313"/>
<text text-anchor="middle" x="390" y="-352.313" font-family="DejaVuSansMono" font-size="10.00">room_new</text>
</a>
</g>
<!-- Node1&#45;&gt;Node7 -->
<g id="edge66" class="edge"><title>Node1&#45;&gt;Node7</title>
<path fill="none" stroke="midnightblue" d="M62.8199,-172.338C78.2147,-191.033 104.567,-220.668 132,-240.813 204.093,-293.752 229.034,-297.396 312,-330.813 326.547,-336.672 343.104,-341.998 357.127,-346.136"/>
<polygon fill="midnightblue" stroke="midnightblue" points="65.3785,-169.936 56.3693,-164.361 59.9353,-174.337 65.3785,-169.936"/>
</g>
<!-- Node14 -->
<g id="node30" class="node"><title>Node14</title>
<a xlink:href="../../df/da9/xmpp__auth_8c.html#afb770a216868aa3fb43813b19d2a0115" target="_top" xlink:title="Begins SASL PLAIN authentication.">
<polygon fill="none" stroke="black" points="882.5,-22.3125 882.5,-41.3125 1001.5,-41.3125 1001.5,-22.3125 882.5,-22.3125"/>
<text text-anchor="middle" x="942" y="-29.3125" font-family="DejaVuSansMono" font-size="10.00">handle_sasl_plain</text>
</a>
</g>
<!-- Node1&#45;&gt;Node14 -->
<g id="edge68" class="edge"><title>Node1&#45;&gt;Node14</title>
<path fill="none" stroke="midnightblue" d="M55.6695,-135.714C66.6615,-107.45 91.4901,-55.3032 132,-31.8125 231.081,25.6421 274.466,-12.8125 389,-12.8125 389,-12.8125 389,-12.8125 571,-12.8125 681.149,-12.8125 809.501,-21.3148 882.412,-26.9442"/>
<polygon fill="midnightblue" stroke="midnightblue" points="52.3223,-134.674 52.1304,-145.267 58.8864,-137.106 52.3223,-134.674"/>
</g>
<!-- Node24 -->
<g id="node52" class="node"><title>Node24</title>
<a xlink:href="../../d6/d24/jid_8h.html#ae6100aaa50b6af23516ebc89e2f8c338" target="_top" xlink:title="Allocate and initialize a new JID from an existing JID without the resource.">
<polygon fill="none" stroke="black" points="132.5,-41.3125 132.5,-60.3125 275.5,-60.3125 275.5,-41.3125 132.5,-41.3125"/>
<text text-anchor="middle" x="204" y="-48.3125" font-family="DejaVuSansMono" font-size="10.00">jid_new_from_jid_bare</text>
</a>
</g>
<!-- Node1&#45;&gt;Node24 -->
<g id="edge56" class="edge"><title>Node1&#45;&gt;Node24</title>
<path fill="none" stroke="midnightblue" d="M63.0306,-137.331C78.2856,-119.366 104.228,-91.7056 132,-74.8125 142.005,-68.7268 153.75,-63.9538 164.776,-60.3226"/>
<polygon fill="midnightblue" stroke="midnightblue" points="60.1271,-135.349 56.4391,-145.281 65.516,-139.817 60.1271,-135.349"/>
</g>
<!-- Node3 -->
<g id="node5" class="node"><title>Node3</title>
<a xlink:href="../../d7/d71/xep__muc_8c.html#acf84f00141033b025df269e540461383" target="_top" xlink:title="handle_message">
<polygon fill="none" stroke="black" points="519.5,-160.313 519.5,-179.313 620.5,-179.313 620.5,-160.313 519.5,-160.313"/>
<text text-anchor="middle" x="570" y="-167.313" font-family="DejaVuSansMono" font-size="10.00">handle_message</text>
</a>
</g>
<!-- Node2&#45;&gt;Node3 -->
<g id="edge4" class="edge"><title>Node2&#45;&gt;Node3</title>
<path fill="none" stroke="midnightblue" d="M235.581,-208.303C256.628,-199.67 285.469,-189.131 312,-183.813 382.976,-169.585 467.039,-167.758 519.204,-168.334"/>
<polygon fill="midnightblue" stroke="midnightblue" points="234.077,-205.139 226.208,-212.233 236.783,-211.594 234.077,-205.139"/>
</g>
<!-- Node2&#45;&gt;Node7 -->
<g id="edge12" class="edge"><title>Node2&#45;&gt;Node7</title>
<path fill="none" stroke="midnightblue" d="M225.469,-237.847C240.203,-249.816 260.186,-266.949 276,-283.813 293.999,-303.006 290.428,-315.746 312,-330.813 325.431,-340.193 342.669,-346.012 357.429,-349.566"/>
<polygon fill="midnightblue" stroke="midnightblue" points="227.464,-234.96 217.472,-231.438 223.086,-240.423 227.464,-234.96"/>
</g>
<!-- Node10 -->
<g id="node20" class="node"><title>Node10</title>
<a xlink:href="../../d7/d71/xep__muc_8c.html#ad34287dce9e621d00af71d307f7a22dd" target="_top" xlink:title="room_client_new">
<polygon fill="none" stroke="black" points="336.5,-193.313 336.5,-212.313 443.5,-212.313 443.5,-193.313 336.5,-193.313"/>
<text text-anchor="middle" x="390" y="-200.313" font-family="DejaVuSansMono" font-size="10.00">room_client_new</text>
</a>
</g>
<!-- Node2&#45;&gt;Node10 -->
<g id="edge20" class="edge"><title>Node2&#45;&gt;Node10</title>
<path fill="none" stroke="midnightblue" d="M270.753,-215.023C292.275,-212.8 315.89,-210.362 336.318,-208.252"/>
<polygon fill="midnightblue" stroke="midnightblue" points="270.293,-211.552 260.705,-216.06 271.012,-218.515 270.293,-211.552"/>
</g>
<!-- Node11 -->
<g id="node23" class="node"><title>Node11</title>
<a xlink:href="../../d7/d71/xep__muc_8c.html#a115281f539cd77f88872ff153ec5b38d" target="_top" xlink:title="send_presence_broadcast">
<polygon fill="none" stroke="black" points="312.5,-269.313 312.5,-288.313 467.5,-288.313 467.5,-269.313 312.5,-269.313"/>
<text text-anchor="middle" x="390" y="-276.313" font-family="DejaVuSansMono" font-size="10.00">send_presence_broadcast</text>
</a>
</g>
<!-- Node2&#45;&gt;Node11 -->
<g id="edge24" class="edge"><title>Node2&#45;&gt;Node11</title>
<path fill="none" stroke="midnightblue" d="M239.237,-234.95C260.097,-242.708 287.388,-252.425 312,-259.813 323.342,-263.217 335.753,-266.478 347.235,-269.308"/>
<polygon fill="midnightblue" stroke="midnightblue" points="240.439,-231.662 229.847,-231.428 237.981,-238.217 240.439,-231.662"/>
</g>
<!-- Node12 -->
<g id="node26" class="node"><title>Node12</title>
<a xlink:href="../../df/da9/xmpp__auth_8c.html#a603b4a63af3c4e4af99442805fe89ae8" target="_top" xlink:title="Step 15: Client binds a resource.">
<polygon fill="none" stroke="black" points="519.5,-41.3125 519.5,-60.3125 620.5,-60.3125 620.5,-41.3125 519.5,-41.3125"/>
<text text-anchor="middle" x="570" y="-48.3125" font-family="DejaVuSansMono" font-size="10.00">handle_bind_iq</text>
</a>
</g>
<!-- Node2&#45;&gt;Node12 -->
<g id="edge28" class="edge"><title>Node2&#45;&gt;Node12</title>
<path fill="none" stroke="midnightblue" d="M230.653,-207.133C252.136,-195.028 283.734,-177.658 312,-163.813 396.479,-122.432 499.652,-79.219 545.316,-60.4564"/>
<polygon fill="midnightblue" stroke="midnightblue" points="228.8,-204.16 221.823,-212.133 232.25,-210.251 228.8,-204.16"/>
</g>
<!-- Node22 -->
<g id="node47" class="node"><title>Node22</title>
<a xlink:href="../../d1/d2e/xmpp__server_8h.html#a1c8e466b41f2895d5a0b57ee9f0a4c0b" target="_top" xlink:title="Add an item to the response for disco item queries.">
<polygon fill="none" stroke="black" points="672.5,-307.313 672.5,-326.313 845.5,-326.313 845.5,-307.313 672.5,-307.313"/>
<text text-anchor="middle" x="759" y="-314.313" font-family="DejaVuSansMono" font-size="10.00">xmpp_server_add_disco_item</text>
</a>
</g>
<!-- Node2&#45;&gt;Node22 -->
<g id="edge50" class="edge"><title>Node2&#45;&gt;Node22</title>
<path fill="none" stroke="midnightblue" d="M270.127,-233.118C272.164,-234.241 274.129,-235.469 276,-236.813 301.568,-255.179 285.001,-281.624 312,-297.813 370.576,-332.933 559.899,-328.7 672.172,-322.655"/>
<polygon fill="midnightblue" stroke="midnightblue" points="271.355,-229.831 260.806,-228.844 268.437,-236.194 271.355,-229.831"/>
</g>
<!-- Node23 -->
<g id="node50" class="node"><title>Node23</title>
<a xlink:href="../../d0/df0/xmpp__server_8c.html#af1d37b8251dd106082d3fe8097dd565b" target="_top" xlink:title="stanza_route_new">
<polygon fill="none" stroke="black" points="333.5,-231.313 333.5,-250.313 446.5,-250.313 446.5,-231.313 333.5,-231.313"/>
<text text-anchor="middle" x="390" y="-238.313" font-family="DejaVuSansMono" font-size="10.00">stanza_route_new</text>
</a>
</g>
<!-- Node2&#45;&gt;Node23 -->
<g id="edge54" class="edge"><title>Node2&#45;&gt;Node23</title>
<path fill="none" stroke="midnightblue" d="M270.909,-228.618C291.4,-230.734 313.775,-233.045 333.484,-235.08"/>
<polygon fill="midnightblue" stroke="midnightblue" points="271.012,-225.11 260.705,-227.565 270.293,-232.073 271.012,-225.11"/>
</g>
<!-- Node4 -->
<g id="node7" class="node"><title>Node4</title>
<a xlink:href="../../d7/d71/xep__muc_8c.html#a1798db1c16a1fa62ff8f39fea202a26f" target="_top" xlink:title="stanza_handler">
<polygon fill="none" stroke="black" points="891.5,-193.313 891.5,-212.313 992.5,-212.313 992.5,-193.313 891.5,-193.313"/>
<text text-anchor="middle" x="942" y="-200.313" font-family="DejaVuSansMono" font-size="10.00">stanza_handler</text>
</a>
</g>
<!-- Node3&#45;&gt;Node4 -->
<g id="edge6" class="edge"><title>Node3&#45;&gt;Node4</title>
<path fill="none" stroke="midnightblue" d="M630.845,-175.15C703.308,-181.613 824.008,-192.378 891.482,-198.396"/>
<polygon fill="midnightblue" stroke="midnightblue" points="630.787,-171.631 620.516,-174.229 630.165,-178.603 630.787,-171.631"/>
</g>
<!-- Node4&#45;&gt;Node5 -->
<g id="edge8" class="edge"><title>Node4&#45;&gt;Node5</title>
<path fill="none" stroke="midnightblue" d="M964.176,-218.488C996.491,-242.409 1057.17,-287.325 1083.85,-307.074"/>
<polygon fill="midnightblue" stroke="midnightblue" points="965.985,-215.473 955.865,-212.336 961.82,-221.099 965.985,-215.473"/>
</g>
<!-- Node4&#45;&gt;Node6 -->
<g id="edge10" class="edge"><title>Node4&#45;&gt;Node6</title>
<path fill="none" stroke="midnightblue" d="M976.111,-189.482C1005.34,-177.715 1047.24,-160.847 1073.25,-150.375"/>
<polygon fill="midnightblue" stroke="midnightblue" points="974.694,-186.279 966.725,-193.261 977.309,-192.773 974.694,-186.279"/>
</g>
<!-- Node8 -->
<g id="node15" class="node"><title>Node8</title>
<a xlink:href="../../d7/d71/xep__muc_8c.html#aefd23f2960520a68fea212344b85cb0b" target="_top" xlink:title="enter_room_presence">
<polygon fill="none" stroke="black" points="504.5,-260.313 504.5,-279.313 635.5,-279.313 635.5,-260.313 504.5,-260.313"/>
<text text-anchor="middle" x="570" y="-267.313" font-family="DejaVuSansMono" font-size="10.00">enter_room_presence</text>
</a>
</g>
<!-- Node7&#45;&gt;Node8 -->
<g id="edge14" class="edge"><title>Node7&#45;&gt;Node8</title>
<path fill="none" stroke="midnightblue" d="M420.179,-340.879C456.503,-323.533 517.581,-294.366 549.001,-279.363"/>
<polygon fill="midnightblue" stroke="midnightblue" points="418.589,-337.76 411.073,-345.227 421.605,-344.076 418.589,-337.76"/>
</g>
<!-- Node9 -->
<g id="node17" class="node"><title>Node9</title>
<a xlink:href="../../d7/d71/xep__muc_8c.html#a9936322b944d46aead9fbd942687ec0a" target="_top" xlink:title="handle_presence">
<polygon fill="none" stroke="black" points="705.5,-222.313 705.5,-241.313 812.5,-241.313 812.5,-222.313 705.5,-222.313"/>
<text text-anchor="middle" x="759" y="-229.313" font-family="DejaVuSansMono" font-size="10.00">handle_presence</text>
</a>
</g>
<!-- Node8&#45;&gt;Node9 -->
<g id="edge16" class="edge"><title>Node8&#45;&gt;Node9</title>
<path fill="none" stroke="midnightblue" d="M628.131,-258.203C654.727,-252.799 685.973,-246.449 711.151,-241.333"/>
<polygon fill="midnightblue" stroke="midnightblue" points="627.291,-254.802 618.188,-260.224 628.685,-261.662 627.291,-254.802"/>
</g>
<!-- Node9&#45;&gt;Node4 -->
<g id="edge18" class="edge"><title>Node9&#45;&gt;Node4</title>
<path fill="none" stroke="midnightblue" d="M822.912,-221.733C845.263,-218.152 870.097,-214.173 891.201,-210.791"/>
<polygon fill="midnightblue" stroke="midnightblue" points="822.16,-218.309 812.839,-223.347 823.267,-225.22 822.16,-218.309"/>
</g>
<!-- Node10&#45;&gt;Node8 -->
<g id="edge22" class="edge"><title>Node10&#45;&gt;Node8</title>
<path fill="none" stroke="midnightblue" d="M445.99,-214.938C453.458,-217.003 460.967,-219.303 468,-221.813 498.353,-232.645 531.809,-249.611 551.582,-260.202"/>
<polygon fill="midnightblue" stroke="midnightblue" points="446.803,-211.533 436.241,-212.36 445.014,-218.3 446.803,-211.533"/>
</g>
<!-- Node11&#45;&gt;Node8 -->
<g id="edge26" class="edge"><title>Node11&#45;&gt;Node8</title>
<path fill="none" stroke="midnightblue" d="M477.622,-274.433C486.598,-273.979 495.607,-273.523 504.282,-273.085"/>
<polygon fill="midnightblue" stroke="midnightblue" points="477.332,-270.943 467.521,-274.943 477.685,-277.934 477.332,-270.943"/>
</g>
<!-- Node13 -->
<g id="node28" class="node"><title>Node13</title>
<a xlink:href="../../df/da9/xmpp__auth_8c.html#a01804bd53eccc182ce76337fc0863e8d" target="_top" xlink:title="stream_bind_start">
<polygon fill="none" stroke="black" points="699.5,-41.3125 699.5,-60.3125 818.5,-60.3125 818.5,-41.3125 699.5,-41.3125"/>
<text text-anchor="middle" x="759" y="-48.3125" font-family="DejaVuSansMono" font-size="10.00">stream_bind_start</text>
</a>
</g>
<!-- Node12&#45;&gt;Node13 -->
<g id="edge30" class="edge"><title>Node12&#45;&gt;Node13</title>
<path fill="none" stroke="midnightblue" d="M630.778,-50.8125C652.654,-50.8125 677.373,-50.8125 699.166,-50.8125"/>
<polygon fill="midnightblue" stroke="midnightblue" points="630.622,-47.3126 620.622,-50.8125 630.622,-54.3126 630.622,-47.3126"/>
</g>
<!-- Node13&#45;&gt;Node14 -->
<g id="edge32" class="edge"><title>Node13&#45;&gt;Node14</title>
<path fill="none" stroke="midnightblue" d="M828.95,-43.5746C846.51,-41.7313 865.22,-39.7673 882.22,-37.9828"/>
<polygon fill="midnightblue" stroke="midnightblue" points="828.345,-40.1188 818.766,-44.6438 829.076,-47.0805 828.345,-40.1188"/>
</g>
<!-- Node15 -->
<g id="node32" class="node"><title>Node15</title>
<a xlink:href="../../d3/d24/xmpp__auth_8h.html#ad3efd9ab093646bdfd8832c34ae2de4d" target="_top" xlink:title="Handler for the inital stream start to begin authentication.">
<polygon fill="none" stroke="black" points="1338.5,-32.3125 1338.5,-51.3125 1487.5,-51.3125 1487.5,-32.3125 1338.5,-32.3125"/>
<text text-anchor="middle" x="1413" y="-39.3125" font-family="DejaVuSansMono" font-size="10.00">xmpp_auth_stream_start</text>
</a>
</g>
<!-- Node14&#45;&gt;Node15 -->
<g id="edge34" class="edge"><title>Node14&#45;&gt;Node15</title>
<path fill="none" stroke="midnightblue" d="M1011.99,-33.2834C1099.24,-35.1438 1248.85,-38.3338 1338.28,-40.2407"/>
<polygon fill="midnightblue" stroke="midnightblue" points="1012,-29.783 1001.92,-33.0689 1011.85,-36.7814 1012,-29.783"/>
</g>
<!-- Node20 -->
<g id="node42" class="node"><title>Node20</title>
<a xlink:href="../../df/da9/xmpp__auth_8c.html#afd7b12689591d40109a88ad108b5c3a2" target="_top" xlink:title="stream_sasl_start">
<polygon fill="none" stroke="black" points="1038.5,-51.3125 1038.5,-70.3125 1157.5,-70.3125 1157.5,-51.3125 1038.5,-51.3125"/>
<text text-anchor="middle" x="1098" y="-58.3125" font-family="DejaVuSansMono" font-size="10.00">stream_sasl_start</text>
</a>
</g>
<!-- Node14&#45;&gt;Node20 -->
<g id="edge44" class="edge"><title>Node14&#45;&gt;Node20</title>
<path fill="none" stroke="midnightblue" d="M1003.95,-43.29C1018.04,-45.943 1032.88,-48.7373 1046.46,-51.296"/>
<polygon fill="midnightblue" stroke="midnightblue" points="1004.33,-39.7997 993.852,-41.3886 1003.03,-46.6788 1004.33,-39.7997"/>
</g>
<!-- Node16 -->
<g id="node34" class="node"><title>Node16</title>
<a xlink:href="../../d4/d2f/xmpp__client_8h.html#a1619c0b8f58b2cf09a322bf34fbc3414" target="_top" xlink:title="xmpp_client_new">
<polygon fill="none" stroke="black" points="1524.5,-32.3125 1524.5,-51.3125 1631.5,-51.3125 1631.5,-32.3125 1524.5,-32.3125"/>
<text text-anchor="middle" x="1578" y="-39.3125" font-family="DejaVuSansMono" font-size="10.00">xmpp_client_new</text>
</a>
</g>
<!-- Node15&#45;&gt;Node16 -->
<g id="edge36" class="edge"><title>Node15&#45;&gt;Node16</title>
<path fill="none" stroke="midnightblue" d="M1497.99,-41.8125C1506.95,-41.8125 1515.88,-41.8125 1524.33,-41.8125"/>
<polygon fill="midnightblue" stroke="midnightblue" points="1497.87,-38.3126 1487.87,-41.8125 1497.87,-45.3126 1497.87,-38.3126"/>
</g>
<!-- Node17 -->
<g id="node36" class="node"><title>Node17</title>
<a xlink:href="../../d0/df0/xmpp__server_8c.html#a66363912ef1221a2574f9f99805fe8fd" target="_top" xlink:title="Callback for new client connections.">
<polygon fill="none" stroke="black" points="1668.5,-32.3125 1668.5,-51.3125 1769.5,-51.3125 1769.5,-32.3125 1668.5,-32.3125"/>
<text text-anchor="middle" x="1719" y="-39.3125" font-family="DejaVuSansMono" font-size="10.00">connect_client</text>
</a>
</g>
<!-- Node16&#45;&gt;Node17 -->
<g id="edge38" class="edge"><title>Node16&#45;&gt;Node17</title>
<path fill="none" stroke="midnightblue" d="M1641.8,-41.8125C1650.63,-41.8125 1659.59,-41.8125 1668.13,-41.8125"/>
<polygon fill="midnightblue" stroke="midnightblue" points="1641.55,-38.3126 1631.55,-41.8125 1641.55,-45.3126 1641.55,-38.3126"/>
</g>
<!-- Node18 -->
<g id="node38" class="node"><title>Node18</title>
<a xlink:href="../../d1/d2e/xmpp__server_8h.html#a27bfc8e4d424a8bc17ab21a4a09cdf92" target="_top" xlink:title="Allocates and initializes the XMPP server.">
<polygon fill="none" stroke="black" points="1806.5,-32.3125 1806.5,-51.3125 1913.5,-51.3125 1913.5,-32.3125 1806.5,-32.3125"/>
<text text-anchor="middle" x="1860" y="-39.3125" font-family="DejaVuSansMono" font-size="10.00">xmpp_server_new</text>
</a>
</g>
<!-- Node17&#45;&gt;Node18 -->
<g id="edge40" class="edge"><title>Node17&#45;&gt;Node18</title>
<path fill="none" stroke="midnightblue" d="M1779.94,-41.8125C1788.7,-41.8125 1797.67,-41.8125 1806.27,-41.8125"/>
<polygon fill="midnightblue" stroke="midnightblue" points="1779.79,-38.3126 1769.79,-41.8125 1779.79,-45.3126 1779.79,-38.3126"/>
</g>
<!-- Node19 -->
<g id="node40" class="node"><title>Node19</title>
<a xlink:href="../../d0/d29/main_8c.html#a0ddf1224851353fc92bfbff6f499fa97" target="_top" xlink:title="main">
<polygon fill="none" stroke="black" points="1950.5,-32.3125 1950.5,-51.3125 1991.5,-51.3125 1991.5,-32.3125 1950.5,-32.3125"/>
<text text-anchor="middle" x="1971" y="-39.3125" font-family="DejaVuSansMono" font-size="10.00">main</text>
</a>
</g>
<!-- Node18&#45;&gt;Node19 -->
<g id="edge42" class="edge"><title>Node18&#45;&gt;Node19</title>
<path fill="none" stroke="midnightblue" d="M1923.75,-41.8125C1933.43,-41.8125 1942.76,-41.8125 1950.47,-41.8125"/>
<polygon fill="midnightblue" stroke="midnightblue" points="1923.58,-38.3126 1913.58,-41.8125 1923.58,-45.3126 1923.58,-38.3126"/>
</g>
<!-- Node21 -->
<g id="node44" class="node"><title>Node21</title>
<a xlink:href="../../df/da9/xmpp__auth_8c.html#a8dd789e057b9812e4dd1aa524dfb6a65" target="_top" xlink:title="Begins TLS authentication.">
<polygon fill="none" stroke="black" points="1194.5,-51.3125 1194.5,-70.3125 1301.5,-70.3125 1301.5,-51.3125 1194.5,-51.3125"/>
<text text-anchor="middle" x="1248" y="-58.3125" font-family="DejaVuSansMono" font-size="10.00">handle_starttls</text>
</a>
</g>
<!-- Node20&#45;&gt;Node21 -->
<g id="edge46" class="edge"><title>Node20&#45;&gt;Node21</title>
<path fill="none" stroke="midnightblue" d="M1168.09,-60.8125C1176.81,-60.8125 1185.62,-60.8125 1194.04,-60.8125"/>
<polygon fill="midnightblue" stroke="midnightblue" points="1167.92,-57.3126 1157.92,-60.8125 1167.92,-64.3126 1167.92,-57.3126"/>
</g>
<!-- Node21&#45;&gt;Node15 -->
<g id="edge48" class="edge"><title>Node21&#45;&gt;Node15</title>
<path fill="none" stroke="midnightblue" d="M1311.91,-53.4793C1320.56,-52.4714 1329.5,-51.4292 1338.32,-50.4013"/>
<polygon fill="midnightblue" stroke="midnightblue" points="1311.45,-50.0094 1301.92,-54.6438 1312.26,-56.9623 1311.45,-50.0094"/>
</g>
<!-- Node22&#45;&gt;Node5 -->
<g id="edge52" class="edge"><title>Node22&#45;&gt;Node5</title>
<path fill="none" stroke="midnightblue" d="M855.965,-316.813C919.565,-316.813 1000.2,-316.813 1050.2,-316.813"/>
<polygon fill="midnightblue" stroke="midnightblue" points="855.911,-313.313 845.911,-316.813 855.911,-320.313 855.911,-313.313"/>
</g>
<!-- Node25 -->
<g id="node54" class="node"><title>Node25</title>
<a xlink:href="../../d8/d28/xmpp__core_8h.html#ae6da3d9438fd752c4afd6e50a6af9b66" target="_top" xlink:title="An xmpp_parser handler for stanzas from a local client.">
<polygon fill="none" stroke="black" points="312.5,-41.3125 312.5,-60.3125 467.5,-60.3125 467.5,-41.3125 312.5,-41.3125"/>
<text text-anchor="middle" x="390" y="-48.3125" font-family="DejaVuSansMono" font-size="10.00">xmpp_core_handle_stanza</text>
</a>
</g>
<!-- Node24&#45;&gt;Node25 -->
<g id="edge58" class="edge"><title>Node24&#45;&gt;Node25</title>
<path fill="none" stroke="midnightblue" d="M285.892,-50.8125C294.719,-50.8125 303.685,-50.8125 312.458,-50.8125"/>
<polygon fill="midnightblue" stroke="midnightblue" points="285.613,-47.3126 275.613,-50.8125 285.613,-54.3126 285.613,-47.3126"/>
</g>
<!-- Node25&#45;&gt;Node12 -->
<g id="edge60" class="edge"><title>Node25&#45;&gt;Node12</title>
<path fill="none" stroke="midnightblue" d="M477.845,-50.8125C492.069,-50.8125 506.367,-50.8125 519.284,-50.8125"/>
<polygon fill="midnightblue" stroke="midnightblue" points="477.521,-47.3126 467.521,-50.8125 477.521,-54.3126 477.521,-47.3126"/>
</g>
</g>
</svg>
        <g id="navigator" transform="translate(0 0)" fill="#404254">
                <rect fill="#f2f5e9" fill-opacity="0.5" stroke="#606060" stroke-width=".5" x="0" y="0" width="60" height="60"/>
                <use id="zoomplus" xlink:href="#zoomPlus" x="17" y="9" onmousedown="handleZoom(evt,'in')"/>
                <use id="zoomminus" xlink:href="#zoomMin" x="42" y="9" onmousedown="handleZoom(evt,'out')"/>
                <use id="reset" xlink:href="#resetDef" x="30" y="36" onmousedown="handleReset()"/>
                <g id="arrowUp" xlink:href="#dirArrow" transform="translate(30 24)" onmousedown="handlePan(0,-1)">
                  <use xlink:href="#rim" fill="#404040">
                        <set attributeName="fill" to="#808080" begin="arrowUp.mouseover" end="arrowUp.mouseout"/>
                  </use>
                  <path fill="none" stroke="white" stroke-width="1.5" d="M0,-3.0v7 M-2.5,-0.5L0,-3.0L2.5,-0.5"/>
                </g>
                <g id="arrowRight" xlink:href="#dirArrow" transform="rotate(90) translate(36 -43)" onmousedown="handlePan(1,0)">
                  <use xlink:href="#rim" fill="#404040">
                        <set attributeName="fill" to="#808080" begin="arrowRight.mouseover" end="arrowRight.mouseout"/>
                  </use>
                  <path fill="none" stroke="white" stroke-width="1.5" d="M0,-3.0v7 M-2.5,-0.5L0,-3.0L2.5,-0.5"/>
                </g>
                <g id="arrowDown" xlink:href="#dirArrow" transform="rotate(180) translate(-30 -48)" onmousedown="handlePan(0,1)">
                  <use xlink:href="#rim" fill="#404040">
                        <set attributeName="fill" to="#808080" begin="arrowDown.mouseover" end="arrowDown.mouseout"/>
                  </use>
                  <path fill="none" stroke="white" stroke-width="1.5" d="M0,-3.0v7 M-2.5,-0.5L0,-3.0L2.5,-0.5"/>
                </g>
                <g id="arrowLeft" xlink:href="#dirArrow" transform="rotate(270) translate(-36 17)" onmousedown="handlePan(-1,0)">
                  <use xlink:href="#rim" fill="#404040">
                        <set attributeName="fill" to="#808080" begin="arrowLeft.mouseover" end="arrowLeft.mouseout"/>
                  </use>
                  <path fill="none" stroke="white" stroke-width="1.5" d="M0,-3.0v7 M-2.5,-0.5L0,-3.0L2.5,-0.5"/>
                </g>
        </g>
        <svg viewBox="0 0 25 25" width="100%" height="30px" preserveAspectRatio="xMaxYMin meet"> 
          <g id="printButton" transform="scale(0.4 0.4)" onmousedown="handlePrint(evt)">
            <rect height="23.33753581" id="paper" rx="2" style="fill:#f2f5e9;fill-rule:evenodd;stroke:#111111;stroke-width:3.224;stroke-linejoin:round;" transform="matrix(1.000000,0.000000,-0.339266,0.940691,0.000000,0.000000)" width="25.55231285" x="26.69387353" y="7.36162977"/>
            <rect height="26.272097" id="body" rx="2" style="fill:#404040;fill-rule:evenodd;stroke:#111111;stroke-width:3.125;stroke-linejoin:round;" width="50" x="4.5295201" y="27.078951"/>
            <rect height="8.27750969" id="tray" style="fill:#d2d5c9;fill-rule:evenodd;stroke:#111111;stroke-width:3.125;stroke-linecap:round;stroke-linejoin:round;" width="40" x="10.28778839" y="44.96812282"/>
          </g>
        </svg>
</svg>
