<?xml version="1.0" encoding="UTF-8" standalone="no"?>
<!DOCTYPE svg PUBLIC "-//W3C//DTD SVG 1.1//EN"
 "http://www.w3.org/Graphics/SVG/1.1/DTD/svg11.dtd">
<!-- Generated by graphviz version 2.28.0 (20120217.0315)
 -->
<!-- Title: G Pages: 1 -->
<svg width="218pt" height="66pt"
 viewBox="0.00 0.00 218.00 66.00" xmlns="http://www.w3.org/2000/svg" xmlns:xlink="http://www.w3.org/1999/xlink">
<g id="graph1" class="graph" transform="scale(1 1) rotate(0) translate(4 62)">
<title>G</title>
<!-- Node1 -->
<g id="node1" class="node"><title>Node1</title>
<polygon fill="#bfbfbf" stroke="black" points="0.5,-19.5 0.5,-38.5 113.5,-38.5 113.5,-19.5 0.5,-19.5"/>
<text text-anchor="middle" x="57" y="-26.5" font-family="DejaVuSansMono" font-size="10.00">jid_new_from_str</text>
</g>
<!-- Node2 -->
<g id="node3" class="node"><title>Node2</title>
<a xlink:href="../../d3/d5a/jid_8c.html#abd2028a1e581e6374acaa6beaf6e5413" target="_top" xlink:title="Allocate and initialize a new blank JID.">
<polygon fill="none" stroke="black" points="150.5,-38.5 150.5,-57.5 209.5,-57.5 209.5,-38.5 150.5,-38.5"/>
<text text-anchor="middle" x="180" y="-45.5" font-family="DejaVuSansMono" font-size="10.00">jid_new</text>
</a>
</g>
<!-- Node1&#45;&gt;Node2 -->
<g id="edge2" class="edge"><title>Node1&#45;&gt;Node2</title>
<path fill="none" stroke="midnightblue" d="M113.542,-37.7215C122.552,-39.1363 131.71,-40.5744 140.209,-41.9089"/>
<polygon fill="midnightblue" stroke="midnightblue" points="139.773,-45.3832 150.195,-43.4769 140.859,-38.468 139.773,-45.3832"/>
</g>
<!-- Node3 -->
<g id="node5" class="node"><title>Node3</title>
<a xlink:href="../../d3/d5a/jid_8c.html#ab83fd5aae95de2c9d38fb9d9cd161580" target="_top" xlink:title="Cleans up and frees an existing JID.">
<polygon fill="none" stroke="black" points="150.5,-0.5 150.5,-19.5 209.5,-19.5 209.5,-0.5 150.5,-0.5"/>
<text text-anchor="middle" x="180" y="-7.5" font-family="DejaVuSansMono" font-size="10.00">jid_del</text>
</a>
</g>
<!-- Node1&#45;&gt;Node3 -->
<g id="edge4" class="edge"><title>Node1&#45;&gt;Node3</title>
<path fill="none" stroke="midnightblue" d="M113.542,-20.2785C122.552,-18.8637 131.71,-17.4256 140.209,-16.0911"/>
<polygon fill="midnightblue" stroke="midnightblue" points="140.859,-19.532 150.195,-14.5231 139.773,-12.6168 140.859,-19.532"/>
</g>
</g>
</svg>
