<?xml version="1.0" encoding="UTF-8" standalone="no"?>
<!DOCTYPE svg PUBLIC "-//W3C//DTD SVG 1.1//EN"
 "http://www.w3.org/Graphics/SVG/1.1/DTD/svg11.dtd">
<!-- Generated by graphviz version 2.28.0 (20120217.0315)
 -->
<!-- Title: G Pages: 1 -->
<!--zoomable 751 -->
<svg id="main" version="1.1" xmlns="http://www.w3.org/2000/svg" xmlns:xlink="http://www.w3.org/1999/xlink" xml:space="preserve" onload="init(evt)">
        <defs>
                <circle id="rim" cx="0" cy="0" r="7"/>
                <circle id="rim2" cx="0" cy="0" r="3.5"/>
                <g id="zoomPlus">
                        <use xlink:href="#rim" fill="#404040">
                                <set attributeName="fill" to="#808080" begin="zoomplus.mouseover" end="zoomplus.mouseout"/>
                        </use>
                        <path d="M-4,0h8M0,-4v8" fill="none" stroke="white" stroke-width="1.5" pointer-events="none"/>
                </g>
                <g id="zoomMin">
                        <use xlink:href="#rim" fill="#404040">
                                <set attributeName="fill" to="#808080" begin="zoomminus.mouseover" end="zoomminus.mouseout"/>
                        </use>
                        <path d="M-4,0h8" fill="none" stroke="white" stroke-width="1.5" pointer-events="none"/>
                </g>
                <g id="dirArrow">
                        <path fill="none" stroke="white" stroke-width="1.5" d="M0,-3.0v7 M-2.5,-0.5L0,-3.0L2.5,-0.5"/>
                </g>
               <g id="resetDef">
                       <use xlink:href="#rim2" fill="#404040">
                               <set attributeName="fill" to="#808080" begin="reset.mouseover" end="reset.mouseout"/>
                       </use>
               </g>
        </defs>

<script type="text/javascript">
var viewWidth = 2144;
var viewHeight = 751;
var sectionId = 'dynsection-12';
</script>
<script xlink:href="../../svgpan.js"/>
<svg id="graph" class="graph">
<g id="viewport">
<title>G</title>
<!-- Node1 -->
<g id="node1" class="node"><title>Node1</title>
<polygon fill="#bfbfbf" stroke="black" points="0.5,-574.616 0.5,-593.616 113.5,-593.616 113.5,-574.616 0.5,-574.616"/>
<text text-anchor="middle" x="57" y="-581.616" font-family="DejaVuSansMono" font-size="10.00">jid_new_from_str</text>
</g>
<!-- Node2 -->
<g id="node3" class="node"><title>Node2</title>
<a xlink:href="../../d7/d71/xep__muc_8c.html#acf84f00141033b025df269e540461383" target="_top" xlink:title="handle_message">
<polygon fill="none" stroke="black" points="375.5,-574.616 375.5,-593.616 476.5,-593.616 476.5,-574.616 375.5,-574.616"/>
<text text-anchor="middle" x="426" y="-581.616" font-family="DejaVuSansMono" font-size="10.00">handle_message</text>
</a>
</g>
<!-- Node1&#45;&gt;Node2 -->
<g id="edge2" class="edge"><title>Node1&#45;&gt;Node2</title>
<path fill="none" stroke="midnightblue" d="M124.075,-584.116C196.254,-584.116 310.23,-584.116 375.227,-584.116"/>
<polygon fill="midnightblue" stroke="midnightblue" points="123.739,-580.616 113.739,-584.116 123.739,-587.616 123.739,-580.616"/>
</g>
<!-- Node6 -->
<g id="node11" class="node"><title>Node6</title>
<a xlink:href="../../d7/d71/xep__muc_8c.html#a9936322b944d46aead9fbd942687ec0a" target="_top" xlink:title="handle_presence">
<polygon fill="none" stroke="black" points="918.5,-384.616 918.5,-403.616 1025.5,-403.616 1025.5,-384.616 918.5,-384.616"/>
<text text-anchor="middle" x="972" y="-391.616" font-family="DejaVuSansMono" font-size="10.00">handle_presence</text>
</a>
</g>
<!-- Node1&#45;&gt;Node6 -->
<g id="edge10" class="edge"><title>Node1&#45;&gt;Node6</title>
<path fill="none" stroke="midnightblue" d="M123.782,-573.171C197.062,-561.946 319.161,-546.116 425,-546.116 425,-546.116 425,-546.116 622,-546.116 765.41,-546.116 916.459,-436.901 959.154,-403.624"/>
<polygon fill="midnightblue" stroke="midnightblue" points="123.119,-569.732 113.773,-574.723 124.191,-576.65 123.119,-569.732"/>
</g>
<!-- Node7 -->
<g id="node14" class="node"><title>Node7</title>
<a xlink:href="../../d7/d71/xep__muc_8c.html#aefd23f2960520a68fea212344b85cb0b" target="_top" xlink:title="enter_room_presence">
<polygon fill="none" stroke="black" points="741.5,-346.616 741.5,-365.616 872.5,-365.616 872.5,-346.616 741.5,-346.616"/>
<text text-anchor="middle" x="807" y="-353.616" font-family="DejaVuSansMono" font-size="10.00">enter_room_presence</text>
</a>
</g>
<!-- Node1&#45;&gt;Node7 -->
<g id="edge14" class="edge"><title>Node1&#45;&gt;Node7</title>
<path fill="none" stroke="midnightblue" d="M79.8392,-568.694C97.8225,-556.775 124.43,-540.876 150,-532.116 384.575,-451.748 477.97,-557.394 702,-451.116 745.526,-430.467 783.649,-385.341 798.91,-365.638"/>
<polygon fill="midnightblue" stroke="midnightblue" points="77.583,-565.996 71.2725,-574.506 81.5128,-571.788 77.583,-565.996"/>
</g>
<!-- Node8 -->
<g id="node17" class="node"><title>Node8</title>
<a xlink:href="../../d7/d71/xep__muc_8c.html#a40cdc65e1b60c76aef97dfc9d3f2510f" target="_top" xlink:title="leave_room_presence">
<polygon fill="none" stroke="black" points="555.5,-384.616 555.5,-403.616 686.5,-403.616 686.5,-384.616 555.5,-384.616"/>
<text text-anchor="middle" x="621" y="-391.616" font-family="DejaVuSansMono" font-size="10.00">leave_room_presence</text>
</a>
</g>
<!-- Node1&#45;&gt;Node8 -->
<g id="edge18" class="edge"><title>Node1&#45;&gt;Node8</title>
<path fill="none" stroke="midnightblue" d="M70.4046,-566.269C86.2079,-545.103 115.632,-510.618 150,-494.116 292.874,-425.515 362.456,-522.42 504,-451.116 524.777,-440.649 519.843,-424.732 540,-413.116 546.679,-409.267 554.1,-406.196 561.652,-403.747"/>
<polygon fill="midnightblue" stroke="midnightblue" points="67.5225,-564.282 64.491,-574.433 73.1917,-568.388 67.5225,-564.282"/>
</g>
<!-- Node9 -->
<g id="node20" class="node"><title>Node9</title>
<a xlink:href="../../d6/d78/xmp3__multicast_8c.html#a991c928ab73b350c4b7029352e91a219" target="_top" xlink:title="multicast_start">
<polygon fill="none" stroke="black" points="372.5,-678.616 372.5,-697.616 479.5,-697.616 479.5,-678.616 372.5,-678.616"/>
<text text-anchor="middle" x="426" y="-685.616" font-family="DejaVuSansMono" font-size="10.00">multicast_start</text>
</a>
</g>
<!-- Node1&#45;&gt;Node9 -->
<g id="edge22" class="edge"><title>Node1&#45;&gt;Node9</title>
<path fill="none" stroke="midnightblue" d="M69.0222,-602.122C84.0917,-624.851 113.47,-662.931 150,-679.116 222.062,-711.044 315.472,-705.554 372.775,-697.616"/>
<polygon fill="midnightblue" stroke="midnightblue" points="71.9682,-600.232 63.6271,-593.7 66.0737,-604.008 71.9682,-600.232"/>
</g>
<!-- Node10 -->
<g id="node22" class="node"><title>Node10</title>
<a xlink:href="../../d6/d78/xmp3__multicast_8c.html#ad161abeabc58820fd3a24b4422c5b9a7" target="_top" xlink:title="multicast_stop">
<polygon fill="none" stroke="black" points="375.5,-631.616 375.5,-650.616 476.5,-650.616 476.5,-631.616 375.5,-631.616"/>
<text text-anchor="middle" x="426" y="-638.616" font-family="DejaVuSansMono" font-size="10.00">multicast_stop</text>
</a>
</g>
<!-- Node1&#45;&gt;Node10 -->
<g id="edge24" class="edge"><title>Node1&#45;&gt;Node10</title>
<path fill="none" stroke="midnightblue" d="M123.632,-594.309C195.787,-605.516 310.097,-623.27 375.227,-633.385"/>
<polygon fill="midnightblue" stroke="midnightblue" points="124.158,-590.849 113.739,-592.773 123.084,-597.766 124.158,-590.849"/>
</g>
<!-- Node11 -->
<g id="node24" class="node"><title>Node11</title>
<a xlink:href="../../d6/d78/xmp3__multicast_8c.html#a3ef84feef94d4ad6045cd45fd91b531c" target="_top" xlink:title="local_stanza_handler">
<polygon fill="none" stroke="black" points="162.5,-650.616 162.5,-669.616 299.5,-669.616 299.5,-650.616 162.5,-650.616"/>
<text text-anchor="middle" x="231" y="-657.616" font-family="DejaVuSansMono" font-size="10.00">local_stanza_handler</text>
</a>
</g>
<!-- Node1&#45;&gt;Node11 -->
<g id="edge26" class="edge"><title>Node1&#45;&gt;Node11</title>
<path fill="none" stroke="midnightblue" d="M81.1753,-599.138C99.3476,-610.436 125.567,-625.701 150,-636.116 163.339,-641.802 178.464,-646.708 191.944,-650.576"/>
<polygon fill="midnightblue" stroke="midnightblue" points="82.7829,-596.014 72.458,-593.637 79.0476,-601.934 82.7829,-596.014"/>
</g>
<!-- Node12 -->
<g id="node28" class="node"><title>Node12</title>
<a xlink:href="../../d1/d2e/xmpp__server_8h.html#a27bfc8e4d424a8bc17ab21a4a09cdf92" target="_top" xlink:title="Allocates and initializes the XMPP server.">
<polygon fill="none" stroke="black" points="1950.5,-118.616 1950.5,-137.616 2057.5,-137.616 2057.5,-118.616 1950.5,-118.616"/>
<text text-anchor="middle" x="2004" y="-125.616" font-family="DejaVuSansMono" font-size="10.00">xmpp_server_new</text>
</a>
</g>
<!-- Node1&#45;&gt;Node12 -->
<g id="edge32" class="edge"><title>Node1&#45;&gt;Node12</title>
<path fill="none" stroke="midnightblue" d="M66.3918,-603.164C79.708,-630.869 108.491,-681.543 150,-705.116 256.953,-765.855 302.004,-736.116 425,-736.116 425,-736.116 425,-736.116 1660,-736.116 1947.23,-736.116 1996.61,-215.017 2002.36,-137.666"/>
<polygon fill="midnightblue" stroke="midnightblue" points="69.4244,-601.383 62.0512,-593.774 63.0705,-604.32 69.4244,-601.383"/>
</g>
<!-- Node14 -->
<g id="node32" class="node"><title>Node14</title>
<a xlink:href="../../d1/d2e/xmpp__server_8h.html#a6d3f7e5e289f785b1c8c52f95068c627" target="_top" xlink:title="Deliver a stanza to a registered callback function.">
<polygon fill="none" stroke="black" points="150.5,-251.616 150.5,-270.616 311.5,-270.616 311.5,-251.616 150.5,-251.616"/>
<text text-anchor="middle" x="231" y="-258.616" font-family="DejaVuSansMono" font-size="10.00">xmpp_server_route_stanza</text>
</a>
</g>
<!-- Node1&#45;&gt;Node14 -->
<g id="edge36" class="edge"><title>Node1&#45;&gt;Node14</title>
<path fill="none" stroke="midnightblue" d="M68.0436,-565.255C100.366,-504.556 200.979,-315.614 224.872,-270.745"/>
<polygon fill="midnightblue" stroke="midnightblue" points="64.7586,-563.977 63.1476,-574.449 70.9372,-567.268 64.7586,-563.977"/>
</g>
<!-- Node3 -->
<g id="node5" class="node"><title>Node3</title>
<a xlink:href="../../d7/d71/xep__muc_8c.html#a1798db1c16a1fa62ff8f39fea202a26f" target="_top" xlink:title="stanza_handler">
<polygon fill="none" stroke="black" points="1092.5,-422.616 1092.5,-441.616 1193.5,-441.616 1193.5,-422.616 1092.5,-422.616"/>
<text text-anchor="middle" x="1143" y="-429.616" font-family="DejaVuSansMono" font-size="10.00">stanza_handler</text>
</a>
</g>
<!-- Node2&#45;&gt;Node3 -->
<g id="edge4" class="edge"><title>Node2&#45;&gt;Node3</title>
<path fill="none" stroke="midnightblue" d="M487.025,-588.292C574.214,-592.712 740.301,-594.903 876,-560.116 978.515,-533.836 1088.72,-466.667 1127.51,-441.674"/>
<polygon fill="midnightblue" stroke="midnightblue" points="486.963,-584.784 476.791,-587.744 486.589,-591.774 486.963,-584.784"/>
</g>
<!-- Node4 -->
<g id="node7" class="node"><title>Node4</title>
<a xlink:href="../../d7/d71/xep__muc_8c.html#addf05166cf3fbe386ae6650be21ef251" target="_top" xlink:title="xep_muc_start">
<polygon fill="none" stroke="black" points="1260.5,-403.616 1260.5,-422.616 1355.5,-422.616 1355.5,-403.616 1260.5,-403.616"/>
<text text-anchor="middle" x="1308" y="-410.616" font-family="DejaVuSansMono" font-size="10.00">xep_muc_start</text>
</a>
</g>
<!-- Node3&#45;&gt;Node4 -->
<g id="edge6" class="edge"><title>Node3&#45;&gt;Node4</title>
<path fill="none" stroke="midnightblue" d="M1203.93,-425.13C1222.53,-422.962 1242.74,-420.606 1260.3,-418.56"/>
<polygon fill="midnightblue" stroke="midnightblue" points="1203.32,-421.678 1193.79,-426.312 1204.13,-428.631 1203.32,-421.678"/>
</g>
<!-- Node5 -->
<g id="node9" class="node"><title>Node5</title>
<a xlink:href="../../d7/d71/xep__muc_8c.html#a20d385a5584d8014ec4d5774eb79d1de" target="_top" xlink:title="xep_muc_stop">
<polygon fill="none" stroke="black" points="1263.5,-441.616 1263.5,-460.616 1352.5,-460.616 1352.5,-441.616 1263.5,-441.616"/>
<text text-anchor="middle" x="1308" y="-448.616" font-family="DejaVuSansMono" font-size="10.00">xep_muc_stop</text>
</a>
</g>
<!-- Node3&#45;&gt;Node5 -->
<g id="edge8" class="edge"><title>Node3&#45;&gt;Node5</title>
<path fill="none" stroke="midnightblue" d="M1203.89,-439.097C1223.57,-441.391 1245.06,-443.896 1263.31,-446.023"/>
<polygon fill="midnightblue" stroke="midnightblue" points="1204.13,-435.601 1193.79,-437.92 1203.32,-442.554 1204.13,-435.601"/>
</g>
<!-- Node6&#45;&gt;Node3 -->
<g id="edge12" class="edge"><title>Node6&#45;&gt;Node3</title>
<path fill="none" stroke="midnightblue" d="M1025.59,-405.94C1049.41,-411.297 1077.21,-417.547 1099.66,-422.596"/>
<polygon fill="midnightblue" stroke="midnightblue" points="1026.17,-402.484 1015.65,-403.705 1024.63,-409.313 1026.17,-402.484"/>
</g>
<!-- Node7&#45;&gt;Node6 -->
<g id="edge16" class="edge"><title>Node7&#45;&gt;Node6</title>
<path fill="none" stroke="midnightblue" d="M859.028,-368.012C881.939,-373.353 908.604,-379.57 930.164,-384.596"/>
<polygon fill="midnightblue" stroke="midnightblue" points="859.665,-364.567 849.132,-365.705 858.076,-371.384 859.665,-364.567"/>
</g>
<!-- Node8&#45;&gt;Node6 -->
<g id="edge20" class="edge"><title>Node8&#45;&gt;Node6</title>
<path fill="none" stroke="midnightblue" d="M696.864,-394.116C763.604,-394.116 859.588,-394.116 918.481,-394.116"/>
<polygon fill="midnightblue" stroke="midnightblue" points="696.826,-390.616 686.826,-394.116 696.826,-397.616 696.826,-390.616"/>
</g>
<!-- Node11&#45;&gt;Node9 -->
<g id="edge28" class="edge"><title>Node11&#45;&gt;Node9</title>
<path fill="none" stroke="midnightblue" d="M307.752,-671.106C329.367,-674.242 352.44,-677.589 372.35,-680.478"/>
<polygon fill="midnightblue" stroke="midnightblue" points="308.009,-667.607 297.61,-669.634 307.004,-674.534 308.009,-667.607"/>
</g>
<!-- Node11&#45;&gt;Node10 -->
<g id="edge30" class="edge"><title>Node11&#45;&gt;Node10</title>
<path fill="none" stroke="midnightblue" d="M309.597,-652.477C331.821,-650.289 355.437,-647.964 375.478,-645.991"/>
<polygon fill="midnightblue" stroke="midnightblue" points="309.111,-649.008 299.502,-653.471 309.797,-655.974 309.111,-649.008"/>
</g>
<!-- Node13 -->
<g id="node30" class="node"><title>Node13</title>
<a xlink:href="../../d0/d29/main_8c.html#a0ddf1224851353fc92bfbff6f499fa97" target="_top" xlink:title="main">
<polygon fill="none" stroke="black" points="2094.5,-118.616 2094.5,-137.616 2135.5,-137.616 2135.5,-118.616 2094.5,-118.616"/>
<text text-anchor="middle" x="2115" y="-125.616" font-family="DejaVuSansMono" font-size="10.00">main</text>
</a>
</g>
<!-- Node12&#45;&gt;Node13 -->
<g id="edge34" class="edge"><title>Node12&#45;&gt;Node13</title>
<path fill="none" stroke="midnightblue" d="M2067.75,-128.116C2077.43,-128.116 2086.76,-128.116 2094.47,-128.116"/>
<polygon fill="midnightblue" stroke="midnightblue" points="2067.58,-124.616 2057.58,-128.116 2067.58,-131.616 2067.58,-124.616"/>
</g>
<!-- Node14&#45;&gt;Node2 -->
<g id="edge38" class="edge"><title>Node14&#45;&gt;Node2</title>
<path fill="none" stroke="midnightblue" d="M243.046,-279.602C279.072,-339.895 392.381,-529.525 419.246,-574.487"/>
<polygon fill="midnightblue" stroke="midnightblue" points="245.91,-277.572 237.776,-270.783 239.901,-281.162 245.91,-277.572"/>
</g>
<!-- Node15 -->
<g id="node35" class="node"><title>Node15</title>
<a xlink:href="../../d7/d71/xep__muc_8c.html#af88baacca4f1cccf8ec2bc295db0e063" target="_top" xlink:title="leave_room">
<polygon fill="none" stroke="black" points="387.5,-346.616 387.5,-365.616 464.5,-365.616 464.5,-346.616 387.5,-346.616"/>
<text text-anchor="middle" x="426" y="-353.616" font-family="DejaVuSansMono" font-size="10.00">leave_room</text>
</a>
</g>
<!-- Node14&#45;&gt;Node15 -->
<g id="edge40" class="edge"><title>Node14&#45;&gt;Node15</title>
<path fill="none" stroke="midnightblue" d="M251.712,-277.055C273.881,-294.233 311.563,-321.237 348,-337.116 360.37,-342.506 374.553,-346.554 387.349,-349.497"/>
<polygon fill="midnightblue" stroke="midnightblue" points="253.766,-274.218 243.743,-270.783 249.436,-279.718 253.766,-274.218"/>
</g>
<!-- Node17 -->
<g id="node41" class="node"><title>Node17</title>
<a xlink:href="../../d7/d71/xep__muc_8c.html#a4b26d057ea25fe1b3c99edff73a82d78" target="_top" xlink:title="handle_items_query">
<polygon fill="none" stroke="black" points="363.5,-384.616 363.5,-403.616 488.5,-403.616 488.5,-384.616 363.5,-384.616"/>
<text text-anchor="middle" x="426" y="-391.616" font-family="DejaVuSansMono" font-size="10.00">handle_items_query</text>
</a>
</g>
<!-- Node14&#45;&gt;Node17 -->
<g id="edge48" class="edge"><title>Node14&#45;&gt;Node17</title>
<path fill="none" stroke="midnightblue" d="M244.932,-278.824C264.391,-304.145 303.675,-350.362 348,-375.116 354.972,-379.01 362.738,-382.114 370.579,-384.588"/>
<polygon fill="midnightblue" stroke="midnightblue" points="247.71,-276.695 238.901,-270.809 242.117,-280.904 247.71,-276.695"/>
</g>
<!-- Node19 -->
<g id="node46" class="node"><title>Node19</title>
<a xlink:href="../../d7/d71/xep__muc_8c.html#a20d9ff75edcc76b952adf38d558fee26" target="_top" xlink:title="handle_info_query">
<polygon fill="none" stroke="black" points="366.5,-422.616 366.5,-441.616 485.5,-441.616 485.5,-422.616 366.5,-422.616"/>
<text text-anchor="middle" x="426" y="-429.616" font-family="DejaVuSansMono" font-size="10.00">handle_info_query</text>
</a>
</g>
<!-- Node14&#45;&gt;Node19 -->
<g id="edge54" class="edge"><title>Node14&#45;&gt;Node19</title>
<path fill="none" stroke="midnightblue" d="M241.004,-280.042C257.477,-312.546 295.649,-378.785 348,-413.116 353.872,-416.967 360.461,-420.037 367.247,-422.486"/>
<polygon fill="midnightblue" stroke="midnightblue" points="243.988,-278.18 236.428,-270.758 237.709,-281.275 243.988,-278.18"/>
</g>
<!-- Node20 -->
<g id="node49" class="node"><title>Node20</title>
<a xlink:href="../../d7/d71/xep__muc_8c.html#a8333f88612fa054ae107699f5bb548cc" target="_top" xlink:title="send_nickname_conflict">
<polygon fill="none" stroke="black" points="546.5,-232.616 546.5,-251.616 695.5,-251.616 695.5,-232.616 546.5,-232.616"/>
<text text-anchor="middle" x="621" y="-239.616" font-family="DejaVuSansMono" font-size="10.00">send_nickname_conflict</text>
</a>
</g>
<!-- Node14&#45;&gt;Node20 -->
<g id="edge58" class="edge"><title>Node14&#45;&gt;Node20</title>
<path fill="none" stroke="midnightblue" d="M322.219,-256.698C390.362,-253.361 482.714,-248.839 546.415,-245.719"/>
<polygon fill="midnightblue" stroke="midnightblue" points="321.74,-253.217 311.923,-257.202 322.083,-260.209 321.74,-253.217"/>
</g>
<!-- Node21 -->
<g id="node52" class="node"><title>Node21</title>
<a xlink:href="../../d7/d71/xep__muc_8c.html#a115281f539cd77f88872ff153ec5b38d" target="_top" xlink:title="send_presence_broadcast">
<polygon fill="none" stroke="black" points="543.5,-270.616 543.5,-289.616 698.5,-289.616 698.5,-270.616 543.5,-270.616"/>
<text text-anchor="middle" x="621" y="-277.616" font-family="DejaVuSansMono" font-size="10.00">send_presence_broadcast</text>
</a>
</g>
<!-- Node14&#45;&gt;Node21 -->
<g id="edge62" class="edge"><title>Node14&#45;&gt;Node21</title>
<path fill="none" stroke="midnightblue" d="M322.067,-265.526C389.187,-268.813 479.857,-273.253 543.483,-276.369"/>
<polygon fill="midnightblue" stroke="midnightblue" points="322.083,-262.023 311.923,-265.03 321.74,-269.015 322.083,-262.023"/>
</g>
<!-- Node22 -->
<g id="node55" class="node"><title>Node22</title>
<a xlink:href="../../d6/d78/xmp3__multicast_8c.html#a6c09d6ba5f9adac2980596c21f7e29b0" target="_top" xlink:title="remote_stanza_handler">
<polygon fill="none" stroke="black" points="354.5,-308.616 354.5,-327.616 497.5,-327.616 497.5,-308.616 354.5,-308.616"/>
<text text-anchor="middle" x="426" y="-315.616" font-family="DejaVuSansMono" font-size="10.00">remote_stanza_handler</text>
</a>
</g>
<!-- Node14&#45;&gt;Node22 -->
<g id="edge66" class="edge"><title>Node14&#45;&gt;Node22</title>
<path fill="none" stroke="midnightblue" d="M273.935,-273.501C309.568,-284.025 359.987,-298.915 392.591,-308.544"/>
<polygon fill="midnightblue" stroke="midnightblue" points="274.886,-270.132 264.304,-270.656 272.903,-276.846 274.886,-270.132"/>
</g>
<!-- Node24 -->
<g id="node59" class="node"><title>Node24</title>
<a xlink:href="../../d8/d28/xmpp__core_8h.html#ae6da3d9438fd752c4afd6e50a6af9b66" target="_top" xlink:title="An xmpp_parser handler for stanzas from a local client.">
<polygon fill="none" stroke="black" points="348.5,-194.616 348.5,-213.616 503.5,-213.616 503.5,-194.616 348.5,-194.616"/>
<text text-anchor="middle" x="426" y="-201.616" font-family="DejaVuSansMono" font-size="10.00">xmpp_core_handle_stanza</text>
</a>
</g>
<!-- Node14&#45;&gt;Node24 -->
<g id="edge70" class="edge"><title>Node14&#45;&gt;Node24</title>
<path fill="none" stroke="midnightblue" d="M273.935,-248.731C309.568,-238.207 359.987,-223.317 392.591,-213.687"/>
<polygon fill="midnightblue" stroke="midnightblue" points="272.903,-245.386 264.304,-251.575 274.886,-252.1 272.903,-245.386"/>
</g>
<!-- Node33 -->
<g id="node79" class="node"><title>Node33</title>
<a xlink:href="../../d9/dd7/xmpp__im_8h.html#aee8f65a08bdaf68accfdcee40ed1488d" target="_top" xlink:title="IQ stanza callback for handling a session IQ.">
<polygon fill="none" stroke="black" points="1410.5,-156.616 1410.5,-175.616 1535.5,-175.616 1535.5,-156.616 1410.5,-156.616"/>
<text text-anchor="middle" x="1473" y="-163.616" font-family="DejaVuSansMono" font-size="10.00">xmpp_im_iq_session</text>
</a>
</g>
<!-- Node14&#45;&gt;Node33 -->
<g id="edge92" class="edge"><title>Node14&#45;&gt;Node33</title>
<path fill="none" stroke="midnightblue" d="M250.211,-244.839C271.81,-226.632 309.728,-198.006 348,-185.116 462.845,-146.436 498.817,-166.116 620,-166.116 620,-166.116 620,-166.116 1144,-166.116 1236.82,-166.116 1344.41,-166.116 1410.34,-166.116"/>
<polygon fill="midnightblue" stroke="midnightblue" points="247.799,-242.297 242.511,-251.477 252.37,-247.599 247.799,-242.297"/>
</g>
<!-- Node34 -->
<g id="node82" class="node"><title>Node34</title>
<a xlink:href="../../d9/dd7/xmpp__im_8h.html#a7542fa668dcf982bb5d3725c5cacb0ca" target="_top" xlink:title="IQ stanza callback for handling a disco items query.">
<polygon fill="none" stroke="black" points="1584.5,-118.616 1584.5,-137.616 1733.5,-137.616 1733.5,-118.616 1584.5,-118.616"/>
<text text-anchor="middle" x="1659" y="-125.616" font-family="DejaVuSansMono" font-size="10.00">xmpp_im_iq_disco_items</text>
</a>
</g>
<!-- Node14&#45;&gt;Node34 -->
<g id="edge96" class="edge"><title>Node14&#45;&gt;Node34</title>
<path fill="none" stroke="midnightblue" d="M245.452,-243.536C265.058,-219.38 303.98,-176.698 348,-157.116 459.079,-107.702 498.426,-128.116 620,-128.116 620,-128.116 620,-128.116 1309,-128.116 1404.13,-128.116 1513.84,-128.116 1584.47,-128.116"/>
<polygon fill="midnightblue" stroke="midnightblue" points="242.593,-241.507 239.129,-251.52 248.081,-245.853 242.593,-241.507"/>
</g>
<!-- Node35 -->
<g id="node85" class="node"><title>Node35</title>
<a xlink:href="../../d9/dd7/xmpp__im_8h.html#a93be77ae71bc544a1c23fae07f39fd23" target="_top" xlink:title="IQ stanza callback for handling a disco info query.">
<polygon fill="none" stroke="black" points="1770.5,-80.6159 1770.5,-99.6159 1913.5,-99.6159 1913.5,-80.6159 1770.5,-80.6159"/>
<text text-anchor="middle" x="1842" y="-87.6159" font-family="DejaVuSansMono" font-size="10.00">xmpp_im_iq_disco_info</text>
</a>
</g>
<!-- Node14&#45;&gt;Node35 -->
<g id="edge100" class="edge"><title>Node14&#45;&gt;Node35</title>
<path fill="none" stroke="midnightblue" d="M241.195,-242.403C257.725,-211.02 295.678,-148.436 348,-120.116 454.959,-62.2228 498.378,-90.1159 620,-90.1159 620,-90.1159 620,-90.1159 1474,-90.1159 1577.06,-90.1159 1696.4,-90.1159 1770.3,-90.1159"/>
<polygon fill="midnightblue" stroke="midnightblue" points="238.024,-240.916 236.59,-251.414 244.257,-244.102 238.024,-240.916"/>
</g>
<!-- Node36 -->
<g id="node88" class="node"><title>Node36</title>
<a xlink:href="../../dc/da6/xmpp__im_8c.html#af5cf3adac08463b9b6029c8814e4f972" target="_top" xlink:title="get_roster">
<polygon fill="none" stroke="black" points="768.5,-42.6159 768.5,-61.6159 845.5,-61.6159 845.5,-42.6159 768.5,-42.6159"/>
<text text-anchor="middle" x="807" y="-49.6159" font-family="DejaVuSansMono" font-size="10.00">get_roster</text>
</a>
</g>
<!-- Node14&#45;&gt;Node36 -->
<g id="edge104" class="edge"><title>Node14&#45;&gt;Node36</title>
<path fill="none" stroke="midnightblue" d="M237.475,-241.913C249.798,-202.686 283.778,-113.878 348,-76.1159 418.61,-34.5972 671.566,-44.3137 768.15,-49.7279"/>
<polygon fill="midnightblue" stroke="midnightblue" points="234.097,-240.995 234.567,-251.579 240.8,-243.012 234.097,-240.995"/>
</g>
<!-- Node38 -->
<g id="node93" class="node"><title>Node38</title>
<a xlink:href="../../d0/df0/xmpp__server_8c.html#a3b400cb24e5bc51623f63c96c8a0a342" target="_top" xlink:title="Sends a &lt;service&#45;unavailable&gt; error stanza to a client.">
<polygon fill="none" stroke="black" points="540.5,-4.61585 540.5,-23.6159 701.5,-23.6159 701.5,-4.61585 540.5,-4.61585"/>
<text text-anchor="middle" x="621" y="-11.6159" font-family="DejaVuSansMono" font-size="10.00">send_service_unavailable</text>
</a>
</g>
<!-- Node14&#45;&gt;Node38 -->
<g id="edge110" class="edge"><title>Node14&#45;&gt;Node38</title>
<path fill="none" stroke="midnightblue" d="M235.671,-241.392C245.171,-196.511 275.103,-86.879 348,-38.1159 413.113,5.44042 507.501,2.76519 566.238,-4.60499"/>
<polygon fill="midnightblue" stroke="midnightblue" points="232.212,-240.838 233.682,-251.33 239.076,-242.212 232.212,-240.838"/>
</g>
<!-- Node15&#45;&gt;Node8 -->
<g id="edge42" class="edge"><title>Node15&#45;&gt;Node8</title>
<path fill="none" stroke="midnightblue" d="M474.716,-365.511C504.162,-371.308 541.83,-378.725 571.432,-384.553"/>
<polygon fill="midnightblue" stroke="midnightblue" points="475.158,-362.031 464.671,-363.533 473.806,-368.899 475.158,-362.031"/>
</g>
<!-- Node16 -->
<g id="node38" class="node"><title>Node16</title>
<a xlink:href="../../d7/d71/xep__muc_8c.html#a0214cd898b2f0c746cb45f79746e5095" target="_top" xlink:title="client_disconnect">
<polygon fill="none" stroke="black" points="561.5,-346.616 561.5,-365.616 680.5,-365.616 680.5,-346.616 561.5,-346.616"/>
<text text-anchor="middle" x="621" y="-353.616" font-family="DejaVuSansMono" font-size="10.00">client_disconnect</text>
</a>
</g>
<!-- Node15&#45;&gt;Node16 -->
<g id="edge44" class="edge"><title>Node15&#45;&gt;Node16</title>
<path fill="none" stroke="midnightblue" d="M474.708,-356.116C500.839,-356.116 533.449,-356.116 561.15,-356.116"/>
<polygon fill="midnightblue" stroke="midnightblue" points="474.671,-352.616 464.671,-356.116 474.67,-359.616 474.671,-352.616"/>
</g>
<!-- Node16&#45;&gt;Node7 -->
<g id="edge46" class="edge"><title>Node16&#45;&gt;Node7</title>
<path fill="none" stroke="midnightblue" d="M690.883,-356.116C707.454,-356.116 725.095,-356.116 741.46,-356.116"/>
<polygon fill="midnightblue" stroke="midnightblue" points="690.725,-352.616 680.725,-356.116 690.725,-359.616 690.725,-352.616"/>
</g>
<!-- Node18 -->
<g id="node43" class="node"><title>Node18</title>
<a xlink:href="../../d7/d71/xep__muc_8c.html#aec1096d47742f472668c4905fa3c299a" target="_top" xlink:title="handle_iq">
<polygon fill="none" stroke="black" points="585.5,-422.616 585.5,-441.616 656.5,-441.616 656.5,-422.616 585.5,-422.616"/>
<text text-anchor="middle" x="621" y="-429.616" font-family="DejaVuSansMono" font-size="10.00">handle_iq</text>
</a>
</g>
<!-- Node17&#45;&gt;Node18 -->
<g id="edge50" class="edge"><title>Node17&#45;&gt;Node18</title>
<path fill="none" stroke="midnightblue" d="M485.574,-405.649C518.16,-412.064 557.607,-419.831 585.314,-425.287"/>
<polygon fill="midnightblue" stroke="midnightblue" points="486.19,-402.203 475.702,-403.705 484.838,-409.071 486.19,-402.203"/>
</g>
<!-- Node18&#45;&gt;Node3 -->
<g id="edge52" class="edge"><title>Node18&#45;&gt;Node3</title>
<path fill="none" stroke="midnightblue" d="M666.544,-432.116C763.145,-432.116 991.322,-432.116 1092.36,-432.116"/>
<polygon fill="midnightblue" stroke="midnightblue" points="666.521,-428.616 656.521,-432.116 666.521,-435.616 666.521,-428.616"/>
</g>
<!-- Node19&#45;&gt;Node18 -->
<g id="edge56" class="edge"><title>Node19&#45;&gt;Node18</title>
<path fill="none" stroke="midnightblue" d="M495.819,-432.116C526.188,-432.116 560.554,-432.116 585.422,-432.116"/>
<polygon fill="midnightblue" stroke="midnightblue" points="495.692,-428.616 485.692,-432.116 495.692,-435.616 495.692,-428.616"/>
</g>
<!-- Node20&#45;&gt;Node7 -->
<g id="edge60" class="edge"><title>Node20&#45;&gt;Node7</title>
<path fill="none" stroke="midnightblue" d="M687.907,-254.87C692.787,-256.686 697.54,-258.756 702,-261.116 744.365,-283.533 782.822,-327.311 798.521,-346.601"/>
<polygon fill="midnightblue" stroke="midnightblue" points="689.002,-251.546 678.408,-251.682 686.775,-258.182 689.002,-251.546"/>
</g>
<!-- Node21&#45;&gt;Node7 -->
<g id="edge64" class="edge"><title>Node21&#45;&gt;Node7</title>
<path fill="none" stroke="midnightblue" d="M681.016,-292.223C688.174,-294.249 695.313,-296.543 702,-299.116 735.629,-312.054 771.88,-333.939 791.453,-346.493"/>
<polygon fill="midnightblue" stroke="midnightblue" points="681.849,-288.823 671.285,-289.626 680.044,-295.586 681.849,-288.823"/>
</g>
<!-- Node23 -->
<g id="node57" class="node"><title>Node23</title>
<a xlink:href="../../d6/d78/xmp3__multicast_8c.html#a08afc39c59ec9297d756a99c395eff3c" target="_top" xlink:title="multicast_new">
<polygon fill="none" stroke="black" points="573.5,-308.616 573.5,-327.616 668.5,-327.616 668.5,-308.616 573.5,-308.616"/>
<text text-anchor="middle" x="621" y="-315.616" font-family="DejaVuSansMono" font-size="10.00">multicast_new</text>
</a>
</g>
<!-- Node22&#45;&gt;Node23 -->
<g id="edge68" class="edge"><title>Node22&#45;&gt;Node23</title>
<path fill="none" stroke="midnightblue" d="M507.916,-318.116C530.212,-318.116 553.647,-318.116 573.292,-318.116"/>
<polygon fill="midnightblue" stroke="midnightblue" points="507.77,-314.616 497.77,-318.116 507.77,-321.616 507.77,-314.616"/>
</g>
<!-- Node25 -->
<g id="node61" class="node"><title>Node25</title>
<a xlink:href="../../df/da9/xmpp__auth_8c.html#a603b4a63af3c4e4af99442805fe89ae8" target="_top" xlink:title="Step 15: Client binds a resource.">
<polygon fill="none" stroke="black" points="570.5,-194.616 570.5,-213.616 671.5,-213.616 671.5,-194.616 570.5,-194.616"/>
<text text-anchor="middle" x="621" y="-201.616" font-family="DejaVuSansMono" font-size="10.00">handle_bind_iq</text>
</a>
</g>
<!-- Node24&#45;&gt;Node25 -->
<g id="edge72" class="edge"><title>Node24&#45;&gt;Node25</title>
<path fill="none" stroke="midnightblue" d="M513.668,-204.116C533.133,-204.116 553.136,-204.116 570.467,-204.116"/>
<polygon fill="midnightblue" stroke="midnightblue" points="513.556,-200.616 503.556,-204.116 513.556,-207.616 513.556,-200.616"/>
</g>
<!-- Node26 -->
<g id="node63" class="node"><title>Node26</title>
<a xlink:href="../../df/da9/xmpp__auth_8c.html#a01804bd53eccc182ce76337fc0863e8d" target="_top" xlink:title="stream_bind_start">
<polygon fill="none" stroke="black" points="747.5,-194.616 747.5,-213.616 866.5,-213.616 866.5,-194.616 747.5,-194.616"/>
<text text-anchor="middle" x="807" y="-201.616" font-family="DejaVuSansMono" font-size="10.00">stream_bind_start</text>
</a>
</g>
<!-- Node25&#45;&gt;Node26 -->
<g id="edge74" class="edge"><title>Node25&#45;&gt;Node26</title>
<path fill="none" stroke="midnightblue" d="M681.877,-204.116C702.883,-204.116 726.445,-204.116 747.35,-204.116"/>
<polygon fill="midnightblue" stroke="midnightblue" points="681.793,-200.616 671.793,-204.116 681.793,-207.616 681.793,-200.616"/>
</g>
<!-- Node27 -->
<g id="node65" class="node"><title>Node27</title>
<a xlink:href="../../df/da9/xmpp__auth_8c.html#afb770a216868aa3fb43813b19d2a0115" target="_top" xlink:title="Begins SASL PLAIN authentication.">
<polygon fill="none" stroke="black" points="912.5,-194.616 912.5,-213.616 1031.5,-213.616 1031.5,-194.616 912.5,-194.616"/>
<text text-anchor="middle" x="972" y="-201.616" font-family="DejaVuSansMono" font-size="10.00">handle_sasl_plain</text>
</a>
</g>
<!-- Node26&#45;&gt;Node27 -->
<g id="edge76" class="edge"><title>Node26&#45;&gt;Node27</title>
<path fill="none" stroke="midnightblue" d="M877.029,-204.116C888.747,-204.116 900.817,-204.116 912.24,-204.116"/>
<polygon fill="midnightblue" stroke="midnightblue" points="876.847,-200.616 866.847,-204.116 876.847,-207.616 876.847,-200.616"/>
</g>
<!-- Node28 -->
<g id="node67" class="node"><title>Node28</title>
<a xlink:href="../../d3/d24/xmpp__auth_8h.html#ad3efd9ab093646bdfd8832c34ae2de4d" target="_top" xlink:title="Handler for the inital stream start to begin authentication.">
<polygon fill="none" stroke="black" points="1398.5,-194.616 1398.5,-213.616 1547.5,-213.616 1547.5,-194.616 1398.5,-194.616"/>
<text text-anchor="middle" x="1473" y="-201.616" font-family="DejaVuSansMono" font-size="10.00">xmpp_auth_stream_start</text>
</a>
</g>
<!-- Node27&#45;&gt;Node28 -->
<g id="edge78" class="edge"><title>Node27&#45;&gt;Node28</title>
<path fill="none" stroke="midnightblue" d="M1041.92,-204.116C1135.5,-204.116 1302.08,-204.116 1398.15,-204.116"/>
<polygon fill="midnightblue" stroke="midnightblue" points="1041.71,-200.616 1031.71,-204.116 1041.71,-207.616 1041.71,-200.616"/>
</g>
<!-- Node31 -->
<g id="node74" class="node"><title>Node31</title>
<a xlink:href="../../df/da9/xmpp__auth_8c.html#afd7b12689591d40109a88ad108b5c3a2" target="_top" xlink:title="stream_sasl_start">
<polygon fill="none" stroke="black" points="1083.5,-232.616 1083.5,-251.616 1202.5,-251.616 1202.5,-232.616 1083.5,-232.616"/>
<text text-anchor="middle" x="1143" y="-239.616" font-family="DejaVuSansMono" font-size="10.00">stream_sasl_start</text>
</a>
</g>
<!-- Node27&#45;&gt;Node31 -->
<g id="edge86" class="edge"><title>Node27&#45;&gt;Node31</title>
<path fill="none" stroke="midnightblue" d="M1025.59,-215.94C1049.41,-221.297 1077.21,-227.547 1099.66,-232.596"/>
<polygon fill="midnightblue" stroke="midnightblue" points="1026.17,-212.484 1015.65,-213.705 1024.63,-219.313 1026.17,-212.484"/>
</g>
<!-- Node29 -->
<g id="node69" class="node"><title>Node29</title>
<a xlink:href="../../d4/d2f/xmpp__client_8h.html#a1619c0b8f58b2cf09a322bf34fbc3414" target="_top" xlink:title="xmpp_client_new">
<polygon fill="none" stroke="black" points="1605.5,-194.616 1605.5,-213.616 1712.5,-213.616 1712.5,-194.616 1605.5,-194.616"/>
<text text-anchor="middle" x="1659" y="-201.616" font-family="DejaVuSansMono" font-size="10.00">xmpp_client_new</text>
</a>
</g>
<!-- Node28&#45;&gt;Node29 -->
<g id="edge80" class="edge"><title>Node28&#45;&gt;Node29</title>
<path fill="none" stroke="midnightblue" d="M1557.56,-204.116C1573.79,-204.116 1590.38,-204.116 1605.28,-204.116"/>
<polygon fill="midnightblue" stroke="midnightblue" points="1557.51,-200.616 1547.51,-204.116 1557.51,-207.616 1557.51,-200.616"/>
</g>
<!-- Node30 -->
<g id="node71" class="node"><title>Node30</title>
<a xlink:href="../../d0/df0/xmpp__server_8c.html#a66363912ef1221a2574f9f99805fe8fd" target="_top" xlink:title="Callback for new client connections.">
<polygon fill="none" stroke="black" points="1791.5,-194.616 1791.5,-213.616 1892.5,-213.616 1892.5,-194.616 1791.5,-194.616"/>
<text text-anchor="middle" x="1842" y="-201.616" font-family="DejaVuSansMono" font-size="10.00">connect_client</text>
</a>
</g>
<!-- Node29&#45;&gt;Node30 -->
<g id="edge82" class="edge"><title>Node29&#45;&gt;Node30</title>
<path fill="none" stroke="midnightblue" d="M1722.91,-204.116C1745.26,-204.116 1770.1,-204.116 1791.2,-204.116"/>
<polygon fill="midnightblue" stroke="midnightblue" points="1722.84,-200.616 1712.84,-204.116 1722.84,-207.616 1722.84,-200.616"/>
</g>
<!-- Node30&#45;&gt;Node12 -->
<g id="edge84" class="edge"><title>Node30&#45;&gt;Node12</title>
<path fill="none" stroke="midnightblue" d="M1885.43,-191.342C1894.97,-188.039 1904.95,-184.239 1914,-180.116 1941.52,-167.581 1971.49,-148.934 1988.69,-137.708"/>
<polygon fill="midnightblue" stroke="midnightblue" points="1884.07,-188.106 1875.7,-194.597 1886.29,-194.744 1884.07,-188.106"/>
</g>
<!-- Node32 -->
<g id="node76" class="node"><title>Node32</title>
<a xlink:href="../../df/da9/xmpp__auth_8c.html#a8dd789e057b9812e4dd1aa524dfb6a65" target="_top" xlink:title="Begins TLS authentication.">
<polygon fill="none" stroke="black" points="1254.5,-232.616 1254.5,-251.616 1361.5,-251.616 1361.5,-232.616 1254.5,-232.616"/>
<text text-anchor="middle" x="1308" y="-239.616" font-family="DejaVuSansMono" font-size="10.00">handle_starttls</text>
</a>
</g>
<!-- Node31&#45;&gt;Node32 -->
<g id="edge88" class="edge"><title>Node31&#45;&gt;Node32</title>
<path fill="none" stroke="midnightblue" d="M1212.87,-242.116C1226.79,-242.116 1241.21,-242.116 1254.46,-242.116"/>
<polygon fill="midnightblue" stroke="midnightblue" points="1212.85,-238.616 1202.85,-242.116 1212.85,-245.616 1212.85,-238.616"/>
</g>
<!-- Node32&#45;&gt;Node28 -->
<g id="edge90" class="edge"><title>Node32&#45;&gt;Node28</title>
<path fill="none" stroke="midnightblue" d="M1360.03,-230.22C1382.94,-224.878 1409.6,-218.662 1431.16,-213.636"/>
<polygon fill="midnightblue" stroke="midnightblue" points="1359.08,-226.848 1350.13,-232.527 1360.67,-233.665 1359.08,-226.848"/>
</g>
<!-- Node33&#45;&gt;Node12 -->
<g id="edge94" class="edge"><title>Node33&#45;&gt;Node12</title>
<path fill="none" stroke="midnightblue" d="M1545.79,-164.437C1633.04,-161.881 1784.65,-155.781 1914,-142.116 1925.82,-140.867 1938.47,-139.126 1950.41,-137.294"/>
<polygon fill="midnightblue" stroke="midnightblue" points="1545.63,-160.94 1535.73,-164.724 1545.83,-167.937 1545.63,-160.94"/>
</g>
<!-- Node34&#45;&gt;Node12 -->
<g id="edge98" class="edge"><title>Node34&#45;&gt;Node12</title>
<path fill="none" stroke="midnightblue" d="M1743.73,-128.116C1808.26,-128.116 1895.48,-128.116 1950.49,-128.116"/>
<polygon fill="midnightblue" stroke="midnightblue" points="1743.58,-124.616 1733.58,-128.116 1743.58,-131.616 1743.58,-124.616"/>
</g>
<!-- Node35&#45;&gt;Node12 -->
<g id="edge102" class="edge"><title>Node35&#45;&gt;Node12</title>
<path fill="none" stroke="midnightblue" d="M1893.39,-102.084C1915.81,-107.409 1941.85,-113.592 1962.92,-118.596"/>
<polygon fill="midnightblue" stroke="midnightblue" points="1893.91,-98.6104 1883.37,-99.7049 1892.3,-105.421 1893.91,-98.6104"/>
</g>
<!-- Node37 -->
<g id="node90" class="node"><title>Node37</title>
<a xlink:href="../../d9/dd7/xmpp__im_8h.html#a40f3cf6fffd6aafe9c7cde476fdbc9c2" target="_top" xlink:title="IQ stanza callback for handing a roster query.">
<polygon fill="none" stroke="black" points="912.5,-42.6159 912.5,-61.6159 1031.5,-61.6159 1031.5,-42.6159 912.5,-42.6159"/>
<text text-anchor="middle" x="972" y="-49.6159" font-family="DejaVuSansMono" font-size="10.00">xmpp_im_iq_roster</text>
</a>
</g>
<!-- Node36&#45;&gt;Node37 -->
<g id="edge106" class="edge"><title>Node36&#45;&gt;Node37</title>
<path fill="none" stroke="midnightblue" d="M855.886,-52.1159C873.564,-52.1159 893.801,-52.1159 912.326,-52.1159"/>
<polygon fill="midnightblue" stroke="midnightblue" points="855.805,-48.6159 845.805,-52.1159 855.805,-55.6159 855.805,-48.6159"/>
</g>
<!-- Node37&#45;&gt;Node12 -->
<g id="edge108" class="edge"><title>Node37&#45;&gt;Node12</title>
<path fill="none" stroke="midnightblue" d="M1041.61,-52.1159C1109.13,-52.1159 1215.17,-52.1159 1307,-52.1159 1307,-52.1159 1307,-52.1159 1660,-52.1159 1773.2,-52.1159 1806.62,-35.2748 1914,-71.1159 1945.15,-81.5144 1976.25,-105.239 1992.14,-118.57"/>
<polygon fill="midnightblue" stroke="midnightblue" points="1041.52,-48.6159 1031.52,-52.1159 1041.52,-55.6159 1041.52,-48.6159"/>
</g>
<!-- Node39 -->
<g id="node95" class="node"><title>Node39</title>
<a xlink:href="../../d1/d2e/xmpp__server_8h.html#a8ddb3bbfd497811c13e9426ce6f02003" target="_top" xlink:title="Deliver an IQ stanza to a registered callback function.">
<polygon fill="none" stroke="black" points="738.5,-4.61585 738.5,-23.6159 875.5,-23.6159 875.5,-4.61585 738.5,-4.61585"/>
<text text-anchor="middle" x="807" y="-11.6159" font-family="DejaVuSansMono" font-size="10.00">xmpp_server_route_iq</text>
</a>
</g>
<!-- Node38&#45;&gt;Node39 -->
<g id="edge112" class="edge"><title>Node38&#45;&gt;Node39</title>
<path fill="none" stroke="midnightblue" d="M711.722,-14.1159C720.684,-14.1159 729.674,-14.1159 738.353,-14.1159"/>
<polygon fill="midnightblue" stroke="midnightblue" points="711.635,-10.6159 701.635,-14.1159 711.635,-17.6159 711.635,-10.6159"/>
</g>
<!-- Node40 -->
<g id="node97" class="node"><title>Node40</title>
<a xlink:href="../../d8/d28/xmpp__core_8h.html#a777c384ae6685d30bfa255c4b33022aa" target="_top" xlink:title="An xmpp_server stanza route for stanzas directed to the server itself.">
<polygon fill="none" stroke="black" points="1068.5,-4.61585 1068.5,-23.6159 1217.5,-23.6159 1217.5,-4.61585 1068.5,-4.61585"/>
<text text-anchor="middle" x="1143" y="-11.6159" font-family="DejaVuSansMono" font-size="10.00">xmpp_core_route_server</text>
</a>
</g>
<!-- Node39&#45;&gt;Node40 -->
<g id="edge114" class="edge"><title>Node39&#45;&gt;Node40</title>
<path fill="none" stroke="midnightblue" d="M885.656,-14.1159C940.76,-14.1159 1014.26,-14.1159 1068.42,-14.1159"/>
<polygon fill="midnightblue" stroke="midnightblue" points="885.59,-10.6159 875.59,-14.1159 885.59,-17.6159 885.59,-10.6159"/>
</g>
<!-- Node40&#45;&gt;Node12 -->
<g id="edge116" class="edge"><title>Node40&#45;&gt;Node12</title>
<path fill="none" stroke="midnightblue" d="M1227.99,-14.1159C1294.25,-14.1159 1389.03,-14.1159 1472,-14.1159 1472,-14.1159 1472,-14.1159 1660,-14.1159 1773.39,-14.1159 1811.53,10.4484 1914,-38.1159 1952.72,-56.4682 1984.09,-99.0813 1996.84,-118.347"/>
<polygon fill="midnightblue" stroke="midnightblue" points="1227.6,-10.6159 1217.6,-14.1159 1227.6,-17.6159 1227.6,-10.6159"/>
</g>
</g>
</svg>
        <g id="navigator" transform="translate(0 0)" fill="#404254">
                <rect fill="#f2f5e9" fill-opacity="0.5" stroke="#606060" stroke-width=".5" x="0" y="0" width="60" height="60"/>
                <use id="zoomplus" xlink:href="#zoomPlus" x="17" y="9" onmousedown="handleZoom(evt,'in')"/>
                <use id="zoomminus" xlink:href="#zoomMin" x="42" y="9" onmousedown="handleZoom(evt,'out')"/>
                <use id="reset" xlink:href="#resetDef" x="30" y="36" onmousedown="handleReset()"/>
                <g id="arrowUp" xlink:href="#dirArrow" transform="translate(30 24)" onmousedown="handlePan(0,-1)">
                  <use xlink:href="#rim" fill="#404040">
                        <set attributeName="fill" to="#808080" begin="arrowUp.mouseover" end="arrowUp.mouseout"/>
                  </use>
                  <path fill="none" stroke="white" stroke-width="1.5" d="M0,-3.0v7 M-2.5,-0.5L0,-3.0L2.5,-0.5"/>
                </g>
                <g id="arrowRight" xlink:href="#dirArrow" transform="rotate(90) translate(36 -43)" onmousedown="handlePan(1,0)">
                  <use xlink:href="#rim" fill="#404040">
                        <set attributeName="fill" to="#808080" begin="arrowRight.mouseover" end="arrowRight.mouseout"/>
                  </use>
                  <path fill="none" stroke="white" stroke-width="1.5" d="M0,-3.0v7 M-2.5,-0.5L0,-3.0L2.5,-0.5"/>
                </g>
                <g id="arrowDown" xlink:href="#dirArrow" transform="rotate(180) translate(-30 -48)" onmousedown="handlePan(0,1)">
                  <use xlink:href="#rim" fill="#404040">
                        <set attributeName="fill" to="#808080" begin="arrowDown.mouseover" end="arrowDown.mouseout"/>
                  </use>
                  <path fill="none" stroke="white" stroke-width="1.5" d="M0,-3.0v7 M-2.5,-0.5L0,-3.0L2.5,-0.5"/>
                </g>
                <g id="arrowLeft" xlink:href="#dirArrow" transform="rotate(270) translate(-36 17)" onmousedown="handlePan(-1,0)">
                  <use xlink:href="#rim" fill="#404040">
                        <set attributeName="fill" to="#808080" begin="arrowLeft.mouseover" end="arrowLeft.mouseout"/>
                  </use>
                  <path fill="none" stroke="white" stroke-width="1.5" d="M0,-3.0v7 M-2.5,-0.5L0,-3.0L2.5,-0.5"/>
                </g>
        </g>
        <svg viewBox="0 0 25 25" width="100%" height="30px" preserveAspectRatio="xMaxYMin meet"> 
          <g id="printButton" transform="scale(0.4 0.4)" onmousedown="handlePrint(evt)">
            <rect height="23.33753581" id="paper" rx="2" style="fill:#f2f5e9;fill-rule:evenodd;stroke:#111111;stroke-width:3.224;stroke-linejoin:round;" transform="matrix(1.000000,0.000000,-0.339266,0.940691,0.000000,0.000000)" width="25.55231285" x="26.69387353" y="7.36162977"/>
            <rect height="26.272097" id="body" rx="2" style="fill:#404040;fill-rule:evenodd;stroke:#111111;stroke-width:3.125;stroke-linejoin:round;" width="50" x="4.5295201" y="27.078951"/>
            <rect height="8.27750969" id="tray" style="fill:#d2d5c9;fill-rule:evenodd;stroke:#111111;stroke-width:3.125;stroke-linecap:round;stroke-linejoin:round;" width="40" x="10.28778839" y="44.96812282"/>
          </g>
        </svg>
</svg>
