<?xml version="1.0" encoding="UTF-8" standalone="no"?>
<!DOCTYPE svg PUBLIC "-//W3C//DTD SVG 1.1//EN"
 "http://www.w3.org/Graphics/SVG/1.1/DTD/svg11.dtd">
<!-- Generated by graphviz version 2.28.0 (20120217.0315)
 -->
<!-- Title: G Pages: 1 -->
<!--zoomable 319 -->
<svg id="main" version="1.1" xmlns="http://www.w3.org/2000/svg" xmlns:xlink="http://www.w3.org/1999/xlink" xml:space="preserve" onload="init(evt)">
        <defs>
                <circle id="rim" cx="0" cy="0" r="7"/>
                <circle id="rim2" cx="0" cy="0" r="3.5"/>
                <g id="zoomPlus">
                        <use xlink:href="#rim" fill="#404040">
                                <set attributeName="fill" to="#808080" begin="zoomplus.mouseover" end="zoomplus.mouseout"/>
                        </use>
                        <path d="M-4,0h8M0,-4v8" fill="none" stroke="white" stroke-width="1.5" pointer-events="none"/>
                </g>
                <g id="zoomMin">
                        <use xlink:href="#rim" fill="#404040">
                                <set attributeName="fill" to="#808080" begin="zoomminus.mouseover" end="zoomminus.mouseout"/>
                        </use>
                        <path d="M-4,0h8" fill="none" stroke="white" stroke-width="1.5" pointer-events="none"/>
                </g>
                <g id="dirArrow">
                        <path fill="none" stroke="white" stroke-width="1.5" d="M0,-3.0v7 M-2.5,-0.5L0,-3.0L2.5,-0.5"/>
                </g>
               <g id="resetDef">
                       <use xlink:href="#rim2" fill="#404040">
                               <set attributeName="fill" to="#808080" begin="reset.mouseover" end="reset.mouseout"/>
                       </use>
               </g>
        </defs>

<script type="text/javascript">
var viewWidth = 1808;
var viewHeight = 319;
var sectionId = 'dynsection-13';
</script>
<script xlink:href="../../svgpan.js"/>
<svg id="graph" class="graph">
<g id="viewport">
<title>G</title>
<!-- Node1 -->
<g id="node1" class="node"><title>Node1</title>
<polygon fill="#bfbfbf" stroke="black" points="0.5,-232.5 0.5,-251.5 89.5,-251.5 89.5,-232.5 0.5,-232.5"/>
<text text-anchor="middle" x="45" y="-239.5" font-family="DejaVuSansMono" font-size="10.00">jid_resource</text>
</g>
<!-- Node2 -->
<g id="node3" class="node"><title>Node2</title>
<a xlink:href="../../d6/d24/jid_8h.html#a6da80c5b44d3c4ef896850a5d1d790b0" target="_top" xlink:title="Allocate and initialize a new JID from an existing JID structure.">
<polygon fill="none" stroke="black" points="126.5,-166.5 126.5,-185.5 239.5,-185.5 239.5,-166.5 126.5,-166.5"/>
<text text-anchor="middle" x="183" y="-173.5" font-family="DejaVuSansMono" font-size="10.00">jid_new_from_jid</text>
</a>
</g>
<!-- Node1&#45;&gt;Node2 -->
<g id="edge2" class="edge"><title>Node1&#45;&gt;Node2</title>
<path fill="none" stroke="midnightblue" d="M74.8703,-227.989C101.142,-215.24 139.226,-196.758 162.201,-185.609"/>
<polygon fill="midnightblue" stroke="midnightblue" points="73.244,-224.888 65.7756,-232.403 76.3003,-231.186 73.244,-224.888"/>
</g>
<!-- Node8 -->
<g id="node15" class="node"><title>Node8</title>
<a xlink:href="../../d7/d71/xep__muc_8c.html#aefd23f2960520a68fea212344b85cb0b" target="_top" xlink:title="enter_room_presence">
<polygon fill="none" stroke="black" points="468.5,-242.5 468.5,-261.5 599.5,-261.5 599.5,-242.5 468.5,-242.5"/>
<text text-anchor="middle" x="534" y="-249.5" font-family="DejaVuSansMono" font-size="10.00">enter_room_presence</text>
</a>
</g>
<!-- Node1&#45;&gt;Node8 -->
<g id="edge58" class="edge"><title>Node1&#45;&gt;Node8</title>
<path fill="none" stroke="midnightblue" d="M84.4052,-254.456C154.048,-275.34 305.666,-312.98 432,-290 461.676,-284.602 493.973,-270.964 513.857,-261.585"/>
<polygon fill="midnightblue" stroke="midnightblue" points="85.3238,-251.077 74.7376,-251.505 83.2803,-257.772 85.3238,-251.077"/>
</g>
<!-- Node9 -->
<g id="node17" class="node"><title>Node9</title>
<a xlink:href="../../d7/d71/xep__muc_8c.html#a9936322b944d46aead9fbd942687ec0a" target="_top" xlink:title="handle_presence">
<polygon fill="none" stroke="black" points="669.5,-242.5 669.5,-261.5 776.5,-261.5 776.5,-242.5 669.5,-242.5"/>
<text text-anchor="middle" x="723" y="-249.5" font-family="DejaVuSansMono" font-size="10.00">handle_presence</text>
</a>
</g>
<!-- Node1&#45;&gt;Node9 -->
<g id="edge56" class="edge"><title>Node1&#45;&gt;Node9</title>
<path fill="none" stroke="midnightblue" d="M66.1303,-257.841C81.5893,-269.1 103.959,-283.502 126,-291 189.472,-312.593 209.05,-303.439 276,-307 345.235,-310.682 362.971,-313.488 432,-307 523.326,-298.416 628.721,-274.947 683.861,-261.605"/>
<polygon fill="midnightblue" stroke="midnightblue" points="67.9809,-254.854 57.8815,-251.652 63.7796,-260.453 67.9809,-254.854"/>
</g>
<!-- Node12 -->
<g id="node26" class="node"><title>Node12</title>
<a xlink:href="../../df/da9/xmpp__auth_8c.html#a603b4a63af3c4e4af99442805fe89ae8" target="_top" xlink:title="Step 15: Client binds a resource.">
<polygon fill="none" stroke="black" points="303.5,-33.5 303.5,-52.5 404.5,-52.5 404.5,-33.5 303.5,-33.5"/>
<text text-anchor="middle" x="354" y="-40.5" font-family="DejaVuSansMono" font-size="10.00">handle_bind_iq</text>
</a>
</g>
<!-- Node1&#45;&gt;Node12 -->
<g id="edge60" class="edge"><title>Node1&#45;&gt;Node12</title>
<path fill="none" stroke="midnightblue" d="M60.2184,-224.217C75.3243,-206.007 100.502,-177.538 126,-157 186.548,-108.231 205.052,-98.7928 276,-67 288.65,-61.3313 303.032,-56.4577 315.914,-52.6121"/>
<polygon fill="midnightblue" stroke="midnightblue" points="57.2702,-222.294 53.6546,-232.253 62.6914,-226.722 57.2702,-222.294"/>
</g>
<!-- Node3 -->
<g id="node5" class="node"><title>Node3</title>
<a xlink:href="../../d7/d71/xep__muc_8c.html#acf84f00141033b025df269e540461383" target="_top" xlink:title="handle_message">
<polygon fill="none" stroke="black" points="483.5,-147.5 483.5,-166.5 584.5,-166.5 584.5,-147.5 483.5,-147.5"/>
<text text-anchor="middle" x="534" y="-154.5" font-family="DejaVuSansMono" font-size="10.00">handle_message</text>
</a>
</g>
<!-- Node2&#45;&gt;Node3 -->
<g id="edge4" class="edge"><title>Node2&#45;&gt;Node3</title>
<path fill="none" stroke="midnightblue" d="M249.849,-172.415C317.78,-168.717 422.199,-163.032 483.442,-159.698"/>
<polygon fill="midnightblue" stroke="midnightblue" points="249.481,-168.93 239.686,-172.968 249.862,-175.92 249.481,-168.93"/>
</g>
<!-- Node7 -->
<g id="node13" class="node"><title>Node7</title>
<a xlink:href="../../d7/d71/xep__muc_8c.html#a1b52b88e96c04035a9e9f53e6210d149" target="_top" xlink:title="room_new">
<polygon fill="none" stroke="black" points="321.5,-223.5 321.5,-242.5 386.5,-242.5 386.5,-223.5 321.5,-223.5"/>
<text text-anchor="middle" x="354" y="-230.5" font-family="DejaVuSansMono" font-size="10.00">room_new</text>
</a>
</g>
<!-- Node2&#45;&gt;Node7 -->
<g id="edge12" class="edge"><title>Node2&#45;&gt;Node7</title>
<path fill="none" stroke="midnightblue" d="M213.782,-189.633C231.588,-197.446 254.801,-207.05 276,-214 290.654,-218.804 307.224,-223.042 321.229,-226.288"/>
<polygon fill="midnightblue" stroke="midnightblue" points="215.053,-186.367 204.493,-185.504 212.21,-192.764 215.053,-186.367"/>
</g>
<!-- Node10 -->
<g id="node20" class="node"><title>Node10</title>
<a xlink:href="../../d7/d71/xep__muc_8c.html#ad34287dce9e621d00af71d307f7a22dd" target="_top" xlink:title="room_client_new">
<polygon fill="none" stroke="black" points="300.5,-185.5 300.5,-204.5 407.5,-204.5 407.5,-185.5 300.5,-185.5"/>
<text text-anchor="middle" x="354" y="-192.5" font-family="DejaVuSansMono" font-size="10.00">room_client_new</text>
</a>
</g>
<!-- Node2&#45;&gt;Node10 -->
<g id="edge20" class="edge"><title>Node2&#45;&gt;Node10</title>
<path fill="none" stroke="midnightblue" d="M250.049,-183.426C266.752,-185.303 284.466,-187.295 300.404,-189.087"/>
<polygon fill="midnightblue" stroke="midnightblue" points="250.134,-179.913 239.805,-182.274 249.352,-186.869 250.134,-179.913"/>
</g>
<!-- Node11 -->
<g id="node23" class="node"><title>Node11</title>
<a xlink:href="../../d7/d71/xep__muc_8c.html#a115281f539cd77f88872ff153ec5b38d" target="_top" xlink:title="send_presence_broadcast">
<polygon fill="none" stroke="black" points="276.5,-261.5 276.5,-280.5 431.5,-280.5 431.5,-261.5 276.5,-261.5"/>
<text text-anchor="middle" x="354" y="-268.5" font-family="DejaVuSansMono" font-size="10.00">send_presence_broadcast</text>
</a>
</g>
<!-- Node2&#45;&gt;Node11 -->
<g id="edge24" class="edge"><title>Node2&#45;&gt;Node11</title>
<path fill="none" stroke="midnightblue" d="M199.65,-192.783C216.774,-210.15 245.829,-236.819 276,-252 283.626,-255.837 292.074,-258.93 300.5,-261.414"/>
<polygon fill="midnightblue" stroke="midnightblue" points="202.121,-190.303 192.661,-185.533 197.081,-195.161 202.121,-190.303"/>
</g>
<!-- Node2&#45;&gt;Node12 -->
<g id="edge28" class="edge"><title>Node2&#45;&gt;Node12</title>
<path fill="none" stroke="midnightblue" d="M200.206,-158.817C211.601,-146.554 227.061,-129.547 240,-114 256.832,-93.7757 254.428,-82.0661 276,-67 284.954,-60.7463 295.6,-56.0755 306.076,-52.6035"/>
<polygon fill="midnightblue" stroke="midnightblue" points="197.645,-156.431 193.373,-166.127 202.759,-161.212 197.645,-156.431"/>
</g>
<!-- Node22 -->
<g id="node47" class="node"><title>Node22</title>
<a xlink:href="../../d1/d2e/xmpp__server_8h.html#a1c8e466b41f2895d5a0b57ee9f0a4c0b" target="_top" xlink:title="Add an item to the response for disco item queries.">
<polygon fill="none" stroke="black" points="636.5,-83.5 636.5,-102.5 809.5,-102.5 809.5,-83.5 636.5,-83.5"/>
<text text-anchor="middle" x="723" y="-90.5" font-family="DejaVuSansMono" font-size="10.00">xmpp_server_add_disco_item</text>
</a>
</g>
<!-- Node2&#45;&gt;Node22 -->
<g id="edge50" class="edge"><title>Node2&#45;&gt;Node22</title>
<path fill="none" stroke="midnightblue" d="M205.933,-160.44C216.454,-152.753 229.109,-143.176 240,-134 256.83,-119.819 255.614,-108.291 276,-100 413.372,-44.1317 594.792,-67.9306 677.491,-83.4696"/>
<polygon fill="midnightblue" stroke="midnightblue" points="203.737,-157.708 197.682,-166.402 207.837,-163.382 203.737,-157.708"/>
</g>
<!-- Node23 -->
<g id="node50" class="node"><title>Node23</title>
<a xlink:href="../../d0/df0/xmpp__server_8c.html#af1d37b8251dd106082d3fe8097dd565b" target="_top" xlink:title="stanza_route_new">
<polygon fill="none" stroke="black" points="297.5,-109.5 297.5,-128.5 410.5,-128.5 410.5,-109.5 297.5,-109.5"/>
<text text-anchor="middle" x="354" y="-116.5" font-family="DejaVuSansMono" font-size="10.00">stanza_route_new</text>
</a>
</g>
<!-- Node2&#45;&gt;Node23 -->
<g id="edge54" class="edge"><title>Node2&#45;&gt;Node23</title>
<path fill="none" stroke="midnightblue" d="M219.252,-162.961C236.329,-156.746 257.17,-149.309 276,-143 290.87,-138.018 307.467,-132.802 321.434,-128.509"/>
<polygon fill="midnightblue" stroke="midnightblue" points="217.866,-159.741 209.675,-166.462 220.269,-166.316 217.866,-159.741"/>
</g>
<!-- Node4 -->
<g id="node7" class="node"><title>Node4</title>
<a xlink:href="../../d7/d71/xep__muc_8c.html#a1798db1c16a1fa62ff8f39fea202a26f" target="_top" xlink:title="stanza_handler">
<polygon fill="none" stroke="black" points="855.5,-147.5 855.5,-166.5 956.5,-166.5 956.5,-147.5 855.5,-147.5"/>
<text text-anchor="middle" x="906" y="-154.5" font-family="DejaVuSansMono" font-size="10.00">stanza_handler</text>
</a>
</g>
<!-- Node3&#45;&gt;Node4 -->
<g id="edge6" class="edge"><title>Node3&#45;&gt;Node4</title>
<path fill="none" stroke="midnightblue" d="M594.845,-157C667.308,-157 788.008,-157 855.482,-157"/>
<polygon fill="midnightblue" stroke="midnightblue" points="594.516,-153.5 584.516,-157 594.516,-160.5 594.516,-153.5"/>
</g>
<!-- Node5 -->
<g id="node9" class="node"><title>Node5</title>
<a xlink:href="../../d7/d71/xep__muc_8c.html#addf05166cf3fbe386ae6650be21ef251" target="_top" xlink:title="xep_muc_start">
<polygon fill="none" stroke="black" points="1008.5,-100.5 1008.5,-119.5 1103.5,-119.5 1103.5,-100.5 1008.5,-100.5"/>
<text text-anchor="middle" x="1056" y="-107.5" font-family="DejaVuSansMono" font-size="10.00">xep_muc_start</text>
</a>
</g>
<!-- Node4&#45;&gt;Node5 -->
<g id="edge8" class="edge"><title>Node4&#45;&gt;Node5</title>
<path fill="none" stroke="midnightblue" d="M946.694,-144.394C971.257,-136.594 1002.29,-126.738 1024.84,-119.578"/>
<polygon fill="midnightblue" stroke="midnightblue" points="945.422,-141.126 936.95,-147.489 947.54,-147.798 945.422,-141.126"/>
</g>
<!-- Node6 -->
<g id="node11" class="node"><title>Node6</title>
<a xlink:href="../../d7/d71/xep__muc_8c.html#a20d385a5584d8014ec4d5774eb79d1de" target="_top" xlink:title="xep_muc_stop">
<polygon fill="none" stroke="black" points="1011.5,-147.5 1011.5,-166.5 1100.5,-166.5 1100.5,-147.5 1011.5,-147.5"/>
<text text-anchor="middle" x="1056" y="-154.5" font-family="DejaVuSansMono" font-size="10.00">xep_muc_stop</text>
</a>
</g>
<!-- Node4&#45;&gt;Node6 -->
<g id="edge10" class="edge"><title>Node4&#45;&gt;Node6</title>
<path fill="none" stroke="midnightblue" d="M966.801,-157C981.627,-157 997.244,-157 1011.15,-157"/>
<polygon fill="midnightblue" stroke="midnightblue" points="966.694,-153.5 956.694,-157 966.694,-160.5 966.694,-153.5"/>
</g>
<!-- Node7&#45;&gt;Node8 -->
<g id="edge14" class="edge"><title>Node7&#45;&gt;Node8</title>
<path fill="none" stroke="midnightblue" d="M396.83,-237.465C418.11,-239.736 444.451,-242.548 468.278,-245.091"/>
<polygon fill="midnightblue" stroke="midnightblue" points="397.138,-233.978 386.823,-236.397 396.395,-240.939 397.138,-233.978"/>
</g>
<!-- Node8&#45;&gt;Node9 -->
<g id="edge16" class="edge"><title>Node8&#45;&gt;Node9</title>
<path fill="none" stroke="midnightblue" d="M609.644,-252C629.669,-252 650.898,-252 669.447,-252"/>
<polygon fill="midnightblue" stroke="midnightblue" points="609.617,-248.5 599.617,-252 609.617,-255.5 609.617,-248.5"/>
</g>
<!-- Node9&#45;&gt;Node4 -->
<g id="edge18" class="edge"><title>Node9&#45;&gt;Node4</title>
<path fill="none" stroke="midnightblue" d="M751.681,-237.472C789.185,-217.787 855.098,-183.191 886.869,-166.516"/>
<polygon fill="midnightblue" stroke="midnightblue" points="749.579,-234.622 742.351,-242.368 752.832,-240.82 749.579,-234.622"/>
</g>
<!-- Node10&#45;&gt;Node8 -->
<g id="edge22" class="edge"><title>Node10&#45;&gt;Node8</title>
<path fill="none" stroke="midnightblue" d="M407.534,-207.083C415.767,-209.229 424.147,-211.563 432,-214 459.197,-222.44 489.704,-234.254 510.003,-242.46"/>
<polygon fill="midnightblue" stroke="midnightblue" points="408.164,-203.632 397.61,-204.563 406.441,-210.416 408.164,-203.632"/>
</g>
<!-- Node11&#45;&gt;Node8 -->
<g id="edge26" class="edge"><title>Node11&#45;&gt;Node8</title>
<path fill="none" stroke="midnightblue" d="M441.622,-261.754C450.598,-260.796 459.607,-259.834 468.282,-258.908"/>
<polygon fill="midnightblue" stroke="midnightblue" points="441.093,-258.29 431.521,-262.832 441.836,-265.251 441.093,-258.29"/>
</g>
<!-- Node13 -->
<g id="node28" class="node"><title>Node13</title>
<a xlink:href="../../df/da9/xmpp__auth_8c.html#a01804bd53eccc182ce76337fc0863e8d" target="_top" xlink:title="stream_bind_start">
<polygon fill="none" stroke="black" points="474.5,-33.5 474.5,-52.5 593.5,-52.5 593.5,-33.5 474.5,-33.5"/>
<text text-anchor="middle" x="534" y="-40.5" font-family="DejaVuSansMono" font-size="10.00">stream_bind_start</text>
</a>
</g>
<!-- Node12&#45;&gt;Node13 -->
<g id="edge30" class="edge"><title>Node12&#45;&gt;Node13</title>
<path fill="none" stroke="midnightblue" d="M414.702,-43C433.882,-43 455.106,-43 474.219,-43"/>
<polygon fill="midnightblue" stroke="midnightblue" points="414.583,-39.5001 404.583,-43 414.583,-46.5001 414.583,-39.5001"/>
</g>
<!-- Node14 -->
<g id="node30" class="node"><title>Node14</title>
<a xlink:href="../../df/da9/xmpp__auth_8c.html#afb770a216868aa3fb43813b19d2a0115" target="_top" xlink:title="Begins SASL PLAIN authentication.">
<polygon fill="none" stroke="black" points="663.5,-33.5 663.5,-52.5 782.5,-52.5 782.5,-33.5 663.5,-33.5"/>
<text text-anchor="middle" x="723" y="-40.5" font-family="DejaVuSansMono" font-size="10.00">handle_sasl_plain</text>
</a>
</g>
<!-- Node13&#45;&gt;Node14 -->
<g id="edge32" class="edge"><title>Node13&#45;&gt;Node14</title>
<path fill="none" stroke="midnightblue" d="M603.71,-43C623.248,-43 644.342,-43 663.232,-43"/>
<polygon fill="midnightblue" stroke="midnightblue" points="603.655,-39.5001 593.655,-43 603.655,-46.5001 603.655,-39.5001"/>
</g>
<!-- Node15 -->
<g id="node32" class="node"><title>Node15</title>
<a xlink:href="../../d3/d24/xmpp__auth_8h.html#ad3efd9ab093646bdfd8832c34ae2de4d" target="_top" xlink:title="Handler for the inital stream start to begin authentication.">
<polygon fill="none" stroke="black" points="1146.5,-19.5 1146.5,-38.5 1295.5,-38.5 1295.5,-19.5 1146.5,-19.5"/>
<text text-anchor="middle" x="1221" y="-26.5" font-family="DejaVuSansMono" font-size="10.00">xmpp_auth_stream_start</text>
</a>
</g>
<!-- Node14&#45;&gt;Node15 -->
<g id="edge34" class="edge"><title>Node14&#45;&gt;Node15</title>
<path fill="none" stroke="midnightblue" d="M792.997,-41.0525C886.023,-38.4268 1050.97,-33.7709 1146.34,-31.0792"/>
<polygon fill="midnightblue" stroke="midnightblue" points="792.743,-37.5582 782.845,-41.339 792.94,-44.5554 792.743,-37.5582"/>
</g>
<!-- Node20 -->
<g id="node42" class="node"><title>Node20</title>
<a xlink:href="../../df/da9/xmpp__auth_8c.html#afd7b12689591d40109a88ad108b5c3a2" target="_top" xlink:title="stream_sasl_start">
<polygon fill="none" stroke="black" points="846.5,-0.5 846.5,-19.5 965.5,-19.5 965.5,-0.5 846.5,-0.5"/>
<text text-anchor="middle" x="906" y="-7.5" font-family="DejaVuSansMono" font-size="10.00">stream_sasl_start</text>
</a>
</g>
<!-- Node14&#45;&gt;Node20 -->
<g id="edge44" class="edge"><title>Node14&#45;&gt;Node20</title>
<path fill="none" stroke="midnightblue" d="M786.425,-31.6186C808.049,-27.6761 832.047,-23.3008 852.765,-19.5235"/>
<polygon fill="midnightblue" stroke="midnightblue" points="785.563,-28.2181 776.353,-33.455 786.818,-35.1046 785.563,-28.2181"/>
</g>
<!-- Node16 -->
<g id="node34" class="node"><title>Node16</title>
<a xlink:href="../../d4/d2f/xmpp__client_8h.html#a1619c0b8f58b2cf09a322bf34fbc3414" target="_top" xlink:title="xmpp_client_new">
<polygon fill="none" stroke="black" points="1332.5,-19.5 1332.5,-38.5 1439.5,-38.5 1439.5,-19.5 1332.5,-19.5"/>
<text text-anchor="middle" x="1386" y="-26.5" font-family="DejaVuSansMono" font-size="10.00">xmpp_client_new</text>
</a>
</g>
<!-- Node15&#45;&gt;Node16 -->
<g id="edge36" class="edge"><title>Node15&#45;&gt;Node16</title>
<path fill="none" stroke="midnightblue" d="M1305.99,-29C1314.95,-29 1323.88,-29 1332.33,-29"/>
<polygon fill="midnightblue" stroke="midnightblue" points="1305.87,-25.5001 1295.87,-29 1305.87,-32.5001 1305.87,-25.5001"/>
</g>
<!-- Node17 -->
<g id="node36" class="node"><title>Node17</title>
<a xlink:href="../../d0/df0/xmpp__server_8c.html#a66363912ef1221a2574f9f99805fe8fd" target="_top" xlink:title="Callback for new client connections.">
<polygon fill="none" stroke="black" points="1476.5,-19.5 1476.5,-38.5 1577.5,-38.5 1577.5,-19.5 1476.5,-19.5"/>
<text text-anchor="middle" x="1527" y="-26.5" font-family="DejaVuSansMono" font-size="10.00">connect_client</text>
</a>
</g>
<!-- Node16&#45;&gt;Node17 -->
<g id="edge38" class="edge"><title>Node16&#45;&gt;Node17</title>
<path fill="none" stroke="midnightblue" d="M1449.8,-29C1458.63,-29 1467.59,-29 1476.13,-29"/>
<polygon fill="midnightblue" stroke="midnightblue" points="1449.55,-25.5001 1439.55,-29 1449.55,-32.5001 1449.55,-25.5001"/>
</g>
<!-- Node18 -->
<g id="node38" class="node"><title>Node18</title>
<a xlink:href="../../d1/d2e/xmpp__server_8h.html#a27bfc8e4d424a8bc17ab21a4a09cdf92" target="_top" xlink:title="Allocates and initializes the XMPP server.">
<polygon fill="none" stroke="black" points="1614.5,-19.5 1614.5,-38.5 1721.5,-38.5 1721.5,-19.5 1614.5,-19.5"/>
<text text-anchor="middle" x="1668" y="-26.5" font-family="DejaVuSansMono" font-size="10.00">xmpp_server_new</text>
</a>
</g>
<!-- Node17&#45;&gt;Node18 -->
<g id="edge40" class="edge"><title>Node17&#45;&gt;Node18</title>
<path fill="none" stroke="midnightblue" d="M1587.94,-29C1596.7,-29 1605.67,-29 1614.27,-29"/>
<polygon fill="midnightblue" stroke="midnightblue" points="1587.79,-25.5001 1577.79,-29 1587.79,-32.5001 1587.79,-25.5001"/>
</g>
<!-- Node19 -->
<g id="node40" class="node"><title>Node19</title>
<a xlink:href="../../d0/d29/main_8c.html#a0ddf1224851353fc92bfbff6f499fa97" target="_top" xlink:title="main">
<polygon fill="none" stroke="black" points="1758.5,-19.5 1758.5,-38.5 1799.5,-38.5 1799.5,-19.5 1758.5,-19.5"/>
<text text-anchor="middle" x="1779" y="-26.5" font-family="DejaVuSansMono" font-size="10.00">main</text>
</a>
</g>
<!-- Node18&#45;&gt;Node19 -->
<g id="edge42" class="edge"><title>Node18&#45;&gt;Node19</title>
<path fill="none" stroke="midnightblue" d="M1731.75,-29C1741.43,-29 1750.76,-29 1758.47,-29"/>
<polygon fill="midnightblue" stroke="midnightblue" points="1731.58,-25.5001 1721.58,-29 1731.58,-32.5001 1731.58,-25.5001"/>
</g>
<!-- Node21 -->
<g id="node44" class="node"><title>Node21</title>
<a xlink:href="../../df/da9/xmpp__auth_8c.html#a8dd789e057b9812e4dd1aa524dfb6a65" target="_top" xlink:title="Begins TLS authentication.">
<polygon fill="none" stroke="black" points="1002.5,-0.5 1002.5,-19.5 1109.5,-19.5 1109.5,-0.5 1002.5,-0.5"/>
<text text-anchor="middle" x="1056" y="-7.5" font-family="DejaVuSansMono" font-size="10.00">handle_starttls</text>
</a>
</g>
<!-- Node20&#45;&gt;Node21 -->
<g id="edge46" class="edge"><title>Node20&#45;&gt;Node21</title>
<path fill="none" stroke="midnightblue" d="M976.085,-10C984.806,-10 993.619,-10 1002.04,-10"/>
<polygon fill="midnightblue" stroke="midnightblue" points="975.919,-6.5001 965.919,-10 975.919,-13.5001 975.919,-6.5001"/>
</g>
<!-- Node21&#45;&gt;Node15 -->
<g id="edge48" class="edge"><title>Node21&#45;&gt;Node15</title>
<path fill="none" stroke="midnightblue" d="M1119.91,-17.3332C1128.56,-18.3411 1137.5,-19.3833 1146.32,-20.4112"/>
<polygon fill="midnightblue" stroke="midnightblue" points="1120.26,-13.8502 1109.92,-16.1688 1119.45,-20.8031 1120.26,-13.8502"/>
</g>
<!-- Node22&#45;&gt;Node5 -->
<g id="edge52" class="edge"><title>Node22&#45;&gt;Node5</title>
<path fill="none" stroke="midnightblue" d="M819.865,-97.9236C881.839,-101.107 959.745,-105.108 1008.47,-107.61"/>
<polygon fill="midnightblue" stroke="midnightblue" points="819.838,-94.4176 809.671,-97.4 819.478,-101.408 819.838,-94.4176"/>
</g>
</g>
</svg>
        <g id="navigator" transform="translate(0 0)" fill="#404254">
                <rect fill="#f2f5e9" fill-opacity="0.5" stroke="#606060" stroke-width=".5" x="0" y="0" width="60" height="60"/>
                <use id="zoomplus" xlink:href="#zoomPlus" x="17" y="9" onmousedown="handleZoom(evt,'in')"/>
                <use id="zoomminus" xlink:href="#zoomMin" x="42" y="9" onmousedown="handleZoom(evt,'out')"/>
                <use id="reset" xlink:href="#resetDef" x="30" y="36" onmousedown="handleReset()"/>
                <g id="arrowUp" xlink:href="#dirArrow" transform="translate(30 24)" onmousedown="handlePan(0,-1)">
                  <use xlink:href="#rim" fill="#404040">
                        <set attributeName="fill" to="#808080" begin="arrowUp.mouseover" end="arrowUp.mouseout"/>
                  </use>
                  <path fill="none" stroke="white" stroke-width="1.5" d="M0,-3.0v7 M-2.5,-0.5L0,-3.0L2.5,-0.5"/>
                </g>
                <g id="arrowRight" xlink:href="#dirArrow" transform="rotate(90) translate(36 -43)" onmousedown="handlePan(1,0)">
                  <use xlink:href="#rim" fill="#404040">
                        <set attributeName="fill" to="#808080" begin="arrowRight.mouseover" end="arrowRight.mouseout"/>
                  </use>
                  <path fill="none" stroke="white" stroke-width="1.5" d="M0,-3.0v7 M-2.5,-0.5L0,-3.0L2.5,-0.5"/>
                </g>
                <g id="arrowDown" xlink:href="#dirArrow" transform="rotate(180) translate(-30 -48)" onmousedown="handlePan(0,1)">
                  <use xlink:href="#rim" fill="#404040">
                        <set attributeName="fill" to="#808080" begin="arrowDown.mouseover" end="arrowDown.mouseout"/>
                  </use>
                  <path fill="none" stroke="white" stroke-width="1.5" d="M0,-3.0v7 M-2.5,-0.5L0,-3.0L2.5,-0.5"/>
                </g>
                <g id="arrowLeft" xlink:href="#dirArrow" transform="rotate(270) translate(-36 17)" onmousedown="handlePan(-1,0)">
                  <use xlink:href="#rim" fill="#404040">
                        <set attributeName="fill" to="#808080" begin="arrowLeft.mouseover" end="arrowLeft.mouseout"/>
                  </use>
                  <path fill="none" stroke="white" stroke-width="1.5" d="M0,-3.0v7 M-2.5,-0.5L0,-3.0L2.5,-0.5"/>
                </g>
        </g>
        <svg viewBox="0 0 25 25" width="100%" height="30px" preserveAspectRatio="xMaxYMin meet"> 
          <g id="printButton" transform="scale(0.4 0.4)" onmousedown="handlePrint(evt)">
            <rect height="23.33753581" id="paper" rx="2" style="fill:#f2f5e9;fill-rule:evenodd;stroke:#111111;stroke-width:3.224;stroke-linejoin:round;" transform="matrix(1.000000,0.000000,-0.339266,0.940691,0.000000,0.000000)" width="25.55231285" x="26.69387353" y="7.36162977"/>
            <rect height="26.272097" id="body" rx="2" style="fill:#404040;fill-rule:evenodd;stroke:#111111;stroke-width:3.125;stroke-linejoin:round;" width="50" x="4.5295201" y="27.078951"/>
            <rect height="8.27750969" id="tray" style="fill:#d2d5c9;fill-rule:evenodd;stroke:#111111;stroke-width:3.125;stroke-linecap:round;stroke-linejoin:round;" width="40" x="10.28778839" y="44.96812282"/>
          </g>
        </svg>
</svg>
