<?xml version="1.0" encoding="UTF-8" standalone="no"?>
<!DOCTYPE svg PUBLIC "-//W3C//DTD SVG 1.1//EN"
 "http://www.w3.org/Graphics/SVG/1.1/DTD/svg11.dtd">
<!-- Generated by graphviz version 2.28.0 (20120217.0315)
 -->
<!-- Title: G Pages: 1 -->
<!--zoomable 276 -->
<svg id="main" version="1.1" xmlns="http://www.w3.org/2000/svg" xmlns:xlink="http://www.w3.org/1999/xlink" xml:space="preserve" onload="init(evt)">
        <defs>
                <circle id="rim" cx="0" cy="0" r="7"/>
                <circle id="rim2" cx="0" cy="0" r="3.5"/>
                <g id="zoomPlus">
                        <use xlink:href="#rim" fill="#404040">
                                <set attributeName="fill" to="#808080" begin="zoomplus.mouseover" end="zoomplus.mouseout"/>
                        </use>
                        <path d="M-4,0h8M0,-4v8" fill="none" stroke="white" stroke-width="1.5" pointer-events="none"/>
                </g>
                <g id="zoomMin">
                        <use xlink:href="#rim" fill="#404040">
                                <set attributeName="fill" to="#808080" begin="zoomminus.mouseover" end="zoomminus.mouseout"/>
                        </use>
                        <path d="M-4,0h8" fill="none" stroke="white" stroke-width="1.5" pointer-events="none"/>
                </g>
                <g id="dirArrow">
                        <path fill="none" stroke="white" stroke-width="1.5" d="M0,-3.0v7 M-2.5,-0.5L0,-3.0L2.5,-0.5"/>
                </g>
               <g id="resetDef">
                       <use xlink:href="#rim2" fill="#404040">
                               <set attributeName="fill" to="#808080" begin="reset.mouseover" end="reset.mouseout"/>
                       </use>
               </g>
        </defs>

<script type="text/javascript">
var viewWidth = 1790;
var viewHeight = 276;
var sectionId = 'dynsection-1';
</script>
<script xlink:href="../../svgpan.js"/>
<svg id="graph" class="graph">
<g id="viewport">
<title>G</title>
<!-- Node1 -->
<g id="node1" class="node"><title>Node1</title>
<polygon fill="#bfbfbf" stroke="black" points="0.5,-152.5 0.5,-171.5 59.5,-171.5 59.5,-152.5 0.5,-152.5"/>
<text text-anchor="middle" x="30" y="-159.5" font-family="DejaVuSansMono" font-size="10.00">jid_cmp</text>
</g>
<!-- Node2 -->
<g id="node3" class="node"><title>Node2</title>
<a xlink:href="../../d7/d71/xep__muc_8c.html#acf84f00141033b025df269e540461383" target="_top" xlink:title="handle_message">
<polygon fill="none" stroke="black" points="306.5,-247.5 306.5,-266.5 407.5,-266.5 407.5,-247.5 306.5,-247.5"/>
<text text-anchor="middle" x="357" y="-254.5" font-family="DejaVuSansMono" font-size="10.00">handle_message</text>
</a>
</g>
<!-- Node1&#45;&gt;Node2 -->
<g id="edge2" class="edge"><title>Node1&#45;&gt;Node2</title>
<path fill="none" stroke="midnightblue" d="M41.0439,-180.653C51.9413,-198.808 71.1607,-225.442 96,-238 162.644,-271.694 251.389,-269.847 306.06,-264.277"/>
<polygon fill="midnightblue" stroke="midnightblue" points="43.862,-178.53 35.8632,-171.582 37.7835,-182.001 43.862,-178.53"/>
</g>
<!-- Node6 -->
<g id="node11" class="node"><title>Node6</title>
<a xlink:href="../../d7/d71/xep__muc_8c.html#a40cdc65e1b60c76aef97dfc9d3f2510f" target="_top" xlink:title="leave_room_presence">
<polygon fill="none" stroke="black" points="108.5,-209.5 108.5,-228.5 239.5,-228.5 239.5,-209.5 108.5,-209.5"/>
<text text-anchor="middle" x="174" y="-216.5" font-family="DejaVuSansMono" font-size="10.00">leave_room_presence</text>
</a>
</g>
<!-- Node1&#45;&gt;Node6 -->
<g id="edge10" class="edge"><title>Node1&#45;&gt;Node6</title>
<path fill="none" stroke="midnightblue" d="M53.4232,-177.271C65.5857,-184.987 81.1357,-193.968 96,-200 105.186,-203.728 115.296,-206.861 125.083,-209.44"/>
<polygon fill="midnightblue" stroke="midnightblue" points="55.1395,-174.212 44.8501,-171.686 51.3186,-180.077 55.1395,-174.212"/>
</g>
<!-- Node8 -->
<g id="node16" class="node"><title>Node8</title>
<a xlink:href="../../d7/d71/xep__muc_8c.html#a0214cd898b2f0c746cb45f79746e5095" target="_top" xlink:title="client_disconnect">
<polygon fill="none" stroke="black" points="114.5,-171.5 114.5,-190.5 233.5,-190.5 233.5,-171.5 114.5,-171.5"/>
<text text-anchor="middle" x="174" y="-178.5" font-family="DejaVuSansMono" font-size="10.00">client_disconnect</text>
</a>
</g>
<!-- Node1&#45;&gt;Node8 -->
<g id="edge16" class="edge"><title>Node1&#45;&gt;Node8</title>
<path fill="none" stroke="midnightblue" d="M69.8079,-167.193C83.561,-169.033 99.3586,-171.147 114.391,-173.158"/>
<polygon fill="midnightblue" stroke="midnightblue" points="70.1117,-163.702 59.7358,-165.845 69.1833,-170.64 70.1117,-163.702"/>
</g>
<!-- Node10 -->
<g id="node21" class="node"><title>Node10</title>
<a xlink:href="../../d1/d2e/xmpp__server_8h.html#a312f47af548e12ec5d866bea1d142d5e" target="_top" xlink:title="Find a locally connected client by JID.">
<polygon fill="none" stroke="black" points="96.5,-95.5 96.5,-114.5 251.5,-114.5 251.5,-95.5 96.5,-95.5"/>
<text text-anchor="middle" x="174" y="-102.5" font-family="DejaVuSansMono" font-size="10.00">xmpp_server_find_client</text>
</a>
</g>
<!-- Node1&#45;&gt;Node10 -->
<g id="edge22" class="edge"><title>Node1&#45;&gt;Node10</title>
<path fill="none" stroke="midnightblue" d="M56.8358,-147.625C68.5751,-141.424 82.7703,-134.376 96,-129 109.491,-123.518 124.729,-118.529 138.067,-114.538"/>
<polygon fill="midnightblue" stroke="midnightblue" points="55.163,-144.551 48.013,-152.369 58.4781,-150.716 55.163,-144.551"/>
</g>
<!-- Node24 -->
<g id="node51" class="node"><title>Node24</title>
<a xlink:href="../../d1/d2e/xmpp__server_8h.html#aefac210c3c13fc8c6f7f35bd8feee86b" target="_top" xlink:title="Remove an item from the response for disco item queries.">
<polygon fill="none" stroke="black" points="618.5,-135.5 618.5,-154.5 791.5,-154.5 791.5,-135.5 618.5,-135.5"/>
<text text-anchor="middle" x="705" y="-142.5" font-family="DejaVuSansMono" font-size="10.00">xmpp_server_del_disco_item</text>
</a>
</g>
<!-- Node1&#45;&gt;Node24 -->
<g id="edge54" class="edge"><title>Node1&#45;&gt;Node24</title>
<path fill="none" stroke="midnightblue" d="M70.1676,-161.011C176.263,-158.331 471.087,-150.883 618.209,-147.167"/>
<polygon fill="midnightblue" stroke="midnightblue" points="69.8264,-157.518 59.918,-161.27 70.0032,-164.516 69.8264,-157.518"/>
</g>
<!-- Node25 -->
<g id="node54" class="node"><title>Node25</title>
<a xlink:href="../../d0/df0/xmpp__server_8c.html#ad9c33d7262b8e6c8651e5bc47223243c" target="_top" xlink:title="stanza_route_cmp">
<polygon fill="none" stroke="black" points="117.5,-57.5 117.5,-76.5 230.5,-76.5 230.5,-57.5 117.5,-57.5"/>
<text text-anchor="middle" x="174" y="-64.5" font-family="DejaVuSansMono" font-size="10.00">stanza_route_cmp</text>
</a>
</g>
<!-- Node1&#45;&gt;Node25 -->
<g id="edge58" class="edge"><title>Node1&#45;&gt;Node25</title>
<path fill="none" stroke="midnightblue" d="M41.884,-143.652C53.2109,-126.177 72.5584,-100.456 96,-86 102.563,-81.9527 109.939,-78.767 117.459,-76.2595"/>
<polygon fill="midnightblue" stroke="midnightblue" points="38.7584,-142.05 36.4414,-152.388 44.6998,-145.751 38.7584,-142.05"/>
</g>
<!-- Node3 -->
<g id="node5" class="node"><title>Node3</title>
<a xlink:href="../../d7/d71/xep__muc_8c.html#a1798db1c16a1fa62ff8f39fea202a26f" target="_top" xlink:title="stanza_handler">
<polygon fill="none" stroke="black" points="654.5,-195.5 654.5,-214.5 755.5,-214.5 755.5,-195.5 654.5,-195.5"/>
<text text-anchor="middle" x="705" y="-202.5" font-family="DejaVuSansMono" font-size="10.00">stanza_handler</text>
</a>
</g>
<!-- Node2&#45;&gt;Node3 -->
<g id="edge4" class="edge"><title>Node2&#45;&gt;Node3</title>
<path fill="none" stroke="midnightblue" d="M417.754,-248.333C462.89,-241.754 526.356,-232.432 582,-224 605.843,-220.387 632.291,-216.28 654.45,-212.812"/>
<polygon fill="midnightblue" stroke="midnightblue" points="417.23,-244.873 407.839,-249.777 418.239,-251.799 417.23,-244.873"/>
</g>
<!-- Node4 -->
<g id="node7" class="node"><title>Node4</title>
<a xlink:href="../../d7/d71/xep__muc_8c.html#addf05166cf3fbe386ae6650be21ef251" target="_top" xlink:title="xep_muc_start">
<polygon fill="none" stroke="black" points="840.5,-195.5 840.5,-214.5 935.5,-214.5 935.5,-195.5 840.5,-195.5"/>
<text text-anchor="middle" x="888" y="-202.5" font-family="DejaVuSansMono" font-size="10.00">xep_muc_start</text>
</a>
</g>
<!-- Node3&#45;&gt;Node4 -->
<g id="edge6" class="edge"><title>Node3&#45;&gt;Node4</title>
<path fill="none" stroke="midnightblue" d="M766.074,-205C790.249,-205 817.702,-205 840.333,-205"/>
<polygon fill="midnightblue" stroke="midnightblue" points="765.938,-201.5 755.938,-205 765.938,-208.5 765.938,-201.5"/>
</g>
<!-- Node5 -->
<g id="node9" class="node"><title>Node5</title>
<a xlink:href="../../d7/d71/xep__muc_8c.html#a20d385a5584d8014ec4d5774eb79d1de" target="_top" xlink:title="xep_muc_stop">
<polygon fill="none" stroke="black" points="843.5,-138.5 843.5,-157.5 932.5,-157.5 932.5,-138.5 843.5,-138.5"/>
<text text-anchor="middle" x="888" y="-145.5" font-family="DejaVuSansMono" font-size="10.00">xep_muc_stop</text>
</a>
</g>
<!-- Node3&#45;&gt;Node5 -->
<g id="edge8" class="edge"><title>Node3&#45;&gt;Node5</title>
<path fill="none" stroke="midnightblue" d="M746.188,-192.344C779.553,-181.837 826.291,-167.118 856.606,-157.572"/>
<polygon fill="midnightblue" stroke="midnightblue" points="744.782,-189.117 736.295,-195.459 746.885,-195.794 744.782,-189.117"/>
</g>
<!-- Node7 -->
<g id="node13" class="node"><title>Node7</title>
<a xlink:href="../../d7/d71/xep__muc_8c.html#a9936322b944d46aead9fbd942687ec0a" target="_top" xlink:title="handle_presence">
<polygon fill="none" stroke="black" points="468.5,-195.5 468.5,-214.5 575.5,-214.5 575.5,-195.5 468.5,-195.5"/>
<text text-anchor="middle" x="522" y="-202.5" font-family="DejaVuSansMono" font-size="10.00">handle_presence</text>
</a>
</g>
<!-- Node6&#45;&gt;Node7 -->
<g id="edge12" class="edge"><title>Node6&#45;&gt;Node7</title>
<path fill="none" stroke="midnightblue" d="M249.993,-215.966C315.865,-213.3 410.027,-209.49 468.244,-207.135"/>
<polygon fill="midnightblue" stroke="midnightblue" points="249.524,-212.482 239.674,-216.383 249.807,-219.476 249.524,-212.482"/>
</g>
<!-- Node7&#45;&gt;Node3 -->
<g id="edge14" class="edge"><title>Node7&#45;&gt;Node3</title>
<path fill="none" stroke="midnightblue" d="M585.912,-205C608.263,-205 633.097,-205 654.201,-205"/>
<polygon fill="midnightblue" stroke="midnightblue" points="585.839,-201.5 575.839,-205 585.839,-208.5 585.839,-201.5"/>
</g>
<!-- Node9 -->
<g id="node18" class="node"><title>Node9</title>
<a xlink:href="../../d7/d71/xep__muc_8c.html#aefd23f2960520a68fea212344b85cb0b" target="_top" xlink:title="enter_room_presence">
<polygon fill="none" stroke="black" points="291.5,-171.5 291.5,-190.5 422.5,-190.5 422.5,-171.5 291.5,-171.5"/>
<text text-anchor="middle" x="357" y="-178.5" font-family="DejaVuSansMono" font-size="10.00">enter_room_presence</text>
</a>
</g>
<!-- Node8&#45;&gt;Node9 -->
<g id="edge18" class="edge"><title>Node8&#45;&gt;Node9</title>
<path fill="none" stroke="midnightblue" d="M243.843,-181C259.409,-181 275.883,-181 291.272,-181"/>
<polygon fill="midnightblue" stroke="midnightblue" points="243.766,-177.5 233.766,-181 243.765,-184.5 243.766,-177.5"/>
</g>
<!-- Node9&#45;&gt;Node7 -->
<g id="edge20" class="edge"><title>Node9&#45;&gt;Node7</title>
<path fill="none" stroke="midnightblue" d="M432.886,-192.026C444.866,-193.79 457.039,-195.582 468.358,-197.249"/>
<polygon fill="midnightblue" stroke="midnightblue" points="433.293,-188.549 422.89,-190.554 432.274,-195.474 433.293,-188.549"/>
</g>
<!-- Node10&#45;&gt;Node9 -->
<g id="edge24" class="edge"><title>Node10&#45;&gt;Node9</title>
<path fill="none" stroke="midnightblue" d="M207.547,-118.666C243.822,-133.898 301.54,-158.133 333.262,-171.453"/>
<polygon fill="midnightblue" stroke="midnightblue" points="208.499,-115.27 197.924,-114.625 205.789,-121.724 208.499,-115.27"/>
</g>
<!-- Node11 -->
<g id="node24" class="node"><title>Node11</title>
<a xlink:href="../../d6/d78/xmp3__multicast_8c.html#a3ef84feef94d4ad6045cd45fd91b531c" target="_top" xlink:title="local_stanza_handler">
<polygon fill="none" stroke="black" points="288.5,-95.5 288.5,-114.5 425.5,-114.5 425.5,-95.5 288.5,-95.5"/>
<text text-anchor="middle" x="357" y="-102.5" font-family="DejaVuSansMono" font-size="10.00">local_stanza_handler</text>
</a>
</g>
<!-- Node10&#45;&gt;Node11 -->
<g id="edge26" class="edge"><title>Node10&#45;&gt;Node11</title>
<path fill="none" stroke="midnightblue" d="M261.776,-105C270.682,-105 279.636,-105 288.293,-105"/>
<polygon fill="midnightblue" stroke="midnightblue" points="261.76,-101.5 251.76,-105 261.76,-108.5 261.76,-101.5"/>
</g>
<!-- Node14 -->
<g id="node30" class="node"><title>Node14</title>
<a xlink:href="../../df/da9/xmpp__auth_8c.html#a603b4a63af3c4e4af99442805fe89ae8" target="_top" xlink:title="Step 15: Client binds a resource.">
<polygon fill="none" stroke="black" points="306.5,-38.5 306.5,-57.5 407.5,-57.5 407.5,-38.5 306.5,-38.5"/>
<text text-anchor="middle" x="357" y="-45.5" font-family="DejaVuSansMono" font-size="10.00">handle_bind_iq</text>
</a>
</g>
<!-- Node10&#45;&gt;Node14 -->
<g id="edge32" class="edge"><title>Node10&#45;&gt;Node14</title>
<path fill="none" stroke="midnightblue" d="M226.945,-92.9985C235.363,-90.8199 243.954,-88.4547 252,-86 279.763,-77.5297 310.958,-65.8309 331.877,-57.6592"/>
<polygon fill="midnightblue" stroke="midnightblue" points="226.024,-89.6211 217.187,-95.4644 227.739,-96.4078 226.024,-89.6211"/>
</g>
<!-- Node12 -->
<g id="node26" class="node"><title>Node12</title>
<a xlink:href="../../d6/d78/xmp3__multicast_8c.html#a991c928ab73b350c4b7029352e91a219" target="_top" xlink:title="multicast_start">
<polygon fill="none" stroke="black" points="468.5,-95.5 468.5,-114.5 575.5,-114.5 575.5,-95.5 468.5,-95.5"/>
<text text-anchor="middle" x="522" y="-102.5" font-family="DejaVuSansMono" font-size="10.00">multicast_start</text>
</a>
</g>
<!-- Node11&#45;&gt;Node12 -->
<g id="edge28" class="edge"><title>Node11&#45;&gt;Node12</title>
<path fill="none" stroke="midnightblue" d="M435.808,-105C446.855,-105 457.993,-105 468.408,-105"/>
<polygon fill="midnightblue" stroke="midnightblue" points="435.711,-101.5 425.711,-105 435.711,-108.5 435.711,-101.5"/>
</g>
<!-- Node13 -->
<g id="node28" class="node"><title>Node13</title>
<a xlink:href="../../d6/d78/xmp3__multicast_8c.html#ad161abeabc58820fd3a24b4422c5b9a7" target="_top" xlink:title="multicast_stop">
<polygon fill="none" stroke="black" points="471.5,-57.5 471.5,-76.5 572.5,-76.5 572.5,-57.5 471.5,-57.5"/>
<text text-anchor="middle" x="522" y="-64.5" font-family="DejaVuSansMono" font-size="10.00">multicast_stop</text>
</a>
</g>
<!-- Node11&#45;&gt;Node13 -->
<g id="edge30" class="edge"><title>Node11&#45;&gt;Node13</title>
<path fill="none" stroke="midnightblue" d="M409.028,-93.1039C431.939,-87.7626 458.604,-81.5463 480.164,-76.5201"/>
<polygon fill="midnightblue" stroke="midnightblue" points="408.076,-89.7319 399.132,-95.411 409.665,-96.5491 408.076,-89.7319"/>
</g>
<!-- Node15 -->
<g id="node32" class="node"><title>Node15</title>
<a xlink:href="../../df/da9/xmpp__auth_8c.html#a01804bd53eccc182ce76337fc0863e8d" target="_top" xlink:title="stream_bind_start">
<polygon fill="none" stroke="black" points="462.5,-19.5 462.5,-38.5 581.5,-38.5 581.5,-19.5 462.5,-19.5"/>
<text text-anchor="middle" x="522" y="-26.5" font-family="DejaVuSansMono" font-size="10.00">stream_bind_start</text>
</a>
</g>
<!-- Node14&#45;&gt;Node15 -->
<g id="edge34" class="edge"><title>Node14&#45;&gt;Node15</title>
<path fill="none" stroke="midnightblue" d="M418.113,-40.993C432.561,-39.3089 447.974,-37.5122 462.355,-35.8359"/>
<polygon fill="midnightblue" stroke="midnightblue" points="417.319,-37.5618 407.791,-42.1961 418.129,-44.5147 417.319,-37.5618"/>
</g>
<!-- Node16 -->
<g id="node34" class="node"><title>Node16</title>
<a xlink:href="../../df/da9/xmpp__auth_8c.html#afb770a216868aa3fb43813b19d2a0115" target="_top" xlink:title="Begins SASL PLAIN authentication.">
<polygon fill="none" stroke="black" points="645.5,-19.5 645.5,-38.5 764.5,-38.5 764.5,-19.5 645.5,-19.5"/>
<text text-anchor="middle" x="705" y="-26.5" font-family="DejaVuSansMono" font-size="10.00">handle_sasl_plain</text>
</a>
</g>
<!-- Node15&#45;&gt;Node16 -->
<g id="edge36" class="edge"><title>Node15&#45;&gt;Node16</title>
<path fill="none" stroke="midnightblue" d="M591.95,-29C609.51,-29 628.22,-29 645.22,-29"/>
<polygon fill="midnightblue" stroke="midnightblue" points="591.766,-25.5001 581.766,-29 591.765,-32.5001 591.766,-25.5001"/>
</g>
<!-- Node17 -->
<g id="node36" class="node"><title>Node17</title>
<a xlink:href="../../d3/d24/xmpp__auth_8h.html#ad3efd9ab093646bdfd8832c34ae2de4d" target="_top" xlink:title="Handler for the inital stream start to begin authentication.">
<polygon fill="none" stroke="black" points="1128.5,-19.5 1128.5,-38.5 1277.5,-38.5 1277.5,-19.5 1128.5,-19.5"/>
<text text-anchor="middle" x="1203" y="-26.5" font-family="DejaVuSansMono" font-size="10.00">xmpp_auth_stream_start</text>
</a>
</g>
<!-- Node16&#45;&gt;Node17 -->
<g id="edge38" class="edge"><title>Node16&#45;&gt;Node17</title>
<path fill="none" stroke="midnightblue" d="M774.997,-29C868.023,-29 1032.97,-29 1128.34,-29"/>
<polygon fill="midnightblue" stroke="midnightblue" points="774.846,-25.5001 764.845,-29 774.845,-32.5001 774.846,-25.5001"/>
</g>
<!-- Node22 -->
<g id="node46" class="node"><title>Node22</title>
<a xlink:href="../../df/da9/xmpp__auth_8c.html#afd7b12689591d40109a88ad108b5c3a2" target="_top" xlink:title="stream_sasl_start">
<polygon fill="none" stroke="black" points="828.5,-0.5 828.5,-19.5 947.5,-19.5 947.5,-0.5 828.5,-0.5"/>
<text text-anchor="middle" x="888" y="-7.5" font-family="DejaVuSansMono" font-size="10.00">stream_sasl_start</text>
</a>
</g>
<!-- Node16&#45;&gt;Node22 -->
<g id="edge48" class="edge"><title>Node16&#45;&gt;Node22</title>
<path fill="none" stroke="midnightblue" d="M774.95,-21.7621C792.51,-19.9188 811.22,-17.9548 828.22,-16.1703"/>
<polygon fill="midnightblue" stroke="midnightblue" points="774.345,-18.3063 764.766,-22.8312 775.076,-25.268 774.345,-18.3063"/>
</g>
<!-- Node18 -->
<g id="node38" class="node"><title>Node18</title>
<a xlink:href="../../d4/d2f/xmpp__client_8h.html#a1619c0b8f58b2cf09a322bf34fbc3414" target="_top" xlink:title="xmpp_client_new">
<polygon fill="none" stroke="black" points="1314.5,-19.5 1314.5,-38.5 1421.5,-38.5 1421.5,-19.5 1314.5,-19.5"/>
<text text-anchor="middle" x="1368" y="-26.5" font-family="DejaVuSansMono" font-size="10.00">xmpp_client_new</text>
</a>
</g>
<!-- Node17&#45;&gt;Node18 -->
<g id="edge40" class="edge"><title>Node17&#45;&gt;Node18</title>
<path fill="none" stroke="midnightblue" d="M1287.99,-29C1296.95,-29 1305.88,-29 1314.33,-29"/>
<polygon fill="midnightblue" stroke="midnightblue" points="1287.87,-25.5001 1277.87,-29 1287.87,-32.5001 1287.87,-25.5001"/>
</g>
<!-- Node19 -->
<g id="node40" class="node"><title>Node19</title>
<a xlink:href="../../d0/df0/xmpp__server_8c.html#a66363912ef1221a2574f9f99805fe8fd" target="_top" xlink:title="Callback for new client connections.">
<polygon fill="none" stroke="black" points="1458.5,-19.5 1458.5,-38.5 1559.5,-38.5 1559.5,-19.5 1458.5,-19.5"/>
<text text-anchor="middle" x="1509" y="-26.5" font-family="DejaVuSansMono" font-size="10.00">connect_client</text>
</a>
</g>
<!-- Node18&#45;&gt;Node19 -->
<g id="edge42" class="edge"><title>Node18&#45;&gt;Node19</title>
<path fill="none" stroke="midnightblue" d="M1431.8,-29C1440.63,-29 1449.59,-29 1458.13,-29"/>
<polygon fill="midnightblue" stroke="midnightblue" points="1431.55,-25.5001 1421.55,-29 1431.55,-32.5001 1431.55,-25.5001"/>
</g>
<!-- Node20 -->
<g id="node42" class="node"><title>Node20</title>
<a xlink:href="../../d1/d2e/xmpp__server_8h.html#a27bfc8e4d424a8bc17ab21a4a09cdf92" target="_top" xlink:title="Allocates and initializes the XMPP server.">
<polygon fill="none" stroke="black" points="1596.5,-19.5 1596.5,-38.5 1703.5,-38.5 1703.5,-19.5 1596.5,-19.5"/>
<text text-anchor="middle" x="1650" y="-26.5" font-family="DejaVuSansMono" font-size="10.00">xmpp_server_new</text>
</a>
</g>
<!-- Node19&#45;&gt;Node20 -->
<g id="edge44" class="edge"><title>Node19&#45;&gt;Node20</title>
<path fill="none" stroke="midnightblue" d="M1569.94,-29C1578.7,-29 1587.67,-29 1596.27,-29"/>
<polygon fill="midnightblue" stroke="midnightblue" points="1569.79,-25.5001 1559.79,-29 1569.79,-32.5001 1569.79,-25.5001"/>
</g>
<!-- Node21 -->
<g id="node44" class="node"><title>Node21</title>
<a xlink:href="../../d0/d29/main_8c.html#a0ddf1224851353fc92bfbff6f499fa97" target="_top" xlink:title="main">
<polygon fill="none" stroke="black" points="1740.5,-19.5 1740.5,-38.5 1781.5,-38.5 1781.5,-19.5 1740.5,-19.5"/>
<text text-anchor="middle" x="1761" y="-26.5" font-family="DejaVuSansMono" font-size="10.00">main</text>
</a>
</g>
<!-- Node20&#45;&gt;Node21 -->
<g id="edge46" class="edge"><title>Node20&#45;&gt;Node21</title>
<path fill="none" stroke="midnightblue" d="M1713.75,-29C1723.43,-29 1732.76,-29 1740.47,-29"/>
<polygon fill="midnightblue" stroke="midnightblue" points="1713.58,-25.5001 1703.58,-29 1713.58,-32.5001 1713.58,-25.5001"/>
</g>
<!-- Node23 -->
<g id="node48" class="node"><title>Node23</title>
<a xlink:href="../../df/da9/xmpp__auth_8c.html#a8dd789e057b9812e4dd1aa524dfb6a65" target="_top" xlink:title="Begins TLS authentication.">
<polygon fill="none" stroke="black" points="984.5,-0.5 984.5,-19.5 1091.5,-19.5 1091.5,-0.5 984.5,-0.5"/>
<text text-anchor="middle" x="1038" y="-7.5" font-family="DejaVuSansMono" font-size="10.00">handle_starttls</text>
</a>
</g>
<!-- Node22&#45;&gt;Node23 -->
<g id="edge50" class="edge"><title>Node22&#45;&gt;Node23</title>
<path fill="none" stroke="midnightblue" d="M958.085,-10C966.806,-10 975.619,-10 984.036,-10"/>
<polygon fill="midnightblue" stroke="midnightblue" points="957.919,-6.5001 947.919,-10 957.919,-13.5001 957.919,-6.5001"/>
</g>
<!-- Node23&#45;&gt;Node17 -->
<g id="edge52" class="edge"><title>Node23&#45;&gt;Node17</title>
<path fill="none" stroke="midnightblue" d="M1101.91,-17.3332C1110.56,-18.3411 1119.5,-19.3833 1128.32,-20.4112"/>
<polygon fill="midnightblue" stroke="midnightblue" points="1102.26,-13.8502 1091.92,-16.1688 1101.45,-20.8031 1102.26,-13.8502"/>
</g>
<!-- Node24&#45;&gt;Node5 -->
<g id="edge56" class="edge"><title>Node24&#45;&gt;Node5</title>
<path fill="none" stroke="midnightblue" d="M801.811,-146.588C816.358,-146.829 830.721,-147.067 843.39,-147.277"/>
<polygon fill="midnightblue" stroke="midnightblue" points="801.786,-143.087 791.73,-146.421 801.67,-150.086 801.786,-143.087"/>
</g>
</g>
</svg>
        <g id="navigator" transform="translate(0 0)" fill="#404254">
                <rect fill="#f2f5e9" fill-opacity="0.5" stroke="#606060" stroke-width=".5" x="0" y="0" width="60" height="60"/>
                <use id="zoomplus" xlink:href="#zoomPlus" x="17" y="9" onmousedown="handleZoom(evt,'in')"/>
                <use id="zoomminus" xlink:href="#zoomMin" x="42" y="9" onmousedown="handleZoom(evt,'out')"/>
                <use id="reset" xlink:href="#resetDef" x="30" y="36" onmousedown="handleReset()"/>
                <g id="arrowUp" xlink:href="#dirArrow" transform="translate(30 24)" onmousedown="handlePan(0,-1)">
                  <use xlink:href="#rim" fill="#404040">
                        <set attributeName="fill" to="#808080" begin="arrowUp.mouseover" end="arrowUp.mouseout"/>
                  </use>
                  <path fill="none" stroke="white" stroke-width="1.5" d="M0,-3.0v7 M-2.5,-0.5L0,-3.0L2.5,-0.5"/>
                </g>
                <g id="arrowRight" xlink:href="#dirArrow" transform="rotate(90) translate(36 -43)" onmousedown="handlePan(1,0)">
                  <use xlink:href="#rim" fill="#404040">
                        <set attributeName="fill" to="#808080" begin="arrowRight.mouseover" end="arrowRight.mouseout"/>
                  </use>
                  <path fill="none" stroke="white" stroke-width="1.5" d="M0,-3.0v7 M-2.5,-0.5L0,-3.0L2.5,-0.5"/>
                </g>
                <g id="arrowDown" xlink:href="#dirArrow" transform="rotate(180) translate(-30 -48)" onmousedown="handlePan(0,1)">
                  <use xlink:href="#rim" fill="#404040">
                        <set attributeName="fill" to="#808080" begin="arrowDown.mouseover" end="arrowDown.mouseout"/>
                  </use>
                  <path fill="none" stroke="white" stroke-width="1.5" d="M0,-3.0v7 M-2.5,-0.5L0,-3.0L2.5,-0.5"/>
                </g>
                <g id="arrowLeft" xlink:href="#dirArrow" transform="rotate(270) translate(-36 17)" onmousedown="handlePan(-1,0)">
                  <use xlink:href="#rim" fill="#404040">
                        <set attributeName="fill" to="#808080" begin="arrowLeft.mouseover" end="arrowLeft.mouseout"/>
                  </use>
                  <path fill="none" stroke="white" stroke-width="1.5" d="M0,-3.0v7 M-2.5,-0.5L0,-3.0L2.5,-0.5"/>
                </g>
        </g>
        <svg viewBox="0 0 25 25" width="100%" height="30px" preserveAspectRatio="xMaxYMin meet"> 
          <g id="printButton" transform="scale(0.4 0.4)" onmousedown="handlePrint(evt)">
            <rect height="23.33753581" id="paper" rx="2" style="fill:#f2f5e9;fill-rule:evenodd;stroke:#111111;stroke-width:3.224;stroke-linejoin:round;" transform="matrix(1.000000,0.000000,-0.339266,0.940691,0.000000,0.000000)" width="25.55231285" x="26.69387353" y="7.36162977"/>
            <rect height="26.272097" id="body" rx="2" style="fill:#404040;fill-rule:evenodd;stroke:#111111;stroke-width:3.125;stroke-linejoin:round;" width="50" x="4.5295201" y="27.078951"/>
            <rect height="8.27750969" id="tray" style="fill:#d2d5c9;fill-rule:evenodd;stroke:#111111;stroke-width:3.125;stroke-linecap:round;stroke-linejoin:round;" width="40" x="10.28778839" y="44.96812282"/>
          </g>
        </svg>
</svg>
