<?xml version="1.0" encoding="UTF-8" standalone="no"?>
<!DOCTYPE svg PUBLIC "-//W3C//DTD SVG 1.1//EN"
 "http://www.w3.org/Graphics/SVG/1.1/DTD/svg11.dtd">
<!-- Generated by graphviz version 2.28.0 (20120217.0315)
 -->
<!-- Title: G Pages: 1 -->
<svg width="113pt" height="232pt"
 viewBox="0.00 0.00 113.00 232.00" xmlns="http://www.w3.org/2000/svg" xmlns:xlink="http://www.w3.org/1999/xlink">
<g id="graph1" class="graph" transform="scale(1 1) rotate(0) translate(4 228)">
<title>G</title>
<!-- Node1 -->
<g id="node1" class="node"><title>Node1</title>
<polygon fill="#bfbfbf" stroke="black" points="-0.5,-0.5 -0.5,-19.5 88.5,-19.5 88.5,-0.5 -0.5,-0.5"/>
<text text-anchor="middle" x="44" y="-7.5" font-family="DejaVuSansMono" font-size="10.00">xmp3_options</text>
</g>
<!-- Node2 -->
<g id="node2" class="node"><title>Node2</title>
<a xlink:href="../../d3/dd8/xmp3__module_8c.html#d9/d52/structxmp3__modules" target="_top" xlink:title="xmp3_modules">
<polygon fill="none" stroke="black" points="-0.5,-68.5 -0.5,-87.5 88.5,-87.5 88.5,-68.5 -0.5,-68.5"/>
<text text-anchor="middle" x="44" y="-75.5" font-family="DejaVuSansMono" font-size="10.00">xmp3_modules</text>
</a>
</g>
<!-- Node2&#45;&gt;Node1 -->
<g id="edge2" class="edge"><title>Node2&#45;&gt;Node1</title>
<path fill="none" stroke="#9a32cd" stroke-dasharray="5,2" d="M44,-58.0413C44,-45.4724 44,-29.5631 44,-19.8411"/>
<polygon fill="#9a32cd" stroke="#9a32cd" points="40.5001,-58.3716 44,-68.3717 47.5001,-58.3717 40.5001,-58.3716"/>
<text text-anchor="middle" x="68.5" y="-41.5" font-family="DejaVuSansMono" font-size="10.00"> modules</text>
</g>
<!-- Node3 -->
<g id="node4" class="node"><title>Node3</title>
<a xlink:href="../../d3/dd8/xmp3__module_8c.html#dd/deb/structmodule" target="_top" xlink:title="Structure representing a loaded module.">
<polygon fill="none" stroke="black" points="17.5,-136.5 17.5,-155.5 70.5,-155.5 70.5,-136.5 17.5,-136.5"/>
<text text-anchor="middle" x="44" y="-143.5" font-family="DejaVuSansMono" font-size="10.00">module</text>
</a>
</g>
<!-- Node3&#45;&gt;Node2 -->
<g id="edge4" class="edge"><title>Node3&#45;&gt;Node2</title>
<path fill="none" stroke="#9a32cd" stroke-dasharray="5,2" d="M44,-126.041C44,-113.472 44,-97.5631 44,-87.8411"/>
<polygon fill="#9a32cd" stroke="#9a32cd" points="40.5001,-126.372 44,-136.372 47.5001,-126.372 40.5001,-126.372"/>
<text text-anchor="middle" x="56.5" y="-109.5" font-family="DejaVuSansMono" font-size="10.00"> map</text>
</g>
<!-- Node4 -->
<g id="node6" class="node"><title>Node4</title>
<a xlink:href="../../db/dad/structxmp3__module.html" target="_top" xlink:title="Structure representing an XMP3 extension module.">
<polygon fill="none" stroke="black" points="2.5,-204.5 2.5,-223.5 85.5,-223.5 85.5,-204.5 2.5,-204.5"/>
<text text-anchor="middle" x="44" y="-211.5" font-family="DejaVuSansMono" font-size="10.00">xmp3_module</text>
</a>
</g>
<!-- Node4&#45;&gt;Node3 -->
<g id="edge6" class="edge"><title>Node4&#45;&gt;Node3</title>
<path fill="none" stroke="#9a32cd" stroke-dasharray="5,2" d="M44,-194.041C44,-181.472 44,-165.563 44,-155.841"/>
<polygon fill="#9a32cd" stroke="#9a32cd" points="40.5001,-194.372 44,-204.372 47.5001,-194.372 40.5001,-194.372"/>
<text text-anchor="middle" x="74.5" y="-177.5" font-family="DejaVuSansMono" font-size="10.00"> functions</text>
</g>
</g>
</svg>
