<?xml version="1.0" encoding="UTF-8" standalone="no"?>
<!DOCTYPE svg PUBLIC "-//W3C//DTD SVG 1.1//EN"
 "http://www.w3.org/Graphics/SVG/1.1/DTD/svg11.dtd">
<!-- Generated by graphviz version 2.28.0 (20120217.0315)
 -->
<!-- Title: G Pages: 1 -->
<svg width="191pt" height="84pt"
 viewBox="0.00 0.00 191.00 84.00" xmlns="http://www.w3.org/2000/svg" xmlns:xlink="http://www.w3.org/1999/xlink">
<g id="graph1" class="graph" transform="scale(1 1) rotate(0) translate(4 80)">
<title>G</title>
<!-- Node1 -->
<g id="node1" class="node"><title>Node1</title>
<polygon fill="#bfbfbf" stroke="black" points="25.5,-56.5 25.5,-75.5 144.5,-75.5 144.5,-56.5 25.5,-56.5"/>
<text text-anchor="middle" x="85" y="-63.5" font-family="DejaVuSansMono" font-size="10.00">src/xmpp_server.h</text>
</g>
<!-- Node2 -->
<g id="node3" class="node"><title>Node2</title>
<polygon fill="none" stroke="#bfbfbf" points="-0.5,-0.5 -0.5,-19.5 70.5,-19.5 70.5,-0.5 -0.5,-0.5"/>
<text text-anchor="middle" x="35" y="-7.5" font-family="DejaVuSansMono" font-size="10.00">stdbool.h</text>
</g>
<!-- Node1&#45;&gt;Node2 -->
<g id="edge2" class="edge"><title>Node1&#45;&gt;Node2</title>
<path fill="none" stroke="midnightblue" d="M76.7435,-56.083C69.5353,-48.2982 58.8902,-36.8015 50.1542,-27.3665"/>
<polygon fill="midnightblue" stroke="midnightblue" points="52.4651,-24.7108 43.1028,-19.7511 47.3288,-29.4666 52.4651,-24.7108"/>
</g>
<!-- Node3 -->
<g id="node5" class="node"><title>Node3</title>
<polygon fill="none" stroke="#bfbfbf" points="88.5,-0.5 88.5,-19.5 183.5,-19.5 183.5,-0.5 88.5,-0.5"/>
<text text-anchor="middle" x="136" y="-7.5" font-family="DejaVuSansMono" font-size="10.00">openssl/ssl.h</text>
</g>
<!-- Node1&#45;&gt;Node3 -->
<g id="edge4" class="edge"><title>Node1&#45;&gt;Node3</title>
<path fill="none" stroke="midnightblue" d="M93.4216,-56.083C100.848,-48.2195 111.852,-36.5688 120.812,-27.0813"/>
<polygon fill="midnightblue" stroke="midnightblue" points="123.413,-29.4244 127.735,-19.7511 118.324,-24.618 123.413,-29.4244"/>
</g>
</g>
</svg>
