<?xml version="1.0" encoding="UTF-8" standalone="no"?>
<!DOCTYPE svg PUBLIC "-//W3C//DTD SVG 1.1//EN"
 "http://www.w3.org/Graphics/SVG/1.1/DTD/svg11.dtd">
<!-- Generated by graphviz version 2.28.0 (20120217.0315)
 -->
<!-- Title: G Pages: 1 -->
<!--zoomable 140 -->
<svg id="main" version="1.1" xmlns="http://www.w3.org/2000/svg" xmlns:xlink="http://www.w3.org/1999/xlink" xml:space="preserve" onload="init(evt)">
        <defs>
                <circle id="rim" cx="0" cy="0" r="7"/>
                <circle id="rim2" cx="0" cy="0" r="3.5"/>
                <g id="zoomPlus">
                        <use xlink:href="#rim" fill="#404040">
                                <set attributeName="fill" to="#808080" begin="zoomplus.mouseover" end="zoomplus.mouseout"/>
                        </use>
                        <path d="M-4,0h8M0,-4v8" fill="none" stroke="white" stroke-width="1.5" pointer-events="none"/>
                </g>
                <g id="zoomMin">
                        <use xlink:href="#rim" fill="#404040">
                                <set attributeName="fill" to="#808080" begin="zoomminus.mouseover" end="zoomminus.mouseout"/>
                        </use>
                        <path d="M-4,0h8" fill="none" stroke="white" stroke-width="1.5" pointer-events="none"/>
                </g>
                <g id="dirArrow">
                        <path fill="none" stroke="white" stroke-width="1.5" d="M0,-3.0v7 M-2.5,-0.5L0,-3.0L2.5,-0.5"/>
                </g>
               <g id="resetDef">
                       <use xlink:href="#rim2" fill="#404040">
                               <set attributeName="fill" to="#808080" begin="reset.mouseover" end="reset.mouseout"/>
                       </use>
               </g>
        </defs>

<script type="text/javascript">
var viewWidth = 1538;
var viewHeight = 140;
var sectionId = 'dynsection-0';
</script>
<script xlink:href="../../svgpan.js"/>
<svg id="graph" class="graph">
<g id="viewport">
<title>G</title>
<!-- Node1 -->
<g id="node1" class="node"><title>Node1</title>
<polygon fill="#bfbfbf" stroke="black" points="616.5,-112.5 616.5,-131.5 693.5,-131.5 693.5,-112.5 616.5,-112.5"/>
<text text-anchor="middle" x="655" y="-119.5" font-family="DejaVuSansMono" font-size="10.00">src/main.c</text>
</g>
<!-- Node2 -->
<g id="node3" class="node"><title>Node2</title>
<polygon fill="none" stroke="#bfbfbf" points="1139.5,-0.5 1139.5,-19.5 1210.5,-19.5 1210.5,-0.5 1139.5,-0.5"/>
<text text-anchor="middle" x="1175" y="-7.5" font-family="DejaVuSansMono" font-size="10.00">stdbool.h</text>
</g>
<!-- Node1&#45;&gt;Node2 -->
<g id="edge2" class="edge"><title>Node1&#45;&gt;Node2</title>
<path fill="none" stroke="midnightblue" d="M693.789,-119.966C805.021,-116.662 1119.41,-104.843 1155,-76 1168.6,-64.9822 1173.15,-44.9334 1174.58,-30.0045"/>
<polygon fill="midnightblue" stroke="midnightblue" points="1178.09,-30.0033 1175.16,-19.8207 1171.1,-29.6059 1178.09,-30.0033"/>
</g>
<!-- Node3 -->
<g id="node5" class="node"><title>Node3</title>
<polygon fill="none" stroke="#bfbfbf" points="30.5,-56.5 30.5,-75.5 95.5,-75.5 95.5,-56.5 30.5,-56.5"/>
<text text-anchor="middle" x="63" y="-63.5" font-family="DejaVuSansMono" font-size="10.00">stdint.h</text>
</g>
<!-- Node1&#45;&gt;Node3 -->
<g id="edge4" class="edge"><title>Node1&#45;&gt;Node3</title>
<path fill="none" stroke="midnightblue" d="M616.385,-119.635C527.724,-116.117 302.66,-105.01 105.558,-76.0528"/>
<polygon fill="midnightblue" stroke="midnightblue" points="106.006,-72.5811 95.6001,-74.5709 104.976,-79.5048 106.006,-72.5811"/>
</g>
<!-- Node4 -->
<g id="node7" class="node"><title>Node4</title>
<polygon fill="none" stroke="#bfbfbf" points="-0.5,-0.5 -0.5,-19.5 58.5,-19.5 58.5,-0.5 -0.5,-0.5"/>
<text text-anchor="middle" x="29" y="-7.5" font-family="DejaVuSansMono" font-size="10.00">stdio.h</text>
</g>
<!-- Node1&#45;&gt;Node4 -->
<g id="edge6" class="edge"><title>Node1&#45;&gt;Node4</title>
<path fill="none" stroke="midnightblue" d="M616.376,-121.241C485.046,-121.661 61.6155,-119.6 21,-76 9.52533,-63.682 13.9999,-43.8695 19.8131,-29.3522"/>
<polygon fill="midnightblue" stroke="midnightblue" points="23.1551,-30.455 24.0736,-19.9 16.7734,-27.5784 23.1551,-30.455"/>
</g>
<!-- Node5 -->
<g id="node9" class="node"><title>Node5</title>
<polygon fill="none" stroke="#bfbfbf" points="178.5,-56.5 178.5,-75.5 243.5,-75.5 243.5,-56.5 178.5,-56.5"/>
<text text-anchor="middle" x="211" y="-63.5" font-family="DejaVuSansMono" font-size="10.00">stdlib.h</text>
</g>
<!-- Node1&#45;&gt;Node5 -->
<g id="edge8" class="edge"><title>Node1&#45;&gt;Node5</title>
<path fill="none" stroke="midnightblue" d="M616.475,-118.052C546.222,-112.384 392.445,-98.6284 253.585,-76.1184"/>
<polygon fill="midnightblue" stroke="midnightblue" points="254.049,-72.6478 243.614,-74.4825 252.915,-79.5554 254.049,-72.6478"/>
</g>
<!-- Node6 -->
<g id="node11" class="node"><title>Node6</title>
<polygon fill="none" stroke="#bfbfbf" points="261.5,-56.5 261.5,-75.5 326.5,-75.5 326.5,-56.5 261.5,-56.5"/>
<text text-anchor="middle" x="294" y="-63.5" font-family="DejaVuSansMono" font-size="10.00">signal.h</text>
</g>
<!-- Node1&#45;&gt;Node6 -->
<g id="edge10" class="edge"><title>Node1&#45;&gt;Node6</title>
<path fill="none" stroke="midnightblue" d="M616.238,-116.039C556.856,-108.306 439.855,-92.5391 341,-76 339.54,-75.7558 338.056,-75.502 336.558,-75.2412"/>
<polygon fill="midnightblue" stroke="midnightblue" points="337.043,-71.7721 326.581,-73.4436 335.802,-78.6612 337.043,-71.7721"/>
</g>
<!-- Node7 -->
<g id="node13" class="node"><title>Node7</title>
<polygon fill="none" stroke="#bfbfbf" points="256.5,-0.5 256.5,-19.5 315.5,-19.5 315.5,-0.5 256.5,-0.5"/>
<text text-anchor="middle" x="286" y="-7.5" font-family="DejaVuSansMono" font-size="10.00">errno.h</text>
</g>
<!-- Node1&#45;&gt;Node7 -->
<g id="edge12" class="edge"><title>Node1&#45;&gt;Node7</title>
<path fill="none" stroke="midnightblue" d="M616.158,-120.527C560.436,-118.595 455.542,-110.235 374,-76 346.261,-64.3543 319.16,-42.2369 302.526,-27.0638"/>
<polygon fill="midnightblue" stroke="midnightblue" points="304.524,-24.139 294.834,-19.8545 299.737,-29.2466 304.524,-24.139"/>
</g>
<!-- Node8 -->
<g id="node15" class="node"><title>Node8</title>
<polygon fill="none" stroke="#bfbfbf" points="383.5,-56.5 383.5,-75.5 448.5,-75.5 448.5,-56.5 383.5,-56.5"/>
<text text-anchor="middle" x="416" y="-63.5" font-family="DejaVuSansMono" font-size="10.00">getopt.h</text>
</g>
<!-- Node1&#45;&gt;Node8 -->
<g id="edge14" class="edge"><title>Node1&#45;&gt;Node8</title>
<path fill="none" stroke="midnightblue" d="M617.13,-112.444C573.933,-102.684 503.478,-86.765 458.456,-76.5927"/>
<polygon fill="midnightblue" stroke="midnightblue" points="459.226,-73.1784 448.701,-74.3884 457.683,-80.0063 459.226,-73.1784"/>
</g>
<!-- Node9 -->
<g id="node17" class="node"><title>Node9</title>
<polygon fill="none" stroke="#bfbfbf" points="466.5,-56.5 466.5,-75.5 549.5,-75.5 549.5,-56.5 466.5,-56.5"/>
<text text-anchor="middle" x="508" y="-63.5" font-family="DejaVuSansMono" font-size="10.00">arpa/inet.h</text>
</g>
<!-- Node1&#45;&gt;Node9 -->
<g id="edge16" class="edge"><title>Node1&#45;&gt;Node9</title>
<path fill="none" stroke="midnightblue" d="M631.707,-112.444C607.193,-103.438 568.404,-89.1891 540.8,-79.049"/>
<polygon fill="midnightblue" stroke="midnightblue" points="541.777,-75.6793 531.184,-75.5164 539.363,-82.25 541.777,-75.6793"/>
</g>
<!-- Node10 -->
<g id="node19" class="node"><title>Node10</title>
<polygon fill="none" stroke="#bfbfbf" points="567.5,-56.5 567.5,-75.5 626.5,-75.5 626.5,-56.5 567.5,-56.5"/>
<text text-anchor="middle" x="597" y="-63.5" font-family="DejaVuSansMono" font-size="10.00">expat.h</text>
</g>
<!-- Node1&#45;&gt;Node10 -->
<g id="edge18" class="edge"><title>Node1&#45;&gt;Node10</title>
<path fill="none" stroke="midnightblue" d="M645.681,-112.324C637.107,-104.341 624.188,-92.3128 613.812,-82.6529"/>
<polygon fill="midnightblue" stroke="midnightblue" points="616.192,-80.0865 606.488,-75.8339 611.422,-85.2098 616.192,-80.0865"/>
</g>
<!-- Node11 -->
<g id="node21" class="node"><title>Node11</title>
<polygon fill="none" stroke="#bfbfbf" points="701.5,-0.5 701.5,-19.5 796.5,-19.5 796.5,-0.5 701.5,-0.5"/>
<text text-anchor="middle" x="749" y="-7.5" font-family="DejaVuSansMono" font-size="10.00">openssl/ssl.h</text>
</g>
<!-- Node1&#45;&gt;Node11 -->
<g id="edge20" class="edge"><title>Node1&#45;&gt;Node11</title>
<path fill="none" stroke="midnightblue" d="M655.738,-112.097C657.26,-98.656 661.8,-72.9563 675,-56 685.835,-42.0819 702.278,-31.4704 716.914,-24.0576"/>
<polygon fill="midnightblue" stroke="midnightblue" points="718.666,-27.1002 726.194,-19.6456 715.66,-20.7783 718.666,-27.1002"/>
</g>
<!-- Node12 -->
<g id="node23" class="node"><title>Node12</title>
<polygon fill="none" stroke="#bfbfbf" points="683.5,-56.5 683.5,-75.5 778.5,-75.5 778.5,-56.5 683.5,-56.5"/>
<text text-anchor="middle" x="731" y="-63.5" font-family="DejaVuSansMono" font-size="10.00">openssl/err.h</text>
</g>
<!-- Node1&#45;&gt;Node12 -->
<g id="edge22" class="edge"><title>Node1&#45;&gt;Node12</title>
<path fill="none" stroke="midnightblue" d="M667.211,-112.324C678.776,-104.107 696.375,-91.6017 710.161,-81.8069"/>
<polygon fill="midnightblue" stroke="midnightblue" points="712.443,-84.4791 718.567,-75.8339 708.388,-78.7729 712.443,-84.4791"/>
</g>
<!-- Node13 -->
<g id="node25" class="node"><title>Node13</title>
<a xlink:href="../../d7/d7f/log_8h.html" target="_top" xlink:title="Debugging and logging functions/macros.">
<polygon fill="none" stroke="black" points="113.5,-56.5 113.5,-75.5 160.5,-75.5 160.5,-56.5 113.5,-56.5"/>
<text text-anchor="middle" x="137" y="-63.5" font-family="DejaVuSansMono" font-size="10.00">log.h</text>
</a>
</g>
<!-- Node1&#45;&gt;Node13 -->
<g id="edge24" class="edge"><title>Node1&#45;&gt;Node13</title>
<path fill="none" stroke="midnightblue" d="M616.241,-119.802C535.043,-116.78 341.123,-106.883 170.558,-75.9925"/>
<polygon fill="midnightblue" stroke="midnightblue" points="171.121,-72.5373 160.653,-74.1697 169.854,-79.4218 171.121,-72.5373"/>
</g>
<!-- Node15 -->
<g id="node31" class="node"><title>Node15</title>
<a xlink:href="../../dd/d20/event_8h.html" target="_top" xlink:title="Simple event loop.">
<polygon fill="none" stroke="black" points="909.5,-56.5 909.5,-75.5 968.5,-75.5 968.5,-56.5 909.5,-56.5"/>
<text text-anchor="middle" x="939" y="-63.5" font-family="DejaVuSansMono" font-size="10.00">event.h</text>
</a>
</g>
<!-- Node1&#45;&gt;Node15 -->
<g id="edge32" class="edge"><title>Node1&#45;&gt;Node15</title>
<path fill="none" stroke="midnightblue" d="M693.72,-114.445C740.116,-106.467 820.441,-92.2676 899.134,-76.1026"/>
<polygon fill="midnightblue" stroke="midnightblue" points="900.135,-79.4698 909.22,-74.0181 898.718,-72.6147 900.135,-79.4698"/>
</g>
<!-- Node16 -->
<g id="node33" class="node"><title>Node16</title>
<a xlink:href="../../d6/d24/jid_8h.html" target="_top" xlink:title="Functions and data structure to manipulate a JID.">
<polygon fill="none" stroke="black" points="986.5,-56.5 986.5,-75.5 1033.5,-75.5 1033.5,-56.5 986.5,-56.5"/>
<text text-anchor="middle" x="1010" y="-63.5" font-family="DejaVuSansMono" font-size="10.00">jid.h</text>
</a>
</g>
<!-- Node1&#45;&gt;Node16 -->
<g id="edge34" class="edge"><title>Node1&#45;&gt;Node16</title>
<path fill="none" stroke="midnightblue" d="M693.934,-117.179C752.91,-111.038 868.541,-97.6247 976.233,-75.9113"/>
<polygon fill="midnightblue" stroke="midnightblue" points="977.198,-79.2864 986.294,-73.8534 975.795,-72.4284 977.198,-79.2864"/>
</g>
<!-- Node17 -->
<g id="node35" class="node"><title>Node17</title>
<a xlink:href="../../d5/d89/xmp3__module_8h.html" target="_top" xlink:title="Defines structures and functions for XMP3 extension modules.">
<polygon fill="none" stroke="black" points="1051.5,-56.5 1051.5,-75.5 1146.5,-75.5 1146.5,-56.5 1051.5,-56.5"/>
<text text-anchor="middle" x="1099" y="-63.5" font-family="DejaVuSansMono" font-size="10.00">xmp3_module.h</text>
</a>
</g>
<!-- Node1&#45;&gt;Node17 -->
<g id="edge36" class="edge"><title>Node1&#45;&gt;Node17</title>
<path fill="none" stroke="midnightblue" d="M693.516,-117.048C761.471,-109.962 907.325,-94.2397 1041.39,-76.0306"/>
<polygon fill="midnightblue" stroke="midnightblue" points="1042,-79.4802 1051.44,-74.6589 1041.05,-72.5446 1042,-79.4802"/>
</g>
<!-- Node18 -->
<g id="node38" class="node"><title>Node18</title>
<a xlink:href="../../dc/d25/xmp3__options_8h.html" target="_top" xlink:title="Functions for maintaining settings for XMP3.">
<polygon fill="none" stroke="black" points="1429.5,-56.5 1429.5,-75.5 1530.5,-75.5 1530.5,-56.5 1429.5,-56.5"/>
<text text-anchor="middle" x="1480" y="-63.5" font-family="DejaVuSansMono" font-size="10.00">xmp3_options.h</text>
</a>
</g>
<!-- Node1&#45;&gt;Node18 -->
<g id="edge40" class="edge"><title>Node1&#45;&gt;Node18</title>
<path fill="none" stroke="midnightblue" d="M693.708,-119.956C804.841,-116.697 1134.6,-105.194 1419.2,-75.9797"/>
<polygon fill="midnightblue" stroke="midnightblue" points="1419.72,-79.4448 1429.3,-74.933 1418.99,-72.4821 1419.72,-79.4448"/>
</g>
<!-- Node20 -->
<g id="node43" class="node"><title>Node20</title>
<a xlink:href="../../d4/d2f/xmpp__client_8h.html" target="_top" xlink:title="A connected XMPP server client.">
<polygon fill="none" stroke="black" points="1203.5,-56.5 1203.5,-75.5 1298.5,-75.5 1298.5,-56.5 1203.5,-56.5"/>
<text text-anchor="middle" x="1251" y="-63.5" font-family="DejaVuSansMono" font-size="10.00">xmpp_client.h</text>
</a>
</g>
<!-- Node1&#45;&gt;Node20 -->
<g id="edge46" class="edge"><title>Node1&#45;&gt;Node20</title>
<path fill="none" stroke="midnightblue" d="M693.611,-118.545C781.639,-112.774 1003.91,-97.2138 1189,-76 1190.31,-75.8502 1191.63,-75.6945 1192.96,-75.5338"/>
<polygon fill="midnightblue" stroke="midnightblue" points="1193.83,-78.9513 1203.31,-74.2175 1192.95,-72.0072 1193.83,-78.9513"/>
</g>
<!-- Node21 -->
<g id="node45" class="node"><title>Node21</title>
<a xlink:href="../../d1/d2e/xmpp__server_8h.html" target="_top" xlink:title="Main XMPP server data/functions.">
<polygon fill="none" stroke="black" points="796.5,-56.5 796.5,-75.5 891.5,-75.5 891.5,-56.5 796.5,-56.5"/>
<text text-anchor="middle" x="844" y="-63.5" font-family="DejaVuSansMono" font-size="10.00">xmpp_server.h</text>
</a>
</g>
<!-- Node1&#45;&gt;Node21 -->
<g id="edge48" class="edge"><title>Node1&#45;&gt;Node21</title>
<path fill="none" stroke="midnightblue" d="M684.948,-112.444C717.158,-103.241 768.534,-88.5617 804.142,-78.3879"/>
<polygon fill="midnightblue" stroke="midnightblue" points="805.539,-81.629 814.192,-75.5164 803.616,-74.8984 805.539,-81.629"/>
</g>
<!-- Node22 -->
<g id="node49" class="node"><title>Node22</title>
<a xlink:href="../../dd/d21/xmpp__stanza_8h.html" target="_top" xlink:title="Represents top&#45;level XMPP stanzas received from clients.">
<polygon fill="none" stroke="black" points="1316.5,-56.5 1316.5,-75.5 1411.5,-75.5 1411.5,-56.5 1316.5,-56.5"/>
<text text-anchor="middle" x="1364" y="-63.5" font-family="DejaVuSansMono" font-size="10.00">xmpp_stanza.h</text>
</a>
</g>
<!-- Node1&#45;&gt;Node22 -->
<g id="edge54" class="edge"><title>Node1&#45;&gt;Node22</title>
<path fill="none" stroke="midnightblue" d="M693.689,-119.515C793.342,-115.438 1067.13,-102.637 1306.18,-75.9833"/>
<polygon fill="midnightblue" stroke="midnightblue" points="1306.91,-79.423 1316.46,-74.8262 1306.13,-72.467 1306.91,-79.423"/>
</g>
<!-- Node13&#45;&gt;Node4 -->
<g id="edge26" class="edge"><title>Node13&#45;&gt;Node4</title>
<path fill="none" stroke="midnightblue" d="M119.648,-56.324C102.328,-47.6641 75.4847,-34.2424 55.4981,-24.249"/>
<polygon fill="midnightblue" stroke="midnightblue" points="56.8186,-20.9962 46.309,-19.6545 53.688,-27.2572 56.8186,-20.9962"/>
</g>
<!-- Node13&#45;&gt;Node7 -->
<g id="edge28" class="edge"><title>Node13&#45;&gt;Node7</title>
<path fill="none" stroke="midnightblue" d="M160.609,-56.4435C185.458,-47.4381 224.774,-33.1891 252.754,-23.049"/>
<polygon fill="midnightblue" stroke="midnightblue" points="254.292,-26.2144 262.501,-19.5164 251.907,-19.6332 254.292,-26.2144"/>
</g>
<!-- Node14 -->
<g id="node29" class="node"><title>Node14</title>
<polygon fill="none" stroke="#bfbfbf" points="104.5,-0.5 104.5,-19.5 169.5,-19.5 169.5,-0.5 104.5,-0.5"/>
<text text-anchor="middle" x="137" y="-7.5" font-family="DejaVuSansMono" font-size="10.00">string.h</text>
</g>
<!-- Node13&#45;&gt;Node14 -->
<g id="edge30" class="edge"><title>Node13&#45;&gt;Node14</title>
<path fill="none" stroke="midnightblue" d="M137,-56.083C137,-49.0059 137,-38.8611 137,-29.9865"/>
<polygon fill="midnightblue" stroke="midnightblue" points="140.5,-29.751 137,-19.7511 133.5,-29.7511 140.5,-29.751"/>
</g>
<!-- Node17&#45;&gt;Node2 -->
<g id="edge38" class="edge"><title>Node17&#45;&gt;Node2</title>
<path fill="none" stroke="midnightblue" d="M1111.21,-56.324C1122.78,-48.1066 1140.38,-35.6017 1154.16,-25.8069"/>
<polygon fill="midnightblue" stroke="midnightblue" points="1156.44,-28.4791 1162.57,-19.8339 1152.39,-22.7729 1156.44,-28.4791"/>
</g>
<!-- Node18&#45;&gt;Node2 -->
<g id="edge42" class="edge"><title>Node18&#45;&gt;Node2</title>
<path fill="none" stroke="midnightblue" d="M1431.67,-56.4435C1373.8,-46.1967 1277.58,-29.1611 1220.83,-19.1144"/>
<polygon fill="midnightblue" stroke="midnightblue" points="1221.17,-15.62 1210.71,-17.323 1219.95,-22.5128 1221.17,-15.62"/>
</g>
<!-- Node19 -->
<g id="node41" class="node"><title>Node19</title>
<polygon fill="none" stroke="#bfbfbf" points="1435.5,-0.5 1435.5,-19.5 1524.5,-19.5 1524.5,-0.5 1435.5,-0.5"/>
<text text-anchor="middle" x="1480" y="-7.5" font-family="DejaVuSansMono" font-size="10.00">netinet/in.h</text>
</g>
<!-- Node18&#45;&gt;Node19 -->
<g id="edge44" class="edge"><title>Node18&#45;&gt;Node19</title>
<path fill="none" stroke="midnightblue" d="M1480,-56.083C1480,-49.0059 1480,-38.8611 1480,-29.9865"/>
<polygon fill="midnightblue" stroke="midnightblue" points="1483.5,-29.751 1480,-19.7511 1476.5,-29.7511 1483.5,-29.751"/>
</g>
<!-- Node21&#45;&gt;Node2 -->
<g id="edge50" class="edge"><title>Node21&#45;&gt;Node2</title>
<path fill="none" stroke="midnightblue" d="M891.777,-57.2056C955.373,-46.8304 1067.05,-28.6104 1129.49,-18.4253"/>
<polygon fill="midnightblue" stroke="midnightblue" points="1130.13,-21.8662 1139.44,-16.8017 1129,-14.9576 1130.13,-21.8662"/>
</g>
<!-- Node21&#45;&gt;Node11 -->
<g id="edge52" class="edge"><title>Node21&#45;&gt;Node11</title>
<path fill="none" stroke="midnightblue" d="M828.737,-56.324C813.779,-47.8215 790.745,-34.7288 773.273,-24.7975"/>
<polygon fill="midnightblue" stroke="midnightblue" points="774.649,-21.5534 764.226,-19.6545 771.19,-27.639 774.649,-21.5534"/>
</g>
<!-- Node22&#45;&gt;Node2 -->
<g id="edge56" class="edge"><title>Node22&#45;&gt;Node2</title>
<path fill="none" stroke="midnightblue" d="M1334.05,-56.4435C1301.84,-47.2406 1250.47,-32.5617 1214.86,-22.3879"/>
<polygon fill="midnightblue" stroke="midnightblue" points="1215.38,-18.8984 1204.81,-19.5164 1213.46,-25.629 1215.38,-18.8984"/>
</g>
</g>
</svg>
        <g id="navigator" transform="translate(0 0)" fill="#404254">
                <rect fill="#f2f5e9" fill-opacity="0.5" stroke="#606060" stroke-width=".5" x="0" y="0" width="60" height="60"/>
                <use id="zoomplus" xlink:href="#zoomPlus" x="17" y="9" onmousedown="handleZoom(evt,'in')"/>
                <use id="zoomminus" xlink:href="#zoomMin" x="42" y="9" onmousedown="handleZoom(evt,'out')"/>
                <use id="reset" xlink:href="#resetDef" x="30" y="36" onmousedown="handleReset()"/>
                <g id="arrowUp" xlink:href="#dirArrow" transform="translate(30 24)" onmousedown="handlePan(0,-1)">
                  <use xlink:href="#rim" fill="#404040">
                        <set attributeName="fill" to="#808080" begin="arrowUp.mouseover" end="arrowUp.mouseout"/>
                  </use>
                  <path fill="none" stroke="white" stroke-width="1.5" d="M0,-3.0v7 M-2.5,-0.5L0,-3.0L2.5,-0.5"/>
                </g>
                <g id="arrowRight" xlink:href="#dirArrow" transform="rotate(90) translate(36 -43)" onmousedown="handlePan(1,0)">
                  <use xlink:href="#rim" fill="#404040">
                        <set attributeName="fill" to="#808080" begin="arrowRight.mouseover" end="arrowRight.mouseout"/>
                  </use>
                  <path fill="none" stroke="white" stroke-width="1.5" d="M0,-3.0v7 M-2.5,-0.5L0,-3.0L2.5,-0.5"/>
                </g>
                <g id="arrowDown" xlink:href="#dirArrow" transform="rotate(180) translate(-30 -48)" onmousedown="handlePan(0,1)">
                  <use xlink:href="#rim" fill="#404040">
                        <set attributeName="fill" to="#808080" begin="arrowDown.mouseover" end="arrowDown.mouseout"/>
                  </use>
                  <path fill="none" stroke="white" stroke-width="1.5" d="M0,-3.0v7 M-2.5,-0.5L0,-3.0L2.5,-0.5"/>
                </g>
                <g id="arrowLeft" xlink:href="#dirArrow" transform="rotate(270) translate(-36 17)" onmousedown="handlePan(-1,0)">
                  <use xlink:href="#rim" fill="#404040">
                        <set attributeName="fill" to="#808080" begin="arrowLeft.mouseover" end="arrowLeft.mouseout"/>
                  </use>
                  <path fill="none" stroke="white" stroke-width="1.5" d="M0,-3.0v7 M-2.5,-0.5L0,-3.0L2.5,-0.5"/>
                </g>
        </g>
        <svg viewBox="0 0 25 25" width="100%" height="30px" preserveAspectRatio="xMaxYMin meet"> 
          <g id="printButton" transform="scale(0.4 0.4)" onmousedown="handlePrint(evt)">
            <rect height="23.33753581" id="paper" rx="2" style="fill:#f2f5e9;fill-rule:evenodd;stroke:#111111;stroke-width:3.224;stroke-linejoin:round;" transform="matrix(1.000000,0.000000,-0.339266,0.940691,0.000000,0.000000)" width="25.55231285" x="26.69387353" y="7.36162977"/>
            <rect height="26.272097" id="body" rx="2" style="fill:#404040;fill-rule:evenodd;stroke:#111111;stroke-width:3.125;stroke-linejoin:round;" width="50" x="4.5295201" y="27.078951"/>
            <rect height="8.27750969" id="tray" style="fill:#d2d5c9;fill-rule:evenodd;stroke:#111111;stroke-width:3.125;stroke-linecap:round;stroke-linejoin:round;" width="40" x="10.28778839" y="44.96812282"/>
          </g>
        </svg>
</svg>
