<?xml version="1.0" encoding="UTF-8" standalone="no"?>
<!DOCTYPE svg PUBLIC "-//W3C//DTD SVG 1.1//EN"
 "http://www.w3.org/Graphics/SVG/1.1/DTD/svg11.dtd">
<!-- Generated by graphviz version 2.28.0 (20120217.0315)
 -->
<!-- Title: G Pages: 1 -->
<svg width="395pt" height="140pt"
 viewBox="0.00 0.00 395.00 140.00" xmlns="http://www.w3.org/2000/svg" xmlns:xlink="http://www.w3.org/1999/xlink">
<g id="graph1" class="graph" transform="scale(1 1) rotate(0) translate(4 136)">
<title>G</title>
<!-- Node1 -->
<g id="node1" class="node"><title>Node1</title>
<polygon fill="#bfbfbf" stroke="black" points="159.5,-112.5 159.5,-131.5 230.5,-131.5 230.5,-112.5 159.5,-112.5"/>
<text text-anchor="middle" x="195" y="-119.5" font-family="DejaVuSansMono" font-size="10.00">src/jid.c</text>
</g>
<!-- Node2 -->
<g id="node3" class="node"><title>Node2</title>
<polygon fill="none" stroke="#bfbfbf" points="-0.5,-56.5 -0.5,-75.5 58.5,-75.5 58.5,-56.5 -0.5,-56.5"/>
<text text-anchor="middle" x="29" y="-63.5" font-family="DejaVuSansMono" font-size="10.00">ctype.h</text>
</g>
<!-- Node1&#45;&gt;Node2 -->
<g id="edge2" class="edge"><title>Node1&#45;&gt;Node2</title>
<path fill="none" stroke="midnightblue" d="M168.697,-112.444C140.649,-103.32 96.0556,-88.8133 64.8158,-78.6509"/>
<polygon fill="midnightblue" stroke="midnightblue" points="65.7724,-75.2816 55.1801,-75.5164 63.6069,-81.9383 65.7724,-75.2816"/>
</g>
<!-- Node3 -->
<g id="node5" class="node"><title>Node3</title>
<polygon fill="none" stroke="#bfbfbf" points="76.5,-56.5 76.5,-75.5 153.5,-75.5 153.5,-56.5 76.5,-56.5"/>
<text text-anchor="middle" x="115" y="-63.5" font-family="DejaVuSansMono" font-size="10.00">utstring.h</text>
</g>
<!-- Node1&#45;&gt;Node3 -->
<g id="edge4" class="edge"><title>Node1&#45;&gt;Node3</title>
<path fill="none" stroke="midnightblue" d="M182.147,-112.324C169.784,-103.979 150.87,-91.2122 136.263,-81.3524"/>
<polygon fill="midnightblue" stroke="midnightblue" points="138.068,-78.3483 127.821,-75.6545 134.152,-84.1503 138.068,-78.3483"/>
</g>
<!-- Node4 -->
<g id="node7" class="node"><title>Node4</title>
<a xlink:href="../../d7/d7f/log_8h.html" target="_top" xlink:title="Debugging and logging functions/macros.">
<polygon fill="none" stroke="black" points="171.5,-56.5 171.5,-75.5 218.5,-75.5 218.5,-56.5 171.5,-56.5"/>
<text text-anchor="middle" x="195" y="-63.5" font-family="DejaVuSansMono" font-size="10.00">log.h</text>
</a>
</g>
<!-- Node1&#45;&gt;Node4 -->
<g id="edge6" class="edge"><title>Node1&#45;&gt;Node4</title>
<path fill="none" stroke="midnightblue" d="M195,-112.083C195,-105.006 195,-94.8611 195,-85.9865"/>
<polygon fill="midnightblue" stroke="midnightblue" points="198.5,-85.751 195,-75.7511 191.5,-85.7511 198.5,-85.751"/>
</g>
<!-- Node8 -->
<g id="node15" class="node"><title>Node8</title>
<a xlink:href="../../d5/d60/utils_8h.html" target="_top" xlink:title="Miscellaneous utility functions.">
<polygon fill="none" stroke="black" points="236.5,-56.5 236.5,-75.5 295.5,-75.5 295.5,-56.5 236.5,-56.5"/>
<text text-anchor="middle" x="266" y="-63.5" font-family="DejaVuSansMono" font-size="10.00">utils.h</text>
</a>
</g>
<!-- Node1&#45;&gt;Node8 -->
<g id="edge14" class="edge"><title>Node1&#45;&gt;Node8</title>
<path fill="none" stroke="midnightblue" d="M206.407,-112.324C217.109,-104.185 233.341,-91.8395 246.163,-82.0874"/>
<polygon fill="midnightblue" stroke="midnightblue" points="248.544,-84.6734 254.385,-75.8339 244.307,-79.1018 248.544,-84.6734"/>
</g>
<!-- Node10 -->
<g id="node20" class="node"><title>Node10</title>
<a xlink:href="../../d6/d24/jid_8h.html" target="_top" xlink:title="Functions and data structure to manipulate a JID.">
<polygon fill="none" stroke="black" points="313.5,-56.5 313.5,-75.5 360.5,-75.5 360.5,-56.5 313.5,-56.5"/>
<text text-anchor="middle" x="337" y="-63.5" font-family="DejaVuSansMono" font-size="10.00">jid.h</text>
</a>
</g>
<!-- Node1&#45;&gt;Node10 -->
<g id="edge20" class="edge"><title>Node1&#45;&gt;Node10</title>
<path fill="none" stroke="midnightblue" d="M217.5,-112.444C241.077,-103.478 278.322,-89.314 304.964,-79.1827"/>
<polygon fill="midnightblue" stroke="midnightblue" points="306.502,-82.3424 314.605,-75.5164 304.014,-75.7995 306.502,-82.3424"/>
</g>
<!-- Node5 -->
<g id="node9" class="node"><title>Node5</title>
<polygon fill="none" stroke="#bfbfbf" points="79.5,-0.5 79.5,-19.5 138.5,-19.5 138.5,-0.5 79.5,-0.5"/>
<text text-anchor="middle" x="109" y="-7.5" font-family="DejaVuSansMono" font-size="10.00">stdio.h</text>
</g>
<!-- Node4&#45;&gt;Node5 -->
<g id="edge8" class="edge"><title>Node4&#45;&gt;Node5</title>
<path fill="none" stroke="midnightblue" d="M181.183,-56.324C167.767,-47.9002 147.176,-34.9709 131.414,-25.0741"/>
<polygon fill="midnightblue" stroke="midnightblue" points="133.113,-22.0081 122.783,-19.6545 129.391,-27.9364 133.113,-22.0081"/>
</g>
<!-- Node6 -->
<g id="node11" class="node"><title>Node6</title>
<polygon fill="none" stroke="#bfbfbf" points="156.5,-0.5 156.5,-19.5 215.5,-19.5 215.5,-0.5 156.5,-0.5"/>
<text text-anchor="middle" x="186" y="-7.5" font-family="DejaVuSansMono" font-size="10.00">errno.h</text>
</g>
<!-- Node4&#45;&gt;Node6 -->
<g id="edge10" class="edge"><title>Node4&#45;&gt;Node6</title>
<path fill="none" stroke="midnightblue" d="M193.514,-56.083C192.321,-48.9272 190.606,-38.6353 189.115,-29.6911"/>
<polygon fill="midnightblue" stroke="midnightblue" points="192.555,-29.0396 187.459,-19.7511 185.65,-30.1904 192.555,-29.0396"/>
</g>
<!-- Node7 -->
<g id="node13" class="node"><title>Node7</title>
<polygon fill="none" stroke="#bfbfbf" points="233.5,-0.5 233.5,-19.5 298.5,-19.5 298.5,-0.5 233.5,-0.5"/>
<text text-anchor="middle" x="266" y="-7.5" font-family="DejaVuSansMono" font-size="10.00">string.h</text>
</g>
<!-- Node4&#45;&gt;Node7 -->
<g id="edge12" class="edge"><title>Node4&#45;&gt;Node7</title>
<path fill="none" stroke="midnightblue" d="M206.407,-56.324C217.109,-48.1849 233.341,-35.8395 246.163,-26.0874"/>
<polygon fill="midnightblue" stroke="midnightblue" points="248.544,-28.6734 254.385,-19.8339 244.307,-23.1018 248.544,-28.6734"/>
</g>
<!-- Node8&#45;&gt;Node7 -->
<g id="edge18" class="edge"><title>Node8&#45;&gt;Node7</title>
<path fill="none" stroke="midnightblue" d="M266,-56.083C266,-49.0059 266,-38.8611 266,-29.9865"/>
<polygon fill="midnightblue" stroke="midnightblue" points="269.5,-29.751 266,-19.7511 262.5,-29.7511 269.5,-29.751"/>
</g>
<!-- Node9 -->
<g id="node17" class="node"><title>Node9</title>
<polygon fill="none" stroke="#bfbfbf" points="316.5,-0.5 316.5,-19.5 387.5,-19.5 387.5,-0.5 316.5,-0.5"/>
<text text-anchor="middle" x="352" y="-7.5" font-family="DejaVuSansMono" font-size="10.00">stdbool.h</text>
</g>
<!-- Node8&#45;&gt;Node9 -->
<g id="edge16" class="edge"><title>Node8&#45;&gt;Node9</title>
<path fill="none" stroke="midnightblue" d="M279.817,-56.324C293.233,-47.9002 313.824,-34.9709 329.586,-25.0741"/>
<polygon fill="midnightblue" stroke="midnightblue" points="331.609,-27.9364 338.217,-19.6545 327.887,-22.0081 331.609,-27.9364"/>
</g>
</g>
</svg>
