<?xml version="1.0" encoding="UTF-8" standalone="no"?>
<!DOCTYPE svg PUBLIC "-//W3C//DTD SVG 1.1//EN"
 "http://www.w3.org/Graphics/SVG/1.1/DTD/svg11.dtd">
<!-- Generated by graphviz version 2.28.0 (20120217.0315)
 -->
<!-- Title: G Pages: 1 -->
<!--zoomable 160 -->
<svg id="main" version="1.1" xmlns="http://www.w3.org/2000/svg" xmlns:xlink="http://www.w3.org/1999/xlink" xml:space="preserve" onload="init(evt)">
        <defs>
                <circle id="rim" cx="0" cy="0" r="7"/>
                <circle id="rim2" cx="0" cy="0" r="3.5"/>
                <g id="zoomPlus">
                        <use xlink:href="#rim" fill="#404040">
                                <set attributeName="fill" to="#808080" begin="zoomplus.mouseover" end="zoomplus.mouseout"/>
                        </use>
                        <path d="M-4,0h8M0,-4v8" fill="none" stroke="white" stroke-width="1.5" pointer-events="none"/>
                </g>
                <g id="zoomMin">
                        <use xlink:href="#rim" fill="#404040">
                                <set attributeName="fill" to="#808080" begin="zoomminus.mouseover" end="zoomminus.mouseout"/>
                        </use>
                        <path d="M-4,0h8" fill="none" stroke="white" stroke-width="1.5" pointer-events="none"/>
                </g>
                <g id="dirArrow">
                        <path fill="none" stroke="white" stroke-width="1.5" d="M0,-3.0v7 M-2.5,-0.5L0,-3.0L2.5,-0.5"/>
                </g>
               <g id="resetDef">
                       <use xlink:href="#rim2" fill="#404040">
                               <set attributeName="fill" to="#808080" begin="reset.mouseover" end="reset.mouseout"/>
                       </use>
               </g>
        </defs>

<script type="text/javascript">
var viewWidth = 1832;
var viewHeight = 160;
var sectionId = 'dynsection-17';
</script>
<script xlink:href="../../svgpan.js"/>
<svg id="graph" class="graph">
<g id="viewport">
<title>G</title>
<!-- Node1 -->
<g id="node1" class="node"><title>Node1</title>
<polygon fill="#bfbfbf" stroke="black" points="0.5,-94.5 0.5,-113.5 191.5,-113.5 191.5,-94.5 0.5,-94.5"/>
<text text-anchor="middle" x="96" y="-101.5" font-family="DejaVuSansMono" font-size="10.00">xmpp_server_disconnect_client</text>
</g>
<!-- Node2 -->
<g id="node3" class="node"><title>Node2</title>
<a xlink:href="../../d8/d28/xmpp__core_8h.html#a3b41e83061abd7ed5b258c7aa7dda0d6" target="_top" xlink:title="An xmpp_server stanza route for stanzas directed to a local client.">
<polygon fill="none" stroke="black" points="228.5,-94.5 228.5,-113.5 377.5,-113.5 377.5,-94.5 228.5,-94.5"/>
<text text-anchor="middle" x="303" y="-101.5" font-family="DejaVuSansMono" font-size="10.00">xmpp_core_route_client</text>
</a>
</g>
<!-- Node1&#45;&gt;Node2 -->
<g id="edge2" class="edge"><title>Node1&#45;&gt;Node2</title>
<path fill="none" stroke="midnightblue" d="M201.787,-104C210.726,-104 219.642,-104 228.263,-104"/>
<polygon fill="midnightblue" stroke="midnightblue" points="201.699,-100.5 191.699,-104 201.699,-107.5 201.699,-100.5"/>
</g>
<!-- Node15 -->
<g id="node35" class="node"><title>Node15</title>
<a xlink:href="../../d0/df0/xmpp__server_8c.html#abece91815ef240322d79073f5bfca1db" target="_top" xlink:title="Callback for new data from a client.">
<polygon fill="none" stroke="black" points="423.5,-28.5 423.5,-47.5 506.5,-47.5 506.5,-28.5 423.5,-28.5"/>
<text text-anchor="middle" x="465" y="-35.5" font-family="DejaVuSansMono" font-size="10.00">read_client</text>
</a>
</g>
<!-- Node1&#45;&gt;Node15 -->
<g id="edge40" class="edge"><title>Node1&#45;&gt;Node15</title>
<path fill="none" stroke="midnightblue" d="M159.819,-92.7028C235.187,-79.149 359.353,-56.8194 423.235,-45.331"/>
<polygon fill="midnightblue" stroke="midnightblue" points="159.196,-89.2587 149.973,-94.4735 160.435,-96.1482 159.196,-89.2587"/>
</g>
<!-- Node3 -->
<g id="node5" class="node"><title>Node3</title>
<a xlink:href="../../df/da9/xmpp__auth_8c.html#a603b4a63af3c4e4af99442805fe89ae8" target="_top" xlink:title="Step 15: Client binds a resource.">
<polygon fill="none" stroke="black" points="414.5,-66.5 414.5,-85.5 515.5,-85.5 515.5,-66.5 414.5,-66.5"/>
<text text-anchor="middle" x="465" y="-73.5" font-family="DejaVuSansMono" font-size="10.00">handle_bind_iq</text>
</a>
</g>
<!-- Node2&#45;&gt;Node3 -->
<g id="edge4" class="edge"><title>Node2&#45;&gt;Node3</title>
<path fill="none" stroke="midnightblue" d="M368.538,-92.7058C383.848,-90.0266 399.943,-87.21 414.464,-84.6688"/>
<polygon fill="midnightblue" stroke="midnightblue" points="367.862,-89.2708 358.615,-94.4423 369.069,-96.166 367.862,-89.2708"/>
</g>
<!-- Node13 -->
<g id="node26" class="node"><title>Node13</title>
<a xlink:href="../../d4/d2f/xmpp__client_8h.html#add2df61245a543667b6d98e3fcd57077" target="_top" xlink:title="xmpp_client_del">
<polygon fill="none" stroke="black" points="1185.5,-104.5 1185.5,-123.5 1292.5,-123.5 1292.5,-104.5 1185.5,-104.5"/>
<text text-anchor="middle" x="1239" y="-111.5" font-family="DejaVuSansMono" font-size="10.00">xmpp_client_del</text>
</a>
</g>
<!-- Node2&#45;&gt;Node13 -->
<g id="edge26" class="edge"><title>Node2&#45;&gt;Node13</title>
<path fill="none" stroke="midnightblue" d="M387.869,-108.205C449.567,-110.94 535.48,-114 611,-114 611,-114 611,-114 925,-114 1016.56,-114 1123.19,-114 1185.39,-114"/>
<polygon fill="midnightblue" stroke="midnightblue" points="387.943,-104.705 377.796,-107.752 387.628,-111.698 387.943,-104.705"/>
</g>
<!-- Node4 -->
<g id="node7" class="node"><title>Node4</title>
<a xlink:href="../../df/da9/xmpp__auth_8c.html#a01804bd53eccc182ce76337fc0863e8d" target="_top" xlink:title="stream_bind_start">
<polygon fill="none" stroke="black" points="552.5,-66.5 552.5,-85.5 671.5,-85.5 671.5,-66.5 552.5,-66.5"/>
<text text-anchor="middle" x="612" y="-73.5" font-family="DejaVuSansMono" font-size="10.00">stream_bind_start</text>
</a>
</g>
<!-- Node3&#45;&gt;Node4 -->
<g id="edge6" class="edge"><title>Node3&#45;&gt;Node4</title>
<path fill="none" stroke="midnightblue" d="M525.961,-76C534.655,-76 543.597,-76 552.266,-76"/>
<polygon fill="midnightblue" stroke="midnightblue" points="525.901,-72.5001 515.901,-76 525.901,-79.5001 525.901,-72.5001"/>
</g>
<!-- Node5 -->
<g id="node9" class="node"><title>Node5</title>
<a xlink:href="../../df/da9/xmpp__auth_8c.html#afb770a216868aa3fb43813b19d2a0115" target="_top" xlink:title="Begins SASL PLAIN authentication.">
<polygon fill="none" stroke="black" points="708.5,-66.5 708.5,-85.5 827.5,-85.5 827.5,-66.5 708.5,-66.5"/>
<text text-anchor="middle" x="768" y="-73.5" font-family="DejaVuSansMono" font-size="10.00">handle_sasl_plain</text>
</a>
</g>
<!-- Node4&#45;&gt;Node5 -->
<g id="edge8" class="edge"><title>Node4&#45;&gt;Node5</title>
<path fill="none" stroke="midnightblue" d="M681.894,-76C690.691,-76 699.631,-76 708.248,-76"/>
<polygon fill="midnightblue" stroke="midnightblue" points="681.66,-72.5001 671.66,-76 681.66,-79.5001 681.66,-72.5001"/>
</g>
<!-- Node6 -->
<g id="node11" class="node"><title>Node6</title>
<a xlink:href="../../d3/d24/xmpp__auth_8h.html#ad3efd9ab093646bdfd8832c34ae2de4d" target="_top" xlink:title="Handler for the inital stream start to begin authentication.">
<polygon fill="none" stroke="black" points="1164.5,-47.5 1164.5,-66.5 1313.5,-66.5 1313.5,-47.5 1164.5,-47.5"/>
<text text-anchor="middle" x="1239" y="-54.5" font-family="DejaVuSansMono" font-size="10.00">xmpp_auth_stream_start</text>
</a>
</g>
<!-- Node5&#45;&gt;Node6 -->
<g id="edge10" class="edge"><title>Node5&#45;&gt;Node6</title>
<path fill="none" stroke="midnightblue" d="M837.987,-73.2052C925.236,-69.6706 1074.85,-63.6096 1164.28,-59.9864"/>
<polygon fill="midnightblue" stroke="midnightblue" points="837.774,-69.7109 827.924,-73.6129 838.058,-76.7051 837.774,-69.7109"/>
</g>
<!-- Node11 -->
<g id="node21" class="node"><title>Node11</title>
<a xlink:href="../../df/da9/xmpp__auth_8c.html#afd7b12689591d40109a88ad108b5c3a2" target="_top" xlink:title="stream_sasl_start">
<polygon fill="none" stroke="black" points="864.5,-28.5 864.5,-47.5 983.5,-47.5 983.5,-28.5 864.5,-28.5"/>
<text text-anchor="middle" x="924" y="-35.5" font-family="DejaVuSansMono" font-size="10.00">stream_sasl_start</text>
</a>
</g>
<!-- Node5&#45;&gt;Node11 -->
<g id="edge20" class="edge"><title>Node5&#45;&gt;Node11</title>
<path fill="none" stroke="midnightblue" d="M817.794,-63.96C839.308,-58.6512 864.232,-52.5012 884.419,-47.5201"/>
<polygon fill="midnightblue" stroke="midnightblue" points="816.731,-60.6172 807.861,-66.411 818.408,-67.4133 816.731,-60.6172"/>
</g>
<!-- Node7 -->
<g id="node13" class="node"><title>Node7</title>
<a xlink:href="../../d4/d2f/xmpp__client_8h.html#a1619c0b8f58b2cf09a322bf34fbc3414" target="_top" xlink:title="xmpp_client_new">
<polygon fill="none" stroke="black" points="1350.5,-47.5 1350.5,-66.5 1457.5,-66.5 1457.5,-47.5 1350.5,-47.5"/>
<text text-anchor="middle" x="1404" y="-54.5" font-family="DejaVuSansMono" font-size="10.00">xmpp_client_new</text>
</a>
</g>
<!-- Node6&#45;&gt;Node7 -->
<g id="edge12" class="edge"><title>Node6&#45;&gt;Node7</title>
<path fill="none" stroke="midnightblue" d="M1323.99,-57C1332.95,-57 1341.88,-57 1350.33,-57"/>
<polygon fill="midnightblue" stroke="midnightblue" points="1323.87,-53.5001 1313.87,-57 1323.87,-60.5001 1323.87,-53.5001"/>
</g>
<!-- Node8 -->
<g id="node15" class="node"><title>Node8</title>
<a xlink:href="../../d0/df0/xmpp__server_8c.html#a66363912ef1221a2574f9f99805fe8fd" target="_top" xlink:title="Callback for new client connections.">
<polygon fill="none" stroke="black" points="1497.5,-56.5 1497.5,-75.5 1598.5,-75.5 1598.5,-56.5 1497.5,-56.5"/>
<text text-anchor="middle" x="1548" y="-63.5" font-family="DejaVuSansMono" font-size="10.00">connect_client</text>
</a>
</g>
<!-- Node7&#45;&gt;Node8 -->
<g id="edge14" class="edge"><title>Node7&#45;&gt;Node8</title>
<path fill="none" stroke="midnightblue" d="M1468.02,-60.994C1477.85,-61.6173 1487.89,-62.2537 1497.37,-62.8546"/>
<polygon fill="midnightblue" stroke="midnightblue" points="1468.08,-57.4909 1457.88,-60.3513 1467.63,-64.4769 1468.08,-57.4909"/>
</g>
<!-- Node9 -->
<g id="node17" class="node"><title>Node9</title>
<a xlink:href="../../d1/d2e/xmpp__server_8h.html#a27bfc8e4d424a8bc17ab21a4a09cdf92" target="_top" xlink:title="Allocates and initializes the XMPP server.">
<polygon fill="none" stroke="black" points="1638.5,-75.5 1638.5,-94.5 1745.5,-94.5 1745.5,-75.5 1638.5,-75.5"/>
<text text-anchor="middle" x="1692" y="-82.5" font-family="DejaVuSansMono" font-size="10.00">xmpp_server_new</text>
</a>
</g>
<!-- Node8&#45;&gt;Node9 -->
<g id="edge16" class="edge"><title>Node8&#45;&gt;Node9</title>
<path fill="none" stroke="midnightblue" d="M1608.73,-73.9924C1618.53,-75.3029 1628.62,-76.6527 1638.23,-77.9386"/>
<polygon fill="midnightblue" stroke="midnightblue" points="1609.04,-70.5025 1598.66,-72.6453 1608.11,-77.4407 1609.04,-70.5025"/>
</g>
<!-- Node10 -->
<g id="node19" class="node"><title>Node10</title>
<a xlink:href="../../d0/d29/main_8c.html#a0ddf1224851353fc92bfbff6f499fa97" target="_top" xlink:title="main">
<polygon fill="none" stroke="black" points="1782.5,-94.5 1782.5,-113.5 1823.5,-113.5 1823.5,-94.5 1782.5,-94.5"/>
<text text-anchor="middle" x="1803" y="-101.5" font-family="DejaVuSansMono" font-size="10.00">main</text>
</a>
</g>
<!-- Node9&#45;&gt;Node10 -->
<g id="edge18" class="edge"><title>Node9&#45;&gt;Node10</title>
<path fill="none" stroke="midnightblue" d="M1755.45,-95.8849C1765.24,-97.5918 1774.68,-99.2378 1782.47,-100.596"/>
<polygon fill="midnightblue" stroke="midnightblue" points="1756.04,-92.4354 1745.58,-94.1661 1754.83,-99.3314 1756.04,-92.4354"/>
</g>
<!-- Node12 -->
<g id="node23" class="node"><title>Node12</title>
<a xlink:href="../../df/da9/xmpp__auth_8c.html#a8dd789e057b9812e4dd1aa524dfb6a65" target="_top" xlink:title="Begins TLS authentication.">
<polygon fill="none" stroke="black" points="1020.5,-28.5 1020.5,-47.5 1127.5,-47.5 1127.5,-28.5 1020.5,-28.5"/>
<text text-anchor="middle" x="1074" y="-35.5" font-family="DejaVuSansMono" font-size="10.00">handle_starttls</text>
</a>
</g>
<!-- Node11&#45;&gt;Node12 -->
<g id="edge22" class="edge"><title>Node11&#45;&gt;Node12</title>
<path fill="none" stroke="midnightblue" d="M994.085,-38C1002.81,-38 1011.62,-38 1020.04,-38"/>
<polygon fill="midnightblue" stroke="midnightblue" points="993.919,-34.5001 983.919,-38 993.919,-41.5001 993.919,-34.5001"/>
</g>
<!-- Node12&#45;&gt;Node6 -->
<g id="edge24" class="edge"><title>Node12&#45;&gt;Node6</title>
<path fill="none" stroke="midnightblue" d="M1137.91,-45.3332C1146.56,-46.3411 1155.5,-47.3833 1164.32,-48.4112"/>
<polygon fill="midnightblue" stroke="midnightblue" points="1138.26,-41.8502 1127.92,-44.1688 1137.45,-48.8031 1138.26,-41.8502"/>
</g>
<!-- Node13&#45;&gt;Node1 -->
<g id="edge36" class="edge"><title>Node13&#45;&gt;Node1</title>
<path fill="none" stroke="midnightblue" d="M1179.61,-125.367C1116.93,-136.563 1014.32,-152 925,-152 464,-152 464,-152 464,-152 346.569,-152 209.773,-127.539 141.103,-113.541"/>
<polygon fill="midnightblue" stroke="midnightblue" points="1180.48,-128.766 1189.69,-123.54 1179.23,-121.878 1180.48,-128.766"/>
</g>
<!-- Node13&#45;&gt;Node7 -->
<g id="edge28" class="edge"><title>Node13&#45;&gt;Node7</title>
<path fill="none" stroke="midnightblue" d="M1276.97,-101.072C1306.96,-90.5836 1348.56,-76.0361 1375.63,-66.5716"/>
<polygon fill="midnightblue" stroke="midnightblue" points="1275.57,-97.8547 1267.28,-104.459 1277.88,-104.462 1275.57,-97.8547"/>
</g>
<!-- Node13&#45;&gt;Node8 -->
<g id="edge38" class="edge"><title>Node13&#45;&gt;Node8</title>
<path fill="none" stroke="midnightblue" d="M1302.85,-104.174C1360.42,-95.1728 1444.5,-82.0264 1497.45,-73.7472"/>
<polygon fill="midnightblue" stroke="midnightblue" points="1302.11,-100.746 1292.78,-105.749 1303.2,-107.662 1302.11,-100.746"/>
</g>
<!-- Node14 -->
<g id="node29" class="node"><title>Node14</title>
<a xlink:href="../../d1/d2e/xmpp__server_8h.html#af7d75415fd5671841797bf77bbc1a981" target="_top" xlink:title="Cleans up an XMPP server instance.">
<polygon fill="none" stroke="black" points="1494.5,-113.5 1494.5,-132.5 1601.5,-132.5 1601.5,-113.5 1494.5,-113.5"/>
<text text-anchor="middle" x="1548" y="-120.5" font-family="DejaVuSansMono" font-size="10.00">xmpp_server_del</text>
</a>
</g>
<!-- Node13&#45;&gt;Node14 -->
<g id="edge30" class="edge"><title>Node13&#45;&gt;Node14</title>
<path fill="none" stroke="midnightblue" d="M1303.01,-115.847C1359.48,-117.503 1441.37,-119.903 1494.4,-121.458"/>
<polygon fill="midnightblue" stroke="midnightblue" points="1302.87,-112.342 1292.78,-115.547 1302.67,-119.339 1302.87,-112.342"/>
</g>
<!-- Node14&#45;&gt;Node9 -->
<g id="edge34" class="edge"><title>Node14&#45;&gt;Node9</title>
<path fill="none" stroke="midnightblue" d="M1594.49,-110.826C1614.13,-105.571 1636.77,-99.5134 1655.18,-94.5859"/>
<polygon fill="midnightblue" stroke="midnightblue" points="1593.59,-107.445 1584.83,-113.411 1595.4,-114.207 1593.59,-107.445"/>
</g>
<!-- Node14&#45;&gt;Node10 -->
<g id="edge32" class="edge"><title>Node14&#45;&gt;Node10</title>
<path fill="none" stroke="midnightblue" d="M1611.9,-118.276C1667.84,-114.075 1746.21,-108.19 1782.34,-105.477"/>
<polygon fill="midnightblue" stroke="midnightblue" points="1611.44,-114.801 1601.73,-119.04 1611.96,-121.781 1611.44,-114.801"/>
</g>
<!-- Node15&#45;&gt;Node8 -->
<g id="edge42" class="edge"><title>Node15&#45;&gt;Node8</title>
<path fill="none" stroke="midnightblue" d="M516.598,-27.6697C576.212,-16.417 678.372,-0 767,-0 767,-0 767,-0 1240,-0 1346.03,-1.42109e-14 1468.16,-38.0981 1520.72,-56.403"/>
<polygon fill="midnightblue" stroke="midnightblue" points="515.854,-24.2486 506.69,-29.5666 517.17,-31.1237 515.854,-24.2486"/>
</g>
</g>
</svg>
        <g id="navigator" transform="translate(0 0)" fill="#404254">
                <rect fill="#f2f5e9" fill-opacity="0.5" stroke="#606060" stroke-width=".5" x="0" y="0" width="60" height="60"/>
                <use id="zoomplus" xlink:href="#zoomPlus" x="17" y="9" onmousedown="handleZoom(evt,'in')"/>
                <use id="zoomminus" xlink:href="#zoomMin" x="42" y="9" onmousedown="handleZoom(evt,'out')"/>
                <use id="reset" xlink:href="#resetDef" x="30" y="36" onmousedown="handleReset()"/>
                <g id="arrowUp" xlink:href="#dirArrow" transform="translate(30 24)" onmousedown="handlePan(0,-1)">
                  <use xlink:href="#rim" fill="#404040">
                        <set attributeName="fill" to="#808080" begin="arrowUp.mouseover" end="arrowUp.mouseout"/>
                  </use>
                  <path fill="none" stroke="white" stroke-width="1.5" d="M0,-3.0v7 M-2.5,-0.5L0,-3.0L2.5,-0.5"/>
                </g>
                <g id="arrowRight" xlink:href="#dirArrow" transform="rotate(90) translate(36 -43)" onmousedown="handlePan(1,0)">
                  <use xlink:href="#rim" fill="#404040">
                        <set attributeName="fill" to="#808080" begin="arrowRight.mouseover" end="arrowRight.mouseout"/>
                  </use>
                  <path fill="none" stroke="white" stroke-width="1.5" d="M0,-3.0v7 M-2.5,-0.5L0,-3.0L2.5,-0.5"/>
                </g>
                <g id="arrowDown" xlink:href="#dirArrow" transform="rotate(180) translate(-30 -48)" onmousedown="handlePan(0,1)">
                  <use xlink:href="#rim" fill="#404040">
                        <set attributeName="fill" to="#808080" begin="arrowDown.mouseover" end="arrowDown.mouseout"/>
                  </use>
                  <path fill="none" stroke="white" stroke-width="1.5" d="M0,-3.0v7 M-2.5,-0.5L0,-3.0L2.5,-0.5"/>
                </g>
                <g id="arrowLeft" xlink:href="#dirArrow" transform="rotate(270) translate(-36 17)" onmousedown="handlePan(-1,0)">
                  <use xlink:href="#rim" fill="#404040">
                        <set attributeName="fill" to="#808080" begin="arrowLeft.mouseover" end="arrowLeft.mouseout"/>
                  </use>
                  <path fill="none" stroke="white" stroke-width="1.5" d="M0,-3.0v7 M-2.5,-0.5L0,-3.0L2.5,-0.5"/>
                </g>
        </g>
        <svg viewBox="0 0 25 25" width="100%" height="30px" preserveAspectRatio="xMaxYMin meet"> 
          <g id="printButton" transform="scale(0.4 0.4)" onmousedown="handlePrint(evt)">
            <rect height="23.33753581" id="paper" rx="2" style="fill:#f2f5e9;fill-rule:evenodd;stroke:#111111;stroke-width:3.224;stroke-linejoin:round;" transform="matrix(1.000000,0.000000,-0.339266,0.940691,0.000000,0.000000)" width="25.55231285" x="26.69387353" y="7.36162977"/>
            <rect height="26.272097" id="body" rx="2" style="fill:#404040;fill-rule:evenodd;stroke:#111111;stroke-width:3.125;stroke-linejoin:round;" width="50" x="4.5295201" y="27.078951"/>
            <rect height="8.27750969" id="tray" style="fill:#d2d5c9;fill-rule:evenodd;stroke:#111111;stroke-width:3.125;stroke-linecap:round;stroke-linejoin:round;" width="40" x="10.28778839" y="44.96812282"/>
          </g>
        </svg>
</svg>
