<?xml version="1.0" encoding="UTF-8" standalone="no"?>
<!DOCTYPE svg PUBLIC "-//W3C//DTD SVG 1.1//EN"
 "http://www.w3.org/Graphics/SVG/1.1/DTD/svg11.dtd">
<!-- Generated by graphviz version 2.28.0 (20120217.0315)
 -->
<!-- Title: G Pages: 1 -->
<svg width="416pt" height="66pt"
 viewBox="0.00 0.00 416.00 66.00" xmlns="http://www.w3.org/2000/svg" xmlns:xlink="http://www.w3.org/1999/xlink">
<g id="graph1" class="graph" transform="scale(1 1) rotate(0) translate(4 62)">
<title>G</title>
<!-- Node1 -->
<g id="node1" class="node"><title>Node1</title>
<polygon fill="#bfbfbf" stroke="black" points="0.5,-19.5 0.5,-38.5 173.5,-38.5 173.5,-19.5 0.5,-19.5"/>
<text text-anchor="middle" x="87" y="-26.5" font-family="DejaVuSansMono" font-size="10.00">xmpp_server_del_disco_item</text>
</g>
<!-- Node2 -->
<g id="node3" class="node"><title>Node2</title>
<a xlink:href="../../d3/d5a/jid_8c.html#a03139cec95c699c543f239f338c0c568" target="_top" xlink:title="Compare two JIDs exactly.">
<polygon fill="none" stroke="black" points="231.5,-38.5 231.5,-57.5 290.5,-57.5 290.5,-38.5 231.5,-38.5"/>
<text text-anchor="middle" x="261" y="-45.5" font-family="DejaVuSansMono" font-size="10.00">jid_cmp</text>
</a>
</g>
<!-- Node1&#45;&gt;Node2 -->
<g id="edge2" class="edge"><title>Node1&#45;&gt;Node2</title>
<path fill="none" stroke="midnightblue" d="M173.748,-38.4722C190.378,-40.3092 207.02,-42.1476 221.188,-43.7126"/>
<polygon fill="midnightblue" stroke="midnightblue" points="221.174,-47.2323 231.498,-44.8515 221.943,-40.2746 221.174,-47.2323"/>
</g>
<!-- Node3 -->
<g id="node5" class="node"><title>Node3</title>
<a xlink:href="../../d0/df0/xmpp__server_8c.html#a08a02a13f3a5da6b1d666b0a3ecd2409" target="_top" xlink:title="disco_item_del">
<polygon fill="none" stroke="black" points="210.5,-0.5 210.5,-19.5 311.5,-19.5 311.5,-0.5 210.5,-0.5"/>
<text text-anchor="middle" x="261" y="-7.5" font-family="DejaVuSansMono" font-size="10.00">disco_item_del</text>
</a>
</g>
<!-- Node1&#45;&gt;Node3 -->
<g id="edge4" class="edge"><title>Node1&#45;&gt;Node3</title>
<path fill="none" stroke="midnightblue" d="M173.748,-19.5278C182.602,-18.5498 191.46,-17.5713 199.945,-16.634"/>
<polygon fill="midnightblue" stroke="midnightblue" points="200.531,-20.0906 210.086,-15.5137 199.762,-13.1329 200.531,-20.0906"/>
</g>
<!-- Node4 -->
<g id="node7" class="node"><title>Node4</title>
<a xlink:href="../../d3/d5a/jid_8c.html#ab83fd5aae95de2c9d38fb9d9cd161580" target="_top" xlink:title="Cleans up and frees an existing JID.">
<polygon fill="none" stroke="black" points="348.5,-0.5 348.5,-19.5 407.5,-19.5 407.5,-0.5 348.5,-0.5"/>
<text text-anchor="middle" x="378" y="-7.5" font-family="DejaVuSansMono" font-size="10.00">jid_del</text>
</a>
</g>
<!-- Node3&#45;&gt;Node4 -->
<g id="edge6" class="edge"><title>Node3&#45;&gt;Node4</title>
<path fill="none" stroke="midnightblue" d="M311.772,-10C320.662,-10 329.803,-10 338.324,-10"/>
<polygon fill="midnightblue" stroke="midnightblue" points="338.353,-13.5001 348.352,-10 338.352,-6.5001 338.353,-13.5001"/>
</g>
</g>
</svg>
