<?xml version="1.0" encoding="UTF-8" standalone="no"?>
<!DOCTYPE svg PUBLIC "-//W3C//DTD SVG 1.1//EN"
 "http://www.w3.org/Graphics/SVG/1.1/DTD/svg11.dtd">
<!-- Generated by graphviz version 2.28.0 (20120217.0315)
 -->
<!-- Title: G Pages: 1 -->
<svg width="422pt" height="180pt"
 viewBox="0.00 0.00 422.00 180.00" xmlns="http://www.w3.org/2000/svg" xmlns:xlink="http://www.w3.org/1999/xlink">
<g id="graph1" class="graph" transform="scale(1 1) rotate(0) translate(4 176)">
<title>G</title>
<!-- Node1 -->
<g id="node1" class="node"><title>Node1</title>
<polygon fill="#bfbfbf" stroke="black" points="0.5,-76.5 0.5,-95.5 161.5,-95.5 161.5,-76.5 0.5,-76.5"/>
<text text-anchor="middle" x="81" y="-83.5" font-family="DejaVuSansMono" font-size="10.00">xmpp_server_route_stanza</text>
</g>
<!-- Node2 -->
<g id="node3" class="node"><title>Node2</title>
<a xlink:href="../../d3/d5a/jid_8c.html#a0151ea37a9f52813a8d48d2b7eec2044" target="_top" xlink:title="Allocate and initialize a new JID from an existing JID string.">
<polygon fill="none" stroke="black" points="201.5,-152.5 201.5,-171.5 314.5,-171.5 314.5,-152.5 201.5,-152.5"/>
<text text-anchor="middle" x="258" y="-159.5" font-family="DejaVuSansMono" font-size="10.00">jid_new_from_str</text>
</a>
</g>
<!-- Node1&#45;&gt;Node2 -->
<g id="edge2" class="edge"><title>Node1&#45;&gt;Node2</title>
<path fill="none" stroke="midnightblue" d="M102.859,-95.6157C126.005,-106.224 164.515,-123.689 198,-138 206.259,-141.53 215.216,-145.235 223.597,-148.65"/>
<polygon fill="midnightblue" stroke="midnightblue" points="222.511,-151.987 233.094,-152.497 225.14,-145.499 222.511,-151.987"/>
</g>
<!-- Node4 -->
<g id="node7" class="node"><title>Node4</title>
<a xlink:href="../../d3/d5a/jid_8c.html#ab83fd5aae95de2c9d38fb9d9cd161580" target="_top" xlink:title="Cleans up and frees an existing JID.">
<polygon fill="none" stroke="black" points="354.5,-114.5 354.5,-133.5 413.5,-133.5 413.5,-114.5 354.5,-114.5"/>
<text text-anchor="middle" x="384" y="-121.5" font-family="DejaVuSansMono" font-size="10.00">jid_del</text>
</a>
</g>
<!-- Node1&#45;&gt;Node4 -->
<g id="edge14" class="edge"><title>Node1&#45;&gt;Node4</title>
<path fill="none" stroke="midnightblue" d="M135.901,-95.5187C155.425,-98.7839 177.67,-102.294 198,-105 248.464,-111.718 306.945,-117.368 344.424,-120.718"/>
<polygon fill="midnightblue" stroke="midnightblue" points="344.145,-124.206 354.414,-121.6 344.761,-117.234 344.145,-124.206"/>
</g>
<!-- Node5 -->
<g id="node9" class="node"><title>Node5</title>
<a xlink:href="../../d1/d59/xmpp__stanza_8c.html#a20c90c791fa856784f2d43c9f44f1d3c" target="_top" xlink:title="Returns the value of an attribute of this stanza.">
<polygon fill="none" stroke="black" points="201.5,-76.5 201.5,-95.5 314.5,-95.5 314.5,-76.5 201.5,-76.5"/>
<text text-anchor="middle" x="258" y="-83.5" font-family="DejaVuSansMono" font-size="10.00">xmpp_stanza_attr</text>
</a>
</g>
<!-- Node1&#45;&gt;Node5 -->
<g id="edge8" class="edge"><title>Node1&#45;&gt;Node5</title>
<path fill="none" stroke="midnightblue" d="M161.563,-86C171.443,-86 181.459,-86 191.101,-86"/>
<polygon fill="midnightblue" stroke="midnightblue" points="191.394,-89.5001 201.394,-86 191.394,-82.5001 191.394,-89.5001"/>
</g>
<!-- Node6 -->
<g id="node11" class="node"><title>Node6</title>
<a xlink:href="../../d3/d5a/jid_8c.html#a3d51f2b27d20189e523b0d0b2a77e4a9" target="_top" xlink:title="Converts a JID to a newly allocated string.">
<polygon fill="none" stroke="black" points="219.5,-38.5 219.5,-57.5 296.5,-57.5 296.5,-38.5 219.5,-38.5"/>
<text text-anchor="middle" x="258" y="-45.5" font-family="DejaVuSansMono" font-size="10.00">jid_to_str</text>
</a>
</g>
<!-- Node1&#45;&gt;Node6 -->
<g id="edge10" class="edge"><title>Node1&#45;&gt;Node6</title>
<path fill="none" stroke="midnightblue" d="M126.16,-76.411C151.546,-70.8985 183.444,-63.9721 209.389,-58.3383"/>
<polygon fill="midnightblue" stroke="midnightblue" points="210.348,-61.7118 219.378,-56.1695 208.863,-54.8712 210.348,-61.7118"/>
</g>
<!-- Node7 -->
<g id="node13" class="node"><title>Node7</title>
<a xlink:href="../../d3/d5a/jid_8c.html#a5b2f969326a86fa7e585f633d7b0f565" target="_top" xlink:title="Compare two JIDs with wildcard matches.">
<polygon fill="none" stroke="black" points="198.5,-0.5 198.5,-19.5 317.5,-19.5 317.5,-0.5 198.5,-0.5"/>
<text text-anchor="middle" x="258" y="-7.5" font-family="DejaVuSansMono" font-size="10.00">jid_cmp_wildcards</text>
</a>
</g>
<!-- Node1&#45;&gt;Node7 -->
<g id="edge12" class="edge"><title>Node1&#45;&gt;Node7</title>
<path fill="none" stroke="midnightblue" d="M99.3245,-76.4978C121.688,-64.4642 162.01,-43.5479 198,-29 203.433,-26.804 209.224,-24.6826 214.975,-22.7033"/>
<polygon fill="midnightblue" stroke="midnightblue" points="216.162,-25.9971 224.545,-19.5186 213.952,-19.3551 216.162,-25.9971"/>
</g>
<!-- Node3 -->
<g id="node5" class="node"><title>Node3</title>
<a xlink:href="../../d3/d5a/jid_8c.html#abd2028a1e581e6374acaa6beaf6e5413" target="_top" xlink:title="Allocate and initialize a new blank JID.">
<polygon fill="none" stroke="black" points="354.5,-152.5 354.5,-171.5 413.5,-171.5 413.5,-152.5 354.5,-152.5"/>
<text text-anchor="middle" x="384" y="-159.5" font-family="DejaVuSansMono" font-size="10.00">jid_new</text>
</a>
</g>
<!-- Node2&#45;&gt;Node3 -->
<g id="edge4" class="edge"><title>Node2&#45;&gt;Node3</title>
<path fill="none" stroke="midnightblue" d="M314.833,-162C324.735,-162 334.848,-162 344.15,-162"/>
<polygon fill="midnightblue" stroke="midnightblue" points="344.252,-165.5 354.252,-162 344.252,-158.5 344.252,-165.5"/>
</g>
<!-- Node2&#45;&gt;Node4 -->
<g id="edge6" class="edge"><title>Node2&#45;&gt;Node4</title>
<path fill="none" stroke="midnightblue" d="M290.29,-152.411C306.724,-147.375 327.008,-141.159 344.408,-135.826"/>
<polygon fill="midnightblue" stroke="midnightblue" points="345.734,-139.081 354.269,-132.805 343.683,-132.388 345.734,-139.081"/>
</g>
</g>
</svg>
