<?xml version="1.0" encoding="UTF-8" standalone="no"?>
<!DOCTYPE svg PUBLIC "-//W3C//DTD SVG 1.1//EN"
 "http://www.w3.org/Graphics/SVG/1.1/DTD/svg11.dtd">
<!-- Generated by graphviz version 2.28.0 (20120217.0315)
 -->
<!-- Title: G Pages: 1 -->
<!--zoomable 389 -->
<svg id="main" version="1.1" xmlns="http://www.w3.org/2000/svg" xmlns:xlink="http://www.w3.org/1999/xlink" xml:space="preserve" onload="init(evt)">
        <defs>
                <circle id="rim" cx="0" cy="0" r="7"/>
                <circle id="rim2" cx="0" cy="0" r="3.5"/>
                <g id="zoomPlus">
                        <use xlink:href="#rim" fill="#404040">
                                <set attributeName="fill" to="#808080" begin="zoomplus.mouseover" end="zoomplus.mouseout"/>
                        </use>
                        <path d="M-4,0h8M0,-4v8" fill="none" stroke="white" stroke-width="1.5" pointer-events="none"/>
                </g>
                <g id="zoomMin">
                        <use xlink:href="#rim" fill="#404040">
                                <set attributeName="fill" to="#808080" begin="zoomminus.mouseover" end="zoomminus.mouseout"/>
                        </use>
                        <path d="M-4,0h8" fill="none" stroke="white" stroke-width="1.5" pointer-events="none"/>
                </g>
                <g id="dirArrow">
                        <path fill="none" stroke="white" stroke-width="1.5" d="M0,-3.0v7 M-2.5,-0.5L0,-3.0L2.5,-0.5"/>
                </g>
               <g id="resetDef">
                       <use xlink:href="#rim2" fill="#404040">
                               <set attributeName="fill" to="#808080" begin="reset.mouseover" end="reset.mouseout"/>
                       </use>
               </g>
        </defs>

<script type="text/javascript">
var viewWidth = 1178;
var viewHeight = 389;
var sectionId = 'dynsection-16';
</script>
<script xlink:href="../../svgpan.js"/>
<svg id="graph" class="graph">
<g id="viewport">
<title>G</title>
<!-- Node1 -->
<g id="node1" class="node"><title>Node1</title>
<polygon fill="#bfbfbf" stroke="black" points="0.5,-285.5 0.5,-304.5 191.5,-304.5 191.5,-285.5 0.5,-285.5"/>
<text text-anchor="middle" x="96" y="-292.5" font-family="DejaVuSansMono" font-size="10.00">xmpp_server_disconnect_client</text>
</g>
<!-- Node2 -->
<g id="node3" class="node"><title>Node2</title>
<a xlink:href="../../dd/d4d/xmpp__client_8c.html#a5ff8a826aface187b00ffcdfb7ce125a" target="_top" xlink:title="Return the server this client is connected to.">
<polygon fill="none" stroke="black" points="822.5,-361.5 822.5,-380.5 947.5,-380.5 947.5,-361.5 822.5,-361.5"/>
<text text-anchor="middle" x="885" y="-368.5" font-family="DejaVuSansMono" font-size="10.00">xmpp_client_server</text>
</a>
</g>
<!-- Node1&#45;&gt;Node2 -->
<g id="edge2" class="edge"><title>Node1&#45;&gt;Node2</title>
<path fill="none" stroke="midnightblue" d="M125.879,-304.621C175.516,-320.642 280.507,-352.281 372,-365 527.621,-386.635 712.411,-381.256 811.913,-375.852"/>
<polygon fill="midnightblue" stroke="midnightblue" points="812.362,-379.332 822.151,-375.279 811.971,-372.343 812.362,-379.332"/>
</g>
<!-- Node3 -->
<g id="node5" class="node"><title>Node3</title>
<a xlink:href="../../dd/d4d/xmpp__client_8c.html#add2df61245a543667b6d98e3fcd57077" target="_top" xlink:title="xmpp_client_del">
<polygon fill="none" stroke="black" points="228.5,-190.5 228.5,-209.5 335.5,-209.5 335.5,-190.5 228.5,-190.5"/>
<text text-anchor="middle" x="282" y="-197.5" font-family="DejaVuSansMono" font-size="10.00">xmpp_client_del</text>
</a>
</g>
<!-- Node1&#45;&gt;Node3 -->
<g id="edge4" class="edge"><title>Node1&#45;&gt;Node3</title>
<path fill="none" stroke="midnightblue" d="M115.655,-285.368C148.251,-268.539 215.702,-233.713 253.608,-214.143"/>
<polygon fill="midnightblue" stroke="midnightblue" points="255.289,-217.214 262.569,-209.516 252.077,-210.994 255.289,-217.214"/>
</g>
<!-- Node4 -->
<g id="node7" class="node"><title>Node4</title>
<a xlink:href="../../d0/df0/xmpp__server_8c.html#af2e493f9f89b437fae7212b941c536cf" target="_top" xlink:title="Remove a callback from the list of routes for stanza delivery.">
<polygon fill="none" stroke="black" points="372.5,-304.5 372.5,-323.5 557.5,-323.5 557.5,-304.5 372.5,-304.5"/>
<text text-anchor="middle" x="465" y="-311.5" font-family="DejaVuSansMono" font-size="10.00">xmpp_server_del_stanza_route</text>
</a>
</g>
<!-- Node3&#45;&gt;Node4 -->
<g id="edge6" class="edge"><title>Node3&#45;&gt;Node4</title>
<path fill="none" stroke="midnightblue" d="M289.007,-209.64C301.717,-229.161 333.359,-273.344 372,-295 376.139,-297.32 380.526,-299.358 385.05,-301.148"/>
<polygon fill="midnightblue" stroke="midnightblue" points="383.901,-304.454 394.495,-304.485 386.233,-297.854 383.901,-304.454"/>
</g>
<!-- Node5 -->
<g id="node9" class="node"><title>Node5</title>
<a xlink:href="../../d6/d13/xmpp__core_8c.html#a3b41e83061abd7ed5b258c7aa7dda0d6" target="_top" xlink:title="An xmpp_server stanza route for stanzas directed to a local client.">
<polygon fill="none" stroke="black" points="390.5,-266.5 390.5,-285.5 539.5,-285.5 539.5,-266.5 390.5,-266.5"/>
<text text-anchor="middle" x="465" y="-273.5" font-family="DejaVuSansMono" font-size="10.00">xmpp_core_route_client</text>
</a>
</g>
<!-- Node3&#45;&gt;Node5 -->
<g id="edge8" class="edge"><title>Node3&#45;&gt;Node5</title>
<path fill="none" stroke="midnightblue" d="M294.879,-209.653C311.24,-222.448 342.09,-244.823 372,-257 378.394,-259.603 385.188,-261.865 392.076,-263.827"/>
<polygon fill="midnightblue" stroke="midnightblue" points="391.638,-267.331 402.199,-266.492 393.42,-260.561 391.638,-267.331"/>
</g>
<!-- Node17 -->
<g id="node35" class="node"><title>Node17</title>
<a xlink:href="../../d3/d5a/jid_8c.html#ab83fd5aae95de2c9d38fb9d9cd161580" target="_top" xlink:title="Cleans up and frees an existing JID.">
<polygon fill="none" stroke="black" points="435.5,-228.5 435.5,-247.5 494.5,-247.5 494.5,-228.5 435.5,-228.5"/>
<text text-anchor="middle" x="465" y="-235.5" font-family="DejaVuSansMono" font-size="10.00">jid_del</text>
</a>
</g>
<!-- Node3&#45;&gt;Node17 -->
<g id="edge36" class="edge"><title>Node3&#45;&gt;Node17</title>
<path fill="none" stroke="midnightblue" d="M327.352,-209.529C341.605,-212.575 357.465,-215.948 372,-219 389.58,-222.692 409.062,-226.724 425.556,-230.12"/>
<polygon fill="midnightblue" stroke="midnightblue" points="424.896,-233.557 435.396,-232.144 426.306,-226.701 424.896,-233.557"/>
</g>
<!-- Node18 -->
<g id="node37" class="node"><title>Node18</title>
<a xlink:href="../../d0/deb/event_8c.html#a9c3c87f32e90d8fa0245d154fac61da9" target="_top" xlink:title="Deregisters a callback for a particular file descriptor.">
<polygon fill="none" stroke="black" points="381.5,-190.5 381.5,-209.5 548.5,-209.5 548.5,-190.5 381.5,-190.5"/>
<text text-anchor="middle" x="465" y="-197.5" font-family="DejaVuSansMono" font-size="10.00">event_deregister_callback</text>
</a>
</g>
<!-- Node3&#45;&gt;Node18 -->
<g id="edge38" class="edge"><title>Node3&#45;&gt;Node18</title>
<path fill="none" stroke="midnightblue" d="M335.839,-200C347.007,-200 359.107,-200 371.26,-200"/>
<polygon fill="midnightblue" stroke="midnightblue" points="371.463,-203.5 381.463,-200 371.463,-196.5 371.463,-203.5"/>
</g>
<!-- Node19 -->
<g id="node39" class="node"><title>Node19</title>
<a xlink:href="../../d0/df0/xmpp__server_8c.html#ac84f99d96a630f056f36dc0aa9cac9dd" target="_top" xlink:title="Gets the event loop instance this server is using.">
<polygon fill="none" stroke="black" points="408.5,-152.5 408.5,-171.5 521.5,-171.5 521.5,-152.5 408.5,-152.5"/>
<text text-anchor="middle" x="465" y="-159.5" font-family="DejaVuSansMono" font-size="10.00">xmpp_server_loop</text>
</a>
</g>
<!-- Node3&#45;&gt;Node19 -->
<g id="edge40" class="edge"><title>Node3&#45;&gt;Node19</title>
<path fill="none" stroke="midnightblue" d="M327.352,-190.471C341.605,-187.425 357.465,-184.052 372,-181 383.481,-178.589 395.773,-176.033 407.514,-173.604"/>
<polygon fill="midnightblue" stroke="midnightblue" points="408.572,-176.959 417.657,-171.508 407.155,-170.104 408.572,-176.959"/>
</g>
<!-- Node20 -->
<g id="node41" class="node"><title>Node20</title>
<a xlink:href="../../d4/d8e/client__socket_8c.html#a66a8a7fa65db357c88039c8589c7aaa9" target="_top" xlink:title="client_socket_fd">
<polygon fill="none" stroke="black" points="408.5,-114.5 408.5,-133.5 521.5,-133.5 521.5,-114.5 408.5,-114.5"/>
<text text-anchor="middle" x="465" y="-121.5" font-family="DejaVuSansMono" font-size="10.00">client_socket_fd</text>
</a>
</g>
<!-- Node3&#45;&gt;Node20 -->
<g id="edge42" class="edge"><title>Node3&#45;&gt;Node20</title>
<path fill="none" stroke="midnightblue" d="M294.879,-190.347C311.24,-177.552 342.09,-155.177 372,-143 380.32,-139.613 389.318,-136.803 398.318,-134.48"/>
<polygon fill="midnightblue" stroke="midnightblue" points="399.144,-137.882 408.052,-132.146 397.512,-131.075 399.144,-137.882"/>
</g>
<!-- Node21 -->
<g id="node43" class="node"><title>Node21</title>
<a xlink:href="../../d4/d8e/client__socket_8c.html#abb4fb0de12fd5f701186d9b641ae0905" target="_top" xlink:title="Closes a client_socket.">
<polygon fill="none" stroke="black" points="399.5,-76.5 399.5,-95.5 530.5,-95.5 530.5,-76.5 399.5,-76.5"/>
<text text-anchor="middle" x="465" y="-83.5" font-family="DejaVuSansMono" font-size="10.00">client_socket_close</text>
</a>
</g>
<!-- Node3&#45;&gt;Node21 -->
<g id="edge44" class="edge"><title>Node3&#45;&gt;Node21</title>
<path fill="none" stroke="midnightblue" d="M289.007,-190.36C301.717,-170.839 333.359,-126.656 372,-105 377.509,-101.913 383.455,-99.3247 389.582,-97.1555"/>
<polygon fill="midnightblue" stroke="midnightblue" points="390.838,-100.429 399.32,-94.08 388.73,-93.7542 390.838,-100.429"/>
</g>
<!-- Node22 -->
<g id="node45" class="node"><title>Node22</title>
<a xlink:href="../../d4/d8e/client__socket_8c.html#a9983d6e2b69132508044b4c07bca147e" target="_top" xlink:title="Closes, cleans up and deallocates a client_socket structure.">
<polygon fill="none" stroke="black" points="405.5,-38.5 405.5,-57.5 524.5,-57.5 524.5,-38.5 405.5,-38.5"/>
<text text-anchor="middle" x="465" y="-45.5" font-family="DejaVuSansMono" font-size="10.00">client_socket_del</text>
</a>
</g>
<!-- Node3&#45;&gt;Node22 -->
<g id="edge46" class="edge"><title>Node3&#45;&gt;Node22</title>
<path fill="none" stroke="midnightblue" d="M286.425,-190.418C295.823,-165.603 324.518,-98.9546 372,-67 379.099,-62.2223 387.153,-58.6049 395.472,-55.8729"/>
<polygon fill="midnightblue" stroke="midnightblue" points="396.667,-59.1716 405.318,-53.056 394.741,-52.4416 396.667,-59.1716"/>
</g>
<!-- Node23 -->
<g id="node47" class="node"><title>Node23</title>
<a xlink:href="../../d1/dc2/xmpp__parser_8c.html#a2620ca01bcf1a68025ec51681c6416f2" target="_top" xlink:title="xmpp_parser_del">
<polygon fill="none" stroke="black" points="411.5,-0.5 411.5,-19.5 518.5,-19.5 518.5,-0.5 411.5,-0.5"/>
<text text-anchor="middle" x="465" y="-7.5" font-family="DejaVuSansMono" font-size="10.00">xmpp_parser_del</text>
</a>
</g>
<!-- Node3&#45;&gt;Node23 -->
<g id="edge48" class="edge"><title>Node3&#45;&gt;Node23</title>
<path fill="none" stroke="midnightblue" d="M284.968,-190.374C291.508,-160.978 315.4,-71.7854 372,-29 380.666,-22.4491 391.051,-18.0208 401.673,-15.0542"/>
<polygon fill="midnightblue" stroke="midnightblue" points="402.538,-18.4463 411.453,-12.7217 400.914,-11.6373 402.538,-18.4463"/>
</g>
<!-- Node6 -->
<g id="node11" class="node"><title>Node6</title>
<a xlink:href="../../d3/d5a/jid_8c.html#a3d51f2b27d20189e523b0d0b2a77e4a9" target="_top" xlink:title="Converts a JID to a newly allocated string.">
<polygon fill="none" stroke="black" points="651.5,-266.5 651.5,-285.5 728.5,-285.5 728.5,-266.5 651.5,-266.5"/>
<text text-anchor="middle" x="690" y="-273.5" font-family="DejaVuSansMono" font-size="10.00">jid_to_str</text>
</a>
</g>
<!-- Node5&#45;&gt;Node6 -->
<g id="edge10" class="edge"><title>Node5&#45;&gt;Node6</title>
<path fill="none" stroke="midnightblue" d="M539.637,-276C573.115,-276 611.76,-276 641.354,-276"/>
<polygon fill="midnightblue" stroke="midnightblue" points="641.42,-279.5 651.42,-276 641.42,-272.5 641.42,-279.5"/>
</g>
<!-- Node7 -->
<g id="node13" class="node"><title>Node7</title>
<a xlink:href="../../dd/d4d/xmpp__client_8c.html#af963b026952bdbc45a4df0fa3d69b641" target="_top" xlink:title="Return the JID for this client.">
<polygon fill="none" stroke="black" points="636.5,-228.5 636.5,-247.5 743.5,-247.5 743.5,-228.5 636.5,-228.5"/>
<text text-anchor="middle" x="690" y="-235.5" font-family="DejaVuSansMono" font-size="10.00">xmpp_client_jid</text>
</a>
</g>
<!-- Node5&#45;&gt;Node7 -->
<g id="edge12" class="edge"><title>Node5&#45;&gt;Node7</title>
<path fill="none" stroke="midnightblue" d="M521.984,-266.46C553.787,-261.041 593.68,-254.243 626.501,-248.65"/>
<polygon fill="midnightblue" stroke="midnightblue" points="627.173,-252.086 636.443,-246.956 625.997,-245.185 627.173,-252.086"/>
</g>
<!-- Node8 -->
<g id="node15" class="node"><title>Node8</title>
<a xlink:href="../../d1/d59/xmpp__stanza_8c.html#a513b6e2da3dce364271ba9315d7b3d95" target="_top" xlink:title="Returns the stanza (and its children) packed into a null&#45;terminated string.">
<polygon fill="none" stroke="black" points="627.5,-190.5 627.5,-209.5 752.5,-209.5 752.5,-190.5 627.5,-190.5"/>
<text text-anchor="middle" x="690" y="-197.5" font-family="DejaVuSansMono" font-size="10.00">xmpp_stanza_string</text>
</a>
</g>
<!-- Node5&#45;&gt;Node8 -->
<g id="edge14" class="edge"><title>Node5&#45;&gt;Node8</title>
<path fill="none" stroke="midnightblue" d="M535.483,-266.447C543.338,-263.983 551.018,-260.888 558,-257 578.326,-245.683 573.639,-230.254 594,-219 601.354,-214.936 609.454,-211.734 617.731,-209.213"/>
<polygon fill="midnightblue" stroke="midnightblue" points="618.764,-212.56 627.494,-206.556 616.925,-205.805 618.764,-212.56"/>
</g>
<!-- Node13 -->
<g id="node25" class="node"><title>Node13</title>
<a xlink:href="../../d4/d8e/client__socket_8c.html#a7cf0a0cfe0cf2bdccee28f6eab9aa632" target="_top" xlink:title="Send all data in a buffer to the connected socket.">
<polygon fill="none" stroke="black" points="618.5,-152.5 618.5,-171.5 761.5,-171.5 761.5,-152.5 618.5,-152.5"/>
<text text-anchor="middle" x="690" y="-159.5" font-family="DejaVuSansMono" font-size="10.00">client_socket_sendall</text>
</a>
</g>
<!-- Node5&#45;&gt;Node13 -->
<g id="edge24" class="edge"><title>Node5&#45;&gt;Node13</title>
<path fill="none" stroke="midnightblue" d="M539.633,-267.427C546.228,-264.747 552.486,-261.333 558,-257 587.388,-233.906 564.54,-204.001 594,-181 598.474,-177.507 603.42,-174.604 608.635,-172.197"/>
<polygon fill="midnightblue" stroke="midnightblue" points="610.262,-175.317 618.27,-168.38 607.684,-168.81 610.262,-175.317"/>
</g>
<!-- Node15 -->
<g id="node29" class="node"><title>Node15</title>
<a xlink:href="../../dd/d4d/xmpp__client_8c.html#a07c89140b5b826454868ac9395e2efd7" target="_top" xlink:title="Return the socket used to communicate with this client.">
<polygon fill="none" stroke="black" points="627.5,-304.5 627.5,-323.5 752.5,-323.5 752.5,-304.5 627.5,-304.5"/>
<text text-anchor="middle" x="690" y="-311.5" font-family="DejaVuSansMono" font-size="10.00">xmpp_client_socket</text>
</a>
</g>
<!-- Node5&#45;&gt;Node15 -->
<g id="edge28" class="edge"><title>Node5&#45;&gt;Node15</title>
<path fill="none" stroke="midnightblue" d="M521.984,-285.54C552.602,-290.757 590.719,-297.253 622.804,-302.72"/>
<polygon fill="midnightblue" stroke="midnightblue" points="622.547,-306.226 632.992,-304.456 623.723,-299.326 622.547,-306.226"/>
</g>
<!-- Node16 -->
<g id="node31" class="node"><title>Node16</title>
<a xlink:href="../../d0/df0/xmpp__server_8c.html#a79e02871228c509de0c70961d74a1bcb" target="_top" xlink:title="Attempt to cleanly disconnect a client, and clean up its resources.">
<polygon fill="none" stroke="black" points="594.5,-342.5 594.5,-361.5 785.5,-361.5 785.5,-342.5 594.5,-342.5"/>
<text text-anchor="middle" x="690" y="-349.5" font-family="DejaVuSansMono" font-size="10.00">xmpp_server_disconnect_client</text>
</a>
</g>
<!-- Node5&#45;&gt;Node16 -->
<g id="edge30" class="edge"><title>Node5&#45;&gt;Node16</title>
<path fill="none" stroke="midnightblue" d="M535.483,-285.553C543.338,-288.017 551.018,-291.112 558,-295 578.326,-306.317 573.639,-321.746 594,-333 598.195,-335.319 602.634,-337.357 607.21,-339.148"/>
<polygon fill="midnightblue" stroke="midnightblue" points="606.166,-342.491 616.761,-342.488 608.477,-335.883 606.166,-342.491"/>
</g>
<!-- Node9 -->
<g id="node17" class="node"><title>Node9</title>
<a xlink:href="../../d1/d59/xmpp__stanza_8c.html#aae8c30c30fcbc2325d34897f8035ca46" target="_top" xlink:title="Function that gets called recursively to convert a stanza to a string.">
<polygon fill="none" stroke="black" points="840.5,-190.5 840.5,-209.5 929.5,-209.5 929.5,-190.5 840.5,-190.5"/>
<text text-anchor="middle" x="885" y="-197.5" font-family="DejaVuSansMono" font-size="10.00">stanza_tostr</text>
</a>
</g>
<!-- Node8&#45;&gt;Node9 -->
<g id="edge16" class="edge"><title>Node8&#45;&gt;Node9</title>
<path fill="none" stroke="midnightblue" d="M752.597,-200C777.598,-200 806.211,-200 830.34,-200"/>
<polygon fill="midnightblue" stroke="midnightblue" points="830.383,-203.5 840.383,-200 830.383,-196.5 830.383,-203.5"/>
</g>
<!-- Node10 -->
<g id="node19" class="node"><title>Node10</title>
<a xlink:href="../../d1/dc2/xmpp__parser_8c.html#acce8bfe5926da4e64c3b5038dc683618" target="_top" xlink:title="xmpp_parser_namespace_prefix">
<polygon fill="none" stroke="black" points="984.5,-228.5 984.5,-247.5 1169.5,-247.5 1169.5,-228.5 984.5,-228.5"/>
<text text-anchor="middle" x="1077" y="-235.5" font-family="DejaVuSansMono" font-size="10.00">xmpp_parser_namespace_prefix</text>
</a>
</g>
<!-- Node9&#45;&gt;Node10 -->
<g id="edge18" class="edge"><title>Node9&#45;&gt;Node10</title>
<path fill="none" stroke="midnightblue" d="M929.59,-208.718C955.953,-213.991 989.875,-220.775 1018.43,-226.486"/>
<polygon fill="midnightblue" stroke="midnightblue" points="1017.79,-229.927 1028.28,-228.456 1019.16,-223.063 1017.79,-229.927"/>
</g>
<!-- Node11 -->
<g id="node21" class="node"><title>Node11</title>
<a xlink:href="../../d1/dc2/xmpp__parser_8c.html#afde3cf0e74a12bfe4ac90fa8dbae51a0" target="_top" xlink:title="xmpp_parser_namespace_uri">
<polygon fill="none" stroke="black" points="993.5,-190.5 993.5,-209.5 1160.5,-209.5 1160.5,-190.5 993.5,-190.5"/>
<text text-anchor="middle" x="1077" y="-197.5" font-family="DejaVuSansMono" font-size="10.00">xmpp_parser_namespace_uri</text>
</a>
</g>
<!-- Node9&#45;&gt;Node11 -->
<g id="edge20" class="edge"><title>Node9&#45;&gt;Node11</title>
<path fill="none" stroke="midnightblue" d="M929.59,-200C945.656,-200 964.53,-200 983.285,-200"/>
<polygon fill="midnightblue" stroke="midnightblue" points="983.368,-203.5 993.368,-200 983.368,-196.5 983.368,-203.5"/>
</g>
<!-- Node12 -->
<g id="node23" class="node"><title>Node12</title>
<a xlink:href="../../d1/dc2/xmpp__parser_8c.html#af924e15caac53b347a48878fcb046bc4" target="_top" xlink:title="Return the next namespace in the namespace list.">
<polygon fill="none" stroke="black" points="990.5,-152.5 990.5,-171.5 1163.5,-171.5 1163.5,-152.5 990.5,-152.5"/>
<text text-anchor="middle" x="1077" y="-159.5" font-family="DejaVuSansMono" font-size="10.00">xmpp_parser_namespace_next</text>
</a>
</g>
<!-- Node9&#45;&gt;Node12 -->
<g id="edge22" class="edge"><title>Node9&#45;&gt;Node12</title>
<path fill="none" stroke="midnightblue" d="M929.59,-191.282C955.953,-186.009 989.875,-179.225 1018.43,-173.514"/>
<polygon fill="midnightblue" stroke="midnightblue" points="1019.16,-176.937 1028.28,-171.544 1017.79,-170.073 1019.16,-176.937"/>
</g>
<!-- Node14 -->
<g id="node27" class="node"><title>Node14</title>
<a xlink:href="../../d4/d8e/client__socket_8c.html#a164381b69f823fab1b8bce59ca03aefe" target="_top" xlink:title="Send some data to a client_socket.">
<polygon fill="none" stroke="black" points="822.5,-152.5 822.5,-171.5 947.5,-171.5 947.5,-152.5 822.5,-152.5"/>
<text text-anchor="middle" x="885" y="-159.5" font-family="DejaVuSansMono" font-size="10.00">client_socket_send</text>
</a>
</g>
<!-- Node13&#45;&gt;Node14 -->
<g id="edge26" class="edge"><title>Node13&#45;&gt;Node14</title>
<path fill="none" stroke="midnightblue" d="M761.77,-162C778.252,-162 795.814,-162 812.335,-162"/>
<polygon fill="midnightblue" stroke="midnightblue" points="812.467,-165.5 822.467,-162 812.467,-158.5 812.467,-165.5"/>
</g>
<!-- Node16&#45;&gt;Node2 -->
<g id="edge32" class="edge"><title>Node16&#45;&gt;Node2</title>
<path fill="none" stroke="midnightblue" d="M785.521,-361.305C794.514,-362.19 803.53,-363.078 812.256,-363.937"/>
<polygon fill="midnightblue" stroke="midnightblue" points="812.053,-367.434 822.347,-364.931 812.738,-360.468 812.053,-367.434"/>
</g>
<!-- Node16&#45;&gt;Node3 -->
<g id="edge34" class="edge"><title>Node16&#45;&gt;Node3</title>
<path fill="none" stroke="midnightblue" d="M641.533,-361.508C576.13,-372.007 456.784,-381.596 372,-333 327.366,-307.417 300.738,-249.26 289.419,-219.036"/>
<polygon fill="midnightblue" stroke="midnightblue" points="292.711,-217.848 286.05,-209.609 286.12,-220.204 292.711,-217.848"/>
</g>
</g>
</svg>
        <g id="navigator" transform="translate(0 0)" fill="#404254">
                <rect fill="#f2f5e9" fill-opacity="0.5" stroke="#606060" stroke-width=".5" x="0" y="0" width="60" height="60"/>
                <use id="zoomplus" xlink:href="#zoomPlus" x="17" y="9" onmousedown="handleZoom(evt,'in')"/>
                <use id="zoomminus" xlink:href="#zoomMin" x="42" y="9" onmousedown="handleZoom(evt,'out')"/>
                <use id="reset" xlink:href="#resetDef" x="30" y="36" onmousedown="handleReset()"/>
                <g id="arrowUp" xlink:href="#dirArrow" transform="translate(30 24)" onmousedown="handlePan(0,-1)">
                  <use xlink:href="#rim" fill="#404040">
                        <set attributeName="fill" to="#808080" begin="arrowUp.mouseover" end="arrowUp.mouseout"/>
                  </use>
                  <path fill="none" stroke="white" stroke-width="1.5" d="M0,-3.0v7 M-2.5,-0.5L0,-3.0L2.5,-0.5"/>
                </g>
                <g id="arrowRight" xlink:href="#dirArrow" transform="rotate(90) translate(36 -43)" onmousedown="handlePan(1,0)">
                  <use xlink:href="#rim" fill="#404040">
                        <set attributeName="fill" to="#808080" begin="arrowRight.mouseover" end="arrowRight.mouseout"/>
                  </use>
                  <path fill="none" stroke="white" stroke-width="1.5" d="M0,-3.0v7 M-2.5,-0.5L0,-3.0L2.5,-0.5"/>
                </g>
                <g id="arrowDown" xlink:href="#dirArrow" transform="rotate(180) translate(-30 -48)" onmousedown="handlePan(0,1)">
                  <use xlink:href="#rim" fill="#404040">
                        <set attributeName="fill" to="#808080" begin="arrowDown.mouseover" end="arrowDown.mouseout"/>
                  </use>
                  <path fill="none" stroke="white" stroke-width="1.5" d="M0,-3.0v7 M-2.5,-0.5L0,-3.0L2.5,-0.5"/>
                </g>
                <g id="arrowLeft" xlink:href="#dirArrow" transform="rotate(270) translate(-36 17)" onmousedown="handlePan(-1,0)">
                  <use xlink:href="#rim" fill="#404040">
                        <set attributeName="fill" to="#808080" begin="arrowLeft.mouseover" end="arrowLeft.mouseout"/>
                  </use>
                  <path fill="none" stroke="white" stroke-width="1.5" d="M0,-3.0v7 M-2.5,-0.5L0,-3.0L2.5,-0.5"/>
                </g>
        </g>
        <svg viewBox="0 0 25 25" width="100%" height="30px" preserveAspectRatio="xMaxYMin meet"> 
          <g id="printButton" transform="scale(0.4 0.4)" onmousedown="handlePrint(evt)">
            <rect height="23.33753581" id="paper" rx="2" style="fill:#f2f5e9;fill-rule:evenodd;stroke:#111111;stroke-width:3.224;stroke-linejoin:round;" transform="matrix(1.000000,0.000000,-0.339266,0.940691,0.000000,0.000000)" width="25.55231285" x="26.69387353" y="7.36162977"/>
            <rect height="26.272097" id="body" rx="2" style="fill:#404040;fill-rule:evenodd;stroke:#111111;stroke-width:3.125;stroke-linejoin:round;" width="50" x="4.5295201" y="27.078951"/>
            <rect height="8.27750969" id="tray" style="fill:#d2d5c9;fill-rule:evenodd;stroke:#111111;stroke-width:3.125;stroke-linecap:round;stroke-linejoin:round;" width="40" x="10.28778839" y="44.96812282"/>
          </g>
        </svg>
</svg>
