<?xml version="1.0" encoding="UTF-8" standalone="no"?>
<!DOCTYPE svg PUBLIC "-//W3C//DTD SVG 1.1//EN"
 "http://www.w3.org/Graphics/SVG/1.1/DTD/svg11.dtd">
<!-- Generated by graphviz version 2.28.0 (20120217.0315)
 -->
<!-- Title: G Pages: 1 -->
<!--zoomable 364 -->
<svg id="main" version="1.1" xmlns="http://www.w3.org/2000/svg" xmlns:xlink="http://www.w3.org/1999/xlink" xml:space="preserve" onload="init(evt)">
        <defs>
                <circle id="rim" cx="0" cy="0" r="7"/>
                <circle id="rim2" cx="0" cy="0" r="3.5"/>
                <g id="zoomPlus">
                        <use xlink:href="#rim" fill="#404040">
                                <set attributeName="fill" to="#808080" begin="zoomplus.mouseover" end="zoomplus.mouseout"/>
                        </use>
                        <path d="M-4,0h8M0,-4v8" fill="none" stroke="white" stroke-width="1.5" pointer-events="none"/>
                </g>
                <g id="zoomMin">
                        <use xlink:href="#rim" fill="#404040">
                                <set attributeName="fill" to="#808080" begin="zoomminus.mouseover" end="zoomminus.mouseout"/>
                        </use>
                        <path d="M-4,0h8" fill="none" stroke="white" stroke-width="1.5" pointer-events="none"/>
                </g>
                <g id="dirArrow">
                        <path fill="none" stroke="white" stroke-width="1.5" d="M0,-3.0v7 M-2.5,-0.5L0,-3.0L2.5,-0.5"/>
                </g>
               <g id="resetDef">
                       <use xlink:href="#rim2" fill="#404040">
                               <set attributeName="fill" to="#808080" begin="reset.mouseover" end="reset.mouseout"/>
                       </use>
               </g>
        </defs>

<script type="text/javascript">
var viewWidth = 1094;
var viewHeight = 364;
var sectionId = 'dynsection-11';
</script>
<script xlink:href="../../svgpan.js"/>
<svg id="graph" class="graph">
<g id="viewport">
<title>G</title>
<!-- Node1 -->
<g id="node1" class="node"><title>Node1</title>
<polygon fill="#bfbfbf" stroke="black" points="0.5,-231.543 0.5,-250.543 107.5,-250.543 107.5,-231.543 0.5,-231.543"/>
<text text-anchor="middle" x="54" y="-238.543" font-family="DejaVuSansMono" font-size="10.00">xmpp_server_del</text>
</g>
<!-- Node2 -->
<g id="node3" class="node"><title>Node2</title>
<a xlink:href="../../dd/d4d/xmpp__client_8c.html#add2df61245a543667b6d98e3fcd57077" target="_top" xlink:title="xmpp_client_del">
<polygon fill="none" stroke="black" points="144.5,-184.543 144.5,-203.543 251.5,-203.543 251.5,-184.543 144.5,-184.543"/>
<text text-anchor="middle" x="198" y="-191.543" font-family="DejaVuSansMono" font-size="10.00">xmpp_client_del</text>
</a>
</g>
<!-- Node1&#45;&gt;Node2 -->
<g id="edge2" class="edge"><title>Node1&#45;&gt;Node2</title>
<path fill="none" stroke="midnightblue" d="M83.7358,-231.532C105.151,-224.444 134.631,-214.687 158.147,-206.903"/>
<polygon fill="midnightblue" stroke="midnightblue" points="159.426,-210.167 167.82,-203.702 157.226,-203.521 159.426,-210.167"/>
</g>
<!-- Node17 -->
<g id="node34" class="node"><title>Node17</title>
<a xlink:href="../../d3/d5a/jid_8c.html#ab83fd5aae95de2c9d38fb9d9cd161580" target="_top" xlink:title="Cleans up and frees an existing JID.">
<polygon fill="none" stroke="black" points="351.5,-336.543 351.5,-355.543 410.5,-355.543 410.5,-336.543 351.5,-336.543"/>
<text text-anchor="middle" x="381" y="-343.543" font-family="DejaVuSansMono" font-size="10.00">jid_del</text>
</a>
</g>
<!-- Node1&#45;&gt;Node17 -->
<g id="edge48" class="edge"><title>Node1&#45;&gt;Node17</title>
<path fill="none" stroke="midnightblue" d="M77.4442,-250.615C118.565,-267.861 209.026,-304.452 288,-327.043 305.27,-331.984 324.71,-336.19 341.255,-339.379"/>
<polygon fill="midnightblue" stroke="midnightblue" points="340.663,-342.829 351.137,-341.231 341.953,-335.949 340.663,-342.829"/>
</g>
<!-- Node3 -->
<g id="node5" class="node"><title>Node3</title>
<a xlink:href="../../d0/df0/xmpp__server_8c.html#af2e493f9f89b437fae7212b941c536cf" target="_top" xlink:title="Remove a callback from the list of routes for stanza delivery.">
<polygon fill="none" stroke="black" points="288.5,-298.543 288.5,-317.543 473.5,-317.543 473.5,-298.543 288.5,-298.543"/>
<text text-anchor="middle" x="381" y="-305.543" font-family="DejaVuSansMono" font-size="10.00">xmpp_server_del_stanza_route</text>
</a>
</g>
<!-- Node2&#45;&gt;Node3 -->
<g id="edge4" class="edge"><title>Node2&#45;&gt;Node3</title>
<path fill="none" stroke="midnightblue" d="M205.007,-203.684C217.717,-223.205 249.359,-267.387 288,-289.043 292.139,-291.363 296.526,-293.401 301.05,-295.191"/>
<polygon fill="midnightblue" stroke="midnightblue" points="299.901,-298.497 310.495,-298.529 302.233,-291.897 299.901,-298.497"/>
</g>
<!-- Node4 -->
<g id="node7" class="node"><title>Node4</title>
<a xlink:href="../../d6/d13/xmpp__core_8c.html#a3b41e83061abd7ed5b258c7aa7dda0d6" target="_top" xlink:title="An xmpp_server stanza route for stanzas directed to a local client.">
<polygon fill="none" stroke="black" points="306.5,-260.543 306.5,-279.543 455.5,-279.543 455.5,-260.543 306.5,-260.543"/>
<text text-anchor="middle" x="381" y="-267.543" font-family="DejaVuSansMono" font-size="10.00">xmpp_core_route_client</text>
</a>
</g>
<!-- Node2&#45;&gt;Node4 -->
<g id="edge6" class="edge"><title>Node2&#45;&gt;Node4</title>
<path fill="none" stroke="midnightblue" d="M210.879,-203.696C227.24,-216.491 258.09,-238.866 288,-251.043 294.394,-253.646 301.188,-255.908 308.076,-257.87"/>
<polygon fill="midnightblue" stroke="midnightblue" points="307.638,-261.374 318.199,-260.535 309.42,-254.605 307.638,-261.374"/>
</g>
<!-- Node2&#45;&gt;Node17 -->
<g id="edge34" class="edge"><title>Node2&#45;&gt;Node17</title>
<path fill="none" stroke="midnightblue" d="M205.43,-203.865C225.357,-234.277 284.932,-324.978 288,-327.043 303.463,-337.45 323.454,-342.351 340.849,-344.589"/>
<polygon fill="midnightblue" stroke="midnightblue" points="340.975,-348.121 351.281,-345.664 341.692,-341.157 340.975,-348.121"/>
</g>
<!-- Node18 -->
<g id="node36" class="node"><title>Node18</title>
<a xlink:href="../../d0/deb/event_8c.html#a9c3c87f32e90d8fa0245d154fac61da9" target="_top" xlink:title="Deregisters a callback for a particular file descriptor.">
<polygon fill="none" stroke="black" points="297.5,-222.543 297.5,-241.543 464.5,-241.543 464.5,-222.543 297.5,-222.543"/>
<text text-anchor="middle" x="381" y="-229.543" font-family="DejaVuSansMono" font-size="10.00">event_deregister_callback</text>
</a>
</g>
<!-- Node2&#45;&gt;Node18 -->
<g id="edge36" class="edge"><title>Node2&#45;&gt;Node18</title>
<path fill="none" stroke="midnightblue" d="M243.352,-203.573C257.605,-206.619 273.465,-209.991 288,-213.043 299.481,-215.454 311.773,-218.01 323.514,-220.44"/>
<polygon fill="midnightblue" stroke="midnightblue" points="323.155,-223.939 333.657,-222.535 324.572,-217.084 323.155,-223.939"/>
</g>
<!-- Node19 -->
<g id="node38" class="node"><title>Node19</title>
<a xlink:href="../../d0/df0/xmpp__server_8c.html#ac84f99d96a630f056f36dc0aa9cac9dd" target="_top" xlink:title="Gets the event loop instance this server is using.">
<polygon fill="none" stroke="black" points="324.5,-184.543 324.5,-203.543 437.5,-203.543 437.5,-184.543 324.5,-184.543"/>
<text text-anchor="middle" x="381" y="-191.543" font-family="DejaVuSansMono" font-size="10.00">xmpp_server_loop</text>
</a>
</g>
<!-- Node2&#45;&gt;Node19 -->
<g id="edge38" class="edge"><title>Node2&#45;&gt;Node19</title>
<path fill="none" stroke="midnightblue" d="M251.839,-194.043C271.299,-194.043 293.586,-194.043 314.059,-194.043"/>
<polygon fill="midnightblue" stroke="midnightblue" points="314.258,-197.543 324.258,-194.043 314.258,-190.543 314.258,-197.543"/>
</g>
<!-- Node20 -->
<g id="node40" class="node"><title>Node20</title>
<a xlink:href="../../d4/d8e/client__socket_8c.html#a66a8a7fa65db357c88039c8589c7aaa9" target="_top" xlink:title="client_socket_fd">
<polygon fill="none" stroke="black" points="324.5,-146.543 324.5,-165.543 437.5,-165.543 437.5,-146.543 324.5,-146.543"/>
<text text-anchor="middle" x="381" y="-153.543" font-family="DejaVuSansMono" font-size="10.00">client_socket_fd</text>
</a>
</g>
<!-- Node2&#45;&gt;Node20 -->
<g id="edge40" class="edge"><title>Node2&#45;&gt;Node20</title>
<path fill="none" stroke="midnightblue" d="M243.352,-184.514C257.605,-181.468 273.465,-178.096 288,-175.043 299.481,-172.632 311.773,-170.076 323.514,-167.647"/>
<polygon fill="midnightblue" stroke="midnightblue" points="324.572,-171.002 333.657,-165.551 323.155,-164.147 324.572,-171.002"/>
</g>
<!-- Node21 -->
<g id="node42" class="node"><title>Node21</title>
<a xlink:href="../../d4/d8e/client__socket_8c.html#abb4fb0de12fd5f701186d9b641ae0905" target="_top" xlink:title="Closes a client_socket.">
<polygon fill="none" stroke="black" points="315.5,-108.543 315.5,-127.543 446.5,-127.543 446.5,-108.543 315.5,-108.543"/>
<text text-anchor="middle" x="381" y="-115.543" font-family="DejaVuSansMono" font-size="10.00">client_socket_close</text>
</a>
</g>
<!-- Node2&#45;&gt;Node21 -->
<g id="edge42" class="edge"><title>Node2&#45;&gt;Node21</title>
<path fill="none" stroke="midnightblue" d="M210.879,-184.391C227.24,-171.596 258.09,-149.221 288,-137.043 294.394,-134.44 301.188,-132.178 308.076,-130.216"/>
<polygon fill="midnightblue" stroke="midnightblue" points="309.42,-133.482 318.199,-127.551 307.638,-126.713 309.42,-133.482"/>
</g>
<!-- Node22 -->
<g id="node44" class="node"><title>Node22</title>
<a xlink:href="../../d4/d8e/client__socket_8c.html#a9983d6e2b69132508044b4c07bca147e" target="_top" xlink:title="Closes, cleans up and deallocates a client_socket structure.">
<polygon fill="none" stroke="black" points="321.5,-70.5433 321.5,-89.5433 440.5,-89.5433 440.5,-70.5433 321.5,-70.5433"/>
<text text-anchor="middle" x="381" y="-77.5433" font-family="DejaVuSansMono" font-size="10.00">client_socket_del</text>
</a>
</g>
<!-- Node2&#45;&gt;Node22 -->
<g id="edge44" class="edge"><title>Node2&#45;&gt;Node22</title>
<path fill="none" stroke="midnightblue" d="M205.007,-184.403C217.717,-164.882 249.359,-120.7 288,-99.0433 295.26,-94.9743 303.282,-91.7725 311.473,-89.2539"/>
<polygon fill="midnightblue" stroke="midnightblue" points="312.415,-92.6248 321.13,-86.6001 310.56,-85.875 312.415,-92.6248"/>
</g>
<!-- Node23 -->
<g id="node46" class="node"><title>Node23</title>
<a xlink:href="../../d1/dc2/xmpp__parser_8c.html#a2620ca01bcf1a68025ec51681c6416f2" target="_top" xlink:title="xmpp_parser_del">
<polygon fill="none" stroke="black" points="327.5,-32.5433 327.5,-51.5433 434.5,-51.5433 434.5,-32.5433 327.5,-32.5433"/>
<text text-anchor="middle" x="381" y="-39.5433" font-family="DejaVuSansMono" font-size="10.00">xmpp_parser_del</text>
</a>
</g>
<!-- Node2&#45;&gt;Node23 -->
<g id="edge46" class="edge"><title>Node2&#45;&gt;Node23</title>
<path fill="none" stroke="midnightblue" d="M202.425,-184.461C211.823,-159.646 240.518,-92.9979 288,-61.0433 296.716,-55.1779 306.87,-51.0613 317.187,-48.1847"/>
<polygon fill="midnightblue" stroke="midnightblue" points="318.19,-51.5431 327.087,-45.7901 316.544,-44.7393 318.19,-51.5431"/>
</g>
<!-- Node5 -->
<g id="node9" class="node"><title>Node5</title>
<a xlink:href="../../d3/d5a/jid_8c.html#a3d51f2b27d20189e523b0d0b2a77e4a9" target="_top" xlink:title="Converts a JID to a newly allocated string.">
<polygon fill="none" stroke="black" points="567.5,-336.543 567.5,-355.543 644.5,-355.543 644.5,-336.543 567.5,-336.543"/>
<text text-anchor="middle" x="606" y="-343.543" font-family="DejaVuSansMono" font-size="10.00">jid_to_str</text>
</a>
</g>
<!-- Node4&#45;&gt;Node5 -->
<g id="edge8" class="edge"><title>Node4&#45;&gt;Node5</title>
<path fill="none" stroke="midnightblue" d="M451.483,-279.596C459.338,-282.06 467.018,-285.156 474,-289.043 494.326,-300.361 489.639,-315.79 510,-327.043 524.249,-334.919 541.305,-339.555 557.008,-342.276"/>
<polygon fill="midnightblue" stroke="midnightblue" points="556.677,-345.765 567.088,-343.802 557.725,-338.844 556.677,-345.765"/>
</g>
<!-- Node6 -->
<g id="node11" class="node"><title>Node6</title>
<a xlink:href="../../dd/d4d/xmpp__client_8c.html#af963b026952bdbc45a4df0fa3d69b641" target="_top" xlink:title="Return the JID for this client.">
<polygon fill="none" stroke="black" points="552.5,-298.543 552.5,-317.543 659.5,-317.543 659.5,-298.543 552.5,-298.543"/>
<text text-anchor="middle" x="606" y="-305.543" font-family="DejaVuSansMono" font-size="10.00">xmpp_client_jid</text>
</a>
</g>
<!-- Node4&#45;&gt;Node6 -->
<g id="edge10" class="edge"><title>Node4&#45;&gt;Node6</title>
<path fill="none" stroke="midnightblue" d="M437.984,-279.583C469.787,-285.003 509.68,-291.8 542.501,-297.393"/>
<polygon fill="midnightblue" stroke="midnightblue" points="541.997,-300.858 552.443,-299.087 543.173,-293.957 541.997,-300.858"/>
</g>
<!-- Node7 -->
<g id="node13" class="node"><title>Node7</title>
<a xlink:href="../../d1/d59/xmpp__stanza_8c.html#a513b6e2da3dce364271ba9315d7b3d95" target="_top" xlink:title="Returns the stanza (and its children) packed into a null&#45;terminated string.">
<polygon fill="none" stroke="black" points="543.5,-260.543 543.5,-279.543 668.5,-279.543 668.5,-260.543 543.5,-260.543"/>
<text text-anchor="middle" x="606" y="-267.543" font-family="DejaVuSansMono" font-size="10.00">xmpp_stanza_string</text>
</a>
</g>
<!-- Node4&#45;&gt;Node7 -->
<g id="edge12" class="edge"><title>Node4&#45;&gt;Node7</title>
<path fill="none" stroke="midnightblue" d="M455.637,-270.043C480.613,-270.043 508.466,-270.043 533.29,-270.043"/>
<polygon fill="midnightblue" stroke="midnightblue" points="533.363,-273.543 543.363,-270.043 533.363,-266.543 533.363,-273.543"/>
</g>
<!-- Node12 -->
<g id="node23" class="node"><title>Node12</title>
<a xlink:href="../../d4/d8e/client__socket_8c.html#a7cf0a0cfe0cf2bdccee28f6eab9aa632" target="_top" xlink:title="Send all data in a buffer to the connected socket.">
<polygon fill="none" stroke="black" points="534.5,-222.543 534.5,-241.543 677.5,-241.543 677.5,-222.543 534.5,-222.543"/>
<text text-anchor="middle" x="606" y="-229.543" font-family="DejaVuSansMono" font-size="10.00">client_socket_sendall</text>
</a>
</g>
<!-- Node4&#45;&gt;Node12 -->
<g id="edge22" class="edge"><title>Node4&#45;&gt;Node12</title>
<path fill="none" stroke="midnightblue" d="M437.984,-260.503C468.602,-255.286 506.719,-248.791 538.804,-243.323"/>
<polygon fill="midnightblue" stroke="midnightblue" points="539.723,-246.717 548.992,-241.587 538.547,-239.817 539.723,-246.717"/>
</g>
<!-- Node14 -->
<g id="node27" class="node"><title>Node14</title>
<a xlink:href="../../dd/d4d/xmpp__client_8c.html#a07c89140b5b826454868ac9395e2efd7" target="_top" xlink:title="Return the socket used to communicate with this client.">
<polygon fill="none" stroke="black" points="543.5,-184.543 543.5,-203.543 668.5,-203.543 668.5,-184.543 543.5,-184.543"/>
<text text-anchor="middle" x="606" y="-191.543" font-family="DejaVuSansMono" font-size="10.00">xmpp_client_socket</text>
</a>
</g>
<!-- Node4&#45;&gt;Node14 -->
<g id="edge26" class="edge"><title>Node4&#45;&gt;Node14</title>
<path fill="none" stroke="midnightblue" d="M451.483,-260.491C459.338,-258.026 467.018,-254.931 474,-251.043 494.326,-239.726 489.639,-224.297 510,-213.043 517.354,-208.979 525.454,-205.778 533.731,-203.257"/>
<polygon fill="midnightblue" stroke="midnightblue" points="534.764,-206.603 543.494,-200.599 532.925,-199.849 534.764,-206.603"/>
</g>
<!-- Node15 -->
<g id="node29" class="node"><title>Node15</title>
<a xlink:href="../../d0/df0/xmpp__server_8c.html#a79e02871228c509de0c70961d74a1bcb" target="_top" xlink:title="Attempt to cleanly disconnect a client, and clean up its resources.">
<polygon fill="none" stroke="black" points="510.5,-70.5433 510.5,-89.5433 701.5,-89.5433 701.5,-70.5433 510.5,-70.5433"/>
<text text-anchor="middle" x="606" y="-77.5433" font-family="DejaVuSansMono" font-size="10.00">xmpp_server_disconnect_client</text>
</a>
</g>
<!-- Node4&#45;&gt;Node15 -->
<g id="edge28" class="edge"><title>Node4&#45;&gt;Node15</title>
<path fill="none" stroke="midnightblue" d="M455.633,-261.471C462.228,-258.79 468.486,-255.377 474,-251.043 503.388,-227.95 488.47,-205.595 510,-175.043 531.847,-144.043 564.266,-114.098 585.014,-96.3736"/>
<polygon fill="midnightblue" stroke="midnightblue" points="587.464,-98.8864 592.867,-89.7728 582.96,-93.5279 587.464,-98.8864"/>
</g>
<!-- Node8 -->
<g id="node15" class="node"><title>Node8</title>
<a xlink:href="../../d1/d59/xmpp__stanza_8c.html#aae8c30c30fcbc2325d34897f8035ca46" target="_top" xlink:title="Function that gets called recursively to convert a stanza to a string.">
<polygon fill="none" stroke="black" points="756.5,-260.543 756.5,-279.543 845.5,-279.543 845.5,-260.543 756.5,-260.543"/>
<text text-anchor="middle" x="801" y="-267.543" font-family="DejaVuSansMono" font-size="10.00">stanza_tostr</text>
</a>
</g>
<!-- Node7&#45;&gt;Node8 -->
<g id="edge14" class="edge"><title>Node7&#45;&gt;Node8</title>
<path fill="none" stroke="midnightblue" d="M668.597,-270.043C693.598,-270.043 722.211,-270.043 746.34,-270.043"/>
<polygon fill="midnightblue" stroke="midnightblue" points="746.383,-273.543 756.383,-270.043 746.383,-266.543 746.383,-273.543"/>
</g>
<!-- Node9 -->
<g id="node17" class="node"><title>Node9</title>
<a xlink:href="../../d1/dc2/xmpp__parser_8c.html#acce8bfe5926da4e64c3b5038dc683618" target="_top" xlink:title="xmpp_parser_namespace_prefix">
<polygon fill="none" stroke="black" points="900.5,-298.543 900.5,-317.543 1085.5,-317.543 1085.5,-298.543 900.5,-298.543"/>
<text text-anchor="middle" x="993" y="-305.543" font-family="DejaVuSansMono" font-size="10.00">xmpp_parser_namespace_prefix</text>
</a>
</g>
<!-- Node8&#45;&gt;Node9 -->
<g id="edge16" class="edge"><title>Node8&#45;&gt;Node9</title>
<path fill="none" stroke="midnightblue" d="M845.59,-278.761C871.953,-284.034 905.875,-290.818 934.428,-296.529"/>
<polygon fill="midnightblue" stroke="midnightblue" points="933.79,-299.971 944.282,-298.5 935.163,-293.106 933.79,-299.971"/>
</g>
<!-- Node10 -->
<g id="node19" class="node"><title>Node10</title>
<a xlink:href="../../d1/dc2/xmpp__parser_8c.html#afde3cf0e74a12bfe4ac90fa8dbae51a0" target="_top" xlink:title="xmpp_parser_namespace_uri">
<polygon fill="none" stroke="black" points="909.5,-260.543 909.5,-279.543 1076.5,-279.543 1076.5,-260.543 909.5,-260.543"/>
<text text-anchor="middle" x="993" y="-267.543" font-family="DejaVuSansMono" font-size="10.00">xmpp_parser_namespace_uri</text>
</a>
</g>
<!-- Node8&#45;&gt;Node10 -->
<g id="edge18" class="edge"><title>Node8&#45;&gt;Node10</title>
<path fill="none" stroke="midnightblue" d="M845.59,-270.043C861.656,-270.043 880.53,-270.043 899.285,-270.043"/>
<polygon fill="midnightblue" stroke="midnightblue" points="899.368,-273.543 909.368,-270.043 899.368,-266.543 899.368,-273.543"/>
</g>
<!-- Node11 -->
<g id="node21" class="node"><title>Node11</title>
<a xlink:href="../../d1/dc2/xmpp__parser_8c.html#af924e15caac53b347a48878fcb046bc4" target="_top" xlink:title="Return the next namespace in the namespace list.">
<polygon fill="none" stroke="black" points="906.5,-222.543 906.5,-241.543 1079.5,-241.543 1079.5,-222.543 906.5,-222.543"/>
<text text-anchor="middle" x="993" y="-229.543" font-family="DejaVuSansMono" font-size="10.00">xmpp_parser_namespace_next</text>
</a>
</g>
<!-- Node8&#45;&gt;Node11 -->
<g id="edge20" class="edge"><title>Node8&#45;&gt;Node11</title>
<path fill="none" stroke="midnightblue" d="M845.59,-261.325C871.953,-256.053 905.875,-249.268 934.428,-243.558"/>
<polygon fill="midnightblue" stroke="midnightblue" points="935.163,-246.98 944.282,-241.587 933.79,-240.116 935.163,-246.98"/>
</g>
<!-- Node13 -->
<g id="node25" class="node"><title>Node13</title>
<a xlink:href="../../d4/d8e/client__socket_8c.html#a164381b69f823fab1b8bce59ca03aefe" target="_top" xlink:title="Send some data to a client_socket.">
<polygon fill="none" stroke="black" points="738.5,-222.543 738.5,-241.543 863.5,-241.543 863.5,-222.543 738.5,-222.543"/>
<text text-anchor="middle" x="801" y="-229.543" font-family="DejaVuSansMono" font-size="10.00">client_socket_send</text>
</a>
</g>
<!-- Node12&#45;&gt;Node13 -->
<g id="edge24" class="edge"><title>Node12&#45;&gt;Node13</title>
<path fill="none" stroke="midnightblue" d="M677.77,-232.043C694.252,-232.043 711.814,-232.043 728.335,-232.043"/>
<polygon fill="midnightblue" stroke="midnightblue" points="728.467,-235.543 738.467,-232.043 728.467,-228.543 728.467,-235.543"/>
</g>
<!-- Node15&#45;&gt;Node2 -->
<g id="edge32" class="edge"><title>Node15&#45;&gt;Node2</title>
<path fill="none" stroke="midnightblue" d="M589.792,-70.529C541.657,-41.7448 389.821,38.7486 288,-23.0433 232.771,-56.56 210.229,-136.755 202.481,-174.179"/>
<polygon fill="midnightblue" stroke="midnightblue" points="198.982,-173.84 200.531,-184.321 205.856,-175.161 198.982,-173.84"/>
</g>
<!-- Node16 -->
<g id="node31" class="node"><title>Node16</title>
<a xlink:href="../../dd/d4d/xmpp__client_8c.html#a5ff8a826aface187b00ffcdfb7ce125a" target="_top" xlink:title="Return the server this client is connected to.">
<polygon fill="none" stroke="black" points="738.5,-70.5433 738.5,-89.5433 863.5,-89.5433 863.5,-70.5433 738.5,-70.5433"/>
<text text-anchor="middle" x="801" y="-77.5433" font-family="DejaVuSansMono" font-size="10.00">xmpp_client_server</text>
</a>
</g>
<!-- Node15&#45;&gt;Node16 -->
<g id="edge30" class="edge"><title>Node15&#45;&gt;Node16</title>
<path fill="none" stroke="midnightblue" d="M701.521,-80.0433C710.514,-80.0433 719.53,-80.0433 728.256,-80.0433"/>
<polygon fill="midnightblue" stroke="midnightblue" points="728.347,-83.5434 738.347,-80.0433 728.347,-76.5434 728.347,-83.5434"/>
</g>
</g>
</svg>
        <g id="navigator" transform="translate(0 0)" fill="#404254">
                <rect fill="#f2f5e9" fill-opacity="0.5" stroke="#606060" stroke-width=".5" x="0" y="0" width="60" height="60"/>
                <use id="zoomplus" xlink:href="#zoomPlus" x="17" y="9" onmousedown="handleZoom(evt,'in')"/>
                <use id="zoomminus" xlink:href="#zoomMin" x="42" y="9" onmousedown="handleZoom(evt,'out')"/>
                <use id="reset" xlink:href="#resetDef" x="30" y="36" onmousedown="handleReset()"/>
                <g id="arrowUp" xlink:href="#dirArrow" transform="translate(30 24)" onmousedown="handlePan(0,-1)">
                  <use xlink:href="#rim" fill="#404040">
                        <set attributeName="fill" to="#808080" begin="arrowUp.mouseover" end="arrowUp.mouseout"/>
                  </use>
                  <path fill="none" stroke="white" stroke-width="1.5" d="M0,-3.0v7 M-2.5,-0.5L0,-3.0L2.5,-0.5"/>
                </g>
                <g id="arrowRight" xlink:href="#dirArrow" transform="rotate(90) translate(36 -43)" onmousedown="handlePan(1,0)">
                  <use xlink:href="#rim" fill="#404040">
                        <set attributeName="fill" to="#808080" begin="arrowRight.mouseover" end="arrowRight.mouseout"/>
                  </use>
                  <path fill="none" stroke="white" stroke-width="1.5" d="M0,-3.0v7 M-2.5,-0.5L0,-3.0L2.5,-0.5"/>
                </g>
                <g id="arrowDown" xlink:href="#dirArrow" transform="rotate(180) translate(-30 -48)" onmousedown="handlePan(0,1)">
                  <use xlink:href="#rim" fill="#404040">
                        <set attributeName="fill" to="#808080" begin="arrowDown.mouseover" end="arrowDown.mouseout"/>
                  </use>
                  <path fill="none" stroke="white" stroke-width="1.5" d="M0,-3.0v7 M-2.5,-0.5L0,-3.0L2.5,-0.5"/>
                </g>
                <g id="arrowLeft" xlink:href="#dirArrow" transform="rotate(270) translate(-36 17)" onmousedown="handlePan(-1,0)">
                  <use xlink:href="#rim" fill="#404040">
                        <set attributeName="fill" to="#808080" begin="arrowLeft.mouseover" end="arrowLeft.mouseout"/>
                  </use>
                  <path fill="none" stroke="white" stroke-width="1.5" d="M0,-3.0v7 M-2.5,-0.5L0,-3.0L2.5,-0.5"/>
                </g>
        </g>
        <svg viewBox="0 0 25 25" width="100%" height="30px" preserveAspectRatio="xMaxYMin meet"> 
          <g id="printButton" transform="scale(0.4 0.4)" onmousedown="handlePrint(evt)">
            <rect height="23.33753581" id="paper" rx="2" style="fill:#f2f5e9;fill-rule:evenodd;stroke:#111111;stroke-width:3.224;stroke-linejoin:round;" transform="matrix(1.000000,0.000000,-0.339266,0.940691,0.000000,0.000000)" width="25.55231285" x="26.69387353" y="7.36162977"/>
            <rect height="26.272097" id="body" rx="2" style="fill:#404040;fill-rule:evenodd;stroke:#111111;stroke-width:3.125;stroke-linejoin:round;" width="50" x="4.5295201" y="27.078951"/>
            <rect height="8.27750969" id="tray" style="fill:#d2d5c9;fill-rule:evenodd;stroke:#111111;stroke-width:3.125;stroke-linecap:round;stroke-linejoin:round;" width="40" x="10.28778839" y="44.96812282"/>
          </g>
        </svg>
</svg>
