<?xml version="1.0" encoding="UTF-8" standalone="no"?>
<!DOCTYPE svg PUBLIC "-//W3C//DTD SVG 1.1//EN"
 "http://www.w3.org/Graphics/SVG/1.1/DTD/svg11.dtd">
<!-- Generated by graphviz version 2.28.0 (20120217.0315)
 -->
<!-- Title: G Pages: 1 -->
<!--zoomable 200 -->
<svg id="main" version="1.1" xmlns="http://www.w3.org/2000/svg" xmlns:xlink="http://www.w3.org/1999/xlink" xml:space="preserve" onload="init(evt)">
        <defs>
                <circle id="rim" cx="0" cy="0" r="7"/>
                <circle id="rim2" cx="0" cy="0" r="3.5"/>
                <g id="zoomPlus">
                        <use xlink:href="#rim" fill="#404040">
                                <set attributeName="fill" to="#808080" begin="zoomplus.mouseover" end="zoomplus.mouseout"/>
                        </use>
                        <path d="M-4,0h8M0,-4v8" fill="none" stroke="white" stroke-width="1.5" pointer-events="none"/>
                </g>
                <g id="zoomMin">
                        <use xlink:href="#rim" fill="#404040">
                                <set attributeName="fill" to="#808080" begin="zoomminus.mouseover" end="zoomminus.mouseout"/>
                        </use>
                        <path d="M-4,0h8" fill="none" stroke="white" stroke-width="1.5" pointer-events="none"/>
                </g>
                <g id="dirArrow">
                        <path fill="none" stroke="white" stroke-width="1.5" d="M0,-3.0v7 M-2.5,-0.5L0,-3.0L2.5,-0.5"/>
                </g>
               <g id="resetDef">
                       <use xlink:href="#rim2" fill="#404040">
                               <set attributeName="fill" to="#808080" begin="reset.mouseover" end="reset.mouseout"/>
                       </use>
               </g>
        </defs>

<script type="text/javascript">
var viewWidth = 2126;
var viewHeight = 200;
var sectionId = 'dynsection-21';
</script>
<script xlink:href="../../svgpan.js"/>
<svg id="graph" class="graph">
<g id="viewport">
<title>G</title>
<!-- Node1 -->
<g id="node1" class="node"><title>Node1</title>
<polygon fill="#bfbfbf" stroke="black" points="0.5,-114.62 0.5,-133.62 113.5,-133.62 113.5,-114.62 0.5,-114.62"/>
<text text-anchor="middle" x="57" y="-121.62" font-family="DejaVuSansMono" font-size="10.00">xmpp_server_loop</text>
</g>
<!-- Node2 -->
<g id="node3" class="node"><title>Node2</title>
<a xlink:href="../../d6/d78/xmp3__multicast_8c.html#a991c928ab73b350c4b7029352e91a219" target="_top" xlink:title="multicast_start">
<polygon fill="none" stroke="black" points="150.5,-152.62 150.5,-171.62 257.5,-171.62 257.5,-152.62 150.5,-152.62"/>
<text text-anchor="middle" x="204" y="-159.62" font-family="DejaVuSansMono" font-size="10.00">multicast_start</text>
</a>
</g>
<!-- Node1&#45;&gt;Node2 -->
<g id="edge2" class="edge"><title>Node1&#45;&gt;Node2</title>
<path fill="none" stroke="midnightblue" d="M104.493,-136.304C124.624,-141.58 147.838,-147.664 166.673,-152.6"/>
<polygon fill="midnightblue" stroke="midnightblue" points="105.15,-132.858 94.5896,-133.709 103.376,-139.63 105.15,-132.858"/>
</g>
<!-- Node3 -->
<g id="node5" class="node"><title>Node3</title>
<a xlink:href="../../d6/d78/xmp3__multicast_8c.html#ad161abeabc58820fd3a24b4422c5b9a7" target="_top" xlink:title="multicast_stop">
<polygon fill="none" stroke="black" points="153.5,-114.62 153.5,-133.62 254.5,-133.62 254.5,-114.62 153.5,-114.62"/>
<text text-anchor="middle" x="204" y="-121.62" font-family="DejaVuSansMono" font-size="10.00">multicast_stop</text>
</a>
</g>
<!-- Node1&#45;&gt;Node3 -->
<g id="edge4" class="edge"><title>Node1&#45;&gt;Node3</title>
<path fill="none" stroke="midnightblue" d="M123.9,-124.12C133.827,-124.12 143.921,-124.12 153.429,-124.12"/>
<polygon fill="midnightblue" stroke="midnightblue" points="123.646,-120.62 113.646,-124.12 123.646,-127.62 123.646,-120.62"/>
</g>
<!-- Node4 -->
<g id="node7" class="node"><title>Node4</title>
<a xlink:href="../../d4/d2f/xmpp__client_8h.html#add2df61245a543667b6d98e3fcd57077" target="_top" xlink:title="xmpp_client_del">
<polygon fill="none" stroke="black" points="150.5,-76.6199 150.5,-95.6199 257.5,-95.6199 257.5,-76.6199 150.5,-76.6199"/>
<text text-anchor="middle" x="204" y="-83.6199" font-family="DejaVuSansMono" font-size="10.00">xmpp_client_del</text>
</a>
</g>
<!-- Node1&#45;&gt;Node4 -->
<g id="edge6" class="edge"><title>Node1&#45;&gt;Node4</title>
<path fill="none" stroke="midnightblue" d="M104.493,-111.936C124.624,-106.66 147.838,-100.576 166.673,-95.6399"/>
<polygon fill="midnightblue" stroke="midnightblue" points="103.376,-108.61 94.5896,-114.531 105.15,-115.381 103.376,-108.61"/>
</g>
<!-- Node5 -->
<g id="node9" class="node"><title>Node5</title>
<a xlink:href="../../d4/d2f/xmpp__client_8h.html#a1619c0b8f58b2cf09a322bf34fbc3414" target="_top" xlink:title="xmpp_client_new">
<polygon fill="none" stroke="black" points="1644.5,-85.6199 1644.5,-104.62 1751.5,-104.62 1751.5,-85.6199 1644.5,-85.6199"/>
<text text-anchor="middle" x="1698" y="-92.6199" font-family="DejaVuSansMono" font-size="10.00">xmpp_client_new</text>
</a>
</g>
<!-- Node4&#45;&gt;Node5 -->
<g id="edge8" class="edge"><title>Node4&#45;&gt;Node5</title>
<path fill="none" stroke="midnightblue" d="M261.849,-74.7196C337.71,-60.524 476.385,-38.1199 596,-38.1199 596,-38.1199 596,-38.1199 1369,-38.1199 1478.53,-38.1199 1605.63,-69.3528 1664.27,-85.5793"/>
<polygon fill="midnightblue" stroke="midnightblue" points="261.193,-71.2814 252.018,-76.5792 262.494,-78.1594 261.193,-71.2814"/>
</g>
<!-- Node6 -->
<g id="node11" class="node"><title>Node6</title>
<a xlink:href="../../d0/df0/xmpp__server_8c.html#a66363912ef1221a2574f9f99805fe8fd" target="_top" xlink:title="Callback for new client connections.">
<polygon fill="none" stroke="black" points="1791.5,-113.62 1791.5,-132.62 1892.5,-132.62 1892.5,-113.62 1791.5,-113.62"/>
<text text-anchor="middle" x="1842" y="-120.62" font-family="DejaVuSansMono" font-size="10.00">connect_client</text>
</a>
</g>
<!-- Node4&#45;&gt;Node6 -->
<g id="edge48" class="edge"><title>Node4&#45;&gt;Node6</title>
<path fill="none" stroke="midnightblue" d="M248.596,-99.8242C251.871,-101.429 255.046,-103.191 258,-105.12 277.481,-117.837 273.401,-132.307 294,-143.12 414.273,-206.257 460.162,-190.12 596,-190.12 596,-190.12 596,-190.12 1534,-190.12 1632.13,-190.12 1656.97,-179.604 1752,-155.12 1774.9,-149.22 1800.19,-139.833 1817.95,-132.748"/>
<polygon fill="midnightblue" stroke="midnightblue" points="249.769,-96.5169 239.205,-95.7118 246.961,-102.929 249.769,-96.5169"/>
</g>
<!-- Node9 -->
<g id="node17" class="node"><title>Node9</title>
<a xlink:href="../../d1/d2e/xmpp__server_8h.html#af7d75415fd5671841797bf77bbc1a981" target="_top" xlink:title="Cleans up an XMPP server instance.">
<polygon fill="none" stroke="black" points="1788.5,-33.6199 1788.5,-52.6199 1895.5,-52.6199 1895.5,-33.6199 1788.5,-33.6199"/>
<text text-anchor="middle" x="1842" y="-40.6199" font-family="DejaVuSansMono" font-size="10.00">xmpp_server_del</text>
</a>
</g>
<!-- Node4&#45;&gt;Node9 -->
<g id="edge16" class="edge"><title>Node4&#45;&gt;Node9</title>
<path fill="none" stroke="midnightblue" d="M227.94,-71.0564C245.345,-60.3762 270.25,-46.6531 294,-39.1199 423.003,1.79795 460.663,-0.119863 596,-0.119863 596,-0.119863 596,-0.119863 1534,-0.119863 1629.8,-0.119863 1740.8,-20.9086 1799.55,-33.5768"/>
<polygon fill="midnightblue" stroke="midnightblue" points="225.699,-68.3313 219.097,-76.6182 229.426,-74.2567 225.699,-68.3313"/>
</g>
<!-- Node10 -->
<g id="node21" class="node"><title>Node10</title>
<a xlink:href="../../d1/d2e/xmpp__server_8h.html#a79e02871228c509de0c70961d74a1bcb" target="_top" xlink:title="Attempt to cleanly disconnect a client, and clean up its resources.">
<polygon fill="none" stroke="black" points="294.5,-114.62 294.5,-133.62 485.5,-133.62 485.5,-114.62 294.5,-114.62"/>
<text text-anchor="middle" x="390" y="-121.62" font-family="DejaVuSansMono" font-size="10.00">xmpp_server_disconnect_client</text>
</a>
</g>
<!-- Node4&#45;&gt;Node10 -->
<g id="edge22" class="edge"><title>Node4&#45;&gt;Node10</title>
<path fill="none" stroke="midnightblue" d="M261.561,-97.8009C287.654,-103.19 318.238,-109.506 342.903,-114.6"/>
<polygon fill="midnightblue" stroke="midnightblue" points="261.932,-94.3038 251.431,-95.7089 260.516,-101.159 261.932,-94.3038"/>
</g>
<!-- Node5&#45;&gt;Node6 -->
<g id="edge10" class="edge"><title>Node5&#45;&gt;Node6</title>
<path fill="none" stroke="midnightblue" d="M1757.6,-106.674C1769.29,-108.98 1781.45,-111.377 1792.75,-113.605"/>
<polygon fill="midnightblue" stroke="midnightblue" points="1757.96,-103.178 1747.47,-104.678 1756.61,-110.046 1757.96,-103.178"/>
</g>
<!-- Node7 -->
<g id="node13" class="node"><title>Node7</title>
<a xlink:href="../../d1/d2e/xmpp__server_8h.html#a27bfc8e4d424a8bc17ab21a4a09cdf92" target="_top" xlink:title="Allocates and initializes the XMPP server.">
<polygon fill="none" stroke="black" points="1932.5,-71.6199 1932.5,-90.6199 2039.5,-90.6199 2039.5,-71.6199 1932.5,-71.6199"/>
<text text-anchor="middle" x="1986" y="-78.6199" font-family="DejaVuSansMono" font-size="10.00">xmpp_server_new</text>
</a>
</g>
<!-- Node6&#45;&gt;Node7 -->
<g id="edge12" class="edge"><title>Node6&#45;&gt;Node7</title>
<path fill="none" stroke="midnightblue" d="M1885.09,-110.671C1906.62,-104.304 1932.42,-96.671 1952.41,-90.758"/>
<polygon fill="midnightblue" stroke="midnightblue" points="1883.82,-107.397 1875.22,-113.589 1885.8,-114.109 1883.82,-107.397"/>
</g>
<!-- Node8 -->
<g id="node15" class="node"><title>Node8</title>
<a xlink:href="../../d0/d29/main_8c.html#a0ddf1224851353fc92bfbff6f499fa97" target="_top" xlink:title="main">
<polygon fill="none" stroke="black" points="2076.5,-52.6199 2076.5,-71.6199 2117.5,-71.6199 2117.5,-52.6199 2076.5,-52.6199"/>
<text text-anchor="middle" x="2097" y="-59.6199" font-family="DejaVuSansMono" font-size="10.00">main</text>
</a>
</g>
<!-- Node7&#45;&gt;Node8 -->
<g id="edge14" class="edge"><title>Node7&#45;&gt;Node8</title>
<path fill="none" stroke="midnightblue" d="M2049.45,-70.2349C2059.24,-68.528 2068.68,-66.8821 2076.47,-65.5239"/>
<polygon fill="midnightblue" stroke="midnightblue" points="2048.83,-66.7885 2039.58,-71.9538 2050.04,-73.6845 2048.83,-66.7885"/>
</g>
<!-- Node9&#45;&gt;Node7 -->
<g id="edge20" class="edge"><title>Node9&#45;&gt;Node7</title>
<path fill="none" stroke="midnightblue" d="M1888.49,-55.294C1908.13,-60.5486 1930.77,-66.6065 1949.18,-71.5339"/>
<polygon fill="midnightblue" stroke="midnightblue" points="1889.4,-51.913 1878.83,-52.7089 1887.59,-58.6751 1889.4,-51.913"/>
</g>
<!-- Node9&#45;&gt;Node8 -->
<g id="edge18" class="edge"><title>Node9&#45;&gt;Node8</title>
<path fill="none" stroke="midnightblue" d="M1905.9,-47.8434C1961.84,-52.0444 2040.21,-57.9298 2076.34,-60.6432"/>
<polygon fill="midnightblue" stroke="midnightblue" points="1905.96,-44.3386 1895.73,-47.0798 1905.44,-51.3189 1905.96,-44.3386"/>
</g>
<!-- Node11 -->
<g id="node23" class="node"><title>Node11</title>
<a xlink:href="../../d8/d28/xmpp__core_8h.html#a3b41e83061abd7ed5b258c7aa7dda0d6" target="_top" xlink:title="An xmpp_server stanza route for stanzas directed to a local client.">
<polygon fill="none" stroke="black" points="522.5,-95.6199 522.5,-114.62 671.5,-114.62 671.5,-95.6199 522.5,-95.6199"/>
<text text-anchor="middle" x="597" y="-102.62" font-family="DejaVuSansMono" font-size="10.00">xmpp_core_route_client</text>
</a>
</g>
<!-- Node10&#45;&gt;Node11 -->
<g id="edge24" class="edge"><title>Node10&#45;&gt;Node11</title>
<path fill="none" stroke="midnightblue" d="M495.787,-114.408C504.726,-113.579 513.642,-112.753 522.263,-111.954"/>
<polygon fill="midnightblue" stroke="midnightblue" points="495.333,-110.935 485.699,-115.343 495.979,-117.905 495.333,-110.935"/>
</g>
<!-- Node18 -->
<g id="node40" class="node"><title>Node18</title>
<a xlink:href="../../d0/df0/xmpp__server_8c.html#abece91815ef240322d79073f5bfca1db" target="_top" xlink:title="Callback for new data from a client.">
<polygon fill="none" stroke="black" points="717.5,-138.62 717.5,-157.62 800.5,-157.62 800.5,-138.62 717.5,-138.62"/>
<text text-anchor="middle" x="759" y="-145.62" font-family="DejaVuSansMono" font-size="10.00">read_client</text>
</a>
</g>
<!-- Node10&#45;&gt;Node18 -->
<g id="edge44" class="edge"><title>Node10&#45;&gt;Node18</title>
<path fill="none" stroke="midnightblue" d="M495.767,-130.971C569.475,-135.791 664.098,-141.979 717.176,-145.45"/>
<polygon fill="midnightblue" stroke="midnightblue" points="495.719,-127.461 485.512,-130.3 495.262,-134.446 495.719,-127.461"/>
</g>
<!-- Node11&#45;&gt;Node4 -->
<g id="edge42" class="edge"><title>Node11&#45;&gt;Node4</title>
<path fill="none" stroke="midnightblue" d="M512.305,-101.053C435.174,-97.3048 323.066,-91.8571 257.732,-88.6823"/>
<polygon fill="midnightblue" stroke="midnightblue" points="512.317,-104.557 522.476,-101.547 512.657,-97.5657 512.317,-104.557"/>
</g>
<!-- Node12 -->
<g id="node25" class="node"><title>Node12</title>
<a xlink:href="../../df/da9/xmpp__auth_8c.html#a603b4a63af3c4e4af99442805fe89ae8" target="_top" xlink:title="Step 15: Client binds a resource.">
<polygon fill="none" stroke="black" points="708.5,-95.6199 708.5,-114.62 809.5,-114.62 809.5,-95.6199 708.5,-95.6199"/>
<text text-anchor="middle" x="759" y="-102.62" font-family="DejaVuSansMono" font-size="10.00">handle_bind_iq</text>
</a>
</g>
<!-- Node11&#45;&gt;Node12 -->
<g id="edge26" class="edge"><title>Node11&#45;&gt;Node12</title>
<path fill="none" stroke="midnightblue" d="M682.006,-105.12C690.943,-105.12 699.813,-105.12 708.168,-105.12"/>
<polygon fill="midnightblue" stroke="midnightblue" points="681.912,-101.62 671.911,-105.12 681.911,-108.62 681.912,-101.62"/>
</g>
<!-- Node13 -->
<g id="node27" class="node"><title>Node13</title>
<a xlink:href="../../df/da9/xmpp__auth_8c.html#a01804bd53eccc182ce76337fc0863e8d" target="_top" xlink:title="stream_bind_start">
<polygon fill="none" stroke="black" points="846.5,-95.6199 846.5,-114.62 965.5,-114.62 965.5,-95.6199 846.5,-95.6199"/>
<text text-anchor="middle" x="906" y="-102.62" font-family="DejaVuSansMono" font-size="10.00">stream_bind_start</text>
</a>
</g>
<!-- Node12&#45;&gt;Node13 -->
<g id="edge28" class="edge"><title>Node12&#45;&gt;Node13</title>
<path fill="none" stroke="midnightblue" d="M819.961,-105.12C828.655,-105.12 837.597,-105.12 846.266,-105.12"/>
<polygon fill="midnightblue" stroke="midnightblue" points="819.901,-101.62 809.901,-105.12 819.901,-108.62 819.901,-101.62"/>
</g>
<!-- Node14 -->
<g id="node29" class="node"><title>Node14</title>
<a xlink:href="../../df/da9/xmpp__auth_8c.html#afb770a216868aa3fb43813b19d2a0115" target="_top" xlink:title="Begins SASL PLAIN authentication.">
<polygon fill="none" stroke="black" points="1002.5,-95.6199 1002.5,-114.62 1121.5,-114.62 1121.5,-95.6199 1002.5,-95.6199"/>
<text text-anchor="middle" x="1062" y="-102.62" font-family="DejaVuSansMono" font-size="10.00">handle_sasl_plain</text>
</a>
</g>
<!-- Node13&#45;&gt;Node14 -->
<g id="edge30" class="edge"><title>Node13&#45;&gt;Node14</title>
<path fill="none" stroke="midnightblue" d="M975.894,-105.12C984.691,-105.12 993.631,-105.12 1002.25,-105.12"/>
<polygon fill="midnightblue" stroke="midnightblue" points="975.66,-101.62 965.66,-105.12 975.66,-108.62 975.66,-101.62"/>
</g>
<!-- Node15 -->
<g id="node31" class="node"><title>Node15</title>
<a xlink:href="../../d3/d24/xmpp__auth_8h.html#ad3efd9ab093646bdfd8832c34ae2de4d" target="_top" xlink:title="Handler for the inital stream start to begin authentication.">
<polygon fill="none" stroke="black" points="1458.5,-85.6199 1458.5,-104.62 1607.5,-104.62 1607.5,-85.6199 1458.5,-85.6199"/>
<text text-anchor="middle" x="1533" y="-92.6199" font-family="DejaVuSansMono" font-size="10.00">xmpp_auth_stream_start</text>
</a>
</g>
<!-- Node14&#45;&gt;Node15 -->
<g id="edge32" class="edge"><title>Node14&#45;&gt;Node15</title>
<path fill="none" stroke="midnightblue" d="M1131.93,-97.0066C1140.69,-96.2276 1149.55,-95.5635 1158,-95.1199 1262.23,-89.6491 1383.03,-91.0488 1458.49,-92.8478"/>
<polygon fill="midnightblue" stroke="midnightblue" points="1131.34,-93.5465 1121.71,-97.9677 1131.99,-100.516 1131.34,-93.5465"/>
</g>
<!-- Node16 -->
<g id="node34" class="node"><title>Node16</title>
<a xlink:href="../../df/da9/xmpp__auth_8c.html#afd7b12689591d40109a88ad108b5c3a2" target="_top" xlink:title="stream_sasl_start">
<polygon fill="none" stroke="black" points="1158.5,-104.62 1158.5,-123.62 1277.5,-123.62 1277.5,-104.62 1158.5,-104.62"/>
<text text-anchor="middle" x="1218" y="-111.62" font-family="DejaVuSansMono" font-size="10.00">stream_sasl_start</text>
</a>
</g>
<!-- Node14&#45;&gt;Node16 -->
<g id="edge36" class="edge"><title>Node14&#45;&gt;Node16</title>
<path fill="none" stroke="midnightblue" d="M1131.89,-109.146C1140.69,-109.66 1149.63,-110.183 1158.25,-110.686"/>
<polygon fill="midnightblue" stroke="midnightblue" points="1131.85,-105.638 1121.66,-108.548 1131.44,-112.626 1131.85,-105.638"/>
</g>
<!-- Node15&#45;&gt;Node5 -->
<g id="edge34" class="edge"><title>Node15&#45;&gt;Node5</title>
<path fill="none" stroke="midnightblue" d="M1617.99,-95.1199C1626.95,-95.1199 1635.88,-95.1199 1644.33,-95.1199"/>
<polygon fill="midnightblue" stroke="midnightblue" points="1617.87,-91.62 1607.87,-95.1199 1617.87,-98.62 1617.87,-91.62"/>
</g>
<!-- Node17 -->
<g id="node36" class="node"><title>Node17</title>
<a xlink:href="../../df/da9/xmpp__auth_8c.html#a8dd789e057b9812e4dd1aa524dfb6a65" target="_top" xlink:title="Begins TLS authentication.">
<polygon fill="none" stroke="black" points="1314.5,-104.62 1314.5,-123.62 1421.5,-123.62 1421.5,-104.62 1314.5,-104.62"/>
<text text-anchor="middle" x="1368" y="-111.62" font-family="DejaVuSansMono" font-size="10.00">handle_starttls</text>
</a>
</g>
<!-- Node16&#45;&gt;Node17 -->
<g id="edge38" class="edge"><title>Node16&#45;&gt;Node17</title>
<path fill="none" stroke="midnightblue" d="M1288.09,-114.12C1296.81,-114.12 1305.62,-114.12 1314.04,-114.12"/>
<polygon fill="midnightblue" stroke="midnightblue" points="1287.92,-110.62 1277.92,-114.12 1287.92,-117.62 1287.92,-110.62"/>
</g>
<!-- Node17&#45;&gt;Node15 -->
<g id="edge40" class="edge"><title>Node17&#45;&gt;Node15</title>
<path fill="none" stroke="midnightblue" d="M1431.91,-106.787C1440.56,-105.779 1449.5,-104.737 1458.32,-103.709"/>
<polygon fill="midnightblue" stroke="midnightblue" points="1431.45,-103.317 1421.92,-107.951 1432.26,-110.27 1431.45,-103.317"/>
</g>
<!-- Node18&#45;&gt;Node6 -->
<g id="edge46" class="edge"><title>Node18&#45;&gt;Node6</title>
<path fill="none" stroke="midnightblue" d="M811.213,-149.215C871.108,-150.399 973.243,-152.12 1061,-152.12 1061,-152.12 1061,-152.12 1534,-152.12 1625.14,-152.12 1730.84,-139.294 1791.42,-130.701"/>
<polygon fill="midnightblue" stroke="midnightblue" points="810.962,-145.709 800.894,-149.008 810.821,-152.708 810.962,-145.709"/>
</g>
</g>
</svg>
        <g id="navigator" transform="translate(0 0)" fill="#404254">
                <rect fill="#f2f5e9" fill-opacity="0.5" stroke="#606060" stroke-width=".5" x="0" y="0" width="60" height="60"/>
                <use id="zoomplus" xlink:href="#zoomPlus" x="17" y="9" onmousedown="handleZoom(evt,'in')"/>
                <use id="zoomminus" xlink:href="#zoomMin" x="42" y="9" onmousedown="handleZoom(evt,'out')"/>
                <use id="reset" xlink:href="#resetDef" x="30" y="36" onmousedown="handleReset()"/>
                <g id="arrowUp" xlink:href="#dirArrow" transform="translate(30 24)" onmousedown="handlePan(0,-1)">
                  <use xlink:href="#rim" fill="#404040">
                        <set attributeName="fill" to="#808080" begin="arrowUp.mouseover" end="arrowUp.mouseout"/>
                  </use>
                  <path fill="none" stroke="white" stroke-width="1.5" d="M0,-3.0v7 M-2.5,-0.5L0,-3.0L2.5,-0.5"/>
                </g>
                <g id="arrowRight" xlink:href="#dirArrow" transform="rotate(90) translate(36 -43)" onmousedown="handlePan(1,0)">
                  <use xlink:href="#rim" fill="#404040">
                        <set attributeName="fill" to="#808080" begin="arrowRight.mouseover" end="arrowRight.mouseout"/>
                  </use>
                  <path fill="none" stroke="white" stroke-width="1.5" d="M0,-3.0v7 M-2.5,-0.5L0,-3.0L2.5,-0.5"/>
                </g>
                <g id="arrowDown" xlink:href="#dirArrow" transform="rotate(180) translate(-30 -48)" onmousedown="handlePan(0,1)">
                  <use xlink:href="#rim" fill="#404040">
                        <set attributeName="fill" to="#808080" begin="arrowDown.mouseover" end="arrowDown.mouseout"/>
                  </use>
                  <path fill="none" stroke="white" stroke-width="1.5" d="M0,-3.0v7 M-2.5,-0.5L0,-3.0L2.5,-0.5"/>
                </g>
                <g id="arrowLeft" xlink:href="#dirArrow" transform="rotate(270) translate(-36 17)" onmousedown="handlePan(-1,0)">
                  <use xlink:href="#rim" fill="#404040">
                        <set attributeName="fill" to="#808080" begin="arrowLeft.mouseover" end="arrowLeft.mouseout"/>
                  </use>
                  <path fill="none" stroke="white" stroke-width="1.5" d="M0,-3.0v7 M-2.5,-0.5L0,-3.0L2.5,-0.5"/>
                </g>
        </g>
        <svg viewBox="0 0 25 25" width="100%" height="30px" preserveAspectRatio="xMaxYMin meet"> 
          <g id="printButton" transform="scale(0.4 0.4)" onmousedown="handlePrint(evt)">
            <rect height="23.33753581" id="paper" rx="2" style="fill:#f2f5e9;fill-rule:evenodd;stroke:#111111;stroke-width:3.224;stroke-linejoin:round;" transform="matrix(1.000000,0.000000,-0.339266,0.940691,0.000000,0.000000)" width="25.55231285" x="26.69387353" y="7.36162977"/>
            <rect height="26.272097" id="body" rx="2" style="fill:#404040;fill-rule:evenodd;stroke:#111111;stroke-width:3.125;stroke-linejoin:round;" width="50" x="4.5295201" y="27.078951"/>
            <rect height="8.27750969" id="tray" style="fill:#d2d5c9;fill-rule:evenodd;stroke:#111111;stroke-width:3.125;stroke-linecap:round;stroke-linejoin:round;" width="40" x="10.28778839" y="44.96812282"/>
          </g>
        </svg>
</svg>
