<?xml version="1.0" encoding="UTF-8" standalone="no"?>
<!DOCTYPE svg PUBLIC "-//W3C//DTD SVG 1.1//EN"
 "http://www.w3.org/Graphics/SVG/1.1/DTD/svg11.dtd">
<!-- Generated by graphviz version 2.28.0 (20120217.0315)
 -->
<!-- Title: G Pages: 1 -->
<!--zoomable 530 -->
<svg id="main" version="1.1" xmlns="http://www.w3.org/2000/svg" xmlns:xlink="http://www.w3.org/1999/xlink" xml:space="preserve" onload="init(evt)">
        <defs>
                <circle id="rim" cx="0" cy="0" r="7"/>
                <circle id="rim2" cx="0" cy="0" r="3.5"/>
                <g id="zoomPlus">
                        <use xlink:href="#rim" fill="#404040">
                                <set attributeName="fill" to="#808080" begin="zoomplus.mouseover" end="zoomplus.mouseout"/>
                        </use>
                        <path d="M-4,0h8M0,-4v8" fill="none" stroke="white" stroke-width="1.5" pointer-events="none"/>
                </g>
                <g id="zoomMin">
                        <use xlink:href="#rim" fill="#404040">
                                <set attributeName="fill" to="#808080" begin="zoomminus.mouseover" end="zoomminus.mouseout"/>
                        </use>
                        <path d="M-4,0h8" fill="none" stroke="white" stroke-width="1.5" pointer-events="none"/>
                </g>
                <g id="dirArrow">
                        <path fill="none" stroke="white" stroke-width="1.5" d="M0,-3.0v7 M-2.5,-0.5L0,-3.0L2.5,-0.5"/>
                </g>
               <g id="resetDef">
                       <use xlink:href="#rim2" fill="#404040">
                               <set attributeName="fill" to="#808080" begin="reset.mouseover" end="reset.mouseout"/>
                       </use>
               </g>
        </defs>

<script type="text/javascript">
var viewWidth = 1964;
var viewHeight = 530;
var sectionId = 'dynsection-27';
</script>
<script xlink:href="../../svgpan.js"/>
<svg id="graph" class="graph">
<g id="viewport">
<title>G</title>
<!-- Node1 -->
<g id="node1" class="node"><title>Node1</title>
<polygon fill="#bfbfbf" stroke="black" points="0.5,-233.562 0.5,-252.562 161.5,-252.562 161.5,-233.562 0.5,-233.562"/>
<text text-anchor="middle" x="81" y="-240.562" font-family="DejaVuSansMono" font-size="10.00">xmpp_server_route_stanza</text>
</g>
<!-- Node2 -->
<g id="node3" class="node"><title>Node2</title>
<a xlink:href="../../d7/d71/xep__muc_8c.html#acf84f00141033b025df269e540461383" target="_top" xlink:title="handle_message">
<polygon fill="none" stroke="black" points="771.5,-461.562 771.5,-480.562 872.5,-480.562 872.5,-461.562 771.5,-461.562"/>
<text text-anchor="middle" x="822" y="-468.562" font-family="DejaVuSansMono" font-size="10.00">handle_message</text>
</a>
</g>
<!-- Node1&#45;&gt;Node2 -->
<g id="edge2" class="edge"><title>Node1&#45;&gt;Node2</title>
<path fill="none" stroke="midnightblue" d="M86.1071,-262.733C96.3083,-305.991 127.259,-408.953 198,-452.062 392.742,-570.736 689.069,-506.891 787.74,-480.614"/>
<polygon fill="midnightblue" stroke="midnightblue" points="89.5001,-261.868 83.9022,-252.873 82.6688,-263.395 89.5001,-261.868"/>
</g>
<!-- Node6 -->
<g id="node11" class="node"><title>Node6</title>
<a xlink:href="../../d7/d71/xep__muc_8c.html#af88baacca4f1cccf8ec2bc295db0e063" target="_top" xlink:title="leave_room">
<polygon fill="none" stroke="black" points="240.5,-271.562 240.5,-290.562 317.5,-290.562 317.5,-271.562 240.5,-271.562"/>
<text text-anchor="middle" x="279" y="-278.562" font-family="DejaVuSansMono" font-size="10.00">leave_room</text>
</a>
</g>
<!-- Node1&#45;&gt;Node6 -->
<g id="edge10" class="edge"><title>Node1&#45;&gt;Node6</title>
<path fill="none" stroke="midnightblue" d="M141.382,-254.574C173.502,-260.802 212.213,-268.307 240.214,-273.736"/>
<polygon fill="midnightblue" stroke="midnightblue" points="141.689,-251.069 131.206,-252.601 140.357,-257.941 141.689,-251.069"/>
</g>
<!-- Node11 -->
<g id="node23" class="node"><title>Node11</title>
<a xlink:href="../../d7/d71/xep__muc_8c.html#a4b26d057ea25fe1b3c99edff73a82d78" target="_top" xlink:title="handle_items_query">
<polygon fill="none" stroke="black" points="216.5,-385.562 216.5,-404.562 341.5,-404.562 341.5,-385.562 216.5,-385.562"/>
<text text-anchor="middle" x="279" y="-392.562" font-family="DejaVuSansMono" font-size="10.00">handle_items_query</text>
</a>
</g>
<!-- Node1&#45;&gt;Node11 -->
<g id="edge24" class="edge"><title>Node1&#45;&gt;Node11</title>
<path fill="none" stroke="midnightblue" d="M93.5103,-261.077C112.134,-288.785 151.517,-341.725 198,-371.062 207.933,-377.33 219.589,-382.035 230.883,-385.537"/>
<polygon fill="midnightblue" stroke="midnightblue" points="96.4307,-259.148 88.01,-252.718 90.5831,-262.996 96.4307,-259.148"/>
</g>
<!-- Node13 -->
<g id="node28" class="node"><title>Node13</title>
<a xlink:href="../../d7/d71/xep__muc_8c.html#a20d9ff75edcc76b952adf38d558fee26" target="_top" xlink:title="handle_info_query">
<polygon fill="none" stroke="black" points="219.5,-423.562 219.5,-442.562 338.5,-442.562 338.5,-423.562 219.5,-423.562"/>
<text text-anchor="middle" x="279" y="-430.562" font-family="DejaVuSansMono" font-size="10.00">handle_info_query</text>
</a>
</g>
<!-- Node1&#45;&gt;Node13 -->
<g id="edge30" class="edge"><title>Node1&#45;&gt;Node13</title>
<path fill="none" stroke="midnightblue" d="M89.466,-262.376C104.356,-298.216 141.27,-374.92 198,-414.062 204.462,-418.52 211.841,-421.94 219.443,-424.562"/>
<polygon fill="midnightblue" stroke="midnightblue" points="92.5337,-260.623 85.5547,-252.652 86.0393,-263.236 92.5337,-260.623"/>
</g>
<!-- Node14 -->
<g id="node31" class="node"><title>Node14</title>
<a xlink:href="../../d7/d71/xep__muc_8c.html#a8333f88612fa054ae107699f5bb548cc" target="_top" xlink:title="send_nickname_conflict">
<polygon fill="none" stroke="black" points="399.5,-347.562 399.5,-366.562 548.5,-366.562 548.5,-347.562 399.5,-347.562"/>
<text text-anchor="middle" x="474" y="-354.562" font-family="DejaVuSansMono" font-size="10.00">send_nickname_conflict</text>
</a>
</g>
<!-- Node1&#45;&gt;Node14 -->
<g id="edge34" class="edge"><title>Node1&#45;&gt;Node14</title>
<path fill="none" stroke="midnightblue" d="M107.09,-257.704C130.064,-270.543 165.356,-288.86 198,-300.062 265.909,-323.364 346.68,-338.718 403.049,-347.558"/>
<polygon fill="midnightblue" stroke="midnightblue" points="108.761,-254.627 98.3352,-252.742 105.309,-260.717 108.761,-254.627"/>
</g>
<!-- Node15 -->
<g id="node34" class="node"><title>Node15</title>
<a xlink:href="../../d7/d71/xep__muc_8c.html#a115281f539cd77f88872ff153ec5b38d" target="_top" xlink:title="send_presence_broadcast">
<polygon fill="none" stroke="black" points="396.5,-385.562 396.5,-404.562 551.5,-404.562 551.5,-385.562 396.5,-385.562"/>
<text text-anchor="middle" x="474" y="-392.562" font-family="DejaVuSansMono" font-size="10.00">send_presence_broadcast</text>
</a>
</g>
<!-- Node1&#45;&gt;Node15 -->
<g id="edge38" class="edge"><title>Node1&#45;&gt;Node15</title>
<path fill="none" stroke="midnightblue" d="M98.4079,-259.937C119.507,-280.621 158.195,-315.237 198,-334.062 236.075,-352.068 347.413,-373.459 416.186,-385.529"/>
<polygon fill="midnightblue" stroke="midnightblue" points="100.765,-257.345 91.2171,-252.753 95.8182,-262.297 100.765,-257.345"/>
</g>
<!-- Node16 -->
<g id="node37" class="node"><title>Node16</title>
<a xlink:href="../../d6/d78/xmp3__multicast_8c.html#a6c09d6ba5f9adac2980596c21f7e29b0" target="_top" xlink:title="remote_stanza_handler">
<polygon fill="none" stroke="black" points="207.5,-233.562 207.5,-252.562 350.5,-252.562 350.5,-233.562 207.5,-233.562"/>
<text text-anchor="middle" x="279" y="-240.562" font-family="DejaVuSansMono" font-size="10.00">remote_stanza_handler</text>
</a>
</g>
<!-- Node1&#45;&gt;Node16 -->
<g id="edge42" class="edge"><title>Node1&#45;&gt;Node16</title>
<path fill="none" stroke="midnightblue" d="M171.738,-243.062C183.728,-243.062 195.884,-243.062 207.482,-243.062"/>
<polygon fill="midnightblue" stroke="midnightblue" points="171.721,-239.562 161.721,-243.062 171.721,-246.562 171.721,-239.562"/>
</g>
<!-- Node18 -->
<g id="node41" class="node"><title>Node18</title>
<a xlink:href="../../d8/d28/xmpp__core_8h.html#ae6da3d9438fd752c4afd6e50a6af9b66" target="_top" xlink:title="An xmpp_parser handler for stanzas from a local client.">
<polygon fill="none" stroke="black" points="201.5,-195.562 201.5,-214.562 356.5,-214.562 356.5,-195.562 201.5,-195.562"/>
<text text-anchor="middle" x="279" y="-202.562" font-family="DejaVuSansMono" font-size="10.00">xmpp_core_handle_stanza</text>
</a>
</g>
<!-- Node1&#45;&gt;Node18 -->
<g id="edge46" class="edge"><title>Node1&#45;&gt;Node18</title>
<path fill="none" stroke="midnightblue" d="M141.261,-231.572C169.227,-226.15 202.209,-219.756 228.774,-214.605"/>
<polygon fill="midnightblue" stroke="midnightblue" points="140.357,-228.182 131.206,-233.522 141.689,-235.054 140.357,-228.182"/>
</g>
<!-- Node29 -->
<g id="node64" class="node"><title>Node29</title>
<a xlink:href="../../d9/dd7/xmpp__im_8h.html#aee8f65a08bdaf68accfdcee40ed1488d" target="_top" xlink:title="IQ stanza callback for handling a session IQ.">
<polygon fill="none" stroke="black" points="1230.5,-157.562 1230.5,-176.562 1355.5,-176.562 1355.5,-157.562 1230.5,-157.562"/>
<text text-anchor="middle" x="1293" y="-164.562" font-family="DejaVuSansMono" font-size="10.00">xmpp_im_iq_session</text>
</a>
</g>
<!-- Node1&#45;&gt;Node29 -->
<g id="edge70" class="edge"><title>Node1&#45;&gt;Node29</title>
<path fill="none" stroke="midnightblue" d="M105.223,-228.272C127.911,-214.66 163.911,-195.234 198,-186.062 316.306,-154.228 350.486,-167.062 473,-167.062 473,-167.062 473,-167.062 979,-167.062 1066.22,-167.062 1167.1,-167.062 1230.24,-167.062"/>
<polygon fill="midnightblue" stroke="midnightblue" points="103.344,-225.319 96.6434,-233.526 106.999,-231.289 103.344,-225.319"/>
</g>
<!-- Node30 -->
<g id="node67" class="node"><title>Node30</title>
<a xlink:href="../../d9/dd7/xmpp__im_8h.html#a7542fa668dcf982bb5d3725c5cacb0ca" target="_top" xlink:title="IQ stanza callback for handling a disco items query.">
<polygon fill="none" stroke="black" points="1404.5,-119.562 1404.5,-138.562 1553.5,-138.562 1553.5,-119.562 1404.5,-119.562"/>
<text text-anchor="middle" x="1479" y="-126.562" font-family="DejaVuSansMono" font-size="10.00">xmpp_im_iq_disco_items</text>
</a>
</g>
<!-- Node1&#45;&gt;Node30 -->
<g id="edge74" class="edge"><title>Node1&#45;&gt;Node30</title>
<path fill="none" stroke="midnightblue" d="M99.3605,-226.191C120.667,-206.617 158.816,-175.109 198,-160.062 312.821,-115.968 350.004,-129.062 473,-129.062 473,-129.062 473,-129.062 1129,-129.062 1224.13,-129.062 1333.84,-129.062 1404.47,-129.062"/>
<polygon fill="midnightblue" stroke="midnightblue" points="96.6962,-223.892 91.8028,-233.289 101.488,-228.994 96.6962,-223.892"/>
</g>
<!-- Node31 -->
<g id="node70" class="node"><title>Node31</title>
<a xlink:href="../../d9/dd7/xmpp__im_8h.html#a93be77ae71bc544a1c23fae07f39fd23" target="_top" xlink:title="IQ stanza callback for handling a disco info query.">
<polygon fill="none" stroke="black" points="1590.5,-81.5615 1590.5,-100.562 1733.5,-100.562 1733.5,-81.5615 1590.5,-81.5615"/>
<text text-anchor="middle" x="1662" y="-88.5615" font-family="DejaVuSansMono" font-size="10.00">xmpp_im_iq_disco_info</text>
</a>
</g>
<!-- Node1&#45;&gt;Node31 -->
<g id="edge78" class="edge"><title>Node1&#45;&gt;Node31</title>
<path fill="none" stroke="midnightblue" d="M93.4771,-224.854C111.833,-197.494 150.599,-146.493 198,-123.062 308.306,-68.535 349.953,-91.0615 473,-91.0615 473,-91.0615 473,-91.0615 1294,-91.0615 1397.06,-91.0615 1516.4,-91.0615 1590.3,-91.0615"/>
<polygon fill="midnightblue" stroke="midnightblue" points="90.3932,-223.175 87.8549,-233.462 96.2538,-227.003 90.3932,-223.175"/>
</g>
<!-- Node32 -->
<g id="node73" class="node"><title>Node32</title>
<a xlink:href="../../dc/da6/xmpp__im_8c.html#af5cf3adac08463b9b6029c8814e4f972" target="_top" xlink:title="get_roster">
<polygon fill="none" stroke="black" points="783.5,-43.5615 783.5,-62.5615 860.5,-62.5615 860.5,-43.5615 783.5,-43.5615"/>
<text text-anchor="middle" x="822" y="-50.5615" font-family="DejaVuSansMono" font-size="10.00">get_roster</text>
</a>
</g>
<!-- Node1&#45;&gt;Node32 -->
<g id="edge82" class="edge"><title>Node1&#45;&gt;Node32</title>
<path fill="none" stroke="midnightblue" d="M88.8069,-223.73C102.771,-187.377 138.455,-109.567 198,-77.0615 299.3,-21.7618 664.133,-41.9386 783.157,-50.2195"/>
<polygon fill="midnightblue" stroke="midnightblue" points="85.4905,-222.608 85.3043,-233.201 92.0559,-225.036 85.4905,-222.608"/>
</g>
<!-- Node34 -->
<g id="node78" class="node"><title>Node34</title>
<a xlink:href="../../d0/df0/xmpp__server_8c.html#a3b400cb24e5bc51623f63c96c8a0a342" target="_top" xlink:title="Sends a &lt;service&#45;unavailable&gt; error stanza to a client.">
<polygon fill="none" stroke="black" points="198.5,-5.56151 198.5,-24.5615 359.5,-24.5615 359.5,-5.56151 198.5,-5.56151"/>
<text text-anchor="middle" x="279" y="-12.5615" font-family="DejaVuSansMono" font-size="10.00">send_service_unavailable</text>
</a>
</g>
<!-- Node1&#45;&gt;Node34 -->
<g id="edge88" class="edge"><title>Node1&#45;&gt;Node34</title>
<path fill="none" stroke="midnightblue" d="M87.6513,-223.482C100.389,-182.861 135.237,-89.0527 198,-39.0615 205.94,-32.7376 215.519,-28.0776 225.247,-24.6445"/>
<polygon fill="midnightblue" stroke="midnightblue" points="84.2453,-222.654 84.7008,-233.239 90.9456,-224.681 84.2453,-222.654"/>
</g>
<!-- Node3 -->
<g id="node5" class="node"><title>Node3</title>
<a xlink:href="../../d7/d71/xep__muc_8c.html#a1798db1c16a1fa62ff8f39fea202a26f" target="_top" xlink:title="stanza_handler">
<polygon fill="none" stroke="black" points="927.5,-423.562 927.5,-442.562 1028.5,-442.562 1028.5,-423.562 927.5,-423.562"/>
<text text-anchor="middle" x="978" y="-430.562" font-family="DejaVuSansMono" font-size="10.00">stanza_handler</text>
</a>
</g>
<!-- Node2&#45;&gt;Node3 -->
<g id="edge4" class="edge"><title>Node2&#45;&gt;Node3</title>
<path fill="none" stroke="midnightblue" d="M871.794,-459.022C893.308,-453.713 918.232,-447.563 938.419,-442.582"/>
<polygon fill="midnightblue" stroke="midnightblue" points="870.731,-455.679 861.861,-461.473 872.408,-462.475 870.731,-455.679"/>
</g>
<!-- Node4 -->
<g id="node7" class="node"><title>Node4</title>
<a xlink:href="../../d7/d71/xep__muc_8c.html#addf05166cf3fbe386ae6650be21ef251" target="_top" xlink:title="xep_muc_start">
<polygon fill="none" stroke="black" points="1080.5,-404.562 1080.5,-423.562 1175.5,-423.562 1175.5,-404.562 1080.5,-404.562"/>
<text text-anchor="middle" x="1128" y="-411.562" font-family="DejaVuSansMono" font-size="10.00">xep_muc_start</text>
</a>
</g>
<!-- Node3&#45;&gt;Node4 -->
<g id="edge6" class="edge"><title>Node3&#45;&gt;Node4</title>
<path fill="none" stroke="midnightblue" d="M1038.62,-425.408C1052.46,-423.631 1066.99,-421.765 1080.19,-420.071"/>
<polygon fill="midnightblue" stroke="midnightblue" points="1038.17,-421.937 1028.69,-426.682 1039.06,-428.88 1038.17,-421.937"/>
</g>
<!-- Node5 -->
<g id="node9" class="node"><title>Node5</title>
<a xlink:href="../../d7/d71/xep__muc_8c.html#a20d385a5584d8014ec4d5774eb79d1de" target="_top" xlink:title="xep_muc_stop">
<polygon fill="none" stroke="black" points="1083.5,-442.562 1083.5,-461.562 1172.5,-461.562 1172.5,-442.562 1083.5,-442.562"/>
<text text-anchor="middle" x="1128" y="-449.562" font-family="DejaVuSansMono" font-size="10.00">xep_muc_stop</text>
</a>
</g>
<!-- Node3&#45;&gt;Node5 -->
<g id="edge8" class="edge"><title>Node3&#45;&gt;Node5</title>
<path fill="none" stroke="midnightblue" d="M1038.8,-440.739C1053.63,-442.642 1069.24,-444.647 1083.15,-446.432"/>
<polygon fill="midnightblue" stroke="midnightblue" points="1039.06,-437.243 1028.69,-439.441 1038.17,-444.186 1039.06,-437.243"/>
</g>
<!-- Node7 -->
<g id="node13" class="node"><title>Node7</title>
<a xlink:href="../../d7/d71/xep__muc_8c.html#a40cdc65e1b60c76aef97dfc9d3f2510f" target="_top" xlink:title="leave_room_presence">
<polygon fill="none" stroke="black" points="591.5,-290.562 591.5,-309.562 722.5,-309.562 722.5,-290.562 591.5,-290.562"/>
<text text-anchor="middle" x="657" y="-297.562" font-family="DejaVuSansMono" font-size="10.00">leave_room_presence</text>
</a>
</g>
<!-- Node6&#45;&gt;Node7 -->
<g id="edge12" class="edge"><title>Node6&#45;&gt;Node7</title>
<path fill="none" stroke="midnightblue" d="M328.033,-283.489C394.973,-286.871 516.499,-293.012 591.343,-296.794"/>
<polygon fill="midnightblue" stroke="midnightblue" points="327.938,-279.98 317.774,-282.97 327.584,-286.971 327.938,-279.98"/>
</g>
<!-- Node9 -->
<g id="node18" class="node"><title>Node9</title>
<a xlink:href="../../d7/d71/xep__muc_8c.html#a0214cd898b2f0c746cb45f79746e5095" target="_top" xlink:title="client_disconnect">
<polygon fill="none" stroke="black" points="414.5,-309.562 414.5,-328.562 533.5,-328.562 533.5,-309.562 414.5,-309.562"/>
<text text-anchor="middle" x="474" y="-316.562" font-family="DejaVuSansMono" font-size="10.00">client_disconnect</text>
</a>
</g>
<!-- Node6&#45;&gt;Node9 -->
<g id="edge18" class="edge"><title>Node6&#45;&gt;Node9</title>
<path fill="none" stroke="midnightblue" d="M327.716,-290.456C357.162,-296.254 394.83,-303.671 424.432,-309.499"/>
<polygon fill="midnightblue" stroke="midnightblue" points="328.158,-286.976 317.671,-288.479 326.806,-293.844 328.158,-286.976"/>
</g>
<!-- Node8 -->
<g id="node15" class="node"><title>Node8</title>
<a xlink:href="../../d7/d71/xep__muc_8c.html#a9936322b944d46aead9fbd942687ec0a" target="_top" xlink:title="handle_presence">
<polygon fill="none" stroke="black" points="768.5,-347.562 768.5,-366.562 875.5,-366.562 875.5,-347.562 768.5,-347.562"/>
<text text-anchor="middle" x="822" y="-354.562" font-family="DejaVuSansMono" font-size="10.00">handle_presence</text>
</a>
</g>
<!-- Node7&#45;&gt;Node8 -->
<g id="edge14" class="edge"><title>Node7&#45;&gt;Node8</title>
<path fill="none" stroke="midnightblue" d="M694.971,-312.99C724.963,-323.478 766.564,-338.025 793.628,-347.49"/>
<polygon fill="midnightblue" stroke="midnightblue" points="695.877,-309.599 685.283,-309.602 693.567,-316.207 695.877,-309.599"/>
</g>
<!-- Node8&#45;&gt;Node3 -->
<g id="edge16" class="edge"><title>Node8&#45;&gt;Node3</title>
<path fill="none" stroke="midnightblue" d="M851.487,-371.12C882.394,-386.373 930.894,-410.308 957.654,-423.514"/>
<polygon fill="midnightblue" stroke="midnightblue" points="853.021,-367.974 842.504,-366.687 849.923,-374.251 853.021,-367.974"/>
</g>
<!-- Node10 -->
<g id="node20" class="node"><title>Node10</title>
<a xlink:href="../../d7/d71/xep__muc_8c.html#aefd23f2960520a68fea212344b85cb0b" target="_top" xlink:title="enter_room_presence">
<polygon fill="none" stroke="black" points="591.5,-347.562 591.5,-366.562 722.5,-366.562 722.5,-347.562 591.5,-347.562"/>
<text text-anchor="middle" x="657" y="-354.562" font-family="DejaVuSansMono" font-size="10.00">enter_room_presence</text>
</a>
</g>
<!-- Node9&#45;&gt;Node10 -->
<g id="edge20" class="edge"><title>Node9&#45;&gt;Node10</title>
<path fill="none" stroke="midnightblue" d="M530.638,-330.743C556.307,-336.131 586.391,-342.448 610.654,-347.541"/>
<polygon fill="midnightblue" stroke="midnightblue" points="531.18,-327.28 520.674,-328.651 529.741,-334.131 531.18,-327.28"/>
</g>
<!-- Node10&#45;&gt;Node8 -->
<g id="edge22" class="edge"><title>Node10&#45;&gt;Node8</title>
<path fill="none" stroke="midnightblue" d="M733.245,-357.062C745.11,-357.062 757.152,-357.062 768.358,-357.062"/>
<polygon fill="midnightblue" stroke="midnightblue" points="732.89,-353.562 722.89,-357.062 732.89,-360.562 732.89,-353.562"/>
</g>
<!-- Node12 -->
<g id="node25" class="node"><title>Node12</title>
<a xlink:href="../../d7/d71/xep__muc_8c.html#aec1096d47742f472668c4905fa3c299a" target="_top" xlink:title="handle_iq">
<polygon fill="none" stroke="black" points="438.5,-423.562 438.5,-442.562 509.5,-442.562 509.5,-423.562 438.5,-423.562"/>
<text text-anchor="middle" x="474" y="-430.562" font-family="DejaVuSansMono" font-size="10.00">handle_iq</text>
</a>
</g>
<!-- Node11&#45;&gt;Node12 -->
<g id="edge26" class="edge"><title>Node11&#45;&gt;Node12</title>
<path fill="none" stroke="midnightblue" d="M338.574,-406.594C371.16,-413.01 410.607,-420.777 438.314,-426.232"/>
<polygon fill="midnightblue" stroke="midnightblue" points="339.19,-403.148 328.702,-404.651 337.838,-410.016 339.19,-403.148"/>
</g>
<!-- Node12&#45;&gt;Node3 -->
<g id="edge28" class="edge"><title>Node12&#45;&gt;Node3</title>
<path fill="none" stroke="midnightblue" d="M519.782,-433.062C613.515,-433.062 829.757,-433.062 927.473,-433.062"/>
<polygon fill="midnightblue" stroke="midnightblue" points="519.505,-429.562 509.504,-433.062 519.504,-436.562 519.505,-429.562"/>
</g>
<!-- Node13&#45;&gt;Node12 -->
<g id="edge32" class="edge"><title>Node13&#45;&gt;Node12</title>
<path fill="none" stroke="midnightblue" d="M348.819,-433.062C379.188,-433.062 413.554,-433.062 438.422,-433.062"/>
<polygon fill="midnightblue" stroke="midnightblue" points="348.692,-429.562 338.692,-433.062 348.692,-436.562 348.692,-429.562"/>
</g>
<!-- Node14&#45;&gt;Node10 -->
<g id="edge36" class="edge"><title>Node14&#45;&gt;Node10</title>
<path fill="none" stroke="midnightblue" d="M558.674,-357.062C569.684,-357.062 580.829,-357.062 591.453,-357.062"/>
<polygon fill="midnightblue" stroke="midnightblue" points="558.62,-353.562 548.62,-357.062 558.62,-360.562 558.62,-353.562"/>
</g>
<!-- Node15&#45;&gt;Node10 -->
<g id="edge40" class="edge"><title>Node15&#45;&gt;Node10</title>
<path fill="none" stroke="midnightblue" d="M530.638,-383.381C556.307,-377.992 586.391,-371.675 610.654,-366.582"/>
<polygon fill="midnightblue" stroke="midnightblue" points="529.741,-379.992 520.674,-385.473 531.18,-386.843 529.741,-379.992"/>
</g>
<!-- Node17 -->
<g id="node39" class="node"><title>Node17</title>
<a xlink:href="../../d6/d78/xmp3__multicast_8c.html#a08afc39c59ec9297d756a99c395eff3c" target="_top" xlink:title="multicast_new">
<polygon fill="none" stroke="black" points="426.5,-233.562 426.5,-252.562 521.5,-252.562 521.5,-233.562 426.5,-233.562"/>
<text text-anchor="middle" x="474" y="-240.562" font-family="DejaVuSansMono" font-size="10.00">multicast_new</text>
</a>
</g>
<!-- Node16&#45;&gt;Node17 -->
<g id="edge44" class="edge"><title>Node16&#45;&gt;Node17</title>
<path fill="none" stroke="midnightblue" d="M360.916,-243.062C383.212,-243.062 406.647,-243.062 426.292,-243.062"/>
<polygon fill="midnightblue" stroke="midnightblue" points="360.77,-239.562 350.77,-243.062 360.77,-246.562 360.77,-239.562"/>
</g>
<!-- Node19 -->
<g id="node43" class="node"><title>Node19</title>
<a xlink:href="../../df/da9/xmpp__auth_8c.html#a603b4a63af3c4e4af99442805fe89ae8" target="_top" xlink:title="Step 15: Client binds a resource.">
<polygon fill="none" stroke="black" points="423.5,-195.562 423.5,-214.562 524.5,-214.562 524.5,-195.562 423.5,-195.562"/>
<text text-anchor="middle" x="474" y="-202.562" font-family="DejaVuSansMono" font-size="10.00">handle_bind_iq</text>
</a>
</g>
<!-- Node18&#45;&gt;Node19 -->
<g id="edge48" class="edge"><title>Node18&#45;&gt;Node19</title>
<path fill="none" stroke="midnightblue" d="M366.668,-205.062C386.133,-205.062 406.136,-205.062 423.467,-205.062"/>
<polygon fill="midnightblue" stroke="midnightblue" points="366.556,-201.562 356.556,-205.062 366.556,-208.562 366.556,-201.562"/>
</g>
<!-- Node20 -->
<g id="node45" class="node"><title>Node20</title>
<a xlink:href="../../df/da9/xmpp__auth_8c.html#a01804bd53eccc182ce76337fc0863e8d" target="_top" xlink:title="stream_bind_start">
<polygon fill="none" stroke="black" points="597.5,-195.562 597.5,-214.562 716.5,-214.562 716.5,-195.562 597.5,-195.562"/>
<text text-anchor="middle" x="657" y="-202.562" font-family="DejaVuSansMono" font-size="10.00">stream_bind_start</text>
</a>
</g>
<!-- Node19&#45;&gt;Node20 -->
<g id="edge50" class="edge"><title>Node19&#45;&gt;Node20</title>
<path fill="none" stroke="midnightblue" d="M535.162,-205.062C555.148,-205.062 577.366,-205.062 597.244,-205.062"/>
<polygon fill="midnightblue" stroke="midnightblue" points="534.938,-201.562 524.938,-205.062 534.938,-208.562 534.938,-201.562"/>
</g>
<!-- Node21 -->
<g id="node47" class="node"><title>Node21</title>
<a xlink:href="../../df/da9/xmpp__auth_8c.html#afb770a216868aa3fb43813b19d2a0115" target="_top" xlink:title="Begins SASL PLAIN authentication.">
<polygon fill="none" stroke="black" points="762.5,-195.562 762.5,-214.562 881.5,-214.562 881.5,-195.562 762.5,-195.562"/>
<text text-anchor="middle" x="822" y="-202.562" font-family="DejaVuSansMono" font-size="10.00">handle_sasl_plain</text>
</a>
</g>
<!-- Node20&#45;&gt;Node21 -->
<g id="edge52" class="edge"><title>Node20&#45;&gt;Node21</title>
<path fill="none" stroke="midnightblue" d="M727.029,-205.062C738.747,-205.062 750.817,-205.062 762.24,-205.062"/>
<polygon fill="midnightblue" stroke="midnightblue" points="726.847,-201.562 716.847,-205.062 726.847,-208.562 726.847,-201.562"/>
</g>
<!-- Node22 -->
<g id="node49" class="node"><title>Node22</title>
<a xlink:href="../../d3/d24/xmpp__auth_8h.html#ad3efd9ab093646bdfd8832c34ae2de4d" target="_top" xlink:title="Handler for the inital stream start to begin authentication.">
<polygon fill="none" stroke="black" points="1218.5,-195.562 1218.5,-214.562 1367.5,-214.562 1367.5,-195.562 1218.5,-195.562"/>
<text text-anchor="middle" x="1293" y="-202.562" font-family="DejaVuSansMono" font-size="10.00">xmpp_auth_stream_start</text>
</a>
</g>
<!-- Node21&#45;&gt;Node22 -->
<g id="edge54" class="edge"><title>Node21&#45;&gt;Node22</title>
<path fill="none" stroke="midnightblue" d="M891.987,-205.062C979.236,-205.062 1128.85,-205.062 1218.28,-205.062"/>
<polygon fill="midnightblue" stroke="midnightblue" points="891.924,-201.562 881.924,-205.062 891.924,-208.562 891.924,-201.562"/>
</g>
<!-- Node27 -->
<g id="node59" class="node"><title>Node27</title>
<a xlink:href="../../df/da9/xmpp__auth_8c.html#afd7b12689591d40109a88ad108b5c3a2" target="_top" xlink:title="stream_sasl_start">
<polygon fill="none" stroke="black" points="918.5,-233.562 918.5,-252.562 1037.5,-252.562 1037.5,-233.562 918.5,-233.562"/>
<text text-anchor="middle" x="978" y="-240.562" font-family="DejaVuSansMono" font-size="10.00">stream_sasl_start</text>
</a>
</g>
<!-- Node21&#45;&gt;Node27 -->
<g id="edge64" class="edge"><title>Node21&#45;&gt;Node27</title>
<path fill="none" stroke="midnightblue" d="M871.794,-217.102C893.308,-222.41 918.232,-228.56 938.419,-233.541"/>
<polygon fill="midnightblue" stroke="midnightblue" points="872.408,-213.648 861.861,-214.651 870.731,-220.444 872.408,-213.648"/>
</g>
<!-- Node23 -->
<g id="node51" class="node"><title>Node23</title>
<a xlink:href="../../d4/d2f/xmpp__client_8h.html#a1619c0b8f58b2cf09a322bf34fbc3414" target="_top" xlink:title="xmpp_client_new">
<polygon fill="none" stroke="black" points="1425.5,-195.562 1425.5,-214.562 1532.5,-214.562 1532.5,-195.562 1425.5,-195.562"/>
<text text-anchor="middle" x="1479" y="-202.562" font-family="DejaVuSansMono" font-size="10.00">xmpp_client_new</text>
</a>
</g>
<!-- Node22&#45;&gt;Node23 -->
<g id="edge56" class="edge"><title>Node22&#45;&gt;Node23</title>
<path fill="none" stroke="midnightblue" d="M1377.56,-205.062C1393.79,-205.062 1410.38,-205.062 1425.28,-205.062"/>
<polygon fill="midnightblue" stroke="midnightblue" points="1377.51,-201.562 1367.51,-205.062 1377.51,-208.562 1377.51,-201.562"/>
</g>
<!-- Node24 -->
<g id="node53" class="node"><title>Node24</title>
<a xlink:href="../../d0/df0/xmpp__server_8c.html#a66363912ef1221a2574f9f99805fe8fd" target="_top" xlink:title="Callback for new client connections.">
<polygon fill="none" stroke="black" points="1611.5,-195.562 1611.5,-214.562 1712.5,-214.562 1712.5,-195.562 1611.5,-195.562"/>
<text text-anchor="middle" x="1662" y="-202.562" font-family="DejaVuSansMono" font-size="10.00">connect_client</text>
</a>
</g>
<!-- Node23&#45;&gt;Node24 -->
<g id="edge58" class="edge"><title>Node23&#45;&gt;Node24</title>
<path fill="none" stroke="midnightblue" d="M1542.91,-205.062C1565.26,-205.062 1590.1,-205.062 1611.2,-205.062"/>
<polygon fill="midnightblue" stroke="midnightblue" points="1542.84,-201.562 1532.84,-205.062 1542.84,-208.562 1542.84,-201.562"/>
</g>
<!-- Node25 -->
<g id="node55" class="node"><title>Node25</title>
<a xlink:href="../../d1/d2e/xmpp__server_8h.html#a27bfc8e4d424a8bc17ab21a4a09cdf92" target="_top" xlink:title="Allocates and initializes the XMPP server.">
<polygon fill="none" stroke="black" points="1770.5,-100.562 1770.5,-119.562 1877.5,-119.562 1877.5,-100.562 1770.5,-100.562"/>
<text text-anchor="middle" x="1824" y="-107.562" font-family="DejaVuSansMono" font-size="10.00">xmpp_server_new</text>
</a>
</g>
<!-- Node24&#45;&gt;Node25 -->
<g id="edge60" class="edge"><title>Node24&#45;&gt;Node25</title>
<path fill="none" stroke="midnightblue" d="M1708.68,-192.241C1717.32,-189.092 1726.12,-185.365 1734,-181.062 1765.92,-163.636 1797.93,-134.581 1813.42,-119.616"/>
<polygon fill="midnightblue" stroke="midnightblue" points="1707.37,-188.992 1699.05,-195.551 1709.65,-195.612 1707.37,-188.992"/>
</g>
<!-- Node26 -->
<g id="node57" class="node"><title>Node26</title>
<a xlink:href="../../d0/d29/main_8c.html#a0ddf1224851353fc92bfbff6f499fa97" target="_top" xlink:title="main">
<polygon fill="none" stroke="black" points="1914.5,-100.562 1914.5,-119.562 1955.5,-119.562 1955.5,-100.562 1914.5,-100.562"/>
<text text-anchor="middle" x="1935" y="-107.562" font-family="DejaVuSansMono" font-size="10.00">main</text>
</a>
</g>
<!-- Node25&#45;&gt;Node26 -->
<g id="edge62" class="edge"><title>Node25&#45;&gt;Node26</title>
<path fill="none" stroke="midnightblue" d="M1887.75,-110.062C1897.43,-110.062 1906.76,-110.062 1914.47,-110.062"/>
<polygon fill="midnightblue" stroke="midnightblue" points="1887.58,-106.562 1877.58,-110.062 1887.58,-113.562 1887.58,-106.562"/>
</g>
<!-- Node28 -->
<g id="node61" class="node"><title>Node28</title>
<a xlink:href="../../df/da9/xmpp__auth_8c.html#a8dd789e057b9812e4dd1aa524dfb6a65" target="_top" xlink:title="Begins TLS authentication.">
<polygon fill="none" stroke="black" points="1074.5,-233.562 1074.5,-252.562 1181.5,-252.562 1181.5,-233.562 1074.5,-233.562"/>
<text text-anchor="middle" x="1128" y="-240.562" font-family="DejaVuSansMono" font-size="10.00">handle_starttls</text>
</a>
</g>
<!-- Node27&#45;&gt;Node28 -->
<g id="edge66" class="edge"><title>Node27&#45;&gt;Node28</title>
<path fill="none" stroke="midnightblue" d="M1048.09,-243.062C1056.81,-243.062 1065.62,-243.062 1074.04,-243.062"/>
<polygon fill="midnightblue" stroke="midnightblue" points="1047.92,-239.562 1037.92,-243.062 1047.92,-246.562 1047.92,-239.562"/>
</g>
<!-- Node28&#45;&gt;Node22 -->
<g id="edge68" class="edge"><title>Node28&#45;&gt;Node22</title>
<path fill="none" stroke="midnightblue" d="M1180.03,-231.165C1202.94,-225.824 1229.6,-219.608 1251.16,-214.582"/>
<polygon fill="midnightblue" stroke="midnightblue" points="1179.08,-227.793 1170.13,-233.473 1180.67,-234.611 1179.08,-227.793"/>
</g>
<!-- Node29&#45;&gt;Node25 -->
<g id="edge72" class="edge"><title>Node29&#45;&gt;Node25</title>
<path fill="none" stroke="midnightblue" d="M1365.7,-165.146C1453.18,-161.94 1605.31,-153.555 1734,-132.062 1752.52,-128.967 1772.88,-124.052 1789.45,-119.651"/>
<polygon fill="midnightblue" stroke="midnightblue" points="1365.49,-161.651 1355.62,-165.503 1365.74,-168.647 1365.49,-161.651"/>
</g>
<!-- Node30&#45;&gt;Node25 -->
<g id="edge76" class="edge"><title>Node30&#45;&gt;Node25</title>
<path fill="none" stroke="midnightblue" d="M1563.73,-124.423C1628.26,-120.849 1715.48,-116.018 1770.49,-112.97"/>
<polygon fill="midnightblue" stroke="midnightblue" points="1563.37,-120.938 1553.58,-124.986 1563.76,-127.927 1563.37,-120.938"/>
</g>
<!-- Node31&#45;&gt;Node25 -->
<g id="edge80" class="edge"><title>Node31&#45;&gt;Node25</title>
<path fill="none" stroke="midnightblue" d="M1743.71,-100.646C1752.65,-101.707 1761.57,-102.767 1770.03,-103.772"/>
<polygon fill="midnightblue" stroke="midnightblue" points="1743.99,-97.1542 1733.64,-99.4505 1743.16,-104.105 1743.99,-97.1542"/>
</g>
<!-- Node33 -->
<g id="node75" class="node"><title>Node33</title>
<a xlink:href="../../d9/dd7/xmpp__im_8h.html#a40f3cf6fffd6aafe9c7cde476fdbc9c2" target="_top" xlink:title="IQ stanza callback for handing a roster query.">
<polygon fill="none" stroke="black" points="918.5,-43.5615 918.5,-62.5615 1037.5,-62.5615 1037.5,-43.5615 918.5,-43.5615"/>
<text text-anchor="middle" x="978" y="-50.5615" font-family="DejaVuSansMono" font-size="10.00">xmpp_im_iq_roster</text>
</a>
</g>
<!-- Node32&#45;&gt;Node33 -->
<g id="edge84" class="edge"><title>Node32&#45;&gt;Node33</title>
<path fill="none" stroke="midnightblue" d="M870.79,-53.0615C885.858,-53.0615 902.678,-53.0615 918.409,-53.0615"/>
<polygon fill="midnightblue" stroke="midnightblue" points="870.673,-49.5616 860.673,-53.0615 870.673,-56.5616 870.673,-49.5616"/>
</g>
<!-- Node33&#45;&gt;Node25 -->
<g id="edge86" class="edge"><title>Node33&#45;&gt;Node25</title>
<path fill="none" stroke="midnightblue" d="M1047.83,-53.0615C1111.24,-53.0615 1207.97,-53.0615 1292,-53.0615 1292,-53.0615 1292,-53.0615 1480,-53.0615 1593.2,-53.0615 1624.02,-45.2516 1734,-72.0615 1759.95,-78.388 1788,-91.5146 1805.53,-100.554"/>
<polygon fill="midnightblue" stroke="midnightblue" points="1047.55,-49.5616 1037.55,-53.0615 1047.55,-56.5616 1047.55,-49.5616"/>
</g>
<!-- Node35 -->
<g id="node80" class="node"><title>Node35</title>
<a xlink:href="../../d1/d2e/xmpp__server_8h.html#a8ddb3bbfd497811c13e9426ce6f02003" target="_top" xlink:title="Deliver an IQ stanza to a registered callback function.">
<polygon fill="none" stroke="black" points="588.5,-5.56151 588.5,-24.5615 725.5,-24.5615 725.5,-5.56151 588.5,-5.56151"/>
<text text-anchor="middle" x="657" y="-12.5615" font-family="DejaVuSansMono" font-size="10.00">xmpp_server_route_iq</text>
</a>
</g>
<!-- Node34&#45;&gt;Node35 -->
<g id="edge90" class="edge"><title>Node34&#45;&gt;Node35</title>
<path fill="none" stroke="midnightblue" d="M369.884,-15.0615C436.99,-15.0615 527.267,-15.0615 588.331,-15.0615"/>
<polygon fill="midnightblue" stroke="midnightblue" points="369.74,-11.5616 359.74,-15.0615 369.74,-18.5616 369.74,-11.5616"/>
</g>
<!-- Node36 -->
<g id="node82" class="node"><title>Node36</title>
<a xlink:href="../../d8/d28/xmpp__core_8h.html#a777c384ae6685d30bfa255c4b33022aa" target="_top" xlink:title="An xmpp_server stanza route for stanzas directed to the server itself.">
<polygon fill="none" stroke="black" points="1218.5,-5.56151 1218.5,-24.5615 1367.5,-24.5615 1367.5,-5.56151 1218.5,-5.56151"/>
<text text-anchor="middle" x="1293" y="-12.5615" font-family="DejaVuSansMono" font-size="10.00">xmpp_core_route_server</text>
</a>
</g>
<!-- Node35&#45;&gt;Node36 -->
<g id="edge92" class="edge"><title>Node35&#45;&gt;Node36</title>
<path fill="none" stroke="midnightblue" d="M735.661,-15.0615C858.868,-15.0615 1097.5,-15.0615 1218.23,-15.0615"/>
<polygon fill="midnightblue" stroke="midnightblue" points="735.549,-11.5616 725.549,-15.0615 735.549,-18.5616 735.549,-11.5616"/>
</g>
<!-- Node36&#45;&gt;Node25 -->
<g id="edge94" class="edge"><title>Node36&#45;&gt;Node25</title>
<path fill="none" stroke="midnightblue" d="M1377.64,-4.87732C1468.54,2.87526 1616.51,5.68979 1734,-39.0615 1768.73,-52.2885 1800.45,-84.3791 1814.85,-100.494"/>
<polygon fill="midnightblue" stroke="midnightblue" points="1377.32,-1.3926 1367.67,-5.76776 1377.94,-8.36489 1377.32,-1.3926"/>
</g>
</g>
</svg>
        <g id="navigator" transform="translate(0 0)" fill="#404254">
                <rect fill="#f2f5e9" fill-opacity="0.5" stroke="#606060" stroke-width=".5" x="0" y="0" width="60" height="60"/>
                <use id="zoomplus" xlink:href="#zoomPlus" x="17" y="9" onmousedown="handleZoom(evt,'in')"/>
                <use id="zoomminus" xlink:href="#zoomMin" x="42" y="9" onmousedown="handleZoom(evt,'out')"/>
                <use id="reset" xlink:href="#resetDef" x="30" y="36" onmousedown="handleReset()"/>
                <g id="arrowUp" xlink:href="#dirArrow" transform="translate(30 24)" onmousedown="handlePan(0,-1)">
                  <use xlink:href="#rim" fill="#404040">
                        <set attributeName="fill" to="#808080" begin="arrowUp.mouseover" end="arrowUp.mouseout"/>
                  </use>
                  <path fill="none" stroke="white" stroke-width="1.5" d="M0,-3.0v7 M-2.5,-0.5L0,-3.0L2.5,-0.5"/>
                </g>
                <g id="arrowRight" xlink:href="#dirArrow" transform="rotate(90) translate(36 -43)" onmousedown="handlePan(1,0)">
                  <use xlink:href="#rim" fill="#404040">
                        <set attributeName="fill" to="#808080" begin="arrowRight.mouseover" end="arrowRight.mouseout"/>
                  </use>
                  <path fill="none" stroke="white" stroke-width="1.5" d="M0,-3.0v7 M-2.5,-0.5L0,-3.0L2.5,-0.5"/>
                </g>
                <g id="arrowDown" xlink:href="#dirArrow" transform="rotate(180) translate(-30 -48)" onmousedown="handlePan(0,1)">
                  <use xlink:href="#rim" fill="#404040">
                        <set attributeName="fill" to="#808080" begin="arrowDown.mouseover" end="arrowDown.mouseout"/>
                  </use>
                  <path fill="none" stroke="white" stroke-width="1.5" d="M0,-3.0v7 M-2.5,-0.5L0,-3.0L2.5,-0.5"/>
                </g>
                <g id="arrowLeft" xlink:href="#dirArrow" transform="rotate(270) translate(-36 17)" onmousedown="handlePan(-1,0)">
                  <use xlink:href="#rim" fill="#404040">
                        <set attributeName="fill" to="#808080" begin="arrowLeft.mouseover" end="arrowLeft.mouseout"/>
                  </use>
                  <path fill="none" stroke="white" stroke-width="1.5" d="M0,-3.0v7 M-2.5,-0.5L0,-3.0L2.5,-0.5"/>
                </g>
        </g>
        <svg viewBox="0 0 25 25" width="100%" height="30px" preserveAspectRatio="xMaxYMin meet"> 
          <g id="printButton" transform="scale(0.4 0.4)" onmousedown="handlePrint(evt)">
            <rect height="23.33753581" id="paper" rx="2" style="fill:#f2f5e9;fill-rule:evenodd;stroke:#111111;stroke-width:3.224;stroke-linejoin:round;" transform="matrix(1.000000,0.000000,-0.339266,0.940691,0.000000,0.000000)" width="25.55231285" x="26.69387353" y="7.36162977"/>
            <rect height="26.272097" id="body" rx="2" style="fill:#404040;fill-rule:evenodd;stroke:#111111;stroke-width:3.125;stroke-linejoin:round;" width="50" x="4.5295201" y="27.078951"/>
            <rect height="8.27750969" id="tray" style="fill:#d2d5c9;fill-rule:evenodd;stroke:#111111;stroke-width:3.125;stroke-linecap:round;stroke-linejoin:round;" width="40" x="10.28778839" y="44.96812282"/>
          </g>
        </svg>
</svg>
