<?xml version="1.0" encoding="UTF-8" standalone="no"?>
<!DOCTYPE svg PUBLIC "-//W3C//DTD SVG 1.1//EN"
 "http://www.w3.org/Graphics/SVG/1.1/DTD/svg11.dtd">
<!-- Generated by graphviz version 2.28.0 (20120217.0315)
 -->
<!-- Title: G Pages: 1 -->
<svg width="374pt" height="104pt"
 viewBox="0.00 0.00 374.00 104.00" xmlns="http://www.w3.org/2000/svg" xmlns:xlink="http://www.w3.org/1999/xlink">
<g id="graph1" class="graph" transform="scale(1 1) rotate(0) translate(4 100)">
<title>G</title>
<!-- Node1 -->
<g id="node1" class="node"><title>Node1</title>
<polygon fill="#bfbfbf" stroke="black" points="0.5,-38.5 0.5,-57.5 203.5,-57.5 203.5,-38.5 0.5,-38.5"/>
<text text-anchor="middle" x="102" y="-45.5" font-family="DejaVuSansMono" font-size="10.00">xmpp_server_add_client_listener</text>
</g>
<!-- Node2 -->
<g id="node3" class="node"><title>Node2</title>
<a xlink:href="../../dd/d4d/xmpp__client_8c.html#a5ff8a826aface187b00ffcdfb7ce125a" target="_top" xlink:title="Return the server this client is connected to.">
<polygon fill="none" stroke="black" points="240.5,-76.5 240.5,-95.5 365.5,-95.5 365.5,-76.5 240.5,-76.5"/>
<text text-anchor="middle" x="303" y="-83.5" font-family="DejaVuSansMono" font-size="10.00">xmpp_client_server</text>
</a>
</g>
<!-- Node1&#45;&gt;Node2 -->
<g id="edge2" class="edge"><title>Node1&#45;&gt;Node2</title>
<path fill="none" stroke="midnightblue" d="M152.959,-57.54C180.045,-62.7122 213.708,-69.1401 242.183,-74.5778"/>
<polygon fill="midnightblue" stroke="midnightblue" points="241.541,-78.0183 252.02,-76.4561 242.854,-71.1425 241.541,-78.0183"/>
</g>
<!-- Node3 -->
<g id="node5" class="node"><title>Node3</title>
<a xlink:href="../../d3/d5a/jid_8c.html#a3d51f2b27d20189e523b0d0b2a77e4a9" target="_top" xlink:title="Converts a JID to a newly allocated string.">
<polygon fill="none" stroke="black" points="264.5,-38.5 264.5,-57.5 341.5,-57.5 341.5,-38.5 264.5,-38.5"/>
<text text-anchor="middle" x="303" y="-45.5" font-family="DejaVuSansMono" font-size="10.00">jid_to_str</text>
</a>
</g>
<!-- Node1&#45;&gt;Node3 -->
<g id="edge4" class="edge"><title>Node1&#45;&gt;Node3</title>
<path fill="none" stroke="midnightblue" d="M203.666,-48C221.211,-48 238.708,-48 253.974,-48"/>
<polygon fill="midnightblue" stroke="midnightblue" points="254.16,-51.5001 264.16,-48 254.16,-44.5001 254.16,-51.5001"/>
</g>
<!-- Node4 -->
<g id="node7" class="node"><title>Node4</title>
<a xlink:href="../../dd/d4d/xmpp__client_8c.html#af963b026952bdbc45a4df0fa3d69b641" target="_top" xlink:title="Return the JID for this client.">
<polygon fill="none" stroke="black" points="249.5,-0.5 249.5,-19.5 356.5,-19.5 356.5,-0.5 249.5,-0.5"/>
<text text-anchor="middle" x="303" y="-7.5" font-family="DejaVuSansMono" font-size="10.00">xmpp_client_jid</text>
</a>
</g>
<!-- Node1&#45;&gt;Node4 -->
<g id="edge6" class="edge"><title>Node1&#45;&gt;Node4</title>
<path fill="none" stroke="midnightblue" d="M152.959,-38.46C180.045,-33.2878 213.708,-26.8599 242.183,-21.4222"/>
<polygon fill="midnightblue" stroke="midnightblue" points="242.854,-24.8575 252.02,-19.5439 241.541,-17.9817 242.854,-24.8575"/>
</g>
</g>
</svg>
