<?xml version="1.0" encoding="UTF-8" standalone="no"?>
<!DOCTYPE svg PUBLIC "-//W3C//DTD SVG 1.1//EN"
 "http://www.w3.org/Graphics/SVG/1.1/DTD/svg11.dtd">
<!-- Generated by graphviz version 2.28.0 (20120217.0315)
 -->
<!-- Title: G Pages: 1 -->
<!--zoomable 441 -->
<svg id="main" version="1.1" xmlns="http://www.w3.org/2000/svg" xmlns:xlink="http://www.w3.org/1999/xlink" xml:space="preserve" onload="init(evt)">
        <defs>
                <circle id="rim" cx="0" cy="0" r="7"/>
                <circle id="rim2" cx="0" cy="0" r="3.5"/>
                <g id="zoomPlus">
                        <use xlink:href="#rim" fill="#404040">
                                <set attributeName="fill" to="#808080" begin="zoomplus.mouseover" end="zoomplus.mouseout"/>
                        </use>
                        <path d="M-4,0h8M0,-4v8" fill="none" stroke="white" stroke-width="1.5" pointer-events="none"/>
                </g>
                <g id="zoomMin">
                        <use xlink:href="#rim" fill="#404040">
                                <set attributeName="fill" to="#808080" begin="zoomminus.mouseover" end="zoomminus.mouseout"/>
                        </use>
                        <path d="M-4,0h8" fill="none" stroke="white" stroke-width="1.5" pointer-events="none"/>
                </g>
                <g id="dirArrow">
                        <path fill="none" stroke="white" stroke-width="1.5" d="M0,-3.0v7 M-2.5,-0.5L0,-3.0L2.5,-0.5"/>
                </g>
               <g id="resetDef">
                       <use xlink:href="#rim2" fill="#404040">
                               <set attributeName="fill" to="#808080" begin="reset.mouseover" end="reset.mouseout"/>
                       </use>
               </g>
        </defs>

<script type="text/javascript">
var viewWidth = 842;
var viewHeight = 441;
var sectionId = 'dynsection-24';
</script>
<script xlink:href="../../svgpan.js"/>
<svg id="graph" class="graph">
<g id="viewport">
<title>G</title>
<!-- Node1 -->
<g id="node1" class="node"><title>Node1</title>
<polygon fill="#bfbfbf" stroke="black" points="0.5,-57.5 0.5,-76.5 137.5,-76.5 137.5,-57.5 0.5,-57.5"/>
<text text-anchor="middle" x="69" y="-64.5" font-family="DejaVuSansMono" font-size="10.00">xmpp_server_route_iq</text>
</g>
<!-- Node2 -->
<g id="node3" class="node"><title>Node2</title>
<a xlink:href="../../d1/d59/xmpp__stanza_8c.html#a20c90c791fa856784f2d43c9f44f1d3c" target="_top" xlink:title="Returns the value of an attribute of this stanza.">
<polygon fill="none" stroke="black" points="597.5,-71.5 597.5,-90.5 710.5,-90.5 710.5,-71.5 597.5,-71.5"/>
<text text-anchor="middle" x="654" y="-78.5" font-family="DejaVuSansMono" font-size="10.00">xmpp_stanza_attr</text>
</a>
</g>
<!-- Node1&#45;&gt;Node2 -->
<g id="edge2" class="edge"><title>Node1&#45;&gt;Node2</title>
<path fill="none" stroke="midnightblue" d="M137.733,-68.6265C250.628,-71.3376 475.859,-76.7462 587.354,-79.4236"/>
<polygon fill="midnightblue" stroke="midnightblue" points="587.375,-82.925 597.456,-79.6662 587.543,-75.927 587.375,-82.925"/>
</g>
<!-- Node3 -->
<g id="node5" class="node"><title>Node3</title>
<a xlink:href="../../d1/d59/xmpp__stanza_8c.html#af1ad00a6a75789396a933dfc0ed9c1f5" target="_top" xlink:title="Returns a pointer to the first child stanza.">
<polygon fill="none" stroke="black" points="186.5,-38.5 186.5,-57.5 323.5,-57.5 323.5,-38.5 186.5,-38.5"/>
<text text-anchor="middle" x="255" y="-45.5" font-family="DejaVuSansMono" font-size="10.00">xmpp_stanza_children</text>
</a>
</g>
<!-- Node1&#45;&gt;Node3 -->
<g id="edge4" class="edge"><title>Node1&#45;&gt;Node3</title>
<path fill="none" stroke="midnightblue" d="M137.731,-60.006C150.263,-58.7119 163.443,-57.351 176.245,-56.029"/>
<polygon fill="midnightblue" stroke="midnightblue" points="176.825,-59.4879 186.412,-54.9792 176.106,-52.5249 176.825,-59.4879"/>
</g>
<!-- Node4 -->
<g id="node7" class="node"><title>Node4</title>
<a xlink:href="../../d1/d59/xmpp__stanza_8c.html#aa222b0d106ec5708c4aa173daa9497e7" target="_top" xlink:title="Returns the namespace URI of this stanza.">
<polygon fill="none" stroke="black" points="201.5,-0.5 201.5,-19.5 308.5,-19.5 308.5,-0.5 201.5,-0.5"/>
<text text-anchor="middle" x="255" y="-7.5" font-family="DejaVuSansMono" font-size="10.00">xmpp_stanza_uri</text>
</a>
</g>
<!-- Node1&#45;&gt;Node4 -->
<g id="edge6" class="edge"><title>Node1&#45;&gt;Node4</title>
<path fill="none" stroke="midnightblue" d="M93.6909,-57.4422C114.599,-49.2249 146.016,-37.4042 174,-29 182.344,-26.4941 191.257,-24.1031 199.992,-21.9148"/>
<polygon fill="midnightblue" stroke="midnightblue" points="200.856,-25.3068 209.74,-19.5347 199.195,-18.5066 200.856,-25.3068"/>
</g>
<!-- Node5 -->
<g id="node9" class="node"><title>Node5</title>
<a xlink:href="../../d0/df0/xmpp__server_8c.html#a3b400cb24e5bc51623f63c96c8a0a342" target="_top" xlink:title="Sends a &lt;service&#45;unavailable&gt; error stanza to a client.">
<polygon fill="none" stroke="black" points="174.5,-218.5 174.5,-237.5 335.5,-237.5 335.5,-218.5 174.5,-218.5"/>
<text text-anchor="middle" x="255" y="-225.5" font-family="DejaVuSansMono" font-size="10.00">send_service_unavailable</text>
</a>
</g>
<!-- Node1&#45;&gt;Node5 -->
<g id="edge8" class="edge"><title>Node1&#45;&gt;Node5</title>
<path fill="none" stroke="midnightblue" d="M80.959,-76.5891C111.312,-103.148 196.751,-177.908 235.033,-211.404"/>
<polygon fill="midnightblue" stroke="midnightblue" points="233.035,-214.307 242.866,-218.258 237.645,-209.038 233.035,-214.307"/>
</g>
<!-- Node5&#45;&gt;Node2 -->
<g id="edge10" class="edge"><title>Node5&#45;&gt;Node2</title>
<path fill="none" stroke="midnightblue" d="M273.792,-218.477C296.312,-206.606 336.46,-186.048 372,-171 458.088,-134.55 480.276,-126.255 570,-100 578.556,-97.4964 587.686,-95.118 596.646,-92.9448"/>
<polygon fill="midnightblue" stroke="midnightblue" points="597.722,-96.2871 606.65,-90.5825 596.113,-89.4745 597.722,-96.2871"/>
</g>
<!-- Node6 -->
<g id="node12" class="node"><title>Node6</title>
<a xlink:href="../../d1/d59/xmpp__stanza_8c.html#aa80dd21d794b5c63fcb13c49745cc373" target="_top" xlink:title="Allocate and initialize a new XMPP stanza structure.">
<polygon fill="none" stroke="black" points="399.5,-375.5 399.5,-394.5 506.5,-394.5 506.5,-375.5 399.5,-375.5"/>
<text text-anchor="middle" x="453" y="-382.5" font-family="DejaVuSansMono" font-size="10.00">xmpp_stanza_new</text>
</a>
</g>
<!-- Node5&#45;&gt;Node6 -->
<g id="edge12" class="edge"><title>Node5&#45;&gt;Node6</title>
<path fill="none" stroke="midnightblue" d="M263.529,-237.652C280.797,-259.296 325.365,-312.441 372,-346 385.992,-356.069 402.982,-364.768 417.699,-371.38"/>
<polygon fill="midnightblue" stroke="midnightblue" points="416.422,-374.641 426.988,-375.417 419.212,-368.221 416.422,-374.641"/>
</g>
<!-- Node9 -->
<g id="node18" class="node"><title>Node9</title>
<a xlink:href="../../d1/d59/xmpp__stanza_8c.html#ac13c8bb45e2ca03b99836e8d52b265b4" target="_top" xlink:title="Appends a child stanza.">
<polygon fill="none" stroke="black" points="372.5,-256.5 372.5,-275.5 533.5,-275.5 533.5,-256.5 372.5,-256.5"/>
<text text-anchor="middle" x="453" y="-263.5" font-family="DejaVuSansMono" font-size="10.00">xmpp_stanza_append_child</text>
</a>
</g>
<!-- Node5&#45;&gt;Node9 -->
<g id="edge18" class="edge"><title>Node5&#45;&gt;Node9</title>
<path fill="none" stroke="midnightblue" d="M305.206,-237.54C331.767,-242.69 364.749,-249.084 392.718,-254.506"/>
<polygon fill="midnightblue" stroke="midnightblue" points="392.29,-257.989 402.774,-256.456 393.623,-251.117 392.29,-257.989"/>
</g>
<!-- Node11 -->
<g id="node22" class="node"><title>Node11</title>
<a xlink:href="../../d0/df0/xmpp__server_8c.html#a6d3f7e5e289f785b1c8c52f95068c627" target="_top" xlink:title="Deliver a stanza to a registered callback function.">
<polygon fill="none" stroke="black" points="372.5,-180.5 372.5,-199.5 533.5,-199.5 533.5,-180.5 372.5,-180.5"/>
<text text-anchor="middle" x="453" y="-187.5" font-family="DejaVuSansMono" font-size="10.00">xmpp_server_route_stanza</text>
</a>
</g>
<!-- Node5&#45;&gt;Node11 -->
<g id="edge22" class="edge"><title>Node5&#45;&gt;Node11</title>
<path fill="none" stroke="midnightblue" d="M305.206,-218.46C331.767,-213.31 364.749,-206.916 392.718,-201.494"/>
<polygon fill="midnightblue" stroke="midnightblue" points="393.623,-204.883 402.774,-199.544 392.29,-198.011 393.623,-204.883"/>
</g>
<!-- Node17 -->
<g id="node36" class="node"><title>Node17</title>
<a xlink:href="../../d1/d59/xmpp__stanza_8c.html#af40757ae1d137034570b1bb33303d024" target="_top" xlink:title="Cleans up and frees an XMPP stanza.">
<polygon fill="none" stroke="black" points="399.5,-299.5 399.5,-318.5 506.5,-318.5 506.5,-299.5 399.5,-299.5"/>
<text text-anchor="middle" x="453" y="-306.5" font-family="DejaVuSansMono" font-size="10.00">xmpp_stanza_del</text>
</a>
</g>
<!-- Node5&#45;&gt;Node17 -->
<g id="edge38" class="edge"><title>Node5&#45;&gt;Node17</title>
<path fill="none" stroke="midnightblue" d="M273.279,-237.616C295.594,-249.771 335.866,-270.814 372,-285 382.857,-289.262 394.79,-293.216 406.05,-296.633"/>
<polygon fill="midnightblue" stroke="midnightblue" points="405.146,-300.016 415.728,-299.493 407.13,-293.303 405.146,-300.016"/>
</g>
<!-- Node7 -->
<g id="node14" class="node"><title>Node7</title>
<a xlink:href="../../d1/d59/xmpp__stanza_8c.html#a5a80203f56df7a360fa457c0111686f6" target="_top" xlink:title="Parse the namespace triple that Expat gives us.">
<polygon fill="none" stroke="black" points="621.5,-375.5 621.5,-394.5 686.5,-394.5 686.5,-375.5 621.5,-375.5"/>
<text text-anchor="middle" x="654" y="-382.5" font-family="DejaVuSansMono" font-size="10.00">parse_ns</text>
</a>
</g>
<!-- Node6&#45;&gt;Node7 -->
<g id="edge14" class="edge"><title>Node6&#45;&gt;Node7</title>
<path fill="none" stroke="midnightblue" d="M506.545,-385C539.198,-385 580.606,-385 611.054,-385"/>
<polygon fill="midnightblue" stroke="midnightblue" points="611.335,-388.5 621.335,-385 611.335,-381.5 611.335,-388.5"/>
</g>
<!-- Node8 -->
<g id="node16" class="node"><title>Node8</title>
<a xlink:href="../../d1/d59/xmpp__stanza_8c.html#aff4b8f6e10ce1c351d2a5bc39f0e819f" target="_top" xlink:title="Convenience function to build a key for the attribute hash table.">
<polygon fill="none" stroke="black" points="621.5,-413.5 621.5,-432.5 686.5,-432.5 686.5,-413.5 621.5,-413.5"/>
<text text-anchor="middle" x="654" y="-420.5" font-family="DejaVuSansMono" font-size="10.00">make_key</text>
</a>
</g>
<!-- Node6&#45;&gt;Node8 -->
<g id="edge16" class="edge"><title>Node6&#45;&gt;Node8</title>
<path fill="none" stroke="midnightblue" d="M503.959,-394.54C537.06,-400.861 579.981,-409.057 611.256,-415.029"/>
<polygon fill="midnightblue" stroke="midnightblue" points="610.906,-418.525 621.385,-416.963 612.219,-411.649 610.906,-418.525"/>
</g>
<!-- Node10 -->
<g id="node20" class="node"><title>Node10</title>
<a xlink:href="../../d1/d59/xmpp__stanza_8c.html#afc77f00b7f38c79566a7b16876230e30" target="_top" xlink:title="Removes a child stanza.">
<polygon fill="none" stroke="black" points="573.5,-261.5 573.5,-280.5 734.5,-280.5 734.5,-261.5 573.5,-261.5"/>
<text text-anchor="middle" x="654" y="-268.5" font-family="DejaVuSansMono" font-size="10.00">xmpp_stanza_remove_child</text>
</a>
</g>
<!-- Node9&#45;&gt;Node10 -->
<g id="edge20" class="edge"><title>Node9&#45;&gt;Node10</title>
<path fill="none" stroke="midnightblue" d="M533.508,-267.998C543.23,-268.242 553.218,-268.493 563.079,-268.741"/>
<polygon fill="midnightblue" stroke="midnightblue" points="563.209,-272.245 573.294,-268.997 563.385,-265.247 563.209,-272.245"/>
</g>
<!-- Node11&#45;&gt;Node2 -->
<g id="edge30" class="edge"><title>Node11&#45;&gt;Node2</title>
<path fill="none" stroke="midnightblue" d="M477.678,-180.488C494.52,-172.992 517.07,-161.411 534,-147 554.037,-129.945 547.863,-114.223 570,-100 575.387,-96.539 581.326,-93.7053 587.478,-91.3856"/>
<polygon fill="midnightblue" stroke="midnightblue" points="588.875,-94.6102 597.27,-88.1473 586.677,-87.9642 588.875,-94.6102"/>
</g>
<!-- Node12 -->
<g id="node24" class="node"><title>Node12</title>
<a xlink:href="../../d3/d5a/jid_8c.html#a0151ea37a9f52813a8d48d2b7eec2044" target="_top" xlink:title="Allocate and initialize a new JID from an existing JID string.">
<polygon fill="none" stroke="black" points="597.5,-223.5 597.5,-242.5 710.5,-242.5 710.5,-223.5 597.5,-223.5"/>
<text text-anchor="middle" x="654" y="-230.5" font-family="DejaVuSansMono" font-size="10.00">jid_new_from_str</text>
</a>
</g>
<!-- Node11&#45;&gt;Node12 -->
<g id="edge24" class="edge"><title>Node11&#45;&gt;Node12</title>
<path fill="none" stroke="midnightblue" d="M498.165,-199.543C527.922,-205.973 567.361,-214.495 598.987,-221.329"/>
<polygon fill="midnightblue" stroke="midnightblue" points="598.445,-224.792 608.959,-223.484 599.924,-217.95 598.445,-224.792"/>
</g>
<!-- Node14 -->
<g id="node28" class="node"><title>Node14</title>
<a xlink:href="../../d3/d5a/jid_8c.html#ab83fd5aae95de2c9d38fb9d9cd161580" target="_top" xlink:title="Cleans up and frees an existing JID.">
<polygon fill="none" stroke="black" points="774.5,-185.5 774.5,-204.5 833.5,-204.5 833.5,-185.5 774.5,-185.5"/>
<text text-anchor="middle" x="804" y="-192.5" font-family="DejaVuSansMono" font-size="10.00">jid_del</text>
</a>
</g>
<!-- Node11&#45;&gt;Node14 -->
<g id="edge36" class="edge"><title>Node11&#45;&gt;Node14</title>
<path fill="none" stroke="midnightblue" d="M533.63,-191.141C605.639,-192.172 708.613,-193.648 764.066,-194.442"/>
<polygon fill="midnightblue" stroke="midnightblue" points="764.126,-197.943 774.175,-194.587 764.226,-190.944 764.126,-197.943"/>
</g>
<!-- Node15 -->
<g id="node31" class="node"><title>Node15</title>
<a xlink:href="../../d3/d5a/jid_8c.html#a3d51f2b27d20189e523b0d0b2a77e4a9" target="_top" xlink:title="Converts a JID to a newly allocated string.">
<polygon fill="none" stroke="black" points="615.5,-147.5 615.5,-166.5 692.5,-166.5 692.5,-147.5 615.5,-147.5"/>
<text text-anchor="middle" x="654" y="-154.5" font-family="DejaVuSansMono" font-size="10.00">jid_to_str</text>
</a>
</g>
<!-- Node11&#45;&gt;Node15 -->
<g id="edge32" class="edge"><title>Node11&#45;&gt;Node15</title>
<path fill="none" stroke="midnightblue" d="M511.292,-180.499C541.051,-175.564 576.992,-169.604 605.232,-164.921"/>
<polygon fill="midnightblue" stroke="midnightblue" points="605.969,-168.347 615.262,-163.258 604.824,-161.441 605.969,-168.347"/>
</g>
<!-- Node16 -->
<g id="node33" class="node"><title>Node16</title>
<a xlink:href="../../d3/d5a/jid_8c.html#a5b2f969326a86fa7e585f633d7b0f565" target="_top" xlink:title="Compare two JIDs with wildcard matches.">
<polygon fill="none" stroke="black" points="594.5,-109.5 594.5,-128.5 713.5,-128.5 713.5,-109.5 594.5,-109.5"/>
<text text-anchor="middle" x="654" y="-116.5" font-family="DejaVuSansMono" font-size="10.00">jid_cmp_wildcards</text>
</a>
</g>
<!-- Node11&#45;&gt;Node16 -->
<g id="edge34" class="edge"><title>Node11&#45;&gt;Node16</title>
<path fill="none" stroke="midnightblue" d="M472.433,-180.372C494.944,-168.938 534.424,-149.917 570,-138 577.673,-135.43 585.86,-133.09 593.99,-130.999"/>
<polygon fill="midnightblue" stroke="midnightblue" points="594.967,-134.363 603.84,-128.574 593.293,-127.566 594.967,-134.363"/>
</g>
<!-- Node13 -->
<g id="node26" class="node"><title>Node13</title>
<a xlink:href="../../d3/d5a/jid_8c.html#abd2028a1e581e6374acaa6beaf6e5413" target="_top" xlink:title="Allocate and initialize a new blank JID.">
<polygon fill="none" stroke="black" points="774.5,-223.5 774.5,-242.5 833.5,-242.5 833.5,-223.5 774.5,-223.5"/>
<text text-anchor="middle" x="804" y="-230.5" font-family="DejaVuSansMono" font-size="10.00">jid_new</text>
</a>
</g>
<!-- Node12&#45;&gt;Node13 -->
<g id="edge26" class="edge"><title>Node12&#45;&gt;Node13</title>
<path fill="none" stroke="midnightblue" d="M710.531,-233C728.294,-233 747.574,-233 763.909,-233"/>
<polygon fill="midnightblue" stroke="midnightblue" points="764.173,-236.5 774.173,-233 764.173,-229.5 764.173,-236.5"/>
</g>
<!-- Node12&#45;&gt;Node14 -->
<g id="edge28" class="edge"><title>Node12&#45;&gt;Node14</title>
<path fill="none" stroke="midnightblue" d="M692.347,-223.411C714.327,-217.767 742.081,-210.641 764.293,-204.938"/>
<polygon fill="midnightblue" stroke="midnightblue" points="765.253,-208.305 774.069,-202.428 763.512,-201.525 765.253,-208.305"/>
</g>
<!-- Node17&#45;&gt;Node17 -->
<g id="edge44" class="edge"><title>Node17&#45;&gt;Node17</title>
<path fill="none" stroke="midnightblue" d="M422.482,-318.757C407.636,-327.565 417.809,-337 453,-337 477.744,-337 490.119,-332.336 490.125,-326.504"/>
<polygon fill="midnightblue" stroke="midnightblue" points="492.67,-324.094 483.518,-318.757 487.344,-328.637 492.67,-324.094"/>
</g>
<!-- Node18 -->
<g id="node38" class="node"><title>Node18</title>
<a xlink:href="../../d1/d59/xmpp__stanza_8c.html#a2fb472c6bf9b7f540a97ddc6c11adb74" target="_top" xlink:title="attribute_del">
<polygon fill="none" stroke="black" points="606.5,-337.5 606.5,-356.5 701.5,-356.5 701.5,-337.5 606.5,-337.5"/>
<text text-anchor="middle" x="654" y="-344.5" font-family="DejaVuSansMono" font-size="10.00">attribute_del</text>
</a>
</g>
<!-- Node17&#45;&gt;Node18 -->
<g id="edge40" class="edge"><title>Node17&#45;&gt;Node18</title>
<path fill="none" stroke="midnightblue" d="M503.959,-318.54C532.075,-323.909 567.277,-330.631 596.409,-336.194"/>
<polygon fill="midnightblue" stroke="midnightblue" points="595.959,-339.671 606.438,-338.109 597.272,-332.795 595.959,-339.671"/>
</g>
<!-- Node19 -->
<g id="node40" class="node"><title>Node19</title>
<a xlink:href="../../d1/dc2/xmpp__parser_8c.html#a87065f39f10a449e7af17fa45ca475f2" target="_top" xlink:title="xmpp_parser_namespace_del">
<polygon fill="none" stroke="black" points="570.5,-299.5 570.5,-318.5 737.5,-318.5 737.5,-299.5 570.5,-299.5"/>
<text text-anchor="middle" x="654" y="-306.5" font-family="DejaVuSansMono" font-size="10.00">xmpp_parser_namespace_del</text>
</a>
</g>
<!-- Node17&#45;&gt;Node19 -->
<g id="edge42" class="edge"><title>Node17&#45;&gt;Node19</title>
<path fill="none" stroke="midnightblue" d="M506.545,-309C523.062,-309 541.819,-309 560.265,-309"/>
<polygon fill="midnightblue" stroke="midnightblue" points="560.464,-312.5 570.464,-309 560.464,-305.5 560.464,-312.5"/>
</g>
</g>
</svg>
        <g id="navigator" transform="translate(0 0)" fill="#404254">
                <rect fill="#f2f5e9" fill-opacity="0.5" stroke="#606060" stroke-width=".5" x="0" y="0" width="60" height="60"/>
                <use id="zoomplus" xlink:href="#zoomPlus" x="17" y="9" onmousedown="handleZoom(evt,'in')"/>
                <use id="zoomminus" xlink:href="#zoomMin" x="42" y="9" onmousedown="handleZoom(evt,'out')"/>
                <use id="reset" xlink:href="#resetDef" x="30" y="36" onmousedown="handleReset()"/>
                <g id="arrowUp" xlink:href="#dirArrow" transform="translate(30 24)" onmousedown="handlePan(0,-1)">
                  <use xlink:href="#rim" fill="#404040">
                        <set attributeName="fill" to="#808080" begin="arrowUp.mouseover" end="arrowUp.mouseout"/>
                  </use>
                  <path fill="none" stroke="white" stroke-width="1.5" d="M0,-3.0v7 M-2.5,-0.5L0,-3.0L2.5,-0.5"/>
                </g>
                <g id="arrowRight" xlink:href="#dirArrow" transform="rotate(90) translate(36 -43)" onmousedown="handlePan(1,0)">
                  <use xlink:href="#rim" fill="#404040">
                        <set attributeName="fill" to="#808080" begin="arrowRight.mouseover" end="arrowRight.mouseout"/>
                  </use>
                  <path fill="none" stroke="white" stroke-width="1.5" d="M0,-3.0v7 M-2.5,-0.5L0,-3.0L2.5,-0.5"/>
                </g>
                <g id="arrowDown" xlink:href="#dirArrow" transform="rotate(180) translate(-30 -48)" onmousedown="handlePan(0,1)">
                  <use xlink:href="#rim" fill="#404040">
                        <set attributeName="fill" to="#808080" begin="arrowDown.mouseover" end="arrowDown.mouseout"/>
                  </use>
                  <path fill="none" stroke="white" stroke-width="1.5" d="M0,-3.0v7 M-2.5,-0.5L0,-3.0L2.5,-0.5"/>
                </g>
                <g id="arrowLeft" xlink:href="#dirArrow" transform="rotate(270) translate(-36 17)" onmousedown="handlePan(-1,0)">
                  <use xlink:href="#rim" fill="#404040">
                        <set attributeName="fill" to="#808080" begin="arrowLeft.mouseover" end="arrowLeft.mouseout"/>
                  </use>
                  <path fill="none" stroke="white" stroke-width="1.5" d="M0,-3.0v7 M-2.5,-0.5L0,-3.0L2.5,-0.5"/>
                </g>
        </g>
        <svg viewBox="0 0 25 25" width="100%" height="30px" preserveAspectRatio="xMaxYMin meet"> 
          <g id="printButton" transform="scale(0.4 0.4)" onmousedown="handlePrint(evt)">
            <rect height="23.33753581" id="paper" rx="2" style="fill:#f2f5e9;fill-rule:evenodd;stroke:#111111;stroke-width:3.224;stroke-linejoin:round;" transform="matrix(1.000000,0.000000,-0.339266,0.940691,0.000000,0.000000)" width="25.55231285" x="26.69387353" y="7.36162977"/>
            <rect height="26.272097" id="body" rx="2" style="fill:#404040;fill-rule:evenodd;stroke:#111111;stroke-width:3.125;stroke-linejoin:round;" width="50" x="4.5295201" y="27.078951"/>
            <rect height="8.27750969" id="tray" style="fill:#d2d5c9;fill-rule:evenodd;stroke:#111111;stroke-width:3.125;stroke-linecap:round;stroke-linejoin:round;" width="40" x="10.28778839" y="44.96812282"/>
          </g>
        </svg>
</svg>
