<?xml version="1.0" encoding="UTF-8" standalone="no"?>
<!DOCTYPE svg PUBLIC "-//W3C//DTD SVG 1.1//EN"
 "http://www.w3.org/Graphics/SVG/1.1/DTD/svg11.dtd">
<!-- Generated by graphviz version 2.28.0 (20120217.0315)
 -->
<!-- Title: G Pages: 1 -->
<!--zoomable 200 -->
<svg id="main" version="1.1" xmlns="http://www.w3.org/2000/svg" xmlns:xlink="http://www.w3.org/1999/xlink" xml:space="preserve" onload="init(evt)">
        <defs>
                <circle id="rim" cx="0" cy="0" r="7"/>
                <circle id="rim2" cx="0" cy="0" r="3.5"/>
                <g id="zoomPlus">
                        <use xlink:href="#rim" fill="#404040">
                                <set attributeName="fill" to="#808080" begin="zoomplus.mouseover" end="zoomplus.mouseout"/>
                        </use>
                        <path d="M-4,0h8M0,-4v8" fill="none" stroke="white" stroke-width="1.5" pointer-events="none"/>
                </g>
                <g id="zoomMin">
                        <use xlink:href="#rim" fill="#404040">
                                <set attributeName="fill" to="#808080" begin="zoomminus.mouseover" end="zoomminus.mouseout"/>
                        </use>
                        <path d="M-4,0h8" fill="none" stroke="white" stroke-width="1.5" pointer-events="none"/>
                </g>
                <g id="dirArrow">
                        <path fill="none" stroke="white" stroke-width="1.5" d="M0,-3.0v7 M-2.5,-0.5L0,-3.0L2.5,-0.5"/>
                </g>
               <g id="resetDef">
                       <use xlink:href="#rim2" fill="#404040">
                               <set attributeName="fill" to="#808080" begin="reset.mouseover" end="reset.mouseout"/>
                       </use>
               </g>
        </defs>

<script type="text/javascript">
var viewWidth = 2198;
var viewHeight = 200;
var sectionId = 'dynsection-15';
</script>
<script xlink:href="../../svgpan.js"/>
<svg id="graph" class="graph">
<g id="viewport">
<title>G</title>
<!-- Node1 -->
<g id="node1" class="node"><title>Node1</title>
<polygon fill="#bfbfbf" stroke="black" points="0.5,-114.62 0.5,-133.62 185.5,-133.62 185.5,-114.62 0.5,-114.62"/>
<text text-anchor="middle" x="93" y="-121.62" font-family="DejaVuSansMono" font-size="10.00">xmpp_server_del_stanza_route</text>
</g>
<!-- Node2 -->
<g id="node3" class="node"><title>Node2</title>
<a xlink:href="../../d7/d71/xep__muc_8c.html#a20d385a5584d8014ec4d5774eb79d1de" target="_top" xlink:title="xep_muc_stop">
<polygon fill="none" stroke="black" points="231.5,-152.62 231.5,-171.62 320.5,-171.62 320.5,-152.62 231.5,-152.62"/>
<text text-anchor="middle" x="276" y="-159.62" font-family="DejaVuSansMono" font-size="10.00">xep_muc_stop</text>
</a>
</g>
<!-- Node1&#45;&gt;Node2 -->
<g id="edge2" class="edge"><title>Node1&#45;&gt;Node2</title>
<path fill="none" stroke="midnightblue" d="M149.486,-135.769C175.74,-141.281 206.642,-147.768 231.214,-152.927"/>
<polygon fill="midnightblue" stroke="midnightblue" points="150.18,-132.338 139.674,-133.709 148.741,-139.189 150.18,-132.338"/>
</g>
<!-- Node3 -->
<g id="node5" class="node"><title>Node3</title>
<a xlink:href="../../d6/d78/xmp3__multicast_8c.html#ad161abeabc58820fd3a24b4422c5b9a7" target="_top" xlink:title="multicast_stop">
<polygon fill="none" stroke="black" points="225.5,-114.62 225.5,-133.62 326.5,-133.62 326.5,-114.62 225.5,-114.62"/>
<text text-anchor="middle" x="276" y="-121.62" font-family="DejaVuSansMono" font-size="10.00">multicast_stop</text>
</a>
</g>
<!-- Node1&#45;&gt;Node3 -->
<g id="edge4" class="edge"><title>Node1&#45;&gt;Node3</title>
<path fill="none" stroke="midnightblue" d="M195.794,-124.12C205.982,-124.12 215.976,-124.12 225.249,-124.12"/>
<polygon fill="midnightblue" stroke="midnightblue" points="195.561,-120.62 185.561,-124.12 195.56,-127.62 195.561,-120.62"/>
</g>
<!-- Node4 -->
<g id="node7" class="node"><title>Node4</title>
<a xlink:href="../../d4/d2f/xmpp__client_8h.html#add2df61245a543667b6d98e3fcd57077" target="_top" xlink:title="xmpp_client_del">
<polygon fill="none" stroke="black" points="222.5,-76.6199 222.5,-95.6199 329.5,-95.6199 329.5,-76.6199 222.5,-76.6199"/>
<text text-anchor="middle" x="276" y="-83.6199" font-family="DejaVuSansMono" font-size="10.00">xmpp_client_del</text>
</a>
</g>
<!-- Node1&#45;&gt;Node4 -->
<g id="edge6" class="edge"><title>Node1&#45;&gt;Node4</title>
<path fill="none" stroke="midnightblue" d="M149.638,-112.439C175.307,-107.05 205.391,-100.734 229.654,-95.6399"/>
<polygon fill="midnightblue" stroke="midnightblue" points="148.741,-109.051 139.674,-114.531 150.18,-115.901 148.741,-109.051"/>
</g>
<!-- Node5 -->
<g id="node9" class="node"><title>Node5</title>
<a xlink:href="../../d4/d2f/xmpp__client_8h.html#a1619c0b8f58b2cf09a322bf34fbc3414" target="_top" xlink:title="xmpp_client_new">
<polygon fill="none" stroke="black" points="1716.5,-85.6199 1716.5,-104.62 1823.5,-104.62 1823.5,-85.6199 1716.5,-85.6199"/>
<text text-anchor="middle" x="1770" y="-92.6199" font-family="DejaVuSansMono" font-size="10.00">xmpp_client_new</text>
</a>
</g>
<!-- Node4&#45;&gt;Node5 -->
<g id="edge8" class="edge"><title>Node4&#45;&gt;Node5</title>
<path fill="none" stroke="midnightblue" d="M333.849,-74.7196C409.71,-60.524 548.385,-38.1199 668,-38.1199 668,-38.1199 668,-38.1199 1441,-38.1199 1550.53,-38.1199 1677.63,-69.3528 1736.27,-85.5793"/>
<polygon fill="midnightblue" stroke="midnightblue" points="333.193,-71.2814 324.018,-76.5792 334.494,-78.1594 333.193,-71.2814"/>
</g>
<!-- Node6 -->
<g id="node11" class="node"><title>Node6</title>
<a xlink:href="../../d0/df0/xmpp__server_8c.html#a66363912ef1221a2574f9f99805fe8fd" target="_top" xlink:title="Callback for new client connections.">
<polygon fill="none" stroke="black" points="1863.5,-113.62 1863.5,-132.62 1964.5,-132.62 1964.5,-113.62 1863.5,-113.62"/>
<text text-anchor="middle" x="1914" y="-120.62" font-family="DejaVuSansMono" font-size="10.00">connect_client</text>
</a>
</g>
<!-- Node4&#45;&gt;Node6 -->
<g id="edge48" class="edge"><title>Node4&#45;&gt;Node6</title>
<path fill="none" stroke="midnightblue" d="M320.596,-99.8242C323.871,-101.429 327.046,-103.191 330,-105.12 349.481,-117.837 345.401,-132.307 366,-143.12 486.273,-206.257 532.162,-190.12 668,-190.12 668,-190.12 668,-190.12 1606,-190.12 1704.13,-190.12 1728.97,-179.604 1824,-155.12 1846.9,-149.22 1872.19,-139.833 1889.95,-132.748"/>
<polygon fill="midnightblue" stroke="midnightblue" points="321.769,-96.5169 311.205,-95.7118 318.961,-102.929 321.769,-96.5169"/>
</g>
<!-- Node9 -->
<g id="node17" class="node"><title>Node9</title>
<a xlink:href="../../d1/d2e/xmpp__server_8h.html#af7d75415fd5671841797bf77bbc1a981" target="_top" xlink:title="Cleans up an XMPP server instance.">
<polygon fill="none" stroke="black" points="1860.5,-33.6199 1860.5,-52.6199 1967.5,-52.6199 1967.5,-33.6199 1860.5,-33.6199"/>
<text text-anchor="middle" x="1914" y="-40.6199" font-family="DejaVuSansMono" font-size="10.00">xmpp_server_del</text>
</a>
</g>
<!-- Node4&#45;&gt;Node9 -->
<g id="edge16" class="edge"><title>Node4&#45;&gt;Node9</title>
<path fill="none" stroke="midnightblue" d="M299.94,-71.0564C317.345,-60.3762 342.25,-46.6531 366,-39.1199 495.003,1.79795 532.663,-0.119863 668,-0.119863 668,-0.119863 668,-0.119863 1606,-0.119863 1701.8,-0.119863 1812.8,-20.9086 1871.55,-33.5768"/>
<polygon fill="midnightblue" stroke="midnightblue" points="297.699,-68.3313 291.097,-76.6182 301.426,-74.2567 297.699,-68.3313"/>
</g>
<!-- Node10 -->
<g id="node21" class="node"><title>Node10</title>
<a xlink:href="../../d1/d2e/xmpp__server_8h.html#a79e02871228c509de0c70961d74a1bcb" target="_top" xlink:title="Attempt to cleanly disconnect a client, and clean up its resources.">
<polygon fill="none" stroke="black" points="366.5,-114.62 366.5,-133.62 557.5,-133.62 557.5,-114.62 366.5,-114.62"/>
<text text-anchor="middle" x="462" y="-121.62" font-family="DejaVuSansMono" font-size="10.00">xmpp_server_disconnect_client</text>
</a>
</g>
<!-- Node4&#45;&gt;Node10 -->
<g id="edge22" class="edge"><title>Node4&#45;&gt;Node10</title>
<path fill="none" stroke="midnightblue" d="M333.561,-97.8009C359.654,-103.19 390.238,-109.506 414.903,-114.6"/>
<polygon fill="midnightblue" stroke="midnightblue" points="333.932,-94.3038 323.431,-95.7089 332.516,-101.159 333.932,-94.3038"/>
</g>
<!-- Node5&#45;&gt;Node6 -->
<g id="edge10" class="edge"><title>Node5&#45;&gt;Node6</title>
<path fill="none" stroke="midnightblue" d="M1829.6,-106.674C1841.29,-108.98 1853.45,-111.377 1864.75,-113.605"/>
<polygon fill="midnightblue" stroke="midnightblue" points="1829.96,-103.178 1819.47,-104.678 1828.61,-110.046 1829.96,-103.178"/>
</g>
<!-- Node7 -->
<g id="node13" class="node"><title>Node7</title>
<a xlink:href="../../d1/d2e/xmpp__server_8h.html#a27bfc8e4d424a8bc17ab21a4a09cdf92" target="_top" xlink:title="Allocates and initializes the XMPP server.">
<polygon fill="none" stroke="black" points="2004.5,-71.6199 2004.5,-90.6199 2111.5,-90.6199 2111.5,-71.6199 2004.5,-71.6199"/>
<text text-anchor="middle" x="2058" y="-78.6199" font-family="DejaVuSansMono" font-size="10.00">xmpp_server_new</text>
</a>
</g>
<!-- Node6&#45;&gt;Node7 -->
<g id="edge12" class="edge"><title>Node6&#45;&gt;Node7</title>
<path fill="none" stroke="midnightblue" d="M1957.09,-110.671C1978.62,-104.304 2004.42,-96.671 2024.41,-90.758"/>
<polygon fill="midnightblue" stroke="midnightblue" points="1955.82,-107.397 1947.22,-113.589 1957.8,-114.109 1955.82,-107.397"/>
</g>
<!-- Node8 -->
<g id="node15" class="node"><title>Node8</title>
<a xlink:href="../../d0/d29/main_8c.html#a0ddf1224851353fc92bfbff6f499fa97" target="_top" xlink:title="main">
<polygon fill="none" stroke="black" points="2148.5,-52.6199 2148.5,-71.6199 2189.5,-71.6199 2189.5,-52.6199 2148.5,-52.6199"/>
<text text-anchor="middle" x="2169" y="-59.6199" font-family="DejaVuSansMono" font-size="10.00">main</text>
</a>
</g>
<!-- Node7&#45;&gt;Node8 -->
<g id="edge14" class="edge"><title>Node7&#45;&gt;Node8</title>
<path fill="none" stroke="midnightblue" d="M2121.45,-70.2349C2131.24,-68.528 2140.68,-66.8821 2148.47,-65.5239"/>
<polygon fill="midnightblue" stroke="midnightblue" points="2120.83,-66.7885 2111.58,-71.9538 2122.04,-73.6845 2120.83,-66.7885"/>
</g>
<!-- Node9&#45;&gt;Node7 -->
<g id="edge20" class="edge"><title>Node9&#45;&gt;Node7</title>
<path fill="none" stroke="midnightblue" d="M1960.49,-55.294C1980.13,-60.5486 2002.77,-66.6065 2021.18,-71.5339"/>
<polygon fill="midnightblue" stroke="midnightblue" points="1961.4,-51.913 1950.83,-52.7089 1959.59,-58.6751 1961.4,-51.913"/>
</g>
<!-- Node9&#45;&gt;Node8 -->
<g id="edge18" class="edge"><title>Node9&#45;&gt;Node8</title>
<path fill="none" stroke="midnightblue" d="M1977.9,-47.8434C2033.84,-52.0444 2112.21,-57.9298 2148.34,-60.6432"/>
<polygon fill="midnightblue" stroke="midnightblue" points="1977.96,-44.3386 1967.73,-47.0798 1977.44,-51.3189 1977.96,-44.3386"/>
</g>
<!-- Node11 -->
<g id="node23" class="node"><title>Node11</title>
<a xlink:href="../../d8/d28/xmpp__core_8h.html#a3b41e83061abd7ed5b258c7aa7dda0d6" target="_top" xlink:title="An xmpp_server stanza route for stanzas directed to a local client.">
<polygon fill="none" stroke="black" points="594.5,-95.6199 594.5,-114.62 743.5,-114.62 743.5,-95.6199 594.5,-95.6199"/>
<text text-anchor="middle" x="669" y="-102.62" font-family="DejaVuSansMono" font-size="10.00">xmpp_core_route_client</text>
</a>
</g>
<!-- Node10&#45;&gt;Node11 -->
<g id="edge24" class="edge"><title>Node10&#45;&gt;Node11</title>
<path fill="none" stroke="midnightblue" d="M567.787,-114.408C576.726,-113.579 585.642,-112.753 594.263,-111.954"/>
<polygon fill="midnightblue" stroke="midnightblue" points="567.333,-110.935 557.699,-115.343 567.979,-117.905 567.333,-110.935"/>
</g>
<!-- Node18 -->
<g id="node40" class="node"><title>Node18</title>
<a xlink:href="../../d0/df0/xmpp__server_8c.html#abece91815ef240322d79073f5bfca1db" target="_top" xlink:title="Callback for new data from a client.">
<polygon fill="none" stroke="black" points="789.5,-138.62 789.5,-157.62 872.5,-157.62 872.5,-138.62 789.5,-138.62"/>
<text text-anchor="middle" x="831" y="-145.62" font-family="DejaVuSansMono" font-size="10.00">read_client</text>
</a>
</g>
<!-- Node10&#45;&gt;Node18 -->
<g id="edge44" class="edge"><title>Node10&#45;&gt;Node18</title>
<path fill="none" stroke="midnightblue" d="M567.767,-130.971C641.475,-135.791 736.098,-141.979 789.176,-145.45"/>
<polygon fill="midnightblue" stroke="midnightblue" points="567.719,-127.461 557.512,-130.3 567.262,-134.446 567.719,-127.461"/>
</g>
<!-- Node11&#45;&gt;Node4 -->
<g id="edge42" class="edge"><title>Node11&#45;&gt;Node4</title>
<path fill="none" stroke="midnightblue" d="M584.305,-101.053C507.174,-97.3048 395.066,-91.8571 329.732,-88.6823"/>
<polygon fill="midnightblue" stroke="midnightblue" points="584.317,-104.557 594.476,-101.547 584.657,-97.5657 584.317,-104.557"/>
</g>
<!-- Node12 -->
<g id="node25" class="node"><title>Node12</title>
<a xlink:href="../../df/da9/xmpp__auth_8c.html#a603b4a63af3c4e4af99442805fe89ae8" target="_top" xlink:title="Step 15: Client binds a resource.">
<polygon fill="none" stroke="black" points="780.5,-95.6199 780.5,-114.62 881.5,-114.62 881.5,-95.6199 780.5,-95.6199"/>
<text text-anchor="middle" x="831" y="-102.62" font-family="DejaVuSansMono" font-size="10.00">handle_bind_iq</text>
</a>
</g>
<!-- Node11&#45;&gt;Node12 -->
<g id="edge26" class="edge"><title>Node11&#45;&gt;Node12</title>
<path fill="none" stroke="midnightblue" d="M754.006,-105.12C762.943,-105.12 771.813,-105.12 780.168,-105.12"/>
<polygon fill="midnightblue" stroke="midnightblue" points="753.912,-101.62 743.911,-105.12 753.911,-108.62 753.912,-101.62"/>
</g>
<!-- Node13 -->
<g id="node27" class="node"><title>Node13</title>
<a xlink:href="../../df/da9/xmpp__auth_8c.html#a01804bd53eccc182ce76337fc0863e8d" target="_top" xlink:title="stream_bind_start">
<polygon fill="none" stroke="black" points="918.5,-95.6199 918.5,-114.62 1037.5,-114.62 1037.5,-95.6199 918.5,-95.6199"/>
<text text-anchor="middle" x="978" y="-102.62" font-family="DejaVuSansMono" font-size="10.00">stream_bind_start</text>
</a>
</g>
<!-- Node12&#45;&gt;Node13 -->
<g id="edge28" class="edge"><title>Node12&#45;&gt;Node13</title>
<path fill="none" stroke="midnightblue" d="M891.961,-105.12C900.655,-105.12 909.597,-105.12 918.266,-105.12"/>
<polygon fill="midnightblue" stroke="midnightblue" points="891.901,-101.62 881.901,-105.12 891.901,-108.62 891.901,-101.62"/>
</g>
<!-- Node14 -->
<g id="node29" class="node"><title>Node14</title>
<a xlink:href="../../df/da9/xmpp__auth_8c.html#afb770a216868aa3fb43813b19d2a0115" target="_top" xlink:title="Begins SASL PLAIN authentication.">
<polygon fill="none" stroke="black" points="1074.5,-95.6199 1074.5,-114.62 1193.5,-114.62 1193.5,-95.6199 1074.5,-95.6199"/>
<text text-anchor="middle" x="1134" y="-102.62" font-family="DejaVuSansMono" font-size="10.00">handle_sasl_plain</text>
</a>
</g>
<!-- Node13&#45;&gt;Node14 -->
<g id="edge30" class="edge"><title>Node13&#45;&gt;Node14</title>
<path fill="none" stroke="midnightblue" d="M1047.89,-105.12C1056.69,-105.12 1065.63,-105.12 1074.25,-105.12"/>
<polygon fill="midnightblue" stroke="midnightblue" points="1047.66,-101.62 1037.66,-105.12 1047.66,-108.62 1047.66,-101.62"/>
</g>
<!-- Node15 -->
<g id="node31" class="node"><title>Node15</title>
<a xlink:href="../../d3/d24/xmpp__auth_8h.html#ad3efd9ab093646bdfd8832c34ae2de4d" target="_top" xlink:title="Handler for the inital stream start to begin authentication.">
<polygon fill="none" stroke="black" points="1530.5,-85.6199 1530.5,-104.62 1679.5,-104.62 1679.5,-85.6199 1530.5,-85.6199"/>
<text text-anchor="middle" x="1605" y="-92.6199" font-family="DejaVuSansMono" font-size="10.00">xmpp_auth_stream_start</text>
</a>
</g>
<!-- Node14&#45;&gt;Node15 -->
<g id="edge32" class="edge"><title>Node14&#45;&gt;Node15</title>
<path fill="none" stroke="midnightblue" d="M1203.93,-97.0066C1212.69,-96.2276 1221.55,-95.5635 1230,-95.1199 1334.23,-89.6491 1455.03,-91.0488 1530.49,-92.8478"/>
<polygon fill="midnightblue" stroke="midnightblue" points="1203.34,-93.5465 1193.71,-97.9677 1203.99,-100.516 1203.34,-93.5465"/>
</g>
<!-- Node16 -->
<g id="node34" class="node"><title>Node16</title>
<a xlink:href="../../df/da9/xmpp__auth_8c.html#afd7b12689591d40109a88ad108b5c3a2" target="_top" xlink:title="stream_sasl_start">
<polygon fill="none" stroke="black" points="1230.5,-104.62 1230.5,-123.62 1349.5,-123.62 1349.5,-104.62 1230.5,-104.62"/>
<text text-anchor="middle" x="1290" y="-111.62" font-family="DejaVuSansMono" font-size="10.00">stream_sasl_start</text>
</a>
</g>
<!-- Node14&#45;&gt;Node16 -->
<g id="edge36" class="edge"><title>Node14&#45;&gt;Node16</title>
<path fill="none" stroke="midnightblue" d="M1203.89,-109.146C1212.69,-109.66 1221.63,-110.183 1230.25,-110.686"/>
<polygon fill="midnightblue" stroke="midnightblue" points="1203.85,-105.638 1193.66,-108.548 1203.44,-112.626 1203.85,-105.638"/>
</g>
<!-- Node15&#45;&gt;Node5 -->
<g id="edge34" class="edge"><title>Node15&#45;&gt;Node5</title>
<path fill="none" stroke="midnightblue" d="M1689.99,-95.1199C1698.95,-95.1199 1707.88,-95.1199 1716.33,-95.1199"/>
<polygon fill="midnightblue" stroke="midnightblue" points="1689.87,-91.62 1679.87,-95.1199 1689.87,-98.62 1689.87,-91.62"/>
</g>
<!-- Node17 -->
<g id="node36" class="node"><title>Node17</title>
<a xlink:href="../../df/da9/xmpp__auth_8c.html#a8dd789e057b9812e4dd1aa524dfb6a65" target="_top" xlink:title="Begins TLS authentication.">
<polygon fill="none" stroke="black" points="1386.5,-104.62 1386.5,-123.62 1493.5,-123.62 1493.5,-104.62 1386.5,-104.62"/>
<text text-anchor="middle" x="1440" y="-111.62" font-family="DejaVuSansMono" font-size="10.00">handle_starttls</text>
</a>
</g>
<!-- Node16&#45;&gt;Node17 -->
<g id="edge38" class="edge"><title>Node16&#45;&gt;Node17</title>
<path fill="none" stroke="midnightblue" d="M1360.09,-114.12C1368.81,-114.12 1377.62,-114.12 1386.04,-114.12"/>
<polygon fill="midnightblue" stroke="midnightblue" points="1359.92,-110.62 1349.92,-114.12 1359.92,-117.62 1359.92,-110.62"/>
</g>
<!-- Node17&#45;&gt;Node15 -->
<g id="edge40" class="edge"><title>Node17&#45;&gt;Node15</title>
<path fill="none" stroke="midnightblue" d="M1503.91,-106.787C1512.56,-105.779 1521.5,-104.737 1530.32,-103.709"/>
<polygon fill="midnightblue" stroke="midnightblue" points="1503.45,-103.317 1493.92,-107.951 1504.26,-110.27 1503.45,-103.317"/>
</g>
<!-- Node18&#45;&gt;Node6 -->
<g id="edge46" class="edge"><title>Node18&#45;&gt;Node6</title>
<path fill="none" stroke="midnightblue" d="M883.213,-149.215C943.108,-150.399 1045.24,-152.12 1133,-152.12 1133,-152.12 1133,-152.12 1606,-152.12 1697.14,-152.12 1802.84,-139.294 1863.42,-130.701"/>
<polygon fill="midnightblue" stroke="midnightblue" points="882.962,-145.709 872.894,-149.008 882.821,-152.708 882.962,-145.709"/>
</g>
</g>
</svg>
        <g id="navigator" transform="translate(0 0)" fill="#404254">
                <rect fill="#f2f5e9" fill-opacity="0.5" stroke="#606060" stroke-width=".5" x="0" y="0" width="60" height="60"/>
                <use id="zoomplus" xlink:href="#zoomPlus" x="17" y="9" onmousedown="handleZoom(evt,'in')"/>
                <use id="zoomminus" xlink:href="#zoomMin" x="42" y="9" onmousedown="handleZoom(evt,'out')"/>
                <use id="reset" xlink:href="#resetDef" x="30" y="36" onmousedown="handleReset()"/>
                <g id="arrowUp" xlink:href="#dirArrow" transform="translate(30 24)" onmousedown="handlePan(0,-1)">
                  <use xlink:href="#rim" fill="#404040">
                        <set attributeName="fill" to="#808080" begin="arrowUp.mouseover" end="arrowUp.mouseout"/>
                  </use>
                  <path fill="none" stroke="white" stroke-width="1.5" d="M0,-3.0v7 M-2.5,-0.5L0,-3.0L2.5,-0.5"/>
                </g>
                <g id="arrowRight" xlink:href="#dirArrow" transform="rotate(90) translate(36 -43)" onmousedown="handlePan(1,0)">
                  <use xlink:href="#rim" fill="#404040">
                        <set attributeName="fill" to="#808080" begin="arrowRight.mouseover" end="arrowRight.mouseout"/>
                  </use>
                  <path fill="none" stroke="white" stroke-width="1.5" d="M0,-3.0v7 M-2.5,-0.5L0,-3.0L2.5,-0.5"/>
                </g>
                <g id="arrowDown" xlink:href="#dirArrow" transform="rotate(180) translate(-30 -48)" onmousedown="handlePan(0,1)">
                  <use xlink:href="#rim" fill="#404040">
                        <set attributeName="fill" to="#808080" begin="arrowDown.mouseover" end="arrowDown.mouseout"/>
                  </use>
                  <path fill="none" stroke="white" stroke-width="1.5" d="M0,-3.0v7 M-2.5,-0.5L0,-3.0L2.5,-0.5"/>
                </g>
                <g id="arrowLeft" xlink:href="#dirArrow" transform="rotate(270) translate(-36 17)" onmousedown="handlePan(-1,0)">
                  <use xlink:href="#rim" fill="#404040">
                        <set attributeName="fill" to="#808080" begin="arrowLeft.mouseover" end="arrowLeft.mouseout"/>
                  </use>
                  <path fill="none" stroke="white" stroke-width="1.5" d="M0,-3.0v7 M-2.5,-0.5L0,-3.0L2.5,-0.5"/>
                </g>
        </g>
        <svg viewBox="0 0 25 25" width="100%" height="30px" preserveAspectRatio="xMaxYMin meet"> 
          <g id="printButton" transform="scale(0.4 0.4)" onmousedown="handlePrint(evt)">
            <rect height="23.33753581" id="paper" rx="2" style="fill:#f2f5e9;fill-rule:evenodd;stroke:#111111;stroke-width:3.224;stroke-linejoin:round;" transform="matrix(1.000000,0.000000,-0.339266,0.940691,0.000000,0.000000)" width="25.55231285" x="26.69387353" y="7.36162977"/>
            <rect height="26.272097" id="body" rx="2" style="fill:#404040;fill-rule:evenodd;stroke:#111111;stroke-width:3.125;stroke-linejoin:round;" width="50" x="4.5295201" y="27.078951"/>
            <rect height="8.27750969" id="tray" style="fill:#d2d5c9;fill-rule:evenodd;stroke:#111111;stroke-width:3.125;stroke-linecap:round;stroke-linejoin:round;" width="40" x="10.28778839" y="44.96812282"/>
          </g>
        </svg>
</svg>
