<?xml version="1.0" encoding="UTF-8" standalone="no"?>
<!DOCTYPE svg PUBLIC "-//W3C//DTD SVG 1.1//EN"
 "http://www.w3.org/Graphics/SVG/1.1/DTD/svg11.dtd">
<!-- Generated by graphviz version 2.28.0 (20120217.0315)
 -->
<!-- Title: G Pages: 1 -->
<!--zoomable 595 -->
<svg id="main" version="1.1" xmlns="http://www.w3.org/2000/svg" xmlns:xlink="http://www.w3.org/1999/xlink" xml:space="preserve" onload="init(evt)">
        <defs>
                <circle id="rim" cx="0" cy="0" r="7"/>
                <circle id="rim2" cx="0" cy="0" r="3.5"/>
                <g id="zoomPlus">
                        <use xlink:href="#rim" fill="#404040">
                                <set attributeName="fill" to="#808080" begin="zoomplus.mouseover" end="zoomplus.mouseout"/>
                        </use>
                        <path d="M-4,0h8M0,-4v8" fill="none" stroke="white" stroke-width="1.5" pointer-events="none"/>
                </g>
                <g id="zoomMin">
                        <use xlink:href="#rim" fill="#404040">
                                <set attributeName="fill" to="#808080" begin="zoomminus.mouseover" end="zoomminus.mouseout"/>
                        </use>
                        <path d="M-4,0h8" fill="none" stroke="white" stroke-width="1.5" pointer-events="none"/>
                </g>
                <g id="dirArrow">
                        <path fill="none" stroke="white" stroke-width="1.5" d="M0,-3.0v7 M-2.5,-0.5L0,-3.0L2.5,-0.5"/>
                </g>
               <g id="resetDef">
                       <use xlink:href="#rim2" fill="#404040">
                               <set attributeName="fill" to="#808080" begin="reset.mouseover" end="reset.mouseout"/>
                       </use>
               </g>
        </defs>

<script type="text/javascript">
var viewWidth = 1092;
var viewHeight = 595;
var sectionId = 'dynsection-4';
</script>
<script xlink:href="../../svgpan.js"/>
<svg id="graph" class="graph">
<g id="viewport">
<title>G</title>
<!-- Node1 -->
<g id="node1" class="node"><title>Node1</title>
<polygon fill="#bfbfbf" stroke="black" points="430.5,-450.704 430.5,-469.704 537.5,-469.704 537.5,-450.704 430.5,-450.704"/>
<text text-anchor="middle" x="484" y="-457.704" font-family="DejaVuSansMono" font-size="10.00">client_listener</text>
</g>
<!-- Node1&#45;&gt;Node1 -->
<g id="edge2" class="edge"><title>Node1&#45;&gt;Node1</title>
<path fill="none" stroke="#9a32cd" stroke-dasharray="5,2" d="M465.112,-479.604C466.373,-484.518 472.669,-488.204 484,-488.204 502.129,-488.204 507.369,-478.769 499.721,-469.961"/>
<polygon fill="#9a32cd" stroke="#9a32cd" points="468.484,-480.554 468.279,-469.961 461.833,-478.37 468.484,-480.554"/>
<text text-anchor="middle" x="484" y="-502.204" font-family="DejaVuSansMono" font-size="10.00"> prev</text>
<text text-anchor="middle" x="484" y="-491.204" font-family="DejaVuSansMono" font-size="10.00">next</text>
</g>
<!-- Node3 -->
<g id="node5" class="node"><title>Node3</title>
<a xlink:href="../../d0/df0/xmpp__server_8c.html#d8/d34/structxmpp__server" target="_top" xlink:title="Holds data on a XMPP server (connected clients, routes, etc.).">
<polygon fill="none" stroke="black" points="684.5,-292.704 684.5,-311.704 767.5,-311.704 767.5,-292.704 684.5,-292.704"/>
<text text-anchor="middle" x="726" y="-299.704" font-family="DejaVuSansMono" font-size="10.00">xmpp_server</text>
</a>
</g>
<!-- Node1&#45;&gt;Node3 -->
<g id="edge38" class="edge"><title>Node1&#45;&gt;Node3</title>
<path fill="none" stroke="#9a32cd" stroke-dasharray="5,2" d="M534.05,-444.95C535.454,-443.791 536.778,-442.545 538,-441.204 559.64,-417.463 532.902,-393.528 556,-371.204 590.039,-338.305 616.713,-367.367 660,-348.204 680.985,-338.914 702.086,-322.33 714.328,-311.818"/>
<polygon fill="#9a32cd" stroke="#9a32cd" points="531.743,-442.276 525.279,-450.67 535.567,-448.139 531.743,-442.276"/>
<text text-anchor="middle" x="608" y="-374.204" font-family="DejaVuSansMono" font-size="10.00"> client_listeners</text>
</g>
<!-- Node2 -->
<g id="node3" class="node"><title>Node2</title>
<a xlink:href="../../dd/d4d/xmpp__client_8c.html#de/de2/structxmpp__client" target="_top" xlink:title="Data on a connected client.">
<polygon fill="none" stroke="black" points="854.5,-354.704 854.5,-373.704 937.5,-373.704 937.5,-354.704 854.5,-354.704"/>
<text text-anchor="middle" x="896" y="-361.704" font-family="DejaVuSansMono" font-size="10.00">xmpp_client</text>
</a>
</g>
<!-- Node2&#45;&gt;Node1 -->
<g id="edge4" class="edge"><title>Node2&#45;&gt;Node1</title>
<path fill="none" stroke="#9a32cd" stroke-dasharray="5,2" d="M844.231,-374.484C800.188,-383.517 734.768,-397.211 678,-410.204 623.57,-422.662 609.992,-425.965 556,-440.204 543.617,-443.469 530.075,-447.235 518.168,-450.613"/>
<polygon fill="#9a32cd" stroke="#9a32cd" points="845.024,-377.894 854.119,-372.46 843.621,-371.036 845.024,-377.894"/>
<text text-anchor="middle" x="726" y="-424.204" font-family="DejaVuSansMono" font-size="10.00"> client</text>
<text text-anchor="middle" x="726" y="-413.204" font-family="DejaVuSansMono" font-size="10.00">cb</text>
</g>
<!-- Node12 -->
<g id="node31" class="node"><title>Node12</title>
<a xlink:href="../../d0/df0/xmpp__server_8c.html#d5/da1/structc__client" target="_top" xlink:title="c_client">
<polygon fill="none" stroke="black" points="1018.5,-326.704 1018.5,-345.704 1083.5,-345.704 1083.5,-326.704 1018.5,-326.704"/>
<text text-anchor="middle" x="1051" y="-333.704" font-family="DejaVuSansMono" font-size="10.00">c_client</text>
</a>
</g>
<!-- Node2&#45;&gt;Node12 -->
<g id="edge44" class="edge"><title>Node2&#45;&gt;Node12</title>
<path fill="none" stroke="#9a32cd" stroke-dasharray="5,2" d="M947.696,-354.926C971.051,-350.652 998.041,-345.713 1018.43,-341.981"/>
<polygon fill="#9a32cd" stroke="#9a32cd" points="946.806,-351.531 937.6,-356.774 948.066,-358.416 946.806,-351.531"/>
<text text-anchor="middle" x="978" y="-355.204" font-family="DejaVuSansMono" font-size="10.00"> client</text>
</g>
<!-- Node3&#45;&gt;Node2 -->
<g id="edge6" class="edge"><title>Node3&#45;&gt;Node2</title>
<path fill="none" stroke="#9a32cd" stroke-dasharray="5,2" d="M757.35,-315.933C768.198,-320.666 780.566,-325.864 792,-330.204 815.767,-339.226 843.111,-348.187 863.649,-354.643"/>
<polygon fill="#9a32cd" stroke="#9a32cd" points="758.447,-312.592 747.885,-311.756 755.621,-318.996 758.447,-312.592"/>
<text text-anchor="middle" x="814" y="-347.204" font-family="DejaVuSansMono" font-size="10.00"> server</text>
</g>
<!-- Node4 -->
<g id="node7" class="node"><title>Node4</title>
<a xlink:href="../../d0/df0/xmpp__server_8c.html#d4/d94/structstanza__route" target="_top" xlink:title="Holds data on how to send a stanza to a particular JID.">
<polygon fill="none" stroke="black" points="439.5,-294.704 439.5,-313.704 528.5,-313.704 528.5,-294.704 439.5,-294.704"/>
<text text-anchor="middle" x="484" y="-301.704" font-family="DejaVuSansMono" font-size="10.00">stanza_route</text>
</a>
</g>
<!-- Node4&#45;&gt;Node3 -->
<g id="edge8" class="edge"><title>Node4&#45;&gt;Node3</title>
<path fill="none" stroke="#9a32cd" stroke-dasharray="5,2" d="M538.885,-303.399C544.662,-303.326 550.453,-303.259 556,-303.204 599.862,-302.765 650.13,-302.498 684.363,-302.351"/>
<polygon fill="#9a32cd" stroke="#9a32cd" points="538.508,-299.903 528.555,-303.534 538.6,-306.903 538.508,-299.903"/>
<text text-anchor="middle" x="608" y="-306.204" font-family="DejaVuSansMono" font-size="10.00"> stanza_routes</text>
</g>
<!-- Node4&#45;&gt;Node4 -->
<g id="edge10" class="edge"><title>Node4&#45;&gt;Node4</title>
<path fill="none" stroke="#9a32cd" stroke-dasharray="5,2" d="M465.112,-323.604C466.373,-328.518 472.669,-332.204 484,-332.204 502.129,-332.204 507.369,-322.769 499.721,-313.961"/>
<polygon fill="#9a32cd" stroke="#9a32cd" points="468.484,-324.554 468.279,-313.961 461.833,-322.37 468.484,-324.554"/>
<text text-anchor="middle" x="484" y="-346.204" font-family="DejaVuSansMono" font-size="10.00"> prev</text>
<text text-anchor="middle" x="484" y="-335.204" font-family="DejaVuSansMono" font-size="10.00">next</text>
</g>
<!-- Node5 -->
<g id="node10" class="node"><title>Node5</title>
<a xlink:href="../../d1/d59/xmpp__stanza_8c.html#d5/d6b/structxmpp__stanza" target="_top" xlink:title="xmpp_stanza">
<polygon fill="none" stroke="black" points="248.5,-402.704 248.5,-421.704 331.5,-421.704 331.5,-402.704 248.5,-402.704"/>
<text text-anchor="middle" x="290" y="-409.704" font-family="DejaVuSansMono" font-size="10.00">xmpp_stanza</text>
</a>
</g>
<!-- Node5&#45;&gt;Node4 -->
<g id="edge12" class="edge"><title>Node5&#45;&gt;Node4</title>
<path fill="none" stroke="#9a32cd" stroke-dasharray="5,2" d="M316.454,-397.424C326.837,-391.424 338.973,-384.448 350,-378.204 391.157,-354.897 439.783,-328.004 465.311,-313.935"/>
<polygon fill="#9a32cd" stroke="#9a32cd" points="314.394,-394.572 307.493,-402.611 317.901,-400.63 314.394,-394.572"/>
<text text-anchor="middle" x="381" y="-381.204" font-family="DejaVuSansMono" font-size="10.00"> cb</text>
</g>
<!-- Node5&#45;&gt;Node5 -->
<g id="edge18" class="edge"><title>Node5&#45;&gt;Node5</title>
<path fill="none" stroke="#9a32cd" stroke-dasharray="5,2" d="M273.334,-431.604C274.447,-436.518 280.002,-440.204 290,-440.204 305.996,-440.204 310.62,-430.769 303.872,-421.961"/>
<polygon fill="#9a32cd" stroke="#9a32cd" points="276.707,-432.54 276.128,-421.961 269.983,-430.592 276.707,-432.54"/>
<text text-anchor="middle" x="290" y="-476.204" font-family="DejaVuSansMono" font-size="10.00"> prev</text>
<text text-anchor="middle" x="290" y="-465.204" font-family="DejaVuSansMono" font-size="10.00">next</text>
<text text-anchor="middle" x="290" y="-454.204" font-family="DejaVuSansMono" font-size="10.00">parent</text>
<text text-anchor="middle" x="290" y="-443.204" font-family="DejaVuSansMono" font-size="10.00">children</text>
</g>
<!-- Node14 -->
<g id="node37" class="node"><title>Node14</title>
<a xlink:href="../../d0/df0/xmpp__server_8c.html#dd/d35/structiq__route" target="_top" xlink:title="Holds data on how to handle a particular iq stanza.">
<polygon fill="none" stroke="black" points="451.5,-372.704 451.5,-391.704 516.5,-391.704 516.5,-372.704 451.5,-372.704"/>
<text text-anchor="middle" x="484" y="-379.704" font-family="DejaVuSansMono" font-size="10.00">iq_route</text>
</a>
</g>
<!-- Node5&#45;&gt;Node14 -->
<g id="edge50" class="edge"><title>Node5&#45;&gt;Node14</title>
<path fill="none" stroke="#9a32cd" stroke-dasharray="5,2" d="M341.681,-404.285C376.418,-398.857 421.431,-391.824 451.214,-387.17"/>
<polygon fill="#9a32cd" stroke="#9a32cd" points="341.058,-400.84 331.718,-405.842 342.139,-407.756 341.058,-400.84"/>
<text text-anchor="middle" x="381" y="-405.204" font-family="DejaVuSansMono" font-size="10.00"> cb</text>
</g>
<!-- Node16 -->
<g id="node45" class="node"><title>Node16</title>
<a xlink:href="../../d1/dc2/xmpp__parser_8c.html#d2/da4/structxmpp__parser" target="_top" xlink:title="Structure holding state for the XML parser.">
<polygon fill="none" stroke="black" points="442.5,-528.704 442.5,-547.704 525.5,-547.704 525.5,-528.704 442.5,-528.704"/>
<text text-anchor="middle" x="484" y="-535.704" font-family="DejaVuSansMono" font-size="10.00">xmpp_parser</text>
</a>
</g>
<!-- Node5&#45;&gt;Node16 -->
<g id="edge64" class="edge"><title>Node5&#45;&gt;Node16</title>
<path fill="none" stroke="#9a32cd" stroke-dasharray="5,2" d="M317.014,-427.097C342.711,-442.508 382.36,-468.212 412,-496.204 421.437,-505.116 419.477,-511.604 430,-519.204 435.309,-523.038 441.47,-526.167 447.672,-528.697"/>
<polygon fill="#9a32cd" stroke="#9a32cd" points="318.612,-423.976 308.223,-421.9 315.05,-430.002 318.612,-423.976"/>
<text text-anchor="middle" x="381" y="-510.204" font-family="DejaVuSansMono" font-size="10.00"> handler</text>
<text text-anchor="middle" x="381" y="-499.204" font-family="DejaVuSansMono" font-size="10.00">cur_stanza</text>
</g>
<!-- Node6 -->
<g id="node12" class="node"><title>Node6</title>
<a xlink:href="../../d1/dc2/xmpp__parser_8c.html#dc/d9d/structxmpp__parser__namespace" target="_top" xlink:title="Structure representing an XML namespace.">
<polygon fill="none" stroke="black" points="0.5,-481.704 0.5,-500.704 143.5,-500.704 143.5,-481.704 0.5,-481.704"/>
<text text-anchor="middle" x="72" y="-488.704" font-family="DejaVuSansMono" font-size="10.00">xmpp_parser_namespace</text>
</a>
</g>
<!-- Node6&#45;&gt;Node5 -->
<g id="edge14" class="edge"><title>Node6&#45;&gt;Node5</title>
<path fill="none" stroke="#9a32cd" stroke-dasharray="5,2" d="M108.64,-478.169C152.031,-462.299 224.283,-435.873 262.853,-421.767"/>
<polygon fill="#9a32cd" stroke="#9a32cd" points="107.244,-474.953 99.0546,-481.675 109.648,-481.527 107.244,-474.953"/>
<text text-anchor="middle" x="196" y="-459.204" font-family="DejaVuSansMono" font-size="10.00"> namespaces</text>
</g>
<!-- Node6&#45;&gt;Node6 -->
<g id="edge16" class="edge"><title>Node6&#45;&gt;Node6</title>
<path fill="none" stroke="#9a32cd" stroke-dasharray="5,2" d="M48.9346,-510.233C50.1928,-515.332 57.8812,-519.204 72,-519.204 94.0391,-519.204 100.41,-509.769 91.112,-500.961"/>
<polygon fill="#9a32cd" stroke="#9a32cd" points="52.1854,-511.532 52.888,-500.961 45.7463,-508.787 52.1854,-511.532"/>
<text text-anchor="middle" x="72" y="-522.204" font-family="DejaVuSansMono" font-size="10.00"> next</text>
</g>
<!-- Node6&#45;&gt;Node16 -->
<g id="edge62" class="edge"><title>Node6&#45;&gt;Node16</title>
<path fill="none" stroke="#9a32cd" stroke-dasharray="5,2" d="M154.046,-500.494C241.005,-510.463 375.609,-525.893 442.46,-533.557"/>
<polygon fill="#9a32cd" stroke="#9a32cd" points="154.282,-496.999 143.948,-499.337 153.485,-503.953 154.282,-496.999"/>
<text text-anchor="middle" x="290" y="-522.204" font-family="DejaVuSansMono" font-size="10.00"> namespaces</text>
</g>
<!-- Node7 -->
<g id="node16" class="node"><title>Node7</title>
<a xlink:href="../../d1/d59/xmpp__stanza_8c.html#d9/d18/structattribute" target="_top" xlink:title="Structure to store a stanza attribute.">
<polygon fill="none" stroke="black" points="36.5,-402.704 36.5,-421.704 107.5,-421.704 107.5,-402.704 36.5,-402.704"/>
<text text-anchor="middle" x="72" y="-409.704" font-family="DejaVuSansMono" font-size="10.00">attribute</text>
</a>
</g>
<!-- Node7&#45;&gt;Node5 -->
<g id="edge20" class="edge"><title>Node7&#45;&gt;Node5</title>
<path fill="none" stroke="#9a32cd" stroke-dasharray="5,2" d="M118.094,-412.204C156.57,-412.204 211.398,-412.204 248.495,-412.204"/>
<polygon fill="#9a32cd" stroke="#9a32cd" points="117.704,-408.704 107.704,-412.204 117.704,-415.704 117.704,-408.704"/>
<text text-anchor="middle" x="196" y="-415.204" font-family="DejaVuSansMono" font-size="10.00"> attributes</text>
</g>
<!-- Node8 -->
<g id="node18" class="node"><title>Node8</title>
<a xlink:href="../../d3/d5a/jid_8c.html#df/d09/structjid" target="_top" xlink:title="Represents a JID (local/resource).">
<polygon fill="none" stroke="black" points="272.5,-189.704 272.5,-208.704 307.5,-208.704 307.5,-189.704 272.5,-189.704"/>
<text text-anchor="middle" x="290" y="-196.704" font-family="DejaVuSansMono" font-size="10.00">jid</text>
</a>
</g>
<!-- Node8&#45;&gt;Node2 -->
<g id="edge66" class="edge"><title>Node8&#45;&gt;Node2</title>
<path fill="none" stroke="#9a32cd" stroke-dasharray="5,2" d="M310.819,-183.285C336.491,-163.889 383.485,-132.44 430,-122.204 530.106,-100.175 568.592,-92.8246 660,-139.204 770.435,-195.237 757.25,-261.906 854,-339.204 861.165,-344.928 869.742,-350.349 877.195,-354.67"/>
<polygon fill="#9a32cd" stroke="#9a32cd" points="308.436,-180.704 302.664,-189.588 312.716,-186.242 308.436,-180.704"/>
<text text-anchor="middle" x="608" y="-142.204" font-family="DejaVuSansMono" font-size="10.00"> jid</text>
</g>
<!-- Node8&#45;&gt;Node3 -->
<g id="edge54" class="edge"><title>Node8&#45;&gt;Node3</title>
<path fill="none" stroke="#9a32cd" stroke-dasharray="5,2" d="M317.921,-200.848C380.129,-205.363 537.87,-220.943 660,-268.204 677.459,-274.96 696.3,-285.168 709.179,-292.636"/>
<polygon fill="#9a32cd" stroke="#9a32cd" points="317.994,-197.345 307.777,-200.15 317.513,-204.328 317.994,-197.345"/>
<text text-anchor="middle" x="484" y="-234.204" font-family="DejaVuSansMono" font-size="10.00"> jid</text>
</g>
<!-- Node8&#45;&gt;Node4 -->
<g id="edge22" class="edge"><title>Node8&#45;&gt;Node4</title>
<path fill="none" stroke="#9a32cd" stroke-dasharray="5,2" d="M312.028,-215.071C323.112,-223.204 337.061,-233.078 350,-241.204 384.364,-262.784 393.007,-268.527 430,-285.204 437.574,-288.618 445.962,-291.86 453.788,-294.667"/>
<polygon fill="#9a32cd" stroke="#9a32cd" points="313.943,-212.134 303.826,-208.989 309.774,-217.757 313.943,-212.134"/>
<text text-anchor="middle" x="381" y="-279.204" font-family="DejaVuSansMono" font-size="10.00"> jid</text>
</g>
<!-- Node11 -->
<g id="node26" class="node"><title>Node11</title>
<a xlink:href="../../d0/df0/xmpp__server_8c.html#d9/dbe/structdisco__item" target="_top" xlink:title="Holds data for items to report during a DISCO items query.">
<polygon fill="none" stroke="black" points="445.5,-131.704 445.5,-150.704 522.5,-150.704 522.5,-131.704 445.5,-131.704"/>
<text text-anchor="middle" x="484" y="-138.704" font-family="DejaVuSansMono" font-size="10.00">disco_item</text>
</a>
</g>
<!-- Node8&#45;&gt;Node11 -->
<g id="edge36" class="edge"><title>Node8&#45;&gt;Node11</title>
<path fill="none" stroke="#9a32cd" stroke-dasharray="5,2" d="M317.668,-191.148C352.688,-180.569 414.088,-162.021 451.4,-150.75"/>
<polygon fill="#9a32cd" stroke="#9a32cd" points="316.263,-187.916 307.703,-194.158 318.288,-194.617 316.263,-187.916"/>
<text text-anchor="middle" x="381" y="-183.204" font-family="DejaVuSansMono" font-size="10.00"> jid</text>
</g>
<!-- Node9 -->
<g id="node20" class="node"><title>Node9</title>
<a xlink:href="../../d0/deb/event_8c.html#d9/de5/structevent__loop" target="_top" xlink:title="Contains data about the whole event loop.">
<polygon fill="none" stroke="black" points="445.5,-25.7038 445.5,-44.7038 522.5,-44.7038 522.5,-25.7038 445.5,-25.7038"/>
<text text-anchor="middle" x="484" y="-32.7038" font-family="DejaVuSansMono" font-size="10.00">event_loop</text>
</a>
</g>
<!-- Node9&#45;&gt;Node3 -->
<g id="edge24" class="edge"><title>Node9&#45;&gt;Node3</title>
<path fill="none" stroke="#9a32cd" stroke-dasharray="5,2" d="M532.672,-42.127C581.22,-49.5872 650.666,-61.5514 660,-70.2038 726.875,-132.194 726.989,-256.844 725.549,-292.484"/>
<polygon fill="#9a32cd" stroke="#9a32cd" points="533.071,-38.6476 522.659,-40.6063 532.02,-45.5682 533.071,-38.6476"/>
<text text-anchor="middle" x="608" y="-73.2038" font-family="DejaVuSansMono" font-size="10.00"> loop</text>
</g>
<!-- Node10 -->
<g id="node22" class="node"><title>Node10</title>
<a xlink:href="../../d0/deb/event_8c.html#de/dcb/structevent__item" target="_top" xlink:title="Contains data for one callback function.">
<polygon fill="none" stroke="black" points="687.5,-3.70379 687.5,-22.7038 764.5,-22.7038 764.5,-3.70379 687.5,-3.70379"/>
<text text-anchor="middle" x="726" y="-10.7038" font-family="DejaVuSansMono" font-size="10.00">event_item</text>
</a>
</g>
<!-- Node9&#45;&gt;Node10 -->
<g id="edge28" class="edge"><title>Node9&#45;&gt;Node10</title>
<path fill="none" stroke="#9a32cd" stroke-dasharray="5,2" d="M511.446,-21.0468C524.467,-14.8618 540.637,-8.3163 556,-5.20379 600.478,3.80726 652.825,-0.972161 687.342,-6.17862"/>
<polygon fill="#9a32cd" stroke="#9a32cd" points="509.575,-18.0678 502.168,-25.6434 512.683,-24.3402 509.575,-18.0678"/>
<text text-anchor="middle" x="608" y="-8.20379" font-family="DejaVuSansMono" font-size="10.00"> func</text>
</g>
<!-- Node10&#45;&gt;Node9 -->
<g id="edge26" class="edge"><title>Node10&#45;&gt;Node9</title>
<path fill="none" stroke="#9a32cd" stroke-dasharray="5,2" d="M677.273,-17.5787C631.889,-21.7389 564.525,-27.914 522.764,-31.7421"/>
<polygon fill="#9a32cd" stroke="#9a32cd" points="677.817,-21.0436 687.456,-16.6453 677.178,-14.0728 677.817,-21.0436"/>
<text text-anchor="middle" x="608" y="-31.2038" font-family="DejaVuSansMono" font-size="10.00"> events</text>
</g>
<!-- Node10&#45;&gt;Node10 -->
<g id="edge30" class="edge"><title>Node10&#45;&gt;Node10</title>
<path fill="none" stroke="#9a32cd" stroke-dasharray="5,2" d="M709.705,-32.6038C710.793,-37.5183 716.225,-41.2038 726,-41.2038 741.641,-41.2038 746.162,-31.7691 739.563,-22.9608"/>
<polygon fill="#9a32cd" stroke="#9a32cd" points="713.078,-33.5362 712.437,-22.9608 706.343,-31.628 713.078,-33.5362"/>
<text text-anchor="middle" x="726" y="-55.2038" font-family="DejaVuSansMono" font-size="10.00"> prev</text>
<text text-anchor="middle" x="726" y="-44.2038" font-family="DejaVuSansMono" font-size="10.00">next</text>
</g>
<!-- Node11&#45;&gt;Node3 -->
<g id="edge32" class="edge"><title>Node11&#45;&gt;Node3</title>
<path fill="none" stroke="#9a32cd" stroke-dasharray="5,2" d="M532.791,-149.064C570.485,-157.205 622.737,-172.99 660,-202.204 691.939,-227.244 713.073,-272.56 721.225,-292.426"/>
<polygon fill="#9a32cd" stroke="#9a32cd" points="533.07,-145.549 522.57,-146.966 531.662,-152.406 533.07,-145.549"/>
<text text-anchor="middle" x="608" y="-205.204" font-family="DejaVuSansMono" font-size="10.00"> disco_items</text>
</g>
<!-- Node11&#45;&gt;Node11 -->
<g id="edge34" class="edge"><title>Node11&#45;&gt;Node11</title>
<path fill="none" stroke="#9a32cd" stroke-dasharray="5,2" d="M465.112,-160.604C466.373,-165.518 472.669,-169.204 484,-169.204 502.129,-169.204 507.369,-159.769 499.721,-150.961"/>
<polygon fill="#9a32cd" stroke="#9a32cd" points="468.484,-161.554 468.279,-150.961 461.833,-159.37 468.484,-161.554"/>
<text text-anchor="middle" x="484" y="-183.204" font-family="DejaVuSansMono" font-size="10.00"> prev</text>
<text text-anchor="middle" x="484" y="-172.204" font-family="DejaVuSansMono" font-size="10.00">next</text>
</g>
<!-- Node12&#45;&gt;Node3 -->
<g id="edge40" class="edge"><title>Node12&#45;&gt;Node3</title>
<path fill="none" stroke="#9a32cd" stroke-dasharray="5,2" d="M1007.79,-331.761C945.339,-325.187 829.086,-312.95 767.581,-306.475"/>
<polygon fill="#9a32cd" stroke="#9a32cd" points="1007.76,-335.277 1018.07,-332.843 1008.49,-328.315 1007.76,-335.277"/>
<text text-anchor="middle" x="896" y="-327.204" font-family="DejaVuSansMono" font-size="10.00"> clients</text>
</g>
<!-- Node12&#45;&gt;Node12 -->
<g id="edge42" class="edge"><title>Node12&#45;&gt;Node12</title>
<path fill="none" stroke="#9a32cd" stroke-dasharray="5,2" d="M1037.74,-355.97C1038.78,-360.7 1043.2,-364.204 1051,-364.204 1063.8,-364.204 1067.5,-354.769 1062.1,-345.961"/>
<polygon fill="#9a32cd" stroke="#9a32cd" points="1041.21,-356.474 1039.9,-345.961 1034.37,-354.996 1041.21,-356.474"/>
<text text-anchor="middle" x="1051" y="-378.204" font-family="DejaVuSansMono" font-size="10.00"> prev</text>
<text text-anchor="middle" x="1051" y="-367.204" font-family="DejaVuSansMono" font-size="10.00">next</text>
</g>
<!-- Node13 -->
<g id="node35" class="node"><title>Node13</title>
<a xlink:href="../../d9/db0/structauth__callback.html" target="_top" xlink:title="Holds data for an authentication callback.">
<polygon fill="none" stroke="black" points="436.5,-256.704 436.5,-275.704 531.5,-275.704 531.5,-256.704 436.5,-256.704"/>
<text text-anchor="middle" x="484" y="-263.704" font-family="DejaVuSansMono" font-size="10.00">auth_callback</text>
</a>
</g>
<!-- Node13&#45;&gt;Node3 -->
<g id="edge46" class="edge"><title>Node13&#45;&gt;Node3</title>
<path fill="none" stroke="#9a32cd" stroke-dasharray="5,2" d="M541.935,-271.474C576.267,-275.04 620.801,-280.349 660,-287.204 668.67,-288.72 677.921,-290.658 686.644,-292.634"/>
<polygon fill="#9a32cd" stroke="#9a32cd" points="541.928,-267.955 531.624,-270.424 541.218,-274.919 541.928,-267.955"/>
<text text-anchor="middle" x="608" y="-290.204" font-family="DejaVuSansMono" font-size="10.00"> auth_callback</text>
</g>
<!-- Node14&#45;&gt;Node3 -->
<g id="edge48" class="edge"><title>Node14&#45;&gt;Node3</title>
<path fill="none" stroke="#9a32cd" stroke-dasharray="5,2" d="M526.057,-370.461C530.293,-368.395 534.369,-365.991 538,-363.204 549.148,-354.645 544.28,-344.962 556,-337.204 561.372,-333.648 635.815,-319.071 684.089,-309.887"/>
<polygon fill="#9a32cd" stroke="#9a32cd" points="524.469,-367.333 516.635,-374.466 527.208,-373.775 524.469,-367.333"/>
<text text-anchor="middle" x="608" y="-340.204" font-family="DejaVuSansMono" font-size="10.00"> iq_routes</text>
</g>
<!-- Node14&#45;&gt;Node14 -->
<g id="edge52" class="edge"><title>Node14&#45;&gt;Node14</title>
<path fill="none" stroke="#9a32cd" stroke-dasharray="5,2" d="M465.112,-401.604C466.373,-406.518 472.669,-410.204 484,-410.204 502.129,-410.204 507.369,-400.769 499.721,-391.961"/>
<polygon fill="#9a32cd" stroke="#9a32cd" points="468.484,-402.554 468.279,-391.961 461.833,-400.37 468.484,-402.554"/>
<text text-anchor="middle" x="484" y="-424.204" font-family="DejaVuSansMono" font-size="10.00"> prev</text>
<text text-anchor="middle" x="484" y="-413.204" font-family="DejaVuSansMono" font-size="10.00">next</text>
</g>
<!-- Node15 -->
<g id="node42" class="node"><title>Node15</title>
<a xlink:href="../../d9/d71/client__socket_8h.html#df/d6d/structclient__socket" target="_top" xlink:title="client_socket">
<polygon fill="none" stroke="black" points="678.5,-483.704 678.5,-502.704 773.5,-502.704 773.5,-483.704 678.5,-483.704"/>
<text text-anchor="middle" x="726" y="-490.704" font-family="DejaVuSansMono" font-size="10.00">client_socket</text>
</a>
</g>
<!-- Node15&#45;&gt;Node2 -->
<g id="edge56" class="edge"><title>Node15&#45;&gt;Node2</title>
<path fill="none" stroke="#9a32cd" stroke-dasharray="5,2" d="M783.651,-489.227C801.744,-485.715 820.957,-479.407 836,-468.204 869.132,-443.53 886.405,-394.373 892.455,-373.706"/>
<polygon fill="#9a32cd" stroke="#9a32cd" points="783.024,-485.783 773.749,-490.903 784.193,-492.685 783.024,-485.783"/>
<text text-anchor="middle" x="814" y="-489.204" font-family="DejaVuSansMono" font-size="10.00"> socket</text>
</g>
<!-- Node15&#45;&gt;Node15 -->
<g id="edge58" class="edge"><title>Node15&#45;&gt;Node15</title>
<path fill="none" stroke="#9a32cd" stroke-dasharray="5,2" d="M709.705,-512.604C710.793,-517.518 716.225,-521.204 726,-521.204 741.641,-521.204 746.162,-511.769 739.563,-502.961"/>
<polygon fill="#9a32cd" stroke="#9a32cd" points="713.078,-513.536 712.437,-502.961 706.343,-511.628 713.078,-513.536"/>
<text text-anchor="middle" x="726" y="-579.204" font-family="DejaVuSansMono" font-size="10.00"> recv_func</text>
<text text-anchor="middle" x="726" y="-568.204" font-family="DejaVuSansMono" font-size="10.00">send_func</text>
<text text-anchor="middle" x="726" y="-557.204" font-family="DejaVuSansMono" font-size="10.00">close_func</text>
<text text-anchor="middle" x="726" y="-546.204" font-family="DejaVuSansMono" font-size="10.00">del_func</text>
<text text-anchor="middle" x="726" y="-535.204" font-family="DejaVuSansMono" font-size="10.00">fd_func</text>
<text text-anchor="middle" x="726" y="-524.204" font-family="DejaVuSansMono" font-size="10.00">str_func</text>
</g>
<!-- Node16&#45;&gt;Node2 -->
<g id="edge60" class="edge"><title>Node16&#45;&gt;Node2</title>
<path fill="none" stroke="#9a32cd" stroke-dasharray="5,2" d="M521.879,-525.178C527.297,-523.207 532.802,-521.175 538,-519.204 600.664,-495.448 614.966,-485.958 678,-463.204 720.172,-447.98 732.919,-450.165 774,-432.204 813.963,-414.731 857.903,-387.973 880.219,-373.794"/>
<polygon fill="#9a32cd" stroke="#9a32cd" points="520.525,-521.945 512.305,-528.629 522.899,-528.53 520.525,-521.945"/>
<text text-anchor="middle" x="726" y="-466.204" font-family="DejaVuSansMono" font-size="10.00"> parser</text>
</g>
</g>
</svg>
        <g id="navigator" transform="translate(0 0)" fill="#404254">
                <rect fill="#f2f5e9" fill-opacity="0.5" stroke="#606060" stroke-width=".5" x="0" y="0" width="60" height="60"/>
                <use id="zoomplus" xlink:href="#zoomPlus" x="17" y="9" onmousedown="handleZoom(evt,'in')"/>
                <use id="zoomminus" xlink:href="#zoomMin" x="42" y="9" onmousedown="handleZoom(evt,'out')"/>
                <use id="reset" xlink:href="#resetDef" x="30" y="36" onmousedown="handleReset()"/>
                <g id="arrowUp" xlink:href="#dirArrow" transform="translate(30 24)" onmousedown="handlePan(0,-1)">
                  <use xlink:href="#rim" fill="#404040">
                        <set attributeName="fill" to="#808080" begin="arrowUp.mouseover" end="arrowUp.mouseout"/>
                  </use>
                  <path fill="none" stroke="white" stroke-width="1.5" d="M0,-3.0v7 M-2.5,-0.5L0,-3.0L2.5,-0.5"/>
                </g>
                <g id="arrowRight" xlink:href="#dirArrow" transform="rotate(90) translate(36 -43)" onmousedown="handlePan(1,0)">
                  <use xlink:href="#rim" fill="#404040">
                        <set attributeName="fill" to="#808080" begin="arrowRight.mouseover" end="arrowRight.mouseout"/>
                  </use>
                  <path fill="none" stroke="white" stroke-width="1.5" d="M0,-3.0v7 M-2.5,-0.5L0,-3.0L2.5,-0.5"/>
                </g>
                <g id="arrowDown" xlink:href="#dirArrow" transform="rotate(180) translate(-30 -48)" onmousedown="handlePan(0,1)">
                  <use xlink:href="#rim" fill="#404040">
                        <set attributeName="fill" to="#808080" begin="arrowDown.mouseover" end="arrowDown.mouseout"/>
                  </use>
                  <path fill="none" stroke="white" stroke-width="1.5" d="M0,-3.0v7 M-2.5,-0.5L0,-3.0L2.5,-0.5"/>
                </g>
                <g id="arrowLeft" xlink:href="#dirArrow" transform="rotate(270) translate(-36 17)" onmousedown="handlePan(-1,0)">
                  <use xlink:href="#rim" fill="#404040">
                        <set attributeName="fill" to="#808080" begin="arrowLeft.mouseover" end="arrowLeft.mouseout"/>
                  </use>
                  <path fill="none" stroke="white" stroke-width="1.5" d="M0,-3.0v7 M-2.5,-0.5L0,-3.0L2.5,-0.5"/>
                </g>
        </g>
        <svg viewBox="0 0 25 25" width="100%" height="30px" preserveAspectRatio="xMaxYMin meet"> 
          <g id="printButton" transform="scale(0.4 0.4)" onmousedown="handlePrint(evt)">
            <rect height="23.33753581" id="paper" rx="2" style="fill:#f2f5e9;fill-rule:evenodd;stroke:#111111;stroke-width:3.224;stroke-linejoin:round;" transform="matrix(1.000000,0.000000,-0.339266,0.940691,0.000000,0.000000)" width="25.55231285" x="26.69387353" y="7.36162977"/>
            <rect height="26.272097" id="body" rx="2" style="fill:#404040;fill-rule:evenodd;stroke:#111111;stroke-width:3.125;stroke-linejoin:round;" width="50" x="4.5295201" y="27.078951"/>
            <rect height="8.27750969" id="tray" style="fill:#d2d5c9;fill-rule:evenodd;stroke:#111111;stroke-width:3.125;stroke-linecap:round;stroke-linejoin:round;" width="40" x="10.28778839" y="44.96812282"/>
          </g>
        </svg>
</svg>
