<?xml version="1.0" encoding="UTF-8" standalone="no"?>
<!DOCTYPE svg PUBLIC "-//W3C//DTD SVG 1.1//EN"
 "http://www.w3.org/Graphics/SVG/1.1/DTD/svg11.dtd">
<!-- Generated by graphviz version 2.28.0 (20120217.0315)
 -->
<!-- Title: G Pages: 1 -->
<!--zoomable 84 -->
<svg id="main" version="1.1" xmlns="http://www.w3.org/2000/svg" xmlns:xlink="http://www.w3.org/1999/xlink" xml:space="preserve" onload="init(evt)">
        <defs>
                <circle id="rim" cx="0" cy="0" r="7"/>
                <circle id="rim2" cx="0" cy="0" r="3.5"/>
                <g id="zoomPlus">
                        <use xlink:href="#rim" fill="#404040">
                                <set attributeName="fill" to="#808080" begin="zoomplus.mouseover" end="zoomplus.mouseout"/>
                        </use>
                        <path d="M-4,0h8M0,-4v8" fill="none" stroke="white" stroke-width="1.5" pointer-events="none"/>
                </g>
                <g id="zoomMin">
                        <use xlink:href="#rim" fill="#404040">
                                <set attributeName="fill" to="#808080" begin="zoomminus.mouseover" end="zoomminus.mouseout"/>
                        </use>
                        <path d="M-4,0h8" fill="none" stroke="white" stroke-width="1.5" pointer-events="none"/>
                </g>
                <g id="dirArrow">
                        <path fill="none" stroke="white" stroke-width="1.5" d="M0,-3.0v7 M-2.5,-0.5L0,-3.0L2.5,-0.5"/>
                </g>
               <g id="resetDef">
                       <use xlink:href="#rim2" fill="#404040">
                               <set attributeName="fill" to="#808080" begin="reset.mouseover" end="reset.mouseout"/>
                       </use>
               </g>
        </defs>

<script type="text/javascript">
var viewWidth = 632;
var viewHeight = 84;
var sectionId = 'dynsection-1';
</script>
<script xlink:href="../../svgpan.js"/>
<svg id="graph" class="graph">
<g id="viewport">
<title>G</title>
<!-- Node1 -->
<g id="node1" class="node"><title>Node1</title>
<polygon fill="#bfbfbf" stroke="black" points="207.5,-56.5 207.5,-75.5 326.5,-75.5 326.5,-56.5 207.5,-56.5"/>
<text text-anchor="middle" x="267" y="-63.5" font-family="DejaVuSansMono" font-size="10.00">src/xmp3_module.h</text>
</g>
<!-- Node2 -->
<g id="node3" class="node"><title>Node2</title>
<a xlink:href="../../d0/d29/main_8c.html" target="_top" xlink:title="Main function and argument parsing.">
<polygon fill="none" stroke="black" points="-0.5,-0.5 -0.5,-19.5 76.5,-19.5 76.5,-0.5 -0.5,-0.5"/>
<text text-anchor="middle" x="38" y="-7.5" font-family="DejaVuSansMono" font-size="10.00">src/main.c</text>
</a>
</g>
<!-- Node1&#45;&gt;Node2 -->
<g id="edge2" class="edge"><title>Node1&#45;&gt;Node2</title>
<path fill="none" stroke="midnightblue" d="M220.727,-54.0884C177.463,-43.8865 113.745,-28.8612 74.116,-19.5164"/>
<polygon fill="midnightblue" stroke="midnightblue" points="220.178,-57.5549 230.714,-56.4435 221.785,-50.7418 220.178,-57.5549"/>
</g>
<!-- Node3 -->
<g id="node5" class="node"><title>Node3</title>
<a xlink:href="../../d7/d71/xep__muc_8c.html" target="_top" xlink:title="Implements XEP&#45;0045 Multi&#45;User Chat.">
<polygon fill="none" stroke="black" points="94.5,-0.5 94.5,-19.5 189.5,-19.5 189.5,-0.5 94.5,-0.5"/>
<text text-anchor="middle" x="142" y="-7.5" font-family="DejaVuSansMono" font-size="10.00">src/xep_muc.c</text>
</a>
</g>
<!-- Node1&#45;&gt;Node3 -->
<g id="edge4" class="edge"><title>Node1&#45;&gt;Node3</title>
<path fill="none" stroke="midnightblue" d="M237.759,-52.3678C214.35,-42.2553 182.159,-28.3486 161.714,-19.5164"/>
<polygon fill="midnightblue" stroke="midnightblue" points="236.625,-55.6907 247.193,-56.4435 239.401,-49.2647 236.625,-55.6907"/>
</g>
<!-- Node4 -->
<g id="node7" class="node"><title>Node4</title>
<a xlink:href="../../d3/dd8/xmp3__module_8c.html" target="_top" xlink:title="Defines structures and functions for XMP3 extension modules.">
<polygon fill="none" stroke="black" points="207.5,-0.5 207.5,-19.5 326.5,-19.5 326.5,-0.5 207.5,-0.5"/>
<text text-anchor="middle" x="267" y="-7.5" font-family="DejaVuSansMono" font-size="10.00">src/xmp3_module.c</text>
</a>
</g>
<!-- Node1&#45;&gt;Node4 -->
<g id="edge6" class="edge"><title>Node1&#45;&gt;Node4</title>
<path fill="none" stroke="midnightblue" d="M267,-45.8045C267,-36.9102 267,-26.7798 267,-19.7511"/>
<polygon fill="midnightblue" stroke="midnightblue" points="263.5,-46.083 267,-56.083 270.5,-46.083 263.5,-46.083"/>
</g>
<!-- Node5 -->
<g id="node9" class="node"><title>Node5</title>
<a xlink:href="../../d6/d78/xmp3__multicast_8c.html" target="_top" xlink:title="Simple extension module that multicasts messages to other XMP3 instances.">
<polygon fill="none" stroke="black" points="344.5,-0.5 344.5,-19.5 481.5,-19.5 481.5,-0.5 344.5,-0.5"/>
<text text-anchor="middle" x="413" y="-7.5" font-family="DejaVuSansMono" font-size="10.00">src/xmp3_multicast.c</text>
</a>
</g>
<!-- Node1&#45;&gt;Node5 -->
<g id="edge8" class="edge"><title>Node1&#45;&gt;Node5</title>
<path fill="none" stroke="midnightblue" d="M299.699,-52.9058C327.148,-42.7536 365.668,-28.5063 389.974,-19.5164"/>
<polygon fill="midnightblue" stroke="midnightblue" points="298.299,-49.6919 290.134,-56.4435 300.727,-56.2572 298.299,-49.6919"/>
</g>
<!-- Node6 -->
<g id="node11" class="node"><title>Node6</title>
<a xlink:href="../../dd/d68/xmp3__options_8c.html" target="_top" xlink:title="Functions for maintaining settings for XMP3.">
<polygon fill="none" stroke="black" points="499.5,-0.5 499.5,-19.5 624.5,-19.5 624.5,-0.5 499.5,-0.5"/>
<text text-anchor="middle" x="562" y="-7.5" font-family="DejaVuSansMono" font-size="10.00">src/xmp3_options.c</text>
</a>
</g>
<!-- Node1&#45;&gt;Node6 -->
<g id="edge10" class="edge"><title>Node1&#45;&gt;Node6</title>
<path fill="none" stroke="midnightblue" d="M323.811,-54.6007C379.563,-44.3953 463.564,-29.0189 515.475,-19.5164"/>
<polygon fill="midnightblue" stroke="midnightblue" points="322.95,-51.2001 313.744,-56.4435 324.21,-58.0857 322.95,-51.2001"/>
</g>
</g>
</svg>
        <g id="navigator" transform="translate(0 0)" fill="#404254">
                <rect fill="#f2f5e9" fill-opacity="0.5" stroke="#606060" stroke-width=".5" x="0" y="0" width="60" height="60"/>
                <use id="zoomplus" xlink:href="#zoomPlus" x="17" y="9" onmousedown="handleZoom(evt,'in')"/>
                <use id="zoomminus" xlink:href="#zoomMin" x="42" y="9" onmousedown="handleZoom(evt,'out')"/>
                <use id="reset" xlink:href="#resetDef" x="30" y="36" onmousedown="handleReset()"/>
                <g id="arrowUp" xlink:href="#dirArrow" transform="translate(30 24)" onmousedown="handlePan(0,-1)">
                  <use xlink:href="#rim" fill="#404040">
                        <set attributeName="fill" to="#808080" begin="arrowUp.mouseover" end="arrowUp.mouseout"/>
                  </use>
                  <path fill="none" stroke="white" stroke-width="1.5" d="M0,-3.0v7 M-2.5,-0.5L0,-3.0L2.5,-0.5"/>
                </g>
                <g id="arrowRight" xlink:href="#dirArrow" transform="rotate(90) translate(36 -43)" onmousedown="handlePan(1,0)">
                  <use xlink:href="#rim" fill="#404040">
                        <set attributeName="fill" to="#808080" begin="arrowRight.mouseover" end="arrowRight.mouseout"/>
                  </use>
                  <path fill="none" stroke="white" stroke-width="1.5" d="M0,-3.0v7 M-2.5,-0.5L0,-3.0L2.5,-0.5"/>
                </g>
                <g id="arrowDown" xlink:href="#dirArrow" transform="rotate(180) translate(-30 -48)" onmousedown="handlePan(0,1)">
                  <use xlink:href="#rim" fill="#404040">
                        <set attributeName="fill" to="#808080" begin="arrowDown.mouseover" end="arrowDown.mouseout"/>
                  </use>
                  <path fill="none" stroke="white" stroke-width="1.5" d="M0,-3.0v7 M-2.5,-0.5L0,-3.0L2.5,-0.5"/>
                </g>
                <g id="arrowLeft" xlink:href="#dirArrow" transform="rotate(270) translate(-36 17)" onmousedown="handlePan(-1,0)">
                  <use xlink:href="#rim" fill="#404040">
                        <set attributeName="fill" to="#808080" begin="arrowLeft.mouseover" end="arrowLeft.mouseout"/>
                  </use>
                  <path fill="none" stroke="white" stroke-width="1.5" d="M0,-3.0v7 M-2.5,-0.5L0,-3.0L2.5,-0.5"/>
                </g>
        </g>
        <svg viewBox="0 0 25 25" width="100%" height="30px" preserveAspectRatio="xMaxYMin meet"> 
          <g id="printButton" transform="scale(0.4 0.4)" onmousedown="handlePrint(evt)">
            <rect height="23.33753581" id="paper" rx="2" style="fill:#f2f5e9;fill-rule:evenodd;stroke:#111111;stroke-width:3.224;stroke-linejoin:round;" transform="matrix(1.000000,0.000000,-0.339266,0.940691,0.000000,0.000000)" width="25.55231285" x="26.69387353" y="7.36162977"/>
            <rect height="26.272097" id="body" rx="2" style="fill:#404040;fill-rule:evenodd;stroke:#111111;stroke-width:3.125;stroke-linejoin:round;" width="50" x="4.5295201" y="27.078951"/>
            <rect height="8.27750969" id="tray" style="fill:#d2d5c9;fill-rule:evenodd;stroke:#111111;stroke-width:3.125;stroke-linecap:round;stroke-linejoin:round;" width="40" x="10.28778839" y="44.96812282"/>
          </g>
        </svg>
</svg>
