<?xml version="1.0" encoding="UTF-8" standalone="no"?>
<!DOCTYPE svg PUBLIC "-//W3C//DTD SVG 1.1//EN"
 "http://www.w3.org/Graphics/SVG/1.1/DTD/svg11.dtd">
<!-- Generated by graphviz version 2.28.0 (20120217.0315)
 -->
<!-- Title: G Pages: 1 -->
<!--zoomable 522 -->
<svg id="main" version="1.1" xmlns="http://www.w3.org/2000/svg" xmlns:xlink="http://www.w3.org/1999/xlink" xml:space="preserve" onload="init(evt)">
        <defs>
                <circle id="rim" cx="0" cy="0" r="7"/>
                <circle id="rim2" cx="0" cy="0" r="3.5"/>
                <g id="zoomPlus">
                        <use xlink:href="#rim" fill="#404040">
                                <set attributeName="fill" to="#808080" begin="zoomplus.mouseover" end="zoomplus.mouseout"/>
                        </use>
                        <path d="M-4,0h8M0,-4v8" fill="none" stroke="white" stroke-width="1.5" pointer-events="none"/>
                </g>
                <g id="zoomMin">
                        <use xlink:href="#rim" fill="#404040">
                                <set attributeName="fill" to="#808080" begin="zoomminus.mouseover" end="zoomminus.mouseout"/>
                        </use>
                        <path d="M-4,0h8" fill="none" stroke="white" stroke-width="1.5" pointer-events="none"/>
                </g>
                <g id="dirArrow">
                        <path fill="none" stroke="white" stroke-width="1.5" d="M0,-3.0v7 M-2.5,-0.5L0,-3.0L2.5,-0.5"/>
                </g>
               <g id="resetDef">
                       <use xlink:href="#rim2" fill="#404040">
                               <set attributeName="fill" to="#808080" begin="reset.mouseover" end="reset.mouseout"/>
                       </use>
               </g>
        </defs>

<script type="text/javascript">
var viewWidth = 584;
var viewHeight = 522;
var sectionId = 'dynsection-14';
</script>
<script xlink:href="../../svgpan.js"/>
<svg id="graph" class="graph">
<g id="viewport">
<title>G</title>
<!-- Node1 -->
<g id="node1" class="node"><title>Node1</title>
<polygon fill="#bfbfbf" stroke="black" points="0.5,-242.5 0.5,-261.5 101.5,-261.5 101.5,-242.5 0.5,-242.5"/>
<text text-anchor="middle" x="51" y="-249.5" font-family="DejaVuSansMono" font-size="10.00">handle_message</text>
</g>
<!-- Node2 -->
<g id="node3" class="node"><title>Node2</title>
<a xlink:href="../../d1/d59/xmpp__stanza_8c.html#a20c90c791fa856784f2d43c9f44f1d3c" target="_top" xlink:title="Returns the value of an attribute of this stanza.">
<polygon fill="none" stroke="black" points="339.5,-494.5 339.5,-513.5 452.5,-513.5 452.5,-494.5 339.5,-494.5"/>
<text text-anchor="middle" x="396" y="-501.5" font-family="DejaVuSansMono" font-size="10.00">xmpp_stanza_attr</text>
</a>
</g>
<!-- Node1&#45;&gt;Node2 -->
<g id="edge2" class="edge"><title>Node1&#45;&gt;Node2</title>
<path fill="none" stroke="midnightblue" d="M53.1058,-261.691C57.3383,-294.033 75.5526,-399.079 138,-450 191.804,-493.873 272.529,-504.659 329.113,-506.197"/>
<polygon fill="midnightblue" stroke="midnightblue" points="329.324,-509.701 339.385,-506.382 329.45,-502.702 329.324,-509.701"/>
</g>
<!-- Node3 -->
<g id="node5" class="node"><title>Node3</title>
<a xlink:href="../../d3/d5a/jid_8c.html#a0151ea37a9f52813a8d48d2b7eec2044" target="_top" xlink:title="Allocate and initialize a new JID from an existing JID string.">
<polygon fill="none" stroke="black" points="339.5,-456.5 339.5,-475.5 452.5,-475.5 452.5,-456.5 339.5,-456.5"/>
<text text-anchor="middle" x="396" y="-463.5" font-family="DejaVuSansMono" font-size="10.00">jid_new_from_str</text>
</a>
</g>
<!-- Node1&#45;&gt;Node3 -->
<g id="edge4" class="edge"><title>Node1&#45;&gt;Node3</title>
<path fill="none" stroke="midnightblue" d="M54.2767,-261.59C61.3725,-289.271 85.8064,-369.817 138,-409 193.396,-450.587 273.284,-462.911 329.244,-466.044"/>
<polygon fill="midnightblue" stroke="midnightblue" points="329.248,-469.548 339.403,-466.528 329.58,-462.556 329.248,-469.548"/>
</g>
<!-- Node5 -->
<g id="node9" class="node"><title>Node5</title>
<a xlink:href="../../d3/d5a/jid_8c.html#ab83fd5aae95de2c9d38fb9d9cd161580" target="_top" xlink:title="Cleans up and frees an existing JID.">
<polygon fill="none" stroke="black" points="504.5,-380.5 504.5,-399.5 563.5,-399.5 563.5,-380.5 504.5,-380.5"/>
<text text-anchor="middle" x="534" y="-387.5" font-family="DejaVuSansMono" font-size="10.00">jid_del</text>
</a>
</g>
<!-- Node1&#45;&gt;Node5 -->
<g id="edge12" class="edge"><title>Node1&#45;&gt;Node5</title>
<path fill="none" stroke="midnightblue" d="M63.9473,-242.349C79.8072,-230.136 109.18,-209.543 138,-200 205.205,-177.748 397.93,-140.509 456,-181 519.184,-225.058 530.66,-327.095 532.642,-370.206"/>
<polygon fill="midnightblue" stroke="midnightblue" points="529.146,-370.389 532.976,-380.268 536.142,-370.157 529.146,-370.389"/>
</g>
<!-- Node6 -->
<g id="node11" class="node"><title>Node6</title>
<a xlink:href="../../d3/d5a/jid_8c.html#ac1dcf40e9090a5a9717b685b6b055feb" target="_top" xlink:title="Returns the localpart of a JID.">
<polygon fill="none" stroke="black" points="360.5,-304.5 360.5,-323.5 431.5,-323.5 431.5,-304.5 360.5,-304.5"/>
<text text-anchor="middle" x="396" y="-311.5" font-family="DejaVuSansMono" font-size="10.00">jid_local</text>
</a>
</g>
<!-- Node1&#45;&gt;Node6 -->
<g id="edge10" class="edge"><title>Node1&#45;&gt;Node6</title>
<path fill="none" stroke="midnightblue" d="M101.509,-260.949C168.114,-272.988 285.616,-294.228 349.889,-305.846"/>
<polygon fill="midnightblue" stroke="midnightblue" points="349.647,-309.359 360.11,-307.693 350.892,-302.47 349.647,-309.359"/>
</g>
<!-- Node7 -->
<g id="node14" class="node"><title>Node7</title>
<a xlink:href="../../d3/d5a/jid_8c.html#a03139cec95c699c543f239f338c0c568" target="_top" xlink:title="Compare two JIDs exactly.">
<polygon fill="none" stroke="black" points="189.5,-76.5 189.5,-95.5 248.5,-95.5 248.5,-76.5 189.5,-76.5"/>
<text text-anchor="middle" x="219" y="-83.5" font-family="DejaVuSansMono" font-size="10.00">jid_cmp</text>
</a>
</g>
<!-- Node1&#45;&gt;Node7 -->
<g id="edge14" class="edge"><title>Node1&#45;&gt;Node7</title>
<path fill="none" stroke="midnightblue" d="M55.0613,-242.399C63.7126,-216.825 90.8266,-146.525 138,-110 149.902,-100.785 165.305,-95.097 179.413,-91.5909"/>
<polygon fill="midnightblue" stroke="midnightblue" points="180.37,-94.9643 189.389,-89.4043 178.871,-88.1267 180.37,-94.9643"/>
</g>
<!-- Node8 -->
<g id="node16" class="node"><title>Node8</title>
<a xlink:href="../../d3/d5a/jid_8c.html#a6da80c5b44d3c4ef896850a5d1d790b0" target="_top" xlink:title="Allocate and initialize a new JID from an existing JID structure.">
<polygon fill="none" stroke="black" points="162.5,-209.5 162.5,-228.5 275.5,-228.5 275.5,-209.5 162.5,-209.5"/>
<text text-anchor="middle" x="219" y="-216.5" font-family="DejaVuSansMono" font-size="10.00">jid_new_from_jid</text>
</a>
</g>
<!-- Node1&#45;&gt;Node8 -->
<g id="edge16" class="edge"><title>Node1&#45;&gt;Node8</title>
<path fill="none" stroke="midnightblue" d="M100.014,-242.455C118.768,-238.727 140.44,-234.419 160.052,-230.52"/>
<polygon fill="midnightblue" stroke="midnightblue" points="160.968,-233.906 170.094,-228.524 159.603,-227.041 160.968,-233.906"/>
</g>
<!-- Node13 -->
<g id="node29" class="node"><title>Node13</title>
<a xlink:href="../../d3/d5a/jid_8c.html#ad4e057d210bd0776fcb89289e5d59f81" target="_top" xlink:title="Sets the resourcepart of a JID.">
<polygon fill="none" stroke="black" points="339.5,-38.5 339.5,-57.5 452.5,-57.5 452.5,-38.5 339.5,-38.5"/>
<text text-anchor="middle" x="396" y="-45.5" font-family="DejaVuSansMono" font-size="10.00">jid_set_resource</text>
</a>
</g>
<!-- Node1&#45;&gt;Node13 -->
<g id="edge38" class="edge"><title>Node1&#45;&gt;Node13</title>
<path fill="none" stroke="midnightblue" d="M57.2274,-242.257C68.8533,-221.55 98.9357,-173.02 138,-148 200.73,-107.823 235.951,-143.04 300,-105 320.003,-93.1201 316.314,-79.3968 336,-67 339.193,-64.9894 342.618,-63.1732 346.151,-61.5358"/>
<polygon fill="midnightblue" stroke="midnightblue" points="347.764,-64.6568 355.674,-57.6084 345.095,-58.1855 347.764,-64.6568"/>
</g>
<!-- Node15 -->
<g id="node35" class="node"><title>Node15</title>
<a xlink:href="../../d3/d5a/jid_8c.html#a3d51f2b27d20189e523b0d0b2a77e4a9" target="_top" xlink:title="Converts a JID to a newly allocated string.">
<polygon fill="none" stroke="black" points="357.5,-342.5 357.5,-361.5 434.5,-361.5 434.5,-342.5 357.5,-342.5"/>
<text text-anchor="middle" x="396" y="-349.5" font-family="DejaVuSansMono" font-size="10.00">jid_to_str</text>
</a>
</g>
<!-- Node1&#45;&gt;Node15 -->
<g id="edge40" class="edge"><title>Node1&#45;&gt;Node15</title>
<path fill="none" stroke="midnightblue" d="M67.6126,-261.554C84.4344,-271.468 112.262,-286.787 138,-296 208.738,-321.32 294.707,-337.225 347.109,-345.359"/>
<polygon fill="midnightblue" stroke="midnightblue" points="346.715,-348.839 357.128,-346.882 347.768,-341.918 346.715,-348.839"/>
</g>
<!-- Node16 -->
<g id="node37" class="node"><title>Node16</title>
<a xlink:href="../../d1/d59/xmpp__stanza_8c.html#a7ca8bf259143d7ff53b24de8b666026d" target="_top" xlink:title="Sets the value of an attribute in a stanza.">
<polygon fill="none" stroke="black" points="150.5,-19.5 150.5,-38.5 287.5,-38.5 287.5,-19.5 150.5,-19.5"/>
<text text-anchor="middle" x="219" y="-26.5" font-family="DejaVuSansMono" font-size="10.00">xmpp_stanza_set_attr</text>
</a>
</g>
<!-- Node1&#45;&gt;Node16 -->
<g id="edge42" class="edge"><title>Node1&#45;&gt;Node16</title>
<path fill="none" stroke="midnightblue" d="M54.0624,-242.208C60.8464,-212.198 85.1257,-120.315 138,-67 148.542,-56.3699 162.638,-48.3288 176.059,-42.4452"/>
<polygon fill="midnightblue" stroke="midnightblue" points="177.712,-45.551 185.652,-38.536 175.07,-39.0686 177.712,-45.551"/>
</g>
<!-- Node18 -->
<g id="node41" class="node"><title>Node18</title>
<a xlink:href="../../d0/df0/xmpp__server_8c.html#a6d3f7e5e289f785b1c8c52f95068c627" target="_top" xlink:title="Deliver a stanza to a registered callback function.">
<polygon fill="none" stroke="black" points="138.5,-380.5 138.5,-399.5 299.5,-399.5 299.5,-380.5 138.5,-380.5"/>
<text text-anchor="middle" x="219" y="-387.5" font-family="DejaVuSansMono" font-size="10.00">xmpp_server_route_stanza</text>
</a>
</g>
<!-- Node1&#45;&gt;Node18 -->
<g id="edge46" class="edge"><title>Node1&#45;&gt;Node18</title>
<path fill="none" stroke="midnightblue" d="M56.5392,-261.583C67.4085,-283.492 97.098,-337.536 138,-366 144.36,-370.426 151.551,-374.05 158.948,-377.014"/>
<polygon fill="midnightblue" stroke="midnightblue" points="157.788,-380.316 168.382,-380.426 160.169,-373.733 157.788,-380.316"/>
</g>
<!-- Node4 -->
<g id="node7" class="node"><title>Node4</title>
<a xlink:href="../../d3/d5a/jid_8c.html#abd2028a1e581e6374acaa6beaf6e5413" target="_top" xlink:title="Allocate and initialize a new blank JID.">
<polygon fill="none" stroke="black" points="504.5,-437.5 504.5,-456.5 563.5,-456.5 563.5,-437.5 504.5,-437.5"/>
<text text-anchor="middle" x="534" y="-444.5" font-family="DejaVuSansMono" font-size="10.00">jid_new</text>
</a>
</g>
<!-- Node3&#45;&gt;Node4 -->
<g id="edge6" class="edge"><title>Node3&#45;&gt;Node4</title>
<path fill="none" stroke="midnightblue" d="M452.709,-458.217C466.716,-456.26 481.444,-454.203 494.406,-452.392"/>
<polygon fill="midnightblue" stroke="midnightblue" points="494.955,-455.849 504.375,-450.999 493.987,-448.917 494.955,-455.849"/>
</g>
<!-- Node3&#45;&gt;Node5 -->
<g id="edge8" class="edge"><title>Node3&#45;&gt;Node5</title>
<path fill="none" stroke="midnightblue" d="M433.008,-456.466C440.784,-453.844 448.82,-450.687 456,-447 477.521,-435.949 499.444,-419.055 514.365,-406.525"/>
<polygon fill="midnightblue" stroke="midnightblue" points="516.975,-408.897 522.285,-399.729 512.416,-403.585 516.975,-408.897"/>
</g>
<!-- Node8&#45;&gt;Node4 -->
<g id="edge18" class="edge"><title>Node8&#45;&gt;Node4</title>
<path fill="none" stroke="midnightblue" d="M249.054,-228.606C272.501,-236.337 306.348,-247.449 336,-257 389.249,-274.152 416.458,-255.426 456,-295 493.556,-332.586 463.569,-364.114 492,-409 497.151,-417.132 504.465,-424.667 511.493,-430.847"/>
<polygon fill="midnightblue" stroke="midnightblue" points="509.527,-433.762 519.465,-437.434 513.986,-428.366 509.527,-433.762"/>
</g>
<!-- Node8&#45;&gt;Node6 -->
<g id="edge24" class="edge"><title>Node8&#45;&gt;Node6</title>
<path fill="none" stroke="midnightblue" d="M233.859,-228.511C255.195,-242.912 297.643,-270.623 336,-290 343.508,-293.793 351.764,-297.451 359.66,-300.719"/>
<polygon fill="midnightblue" stroke="midnightblue" points="358.455,-304.007 369.038,-304.496 361.069,-297.514 358.455,-304.007"/>
</g>
<!-- Node9 -->
<g id="node19" class="node"><title>Node9</title>
<a xlink:href="../../d3/d5a/jid_8c.html#a1a93fd4eaa48c375952cb6f9c9127907" target="_top" xlink:title="Sets the localpart of a JID.">
<polygon fill="none" stroke="black" points="348.5,-114.5 348.5,-133.5 443.5,-133.5 443.5,-114.5 348.5,-114.5"/>
<text text-anchor="middle" x="396" y="-121.5" font-family="DejaVuSansMono" font-size="10.00">jid_set_local</text>
</a>
</g>
<!-- Node8&#45;&gt;Node9 -->
<g id="edge20" class="edge"><title>Node8&#45;&gt;Node9</title>
<path fill="none" stroke="midnightblue" d="M237.743,-209.368C268.613,-192.61 332.353,-158.008 368.488,-138.392"/>
<polygon fill="midnightblue" stroke="midnightblue" points="370.352,-141.363 377.47,-133.516 367.012,-135.211 370.352,-141.363"/>
</g>
<!-- Node11 -->
<g id="node24" class="node"><title>Node11</title>
<a xlink:href="../../d3/d5a/jid_8c.html#aeefeabfe802b3db2ce1b8894ae6a0d05" target="_top" xlink:title="Sets the domainpart of a JID.">
<polygon fill="none" stroke="black" points="345.5,-76.5 345.5,-95.5 446.5,-95.5 446.5,-76.5 345.5,-76.5"/>
<text text-anchor="middle" x="396" y="-83.5" font-family="DejaVuSansMono" font-size="10.00">jid_set_domain</text>
</a>
</g>
<!-- Node8&#45;&gt;Node11 -->
<g id="edge26" class="edge"><title>Node8&#45;&gt;Node11</title>
<path fill="none" stroke="midnightblue" d="M229.656,-209.269C256.366,-182.385 329.689,-108.819 336,-105 339.424,-102.928 343.098,-101.058 346.877,-99.3733"/>
<polygon fill="midnightblue" stroke="midnightblue" points="348.422,-102.525 356.406,-95.5617 345.822,-96.026 348.422,-102.525"/>
</g>
<!-- Node12 -->
<g id="node27" class="node"><title>Node12</title>
<a xlink:href="../../d3/d5a/jid_8c.html#a32b3d0744d90d33622986e4989042ee6" target="_top" xlink:title="Returns the domainpart of a JID.">
<polygon fill="none" stroke="black" points="357.5,-228.5 357.5,-247.5 434.5,-247.5 434.5,-228.5 357.5,-228.5"/>
<text text-anchor="middle" x="396" y="-235.5" font-family="DejaVuSansMono" font-size="10.00">jid_domain</text>
</a>
</g>
<!-- Node8&#45;&gt;Node12 -->
<g id="edge30" class="edge"><title>Node8&#45;&gt;Node12</title>
<path fill="none" stroke="midnightblue" d="M275.852,-225.064C298.822,-227.558 325.155,-230.417 347.214,-232.812"/>
<polygon fill="midnightblue" stroke="midnightblue" points="347.023,-236.312 357.342,-233.911 347.778,-229.352 347.023,-236.312"/>
</g>
<!-- Node8&#45;&gt;Node13 -->
<g id="edge32" class="edge"><title>Node8&#45;&gt;Node13</title>
<path fill="none" stroke="midnightblue" d="M231.468,-209.455C248.103,-195.185 279.206,-166.868 300,-138 320.679,-109.292 309.089,-89.969 336,-67 338.005,-65.2884 340.167,-63.7304 342.437,-62.3122"/>
<polygon fill="midnightblue" stroke="midnightblue" points="344.388,-65.2421 351.627,-57.5067 341.144,-59.0389 344.388,-65.2421"/>
</g>
<!-- Node14 -->
<g id="node32" class="node"><title>Node14</title>
<a xlink:href="../../d3/d5a/jid_8c.html#a54f945004eef842630b39c94a3689e28" target="_top" xlink:title="Returns the resourcepart of a JID.">
<polygon fill="none" stroke="black" points="351.5,-190.5 351.5,-209.5 440.5,-209.5 440.5,-190.5 351.5,-190.5"/>
<text text-anchor="middle" x="396" y="-197.5" font-family="DejaVuSansMono" font-size="10.00">jid_resource</text>
</a>
</g>
<!-- Node8&#45;&gt;Node14 -->
<g id="edge36" class="edge"><title>Node8&#45;&gt;Node14</title>
<path fill="none" stroke="midnightblue" d="M275.852,-212.936C296.732,-210.669 320.39,-208.101 341.091,-205.853"/>
<polygon fill="midnightblue" stroke="midnightblue" points="341.738,-209.303 351.302,-204.744 340.983,-202.344 341.738,-209.303"/>
</g>
<!-- Node10 -->
<g id="node21" class="node"><title>Node10</title>
<a xlink:href="../../d3/d91/utils_8c.html#a07891e77aee8f9b825d52bd33e474f30" target="_top" xlink:title="Simple string copy, freeing original if neccessary.">
<polygon fill="none" stroke="black" points="492.5,-76.5 492.5,-95.5 575.5,-95.5 575.5,-76.5 492.5,-76.5"/>
<text text-anchor="middle" x="534" y="-83.5" font-family="DejaVuSansMono" font-size="10.00">copy_string</text>
</a>
</g>
<!-- Node9&#45;&gt;Node10 -->
<g id="edge22" class="edge"><title>Node9&#45;&gt;Node10</title>
<path fill="none" stroke="midnightblue" d="M431.319,-114.411C448.794,-109.528 470.241,-103.536 488.925,-98.315"/>
<polygon fill="midnightblue" stroke="midnightblue" points="490.003,-101.648 498.692,-95.5859 488.119,-94.9062 490.003,-101.648"/>
</g>
<!-- Node11&#45;&gt;Node10 -->
<g id="edge28" class="edge"><title>Node11&#45;&gt;Node10</title>
<path fill="none" stroke="midnightblue" d="M446.869,-86C458.479,-86 470.849,-86 482.486,-86"/>
<polygon fill="midnightblue" stroke="midnightblue" points="482.486,-89.5001 492.486,-86 482.486,-82.5001 482.486,-89.5001"/>
</g>
<!-- Node13&#45;&gt;Node10 -->
<g id="edge34" class="edge"><title>Node13&#45;&gt;Node10</title>
<path fill="none" stroke="midnightblue" d="M431.319,-57.589C448.794,-62.4719 470.241,-68.4643 488.925,-73.685"/>
<polygon fill="midnightblue" stroke="midnightblue" points="488.119,-77.0938 498.692,-76.4141 490.003,-70.3521 488.119,-77.0938"/>
</g>
<!-- Node17 -->
<g id="node39" class="node"><title>Node17</title>
<a xlink:href="../../d1/d59/xmpp__stanza_8c.html#a2fb472c6bf9b7f540a97ddc6c11adb74" target="_top" xlink:title="attribute_del">
<polygon fill="none" stroke="black" points="348.5,-0.5 348.5,-19.5 443.5,-19.5 443.5,-0.5 348.5,-0.5"/>
<text text-anchor="middle" x="396" y="-7.5" font-family="DejaVuSansMono" font-size="10.00">attribute_del</text>
</a>
</g>
<!-- Node16&#45;&gt;Node17 -->
<g id="edge44" class="edge"><title>Node16&#45;&gt;Node17</title>
<path fill="none" stroke="midnightblue" d="M287.66,-21.6541C304.307,-19.8466 321.966,-17.9294 338.051,-16.1831"/>
<polygon fill="midnightblue" stroke="midnightblue" points="338.803,-19.6221 348.366,-15.0631 338.047,-12.663 338.803,-19.6221"/>
</g>
<!-- Node18&#45;&gt;Node2 -->
<g id="edge50" class="edge"><title>Node18&#45;&gt;Node2</title>
<path fill="none" stroke="midnightblue" d="M229.313,-399.766C247.904,-418.741 291.655,-460.839 336,-485 339.933,-487.143 344.147,-489.092 348.447,-490.852"/>
<polygon fill="midnightblue" stroke="midnightblue" points="347.328,-494.17 357.92,-494.408 349.788,-487.617 347.328,-494.17"/>
</g>
<!-- Node18&#45;&gt;Node3 -->
<g id="edge48" class="edge"><title>Node18&#45;&gt;Node3</title>
<path fill="none" stroke="midnightblue" d="M237.325,-399.502C259.688,-411.536 300.01,-432.452 336,-447 341.433,-449.196 347.224,-451.317 352.975,-453.297"/>
<polygon fill="midnightblue" stroke="midnightblue" points="351.952,-456.645 362.545,-456.481 354.162,-450.003 351.952,-456.645"/>
</g>
<!-- Node18&#45;&gt;Node5 -->
<g id="edge56" class="edge"><title>Node18&#45;&gt;Node5</title>
<path fill="none" stroke="midnightblue" d="M299.793,-390C362.058,-390 445.845,-390 494.182,-390"/>
<polygon fill="midnightblue" stroke="midnightblue" points="494.227,-393.5 504.227,-390 494.227,-386.5 494.227,-393.5"/>
</g>
<!-- Node18&#45;&gt;Node15 -->
<g id="edge52" class="edge"><title>Node18&#45;&gt;Node15</title>
<path fill="none" stroke="midnightblue" d="M264.16,-380.411C289.546,-374.899 321.444,-367.972 347.389,-362.338"/>
<polygon fill="midnightblue" stroke="midnightblue" points="348.348,-365.712 357.378,-360.169 346.863,-358.871 348.348,-365.712"/>
</g>
<!-- Node19 -->
<g id="node46" class="node"><title>Node19</title>
<a xlink:href="../../d3/d5a/jid_8c.html#a5b2f969326a86fa7e585f633d7b0f565" target="_top" xlink:title="Compare two JIDs with wildcard matches.">
<polygon fill="none" stroke="black" points="336.5,-418.5 336.5,-437.5 455.5,-437.5 455.5,-418.5 336.5,-418.5"/>
<text text-anchor="middle" x="396" y="-425.5" font-family="DejaVuSansMono" font-size="10.00">jid_cmp_wildcards</text>
</a>
</g>
<!-- Node18&#45;&gt;Node19 -->
<g id="edge54" class="edge"><title>Node18&#45;&gt;Node19</title>
<path fill="none" stroke="midnightblue" d="M264.16,-399.589C287.565,-404.671 316.505,-410.955 341.212,-416.32"/>
<polygon fill="midnightblue" stroke="midnightblue" points="340.643,-419.778 351.158,-418.48 342.128,-412.938 340.643,-419.778"/>
</g>
</g>
</svg>
        <g id="navigator" transform="translate(0 0)" fill="#404254">
                <rect fill="#f2f5e9" fill-opacity="0.5" stroke="#606060" stroke-width=".5" x="0" y="0" width="60" height="60"/>
                <use id="zoomplus" xlink:href="#zoomPlus" x="17" y="9" onmousedown="handleZoom(evt,'in')"/>
                <use id="zoomminus" xlink:href="#zoomMin" x="42" y="9" onmousedown="handleZoom(evt,'out')"/>
                <use id="reset" xlink:href="#resetDef" x="30" y="36" onmousedown="handleReset()"/>
                <g id="arrowUp" xlink:href="#dirArrow" transform="translate(30 24)" onmousedown="handlePan(0,-1)">
                  <use xlink:href="#rim" fill="#404040">
                        <set attributeName="fill" to="#808080" begin="arrowUp.mouseover" end="arrowUp.mouseout"/>
                  </use>
                  <path fill="none" stroke="white" stroke-width="1.5" d="M0,-3.0v7 M-2.5,-0.5L0,-3.0L2.5,-0.5"/>
                </g>
                <g id="arrowRight" xlink:href="#dirArrow" transform="rotate(90) translate(36 -43)" onmousedown="handlePan(1,0)">
                  <use xlink:href="#rim" fill="#404040">
                        <set attributeName="fill" to="#808080" begin="arrowRight.mouseover" end="arrowRight.mouseout"/>
                  </use>
                  <path fill="none" stroke="white" stroke-width="1.5" d="M0,-3.0v7 M-2.5,-0.5L0,-3.0L2.5,-0.5"/>
                </g>
                <g id="arrowDown" xlink:href="#dirArrow" transform="rotate(180) translate(-30 -48)" onmousedown="handlePan(0,1)">
                  <use xlink:href="#rim" fill="#404040">
                        <set attributeName="fill" to="#808080" begin="arrowDown.mouseover" end="arrowDown.mouseout"/>
                  </use>
                  <path fill="none" stroke="white" stroke-width="1.5" d="M0,-3.0v7 M-2.5,-0.5L0,-3.0L2.5,-0.5"/>
                </g>
                <g id="arrowLeft" xlink:href="#dirArrow" transform="rotate(270) translate(-36 17)" onmousedown="handlePan(-1,0)">
                  <use xlink:href="#rim" fill="#404040">
                        <set attributeName="fill" to="#808080" begin="arrowLeft.mouseover" end="arrowLeft.mouseout"/>
                  </use>
                  <path fill="none" stroke="white" stroke-width="1.5" d="M0,-3.0v7 M-2.5,-0.5L0,-3.0L2.5,-0.5"/>
                </g>
        </g>
        <svg viewBox="0 0 25 25" width="100%" height="30px" preserveAspectRatio="xMaxYMin meet"> 
          <g id="printButton" transform="scale(0.4 0.4)" onmousedown="handlePrint(evt)">
            <rect height="23.33753581" id="paper" rx="2" style="fill:#f2f5e9;fill-rule:evenodd;stroke:#111111;stroke-width:3.224;stroke-linejoin:round;" transform="matrix(1.000000,0.000000,-0.339266,0.940691,0.000000,0.000000)" width="25.55231285" x="26.69387353" y="7.36162977"/>
            <rect height="26.272097" id="body" rx="2" style="fill:#404040;fill-rule:evenodd;stroke:#111111;stroke-width:3.125;stroke-linejoin:round;" width="50" x="4.5295201" y="27.078951"/>
            <rect height="8.27750969" id="tray" style="fill:#d2d5c9;fill-rule:evenodd;stroke:#111111;stroke-width:3.125;stroke-linecap:round;stroke-linejoin:round;" width="40" x="10.28778839" y="44.96812282"/>
          </g>
        </svg>
</svg>
