<?xml version="1.0" encoding="UTF-8" standalone="no"?>
<!DOCTYPE svg PUBLIC "-//W3C//DTD SVG 1.1//EN"
 "http://www.w3.org/Graphics/SVG/1.1/DTD/svg11.dtd">
<!-- Generated by graphviz version 2.28.0 (20120217.0315)
 -->
<!-- Title: G Pages: 1 -->
<!--zoomable 370 -->
<svg id="main" version="1.1" xmlns="http://www.w3.org/2000/svg" xmlns:xlink="http://www.w3.org/1999/xlink" xml:space="preserve" onload="init(evt)">
        <defs>
                <circle id="rim" cx="0" cy="0" r="7"/>
                <circle id="rim2" cx="0" cy="0" r="3.5"/>
                <g id="zoomPlus">
                        <use xlink:href="#rim" fill="#404040">
                                <set attributeName="fill" to="#808080" begin="zoomplus.mouseover" end="zoomplus.mouseout"/>
                        </use>
                        <path d="M-4,0h8M0,-4v8" fill="none" stroke="white" stroke-width="1.5" pointer-events="none"/>
                </g>
                <g id="zoomMin">
                        <use xlink:href="#rim" fill="#404040">
                                <set attributeName="fill" to="#808080" begin="zoomminus.mouseover" end="zoomminus.mouseout"/>
                        </use>
                        <path d="M-4,0h8" fill="none" stroke="white" stroke-width="1.5" pointer-events="none"/>
                </g>
                <g id="dirArrow">
                        <path fill="none" stroke="white" stroke-width="1.5" d="M0,-3.0v7 M-2.5,-0.5L0,-3.0L2.5,-0.5"/>
                </g>
               <g id="resetDef">
                       <use xlink:href="#rim2" fill="#404040">
                               <set attributeName="fill" to="#808080" begin="reset.mouseover" end="reset.mouseout"/>
                       </use>
               </g>
        </defs>

<script type="text/javascript">
var viewWidth = 632;
var viewHeight = 370;
var sectionId = 'dynsection-12';
</script>
<script xlink:href="../../svgpan.js"/>
<svg id="graph" class="graph">
<g id="viewport">
<title>G</title>
<!-- Node1 -->
<g id="node1" class="node"><title>Node1</title>
<polygon fill="#bfbfbf" stroke="black" points="0.5,-152.5 0.5,-171.5 125.5,-171.5 125.5,-152.5 0.5,-152.5"/>
<text text-anchor="middle" x="63" y="-159.5" font-family="DejaVuSansMono" font-size="10.00">handle_items_query</text>
</g>
<!-- Node2 -->
<g id="node3" class="node"><title>Node2</title>
<a xlink:href="../../d1/d59/xmpp__stanza_8c.html#a20c90c791fa856784f2d43c9f44f1d3c" target="_top" xlink:title="Returns the value of an attribute of this stanza.">
<polygon fill="none" stroke="black" points="387.5,-342.5 387.5,-361.5 500.5,-361.5 500.5,-342.5 387.5,-342.5"/>
<text text-anchor="middle" x="444" y="-349.5" font-family="DejaVuSansMono" font-size="10.00">xmpp_stanza_attr</text>
</a>
</g>
<!-- Node1&#45;&gt;Node2 -->
<g id="edge2" class="edge"><title>Node1&#45;&gt;Node2</title>
<path fill="none" stroke="midnightblue" d="M67.7886,-171.556C78.3925,-196.957 110.976,-266.429 162,-299 227.072,-340.538 316.773,-351.169 377.172,-353.114"/>
<polygon fill="midnightblue" stroke="midnightblue" points="377.265,-356.617 387.349,-353.368 377.44,-349.619 377.265,-356.617"/>
</g>
<!-- Node3 -->
<g id="node5" class="node"><title>Node3</title>
<a xlink:href="../../d1/d59/xmpp__stanza_8c.html#aa80dd21d794b5c63fcb13c49745cc373" target="_top" xlink:title="Allocate and initialize a new XMPP stanza structure.">
<polygon fill="none" stroke="black" points="189.5,-152.5 189.5,-171.5 296.5,-171.5 296.5,-152.5 189.5,-152.5"/>
<text text-anchor="middle" x="243" y="-159.5" font-family="DejaVuSansMono" font-size="10.00">xmpp_stanza_new</text>
</a>
</g>
<!-- Node1&#45;&gt;Node3 -->
<g id="edge4" class="edge"><title>Node1&#45;&gt;Node3</title>
<path fill="none" stroke="midnightblue" d="M125.756,-162C143.047,-162 161.857,-162 179.207,-162"/>
<polygon fill="midnightblue" stroke="midnightblue" points="179.232,-165.5 189.232,-162 179.232,-158.5 179.232,-165.5"/>
</g>
<!-- Node6 -->
<g id="node11" class="node"><title>Node6</title>
<a xlink:href="../../d1/d59/xmpp__stanza_8c.html#ac13c8bb45e2ca03b99836e8d52b265b4" target="_top" xlink:title="Appends a child stanza.">
<polygon fill="none" stroke="black" points="162.5,-114.5 162.5,-133.5 323.5,-133.5 323.5,-114.5 162.5,-114.5"/>
<text text-anchor="middle" x="243" y="-121.5" font-family="DejaVuSansMono" font-size="10.00">xmpp_stanza_append_child</text>
</a>
</g>
<!-- Node1&#45;&gt;Node6 -->
<g id="edge10" class="edge"><title>Node1&#45;&gt;Node6</title>
<path fill="none" stroke="midnightblue" d="M108.917,-152.411C132.829,-147.306 162.421,-140.989 187.625,-135.608"/>
<polygon fill="midnightblue" stroke="midnightblue" points="188.357,-139.031 197.406,-133.52 186.896,-132.185 188.357,-139.031"/>
</g>
<!-- Node8 -->
<g id="node15" class="node"><title>Node8</title>
<a xlink:href="../../d1/d59/xmpp__stanza_8c.html#a7ca8bf259143d7ff53b24de8b666026d" target="_top" xlink:title="Sets the value of an attribute in a stanza.">
<polygon fill="none" stroke="black" points="174.5,-76.5 174.5,-95.5 311.5,-95.5 311.5,-76.5 174.5,-76.5"/>
<text text-anchor="middle" x="243" y="-83.5" font-family="DejaVuSansMono" font-size="10.00">xmpp_stanza_set_attr</text>
</a>
</g>
<!-- Node1&#45;&gt;Node8 -->
<g id="edge14" class="edge"><title>Node1&#45;&gt;Node8</title>
<path fill="none" stroke="midnightblue" d="M77.6176,-152.329C95.9626,-139.721 130.013,-117.776 162,-105 168.324,-102.474 175.069,-100.23 181.858,-98.2501"/>
<polygon fill="midnightblue" stroke="midnightblue" points="183.069,-101.548 191.794,-95.5365 181.225,-94.795 183.069,-101.548"/>
</g>
<!-- Node10 -->
<g id="node19" class="node"><title>Node10</title>
<a xlink:href="../../d3/d5a/jid_8c.html#a3d51f2b27d20189e523b0d0b2a77e4a9" target="_top" xlink:title="Converts a JID to a newly allocated string.">
<polygon fill="none" stroke="black" points="405.5,-304.5 405.5,-323.5 482.5,-323.5 482.5,-304.5 405.5,-304.5"/>
<text text-anchor="middle" x="444" y="-311.5" font-family="DejaVuSansMono" font-size="10.00">jid_to_str</text>
</a>
</g>
<!-- Node1&#45;&gt;Node10 -->
<g id="edge18" class="edge"><title>Node1&#45;&gt;Node10</title>
<path fill="none" stroke="midnightblue" d="M70.2696,-171.59C84.1254,-191.93 119.516,-239.381 162,-262 236.776,-301.812 336.811,-311.649 395.145,-313.786"/>
<polygon fill="midnightblue" stroke="midnightblue" points="395.085,-317.285 405.187,-314.092 395.298,-310.289 395.085,-317.285"/>
</g>
<!-- Node11 -->
<g id="node21" class="node"><title>Node11</title>
<a xlink:href="../../d0/df0/xmpp__server_8c.html#a6d3f7e5e289f785b1c8c52f95068c627" target="_top" xlink:title="Deliver a stanza to a registered callback function.">
<polygon fill="none" stroke="black" points="162.5,-233.5 162.5,-252.5 323.5,-252.5 323.5,-233.5 162.5,-233.5"/>
<text text-anchor="middle" x="243" y="-240.5" font-family="DejaVuSansMono" font-size="10.00">xmpp_server_route_stanza</text>
</a>
</g>
<!-- Node1&#45;&gt;Node11 -->
<g id="edge20" class="edge"><title>Node1&#45;&gt;Node11</title>
<path fill="none" stroke="midnightblue" d="M85.1179,-171.61C116.432,-185.859 175.347,-212.669 211.392,-229.071"/>
<polygon fill="midnightblue" stroke="midnightblue" points="210.358,-232.446 220.91,-233.403 213.257,-226.075 210.358,-232.446"/>
</g>
<!-- Node16 -->
<g id="node34" class="node"><title>Node16</title>
<a xlink:href="../../d1/d59/xmpp__stanza_8c.html#af40757ae1d137034570b1bb33303d024" target="_top" xlink:title="Cleans up and frees an XMPP stanza.">
<polygon fill="none" stroke="black" points="189.5,-20.5 189.5,-39.5 296.5,-39.5 296.5,-20.5 189.5,-20.5"/>
<text text-anchor="middle" x="243" y="-27.5" font-family="DejaVuSansMono" font-size="10.00">xmpp_stanza_del</text>
</a>
</g>
<!-- Node1&#45;&gt;Node16 -->
<g id="edge36" class="edge"><title>Node1&#45;&gt;Node16</title>
<path fill="none" stroke="midnightblue" d="M72.0335,-152.274C87.7411,-133.734 124.294,-92.8804 162,-67 175.531,-57.7125 191.766,-49.7128 206.064,-43.5521"/>
<polygon fill="midnightblue" stroke="midnightblue" points="207.707,-46.6594 215.596,-39.5875 205.019,-40.1961 207.707,-46.6594"/>
</g>
<!-- Node4 -->
<g id="node7" class="node"><title>Node4</title>
<a xlink:href="../../d1/d59/xmpp__stanza_8c.html#a5a80203f56df7a360fa457c0111686f6" target="_top" xlink:title="Parse the namespace triple that Expat gives us.">
<polygon fill="none" stroke="black" points="411.5,-152.5 411.5,-171.5 476.5,-171.5 476.5,-152.5 411.5,-152.5"/>
<text text-anchor="middle" x="444" y="-159.5" font-family="DejaVuSansMono" font-size="10.00">parse_ns</text>
</a>
</g>
<!-- Node3&#45;&gt;Node4 -->
<g id="edge6" class="edge"><title>Node3&#45;&gt;Node4</title>
<path fill="none" stroke="midnightblue" d="M296.545,-162C329.198,-162 370.606,-162 401.054,-162"/>
<polygon fill="midnightblue" stroke="midnightblue" points="401.335,-165.5 411.335,-162 401.335,-158.5 401.335,-165.5"/>
</g>
<!-- Node5 -->
<g id="node9" class="node"><title>Node5</title>
<a xlink:href="../../d1/d59/xmpp__stanza_8c.html#aff4b8f6e10ce1c351d2a5bc39f0e819f" target="_top" xlink:title="Convenience function to build a key for the attribute hash table.">
<polygon fill="none" stroke="black" points="411.5,-114.5 411.5,-133.5 476.5,-133.5 476.5,-114.5 411.5,-114.5"/>
<text text-anchor="middle" x="444" y="-121.5" font-family="DejaVuSansMono" font-size="10.00">make_key</text>
</a>
</g>
<!-- Node3&#45;&gt;Node5 -->
<g id="edge8" class="edge"><title>Node3&#45;&gt;Node5</title>
<path fill="none" stroke="midnightblue" d="M293.959,-152.46C327.06,-146.139 369.981,-137.943 401.256,-131.971"/>
<polygon fill="midnightblue" stroke="midnightblue" points="402.219,-135.351 411.385,-130.037 400.906,-128.475 402.219,-135.351"/>
</g>
<!-- Node7 -->
<g id="node13" class="node"><title>Node7</title>
<a xlink:href="../../d1/d59/xmpp__stanza_8c.html#afc77f00b7f38c79566a7b16876230e30" target="_top" xlink:title="Removes a child stanza.">
<polygon fill="none" stroke="black" points="363.5,-76.5 363.5,-95.5 524.5,-95.5 524.5,-76.5 363.5,-76.5"/>
<text text-anchor="middle" x="444" y="-83.5" font-family="DejaVuSansMono" font-size="10.00">xmpp_stanza_remove_child</text>
</a>
</g>
<!-- Node6&#45;&gt;Node7 -->
<g id="edge12" class="edge"><title>Node6&#45;&gt;Node7</title>
<path fill="none" stroke="midnightblue" d="M293.959,-114.46C321.045,-109.288 354.708,-102.86 383.183,-97.4222"/>
<polygon fill="midnightblue" stroke="midnightblue" points="383.854,-100.858 393.02,-95.5439 382.541,-93.9817 383.854,-100.858"/>
</g>
<!-- Node9 -->
<g id="node17" class="node"><title>Node9</title>
<a xlink:href="../../d1/d59/xmpp__stanza_8c.html#a2fb472c6bf9b7f540a97ddc6c11adb74" target="_top" xlink:title="attribute_del">
<polygon fill="none" stroke="black" points="396.5,-38.5 396.5,-57.5 491.5,-57.5 491.5,-38.5 396.5,-38.5"/>
<text text-anchor="middle" x="444" y="-45.5" font-family="DejaVuSansMono" font-size="10.00">attribute_del</text>
</a>
</g>
<!-- Node8&#45;&gt;Node9 -->
<g id="edge16" class="edge"><title>Node8&#45;&gt;Node9</title>
<path fill="none" stroke="midnightblue" d="M293.959,-76.46C322.075,-71.0911 357.277,-64.3692 386.409,-58.8064"/>
<polygon fill="midnightblue" stroke="midnightblue" points="387.272,-62.2048 396.438,-56.8912 385.959,-55.3291 387.272,-62.2048"/>
</g>
<!-- Node11&#45;&gt;Node2 -->
<g id="edge28" class="edge"><title>Node11&#45;&gt;Node2</title>
<path fill="none" stroke="midnightblue" d="M253.253,-252.554C271.738,-271.06 315.312,-311.828 360,-333 365.611,-335.658 371.615,-337.956 377.731,-339.939"/>
<polygon fill="midnightblue" stroke="midnightblue" points="376.814,-343.318 387.396,-342.804 378.804,-336.606 376.814,-343.318"/>
</g>
<!-- Node11&#45;&gt;Node10 -->
<g id="edge30" class="edge"><title>Node11&#45;&gt;Node10</title>
<path fill="none" stroke="midnightblue" d="M262.433,-252.628C284.944,-264.062 324.424,-283.083 360,-295 371.275,-298.777 383.659,-302.056 395.342,-304.777"/>
<polygon fill="midnightblue" stroke="midnightblue" points="394.86,-308.256 405.382,-307.024 396.388,-301.425 394.86,-308.256"/>
</g>
<!-- Node12 -->
<g id="node23" class="node"><title>Node12</title>
<a xlink:href="../../d3/d5a/jid_8c.html#a0151ea37a9f52813a8d48d2b7eec2044" target="_top" xlink:title="Allocate and initialize a new JID from an existing JID string.">
<polygon fill="none" stroke="black" points="387.5,-266.5 387.5,-285.5 500.5,-285.5 500.5,-266.5 387.5,-266.5"/>
<text text-anchor="middle" x="444" y="-273.5" font-family="DejaVuSansMono" font-size="10.00">jid_new_from_str</text>
</a>
</g>
<!-- Node11&#45;&gt;Node12 -->
<g id="edge22" class="edge"><title>Node11&#45;&gt;Node12</title>
<path fill="none" stroke="midnightblue" d="M301.292,-252.501C325.109,-256.45 352.885,-261.056 377.505,-265.139"/>
<polygon fill="midnightblue" stroke="midnightblue" points="377.045,-268.61 387.483,-266.794 378.19,-261.705 377.045,-268.61"/>
</g>
<!-- Node14 -->
<g id="node27" class="node"><title>Node14</title>
<a xlink:href="../../d3/d5a/jid_8c.html#ab83fd5aae95de2c9d38fb9d9cd161580" target="_top" xlink:title="Cleans up and frees an existing JID.">
<polygon fill="none" stroke="black" points="564.5,-228.5 564.5,-247.5 623.5,-247.5 623.5,-228.5 564.5,-228.5"/>
<text text-anchor="middle" x="594" y="-235.5" font-family="DejaVuSansMono" font-size="10.00">jid_del</text>
</a>
</g>
<!-- Node11&#45;&gt;Node14 -->
<g id="edge34" class="edge"><title>Node11&#45;&gt;Node14</title>
<path fill="none" stroke="midnightblue" d="M323.63,-241.859C395.639,-240.828 498.613,-239.352 554.066,-238.558"/>
<polygon fill="midnightblue" stroke="midnightblue" points="554.226,-242.056 564.175,-238.413 554.126,-235.057 554.226,-242.056"/>
</g>
<!-- Node15 -->
<g id="node31" class="node"><title>Node15</title>
<a xlink:href="../../d3/d5a/jid_8c.html#a5b2f969326a86fa7e585f633d7b0f565" target="_top" xlink:title="Compare two JIDs with wildcard matches.">
<polygon fill="none" stroke="black" points="384.5,-190.5 384.5,-209.5 503.5,-209.5 503.5,-190.5 384.5,-190.5"/>
<text text-anchor="middle" x="444" y="-197.5" font-family="DejaVuSansMono" font-size="10.00">jid_cmp_wildcards</text>
</a>
</g>
<!-- Node11&#45;&gt;Node15 -->
<g id="edge32" class="edge"><title>Node11&#45;&gt;Node15</title>
<path fill="none" stroke="midnightblue" d="M288.165,-233.457C317.922,-227.027 357.361,-218.505 388.987,-211.671"/>
<polygon fill="midnightblue" stroke="midnightblue" points="389.924,-215.05 398.959,-209.516 388.445,-208.208 389.924,-215.05"/>
</g>
<!-- Node13 -->
<g id="node25" class="node"><title>Node13</title>
<a xlink:href="../../d3/d5a/jid_8c.html#abd2028a1e581e6374acaa6beaf6e5413" target="_top" xlink:title="Allocate and initialize a new blank JID.">
<polygon fill="none" stroke="black" points="564.5,-266.5 564.5,-285.5 623.5,-285.5 623.5,-266.5 564.5,-266.5"/>
<text text-anchor="middle" x="594" y="-273.5" font-family="DejaVuSansMono" font-size="10.00">jid_new</text>
</a>
</g>
<!-- Node12&#45;&gt;Node13 -->
<g id="edge24" class="edge"><title>Node12&#45;&gt;Node13</title>
<path fill="none" stroke="midnightblue" d="M500.531,-276C518.294,-276 537.574,-276 553.909,-276"/>
<polygon fill="midnightblue" stroke="midnightblue" points="554.173,-279.5 564.173,-276 554.173,-272.5 554.173,-279.5"/>
</g>
<!-- Node12&#45;&gt;Node14 -->
<g id="edge26" class="edge"><title>Node12&#45;&gt;Node14</title>
<path fill="none" stroke="midnightblue" d="M482.347,-266.411C504.327,-260.767 532.081,-253.641 554.293,-247.938"/>
<polygon fill="midnightblue" stroke="midnightblue" points="555.253,-251.305 564.069,-245.428 553.512,-244.525 555.253,-251.305"/>
</g>
<!-- Node16&#45;&gt;Node9 -->
<g id="edge38" class="edge"><title>Node16&#45;&gt;Node9</title>
<path fill="none" stroke="midnightblue" d="M296.545,-34.7528C324.133,-37.2482 357.97,-40.3088 386.167,-42.8593"/>
<polygon fill="midnightblue" stroke="midnightblue" points="386.003,-46.3587 396.278,-43.7739 386.634,-39.3872 386.003,-46.3587"/>
</g>
<!-- Node16&#45;&gt;Node16 -->
<g id="edge42" class="edge"><title>Node16&#45;&gt;Node16</title>
<path fill="none" stroke="midnightblue" d="M215.257,-39.7571C201.76,-48.5653 211.008,-58 243,-58 264.995,-58 276.239,-53.5406 276.733,-47.8913"/>
<polygon fill="midnightblue" stroke="midnightblue" points="279.491,-45.7341 270.743,-39.7571 273.854,-49.8848 279.491,-45.7341"/>
</g>
<!-- Node17 -->
<g id="node37" class="node"><title>Node17</title>
<a xlink:href="../../d1/dc2/xmpp__parser_8c.html#a87065f39f10a449e7af17fa45ca475f2" target="_top" xlink:title="xmpp_parser_namespace_del">
<polygon fill="none" stroke="black" points="360.5,-0.5 360.5,-19.5 527.5,-19.5 527.5,-0.5 360.5,-0.5"/>
<text text-anchor="middle" x="444" y="-7.5" font-family="DejaVuSansMono" font-size="10.00">xmpp_parser_namespace_del</text>
</a>
</g>
<!-- Node16&#45;&gt;Node17 -->
<g id="edge40" class="edge"><title>Node16&#45;&gt;Node17</title>
<path fill="none" stroke="midnightblue" d="M296.545,-24.7191C313.062,-23.0591 331.819,-21.1739 350.265,-19.3201"/>
<polygon fill="midnightblue" stroke="midnightblue" points="350.864,-22.7776 360.464,-18.2951 350.164,-15.8127 350.864,-22.7776"/>
</g>
</g>
</svg>
        <g id="navigator" transform="translate(0 0)" fill="#404254">
                <rect fill="#f2f5e9" fill-opacity="0.5" stroke="#606060" stroke-width=".5" x="0" y="0" width="60" height="60"/>
                <use id="zoomplus" xlink:href="#zoomPlus" x="17" y="9" onmousedown="handleZoom(evt,'in')"/>
                <use id="zoomminus" xlink:href="#zoomMin" x="42" y="9" onmousedown="handleZoom(evt,'out')"/>
                <use id="reset" xlink:href="#resetDef" x="30" y="36" onmousedown="handleReset()"/>
                <g id="arrowUp" xlink:href="#dirArrow" transform="translate(30 24)" onmousedown="handlePan(0,-1)">
                  <use xlink:href="#rim" fill="#404040">
                        <set attributeName="fill" to="#808080" begin="arrowUp.mouseover" end="arrowUp.mouseout"/>
                  </use>
                  <path fill="none" stroke="white" stroke-width="1.5" d="M0,-3.0v7 M-2.5,-0.5L0,-3.0L2.5,-0.5"/>
                </g>
                <g id="arrowRight" xlink:href="#dirArrow" transform="rotate(90) translate(36 -43)" onmousedown="handlePan(1,0)">
                  <use xlink:href="#rim" fill="#404040">
                        <set attributeName="fill" to="#808080" begin="arrowRight.mouseover" end="arrowRight.mouseout"/>
                  </use>
                  <path fill="none" stroke="white" stroke-width="1.5" d="M0,-3.0v7 M-2.5,-0.5L0,-3.0L2.5,-0.5"/>
                </g>
                <g id="arrowDown" xlink:href="#dirArrow" transform="rotate(180) translate(-30 -48)" onmousedown="handlePan(0,1)">
                  <use xlink:href="#rim" fill="#404040">
                        <set attributeName="fill" to="#808080" begin="arrowDown.mouseover" end="arrowDown.mouseout"/>
                  </use>
                  <path fill="none" stroke="white" stroke-width="1.5" d="M0,-3.0v7 M-2.5,-0.5L0,-3.0L2.5,-0.5"/>
                </g>
                <g id="arrowLeft" xlink:href="#dirArrow" transform="rotate(270) translate(-36 17)" onmousedown="handlePan(-1,0)">
                  <use xlink:href="#rim" fill="#404040">
                        <set attributeName="fill" to="#808080" begin="arrowLeft.mouseover" end="arrowLeft.mouseout"/>
                  </use>
                  <path fill="none" stroke="white" stroke-width="1.5" d="M0,-3.0v7 M-2.5,-0.5L0,-3.0L2.5,-0.5"/>
                </g>
        </g>
        <svg viewBox="0 0 25 25" width="100%" height="30px" preserveAspectRatio="xMaxYMin meet"> 
          <g id="printButton" transform="scale(0.4 0.4)" onmousedown="handlePrint(evt)">
            <rect height="23.33753581" id="paper" rx="2" style="fill:#f2f5e9;fill-rule:evenodd;stroke:#111111;stroke-width:3.224;stroke-linejoin:round;" transform="matrix(1.000000,0.000000,-0.339266,0.940691,0.000000,0.000000)" width="25.55231285" x="26.69387353" y="7.36162977"/>
            <rect height="26.272097" id="body" rx="2" style="fill:#404040;fill-rule:evenodd;stroke:#111111;stroke-width:3.125;stroke-linejoin:round;" width="50" x="4.5295201" y="27.078951"/>
            <rect height="8.27750969" id="tray" style="fill:#d2d5c9;fill-rule:evenodd;stroke:#111111;stroke-width:3.125;stroke-linecap:round;stroke-linejoin:round;" width="40" x="10.28778839" y="44.96812282"/>
          </g>
        </svg>
</svg>
