<?xml version="1.0" encoding="UTF-8" standalone="no"?>
<!DOCTYPE svg PUBLIC "-//W3C//DTD SVG 1.1//EN"
 "http://www.w3.org/Graphics/SVG/1.1/DTD/svg11.dtd">
<!-- Generated by graphviz version 2.28.0 (20120217.0315)
 -->
<!-- Title: G Pages: 1 -->
<svg width="242pt" height="66pt"
 viewBox="0.00 0.00 242.00 66.00" xmlns="http://www.w3.org/2000/svg" xmlns:xlink="http://www.w3.org/1999/xlink">
<g id="graph1" class="graph" transform="scale(1 1) rotate(0) translate(4 62)">
<title>G</title>
<!-- Node1 -->
<g id="node1" class="node"><title>Node1</title>
<polygon fill="#bfbfbf" stroke="black" points="0.5,-19.5 0.5,-38.5 101.5,-38.5 101.5,-19.5 0.5,-19.5"/>
<text text-anchor="middle" x="51" y="-26.5" font-family="DejaVuSansMono" font-size="10.00">stanza_handler</text>
</g>
<!-- Node2 -->
<g id="node3" class="node"><title>Node2</title>
<a xlink:href="../../d7/d71/xep__muc_8c.html#addf05166cf3fbe386ae6650be21ef251" target="_top" xlink:title="xep_muc_start">
<polygon fill="none" stroke="black" points="138.5,-38.5 138.5,-57.5 233.5,-57.5 233.5,-38.5 138.5,-38.5"/>
<text text-anchor="middle" x="186" y="-45.5" font-family="DejaVuSansMono" font-size="10.00">xep_muc_start</text>
</a>
</g>
<!-- Node1&#45;&gt;Node2 -->
<g id="edge2" class="edge"><title>Node1&#45;&gt;Node2</title>
<path fill="none" stroke="midnightblue" d="M111.481,-37.4972C120.394,-38.7705 129.477,-40.0681 138.08,-41.2971"/>
<polygon fill="midnightblue" stroke="midnightblue" points="111.919,-34.0244 101.524,-36.0749 110.929,-40.954 111.919,-34.0244"/>
</g>
<!-- Node3 -->
<g id="node5" class="node"><title>Node3</title>
<a xlink:href="../../d7/d71/xep__muc_8c.html#a20d385a5584d8014ec4d5774eb79d1de" target="_top" xlink:title="xep_muc_stop">
<polygon fill="none" stroke="black" points="141.5,-0.5 141.5,-19.5 230.5,-19.5 230.5,-0.5 141.5,-0.5"/>
<text text-anchor="middle" x="186" y="-7.5" font-family="DejaVuSansMono" font-size="10.00">xep_muc_stop</text>
</a>
</g>
<!-- Node1&#45;&gt;Node3 -->
<g id="edge4" class="edge"><title>Node1&#45;&gt;Node3</title>
<path fill="none" stroke="midnightblue" d="M111.725,-20.4678C121.62,-19.0542 131.718,-17.6118 141.128,-16.2674"/>
<polygon fill="midnightblue" stroke="midnightblue" points="110.929,-17.046 101.524,-21.9251 111.919,-23.9756 110.929,-17.046"/>
</g>
</g>
</svg>
