<?xml version="1.0" encoding="UTF-8" standalone="no"?>
<!DOCTYPE svg PUBLIC "-//W3C//DTD SVG 1.1//EN"
 "http://www.w3.org/Graphics/SVG/1.1/DTD/svg11.dtd">
<!-- Generated by graphviz version 2.28.0 (20120217.0315)
 -->
<!-- Title: G Pages: 1 -->
<!--zoomable 85 -->
<svg id="main" version="1.1" xmlns="http://www.w3.org/2000/svg" xmlns:xlink="http://www.w3.org/1999/xlink" xml:space="preserve" onload="init(evt)">
        <defs>
                <circle id="rim" cx="0" cy="0" r="7"/>
                <circle id="rim2" cx="0" cy="0" r="3.5"/>
                <g id="zoomPlus">
                        <use xlink:href="#rim" fill="#404040">
                                <set attributeName="fill" to="#808080" begin="zoomplus.mouseover" end="zoomplus.mouseout"/>
                        </use>
                        <path d="M-4,0h8M0,-4v8" fill="none" stroke="white" stroke-width="1.5" pointer-events="none"/>
                </g>
                <g id="zoomMin">
                        <use xlink:href="#rim" fill="#404040">
                                <set attributeName="fill" to="#808080" begin="zoomminus.mouseover" end="zoomminus.mouseout"/>
                        </use>
                        <path d="M-4,0h8" fill="none" stroke="white" stroke-width="1.5" pointer-events="none"/>
                </g>
                <g id="dirArrow">
                        <path fill="none" stroke="white" stroke-width="1.5" d="M0,-3.0v7 M-2.5,-0.5L0,-3.0L2.5,-0.5"/>
                </g>
               <g id="resetDef">
                       <use xlink:href="#rim2" fill="#404040">
                               <set attributeName="fill" to="#808080" begin="reset.mouseover" end="reset.mouseout"/>
                       </use>
               </g>
        </defs>

<script type="text/javascript">
var viewWidth = 932;
var viewHeight = 85;
var sectionId = 'dynsection-27';
</script>
<script xlink:href="../../svgpan.js"/>
<svg id="graph" class="graph">
<g id="viewport">
<title>G</title>
<!-- Node1 -->
<g id="node1" class="node"><title>Node1</title>
<polygon fill="#bfbfbf" stroke="black" points="0.5,-38.5 0.5,-57.5 65.5,-57.5 65.5,-38.5 0.5,-38.5"/>
<text text-anchor="middle" x="33" y="-45.5" font-family="DejaVuSansMono" font-size="10.00">room_del</text>
</g>
<!-- Node2 -->
<g id="node3" class="node"><title>Node2</title>
<a xlink:href="../../d7/d71/xep__muc_8c.html#afc00603220e2d60fd5204e1992931337" target="_top" xlink:title="xep_muc_del">
<polygon fill="none" stroke="black" points="102.5,-57.5 102.5,-76.5 185.5,-76.5 185.5,-57.5 102.5,-57.5"/>
<text text-anchor="middle" x="144" y="-64.5" font-family="DejaVuSansMono" font-size="10.00">xep_muc_del</text>
</a>
</g>
<!-- Node1&#45;&gt;Node2 -->
<g id="edge2" class="edge"><title>Node1&#45;&gt;Node2</title>
<path fill="none" stroke="midnightblue" d="M75.5167,-55.2368C84.2611,-56.7611 93.479,-58.3679 102.197,-59.8875"/>
<polygon fill="midnightblue" stroke="midnightblue" points="75.9798,-51.7649 65.5273,-53.4956 74.7777,-58.6609 75.9798,-51.7649"/>
</g>
<!-- Node3 -->
<g id="node5" class="node"><title>Node3</title>
<a xlink:href="../../d7/d71/xep__muc_8c.html#af88baacca4f1cccf8ec2bc295db0e063" target="_top" xlink:title="leave_room">
<polygon fill="none" stroke="black" points="105.5,-19.5 105.5,-38.5 182.5,-38.5 182.5,-19.5 105.5,-19.5"/>
<text text-anchor="middle" x="144" y="-26.5" font-family="DejaVuSansMono" font-size="10.00">leave_room</text>
</a>
</g>
<!-- Node1&#45;&gt;Node3 -->
<g id="edge4" class="edge"><title>Node1&#45;&gt;Node3</title>
<path fill="none" stroke="midnightblue" d="M75.4885,-40.7681C85.3107,-39.0559 95.7317,-37.2394 105.372,-35.5591"/>
<polygon fill="midnightblue" stroke="midnightblue" points="74.7777,-37.3391 65.5273,-42.5044 75.9798,-44.2351 74.7777,-37.3391"/>
</g>
<!-- Node4 -->
<g id="node7" class="node"><title>Node4</title>
<a xlink:href="../../d7/d71/xep__muc_8c.html#a40cdc65e1b60c76aef97dfc9d3f2510f" target="_top" xlink:title="leave_room_presence">
<polygon fill="none" stroke="black" points="378.5,-38.5 378.5,-57.5 509.5,-57.5 509.5,-38.5 378.5,-38.5"/>
<text text-anchor="middle" x="444" y="-45.5" font-family="DejaVuSansMono" font-size="10.00">leave_room_presence</text>
</a>
</g>
<!-- Node3&#45;&gt;Node4 -->
<g id="edge6" class="edge"><title>Node3&#45;&gt;Node4</title>
<path fill="none" stroke="midnightblue" d="M193.017,-32.0615C243.321,-35.2688 322.631,-40.3255 378.402,-43.8813"/>
<polygon fill="midnightblue" stroke="midnightblue" points="192.944,-28.5498 182.742,-31.4064 192.499,-35.5357 192.944,-28.5498"/>
</g>
<!-- Node9 -->
<g id="node17" class="node"><title>Node9</title>
<a xlink:href="../../d7/d71/xep__muc_8c.html#a0214cd898b2f0c746cb45f79746e5095" target="_top" xlink:title="client_disconnect">
<polygon fill="none" stroke="black" points="222.5,-0.5 222.5,-19.5 341.5,-19.5 341.5,-0.5 222.5,-0.5"/>
<text text-anchor="middle" x="282" y="-7.5" font-family="DejaVuSansMono" font-size="10.00">client_disconnect</text>
</a>
</g>
<!-- Node3&#45;&gt;Node9 -->
<g id="edge16" class="edge"><title>Node3&#45;&gt;Node9</title>
<path fill="none" stroke="midnightblue" d="M192.676,-22.3394C202.286,-20.9968 212.493,-19.5709 222.426,-18.1832"/>
<polygon fill="midnightblue" stroke="midnightblue" points="191.942,-18.9078 182.523,-23.7579 192.911,-25.8405 191.942,-18.9078"/>
</g>
<!-- Node5 -->
<g id="node9" class="node"><title>Node5</title>
<a xlink:href="../../d7/d71/xep__muc_8c.html#a9936322b944d46aead9fbd942687ec0a" target="_top" xlink:title="handle_presence">
<polygon fill="none" stroke="black" points="546.5,-19.5 546.5,-38.5 653.5,-38.5 653.5,-19.5 546.5,-19.5"/>
<text text-anchor="middle" x="600" y="-26.5" font-family="DejaVuSansMono" font-size="10.00">handle_presence</text>
</a>
</g>
<!-- Node4&#45;&gt;Node5 -->
<g id="edge8" class="edge"><title>Node4&#45;&gt;Node5</title>
<path fill="none" stroke="midnightblue" d="M519.911,-38.7578C528.846,-37.6553 537.82,-36.5482 546.349,-35.496"/>
<polygon fill="midnightblue" stroke="midnightblue" points="519.36,-35.2991 509.864,-39.9974 520.217,-42.2465 519.36,-35.2991"/>
</g>
<!-- Node6 -->
<g id="node11" class="node"><title>Node6</title>
<a xlink:href="../../d7/d71/xep__muc_8c.html#a1798db1c16a1fa62ff8f39fea202a26f" target="_top" xlink:title="stanza_handler">
<polygon fill="none" stroke="black" points="690.5,-19.5 690.5,-38.5 791.5,-38.5 791.5,-19.5 690.5,-19.5"/>
<text text-anchor="middle" x="741" y="-26.5" font-family="DejaVuSansMono" font-size="10.00">stanza_handler</text>
</a>
</g>
<!-- Node5&#45;&gt;Node6 -->
<g id="edge10" class="edge"><title>Node5&#45;&gt;Node6</title>
<path fill="none" stroke="midnightblue" d="M663.805,-29C672.627,-29 681.594,-29 690.131,-29"/>
<polygon fill="midnightblue" stroke="midnightblue" points="663.55,-25.5001 653.55,-29 663.55,-32.5001 663.55,-25.5001"/>
</g>
<!-- Node7 -->
<g id="node13" class="node"><title>Node7</title>
<a xlink:href="../../d7/d71/xep__muc_8c.html#addf05166cf3fbe386ae6650be21ef251" target="_top" xlink:title="xep_muc_start">
<polygon fill="none" stroke="black" points="828.5,-38.5 828.5,-57.5 923.5,-57.5 923.5,-38.5 828.5,-38.5"/>
<text text-anchor="middle" x="876" y="-45.5" font-family="DejaVuSansMono" font-size="10.00">xep_muc_start</text>
</a>
</g>
<!-- Node6&#45;&gt;Node7 -->
<g id="edge12" class="edge"><title>Node6&#45;&gt;Node7</title>
<path fill="none" stroke="midnightblue" d="M801.481,-37.4972C810.394,-38.7705 819.477,-40.0681 828.08,-41.2971"/>
<polygon fill="midnightblue" stroke="midnightblue" points="801.919,-34.0244 791.524,-36.0749 800.929,-40.954 801.919,-34.0244"/>
</g>
<!-- Node8 -->
<g id="node15" class="node"><title>Node8</title>
<a xlink:href="../../d7/d71/xep__muc_8c.html#a20d385a5584d8014ec4d5774eb79d1de" target="_top" xlink:title="xep_muc_stop">
<polygon fill="none" stroke="black" points="831.5,-0.5 831.5,-19.5 920.5,-19.5 920.5,-0.5 831.5,-0.5"/>
<text text-anchor="middle" x="876" y="-7.5" font-family="DejaVuSansMono" font-size="10.00">xep_muc_stop</text>
</a>
</g>
<!-- Node6&#45;&gt;Node8 -->
<g id="edge14" class="edge"><title>Node6&#45;&gt;Node8</title>
<path fill="none" stroke="midnightblue" d="M801.725,-20.4678C811.62,-19.0542 821.718,-17.6118 831.128,-16.2674"/>
<polygon fill="midnightblue" stroke="midnightblue" points="800.929,-17.046 791.524,-21.9251 801.919,-23.9756 800.929,-17.046"/>
</g>
<!-- Node10 -->
<g id="node19" class="node"><title>Node10</title>
<a xlink:href="../../d7/d71/xep__muc_8c.html#aefd23f2960520a68fea212344b85cb0b" target="_top" xlink:title="enter_room_presence">
<polygon fill="none" stroke="black" points="378.5,-0.5 378.5,-19.5 509.5,-19.5 509.5,-0.5 378.5,-0.5"/>
<text text-anchor="middle" x="444" y="-7.5" font-family="DejaVuSansMono" font-size="10.00">enter_room_presence</text>
</a>
</g>
<!-- Node9&#45;&gt;Node10 -->
<g id="edge18" class="edge"><title>Node9&#45;&gt;Node10</title>
<path fill="none" stroke="midnightblue" d="M351.89,-10C360.69,-10 369.672,-10 378.401,-10"/>
<polygon fill="midnightblue" stroke="midnightblue" points="351.67,-6.5001 341.67,-10 351.67,-13.5001 351.67,-6.5001"/>
</g>
<!-- Node10&#45;&gt;Node5 -->
<g id="edge20" class="edge"><title>Node10&#45;&gt;Node5</title>
<path fill="none" stroke="midnightblue" d="M519.911,-19.2422C528.846,-20.3447 537.82,-21.4518 546.349,-22.504"/>
<polygon fill="midnightblue" stroke="midnightblue" points="520.217,-15.7535 509.864,-18.0026 519.36,-22.7009 520.217,-15.7535"/>
</g>
</g>
</svg>
        <g id="navigator" transform="translate(0 0)" fill="#404254">
                <rect fill="#f2f5e9" fill-opacity="0.5" stroke="#606060" stroke-width=".5" x="0" y="0" width="60" height="60"/>
                <use id="zoomplus" xlink:href="#zoomPlus" x="17" y="9" onmousedown="handleZoom(evt,'in')"/>
                <use id="zoomminus" xlink:href="#zoomMin" x="42" y="9" onmousedown="handleZoom(evt,'out')"/>
                <use id="reset" xlink:href="#resetDef" x="30" y="36" onmousedown="handleReset()"/>
                <g id="arrowUp" xlink:href="#dirArrow" transform="translate(30 24)" onmousedown="handlePan(0,-1)">
                  <use xlink:href="#rim" fill="#404040">
                        <set attributeName="fill" to="#808080" begin="arrowUp.mouseover" end="arrowUp.mouseout"/>
                  </use>
                  <path fill="none" stroke="white" stroke-width="1.5" d="M0,-3.0v7 M-2.5,-0.5L0,-3.0L2.5,-0.5"/>
                </g>
                <g id="arrowRight" xlink:href="#dirArrow" transform="rotate(90) translate(36 -43)" onmousedown="handlePan(1,0)">
                  <use xlink:href="#rim" fill="#404040">
                        <set attributeName="fill" to="#808080" begin="arrowRight.mouseover" end="arrowRight.mouseout"/>
                  </use>
                  <path fill="none" stroke="white" stroke-width="1.5" d="M0,-3.0v7 M-2.5,-0.5L0,-3.0L2.5,-0.5"/>
                </g>
                <g id="arrowDown" xlink:href="#dirArrow" transform="rotate(180) translate(-30 -48)" onmousedown="handlePan(0,1)">
                  <use xlink:href="#rim" fill="#404040">
                        <set attributeName="fill" to="#808080" begin="arrowDown.mouseover" end="arrowDown.mouseout"/>
                  </use>
                  <path fill="none" stroke="white" stroke-width="1.5" d="M0,-3.0v7 M-2.5,-0.5L0,-3.0L2.5,-0.5"/>
                </g>
                <g id="arrowLeft" xlink:href="#dirArrow" transform="rotate(270) translate(-36 17)" onmousedown="handlePan(-1,0)">
                  <use xlink:href="#rim" fill="#404040">
                        <set attributeName="fill" to="#808080" begin="arrowLeft.mouseover" end="arrowLeft.mouseout"/>
                  </use>
                  <path fill="none" stroke="white" stroke-width="1.5" d="M0,-3.0v7 M-2.5,-0.5L0,-3.0L2.5,-0.5"/>
                </g>
        </g>
        <svg viewBox="0 0 25 25" width="100%" height="30px" preserveAspectRatio="xMaxYMin meet"> 
          <g id="printButton" transform="scale(0.4 0.4)" onmousedown="handlePrint(evt)">
            <rect height="23.33753581" id="paper" rx="2" style="fill:#f2f5e9;fill-rule:evenodd;stroke:#111111;stroke-width:3.224;stroke-linejoin:round;" transform="matrix(1.000000,0.000000,-0.339266,0.940691,0.000000,0.000000)" width="25.55231285" x="26.69387353" y="7.36162977"/>
            <rect height="26.272097" id="body" rx="2" style="fill:#404040;fill-rule:evenodd;stroke:#111111;stroke-width:3.125;stroke-linejoin:round;" width="50" x="4.5295201" y="27.078951"/>
            <rect height="8.27750969" id="tray" style="fill:#d2d5c9;fill-rule:evenodd;stroke:#111111;stroke-width:3.125;stroke-linecap:round;stroke-linejoin:round;" width="40" x="10.28778839" y="44.96812282"/>
          </g>
        </svg>
</svg>
