<?xml version="1.0" encoding="UTF-8" standalone="no"?>
<!DOCTYPE svg PUBLIC "-//W3C//DTD SVG 1.1//EN"
 "http://www.w3.org/Graphics/SVG/1.1/DTD/svg11.dtd">
<!-- Generated by graphviz version 2.28.0 (20120217.0315)
 -->
<!-- Title: G Pages: 1 -->
<!--zoomable 522 -->
<svg id="main" version="1.1" xmlns="http://www.w3.org/2000/svg" xmlns:xlink="http://www.w3.org/1999/xlink" xml:space="preserve" onload="init(evt)">
        <defs>
                <circle id="rim" cx="0" cy="0" r="7"/>
                <circle id="rim2" cx="0" cy="0" r="3.5"/>
                <g id="zoomPlus">
                        <use xlink:href="#rim" fill="#404040">
                                <set attributeName="fill" to="#808080" begin="zoomplus.mouseover" end="zoomplus.mouseout"/>
                        </use>
                        <path d="M-4,0h8M0,-4v8" fill="none" stroke="white" stroke-width="1.5" pointer-events="none"/>
                </g>
                <g id="zoomMin">
                        <use xlink:href="#rim" fill="#404040">
                                <set attributeName="fill" to="#808080" begin="zoomminus.mouseover" end="zoomminus.mouseout"/>
                        </use>
                        <path d="M-4,0h8" fill="none" stroke="white" stroke-width="1.5" pointer-events="none"/>
                </g>
                <g id="dirArrow">
                        <path fill="none" stroke="white" stroke-width="1.5" d="M0,-3.0v7 M-2.5,-0.5L0,-3.0L2.5,-0.5"/>
                </g>
               <g id="resetDef">
                       <use xlink:href="#rim2" fill="#404040">
                               <set attributeName="fill" to="#808080" begin="reset.mouseover" end="reset.mouseout"/>
                       </use>
               </g>
        </defs>

<script type="text/javascript">
var viewWidth = 752;
var viewHeight = 522;
var sectionId = 'dynsection-20';
</script>
<script xlink:href="../../svgpan.js"/>
<svg id="graph" class="graph">
<g id="viewport">
<title>G</title>
<!-- Node1 -->
<g id="node1" class="node"><title>Node1</title>
<polygon fill="#bfbfbf" stroke="black" points="0.5,-418.5 0.5,-437.5 131.5,-437.5 131.5,-418.5 0.5,-418.5"/>
<text text-anchor="middle" x="66" y="-425.5" font-family="DejaVuSansMono" font-size="10.00">leave_room_presence</text>
</g>
<!-- Node2 -->
<g id="node3" class="node"><title>Node2</title>
<a xlink:href="../../d1/d59/xmpp__stanza_8c.html#a20c90c791fa856784f2d43c9f44f1d3c" target="_top" xlink:title="Returns the value of an attribute of this stanza.">
<polygon fill="none" stroke="black" points="507.5,-418.5 507.5,-437.5 620.5,-437.5 620.5,-418.5 507.5,-418.5"/>
<text text-anchor="middle" x="564" y="-425.5" font-family="DejaVuSansMono" font-size="10.00">xmpp_stanza_attr</text>
</a>
</g>
<!-- Node1&#45;&gt;Node2 -->
<g id="edge2" class="edge"><title>Node1&#45;&gt;Node2</title>
<path fill="none" stroke="midnightblue" d="M131.589,-428C226.261,-428 401.779,-428 497.158,-428"/>
<polygon fill="midnightblue" stroke="midnightblue" points="497.257,-431.5 507.257,-428 497.257,-424.5 497.257,-431.5"/>
</g>
<!-- Node3 -->
<g id="node5" class="node"><title>Node3</title>
<a xlink:href="../../d3/d5a/jid_8c.html#a0151ea37a9f52813a8d48d2b7eec2044" target="_top" xlink:title="Allocate and initialize a new JID from an existing JID string.">
<polygon fill="none" stroke="black" points="507.5,-494.5 507.5,-513.5 620.5,-513.5 620.5,-494.5 507.5,-494.5"/>
<text text-anchor="middle" x="564" y="-501.5" font-family="DejaVuSansMono" font-size="10.00">jid_new_from_str</text>
</a>
</g>
<!-- Node1&#45;&gt;Node3 -->
<g id="edge4" class="edge"><title>Node1&#45;&gt;Node3</title>
<path fill="none" stroke="midnightblue" d="M80.9399,-437.578C99.7419,-449.915 134.719,-470.858 168,-480 280.381,-510.869 417.264,-511.366 496.834,-508.189"/>
<polygon fill="midnightblue" stroke="midnightblue" points="497.358,-511.669 507.197,-507.741 497.056,-504.676 497.358,-511.669"/>
</g>
<!-- Node5 -->
<g id="node9" class="node"><title>Node5</title>
<a xlink:href="../../d3/d5a/jid_8c.html#ab83fd5aae95de2c9d38fb9d9cd161580" target="_top" xlink:title="Cleans up and frees an existing JID.">
<polygon fill="none" stroke="black" points="684.5,-342.5 684.5,-361.5 743.5,-361.5 743.5,-342.5 684.5,-342.5"/>
<text text-anchor="middle" x="714" y="-349.5" font-family="DejaVuSansMono" font-size="10.00">jid_del</text>
</a>
</g>
<!-- Node1&#45;&gt;Node5 -->
<g id="edge12" class="edge"><title>Node1&#45;&gt;Node5</title>
<path fill="none" stroke="midnightblue" d="M128.357,-437.518C258.886,-456.569 559.404,-493.731 648,-447 678.214,-431.064 697.058,-394.056 706.246,-371.22"/>
<polygon fill="midnightblue" stroke="midnightblue" points="709.63,-372.168 709.892,-361.577 703.082,-369.693 709.63,-372.168"/>
</g>
<!-- Node6 -->
<g id="node11" class="node"><title>Node6</title>
<a xlink:href="../../d3/d5a/jid_8c.html#a03139cec95c699c543f239f338c0c568" target="_top" xlink:title="Compare two JIDs exactly.">
<polygon fill="none" stroke="black" points="177.5,-209.5 177.5,-228.5 236.5,-228.5 236.5,-209.5 177.5,-209.5"/>
<text text-anchor="middle" x="207" y="-216.5" font-family="DejaVuSansMono" font-size="10.00">jid_cmp</text>
</a>
</g>
<!-- Node1&#45;&gt;Node6 -->
<g id="edge10" class="edge"><title>Node1&#45;&gt;Node6</title>
<path fill="none" stroke="midnightblue" d="M69.7701,-418.422C78.9444,-388.197 111.038,-293.559 168,-238 169.426,-236.609 170.973,-235.301 172.601,-234.072"/>
<polygon fill="midnightblue" stroke="midnightblue" points="174.66,-236.911 181.219,-228.59 170.903,-231.005 174.66,-236.911"/>
</g>
<!-- Node7 -->
<g id="node14" class="node"><title>Node7</title>
<a xlink:href="../../d7/d71/xep__muc_8c.html#af88baacca4f1cccf8ec2bc295db0e063" target="_top" xlink:title="leave_room">
<polygon fill="none" stroke="black" points="168.5,-247.5 168.5,-266.5 245.5,-266.5 245.5,-247.5 168.5,-247.5"/>
<text text-anchor="middle" x="207" y="-254.5" font-family="DejaVuSansMono" font-size="10.00">leave_room</text>
</a>
</g>
<!-- Node1&#45;&gt;Node7 -->
<g id="edge14" class="edge"><title>Node1&#45;&gt;Node7</title>
<path fill="none" stroke="midnightblue" d="M74.8715,-418.316C97.4257,-390.57 162.528,-310.48 191.637,-274.669"/>
<polygon fill="midnightblue" stroke="midnightblue" points="194.623,-276.545 198.215,-266.577 189.191,-272.13 194.623,-276.545"/>
</g>
<!-- Node4 -->
<g id="node7" class="node"><title>Node4</title>
<a xlink:href="../../d3/d5a/jid_8c.html#abd2028a1e581e6374acaa6beaf6e5413" target="_top" xlink:title="Allocate and initialize a new blank JID.">
<polygon fill="none" stroke="black" points="684.5,-494.5 684.5,-513.5 743.5,-513.5 743.5,-494.5 684.5,-494.5"/>
<text text-anchor="middle" x="714" y="-501.5" font-family="DejaVuSansMono" font-size="10.00">jid_new</text>
</a>
</g>
<!-- Node3&#45;&gt;Node4 -->
<g id="edge6" class="edge"><title>Node3&#45;&gt;Node4</title>
<path fill="none" stroke="midnightblue" d="M620.531,-504C638.294,-504 657.574,-504 673.909,-504"/>
<polygon fill="midnightblue" stroke="midnightblue" points="674.173,-507.5 684.173,-504 674.173,-500.5 674.173,-507.5"/>
</g>
<!-- Node3&#45;&gt;Node5 -->
<g id="edge8" class="edge"><title>Node3&#45;&gt;Node5</title>
<path fill="none" stroke="midnightblue" d="M620.827,-494.7C630.601,-491.243 640.141,-486.502 648,-480 682.583,-451.387 700.677,-399.685 708.366,-371.54"/>
<polygon fill="midnightblue" stroke="midnightblue" points="711.8,-372.242 710.893,-361.686 705.019,-370.504 711.8,-372.242"/>
</g>
<!-- Node8 -->
<g id="node16" class="node"><title>Node8</title>
<a xlink:href="../../d3/d5a/jid_8c.html#ad4e057d210bd0776fcb89289e5d59f81" target="_top" xlink:title="Sets the resourcepart of a JID.">
<polygon fill="none" stroke="black" points="306.5,-152.5 306.5,-171.5 419.5,-171.5 419.5,-152.5 306.5,-152.5"/>
<text text-anchor="middle" x="363" y="-159.5" font-family="DejaVuSansMono" font-size="10.00">jid_set_resource</text>
</a>
</g>
<!-- Node7&#45;&gt;Node8 -->
<g id="edge16" class="edge"><title>Node7&#45;&gt;Node8</title>
<path fill="none" stroke="midnightblue" d="M231.66,-247.477C236.696,-244.84 241.765,-241.673 246,-238 267.235,-219.583 259.26,-202.523 282,-186 287.968,-181.664 294.724,-178.103 301.718,-175.181"/>
<polygon fill="midnightblue" stroke="midnightblue" points="303.211,-178.359 311.352,-171.579 300.759,-171.803 303.211,-178.359"/>
</g>
<!-- Node10 -->
<g id="node20" class="node"><title>Node10</title>
<a xlink:href="../../d1/d59/xmpp__stanza_8c.html#aa80dd21d794b5c63fcb13c49745cc373" target="_top" xlink:title="Allocate and initialize a new XMPP stanza structure.">
<polygon fill="none" stroke="black" points="309.5,-114.5 309.5,-133.5 416.5,-133.5 416.5,-114.5 309.5,-114.5"/>
<text text-anchor="middle" x="363" y="-121.5" font-family="DejaVuSansMono" font-size="10.00">xmpp_stanza_new</text>
</a>
</g>
<!-- Node7&#45;&gt;Node10 -->
<g id="edge20" class="edge"><title>Node7&#45;&gt;Node10</title>
<path fill="none" stroke="midnightblue" d="M233.941,-247.331C238.381,-244.807 242.638,-241.722 246,-238 276.268,-204.495 248.08,-172.802 282,-143 287.188,-138.442 293.271,-134.928 299.727,-132.227"/>
<polygon fill="midnightblue" stroke="midnightblue" points="301.122,-135.446 309.391,-128.823 298.796,-128.844 301.122,-135.446"/>
</g>
<!-- Node13 -->
<g id="node26" class="node"><title>Node13</title>
<a xlink:href="../../d1/d59/xmpp__stanza_8c.html#a7ca8bf259143d7ff53b24de8b666026d" target="_top" xlink:title="Sets the value of an attribute in a stanza.">
<polygon fill="none" stroke="black" points="294.5,-76.5 294.5,-95.5 431.5,-95.5 431.5,-76.5 294.5,-76.5"/>
<text text-anchor="middle" x="363" y="-83.5" font-family="DejaVuSansMono" font-size="10.00">xmpp_stanza_set_attr</text>
</a>
</g>
<!-- Node7&#45;&gt;Node13 -->
<g id="edge26" class="edge"><title>Node7&#45;&gt;Node13</title>
<path fill="none" stroke="midnightblue" d="M234.631,-247.364C238.898,-244.855 242.917,-241.768 246,-238 284.779,-190.605 238.029,-147.622 282,-105 283.461,-103.584 285.007,-102.267 286.624,-101.042"/>
<polygon fill="midnightblue" stroke="midnightblue" points="288.616,-103.925 295.238,-95.6548 284.904,-97.9896 288.616,-103.925"/>
</g>
<!-- Node15 -->
<g id="node30" class="node"><title>Node15</title>
<a xlink:href="../../d3/d5a/jid_8c.html#a3d51f2b27d20189e523b0d0b2a77e4a9" target="_top" xlink:title="Converts a JID to a newly allocated string.">
<polygon fill="none" stroke="black" points="525.5,-304.5 525.5,-323.5 602.5,-323.5 602.5,-304.5 525.5,-304.5"/>
<text text-anchor="middle" x="564" y="-311.5" font-family="DejaVuSansMono" font-size="10.00">jid_to_str</text>
</a>
</g>
<!-- Node7&#45;&gt;Node15 -->
<g id="edge30" class="edge"><title>Node7&#45;&gt;Node15</title>
<path fill="none" stroke="midnightblue" d="M216.387,-266.601C229.009,-280.234 254.368,-304.592 282,-314 360.255,-340.645 458.031,-332.016 515.198,-323.136"/>
<polygon fill="midnightblue" stroke="midnightblue" points="516.075,-326.54 525.386,-321.484 514.955,-319.63 516.075,-326.54"/>
</g>
<!-- Node16 -->
<g id="node32" class="node"><title>Node16</title>
<a xlink:href="../../d1/d59/xmpp__stanza_8c.html#ac13c8bb45e2ca03b99836e8d52b265b4" target="_top" xlink:title="Appends a child stanza.">
<polygon fill="none" stroke="black" points="282.5,-228.5 282.5,-247.5 443.5,-247.5 443.5,-228.5 282.5,-228.5"/>
<text text-anchor="middle" x="363" y="-235.5" font-family="DejaVuSansMono" font-size="10.00">xmpp_stanza_append_child</text>
</a>
</g>
<!-- Node7&#45;&gt;Node16 -->
<g id="edge32" class="edge"><title>Node7&#45;&gt;Node16</title>
<path fill="none" stroke="midnightblue" d="M245.673,-252.352C254.622,-251.248 264.54,-250.024 274.701,-248.771"/>
<polygon fill="midnightblue" stroke="midnightblue" points="275.421,-252.208 284.917,-247.51 274.564,-245.261 275.421,-252.208"/>
</g>
<!-- Node17 -->
<g id="node34" class="node"><title>Node17</title>
<a xlink:href="../../d1/d59/xmpp__stanza_8c.html#afc77f00b7f38c79566a7b16876230e30" target="_top" xlink:title="Removes a child stanza.">
<polygon fill="none" stroke="black" points="483.5,-190.5 483.5,-209.5 644.5,-209.5 644.5,-190.5 483.5,-190.5"/>
<text text-anchor="middle" x="564" y="-197.5" font-family="DejaVuSansMono" font-size="10.00">xmpp_stanza_remove_child</text>
</a>
</g>
<!-- Node7&#45;&gt;Node17 -->
<g id="edge52" class="edge"><title>Node7&#45;&gt;Node17</title>
<path fill="none" stroke="midnightblue" d="M227.373,-247.416C233.359,-244.427 239.964,-241.101 246,-238 262.092,-229.732 264.596,-223.94 282,-219 344.216,-201.341 417.154,-196.857 473.126,-196.649"/>
<polygon fill="midnightblue" stroke="midnightblue" points="473.371,-200.149 483.374,-196.658 473.377,-193.149 473.371,-200.149"/>
</g>
<!-- Node18 -->
<g id="node36" class="node"><title>Node18</title>
<a xlink:href="../../d0/df0/xmpp__server_8c.html#a6d3f7e5e289f785b1c8c52f95068c627" target="_top" xlink:title="Deliver a stanza to a registered callback function.">
<polygon fill="none" stroke="black" points="282.5,-380.5 282.5,-399.5 443.5,-399.5 443.5,-380.5 282.5,-380.5"/>
<text text-anchor="middle" x="363" y="-387.5" font-family="DejaVuSansMono" font-size="10.00">xmpp_server_route_stanza</text>
</a>
</g>
<!-- Node7&#45;&gt;Node18 -->
<g id="edge36" class="edge"><title>Node7&#45;&gt;Node18</title>
<path fill="none" stroke="midnightblue" d="M211.914,-266.801C220.941,-288.146 245.3,-339.077 282,-366 287.948,-370.364 294.692,-373.941 301.68,-376.871"/>
<polygon fill="midnightblue" stroke="midnightblue" points="300.716,-380.248 311.308,-380.481 303.173,-373.693 300.716,-380.248"/>
</g>
<!-- Node20 -->
<g id="node44" class="node"><title>Node20</title>
<a xlink:href="../../d7/d71/xep__muc_8c.html#a160ab04be39d4fb816a725d948738248" target="_top" xlink:title="room_client_del">
<polygon fill="none" stroke="black" points="510.5,-266.5 510.5,-285.5 617.5,-285.5 617.5,-266.5 510.5,-266.5"/>
<text text-anchor="middle" x="564" y="-273.5" font-family="DejaVuSansMono" font-size="10.00">room_client_del</text>
</a>
</g>
<!-- Node7&#45;&gt;Node20 -->
<g id="edge48" class="edge"><title>Node7&#45;&gt;Node20</title>
<path fill="none" stroke="midnightblue" d="M221.671,-266.558C235.957,-275.915 259.399,-289.536 282,-295 362.312,-314.416 459.034,-299.921 515.509,-287.823"/>
<polygon fill="midnightblue" stroke="midnightblue" points="516.563,-291.175 525.573,-285.601 515.053,-284.34 516.563,-291.175"/>
</g>
<!-- Node21 -->
<g id="node48" class="node"><title>Node21</title>
<a xlink:href="../../d1/d59/xmpp__stanza_8c.html#af40757ae1d137034570b1bb33303d024" target="_top" xlink:title="Cleans up and frees an XMPP stanza.">
<polygon fill="none" stroke="black" points="309.5,-20.5 309.5,-39.5 416.5,-39.5 416.5,-20.5 309.5,-20.5"/>
<text text-anchor="middle" x="363" y="-27.5" font-family="DejaVuSansMono" font-size="10.00">xmpp_stanza_del</text>
</a>
</g>
<!-- Node7&#45;&gt;Node21 -->
<g id="edge54" class="edge"><title>Node7&#45;&gt;Node21</title>
<path fill="none" stroke="midnightblue" d="M235.195,-247.275C239.299,-244.793 243.116,-241.737 246,-238 293.454,-176.517 233.616,-127.753 282,-67 290.356,-56.5074 302.37,-48.8623 314.556,-43.3449"/>
<polygon fill="midnightblue" stroke="midnightblue" points="315.929,-46.5645 323.85,-39.5285 313.27,-40.0891 315.929,-46.5645"/>
</g>
<!-- Node23 -->
<g id="node54" class="node"><title>Node23</title>
<a xlink:href="../../d7/d71/xep__muc_8c.html#ac6bfec1825c03d5493622565c77302f8" target="_top" xlink:title="room_del">
<polygon fill="none" stroke="black" points="330.5,-266.5 330.5,-285.5 395.5,-285.5 395.5,-266.5 330.5,-266.5"/>
<text text-anchor="middle" x="363" y="-273.5" font-family="DejaVuSansMono" font-size="10.00">room_del</text>
</a>
</g>
<!-- Node7&#45;&gt;Node23 -->
<g id="edge62" class="edge"><title>Node7&#45;&gt;Node23</title>
<path fill="none" stroke="midnightblue" d="M245.673,-261.648C268.322,-264.442 297.178,-268.002 320.483,-270.878"/>
<polygon fill="midnightblue" stroke="midnightblue" points="320.073,-274.354 330.426,-272.105 320.93,-267.406 320.073,-274.354"/>
</g>
<!-- Node9 -->
<g id="node18" class="node"><title>Node9</title>
<a xlink:href="../../d3/d91/utils_8c.html#a07891e77aee8f9b825d52bd33e474f30" target="_top" xlink:title="Simple string copy, freeing original if neccessary.">
<polygon fill="none" stroke="black" points="522.5,-152.5 522.5,-171.5 605.5,-171.5 605.5,-152.5 522.5,-152.5"/>
<text text-anchor="middle" x="564" y="-159.5" font-family="DejaVuSansMono" font-size="10.00">copy_string</text>
</a>
</g>
<!-- Node8&#45;&gt;Node9 -->
<g id="edge18" class="edge"><title>Node8&#45;&gt;Node9</title>
<path fill="none" stroke="midnightblue" d="M419.697,-162C448.781,-162 484.102,-162 512.401,-162"/>
<polygon fill="midnightblue" stroke="midnightblue" points="512.484,-165.5 522.484,-162 512.484,-158.5 512.484,-165.5"/>
</g>
<!-- Node11 -->
<g id="node22" class="node"><title>Node11</title>
<a xlink:href="../../d1/d59/xmpp__stanza_8c.html#a5a80203f56df7a360fa457c0111686f6" target="_top" xlink:title="Parse the namespace triple that Expat gives us.">
<polygon fill="none" stroke="black" points="531.5,-114.5 531.5,-133.5 596.5,-133.5 596.5,-114.5 531.5,-114.5"/>
<text text-anchor="middle" x="564" y="-121.5" font-family="DejaVuSansMono" font-size="10.00">parse_ns</text>
</a>
</g>
<!-- Node10&#45;&gt;Node11 -->
<g id="edge22" class="edge"><title>Node10&#45;&gt;Node11</title>
<path fill="none" stroke="midnightblue" d="M416.545,-124C449.198,-124 490.606,-124 521.054,-124"/>
<polygon fill="midnightblue" stroke="midnightblue" points="521.335,-127.5 531.335,-124 521.335,-120.5 521.335,-127.5"/>
</g>
<!-- Node12 -->
<g id="node24" class="node"><title>Node12</title>
<a xlink:href="../../d1/d59/xmpp__stanza_8c.html#aff4b8f6e10ce1c351d2a5bc39f0e819f" target="_top" xlink:title="Convenience function to build a key for the attribute hash table.">
<polygon fill="none" stroke="black" points="531.5,-76.5 531.5,-95.5 596.5,-95.5 596.5,-76.5 531.5,-76.5"/>
<text text-anchor="middle" x="564" y="-83.5" font-family="DejaVuSansMono" font-size="10.00">make_key</text>
</a>
</g>
<!-- Node10&#45;&gt;Node12 -->
<g id="edge24" class="edge"><title>Node10&#45;&gt;Node12</title>
<path fill="none" stroke="midnightblue" d="M413.959,-114.46C447.06,-108.139 489.981,-99.9434 521.256,-93.9712"/>
<polygon fill="midnightblue" stroke="midnightblue" points="522.219,-97.3506 531.385,-92.037 520.906,-90.4748 522.219,-97.3506"/>
</g>
<!-- Node14 -->
<g id="node28" class="node"><title>Node14</title>
<a xlink:href="../../d1/d59/xmpp__stanza_8c.html#a2fb472c6bf9b7f540a97ddc6c11adb74" target="_top" xlink:title="attribute_del">
<polygon fill="none" stroke="black" points="516.5,-38.5 516.5,-57.5 611.5,-57.5 611.5,-38.5 516.5,-38.5"/>
<text text-anchor="middle" x="564" y="-45.5" font-family="DejaVuSansMono" font-size="10.00">attribute_del</text>
</a>
</g>
<!-- Node13&#45;&gt;Node14 -->
<g id="edge28" class="edge"><title>Node13&#45;&gt;Node14</title>
<path fill="none" stroke="midnightblue" d="M413.959,-76.46C442.075,-71.0911 477.277,-64.3692 506.409,-58.8064"/>
<polygon fill="midnightblue" stroke="midnightblue" points="507.272,-62.2048 516.438,-56.8912 505.959,-55.3291 507.272,-62.2048"/>
</g>
<!-- Node16&#45;&gt;Node17 -->
<g id="edge34" class="edge"><title>Node16&#45;&gt;Node17</title>
<path fill="none" stroke="midnightblue" d="M413.959,-228.46C441.045,-223.288 474.708,-216.86 503.183,-211.422"/>
<polygon fill="midnightblue" stroke="midnightblue" points="503.854,-214.858 513.02,-209.544 502.541,-207.982 503.854,-214.858"/>
</g>
<!-- Node18&#45;&gt;Node2 -->
<g id="edge40" class="edge"><title>Node18&#45;&gt;Node2</title>
<path fill="none" stroke="midnightblue" d="M413.959,-399.54C441.045,-404.712 474.708,-411.14 503.183,-416.578"/>
<polygon fill="midnightblue" stroke="midnightblue" points="502.541,-420.018 513.02,-418.456 503.854,-413.142 502.541,-420.018"/>
</g>
<!-- Node18&#45;&gt;Node3 -->
<g id="edge38" class="edge"><title>Node18&#45;&gt;Node3</title>
<path fill="none" stroke="midnightblue" d="M380.624,-399.523C415.376,-419.432 495.912,-465.568 537.351,-489.307"/>
<polygon fill="midnightblue" stroke="midnightblue" points="535.866,-492.49 546.283,-494.423 539.346,-486.416 535.866,-492.49"/>
</g>
<!-- Node18&#45;&gt;Node5 -->
<g id="edge46" class="edge"><title>Node18&#45;&gt;Node5</title>
<path fill="none" stroke="midnightblue" d="M416.419,-380.49C436.283,-377.13 459.136,-373.555 480,-371 548.02,-362.67 627.673,-357.063 674.024,-354.211"/>
<polygon fill="midnightblue" stroke="midnightblue" points="674.457,-357.691 684.228,-353.594 674.035,-350.704 674.457,-357.691"/>
</g>
<!-- Node18&#45;&gt;Node15 -->
<g id="edge42" class="edge"><title>Node18&#45;&gt;Node15</title>
<path fill="none" stroke="midnightblue" d="M406.246,-380.481C418.775,-376.831 432.273,-372.049 444,-366 462.014,-356.707 461.94,-347.203 480,-338 491.068,-332.36 503.661,-327.858 515.633,-324.347"/>
<polygon fill="midnightblue" stroke="midnightblue" points="516.787,-327.66 525.498,-321.628 514.927,-320.911 516.787,-327.66"/>
</g>
<!-- Node19 -->
<g id="node41" class="node"><title>Node19</title>
<a xlink:href="../../d3/d5a/jid_8c.html#a5b2f969326a86fa7e585f633d7b0f565" target="_top" xlink:title="Compare two JIDs with wildcard matches.">
<polygon fill="none" stroke="black" points="504.5,-380.5 504.5,-399.5 623.5,-399.5 623.5,-380.5 504.5,-380.5"/>
<text text-anchor="middle" x="564" y="-387.5" font-family="DejaVuSansMono" font-size="10.00">jid_cmp_wildcards</text>
</a>
</g>
<!-- Node18&#45;&gt;Node19 -->
<g id="edge44" class="edge"><title>Node18&#45;&gt;Node19</title>
<path fill="none" stroke="midnightblue" d="M443.508,-390C460.363,-390 478.016,-390 494.423,-390"/>
<polygon fill="midnightblue" stroke="midnightblue" points="494.46,-393.5 504.46,-390 494.46,-386.5 494.46,-393.5"/>
</g>
<!-- Node20&#45;&gt;Node5 -->
<g id="edge50" class="edge"><title>Node20&#45;&gt;Node5</title>
<path fill="none" stroke="midnightblue" d="M617.746,-283.943C628.108,-286.635 638.654,-290.224 648,-295 667.479,-304.956 685.847,-322.051 698.055,-334.93"/>
<polygon fill="midnightblue" stroke="midnightblue" points="695.477,-337.297 704.816,-342.302 700.637,-332.566 695.477,-337.297"/>
</g>
<!-- Node21&#45;&gt;Node14 -->
<g id="edge56" class="edge"><title>Node21&#45;&gt;Node14</title>
<path fill="none" stroke="midnightblue" d="M416.545,-34.7528C444.133,-37.2482 477.97,-40.3088 506.167,-42.8593"/>
<polygon fill="midnightblue" stroke="midnightblue" points="506.003,-46.3587 516.278,-43.7739 506.634,-39.3872 506.003,-46.3587"/>
</g>
<!-- Node21&#45;&gt;Node21 -->
<g id="edge60" class="edge"><title>Node21&#45;&gt;Node21</title>
<path fill="none" stroke="midnightblue" d="M338.956,-39.7571C327.259,-48.5653 335.273,-58 363,-58 381.196,-58 390.902,-53.9368 392.119,-48.6539"/>
<polygon fill="midnightblue" stroke="midnightblue" points="395.039,-46.7091 387.044,-39.7571 388.959,-50.1775 395.039,-46.7091"/>
</g>
<!-- Node22 -->
<g id="node51" class="node"><title>Node22</title>
<a xlink:href="../../d1/dc2/xmpp__parser_8c.html#a87065f39f10a449e7af17fa45ca475f2" target="_top" xlink:title="xmpp_parser_namespace_del">
<polygon fill="none" stroke="black" points="480.5,-0.5 480.5,-19.5 647.5,-19.5 647.5,-0.5 480.5,-0.5"/>
<text text-anchor="middle" x="564" y="-7.5" font-family="DejaVuSansMono" font-size="10.00">xmpp_parser_namespace_del</text>
</a>
</g>
<!-- Node21&#45;&gt;Node22 -->
<g id="edge58" class="edge"><title>Node21&#45;&gt;Node22</title>
<path fill="none" stroke="midnightblue" d="M416.545,-24.7191C433.062,-23.0591 451.819,-21.1739 470.265,-19.3201"/>
<polygon fill="midnightblue" stroke="midnightblue" points="470.864,-22.7776 480.464,-18.2951 470.164,-15.8127 470.864,-22.7776"/>
</g>
<!-- Node23&#45;&gt;Node5 -->
<g id="edge64" class="edge"><title>Node23&#45;&gt;Node5</title>
<path fill="none" stroke="midnightblue" d="M395.934,-269.727C460.712,-257.665 605.057,-234.349 648,-257 678.214,-272.936 697.058,-309.944 706.246,-332.78"/>
<polygon fill="midnightblue" stroke="midnightblue" points="703.082,-334.307 709.892,-342.423 709.63,-331.832 703.082,-334.307"/>
</g>
<!-- Node23&#45;&gt;Node20 -->
<g id="edge66" class="edge"><title>Node23&#45;&gt;Node20</title>
<path fill="none" stroke="midnightblue" d="M395.532,-276C423.561,-276 465.375,-276 500.208,-276"/>
<polygon fill="midnightblue" stroke="midnightblue" points="500.299,-279.5 510.299,-276 500.299,-272.5 500.299,-279.5"/>
</g>
</g>
</svg>
        <g id="navigator" transform="translate(0 0)" fill="#404254">
                <rect fill="#f2f5e9" fill-opacity="0.5" stroke="#606060" stroke-width=".5" x="0" y="0" width="60" height="60"/>
                <use id="zoomplus" xlink:href="#zoomPlus" x="17" y="9" onmousedown="handleZoom(evt,'in')"/>
                <use id="zoomminus" xlink:href="#zoomMin" x="42" y="9" onmousedown="handleZoom(evt,'out')"/>
                <use id="reset" xlink:href="#resetDef" x="30" y="36" onmousedown="handleReset()"/>
                <g id="arrowUp" xlink:href="#dirArrow" transform="translate(30 24)" onmousedown="handlePan(0,-1)">
                  <use xlink:href="#rim" fill="#404040">
                        <set attributeName="fill" to="#808080" begin="arrowUp.mouseover" end="arrowUp.mouseout"/>
                  </use>
                  <path fill="none" stroke="white" stroke-width="1.5" d="M0,-3.0v7 M-2.5,-0.5L0,-3.0L2.5,-0.5"/>
                </g>
                <g id="arrowRight" xlink:href="#dirArrow" transform="rotate(90) translate(36 -43)" onmousedown="handlePan(1,0)">
                  <use xlink:href="#rim" fill="#404040">
                        <set attributeName="fill" to="#808080" begin="arrowRight.mouseover" end="arrowRight.mouseout"/>
                  </use>
                  <path fill="none" stroke="white" stroke-width="1.5" d="M0,-3.0v7 M-2.5,-0.5L0,-3.0L2.5,-0.5"/>
                </g>
                <g id="arrowDown" xlink:href="#dirArrow" transform="rotate(180) translate(-30 -48)" onmousedown="handlePan(0,1)">
                  <use xlink:href="#rim" fill="#404040">
                        <set attributeName="fill" to="#808080" begin="arrowDown.mouseover" end="arrowDown.mouseout"/>
                  </use>
                  <path fill="none" stroke="white" stroke-width="1.5" d="M0,-3.0v7 M-2.5,-0.5L0,-3.0L2.5,-0.5"/>
                </g>
                <g id="arrowLeft" xlink:href="#dirArrow" transform="rotate(270) translate(-36 17)" onmousedown="handlePan(-1,0)">
                  <use xlink:href="#rim" fill="#404040">
                        <set attributeName="fill" to="#808080" begin="arrowLeft.mouseover" end="arrowLeft.mouseout"/>
                  </use>
                  <path fill="none" stroke="white" stroke-width="1.5" d="M0,-3.0v7 M-2.5,-0.5L0,-3.0L2.5,-0.5"/>
                </g>
        </g>
        <svg viewBox="0 0 25 25" width="100%" height="30px" preserveAspectRatio="xMaxYMin meet"> 
          <g id="printButton" transform="scale(0.4 0.4)" onmousedown="handlePrint(evt)">
            <rect height="23.33753581" id="paper" rx="2" style="fill:#f2f5e9;fill-rule:evenodd;stroke:#111111;stroke-width:3.224;stroke-linejoin:round;" transform="matrix(1.000000,0.000000,-0.339266,0.940691,0.000000,0.000000)" width="25.55231285" x="26.69387353" y="7.36162977"/>
            <rect height="26.272097" id="body" rx="2" style="fill:#404040;fill-rule:evenodd;stroke:#111111;stroke-width:3.125;stroke-linejoin:round;" width="50" x="4.5295201" y="27.078951"/>
            <rect height="8.27750969" id="tray" style="fill:#d2d5c9;fill-rule:evenodd;stroke:#111111;stroke-width:3.125;stroke-linecap:round;stroke-linejoin:round;" width="40" x="10.28778839" y="44.96812282"/>
          </g>
        </svg>
</svg>
