<?xml version="1.0" encoding="UTF-8" standalone="no"?>
<!DOCTYPE svg PUBLIC "-//W3C//DTD SVG 1.1//EN"
 "http://www.w3.org/Graphics/SVG/1.1/DTD/svg11.dtd">
<!-- Generated by graphviz version 2.28.0 (20120217.0315)
 -->
<!-- Title: G Pages: 1 -->
<!--zoomable 370 -->
<svg id="main" version="1.1" xmlns="http://www.w3.org/2000/svg" xmlns:xlink="http://www.w3.org/1999/xlink" xml:space="preserve" onload="init(evt)">
        <defs>
                <circle id="rim" cx="0" cy="0" r="7"/>
                <circle id="rim2" cx="0" cy="0" r="3.5"/>
                <g id="zoomPlus">
                        <use xlink:href="#rim" fill="#404040">
                                <set attributeName="fill" to="#808080" begin="zoomplus.mouseover" end="zoomplus.mouseout"/>
                        </use>
                        <path d="M-4,0h8M0,-4v8" fill="none" stroke="white" stroke-width="1.5" pointer-events="none"/>
                </g>
                <g id="zoomMin">
                        <use xlink:href="#rim" fill="#404040">
                                <set attributeName="fill" to="#808080" begin="zoomminus.mouseover" end="zoomminus.mouseout"/>
                        </use>
                        <path d="M-4,0h8" fill="none" stroke="white" stroke-width="1.5" pointer-events="none"/>
                </g>
                <g id="dirArrow">
                        <path fill="none" stroke="white" stroke-width="1.5" d="M0,-3.0v7 M-2.5,-0.5L0,-3.0L2.5,-0.5"/>
                </g>
               <g id="resetDef">
                       <use xlink:href="#rim2" fill="#404040">
                               <set attributeName="fill" to="#808080" begin="reset.mouseover" end="reset.mouseout"/>
                       </use>
               </g>
        </defs>

<script type="text/javascript">
var viewWidth = 626;
var viewHeight = 370;
var sectionId = 'dynsection-8';
</script>
<script xlink:href="../../svgpan.js"/>
<svg id="graph" class="graph">
<g id="viewport">
<title>G</title>
<!-- Node1 -->
<g id="node1" class="node"><title>Node1</title>
<polygon fill="#bfbfbf" stroke="black" points="0.5,-228.5 0.5,-247.5 119.5,-247.5 119.5,-228.5 0.5,-228.5"/>
<text text-anchor="middle" x="60" y="-235.5" font-family="DejaVuSansMono" font-size="10.00">handle_info_query</text>
</g>
<!-- Node2 -->
<g id="node3" class="node"><title>Node2</title>
<a xlink:href="../../d1/d59/xmpp__stanza_8c.html#a20c90c791fa856784f2d43c9f44f1d3c" target="_top" xlink:title="Returns the value of an attribute of this stanza.">
<polygon fill="none" stroke="black" points="381.5,-228.5 381.5,-247.5 494.5,-247.5 494.5,-228.5 381.5,-228.5"/>
<text text-anchor="middle" x="438" y="-235.5" font-family="DejaVuSansMono" font-size="10.00">xmpp_stanza_attr</text>
</a>
</g>
<!-- Node1&#45;&gt;Node2 -->
<g id="edge2" class="edge"><title>Node1&#45;&gt;Node2</title>
<path fill="none" stroke="midnightblue" d="M119.75,-238C187.962,-238 300.174,-238 371.242,-238"/>
<polygon fill="midnightblue" stroke="midnightblue" points="371.419,-241.5 381.419,-238 371.419,-234.5 371.419,-241.5"/>
</g>
<!-- Node3 -->
<g id="node5" class="node"><title>Node3</title>
<a xlink:href="../../d1/d59/xmpp__stanza_8c.html#aa80dd21d794b5c63fcb13c49745cc373" target="_top" xlink:title="Allocate and initialize a new XMPP stanza structure.">
<polygon fill="none" stroke="black" points="183.5,-304.5 183.5,-323.5 290.5,-323.5 290.5,-304.5 183.5,-304.5"/>
<text text-anchor="middle" x="237" y="-311.5" font-family="DejaVuSansMono" font-size="10.00">xmpp_stanza_new</text>
</a>
</g>
<!-- Node1&#45;&gt;Node3 -->
<g id="edge4" class="edge"><title>Node1&#45;&gt;Node3</title>
<path fill="none" stroke="midnightblue" d="M74.1513,-247.695C91.8799,-260.329 124.827,-282.303 156,-295 162.218,-297.533 168.851,-299.776 175.537,-301.751"/>
<polygon fill="midnightblue" stroke="midnightblue" points="174.758,-305.167 185.329,-304.455 176.622,-298.419 174.758,-305.167"/>
</g>
<!-- Node6 -->
<g id="node11" class="node"><title>Node6</title>
<a xlink:href="../../d1/d59/xmpp__stanza_8c.html#ac13c8bb45e2ca03b99836e8d52b265b4" target="_top" xlink:title="Appends a child stanza.">
<polygon fill="none" stroke="black" points="156.5,-266.5 156.5,-285.5 317.5,-285.5 317.5,-266.5 156.5,-266.5"/>
<text text-anchor="middle" x="237" y="-273.5" font-family="DejaVuSansMono" font-size="10.00">xmpp_stanza_append_child</text>
</a>
</g>
<!-- Node1&#45;&gt;Node6 -->
<g id="edge10" class="edge"><title>Node1&#45;&gt;Node6</title>
<path fill="none" stroke="midnightblue" d="M105.16,-247.589C128.565,-252.671 157.505,-258.955 182.212,-264.32"/>
<polygon fill="midnightblue" stroke="midnightblue" points="181.643,-267.778 192.158,-266.48 183.128,-260.938 181.643,-267.778"/>
</g>
<!-- Node8 -->
<g id="node15" class="node"><title>Node8</title>
<a xlink:href="../../d0/df0/xmpp__server_8c.html#a6d3f7e5e289f785b1c8c52f95068c627" target="_top" xlink:title="Deliver a stanza to a registered callback function.">
<polygon fill="none" stroke="black" points="156.5,-171.5 156.5,-190.5 317.5,-190.5 317.5,-171.5 156.5,-171.5"/>
<text text-anchor="middle" x="237" y="-178.5" font-family="DejaVuSansMono" font-size="10.00">xmpp_server_route_stanza</text>
</a>
</g>
<!-- Node1&#45;&gt;Node8 -->
<g id="edge14" class="edge"><title>Node1&#45;&gt;Node8</title>
<path fill="none" stroke="midnightblue" d="M90.2911,-228.459C119.567,-218.924 164.752,-204.206 197.039,-193.69"/>
<polygon fill="midnightblue" stroke="midnightblue" points="198.189,-196.997 206.613,-190.572 196.021,-190.341 198.189,-196.997"/>
</g>
<!-- Node14 -->
<g id="node29" class="node"><title>Node14</title>
<a xlink:href="../../d1/d59/xmpp__stanza_8c.html#af40757ae1d137034570b1bb33303d024" target="_top" xlink:title="Cleans up and frees an XMPP stanza.">
<polygon fill="none" stroke="black" points="183.5,-38.5 183.5,-57.5 290.5,-57.5 290.5,-38.5 183.5,-38.5"/>
<text text-anchor="middle" x="237" y="-45.5" font-family="DejaVuSansMono" font-size="10.00">xmpp_stanza_del</text>
</a>
</g>
<!-- Node1&#45;&gt;Node14 -->
<g id="edge30" class="edge"><title>Node1&#45;&gt;Node14</title>
<path fill="none" stroke="midnightblue" d="M69.9189,-228.317C97.8802,-197.959 184.096,-104.353 220.025,-65.3446"/>
<polygon fill="midnightblue" stroke="midnightblue" points="222.689,-67.6183 226.889,-57.8917 217.54,-62.876 222.689,-67.6183"/>
</g>
<!-- Node4 -->
<g id="node7" class="node"><title>Node4</title>
<a xlink:href="../../d1/d59/xmpp__stanza_8c.html#a5a80203f56df7a360fa457c0111686f6" target="_top" xlink:title="Parse the namespace triple that Expat gives us.">
<polygon fill="none" stroke="black" points="405.5,-342.5 405.5,-361.5 470.5,-361.5 470.5,-342.5 405.5,-342.5"/>
<text text-anchor="middle" x="438" y="-349.5" font-family="DejaVuSansMono" font-size="10.00">parse_ns</text>
</a>
</g>
<!-- Node3&#45;&gt;Node4 -->
<g id="edge6" class="edge"><title>Node3&#45;&gt;Node4</title>
<path fill="none" stroke="midnightblue" d="M287.959,-323.54C321.06,-329.861 363.981,-338.057 395.256,-344.029"/>
<polygon fill="midnightblue" stroke="midnightblue" points="394.906,-347.525 405.385,-345.963 396.219,-340.649 394.906,-347.525"/>
</g>
<!-- Node5 -->
<g id="node9" class="node"><title>Node5</title>
<a xlink:href="../../d1/d59/xmpp__stanza_8c.html#aff4b8f6e10ce1c351d2a5bc39f0e819f" target="_top" xlink:title="Convenience function to build a key for the attribute hash table.">
<polygon fill="none" stroke="black" points="405.5,-304.5 405.5,-323.5 470.5,-323.5 470.5,-304.5 405.5,-304.5"/>
<text text-anchor="middle" x="438" y="-311.5" font-family="DejaVuSansMono" font-size="10.00">make_key</text>
</a>
</g>
<!-- Node3&#45;&gt;Node5 -->
<g id="edge8" class="edge"><title>Node3&#45;&gt;Node5</title>
<path fill="none" stroke="midnightblue" d="M290.545,-314C323.198,-314 364.606,-314 395.054,-314"/>
<polygon fill="midnightblue" stroke="midnightblue" points="395.335,-317.5 405.335,-314 395.335,-310.5 395.335,-317.5"/>
</g>
<!-- Node7 -->
<g id="node13" class="node"><title>Node7</title>
<a xlink:href="../../d1/d59/xmpp__stanza_8c.html#afc77f00b7f38c79566a7b16876230e30" target="_top" xlink:title="Removes a child stanza.">
<polygon fill="none" stroke="black" points="357.5,-266.5 357.5,-285.5 518.5,-285.5 518.5,-266.5 357.5,-266.5"/>
<text text-anchor="middle" x="438" y="-273.5" font-family="DejaVuSansMono" font-size="10.00">xmpp_stanza_remove_child</text>
</a>
</g>
<!-- Node6&#45;&gt;Node7 -->
<g id="edge12" class="edge"><title>Node6&#45;&gt;Node7</title>
<path fill="none" stroke="midnightblue" d="M317.508,-276C327.23,-276 337.218,-276 347.079,-276"/>
<polygon fill="midnightblue" stroke="midnightblue" points="347.294,-279.5 357.294,-276 347.293,-272.5 347.294,-279.5"/>
</g>
<!-- Node8&#45;&gt;Node2 -->
<g id="edge22" class="edge"><title>Node8&#45;&gt;Node2</title>
<path fill="none" stroke="midnightblue" d="M264.974,-190.614C288.349,-198.757 323.166,-210.44 354,-219 362.996,-221.497 372.605,-223.919 381.976,-226.15"/>
<polygon fill="midnightblue" stroke="midnightblue" points="381.479,-229.628 392.013,-228.491 383.069,-222.811 381.479,-229.628"/>
</g>
<!-- Node9 -->
<g id="node17" class="node"><title>Node9</title>
<a xlink:href="../../d3/d5a/jid_8c.html#a0151ea37a9f52813a8d48d2b7eec2044" target="_top" xlink:title="Allocate and initialize a new JID from an existing JID string.">
<polygon fill="none" stroke="black" points="381.5,-114.5 381.5,-133.5 494.5,-133.5 494.5,-114.5 381.5,-114.5"/>
<text text-anchor="middle" x="438" y="-121.5" font-family="DejaVuSansMono" font-size="10.00">jid_new_from_str</text>
</a>
</g>
<!-- Node8&#45;&gt;Node9 -->
<g id="edge16" class="edge"><title>Node8&#45;&gt;Node9</title>
<path fill="none" stroke="midnightblue" d="M264.974,-171.386C288.349,-163.243 323.166,-151.56 354,-143 362.996,-140.503 372.605,-138.081 381.976,-135.85"/>
<polygon fill="midnightblue" stroke="midnightblue" points="383.069,-139.189 392.013,-133.509 381.479,-132.372 383.069,-139.189"/>
</g>
<!-- Node11 -->
<g id="node21" class="node"><title>Node11</title>
<a xlink:href="../../d3/d5a/jid_8c.html#ab83fd5aae95de2c9d38fb9d9cd161580" target="_top" xlink:title="Cleans up and frees an existing JID.">
<polygon fill="none" stroke="black" points="558.5,-76.5 558.5,-95.5 617.5,-95.5 617.5,-76.5 558.5,-76.5"/>
<text text-anchor="middle" x="588" y="-83.5" font-family="DejaVuSansMono" font-size="10.00">jid_del</text>
</a>
</g>
<!-- Node8&#45;&gt;Node11 -->
<g id="edge28" class="edge"><title>Node8&#45;&gt;Node11</title>
<path fill="none" stroke="midnightblue" d="M248.528,-171.412C267.793,-154.523 310.733,-119.853 354,-105 419.487,-82.5191 501.165,-81.563 548.373,-83.427"/>
<polygon fill="midnightblue" stroke="midnightblue" points="548.321,-86.9282 558.471,-83.8902 548.642,-79.9355 548.321,-86.9282"/>
</g>
<!-- Node12 -->
<g id="node24" class="node"><title>Node12</title>
<a xlink:href="../../d3/d5a/jid_8c.html#a3d51f2b27d20189e523b0d0b2a77e4a9" target="_top" xlink:title="Converts a JID to a newly allocated string.">
<polygon fill="none" stroke="black" points="399.5,-190.5 399.5,-209.5 476.5,-209.5 476.5,-190.5 399.5,-190.5"/>
<text text-anchor="middle" x="438" y="-197.5" font-family="DejaVuSansMono" font-size="10.00">jid_to_str</text>
</a>
</g>
<!-- Node8&#45;&gt;Node12 -->
<g id="edge24" class="edge"><title>Node8&#45;&gt;Node12</title>
<path fill="none" stroke="midnightblue" d="M317.508,-188.591C341.79,-190.91 367.73,-193.386 389.214,-195.438"/>
<polygon fill="midnightblue" stroke="midnightblue" points="389.089,-198.941 399.376,-196.408 389.754,-191.973 389.089,-198.941"/>
</g>
<!-- Node13 -->
<g id="node26" class="node"><title>Node13</title>
<a xlink:href="../../d3/d5a/jid_8c.html#a5b2f969326a86fa7e585f633d7b0f565" target="_top" xlink:title="Compare two JIDs with wildcard matches.">
<polygon fill="none" stroke="black" points="378.5,-152.5 378.5,-171.5 497.5,-171.5 497.5,-152.5 378.5,-152.5"/>
<text text-anchor="middle" x="438" y="-159.5" font-family="DejaVuSansMono" font-size="10.00">jid_cmp_wildcards</text>
</a>
</g>
<!-- Node8&#45;&gt;Node13 -->
<g id="edge26" class="edge"><title>Node8&#45;&gt;Node13</title>
<path fill="none" stroke="midnightblue" d="M317.508,-173.409C334.363,-171.8 352.016,-170.114 368.423,-168.548"/>
<polygon fill="midnightblue" stroke="midnightblue" points="368.838,-172.024 378.46,-167.589 368.173,-165.056 368.838,-172.024"/>
</g>
<!-- Node10 -->
<g id="node19" class="node"><title>Node10</title>
<a xlink:href="../../d3/d5a/jid_8c.html#abd2028a1e581e6374acaa6beaf6e5413" target="_top" xlink:title="Allocate and initialize a new blank JID.">
<polygon fill="none" stroke="black" points="558.5,-114.5 558.5,-133.5 617.5,-133.5 617.5,-114.5 558.5,-114.5"/>
<text text-anchor="middle" x="588" y="-121.5" font-family="DejaVuSansMono" font-size="10.00">jid_new</text>
</a>
</g>
<!-- Node9&#45;&gt;Node10 -->
<g id="edge18" class="edge"><title>Node9&#45;&gt;Node10</title>
<path fill="none" stroke="midnightblue" d="M494.531,-124C512.294,-124 531.574,-124 547.909,-124"/>
<polygon fill="midnightblue" stroke="midnightblue" points="548.173,-127.5 558.173,-124 548.173,-120.5 548.173,-127.5"/>
</g>
<!-- Node9&#45;&gt;Node11 -->
<g id="edge20" class="edge"><title>Node9&#45;&gt;Node11</title>
<path fill="none" stroke="midnightblue" d="M476.347,-114.411C498.327,-108.767 526.081,-101.641 548.293,-95.9382"/>
<polygon fill="midnightblue" stroke="midnightblue" points="549.253,-99.3053 558.069,-93.4283 547.512,-92.5252 549.253,-99.3053"/>
</g>
<!-- Node14&#45;&gt;Node14 -->
<g id="edge36" class="edge"><title>Node14&#45;&gt;Node14</title>
<path fill="none" stroke="midnightblue" d="M209.873,-57.7571C196.677,-66.5653 205.719,-76 237,-76 258.506,-76 269.5,-71.5406 269.983,-65.8913"/>
<polygon fill="midnightblue" stroke="midnightblue" points="272.81,-63.8273 264.127,-57.7571 267.129,-67.9175 272.81,-63.8273"/>
</g>
<!-- Node15 -->
<g id="node31" class="node"><title>Node15</title>
<a xlink:href="../../d1/d59/xmpp__stanza_8c.html#a2fb472c6bf9b7f540a97ddc6c11adb74" target="_top" xlink:title="attribute_del">
<polygon fill="none" stroke="black" points="390.5,-38.5 390.5,-57.5 485.5,-57.5 485.5,-38.5 390.5,-38.5"/>
<text text-anchor="middle" x="438" y="-45.5" font-family="DejaVuSansMono" font-size="10.00">attribute_del</text>
</a>
</g>
<!-- Node14&#45;&gt;Node15 -->
<g id="edge32" class="edge"><title>Node14&#45;&gt;Node15</title>
<path fill="none" stroke="midnightblue" d="M290.545,-48C318.133,-48 351.97,-48 380.167,-48"/>
<polygon fill="midnightblue" stroke="midnightblue" points="380.278,-51.5001 390.278,-48 380.278,-44.5001 380.278,-51.5001"/>
</g>
<!-- Node16 -->
<g id="node33" class="node"><title>Node16</title>
<a xlink:href="../../d1/dc2/xmpp__parser_8c.html#a87065f39f10a449e7af17fa45ca475f2" target="_top" xlink:title="xmpp_parser_namespace_del">
<polygon fill="none" stroke="black" points="354.5,-0.5 354.5,-19.5 521.5,-19.5 521.5,-0.5 354.5,-0.5"/>
<text text-anchor="middle" x="438" y="-7.5" font-family="DejaVuSansMono" font-size="10.00">xmpp_parser_namespace_del</text>
</a>
</g>
<!-- Node14&#45;&gt;Node16 -->
<g id="edge34" class="edge"><title>Node14&#45;&gt;Node16</title>
<path fill="none" stroke="midnightblue" d="M287.959,-38.46C315.045,-33.2878 348.708,-26.8599 377.183,-21.4222"/>
<polygon fill="midnightblue" stroke="midnightblue" points="377.854,-24.8575 387.02,-19.5439 376.541,-17.9817 377.854,-24.8575"/>
</g>
</g>
</svg>
        <g id="navigator" transform="translate(0 0)" fill="#404254">
                <rect fill="#f2f5e9" fill-opacity="0.5" stroke="#606060" stroke-width=".5" x="0" y="0" width="60" height="60"/>
                <use id="zoomplus" xlink:href="#zoomPlus" x="17" y="9" onmousedown="handleZoom(evt,'in')"/>
                <use id="zoomminus" xlink:href="#zoomMin" x="42" y="9" onmousedown="handleZoom(evt,'out')"/>
                <use id="reset" xlink:href="#resetDef" x="30" y="36" onmousedown="handleReset()"/>
                <g id="arrowUp" xlink:href="#dirArrow" transform="translate(30 24)" onmousedown="handlePan(0,-1)">
                  <use xlink:href="#rim" fill="#404040">
                        <set attributeName="fill" to="#808080" begin="arrowUp.mouseover" end="arrowUp.mouseout"/>
                  </use>
                  <path fill="none" stroke="white" stroke-width="1.5" d="M0,-3.0v7 M-2.5,-0.5L0,-3.0L2.5,-0.5"/>
                </g>
                <g id="arrowRight" xlink:href="#dirArrow" transform="rotate(90) translate(36 -43)" onmousedown="handlePan(1,0)">
                  <use xlink:href="#rim" fill="#404040">
                        <set attributeName="fill" to="#808080" begin="arrowRight.mouseover" end="arrowRight.mouseout"/>
                  </use>
                  <path fill="none" stroke="white" stroke-width="1.5" d="M0,-3.0v7 M-2.5,-0.5L0,-3.0L2.5,-0.5"/>
                </g>
                <g id="arrowDown" xlink:href="#dirArrow" transform="rotate(180) translate(-30 -48)" onmousedown="handlePan(0,1)">
                  <use xlink:href="#rim" fill="#404040">
                        <set attributeName="fill" to="#808080" begin="arrowDown.mouseover" end="arrowDown.mouseout"/>
                  </use>
                  <path fill="none" stroke="white" stroke-width="1.5" d="M0,-3.0v7 M-2.5,-0.5L0,-3.0L2.5,-0.5"/>
                </g>
                <g id="arrowLeft" xlink:href="#dirArrow" transform="rotate(270) translate(-36 17)" onmousedown="handlePan(-1,0)">
                  <use xlink:href="#rim" fill="#404040">
                        <set attributeName="fill" to="#808080" begin="arrowLeft.mouseover" end="arrowLeft.mouseout"/>
                  </use>
                  <path fill="none" stroke="white" stroke-width="1.5" d="M0,-3.0v7 M-2.5,-0.5L0,-3.0L2.5,-0.5"/>
                </g>
        </g>
        <svg viewBox="0 0 25 25" width="100%" height="30px" preserveAspectRatio="xMaxYMin meet"> 
          <g id="printButton" transform="scale(0.4 0.4)" onmousedown="handlePrint(evt)">
            <rect height="23.33753581" id="paper" rx="2" style="fill:#f2f5e9;fill-rule:evenodd;stroke:#111111;stroke-width:3.224;stroke-linejoin:round;" transform="matrix(1.000000,0.000000,-0.339266,0.940691,0.000000,0.000000)" width="25.55231285" x="26.69387353" y="7.36162977"/>
            <rect height="26.272097" id="body" rx="2" style="fill:#404040;fill-rule:evenodd;stroke:#111111;stroke-width:3.125;stroke-linejoin:round;" width="50" x="4.5295201" y="27.078951"/>
            <rect height="8.27750969" id="tray" style="fill:#d2d5c9;fill-rule:evenodd;stroke:#111111;stroke-width:3.125;stroke-linecap:round;stroke-linejoin:round;" width="40" x="10.28778839" y="44.96812282"/>
          </g>
        </svg>
</svg>
