<?xml version="1.0" encoding="UTF-8" standalone="no"?>
<!DOCTYPE svg PUBLIC "-//W3C//DTD SVG 1.1//EN"
 "http://www.w3.org/Graphics/SVG/1.1/DTD/svg11.dtd">
<!-- Generated by graphviz version 2.28.0 (20120217.0315)
 -->
<!-- Title: G Pages: 1 -->
<svg width="350pt" height="66pt"
 viewBox="0.00 0.00 350.00 66.00" xmlns="http://www.w3.org/2000/svg" xmlns:xlink="http://www.w3.org/1999/xlink">
<g id="graph1" class="graph" transform="scale(1 1) rotate(0) translate(4 62)">
<title>G</title>
<!-- Node1 -->
<g id="node1" class="node"><title>Node1</title>
<polygon fill="#bfbfbf" stroke="black" points="0.5,-19.5 0.5,-38.5 71.5,-38.5 71.5,-19.5 0.5,-19.5"/>
<text text-anchor="middle" x="36" y="-26.5" font-family="DejaVuSansMono" font-size="10.00">handle_iq</text>
</g>
<!-- Node2 -->
<g id="node3" class="node"><title>Node2</title>
<a xlink:href="../../d7/d71/xep__muc_8c.html#a1798db1c16a1fa62ff8f39fea202a26f" target="_top" xlink:title="stanza_handler">
<polygon fill="none" stroke="black" points="108.5,-19.5 108.5,-38.5 209.5,-38.5 209.5,-19.5 108.5,-19.5"/>
<text text-anchor="middle" x="159" y="-26.5" font-family="DejaVuSansMono" font-size="10.00">stanza_handler</text>
</a>
</g>
<!-- Node1&#45;&gt;Node2 -->
<g id="edge2" class="edge"><title>Node1&#45;&gt;Node2</title>
<path fill="none" stroke="midnightblue" d="M81.9347,-29C90.5741,-29 99.6678,-29 108.444,-29"/>
<polygon fill="midnightblue" stroke="midnightblue" points="81.6738,-25.5001 71.6737,-29 81.6737,-32.5001 81.6738,-25.5001"/>
</g>
<!-- Node3 -->
<g id="node5" class="node"><title>Node3</title>
<a xlink:href="../../d7/d71/xep__muc_8c.html#addf05166cf3fbe386ae6650be21ef251" target="_top" xlink:title="xep_muc_start">
<polygon fill="none" stroke="black" points="246.5,-38.5 246.5,-57.5 341.5,-57.5 341.5,-38.5 246.5,-38.5"/>
<text text-anchor="middle" x="294" y="-45.5" font-family="DejaVuSansMono" font-size="10.00">xep_muc_start</text>
</a>
</g>
<!-- Node2&#45;&gt;Node3 -->
<g id="edge4" class="edge"><title>Node2&#45;&gt;Node3</title>
<path fill="none" stroke="midnightblue" d="M219.481,-37.4972C228.394,-38.7705 237.477,-40.0681 246.08,-41.2971"/>
<polygon fill="midnightblue" stroke="midnightblue" points="219.919,-34.0244 209.524,-36.0749 218.929,-40.954 219.919,-34.0244"/>
</g>
<!-- Node4 -->
<g id="node7" class="node"><title>Node4</title>
<a xlink:href="../../d7/d71/xep__muc_8c.html#a20d385a5584d8014ec4d5774eb79d1de" target="_top" xlink:title="xep_muc_stop">
<polygon fill="none" stroke="black" points="249.5,-0.5 249.5,-19.5 338.5,-19.5 338.5,-0.5 249.5,-0.5"/>
<text text-anchor="middle" x="294" y="-7.5" font-family="DejaVuSansMono" font-size="10.00">xep_muc_stop</text>
</a>
</g>
<!-- Node2&#45;&gt;Node4 -->
<g id="edge6" class="edge"><title>Node2&#45;&gt;Node4</title>
<path fill="none" stroke="midnightblue" d="M219.725,-20.4678C229.62,-19.0542 239.718,-17.6118 249.128,-16.2674"/>
<polygon fill="midnightblue" stroke="midnightblue" points="218.929,-17.046 209.524,-21.9251 219.919,-23.9756 218.929,-17.046"/>
</g>
</g>
</svg>
