<?xml version="1.0" encoding="UTF-8" standalone="no"?>
<!DOCTYPE svg PUBLIC "-//W3C//DTD SVG 1.1//EN"
 "http://www.w3.org/Graphics/SVG/1.1/DTD/svg11.dtd">
<!-- Generated by graphviz version 2.28.0 (20120217.0315)
 -->
<!-- Title: G Pages: 1 -->
<!--zoomable 370 -->
<svg id="main" version="1.1" xmlns="http://www.w3.org/2000/svg" xmlns:xlink="http://www.w3.org/1999/xlink" xml:space="preserve" onload="init(evt)">
        <defs>
                <circle id="rim" cx="0" cy="0" r="7"/>
                <circle id="rim2" cx="0" cy="0" r="3.5"/>
                <g id="zoomPlus">
                        <use xlink:href="#rim" fill="#404040">
                                <set attributeName="fill" to="#808080" begin="zoomplus.mouseover" end="zoomplus.mouseout"/>
                        </use>
                        <path d="M-4,0h8M0,-4v8" fill="none" stroke="white" stroke-width="1.5" pointer-events="none"/>
                </g>
                <g id="zoomMin">
                        <use xlink:href="#rim" fill="#404040">
                                <set attributeName="fill" to="#808080" begin="zoomminus.mouseover" end="zoomminus.mouseout"/>
                        </use>
                        <path d="M-4,0h8" fill="none" stroke="white" stroke-width="1.5" pointer-events="none"/>
                </g>
                <g id="dirArrow">
                        <path fill="none" stroke="white" stroke-width="1.5" d="M0,-3.0v7 M-2.5,-0.5L0,-3.0L2.5,-0.5"/>
                </g>
               <g id="resetDef">
                       <use xlink:href="#rim2" fill="#404040">
                               <set attributeName="fill" to="#808080" begin="reset.mouseover" end="reset.mouseout"/>
                       </use>
               </g>
        </defs>

<script type="text/javascript">
var viewWidth = 752;
var viewHeight = 370;
var sectionId = 'dynsection-10';
</script>
<script xlink:href="../../svgpan.js"/>
<svg id="graph" class="graph">
<g id="viewport">
<title>G</title>
<!-- Node1 -->
<g id="node1" class="node"><title>Node1</title>
<polygon fill="#bfbfbf" stroke="black" points="0.5,-152.5 0.5,-171.5 71.5,-171.5 71.5,-152.5 0.5,-152.5"/>
<text text-anchor="middle" x="36" y="-159.5" font-family="DejaVuSansMono" font-size="10.00">handle_iq</text>
</g>
<!-- Node2 -->
<g id="node3" class="node"><title>Node2</title>
<a xlink:href="../../d1/d59/xmpp__stanza_8c.html#a20c90c791fa856784f2d43c9f44f1d3c" target="_top" xlink:title="Returns the value of an attribute of this stanza.">
<polygon fill="none" stroke="black" points="507.5,-342.5 507.5,-361.5 620.5,-361.5 620.5,-342.5 507.5,-342.5"/>
<text text-anchor="middle" x="564" y="-349.5" font-family="DejaVuSansMono" font-size="10.00">xmpp_stanza_attr</text>
</a>
</g>
<!-- Node1&#45;&gt;Node2 -->
<g id="edge2" class="edge"><title>Node1&#45;&gt;Node2</title>
<path fill="none" stroke="midnightblue" d="M47.134,-171.688C78.7203,-201.172 179.423,-289.878 282,-324 352.984,-347.613 439.18,-353.024 497.235,-353.544"/>
<polygon fill="midnightblue" stroke="midnightblue" points="497.364,-357.044 507.379,-353.587 497.394,-350.044 497.364,-357.044"/>
</g>
<!-- Node3 -->
<g id="node5" class="node"><title>Node3</title>
<a xlink:href="../../d1/d59/xmpp__stanza_8c.html#af1ad00a6a75789396a933dfc0ed9c1f5" target="_top" xlink:title="Returns a pointer to the first child stanza.">
<polygon fill="none" stroke="black" points="108.5,-114.5 108.5,-133.5 245.5,-133.5 245.5,-114.5 108.5,-114.5"/>
<text text-anchor="middle" x="177" y="-121.5" font-family="DejaVuSansMono" font-size="10.00">xmpp_stanza_children</text>
</a>
</g>
<!-- Node1&#45;&gt;Node3 -->
<g id="edge4" class="edge"><title>Node1&#45;&gt;Node3</title>
<path fill="none" stroke="midnightblue" d="M71.717,-152.509C89.7946,-147.567 112.102,-141.468 131.44,-136.182"/>
<polygon fill="midnightblue" stroke="midnightblue" points="132.521,-139.515 141.244,-133.502 130.675,-132.763 132.521,-139.515"/>
</g>
<!-- Node4 -->
<g id="node7" class="node"><title>Node4</title>
<a xlink:href="../../d1/d59/xmpp__stanza_8c.html#aa222b0d106ec5708c4aa173daa9497e7" target="_top" xlink:title="Returns the namespace URI of this stanza.">
<polygon fill="none" stroke="black" points="123.5,-76.5 123.5,-95.5 230.5,-95.5 230.5,-76.5 123.5,-76.5"/>
<text text-anchor="middle" x="177" y="-83.5" font-family="DejaVuSansMono" font-size="10.00">xmpp_stanza_uri</text>
</a>
</g>
<!-- Node1&#45;&gt;Node4 -->
<g id="edge6" class="edge"><title>Node1&#45;&gt;Node4</title>
<path fill="none" stroke="midnightblue" d="M46.6564,-152.07C59.526,-139.382 83.5336,-117.566 108,-105 112.518,-102.679 117.355,-100.612 122.29,-98.7775"/>
<polygon fill="midnightblue" stroke="midnightblue" points="123.5,-102.063 131.841,-95.5294 121.246,-95.4355 123.5,-102.063"/>
</g>
<!-- Node5 -->
<g id="node9" class="node"><title>Node5</title>
<a xlink:href="../../d7/d71/xep__muc_8c.html#a4b26d057ea25fe1b3c99edff73a82d78" target="_top" xlink:title="handle_items_query">
<polygon fill="none" stroke="black" points="114.5,-152.5 114.5,-171.5 239.5,-171.5 239.5,-152.5 114.5,-152.5"/>
<text text-anchor="middle" x="177" y="-159.5" font-family="DejaVuSansMono" font-size="10.00">handle_items_query</text>
</a>
</g>
<!-- Node1&#45;&gt;Node5 -->
<g id="edge8" class="edge"><title>Node1&#45;&gt;Node5</title>
<path fill="none" stroke="midnightblue" d="M71.717,-162C81.629,-162 92.8128,-162 104.081,-162"/>
<polygon fill="midnightblue" stroke="midnightblue" points="104.42,-165.5 114.42,-162 104.42,-158.5 104.42,-165.5"/>
</g>
<!-- Node21 -->
<g id="node47" class="node"><title>Node21</title>
<a xlink:href="../../d7/d71/xep__muc_8c.html#a20d9ff75edcc76b952adf38d558fee26" target="_top" xlink:title="handle_info_query">
<polygon fill="none" stroke="black" points="117.5,-190.5 117.5,-209.5 236.5,-209.5 236.5,-190.5 117.5,-190.5"/>
<text text-anchor="middle" x="177" y="-197.5" font-family="DejaVuSansMono" font-size="10.00">handle_info_query</text>
</a>
</g>
<!-- Node1&#45;&gt;Node21 -->
<g id="edge52" class="edge"><title>Node1&#45;&gt;Node21</title>
<path fill="none" stroke="midnightblue" d="M71.717,-171.491C89.7946,-176.433 112.102,-182.532 131.44,-187.818"/>
<polygon fill="midnightblue" stroke="midnightblue" points="130.675,-191.237 141.244,-190.498 132.521,-184.485 130.675,-191.237"/>
</g>
<!-- Node5&#45;&gt;Node2 -->
<g id="edge10" class="edge"><title>Node5&#45;&gt;Node2</title>
<path fill="none" stroke="midnightblue" d="M230.473,-171.585C236.082,-174.043 241.408,-177.129 246,-181 274.576,-205.091 252.581,-233.946 282,-257 339.836,-302.323 380.877,-252.388 444,-290 465.412,-302.758 458.743,-319.985 480,-333 485.46,-336.343 491.449,-339.099 497.631,-341.371"/>
<polygon fill="midnightblue" stroke="midnightblue" points="496.864,-344.801 507.456,-344.556 499.023,-338.143 496.864,-344.801"/>
</g>
<!-- Node6 -->
<g id="node12" class="node"><title>Node6</title>
<a xlink:href="../../d1/d59/xmpp__stanza_8c.html#aa80dd21d794b5c63fcb13c49745cc373" target="_top" xlink:title="Allocate and initialize a new XMPP stanza structure.">
<polygon fill="none" stroke="black" points="309.5,-228.5 309.5,-247.5 416.5,-247.5 416.5,-228.5 309.5,-228.5"/>
<text text-anchor="middle" x="363" y="-235.5" font-family="DejaVuSansMono" font-size="10.00">xmpp_stanza_new</text>
</a>
</g>
<!-- Node5&#45;&gt;Node6 -->
<g id="edge12" class="edge"><title>Node5&#45;&gt;Node6</title>
<path fill="none" stroke="midnightblue" d="M225.11,-171.559C232.383,-174.041 239.596,-177.14 246,-181 265.925,-193.01 261.843,-207.384 282,-219 287.438,-222.134 293.368,-224.752 299.461,-226.939"/>
<polygon fill="midnightblue" stroke="midnightblue" points="298.53,-230.316 309.121,-230.032 300.665,-223.649 298.53,-230.316"/>
</g>
<!-- Node9 -->
<g id="node18" class="node"><title>Node9</title>
<a xlink:href="../../d1/d59/xmpp__stanza_8c.html#ac13c8bb45e2ca03b99836e8d52b265b4" target="_top" xlink:title="Appends a child stanza.">
<polygon fill="none" stroke="black" points="282.5,-152.5 282.5,-171.5 443.5,-171.5 443.5,-152.5 282.5,-152.5"/>
<text text-anchor="middle" x="363" y="-159.5" font-family="DejaVuSansMono" font-size="10.00">xmpp_stanza_append_child</text>
</a>
</g>
<!-- Node5&#45;&gt;Node9 -->
<g id="edge18" class="edge"><title>Node5&#45;&gt;Node9</title>
<path fill="none" stroke="midnightblue" d="M239.525,-162C250.003,-162 261.076,-162 272.109,-162"/>
<polygon fill="midnightblue" stroke="midnightblue" points="272.211,-165.5 282.211,-162 272.211,-158.5 272.211,-165.5"/>
</g>
<!-- Node11 -->
<g id="node22" class="node"><title>Node11</title>
<a xlink:href="../../d1/d59/xmpp__stanza_8c.html#a7ca8bf259143d7ff53b24de8b666026d" target="_top" xlink:title="Sets the value of an attribute in a stanza.">
<polygon fill="none" stroke="black" points="294.5,-76.5 294.5,-95.5 431.5,-95.5 431.5,-76.5 294.5,-76.5"/>
<text text-anchor="middle" x="363" y="-83.5" font-family="DejaVuSansMono" font-size="10.00">xmpp_stanza_set_attr</text>
</a>
</g>
<!-- Node5&#45;&gt;Node11 -->
<g id="edge22" class="edge"><title>Node5&#45;&gt;Node11</title>
<path fill="none" stroke="midnightblue" d="M223.803,-152.399C231.464,-149.903 239.143,-146.811 246,-143 264.973,-132.457 263.128,-120.723 282,-110 289.962,-105.476 298.865,-101.723 307.76,-98.6368"/>
<polygon fill="midnightblue" stroke="midnightblue" points="308.917,-101.941 317.363,-95.5443 306.771,-95.2781 308.917,-101.941"/>
</g>
<!-- Node13 -->
<g id="node26" class="node"><title>Node13</title>
<a xlink:href="../../d3/d5a/jid_8c.html#a3d51f2b27d20189e523b0d0b2a77e4a9" target="_top" xlink:title="Converts a JID to a newly allocated string.">
<polygon fill="none" stroke="black" points="525.5,-76.5 525.5,-95.5 602.5,-95.5 602.5,-76.5 525.5,-76.5"/>
<text text-anchor="middle" x="564" y="-83.5" font-family="DejaVuSansMono" font-size="10.00">jid_to_str</text>
</a>
</g>
<!-- Node5&#45;&gt;Node13 -->
<g id="edge26" class="edge"><title>Node5&#45;&gt;Node13</title>
<path fill="none" stroke="midnightblue" d="M226.371,-152.452C300.632,-137.792 441.853,-109.915 515.554,-95.366"/>
<polygon fill="midnightblue" stroke="midnightblue" points="516.359,-98.7748 525.491,-93.4043 515.003,-91.9073 516.359,-98.7748"/>
</g>
<!-- Node14 -->
<g id="node28" class="node"><title>Node14</title>
<a xlink:href="../../d0/df0/xmpp__server_8c.html#a6d3f7e5e289f785b1c8c52f95068c627" target="_top" xlink:title="Deliver a stanza to a registered callback function.">
<polygon fill="none" stroke="black" points="282.5,-190.5 282.5,-209.5 443.5,-209.5 443.5,-190.5 282.5,-190.5"/>
<text text-anchor="middle" x="363" y="-197.5" font-family="DejaVuSansMono" font-size="10.00">xmpp_server_route_stanza</text>
</a>
</g>
<!-- Node5&#45;&gt;Node14 -->
<g id="edge28" class="edge"><title>Node5&#45;&gt;Node14</title>
<path fill="none" stroke="midnightblue" d="M224.431,-171.589C249.149,-176.694 279.739,-183.011 305.792,-188.392"/>
<polygon fill="midnightblue" stroke="midnightblue" points="305.402,-191.885 315.903,-190.48 306.817,-185.03 305.402,-191.885"/>
</g>
<!-- Node19 -->
<g id="node41" class="node"><title>Node19</title>
<a xlink:href="../../d1/d59/xmpp__stanza_8c.html#af40757ae1d137034570b1bb33303d024" target="_top" xlink:title="Cleans up and frees an XMPP stanza.">
<polygon fill="none" stroke="black" points="309.5,-20.5 309.5,-39.5 416.5,-39.5 416.5,-20.5 309.5,-20.5"/>
<text text-anchor="middle" x="363" y="-27.5" font-family="DejaVuSansMono" font-size="10.00">xmpp_stanza_del</text>
</a>
</g>
<!-- Node5&#45;&gt;Node19 -->
<g id="edge44" class="edge"><title>Node5&#45;&gt;Node19</title>
<path fill="none" stroke="midnightblue" d="M230.473,-152.415C236.082,-149.957 241.408,-146.871 246,-143 274.576,-118.909 255.45,-93.3071 282,-67 292.321,-56.7729 305.992,-49.0422 319.108,-43.363"/>
<polygon fill="midnightblue" stroke="midnightblue" points="320.532,-46.5627 328.504,-39.5839 317.92,-40.0682 320.532,-46.5627"/>
</g>
<!-- Node7 -->
<g id="node14" class="node"><title>Node7</title>
<a xlink:href="../../d1/d59/xmpp__stanza_8c.html#a5a80203f56df7a360fa457c0111686f6" target="_top" xlink:title="Parse the namespace triple that Expat gives us.">
<polygon fill="none" stroke="black" points="531.5,-304.5 531.5,-323.5 596.5,-323.5 596.5,-304.5 531.5,-304.5"/>
<text text-anchor="middle" x="564" y="-311.5" font-family="DejaVuSansMono" font-size="10.00">parse_ns</text>
</a>
</g>
<!-- Node6&#45;&gt;Node7 -->
<g id="edge14" class="edge"><title>Node6&#45;&gt;Node7</title>
<path fill="none" stroke="midnightblue" d="M408.637,-247.544C420.572,-251.11 433.158,-255.839 444,-262 462.872,-272.723 460.783,-284.91 480,-295 492.62,-301.626 507.508,-305.956 521.165,-308.78"/>
<polygon fill="midnightblue" stroke="midnightblue" points="520.841,-312.279 531.311,-310.659 522.116,-305.396 520.841,-312.279"/>
</g>
<!-- Node8 -->
<g id="node16" class="node"><title>Node8</title>
<a xlink:href="../../d1/d59/xmpp__stanza_8c.html#aff4b8f6e10ce1c351d2a5bc39f0e819f" target="_top" xlink:title="Convenience function to build a key for the attribute hash table.">
<polygon fill="none" stroke="black" points="531.5,-266.5 531.5,-285.5 596.5,-285.5 596.5,-266.5 531.5,-266.5"/>
<text text-anchor="middle" x="564" y="-273.5" font-family="DejaVuSansMono" font-size="10.00">make_key</text>
</a>
</g>
<!-- Node6&#45;&gt;Node8 -->
<g id="edge16" class="edge"><title>Node6&#45;&gt;Node8</title>
<path fill="none" stroke="midnightblue" d="M413.959,-247.54C447.06,-253.861 489.981,-262.057 521.256,-268.029"/>
<polygon fill="midnightblue" stroke="midnightblue" points="520.906,-271.525 531.385,-269.963 522.219,-264.649 520.906,-271.525"/>
</g>
<!-- Node10 -->
<g id="node20" class="node"><title>Node10</title>
<a xlink:href="../../d1/d59/xmpp__stanza_8c.html#afc77f00b7f38c79566a7b16876230e30" target="_top" xlink:title="Removes a child stanza.">
<polygon fill="none" stroke="black" points="483.5,-114.5 483.5,-133.5 644.5,-133.5 644.5,-114.5 483.5,-114.5"/>
<text text-anchor="middle" x="564" y="-121.5" font-family="DejaVuSansMono" font-size="10.00">xmpp_stanza_remove_child</text>
</a>
</g>
<!-- Node9&#45;&gt;Node10 -->
<g id="edge20" class="edge"><title>Node9&#45;&gt;Node10</title>
<path fill="none" stroke="midnightblue" d="M413.959,-152.46C441.045,-147.288 474.708,-140.86 503.183,-135.422"/>
<polygon fill="midnightblue" stroke="midnightblue" points="503.854,-138.858 513.02,-133.544 502.541,-131.982 503.854,-138.858"/>
</g>
<!-- Node12 -->
<g id="node24" class="node"><title>Node12</title>
<a xlink:href="../../d1/d59/xmpp__stanza_8c.html#a2fb472c6bf9b7f540a97ddc6c11adb74" target="_top" xlink:title="attribute_del">
<polygon fill="none" stroke="black" points="516.5,-38.5 516.5,-57.5 611.5,-57.5 611.5,-38.5 516.5,-38.5"/>
<text text-anchor="middle" x="564" y="-45.5" font-family="DejaVuSansMono" font-size="10.00">attribute_del</text>
</a>
</g>
<!-- Node11&#45;&gt;Node12 -->
<g id="edge24" class="edge"><title>Node11&#45;&gt;Node12</title>
<path fill="none" stroke="midnightblue" d="M413.959,-76.46C442.075,-71.0911 477.277,-64.3692 506.409,-58.8064"/>
<polygon fill="midnightblue" stroke="midnightblue" points="507.272,-62.2048 516.438,-56.8912 505.959,-55.3291 507.272,-62.2048"/>
</g>
<!-- Node14&#45;&gt;Node2 -->
<g id="edge36" class="edge"><title>Node14&#45;&gt;Node2</title>
<path fill="none" stroke="midnightblue" d="M430.207,-209.64C435.231,-212.132 439.923,-215.209 444,-219 482.911,-255.18 440.942,-296.978 480,-333 485.111,-337.713 491.145,-341.336 497.591,-344.11"/>
<polygon fill="midnightblue" stroke="midnightblue" points="496.676,-347.5 507.27,-347.595 499.047,-340.914 496.676,-347.5"/>
</g>
<!-- Node14&#45;&gt;Node13 -->
<g id="edge38" class="edge"><title>Node14&#45;&gt;Node13</title>
<path fill="none" stroke="midnightblue" d="M428.081,-190.452C433.805,-187.965 439.23,-184.864 444,-181 473.043,-157.475 450.861,-128.406 480,-105 490.003,-96.9648 502.764,-92.1941 515.264,-89.398"/>
<polygon fill="midnightblue" stroke="midnightblue" points="515.983,-92.8243 525.174,-87.5542 514.702,-85.9424 515.983,-92.8243"/>
</g>
<!-- Node15 -->
<g id="node30" class="node"><title>Node15</title>
<a xlink:href="../../d3/d5a/jid_8c.html#a0151ea37a9f52813a8d48d2b7eec2044" target="_top" xlink:title="Allocate and initialize a new JID from an existing JID string.">
<polygon fill="none" stroke="black" points="507.5,-228.5 507.5,-247.5 620.5,-247.5 620.5,-228.5 507.5,-228.5"/>
<text text-anchor="middle" x="564" y="-235.5" font-family="DejaVuSansMono" font-size="10.00">jid_new_from_str</text>
</a>
</g>
<!-- Node14&#45;&gt;Node15 -->
<g id="edge30" class="edge"><title>Node14&#45;&gt;Node15</title>
<path fill="none" stroke="midnightblue" d="M413.959,-209.54C441.045,-214.712 474.708,-221.14 503.183,-226.578"/>
<polygon fill="midnightblue" stroke="midnightblue" points="502.541,-230.018 513.02,-228.456 503.854,-223.142 502.541,-230.018"/>
</g>
<!-- Node17 -->
<g id="node34" class="node"><title>Node17</title>
<a xlink:href="../../d3/d5a/jid_8c.html#ab83fd5aae95de2c9d38fb9d9cd161580" target="_top" xlink:title="Cleans up and frees an existing JID.">
<polygon fill="none" stroke="black" points="684.5,-190.5 684.5,-209.5 743.5,-209.5 743.5,-190.5 684.5,-190.5"/>
<text text-anchor="middle" x="714" y="-197.5" font-family="DejaVuSansMono" font-size="10.00">jid_del</text>
</a>
</g>
<!-- Node14&#45;&gt;Node17 -->
<g id="edge42" class="edge"><title>Node14&#45;&gt;Node17</title>
<path fill="none" stroke="midnightblue" d="M443.63,-200C515.639,-200 618.613,-200 674.066,-200"/>
<polygon fill="midnightblue" stroke="midnightblue" points="674.175,-203.5 684.175,-200 674.175,-196.5 674.175,-203.5"/>
</g>
<!-- Node18 -->
<g id="node38" class="node"><title>Node18</title>
<a xlink:href="../../d3/d5a/jid_8c.html#a5b2f969326a86fa7e585f633d7b0f565" target="_top" xlink:title="Compare two JIDs with wildcard matches.">
<polygon fill="none" stroke="black" points="504.5,-152.5 504.5,-171.5 623.5,-171.5 623.5,-152.5 504.5,-152.5"/>
<text text-anchor="middle" x="564" y="-159.5" font-family="DejaVuSansMono" font-size="10.00">jid_cmp_wildcards</text>
</a>
</g>
<!-- Node14&#45;&gt;Node18 -->
<g id="edge40" class="edge"><title>Node14&#45;&gt;Node18</title>
<path fill="none" stroke="midnightblue" d="M413.959,-190.46C441.045,-185.288 474.708,-178.86 503.183,-173.422"/>
<polygon fill="midnightblue" stroke="midnightblue" points="503.854,-176.858 513.02,-171.544 502.541,-169.982 503.854,-176.858"/>
</g>
<!-- Node16 -->
<g id="node32" class="node"><title>Node16</title>
<a xlink:href="../../d3/d5a/jid_8c.html#abd2028a1e581e6374acaa6beaf6e5413" target="_top" xlink:title="Allocate and initialize a new blank JID.">
<polygon fill="none" stroke="black" points="684.5,-228.5 684.5,-247.5 743.5,-247.5 743.5,-228.5 684.5,-228.5"/>
<text text-anchor="middle" x="714" y="-235.5" font-family="DejaVuSansMono" font-size="10.00">jid_new</text>
</a>
</g>
<!-- Node15&#45;&gt;Node16 -->
<g id="edge32" class="edge"><title>Node15&#45;&gt;Node16</title>
<path fill="none" stroke="midnightblue" d="M620.531,-238C638.294,-238 657.574,-238 673.909,-238"/>
<polygon fill="midnightblue" stroke="midnightblue" points="674.173,-241.5 684.173,-238 674.173,-234.5 674.173,-241.5"/>
</g>
<!-- Node15&#45;&gt;Node17 -->
<g id="edge34" class="edge"><title>Node15&#45;&gt;Node17</title>
<path fill="none" stroke="midnightblue" d="M602.347,-228.411C624.327,-222.767 652.081,-215.641 674.293,-209.938"/>
<polygon fill="midnightblue" stroke="midnightblue" points="675.253,-213.305 684.069,-207.428 673.512,-206.525 675.253,-213.305"/>
</g>
<!-- Node19&#45;&gt;Node12 -->
<g id="edge46" class="edge"><title>Node19&#45;&gt;Node12</title>
<path fill="none" stroke="midnightblue" d="M416.545,-34.7528C444.133,-37.2482 477.97,-40.3088 506.167,-42.8593"/>
<polygon fill="midnightblue" stroke="midnightblue" points="506.003,-46.3587 516.278,-43.7739 506.634,-39.3872 506.003,-46.3587"/>
</g>
<!-- Node19&#45;&gt;Node19 -->
<g id="edge50" class="edge"><title>Node19&#45;&gt;Node19</title>
<path fill="none" stroke="midnightblue" d="M334.332,-39.7571C320.385,-48.5653 329.941,-58 363,-58 385.728,-58 397.347,-53.5406 397.857,-47.8913"/>
<polygon fill="midnightblue" stroke="midnightblue" points="400.509,-45.5958 391.668,-39.7571 394.938,-49.8346 400.509,-45.5958"/>
</g>
<!-- Node20 -->
<g id="node44" class="node"><title>Node20</title>
<a xlink:href="../../d1/dc2/xmpp__parser_8c.html#a87065f39f10a449e7af17fa45ca475f2" target="_top" xlink:title="xmpp_parser_namespace_del">
<polygon fill="none" stroke="black" points="480.5,-0.5 480.5,-19.5 647.5,-19.5 647.5,-0.5 480.5,-0.5"/>
<text text-anchor="middle" x="564" y="-7.5" font-family="DejaVuSansMono" font-size="10.00">xmpp_parser_namespace_del</text>
</a>
</g>
<!-- Node19&#45;&gt;Node20 -->
<g id="edge48" class="edge"><title>Node19&#45;&gt;Node20</title>
<path fill="none" stroke="midnightblue" d="M416.545,-24.7191C433.062,-23.0591 451.819,-21.1739 470.265,-19.3201"/>
<polygon fill="midnightblue" stroke="midnightblue" points="470.864,-22.7776 480.464,-18.2951 470.164,-15.8127 470.864,-22.7776"/>
</g>
<!-- Node21&#45;&gt;Node2 -->
<g id="edge54" class="edge"><title>Node21&#45;&gt;Node2</title>
<path fill="none" stroke="midnightblue" d="M186.061,-209.623C202.222,-228.248 240.601,-269.217 282,-290 319.076,-308.613 426.314,-329.17 497.074,-341.315"/>
<polygon fill="midnightblue" stroke="midnightblue" points="496.791,-344.817 507.236,-343.045 497.965,-337.916 496.791,-344.817"/>
</g>
<!-- Node21&#45;&gt;Node6 -->
<g id="edge56" class="edge"><title>Node21&#45;&gt;Node6</title>
<path fill="none" stroke="midnightblue" d="M224.431,-209.589C249.149,-214.694 279.739,-221.011 305.792,-226.392"/>
<polygon fill="midnightblue" stroke="midnightblue" points="305.402,-229.885 315.903,-228.48 306.817,-223.03 305.402,-229.885"/>
</g>
<!-- Node21&#45;&gt;Node9 -->
<g id="edge58" class="edge"><title>Node21&#45;&gt;Node9</title>
<path fill="none" stroke="midnightblue" d="M224.431,-190.411C249.149,-185.306 279.739,-178.989 305.792,-173.608"/>
<polygon fill="midnightblue" stroke="midnightblue" points="306.817,-176.97 315.903,-171.52 305.402,-170.115 306.817,-176.97"/>
</g>
<!-- Node21&#45;&gt;Node14 -->
<g id="edge60" class="edge"><title>Node21&#45;&gt;Node14</title>
<path fill="none" stroke="midnightblue" d="M236.725,-200C248.064,-200 260.182,-200 272.249,-200"/>
<polygon fill="midnightblue" stroke="midnightblue" points="272.355,-203.5 282.355,-200 272.355,-196.5 272.355,-203.5"/>
</g>
<!-- Node21&#45;&gt;Node19 -->
<g id="edge62" class="edge"><title>Node21&#45;&gt;Node19</title>
<path fill="none" stroke="midnightblue" d="M232.355,-190.37C237.363,-187.908 242.035,-184.835 246,-181 284.193,-144.062 246.896,-106.885 282,-67 291.104,-56.6564 303.701,-49.0116 316.208,-43.4468"/>
<polygon fill="midnightblue" stroke="midnightblue" points="317.752,-46.5974 325.695,-39.5866 315.113,-40.1136 317.752,-46.5974"/>
</g>
</g>
</svg>
        <g id="navigator" transform="translate(0 0)" fill="#404254">
                <rect fill="#f2f5e9" fill-opacity="0.5" stroke="#606060" stroke-width=".5" x="0" y="0" width="60" height="60"/>
                <use id="zoomplus" xlink:href="#zoomPlus" x="17" y="9" onmousedown="handleZoom(evt,'in')"/>
                <use id="zoomminus" xlink:href="#zoomMin" x="42" y="9" onmousedown="handleZoom(evt,'out')"/>
                <use id="reset" xlink:href="#resetDef" x="30" y="36" onmousedown="handleReset()"/>
                <g id="arrowUp" xlink:href="#dirArrow" transform="translate(30 24)" onmousedown="handlePan(0,-1)">
                  <use xlink:href="#rim" fill="#404040">
                        <set attributeName="fill" to="#808080" begin="arrowUp.mouseover" end="arrowUp.mouseout"/>
                  </use>
                  <path fill="none" stroke="white" stroke-width="1.5" d="M0,-3.0v7 M-2.5,-0.5L0,-3.0L2.5,-0.5"/>
                </g>
                <g id="arrowRight" xlink:href="#dirArrow" transform="rotate(90) translate(36 -43)" onmousedown="handlePan(1,0)">
                  <use xlink:href="#rim" fill="#404040">
                        <set attributeName="fill" to="#808080" begin="arrowRight.mouseover" end="arrowRight.mouseout"/>
                  </use>
                  <path fill="none" stroke="white" stroke-width="1.5" d="M0,-3.0v7 M-2.5,-0.5L0,-3.0L2.5,-0.5"/>
                </g>
                <g id="arrowDown" xlink:href="#dirArrow" transform="rotate(180) translate(-30 -48)" onmousedown="handlePan(0,1)">
                  <use xlink:href="#rim" fill="#404040">
                        <set attributeName="fill" to="#808080" begin="arrowDown.mouseover" end="arrowDown.mouseout"/>
                  </use>
                  <path fill="none" stroke="white" stroke-width="1.5" d="M0,-3.0v7 M-2.5,-0.5L0,-3.0L2.5,-0.5"/>
                </g>
                <g id="arrowLeft" xlink:href="#dirArrow" transform="rotate(270) translate(-36 17)" onmousedown="handlePan(-1,0)">
                  <use xlink:href="#rim" fill="#404040">
                        <set attributeName="fill" to="#808080" begin="arrowLeft.mouseover" end="arrowLeft.mouseout"/>
                  </use>
                  <path fill="none" stroke="white" stroke-width="1.5" d="M0,-3.0v7 M-2.5,-0.5L0,-3.0L2.5,-0.5"/>
                </g>
        </g>
        <svg viewBox="0 0 25 25" width="100%" height="30px" preserveAspectRatio="xMaxYMin meet"> 
          <g id="printButton" transform="scale(0.4 0.4)" onmousedown="handlePrint(evt)">
            <rect height="23.33753581" id="paper" rx="2" style="fill:#f2f5e9;fill-rule:evenodd;stroke:#111111;stroke-width:3.224;stroke-linejoin:round;" transform="matrix(1.000000,0.000000,-0.339266,0.940691,0.000000,0.000000)" width="25.55231285" x="26.69387353" y="7.36162977"/>
            <rect height="26.272097" id="body" rx="2" style="fill:#404040;fill-rule:evenodd;stroke:#111111;stroke-width:3.125;stroke-linejoin:round;" width="50" x="4.5295201" y="27.078951"/>
            <rect height="8.27750969" id="tray" style="fill:#d2d5c9;fill-rule:evenodd;stroke:#111111;stroke-width:3.125;stroke-linecap:round;stroke-linejoin:round;" width="40" x="10.28778839" y="44.96812282"/>
          </g>
        </svg>
</svg>
