<?xml version="1.0" encoding="UTF-8" standalone="no"?>
<!DOCTYPE svg PUBLIC "-//W3C//DTD SVG 1.1//EN"
 "http://www.w3.org/Graphics/SVG/1.1/DTD/svg11.dtd">
<!-- Generated by graphviz version 2.28.0 (20120217.0315)
 -->
<!-- Title: G Pages: 1 -->
<svg width="434pt" height="82pt"
 viewBox="0.00 0.00 434.00 82.28" xmlns="http://www.w3.org/2000/svg" xmlns:xlink="http://www.w3.org/1999/xlink">
<g id="graph1" class="graph" transform="scale(1 1) rotate(0) translate(4 78.2833)">
<title>G</title>
<!-- Node1 -->
<g id="node1" class="node"><title>Node1</title>
<polygon fill="#bfbfbf" stroke="black" points="0.5,-38.5 0.5,-57.5 83.5,-57.5 83.5,-38.5 0.5,-38.5"/>
<text text-anchor="middle" x="42" y="-45.5" font-family="DejaVuSansMono" font-size="10.00">xep_muc_del</text>
</g>
<!-- Node2 -->
<g id="node3" class="node"><title>Node2</title>
<a xlink:href="../../d7/d71/xep__muc_8c.html#a160ab04be39d4fb816a725d948738248" target="_top" xlink:title="room_client_del">
<polygon fill="none" stroke="black" points="222.5,-38.5 222.5,-57.5 329.5,-57.5 329.5,-38.5 222.5,-38.5"/>
<text text-anchor="middle" x="276" y="-45.5" font-family="DejaVuSansMono" font-size="10.00">room_client_del</text>
</a>
</g>
<!-- Node1&#45;&gt;Node2 -->
<g id="edge2" class="edge"><title>Node1&#45;&gt;Node2</title>
<path fill="none" stroke="midnightblue" d="M83.6768,-48C119.138,-48 171.145,-48 211.989,-48"/>
<polygon fill="midnightblue" stroke="midnightblue" points="212.115,-51.5001 222.115,-48 212.115,-44.5001 212.115,-51.5001"/>
</g>
<!-- Node3 -->
<g id="node5" class="node"><title>Node3</title>
<a xlink:href="../../d3/d5a/jid_8c.html#ab83fd5aae95de2c9d38fb9d9cd161580" target="_top" xlink:title="Cleans up and frees an existing JID.">
<polygon fill="none" stroke="black" points="366.5,-38.5 366.5,-57.5 425.5,-57.5 425.5,-38.5 366.5,-38.5"/>
<text text-anchor="middle" x="396" y="-45.5" font-family="DejaVuSansMono" font-size="10.00">jid_del</text>
</a>
</g>
<!-- Node1&#45;&gt;Node3 -->
<g id="edge12" class="edge"><title>Node1&#45;&gt;Node3</title>
<path fill="none" stroke="midnightblue" d="M83.6124,-56.4108C95.3107,-58.554 108.121,-60.6349 120,-62 212.749,-72.6587 237.582,-80.2304 330,-67 339.572,-65.6296 349.704,-63.1785 359.046,-60.4826"/>
<polygon fill="midnightblue" stroke="midnightblue" points="360.269,-63.7688 368.811,-57.5007 358.225,-57.074 360.269,-63.7688"/>
</g>
<!-- Node4 -->
<g id="node7" class="node"><title>Node4</title>
<a xlink:href="../../d7/d71/xep__muc_8c.html#ac6bfec1825c03d5493622565c77302f8" target="_top" xlink:title="room_del">
<polygon fill="none" stroke="black" points="120.5,-0.5 120.5,-19.5 185.5,-19.5 185.5,-0.5 120.5,-0.5"/>
<text text-anchor="middle" x="153" y="-7.5" font-family="DejaVuSansMono" font-size="10.00">room_del</text>
</a>
</g>
<!-- Node1&#45;&gt;Node4 -->
<g id="edge6" class="edge"><title>Node1&#45;&gt;Node4</title>
<path fill="none" stroke="midnightblue" d="M70.5053,-38.411C83.9307,-33.7306 100.28,-28.0308 114.801,-22.9685"/>
<polygon fill="midnightblue" stroke="midnightblue" points="116.213,-26.1828 124.503,-19.5859 113.909,-19.573 116.213,-26.1828"/>
</g>
<!-- Node2&#45;&gt;Node3 -->
<g id="edge4" class="edge"><title>Node2&#45;&gt;Node3</title>
<path fill="none" stroke="midnightblue" d="M329.788,-48C338.589,-48 347.578,-48 355.957,-48"/>
<polygon fill="midnightblue" stroke="midnightblue" points="356.186,-51.5001 366.186,-48 356.186,-44.5001 356.186,-51.5001"/>
</g>
<!-- Node4&#45;&gt;Node2 -->
<g id="edge10" class="edge"><title>Node4&#45;&gt;Node2</title>
<path fill="none" stroke="midnightblue" d="M184.533,-19.589C199.723,-24.3594 218.285,-30.1888 234.633,-35.3229"/>
<polygon fill="midnightblue" stroke="midnightblue" points="233.887,-38.757 244.476,-38.4141 235.984,-32.0786 233.887,-38.757"/>
</g>
<!-- Node4&#45;&gt;Node3 -->
<g id="edge8" class="edge"><title>Node4&#45;&gt;Node3</title>
<path fill="none" stroke="midnightblue" d="M185.73,-11.7316C221.169,-14.057 280.11,-19.0964 330,-29 338.798,-30.7464 348.124,-33.1393 356.883,-35.6382"/>
<polygon fill="midnightblue" stroke="midnightblue" points="355.891,-38.9944 366.473,-38.4758 357.877,-32.2821 355.891,-38.9944"/>
</g>
</g>
</svg>
