<?xml version="1.0" encoding="UTF-8" standalone="no"?>
<!DOCTYPE svg PUBLIC "-//W3C//DTD SVG 1.1//EN"
 "http://www.w3.org/Graphics/SVG/1.1/DTD/svg11.dtd">
<!-- Generated by graphviz version 2.28.0 (20120217.0315)
 -->
<!-- Title: G Pages: 1 -->
<svg width="380pt" height="66pt"
 viewBox="0.00 0.00 380.00 66.00" xmlns="http://www.w3.org/2000/svg" xmlns:xlink="http://www.w3.org/1999/xlink">
<g id="graph1" class="graph" transform="scale(1 1) rotate(0) translate(4 62)">
<title>G</title>
<!-- Node1 -->
<g id="node1" class="node"><title>Node1</title>
<polygon fill="#bfbfbf" stroke="black" points="0.5,-19.5 0.5,-38.5 101.5,-38.5 101.5,-19.5 0.5,-19.5"/>
<text text-anchor="middle" x="51" y="-26.5" font-family="DejaVuSansMono" font-size="10.00">handle_message</text>
</g>
<!-- Node2 -->
<g id="node3" class="node"><title>Node2</title>
<a xlink:href="../../d7/d71/xep__muc_8c.html#a1798db1c16a1fa62ff8f39fea202a26f" target="_top" xlink:title="stanza_handler">
<polygon fill="none" stroke="black" points="138.5,-19.5 138.5,-38.5 239.5,-38.5 239.5,-19.5 138.5,-19.5"/>
<text text-anchor="middle" x="189" y="-26.5" font-family="DejaVuSansMono" font-size="10.00">stanza_handler</text>
</a>
</g>
<!-- Node1&#45;&gt;Node2 -->
<g id="edge2" class="edge"><title>Node1&#45;&gt;Node2</title>
<path fill="none" stroke="midnightblue" d="M112,-29C120.729,-29 129.637,-29 138.137,-29"/>
<polygon fill="midnightblue" stroke="midnightblue" points="111.869,-25.5001 101.869,-29 111.869,-32.5001 111.869,-25.5001"/>
</g>
<!-- Node3 -->
<g id="node5" class="node"><title>Node3</title>
<a xlink:href="../../d7/d71/xep__muc_8c.html#addf05166cf3fbe386ae6650be21ef251" target="_top" xlink:title="xep_muc_start">
<polygon fill="none" stroke="black" points="276.5,-38.5 276.5,-57.5 371.5,-57.5 371.5,-38.5 276.5,-38.5"/>
<text text-anchor="middle" x="324" y="-45.5" font-family="DejaVuSansMono" font-size="10.00">xep_muc_start</text>
</a>
</g>
<!-- Node2&#45;&gt;Node3 -->
<g id="edge4" class="edge"><title>Node2&#45;&gt;Node3</title>
<path fill="none" stroke="midnightblue" d="M249.481,-37.4972C258.394,-38.7705 267.477,-40.0681 276.08,-41.2971"/>
<polygon fill="midnightblue" stroke="midnightblue" points="249.919,-34.0244 239.524,-36.0749 248.929,-40.954 249.919,-34.0244"/>
</g>
<!-- Node4 -->
<g id="node7" class="node"><title>Node4</title>
<a xlink:href="../../d7/d71/xep__muc_8c.html#a20d385a5584d8014ec4d5774eb79d1de" target="_top" xlink:title="xep_muc_stop">
<polygon fill="none" stroke="black" points="279.5,-0.5 279.5,-19.5 368.5,-19.5 368.5,-0.5 279.5,-0.5"/>
<text text-anchor="middle" x="324" y="-7.5" font-family="DejaVuSansMono" font-size="10.00">xep_muc_stop</text>
</a>
</g>
<!-- Node2&#45;&gt;Node4 -->
<g id="edge6" class="edge"><title>Node2&#45;&gt;Node4</title>
<path fill="none" stroke="midnightblue" d="M249.725,-20.4678C259.62,-19.0542 269.718,-17.6118 279.128,-16.2674"/>
<polygon fill="midnightblue" stroke="midnightblue" points="248.929,-17.046 239.524,-21.9251 249.919,-23.9756 248.929,-17.046"/>
</g>
</g>
</svg>
