<?xml version="1.0" encoding="UTF-8" standalone="no"?>
<!DOCTYPE svg PUBLIC "-//W3C//DTD SVG 1.1//EN"
 "http://www.w3.org/Graphics/SVG/1.1/DTD/svg11.dtd">
<!-- Generated by graphviz version 2.28.0 (20120217.0315)
 -->
<!-- Title: G Pages: 1 -->
<svg width="350pt" height="66pt"
 viewBox="0.00 0.00 350.00 66.00" xmlns="http://www.w3.org/2000/svg" xmlns:xlink="http://www.w3.org/1999/xlink">
<g id="graph1" class="graph" transform="scale(1 1) rotate(0) translate(4 62)">
<title>G</title>
<!-- Node1 -->
<g id="node1" class="node"><title>Node1</title>
<polygon fill="#bfbfbf" stroke="black" points="0.5,-19.5 0.5,-38.5 83.5,-38.5 83.5,-19.5 0.5,-19.5"/>
<text text-anchor="middle" x="42" y="-26.5" font-family="DejaVuSansMono" font-size="10.00">xep_muc_new</text>
</g>
<!-- Node2 -->
<g id="node3" class="node"><title>Node2</title>
<a xlink:href="../../d3/d5a/jid_8c.html#abd2028a1e581e6374acaa6beaf6e5413" target="_top" xlink:title="Allocate and initialize a new blank JID.">
<polygon fill="none" stroke="black" points="141.5,-38.5 141.5,-57.5 200.5,-57.5 200.5,-38.5 141.5,-38.5"/>
<text text-anchor="middle" x="171" y="-45.5" font-family="DejaVuSansMono" font-size="10.00">jid_new</text>
</a>
</g>
<!-- Node1&#45;&gt;Node2 -->
<g id="edge2" class="edge"><title>Node1&#45;&gt;Node2</title>
<path fill="none" stroke="midnightblue" d="M83.5328,-35.064C98.868,-37.3582 116.269,-39.9614 131.42,-42.2281"/>
<polygon fill="midnightblue" stroke="midnightblue" points="131.088,-45.7175 141.496,-43.7357 132.124,-38.7945 131.088,-45.7175"/>
</g>
<!-- Node3 -->
<g id="node5" class="node"><title>Node3</title>
<a xlink:href="../../d3/d5a/jid_8c.html#aeefeabfe802b3db2ce1b8894ae6a0d05" target="_top" xlink:title="Sets the domainpart of a JID.">
<polygon fill="none" stroke="black" points="120.5,-0.5 120.5,-19.5 221.5,-19.5 221.5,-0.5 120.5,-0.5"/>
<text text-anchor="middle" x="171" y="-7.5" font-family="DejaVuSansMono" font-size="10.00">jid_set_domain</text>
</a>
</g>
<!-- Node1&#45;&gt;Node3 -->
<g id="edge4" class="edge"><title>Node1&#45;&gt;Node3</title>
<path fill="none" stroke="midnightblue" d="M83.5328,-22.936C91.9717,-21.6735 101.036,-20.3174 110.007,-18.9754"/>
<polygon fill="midnightblue" stroke="midnightblue" points="110.685,-22.413 120.057,-17.4718 109.649,-15.49 110.685,-22.413"/>
</g>
<!-- Node4 -->
<g id="node7" class="node"><title>Node4</title>
<a xlink:href="../../d3/d91/utils_8c.html#a07891e77aee8f9b825d52bd33e474f30" target="_top" xlink:title="Simple string copy, freeing original if neccessary.">
<polygon fill="none" stroke="black" points="258.5,-0.5 258.5,-19.5 341.5,-19.5 341.5,-0.5 258.5,-0.5"/>
<text text-anchor="middle" x="300" y="-7.5" font-family="DejaVuSansMono" font-size="10.00">copy_string</text>
</a>
</g>
<!-- Node3&#45;&gt;Node4 -->
<g id="edge6" class="edge"><title>Node3&#45;&gt;Node4</title>
<path fill="none" stroke="midnightblue" d="M221.829,-10C230.52,-10 239.57,-10 248.284,-10"/>
<polygon fill="midnightblue" stroke="midnightblue" points="248.318,-13.5001 258.318,-10 248.318,-6.5001 248.318,-13.5001"/>
</g>
</g>
</svg>
