<?xml version="1.0" encoding="UTF-8" standalone="no"?>
<!DOCTYPE svg PUBLIC "-//W3C//DTD SVG 1.1//EN"
 "http://www.w3.org/Graphics/SVG/1.1/DTD/svg11.dtd">
<!-- Generated by graphviz version 2.28.0 (20120217.0315)
 -->
<!-- Title: G Pages: 1 -->
<svg width="356pt" height="28pt"
 viewBox="0.00 0.00 356.00 28.00" xmlns="http://www.w3.org/2000/svg" xmlns:xlink="http://www.w3.org/1999/xlink">
<g id="graph1" class="graph" transform="scale(1 1) rotate(0) translate(4 24)">
<title>G</title>
<!-- Node1 -->
<g id="node1" class="node"><title>Node1</title>
<polygon fill="#bfbfbf" stroke="black" points="0.5,-0.5 0.5,-19.5 89.5,-19.5 89.5,-0.5 0.5,-0.5"/>
<text text-anchor="middle" x="45" y="-7.5" font-family="DejaVuSansMono" font-size="10.00">xep_muc_conf</text>
</g>
<!-- Node2 -->
<g id="node3" class="node"><title>Node2</title>
<a xlink:href="../../d3/d5a/jid_8c.html#aeefeabfe802b3db2ce1b8894ae6a0d05" target="_top" xlink:title="Sets the domainpart of a JID.">
<polygon fill="none" stroke="black" points="126.5,-0.5 126.5,-19.5 227.5,-19.5 227.5,-0.5 126.5,-0.5"/>
<text text-anchor="middle" x="177" y="-7.5" font-family="DejaVuSansMono" font-size="10.00">jid_set_domain</text>
</a>
</g>
<!-- Node1&#45;&gt;Node2 -->
<g id="edge2" class="edge"><title>Node1&#45;&gt;Node2</title>
<path fill="none" stroke="midnightblue" d="M89.6498,-10C98.2246,-10 107.357,-10 116.352,-10"/>
<polygon fill="midnightblue" stroke="midnightblue" points="116.412,-13.5001 126.412,-10 116.412,-6.5001 116.412,-13.5001"/>
</g>
<!-- Node3 -->
<g id="node5" class="node"><title>Node3</title>
<a xlink:href="../../d3/d91/utils_8c.html#a07891e77aee8f9b825d52bd33e474f30" target="_top" xlink:title="Simple string copy, freeing original if neccessary.">
<polygon fill="none" stroke="black" points="264.5,-0.5 264.5,-19.5 347.5,-19.5 347.5,-0.5 264.5,-0.5"/>
<text text-anchor="middle" x="306" y="-7.5" font-family="DejaVuSansMono" font-size="10.00">copy_string</text>
</a>
</g>
<!-- Node2&#45;&gt;Node3 -->
<g id="edge4" class="edge"><title>Node2&#45;&gt;Node3</title>
<path fill="none" stroke="midnightblue" d="M227.829,-10C236.52,-10 245.57,-10 254.284,-10"/>
<polygon fill="midnightblue" stroke="midnightblue" points="254.318,-13.5001 264.318,-10 254.318,-6.5001 254.318,-13.5001"/>
</g>
</g>
</svg>
