<?xml version="1.0" encoding="UTF-8" standalone="no"?>
<!DOCTYPE svg PUBLIC "-//W3C//DTD SVG 1.1//EN"
 "http://www.w3.org/Graphics/SVG/1.1/DTD/svg11.dtd">
<!-- Generated by graphviz version 2.28.0 (20120217.0315)
 -->
<!-- Title: G Pages: 1 -->
<!--zoomable 426 -->
<svg id="main" version="1.1" xmlns="http://www.w3.org/2000/svg" xmlns:xlink="http://www.w3.org/1999/xlink" xml:space="preserve" onload="init(evt)">
        <defs>
                <circle id="rim" cx="0" cy="0" r="7"/>
                <circle id="rim2" cx="0" cy="0" r="3.5"/>
                <g id="zoomPlus">
                        <use xlink:href="#rim" fill="#404040">
                                <set attributeName="fill" to="#808080" begin="zoomplus.mouseover" end="zoomplus.mouseout"/>
                        </use>
                        <path d="M-4,0h8M0,-4v8" fill="none" stroke="white" stroke-width="1.5" pointer-events="none"/>
                </g>
                <g id="zoomMin">
                        <use xlink:href="#rim" fill="#404040">
                                <set attributeName="fill" to="#808080" begin="zoomminus.mouseover" end="zoomminus.mouseout"/>
                        </use>
                        <path d="M-4,0h8" fill="none" stroke="white" stroke-width="1.5" pointer-events="none"/>
                </g>
                <g id="dirArrow">
                        <path fill="none" stroke="white" stroke-width="1.5" d="M0,-3.0v7 M-2.5,-0.5L0,-3.0L2.5,-0.5"/>
                </g>
               <g id="resetDef">
                       <use xlink:href="#rim2" fill="#404040">
                               <set attributeName="fill" to="#808080" begin="reset.mouseover" end="reset.mouseout"/>
                       </use>
               </g>
        </defs>

<script type="text/javascript">
var viewWidth = 656;
var viewHeight = 426;
var sectionId = 'dynsection-30';
</script>
<script xlink:href="../../svgpan.js"/>
<svg id="graph" class="graph">
<g id="viewport">
<title>G</title>
<!-- Node1 -->
<g id="node1" class="node"><title>Node1</title>
<polygon fill="#bfbfbf" stroke="black" points="0.5,-246.5 0.5,-265.5 149.5,-265.5 149.5,-246.5 0.5,-246.5"/>
<text text-anchor="middle" x="75" y="-253.5" font-family="DejaVuSansMono" font-size="10.00">send_nickname_conflict</text>
</g>
<!-- Node2 -->
<g id="node3" class="node"><title>Node2</title>
<a xlink:href="../../d1/d59/xmpp__stanza_8c.html#aa80dd21d794b5c63fcb13c49745cc373" target="_top" xlink:title="Allocate and initialize a new XMPP stanza structure.">
<polygon fill="none" stroke="black" points="213.5,-360.5 213.5,-379.5 320.5,-379.5 320.5,-360.5 213.5,-360.5"/>
<text text-anchor="middle" x="267" y="-367.5" font-family="DejaVuSansMono" font-size="10.00">xmpp_stanza_new</text>
</a>
</g>
<!-- Node1&#45;&gt;Node2 -->
<g id="edge2" class="edge"><title>Node1&#45;&gt;Node2</title>
<path fill="none" stroke="midnightblue" d="M84.2984,-265.795C101.299,-285.202 142.192,-328.594 186,-351 191.588,-353.858 197.617,-356.295 203.769,-358.371"/>
<polygon fill="midnightblue" stroke="midnightblue" points="202.909,-361.767 213.495,-361.345 204.955,-355.073 202.909,-361.767"/>
</g>
<!-- Node5 -->
<g id="node9" class="node"><title>Node5</title>
<a xlink:href="../../d1/d59/xmpp__stanza_8c.html#a7ca8bf259143d7ff53b24de8b666026d" target="_top" xlink:title="Sets the value of an attribute in a stanza.">
<polygon fill="none" stroke="black" points="198.5,-246.5 198.5,-265.5 335.5,-265.5 335.5,-246.5 198.5,-246.5"/>
<text text-anchor="middle" x="267" y="-253.5" font-family="DejaVuSansMono" font-size="10.00">xmpp_stanza_set_attr</text>
</a>
</g>
<!-- Node1&#45;&gt;Node5 -->
<g id="edge8" class="edge"><title>Node1&#45;&gt;Node5</title>
<path fill="none" stroke="midnightblue" d="M149.731,-256C162.324,-256 175.443,-256 188.139,-256"/>
<polygon fill="midnightblue" stroke="midnightblue" points="188.213,-259.5 198.213,-256 188.213,-252.5 188.213,-259.5"/>
</g>
<!-- Node7 -->
<g id="node13" class="node"><title>Node7</title>
<a xlink:href="../../d3/d91/utils_8c.html#abaedf4730d92cefc0be67f69f2a17ca6" target="_top" xlink:title="Allocate and return a null&#45;terminated string with a UUID.">
<polygon fill="none" stroke="black" points="231.5,-284.5 231.5,-303.5 302.5,-303.5 302.5,-284.5 231.5,-284.5"/>
<text text-anchor="middle" x="267" y="-291.5" font-family="DejaVuSansMono" font-size="10.00">make_uuid</text>
</a>
</g>
<!-- Node1&#45;&gt;Node7 -->
<g id="edge12" class="edge"><title>Node1&#45;&gt;Node7</title>
<path fill="none" stroke="midnightblue" d="M123.945,-265.589C153.84,-271.568 192.052,-279.21 221.313,-285.063"/>
<polygon fill="midnightblue" stroke="midnightblue" points="220.769,-288.523 231.262,-287.052 222.142,-281.659 220.769,-288.523"/>
</g>
<!-- Node8 -->
<g id="node15" class="node"><title>Node8</title>
<a xlink:href="../../d1/d59/xmpp__stanza_8c.html#ac13c8bb45e2ca03b99836e8d52b265b4" target="_top" xlink:title="Appends a child stanza.">
<polygon fill="none" stroke="black" points="186.5,-322.5 186.5,-341.5 347.5,-341.5 347.5,-322.5 186.5,-322.5"/>
<text text-anchor="middle" x="267" y="-329.5" font-family="DejaVuSansMono" font-size="10.00">xmpp_stanza_append_child</text>
</a>
</g>
<!-- Node1&#45;&gt;Node8 -->
<g id="edge14" class="edge"><title>Node1&#45;&gt;Node8</title>
<path fill="none" stroke="midnightblue" d="M91.4709,-265.572C112.268,-278.07 150.715,-299.894 186,-313 192.808,-315.529 200.07,-317.803 207.336,-319.823"/>
<polygon fill="midnightblue" stroke="midnightblue" points="206.643,-323.26 217.205,-322.422 208.425,-316.491 206.643,-323.26"/>
</g>
<!-- Node10 -->
<g id="node19" class="node"><title>Node10</title>
<a xlink:href="../../d3/d5a/jid_8c.html#a3d51f2b27d20189e523b0d0b2a77e4a9" target="_top" xlink:title="Converts a JID to a newly allocated string.">
<polygon fill="none" stroke="black" points="429.5,-152.5 429.5,-171.5 506.5,-171.5 506.5,-152.5 429.5,-152.5"/>
<text text-anchor="middle" x="468" y="-159.5" font-family="DejaVuSansMono" font-size="10.00">jid_to_str</text>
</a>
</g>
<!-- Node1&#45;&gt;Node10 -->
<g id="edge18" class="edge"><title>Node1&#45;&gt;Node10</title>
<path fill="none" stroke="midnightblue" d="M85.8883,-246.477C104.007,-229.714 144.496,-195.354 186,-181 264.305,-153.919 362.065,-154.364 419.215,-157.761"/>
<polygon fill="midnightblue" stroke="midnightblue" points="419.194,-161.267 429.4,-158.423 419.648,-154.281 419.194,-161.267"/>
</g>
<!-- Node11 -->
<g id="node21" class="node"><title>Node11</title>
<a xlink:href="../../d0/df0/xmpp__server_8c.html#a6d3f7e5e289f785b1c8c52f95068c627" target="_top" xlink:title="Deliver a stanza to a registered callback function.">
<polygon fill="none" stroke="black" points="186.5,-95.5 186.5,-114.5 347.5,-114.5 347.5,-95.5 186.5,-95.5"/>
<text text-anchor="middle" x="267" y="-102.5" font-family="DejaVuSansMono" font-size="10.00">xmpp_server_route_stanza</text>
</a>
</g>
<!-- Node1&#45;&gt;Node11 -->
<g id="edge20" class="edge"><title>Node1&#45;&gt;Node11</title>
<path fill="none" stroke="midnightblue" d="M84.07,-246.416C101.291,-226.365 143.545,-179.262 186,-148 201.246,-136.773 219.791,-126.618 235.185,-118.999"/>
<polygon fill="midnightblue" stroke="midnightblue" points="236.822,-122.095 244.306,-114.596 233.779,-115.791 236.822,-122.095"/>
</g>
<!-- Node17 -->
<g id="node35" class="node"><title>Node17</title>
<a xlink:href="../../d1/d59/xmpp__stanza_8c.html#af40757ae1d137034570b1bb33303d024" target="_top" xlink:title="Cleans up and frees an XMPP stanza.">
<polygon fill="none" stroke="black" points="213.5,-190.5 213.5,-209.5 320.5,-209.5 320.5,-190.5 213.5,-190.5"/>
<text text-anchor="middle" x="267" y="-197.5" font-family="DejaVuSansMono" font-size="10.00">xmpp_stanza_del</text>
</a>
</g>
<!-- Node1&#45;&gt;Node17 -->
<g id="edge36" class="edge"><title>Node1&#45;&gt;Node17</title>
<path fill="none" stroke="midnightblue" d="M108.662,-246.373C140.53,-236.981 189.153,-222.65 223.907,-212.406"/>
<polygon fill="midnightblue" stroke="midnightblue" points="225.162,-215.686 233.764,-209.501 223.182,-208.971 225.162,-215.686"/>
</g>
<!-- Node3 -->
<g id="node5" class="node"><title>Node3</title>
<a xlink:href="../../d1/d59/xmpp__stanza_8c.html#a5a80203f56df7a360fa457c0111686f6" target="_top" xlink:title="Parse the namespace triple that Expat gives us.">
<polygon fill="none" stroke="black" points="435.5,-398.5 435.5,-417.5 500.5,-417.5 500.5,-398.5 435.5,-398.5"/>
<text text-anchor="middle" x="468" y="-405.5" font-family="DejaVuSansMono" font-size="10.00">parse_ns</text>
</a>
</g>
<!-- Node2&#45;&gt;Node3 -->
<g id="edge4" class="edge"><title>Node2&#45;&gt;Node3</title>
<path fill="none" stroke="midnightblue" d="M317.959,-379.54C351.06,-385.861 393.981,-394.057 425.256,-400.029"/>
<polygon fill="midnightblue" stroke="midnightblue" points="424.906,-403.525 435.385,-401.963 426.219,-396.649 424.906,-403.525"/>
</g>
<!-- Node4 -->
<g id="node7" class="node"><title>Node4</title>
<a xlink:href="../../d1/d59/xmpp__stanza_8c.html#aff4b8f6e10ce1c351d2a5bc39f0e819f" target="_top" xlink:title="Convenience function to build a key for the attribute hash table.">
<polygon fill="none" stroke="black" points="435.5,-360.5 435.5,-379.5 500.5,-379.5 500.5,-360.5 435.5,-360.5"/>
<text text-anchor="middle" x="468" y="-367.5" font-family="DejaVuSansMono" font-size="10.00">make_key</text>
</a>
</g>
<!-- Node2&#45;&gt;Node4 -->
<g id="edge6" class="edge"><title>Node2&#45;&gt;Node4</title>
<path fill="none" stroke="midnightblue" d="M320.545,-370C353.198,-370 394.606,-370 425.054,-370"/>
<polygon fill="midnightblue" stroke="midnightblue" points="425.335,-373.5 435.335,-370 425.335,-366.5 425.335,-373.5"/>
</g>
<!-- Node6 -->
<g id="node11" class="node"><title>Node6</title>
<a xlink:href="../../d1/d59/xmpp__stanza_8c.html#a2fb472c6bf9b7f540a97ddc6c11adb74" target="_top" xlink:title="attribute_del">
<polygon fill="none" stroke="black" points="420.5,-237.5 420.5,-256.5 515.5,-256.5 515.5,-237.5 420.5,-237.5"/>
<text text-anchor="middle" x="468" y="-244.5" font-family="DejaVuSansMono" font-size="10.00">attribute_del</text>
</a>
</g>
<!-- Node5&#45;&gt;Node6 -->
<g id="edge10" class="edge"><title>Node5&#45;&gt;Node6</title>
<path fill="none" stroke="midnightblue" d="M335.65,-252.94C359.894,-251.844 386.957,-250.62 410.189,-249.569"/>
<polygon fill="midnightblue" stroke="midnightblue" points="410.398,-253.064 420.23,-249.115 410.082,-246.071 410.398,-253.064"/>
</g>
<!-- Node9 -->
<g id="node17" class="node"><title>Node9</title>
<a xlink:href="../../d1/d59/xmpp__stanza_8c.html#afc77f00b7f38c79566a7b16876230e30" target="_top" xlink:title="Removes a child stanza.">
<polygon fill="none" stroke="black" points="387.5,-322.5 387.5,-341.5 548.5,-341.5 548.5,-322.5 387.5,-322.5"/>
<text text-anchor="middle" x="468" y="-329.5" font-family="DejaVuSansMono" font-size="10.00">xmpp_stanza_remove_child</text>
</a>
</g>
<!-- Node8&#45;&gt;Node9 -->
<g id="edge16" class="edge"><title>Node8&#45;&gt;Node9</title>
<path fill="none" stroke="midnightblue" d="M347.508,-332C357.23,-332 367.218,-332 377.079,-332"/>
<polygon fill="midnightblue" stroke="midnightblue" points="377.294,-335.5 387.294,-332 377.293,-328.5 377.294,-335.5"/>
</g>
<!-- Node11&#45;&gt;Node10 -->
<g id="edge30" class="edge"><title>Node11&#45;&gt;Node10</title>
<path fill="none" stroke="midnightblue" d="M294.974,-114.614C318.349,-122.757 353.166,-134.44 384,-143 395.347,-146.15 407.67,-149.18 419.262,-151.859"/>
<polygon fill="midnightblue" stroke="midnightblue" points="418.691,-155.318 429.218,-154.117 420.239,-148.491 418.691,-155.318"/>
</g>
<!-- Node12 -->
<g id="node23" class="node"><title>Node12</title>
<a xlink:href="../../d3/d5a/jid_8c.html#a0151ea37a9f52813a8d48d2b7eec2044" target="_top" xlink:title="Allocate and initialize a new JID from an existing JID string.">
<polygon fill="none" stroke="black" points="411.5,-38.5 411.5,-57.5 524.5,-57.5 524.5,-38.5 411.5,-38.5"/>
<text text-anchor="middle" x="468" y="-45.5" font-family="DejaVuSansMono" font-size="10.00">jid_new_from_str</text>
</a>
</g>
<!-- Node11&#45;&gt;Node12 -->
<g id="edge22" class="edge"><title>Node11&#45;&gt;Node12</title>
<path fill="none" stroke="midnightblue" d="M294.974,-95.3861C318.349,-87.2428 353.166,-75.5601 384,-67 392.996,-64.5026 402.605,-62.081 411.976,-59.8498"/>
<polygon fill="midnightblue" stroke="midnightblue" points="413.069,-63.189 422.013,-57.509 411.479,-56.372 413.069,-63.189"/>
</g>
<!-- Node14 -->
<g id="node27" class="node"><title>Node14</title>
<a xlink:href="../../d3/d5a/jid_8c.html#ab83fd5aae95de2c9d38fb9d9cd161580" target="_top" xlink:title="Cleans up and frees an existing JID.">
<polygon fill="none" stroke="black" points="588.5,-0.5 588.5,-19.5 647.5,-19.5 647.5,-0.5 588.5,-0.5"/>
<text text-anchor="middle" x="618" y="-7.5" font-family="DejaVuSansMono" font-size="10.00">jid_del</text>
</a>
</g>
<!-- Node11&#45;&gt;Node14 -->
<g id="edge34" class="edge"><title>Node11&#45;&gt;Node14</title>
<path fill="none" stroke="midnightblue" d="M278.528,-95.4118C297.793,-78.5226 340.733,-43.8529 384,-29 449.487,-6.51906 531.165,-5.56297 578.373,-7.42698"/>
<polygon fill="midnightblue" stroke="midnightblue" points="578.321,-10.9282 588.471,-7.89021 578.642,-3.93553 578.321,-10.9282"/>
</g>
<!-- Node15 -->
<g id="node29" class="node"><title>Node15</title>
<a xlink:href="../../d1/d59/xmpp__stanza_8c.html#a20c90c791fa856784f2d43c9f44f1d3c" target="_top" xlink:title="Returns the value of an attribute of this stanza.">
<polygon fill="none" stroke="black" points="411.5,-114.5 411.5,-133.5 524.5,-133.5 524.5,-114.5 411.5,-114.5"/>
<text text-anchor="middle" x="468" y="-121.5" font-family="DejaVuSansMono" font-size="10.00">xmpp_stanza_attr</text>
</a>
</g>
<!-- Node11&#45;&gt;Node15 -->
<g id="edge28" class="edge"><title>Node11&#45;&gt;Node15</title>
<path fill="none" stroke="midnightblue" d="M347.508,-112.591C365.427,-114.302 384.248,-116.099 401.515,-117.748"/>
<polygon fill="midnightblue" stroke="midnightblue" points="401.196,-121.233 411.484,-118.699 401.862,-114.265 401.196,-121.233"/>
</g>
<!-- Node16 -->
<g id="node32" class="node"><title>Node16</title>
<a xlink:href="../../d3/d5a/jid_8c.html#a5b2f969326a86fa7e585f633d7b0f565" target="_top" xlink:title="Compare two JIDs with wildcard matches.">
<polygon fill="none" stroke="black" points="408.5,-76.5 408.5,-95.5 527.5,-95.5 527.5,-76.5 408.5,-76.5"/>
<text text-anchor="middle" x="468" y="-83.5" font-family="DejaVuSansMono" font-size="10.00">jid_cmp_wildcards</text>
</a>
</g>
<!-- Node11&#45;&gt;Node16 -->
<g id="edge32" class="edge"><title>Node11&#45;&gt;Node16</title>
<path fill="none" stroke="midnightblue" d="M347.508,-97.4088C364.363,-95.7995 382.016,-94.1141 398.423,-92.5475"/>
<polygon fill="midnightblue" stroke="midnightblue" points="398.838,-96.024 408.46,-91.5893 398.173,-89.0556 398.838,-96.024"/>
</g>
<!-- Node13 -->
<g id="node25" class="node"><title>Node13</title>
<a xlink:href="../../d3/d5a/jid_8c.html#abd2028a1e581e6374acaa6beaf6e5413" target="_top" xlink:title="Allocate and initialize a new blank JID.">
<polygon fill="none" stroke="black" points="588.5,-38.5 588.5,-57.5 647.5,-57.5 647.5,-38.5 588.5,-38.5"/>
<text text-anchor="middle" x="618" y="-45.5" font-family="DejaVuSansMono" font-size="10.00">jid_new</text>
</a>
</g>
<!-- Node12&#45;&gt;Node13 -->
<g id="edge24" class="edge"><title>Node12&#45;&gt;Node13</title>
<path fill="none" stroke="midnightblue" d="M524.531,-48C542.294,-48 561.574,-48 577.909,-48"/>
<polygon fill="midnightblue" stroke="midnightblue" points="578.173,-51.5001 588.173,-48 578.173,-44.5001 578.173,-51.5001"/>
</g>
<!-- Node12&#45;&gt;Node14 -->
<g id="edge26" class="edge"><title>Node12&#45;&gt;Node14</title>
<path fill="none" stroke="midnightblue" d="M506.347,-38.411C528.327,-32.7673 556.081,-25.6415 578.293,-19.9382"/>
<polygon fill="midnightblue" stroke="midnightblue" points="579.253,-23.3053 588.069,-17.4283 577.512,-16.5252 579.253,-23.3053"/>
</g>
<!-- Node17&#45;&gt;Node6 -->
<g id="edge38" class="edge"><title>Node17&#45;&gt;Node6</title>
<path fill="none" stroke="midnightblue" d="M308.271,-209.511C339.457,-216.877 382.848,-227.125 416.382,-235.045"/>
<polygon fill="midnightblue" stroke="midnightblue" points="415.911,-238.53 426.448,-237.422 417.521,-231.718 415.911,-238.53"/>
</g>
<!-- Node17&#45;&gt;Node17 -->
<g id="edge42" class="edge"><title>Node17&#45;&gt;Node17</title>
<path fill="none" stroke="midnightblue" d="M237.407,-209.757C223.011,-218.565 232.875,-228 267,-228 290.994,-228 302.994,-223.336 303,-217.504"/>
<polygon fill="midnightblue" stroke="midnightblue" points="305.663,-215.232 296.593,-209.757 300.269,-219.694 305.663,-215.232"/>
</g>
<!-- Node18 -->
<g id="node38" class="node"><title>Node18</title>
<a xlink:href="../../d1/dc2/xmpp__parser_8c.html#a87065f39f10a449e7af17fa45ca475f2" target="_top" xlink:title="xmpp_parser_namespace_del">
<polygon fill="none" stroke="black" points="384.5,-190.5 384.5,-209.5 551.5,-209.5 551.5,-190.5 384.5,-190.5"/>
<text text-anchor="middle" x="468" y="-197.5" font-family="DejaVuSansMono" font-size="10.00">xmpp_parser_namespace_del</text>
</a>
</g>
<!-- Node17&#45;&gt;Node18 -->
<g id="edge40" class="edge"><title>Node17&#45;&gt;Node18</title>
<path fill="none" stroke="midnightblue" d="M320.545,-200C337.062,-200 355.819,-200 374.265,-200"/>
<polygon fill="midnightblue" stroke="midnightblue" points="374.464,-203.5 384.464,-200 374.464,-196.5 374.464,-203.5"/>
</g>
</g>
</svg>
        <g id="navigator" transform="translate(0 0)" fill="#404254">
                <rect fill="#f2f5e9" fill-opacity="0.5" stroke="#606060" stroke-width=".5" x="0" y="0" width="60" height="60"/>
                <use id="zoomplus" xlink:href="#zoomPlus" x="17" y="9" onmousedown="handleZoom(evt,'in')"/>
                <use id="zoomminus" xlink:href="#zoomMin" x="42" y="9" onmousedown="handleZoom(evt,'out')"/>
                <use id="reset" xlink:href="#resetDef" x="30" y="36" onmousedown="handleReset()"/>
                <g id="arrowUp" xlink:href="#dirArrow" transform="translate(30 24)" onmousedown="handlePan(0,-1)">
                  <use xlink:href="#rim" fill="#404040">
                        <set attributeName="fill" to="#808080" begin="arrowUp.mouseover" end="arrowUp.mouseout"/>
                  </use>
                  <path fill="none" stroke="white" stroke-width="1.5" d="M0,-3.0v7 M-2.5,-0.5L0,-3.0L2.5,-0.5"/>
                </g>
                <g id="arrowRight" xlink:href="#dirArrow" transform="rotate(90) translate(36 -43)" onmousedown="handlePan(1,0)">
                  <use xlink:href="#rim" fill="#404040">
                        <set attributeName="fill" to="#808080" begin="arrowRight.mouseover" end="arrowRight.mouseout"/>
                  </use>
                  <path fill="none" stroke="white" stroke-width="1.5" d="M0,-3.0v7 M-2.5,-0.5L0,-3.0L2.5,-0.5"/>
                </g>
                <g id="arrowDown" xlink:href="#dirArrow" transform="rotate(180) translate(-30 -48)" onmousedown="handlePan(0,1)">
                  <use xlink:href="#rim" fill="#404040">
                        <set attributeName="fill" to="#808080" begin="arrowDown.mouseover" end="arrowDown.mouseout"/>
                  </use>
                  <path fill="none" stroke="white" stroke-width="1.5" d="M0,-3.0v7 M-2.5,-0.5L0,-3.0L2.5,-0.5"/>
                </g>
                <g id="arrowLeft" xlink:href="#dirArrow" transform="rotate(270) translate(-36 17)" onmousedown="handlePan(-1,0)">
                  <use xlink:href="#rim" fill="#404040">
                        <set attributeName="fill" to="#808080" begin="arrowLeft.mouseover" end="arrowLeft.mouseout"/>
                  </use>
                  <path fill="none" stroke="white" stroke-width="1.5" d="M0,-3.0v7 M-2.5,-0.5L0,-3.0L2.5,-0.5"/>
                </g>
        </g>
        <svg viewBox="0 0 25 25" width="100%" height="30px" preserveAspectRatio="xMaxYMin meet"> 
          <g id="printButton" transform="scale(0.4 0.4)" onmousedown="handlePrint(evt)">
            <rect height="23.33753581" id="paper" rx="2" style="fill:#f2f5e9;fill-rule:evenodd;stroke:#111111;stroke-width:3.224;stroke-linejoin:round;" transform="matrix(1.000000,0.000000,-0.339266,0.940691,0.000000,0.000000)" width="25.55231285" x="26.69387353" y="7.36162977"/>
            <rect height="26.272097" id="body" rx="2" style="fill:#404040;fill-rule:evenodd;stroke:#111111;stroke-width:3.125;stroke-linejoin:round;" width="50" x="4.5295201" y="27.078951"/>
            <rect height="8.27750969" id="tray" style="fill:#d2d5c9;fill-rule:evenodd;stroke:#111111;stroke-width:3.125;stroke-linecap:round;stroke-linejoin:round;" width="40" x="10.28778839" y="44.96812282"/>
          </g>
        </svg>
</svg>
