<?xml version="1.0" encoding="UTF-8" standalone="no"?>
<!DOCTYPE svg PUBLIC "-//W3C//DTD SVG 1.1//EN"
 "http://www.w3.org/Graphics/SVG/1.1/DTD/svg11.dtd">
<!-- Generated by graphviz version 2.28.0 (20120217.0315)
 -->
<!-- Title: G Pages: 1 -->
<!--zoomable 710 -->
<svg id="main" version="1.1" xmlns="http://www.w3.org/2000/svg" xmlns:xlink="http://www.w3.org/1999/xlink" xml:space="preserve" onload="init(evt)">
        <defs>
                <circle id="rim" cx="0" cy="0" r="7"/>
                <circle id="rim2" cx="0" cy="0" r="3.5"/>
                <g id="zoomPlus">
                        <use xlink:href="#rim" fill="#404040">
                                <set attributeName="fill" to="#808080" begin="zoomplus.mouseover" end="zoomplus.mouseout"/>
                        </use>
                        <path d="M-4,0h8M0,-4v8" fill="none" stroke="white" stroke-width="1.5" pointer-events="none"/>
                </g>
                <g id="zoomMin">
                        <use xlink:href="#rim" fill="#404040">
                                <set attributeName="fill" to="#808080" begin="zoomminus.mouseover" end="zoomminus.mouseout"/>
                        </use>
                        <path d="M-4,0h8" fill="none" stroke="white" stroke-width="1.5" pointer-events="none"/>
                </g>
                <g id="dirArrow">
                        <path fill="none" stroke="white" stroke-width="1.5" d="M0,-3.0v7 M-2.5,-0.5L0,-3.0L2.5,-0.5"/>
                </g>
               <g id="resetDef">
                       <use xlink:href="#rim2" fill="#404040">
                               <set attributeName="fill" to="#808080" begin="reset.mouseover" end="reset.mouseout"/>
                       </use>
               </g>
        </defs>

<script type="text/javascript">
var viewWidth = 698;
var viewHeight = 710;
var sectionId = 'dynsection-32';
</script>
<script xlink:href="../../svgpan.js"/>
<svg id="graph" class="graph">
<g id="viewport">
<title>G</title>
<!-- Node1 -->
<g id="node1" class="node"><title>Node1</title>
<polygon fill="#bfbfbf" stroke="black" points="0.5,-226.5 0.5,-245.5 155.5,-245.5 155.5,-226.5 0.5,-226.5"/>
<text text-anchor="middle" x="78" y="-233.5" font-family="DejaVuSansMono" font-size="10.00">send_presence_broadcast</text>
</g>
<!-- Node2 -->
<g id="node3" class="node"><title>Node2</title>
<a xlink:href="../../d1/d59/xmpp__stanza_8c.html#aa80dd21d794b5c63fcb13c49745cc373" target="_top" xlink:title="Allocate and initialize a new XMPP stanza structure.">
<polygon fill="none" stroke="black" points="219.5,-644.5 219.5,-663.5 326.5,-663.5 326.5,-644.5 219.5,-644.5"/>
<text text-anchor="middle" x="273" y="-651.5" font-family="DejaVuSansMono" font-size="10.00">xmpp_stanza_new</text>
</a>
</g>
<!-- Node1&#45;&gt;Node2 -->
<g id="edge2" class="edge"><title>Node1&#45;&gt;Node2</title>
<path fill="none" stroke="midnightblue" d="M80.41,-245.739C88.6439,-301.297 132.216,-577.722 192,-635 197.056,-639.844 203.111,-643.529 209.596,-646.322"/>
<polygon fill="midnightblue" stroke="midnightblue" points="208.746,-649.735 219.341,-649.806 211.103,-643.143 208.746,-649.735"/>
</g>
<!-- Node5 -->
<g id="node9" class="node"><title>Node5</title>
<a xlink:href="../../d1/d59/xmpp__stanza_8c.html#ac13c8bb45e2ca03b99836e8d52b265b4" target="_top" xlink:title="Appends a child stanza.">
<polygon fill="none" stroke="black" points="192.5,-606.5 192.5,-625.5 353.5,-625.5 353.5,-606.5 192.5,-606.5"/>
<text text-anchor="middle" x="273" y="-613.5" font-family="DejaVuSansMono" font-size="10.00">xmpp_stanza_append_child</text>
</a>
</g>
<!-- Node1&#45;&gt;Node5 -->
<g id="edge8" class="edge"><title>Node1&#45;&gt;Node5</title>
<path fill="none" stroke="midnightblue" d="M78.9919,-245.588C79.4894,-291.334 87.7852,-489.429 192,-592 196.005,-595.941 200.63,-599.24 205.596,-601.999"/>
<polygon fill="midnightblue" stroke="midnightblue" points="204.31,-605.263 214.843,-606.406 207.322,-598.944 204.31,-605.263"/>
</g>
<!-- Node7 -->
<g id="node13" class="node"><title>Node7</title>
<a xlink:href="../../d3/d5a/jid_8c.html#a6da80c5b44d3c4ef896850a5d1d790b0" target="_top" xlink:title="Allocate and initialize a new JID from an existing JID structure.">
<polygon fill="none" stroke="black" points="216.5,-226.5 216.5,-245.5 329.5,-245.5 329.5,-226.5 216.5,-226.5"/>
<text text-anchor="middle" x="273" y="-233.5" font-family="DejaVuSansMono" font-size="10.00">jid_new_from_jid</text>
</a>
</g>
<!-- Node1&#45;&gt;Node7 -->
<g id="edge12" class="edge"><title>Node1&#45;&gt;Node7</title>
<path fill="none" stroke="midnightblue" d="M155.556,-236C172.218,-236 189.71,-236 205.925,-236"/>
<polygon fill="midnightblue" stroke="midnightblue" points="206.374,-239.5 216.374,-236 206.374,-232.5 206.374,-239.5"/>
</g>
<!-- Node14 -->
<g id="node28" class="node"><title>Node14</title>
<a xlink:href="../../d3/d5a/jid_8c.html#ad4e057d210bd0776fcb89289e5d59f81" target="_top" xlink:title="Sets the resourcepart of a JID.">
<polygon fill="none" stroke="black" points="417.5,-112.5 417.5,-131.5 530.5,-131.5 530.5,-112.5 417.5,-112.5"/>
<text text-anchor="middle" x="474" y="-119.5" font-family="DejaVuSansMono" font-size="10.00">jid_set_resource</text>
</a>
</g>
<!-- Node1&#45;&gt;Node14 -->
<g id="edge40" class="edge"><title>Node1&#45;&gt;Node14</title>
<path fill="none" stroke="midnightblue" d="M132.052,-226.469C200.539,-213.651 315.492,-190.243 354,-171 372.631,-161.69 371.337,-150.244 390,-141 395.564,-138.244 401.536,-135.881 407.632,-133.857"/>
<polygon fill="midnightblue" stroke="midnightblue" points="408.714,-137.186 417.275,-130.945 406.69,-130.485 408.714,-137.186"/>
</g>
<!-- Node16 -->
<g id="node33" class="node"><title>Node16</title>
<a xlink:href="../../d1/d59/xmpp__stanza_8c.html#a7ca8bf259143d7ff53b24de8b666026d" target="_top" xlink:title="Sets the value of an attribute in a stanza.">
<polygon fill="none" stroke="black" points="405.5,-74.5 405.5,-93.5 542.5,-93.5 542.5,-74.5 405.5,-74.5"/>
<text text-anchor="middle" x="474" y="-81.5" font-family="DejaVuSansMono" font-size="10.00">xmpp_stanza_set_attr</text>
</a>
</g>
<!-- Node1&#45;&gt;Node16 -->
<g id="edge34" class="edge"><title>Node1&#45;&gt;Node16</title>
<path fill="none" stroke="midnightblue" d="M92.6034,-226.407C113.188,-212.311 153.901,-186.05 192,-171 260.782,-143.83 287.818,-166.002 354,-133 372.639,-123.706 371.337,-112.244 390,-103 394.885,-100.581 400.084,-98.4639 405.407,-96.613"/>
<polygon fill="midnightblue" stroke="midnightblue" points="406.595,-99.9081 415.078,-93.5605 404.488,-93.2327 406.595,-99.9081"/>
</g>
<!-- Node18 -->
<g id="node37" class="node"><title>Node18</title>
<a xlink:href="../../d3/d91/utils_8c.html#abaedf4730d92cefc0be67f69f2a17ca6" target="_top" xlink:title="Allocate and return a null&#45;terminated string with a UUID.">
<polygon fill="none" stroke="black" points="237.5,-0.5 237.5,-19.5 308.5,-19.5 308.5,-0.5 237.5,-0.5"/>
<text text-anchor="middle" x="273" y="-7.5" font-family="DejaVuSansMono" font-size="10.00">make_uuid</text>
</a>
</g>
<!-- Node1&#45;&gt;Node18 -->
<g id="edge38" class="edge"><title>Node1&#45;&gt;Node18</title>
<path fill="none" stroke="midnightblue" d="M81.2661,-226.349C89.5884,-193.139 121.711,-82.6724 192,-29 202.206,-21.2069 215.117,-16.5446 227.572,-13.775"/>
<polygon fill="midnightblue" stroke="midnightblue" points="228.216,-17.2153 237.402,-11.9361 226.929,-10.3346 228.216,-17.2153"/>
</g>
<!-- Node19 -->
<g id="node40" class="node"><title>Node19</title>
<a xlink:href="../../d3/d5a/jid_8c.html#a3d51f2b27d20189e523b0d0b2a77e4a9" target="_top" xlink:title="Converts a JID to a newly allocated string.">
<polygon fill="none" stroke="black" points="435.5,-378.5 435.5,-397.5 512.5,-397.5 512.5,-378.5 435.5,-378.5"/>
<text text-anchor="middle" x="474" y="-385.5" font-family="DejaVuSansMono" font-size="10.00">jid_to_str</text>
</a>
</g>
<!-- Node1&#45;&gt;Node19 -->
<g id="edge42" class="edge"><title>Node1&#45;&gt;Node19</title>
<path fill="none" stroke="midnightblue" d="M98.1819,-245.645C146.233,-269.485 276.083,-331.934 390,-369 401.307,-372.679 413.703,-375.922 425.387,-378.64"/>
<polygon fill="midnightblue" stroke="midnightblue" points="424.903,-382.118 435.427,-380.89 426.434,-375.287 424.903,-382.118"/>
</g>
<!-- Node20 -->
<g id="node42" class="node"><title>Node20</title>
<a xlink:href="../../d0/df0/xmpp__server_8c.html#a6d3f7e5e289f785b1c8c52f95068c627" target="_top" xlink:title="Deliver a stanza to a registered callback function.">
<polygon fill="none" stroke="black" points="192.5,-435.5 192.5,-454.5 353.5,-454.5 353.5,-435.5 192.5,-435.5"/>
<text text-anchor="middle" x="273" y="-442.5" font-family="DejaVuSansMono" font-size="10.00">xmpp_server_route_stanza</text>
</a>
</g>
<!-- Node1&#45;&gt;Node20 -->
<g id="edge44" class="edge"><title>Node1&#45;&gt;Node20</title>
<path fill="none" stroke="midnightblue" d="M87.7943,-245.523C117.937,-278.165 217.354,-385.824 256.226,-427.918"/>
<polygon fill="midnightblue" stroke="midnightblue" points="253.798,-430.448 263.154,-435.421 258.941,-425.699 253.798,-430.448"/>
</g>
<!-- Node22 -->
<g id="node47" class="node"><title>Node22</title>
<a xlink:href="../../d3/d5a/jid_8c.html#ab83fd5aae95de2c9d38fb9d9cd161580" target="_top" xlink:title="Cleans up and frees an existing JID.">
<polygon fill="none" stroke="black" points="612.5,-530.5 612.5,-549.5 671.5,-549.5 671.5,-530.5 612.5,-530.5"/>
<text text-anchor="middle" x="642" y="-537.5" font-family="DejaVuSansMono" font-size="10.00">jid_del</text>
</a>
</g>
<!-- Node1&#45;&gt;Node22 -->
<g id="edge72" class="edge"><title>Node1&#45;&gt;Node22</title>
<path fill="none" stroke="midnightblue" d="M81.1923,-245.705C89.4679,-280.232 121.963,-398.538 192,-464 307.327,-571.795 515.901,-557.671 602.103,-546.237"/>
<polygon fill="midnightblue" stroke="midnightblue" points="602.812,-549.672 612.235,-544.829 601.848,-542.739 602.812,-549.672"/>
</g>
<!-- Node25 -->
<g id="node55" class="node"><title>Node25</title>
<a xlink:href="../../d1/d59/xmpp__stanza_8c.html#a7cce775ca11aac48b725baaf0a5f3518" target="_top" xlink:title="Sets the value of an attribute in a stanza.">
<polygon fill="none" stroke="black" points="201.5,-104.5 201.5,-123.5 344.5,-123.5 344.5,-104.5 201.5,-104.5"/>
<text text-anchor="middle" x="273" y="-111.5" font-family="DejaVuSansMono" font-size="10.00">xmpp_stanza_copy_attr</text>
</a>
</g>
<!-- Node1&#45;&gt;Node25 -->
<g id="edge60" class="edge"><title>Node1&#45;&gt;Node25</title>
<path fill="none" stroke="midnightblue" d="M88.4226,-226.288C106.807,-207.813 149.401,-167.288 192,-143 203.241,-136.591 216.154,-131.173 228.28,-126.818"/>
<polygon fill="midnightblue" stroke="midnightblue" points="229.466,-130.111 237.789,-123.554 227.194,-123.49 229.466,-130.111"/>
</g>
<!-- Node26 -->
<g id="node58" class="node"><title>Node26</title>
<a xlink:href="../../d1/d59/xmpp__stanza_8c.html#af40757ae1d137034570b1bb33303d024" target="_top" xlink:title="Cleans up and frees an XMPP stanza.">
<polygon fill="none" stroke="black" points="219.5,-38.5 219.5,-57.5 326.5,-57.5 326.5,-38.5 219.5,-38.5"/>
<text text-anchor="middle" x="273" y="-45.5" font-family="DejaVuSansMono" font-size="10.00">xmpp_stanza_del</text>
</a>
</g>
<!-- Node1&#45;&gt;Node26 -->
<g id="edge64" class="edge"><title>Node1&#45;&gt;Node26</title>
<path fill="none" stroke="midnightblue" d="M84.8766,-226.451C100.16,-202.18 143.364,-137.074 192,-95 207.032,-81.996 226.159,-70.6087 241.941,-62.3008"/>
<polygon fill="midnightblue" stroke="midnightblue" points="243.954,-65.203 251.269,-57.5389 240.771,-58.9685 243.954,-65.203"/>
</g>
<!-- Node3 -->
<g id="node5" class="node"><title>Node3</title>
<a xlink:href="../../d1/d59/xmpp__stanza_8c.html#a5a80203f56df7a360fa457c0111686f6" target="_top" xlink:title="Parse the namespace triple that Expat gives us.">
<polygon fill="none" stroke="black" points="441.5,-644.5 441.5,-663.5 506.5,-663.5 506.5,-644.5 441.5,-644.5"/>
<text text-anchor="middle" x="474" y="-651.5" font-family="DejaVuSansMono" font-size="10.00">parse_ns</text>
</a>
</g>
<!-- Node2&#45;&gt;Node3 -->
<g id="edge4" class="edge"><title>Node2&#45;&gt;Node3</title>
<path fill="none" stroke="midnightblue" d="M326.545,-654C359.198,-654 400.606,-654 431.054,-654"/>
<polygon fill="midnightblue" stroke="midnightblue" points="431.335,-657.5 441.335,-654 431.335,-650.5 431.335,-657.5"/>
</g>
<!-- Node4 -->
<g id="node7" class="node"><title>Node4</title>
<a xlink:href="../../d1/d59/xmpp__stanza_8c.html#aff4b8f6e10ce1c351d2a5bc39f0e819f" target="_top" xlink:title="Convenience function to build a key for the attribute hash table.">
<polygon fill="none" stroke="black" points="441.5,-682.5 441.5,-701.5 506.5,-701.5 506.5,-682.5 441.5,-682.5"/>
<text text-anchor="middle" x="474" y="-689.5" font-family="DejaVuSansMono" font-size="10.00">make_key</text>
</a>
</g>
<!-- Node2&#45;&gt;Node4 -->
<g id="edge6" class="edge"><title>Node2&#45;&gt;Node4</title>
<path fill="none" stroke="midnightblue" d="M323.959,-663.54C357.06,-669.861 399.981,-678.057 431.256,-684.029"/>
<polygon fill="midnightblue" stroke="midnightblue" points="430.906,-687.525 441.385,-685.963 432.219,-680.649 430.906,-687.525"/>
</g>
<!-- Node6 -->
<g id="node11" class="node"><title>Node6</title>
<a xlink:href="../../d1/d59/xmpp__stanza_8c.html#afc77f00b7f38c79566a7b16876230e30" target="_top" xlink:title="Removes a child stanza.">
<polygon fill="none" stroke="black" points="393.5,-606.5 393.5,-625.5 554.5,-625.5 554.5,-606.5 393.5,-606.5"/>
<text text-anchor="middle" x="474" y="-613.5" font-family="DejaVuSansMono" font-size="10.00">xmpp_stanza_remove_child</text>
</a>
</g>
<!-- Node5&#45;&gt;Node6 -->
<g id="edge10" class="edge"><title>Node5&#45;&gt;Node6</title>
<path fill="none" stroke="midnightblue" d="M353.508,-616C363.23,-616 373.218,-616 383.079,-616"/>
<polygon fill="midnightblue" stroke="midnightblue" points="383.294,-619.5 393.294,-616 383.293,-612.5 383.294,-619.5"/>
</g>
<!-- Node8 -->
<g id="node15" class="node"><title>Node8</title>
<a xlink:href="../../d3/d5a/jid_8c.html#abd2028a1e581e6374acaa6beaf6e5413" target="_top" xlink:title="Allocate and initialize a new blank JID.">
<polygon fill="none" stroke="black" points="612.5,-378.5 612.5,-397.5 671.5,-397.5 671.5,-378.5 612.5,-378.5"/>
<text text-anchor="middle" x="642" y="-385.5" font-family="DejaVuSansMono" font-size="10.00">jid_new</text>
</a>
</g>
<!-- Node7&#45;&gt;Node8 -->
<g id="edge14" class="edge"><title>Node7&#45;&gt;Node8</title>
<path fill="none" stroke="midnightblue" d="M290.37,-245.58C312.363,-258.087 352.975,-279.92 390,-293 462.181,-318.5 487.856,-300.337 558,-331 581.785,-341.398 605.905,-358.912 621.967,-371.788"/>
<polygon fill="midnightblue" stroke="midnightblue" points="620.058,-374.75 630.008,-378.39 624.5,-369.34 620.058,-374.75"/>
</g>
<!-- Node9 -->
<g id="node17" class="node"><title>Node9</title>
<a xlink:href="../../d3/d5a/jid_8c.html#a1a93fd4eaa48c375952cb6f9c9127907" target="_top" xlink:title="Sets the localpart of a JID.">
<polygon fill="none" stroke="black" points="426.5,-226.5 426.5,-245.5 521.5,-245.5 521.5,-226.5 426.5,-226.5"/>
<text text-anchor="middle" x="474" y="-233.5" font-family="DejaVuSansMono" font-size="10.00">jid_set_local</text>
</a>
</g>
<!-- Node7&#45;&gt;Node9 -->
<g id="edge16" class="edge"><title>Node7&#45;&gt;Node9</title>
<path fill="none" stroke="midnightblue" d="M329.697,-236C356.716,-236 389.118,-236 416.272,-236"/>
<polygon fill="midnightblue" stroke="midnightblue" points="416.4,-239.5 426.4,-236 416.4,-232.5 416.4,-239.5"/>
</g>
<!-- Node11 -->
<g id="node21" class="node"><title>Node11</title>
<a xlink:href="../../d3/d5a/jid_8c.html#ac1dcf40e9090a5a9717b685b6b055feb" target="_top" xlink:title="Returns the localpart of a JID.">
<polygon fill="none" stroke="black" points="438.5,-150.5 438.5,-169.5 509.5,-169.5 509.5,-150.5 438.5,-150.5"/>
<text text-anchor="middle" x="474" y="-157.5" font-family="DejaVuSansMono" font-size="10.00">jid_local</text>
</a>
</g>
<!-- Node7&#45;&gt;Node11 -->
<g id="edge20" class="edge"><title>Node7&#45;&gt;Node11</title>
<path fill="none" stroke="midnightblue" d="M316.084,-226.48C328.738,-222.673 342.348,-217.591 354,-211 372.633,-200.461 370.971,-188.806 390,-179 401.716,-172.962 415.34,-168.825 428.121,-165.998"/>
<polygon fill="midnightblue" stroke="midnightblue" points="429.016,-169.388 438.138,-163.999 427.646,-162.524 429.016,-169.388"/>
</g>
<!-- Node12 -->
<g id="node23" class="node"><title>Node12</title>
<a xlink:href="../../d3/d5a/jid_8c.html#aeefeabfe802b3db2ce1b8894ae6a0d05" target="_top" xlink:title="Sets the domainpart of a JID.">
<polygon fill="none" stroke="black" points="423.5,-188.5 423.5,-207.5 524.5,-207.5 524.5,-188.5 423.5,-188.5"/>
<text text-anchor="middle" x="474" y="-195.5" font-family="DejaVuSansMono" font-size="10.00">jid_set_domain</text>
</a>
</g>
<!-- Node7&#45;&gt;Node12 -->
<g id="edge22" class="edge"><title>Node7&#45;&gt;Node12</title>
<path fill="none" stroke="midnightblue" d="M323.959,-226.46C351.148,-221.268 384.964,-214.811 413.508,-209.36"/>
<polygon fill="midnightblue" stroke="midnightblue" points="414.199,-212.792 423.365,-207.478 412.886,-205.916 414.199,-212.792"/>
</g>
<!-- Node13 -->
<g id="node26" class="node"><title>Node13</title>
<a xlink:href="../../d3/d5a/jid_8c.html#a32b3d0744d90d33622986e4989042ee6" target="_top" xlink:title="Returns the domainpart of a JID.">
<polygon fill="none" stroke="black" points="435.5,-340.5 435.5,-359.5 512.5,-359.5 512.5,-340.5 435.5,-340.5"/>
<text text-anchor="middle" x="474" y="-347.5" font-family="DejaVuSansMono" font-size="10.00">jid_domain</text>
</a>
</g>
<!-- Node7&#45;&gt;Node13 -->
<g id="edge26" class="edge"><title>Node7&#45;&gt;Node13</title>
<path fill="none" stroke="midnightblue" d="M283.652,-245.616C302.488,-263.866 346.154,-303.691 390,-326 400.967,-331.58 413.428,-336.048 425.299,-339.544"/>
<polygon fill="midnightblue" stroke="midnightblue" points="424.515,-342.959 435.086,-342.255 426.384,-336.213 424.515,-342.959"/>
</g>
<!-- Node7&#45;&gt;Node14 -->
<g id="edge28" class="edge"><title>Node7&#45;&gt;Node14</title>
<path fill="none" stroke="midnightblue" d="M325.733,-226.421C335.873,-222.809 345.871,-217.838 354,-211 380.772,-188.48 362.372,-162.461 390,-141 395.334,-136.857 401.407,-133.588 407.787,-131.012"/>
<polygon fill="midnightblue" stroke="midnightblue" points="408.999,-134.296 417.301,-127.714 406.707,-127.682 408.999,-134.296"/>
</g>
<!-- Node15 -->
<g id="node31" class="node"><title>Node15</title>
<a xlink:href="../../d3/d5a/jid_8c.html#a54f945004eef842630b39c94a3689e28" target="_top" xlink:title="Returns the resourcepart of a JID.">
<polygon fill="none" stroke="black" points="429.5,-264.5 429.5,-283.5 518.5,-283.5 518.5,-264.5 429.5,-264.5"/>
<text text-anchor="middle" x="474" y="-271.5" font-family="DejaVuSansMono" font-size="10.00">jid_resource</text>
</a>
</g>
<!-- Node7&#45;&gt;Node15 -->
<g id="edge32" class="edge"><title>Node7&#45;&gt;Node15</title>
<path fill="none" stroke="midnightblue" d="M323.959,-245.54C353.002,-251.086 389.606,-258.075 419.269,-263.74"/>
<polygon fill="midnightblue" stroke="midnightblue" points="418.97,-267.246 429.449,-265.684 420.283,-260.37 418.97,-267.246"/>
</g>
<!-- Node10 -->
<g id="node19" class="node"><title>Node10</title>
<a xlink:href="../../d3/d91/utils_8c.html#a07891e77aee8f9b825d52bd33e474f30" target="_top" xlink:title="Simple string copy, freeing original if neccessary.">
<polygon fill="none" stroke="black" points="600.5,-188.5 600.5,-207.5 683.5,-207.5 683.5,-188.5 600.5,-188.5"/>
<text text-anchor="middle" x="642" y="-195.5" font-family="DejaVuSansMono" font-size="10.00">copy_string</text>
</a>
</g>
<!-- Node9&#45;&gt;Node10 -->
<g id="edge18" class="edge"><title>Node9&#45;&gt;Node10</title>
<path fill="none" stroke="midnightblue" d="M516.889,-226.411C539.244,-221.294 566.922,-214.958 590.464,-209.569"/>
<polygon fill="midnightblue" stroke="midnightblue" points="591.305,-212.966 600.272,-207.323 589.743,-206.143 591.305,-212.966"/>
</g>
<!-- Node12&#45;&gt;Node10 -->
<g id="edge24" class="edge"><title>Node12&#45;&gt;Node10</title>
<path fill="none" stroke="midnightblue" d="M524.805,-198C545.475,-198 569.433,-198 590.205,-198"/>
<polygon fill="midnightblue" stroke="midnightblue" points="590.43,-201.5 600.43,-198 590.43,-194.5 590.43,-201.5"/>
</g>
<!-- Node14&#45;&gt;Node10 -->
<g id="edge30" class="edge"><title>Node14&#45;&gt;Node10</title>
<path fill="none" stroke="midnightblue" d="M529.97,-131.501C539.519,-134.015 549.201,-137.14 558,-141 581.772,-151.428 605.893,-168.938 621.96,-181.805"/>
<polygon fill="midnightblue" stroke="midnightblue" points="620.052,-184.766 630.004,-188.401 624.49,-179.353 620.052,-184.766"/>
</g>
<!-- Node17 -->
<g id="node35" class="node"><title>Node17</title>
<a xlink:href="../../d1/d59/xmpp__stanza_8c.html#a2fb472c6bf9b7f540a97ddc6c11adb74" target="_top" xlink:title="attribute_del">
<polygon fill="none" stroke="black" points="594.5,-36.5 594.5,-55.5 689.5,-55.5 689.5,-36.5 594.5,-36.5"/>
<text text-anchor="middle" x="642" y="-43.5" font-family="DejaVuSansMono" font-size="10.00">attribute_del</text>
</a>
</g>
<!-- Node16&#45;&gt;Node17 -->
<g id="edge36" class="edge"><title>Node16&#45;&gt;Node17</title>
<path fill="none" stroke="midnightblue" d="M516.889,-74.411C538.893,-69.3739 566.055,-63.1562 589.352,-57.8229"/>
<polygon fill="midnightblue" stroke="midnightblue" points="590.446,-61.1633 599.412,-55.5201 588.884,-54.3398 590.446,-61.1633"/>
</g>
<!-- Node20&#45;&gt;Node19 -->
<g id="edge54" class="edge"><title>Node20&#45;&gt;Node19</title>
<path fill="none" stroke="midnightblue" d="M300.974,-435.386C324.349,-427.243 359.166,-415.56 390,-407 401.347,-403.85 413.67,-400.82 425.262,-398.141"/>
<polygon fill="midnightblue" stroke="midnightblue" points="426.239,-401.509 435.218,-395.883 424.691,-394.682 426.239,-401.509"/>
</g>
<!-- Node21 -->
<g id="node44" class="node"><title>Node21</title>
<a xlink:href="../../d3/d5a/jid_8c.html#a0151ea37a9f52813a8d48d2b7eec2044" target="_top" xlink:title="Allocate and initialize a new JID from an existing JID string.">
<polygon fill="none" stroke="black" points="417.5,-454.5 417.5,-473.5 530.5,-473.5 530.5,-454.5 417.5,-454.5"/>
<text text-anchor="middle" x="474" y="-461.5" font-family="DejaVuSansMono" font-size="10.00">jid_new_from_str</text>
</a>
</g>
<!-- Node20&#45;&gt;Node21 -->
<g id="edge46" class="edge"><title>Node20&#45;&gt;Node21</title>
<path fill="none" stroke="midnightblue" d="M353.508,-452.591C371.427,-454.302 390.248,-456.099 407.515,-457.748"/>
<polygon fill="midnightblue" stroke="midnightblue" points="407.196,-461.233 417.484,-458.699 407.862,-454.265 407.196,-461.233"/>
</g>
<!-- Node20&#45;&gt;Node22 -->
<g id="edge58" class="edge"><title>Node20&#45;&gt;Node22</title>
<path fill="none" stroke="midnightblue" d="M284.519,-454.613C303.771,-471.542 346.69,-506.273 390,-521 461.846,-545.431 551.711,-545.46 602.093,-542.951"/>
<polygon fill="midnightblue" stroke="midnightblue" points="602.435,-546.437 612.224,-542.385 602.045,-539.448 602.435,-546.437"/>
</g>
<!-- Node23 -->
<g id="node49" class="node"><title>Node23</title>
<a xlink:href="../../d1/d59/xmpp__stanza_8c.html#a20c90c791fa856784f2d43c9f44f1d3c" target="_top" xlink:title="Returns the value of an attribute of this stanza.">
<polygon fill="none" stroke="black" points="417.5,-492.5 417.5,-511.5 530.5,-511.5 530.5,-492.5 417.5,-492.5"/>
<text text-anchor="middle" x="474" y="-499.5" font-family="DejaVuSansMono" font-size="10.00">xmpp_stanza_attr</text>
</a>
</g>
<!-- Node20&#45;&gt;Node23 -->
<g id="edge52" class="edge"><title>Node20&#45;&gt;Node23</title>
<path fill="none" stroke="midnightblue" d="M300.974,-454.614C324.349,-462.757 359.166,-474.44 390,-483 398.996,-485.497 408.605,-487.919 417.976,-490.15"/>
<polygon fill="midnightblue" stroke="midnightblue" points="417.479,-493.628 428.013,-492.491 419.069,-486.811 417.479,-493.628"/>
</g>
<!-- Node24 -->
<g id="node52" class="node"><title>Node24</title>
<a xlink:href="../../d3/d5a/jid_8c.html#a5b2f969326a86fa7e585f633d7b0f565" target="_top" xlink:title="Compare two JIDs with wildcard matches.">
<polygon fill="none" stroke="black" points="414.5,-416.5 414.5,-435.5 533.5,-435.5 533.5,-416.5 414.5,-416.5"/>
<text text-anchor="middle" x="474" y="-423.5" font-family="DejaVuSansMono" font-size="10.00">jid_cmp_wildcards</text>
</a>
</g>
<!-- Node20&#45;&gt;Node24 -->
<g id="edge56" class="edge"><title>Node20&#45;&gt;Node24</title>
<path fill="none" stroke="midnightblue" d="M353.508,-437.409C370.363,-435.8 388.016,-434.114 404.423,-432.548"/>
<polygon fill="midnightblue" stroke="midnightblue" points="404.838,-436.024 414.46,-431.589 404.173,-429.056 404.838,-436.024"/>
</g>
<!-- Node21&#45;&gt;Node8 -->
<g id="edge48" class="edge"><title>Node21&#45;&gt;Node8</title>
<path fill="none" stroke="midnightblue" d="M529.97,-454.499C539.519,-451.985 549.201,-448.86 558,-445 581.772,-434.572 605.893,-417.062 621.96,-404.195"/>
<polygon fill="midnightblue" stroke="midnightblue" points="624.49,-406.647 630.004,-397.599 620.052,-401.234 624.49,-406.647"/>
</g>
<!-- Node21&#45;&gt;Node22 -->
<g id="edge50" class="edge"><title>Node21&#45;&gt;Node22</title>
<path fill="none" stroke="midnightblue" d="M529.97,-473.501C539.519,-476.015 549.201,-479.14 558,-483 581.772,-493.428 605.893,-510.938 621.96,-523.805"/>
<polygon fill="midnightblue" stroke="midnightblue" points="620.052,-526.766 630.004,-530.401 624.49,-521.353 620.052,-526.766"/>
</g>
<!-- Node25&#45;&gt;Node16 -->
<g id="edge62" class="edge"><title>Node25&#45;&gt;Node16</title>
<path fill="none" stroke="midnightblue" d="M337.238,-104.467C357.19,-101.459 379.396,-98.1111 399.973,-95.0091"/>
<polygon fill="midnightblue" stroke="midnightblue" points="400.56,-98.4603 409.926,-93.5086 399.516,-91.5385 400.56,-98.4603"/>
</g>
<!-- Node26&#45;&gt;Node17 -->
<g id="edge66" class="edge"><title>Node26&#45;&gt;Node17</title>
<path fill="none" stroke="midnightblue" d="M316.176,-38.4871C338.071,-34.0272 365.335,-29.2146 390,-27 464.368,-20.3227 483.805,-18.6163 558,-27 570.981,-28.4668 584.891,-31.1852 597.542,-34.1162"/>
<polygon fill="midnightblue" stroke="midnightblue" points="596.833,-37.5456 607.375,-36.4926 598.477,-30.7415 596.833,-37.5456"/>
</g>
<!-- Node26&#45;&gt;Node26 -->
<g id="edge70" class="edge"><title>Node26&#45;&gt;Node26</title>
<path fill="none" stroke="midnightblue" d="M243.099,-57.7571C228.553,-66.5653 238.52,-76 273,-76 297.244,-76 309.369,-71.3356 309.375,-65.5043"/>
<polygon fill="midnightblue" stroke="midnightblue" points="311.999,-63.1862 302.901,-57.7571 306.628,-67.6749 311.999,-63.1862"/>
</g>
<!-- Node27 -->
<g id="node61" class="node"><title>Node27</title>
<a xlink:href="../../d1/dc2/xmpp__parser_8c.html#a87065f39f10a449e7af17fa45ca475f2" target="_top" xlink:title="xmpp_parser_namespace_del">
<polygon fill="none" stroke="black" points="390.5,-36.5 390.5,-55.5 557.5,-55.5 557.5,-36.5 390.5,-36.5"/>
<text text-anchor="middle" x="474" y="-43.5" font-family="DejaVuSansMono" font-size="10.00">xmpp_parser_namespace_del</text>
</a>
</g>
<!-- Node26&#45;&gt;Node27 -->
<g id="edge68" class="edge"><title>Node26&#45;&gt;Node27</title>
<path fill="none" stroke="midnightblue" d="M326.545,-47.4719C343.062,-47.3059 361.819,-47.1174 380.265,-46.932"/>
<polygon fill="midnightblue" stroke="midnightblue" points="380.5,-50.4299 390.464,-46.8295 380.429,-43.4303 380.5,-50.4299"/>
</g>
</g>
</svg>
        <g id="navigator" transform="translate(0 0)" fill="#404254">
                <rect fill="#f2f5e9" fill-opacity="0.5" stroke="#606060" stroke-width=".5" x="0" y="0" width="60" height="60"/>
                <use id="zoomplus" xlink:href="#zoomPlus" x="17" y="9" onmousedown="handleZoom(evt,'in')"/>
                <use id="zoomminus" xlink:href="#zoomMin" x="42" y="9" onmousedown="handleZoom(evt,'out')"/>
                <use id="reset" xlink:href="#resetDef" x="30" y="36" onmousedown="handleReset()"/>
                <g id="arrowUp" xlink:href="#dirArrow" transform="translate(30 24)" onmousedown="handlePan(0,-1)">
                  <use xlink:href="#rim" fill="#404040">
                        <set attributeName="fill" to="#808080" begin="arrowUp.mouseover" end="arrowUp.mouseout"/>
                  </use>
                  <path fill="none" stroke="white" stroke-width="1.5" d="M0,-3.0v7 M-2.5,-0.5L0,-3.0L2.5,-0.5"/>
                </g>
                <g id="arrowRight" xlink:href="#dirArrow" transform="rotate(90) translate(36 -43)" onmousedown="handlePan(1,0)">
                  <use xlink:href="#rim" fill="#404040">
                        <set attributeName="fill" to="#808080" begin="arrowRight.mouseover" end="arrowRight.mouseout"/>
                  </use>
                  <path fill="none" stroke="white" stroke-width="1.5" d="M0,-3.0v7 M-2.5,-0.5L0,-3.0L2.5,-0.5"/>
                </g>
                <g id="arrowDown" xlink:href="#dirArrow" transform="rotate(180) translate(-30 -48)" onmousedown="handlePan(0,1)">
                  <use xlink:href="#rim" fill="#404040">
                        <set attributeName="fill" to="#808080" begin="arrowDown.mouseover" end="arrowDown.mouseout"/>
                  </use>
                  <path fill="none" stroke="white" stroke-width="1.5" d="M0,-3.0v7 M-2.5,-0.5L0,-3.0L2.5,-0.5"/>
                </g>
                <g id="arrowLeft" xlink:href="#dirArrow" transform="rotate(270) translate(-36 17)" onmousedown="handlePan(-1,0)">
                  <use xlink:href="#rim" fill="#404040">
                        <set attributeName="fill" to="#808080" begin="arrowLeft.mouseover" end="arrowLeft.mouseout"/>
                  </use>
                  <path fill="none" stroke="white" stroke-width="1.5" d="M0,-3.0v7 M-2.5,-0.5L0,-3.0L2.5,-0.5"/>
                </g>
        </g>
        <svg viewBox="0 0 25 25" width="100%" height="30px" preserveAspectRatio="xMaxYMin meet"> 
          <g id="printButton" transform="scale(0.4 0.4)" onmousedown="handlePrint(evt)">
            <rect height="23.33753581" id="paper" rx="2" style="fill:#f2f5e9;fill-rule:evenodd;stroke:#111111;stroke-width:3.224;stroke-linejoin:round;" transform="matrix(1.000000,0.000000,-0.339266,0.940691,0.000000,0.000000)" width="25.55231285" x="26.69387353" y="7.36162977"/>
            <rect height="26.272097" id="body" rx="2" style="fill:#404040;fill-rule:evenodd;stroke:#111111;stroke-width:3.125;stroke-linejoin:round;" width="50" x="4.5295201" y="27.078951"/>
            <rect height="8.27750969" id="tray" style="fill:#d2d5c9;fill-rule:evenodd;stroke:#111111;stroke-width:3.125;stroke-linecap:round;stroke-linejoin:round;" width="40" x="10.28778839" y="44.96812282"/>
          </g>
        </svg>
</svg>
