<?xml version="1.0" encoding="UTF-8" standalone="no"?>
<!DOCTYPE svg PUBLIC "-//W3C//DTD SVG 1.1//EN"
 "http://www.w3.org/Graphics/SVG/1.1/DTD/svg11.dtd">
<!-- Generated by graphviz version 2.28.0 (20120217.0315)
 -->
<!-- Title: G Pages: 1 -->
<svg width="314pt" height="47pt"
 viewBox="0.00 0.00 314.00 47.00" xmlns="http://www.w3.org/2000/svg" xmlns:xlink="http://www.w3.org/1999/xlink">
<g id="graph1" class="graph" transform="scale(1 1) rotate(0) translate(4 43)">
<title>G</title>
<!-- Node1 -->
<g id="node1" class="node"><title>Node1</title>
<polygon fill="#bfbfbf" stroke="black" points="0.5,-19.5 0.5,-38.5 65.5,-38.5 65.5,-19.5 0.5,-19.5"/>
<text text-anchor="middle" x="33" y="-26.5" font-family="DejaVuSansMono" font-size="10.00">room_del</text>
</g>
<!-- Node2 -->
<g id="node3" class="node"><title>Node2</title>
<a xlink:href="../../d3/d5a/jid_8c.html#ab83fd5aae95de2c9d38fb9d9cd161580" target="_top" xlink:title="Cleans up and frees an existing JID.">
<polygon fill="none" stroke="black" points="246.5,-19.5 246.5,-38.5 305.5,-38.5 305.5,-19.5 246.5,-19.5"/>
<text text-anchor="middle" x="276" y="-26.5" font-family="DejaVuSansMono" font-size="10.00">jid_del</text>
</a>
</g>
<!-- Node1&#45;&gt;Node2 -->
<g id="edge2" class="edge"><title>Node1&#45;&gt;Node2</title>
<path fill="none" stroke="midnightblue" d="M65.5065,-29C109.395,-29 188.871,-29 236.306,-29"/>
<polygon fill="midnightblue" stroke="midnightblue" points="236.49,-32.5001 246.49,-29 236.49,-25.5001 236.49,-32.5001"/>
</g>
<!-- Node3 -->
<g id="node5" class="node"><title>Node3</title>
<a xlink:href="../../d7/d71/xep__muc_8c.html#a160ab04be39d4fb816a725d948738248" target="_top" xlink:title="room_client_del">
<polygon fill="none" stroke="black" points="102.5,-0.5 102.5,-19.5 209.5,-19.5 209.5,-0.5 102.5,-0.5"/>
<text text-anchor="middle" x="156" y="-7.5" font-family="DejaVuSansMono" font-size="10.00">room_client_del</text>
</a>
</g>
<!-- Node1&#45;&gt;Node3 -->
<g id="edge4" class="edge"><title>Node1&#45;&gt;Node3</title>
<path fill="none" stroke="midnightblue" d="M65.7913,-24.008C74.0187,-22.7161 83.1681,-21.2794 92.3831,-19.8324"/>
<polygon fill="midnightblue" stroke="midnightblue" points="93.0316,-23.2735 102.368,-18.2646 91.9457,-16.3583 93.0316,-23.2735"/>
</g>
<!-- Node3&#45;&gt;Node2 -->
<g id="edge6" class="edge"><title>Node3&#45;&gt;Node2</title>
<path fill="none" stroke="midnightblue" d="M209.788,-18.4997C218.687,-19.9327 227.778,-21.3964 236.236,-22.7584"/>
<polygon fill="midnightblue" stroke="midnightblue" points="235.757,-26.2261 246.186,-24.3604 236.869,-19.3152 235.757,-26.2261"/>
</g>
</g>
</svg>
