<?xml version="1.0" encoding="UTF-8" standalone="no"?>
<!DOCTYPE svg PUBLIC "-//W3C//DTD SVG 1.1//EN"
 "http://www.w3.org/Graphics/SVG/1.1/DTD/svg11.dtd">
<!-- Generated by graphviz version 2.28.0 (20120217.0315)
 -->
<!-- Title: G Pages: 1 -->
<!--zoomable 484 -->
<svg id="main" version="1.1" xmlns="http://www.w3.org/2000/svg" xmlns:xlink="http://www.w3.org/1999/xlink" xml:space="preserve" onload="init(evt)">
        <defs>
                <circle id="rim" cx="0" cy="0" r="7"/>
                <circle id="rim2" cx="0" cy="0" r="3.5"/>
                <g id="zoomPlus">
                        <use xlink:href="#rim" fill="#404040">
                                <set attributeName="fill" to="#808080" begin="zoomplus.mouseover" end="zoomplus.mouseout"/>
                        </use>
                        <path d="M-4,0h8M0,-4v8" fill="none" stroke="white" stroke-width="1.5" pointer-events="none"/>
                </g>
                <g id="zoomMin">
                        <use xlink:href="#rim" fill="#404040">
                                <set attributeName="fill" to="#808080" begin="zoomminus.mouseover" end="zoomminus.mouseout"/>
                        </use>
                        <path d="M-4,0h8" fill="none" stroke="white" stroke-width="1.5" pointer-events="none"/>
                </g>
                <g id="dirArrow">
                        <path fill="none" stroke="white" stroke-width="1.5" d="M0,-3.0v7 M-2.5,-0.5L0,-3.0L2.5,-0.5"/>
                </g>
               <g id="resetDef">
                       <use xlink:href="#rim2" fill="#404040">
                               <set attributeName="fill" to="#808080" begin="reset.mouseover" end="reset.mouseout"/>
                       </use>
               </g>
        </defs>

<script type="text/javascript">
var viewWidth = 584;
var viewHeight = 484;
var sectionId = 'dynsection-18';
</script>
<script xlink:href="../../svgpan.js"/>
<svg id="graph" class="graph">
<g id="viewport">
<title>G</title>
<!-- Node1 -->
<g id="node1" class="node"><title>Node1</title>
<polygon fill="#bfbfbf" stroke="black" points="0.5,-219.5 0.5,-238.5 77.5,-238.5 77.5,-219.5 0.5,-219.5"/>
<text text-anchor="middle" x="39" y="-226.5" font-family="DejaVuSansMono" font-size="10.00">leave_room</text>
</g>
<!-- Node2 -->
<g id="node3" class="node"><title>Node2</title>
<a xlink:href="../../d3/d5a/jid_8c.html#ad4e057d210bd0776fcb89289e5d59f81" target="_top" xlink:title="Sets the resourcepart of a JID.">
<polygon fill="none" stroke="black" points="138.5,-437.5 138.5,-456.5 251.5,-456.5 251.5,-437.5 138.5,-437.5"/>
<text text-anchor="middle" x="195" y="-444.5" font-family="DejaVuSansMono" font-size="10.00">jid_set_resource</text>
</a>
</g>
<!-- Node1&#45;&gt;Node2 -->
<g id="edge2" class="edge"><title>Node1&#45;&gt;Node2</title>
<path fill="none" stroke="midnightblue" d="M41.4393,-238.517C46.3115,-267.688 64.7201,-357.016 114,-409 124.13,-419.686 137.875,-427.694 151.113,-433.533"/>
<polygon fill="midnightblue" stroke="midnightblue" points="150.023,-436.868 160.604,-437.409 152.669,-430.388 150.023,-436.868"/>
</g>
<!-- Node4 -->
<g id="node7" class="node"><title>Node4</title>
<a xlink:href="../../d1/d59/xmpp__stanza_8c.html#aa80dd21d794b5c63fcb13c49745cc373" target="_top" xlink:title="Allocate and initialize a new XMPP stanza structure.">
<polygon fill="none" stroke="black" points="141.5,-380.5 141.5,-399.5 248.5,-399.5 248.5,-380.5 141.5,-380.5"/>
<text text-anchor="middle" x="195" y="-387.5" font-family="DejaVuSansMono" font-size="10.00">xmpp_stanza_new</text>
</a>
</g>
<!-- Node1&#45;&gt;Node4 -->
<g id="edge6" class="edge"><title>Node1&#45;&gt;Node4</title>
<path fill="none" stroke="midnightblue" d="M42.1059,-238.729C48.2385,-264.62 68.603,-335.637 114,-371 119.297,-375.126 125.347,-378.377 131.696,-380.936"/>
<polygon fill="midnightblue" stroke="midnightblue" points="130.563,-384.247 141.158,-384.21 132.852,-377.632 130.563,-384.247"/>
</g>
<!-- Node7 -->
<g id="node13" class="node"><title>Node7</title>
<a xlink:href="../../d1/d59/xmpp__stanza_8c.html#a7ca8bf259143d7ff53b24de8b666026d" target="_top" xlink:title="Sets the value of an attribute in a stanza.">
<polygon fill="none" stroke="black" points="126.5,-342.5 126.5,-361.5 263.5,-361.5 263.5,-342.5 126.5,-342.5"/>
<text text-anchor="middle" x="195" y="-349.5" font-family="DejaVuSansMono" font-size="10.00">xmpp_stanza_set_attr</text>
</a>
</g>
<!-- Node1&#45;&gt;Node7 -->
<g id="edge12" class="edge"><title>Node1&#45;&gt;Node7</title>
<path fill="none" stroke="midnightblue" d="M43.9325,-238.508C52.9974,-259.186 77.4255,-308.364 114,-333 117.082,-335.076 120.364,-336.926 123.775,-338.575"/>
<polygon fill="midnightblue" stroke="midnightblue" points="122.476,-341.826 133.05,-342.487 125.196,-335.376 122.476,-341.826"/>
</g>
<!-- Node9 -->
<g id="node17" class="node"><title>Node9</title>
<a xlink:href="../../d3/d5a/jid_8c.html#a3d51f2b27d20189e523b0d0b2a77e4a9" target="_top" xlink:title="Converts a JID to a newly allocated string.">
<polygon fill="none" stroke="black" points="357.5,-266.5 357.5,-285.5 434.5,-285.5 434.5,-266.5 357.5,-266.5"/>
<text text-anchor="middle" x="396" y="-273.5" font-family="DejaVuSansMono" font-size="10.00">jid_to_str</text>
</a>
</g>
<!-- Node1&#45;&gt;Node9 -->
<g id="edge16" class="edge"><title>Node1&#45;&gt;Node9</title>
<path fill="none" stroke="midnightblue" d="M77.6551,-233.985C142.711,-242.598 276.02,-260.248 347.398,-269.698"/>
<polygon fill="midnightblue" stroke="midnightblue" points="347.091,-273.188 357.464,-271.03 348.01,-266.248 347.091,-273.188"/>
</g>
<!-- Node10 -->
<g id="node19" class="node"><title>Node10</title>
<a xlink:href="../../d1/d59/xmpp__stanza_8c.html#ac13c8bb45e2ca03b99836e8d52b265b4" target="_top" xlink:title="Appends a child stanza.">
<polygon fill="none" stroke="black" points="114.5,-0.5 114.5,-19.5 275.5,-19.5 275.5,-0.5 114.5,-0.5"/>
<text text-anchor="middle" x="195" y="-7.5" font-family="DejaVuSansMono" font-size="10.00">xmpp_stanza_append_child</text>
</a>
</g>
<!-- Node1&#45;&gt;Node10 -->
<g id="edge18" class="edge"><title>Node1&#45;&gt;Node10</title>
<path fill="none" stroke="midnightblue" d="M40.7426,-219.24C43.6816,-187.592 57.2903,-86.807 114,-34 118.351,-29.9485 123.36,-26.5792 128.705,-23.7774"/>
<polygon fill="midnightblue" stroke="midnightblue" points="130.301,-26.897 137.961,-19.5778 127.408,-20.5225 130.301,-26.897"/>
</g>
<!-- Node11 -->
<g id="node21" class="node"><title>Node11</title>
<a xlink:href="../../d1/d59/xmpp__stanza_8c.html#afc77f00b7f38c79566a7b16876230e30" target="_top" xlink:title="Removes a child stanza.">
<polygon fill="none" stroke="black" points="315.5,-0.5 315.5,-19.5 476.5,-19.5 476.5,-0.5 315.5,-0.5"/>
<text text-anchor="middle" x="396" y="-7.5" font-family="DejaVuSansMono" font-size="10.00">xmpp_stanza_remove_child</text>
</a>
</g>
<!-- Node1&#45;&gt;Node11 -->
<g id="edge42" class="edge"><title>Node1&#45;&gt;Node11</title>
<path fill="none" stroke="midnightblue" d="M41.3841,-219.1C45.9315,-190.525 63.1536,-107.384 114,-67 122.551,-60.2085 251.432,-35.9417 331.647,-21.3507"/>
<polygon fill="midnightblue" stroke="midnightblue" points="332.444,-24.7632 341.659,-19.5338 331.194,-17.8757 332.444,-24.7632"/>
</g>
<!-- Node12 -->
<g id="node23" class="node"><title>Node12</title>
<a xlink:href="../../d0/df0/xmpp__server_8c.html#a6d3f7e5e289f785b1c8c52f95068c627" target="_top" xlink:title="Deliver a stanza to a registered callback function.">
<polygon fill="none" stroke="black" points="114.5,-195.5 114.5,-214.5 275.5,-214.5 275.5,-195.5 114.5,-195.5"/>
<text text-anchor="middle" x="195" y="-202.5" font-family="DejaVuSansMono" font-size="10.00">xmpp_server_route_stanza</text>
</a>
</g>
<!-- Node1&#45;&gt;Node12 -->
<g id="edge22" class="edge"><title>Node1&#45;&gt;Node12</title>
<path fill="none" stroke="midnightblue" d="M77.6726,-223.129C91.3321,-221 107.249,-218.52 122.844,-216.089"/>
<polygon fill="midnightblue" stroke="midnightblue" points="123.677,-219.502 133.018,-214.504 122.599,-212.585 123.677,-219.502"/>
</g>
<!-- Node18 -->
<g id="node37" class="node"><title>Node18</title>
<a xlink:href="../../d7/d71/xep__muc_8c.html#a160ab04be39d4fb816a725d948738248" target="_top" xlink:title="room_client_del">
<polygon fill="none" stroke="black" points="342.5,-76.5 342.5,-95.5 449.5,-95.5 449.5,-76.5 342.5,-76.5"/>
<text text-anchor="middle" x="396" y="-83.5" font-family="DejaVuSansMono" font-size="10.00">room_client_del</text>
</a>
</g>
<!-- Node1&#45;&gt;Node18 -->
<g id="edge38" class="edge"><title>Node1&#45;&gt;Node18</title>
<path fill="none" stroke="midnightblue" d="M54.9699,-219.478C69.6848,-210.317 92.9361,-196.367 114,-186 199.307,-144.015 221.357,-133.704 312,-105 320.103,-102.434 328.754,-100.062 337.297,-97.9266"/>
<polygon fill="midnightblue" stroke="midnightblue" points="338.335,-101.277 347.237,-95.5309 336.695,-94.4714 338.335,-101.277"/>
</g>
<!-- Node19 -->
<g id="node41" class="node"><title>Node19</title>
<a xlink:href="../../d1/d59/xmpp__stanza_8c.html#af40757ae1d137034570b1bb33303d024" target="_top" xlink:title="Cleans up and frees an XMPP stanza.">
<polygon fill="none" stroke="black" points="141.5,-286.5 141.5,-305.5 248.5,-305.5 248.5,-286.5 141.5,-286.5"/>
<text text-anchor="middle" x="195" y="-293.5" font-family="DejaVuSansMono" font-size="10.00">xmpp_stanza_del</text>
</a>
</g>
<!-- Node1&#45;&gt;Node19 -->
<g id="edge44" class="edge"><title>Node1&#45;&gt;Node19</title>
<path fill="none" stroke="midnightblue" d="M61.3286,-238.631C76.0889,-245.266 96.2019,-254.25 114,-262 129.626,-268.804 147.035,-276.222 161.612,-282.388"/>
<polygon fill="midnightblue" stroke="midnightblue" points="160.621,-285.769 171.195,-286.434 163.344,-279.32 160.621,-285.769"/>
</g>
<!-- Node21 -->
<g id="node47" class="node"><title>Node21</title>
<a xlink:href="../../d7/d71/xep__muc_8c.html#ac6bfec1825c03d5493622565c77302f8" target="_top" xlink:title="room_del">
<polygon fill="none" stroke="black" points="162.5,-76.5 162.5,-95.5 227.5,-95.5 227.5,-76.5 162.5,-76.5"/>
<text text-anchor="middle" x="195" y="-83.5" font-family="DejaVuSansMono" font-size="10.00">room_del</text>
</a>
</g>
<!-- Node1&#45;&gt;Node21 -->
<g id="edge52" class="edge"><title>Node1&#45;&gt;Node21</title>
<path fill="none" stroke="midnightblue" d="M45.7505,-219.431C57.0719,-201.161 83.7913,-160.749 114,-134 129.205,-120.536 148.708,-108.746 164.651,-100.22"/>
<polygon fill="midnightblue" stroke="midnightblue" points="166.306,-103.305 173.567,-95.5893 163.079,-97.0925 166.306,-103.305"/>
</g>
<!-- Node3 -->
<g id="node5" class="node"><title>Node3</title>
<a xlink:href="../../d3/d91/utils_8c.html#a07891e77aee8f9b825d52bd33e474f30" target="_top" xlink:title="Simple string copy, freeing original if neccessary.">
<polygon fill="none" stroke="black" points="354.5,-456.5 354.5,-475.5 437.5,-475.5 437.5,-456.5 354.5,-456.5"/>
<text text-anchor="middle" x="396" y="-463.5" font-family="DejaVuSansMono" font-size="10.00">copy_string</text>
</a>
</g>
<!-- Node2&#45;&gt;Node3 -->
<g id="edge4" class="edge"><title>Node2&#45;&gt;Node3</title>
<path fill="none" stroke="midnightblue" d="M251.697,-452.318C280.781,-455.095 316.102,-458.467 344.401,-461.169"/>
<polygon fill="midnightblue" stroke="midnightblue" points="344.196,-464.665 354.484,-462.132 344.862,-457.697 344.196,-464.665"/>
</g>
<!-- Node5 -->
<g id="node9" class="node"><title>Node5</title>
<a xlink:href="../../d1/d59/xmpp__stanza_8c.html#a5a80203f56df7a360fa457c0111686f6" target="_top" xlink:title="Parse the namespace triple that Expat gives us.">
<polygon fill="none" stroke="black" points="363.5,-418.5 363.5,-437.5 428.5,-437.5 428.5,-418.5 363.5,-418.5"/>
<text text-anchor="middle" x="396" y="-425.5" font-family="DejaVuSansMono" font-size="10.00">parse_ns</text>
</a>
</g>
<!-- Node4&#45;&gt;Node5 -->
<g id="edge8" class="edge"><title>Node4&#45;&gt;Node5</title>
<path fill="none" stroke="midnightblue" d="M245.959,-399.54C279.06,-405.861 321.981,-414.057 353.256,-420.029"/>
<polygon fill="midnightblue" stroke="midnightblue" points="352.906,-423.525 363.385,-421.963 354.219,-416.649 352.906,-423.525"/>
</g>
<!-- Node6 -->
<g id="node11" class="node"><title>Node6</title>
<a xlink:href="../../d1/d59/xmpp__stanza_8c.html#aff4b8f6e10ce1c351d2a5bc39f0e819f" target="_top" xlink:title="Convenience function to build a key for the attribute hash table.">
<polygon fill="none" stroke="black" points="363.5,-380.5 363.5,-399.5 428.5,-399.5 428.5,-380.5 363.5,-380.5"/>
<text text-anchor="middle" x="396" y="-387.5" font-family="DejaVuSansMono" font-size="10.00">make_key</text>
</a>
</g>
<!-- Node4&#45;&gt;Node6 -->
<g id="edge10" class="edge"><title>Node4&#45;&gt;Node6</title>
<path fill="none" stroke="midnightblue" d="M248.545,-390C281.198,-390 322.606,-390 353.054,-390"/>
<polygon fill="midnightblue" stroke="midnightblue" points="353.335,-393.5 363.335,-390 353.335,-386.5 353.335,-393.5"/>
</g>
<!-- Node8 -->
<g id="node15" class="node"><title>Node8</title>
<a xlink:href="../../d1/d59/xmpp__stanza_8c.html#a2fb472c6bf9b7f540a97ddc6c11adb74" target="_top" xlink:title="attribute_del">
<polygon fill="none" stroke="black" points="348.5,-342.5 348.5,-361.5 443.5,-361.5 443.5,-342.5 348.5,-342.5"/>
<text text-anchor="middle" x="396" y="-349.5" font-family="DejaVuSansMono" font-size="10.00">attribute_del</text>
</a>
</g>
<!-- Node7&#45;&gt;Node8 -->
<g id="edge14" class="edge"><title>Node7&#45;&gt;Node8</title>
<path fill="none" stroke="midnightblue" d="M263.65,-352C287.894,-352 314.957,-352 338.189,-352"/>
<polygon fill="midnightblue" stroke="midnightblue" points="338.23,-355.5 348.23,-352 338.23,-348.5 338.23,-355.5"/>
</g>
<!-- Node10&#45;&gt;Node11 -->
<g id="edge20" class="edge"><title>Node10&#45;&gt;Node11</title>
<path fill="none" stroke="midnightblue" d="M275.508,-10C285.23,-10 295.218,-10 305.079,-10"/>
<polygon fill="midnightblue" stroke="midnightblue" points="305.294,-13.5001 315.294,-10 305.293,-6.5001 305.294,-13.5001"/>
</g>
<!-- Node12&#45;&gt;Node9 -->
<g id="edge32" class="edge"><title>Node12&#45;&gt;Node9</title>
<path fill="none" stroke="midnightblue" d="M227.433,-214.603C242.455,-219.641 260.498,-226.355 276,-234 293.029,-242.398 294.488,-249.663 312,-257 323.184,-261.686 335.723,-265.32 347.6,-268.095"/>
<polygon fill="midnightblue" stroke="midnightblue" points="346.861,-271.516 357.377,-270.228 348.353,-264.677 346.861,-271.516"/>
</g>
<!-- Node13 -->
<g id="node25" class="node"><title>Node13</title>
<a xlink:href="../../d3/d5a/jid_8c.html#a0151ea37a9f52813a8d48d2b7eec2044" target="_top" xlink:title="Allocate and initialize a new JID from an existing JID string.">
<polygon fill="none" stroke="black" points="339.5,-228.5 339.5,-247.5 452.5,-247.5 452.5,-228.5 339.5,-228.5"/>
<text text-anchor="middle" x="396" y="-235.5" font-family="DejaVuSansMono" font-size="10.00">jid_new_from_str</text>
</a>
</g>
<!-- Node12&#45;&gt;Node13 -->
<g id="edge24" class="edge"><title>Node12&#45;&gt;Node13</title>
<path fill="none" stroke="midnightblue" d="M253.292,-214.501C277.109,-218.45 304.885,-223.056 329.505,-227.139"/>
<polygon fill="midnightblue" stroke="midnightblue" points="329.045,-230.61 339.483,-228.794 330.19,-223.705 329.045,-230.61"/>
</g>
<!-- Node15 -->
<g id="node29" class="node"><title>Node15</title>
<a xlink:href="../../d3/d5a/jid_8c.html#ab83fd5aae95de2c9d38fb9d9cd161580" target="_top" xlink:title="Cleans up and frees an existing JID.">
<polygon fill="none" stroke="black" points="516.5,-133.5 516.5,-152.5 575.5,-152.5 575.5,-133.5 516.5,-133.5"/>
<text text-anchor="middle" x="546" y="-140.5" font-family="DejaVuSansMono" font-size="10.00">jid_del</text>
</a>
</g>
<!-- Node12&#45;&gt;Node15 -->
<g id="edge36" class="edge"><title>Node12&#45;&gt;Node15</title>
<path fill="none" stroke="midnightblue" d="M275.559,-207.576C333.524,-207.24 413.251,-202.137 480,-181 495.69,-176.032 511.67,-166.759 523.858,-158.617"/>
<polygon fill="midnightblue" stroke="midnightblue" points="526.157,-161.282 532.373,-152.702 522.163,-155.533 526.157,-161.282"/>
</g>
<!-- Node16 -->
<g id="node31" class="node"><title>Node16</title>
<a xlink:href="../../d1/d59/xmpp__stanza_8c.html#a20c90c791fa856784f2d43c9f44f1d3c" target="_top" xlink:title="Returns the value of an attribute of this stanza.">
<polygon fill="none" stroke="black" points="339.5,-152.5 339.5,-171.5 452.5,-171.5 452.5,-152.5 339.5,-152.5"/>
<text text-anchor="middle" x="396" y="-159.5" font-family="DejaVuSansMono" font-size="10.00">xmpp_stanza_attr</text>
</a>
</g>
<!-- Node12&#45;&gt;Node16 -->
<g id="edge30" class="edge"><title>Node12&#45;&gt;Node16</title>
<path fill="none" stroke="midnightblue" d="M240.165,-195.457C269.922,-189.027 309.361,-180.505 340.987,-173.671"/>
<polygon fill="midnightblue" stroke="midnightblue" points="341.924,-177.05 350.959,-171.516 340.445,-170.208 341.924,-177.05"/>
</g>
<!-- Node17 -->
<g id="node34" class="node"><title>Node17</title>
<a xlink:href="../../d3/d5a/jid_8c.html#a5b2f969326a86fa7e585f633d7b0f565" target="_top" xlink:title="Compare two JIDs with wildcard matches.">
<polygon fill="none" stroke="black" points="336.5,-114.5 336.5,-133.5 455.5,-133.5 455.5,-114.5 336.5,-114.5"/>
<text text-anchor="middle" x="396" y="-121.5" font-family="DejaVuSansMono" font-size="10.00">jid_cmp_wildcards</text>
</a>
</g>
<!-- Node12&#45;&gt;Node17 -->
<g id="edge34" class="edge"><title>Node12&#45;&gt;Node17</title>
<path fill="none" stroke="midnightblue" d="M213.644,-195.493C245.467,-178.355 309.433,-143.96 312,-143 318.854,-140.436 326.16,-138.154 333.488,-136.139"/>
<polygon fill="midnightblue" stroke="midnightblue" points="334.65,-139.454 343.453,-133.558 332.895,-132.678 334.65,-139.454"/>
</g>
<!-- Node14 -->
<g id="node27" class="node"><title>Node14</title>
<a xlink:href="../../d3/d5a/jid_8c.html#abd2028a1e581e6374acaa6beaf6e5413" target="_top" xlink:title="Allocate and initialize a new blank JID.">
<polygon fill="none" stroke="black" points="516.5,-228.5 516.5,-247.5 575.5,-247.5 575.5,-228.5 516.5,-228.5"/>
<text text-anchor="middle" x="546" y="-235.5" font-family="DejaVuSansMono" font-size="10.00">jid_new</text>
</a>
</g>
<!-- Node13&#45;&gt;Node14 -->
<g id="edge26" class="edge"><title>Node13&#45;&gt;Node14</title>
<path fill="none" stroke="midnightblue" d="M452.531,-238C470.294,-238 489.574,-238 505.909,-238"/>
<polygon fill="midnightblue" stroke="midnightblue" points="506.173,-241.5 516.173,-238 506.173,-234.5 506.173,-241.5"/>
</g>
<!-- Node13&#45;&gt;Node15 -->
<g id="edge28" class="edge"><title>Node13&#45;&gt;Node15</title>
<path fill="none" stroke="midnightblue" d="M446.727,-228.408C458.173,-224.927 469.932,-220.249 480,-214 501.84,-200.444 520.901,-177.547 532.637,-161.427"/>
<polygon fill="midnightblue" stroke="midnightblue" points="535.784,-163.036 538.667,-152.841 530.056,-159.013 535.784,-163.036"/>
</g>
<!-- Node18&#45;&gt;Node15 -->
<g id="edge40" class="edge"><title>Node18&#45;&gt;Node15</title>
<path fill="none" stroke="midnightblue" d="M449.54,-95.4818C459.814,-98.0435 470.379,-101.19 480,-105 494.915,-110.906 510.467,-119.882 522.618,-127.627"/>
<polygon fill="midnightblue" stroke="midnightblue" points="520.898,-130.685 531.18,-133.239 524.735,-124.83 520.898,-130.685"/>
</g>
<!-- Node19&#45;&gt;Node8 -->
<g id="edge46" class="edge"><title>Node19&#45;&gt;Node8</title>
<path fill="none" stroke="midnightblue" d="M223.932,-305.634C247.307,-313.522 281.619,-324.693 312,-333 321.005,-335.462 330.619,-337.866 339.993,-340.09"/>
<polygon fill="midnightblue" stroke="midnightblue" points="339.497,-343.568 350.03,-342.428 341.085,-336.751 339.497,-343.568"/>
</g>
<!-- Node19&#45;&gt;Node19 -->
<g id="edge50" class="edge"><title>Node19&#45;&gt;Node19</title>
<path fill="none" stroke="midnightblue" d="M170.956,-305.757C159.259,-314.565 167.273,-324 195,-324 213.196,-324 222.902,-319.937 224.119,-314.654"/>
<polygon fill="midnightblue" stroke="midnightblue" points="227.039,-312.709 219.044,-305.757 220.959,-316.177 227.039,-312.709"/>
</g>
<!-- Node20 -->
<g id="node44" class="node"><title>Node20</title>
<a xlink:href="../../d1/dc2/xmpp__parser_8c.html#a87065f39f10a449e7af17fa45ca475f2" target="_top" xlink:title="xmpp_parser_namespace_del">
<polygon fill="none" stroke="black" points="312.5,-304.5 312.5,-323.5 479.5,-323.5 479.5,-304.5 312.5,-304.5"/>
<text text-anchor="middle" x="396" y="-311.5" font-family="DejaVuSansMono" font-size="10.00">xmpp_parser_namespace_del</text>
</a>
</g>
<!-- Node19&#45;&gt;Node20 -->
<g id="edge48" class="edge"><title>Node19&#45;&gt;Node20</title>
<path fill="none" stroke="midnightblue" d="M248.545,-300.753C265.062,-302.247 283.819,-303.943 302.265,-305.612"/>
<polygon fill="midnightblue" stroke="midnightblue" points="302.189,-309.119 312.464,-306.534 302.82,-302.148 302.189,-309.119"/>
</g>
<!-- Node21&#45;&gt;Node15 -->
<g id="edge54" class="edge"><title>Node21&#45;&gt;Node15</title>
<path fill="none" stroke="midnightblue" d="M227.832,-79.3548C251.044,-74.8601 283.321,-69.3332 312,-67 386.421,-60.9455 412.181,-35.7632 480,-67 505.531,-78.7596 524.767,-106.043 535.459,-124.511"/>
<polygon fill="midnightblue" stroke="midnightblue" points="532.499,-126.393 540.382,-133.472 538.634,-123.023 532.499,-126.393"/>
</g>
<!-- Node21&#45;&gt;Node18 -->
<g id="edge56" class="edge"><title>Node21&#45;&gt;Node18</title>
<path fill="none" stroke="midnightblue" d="M227.532,-86C255.561,-86 297.375,-86 332.208,-86"/>
<polygon fill="midnightblue" stroke="midnightblue" points="332.299,-89.5001 342.299,-86 332.299,-82.5001 332.299,-89.5001"/>
</g>
</g>
</svg>
        <g id="navigator" transform="translate(0 0)" fill="#404254">
                <rect fill="#f2f5e9" fill-opacity="0.5" stroke="#606060" stroke-width=".5" x="0" y="0" width="60" height="60"/>
                <use id="zoomplus" xlink:href="#zoomPlus" x="17" y="9" onmousedown="handleZoom(evt,'in')"/>
                <use id="zoomminus" xlink:href="#zoomMin" x="42" y="9" onmousedown="handleZoom(evt,'out')"/>
                <use id="reset" xlink:href="#resetDef" x="30" y="36" onmousedown="handleReset()"/>
                <g id="arrowUp" xlink:href="#dirArrow" transform="translate(30 24)" onmousedown="handlePan(0,-1)">
                  <use xlink:href="#rim" fill="#404040">
                        <set attributeName="fill" to="#808080" begin="arrowUp.mouseover" end="arrowUp.mouseout"/>
                  </use>
                  <path fill="none" stroke="white" stroke-width="1.5" d="M0,-3.0v7 M-2.5,-0.5L0,-3.0L2.5,-0.5"/>
                </g>
                <g id="arrowRight" xlink:href="#dirArrow" transform="rotate(90) translate(36 -43)" onmousedown="handlePan(1,0)">
                  <use xlink:href="#rim" fill="#404040">
                        <set attributeName="fill" to="#808080" begin="arrowRight.mouseover" end="arrowRight.mouseout"/>
                  </use>
                  <path fill="none" stroke="white" stroke-width="1.5" d="M0,-3.0v7 M-2.5,-0.5L0,-3.0L2.5,-0.5"/>
                </g>
                <g id="arrowDown" xlink:href="#dirArrow" transform="rotate(180) translate(-30 -48)" onmousedown="handlePan(0,1)">
                  <use xlink:href="#rim" fill="#404040">
                        <set attributeName="fill" to="#808080" begin="arrowDown.mouseover" end="arrowDown.mouseout"/>
                  </use>
                  <path fill="none" stroke="white" stroke-width="1.5" d="M0,-3.0v7 M-2.5,-0.5L0,-3.0L2.5,-0.5"/>
                </g>
                <g id="arrowLeft" xlink:href="#dirArrow" transform="rotate(270) translate(-36 17)" onmousedown="handlePan(-1,0)">
                  <use xlink:href="#rim" fill="#404040">
                        <set attributeName="fill" to="#808080" begin="arrowLeft.mouseover" end="arrowLeft.mouseout"/>
                  </use>
                  <path fill="none" stroke="white" stroke-width="1.5" d="M0,-3.0v7 M-2.5,-0.5L0,-3.0L2.5,-0.5"/>
                </g>
        </g>
        <svg viewBox="0 0 25 25" width="100%" height="30px" preserveAspectRatio="xMaxYMin meet"> 
          <g id="printButton" transform="scale(0.4 0.4)" onmousedown="handlePrint(evt)">
            <rect height="23.33753581" id="paper" rx="2" style="fill:#f2f5e9;fill-rule:evenodd;stroke:#111111;stroke-width:3.224;stroke-linejoin:round;" transform="matrix(1.000000,0.000000,-0.339266,0.940691,0.000000,0.000000)" width="25.55231285" x="26.69387353" y="7.36162977"/>
            <rect height="26.272097" id="body" rx="2" style="fill:#404040;fill-rule:evenodd;stroke:#111111;stroke-width:3.125;stroke-linejoin:round;" width="50" x="4.5295201" y="27.078951"/>
            <rect height="8.27750969" id="tray" style="fill:#d2d5c9;fill-rule:evenodd;stroke:#111111;stroke-width:3.125;stroke-linecap:round;stroke-linejoin:round;" width="40" x="10.28778839" y="44.96812282"/>
          </g>
        </svg>
</svg>
