<?xml version="1.0" encoding="UTF-8" standalone="no"?>
<!DOCTYPE svg PUBLIC "-//W3C//DTD SVG 1.1//EN"
 "http://www.w3.org/Graphics/SVG/1.1/DTD/svg11.dtd">
<!-- Generated by graphviz version 2.28.0 (20120217.0315)
 -->
<!-- Title: G Pages: 1 -->
<svg width="494pt" height="256pt"
 viewBox="0.00 0.00 494.00 256.00" xmlns="http://www.w3.org/2000/svg" xmlns:xlink="http://www.w3.org/1999/xlink">
<g id="graph1" class="graph" transform="scale(1 1) rotate(0) translate(4 252)">
<title>G</title>
<!-- Node1 -->
<g id="node1" class="node"><title>Node1</title>
<polygon fill="#bfbfbf" stroke="black" points="0.5,-171.5 0.5,-190.5 65.5,-190.5 65.5,-171.5 0.5,-171.5"/>
<text text-anchor="middle" x="33" y="-178.5" font-family="DejaVuSansMono" font-size="10.00">room_new</text>
</g>
<!-- Node2 -->
<g id="node3" class="node"><title>Node2</title>
<a xlink:href="../../d3/d5a/jid_8c.html#a6da80c5b44d3c4ef896850a5d1d790b0" target="_top" xlink:title="Allocate and initialize a new JID from an existing JID structure.">
<polygon fill="none" stroke="black" points="102.5,-133.5 102.5,-152.5 215.5,-152.5 215.5,-133.5 102.5,-133.5"/>
<text text-anchor="middle" x="159" y="-140.5" font-family="DejaVuSansMono" font-size="10.00">jid_new_from_jid</text>
</a>
</g>
<!-- Node1&#45;&gt;Node2 -->
<g id="edge2" class="edge"><title>Node1&#45;&gt;Node2</title>
<path fill="none" stroke="midnightblue" d="M65.2904,-171.411C81.0039,-166.596 100.238,-160.701 117.106,-155.532"/>
<polygon fill="midnightblue" stroke="midnightblue" points="118.184,-158.862 126.72,-152.586 116.133,-152.17 118.184,-158.862"/>
</g>
<!-- Node4 -->
<g id="node7" class="node"><title>Node4</title>
<a xlink:href="../../d3/d5a/jid_8c.html#a1a93fd4eaa48c375952cb6f9c9127907" target="_top" xlink:title="Sets the localpart of a JID.">
<polygon fill="none" stroke="black" points="261.5,-228.5 261.5,-247.5 356.5,-247.5 356.5,-228.5 261.5,-228.5"/>
<text text-anchor="middle" x="309" y="-235.5" font-family="DejaVuSansMono" font-size="10.00">jid_set_local</text>
</a>
</g>
<!-- Node1&#45;&gt;Node4 -->
<g id="edge24" class="edge"><title>Node1&#45;&gt;Node4</title>
<path fill="none" stroke="midnightblue" d="M65.699,-187.594C111.28,-197.077 196.023,-214.705 252.224,-226.397"/>
<polygon fill="midnightblue" stroke="midnightblue" points="251.52,-229.825 262.023,-228.436 252.946,-222.972 251.52,-229.825"/>
</g>
<!-- Node3 -->
<g id="node5" class="node"><title>Node3</title>
<a xlink:href="../../d3/d5a/jid_8c.html#abd2028a1e581e6374acaa6beaf6e5413" target="_top" xlink:title="Allocate and initialize a new blank JID.">
<polygon fill="none" stroke="black" points="279.5,-190.5 279.5,-209.5 338.5,-209.5 338.5,-190.5 279.5,-190.5"/>
<text text-anchor="middle" x="309" y="-197.5" font-family="DejaVuSansMono" font-size="10.00">jid_new</text>
</a>
</g>
<!-- Node2&#45;&gt;Node3 -->
<g id="edge4" class="edge"><title>Node2&#45;&gt;Node3</title>
<path fill="none" stroke="midnightblue" d="M182.149,-152.62C200.685,-160.557 227.896,-171.944 252,-181 257.664,-183.128 263.689,-185.283 269.607,-187.341"/>
<polygon fill="midnightblue" stroke="midnightblue" points="268.79,-190.76 279.385,-190.688 271.058,-184.138 268.79,-190.76"/>
</g>
<!-- Node2&#45;&gt;Node4 -->
<g id="edge6" class="edge"><title>Node2&#45;&gt;Node4</title>
<path fill="none" stroke="midnightblue" d="M169.326,-152.729C185.03,-168.615 218.346,-200.23 252,-219 255.732,-221.082 259.731,-222.989 263.812,-224.723"/>
<polygon fill="midnightblue" stroke="midnightblue" points="262.805,-228.087 273.393,-228.456 265.346,-221.564 262.805,-228.087"/>
</g>
<!-- Node6 -->
<g id="node11" class="node"><title>Node6</title>
<a xlink:href="../../d3/d5a/jid_8c.html#ac1dcf40e9090a5a9717b685b6b055feb" target="_top" xlink:title="Returns the localpart of a JID.">
<polygon fill="none" stroke="black" points="273.5,-152.5 273.5,-171.5 344.5,-171.5 344.5,-152.5 273.5,-152.5"/>
<text text-anchor="middle" x="309" y="-159.5" font-family="DejaVuSansMono" font-size="10.00">jid_local</text>
</a>
</g>
<!-- Node2&#45;&gt;Node6 -->
<g id="edge10" class="edge"><title>Node2&#45;&gt;Node6</title>
<path fill="none" stroke="midnightblue" d="M215.531,-150.129C231.259,-152.148 248.176,-154.32 263.185,-156.247"/>
<polygon fill="midnightblue" stroke="midnightblue" points="262.869,-159.735 273.233,-157.537 263.76,-152.792 262.869,-159.735"/>
</g>
<!-- Node7 -->
<g id="node13" class="node"><title>Node7</title>
<a xlink:href="../../d3/d5a/jid_8c.html#aeefeabfe802b3db2ce1b8894ae6a0d05" target="_top" xlink:title="Sets the domainpart of a JID.">
<polygon fill="none" stroke="black" points="258.5,-114.5 258.5,-133.5 359.5,-133.5 359.5,-114.5 258.5,-114.5"/>
<text text-anchor="middle" x="309" y="-121.5" font-family="DejaVuSansMono" font-size="10.00">jid_set_domain</text>
</a>
</g>
<!-- Node2&#45;&gt;Node7 -->
<g id="edge12" class="edge"><title>Node2&#45;&gt;Node7</title>
<path fill="none" stroke="midnightblue" d="M215.531,-135.871C226.222,-134.499 237.463,-133.055 248.28,-131.667"/>
<polygon fill="midnightblue" stroke="midnightblue" points="249.017,-135.101 258.49,-130.356 248.126,-128.158 249.017,-135.101"/>
</g>
<!-- Node8 -->
<g id="node16" class="node"><title>Node8</title>
<a xlink:href="../../d3/d5a/jid_8c.html#a32b3d0744d90d33622986e4989042ee6" target="_top" xlink:title="Returns the domainpart of a JID.">
<polygon fill="none" stroke="black" points="270.5,-76.5 270.5,-95.5 347.5,-95.5 347.5,-76.5 270.5,-76.5"/>
<text text-anchor="middle" x="309" y="-83.5" font-family="DejaVuSansMono" font-size="10.00">jid_domain</text>
</a>
</g>
<!-- Node2&#45;&gt;Node8 -->
<g id="edge16" class="edge"><title>Node2&#45;&gt;Node8</title>
<path fill="none" stroke="midnightblue" d="M182.149,-133.38C200.685,-125.443 227.896,-114.056 252,-105 257.541,-102.918 263.427,-100.81 269.221,-98.7937"/>
<polygon fill="midnightblue" stroke="midnightblue" points="270.484,-102.061 278.808,-95.5069 268.214,-95.4391 270.484,-102.061"/>
</g>
<!-- Node9 -->
<g id="node18" class="node"><title>Node9</title>
<a xlink:href="../../d3/d5a/jid_8c.html#ad4e057d210bd0776fcb89289e5d59f81" target="_top" xlink:title="Sets the resourcepart of a JID.">
<polygon fill="none" stroke="black" points="252.5,-38.5 252.5,-57.5 365.5,-57.5 365.5,-38.5 252.5,-38.5"/>
<text text-anchor="middle" x="309" y="-45.5" font-family="DejaVuSansMono" font-size="10.00">jid_set_resource</text>
</a>
</g>
<!-- Node2&#45;&gt;Node9 -->
<g id="edge18" class="edge"><title>Node2&#45;&gt;Node9</title>
<path fill="none" stroke="midnightblue" d="M169.326,-133.271C185.03,-117.385 218.346,-85.7702 252,-67 255.732,-64.9184 259.731,-63.0114 263.812,-61.2772"/>
<polygon fill="midnightblue" stroke="midnightblue" points="265.346,-64.4357 273.393,-57.5438 262.805,-57.9133 265.346,-64.4357"/>
</g>
<!-- Node10 -->
<g id="node21" class="node"><title>Node10</title>
<a xlink:href="../../d3/d5a/jid_8c.html#a54f945004eef842630b39c94a3689e28" target="_top" xlink:title="Returns the resourcepart of a JID.">
<polygon fill="none" stroke="black" points="264.5,-0.5 264.5,-19.5 353.5,-19.5 353.5,-0.5 264.5,-0.5"/>
<text text-anchor="middle" x="309" y="-7.5" font-family="DejaVuSansMono" font-size="10.00">jid_resource</text>
</a>
</g>
<!-- Node2&#45;&gt;Node10 -->
<g id="edge22" class="edge"><title>Node2&#45;&gt;Node10</title>
<path fill="none" stroke="midnightblue" d="M165.294,-133.201C177.6,-111.318 210.292,-58.116 252,-29 254.736,-27.0901 257.68,-25.3589 260.735,-23.7918"/>
<polygon fill="midnightblue" stroke="midnightblue" points="262.448,-26.8591 270.135,-19.5683 259.579,-20.4739 262.448,-26.8591"/>
</g>
<!-- Node5 -->
<g id="node9" class="node"><title>Node5</title>
<a xlink:href="../../d3/d91/utils_8c.html#a07891e77aee8f9b825d52bd33e474f30" target="_top" xlink:title="Simple string copy, freeing original if neccessary.">
<polygon fill="none" stroke="black" points="402.5,-114.5 402.5,-133.5 485.5,-133.5 485.5,-114.5 402.5,-114.5"/>
<text text-anchor="middle" x="444" y="-121.5" font-family="DejaVuSansMono" font-size="10.00">copy_string</text>
</a>
</g>
<!-- Node4&#45;&gt;Node5 -->
<g id="edge8" class="edge"><title>Node4&#45;&gt;Node5</title>
<path fill="none" stroke="midnightblue" d="M347.858,-228.422C354.219,-225.916 360.524,-222.814 366,-219 395.459,-198.481 419.597,-163.619 432.59,-142.315"/>
<polygon fill="midnightblue" stroke="midnightblue" points="435.677,-143.97 437.754,-133.581 429.652,-140.407 435.677,-143.97"/>
</g>
<!-- Node7&#45;&gt;Node5 -->
<g id="edge14" class="edge"><title>Node7&#45;&gt;Node5</title>
<path fill="none" stroke="midnightblue" d="M359.524,-124C370.158,-124 381.413,-124 392.098,-124"/>
<polygon fill="midnightblue" stroke="midnightblue" points="392.129,-127.5 402.129,-124 392.129,-120.5 392.129,-127.5"/>
</g>
<!-- Node9&#45;&gt;Node5 -->
<g id="edge20" class="edge"><title>Node9&#45;&gt;Node5</title>
<path fill="none" stroke="midnightblue" d="M343.576,-57.5008C351.139,-60.1549 358.996,-63.3343 366,-67 387.434,-78.2179 409.369,-95.0893 424.316,-107.568"/>
<polygon fill="midnightblue" stroke="midnightblue" points="422.371,-110.51 432.253,-114.332 426.912,-105.182 422.371,-110.51"/>
</g>
</g>
</svg>
