<?xml version="1.0" encoding="UTF-8" standalone="no"?>
<!DOCTYPE svg PUBLIC "-//W3C//DTD SVG 1.1//EN"
 "http://www.w3.org/Graphics/SVG/1.1/DTD/svg11.dtd">
<!-- Generated by graphviz version 2.28.0 (20120217.0315)
 -->
<!-- Title: G Pages: 1 -->
<!--zoomable 484 -->
<svg id="main" version="1.1" xmlns="http://www.w3.org/2000/svg" xmlns:xlink="http://www.w3.org/1999/xlink" xml:space="preserve" onload="init(evt)">
        <defs>
                <circle id="rim" cx="0" cy="0" r="7"/>
                <circle id="rim2" cx="0" cy="0" r="3.5"/>
                <g id="zoomPlus">
                        <use xlink:href="#rim" fill="#404040">
                                <set attributeName="fill" to="#808080" begin="zoomplus.mouseover" end="zoomplus.mouseout"/>
                        </use>
                        <path d="M-4,0h8M0,-4v8" fill="none" stroke="white" stroke-width="1.5" pointer-events="none"/>
                </g>
                <g id="zoomMin">
                        <use xlink:href="#rim" fill="#404040">
                                <set attributeName="fill" to="#808080" begin="zoomminus.mouseover" end="zoomminus.mouseout"/>
                        </use>
                        <path d="M-4,0h8" fill="none" stroke="white" stroke-width="1.5" pointer-events="none"/>
                </g>
                <g id="dirArrow">
                        <path fill="none" stroke="white" stroke-width="1.5" d="M0,-3.0v7 M-2.5,-0.5L0,-3.0L2.5,-0.5"/>
                </g>
               <g id="resetDef">
                       <use xlink:href="#rim2" fill="#404040">
                               <set attributeName="fill" to="#808080" begin="reset.mouseover" end="reset.mouseout"/>
                       </use>
               </g>
        </defs>

<script type="text/javascript">
var viewWidth = 770;
var viewHeight = 484;
var sectionId = 'dynsection-4';
</script>
<script xlink:href="../../svgpan.js"/>
<svg id="graph" class="graph">
<g id="viewport">
<title>G</title>
<!-- Node1 -->
<g id="node1" class="node"><title>Node1</title>
<polygon fill="#bfbfbf" stroke="black" points="0.5,-257.5 0.5,-276.5 119.5,-276.5 119.5,-257.5 0.5,-257.5"/>
<text text-anchor="middle" x="60" y="-264.5" font-family="DejaVuSansMono" font-size="10.00">client_disconnect</text>
</g>
<!-- Node2 -->
<g id="node3" class="node"><title>Node2</title>
<a xlink:href="../../d3/d5a/jid_8c.html#a03139cec95c699c543f239f338c0c568" target="_top" xlink:title="Compare two JIDs exactly.">
<polygon fill="none" stroke="black" points="180.5,-295.5 180.5,-314.5 239.5,-314.5 239.5,-295.5 180.5,-295.5"/>
<text text-anchor="middle" x="210" y="-302.5" font-family="DejaVuSansMono" font-size="10.00">jid_cmp</text>
</a>
</g>
<!-- Node1&#45;&gt;Node2 -->
<g id="edge2" class="edge"><title>Node1&#45;&gt;Node2</title>
<path fill="none" stroke="midnightblue" d="M98.3466,-276.589C120.327,-282.233 148.081,-289.359 170.293,-295.062"/>
<polygon fill="midnightblue" stroke="midnightblue" points="169.512,-298.475 180.069,-297.572 171.253,-291.695 169.512,-298.475"/>
</g>
<!-- Node3 -->
<g id="node5" class="node"><title>Node3</title>
<a xlink:href="../../dd/d4d/xmpp__client_8c.html#af963b026952bdbc45a4df0fa3d69b641" target="_top" xlink:title="Return the JID for this client.">
<polygon fill="none" stroke="black" points="156.5,-257.5 156.5,-276.5 263.5,-276.5 263.5,-257.5 156.5,-257.5"/>
<text text-anchor="middle" x="210" y="-264.5" font-family="DejaVuSansMono" font-size="10.00">xmpp_client_jid</text>
</a>
</g>
<!-- Node1&#45;&gt;Node3 -->
<g id="edge4" class="edge"><title>Node1&#45;&gt;Node3</title>
<path fill="none" stroke="midnightblue" d="M119.919,-267C128.494,-267 137.351,-267 146.003,-267"/>
<polygon fill="midnightblue" stroke="midnightblue" points="146.036,-270.5 156.036,-267 146.036,-263.5 146.036,-270.5"/>
</g>
<!-- Node4 -->
<g id="node7" class="node"><title>Node4</title>
<a xlink:href="../../d7/d71/xep__muc_8c.html#af88baacca4f1cccf8ec2bc295db0e063" target="_top" xlink:title="leave_room">
<polygon fill="none" stroke="black" points="171.5,-219.5 171.5,-238.5 248.5,-238.5 248.5,-219.5 171.5,-219.5"/>
<text text-anchor="middle" x="210" y="-226.5" font-family="DejaVuSansMono" font-size="10.00">leave_room</text>
</a>
</g>
<!-- Node1&#45;&gt;Node4 -->
<g id="edge6" class="edge"><title>Node1&#45;&gt;Node4</title>
<path fill="none" stroke="midnightblue" d="M98.3466,-257.411C117.701,-252.442 141.53,-246.323 162.113,-241.039"/>
<polygon fill="midnightblue" stroke="midnightblue" points="163.107,-244.397 171.922,-238.52 161.366,-237.617 163.107,-244.397"/>
</g>
<!-- Node5 -->
<g id="node9" class="node"><title>Node5</title>
<a xlink:href="../../d3/d5a/jid_8c.html#ad4e057d210bd0776fcb89289e5d59f81" target="_top" xlink:title="Sets the resourcepart of a JID.">
<polygon fill="none" stroke="black" points="324.5,-437.5 324.5,-456.5 437.5,-456.5 437.5,-437.5 324.5,-437.5"/>
<text text-anchor="middle" x="381" y="-444.5" font-family="DejaVuSansMono" font-size="10.00">jid_set_resource</text>
</a>
</g>
<!-- Node4&#45;&gt;Node5 -->
<g id="edge8" class="edge"><title>Node4&#45;&gt;Node5</title>
<path fill="none" stroke="midnightblue" d="M248.732,-237.117C254.477,-239.778 259.86,-243.31 264,-248 312.528,-302.965 254.257,-351.695 300,-409 308.638,-419.821 321.097,-427.731 333.62,-433.439"/>
<polygon fill="midnightblue" stroke="midnightblue" points="332.569,-436.792 343.148,-437.387 335.249,-430.325 332.569,-436.792"/>
</g>
<!-- Node7 -->
<g id="node13" class="node"><title>Node7</title>
<a xlink:href="../../d1/d59/xmpp__stanza_8c.html#aa80dd21d794b5c63fcb13c49745cc373" target="_top" xlink:title="Allocate and initialize a new XMPP stanza structure.">
<polygon fill="none" stroke="black" points="327.5,-380.5 327.5,-399.5 434.5,-399.5 434.5,-380.5 327.5,-380.5"/>
<text text-anchor="middle" x="381" y="-387.5" font-family="DejaVuSansMono" font-size="10.00">xmpp_stanza_new</text>
</a>
</g>
<!-- Node4&#45;&gt;Node7 -->
<g id="edge12" class="edge"><title>Node4&#45;&gt;Node7</title>
<path fill="none" stroke="midnightblue" d="M248.75,-237.472C254.423,-240.091 259.777,-243.518 264,-248 303.061,-289.457 258.699,-331.775 300,-371 305.077,-375.822 311.145,-379.493 317.638,-382.278"/>
<polygon fill="midnightblue" stroke="midnightblue" points="316.794,-385.693 327.389,-385.755 319.145,-379.1 316.794,-385.693"/>
</g>
<!-- Node10 -->
<g id="node19" class="node"><title>Node10</title>
<a xlink:href="../../d1/d59/xmpp__stanza_8c.html#a7ca8bf259143d7ff53b24de8b666026d" target="_top" xlink:title="Sets the value of an attribute in a stanza.">
<polygon fill="none" stroke="black" points="312.5,-342.5 312.5,-361.5 449.5,-361.5 449.5,-342.5 312.5,-342.5"/>
<text text-anchor="middle" x="381" y="-349.5" font-family="DejaVuSansMono" font-size="10.00">xmpp_stanza_set_attr</text>
</a>
</g>
<!-- Node4&#45;&gt;Node10 -->
<g id="edge18" class="edge"><title>Node4&#45;&gt;Node10</title>
<path fill="none" stroke="midnightblue" d="M248.591,-238.025C254.216,-240.576 259.596,-243.837 264,-248 293.817,-276.18 268.666,-306.518 300,-333 302.003,-334.693 304.131,-336.241 306.356,-337.656"/>
<polygon fill="midnightblue" stroke="midnightblue" points="304.886,-340.839 315.353,-342.48 308.193,-334.67 304.886,-340.839"/>
</g>
<!-- Node12 -->
<g id="node23" class="node"><title>Node12</title>
<a xlink:href="../../d3/d5a/jid_8c.html#a3d51f2b27d20189e523b0d0b2a77e4a9" target="_top" xlink:title="Converts a JID to a newly allocated string.">
<polygon fill="none" stroke="black" points="543.5,-266.5 543.5,-285.5 620.5,-285.5 620.5,-266.5 543.5,-266.5"/>
<text text-anchor="middle" x="582" y="-273.5" font-family="DejaVuSansMono" font-size="10.00">jid_to_str</text>
</a>
</g>
<!-- Node4&#45;&gt;Node12 -->
<g id="edge22" class="edge"><title>Node4&#45;&gt;Node12</title>
<path fill="none" stroke="midnightblue" d="M248.514,-233.765C316.244,-242.369 458.817,-260.479 533.338,-269.946"/>
<polygon fill="midnightblue" stroke="midnightblue" points="533.026,-273.434 543.387,-271.222 533.908,-266.49 533.026,-273.434"/>
</g>
<!-- Node13 -->
<g id="node25" class="node"><title>Node13</title>
<a xlink:href="../../d1/d59/xmpp__stanza_8c.html#ac13c8bb45e2ca03b99836e8d52b265b4" target="_top" xlink:title="Appends a child stanza.">
<polygon fill="none" stroke="black" points="300.5,-0.5 300.5,-19.5 461.5,-19.5 461.5,-0.5 300.5,-0.5"/>
<text text-anchor="middle" x="381" y="-7.5" font-family="DejaVuSansMono" font-size="10.00">xmpp_stanza_append_child</text>
</a>
</g>
<!-- Node4&#45;&gt;Node13 -->
<g id="edge24" class="edge"><title>Node4&#45;&gt;Node13</title>
<path fill="none" stroke="midnightblue" d="M212.554,-219.202C218.111,-187.436 239.973,-86.334 300,-34 304.734,-29.8727 310.156,-26.455 315.898,-23.625"/>
<polygon fill="midnightblue" stroke="midnightblue" points="317.334,-26.8173 325.131,-19.6439 314.563,-20.3893 317.334,-26.8173"/>
</g>
<!-- Node14 -->
<g id="node27" class="node"><title>Node14</title>
<a xlink:href="../../d1/d59/xmpp__stanza_8c.html#afc77f00b7f38c79566a7b16876230e30" target="_top" xlink:title="Removes a child stanza.">
<polygon fill="none" stroke="black" points="501.5,-0.5 501.5,-19.5 662.5,-19.5 662.5,-0.5 501.5,-0.5"/>
<text text-anchor="middle" x="582" y="-7.5" font-family="DejaVuSansMono" font-size="10.00">xmpp_stanza_remove_child</text>
</a>
</g>
<!-- Node4&#45;&gt;Node14 -->
<g id="edge48" class="edge"><title>Node4&#45;&gt;Node14</title>
<path fill="none" stroke="midnightblue" d="M213.228,-219.462C220.365,-191.159 245.46,-107.125 300,-67 316.836,-54.6137 432.538,-33.9446 510.128,-21.1929"/>
<polygon fill="midnightblue" stroke="midnightblue" points="511.032,-24.5918 520.337,-19.5247 509.903,-17.6834 511.032,-24.5918"/>
</g>
<!-- Node15 -->
<g id="node29" class="node"><title>Node15</title>
<a xlink:href="../../d0/df0/xmpp__server_8c.html#a6d3f7e5e289f785b1c8c52f95068c627" target="_top" xlink:title="Deliver a stanza to a registered callback function.">
<polygon fill="none" stroke="black" points="300.5,-195.5 300.5,-214.5 461.5,-214.5 461.5,-195.5 300.5,-195.5"/>
<text text-anchor="middle" x="381" y="-202.5" font-family="DejaVuSansMono" font-size="10.00">xmpp_server_route_stanza</text>
</a>
</g>
<!-- Node4&#45;&gt;Node15 -->
<g id="edge28" class="edge"><title>Node4&#45;&gt;Node15</title>
<path fill="none" stroke="midnightblue" d="M248.507,-223.674C264.58,-221.391 283.98,-218.636 302.884,-215.951"/>
<polygon fill="midnightblue" stroke="midnightblue" points="303.597,-219.385 313.006,-214.514 302.613,-212.455 303.597,-219.385"/>
</g>
<!-- Node21 -->
<g id="node43" class="node"><title>Node21</title>
<a xlink:href="../../d7/d71/xep__muc_8c.html#a160ab04be39d4fb816a725d948738248" target="_top" xlink:title="room_client_del">
<polygon fill="none" stroke="black" points="528.5,-76.5 528.5,-95.5 635.5,-95.5 635.5,-76.5 528.5,-76.5"/>
<text text-anchor="middle" x="582" y="-83.5" font-family="DejaVuSansMono" font-size="10.00">room_client_del</text>
</a>
</g>
<!-- Node4&#45;&gt;Node21 -->
<g id="edge44" class="edge"><title>Node4&#45;&gt;Node21</title>
<path fill="none" stroke="midnightblue" d="M229.635,-219.364C274.626,-196.457 393.215,-138.182 498,-105 506.103,-102.434 514.754,-100.062 523.297,-97.9266"/>
<polygon fill="midnightblue" stroke="midnightblue" points="524.335,-101.277 533.237,-95.5309 522.695,-94.4714 524.335,-101.277"/>
</g>
<!-- Node22 -->
<g id="node47" class="node"><title>Node22</title>
<a xlink:href="../../d1/d59/xmpp__stanza_8c.html#af40757ae1d137034570b1bb33303d024" target="_top" xlink:title="Cleans up and frees an XMPP stanza.">
<polygon fill="none" stroke="black" points="327.5,-286.5 327.5,-305.5 434.5,-305.5 434.5,-286.5 327.5,-286.5"/>
<text text-anchor="middle" x="381" y="-293.5" font-family="DejaVuSansMono" font-size="10.00">xmpp_stanza_del</text>
</a>
</g>
<!-- Node4&#45;&gt;Node22 -->
<g id="edge50" class="edge"><title>Node4&#45;&gt;Node22</title>
<path fill="none" stroke="midnightblue" d="M238.328,-238.513C246.606,-241.471 255.701,-244.798 264,-248 292.823,-259.122 325.292,-272.644 348.532,-282.498"/>
<polygon fill="midnightblue" stroke="midnightblue" points="347.317,-285.785 357.89,-286.479 350.058,-279.344 347.317,-285.785"/>
</g>
<!-- Node24 -->
<g id="node53" class="node"><title>Node24</title>
<a xlink:href="../../d7/d71/xep__muc_8c.html#ac6bfec1825c03d5493622565c77302f8" target="_top" xlink:title="room_del">
<polygon fill="none" stroke="black" points="348.5,-76.5 348.5,-95.5 413.5,-95.5 413.5,-76.5 348.5,-76.5"/>
<text text-anchor="middle" x="381" y="-83.5" font-family="DejaVuSansMono" font-size="10.00">room_del</text>
</a>
</g>
<!-- Node4&#45;&gt;Node24 -->
<g id="edge58" class="edge"><title>Node4&#45;&gt;Node24</title>
<path fill="none" stroke="midnightblue" d="M218.576,-219.267C233.056,-201.067 266.238,-161.258 300,-134 316.013,-121.072 335.838,-109.152 351.747,-100.425"/>
<polygon fill="midnightblue" stroke="midnightblue" points="353.447,-103.485 360.603,-95.6719 350.136,-97.3173 353.447,-103.485"/>
</g>
<!-- Node6 -->
<g id="node11" class="node"><title>Node6</title>
<a xlink:href="../../d3/d91/utils_8c.html#a07891e77aee8f9b825d52bd33e474f30" target="_top" xlink:title="Simple string copy, freeing original if neccessary.">
<polygon fill="none" stroke="black" points="540.5,-456.5 540.5,-475.5 623.5,-475.5 623.5,-456.5 540.5,-456.5"/>
<text text-anchor="middle" x="582" y="-463.5" font-family="DejaVuSansMono" font-size="10.00">copy_string</text>
</a>
</g>
<!-- Node5&#45;&gt;Node6 -->
<g id="edge10" class="edge"><title>Node5&#45;&gt;Node6</title>
<path fill="none" stroke="midnightblue" d="M437.697,-452.318C466.781,-455.095 502.102,-458.467 530.401,-461.169"/>
<polygon fill="midnightblue" stroke="midnightblue" points="530.196,-464.665 540.484,-462.132 530.862,-457.697 530.196,-464.665"/>
</g>
<!-- Node8 -->
<g id="node15" class="node"><title>Node8</title>
<a xlink:href="../../d1/d59/xmpp__stanza_8c.html#a5a80203f56df7a360fa457c0111686f6" target="_top" xlink:title="Parse the namespace triple that Expat gives us.">
<polygon fill="none" stroke="black" points="549.5,-418.5 549.5,-437.5 614.5,-437.5 614.5,-418.5 549.5,-418.5"/>
<text text-anchor="middle" x="582" y="-425.5" font-family="DejaVuSansMono" font-size="10.00">parse_ns</text>
</a>
</g>
<!-- Node7&#45;&gt;Node8 -->
<g id="edge14" class="edge"><title>Node7&#45;&gt;Node8</title>
<path fill="none" stroke="midnightblue" d="M431.959,-399.54C465.06,-405.861 507.981,-414.057 539.256,-420.029"/>
<polygon fill="midnightblue" stroke="midnightblue" points="538.906,-423.525 549.385,-421.963 540.219,-416.649 538.906,-423.525"/>
</g>
<!-- Node9 -->
<g id="node17" class="node"><title>Node9</title>
<a xlink:href="../../d1/d59/xmpp__stanza_8c.html#aff4b8f6e10ce1c351d2a5bc39f0e819f" target="_top" xlink:title="Convenience function to build a key for the attribute hash table.">
<polygon fill="none" stroke="black" points="549.5,-380.5 549.5,-399.5 614.5,-399.5 614.5,-380.5 549.5,-380.5"/>
<text text-anchor="middle" x="582" y="-387.5" font-family="DejaVuSansMono" font-size="10.00">make_key</text>
</a>
</g>
<!-- Node7&#45;&gt;Node9 -->
<g id="edge16" class="edge"><title>Node7&#45;&gt;Node9</title>
<path fill="none" stroke="midnightblue" d="M434.545,-390C467.198,-390 508.606,-390 539.054,-390"/>
<polygon fill="midnightblue" stroke="midnightblue" points="539.335,-393.5 549.335,-390 539.335,-386.5 539.335,-393.5"/>
</g>
<!-- Node11 -->
<g id="node21" class="node"><title>Node11</title>
<a xlink:href="../../d1/d59/xmpp__stanza_8c.html#a2fb472c6bf9b7f540a97ddc6c11adb74" target="_top" xlink:title="attribute_del">
<polygon fill="none" stroke="black" points="534.5,-342.5 534.5,-361.5 629.5,-361.5 629.5,-342.5 534.5,-342.5"/>
<text text-anchor="middle" x="582" y="-349.5" font-family="DejaVuSansMono" font-size="10.00">attribute_del</text>
</a>
</g>
<!-- Node10&#45;&gt;Node11 -->
<g id="edge20" class="edge"><title>Node10&#45;&gt;Node11</title>
<path fill="none" stroke="midnightblue" d="M449.65,-352C473.894,-352 500.957,-352 524.189,-352"/>
<polygon fill="midnightblue" stroke="midnightblue" points="524.23,-355.5 534.23,-352 524.23,-348.5 524.23,-355.5"/>
</g>
<!-- Node13&#45;&gt;Node14 -->
<g id="edge26" class="edge"><title>Node13&#45;&gt;Node14</title>
<path fill="none" stroke="midnightblue" d="M461.508,-10C471.23,-10 481.218,-10 491.079,-10"/>
<polygon fill="midnightblue" stroke="midnightblue" points="491.294,-13.5001 501.294,-10 491.293,-6.5001 491.294,-13.5001"/>
</g>
<!-- Node15&#45;&gt;Node12 -->
<g id="edge38" class="edge"><title>Node15&#45;&gt;Node12</title>
<path fill="none" stroke="midnightblue" d="M413.433,-214.603C428.455,-219.641 446.498,-226.355 462,-234 479.029,-242.398 480.488,-249.663 498,-257 509.184,-261.686 521.723,-265.32 533.6,-268.095"/>
<polygon fill="midnightblue" stroke="midnightblue" points="532.861,-271.516 543.377,-270.228 534.353,-264.677 532.861,-271.516"/>
</g>
<!-- Node16 -->
<g id="node31" class="node"><title>Node16</title>
<a xlink:href="../../d3/d5a/jid_8c.html#a0151ea37a9f52813a8d48d2b7eec2044" target="_top" xlink:title="Allocate and initialize a new JID from an existing JID string.">
<polygon fill="none" stroke="black" points="525.5,-228.5 525.5,-247.5 638.5,-247.5 638.5,-228.5 525.5,-228.5"/>
<text text-anchor="middle" x="582" y="-235.5" font-family="DejaVuSansMono" font-size="10.00">jid_new_from_str</text>
</a>
</g>
<!-- Node15&#45;&gt;Node16 -->
<g id="edge30" class="edge"><title>Node15&#45;&gt;Node16</title>
<path fill="none" stroke="midnightblue" d="M439.292,-214.501C463.109,-218.45 490.885,-223.056 515.505,-227.139"/>
<polygon fill="midnightblue" stroke="midnightblue" points="515.045,-230.61 525.483,-228.794 516.19,-223.705 515.045,-230.61"/>
</g>
<!-- Node18 -->
<g id="node35" class="node"><title>Node18</title>
<a xlink:href="../../d3/d5a/jid_8c.html#ab83fd5aae95de2c9d38fb9d9cd161580" target="_top" xlink:title="Cleans up and frees an existing JID.">
<polygon fill="none" stroke="black" points="702.5,-133.5 702.5,-152.5 761.5,-152.5 761.5,-133.5 702.5,-133.5"/>
<text text-anchor="middle" x="732" y="-140.5" font-family="DejaVuSansMono" font-size="10.00">jid_del</text>
</a>
</g>
<!-- Node15&#45;&gt;Node18 -->
<g id="edge42" class="edge"><title>Node15&#45;&gt;Node18</title>
<path fill="none" stroke="midnightblue" d="M461.559,-207.576C519.524,-207.24 599.251,-202.137 666,-181 681.69,-176.032 697.67,-166.759 709.858,-158.617"/>
<polygon fill="midnightblue" stroke="midnightblue" points="712.157,-161.282 718.373,-152.702 708.163,-155.533 712.157,-161.282"/>
</g>
<!-- Node19 -->
<g id="node37" class="node"><title>Node19</title>
<a xlink:href="../../d1/d59/xmpp__stanza_8c.html#a20c90c791fa856784f2d43c9f44f1d3c" target="_top" xlink:title="Returns the value of an attribute of this stanza.">
<polygon fill="none" stroke="black" points="525.5,-152.5 525.5,-171.5 638.5,-171.5 638.5,-152.5 525.5,-152.5"/>
<text text-anchor="middle" x="582" y="-159.5" font-family="DejaVuSansMono" font-size="10.00">xmpp_stanza_attr</text>
</a>
</g>
<!-- Node15&#45;&gt;Node19 -->
<g id="edge36" class="edge"><title>Node15&#45;&gt;Node19</title>
<path fill="none" stroke="midnightblue" d="M426.165,-195.457C455.922,-189.027 495.361,-180.505 526.987,-173.671"/>
<polygon fill="midnightblue" stroke="midnightblue" points="527.924,-177.05 536.959,-171.516 526.445,-170.208 527.924,-177.05"/>
</g>
<!-- Node20 -->
<g id="node40" class="node"><title>Node20</title>
<a xlink:href="../../d3/d5a/jid_8c.html#a5b2f969326a86fa7e585f633d7b0f565" target="_top" xlink:title="Compare two JIDs with wildcard matches.">
<polygon fill="none" stroke="black" points="522.5,-114.5 522.5,-133.5 641.5,-133.5 641.5,-114.5 522.5,-114.5"/>
<text text-anchor="middle" x="582" y="-121.5" font-family="DejaVuSansMono" font-size="10.00">jid_cmp_wildcards</text>
</a>
</g>
<!-- Node15&#45;&gt;Node20 -->
<g id="edge40" class="edge"><title>Node15&#45;&gt;Node20</title>
<path fill="none" stroke="midnightblue" d="M399.644,-195.493C431.467,-178.355 495.433,-143.96 498,-143 504.854,-140.436 512.16,-138.154 519.488,-136.139"/>
<polygon fill="midnightblue" stroke="midnightblue" points="520.65,-139.454 529.453,-133.558 518.895,-132.678 520.65,-139.454"/>
</g>
<!-- Node17 -->
<g id="node33" class="node"><title>Node17</title>
<a xlink:href="../../d3/d5a/jid_8c.html#abd2028a1e581e6374acaa6beaf6e5413" target="_top" xlink:title="Allocate and initialize a new blank JID.">
<polygon fill="none" stroke="black" points="702.5,-228.5 702.5,-247.5 761.5,-247.5 761.5,-228.5 702.5,-228.5"/>
<text text-anchor="middle" x="732" y="-235.5" font-family="DejaVuSansMono" font-size="10.00">jid_new</text>
</a>
</g>
<!-- Node16&#45;&gt;Node17 -->
<g id="edge32" class="edge"><title>Node16&#45;&gt;Node17</title>
<path fill="none" stroke="midnightblue" d="M638.531,-238C656.294,-238 675.574,-238 691.909,-238"/>
<polygon fill="midnightblue" stroke="midnightblue" points="692.173,-241.5 702.173,-238 692.173,-234.5 692.173,-241.5"/>
</g>
<!-- Node16&#45;&gt;Node18 -->
<g id="edge34" class="edge"><title>Node16&#45;&gt;Node18</title>
<path fill="none" stroke="midnightblue" d="M632.727,-228.408C644.173,-224.927 655.932,-220.249 666,-214 687.84,-200.444 706.901,-177.547 718.637,-161.427"/>
<polygon fill="midnightblue" stroke="midnightblue" points="721.784,-163.036 724.667,-152.841 716.056,-159.013 721.784,-163.036"/>
</g>
<!-- Node21&#45;&gt;Node18 -->
<g id="edge46" class="edge"><title>Node21&#45;&gt;Node18</title>
<path fill="none" stroke="midnightblue" d="M635.54,-95.4818C645.814,-98.0435 656.379,-101.19 666,-105 680.915,-110.906 696.467,-119.882 708.618,-127.627"/>
<polygon fill="midnightblue" stroke="midnightblue" points="706.898,-130.685 717.18,-133.239 710.735,-124.83 706.898,-130.685"/>
</g>
<!-- Node22&#45;&gt;Node11 -->
<g id="edge52" class="edge"><title>Node22&#45;&gt;Node11</title>
<path fill="none" stroke="midnightblue" d="M409.932,-305.634C433.307,-313.522 467.619,-324.693 498,-333 507.005,-335.462 516.619,-337.866 525.993,-340.09"/>
<polygon fill="midnightblue" stroke="midnightblue" points="525.497,-343.568 536.03,-342.428 527.085,-336.751 525.497,-343.568"/>
</g>
<!-- Node22&#45;&gt;Node22 -->
<g id="edge56" class="edge"><title>Node22&#45;&gt;Node22</title>
<path fill="none" stroke="midnightblue" d="M354.798,-305.757C342.051,-314.565 350.785,-324 381,-324 401.301,-324 411.904,-319.741 412.811,-314.275"/>
<polygon fill="midnightblue" stroke="midnightblue" points="415.625,-312.184 407.202,-305.757 409.779,-316.034 415.625,-312.184"/>
</g>
<!-- Node23 -->
<g id="node50" class="node"><title>Node23</title>
<a xlink:href="../../d1/dc2/xmpp__parser_8c.html#a87065f39f10a449e7af17fa45ca475f2" target="_top" xlink:title="xmpp_parser_namespace_del">
<polygon fill="none" stroke="black" points="498.5,-304.5 498.5,-323.5 665.5,-323.5 665.5,-304.5 498.5,-304.5"/>
<text text-anchor="middle" x="582" y="-311.5" font-family="DejaVuSansMono" font-size="10.00">xmpp_parser_namespace_del</text>
</a>
</g>
<!-- Node22&#45;&gt;Node23 -->
<g id="edge54" class="edge"><title>Node22&#45;&gt;Node23</title>
<path fill="none" stroke="midnightblue" d="M434.545,-300.753C451.062,-302.247 469.819,-303.943 488.265,-305.612"/>
<polygon fill="midnightblue" stroke="midnightblue" points="488.189,-309.119 498.464,-306.534 488.82,-302.148 488.189,-309.119"/>
</g>
<!-- Node24&#45;&gt;Node18 -->
<g id="edge60" class="edge"><title>Node24&#45;&gt;Node18</title>
<path fill="none" stroke="midnightblue" d="M413.832,-79.3548C437.044,-74.8601 469.321,-69.3332 498,-67 572.421,-60.9455 598.181,-35.7632 666,-67 691.531,-78.7596 710.767,-106.043 721.459,-124.511"/>
<polygon fill="midnightblue" stroke="midnightblue" points="718.499,-126.393 726.382,-133.472 724.634,-123.023 718.499,-126.393"/>
</g>
<!-- Node24&#45;&gt;Node21 -->
<g id="edge62" class="edge"><title>Node24&#45;&gt;Node21</title>
<path fill="none" stroke="midnightblue" d="M413.532,-86C441.561,-86 483.375,-86 518.208,-86"/>
<polygon fill="midnightblue" stroke="midnightblue" points="518.299,-89.5001 528.299,-86 518.299,-82.5001 518.299,-89.5001"/>
</g>
</g>
</svg>
        <g id="navigator" transform="translate(0 0)" fill="#404254">
                <rect fill="#f2f5e9" fill-opacity="0.5" stroke="#606060" stroke-width=".5" x="0" y="0" width="60" height="60"/>
                <use id="zoomplus" xlink:href="#zoomPlus" x="17" y="9" onmousedown="handleZoom(evt,'in')"/>
                <use id="zoomminus" xlink:href="#zoomMin" x="42" y="9" onmousedown="handleZoom(evt,'out')"/>
                <use id="reset" xlink:href="#resetDef" x="30" y="36" onmousedown="handleReset()"/>
                <g id="arrowUp" xlink:href="#dirArrow" transform="translate(30 24)" onmousedown="handlePan(0,-1)">
                  <use xlink:href="#rim" fill="#404040">
                        <set attributeName="fill" to="#808080" begin="arrowUp.mouseover" end="arrowUp.mouseout"/>
                  </use>
                  <path fill="none" stroke="white" stroke-width="1.5" d="M0,-3.0v7 M-2.5,-0.5L0,-3.0L2.5,-0.5"/>
                </g>
                <g id="arrowRight" xlink:href="#dirArrow" transform="rotate(90) translate(36 -43)" onmousedown="handlePan(1,0)">
                  <use xlink:href="#rim" fill="#404040">
                        <set attributeName="fill" to="#808080" begin="arrowRight.mouseover" end="arrowRight.mouseout"/>
                  </use>
                  <path fill="none" stroke="white" stroke-width="1.5" d="M0,-3.0v7 M-2.5,-0.5L0,-3.0L2.5,-0.5"/>
                </g>
                <g id="arrowDown" xlink:href="#dirArrow" transform="rotate(180) translate(-30 -48)" onmousedown="handlePan(0,1)">
                  <use xlink:href="#rim" fill="#404040">
                        <set attributeName="fill" to="#808080" begin="arrowDown.mouseover" end="arrowDown.mouseout"/>
                  </use>
                  <path fill="none" stroke="white" stroke-width="1.5" d="M0,-3.0v7 M-2.5,-0.5L0,-3.0L2.5,-0.5"/>
                </g>
                <g id="arrowLeft" xlink:href="#dirArrow" transform="rotate(270) translate(-36 17)" onmousedown="handlePan(-1,0)">
                  <use xlink:href="#rim" fill="#404040">
                        <set attributeName="fill" to="#808080" begin="arrowLeft.mouseover" end="arrowLeft.mouseout"/>
                  </use>
                  <path fill="none" stroke="white" stroke-width="1.5" d="M0,-3.0v7 M-2.5,-0.5L0,-3.0L2.5,-0.5"/>
                </g>
        </g>
        <svg viewBox="0 0 25 25" width="100%" height="30px" preserveAspectRatio="xMaxYMin meet"> 
          <g id="printButton" transform="scale(0.4 0.4)" onmousedown="handlePrint(evt)">
            <rect height="23.33753581" id="paper" rx="2" style="fill:#f2f5e9;fill-rule:evenodd;stroke:#111111;stroke-width:3.224;stroke-linejoin:round;" transform="matrix(1.000000,0.000000,-0.339266,0.940691,0.000000,0.000000)" width="25.55231285" x="26.69387353" y="7.36162977"/>
            <rect height="26.272097" id="body" rx="2" style="fill:#404040;fill-rule:evenodd;stroke:#111111;stroke-width:3.125;stroke-linejoin:round;" width="50" x="4.5295201" y="27.078951"/>
            <rect height="8.27750969" id="tray" style="fill:#d2d5c9;fill-rule:evenodd;stroke:#111111;stroke-width:3.125;stroke-linecap:round;stroke-linejoin:round;" width="40" x="10.28778839" y="44.96812282"/>
          </g>
        </svg>
</svg>
