<?xml version="1.0" encoding="UTF-8" standalone="no"?>
<!DOCTYPE svg PUBLIC "-//W3C//DTD SVG 1.1//EN"
 "http://www.w3.org/Graphics/SVG/1.1/DTD/svg11.dtd">
<!-- Generated by graphviz version 2.28.0 (20120217.0315)
 -->
<!-- Title: G Pages: 1 -->
<!--zoomable 370 -->
<svg id="main" version="1.1" xmlns="http://www.w3.org/2000/svg" xmlns:xlink="http://www.w3.org/1999/xlink" xml:space="preserve" onload="init(evt)">
        <defs>
                <circle id="rim" cx="0" cy="0" r="7"/>
                <circle id="rim2" cx="0" cy="0" r="3.5"/>
                <g id="zoomPlus">
                        <use xlink:href="#rim" fill="#404040">
                                <set attributeName="fill" to="#808080" begin="zoomplus.mouseover" end="zoomplus.mouseout"/>
                        </use>
                        <path d="M-4,0h8M0,-4v8" fill="none" stroke="white" stroke-width="1.5" pointer-events="none"/>
                </g>
                <g id="zoomMin">
                        <use xlink:href="#rim" fill="#404040">
                                <set attributeName="fill" to="#808080" begin="zoomminus.mouseover" end="zoomminus.mouseout"/>
                        </use>
                        <path d="M-4,0h8" fill="none" stroke="white" stroke-width="1.5" pointer-events="none"/>
                </g>
                <g id="dirArrow">
                        <path fill="none" stroke="white" stroke-width="1.5" d="M0,-3.0v7 M-2.5,-0.5L0,-3.0L2.5,-0.5"/>
                </g>
               <g id="resetDef">
                       <use xlink:href="#rim2" fill="#404040">
                               <set attributeName="fill" to="#808080" begin="reset.mouseover" end="reset.mouseout"/>
                       </use>
               </g>
        </defs>

<script type="text/javascript">
var viewWidth = 650;
var viewHeight = 370;
var sectionId = 'dynsection-2';
</script>
<script xlink:href="../../svgpan.js"/>
<svg id="graph" class="graph">
<g id="viewport">
<title>G</title>
<!-- Node1 -->
<g id="node1" class="node"><title>Node1</title>
<polygon fill="#bfbfbf" stroke="black" points="0.5,-185.5 0.5,-204.5 143.5,-204.5 143.5,-185.5 0.5,-185.5"/>
<text text-anchor="middle" x="72" y="-192.5" font-family="DejaVuSansMono" font-size="10.00">xmpp_im_iq_disco_info</text>
</g>
<!-- Node2 -->
<g id="node3" class="node"><title>Node2</title>
<a xlink:href="../../d1/d59/xmpp__stanza_8c.html#a20c90c791fa856784f2d43c9f44f1d3c" target="_top" xlink:title="Returns the value of an attribute of this stanza.">
<polygon fill="none" stroke="black" points="405.5,-342.5 405.5,-361.5 518.5,-361.5 518.5,-342.5 405.5,-342.5"/>
<text text-anchor="middle" x="462" y="-349.5" font-family="DejaVuSansMono" font-size="10.00">xmpp_stanza_attr</text>
</a>
</g>
<!-- Node1&#45;&gt;Node2 -->
<g id="edge2" class="edge"><title>Node1&#45;&gt;Node2</title>
<path fill="none" stroke="midnightblue" d="M80.6699,-204.795C96.7757,-224.638 136.261,-269.595 180,-292 248.412,-327.043 336.271,-341.638 395.382,-347.705"/>
<polygon fill="midnightblue" stroke="midnightblue" points="395.051,-351.19 405.343,-348.675 395.729,-344.223 395.051,-351.19"/>
</g>
<!-- Node3 -->
<g id="node5" class="node"><title>Node3</title>
<a xlink:href="../../d1/d59/xmpp__stanza_8c.html#af1ad00a6a75789396a933dfc0ed9c1f5" target="_top" xlink:title="Returns a pointer to the first child stanza.">
<polygon fill="none" stroke="black" points="192.5,-223.5 192.5,-242.5 329.5,-242.5 329.5,-223.5 192.5,-223.5"/>
<text text-anchor="middle" x="261" y="-230.5" font-family="DejaVuSansMono" font-size="10.00">xmpp_stanza_children</text>
</a>
</g>
<!-- Node1&#45;&gt;Node3 -->
<g id="edge4" class="edge"><title>Node1&#45;&gt;Node3</title>
<path fill="none" stroke="midnightblue" d="M120.188,-204.589C145.42,-209.716 176.673,-216.067 203.227,-221.463"/>
<polygon fill="midnightblue" stroke="midnightblue" points="202.655,-224.918 213.151,-223.48 204.049,-218.059 202.655,-224.918"/>
</g>
<!-- Node4 -->
<g id="node7" class="node"><title>Node4</title>
<a xlink:href="../../d1/d59/xmpp__stanza_8c.html#a10c606a11c37c01bf59881827dc2229a" target="_top" xlink:title="Returns the name of the tag of this stanza (message/presence/IQ)">
<polygon fill="none" stroke="black" points="204.5,-185.5 204.5,-204.5 317.5,-204.5 317.5,-185.5 204.5,-185.5"/>
<text text-anchor="middle" x="261" y="-192.5" font-family="DejaVuSansMono" font-size="10.00">xmpp_stanza_name</text>
</a>
</g>
<!-- Node1&#45;&gt;Node4 -->
<g id="edge6" class="edge"><title>Node1&#45;&gt;Node4</title>
<path fill="none" stroke="midnightblue" d="M143.697,-195C160.313,-195 177.953,-195 194.337,-195"/>
<polygon fill="midnightblue" stroke="midnightblue" points="194.357,-198.5 204.357,-195 194.357,-191.5 194.357,-198.5"/>
</g>
<!-- Node5 -->
<g id="node9" class="node"><title>Node5</title>
<a xlink:href="../../d1/d59/xmpp__stanza_8c.html#aa80dd21d794b5c63fcb13c49745cc373" target="_top" xlink:title="Allocate and initialize a new XMPP stanza structure.">
<polygon fill="none" stroke="black" points="207.5,-147.5 207.5,-166.5 314.5,-166.5 314.5,-147.5 207.5,-147.5"/>
<text text-anchor="middle" x="261" y="-154.5" font-family="DejaVuSansMono" font-size="10.00">xmpp_stanza_new</text>
</a>
</g>
<!-- Node1&#45;&gt;Node5 -->
<g id="edge8" class="edge"><title>Node1&#45;&gt;Node5</title>
<path fill="none" stroke="midnightblue" d="M120.188,-185.411C145.42,-180.284 176.673,-173.933 203.227,-168.537"/>
<polygon fill="midnightblue" stroke="midnightblue" points="204.049,-171.941 213.151,-166.52 202.655,-165.082 204.049,-171.941"/>
</g>
<!-- Node8 -->
<g id="node15" class="node"><title>Node8</title>
<a xlink:href="../../d1/d59/xmpp__stanza_8c.html#ac13c8bb45e2ca03b99836e8d52b265b4" target="_top" xlink:title="Appends a child stanza.">
<polygon fill="none" stroke="black" points="180.5,-104.5 180.5,-123.5 341.5,-123.5 341.5,-104.5 180.5,-104.5"/>
<text text-anchor="middle" x="261" y="-111.5" font-family="DejaVuSansMono" font-size="10.00">xmpp_stanza_append_child</text>
</a>
</g>
<!-- Node1&#45;&gt;Node8 -->
<g id="edge14" class="edge"><title>Node1&#45;&gt;Node8</title>
<path fill="none" stroke="midnightblue" d="M88.4776,-185.492C108.873,-173.263 146.133,-151.939 180,-138 190.369,-133.732 201.773,-129.853 212.641,-126.517"/>
<polygon fill="midnightblue" stroke="midnightblue" points="213.837,-129.813 222.426,-123.61 211.843,-123.103 213.837,-129.813"/>
</g>
<!-- Node10 -->
<g id="node19" class="node"><title>Node10</title>
<a xlink:href="../../d0/df0/xmpp__server_8c.html#a6d3f7e5e289f785b1c8c52f95068c627" target="_top" xlink:title="Deliver a stanza to a registered callback function.">
<polygon fill="none" stroke="black" points="180.5,-263.5 180.5,-282.5 341.5,-282.5 341.5,-263.5 180.5,-263.5"/>
<text text-anchor="middle" x="261" y="-270.5" font-family="DejaVuSansMono" font-size="10.00">xmpp_server_route_stanza</text>
</a>
</g>
<!-- Node1&#45;&gt;Node10 -->
<g id="edge18" class="edge"><title>Node1&#45;&gt;Node10</title>
<path fill="none" stroke="midnightblue" d="M88.4046,-204.689C108.721,-217.116 145.896,-238.651 180,-252 188.445,-255.306 197.592,-258.258 206.581,-260.831"/>
<polygon fill="midnightblue" stroke="midnightblue" points="205.663,-264.208 216.232,-263.472 207.511,-257.457 205.663,-264.208"/>
</g>
<!-- Node16 -->
<g id="node33" class="node"><title>Node16</title>
<a xlink:href="../../d1/d59/xmpp__stanza_8c.html#af40757ae1d137034570b1bb33303d024" target="_top" xlink:title="Cleans up and frees an XMPP stanza.">
<polygon fill="none" stroke="black" points="207.5,-38.5 207.5,-57.5 314.5,-57.5 314.5,-38.5 207.5,-38.5"/>
<text text-anchor="middle" x="261" y="-45.5" font-family="DejaVuSansMono" font-size="10.00">xmpp_stanza_del</text>
</a>
</g>
<!-- Node1&#45;&gt;Node16 -->
<g id="edge34" class="edge"><title>Node1&#45;&gt;Node16</title>
<path fill="none" stroke="midnightblue" d="M81.8334,-185.438C99.4077,-166.723 140.476,-124.513 180,-95 196.354,-82.7886 216.116,-71.1518 231.907,-62.5121"/>
<polygon fill="midnightblue" stroke="midnightblue" points="234.007,-65.3572 241.16,-57.5416 230.694,-59.1906 234.007,-65.3572"/>
</g>
<!-- Node6 -->
<g id="node11" class="node"><title>Node6</title>
<a xlink:href="../../d1/d59/xmpp__stanza_8c.html#a5a80203f56df7a360fa457c0111686f6" target="_top" xlink:title="Parse the namespace triple that Expat gives us.">
<polygon fill="none" stroke="black" points="429.5,-152.5 429.5,-171.5 494.5,-171.5 494.5,-152.5 429.5,-152.5"/>
<text text-anchor="middle" x="462" y="-159.5" font-family="DejaVuSansMono" font-size="10.00">parse_ns</text>
</a>
</g>
<!-- Node5&#45;&gt;Node6 -->
<g id="edge10" class="edge"><title>Node5&#45;&gt;Node6</title>
<path fill="none" stroke="midnightblue" d="M314.545,-158.32C347.198,-159.141 388.606,-160.181 419.054,-160.946"/>
<polygon fill="midnightblue" stroke="midnightblue" points="419.25,-164.452 429.335,-161.204 419.426,-157.454 419.25,-164.452"/>
</g>
<!-- Node7 -->
<g id="node13" class="node"><title>Node7</title>
<a xlink:href="../../d1/d59/xmpp__stanza_8c.html#aff4b8f6e10ce1c351d2a5bc39f0e819f" target="_top" xlink:title="Convenience function to build a key for the attribute hash table.">
<polygon fill="none" stroke="black" points="429.5,-114.5 429.5,-133.5 494.5,-133.5 494.5,-114.5 429.5,-114.5"/>
<text text-anchor="middle" x="462" y="-121.5" font-family="DejaVuSansMono" font-size="10.00">make_key</text>
</a>
</g>
<!-- Node5&#45;&gt;Node7 -->
<g id="edge12" class="edge"><title>Node5&#45;&gt;Node7</title>
<path fill="none" stroke="midnightblue" d="M314.545,-148.286C347.341,-142.848 388.968,-135.945 419.453,-130.89"/>
<polygon fill="midnightblue" stroke="midnightblue" points="420.042,-134.34 429.335,-129.251 418.897,-127.434 420.042,-134.34"/>
</g>
<!-- Node9 -->
<g id="node17" class="node"><title>Node9</title>
<a xlink:href="../../d1/d59/xmpp__stanza_8c.html#afc77f00b7f38c79566a7b16876230e30" target="_top" xlink:title="Removes a child stanza.">
<polygon fill="none" stroke="black" points="381.5,-76.5 381.5,-95.5 542.5,-95.5 542.5,-76.5 381.5,-76.5"/>
<text text-anchor="middle" x="462" y="-83.5" font-family="DejaVuSansMono" font-size="10.00">xmpp_stanza_remove_child</text>
</a>
</g>
<!-- Node8&#45;&gt;Node9 -->
<g id="edge16" class="edge"><title>Node8&#45;&gt;Node9</title>
<path fill="none" stroke="midnightblue" d="M329.65,-104.481C346.793,-102.069 365.345,-99.4589 382.957,-96.981"/>
<polygon fill="midnightblue" stroke="midnightblue" points="383.784,-100.399 393.199,-95.5398 382.809,-93.4674 383.784,-100.399"/>
</g>
<!-- Node10&#45;&gt;Node2 -->
<g id="edge26" class="edge"><title>Node10&#45;&gt;Node2</title>
<path fill="none" stroke="midnightblue" d="M279.274,-282.621C306.498,-297.664 358.307,-325.785 378,-333 385.045,-335.581 392.56,-337.886 400.08,-339.922"/>
<polygon fill="midnightblue" stroke="midnightblue" points="399.376,-343.354 409.931,-342.445 401.112,-336.573 399.376,-343.354"/>
</g>
<!-- Node11 -->
<g id="node21" class="node"><title>Node11</title>
<a xlink:href="../../d3/d5a/jid_8c.html#a0151ea37a9f52813a8d48d2b7eec2044" target="_top" xlink:title="Allocate and initialize a new JID from an existing JID string.">
<polygon fill="none" stroke="black" points="405.5,-304.5 405.5,-323.5 518.5,-323.5 518.5,-304.5 405.5,-304.5"/>
<text text-anchor="middle" x="462" y="-311.5" font-family="DejaVuSansMono" font-size="10.00">jid_new_from_str</text>
</a>
</g>
<!-- Node10&#45;&gt;Node11 -->
<g id="edge20" class="edge"><title>Node10&#45;&gt;Node11</title>
<path fill="none" stroke="midnightblue" d="M308.155,-282.509C336.935,-288.439 374.17,-296.11 404.683,-302.397"/>
<polygon fill="midnightblue" stroke="midnightblue" points="404.251,-305.881 414.751,-304.471 405.663,-299.025 404.251,-305.881"/>
</g>
<!-- Node13 -->
<g id="node25" class="node"><title>Node13</title>
<a xlink:href="../../d3/d5a/jid_8c.html#ab83fd5aae95de2c9d38fb9d9cd161580" target="_top" xlink:title="Cleans up and frees an existing JID.">
<polygon fill="none" stroke="black" points="582.5,-266.5 582.5,-285.5 641.5,-285.5 641.5,-266.5 582.5,-266.5"/>
<text text-anchor="middle" x="612" y="-273.5" font-family="DejaVuSansMono" font-size="10.00">jid_del</text>
</a>
</g>
<!-- Node10&#45;&gt;Node13 -->
<g id="edge32" class="edge"><title>Node10&#45;&gt;Node13</title>
<path fill="none" stroke="midnightblue" d="M341.63,-273.685C413.639,-274.303 516.613,-275.189 572.066,-275.665"/>
<polygon fill="midnightblue" stroke="midnightblue" points="572.145,-279.166 582.175,-275.752 572.205,-272.166 572.145,-279.166"/>
</g>
<!-- Node14 -->
<g id="node28" class="node"><title>Node14</title>
<a xlink:href="../../d3/d5a/jid_8c.html#a3d51f2b27d20189e523b0d0b2a77e4a9" target="_top" xlink:title="Converts a JID to a newly allocated string.">
<polygon fill="none" stroke="black" points="423.5,-228.5 423.5,-247.5 500.5,-247.5 500.5,-228.5 423.5,-228.5"/>
<text text-anchor="middle" x="462" y="-235.5" font-family="DejaVuSansMono" font-size="10.00">jid_to_str</text>
</a>
</g>
<!-- Node10&#45;&gt;Node14 -->
<g id="edge28" class="edge"><title>Node10&#45;&gt;Node14</title>
<path fill="none" stroke="midnightblue" d="M316.115,-263.482C346.486,-258.141 384.038,-251.536 413.301,-246.389"/>
<polygon fill="midnightblue" stroke="midnightblue" points="414.038,-249.813 423.28,-244.634 412.825,-242.919 414.038,-249.813"/>
</g>
<!-- Node15 -->
<g id="node30" class="node"><title>Node15</title>
<a xlink:href="../../d3/d5a/jid_8c.html#a5b2f969326a86fa7e585f633d7b0f565" target="_top" xlink:title="Compare two JIDs with wildcard matches.">
<polygon fill="none" stroke="black" points="402.5,-190.5 402.5,-209.5 521.5,-209.5 521.5,-190.5 402.5,-190.5"/>
<text text-anchor="middle" x="462" y="-197.5" font-family="DejaVuSansMono" font-size="10.00">jid_cmp_wildcards</text>
</a>
</g>
<!-- Node10&#45;&gt;Node15 -->
<g id="edge30" class="edge"><title>Node10&#45;&gt;Node15</title>
<path fill="none" stroke="midnightblue" d="M313.352,-263.474C323.196,-260.564 333.176,-256.813 342,-252 361.055,-241.607 358.783,-229.09 378,-219 382.626,-216.571 387.556,-214.451 392.619,-212.6"/>
<polygon fill="midnightblue" stroke="midnightblue" points="394.066,-215.809 402.474,-209.363 391.881,-209.159 394.066,-215.809"/>
</g>
<!-- Node12 -->
<g id="node23" class="node"><title>Node12</title>
<a xlink:href="../../d3/d5a/jid_8c.html#abd2028a1e581e6374acaa6beaf6e5413" target="_top" xlink:title="Allocate and initialize a new blank JID.">
<polygon fill="none" stroke="black" points="582.5,-304.5 582.5,-323.5 641.5,-323.5 641.5,-304.5 582.5,-304.5"/>
<text text-anchor="middle" x="612" y="-311.5" font-family="DejaVuSansMono" font-size="10.00">jid_new</text>
</a>
</g>
<!-- Node11&#45;&gt;Node12 -->
<g id="edge22" class="edge"><title>Node11&#45;&gt;Node12</title>
<path fill="none" stroke="midnightblue" d="M518.531,-314C536.294,-314 555.574,-314 571.909,-314"/>
<polygon fill="midnightblue" stroke="midnightblue" points="572.173,-317.5 582.173,-314 572.173,-310.5 572.173,-317.5"/>
</g>
<!-- Node11&#45;&gt;Node13 -->
<g id="edge24" class="edge"><title>Node11&#45;&gt;Node13</title>
<path fill="none" stroke="midnightblue" d="M500.347,-304.411C522.327,-298.767 550.081,-291.641 572.293,-285.938"/>
<polygon fill="midnightblue" stroke="midnightblue" points="573.253,-289.305 582.069,-283.428 571.512,-282.525 573.253,-289.305"/>
</g>
<!-- Node16&#45;&gt;Node16 -->
<g id="edge40" class="edge"><title>Node16&#45;&gt;Node16</title>
<path fill="none" stroke="midnightblue" d="M232.024,-57.7571C217.927,-66.5653 227.586,-76 261,-76 283.972,-76 295.716,-71.5406 296.232,-65.8913"/>
<polygon fill="midnightblue" stroke="midnightblue" points="298.847,-63.5501 289.976,-57.7571 293.298,-67.8176 298.847,-63.5501"/>
</g>
<!-- Node17 -->
<g id="node35" class="node"><title>Node17</title>
<a xlink:href="../../d1/d59/xmpp__stanza_8c.html#a2fb472c6bf9b7f540a97ddc6c11adb74" target="_top" xlink:title="attribute_del">
<polygon fill="none" stroke="black" points="414.5,-38.5 414.5,-57.5 509.5,-57.5 509.5,-38.5 414.5,-38.5"/>
<text text-anchor="middle" x="462" y="-45.5" font-family="DejaVuSansMono" font-size="10.00">attribute_del</text>
</a>
</g>
<!-- Node16&#45;&gt;Node17 -->
<g id="edge36" class="edge"><title>Node16&#45;&gt;Node17</title>
<path fill="none" stroke="midnightblue" d="M314.545,-48C342.133,-48 375.97,-48 404.167,-48"/>
<polygon fill="midnightblue" stroke="midnightblue" points="404.278,-51.5001 414.278,-48 404.278,-44.5001 404.278,-51.5001"/>
</g>
<!-- Node18 -->
<g id="node37" class="node"><title>Node18</title>
<a xlink:href="../../d1/dc2/xmpp__parser_8c.html#a87065f39f10a449e7af17fa45ca475f2" target="_top" xlink:title="xmpp_parser_namespace_del">
<polygon fill="none" stroke="black" points="378.5,-0.5 378.5,-19.5 545.5,-19.5 545.5,-0.5 378.5,-0.5"/>
<text text-anchor="middle" x="462" y="-7.5" font-family="DejaVuSansMono" font-size="10.00">xmpp_parser_namespace_del</text>
</a>
</g>
<!-- Node16&#45;&gt;Node18 -->
<g id="edge38" class="edge"><title>Node16&#45;&gt;Node18</title>
<path fill="none" stroke="midnightblue" d="M311.959,-38.46C339.045,-33.2878 372.708,-26.8599 401.183,-21.4222"/>
<polygon fill="midnightblue" stroke="midnightblue" points="401.854,-24.8575 411.02,-19.5439 400.541,-17.9817 401.854,-24.8575"/>
</g>
</g>
</svg>
        <g id="navigator" transform="translate(0 0)" fill="#404254">
                <rect fill="#f2f5e9" fill-opacity="0.5" stroke="#606060" stroke-width=".5" x="0" y="0" width="60" height="60"/>
                <use id="zoomplus" xlink:href="#zoomPlus" x="17" y="9" onmousedown="handleZoom(evt,'in')"/>
                <use id="zoomminus" xlink:href="#zoomMin" x="42" y="9" onmousedown="handleZoom(evt,'out')"/>
                <use id="reset" xlink:href="#resetDef" x="30" y="36" onmousedown="handleReset()"/>
                <g id="arrowUp" xlink:href="#dirArrow" transform="translate(30 24)" onmousedown="handlePan(0,-1)">
                  <use xlink:href="#rim" fill="#404040">
                        <set attributeName="fill" to="#808080" begin="arrowUp.mouseover" end="arrowUp.mouseout"/>
                  </use>
                  <path fill="none" stroke="white" stroke-width="1.5" d="M0,-3.0v7 M-2.5,-0.5L0,-3.0L2.5,-0.5"/>
                </g>
                <g id="arrowRight" xlink:href="#dirArrow" transform="rotate(90) translate(36 -43)" onmousedown="handlePan(1,0)">
                  <use xlink:href="#rim" fill="#404040">
                        <set attributeName="fill" to="#808080" begin="arrowRight.mouseover" end="arrowRight.mouseout"/>
                  </use>
                  <path fill="none" stroke="white" stroke-width="1.5" d="M0,-3.0v7 M-2.5,-0.5L0,-3.0L2.5,-0.5"/>
                </g>
                <g id="arrowDown" xlink:href="#dirArrow" transform="rotate(180) translate(-30 -48)" onmousedown="handlePan(0,1)">
                  <use xlink:href="#rim" fill="#404040">
                        <set attributeName="fill" to="#808080" begin="arrowDown.mouseover" end="arrowDown.mouseout"/>
                  </use>
                  <path fill="none" stroke="white" stroke-width="1.5" d="M0,-3.0v7 M-2.5,-0.5L0,-3.0L2.5,-0.5"/>
                </g>
                <g id="arrowLeft" xlink:href="#dirArrow" transform="rotate(270) translate(-36 17)" onmousedown="handlePan(-1,0)">
                  <use xlink:href="#rim" fill="#404040">
                        <set attributeName="fill" to="#808080" begin="arrowLeft.mouseover" end="arrowLeft.mouseout"/>
                  </use>
                  <path fill="none" stroke="white" stroke-width="1.5" d="M0,-3.0v7 M-2.5,-0.5L0,-3.0L2.5,-0.5"/>
                </g>
        </g>
        <svg viewBox="0 0 25 25" width="100%" height="30px" preserveAspectRatio="xMaxYMin meet"> 
          <g id="printButton" transform="scale(0.4 0.4)" onmousedown="handlePrint(evt)">
            <rect height="23.33753581" id="paper" rx="2" style="fill:#f2f5e9;fill-rule:evenodd;stroke:#111111;stroke-width:3.224;stroke-linejoin:round;" transform="matrix(1.000000,0.000000,-0.339266,0.940691,0.000000,0.000000)" width="25.55231285" x="26.69387353" y="7.36162977"/>
            <rect height="26.272097" id="body" rx="2" style="fill:#404040;fill-rule:evenodd;stroke:#111111;stroke-width:3.125;stroke-linejoin:round;" width="50" x="4.5295201" y="27.078951"/>
            <rect height="8.27750969" id="tray" style="fill:#d2d5c9;fill-rule:evenodd;stroke:#111111;stroke-width:3.125;stroke-linecap:round;stroke-linejoin:round;" width="40" x="10.28778839" y="44.96812282"/>
          </g>
        </svg>
</svg>
