<?xml version="1.0" encoding="UTF-8" standalone="no"?>
<!DOCTYPE svg PUBLIC "-//W3C//DTD SVG 1.1//EN"
 "http://www.w3.org/Graphics/SVG/1.1/DTD/svg11.dtd">
<!-- Generated by graphviz version 2.28.0 (20120217.0315)
 -->
<!-- Title: G Pages: 1 -->
<!--zoomable 140 -->
<svg id="main" version="1.1" xmlns="http://www.w3.org/2000/svg" xmlns:xlink="http://www.w3.org/1999/xlink" xml:space="preserve" onload="init(evt)">
        <defs>
                <circle id="rim" cx="0" cy="0" r="7"/>
                <circle id="rim2" cx="0" cy="0" r="3.5"/>
                <g id="zoomPlus">
                        <use xlink:href="#rim" fill="#404040">
                                <set attributeName="fill" to="#808080" begin="zoomplus.mouseover" end="zoomplus.mouseout"/>
                        </use>
                        <path d="M-4,0h8M0,-4v8" fill="none" stroke="white" stroke-width="1.5" pointer-events="none"/>
                </g>
                <g id="zoomMin">
                        <use xlink:href="#rim" fill="#404040">
                                <set attributeName="fill" to="#808080" begin="zoomminus.mouseover" end="zoomminus.mouseout"/>
                        </use>
                        <path d="M-4,0h8" fill="none" stroke="white" stroke-width="1.5" pointer-events="none"/>
                </g>
                <g id="dirArrow">
                        <path fill="none" stroke="white" stroke-width="1.5" d="M0,-3.0v7 M-2.5,-0.5L0,-3.0L2.5,-0.5"/>
                </g>
               <g id="resetDef">
                       <use xlink:href="#rim2" fill="#404040">
                               <set attributeName="fill" to="#808080" begin="reset.mouseover" end="reset.mouseout"/>
                       </use>
               </g>
        </defs>

<script type="text/javascript">
var viewWidth = 1004;
var viewHeight = 140;
var sectionId = 'dynsection-0';
</script>
<script xlink:href="../../svgpan.js"/>
<svg id="graph" class="graph">
<g id="viewport">
<title>G</title>
<!-- Node1 -->
<g id="node1" class="node"><title>Node1</title>
<polygon fill="#bfbfbf" stroke="black" points="395.5,-112.5 395.5,-131.5 526.5,-131.5 526.5,-112.5 395.5,-112.5"/>
<text text-anchor="middle" x="461" y="-119.5" font-family="DejaVuSansMono" font-size="10.00">src/client_socket.c</text>
</g>
<!-- Node2 -->
<g id="node3" class="node"><title>Node2</title>
<polygon fill="none" stroke="#bfbfbf" points="-0.5,-56.5 -0.5,-75.5 82.5,-75.5 82.5,-56.5 -0.5,-56.5"/>
<text text-anchor="middle" x="41" y="-63.5" font-family="DejaVuSansMono" font-size="10.00">arpa/inet.h</text>
</g>
<!-- Node1&#45;&gt;Node2 -->
<g id="edge2" class="edge"><title>Node1&#45;&gt;Node2</title>
<path fill="none" stroke="midnightblue" d="M395.201,-114.047C323.45,-106.223 204.994,-92.6026 92.8538,-76.055"/>
<polygon fill="midnightblue" stroke="midnightblue" points="93.1249,-72.557 82.719,-74.5489 92.0958,-79.4809 93.1249,-72.557"/>
</g>
<!-- Node3 -->
<g id="node5" class="node"><title>Node3</title>
<polygon fill="none" stroke="#bfbfbf" points="100.5,-56.5 100.5,-75.5 165.5,-75.5 165.5,-56.5 100.5,-56.5"/>
<text text-anchor="middle" x="133" y="-63.5" font-family="DejaVuSansMono" font-size="10.00">signal.h</text>
</g>
<!-- Node1&#45;&gt;Node3 -->
<g id="edge4" class="edge"><title>Node1&#45;&gt;Node3</title>
<path fill="none" stroke="midnightblue" d="M400.576,-112.479C344.787,-104.387 259.396,-91.4386 175.482,-75.9996"/>
<polygon fill="midnightblue" stroke="midnightblue" points="175.994,-72.5349 165.524,-74.1541 174.719,-79.4177 175.994,-72.5349"/>
</g>
<!-- Node4 -->
<g id="node7" class="node"><title>Node4</title>
<polygon fill="none" stroke="#bfbfbf" points="183.5,-56.5 183.5,-75.5 272.5,-75.5 272.5,-56.5 183.5,-56.5"/>
<text text-anchor="middle" x="228" y="-63.5" font-family="DejaVuSansMono" font-size="10.00">sys/socket.h</text>
</g>
<!-- Node1&#45;&gt;Node4 -->
<g id="edge6" class="edge"><title>Node1&#45;&gt;Node4</title>
<path fill="none" stroke="midnightblue" d="M424.08,-112.444C383.605,-103.063 318.579,-87.9926 274.616,-77.8036"/>
<polygon fill="midnightblue" stroke="midnightblue" points="275.279,-74.3646 264.747,-75.5164 273.698,-81.1839 275.279,-74.3646"/>
</g>
<!-- Node5 -->
<g id="node9" class="node"><title>Node5</title>
<polygon fill="none" stroke="#bfbfbf" points="290.5,-56.5 290.5,-75.5 373.5,-75.5 373.5,-56.5 290.5,-56.5"/>
<text text-anchor="middle" x="332" y="-63.5" font-family="DejaVuSansMono" font-size="10.00">sys/types.h</text>
</g>
<!-- Node1&#45;&gt;Node5 -->
<g id="edge8" class="edge"><title>Node1&#45;&gt;Node5</title>
<path fill="none" stroke="midnightblue" d="M440.56,-112.444C419.33,-103.557 385.901,-89.5632 361.745,-79.4514"/>
<polygon fill="midnightblue" stroke="midnightblue" points="362.921,-76.1493 352.345,-75.5164 360.218,-82.6064 362.921,-76.1493"/>
</g>
<!-- Node6 -->
<g id="node11" class="node"><title>Node6</title>
<polygon fill="none" stroke="#bfbfbf" points="391.5,-56.5 391.5,-75.5 456.5,-75.5 456.5,-56.5 391.5,-56.5"/>
<text text-anchor="middle" x="424" y="-63.5" font-family="DejaVuSansMono" font-size="10.00">unistd.h</text>
</g>
<!-- Node1&#45;&gt;Node6 -->
<g id="edge10" class="edge"><title>Node1&#45;&gt;Node6</title>
<path fill="none" stroke="midnightblue" d="M454.89,-112.083C449.718,-104.534 442.154,-93.4948 435.806,-84.2298"/>
<polygon fill="midnightblue" stroke="midnightblue" points="438.536,-82.0221 429.996,-75.7511 432.761,-85.9787 438.536,-82.0221"/>
</g>
<!-- Node7 -->
<g id="node13" class="node"><title>Node7</title>
<polygon fill="none" stroke="#bfbfbf" points="705.5,-0.5 705.5,-19.5 800.5,-19.5 800.5,-0.5 705.5,-0.5"/>
<text text-anchor="middle" x="753" y="-7.5" font-family="DejaVuSansMono" font-size="10.00">openssl/ssl.h</text>
</g>
<!-- Node1&#45;&gt;Node7 -->
<g id="edge12" class="edge"><title>Node1&#45;&gt;Node7</title>
<path fill="none" stroke="midnightblue" d="M526.746,-118.583C598.821,-114.547 708.215,-103.889 738,-76 750.53,-64.2676 753.579,-44.3317 753.926,-29.6245"/>
<polygon fill="midnightblue" stroke="midnightblue" points="757.425,-29.566 753.776,-19.6196 750.426,-29.6709 757.425,-29.566"/>
</g>
<!-- Node8 -->
<g id="node15" class="node"><title>Node8</title>
<polygon fill="none" stroke="#bfbfbf" points="539.5,-56.5 539.5,-75.5 634.5,-75.5 634.5,-56.5 539.5,-56.5"/>
<text text-anchor="middle" x="587" y="-63.5" font-family="DejaVuSansMono" font-size="10.00">openssl/err.h</text>
</g>
<!-- Node1&#45;&gt;Node8 -->
<g id="edge14" class="edge"><title>Node1&#45;&gt;Node8</title>
<path fill="none" stroke="midnightblue" d="M480.965,-112.444C501.609,-103.596 534.063,-89.6875 557.632,-79.5865"/>
<polygon fill="midnightblue" stroke="midnightblue" points="559.316,-82.6727 567.128,-75.5164 556.558,-76.2387 559.316,-82.6727"/>
</g>
<!-- Node9 -->
<g id="node17" class="node"><title>Node9</title>
<polygon fill="none" stroke="#bfbfbf" points="652.5,-56.5 652.5,-75.5 729.5,-75.5 729.5,-56.5 652.5,-56.5"/>
<text text-anchor="middle" x="691" y="-63.5" font-family="DejaVuSansMono" font-size="10.00">utstring.h</text>
</g>
<!-- Node1&#45;&gt;Node9 -->
<g id="edge16" class="edge"><title>Node1&#45;&gt;Node9</title>
<path fill="none" stroke="midnightblue" d="M497.444,-112.444C537.399,-103.063 601.587,-87.9926 644.985,-77.8036"/>
<polygon fill="midnightblue" stroke="midnightblue" points="645.791,-81.2095 654.726,-75.5164 644.191,-74.3948 645.791,-81.2095"/>
</g>
<!-- Node10 -->
<g id="node19" class="node"><title>Node10</title>
<a xlink:href="../../d7/d7f/log_8h.html" target="_top" xlink:title="Debugging and logging functions/macros.">
<polygon fill="none" stroke="black" points="474.5,-56.5 474.5,-75.5 521.5,-75.5 521.5,-56.5 474.5,-56.5"/>
<text text-anchor="middle" x="498" y="-63.5" font-family="DejaVuSansMono" font-size="10.00">log.h</text>
</a>
</g>
<!-- Node1&#45;&gt;Node10 -->
<g id="edge18" class="edge"><title>Node1&#45;&gt;Node10</title>
<path fill="none" stroke="midnightblue" d="M467.11,-112.083C472.282,-104.534 479.846,-93.4948 486.194,-84.2298"/>
<polygon fill="midnightblue" stroke="midnightblue" points="489.239,-85.9787 492.004,-75.7511 483.464,-82.0221 489.239,-85.9787"/>
</g>
<!-- Node14 -->
<g id="node27" class="node"><title>Node14</title>
<a xlink:href="../../d9/d71/client__socket_8h.html" target="_top" xlink:title="Abstracts basic socket interactions.">
<polygon fill="none" stroke="black" points="795.5,-56.5 795.5,-75.5 902.5,-75.5 902.5,-56.5 795.5,-56.5"/>
<text text-anchor="middle" x="849" y="-63.5" font-family="DejaVuSansMono" font-size="10.00">client_socket.h</text>
</a>
</g>
<!-- Node1&#45;&gt;Node14 -->
<g id="edge26" class="edge"><title>Node1&#45;&gt;Node14</title>
<path fill="none" stroke="midnightblue" d="M522.48,-112.444C594.317,-102.446 712.593,-85.9845 785.35,-75.8585"/>
<polygon fill="midnightblue" stroke="midnightblue" points="785.883,-79.3182 795.305,-74.473 784.918,-72.385 785.883,-79.3182"/>
</g>
<!-- Node11 -->
<g id="node21" class="node"><title>Node11</title>
<polygon fill="none" stroke="#bfbfbf" points="391.5,-0.5 391.5,-19.5 450.5,-19.5 450.5,-0.5 391.5,-0.5"/>
<text text-anchor="middle" x="421" y="-7.5" font-family="DejaVuSansMono" font-size="10.00">stdio.h</text>
</g>
<!-- Node10&#45;&gt;Node11 -->
<g id="edge20" class="edge"><title>Node10&#45;&gt;Node11</title>
<path fill="none" stroke="midnightblue" d="M485.629,-56.324C473.842,-48.0577 455.868,-35.4527 441.864,-25.6322"/>
<polygon fill="midnightblue" stroke="midnightblue" points="443.538,-22.5307 433.341,-19.6545 439.518,-28.2619 443.538,-22.5307"/>
</g>
<!-- Node12 -->
<g id="node23" class="node"><title>Node12</title>
<polygon fill="none" stroke="#bfbfbf" points="468.5,-0.5 468.5,-19.5 527.5,-19.5 527.5,-0.5 468.5,-0.5"/>
<text text-anchor="middle" x="498" y="-7.5" font-family="DejaVuSansMono" font-size="10.00">errno.h</text>
</g>
<!-- Node10&#45;&gt;Node12 -->
<g id="edge22" class="edge"><title>Node10&#45;&gt;Node12</title>
<path fill="none" stroke="midnightblue" d="M498,-56.083C498,-49.0059 498,-38.8611 498,-29.9865"/>
<polygon fill="midnightblue" stroke="midnightblue" points="501.5,-29.751 498,-19.7511 494.5,-29.7511 501.5,-29.751"/>
</g>
<!-- Node13 -->
<g id="node25" class="node"><title>Node13</title>
<polygon fill="none" stroke="#bfbfbf" points="545.5,-0.5 545.5,-19.5 610.5,-19.5 610.5,-0.5 545.5,-0.5"/>
<text text-anchor="middle" x="578" y="-7.5" font-family="DejaVuSansMono" font-size="10.00">string.h</text>
</g>
<!-- Node10&#45;&gt;Node13 -->
<g id="edge24" class="edge"><title>Node10&#45;&gt;Node13</title>
<path fill="none" stroke="midnightblue" d="M510.853,-56.324C523.216,-47.979 542.13,-35.2122 556.737,-25.3524"/>
<polygon fill="midnightblue" stroke="midnightblue" points="558.848,-28.1503 565.179,-19.6545 554.932,-22.3483 558.848,-28.1503"/>
</g>
<!-- Node14&#45;&gt;Node7 -->
<g id="edge32" class="edge"><title>Node14&#45;&gt;Node7</title>
<path fill="none" stroke="midnightblue" d="M833.576,-56.324C818.46,-47.8215 795.185,-34.7288 777.529,-24.7975"/>
<polygon fill="midnightblue" stroke="midnightblue" points="778.817,-21.5066 768.386,-19.6545 775.386,-27.6077 778.817,-21.5066"/>
</g>
<!-- Node15 -->
<g id="node29" class="node"><title>Node15</title>
<polygon fill="none" stroke="#bfbfbf" points="818.5,-0.5 818.5,-19.5 889.5,-19.5 889.5,-0.5 818.5,-0.5"/>
<text text-anchor="middle" x="854" y="-7.5" font-family="DejaVuSansMono" font-size="10.00">stdbool.h</text>
</g>
<!-- Node14&#45;&gt;Node15 -->
<g id="edge28" class="edge"><title>Node14&#45;&gt;Node15</title>
<path fill="none" stroke="midnightblue" d="M849.826,-56.083C850.481,-49.0059 851.42,-38.8611 852.242,-29.9865"/>
<polygon fill="midnightblue" stroke="midnightblue" points="855.753,-30.0312 853.19,-19.7511 848.783,-29.3858 855.753,-30.0312"/>
</g>
<!-- Node16 -->
<g id="node31" class="node"><title>Node16</title>
<polygon fill="none" stroke="#bfbfbf" points="907.5,-0.5 907.5,-19.5 996.5,-19.5 996.5,-0.5 907.5,-0.5"/>
<text text-anchor="middle" x="952" y="-7.5" font-family="DejaVuSansMono" font-size="10.00">netinet/in.h</text>
</g>
<!-- Node14&#45;&gt;Node16 -->
<g id="edge30" class="edge"><title>Node14&#45;&gt;Node16</title>
<path fill="none" stroke="midnightblue" d="M865.549,-56.324C881.992,-47.7034 907.435,-34.3643 926.468,-24.3855"/>
<polygon fill="midnightblue" stroke="midnightblue" points="928.261,-27.3977 935.492,-19.6545 925.011,-21.198 928.261,-27.3977"/>
</g>
</g>
</svg>
        <g id="navigator" transform="translate(0 0)" fill="#404254">
                <rect fill="#f2f5e9" fill-opacity="0.5" stroke="#606060" stroke-width=".5" x="0" y="0" width="60" height="60"/>
                <use id="zoomplus" xlink:href="#zoomPlus" x="17" y="9" onmousedown="handleZoom(evt,'in')"/>
                <use id="zoomminus" xlink:href="#zoomMin" x="42" y="9" onmousedown="handleZoom(evt,'out')"/>
                <use id="reset" xlink:href="#resetDef" x="30" y="36" onmousedown="handleReset()"/>
                <g id="arrowUp" xlink:href="#dirArrow" transform="translate(30 24)" onmousedown="handlePan(0,-1)">
                  <use xlink:href="#rim" fill="#404040">
                        <set attributeName="fill" to="#808080" begin="arrowUp.mouseover" end="arrowUp.mouseout"/>
                  </use>
                  <path fill="none" stroke="white" stroke-width="1.5" d="M0,-3.0v7 M-2.5,-0.5L0,-3.0L2.5,-0.5"/>
                </g>
                <g id="arrowRight" xlink:href="#dirArrow" transform="rotate(90) translate(36 -43)" onmousedown="handlePan(1,0)">
                  <use xlink:href="#rim" fill="#404040">
                        <set attributeName="fill" to="#808080" begin="arrowRight.mouseover" end="arrowRight.mouseout"/>
                  </use>
                  <path fill="none" stroke="white" stroke-width="1.5" d="M0,-3.0v7 M-2.5,-0.5L0,-3.0L2.5,-0.5"/>
                </g>
                <g id="arrowDown" xlink:href="#dirArrow" transform="rotate(180) translate(-30 -48)" onmousedown="handlePan(0,1)">
                  <use xlink:href="#rim" fill="#404040">
                        <set attributeName="fill" to="#808080" begin="arrowDown.mouseover" end="arrowDown.mouseout"/>
                  </use>
                  <path fill="none" stroke="white" stroke-width="1.5" d="M0,-3.0v7 M-2.5,-0.5L0,-3.0L2.5,-0.5"/>
                </g>
                <g id="arrowLeft" xlink:href="#dirArrow" transform="rotate(270) translate(-36 17)" onmousedown="handlePan(-1,0)">
                  <use xlink:href="#rim" fill="#404040">
                        <set attributeName="fill" to="#808080" begin="arrowLeft.mouseover" end="arrowLeft.mouseout"/>
                  </use>
                  <path fill="none" stroke="white" stroke-width="1.5" d="M0,-3.0v7 M-2.5,-0.5L0,-3.0L2.5,-0.5"/>
                </g>
        </g>
        <svg viewBox="0 0 25 25" width="100%" height="30px" preserveAspectRatio="xMaxYMin meet"> 
          <g id="printButton" transform="scale(0.4 0.4)" onmousedown="handlePrint(evt)">
            <rect height="23.33753581" id="paper" rx="2" style="fill:#f2f5e9;fill-rule:evenodd;stroke:#111111;stroke-width:3.224;stroke-linejoin:round;" transform="matrix(1.000000,0.000000,-0.339266,0.940691,0.000000,0.000000)" width="25.55231285" x="26.69387353" y="7.36162977"/>
            <rect height="26.272097" id="body" rx="2" style="fill:#404040;fill-rule:evenodd;stroke:#111111;stroke-width:3.125;stroke-linejoin:round;" width="50" x="4.5295201" y="27.078951"/>
            <rect height="8.27750969" id="tray" style="fill:#d2d5c9;fill-rule:evenodd;stroke:#111111;stroke-width:3.125;stroke-linecap:round;stroke-linejoin:round;" width="40" x="10.28778839" y="44.96812282"/>
          </g>
        </svg>
</svg>
