<?xml version="1.0" encoding="UTF-8" standalone="no"?>
<!DOCTYPE svg PUBLIC "-//W3C//DTD SVG 1.1//EN"
 "http://www.w3.org/Graphics/SVG/1.1/DTD/svg11.dtd">
<!-- Generated by graphviz version 2.28.0 (20120217.0315)
 -->
<!-- Title: G Pages: 1 -->
<!--zoomable 140 -->
<svg id="main" version="1.1" xmlns="http://www.w3.org/2000/svg" xmlns:xlink="http://www.w3.org/1999/xlink" xml:space="preserve" onload="init(evt)">
        <defs>
                <circle id="rim" cx="0" cy="0" r="7"/>
                <circle id="rim2" cx="0" cy="0" r="3.5"/>
                <g id="zoomPlus">
                        <use xlink:href="#rim" fill="#404040">
                                <set attributeName="fill" to="#808080" begin="zoomplus.mouseover" end="zoomplus.mouseout"/>
                        </use>
                        <path d="M-4,0h8M0,-4v8" fill="none" stroke="white" stroke-width="1.5" pointer-events="none"/>
                </g>
                <g id="zoomMin">
                        <use xlink:href="#rim" fill="#404040">
                                <set attributeName="fill" to="#808080" begin="zoomminus.mouseover" end="zoomminus.mouseout"/>
                        </use>
                        <path d="M-4,0h8" fill="none" stroke="white" stroke-width="1.5" pointer-events="none"/>
                </g>
                <g id="dirArrow">
                        <path fill="none" stroke="white" stroke-width="1.5" d="M0,-3.0v7 M-2.5,-0.5L0,-3.0L2.5,-0.5"/>
                </g>
               <g id="resetDef">
                       <use xlink:href="#rim2" fill="#404040">
                               <set attributeName="fill" to="#808080" begin="reset.mouseover" end="reset.mouseout"/>
                       </use>
               </g>
        </defs>

<script type="text/javascript">
var viewWidth = 701;
var viewHeight = 140;
var sectionId = 'dynsection-0';
</script>
<script xlink:href="../../svgpan.js"/>
<svg id="graph" class="graph">
<g id="viewport">
<title>G</title>
<!-- Node1 -->
<g id="node1" class="node"><title>Node1</title>
<polygon fill="#bfbfbf" stroke="black" points="267.5,-112.5 267.5,-131.5 386.5,-131.5 386.5,-112.5 267.5,-112.5"/>
<text text-anchor="middle" x="327" y="-119.5" font-family="DejaVuSansMono" font-size="10.00">src/xmpp_stanza.c</text>
</g>
<!-- Node2 -->
<g id="node3" class="node"><title>Node2</title>
<polygon fill="none" stroke="#bfbfbf" points="-0.5,-56.5 -0.5,-75.5 64.5,-75.5 64.5,-56.5 -0.5,-56.5"/>
<text text-anchor="middle" x="32" y="-63.5" font-family="DejaVuSansMono" font-size="10.00">stdlib.h</text>
</g>
<!-- Node1&#45;&gt;Node2 -->
<g id="edge2" class="edge"><title>Node1&#45;&gt;Node2</title>
<path fill="none" stroke="midnightblue" d="M275.318,-112.478C226.122,-104.223 149.759,-91.0411 74.7422,-76.2886"/>
<polygon fill="midnightblue" stroke="midnightblue" points="75.1377,-72.7991 64.6486,-74.2924 73.7795,-79.6661 75.1377,-72.7991"/>
</g>
<!-- Node3 -->
<g id="node5" class="node"><title>Node3</title>
<polygon fill="none" stroke="#bfbfbf" points="82.5,-56.5 82.5,-75.5 147.5,-75.5 147.5,-56.5 82.5,-56.5"/>
<text text-anchor="middle" x="115" y="-63.5" font-family="DejaVuSansMono" font-size="10.00">uthash.h</text>
</g>
<!-- Node1&#45;&gt;Node3 -->
<g id="edge4" class="edge"><title>Node1&#45;&gt;Node3</title>
<path fill="none" stroke="midnightblue" d="M293.408,-112.444C256.597,-103.067 197.471,-88.0068 157.471,-77.818"/>
<polygon fill="midnightblue" stroke="midnightblue" points="158.293,-74.4157 147.738,-75.339 156.565,-81.1991 158.293,-74.4157"/>
</g>
<!-- Node4 -->
<g id="node7" class="node"><title>Node4</title>
<polygon fill="none" stroke="#bfbfbf" points="165.5,-56.5 165.5,-75.5 230.5,-75.5 230.5,-56.5 165.5,-56.5"/>
<text text-anchor="middle" x="198" y="-63.5" font-family="DejaVuSansMono" font-size="10.00">utlist.h</text>
</g>
<!-- Node1&#45;&gt;Node4 -->
<g id="edge6" class="edge"><title>Node1&#45;&gt;Node4</title>
<path fill="none" stroke="midnightblue" d="M306.56,-112.444C285.33,-103.557 251.901,-89.5632 227.745,-79.4514"/>
<polygon fill="midnightblue" stroke="midnightblue" points="228.921,-76.1493 218.345,-75.5164 226.218,-82.6064 228.921,-76.1493"/>
</g>
<!-- Node5 -->
<g id="node9" class="node"><title>Node5</title>
<polygon fill="none" stroke="#bfbfbf" points="248.5,-56.5 248.5,-75.5 325.5,-75.5 325.5,-56.5 248.5,-56.5"/>
<text text-anchor="middle" x="287" y="-63.5" font-family="DejaVuSansMono" font-size="10.00">utstring.h</text>
</g>
<!-- Node1&#45;&gt;Node5 -->
<g id="edge8" class="edge"><title>Node1&#45;&gt;Node5</title>
<path fill="none" stroke="midnightblue" d="M320.395,-112.083C314.745,-104.455 306.455,-93.2645 299.549,-83.9408"/>
<polygon fill="midnightblue" stroke="midnightblue" points="302.247,-81.7034 293.482,-75.7511 296.622,-85.87 302.247,-81.7034"/>
</g>
<!-- Node6 -->
<g id="node11" class="node"><title>Node6</title>
<a xlink:href="../../d7/d7f/log_8h.html" target="_top" xlink:title="Debugging and logging functions/macros.">
<polygon fill="none" stroke="black" points="343.5,-56.5 343.5,-75.5 390.5,-75.5 390.5,-56.5 343.5,-56.5"/>
<text text-anchor="middle" x="367" y="-63.5" font-family="DejaVuSansMono" font-size="10.00">log.h</text>
</a>
</g>
<!-- Node1&#45;&gt;Node6 -->
<g id="edge10" class="edge"><title>Node1&#45;&gt;Node6</title>
<path fill="none" stroke="midnightblue" d="M333.605,-112.083C339.255,-104.455 347.545,-93.2645 354.451,-83.9408"/>
<polygon fill="midnightblue" stroke="midnightblue" points="357.378,-85.87 360.518,-75.7511 351.753,-81.7034 357.378,-85.87"/>
</g>
<!-- Node10 -->
<g id="node19" class="node"><title>Node10</title>
<a xlink:href="../../d5/d60/utils_8h.html" target="_top" xlink:title="Miscellaneous utility functions.">
<polygon fill="none" stroke="black" points="408.5,-56.5 408.5,-75.5 467.5,-75.5 467.5,-56.5 408.5,-56.5"/>
<text text-anchor="middle" x="438" y="-63.5" font-family="DejaVuSansMono" font-size="10.00">utils.h</text>
</a>
</g>
<!-- Node1&#45;&gt;Node10 -->
<g id="edge18" class="edge"><title>Node1&#45;&gt;Node10</title>
<path fill="none" stroke="midnightblue" d="M344.834,-112.324C362.716,-103.625 390.475,-90.1202 411.046,-80.113"/>
<polygon fill="midnightblue" stroke="midnightblue" points="412.749,-83.1765 420.21,-75.6545 409.687,-76.8819 412.749,-83.1765"/>
</g>
<!-- Node12 -->
<g id="node24" class="node"><title>Node12</title>
<a xlink:href="../../d8/d55/xmpp__parser_8h.html" target="_top" xlink:title="DOM&#45;style XML parser for XMPP stanzas.">
<polygon fill="none" stroke="black" points="485.5,-56.5 485.5,-75.5 580.5,-75.5 580.5,-56.5 485.5,-56.5"/>
<text text-anchor="middle" x="533" y="-63.5" font-family="DejaVuSansMono" font-size="10.00">xmpp_parser.h</text>
</a>
</g>
<!-- Node1&#45;&gt;Node12 -->
<g id="edge24" class="edge"><title>Node1&#45;&gt;Node12</title>
<path fill="none" stroke="midnightblue" d="M359.641,-112.444C395.05,-103.162 451.709,-88.3093 490.553,-78.127"/>
<polygon fill="midnightblue" stroke="midnightblue" points="491.726,-81.4378 500.511,-75.5164 489.951,-74.6666 491.726,-81.4378"/>
</g>
<!-- Node13 -->
<g id="node27" class="node"><title>Node13</title>
<a xlink:href="../../dd/d21/xmpp__stanza_8h.html" target="_top" xlink:title="Represents top&#45;level XMPP stanzas received from clients.">
<polygon fill="none" stroke="black" points="598.5,-56.5 598.5,-75.5 693.5,-75.5 693.5,-56.5 598.5,-56.5"/>
<text text-anchor="middle" x="646" y="-63.5" font-family="DejaVuSansMono" font-size="10.00">xmpp_stanza.h</text>
</a>
</g>
<!-- Node1&#45;&gt;Node13 -->
<g id="edge28" class="edge"><title>Node1&#45;&gt;Node13</title>
<path fill="none" stroke="midnightblue" d="M377.546,-112.444C434.842,-102.745 528.068,-86.9633 588.204,-76.7837"/>
<polygon fill="midnightblue" stroke="midnightblue" points="589.019,-80.1955 598.295,-75.0755 587.851,-73.2937 589.019,-80.1955"/>
</g>
<!-- Node7 -->
<g id="node13" class="node"><title>Node7</title>
<polygon fill="none" stroke="#bfbfbf" points="255.5,-0.5 255.5,-19.5 314.5,-19.5 314.5,-0.5 255.5,-0.5"/>
<text text-anchor="middle" x="285" y="-7.5" font-family="DejaVuSansMono" font-size="10.00">stdio.h</text>
</g>
<!-- Node6&#45;&gt;Node7 -->
<g id="edge12" class="edge"><title>Node6&#45;&gt;Node7</title>
<path fill="none" stroke="midnightblue" d="M353.825,-56.324C341.153,-47.979 321.767,-35.2122 306.794,-25.3524"/>
<polygon fill="midnightblue" stroke="midnightblue" points="308.419,-22.2313 298.142,-19.6545 304.569,-28.0776 308.419,-22.2313"/>
</g>
<!-- Node8 -->
<g id="node15" class="node"><title>Node8</title>
<polygon fill="none" stroke="#bfbfbf" points="332.5,-0.5 332.5,-19.5 391.5,-19.5 391.5,-0.5 332.5,-0.5"/>
<text text-anchor="middle" x="362" y="-7.5" font-family="DejaVuSansMono" font-size="10.00">errno.h</text>
</g>
<!-- Node6&#45;&gt;Node8 -->
<g id="edge14" class="edge"><title>Node6&#45;&gt;Node8</title>
<path fill="none" stroke="midnightblue" d="M366.174,-56.083C365.519,-49.0059 364.58,-38.8611 363.758,-29.9865"/>
<polygon fill="midnightblue" stroke="midnightblue" points="367.217,-29.3858 362.81,-19.7511 360.247,-30.0312 367.217,-29.3858"/>
</g>
<!-- Node9 -->
<g id="node17" class="node"><title>Node9</title>
<polygon fill="none" stroke="#bfbfbf" points="409.5,-0.5 409.5,-19.5 474.5,-19.5 474.5,-0.5 409.5,-0.5"/>
<text text-anchor="middle" x="442" y="-7.5" font-family="DejaVuSansMono" font-size="10.00">string.h</text>
</g>
<!-- Node6&#45;&gt;Node9 -->
<g id="edge16" class="edge"><title>Node6&#45;&gt;Node9</title>
<path fill="none" stroke="midnightblue" d="M379.05,-56.324C390.463,-48.1066 407.831,-35.6017 421.435,-25.8069"/>
<polygon fill="midnightblue" stroke="midnightblue" points="423.66,-28.5174 429.731,-19.8339 419.57,-22.8366 423.66,-28.5174"/>
</g>
<!-- Node10&#45;&gt;Node9 -->
<g id="edge22" class="edge"><title>Node10&#45;&gt;Node9</title>
<path fill="none" stroke="midnightblue" d="M438.661,-56.083C439.185,-49.0059 439.936,-38.8611 440.594,-29.9865"/>
<polygon fill="midnightblue" stroke="midnightblue" points="444.103,-29.9823 441.352,-19.7511 437.123,-29.4652 444.103,-29.9823"/>
</g>
<!-- Node11 -->
<g id="node21" class="node"><title>Node11</title>
<polygon fill="none" stroke="#bfbfbf" points="497.5,-0.5 497.5,-19.5 568.5,-19.5 568.5,-0.5 497.5,-0.5"/>
<text text-anchor="middle" x="533" y="-7.5" font-family="DejaVuSansMono" font-size="10.00">stdbool.h</text>
</g>
<!-- Node10&#45;&gt;Node11 -->
<g id="edge20" class="edge"><title>Node10&#45;&gt;Node11</title>
<path fill="none" stroke="midnightblue" d="M453.263,-56.324C468.221,-47.8215 491.255,-34.7288 508.727,-24.7975"/>
<polygon fill="midnightblue" stroke="midnightblue" points="510.81,-27.639 517.774,-19.6545 507.351,-21.5534 510.81,-27.639"/>
</g>
<!-- Node12&#45;&gt;Node11 -->
<g id="edge26" class="edge"><title>Node12&#45;&gt;Node11</title>
<path fill="none" stroke="midnightblue" d="M533,-56.083C533,-49.0059 533,-38.8611 533,-29.9865"/>
<polygon fill="midnightblue" stroke="midnightblue" points="536.5,-29.751 533,-19.7511 529.5,-29.7511 536.5,-29.751"/>
</g>
<!-- Node13&#45;&gt;Node11 -->
<g id="edge30" class="edge"><title>Node13&#45;&gt;Node11</title>
<path fill="none" stroke="midnightblue" d="M628.095,-56.4435C609.746,-47.6751 580.995,-33.9355 559.906,-23.8579"/>
<polygon fill="midnightblue" stroke="midnightblue" points="561.353,-20.6703 550.821,-19.5164 558.335,-26.9862 561.353,-20.6703"/>
</g>
</g>
</svg>
        <g id="navigator" transform="translate(0 0)" fill="#404254">
                <rect fill="#f2f5e9" fill-opacity="0.5" stroke="#606060" stroke-width=".5" x="0" y="0" width="60" height="60"/>
                <use id="zoomplus" xlink:href="#zoomPlus" x="17" y="9" onmousedown="handleZoom(evt,'in')"/>
                <use id="zoomminus" xlink:href="#zoomMin" x="42" y="9" onmousedown="handleZoom(evt,'out')"/>
                <use id="reset" xlink:href="#resetDef" x="30" y="36" onmousedown="handleReset()"/>
                <g id="arrowUp" xlink:href="#dirArrow" transform="translate(30 24)" onmousedown="handlePan(0,-1)">
                  <use xlink:href="#rim" fill="#404040">
                        <set attributeName="fill" to="#808080" begin="arrowUp.mouseover" end="arrowUp.mouseout"/>
                  </use>
                  <path fill="none" stroke="white" stroke-width="1.5" d="M0,-3.0v7 M-2.5,-0.5L0,-3.0L2.5,-0.5"/>
                </g>
                <g id="arrowRight" xlink:href="#dirArrow" transform="rotate(90) translate(36 -43)" onmousedown="handlePan(1,0)">
                  <use xlink:href="#rim" fill="#404040">
                        <set attributeName="fill" to="#808080" begin="arrowRight.mouseover" end="arrowRight.mouseout"/>
                  </use>
                  <path fill="none" stroke="white" stroke-width="1.5" d="M0,-3.0v7 M-2.5,-0.5L0,-3.0L2.5,-0.5"/>
                </g>
                <g id="arrowDown" xlink:href="#dirArrow" transform="rotate(180) translate(-30 -48)" onmousedown="handlePan(0,1)">
                  <use xlink:href="#rim" fill="#404040">
                        <set attributeName="fill" to="#808080" begin="arrowDown.mouseover" end="arrowDown.mouseout"/>
                  </use>
                  <path fill="none" stroke="white" stroke-width="1.5" d="M0,-3.0v7 M-2.5,-0.5L0,-3.0L2.5,-0.5"/>
                </g>
                <g id="arrowLeft" xlink:href="#dirArrow" transform="rotate(270) translate(-36 17)" onmousedown="handlePan(-1,0)">
                  <use xlink:href="#rim" fill="#404040">
                        <set attributeName="fill" to="#808080" begin="arrowLeft.mouseover" end="arrowLeft.mouseout"/>
                  </use>
                  <path fill="none" stroke="white" stroke-width="1.5" d="M0,-3.0v7 M-2.5,-0.5L0,-3.0L2.5,-0.5"/>
                </g>
        </g>
        <svg viewBox="0 0 25 25" width="100%" height="30px" preserveAspectRatio="xMaxYMin meet"> 
          <g id="printButton" transform="scale(0.4 0.4)" onmousedown="handlePrint(evt)">
            <rect height="23.33753581" id="paper" rx="2" style="fill:#f2f5e9;fill-rule:evenodd;stroke:#111111;stroke-width:3.224;stroke-linejoin:round;" transform="matrix(1.000000,0.000000,-0.339266,0.940691,0.000000,0.000000)" width="25.55231285" x="26.69387353" y="7.36162977"/>
            <rect height="26.272097" id="body" rx="2" style="fill:#404040;fill-rule:evenodd;stroke:#111111;stroke-width:3.125;stroke-linejoin:round;" width="50" x="4.5295201" y="27.078951"/>
            <rect height="8.27750969" id="tray" style="fill:#d2d5c9;fill-rule:evenodd;stroke:#111111;stroke-width:3.125;stroke-linecap:round;stroke-linejoin:round;" width="40" x="10.28778839" y="44.96812282"/>
          </g>
        </svg>
</svg>
