<?xml version="1.0" encoding="UTF-8" standalone="no"?>
<!DOCTYPE svg PUBLIC "-//W3C//DTD SVG 1.1//EN"
 "http://www.w3.org/Graphics/SVG/1.1/DTD/svg11.dtd">
<!-- Generated by graphviz version 2.28.0 (20120217.0315)
 -->
<!-- Title: G Pages: 1 -->
<svg width="488pt" height="28pt"
 viewBox="0.00 0.00 488.00 28.00" xmlns="http://www.w3.org/2000/svg" xmlns:xlink="http://www.w3.org/1999/xlink">
<g id="graph1" class="graph" transform="scale(1 1) rotate(0) translate(4 24)">
<title>G</title>
<!-- Node1 -->
<g id="node1" class="node"><title>Node1</title>
<polygon fill="#bfbfbf" stroke="black" points="0.5,-0.5 0.5,-19.5 119.5,-19.5 119.5,-0.5 0.5,-0.5"/>
<text text-anchor="middle" x="60" y="-7.5" font-family="DejaVuSansMono" font-size="10.00">client_socket_new</text>
</g>
<!-- Node2 -->
<g id="node3" class="node"><title>Node2</title>
<a xlink:href="../../d0/df0/xmpp__server_8c.html#a66363912ef1221a2574f9f99805fe8fd" target="_top" xlink:title="Callback for new client connections.">
<polygon fill="none" stroke="black" points="156.5,-0.5 156.5,-19.5 257.5,-19.5 257.5,-0.5 156.5,-0.5"/>
<text text-anchor="middle" x="207" y="-7.5" font-family="DejaVuSansMono" font-size="10.00">connect_client</text>
</a>
</g>
<!-- Node1&#45;&gt;Node2 -->
<g id="edge2" class="edge"><title>Node1&#45;&gt;Node2</title>
<path fill="none" stroke="midnightblue" d="M129.58,-10C138.512,-10 147.523,-10 156.069,-10"/>
<polygon fill="midnightblue" stroke="midnightblue" points="129.559,-6.5001 119.559,-10 129.559,-13.5001 129.559,-6.5001"/>
</g>
<!-- Node3 -->
<g id="node5" class="node"><title>Node3</title>
<a xlink:href="../../d1/d2e/xmpp__server_8h.html#a27bfc8e4d424a8bc17ab21a4a09cdf92" target="_top" xlink:title="Allocates and initializes the XMPP server.">
<polygon fill="none" stroke="black" points="294.5,-0.5 294.5,-19.5 401.5,-19.5 401.5,-0.5 294.5,-0.5"/>
<text text-anchor="middle" x="348" y="-7.5" font-family="DejaVuSansMono" font-size="10.00">xmpp_server_new</text>
</a>
</g>
<!-- Node2&#45;&gt;Node3 -->
<g id="edge4" class="edge"><title>Node2&#45;&gt;Node3</title>
<path fill="none" stroke="midnightblue" d="M267.943,-10C276.703,-10 285.669,-10 294.27,-10"/>
<polygon fill="midnightblue" stroke="midnightblue" points="267.79,-6.5001 257.79,-10 267.79,-13.5001 267.79,-6.5001"/>
</g>
<!-- Node4 -->
<g id="node7" class="node"><title>Node4</title>
<a xlink:href="../../d0/d29/main_8c.html#a0ddf1224851353fc92bfbff6f499fa97" target="_top" xlink:title="main">
<polygon fill="none" stroke="black" points="438.5,-0.5 438.5,-19.5 479.5,-19.5 479.5,-0.5 438.5,-0.5"/>
<text text-anchor="middle" x="459" y="-7.5" font-family="DejaVuSansMono" font-size="10.00">main</text>
</a>
</g>
<!-- Node3&#45;&gt;Node4 -->
<g id="edge6" class="edge"><title>Node3&#45;&gt;Node4</title>
<path fill="none" stroke="midnightblue" d="M411.751,-10C421.434,-10 430.761,-10 438.472,-10"/>
<polygon fill="midnightblue" stroke="midnightblue" points="411.584,-6.5001 401.584,-10 411.584,-13.5001 411.584,-6.5001"/>
</g>
</g>
</svg>
