<?xml version="1.0" encoding="UTF-8" standalone="no"?>
<!DOCTYPE svg PUBLIC "-//W3C//DTD SVG 1.1//EN"
 "http://www.w3.org/Graphics/SVG/1.1/DTD/svg11.dtd">
<!-- Generated by graphviz version 2.28.0 (20120217.0315)
 -->
<!-- Title: G Pages: 1 -->
<!--zoomable 295 -->
<svg id="main" version="1.1" xmlns="http://www.w3.org/2000/svg" xmlns:xlink="http://www.w3.org/1999/xlink" xml:space="preserve" onload="init(evt)">
        <defs>
                <circle id="rim" cx="0" cy="0" r="7"/>
                <circle id="rim2" cx="0" cy="0" r="3.5"/>
                <g id="zoomPlus">
                        <use xlink:href="#rim" fill="#404040">
                                <set attributeName="fill" to="#808080" begin="zoomplus.mouseover" end="zoomplus.mouseout"/>
                        </use>
                        <path d="M-4,0h8M0,-4v8" fill="none" stroke="white" stroke-width="1.5" pointer-events="none"/>
                </g>
                <g id="zoomMin">
                        <use xlink:href="#rim" fill="#404040">
                                <set attributeName="fill" to="#808080" begin="zoomminus.mouseover" end="zoomminus.mouseout"/>
                        </use>
                        <path d="M-4,0h8" fill="none" stroke="white" stroke-width="1.5" pointer-events="none"/>
                </g>
                <g id="dirArrow">
                        <path fill="none" stroke="white" stroke-width="1.5" d="M0,-3.0v7 M-2.5,-0.5L0,-3.0L2.5,-0.5"/>
                </g>
               <g id="resetDef">
                       <use xlink:href="#rim2" fill="#404040">
                               <set attributeName="fill" to="#808080" begin="reset.mouseover" end="reset.mouseout"/>
                       </use>
               </g>
        </defs>

<script type="text/javascript">
var viewWidth = 1826;
var viewHeight = 295;
var sectionId = 'dynsection-12';
</script>
<script xlink:href="../../svgpan.js"/>
<svg id="graph" class="graph">
<g id="viewport">
<title>G</title>
<!-- Node1 -->
<g id="node1" class="node"><title>Node1</title>
<polygon fill="#bfbfbf" stroke="black" points="0.5,-163.639 0.5,-182.639 143.5,-182.639 143.5,-163.639 0.5,-163.639"/>
<text text-anchor="middle" x="72" y="-170.639" font-family="DejaVuSansMono" font-size="10.00">client_socket_sendall</text>
</g>
<!-- Node2 -->
<g id="node3" class="node"><title>Node2</title>
<a xlink:href="../../d3/d24/xmpp__auth_8h.html#ad3efd9ab093646bdfd8832c34ae2de4d" target="_top" xlink:title="Handler for the inital stream start to begin authentication.">
<polygon fill="none" stroke="black" points="1137.5,-182.639 1137.5,-201.639 1286.5,-201.639 1286.5,-182.639 1137.5,-182.639"/>
<text text-anchor="middle" x="1212" y="-189.639" font-family="DejaVuSansMono" font-size="10.00">xmpp_auth_stream_start</text>
</a>
</g>
<!-- Node1&#45;&gt;Node2 -->
<g id="edge2" class="edge"><title>Node1&#45;&gt;Node2</title>
<path fill="none" stroke="midnightblue" d="M92.2341,-189.139C112.697,-205.304 146.654,-229.749 180,-243.139 279.013,-282.895 309.304,-287.139 416,-287.139 416,-287.139 416,-287.139 877,-287.139 1000.89,-287.139 1141.1,-225.922 1191.6,-201.77"/>
<polygon fill="midnightblue" stroke="midnightblue" points="94.3152,-186.321 84.3317,-182.774 89.9243,-191.772 94.3152,-186.321"/>
</g>
<!-- Node7 -->
<g id="node13" class="node"><title>Node7</title>
<a xlink:href="../../df/da9/xmpp__auth_8c.html#afd7b12689591d40109a88ad108b5c3a2" target="_top" xlink:title="stream_sasl_start">
<polygon fill="none" stroke="black" points="816.5,-201.639 816.5,-220.639 935.5,-220.639 935.5,-201.639 816.5,-201.639"/>
<text text-anchor="middle" x="876" y="-208.639" font-family="DejaVuSansMono" font-size="10.00">stream_sasl_start</text>
</a>
</g>
<!-- Node1&#45;&gt;Node7 -->
<g id="edge12" class="edge"><title>Node1&#45;&gt;Node7</title>
<path fill="none" stroke="midnightblue" d="M136.188,-184.367C204.832,-195.574 317.839,-211.139 416,-211.139 416,-211.139 416,-211.139 565,-211.139 652.591,-211.139 754.104,-211.139 816.435,-211.139"/>
<polygon fill="midnightblue" stroke="midnightblue" points="136.412,-180.857 125.975,-182.679 135.27,-187.763 136.412,-180.857"/>
</g>
<!-- Node8 -->
<g id="node15" class="node"><title>Node8</title>
<a xlink:href="../../df/da9/xmpp__auth_8c.html#a8dd789e057b9812e4dd1aa524dfb6a65" target="_top" xlink:title="Begins TLS authentication.">
<polygon fill="none" stroke="black" points="972.5,-201.639 972.5,-220.639 1079.5,-220.639 1079.5,-201.639 972.5,-201.639"/>
<text text-anchor="middle" x="1026" y="-208.639" font-family="DejaVuSansMono" font-size="10.00">handle_starttls</text>
</a>
</g>
<!-- Node1&#45;&gt;Node8 -->
<g id="edge26" class="edge"><title>Node1&#45;&gt;Node8</title>
<path fill="none" stroke="midnightblue" d="M104.1,-186.713C125.163,-195.418 153.821,-206.327 180,-213.139 282.683,-239.857 309.898,-249.139 416,-249.139 416,-249.139 416,-249.139 721,-249.139 816.928,-249.139 841.138,-244.401 936,-230.139 952.249,-227.696 969.984,-224.102 985.316,-220.695"/>
<polygon fill="midnightblue" stroke="midnightblue" points="105.279,-183.412 94.7039,-182.767 102.569,-189.866 105.279,-183.412"/>
</g>
<!-- Node9 -->
<g id="node18" class="node"><title>Node9</title>
<a xlink:href="../../df/da9/xmpp__auth_8c.html#a01804bd53eccc182ce76337fc0863e8d" target="_top" xlink:title="stream_bind_start">
<polygon fill="none" stroke="black" points="504.5,-125.639 504.5,-144.639 623.5,-144.639 623.5,-125.639 504.5,-125.639"/>
<text text-anchor="middle" x="564" y="-132.639" font-family="DejaVuSansMono" font-size="10.00">stream_bind_start</text>
</a>
</g>
<!-- Node1&#45;&gt;Node9 -->
<g id="edge18" class="edge"><title>Node1&#45;&gt;Node9</title>
<path fill="none" stroke="midnightblue" d="M150.221,-162.405C160.229,-161.199 170.35,-160.071 180,-159.139 294.558,-148.068 428.911,-141.009 504.178,-137.59"/>
<polygon fill="midnightblue" stroke="midnightblue" points="149.77,-158.934 140.274,-163.632 150.627,-165.881 149.77,-158.934"/>
</g>
<!-- Node10 -->
<g id="node20" class="node"><title>Node10</title>
<a xlink:href="../../df/da9/xmpp__auth_8c.html#afb770a216868aa3fb43813b19d2a0115" target="_top" xlink:title="Begins SASL PLAIN authentication.">
<polygon fill="none" stroke="black" points="660.5,-163.639 660.5,-182.639 779.5,-182.639 779.5,-163.639 660.5,-163.639"/>
<text text-anchor="middle" x="720" y="-170.639" font-family="DejaVuSansMono" font-size="10.00">handle_sasl_plain</text>
</a>
</g>
<!-- Node1&#45;&gt;Node10 -->
<g id="edge28" class="edge"><title>Node1&#45;&gt;Node10</title>
<path fill="none" stroke="midnightblue" d="M153.715,-173.139C285.574,-173.139 544.099,-173.139 660.152,-173.139"/>
<polygon fill="midnightblue" stroke="midnightblue" points="153.672,-169.639 143.672,-173.139 153.672,-176.639 153.672,-169.639"/>
</g>
<!-- Node11 -->
<g id="node26" class="node"><title>Node11</title>
<a xlink:href="../../df/da9/xmpp__auth_8c.html#a603b4a63af3c4e4af99442805fe89ae8" target="_top" xlink:title="Step 15: Client binds a resource.">
<polygon fill="none" stroke="black" points="366.5,-87.6386 366.5,-106.639 467.5,-106.639 467.5,-87.6386 366.5,-87.6386"/>
<text text-anchor="middle" x="417" y="-94.6386" font-family="DejaVuSansMono" font-size="10.00">handle_bind_iq</text>
</a>
</g>
<!-- Node1&#45;&gt;Node11 -->
<g id="edge30" class="edge"><title>Node1&#45;&gt;Node11</title>
<path fill="none" stroke="midnightblue" d="M97.1407,-158.347C118.21,-146.199 150.022,-129.657 180,-121.139 242.592,-103.353 317.819,-98.3792 366.243,-97.1777"/>
<polygon fill="midnightblue" stroke="midnightblue" points="95.1031,-155.485 88.2613,-163.574 98.6545,-161.517 95.1031,-155.485"/>
</g>
<!-- Node12 -->
<g id="node29" class="node"><title>Node12</title>
<a xlink:href="../../d8/d28/xmpp__core_8h.html#a3b41e83061abd7ed5b258c7aa7dda0d6" target="_top" xlink:title="An xmpp_server stanza route for stanzas directed to a local client.">
<polygon fill="none" stroke="black" points="180.5,-49.6386 180.5,-68.6386 329.5,-68.6386 329.5,-49.6386 180.5,-49.6386"/>
<text text-anchor="middle" x="255" y="-56.6386" font-family="DejaVuSansMono" font-size="10.00">xmpp_core_route_client</text>
</a>
</g>
<!-- Node1&#45;&gt;Node12 -->
<g id="edge34" class="edge"><title>Node1&#45;&gt;Node12</title>
<path fill="none" stroke="midnightblue" d="M88.7632,-156.404C108.411,-136.425 143.833,-103.201 180,-83.1386 190.866,-77.111 203.479,-72.3162 215.18,-68.6465"/>
<polygon fill="midnightblue" stroke="midnightblue" points="86.2422,-153.976 81.8078,-163.599 91.2748,-158.842 86.2422,-153.976"/>
</g>
<!-- Node3 -->
<g id="node5" class="node"><title>Node3</title>
<a xlink:href="../../d4/d2f/xmpp__client_8h.html#a1619c0b8f58b2cf09a322bf34fbc3414" target="_top" xlink:title="xmpp_client_new">
<polygon fill="none" stroke="black" points="1344.5,-106.639 1344.5,-125.639 1451.5,-125.639 1451.5,-106.639 1344.5,-106.639"/>
<text text-anchor="middle" x="1398" y="-113.639" font-family="DejaVuSansMono" font-size="10.00">xmpp_client_new</text>
</a>
</g>
<!-- Node2&#45;&gt;Node3 -->
<g id="edge4" class="edge"><title>Node2&#45;&gt;Node3</title>
<path fill="none" stroke="midnightblue" d="M1245.62,-178.667C1282.46,-163.448 1341.5,-139.063 1373.89,-125.686"/>
<polygon fill="midnightblue" stroke="midnightblue" points="1244.21,-175.461 1236.3,-182.513 1246.88,-181.93 1244.21,-175.461"/>
</g>
<!-- Node4 -->
<g id="node7" class="node"><title>Node4</title>
<a xlink:href="../../d0/df0/xmpp__server_8c.html#a66363912ef1221a2574f9f99805fe8fd" target="_top" xlink:title="Callback for new client connections.">
<polygon fill="none" stroke="black" points="1491.5,-49.6386 1491.5,-68.6386 1592.5,-68.6386 1592.5,-49.6386 1491.5,-49.6386"/>
<text text-anchor="middle" x="1542" y="-56.6386" font-family="DejaVuSansMono" font-size="10.00">connect_client</text>
</a>
</g>
<!-- Node3&#45;&gt;Node4 -->
<g id="edge6" class="edge"><title>Node3&#45;&gt;Node4</title>
<path fill="none" stroke="midnightblue" d="M1432.24,-102.798C1458.28,-92.3436 1493.88,-78.0512 1517.15,-68.7102"/>
<polygon fill="midnightblue" stroke="midnightblue" points="1430.74,-99.6247 1422.77,-106.598 1433.35,-106.121 1430.74,-99.6247"/>
</g>
<!-- Node5 -->
<g id="node9" class="node"><title>Node5</title>
<a xlink:href="../../d1/d2e/xmpp__server_8h.html#a27bfc8e4d424a8bc17ab21a4a09cdf92" target="_top" xlink:title="Allocates and initializes the XMPP server.">
<polygon fill="none" stroke="black" points="1632.5,-39.6386 1632.5,-58.6386 1739.5,-58.6386 1739.5,-39.6386 1632.5,-39.6386"/>
<text text-anchor="middle" x="1686" y="-46.6386" font-family="DejaVuSansMono" font-size="10.00">xmpp_server_new</text>
</a>
</g>
<!-- Node4&#45;&gt;Node5 -->
<g id="edge8" class="edge"><title>Node4&#45;&gt;Node5</title>
<path fill="none" stroke="midnightblue" d="M1602.73,-54.932C1612.53,-54.2423 1622.62,-53.5319 1632.23,-52.8551"/>
<polygon fill="midnightblue" stroke="midnightblue" points="1602.39,-51.4471 1592.66,-55.6411 1602.89,-58.4298 1602.39,-51.4471"/>
</g>
<!-- Node6 -->
<g id="node11" class="node"><title>Node6</title>
<a xlink:href="../../d0/d29/main_8c.html#a0ddf1224851353fc92bfbff6f499fa97" target="_top" xlink:title="main">
<polygon fill="none" stroke="black" points="1776.5,-20.6386 1776.5,-39.6386 1817.5,-39.6386 1817.5,-20.6386 1776.5,-20.6386"/>
<text text-anchor="middle" x="1797" y="-27.6386" font-family="DejaVuSansMono" font-size="10.00">main</text>
</a>
</g>
<!-- Node5&#45;&gt;Node6 -->
<g id="edge10" class="edge"><title>Node5&#45;&gt;Node6</title>
<path fill="none" stroke="midnightblue" d="M1749.45,-38.2537C1759.24,-36.5467 1768.68,-34.9008 1776.47,-33.5426"/>
<polygon fill="midnightblue" stroke="midnightblue" points="1748.83,-34.8072 1739.58,-39.9725 1750.04,-41.7032 1748.83,-34.8072"/>
</g>
<!-- Node7&#45;&gt;Node8 -->
<g id="edge14" class="edge"><title>Node7&#45;&gt;Node8</title>
<path fill="none" stroke="midnightblue" d="M946.085,-211.139C954.806,-211.139 963.619,-211.139 972.036,-211.139"/>
<polygon fill="midnightblue" stroke="midnightblue" points="945.919,-207.639 935.919,-211.139 945.919,-214.639 945.919,-207.639"/>
</g>
<!-- Node8&#45;&gt;Node2 -->
<g id="edge16" class="edge"><title>Node8&#45;&gt;Node2</title>
<path fill="none" stroke="midnightblue" d="M1090.06,-204.627C1105.29,-203.055 1121.69,-201.361 1137.36,-199.743"/>
<polygon fill="midnightblue" stroke="midnightblue" points="1089.31,-201.185 1079.73,-205.694 1090.03,-208.148 1089.31,-201.185"/>
</g>
<!-- Node9&#45;&gt;Node10 -->
<g id="edge20" class="edge"><title>Node9&#45;&gt;Node10</title>
<path fill="none" stroke="midnightblue" d="M613.794,-147.179C635.308,-152.487 660.232,-158.637 680.419,-163.619"/>
<polygon fill="midnightblue" stroke="midnightblue" points="614.408,-143.725 603.861,-144.728 612.731,-150.521 614.408,-143.725"/>
</g>
<!-- Node10&#45;&gt;Node2 -->
<g id="edge22" class="edge"><title>Node10&#45;&gt;Node2</title>
<path fill="none" stroke="midnightblue" d="M789.621,-175.799C881.253,-179.352 1042.93,-185.622 1137.14,-189.275"/>
<polygon fill="midnightblue" stroke="midnightblue" points="789.747,-172.302 779.619,-175.412 789.476,-179.296 789.747,-172.302"/>
</g>
<!-- Node10&#45;&gt;Node7 -->
<g id="edge24" class="edge"><title>Node10&#45;&gt;Node7</title>
<path fill="none" stroke="midnightblue" d="M769.794,-185.179C791.308,-190.487 816.232,-196.637 836.419,-201.619"/>
<polygon fill="midnightblue" stroke="midnightblue" points="770.408,-181.725 759.861,-182.728 768.731,-188.521 770.408,-181.725"/>
</g>
<!-- Node11&#45;&gt;Node9 -->
<g id="edge32" class="edge"><title>Node11&#45;&gt;Node9</title>
<path fill="none" stroke="midnightblue" d="M464.493,-109.323C484.624,-114.599 507.838,-120.682 526.673,-125.619"/>
<polygon fill="midnightblue" stroke="midnightblue" points="465.15,-105.877 454.59,-106.728 463.376,-112.648 465.15,-105.877"/>
</g>
<!-- Node12&#45;&gt;Node11 -->
<g id="edge36" class="edge"><title>Node12&#45;&gt;Node11</title>
<path fill="none" stroke="midnightblue" d="M306.392,-71.1066C328.813,-76.4317 354.847,-82.6148 375.916,-87.6185"/>
<polygon fill="midnightblue" stroke="midnightblue" points="306.913,-67.6331 296.375,-68.7276 305.295,-74.4437 306.913,-67.6331"/>
</g>
<!-- Node13 -->
<g id="node32" class="node"><title>Node13</title>
<a xlink:href="../../d4/d2f/xmpp__client_8h.html#add2df61245a543667b6d98e3fcd57077" target="_top" xlink:title="xmpp_client_del">
<polygon fill="none" stroke="black" points="972.5,-49.6386 972.5,-68.6386 1079.5,-68.6386 1079.5,-49.6386 972.5,-49.6386"/>
<text text-anchor="middle" x="1026" y="-56.6386" font-family="DejaVuSansMono" font-size="10.00">xmpp_client_del</text>
</a>
</g>
<!-- Node12&#45;&gt;Node13 -->
<g id="edge38" class="edge"><title>Node12&#45;&gt;Node13</title>
<path fill="none" stroke="midnightblue" d="M339.583,-59.1386C401.315,-59.1386 487.394,-59.1386 563,-59.1386 563,-59.1386 563,-59.1386 721,-59.1386 809.139,-59.1386 911.652,-59.1386 972.278,-59.1386"/>
<polygon fill="midnightblue" stroke="midnightblue" points="339.506,-55.6387 329.506,-59.1386 339.506,-62.6387 339.506,-55.6387"/>
</g>
<!-- Node13&#45;&gt;Node3 -->
<g id="edge40" class="edge"><title>Node13&#45;&gt;Node3</title>
<path fill="none" stroke="midnightblue" d="M1057.11,-72.6195C1074.07,-79.6174 1095.84,-87.6264 1116,-92.1386 1194.24,-109.646 1287.36,-114.576 1344.31,-115.855"/>
<polygon fill="midnightblue" stroke="midnightblue" points="1058.31,-69.3237 1047.73,-68.6503 1055.58,-75.7704 1058.31,-69.3237"/>
</g>
<!-- Node13&#45;&gt;Node4 -->
<g id="edge56" class="edge"><title>Node13&#45;&gt;Node4</title>
<path fill="none" stroke="midnightblue" d="M1089.88,-59.1386C1193.25,-59.1386 1396.99,-59.1386 1491.14,-59.1386"/>
<polygon fill="midnightblue" stroke="midnightblue" points="1089.59,-55.6387 1079.59,-59.1386 1089.59,-62.6387 1089.59,-55.6387"/>
</g>
<!-- Node14 -->
<g id="node35" class="node"><title>Node14</title>
<a xlink:href="../../d1/d2e/xmpp__server_8h.html#af7d75415fd5671841797bf77bbc1a981" target="_top" xlink:title="Cleans up an XMPP server instance.">
<polygon fill="none" stroke="black" points="1488.5,-1.63857 1488.5,-20.6386 1595.5,-20.6386 1595.5,-1.63857 1488.5,-1.63857"/>
<text text-anchor="middle" x="1542" y="-8.63857" font-family="DejaVuSansMono" font-size="10.00">xmpp_server_del</text>
</a>
</g>
<!-- Node13&#45;&gt;Node14 -->
<g id="edge42" class="edge"><title>Node13&#45;&gt;Node14</title>
<path fill="none" stroke="midnightblue" d="M1053,-44.9169C1070.3,-36.2496 1093.83,-25.945 1116,-21.1386 1247.46,7.36556 1407.14,0.352921 1488.24,-6.05322"/>
<polygon fill="midnightblue" stroke="midnightblue" points="1051.36,-41.8233 1044.08,-49.5183 1054.57,-48.0444 1051.36,-41.8233"/>
</g>
<!-- Node15 -->
<g id="node39" class="node"><title>Node15</title>
<a xlink:href="../../d1/d2e/xmpp__server_8h.html#a79e02871228c509de0c70961d74a1bcb" target="_top" xlink:title="Attempt to cleanly disconnect a client, and clean up its resources.">
<polygon fill="none" stroke="black" points="1116.5,-30.6386 1116.5,-49.6386 1307.5,-49.6386 1307.5,-30.6386 1116.5,-30.6386"/>
<text text-anchor="middle" x="1212" y="-37.6386" font-family="DejaVuSansMono" font-size="10.00">xmpp_server_disconnect_client</text>
</a>
</g>
<!-- Node13&#45;&gt;Node15 -->
<g id="edge48" class="edge"><title>Node13&#45;&gt;Node15</title>
<path fill="none" stroke="midnightblue" d="M1089.77,-52.6572C1099.2,-51.6827 1109.1,-50.6609 1119,-49.639"/>
<polygon fill="midnightblue" stroke="midnightblue" points="1089.31,-49.1852 1079.73,-53.6939 1090.03,-56.1482 1089.31,-49.1852"/>
</g>
<!-- Node14&#45;&gt;Node5 -->
<g id="edge46" class="edge"><title>Node14&#45;&gt;Node5</title>
<path fill="none" stroke="midnightblue" d="M1588.49,-23.3127C1608.13,-28.5673 1630.77,-34.6252 1649.18,-39.5526"/>
<polygon fill="midnightblue" stroke="midnightblue" points="1589.4,-19.9317 1578.83,-20.7276 1587.59,-26.6938 1589.4,-19.9317"/>
</g>
<!-- Node14&#45;&gt;Node6 -->
<g id="edge44" class="edge"><title>Node14&#45;&gt;Node6</title>
<path fill="none" stroke="midnightblue" d="M1605.9,-15.8621C1661.84,-20.0631 1740.21,-25.9485 1776.34,-28.6619"/>
<polygon fill="midnightblue" stroke="midnightblue" points="1605.96,-12.3573 1595.73,-15.0985 1605.44,-19.3376 1605.96,-12.3573"/>
</g>
<!-- Node15&#45;&gt;Node12 -->
<g id="edge50" class="edge"><title>Node15&#45;&gt;Node12</title>
<path fill="none" stroke="midnightblue" d="M1106.05,-31.1036C1040.3,-26.2038 953.769,-21.1386 877,-21.1386 563,-21.1386 563,-21.1386 563,-21.1386 470.493,-21.1386 363.485,-38.3423 303.371,-49.5986"/>
<polygon fill="midnightblue" stroke="midnightblue" points="1106.19,-34.6236 1116.42,-31.8878 1106.72,-27.6436 1106.19,-34.6236"/>
</g>
<!-- Node16 -->
<g id="node42" class="node"><title>Node16</title>
<a xlink:href="../../d0/df0/xmpp__server_8c.html#abece91815ef240322d79073f5bfca1db" target="_top" xlink:title="Callback for new data from a client.">
<polygon fill="none" stroke="black" points="1356.5,-30.6386 1356.5,-49.6386 1439.5,-49.6386 1439.5,-30.6386 1356.5,-30.6386"/>
<text text-anchor="middle" x="1398" y="-37.6386" font-family="DejaVuSansMono" font-size="10.00">read_client</text>
</a>
</g>
<!-- Node15&#45;&gt;Node16 -->
<g id="edge52" class="edge"><title>Node15&#45;&gt;Node16</title>
<path fill="none" stroke="midnightblue" d="M1318.07,-40.1386C1331.56,-40.1386 1344.68,-40.1386 1356.21,-40.1386"/>
<polygon fill="midnightblue" stroke="midnightblue" points="1317.7,-36.6387 1307.69,-40.1386 1317.69,-43.6387 1317.7,-36.6387"/>
</g>
<!-- Node16&#45;&gt;Node4 -->
<g id="edge54" class="edge"><title>Node16&#45;&gt;Node4</title>
<path fill="none" stroke="midnightblue" d="M1449.81,-46.9373C1463.37,-48.7511 1477.99,-50.7081 1491.48,-52.5124"/>
<polygon fill="midnightblue" stroke="midnightblue" points="1450.07,-43.4404 1439.69,-45.5832 1449.14,-50.3786 1450.07,-43.4404"/>
</g>
</g>
</svg>
        <g id="navigator" transform="translate(0 0)" fill="#404254">
                <rect fill="#f2f5e9" fill-opacity="0.5" stroke="#606060" stroke-width=".5" x="0" y="0" width="60" height="60"/>
                <use id="zoomplus" xlink:href="#zoomPlus" x="17" y="9" onmousedown="handleZoom(evt,'in')"/>
                <use id="zoomminus" xlink:href="#zoomMin" x="42" y="9" onmousedown="handleZoom(evt,'out')"/>
                <use id="reset" xlink:href="#resetDef" x="30" y="36" onmousedown="handleReset()"/>
                <g id="arrowUp" xlink:href="#dirArrow" transform="translate(30 24)" onmousedown="handlePan(0,-1)">
                  <use xlink:href="#rim" fill="#404040">
                        <set attributeName="fill" to="#808080" begin="arrowUp.mouseover" end="arrowUp.mouseout"/>
                  </use>
                  <path fill="none" stroke="white" stroke-width="1.5" d="M0,-3.0v7 M-2.5,-0.5L0,-3.0L2.5,-0.5"/>
                </g>
                <g id="arrowRight" xlink:href="#dirArrow" transform="rotate(90) translate(36 -43)" onmousedown="handlePan(1,0)">
                  <use xlink:href="#rim" fill="#404040">
                        <set attributeName="fill" to="#808080" begin="arrowRight.mouseover" end="arrowRight.mouseout"/>
                  </use>
                  <path fill="none" stroke="white" stroke-width="1.5" d="M0,-3.0v7 M-2.5,-0.5L0,-3.0L2.5,-0.5"/>
                </g>
                <g id="arrowDown" xlink:href="#dirArrow" transform="rotate(180) translate(-30 -48)" onmousedown="handlePan(0,1)">
                  <use xlink:href="#rim" fill="#404040">
                        <set attributeName="fill" to="#808080" begin="arrowDown.mouseover" end="arrowDown.mouseout"/>
                  </use>
                  <path fill="none" stroke="white" stroke-width="1.5" d="M0,-3.0v7 M-2.5,-0.5L0,-3.0L2.5,-0.5"/>
                </g>
                <g id="arrowLeft" xlink:href="#dirArrow" transform="rotate(270) translate(-36 17)" onmousedown="handlePan(-1,0)">
                  <use xlink:href="#rim" fill="#404040">
                        <set attributeName="fill" to="#808080" begin="arrowLeft.mouseover" end="arrowLeft.mouseout"/>
                  </use>
                  <path fill="none" stroke="white" stroke-width="1.5" d="M0,-3.0v7 M-2.5,-0.5L0,-3.0L2.5,-0.5"/>
                </g>
        </g>
        <svg viewBox="0 0 25 25" width="100%" height="30px" preserveAspectRatio="xMaxYMin meet"> 
          <g id="printButton" transform="scale(0.4 0.4)" onmousedown="handlePrint(evt)">
            <rect height="23.33753581" id="paper" rx="2" style="fill:#f2f5e9;fill-rule:evenodd;stroke:#111111;stroke-width:3.224;stroke-linejoin:round;" transform="matrix(1.000000,0.000000,-0.339266,0.940691,0.000000,0.000000)" width="25.55231285" x="26.69387353" y="7.36162977"/>
            <rect height="26.272097" id="body" rx="2" style="fill:#404040;fill-rule:evenodd;stroke:#111111;stroke-width:3.125;stroke-linejoin:round;" width="50" x="4.5295201" y="27.078951"/>
            <rect height="8.27750969" id="tray" style="fill:#d2d5c9;fill-rule:evenodd;stroke:#111111;stroke-width:3.125;stroke-linecap:round;stroke-linejoin:round;" width="40" x="10.28778839" y="44.96812282"/>
          </g>
        </svg>
</svg>
