<?xml version="1.0" encoding="UTF-8" standalone="no"?>
<!DOCTYPE svg PUBLIC "-//W3C//DTD SVG 1.1//EN"
 "http://www.w3.org/Graphics/SVG/1.1/DTD/svg11.dtd">
<!-- Generated by graphviz version 2.28.0 (20120217.0315)
 -->
<!-- Title: G Pages: 1 -->
<!--zoomable 237 -->
<svg id="main" version="1.1" xmlns="http://www.w3.org/2000/svg" xmlns:xlink="http://www.w3.org/1999/xlink" xml:space="preserve" onload="init(evt)">
        <defs>
                <circle id="rim" cx="0" cy="0" r="7"/>
                <circle id="rim2" cx="0" cy="0" r="3.5"/>
                <g id="zoomPlus">
                        <use xlink:href="#rim" fill="#404040">
                                <set attributeName="fill" to="#808080" begin="zoomplus.mouseover" end="zoomplus.mouseout"/>
                        </use>
                        <path d="M-4,0h8M0,-4v8" fill="none" stroke="white" stroke-width="1.5" pointer-events="none"/>
                </g>
                <g id="zoomMin">
                        <use xlink:href="#rim" fill="#404040">
                                <set attributeName="fill" to="#808080" begin="zoomminus.mouseover" end="zoomminus.mouseout"/>
                        </use>
                        <path d="M-4,0h8" fill="none" stroke="white" stroke-width="1.5" pointer-events="none"/>
                </g>
                <g id="dirArrow">
                        <path fill="none" stroke="white" stroke-width="1.5" d="M0,-3.0v7 M-2.5,-0.5L0,-3.0L2.5,-0.5"/>
                </g>
               <g id="resetDef">
                       <use xlink:href="#rim2" fill="#404040">
                               <set attributeName="fill" to="#808080" begin="reset.mouseover" end="reset.mouseout"/>
                       </use>
               </g>
        </defs>

<script type="text/javascript">
var viewWidth = 2132;
var viewHeight = 237;
var sectionId = 'dynsection-5';
</script>
<script xlink:href="../../svgpan.js"/>
<svg id="graph" class="graph">
<g id="viewport">
<title>G</title>
<!-- Node1 -->
<g id="node1" class="node"><title>Node1</title>
<polygon fill="#bfbfbf" stroke="black" points="0.5,-162.075 0.5,-181.075 119.5,-181.075 119.5,-162.075 0.5,-162.075"/>
<text text-anchor="middle" x="60" y="-169.075" font-family="DejaVuSansMono" font-size="10.00">client_socket_del</text>
</g>
<!-- Node2 -->
<g id="node3" class="node"><title>Node2</title>
<a xlink:href="../../d4/d2f/xmpp__client_8h.html#add2df61245a543667b6d98e3fcd57077" target="_top" xlink:title="xmpp_client_del">
<polygon fill="none" stroke="black" points="156.5,-86.075 156.5,-105.075 263.5,-105.075 263.5,-86.075 156.5,-86.075"/>
<text text-anchor="middle" x="210" y="-93.075" font-family="DejaVuSansMono" font-size="10.00">xmpp_client_del</text>
</a>
</g>
<!-- Node1&#45;&gt;Node2 -->
<g id="edge2" class="edge"><title>Node1&#45;&gt;Node2</title>
<path fill="none" stroke="midnightblue" d="M88.7626,-157.318C118.481,-142.058 164.801,-118.272 190.408,-105.122"/>
<polygon fill="midnightblue" stroke="midnightblue" points="87.0411,-154.268 79.7443,-161.95 90.2388,-160.495 87.0411,-154.268"/>
</g>
<!-- Node4 -->
<g id="node7" class="node"><title>Node4</title>
<a xlink:href="../../d0/df0/xmpp__server_8c.html#a66363912ef1221a2574f9f99805fe8fd" target="_top" xlink:title="Callback for new client connections.">
<polygon fill="none" stroke="black" points="1797.5,-86.075 1797.5,-105.075 1898.5,-105.075 1898.5,-86.075 1797.5,-86.075"/>
<text text-anchor="middle" x="1848" y="-93.075" font-family="DejaVuSansMono" font-size="10.00">connect_client</text>
</a>
</g>
<!-- Node1&#45;&gt;Node4 -->
<g id="edge46" class="edge"><title>Node1&#45;&gt;Node4</title>
<path fill="none" stroke="midnightblue" d="M104.357,-183.801C167.676,-200.549 289.406,-228.575 395,-228.575 395,-228.575 395,-228.575 1540,-228.575 1640.26,-228.575 1669.08,-216.885 1758,-170.575 1791.51,-153.122 1823.55,-121.148 1838.39,-105.18"/>
<polygon fill="midnightblue" stroke="midnightblue" points="104.903,-180.324 94.3382,-181.115 103.091,-187.085 104.903,-180.324"/>
</g>
<!-- Node3 -->
<g id="node5" class="node"><title>Node3</title>
<a xlink:href="../../d4/d2f/xmpp__client_8h.html#a1619c0b8f58b2cf09a322bf34fbc3414" target="_top" xlink:title="xmpp_client_new">
<polygon fill="none" stroke="black" points="1650.5,-86.075 1650.5,-105.075 1757.5,-105.075 1757.5,-86.075 1650.5,-86.075"/>
<text text-anchor="middle" x="1704" y="-93.075" font-family="DejaVuSansMono" font-size="10.00">xmpp_client_new</text>
</a>
</g>
<!-- Node2&#45;&gt;Node3 -->
<g id="edge4" class="edge"><title>Node2&#45;&gt;Node3</title>
<path fill="none" stroke="midnightblue" d="M273.81,-90.6415C351.017,-85.0119 486.063,-76.575 602,-76.575 602,-76.575 602,-76.575 1375,-76.575 1472.25,-76.575 1585.46,-85.0029 1650.22,-90.6325"/>
<polygon fill="midnightblue" stroke="midnightblue" points="273.484,-87.156 263.768,-91.3818 273.998,-94.1371 273.484,-87.156"/>
</g>
<!-- Node2&#45;&gt;Node4 -->
<g id="edge44" class="edge"><title>Node2&#45;&gt;Node4</title>
<path fill="none" stroke="midnightblue" d="M256.929,-83.6914C270.711,-80.4093 285.911,-77.0687 300,-74.575 433.104,-51.0162 466.827,-38.575 602,-38.575 602,-38.575 602,-38.575 1540,-38.575 1642.73,-38.575 1761.59,-69.8079 1816.41,-86.0344"/>
<polygon fill="midnightblue" stroke="midnightblue" points="256.073,-80.2976 247.181,-86.058 257.724,-87.1001 256.073,-80.2976"/>
</g>
<!-- Node7 -->
<g id="node13" class="node"><title>Node7</title>
<a xlink:href="../../d1/d2e/xmpp__server_8h.html#af7d75415fd5671841797bf77bbc1a981" target="_top" xlink:title="Cleans up an XMPP server instance.">
<polygon fill="none" stroke="black" points="1794.5,-20.075 1794.5,-39.075 1901.5,-39.075 1901.5,-20.075 1794.5,-20.075"/>
<text text-anchor="middle" x="1848" y="-27.075" font-family="DejaVuSansMono" font-size="10.00">xmpp_server_del</text>
</a>
</g>
<!-- Node2&#45;&gt;Node7 -->
<g id="edge12" class="edge"><title>Node2&#45;&gt;Node7</title>
<path fill="none" stroke="midnightblue" d="M230.29,-79.587C247.464,-66.283 273.849,-48.0439 300,-38.575 427.199,7.48202 466.719,-0.574965 602,-0.574965 602,-0.574965 602,-0.574965 1540,-0.574965 1629.67,-0.574965 1733.43,-12.99 1794.45,-21.5738"/>
<polygon fill="midnightblue" stroke="midnightblue" points="227.847,-77.0578 222.199,-86.0216 232.205,-82.5365 227.847,-77.0578"/>
</g>
<!-- Node8 -->
<g id="node17" class="node"><title>Node8</title>
<a xlink:href="../../d1/d2e/xmpp__server_8h.html#a79e02871228c509de0c70961d74a1bcb" target="_top" xlink:title="Attempt to cleanly disconnect a client, and clean up its resources.">
<polygon fill="none" stroke="black" points="300.5,-143.075 300.5,-162.075 491.5,-162.075 491.5,-143.075 300.5,-143.075"/>
<text text-anchor="middle" x="396" y="-150.075" font-family="DejaVuSansMono" font-size="10.00">xmpp_server_disconnect_client</text>
</a>
</g>
<!-- Node2&#45;&gt;Node8 -->
<g id="edge18" class="edge"><title>Node2&#45;&gt;Node8</title>
<path fill="none" stroke="midnightblue" d="M244.338,-108.906C260.925,-115.289 281.364,-122.784 300,-128.575 317.22,-133.926 336.467,-138.96 353.11,-143.023"/>
<polygon fill="midnightblue" stroke="midnightblue" points="245.148,-105.466 234.559,-105.101 242.609,-111.989 245.148,-105.466"/>
</g>
<!-- Node3&#45;&gt;Node4 -->
<g id="edge6" class="edge"><title>Node3&#45;&gt;Node4</title>
<path fill="none" stroke="midnightblue" d="M1768.02,-95.575C1777.85,-95.575 1787.89,-95.575 1797.37,-95.575"/>
<polygon fill="midnightblue" stroke="midnightblue" points="1767.88,-92.0751 1757.88,-95.575 1767.88,-99.0751 1767.88,-92.0751"/>
</g>
<!-- Node5 -->
<g id="node9" class="node"><title>Node5</title>
<a xlink:href="../../d1/d2e/xmpp__server_8h.html#a27bfc8e4d424a8bc17ab21a4a09cdf92" target="_top" xlink:title="Allocates and initializes the XMPP server.">
<polygon fill="none" stroke="black" points="1938.5,-58.075 1938.5,-77.075 2045.5,-77.075 2045.5,-58.075 1938.5,-58.075"/>
<text text-anchor="middle" x="1992" y="-65.075" font-family="DejaVuSansMono" font-size="10.00">xmpp_server_new</text>
</a>
</g>
<!-- Node4&#45;&gt;Node5 -->
<g id="edge8" class="edge"><title>Node4&#45;&gt;Node5</title>
<path fill="none" stroke="midnightblue" d="M1907.6,-84.0209C1919.29,-81.7149 1931.45,-79.3175 1942.75,-77.0896"/>
<polygon fill="midnightblue" stroke="midnightblue" points="1906.61,-80.6487 1897.47,-86.0173 1907.96,-87.5165 1906.61,-80.6487"/>
</g>
<!-- Node6 -->
<g id="node11" class="node"><title>Node6</title>
<a xlink:href="../../d0/d29/main_8c.html#a0ddf1224851353fc92bfbff6f499fa97" target="_top" xlink:title="main">
<polygon fill="none" stroke="black" points="2082.5,-39.075 2082.5,-58.075 2123.5,-58.075 2123.5,-39.075 2082.5,-39.075"/>
<text text-anchor="middle" x="2103" y="-46.075" font-family="DejaVuSansMono" font-size="10.00">main</text>
</a>
</g>
<!-- Node5&#45;&gt;Node6 -->
<g id="edge10" class="edge"><title>Node5&#45;&gt;Node6</title>
<path fill="none" stroke="midnightblue" d="M2055.45,-56.69C2065.24,-54.9831 2074.68,-53.3372 2082.47,-51.979"/>
<polygon fill="midnightblue" stroke="midnightblue" points="2054.83,-53.2436 2045.58,-58.4089 2056.04,-60.1396 2054.83,-53.2436"/>
</g>
<!-- Node7&#45;&gt;Node5 -->
<g id="edge16" class="edge"><title>Node7&#45;&gt;Node5</title>
<path fill="none" stroke="midnightblue" d="M1894.49,-41.7491C1914.13,-47.0037 1936.77,-53.0616 1955.18,-57.989"/>
<polygon fill="midnightblue" stroke="midnightblue" points="1895.4,-38.3681 1884.83,-39.164 1893.59,-45.1302 1895.4,-38.3681"/>
</g>
<!-- Node7&#45;&gt;Node6 -->
<g id="edge14" class="edge"><title>Node7&#45;&gt;Node6</title>
<path fill="none" stroke="midnightblue" d="M1911.9,-34.2985C1967.84,-38.4995 2046.21,-44.3849 2082.34,-47.0983"/>
<polygon fill="midnightblue" stroke="midnightblue" points="1911.96,-30.7937 1901.73,-33.5349 1911.44,-37.774 1911.96,-30.7937"/>
</g>
<!-- Node9 -->
<g id="node19" class="node"><title>Node9</title>
<a xlink:href="../../d8/d28/xmpp__core_8h.html#a3b41e83061abd7ed5b258c7aa7dda0d6" target="_top" xlink:title="An xmpp_server stanza route for stanzas directed to a local client.">
<polygon fill="none" stroke="black" points="528.5,-114.075 528.5,-133.075 677.5,-133.075 677.5,-114.075 528.5,-114.075"/>
<text text-anchor="middle" x="603" y="-121.075" font-family="DejaVuSansMono" font-size="10.00">xmpp_core_route_client</text>
</a>
</g>
<!-- Node8&#45;&gt;Node9 -->
<g id="edge20" class="edge"><title>Node8&#45;&gt;Node9</title>
<path fill="none" stroke="midnightblue" d="M474.32,-141.637C494.131,-138.834 515.281,-135.843 534.551,-133.117"/>
<polygon fill="midnightblue" stroke="midnightblue" points="473.82,-138.173 464.409,-143.039 474.8,-145.104 473.82,-138.173"/>
</g>
<!-- Node16 -->
<g id="node36" class="node"><title>Node16</title>
<a xlink:href="../../d0/df0/xmpp__server_8c.html#abece91815ef240322d79073f5bfca1db" target="_top" xlink:title="Callback for new data from a client.">
<polygon fill="none" stroke="black" points="723.5,-176.075 723.5,-195.075 806.5,-195.075 806.5,-176.075 723.5,-176.075"/>
<text text-anchor="middle" x="765" y="-183.075" font-family="DejaVuSansMono" font-size="10.00">read_client</text>
</a>
</g>
<!-- Node8&#45;&gt;Node16 -->
<g id="edge40" class="edge"><title>Node8&#45;&gt;Node16</title>
<path fill="none" stroke="midnightblue" d="M501.767,-161.995C575.475,-168.623 670.098,-177.131 723.176,-181.904"/>
<polygon fill="midnightblue" stroke="midnightblue" points="501.785,-158.483 491.512,-161.073 501.158,-165.455 501.785,-158.483"/>
</g>
<!-- Node9&#45;&gt;Node2 -->
<g id="edge38" class="edge"><title>Node9&#45;&gt;Node2</title>
<path fill="none" stroke="midnightblue" d="M518.305,-117.581C441.174,-112.058 329.066,-104.03 263.732,-99.3512"/>
<polygon fill="midnightblue" stroke="midnightblue" points="518.251,-121.086 528.476,-118.31 518.751,-114.104 518.251,-121.086"/>
</g>
<!-- Node10 -->
<g id="node21" class="node"><title>Node10</title>
<a xlink:href="../../df/da9/xmpp__auth_8c.html#a603b4a63af3c4e4af99442805fe89ae8" target="_top" xlink:title="Step 15: Client binds a resource.">
<polygon fill="none" stroke="black" points="714.5,-114.075 714.5,-133.075 815.5,-133.075 815.5,-114.075 714.5,-114.075"/>
<text text-anchor="middle" x="765" y="-121.075" font-family="DejaVuSansMono" font-size="10.00">handle_bind_iq</text>
</a>
</g>
<!-- Node9&#45;&gt;Node10 -->
<g id="edge22" class="edge"><title>Node9&#45;&gt;Node10</title>
<path fill="none" stroke="midnightblue" d="M688.006,-123.575C696.943,-123.575 705.813,-123.575 714.168,-123.575"/>
<polygon fill="midnightblue" stroke="midnightblue" points="687.912,-120.075 677.911,-123.575 687.911,-127.075 687.912,-120.075"/>
</g>
<!-- Node11 -->
<g id="node23" class="node"><title>Node11</title>
<a xlink:href="../../df/da9/xmpp__auth_8c.html#a01804bd53eccc182ce76337fc0863e8d" target="_top" xlink:title="stream_bind_start">
<polygon fill="none" stroke="black" points="852.5,-114.075 852.5,-133.075 971.5,-133.075 971.5,-114.075 852.5,-114.075"/>
<text text-anchor="middle" x="912" y="-121.075" font-family="DejaVuSansMono" font-size="10.00">stream_bind_start</text>
</a>
</g>
<!-- Node10&#45;&gt;Node11 -->
<g id="edge24" class="edge"><title>Node10&#45;&gt;Node11</title>
<path fill="none" stroke="midnightblue" d="M825.961,-123.575C834.655,-123.575 843.597,-123.575 852.266,-123.575"/>
<polygon fill="midnightblue" stroke="midnightblue" points="825.901,-120.075 815.901,-123.575 825.901,-127.075 825.901,-120.075"/>
</g>
<!-- Node12 -->
<g id="node25" class="node"><title>Node12</title>
<a xlink:href="../../df/da9/xmpp__auth_8c.html#afb770a216868aa3fb43813b19d2a0115" target="_top" xlink:title="Begins SASL PLAIN authentication.">
<polygon fill="none" stroke="black" points="1008.5,-114.075 1008.5,-133.075 1127.5,-133.075 1127.5,-114.075 1008.5,-114.075"/>
<text text-anchor="middle" x="1068" y="-121.075" font-family="DejaVuSansMono" font-size="10.00">handle_sasl_plain</text>
</a>
</g>
<!-- Node11&#45;&gt;Node12 -->
<g id="edge26" class="edge"><title>Node11&#45;&gt;Node12</title>
<path fill="none" stroke="midnightblue" d="M981.894,-123.575C990.691,-123.575 999.631,-123.575 1008.25,-123.575"/>
<polygon fill="midnightblue" stroke="midnightblue" points="981.66,-120.075 971.66,-123.575 981.66,-127.075 981.66,-120.075"/>
</g>
<!-- Node13 -->
<g id="node27" class="node"><title>Node13</title>
<a xlink:href="../../d3/d24/xmpp__auth_8h.html#ad3efd9ab093646bdfd8832c34ae2de4d" target="_top" xlink:title="Handler for the inital stream start to begin authentication.">
<polygon fill="none" stroke="black" points="1464.5,-105.075 1464.5,-124.075 1613.5,-124.075 1613.5,-105.075 1464.5,-105.075"/>
<text text-anchor="middle" x="1539" y="-112.075" font-family="DejaVuSansMono" font-size="10.00">xmpp_auth_stream_start</text>
</a>
</g>
<!-- Node12&#45;&gt;Node13 -->
<g id="edge28" class="edge"><title>Node12&#45;&gt;Node13</title>
<path fill="none" stroke="midnightblue" d="M1137.93,-131.688C1146.69,-132.467 1155.55,-133.131 1164,-133.575 1281.17,-139.725 1311.1,-143.597 1428,-133.575 1449.63,-131.721 1473.38,-127.852 1493.27,-124.087"/>
<polygon fill="midnightblue" stroke="midnightblue" points="1137.99,-128.179 1127.71,-130.727 1137.34,-135.148 1137.99,-128.179"/>
</g>
<!-- Node14 -->
<g id="node30" class="node"><title>Node14</title>
<a xlink:href="../../df/da9/xmpp__auth_8c.html#afd7b12689591d40109a88ad108b5c3a2" target="_top" xlink:title="stream_sasl_start">
<polygon fill="none" stroke="black" points="1164.5,-105.075 1164.5,-124.075 1283.5,-124.075 1283.5,-105.075 1164.5,-105.075"/>
<text text-anchor="middle" x="1224" y="-112.075" font-family="DejaVuSansMono" font-size="10.00">stream_sasl_start</text>
</a>
</g>
<!-- Node12&#45;&gt;Node14 -->
<g id="edge32" class="edge"><title>Node12&#45;&gt;Node14</title>
<path fill="none" stroke="midnightblue" d="M1137.89,-119.549C1146.69,-119.035 1155.63,-118.512 1164.25,-118.009"/>
<polygon fill="midnightblue" stroke="midnightblue" points="1137.44,-116.069 1127.66,-120.147 1137.85,-123.057 1137.44,-116.069"/>
</g>
<!-- Node13&#45;&gt;Node3 -->
<g id="edge30" class="edge"><title>Node13&#45;&gt;Node3</title>
<path fill="none" stroke="midnightblue" d="M1623.99,-104.785C1632.95,-103.74 1641.88,-102.699 1650.33,-101.714"/>
<polygon fill="midnightblue" stroke="midnightblue" points="1623.4,-101.33 1613.87,-105.964 1624.21,-108.283 1623.4,-101.33"/>
</g>
<!-- Node15 -->
<g id="node32" class="node"><title>Node15</title>
<a xlink:href="../../df/da9/xmpp__auth_8c.html#a8dd789e057b9812e4dd1aa524dfb6a65" target="_top" xlink:title="Begins TLS authentication.">
<polygon fill="none" stroke="black" points="1320.5,-105.075 1320.5,-124.075 1427.5,-124.075 1427.5,-105.075 1320.5,-105.075"/>
<text text-anchor="middle" x="1374" y="-112.075" font-family="DejaVuSansMono" font-size="10.00">handle_starttls</text>
</a>
</g>
<!-- Node14&#45;&gt;Node15 -->
<g id="edge34" class="edge"><title>Node14&#45;&gt;Node15</title>
<path fill="none" stroke="midnightblue" d="M1294.09,-114.575C1302.81,-114.575 1311.62,-114.575 1320.04,-114.575"/>
<polygon fill="midnightblue" stroke="midnightblue" points="1293.92,-111.075 1283.92,-114.575 1293.92,-118.075 1293.92,-111.075"/>
</g>
<!-- Node15&#45;&gt;Node13 -->
<g id="edge36" class="edge"><title>Node15&#45;&gt;Node13</title>
<path fill="none" stroke="midnightblue" d="M1438.19,-114.575C1446.75,-114.575 1455.6,-114.575 1464.32,-114.575"/>
<polygon fill="midnightblue" stroke="midnightblue" points="1437.92,-111.075 1427.92,-114.575 1437.92,-118.075 1437.92,-111.075"/>
</g>
<!-- Node16&#45;&gt;Node4 -->
<g id="edge42" class="edge"><title>Node16&#45;&gt;Node4</title>
<path fill="none" stroke="midnightblue" d="M817.212,-186.943C877.105,-188.424 979.239,-190.575 1067,-190.575 1067,-190.575 1067,-190.575 1540,-190.575 1654.65,-190.575 1783.06,-129.359 1829.26,-105.207"/>
<polygon fill="midnightblue" stroke="midnightblue" points="816.977,-183.437 806.892,-186.685 816.802,-190.434 816.977,-183.437"/>
</g>
</g>
</svg>
        <g id="navigator" transform="translate(0 0)" fill="#404254">
                <rect fill="#f2f5e9" fill-opacity="0.5" stroke="#606060" stroke-width=".5" x="0" y="0" width="60" height="60"/>
                <use id="zoomplus" xlink:href="#zoomPlus" x="17" y="9" onmousedown="handleZoom(evt,'in')"/>
                <use id="zoomminus" xlink:href="#zoomMin" x="42" y="9" onmousedown="handleZoom(evt,'out')"/>
                <use id="reset" xlink:href="#resetDef" x="30" y="36" onmousedown="handleReset()"/>
                <g id="arrowUp" xlink:href="#dirArrow" transform="translate(30 24)" onmousedown="handlePan(0,-1)">
                  <use xlink:href="#rim" fill="#404040">
                        <set attributeName="fill" to="#808080" begin="arrowUp.mouseover" end="arrowUp.mouseout"/>
                  </use>
                  <path fill="none" stroke="white" stroke-width="1.5" d="M0,-3.0v7 M-2.5,-0.5L0,-3.0L2.5,-0.5"/>
                </g>
                <g id="arrowRight" xlink:href="#dirArrow" transform="rotate(90) translate(36 -43)" onmousedown="handlePan(1,0)">
                  <use xlink:href="#rim" fill="#404040">
                        <set attributeName="fill" to="#808080" begin="arrowRight.mouseover" end="arrowRight.mouseout"/>
                  </use>
                  <path fill="none" stroke="white" stroke-width="1.5" d="M0,-3.0v7 M-2.5,-0.5L0,-3.0L2.5,-0.5"/>
                </g>
                <g id="arrowDown" xlink:href="#dirArrow" transform="rotate(180) translate(-30 -48)" onmousedown="handlePan(0,1)">
                  <use xlink:href="#rim" fill="#404040">
                        <set attributeName="fill" to="#808080" begin="arrowDown.mouseover" end="arrowDown.mouseout"/>
                  </use>
                  <path fill="none" stroke="white" stroke-width="1.5" d="M0,-3.0v7 M-2.5,-0.5L0,-3.0L2.5,-0.5"/>
                </g>
                <g id="arrowLeft" xlink:href="#dirArrow" transform="rotate(270) translate(-36 17)" onmousedown="handlePan(-1,0)">
                  <use xlink:href="#rim" fill="#404040">
                        <set attributeName="fill" to="#808080" begin="arrowLeft.mouseover" end="arrowLeft.mouseout"/>
                  </use>
                  <path fill="none" stroke="white" stroke-width="1.5" d="M0,-3.0v7 M-2.5,-0.5L0,-3.0L2.5,-0.5"/>
                </g>
        </g>
        <svg viewBox="0 0 25 25" width="100%" height="30px" preserveAspectRatio="xMaxYMin meet"> 
          <g id="printButton" transform="scale(0.4 0.4)" onmousedown="handlePrint(evt)">
            <rect height="23.33753581" id="paper" rx="2" style="fill:#f2f5e9;fill-rule:evenodd;stroke:#111111;stroke-width:3.224;stroke-linejoin:round;" transform="matrix(1.000000,0.000000,-0.339266,0.940691,0.000000,0.000000)" width="25.55231285" x="26.69387353" y="7.36162977"/>
            <rect height="26.272097" id="body" rx="2" style="fill:#404040;fill-rule:evenodd;stroke:#111111;stroke-width:3.125;stroke-linejoin:round;" width="50" x="4.5295201" y="27.078951"/>
            <rect height="8.27750969" id="tray" style="fill:#d2d5c9;fill-rule:evenodd;stroke:#111111;stroke-width:3.125;stroke-linecap:round;stroke-linejoin:round;" width="40" x="10.28778839" y="44.96812282"/>
          </g>
        </svg>
</svg>
