<?xml version="1.0" encoding="UTF-8" standalone="no"?>
<!DOCTYPE svg PUBLIC "-//W3C//DTD SVG 1.1//EN"
 "http://www.w3.org/Graphics/SVG/1.1/DTD/svg11.dtd">
<!-- Generated by graphviz version 2.28.0 (20120217.0315)
 -->
<!-- Title: G Pages: 1 -->
<svg width="464pt" height="140pt"
 viewBox="0.00 0.00 464.00 140.00" xmlns="http://www.w3.org/2000/svg" xmlns:xlink="http://www.w3.org/1999/xlink">
<g id="graph1" class="graph" transform="scale(1 1) rotate(0) translate(4 136)">
<title>G</title>
<!-- Node1 -->
<g id="node1" class="node"><title>Node1</title>
<polygon fill="#bfbfbf" stroke="black" points="159.5,-112.5 159.5,-131.5 254.5,-131.5 254.5,-112.5 159.5,-112.5"/>
<text text-anchor="middle" x="207" y="-119.5" font-family="DejaVuSansMono" font-size="10.00">src/xmpp_im.c</text>
</g>
<!-- Node2 -->
<g id="node3" class="node"><title>Node2</title>
<polygon fill="none" stroke="#bfbfbf" points="-0.5,-56.5 -0.5,-75.5 76.5,-75.5 76.5,-56.5 -0.5,-56.5"/>
<text text-anchor="middle" x="38" y="-63.5" font-family="DejaVuSansMono" font-size="10.00">utstring.h</text>
</g>
<!-- Node1&#45;&gt;Node2 -->
<g id="edge2" class="edge"><title>Node1&#45;&gt;Node2</title>
<path fill="none" stroke="midnightblue" d="M180.221,-112.444C151.667,-103.32 106.267,-88.8133 74.4631,-78.6509"/>
<polygon fill="midnightblue" stroke="midnightblue" points="75.2441,-75.2262 64.6533,-75.5164 73.1135,-81.8941 75.2441,-75.2262"/>
</g>
<!-- Node3 -->
<g id="node5" class="node"><title>Node3</title>
<a xlink:href="../../d7/d7f/log_8h.html" target="_top" xlink:title="Debugging and logging functions/macros.">
<polygon fill="none" stroke="black" points="94.5,-56.5 94.5,-75.5 141.5,-75.5 141.5,-56.5 94.5,-56.5"/>
<text text-anchor="middle" x="118" y="-63.5" font-family="DejaVuSansMono" font-size="10.00">log.h</text>
</a>
</g>
<!-- Node1&#45;&gt;Node3 -->
<g id="edge4" class="edge"><title>Node1&#45;&gt;Node3</title>
<path fill="none" stroke="midnightblue" d="M192.701,-112.324C178.817,-103.9 157.508,-90.9709 141.196,-81.0741"/>
<polygon fill="midnightblue" stroke="midnightblue" points="142.629,-77.8495 132.264,-75.6545 138.998,-83.8341 142.629,-77.8495"/>
</g>
<!-- Node7 -->
<g id="node13" class="node"><title>Node7</title>
<a xlink:href="../../d1/d2e/xmpp__server_8h.html" target="_top" xlink:title="Main XMPP server data/functions.">
<polygon fill="none" stroke="black" points="361.5,-56.5 361.5,-75.5 456.5,-75.5 456.5,-56.5 361.5,-56.5"/>
<text text-anchor="middle" x="409" y="-63.5" font-family="DejaVuSansMono" font-size="10.00">xmpp_server.h</text>
</a>
</g>
<!-- Node1&#45;&gt;Node7 -->
<g id="edge12" class="edge"><title>Node1&#45;&gt;Node7</title>
<path fill="none" stroke="midnightblue" d="M239.008,-112.444C273.729,-103.162 329.288,-88.3093 367.377,-78.127"/>
<polygon fill="midnightblue" stroke="midnightblue" points="368.385,-81.4803 377.142,-75.5164 366.578,-74.7178 368.385,-81.4803"/>
</g>
<!-- Node10 -->
<g id="node19" class="node"><title>Node10</title>
<a xlink:href="../../dd/d21/xmpp__stanza_8h.html" target="_top" xlink:title="Represents top&#45;level XMPP stanzas received from clients.">
<polygon fill="none" stroke="black" points="159.5,-56.5 159.5,-75.5 254.5,-75.5 254.5,-56.5 159.5,-56.5"/>
<text text-anchor="middle" x="207" y="-63.5" font-family="DejaVuSansMono" font-size="10.00">xmpp_stanza.h</text>
</a>
</g>
<!-- Node1&#45;&gt;Node10 -->
<g id="edge18" class="edge"><title>Node1&#45;&gt;Node10</title>
<path fill="none" stroke="midnightblue" d="M207,-112.083C207,-105.006 207,-94.8611 207,-85.9865"/>
<polygon fill="midnightblue" stroke="midnightblue" points="210.5,-85.751 207,-75.7511 203.5,-85.7511 210.5,-85.751"/>
</g>
<!-- Node11 -->
<g id="node22" class="node"><title>Node11</title>
<a xlink:href="../../d9/dd7/xmpp__im_8h.html" target="_top" xlink:title="Implements the parsing for RFC6121 IM and Presence.">
<polygon fill="none" stroke="black" points="272.5,-56.5 272.5,-75.5 343.5,-75.5 343.5,-56.5 272.5,-56.5"/>
<text text-anchor="middle" x="308" y="-63.5" font-family="DejaVuSansMono" font-size="10.00">xmpp_im.h</text>
</a>
</g>
<!-- Node1&#45;&gt;Node11 -->
<g id="edge22" class="edge"><title>Node1&#45;&gt;Node11</title>
<path fill="none" stroke="midnightblue" d="M223.227,-112.324C239.351,-103.703 264.3,-90.3643 282.964,-80.3855"/>
<polygon fill="midnightblue" stroke="midnightblue" points="284.644,-83.456 291.813,-75.6545 281.344,-77.283 284.644,-83.456"/>
</g>
<!-- Node4 -->
<g id="node7" class="node"><title>Node4</title>
<polygon fill="none" stroke="#bfbfbf" points="11.5,-0.5 11.5,-19.5 70.5,-19.5 70.5,-0.5 11.5,-0.5"/>
<text text-anchor="middle" x="41" y="-7.5" font-family="DejaVuSansMono" font-size="10.00">stdio.h</text>
</g>
<!-- Node3&#45;&gt;Node4 -->
<g id="edge6" class="edge"><title>Node3&#45;&gt;Node4</title>
<path fill="none" stroke="midnightblue" d="M105.629,-56.324C93.8415,-48.0577 75.8677,-35.4527 61.8645,-25.6322"/>
<polygon fill="midnightblue" stroke="midnightblue" points="63.5376,-22.5307 53.3407,-19.6545 59.5184,-28.2619 63.5376,-22.5307"/>
</g>
<!-- Node5 -->
<g id="node9" class="node"><title>Node5</title>
<polygon fill="none" stroke="#bfbfbf" points="88.5,-0.5 88.5,-19.5 147.5,-19.5 147.5,-0.5 88.5,-0.5"/>
<text text-anchor="middle" x="118" y="-7.5" font-family="DejaVuSansMono" font-size="10.00">errno.h</text>
</g>
<!-- Node3&#45;&gt;Node5 -->
<g id="edge8" class="edge"><title>Node3&#45;&gt;Node5</title>
<path fill="none" stroke="midnightblue" d="M118,-56.083C118,-49.0059 118,-38.8611 118,-29.9865"/>
<polygon fill="midnightblue" stroke="midnightblue" points="121.5,-29.751 118,-19.7511 114.5,-29.7511 121.5,-29.751"/>
</g>
<!-- Node6 -->
<g id="node11" class="node"><title>Node6</title>
<polygon fill="none" stroke="#bfbfbf" points="165.5,-0.5 165.5,-19.5 230.5,-19.5 230.5,-0.5 165.5,-0.5"/>
<text text-anchor="middle" x="198" y="-7.5" font-family="DejaVuSansMono" font-size="10.00">string.h</text>
</g>
<!-- Node3&#45;&gt;Node6 -->
<g id="edge10" class="edge"><title>Node3&#45;&gt;Node6</title>
<path fill="none" stroke="midnightblue" d="M130.853,-56.324C143.216,-47.979 162.13,-35.2122 176.737,-25.3524"/>
<polygon fill="midnightblue" stroke="midnightblue" points="178.848,-28.1503 185.179,-19.6545 174.932,-22.3483 178.848,-28.1503"/>
</g>
<!-- Node8 -->
<g id="node15" class="node"><title>Node8</title>
<polygon fill="none" stroke="#bfbfbf" points="272.5,-0.5 272.5,-19.5 343.5,-19.5 343.5,-0.5 272.5,-0.5"/>
<text text-anchor="middle" x="308" y="-7.5" font-family="DejaVuSansMono" font-size="10.00">stdbool.h</text>
</g>
<!-- Node7&#45;&gt;Node8 -->
<g id="edge14" class="edge"><title>Node7&#45;&gt;Node8</title>
<path fill="none" stroke="midnightblue" d="M392.773,-56.324C376.649,-47.7034 351.7,-34.3643 333.036,-24.3855"/>
<polygon fill="midnightblue" stroke="midnightblue" points="334.656,-21.283 324.187,-19.6545 331.356,-27.456 334.656,-21.283"/>
</g>
<!-- Node9 -->
<g id="node17" class="node"><title>Node9</title>
<polygon fill="none" stroke="#bfbfbf" points="361.5,-0.5 361.5,-19.5 456.5,-19.5 456.5,-0.5 361.5,-0.5"/>
<text text-anchor="middle" x="409" y="-7.5" font-family="DejaVuSansMono" font-size="10.00">openssl/ssl.h</text>
</g>
<!-- Node7&#45;&gt;Node9 -->
<g id="edge16" class="edge"><title>Node7&#45;&gt;Node9</title>
<path fill="none" stroke="midnightblue" d="M409,-56.083C409,-49.0059 409,-38.8611 409,-29.9865"/>
<polygon fill="midnightblue" stroke="midnightblue" points="412.5,-29.751 409,-19.7511 405.5,-29.7511 412.5,-29.751"/>
</g>
<!-- Node10&#45;&gt;Node8 -->
<g id="edge20" class="edge"><title>Node10&#45;&gt;Node8</title>
<path fill="none" stroke="midnightblue" d="M223.227,-56.324C239.351,-47.7034 264.3,-34.3643 282.964,-24.3855"/>
<polygon fill="midnightblue" stroke="midnightblue" points="284.644,-27.456 291.813,-19.6545 281.344,-21.283 284.644,-27.456"/>
</g>
<!-- Node11&#45;&gt;Node8 -->
<g id="edge24" class="edge"><title>Node11&#45;&gt;Node8</title>
<path fill="none" stroke="midnightblue" d="M308,-56.083C308,-49.0059 308,-38.8611 308,-29.9865"/>
<polygon fill="midnightblue" stroke="midnightblue" points="311.5,-29.751 308,-19.7511 304.5,-29.7511 311.5,-29.751"/>
</g>
</g>
</svg>
