<?xml version="1.0" encoding="UTF-8" standalone="no"?>
<!DOCTYPE svg PUBLIC "-//W3C//DTD SVG 1.1//EN"
 "http://www.w3.org/Graphics/SVG/1.1/DTD/svg11.dtd">
<!-- Generated by graphviz version 2.28.0 (20120217.0315)
 -->
<!-- Title: G Pages: 1 -->
<svg width="185pt" height="84pt"
 viewBox="0.00 0.00 185.00 84.00" xmlns="http://www.w3.org/2000/svg" xmlns:xlink="http://www.w3.org/1999/xlink">
<g id="graph1" class="graph" transform="scale(1 1) rotate(0) translate(4 80)">
<title>G</title>
<!-- Node1 -->
<g id="node1" class="node"><title>Node1</title>
<polygon fill="#bfbfbf" stroke="black" points="21.5,-56.5 21.5,-75.5 146.5,-75.5 146.5,-56.5 21.5,-56.5"/>
<text text-anchor="middle" x="84" y="-63.5" font-family="DejaVuSansMono" font-size="10.00">src/xmp3_options.h</text>
</g>
<!-- Node2 -->
<g id="node3" class="node"><title>Node2</title>
<polygon fill="none" stroke="#bfbfbf" points="-0.5,-0.5 -0.5,-19.5 70.5,-19.5 70.5,-0.5 -0.5,-0.5"/>
<text text-anchor="middle" x="35" y="-7.5" font-family="DejaVuSansMono" font-size="10.00">stdbool.h</text>
</g>
<!-- Node1&#45;&gt;Node2 -->
<g id="edge2" class="edge"><title>Node1&#45;&gt;Node2</title>
<path fill="none" stroke="midnightblue" d="M75.9086,-56.083C68.8446,-48.2982 58.4124,-36.8015 49.8511,-27.3665"/>
<polygon fill="midnightblue" stroke="midnightblue" points="52.2527,-24.8047 42.9408,-19.7511 47.0688,-29.5087 52.2527,-24.8047"/>
</g>
<!-- Node3 -->
<g id="node5" class="node"><title>Node3</title>
<polygon fill="none" stroke="#bfbfbf" points="88.5,-0.5 88.5,-19.5 177.5,-19.5 177.5,-0.5 88.5,-0.5"/>
<text text-anchor="middle" x="133" y="-7.5" font-family="DejaVuSansMono" font-size="10.00">netinet/in.h</text>
</g>
<!-- Node1&#45;&gt;Node3 -->
<g id="edge4" class="edge"><title>Node1&#45;&gt;Node3</title>
<path fill="none" stroke="midnightblue" d="M92.0914,-56.083C99.1554,-48.2982 109.588,-36.8015 118.149,-27.3665"/>
<polygon fill="midnightblue" stroke="midnightblue" points="120.931,-29.5087 125.059,-19.7511 115.747,-24.8047 120.931,-29.5087"/>
</g>
</g>
</svg>
