<?xml version="1.0" encoding="UTF-8" standalone="no"?>
<!DOCTYPE svg PUBLIC "-//W3C//DTD SVG 1.1//EN"
 "http://www.w3.org/Graphics/SVG/1.1/DTD/svg11.dtd">
<!-- Generated by graphviz version 2.28.0 (20120217.0315)
 -->
<!-- Title: G Pages: 1 -->
<!--zoomable 489 -->
<svg id="main" version="1.1" xmlns="http://www.w3.org/2000/svg" xmlns:xlink="http://www.w3.org/1999/xlink" xml:space="preserve" onload="init(evt)">
        <defs>
                <circle id="rim" cx="0" cy="0" r="7"/>
                <circle id="rim2" cx="0" cy="0" r="3.5"/>
                <g id="zoomPlus">
                        <use xlink:href="#rim" fill="#404040">
                                <set attributeName="fill" to="#808080" begin="zoomplus.mouseover" end="zoomplus.mouseout"/>
                        </use>
                        <path d="M-4,0h8M0,-4v8" fill="none" stroke="white" stroke-width="1.5" pointer-events="none"/>
                </g>
                <g id="zoomMin">
                        <use xlink:href="#rim" fill="#404040">
                                <set attributeName="fill" to="#808080" begin="zoomminus.mouseover" end="zoomminus.mouseout"/>
                        </use>
                        <path d="M-4,0h8" fill="none" stroke="white" stroke-width="1.5" pointer-events="none"/>
                </g>
                <g id="dirArrow">
                        <path fill="none" stroke="white" stroke-width="1.5" d="M0,-3.0v7 M-2.5,-0.5L0,-3.0L2.5,-0.5"/>
                </g>
               <g id="resetDef">
                       <use xlink:href="#rim2" fill="#404040">
                               <set attributeName="fill" to="#808080" begin="reset.mouseover" end="reset.mouseout"/>
                       </use>
               </g>
        </defs>

<script type="text/javascript">
var viewWidth = 1172;
var viewHeight = 489;
var sectionId = 'dynsection-1';
</script>
<script xlink:href="../../svgpan.js"/>
<svg id="graph" class="graph">
<g id="viewport">
<title>G</title>
<!-- Node1 -->
<g id="node1" class="node"><title>Node1</title>
<polygon fill="#bfbfbf" stroke="black" points="631.5,-216.772 631.5,-235.772 714.5,-235.772 714.5,-216.772 631.5,-216.772"/>
<text text-anchor="middle" x="673" y="-223.772" font-family="DejaVuSansMono" font-size="10.00">xmpp_client</text>
</g>
<!-- Node11 -->
<g id="node27" class="node"><title>Node11</title>
<a xlink:href="../../d0/df0/xmpp__server_8c.html#d2/d06/structclient__listener" target="_top" xlink:title="Holds data on how to notify a component when a client disconnects.">
<polygon fill="none" stroke="black" points="832.5,-166.772 832.5,-185.772 939.5,-185.772 939.5,-166.772 832.5,-166.772"/>
<text text-anchor="middle" x="886" y="-173.772" font-family="DejaVuSansMono" font-size="10.00">client_listener</text>
</a>
</g>
<!-- Node1&#45;&gt;Node11 -->
<g id="edge38" class="edge"><title>Node1&#45;&gt;Node11</title>
<path fill="none" stroke="#9a32cd" stroke-dasharray="5,2" d="M724.211,-214.373C761.016,-205.652 810.336,-193.964 844.607,-185.843"/>
<polygon fill="#9a32cd" stroke="#9a32cd" points="723.108,-211.038 714.184,-216.749 724.722,-217.849 723.108,-211.038"/>
<text text-anchor="middle" x="775" y="-225.272" font-family="DejaVuSansMono" font-size="10.00"> client</text>
<text text-anchor="middle" x="775" y="-214.272" font-family="DejaVuSansMono" font-size="10.00">cb</text>
</g>
<!-- Node12 -->
<g id="node31" class="node"><title>Node12</title>
<a xlink:href="../../d0/df0/xmpp__server_8c.html#d5/da1/structc__client" target="_top" xlink:title="c_client">
<polygon fill="none" stroke="black" points="853.5,-291.772 853.5,-310.772 918.5,-310.772 918.5,-291.772 853.5,-291.772"/>
<text text-anchor="middle" x="886" y="-298.772" font-family="DejaVuSansMono" font-size="10.00">c_client</text>
</a>
</g>
<!-- Node1&#45;&gt;Node12 -->
<g id="edge44" class="edge"><title>Node1&#45;&gt;Node12</title>
<path fill="none" stroke="#9a32cd" stroke-dasharray="5,2" d="M690.249,-243.331C701.908,-254.504 718.579,-268.441 736,-276.272 774.039,-293.37 822.304,-298.873 853.419,-300.588"/>
<polygon fill="#9a32cd" stroke="#9a32cd" points="692.587,-240.72 683.031,-236.145 687.649,-245.681 692.587,-240.72"/>
<text text-anchor="middle" x="775" y="-299.272" font-family="DejaVuSansMono" font-size="10.00"> client</text>
</g>
<!-- Node2 -->
<g id="node2" class="node"><title>Node2</title>
<a xlink:href="../../d0/df0/xmpp__server_8c.html#d8/d34/structxmpp__server" target="_top" xlink:title="Holds data on a XMPP server (connected clients, routes, etc.).">
<polygon fill="none" stroke="black" points="1080.5,-252.772 1080.5,-271.772 1163.5,-271.772 1163.5,-252.772 1080.5,-252.772"/>
<text text-anchor="middle" x="1122" y="-259.772" font-family="DejaVuSansMono" font-size="10.00">xmpp_server</text>
</a>
</g>
<!-- Node2&#45;&gt;Node1 -->
<g id="edge2" class="edge"><title>Node2&#45;&gt;Node1</title>
<path fill="none" stroke="#9a32cd" stroke-dasharray="5,2" d="M1070,-260.758C996.129,-258.158 855.155,-251.666 736,-237.272 729.054,-236.432 721.706,-235.325 714.591,-234.137"/>
<polygon fill="#9a32cd" stroke="#9a32cd" points="1070.29,-264.269 1080.4,-261.114 1070.53,-257.274 1070.29,-264.269"/>
<text text-anchor="middle" x="886" y="-257.272" font-family="DejaVuSansMono" font-size="10.00"> server</text>
</g>
<!-- Node3 -->
<g id="node4" class="node"><title>Node3</title>
<a xlink:href="../../d0/df0/xmpp__server_8c.html#d4/d94/structstanza__route" target="_top" xlink:title="Holds data on how to send a stanza to a particular JID.">
<polygon fill="none" stroke="black" points="628.5,-338.772 628.5,-357.772 717.5,-357.772 717.5,-338.772 628.5,-338.772"/>
<text text-anchor="middle" x="673" y="-345.772" font-family="DejaVuSansMono" font-size="10.00">stanza_route</text>
</a>
</g>
<!-- Node3&#45;&gt;Node2 -->
<g id="edge4" class="edge"><title>Node3&#45;&gt;Node2</title>
<path fill="none" stroke="#9a32cd" stroke-dasharray="5,2" d="M727.911,-358.464C782.095,-366.903 867.716,-375.294 940,-360.272 997.881,-348.242 1011.01,-337.194 1062,-307.272 1079.78,-296.839 1098.38,-281.869 1109.83,-272.109"/>
<polygon fill="#9a32cd" stroke="#9a32cd" points="728.268,-354.977 717.839,-356.838 727.153,-361.887 728.268,-354.977"/>
<text text-anchor="middle" x="886" y="-371.272" font-family="DejaVuSansMono" font-size="10.00"> stanza_routes</text>
</g>
<!-- Node3&#45;&gt;Node3 -->
<g id="edge6" class="edge"><title>Node3&#45;&gt;Node3</title>
<path fill="none" stroke="#9a32cd" stroke-dasharray="5,2" d="M655.223,-367.672C656.41,-372.586 662.336,-376.272 673,-376.272 690.062,-376.272 694.995,-366.837 687.796,-358.029"/>
<polygon fill="#9a32cd" stroke="#9a32cd" points="658.594,-368.616 658.204,-358.029 651.907,-366.549 658.594,-368.616"/>
<text text-anchor="middle" x="673" y="-390.272" font-family="DejaVuSansMono" font-size="10.00"> prev</text>
<text text-anchor="middle" x="673" y="-379.272" font-family="DejaVuSansMono" font-size="10.00">next</text>
</g>
<!-- Node4 -->
<g id="node7" class="node"><title>Node4</title>
<a xlink:href="../../d1/d59/xmpp__stanza_8c.html#d5/d6b/structxmpp__stanza" target="_top" xlink:title="xmpp_stanza">
<polygon fill="none" stroke="black" points="248.5,-351.772 248.5,-370.772 331.5,-370.772 331.5,-351.772 248.5,-351.772"/>
<text text-anchor="middle" x="290" y="-358.772" font-family="DejaVuSansMono" font-size="10.00">xmpp_stanza</text>
</a>
</g>
<!-- Node4&#45;&gt;Node3 -->
<g id="edge8" class="edge"><title>Node4&#45;&gt;Node3</title>
<path fill="none" stroke="#9a32cd" stroke-dasharray="5,2" d="M341.97,-359.532C417.369,-356.96 557.342,-352.184 628.312,-349.762"/>
<polygon fill="#9a32cd" stroke="#9a32cd" points="341.648,-356.041 331.774,-359.88 341.887,-363.037 341.648,-356.041"/>
<text text-anchor="middle" x="478" y="-359.272" font-family="DejaVuSansMono" font-size="10.00"> cb</text>
</g>
<!-- Node4&#45;&gt;Node4 -->
<g id="edge14" class="edge"><title>Node4&#45;&gt;Node4</title>
<path fill="none" stroke="#9a32cd" stroke-dasharray="5,2" d="M273.334,-380.672C274.447,-385.586 280.002,-389.272 290,-389.272 305.996,-389.272 310.62,-379.837 303.872,-371.029"/>
<polygon fill="#9a32cd" stroke="#9a32cd" points="276.707,-381.608 276.128,-371.029 269.983,-379.659 276.707,-381.608"/>
<text text-anchor="middle" x="290" y="-425.272" font-family="DejaVuSansMono" font-size="10.00"> prev</text>
<text text-anchor="middle" x="290" y="-414.272" font-family="DejaVuSansMono" font-size="10.00">next</text>
<text text-anchor="middle" x="290" y="-403.272" font-family="DejaVuSansMono" font-size="10.00">parent</text>
<text text-anchor="middle" x="290" y="-392.272" font-family="DejaVuSansMono" font-size="10.00">children</text>
</g>
<!-- Node14 -->
<g id="node37" class="node"><title>Node14</title>
<a xlink:href="../../d0/df0/xmpp__server_8c.html#dd/d35/structiq__route" target="_top" xlink:title="Holds data on how to handle a particular iq stanza.">
<polygon fill="none" stroke="black" points="544.5,-415.772 544.5,-434.772 609.5,-434.772 609.5,-415.772 544.5,-415.772"/>
<text text-anchor="middle" x="577" y="-422.772" font-family="DejaVuSansMono" font-size="10.00">iq_route</text>
</a>
</g>
<!-- Node4&#45;&gt;Node14 -->
<g id="edge50" class="edge"><title>Node4&#45;&gt;Node14</title>
<path fill="none" stroke="#9a32cd" stroke-dasharray="5,2" d="M315.301,-375.852C325.669,-381.478 338.102,-387.462 350,-391.272 417.074,-412.747 499.784,-420.787 544.202,-423.699"/>
<polygon fill="#9a32cd" stroke="#9a32cd" points="316.865,-372.717 306.434,-370.86 313.431,-378.816 316.865,-372.717"/>
<text text-anchor="middle" x="381" y="-409.272" font-family="DejaVuSansMono" font-size="10.00"> cb</text>
</g>
<!-- Node16 -->
<g id="node45" class="node"><title>Node16</title>
<a xlink:href="../../d1/dc2/xmpp__parser_8c.html#d2/da4/structxmpp__parser" target="_top" xlink:title="Structure holding state for the XML parser.">
<polygon fill="none" stroke="black" points="436.5,-199.772 436.5,-218.772 519.5,-218.772 519.5,-199.772 436.5,-199.772"/>
<text text-anchor="middle" x="478" y="-206.772" font-family="DejaVuSansMono" font-size="10.00">xmpp_parser</text>
</a>
</g>
<!-- Node4&#45;&gt;Node16 -->
<g id="edge64" class="edge"><title>Node4&#45;&gt;Node16</title>
<path fill="none" stroke="#9a32cd" stroke-dasharray="5,2" d="M315.529,-345.917C341.94,-328.438 383.935,-297.798 412,-263.272 423.033,-249.698 417.082,-240.066 430,-228.272 434.16,-224.474 439.177,-221.387 444.363,-218.894"/>
<polygon fill="#9a32cd" stroke="#9a32cd" points="313.362,-343.151 306.885,-351.536 317.177,-349.02 313.362,-343.151"/>
<text text-anchor="middle" x="381" y="-334.272" font-family="DejaVuSansMono" font-size="10.00"> handler</text>
<text text-anchor="middle" x="381" y="-323.272" font-family="DejaVuSansMono" font-size="10.00">cur_stanza</text>
</g>
<!-- Node5 -->
<g id="node9" class="node"><title>Node5</title>
<a xlink:href="../../d1/dc2/xmpp__parser_8c.html#dc/d9d/structxmpp__parser__namespace" target="_top" xlink:title="Structure representing an XML namespace.">
<polygon fill="none" stroke="black" points="0.5,-254.772 0.5,-273.772 143.5,-273.772 143.5,-254.772 0.5,-254.772"/>
<text text-anchor="middle" x="72" y="-261.772" font-family="DejaVuSansMono" font-size="10.00">xmpp_parser_namespace</text>
</a>
</g>
<!-- Node5&#45;&gt;Node4 -->
<g id="edge10" class="edge"><title>Node5&#45;&gt;Node4</title>
<path fill="none" stroke="#9a32cd" stroke-dasharray="5,2" d="M103.646,-278.034C148.027,-297.964 229.078,-334.362 267.586,-351.655"/>
<polygon fill="#9a32cd" stroke="#9a32cd" points="105.057,-274.831 94.5006,-273.927 102.189,-281.216 105.057,-274.831"/>
<text text-anchor="middle" x="196" y="-335.272" font-family="DejaVuSansMono" font-size="10.00"> namespaces</text>
</g>
<!-- Node5&#45;&gt;Node5 -->
<g id="edge12" class="edge"><title>Node5&#45;&gt;Node5</title>
<path fill="none" stroke="#9a32cd" stroke-dasharray="5,2" d="M48.9346,-283.301C50.1928,-288.4 57.8812,-292.272 72,-292.272 94.0391,-292.272 100.41,-282.837 91.112,-274.029"/>
<polygon fill="#9a32cd" stroke="#9a32cd" points="52.1854,-284.6 52.888,-274.029 45.7463,-281.855 52.1854,-284.6"/>
<text text-anchor="middle" x="72" y="-295.272" font-family="DejaVuSansMono" font-size="10.00"> next</text>
</g>
<!-- Node5&#45;&gt;Node16 -->
<g id="edge62" class="edge"><title>Node5&#45;&gt;Node16</title>
<path fill="none" stroke="#9a32cd" stroke-dasharray="5,2" d="M152.82,-253.405C238.15,-241.788 370.072,-223.829 436.231,-214.822"/>
<polygon fill="#9a32cd" stroke="#9a32cd" points="152.347,-249.937 142.91,-254.754 153.291,-256.873 152.347,-249.937"/>
<text text-anchor="middle" x="290" y="-243.272" font-family="DejaVuSansMono" font-size="10.00"> namespaces</text>
</g>
<!-- Node6 -->
<g id="node13" class="node"><title>Node6</title>
<a xlink:href="../../d1/d59/xmpp__stanza_8c.html#d9/d18/structattribute" target="_top" xlink:title="Structure to store a stanza attribute.">
<polygon fill="none" stroke="black" points="36.5,-351.772 36.5,-370.772 107.5,-370.772 107.5,-351.772 36.5,-351.772"/>
<text text-anchor="middle" x="72" y="-358.772" font-family="DejaVuSansMono" font-size="10.00">attribute</text>
</a>
</g>
<!-- Node6&#45;&gt;Node4 -->
<g id="edge16" class="edge"><title>Node6&#45;&gt;Node4</title>
<path fill="none" stroke="#9a32cd" stroke-dasharray="5,2" d="M118.094,-361.272C156.57,-361.272 211.398,-361.272 248.495,-361.272"/>
<polygon fill="#9a32cd" stroke="#9a32cd" points="117.704,-357.772 107.704,-361.272 117.704,-364.772 117.704,-357.772"/>
<text text-anchor="middle" x="196" y="-364.272" font-family="DejaVuSansMono" font-size="10.00"> attributes</text>
</g>
<!-- Node7 -->
<g id="node15" class="node"><title>Node7</title>
<a xlink:href="../../d3/d5a/jid_8c.html#df/d09/structjid" target="_top" xlink:title="Represents a JID (local/resource).">
<polygon fill="none" stroke="black" points="460.5,-146.772 460.5,-165.772 495.5,-165.772 495.5,-146.772 460.5,-146.772"/>
<text text-anchor="middle" x="478" y="-153.772" font-family="DejaVuSansMono" font-size="10.00">jid</text>
</a>
</g>
<!-- Node7&#45;&gt;Node1 -->
<g id="edge66" class="edge"><title>Node7&#45;&gt;Node1</title>
<path fill="none" stroke="#9a32cd" stroke-dasharray="5,2" d="M505.399,-161.271C532.317,-166.84 574.981,-176.979 610,-191.272 626.937,-198.184 645.013,-208.802 657.25,-216.531"/>
<polygon fill="#9a32cd" stroke="#9a32cd" points="506.06,-157.834 495.566,-159.296 504.681,-164.697 506.06,-157.834"/>
<text text-anchor="middle" x="577" y="-194.272" font-family="DejaVuSansMono" font-size="10.00"> jid</text>
</g>
<!-- Node7&#45;&gt;Node2 -->
<g id="edge54" class="edge"><title>Node7&#45;&gt;Node2</title>
<path fill="none" stroke="#9a32cd" stroke-dasharray="5,2" d="M506.258,-153.511C577.87,-146.866 777.046,-132.3 940,-157.272 996.136,-165.874 1014.35,-164.368 1062,-195.272 1085.67,-210.621 1105.5,-238.01 1114.99,-252.561"/>
<polygon fill="#9a32cd" stroke="#9a32cd" points="505.506,-150.067 495.885,-154.502 506.172,-157.035 505.506,-150.067"/>
<text text-anchor="middle" x="775" y="-148.272" font-family="DejaVuSansMono" font-size="10.00"> jid</text>
</g>
<!-- Node7&#45;&gt;Node3 -->
<g id="edge18" class="edge"><title>Node7&#45;&gt;Node3</title>
<path fill="none" stroke="#9a32cd" stroke-dasharray="5,2" d="M504.151,-171.547C511.722,-176.879 519.688,-183.293 526,-190.272 536.687,-202.087 531.576,-211.298 544,-221.272 568.005,-240.541 585.964,-223.04 610,-242.272 642.961,-268.644 662.024,-317.631 668.97,-338.475"/>
<polygon fill="#9a32cd" stroke="#9a32cd" points="505.827,-168.458 495.567,-165.817 501.94,-174.28 505.827,-168.458"/>
<text text-anchor="middle" x="577" y="-245.272" font-family="DejaVuSansMono" font-size="10.00"> jid</text>
</g>
<!-- Node10 -->
<g id="node23" class="node"><title>Node10</title>
<a xlink:href="../../d0/df0/xmpp__server_8c.html#d9/dbe/structdisco__item" target="_top" xlink:title="Holds data for items to report during a DISCO items query.">
<polygon fill="none" stroke="black" points="736.5,-55.7716 736.5,-74.7716 813.5,-74.7716 813.5,-55.7716 736.5,-55.7716"/>
<text text-anchor="middle" x="775" y="-62.7716" font-family="DejaVuSansMono" font-size="10.00">disco_item</text>
</a>
</g>
<!-- Node7&#45;&gt;Node10 -->
<g id="edge32" class="edge"><title>Node7&#45;&gt;Node10</title>
<path fill="none" stroke="#9a32cd" stroke-dasharray="5,2" d="M498.838,-140.272C511.166,-131.085 527.721,-120.06 544,-113.272 608.567,-86.3458 689.847,-73.9542 736.47,-68.7074"/>
<polygon fill="#9a32cd" stroke="#9a32cd" points="496.467,-137.679 490.672,-146.549 500.734,-143.229 496.467,-137.679"/>
<text text-anchor="middle" x="577" y="-116.272" font-family="DejaVuSansMono" font-size="10.00"> jid</text>
</g>
<!-- Node8 -->
<g id="node17" class="node"><title>Node8</title>
<a xlink:href="../../d0/deb/event_8c.html#d9/de5/structevent__loop" target="_top" xlink:title="Contains data about the whole event loop.">
<polygon fill="none" stroke="black" points="847.5,-29.7716 847.5,-48.7716 924.5,-48.7716 924.5,-29.7716 847.5,-29.7716"/>
<text text-anchor="middle" x="886" y="-36.7716" font-family="DejaVuSansMono" font-size="10.00">event_loop</text>
</a>
</g>
<!-- Node8&#45;&gt;Node2 -->
<g id="edge20" class="edge"><title>Node8&#45;&gt;Node2</title>
<path fill="none" stroke="#9a32cd" stroke-dasharray="5,2" d="M934.621,-46.2507C983.125,-53.7591 1052.53,-65.7646 1062,-74.2716 1116.45,-123.202 1121.1,-221.7 1121.15,-252.702"/>
<polygon fill="#9a32cd" stroke="#9a32cd" points="935.032,-42.7729 924.618,-44.7197 933.973,-49.6924 935.032,-42.7729"/>
<text text-anchor="middle" x="1010" y="-77.2716" font-family="DejaVuSansMono" font-size="10.00"> loop</text>
</g>
<!-- Node9 -->
<g id="node19" class="node"><title>Node9</title>
<a xlink:href="../../d0/deb/event_8c.html#de/dcb/structevent__item" target="_top" xlink:title="Contains data for one callback function.">
<polygon fill="none" stroke="black" points="1083.5,-12.7716 1083.5,-31.7716 1160.5,-31.7716 1160.5,-12.7716 1083.5,-12.7716"/>
<text text-anchor="middle" x="1122" y="-19.7716" font-family="DejaVuSansMono" font-size="10.00">event_item</text>
</a>
</g>
<!-- Node8&#45;&gt;Node9 -->
<g id="edge24" class="edge"><title>Node8&#45;&gt;Node9</title>
<path fill="none" stroke="#9a32cd" stroke-dasharray="5,2" d="M934.758,-35.802C978.738,-32.6068 1043.11,-27.9304 1083.5,-24.9961"/>
<polygon fill="#9a32cd" stroke="#9a32cd" points="934.316,-32.3247 924.596,-36.5402 934.823,-39.3063 934.316,-32.3247"/>
<text text-anchor="middle" x="1010" y="-37.2716" font-family="DejaVuSansMono" font-size="10.00"> func</text>
</g>
<!-- Node9&#45;&gt;Node8 -->
<g id="edge22" class="edge"><title>Node9&#45;&gt;Node8</title>
<path fill="none" stroke="#9a32cd" stroke-dasharray="5,2" d="M1081.84,-10.1049C1075.28,-8.51271 1068.49,-7.13589 1062,-6.27155 1016.18,-0.169197 1003.13,3.7046 958,-6.27155 937.693,-10.7602 916.299,-21.6708 902.37,-29.7239"/>
<polygon fill="#9a32cd" stroke="#9a32cd" points="1081.34,-13.5917 1091.9,-12.7413 1083.12,-6.82036 1081.34,-13.5917"/>
<text text-anchor="middle" x="1010" y="-9.27155" font-family="DejaVuSansMono" font-size="10.00"> events</text>
</g>
<!-- Node9&#45;&gt;Node9 -->
<g id="edge26" class="edge"><title>Node9&#45;&gt;Node9</title>
<path fill="none" stroke="#9a32cd" stroke-dasharray="5,2" d="M1101.26,-41.6716C1102.65,-46.5861 1109.56,-50.2716 1122,-50.2716 1141.91,-50.2716 1147.66,-40.8368 1139.26,-32.0286"/>
<polygon fill="#9a32cd" stroke="#9a32cd" points="1104.64,-42.623 1104.74,-32.0286 1098.05,-40.2484 1104.64,-42.623"/>
<text text-anchor="middle" x="1122" y="-64.2716" font-family="DejaVuSansMono" font-size="10.00"> prev</text>
<text text-anchor="middle" x="1122" y="-53.2716" font-family="DejaVuSansMono" font-size="10.00">next</text>
</g>
<!-- Node10&#45;&gt;Node2 -->
<g id="edge28" class="edge"><title>Node10&#45;&gt;Node2</title>
<path fill="none" stroke="#9a32cd" stroke-dasharray="5,2" d="M823.742,-69.7676C895.367,-77.3821 1026.08,-94.9186 1062,-124.272 1103.56,-158.235 1116.44,-226.897 1119.88,-252.422"/>
<polygon fill="#9a32cd" stroke="#9a32cd" points="823.929,-66.2684 813.621,-68.7159 823.206,-73.2309 823.929,-66.2684"/>
<text text-anchor="middle" x="886" y="-89.2716" font-family="DejaVuSansMono" font-size="10.00"> disco_items</text>
</g>
<!-- Node10&#45;&gt;Node10 -->
<g id="edge30" class="edge"><title>Node10&#45;&gt;Node10</title>
<path fill="none" stroke="#9a32cd" stroke-dasharray="5,2" d="M756.112,-84.6716C757.373,-89.5861 763.669,-93.2716 775,-93.2716 793.129,-93.2716 798.369,-83.8368 790.721,-75.0286"/>
<polygon fill="#9a32cd" stroke="#9a32cd" points="759.484,-85.6215 759.279,-75.0286 752.833,-83.4373 759.484,-85.6215"/>
<text text-anchor="middle" x="775" y="-107.272" font-family="DejaVuSansMono" font-size="10.00"> prev</text>
<text text-anchor="middle" x="775" y="-96.2716" font-family="DejaVuSansMono" font-size="10.00">next</text>
</g>
<!-- Node11&#45;&gt;Node2 -->
<g id="edge34" class="edge"><title>Node11&#45;&gt;Node2</title>
<path fill="none" stroke="#9a32cd" stroke-dasharray="5,2" d="M925.859,-189.005C961.498,-200.875 1015.63,-219.387 1062,-237.272 1074.46,-242.075 1088.2,-247.869 1099.28,-252.668"/>
<polygon fill="#9a32cd" stroke="#9a32cd" points="926.912,-185.667 916.319,-185.839 924.707,-192.31 926.912,-185.667"/>
<text text-anchor="middle" x="1010" y="-240.272" font-family="DejaVuSansMono" font-size="10.00"> client_listeners</text>
</g>
<!-- Node11&#45;&gt;Node11 -->
<g id="edge36" class="edge"><title>Node11&#45;&gt;Node11</title>
<path fill="none" stroke="#9a32cd" stroke-dasharray="5,2" d="M865.631,-195.672C866.991,-200.586 873.781,-204.272 886,-204.272 905.551,-204.272 911.202,-194.837 902.954,-186.029"/>
<polygon fill="#9a32cd" stroke="#9a32cd" points="869.007,-196.623 869.046,-186.029 862.408,-194.286 869.007,-196.623"/>
<text text-anchor="middle" x="886" y="-218.272" font-family="DejaVuSansMono" font-size="10.00"> prev</text>
<text text-anchor="middle" x="886" y="-207.272" font-family="DejaVuSansMono" font-size="10.00">next</text>
</g>
<!-- Node12&#45;&gt;Node2 -->
<g id="edge40" class="edge"><title>Node12&#45;&gt;Node2</title>
<path fill="none" stroke="#9a32cd" stroke-dasharray="5,2" d="M928.775,-296.39C964.34,-291.975 1016.72,-284.86 1062,-276.272 1068.83,-274.977 1076.05,-273.419 1083.02,-271.82"/>
<polygon fill="#9a32cd" stroke="#9a32cd" points="928.258,-292.927 918.757,-297.618 929.109,-299.875 928.258,-292.927"/>
<text text-anchor="middle" x="1010" y="-295.272" font-family="DejaVuSansMono" font-size="10.00"> clients</text>
</g>
<!-- Node12&#45;&gt;Node12 -->
<g id="edge42" class="edge"><title>Node12&#45;&gt;Node12</title>
<path fill="none" stroke="#9a32cd" stroke-dasharray="5,2" d="M865.631,-320.672C866.991,-325.586 873.781,-329.272 886,-329.272 905.551,-329.272 911.202,-319.837 902.954,-311.029"/>
<polygon fill="#9a32cd" stroke="#9a32cd" points="869.007,-321.623 869.046,-311.029 862.408,-319.286 869.007,-321.623"/>
<text text-anchor="middle" x="886" y="-343.272" font-family="DejaVuSansMono" font-size="10.00"> prev</text>
<text text-anchor="middle" x="886" y="-332.272" font-family="DejaVuSansMono" font-size="10.00">next</text>
</g>
<!-- Node13 -->
<g id="node35" class="node"><title>Node13</title>
<a xlink:href="../../d9/db0/structauth__callback.html" target="_top" xlink:title="Holds data for an authentication callback.">
<polygon fill="none" stroke="black" points="838.5,-454.772 838.5,-473.772 933.5,-473.772 933.5,-454.772 838.5,-454.772"/>
<text text-anchor="middle" x="886" y="-461.772" font-family="DejaVuSansMono" font-size="10.00">auth_callback</text>
</a>
</g>
<!-- Node13&#45;&gt;Node2 -->
<g id="edge46" class="edge"><title>Node13&#45;&gt;Node2</title>
<path fill="none" stroke="#9a32cd" stroke-dasharray="5,2" d="M943.879,-470.93C981.449,-472.154 1029.56,-467.239 1062,-440.272 1115.33,-395.944 1120.76,-302.155 1121.08,-271.899"/>
<polygon fill="#9a32cd" stroke="#9a32cd" points="943.74,-467.419 933.583,-470.435 943.404,-474.411 943.74,-467.419"/>
<text text-anchor="middle" x="1010" y="-473.272" font-family="DejaVuSansMono" font-size="10.00"> auth_callback</text>
</g>
<!-- Node14&#45;&gt;Node2 -->
<g id="edge48" class="edge"><title>Node14&#45;&gt;Node2</title>
<path fill="none" stroke="#9a32cd" stroke-dasharray="5,2" d="M619.713,-430.01C709.751,-437.959 925.209,-444.462 1062,-345.272 1089.34,-325.449 1108.72,-289.003 1116.81,-271.773"/>
<polygon fill="#9a32cd" stroke="#9a32cd" points="619.903,-426.512 609.62,-429.065 619.251,-433.482 619.903,-426.512"/>
<text text-anchor="middle" x="775" y="-436.272" font-family="DejaVuSansMono" font-size="10.00"> iq_routes</text>
</g>
<!-- Node14&#45;&gt;Node14 -->
<g id="edge52" class="edge"><title>Node14&#45;&gt;Node14</title>
<path fill="none" stroke="#9a32cd" stroke-dasharray="5,2" d="M559.223,-444.672C560.41,-449.586 566.336,-453.272 577,-453.272 594.062,-453.272 598.995,-443.837 591.796,-435.029"/>
<polygon fill="#9a32cd" stroke="#9a32cd" points="562.594,-445.616 562.204,-435.029 555.907,-443.549 562.594,-445.616"/>
<text text-anchor="middle" x="577" y="-467.272" font-family="DejaVuSansMono" font-size="10.00"> prev</text>
<text text-anchor="middle" x="577" y="-456.272" font-family="DejaVuSansMono" font-size="10.00">next</text>
</g>
<!-- Node15 -->
<g id="node42" class="node"><title>Node15</title>
<a xlink:href="../../d9/d71/client__socket_8h.html#df/d6d/structclient__socket" target="_top" xlink:title="client_socket">
<polygon fill="none" stroke="black" points="430.5,-237.772 430.5,-256.772 525.5,-256.772 525.5,-237.772 430.5,-237.772"/>
<text text-anchor="middle" x="478" y="-244.772" font-family="DejaVuSansMono" font-size="10.00">client_socket</text>
</a>
</g>
<!-- Node15&#45;&gt;Node1 -->
<g id="edge56" class="edge"><title>Node15&#45;&gt;Node1</title>
<path fill="none" stroke="#9a32cd" stroke-dasharray="5,2" d="M535.63,-257.555C558.902,-260.022 585.975,-260.613 610,-255.272 626.704,-251.558 644.233,-242.846 656.374,-235.935"/>
<polygon fill="#9a32cd" stroke="#9a32cd" points="535.916,-254.064 525.571,-256.35 535.083,-261.015 535.916,-254.064"/>
<text text-anchor="middle" x="577" y="-262.272" font-family="DejaVuSansMono" font-size="10.00"> socket</text>
</g>
<!-- Node15&#45;&gt;Node15 -->
<g id="edge58" class="edge"><title>Node15&#45;&gt;Node15</title>
<path fill="none" stroke="#9a32cd" stroke-dasharray="5,2" d="M460.223,-266.672C461.41,-271.586 467.336,-275.272 478,-275.272 495.062,-275.272 499.995,-265.837 492.796,-257.029"/>
<polygon fill="#9a32cd" stroke="#9a32cd" points="463.594,-267.616 463.204,-257.029 456.907,-265.549 463.594,-267.616"/>
<text text-anchor="middle" x="478" y="-333.272" font-family="DejaVuSansMono" font-size="10.00"> recv_func</text>
<text text-anchor="middle" x="478" y="-322.272" font-family="DejaVuSansMono" font-size="10.00">send_func</text>
<text text-anchor="middle" x="478" y="-311.272" font-family="DejaVuSansMono" font-size="10.00">close_func</text>
<text text-anchor="middle" x="478" y="-300.272" font-family="DejaVuSansMono" font-size="10.00">del_func</text>
<text text-anchor="middle" x="478" y="-289.272" font-family="DejaVuSansMono" font-size="10.00">fd_func</text>
<text text-anchor="middle" x="478" y="-278.272" font-family="DejaVuSansMono" font-size="10.00">str_func</text>
</g>
<!-- Node16&#45;&gt;Node1 -->
<g id="edge60" class="edge"><title>Node16&#45;&gt;Node1</title>
<path fill="none" stroke="#9a32cd" stroke-dasharray="5,2" d="M529.704,-206.78C554.079,-206.316 583.657,-206.825 610,-210.272 620.251,-211.613 631.236,-214.091 641.07,-216.703"/>
<polygon fill="#9a32cd" stroke="#9a32cd" points="529.509,-203.284 519.6,-207.034 529.685,-210.282 529.509,-203.284"/>
<text text-anchor="middle" x="577" y="-213.272" font-family="DejaVuSansMono" font-size="10.00"> parser</text>
</g>
</g>
</svg>
        <g id="navigator" transform="translate(0 0)" fill="#404254">
                <rect fill="#f2f5e9" fill-opacity="0.5" stroke="#606060" stroke-width=".5" x="0" y="0" width="60" height="60"/>
                <use id="zoomplus" xlink:href="#zoomPlus" x="17" y="9" onmousedown="handleZoom(evt,'in')"/>
                <use id="zoomminus" xlink:href="#zoomMin" x="42" y="9" onmousedown="handleZoom(evt,'out')"/>
                <use id="reset" xlink:href="#resetDef" x="30" y="36" onmousedown="handleReset()"/>
                <g id="arrowUp" xlink:href="#dirArrow" transform="translate(30 24)" onmousedown="handlePan(0,-1)">
                  <use xlink:href="#rim" fill="#404040">
                        <set attributeName="fill" to="#808080" begin="arrowUp.mouseover" end="arrowUp.mouseout"/>
                  </use>
                  <path fill="none" stroke="white" stroke-width="1.5" d="M0,-3.0v7 M-2.5,-0.5L0,-3.0L2.5,-0.5"/>
                </g>
                <g id="arrowRight" xlink:href="#dirArrow" transform="rotate(90) translate(36 -43)" onmousedown="handlePan(1,0)">
                  <use xlink:href="#rim" fill="#404040">
                        <set attributeName="fill" to="#808080" begin="arrowRight.mouseover" end="arrowRight.mouseout"/>
                  </use>
                  <path fill="none" stroke="white" stroke-width="1.5" d="M0,-3.0v7 M-2.5,-0.5L0,-3.0L2.5,-0.5"/>
                </g>
                <g id="arrowDown" xlink:href="#dirArrow" transform="rotate(180) translate(-30 -48)" onmousedown="handlePan(0,1)">
                  <use xlink:href="#rim" fill="#404040">
                        <set attributeName="fill" to="#808080" begin="arrowDown.mouseover" end="arrowDown.mouseout"/>
                  </use>
                  <path fill="none" stroke="white" stroke-width="1.5" d="M0,-3.0v7 M-2.5,-0.5L0,-3.0L2.5,-0.5"/>
                </g>
                <g id="arrowLeft" xlink:href="#dirArrow" transform="rotate(270) translate(-36 17)" onmousedown="handlePan(-1,0)">
                  <use xlink:href="#rim" fill="#404040">
                        <set attributeName="fill" to="#808080" begin="arrowLeft.mouseover" end="arrowLeft.mouseout"/>
                  </use>
                  <path fill="none" stroke="white" stroke-width="1.5" d="M0,-3.0v7 M-2.5,-0.5L0,-3.0L2.5,-0.5"/>
                </g>
        </g>
        <svg viewBox="0 0 25 25" width="100%" height="30px" preserveAspectRatio="xMaxYMin meet"> 
          <g id="printButton" transform="scale(0.4 0.4)" onmousedown="handlePrint(evt)">
            <rect height="23.33753581" id="paper" rx="2" style="fill:#f2f5e9;fill-rule:evenodd;stroke:#111111;stroke-width:3.224;stroke-linejoin:round;" transform="matrix(1.000000,0.000000,-0.339266,0.940691,0.000000,0.000000)" width="25.55231285" x="26.69387353" y="7.36162977"/>
            <rect height="26.272097" id="body" rx="2" style="fill:#404040;fill-rule:evenodd;stroke:#111111;stroke-width:3.125;stroke-linejoin:round;" width="50" x="4.5295201" y="27.078951"/>
            <rect height="8.27750969" id="tray" style="fill:#d2d5c9;fill-rule:evenodd;stroke:#111111;stroke-width:3.125;stroke-linecap:round;stroke-linejoin:round;" width="40" x="10.28778839" y="44.96812282"/>
          </g>
        </svg>
</svg>
