<?xml version="1.0" encoding="UTF-8" standalone="no"?>
<!DOCTYPE svg PUBLIC "-//W3C//DTD SVG 1.1//EN"
 "http://www.w3.org/Graphics/SVG/1.1/DTD/svg11.dtd">
<!-- Generated by graphviz version 2.28.0 (20120217.0315)
 -->
<!-- Title: G Pages: 1 -->
<!--zoomable 84 -->
<svg id="main" version="1.1" xmlns="http://www.w3.org/2000/svg" xmlns:xlink="http://www.w3.org/1999/xlink" xml:space="preserve" onload="init(evt)">
        <defs>
                <circle id="rim" cx="0" cy="0" r="7"/>
                <circle id="rim2" cx="0" cy="0" r="3.5"/>
                <g id="zoomPlus">
                        <use xlink:href="#rim" fill="#404040">
                                <set attributeName="fill" to="#808080" begin="zoomplus.mouseover" end="zoomplus.mouseout"/>
                        </use>
                        <path d="M-4,0h8M0,-4v8" fill="none" stroke="white" stroke-width="1.5" pointer-events="none"/>
                </g>
                <g id="zoomMin">
                        <use xlink:href="#rim" fill="#404040">
                                <set attributeName="fill" to="#808080" begin="zoomminus.mouseover" end="zoomminus.mouseout"/>
                        </use>
                        <path d="M-4,0h8" fill="none" stroke="white" stroke-width="1.5" pointer-events="none"/>
                </g>
                <g id="dirArrow">
                        <path fill="none" stroke="white" stroke-width="1.5" d="M0,-3.0v7 M-2.5,-0.5L0,-3.0L2.5,-0.5"/>
                </g>
               <g id="resetDef">
                       <use xlink:href="#rim2" fill="#404040">
                               <set attributeName="fill" to="#808080" begin="reset.mouseover" end="reset.mouseout"/>
                       </use>
               </g>
        </defs>

<script type="text/javascript">
var viewWidth = 1263;
var viewHeight = 84;
var sectionId = 'dynsection-1';
</script>
<script xlink:href="../../svgpan.js"/>
<svg id="graph" class="graph">
<g id="viewport">
<title>G</title>
<!-- Node1 -->
<g id="node1" class="node"><title>Node1</title>
<polygon fill="#bfbfbf" stroke="black" points="540.5,-56.5 540.5,-75.5 623.5,-75.5 623.5,-56.5 540.5,-56.5"/>
<text text-anchor="middle" x="582" y="-63.5" font-family="DejaVuSansMono" font-size="10.00">src/utils.h</text>
</g>
<!-- Node2 -->
<g id="node3" class="node"><title>Node2</title>
<a xlink:href="../../d3/d5a/jid_8c.html" target="_top" xlink:title="Defines structures and functions for XMP3 extension modules.">
<polygon fill="none" stroke="black" points="-0.5,-0.5 -0.5,-19.5 70.5,-19.5 70.5,-0.5 -0.5,-0.5"/>
<text text-anchor="middle" x="35" y="-7.5" font-family="DejaVuSansMono" font-size="10.00">src/jid.c</text>
</a>
</g>
<!-- Node1&#45;&gt;Node2 -->
<g id="edge2" class="edge"><title>Node1&#45;&gt;Node2</title>
<path fill="none" stroke="midnightblue" d="M530.317,-62.3004C438.917,-57.0983 242.927,-44.0201 79,-20 76.377,-19.6157 73.6746,-19.1746 70.9602,-18.6988"/>
<polygon fill="midnightblue" stroke="midnightblue" points="530.23,-65.801 540.41,-62.8669 530.622,-58.812 530.23,-65.801"/>
</g>
<!-- Node3 -->
<g id="node5" class="node"><title>Node3</title>
<a xlink:href="../../d3/d91/utils_8c.html" target="_top" xlink:title="Miscellaneous utility functions.">
<polygon fill="none" stroke="black" points="88.5,-0.5 88.5,-19.5 171.5,-19.5 171.5,-0.5 88.5,-0.5"/>
<text text-anchor="middle" x="130" y="-7.5" font-family="DejaVuSansMono" font-size="10.00">src/utils.c</text>
</a>
</g>
<!-- Node1&#45;&gt;Node3 -->
<g id="edge4" class="edge"><title>Node1&#45;&gt;Node3</title>
<path fill="none" stroke="midnightblue" d="M529.861,-60.2828C453.066,-53.0816 305.109,-38.2416 180,-20 177.294,-19.6055 174.511,-19.1746 171.708,-18.7218"/>
<polygon fill="midnightblue" stroke="midnightblue" points="529.933,-63.8046 540.215,-61.2478 530.583,-56.8348 529.933,-63.8046"/>
</g>
<!-- Node4 -->
<g id="node7" class="node"><title>Node4</title>
<a xlink:href="../../d7/d71/xep__muc_8c.html" target="_top" xlink:title="Implements XEP&#45;0045 Multi&#45;User Chat.">
<polygon fill="none" stroke="black" points="189.5,-0.5 189.5,-19.5 284.5,-19.5 284.5,-0.5 189.5,-0.5"/>
<text text-anchor="middle" x="237" y="-7.5" font-family="DejaVuSansMono" font-size="10.00">src/xep_muc.c</text>
</a>
</g>
<!-- Node1&#45;&gt;Node4 -->
<g id="edge6" class="edge"><title>Node1&#45;&gt;Node4</title>
<path fill="none" stroke="midnightblue" d="M530.367,-57.038C472.542,-48.1032 376.035,-33.1371 293,-20 290.277,-19.5691 287.479,-19.1249 284.656,-18.6753"/>
<polygon fill="midnightblue" stroke="midnightblue" points="529.936,-60.5129 540.353,-58.5805 531.005,-53.5949 529.936,-60.5129"/>
</g>
<!-- Node5 -->
<g id="node9" class="node"><title>Node5</title>
<a xlink:href="../../d3/dd8/xmp3__module_8c.html" target="_top" xlink:title="Defines structures and functions for XMP3 extension modules.">
<polygon fill="none" stroke="black" points="302.5,-0.5 302.5,-19.5 421.5,-19.5 421.5,-0.5 302.5,-0.5"/>
<text text-anchor="middle" x="362" y="-7.5" font-family="DejaVuSansMono" font-size="10.00">src/xmp3_module.c</text>
</a>
</g>
<!-- Node1&#45;&gt;Node5 -->
<g id="edge8" class="edge"><title>Node1&#45;&gt;Node5</title>
<path fill="none" stroke="midnightblue" d="M537.282,-54.0237C495.724,-43.8232 434.687,-28.8414 396.697,-19.5164"/>
<polygon fill="midnightblue" stroke="midnightblue" points="536.594,-57.4588 547.14,-56.4435 538.263,-50.6606 536.594,-57.4588"/>
</g>
<!-- Node6 -->
<g id="node11" class="node"><title>Node6</title>
<a xlink:href="../../d6/d78/xmp3__multicast_8c.html" target="_top" xlink:title="Simple extension module that multicasts messages to other XMP3 instances.">
<polygon fill="none" stroke="black" points="439.5,-0.5 439.5,-19.5 576.5,-19.5 576.5,-0.5 439.5,-0.5"/>
<text text-anchor="middle" x="508" y="-7.5" font-family="DejaVuSansMono" font-size="10.00">src/xmp3_multicast.c</text>
</a>
</g>
<!-- Node1&#45;&gt;Node6 -->
<g id="edge10" class="edge"><title>Node1&#45;&gt;Node6</title>
<path fill="none" stroke="midnightblue" d="M561.966,-50.3804C548.591,-40.6204 531.441,-28.1057 520.106,-19.8339"/>
<polygon fill="midnightblue" stroke="midnightblue" points="559.97,-53.2565 570.111,-56.324 564.096,-47.602 559.97,-53.2565"/>
</g>
<!-- Node7 -->
<g id="node13" class="node"><title>Node7</title>
<a xlink:href="../../dd/d68/xmp3__options_8c.html" target="_top" xlink:title="Functions for maintaining settings for XMP3.">
<polygon fill="none" stroke="black" points="594.5,-0.5 594.5,-19.5 719.5,-19.5 719.5,-0.5 594.5,-0.5"/>
<text text-anchor="middle" x="657" y="-7.5" font-family="DejaVuSansMono" font-size="10.00">src/xmp3_options.c</text>
</a>
</g>
<!-- Node1&#45;&gt;Node7 -->
<g id="edge12" class="edge"><title>Node1&#45;&gt;Node7</title>
<path fill="none" stroke="midnightblue" d="M602.305,-50.3804C615.861,-40.6204 633.242,-28.1057 644.731,-19.8339"/>
<polygon fill="midnightblue" stroke="midnightblue" points="600.12,-47.6405 594.05,-56.324 604.21,-53.3213 600.12,-47.6405"/>
</g>
<!-- Node8 -->
<g id="node15" class="node"><title>Node8</title>
<a xlink:href="../../df/da9/xmpp__auth_8c.html" target="_top" xlink:title="Implement initial XMPP authendication.">
<polygon fill="none" stroke="black" points="737.5,-0.5 737.5,-19.5 844.5,-19.5 844.5,-0.5 737.5,-0.5"/>
<text text-anchor="middle" x="791" y="-7.5" font-family="DejaVuSansMono" font-size="10.00">src/xmpp_auth.c</text>
</a>
</g>
<!-- Node1&#45;&gt;Node8 -->
<g id="edge14" class="edge"><title>Node1&#45;&gt;Node8</title>
<path fill="none" stroke="midnightblue" d="M624.984,-53.8941C664.452,-43.6966 722.1,-28.802 758.038,-19.5164"/>
<polygon fill="midnightblue" stroke="midnightblue" points="623.923,-50.5532 615.117,-56.4435 625.674,-57.3306 623.923,-50.5532"/>
</g>
<!-- Node9 -->
<g id="node17" class="node"><title>Node9</title>
<a xlink:href="../../d1/dc2/xmpp__parser_8c.html" target="_top" xlink:title="DOM&#45;style XML parser for XMPP stanzas.">
<polygon fill="none" stroke="black" points="862.5,-0.5 862.5,-19.5 981.5,-19.5 981.5,-0.5 862.5,-0.5"/>
<text text-anchor="middle" x="922" y="-7.5" font-family="DejaVuSansMono" font-size="10.00">src/xmpp_parser.c</text>
</a>
</g>
<!-- Node1&#45;&gt;Node9 -->
<g id="edge16" class="edge"><title>Node1&#45;&gt;Node9</title>
<path fill="none" stroke="midnightblue" d="M633.858,-56.7638C697.235,-46.698 803.947,-29.7496 868.196,-19.5453"/>
<polygon fill="midnightblue" stroke="midnightblue" points="633.018,-53.3532 623.691,-58.3785 634.116,-60.2666 633.018,-53.3532"/>
</g>
<!-- Node10 -->
<g id="node19" class="node"><title>Node10</title>
<a xlink:href="../../d0/df0/xmpp__server_8c.html" target="_top" xlink:title="Main XMPP server data/functions.">
<polygon fill="none" stroke="black" points="999.5,-0.5 999.5,-19.5 1118.5,-19.5 1118.5,-0.5 999.5,-0.5"/>
<text text-anchor="middle" x="1059" y="-7.5" font-family="DejaVuSansMono" font-size="10.00">src/xmpp_server.c</text>
</a>
</g>
<!-- Node1&#45;&gt;Node10 -->
<g id="edge18" class="edge"><title>Node1&#45;&gt;Node10</title>
<path fill="none" stroke="midnightblue" d="M633.719,-59.6283C711.209,-51.5044 862.024,-35.4022 990,-20 992.999,-19.6391 996.069,-19.2629 999.17,-18.8778"/>
<polygon fill="midnightblue" stroke="midnightblue" points="633.314,-56.1514 623.733,-60.6735 634.043,-63.1133 633.314,-56.1514"/>
</g>
<!-- Node11 -->
<g id="node21" class="node"><title>Node11</title>
<a xlink:href="../../d1/d59/xmpp__stanza_8c.html" target="_top" xlink:title="Represents top&#45;level XMPP stanzas received from clients.">
<polygon fill="none" stroke="black" points="1136.5,-0.5 1136.5,-19.5 1255.5,-19.5 1255.5,-0.5 1136.5,-0.5"/>
<text text-anchor="middle" x="1196" y="-7.5" font-family="DejaVuSansMono" font-size="10.00">src/xmpp_stanza.c</text>
</a>
</g>
<!-- Node1&#45;&gt;Node11 -->
<g id="edge20" class="edge"><title>Node1&#45;&gt;Node11</title>
<path fill="none" stroke="midnightblue" d="M633.895,-61.5366C730.883,-54.8812 946.191,-39.2456 1127,-20 1130,-19.6803 1133.08,-19.3373 1136.18,-18.9784"/>
<polygon fill="midnightblue" stroke="midnightblue" points="633.509,-58.0547 623.771,-62.2281 633.987,-65.0384 633.509,-58.0547"/>
</g>
</g>
</svg>
        <g id="navigator" transform="translate(0 0)" fill="#404254">
                <rect fill="#f2f5e9" fill-opacity="0.5" stroke="#606060" stroke-width=".5" x="0" y="0" width="60" height="60"/>
                <use id="zoomplus" xlink:href="#zoomPlus" x="17" y="9" onmousedown="handleZoom(evt,'in')"/>
                <use id="zoomminus" xlink:href="#zoomMin" x="42" y="9" onmousedown="handleZoom(evt,'out')"/>
                <use id="reset" xlink:href="#resetDef" x="30" y="36" onmousedown="handleReset()"/>
                <g id="arrowUp" xlink:href="#dirArrow" transform="translate(30 24)" onmousedown="handlePan(0,-1)">
                  <use xlink:href="#rim" fill="#404040">
                        <set attributeName="fill" to="#808080" begin="arrowUp.mouseover" end="arrowUp.mouseout"/>
                  </use>
                  <path fill="none" stroke="white" stroke-width="1.5" d="M0,-3.0v7 M-2.5,-0.5L0,-3.0L2.5,-0.5"/>
                </g>
                <g id="arrowRight" xlink:href="#dirArrow" transform="rotate(90) translate(36 -43)" onmousedown="handlePan(1,0)">
                  <use xlink:href="#rim" fill="#404040">
                        <set attributeName="fill" to="#808080" begin="arrowRight.mouseover" end="arrowRight.mouseout"/>
                  </use>
                  <path fill="none" stroke="white" stroke-width="1.5" d="M0,-3.0v7 M-2.5,-0.5L0,-3.0L2.5,-0.5"/>
                </g>
                <g id="arrowDown" xlink:href="#dirArrow" transform="rotate(180) translate(-30 -48)" onmousedown="handlePan(0,1)">
                  <use xlink:href="#rim" fill="#404040">
                        <set attributeName="fill" to="#808080" begin="arrowDown.mouseover" end="arrowDown.mouseout"/>
                  </use>
                  <path fill="none" stroke="white" stroke-width="1.5" d="M0,-3.0v7 M-2.5,-0.5L0,-3.0L2.5,-0.5"/>
                </g>
                <g id="arrowLeft" xlink:href="#dirArrow" transform="rotate(270) translate(-36 17)" onmousedown="handlePan(-1,0)">
                  <use xlink:href="#rim" fill="#404040">
                        <set attributeName="fill" to="#808080" begin="arrowLeft.mouseover" end="arrowLeft.mouseout"/>
                  </use>
                  <path fill="none" stroke="white" stroke-width="1.5" d="M0,-3.0v7 M-2.5,-0.5L0,-3.0L2.5,-0.5"/>
                </g>
        </g>
        <svg viewBox="0 0 25 25" width="100%" height="30px" preserveAspectRatio="xMaxYMin meet"> 
          <g id="printButton" transform="scale(0.4 0.4)" onmousedown="handlePrint(evt)">
            <rect height="23.33753581" id="paper" rx="2" style="fill:#f2f5e9;fill-rule:evenodd;stroke:#111111;stroke-width:3.224;stroke-linejoin:round;" transform="matrix(1.000000,0.000000,-0.339266,0.940691,0.000000,0.000000)" width="25.55231285" x="26.69387353" y="7.36162977"/>
            <rect height="26.272097" id="body" rx="2" style="fill:#404040;fill-rule:evenodd;stroke:#111111;stroke-width:3.125;stroke-linejoin:round;" width="50" x="4.5295201" y="27.078951"/>
            <rect height="8.27750969" id="tray" style="fill:#d2d5c9;fill-rule:evenodd;stroke:#111111;stroke-width:3.125;stroke-linecap:round;stroke-linejoin:round;" width="40" x="10.28778839" y="44.96812282"/>
          </g>
        </svg>
</svg>
