<?xml version="1.0" encoding="UTF-8" standalone="no"?>
<!DOCTYPE svg PUBLIC "-//W3C//DTD SVG 1.1//EN"
 "http://www.w3.org/Graphics/SVG/1.1/DTD/svg11.dtd">
<!-- Generated by graphviz version 2.28.0 (20120217.0315)
 -->
<!-- Title: G Pages: 1 -->
<!--zoomable 458 -->
<svg id="main" version="1.1" xmlns="http://www.w3.org/2000/svg" xmlns:xlink="http://www.w3.org/1999/xlink" xml:space="preserve" onload="init(evt)">
        <defs>
                <circle id="rim" cx="0" cy="0" r="7"/>
                <circle id="rim2" cx="0" cy="0" r="3.5"/>
                <g id="zoomPlus">
                        <use xlink:href="#rim" fill="#404040">
                                <set attributeName="fill" to="#808080" begin="zoomplus.mouseover" end="zoomplus.mouseout"/>
                        </use>
                        <path d="M-4,0h8M0,-4v8" fill="none" stroke="white" stroke-width="1.5" pointer-events="none"/>
                </g>
                <g id="zoomMin">
                        <use xlink:href="#rim" fill="#404040">
                                <set attributeName="fill" to="#808080" begin="zoomminus.mouseover" end="zoomminus.mouseout"/>
                        </use>
                        <path d="M-4,0h8" fill="none" stroke="white" stroke-width="1.5" pointer-events="none"/>
                </g>
                <g id="dirArrow">
                        <path fill="none" stroke="white" stroke-width="1.5" d="M0,-3.0v7 M-2.5,-0.5L0,-3.0L2.5,-0.5"/>
                </g>
               <g id="resetDef">
                       <use xlink:href="#rim2" fill="#404040">
                               <set attributeName="fill" to="#808080" begin="reset.mouseover" end="reset.mouseout"/>
                       </use>
               </g>
        </defs>

<script type="text/javascript">
var viewWidth = 638;
var viewHeight = 458;
var sectionId = 'dynsection-1';
</script>
<script xlink:href="../../svgpan.js"/>
<svg id="graph" class="graph">
<g id="viewport">
<title>G</title>
<!-- Node1 -->
<g id="node1" class="node"><title>Node1</title>
<polygon fill="#bfbfbf" stroke="black" points="0.5,-211.427 0.5,-230.427 155.5,-230.427 155.5,-211.427 0.5,-211.427"/>
<text text-anchor="middle" x="78" y="-218.427" font-family="DejaVuSansMono" font-size="10.00">xmpp_core_handle_stanza</text>
</g>
<!-- Node2 -->
<g id="node3" class="node"><title>Node2</title>
<a xlink:href="../../dd/d4d/xmpp__client_8c.html#a5ff8a826aface187b00ffcdfb7ce125a" target="_top" xlink:title="Return the server this client is connected to.">
<polygon fill="none" stroke="black" points="210.5,-382.427 210.5,-401.427 335.5,-401.427 335.5,-382.427 210.5,-382.427"/>
<text text-anchor="middle" x="273" y="-389.427" font-family="DejaVuSansMono" font-size="10.00">xmpp_client_server</text>
</a>
</g>
<!-- Node1&#45;&gt;Node2 -->
<g id="edge2" class="edge"><title>Node1&#45;&gt;Node2</title>
<path fill="none" stroke="midnightblue" d="M83.2241,-230.594C95.6081,-257.737 134.604,-335.13 192,-372.927 195.104,-374.971 198.403,-376.795 201.827,-378.424"/>
<polygon fill="midnightblue" stroke="midnightblue" points="200.552,-381.685 211.129,-382.295 203.241,-375.222 200.552,-381.685"/>
</g>
<!-- Node3 -->
<g id="node5" class="node"><title>Node3</title>
<a xlink:href="../../d1/d59/xmpp__stanza_8c.html#a20c90c791fa856784f2d43c9f44f1d3c" target="_top" xlink:title="Returns the value of an attribute of this stanza.">
<polygon fill="none" stroke="black" points="393.5,-240.427 393.5,-259.427 506.5,-259.427 506.5,-240.427 393.5,-240.427"/>
<text text-anchor="middle" x="450" y="-247.427" font-family="DejaVuSansMono" font-size="10.00">xmpp_stanza_attr</text>
</a>
</g>
<!-- Node1&#45;&gt;Node3 -->
<g id="edge4" class="edge"><title>Node1&#45;&gt;Node3</title>
<path fill="none" stroke="midnightblue" d="M100.548,-230.519C122.898,-239.903 159.114,-253.546 192,-258.927 256.437,-269.471 331.127,-265.031 383.325,-259.285"/>
<polygon fill="midnightblue" stroke="midnightblue" points="383.919,-262.74 393.455,-258.123 383.121,-255.786 383.919,-262.74"/>
</g>
<!-- Node4 -->
<g id="node7" class="node"><title>Node4</title>
<a xlink:href="../../d1/d59/xmpp__stanza_8c.html#a10c606a11c37c01bf59881827dc2229a" target="_top" xlink:title="Returns the name of the tag of this stanza (message/presence/IQ)">
<polygon fill="none" stroke="black" points="216.5,-306.427 216.5,-325.427 329.5,-325.427 329.5,-306.427 216.5,-306.427"/>
<text text-anchor="middle" x="273" y="-313.427" font-family="DejaVuSansMono" font-size="10.00">xmpp_stanza_name</text>
</a>
</g>
<!-- Node1&#45;&gt;Node4 -->
<g id="edge6" class="edge"><title>Node1&#45;&gt;Node4</title>
<path fill="none" stroke="midnightblue" d="M91.576,-230.434C111.789,-245.334 153.183,-274.302 192,-291.927 201.705,-296.334 212.433,-300.188 222.796,-303.445"/>
<polygon fill="midnightblue" stroke="midnightblue" points="221.99,-306.857 232.574,-306.382 224.004,-300.153 221.99,-306.857"/>
</g>
<!-- Node5 -->
<g id="node9" class="node"><title>Node5</title>
<a xlink:href="../../d3/d5a/jid_8c.html#ae6100aaa50b6af23516ebc89e2f8c338" target="_top" xlink:title="Allocate and initialize a new JID from an existing JID without the resource.">
<polygon fill="none" stroke="black" points="201.5,-344.427 201.5,-363.427 344.5,-363.427 344.5,-344.427 201.5,-344.427"/>
<text text-anchor="middle" x="273" y="-351.427" font-family="DejaVuSansMono" font-size="10.00">jid_new_from_jid_bare</text>
</a>
</g>
<!-- Node1&#45;&gt;Node5 -->
<g id="edge8" class="edge"><title>Node1&#45;&gt;Node5</title>
<path fill="none" stroke="midnightblue" d="M85.6427,-230.655C101.351,-252.868 143.156,-307.51 192,-334.927 196.139,-337.25 200.552,-339.291 205.099,-341.082"/>
<polygon fill="midnightblue" stroke="midnightblue" points="203.979,-344.398 214.574,-344.422 206.306,-337.796 203.979,-344.398"/>
</g>
<!-- Node12 -->
<g id="node24" class="node"><title>Node12</title>
<a xlink:href="../../dd/d4d/xmpp__client_8c.html#af963b026952bdbc45a4df0fa3d69b641" target="_top" xlink:title="Return the JID for this client.">
<polygon fill="none" stroke="black" points="219.5,-230.427 219.5,-249.427 326.5,-249.427 326.5,-230.427 219.5,-230.427"/>
<text text-anchor="middle" x="273" y="-237.427" font-family="DejaVuSansMono" font-size="10.00">xmpp_client_jid</text>
</a>
</g>
<!-- Node1&#45;&gt;Node12 -->
<g id="edge24" class="edge"><title>Node1&#45;&gt;Node12</title>
<path fill="none" stroke="midnightblue" d="M155.556,-228.464C173.248,-230.205 191.876,-232.039 208.917,-233.717"/>
<polygon fill="midnightblue" stroke="midnightblue" points="209.005,-237.242 219.3,-234.739 209.691,-230.276 209.005,-237.242"/>
</g>
<!-- Node13 -->
<g id="node26" class="node"><title>Node13</title>
<a xlink:href="../../d3/d5a/jid_8c.html#a3d51f2b27d20189e523b0d0b2a77e4a9" target="_top" xlink:title="Converts a JID to a newly allocated string.">
<polygon fill="none" stroke="black" points="411.5,-202.427 411.5,-221.427 488.5,-221.427 488.5,-202.427 411.5,-202.427"/>
<text text-anchor="middle" x="450" y="-209.427" font-family="DejaVuSansMono" font-size="10.00">jid_to_str</text>
</a>
</g>
<!-- Node1&#45;&gt;Node13 -->
<g id="edge26" class="edge"><title>Node1&#45;&gt;Node13</title>
<path fill="none" stroke="midnightblue" d="M155.664,-219.062C229.499,-217.266 338.882,-214.605 401.104,-213.092"/>
<polygon fill="midnightblue" stroke="midnightblue" points="401.502,-216.583 411.414,-212.841 401.332,-209.585 401.502,-216.583"/>
</g>
<!-- Node14 -->
<g id="node28" class="node"><title>Node14</title>
<a xlink:href="../../d3/d5a/jid_8c.html#ab83fd5aae95de2c9d38fb9d9cd161580" target="_top" xlink:title="Cleans up and frees an existing JID.">
<polygon fill="none" stroke="black" points="558.5,-126.427 558.5,-145.427 617.5,-145.427 617.5,-126.427 558.5,-126.427"/>
<text text-anchor="middle" x="588" y="-133.427" font-family="DejaVuSansMono" font-size="10.00">jid_del</text>
</a>
</g>
<!-- Node1&#45;&gt;Node14 -->
<g id="edge28" class="edge"><title>Node1&#45;&gt;Node14</title>
<path fill="none" stroke="midnightblue" d="M82.4751,-211.112C93.3435,-182.046 129.731,-96.1812 192,-59.9269 314.358,11.3122 382.193,19.9985 510,-40.9269 543.054,-56.6837 566.52,-94.3311 578.314,-117.22"/>
<polygon fill="midnightblue" stroke="midnightblue" points="575.223,-118.864 582.777,-126.293 581.504,-115.775 575.223,-118.864"/>
</g>
<!-- Node15 -->
<g id="node30" class="node"><title>Node15</title>
<a xlink:href="../../d0/df0/xmpp__server_8c.html#a7e2bb7e228fb17cb6c41aea78e6f5679" target="_top" xlink:title="Gets the JID of this server.">
<polygon fill="none" stroke="black" points="219.5,-116.427 219.5,-135.427 326.5,-135.427 326.5,-116.427 219.5,-116.427"/>
<text text-anchor="middle" x="273" y="-123.427" font-family="DejaVuSansMono" font-size="10.00">xmpp_server_jid</text>
</a>
</g>
<!-- Node1&#45;&gt;Node15 -->
<g id="edge30" class="edge"><title>Node1&#45;&gt;Node15</title>
<path fill="none" stroke="midnightblue" d="M90.3754,-211.204C109.873,-195.037 151.499,-162.656 192,-144.927 197.75,-142.41 203.885,-140.197 210.102,-138.258"/>
<polygon fill="midnightblue" stroke="midnightblue" points="211.26,-141.567 219.898,-135.432 209.319,-134.841 211.26,-141.567"/>
</g>
<!-- Node16 -->
<g id="node32" class="node"><title>Node16</title>
<a xlink:href="../../d1/d59/xmpp__stanza_8c.html#a7ca8bf259143d7ff53b24de8b666026d" target="_top" xlink:title="Sets the value of an attribute in a stanza.">
<polygon fill="none" stroke="black" points="204.5,-69.4269 204.5,-88.4269 341.5,-88.4269 341.5,-69.4269 204.5,-69.4269"/>
<text text-anchor="middle" x="273" y="-76.4269" font-family="DejaVuSansMono" font-size="10.00">xmpp_stanza_set_attr</text>
</a>
</g>
<!-- Node1&#45;&gt;Node16 -->
<g id="edge32" class="edge"><title>Node1&#45;&gt;Node16</title>
<path fill="none" stroke="midnightblue" d="M86.091,-211.22C102.413,-189.526 144.875,-136.685 192,-106.927 201.816,-100.729 213.179,-95.6916 224.204,-91.6885"/>
<polygon fill="midnightblue" stroke="midnightblue" points="225.421,-94.9716 233.758,-88.4337 223.163,-88.3455 225.421,-94.9716"/>
</g>
<!-- Node18 -->
<g id="node36" class="node"><title>Node18</title>
<a xlink:href="../../d0/df0/xmpp__server_8c.html#a6d3f7e5e289f785b1c8c52f95068c627" target="_top" xlink:title="Deliver a stanza to a registered callback function.">
<polygon fill="none" stroke="black" points="192.5,-154.427 192.5,-173.427 353.5,-173.427 353.5,-154.427 192.5,-154.427"/>
<text text-anchor="middle" x="273" y="-161.427" font-family="DejaVuSansMono" font-size="10.00">xmpp_server_route_stanza</text>
</a>
</g>
<!-- Node1&#45;&gt;Node18 -->
<g id="edge36" class="edge"><title>Node1&#45;&gt;Node18</title>
<path fill="none" stroke="midnightblue" d="M111.304,-211.386C143.869,-201.769 194.284,-186.879 229.95,-176.346"/>
<polygon fill="midnightblue" stroke="midnightblue" points="230.992,-179.688 239.591,-173.499 229.009,-172.974 230.992,-179.688"/>
</g>
<!-- Node6 -->
<g id="node11" class="node"><title>Node6</title>
<a xlink:href="../../d3/d5a/jid_8c.html#abd2028a1e581e6374acaa6beaf6e5413" target="_top" xlink:title="Allocate and initialize a new blank JID.">
<polygon fill="none" stroke="black" points="558.5,-221.427 558.5,-240.427 617.5,-240.427 617.5,-221.427 558.5,-221.427"/>
<text text-anchor="middle" x="588" y="-228.427" font-family="DejaVuSansMono" font-size="10.00">jid_new</text>
</a>
</g>
<!-- Node5&#45;&gt;Node6 -->
<g id="edge10" class="edge"><title>Node5&#45;&gt;Node6</title>
<path fill="none" stroke="midnightblue" d="M328.446,-344.323C337.212,-341.841 346.019,-338.754 354,-334.927 372.277,-326.163 372.057,-316.356 390,-306.927 439.522,-280.902 458.1,-289.81 510,-268.927 527.244,-261.988 545.957,-252.794 560.617,-245.187"/>
<polygon fill="midnightblue" stroke="midnightblue" points="562.388,-248.211 569.609,-240.458 559.129,-242.015 562.388,-248.211"/>
</g>
<!-- Node7 -->
<g id="node13" class="node"><title>Node7</title>
<a xlink:href="../../d3/d5a/jid_8c.html#a1a93fd4eaa48c375952cb6f9c9127907" target="_top" xlink:title="Sets the localpart of a JID.">
<polygon fill="none" stroke="black" points="402.5,-354.427 402.5,-373.427 497.5,-373.427 497.5,-354.427 402.5,-354.427"/>
<text text-anchor="middle" x="450" y="-361.427" font-family="DejaVuSansMono" font-size="10.00">jid_set_local</text>
</a>
</g>
<!-- Node5&#45;&gt;Node7 -->
<g id="edge12" class="edge"><title>Node5&#45;&gt;Node7</title>
<path fill="none" stroke="midnightblue" d="M344.675,-357.965C360.475,-358.868 377.036,-359.815 392.191,-360.681"/>
<polygon fill="midnightblue" stroke="midnightblue" points="392.247,-364.19 402.431,-361.266 392.647,-357.201 392.247,-364.19"/>
</g>
<!-- Node9 -->
<g id="node17" class="node"><title>Node9</title>
<a xlink:href="../../d3/d5a/jid_8c.html#ac1dcf40e9090a5a9717b685b6b055feb" target="_top" xlink:title="Returns the localpart of a JID.">
<polygon fill="none" stroke="black" points="414.5,-316.427 414.5,-335.427 485.5,-335.427 485.5,-316.427 414.5,-316.427"/>
<text text-anchor="middle" x="450" y="-323.427" font-family="DejaVuSansMono" font-size="10.00">jid_local</text>
</a>
</g>
<!-- Node5&#45;&gt;Node9 -->
<g id="edge16" class="edge"><title>Node5&#45;&gt;Node9</title>
<path fill="none" stroke="midnightblue" d="M333.736,-344.369C356.795,-340.68 382.726,-336.531 404.144,-333.104"/>
<polygon fill="midnightblue" stroke="midnightblue" points="404.942,-336.521 414.263,-331.485 403.836,-329.609 404.942,-336.521"/>
</g>
<!-- Node10 -->
<g id="node19" class="node"><title>Node10</title>
<a xlink:href="../../d3/d5a/jid_8c.html#aeefeabfe802b3db2ce1b8894ae6a0d05" target="_top" xlink:title="Sets the domainpart of a JID.">
<polygon fill="none" stroke="black" points="399.5,-392.427 399.5,-411.427 500.5,-411.427 500.5,-392.427 399.5,-392.427"/>
<text text-anchor="middle" x="450" y="-399.427" font-family="DejaVuSansMono" font-size="10.00">jid_set_domain</text>
</a>
</g>
<!-- Node5&#45;&gt;Node10 -->
<g id="edge18" class="edge"><title>Node5&#45;&gt;Node10</title>
<path fill="none" stroke="midnightblue" d="M316.475,-363.488C328.633,-366.368 341.875,-369.64 354,-372.927 372.365,-377.906 392.548,-383.98 409.57,-389.281"/>
<polygon fill="midnightblue" stroke="midnightblue" points="408.6,-392.645 419.189,-392.298 410.695,-385.966 408.6,-392.645"/>
</g>
<!-- Node11 -->
<g id="node22" class="node"><title>Node11</title>
<a xlink:href="../../d3/d5a/jid_8c.html#a32b3d0744d90d33622986e4989042ee6" target="_top" xlink:title="Returns the domainpart of a JID.">
<polygon fill="none" stroke="black" points="411.5,-430.427 411.5,-449.427 488.5,-449.427 488.5,-430.427 411.5,-430.427"/>
<text text-anchor="middle" x="450" y="-437.427" font-family="DejaVuSansMono" font-size="10.00">jid_domain</text>
</a>
</g>
<!-- Node5&#45;&gt;Node11 -->
<g id="edge22" class="edge"><title>Node5&#45;&gt;Node11</title>
<path fill="none" stroke="midnightblue" d="M334.441,-363.434C341.341,-365.905 348.031,-369.014 354,-372.927 376.302,-387.546 368.288,-405.445 390,-420.927 393.698,-423.564 397.78,-425.847 402.019,-427.823"/>
<polygon fill="midnightblue" stroke="midnightblue" points="400.88,-431.138 411.462,-431.672 403.523,-424.656 400.88,-431.138"/>
</g>
<!-- Node8 -->
<g id="node15" class="node"><title>Node8</title>
<a xlink:href="../../d3/d91/utils_8c.html#a07891e77aee8f9b825d52bd33e474f30" target="_top" xlink:title="Simple string copy, freeing original if neccessary.">
<polygon fill="none" stroke="black" points="546.5,-373.427 546.5,-392.427 629.5,-392.427 629.5,-373.427 546.5,-373.427"/>
<text text-anchor="middle" x="588" y="-380.427" font-family="DejaVuSansMono" font-size="10.00">copy_string</text>
</a>
</g>
<!-- Node7&#45;&gt;Node8 -->
<g id="edge14" class="edge"><title>Node7&#45;&gt;Node8</title>
<path fill="none" stroke="midnightblue" d="M497.803,-370.466C510.293,-372.21 523.842,-374.103 536.52,-375.875"/>
<polygon fill="midnightblue" stroke="midnightblue" points="536.075,-379.346 546.463,-377.264 537.044,-372.414 536.075,-379.346"/>
</g>
<!-- Node10&#45;&gt;Node8 -->
<g id="edge20" class="edge"><title>Node10&#45;&gt;Node8</title>
<path fill="none" stroke="midnightblue" d="M500.869,-394.96C512.479,-393.338 524.849,-391.61 536.486,-389.984"/>
<polygon fill="midnightblue" stroke="midnightblue" points="537.067,-393.437 546.486,-388.587 536.098,-386.504 537.067,-393.437"/>
</g>
<!-- Node17 -->
<g id="node34" class="node"><title>Node17</title>
<a xlink:href="../../d1/d59/xmpp__stanza_8c.html#a2fb472c6bf9b7f540a97ddc6c11adb74" target="_top" xlink:title="attribute_del">
<polygon fill="none" stroke="black" points="402.5,-50.4269 402.5,-69.4269 497.5,-69.4269 497.5,-50.4269 402.5,-50.4269"/>
<text text-anchor="middle" x="450" y="-57.4269" font-family="DejaVuSansMono" font-size="10.00">attribute_del</text>
</a>
</g>
<!-- Node16&#45;&gt;Node17 -->
<g id="edge34" class="edge"><title>Node16&#45;&gt;Node17</title>
<path fill="none" stroke="midnightblue" d="M341.66,-71.581C358.307,-69.7736 375.966,-67.8563 392.051,-66.11"/>
<polygon fill="midnightblue" stroke="midnightblue" points="392.803,-69.549 402.366,-64.99 392.047,-62.5899 392.803,-69.549"/>
</g>
<!-- Node18&#45;&gt;Node3 -->
<g id="edge44" class="edge"><title>Node18&#45;&gt;Node3</title>
<path fill="none" stroke="midnightblue" d="M288.484,-173.646C309.932,-187.721 351.736,-213.947 390,-230.927 394.98,-233.137 400.297,-235.215 405.624,-237.129"/>
<polygon fill="midnightblue" stroke="midnightblue" points="404.557,-240.463 415.151,-240.386 406.822,-233.839 404.557,-240.463"/>
</g>
<!-- Node18&#45;&gt;Node13 -->
<g id="edge46" class="edge"><title>Node18&#45;&gt;Node13</title>
<path fill="none" stroke="midnightblue" d="M308.993,-173.525C336.415,-181.047 374.756,-191.563 404.382,-199.689"/>
<polygon fill="midnightblue" stroke="midnightblue" points="403.498,-203.076 414.067,-202.345 405.349,-196.325 403.498,-203.076"/>
</g>
<!-- Node18&#45;&gt;Node14 -->
<g id="edge50" class="edge"><title>Node18&#45;&gt;Node14</title>
<path fill="none" stroke="midnightblue" d="M353.793,-156.789C416.058,-151.219 499.845,-143.724 548.182,-139.399"/>
<polygon fill="midnightblue" stroke="midnightblue" points="548.579,-142.878 558.227,-138.501 547.955,-135.906 548.579,-142.878"/>
</g>
<!-- Node19 -->
<g id="node38" class="node"><title>Node19</title>
<a xlink:href="../../d3/d5a/jid_8c.html#a0151ea37a9f52813a8d48d2b7eec2044" target="_top" xlink:title="Allocate and initialize a new JID from an existing JID string.">
<polygon fill="none" stroke="black" points="393.5,-164.427 393.5,-183.427 506.5,-183.427 506.5,-164.427 393.5,-164.427"/>
<text text-anchor="middle" x="450" y="-171.427" font-family="DejaVuSansMono" font-size="10.00">jid_new_from_str</text>
</a>
</g>
<!-- Node18&#45;&gt;Node19 -->
<g id="edge38" class="edge"><title>Node18&#45;&gt;Node19</title>
<path fill="none" stroke="midnightblue" d="M353.563,-168.473C363.548,-169.044 373.672,-169.622 383.409,-170.179"/>
<polygon fill="midnightblue" stroke="midnightblue" points="383.21,-173.673 393.394,-170.749 383.61,-166.685 383.21,-173.673"/>
</g>
<!-- Node20 -->
<g id="node44" class="node"><title>Node20</title>
<a xlink:href="../../d3/d5a/jid_8c.html#a5b2f969326a86fa7e585f633d7b0f565" target="_top" xlink:title="Compare two JIDs with wildcard matches.">
<polygon fill="none" stroke="black" points="390.5,-88.4269 390.5,-107.427 509.5,-107.427 509.5,-88.4269 390.5,-88.4269"/>
<text text-anchor="middle" x="450" y="-95.4269" font-family="DejaVuSansMono" font-size="10.00">jid_cmp_wildcards</text>
</a>
</g>
<!-- Node18&#45;&gt;Node20 -->
<g id="edge48" class="edge"><title>Node18&#45;&gt;Node20</title>
<path fill="none" stroke="midnightblue" d="M325.605,-154.365C335.228,-151.831 345.062,-148.715 354,-144.927 371.482,-137.518 373.136,-130.651 390,-121.927 397.401,-118.098 405.558,-114.443 413.384,-111.192"/>
<polygon fill="midnightblue" stroke="midnightblue" points="414.724,-114.426 422.692,-107.443 412.109,-107.933 414.724,-114.426"/>
</g>
<!-- Node19&#45;&gt;Node6 -->
<g id="edge40" class="edge"><title>Node19&#45;&gt;Node6</title>
<path fill="none" stroke="midnightblue" d="M483.459,-183.436C492.17,-186.243 501.523,-189.492 510,-192.927 527.227,-199.908 545.939,-209.103 560.603,-216.699"/>
<polygon fill="midnightblue" stroke="midnightblue" points="559.118,-219.873 569.599,-221.421 562.371,-213.675 559.118,-219.873"/>
</g>
<!-- Node19&#45;&gt;Node14 -->
<g id="edge42" class="edge"><title>Node19&#45;&gt;Node14</title>
<path fill="none" stroke="midnightblue" d="M485.319,-164.338C504.571,-158.959 528.642,-152.233 548.531,-146.676"/>
<polygon fill="midnightblue" stroke="midnightblue" points="549.521,-150.033 558.21,-143.971 547.637,-143.291 549.521,-150.033"/>
</g>
</g>
</svg>
        <g id="navigator" transform="translate(0 0)" fill="#404254">
                <rect fill="#f2f5e9" fill-opacity="0.5" stroke="#606060" stroke-width=".5" x="0" y="0" width="60" height="60"/>
                <use id="zoomplus" xlink:href="#zoomPlus" x="17" y="9" onmousedown="handleZoom(evt,'in')"/>
                <use id="zoomminus" xlink:href="#zoomMin" x="42" y="9" onmousedown="handleZoom(evt,'out')"/>
                <use id="reset" xlink:href="#resetDef" x="30" y="36" onmousedown="handleReset()"/>
                <g id="arrowUp" xlink:href="#dirArrow" transform="translate(30 24)" onmousedown="handlePan(0,-1)">
                  <use xlink:href="#rim" fill="#404040">
                        <set attributeName="fill" to="#808080" begin="arrowUp.mouseover" end="arrowUp.mouseout"/>
                  </use>
                  <path fill="none" stroke="white" stroke-width="1.5" d="M0,-3.0v7 M-2.5,-0.5L0,-3.0L2.5,-0.5"/>
                </g>
                <g id="arrowRight" xlink:href="#dirArrow" transform="rotate(90) translate(36 -43)" onmousedown="handlePan(1,0)">
                  <use xlink:href="#rim" fill="#404040">
                        <set attributeName="fill" to="#808080" begin="arrowRight.mouseover" end="arrowRight.mouseout"/>
                  </use>
                  <path fill="none" stroke="white" stroke-width="1.5" d="M0,-3.0v7 M-2.5,-0.5L0,-3.0L2.5,-0.5"/>
                </g>
                <g id="arrowDown" xlink:href="#dirArrow" transform="rotate(180) translate(-30 -48)" onmousedown="handlePan(0,1)">
                  <use xlink:href="#rim" fill="#404040">
                        <set attributeName="fill" to="#808080" begin="arrowDown.mouseover" end="arrowDown.mouseout"/>
                  </use>
                  <path fill="none" stroke="white" stroke-width="1.5" d="M0,-3.0v7 M-2.5,-0.5L0,-3.0L2.5,-0.5"/>
                </g>
                <g id="arrowLeft" xlink:href="#dirArrow" transform="rotate(270) translate(-36 17)" onmousedown="handlePan(-1,0)">
                  <use xlink:href="#rim" fill="#404040">
                        <set attributeName="fill" to="#808080" begin="arrowLeft.mouseover" end="arrowLeft.mouseout"/>
                  </use>
                  <path fill="none" stroke="white" stroke-width="1.5" d="M0,-3.0v7 M-2.5,-0.5L0,-3.0L2.5,-0.5"/>
                </g>
        </g>
        <svg viewBox="0 0 25 25" width="100%" height="30px" preserveAspectRatio="xMaxYMin meet"> 
          <g id="printButton" transform="scale(0.4 0.4)" onmousedown="handlePrint(evt)">
            <rect height="23.33753581" id="paper" rx="2" style="fill:#f2f5e9;fill-rule:evenodd;stroke:#111111;stroke-width:3.224;stroke-linejoin:round;" transform="matrix(1.000000,0.000000,-0.339266,0.940691,0.000000,0.000000)" width="25.55231285" x="26.69387353" y="7.36162977"/>
            <rect height="26.272097" id="body" rx="2" style="fill:#404040;fill-rule:evenodd;stroke:#111111;stroke-width:3.125;stroke-linejoin:round;" width="50" x="4.5295201" y="27.078951"/>
            <rect height="8.27750969" id="tray" style="fill:#d2d5c9;fill-rule:evenodd;stroke:#111111;stroke-width:3.125;stroke-linecap:round;stroke-linejoin:round;" width="40" x="10.28778839" y="44.96812282"/>
          </g>
        </svg>
</svg>
