<?xml version="1.0" encoding="UTF-8" standalone="no"?>
<!DOCTYPE svg PUBLIC "-//W3C//DTD SVG 1.1//EN"
 "http://www.w3.org/Graphics/SVG/1.1/DTD/svg11.dtd">
<!-- Generated by graphviz version 2.28.0 (20120217.0315)
 -->
<!-- Title: G Pages: 1 -->
<!--zoomable 441 -->
<svg id="main" version="1.1" xmlns="http://www.w3.org/2000/svg" xmlns:xlink="http://www.w3.org/1999/xlink" xml:space="preserve" onload="init(evt)">
        <defs>
                <circle id="rim" cx="0" cy="0" r="7"/>
                <circle id="rim2" cx="0" cy="0" r="3.5"/>
                <g id="zoomPlus">
                        <use xlink:href="#rim" fill="#404040">
                                <set attributeName="fill" to="#808080" begin="zoomplus.mouseover" end="zoomplus.mouseout"/>
                        </use>
                        <path d="M-4,0h8M0,-4v8" fill="none" stroke="white" stroke-width="1.5" pointer-events="none"/>
                </g>
                <g id="zoomMin">
                        <use xlink:href="#rim" fill="#404040">
                                <set attributeName="fill" to="#808080" begin="zoomminus.mouseover" end="zoomminus.mouseout"/>
                        </use>
                        <path d="M-4,0h8" fill="none" stroke="white" stroke-width="1.5" pointer-events="none"/>
                </g>
                <g id="dirArrow">
                        <path fill="none" stroke="white" stroke-width="1.5" d="M0,-3.0v7 M-2.5,-0.5L0,-3.0L2.5,-0.5"/>
                </g>
               <g id="resetDef">
                       <use xlink:href="#rim2" fill="#404040">
                               <set attributeName="fill" to="#808080" begin="reset.mouseover" end="reset.mouseout"/>
                       </use>
               </g>
        </defs>

<script type="text/javascript">
var viewWidth = 1028;
var viewHeight = 441;
var sectionId = 'dynsection-5';
</script>
<script xlink:href="../../svgpan.js"/>
<svg id="graph" class="graph">
<g id="viewport">
<title>G</title>
<!-- Node1 -->
<g id="node1" class="node"><title>Node1</title>
<polygon fill="#bfbfbf" stroke="black" points="0.5,-76.5 0.5,-95.5 149.5,-95.5 149.5,-76.5 0.5,-76.5"/>
<text text-anchor="middle" x="75" y="-83.5" font-family="DejaVuSansMono" font-size="10.00">xmpp_core_route_server</text>
</g>
<!-- Node2 -->
<g id="node3" class="node"><title>Node2</title>
<a xlink:href="../../d1/d59/xmpp__stanza_8c.html#a10c606a11c37c01bf59881827dc2229a" target="_top" xlink:title="Returns the name of the tag of this stanza (message/presence/IQ)">
<polygon fill="none" stroke="black" points="198.5,-95.5 198.5,-114.5 311.5,-114.5 311.5,-95.5 198.5,-95.5"/>
<text text-anchor="middle" x="255" y="-102.5" font-family="DejaVuSansMono" font-size="10.00">xmpp_stanza_name</text>
</a>
</g>
<!-- Node1&#45;&gt;Node2 -->
<g id="edge2" class="edge"><title>Node1&#45;&gt;Node2</title>
<path fill="none" stroke="midnightblue" d="M149.684,-93.8652C162.387,-95.2211 175.518,-96.6228 188.002,-97.9553"/>
<polygon fill="midnightblue" stroke="midnightblue" points="187.997,-101.475 198.312,-99.0558 188.74,-94.5141 187.997,-101.475"/>
</g>
<!-- Node3 -->
<g id="node5" class="node"><title>Node3</title>
<a xlink:href="../../d0/df0/xmpp__server_8c.html#a8ddb3bbfd497811c13e9426ce6f02003" target="_top" xlink:title="Deliver an IQ stanza to a registered callback function.">
<polygon fill="none" stroke="black" points="186.5,-57.5 186.5,-76.5 323.5,-76.5 323.5,-57.5 186.5,-57.5"/>
<text text-anchor="middle" x="255" y="-64.5" font-family="DejaVuSansMono" font-size="10.00">xmpp_server_route_iq</text>
</a>
</g>
<!-- Node1&#45;&gt;Node3 -->
<g id="edge4" class="edge"><title>Node1&#45;&gt;Node3</title>
<path fill="none" stroke="midnightblue" d="M149.684,-78.1348C158.415,-77.2029 167.348,-76.2494 176.134,-75.3116"/>
<polygon fill="midnightblue" stroke="midnightblue" points="176.787,-78.7618 186.359,-74.2201 176.044,-71.8013 176.787,-78.7618"/>
</g>
<!-- Node4 -->
<g id="node7" class="node"><title>Node4</title>
<a xlink:href="../../d1/d59/xmpp__stanza_8c.html#a20c90c791fa856784f2d43c9f44f1d3c" target="_top" xlink:title="Returns the value of an attribute of this stanza.">
<polygon fill="none" stroke="black" points="783.5,-71.5 783.5,-90.5 896.5,-90.5 896.5,-71.5 783.5,-71.5"/>
<text text-anchor="middle" x="840" y="-78.5" font-family="DejaVuSansMono" font-size="10.00">xmpp_stanza_attr</text>
</a>
</g>
<!-- Node3&#45;&gt;Node4 -->
<g id="edge6" class="edge"><title>Node3&#45;&gt;Node4</title>
<path fill="none" stroke="midnightblue" d="M323.733,-68.6265C436.628,-71.3376 661.859,-76.7462 773.354,-79.4236"/>
<polygon fill="midnightblue" stroke="midnightblue" points="773.375,-82.925 783.456,-79.6662 773.543,-75.927 773.375,-82.925"/>
</g>
<!-- Node5 -->
<g id="node9" class="node"><title>Node5</title>
<a xlink:href="../../d1/d59/xmpp__stanza_8c.html#af1ad00a6a75789396a933dfc0ed9c1f5" target="_top" xlink:title="Returns a pointer to the first child stanza.">
<polygon fill="none" stroke="black" points="372.5,-38.5 372.5,-57.5 509.5,-57.5 509.5,-38.5 372.5,-38.5"/>
<text text-anchor="middle" x="441" y="-45.5" font-family="DejaVuSansMono" font-size="10.00">xmpp_stanza_children</text>
</a>
</g>
<!-- Node3&#45;&gt;Node5 -->
<g id="edge8" class="edge"><title>Node3&#45;&gt;Node5</title>
<path fill="none" stroke="midnightblue" d="M323.731,-60.006C336.263,-58.7119 349.443,-57.351 362.245,-56.029"/>
<polygon fill="midnightblue" stroke="midnightblue" points="362.825,-59.4879 372.412,-54.9792 362.106,-52.5249 362.825,-59.4879"/>
</g>
<!-- Node6 -->
<g id="node11" class="node"><title>Node6</title>
<a xlink:href="../../d1/d59/xmpp__stanza_8c.html#aa222b0d106ec5708c4aa173daa9497e7" target="_top" xlink:title="Returns the namespace URI of this stanza.">
<polygon fill="none" stroke="black" points="387.5,-0.5 387.5,-19.5 494.5,-19.5 494.5,-0.5 387.5,-0.5"/>
<text text-anchor="middle" x="441" y="-7.5" font-family="DejaVuSansMono" font-size="10.00">xmpp_stanza_uri</text>
</a>
</g>
<!-- Node3&#45;&gt;Node6 -->
<g id="edge10" class="edge"><title>Node3&#45;&gt;Node6</title>
<path fill="none" stroke="midnightblue" d="M279.691,-57.4422C300.599,-49.2249 332.016,-37.4042 360,-29 368.344,-26.4941 377.257,-24.1031 385.992,-21.9148"/>
<polygon fill="midnightblue" stroke="midnightblue" points="386.856,-25.3068 395.74,-19.5347 385.195,-18.5066 386.856,-25.3068"/>
</g>
<!-- Node7 -->
<g id="node13" class="node"><title>Node7</title>
<a xlink:href="../../d0/df0/xmpp__server_8c.html#a3b400cb24e5bc51623f63c96c8a0a342" target="_top" xlink:title="Sends a &lt;service&#45;unavailable&gt; error stanza to a client.">
<polygon fill="none" stroke="black" points="360.5,-218.5 360.5,-237.5 521.5,-237.5 521.5,-218.5 360.5,-218.5"/>
<text text-anchor="middle" x="441" y="-225.5" font-family="DejaVuSansMono" font-size="10.00">send_service_unavailable</text>
</a>
</g>
<!-- Node3&#45;&gt;Node7 -->
<g id="edge12" class="edge"><title>Node3&#45;&gt;Node7</title>
<path fill="none" stroke="midnightblue" d="M304.432,-76.533C311.305,-79.0057 318.05,-82.1089 324,-86 373.763,-118.543 412.663,-179.192 430.059,-209.609"/>
<polygon fill="midnightblue" stroke="midnightblue" points="427.008,-211.323 434.939,-218.348 433.12,-207.911 427.008,-211.323"/>
</g>
<!-- Node7&#45;&gt;Node4 -->
<g id="edge14" class="edge"><title>Node7&#45;&gt;Node4</title>
<path fill="none" stroke="midnightblue" d="M459.792,-218.477C482.312,-206.606 522.46,-186.048 558,-171 644.088,-134.55 666.276,-126.255 756,-100 764.556,-97.4964 773.686,-95.118 782.646,-92.9448"/>
<polygon fill="midnightblue" stroke="midnightblue" points="783.722,-96.2871 792.65,-90.5825 782.113,-89.4745 783.722,-96.2871"/>
</g>
<!-- Node8 -->
<g id="node16" class="node"><title>Node8</title>
<a xlink:href="../../d1/d59/xmpp__stanza_8c.html#aa80dd21d794b5c63fcb13c49745cc373" target="_top" xlink:title="Allocate and initialize a new XMPP stanza structure.">
<polygon fill="none" stroke="black" points="585.5,-375.5 585.5,-394.5 692.5,-394.5 692.5,-375.5 585.5,-375.5"/>
<text text-anchor="middle" x="639" y="-382.5" font-family="DejaVuSansMono" font-size="10.00">xmpp_stanza_new</text>
</a>
</g>
<!-- Node7&#45;&gt;Node8 -->
<g id="edge16" class="edge"><title>Node7&#45;&gt;Node8</title>
<path fill="none" stroke="midnightblue" d="M449.529,-237.652C466.797,-259.296 511.365,-312.441 558,-346 571.992,-356.069 588.982,-364.768 603.699,-371.38"/>
<polygon fill="midnightblue" stroke="midnightblue" points="602.422,-374.641 612.988,-375.417 605.212,-368.221 602.422,-374.641"/>
</g>
<!-- Node11 -->
<g id="node22" class="node"><title>Node11</title>
<a xlink:href="../../d1/d59/xmpp__stanza_8c.html#ac13c8bb45e2ca03b99836e8d52b265b4" target="_top" xlink:title="Appends a child stanza.">
<polygon fill="none" stroke="black" points="558.5,-256.5 558.5,-275.5 719.5,-275.5 719.5,-256.5 558.5,-256.5"/>
<text text-anchor="middle" x="639" y="-263.5" font-family="DejaVuSansMono" font-size="10.00">xmpp_stanza_append_child</text>
</a>
</g>
<!-- Node7&#45;&gt;Node11 -->
<g id="edge22" class="edge"><title>Node7&#45;&gt;Node11</title>
<path fill="none" stroke="midnightblue" d="M491.206,-237.54C517.767,-242.69 550.749,-249.084 578.718,-254.506"/>
<polygon fill="midnightblue" stroke="midnightblue" points="578.29,-257.989 588.774,-256.456 579.623,-251.117 578.29,-257.989"/>
</g>
<!-- Node13 -->
<g id="node26" class="node"><title>Node13</title>
<a xlink:href="../../d0/df0/xmpp__server_8c.html#a6d3f7e5e289f785b1c8c52f95068c627" target="_top" xlink:title="Deliver a stanza to a registered callback function.">
<polygon fill="none" stroke="black" points="558.5,-180.5 558.5,-199.5 719.5,-199.5 719.5,-180.5 558.5,-180.5"/>
<text text-anchor="middle" x="639" y="-187.5" font-family="DejaVuSansMono" font-size="10.00">xmpp_server_route_stanza</text>
</a>
</g>
<!-- Node7&#45;&gt;Node13 -->
<g id="edge26" class="edge"><title>Node7&#45;&gt;Node13</title>
<path fill="none" stroke="midnightblue" d="M491.206,-218.46C517.767,-213.31 550.749,-206.916 578.718,-201.494"/>
<polygon fill="midnightblue" stroke="midnightblue" points="579.623,-204.883 588.774,-199.544 578.29,-198.011 579.623,-204.883"/>
</g>
<!-- Node19 -->
<g id="node40" class="node"><title>Node19</title>
<a xlink:href="../../d1/d59/xmpp__stanza_8c.html#af40757ae1d137034570b1bb33303d024" target="_top" xlink:title="Cleans up and frees an XMPP stanza.">
<polygon fill="none" stroke="black" points="585.5,-299.5 585.5,-318.5 692.5,-318.5 692.5,-299.5 585.5,-299.5"/>
<text text-anchor="middle" x="639" y="-306.5" font-family="DejaVuSansMono" font-size="10.00">xmpp_stanza_del</text>
</a>
</g>
<!-- Node7&#45;&gt;Node19 -->
<g id="edge42" class="edge"><title>Node7&#45;&gt;Node19</title>
<path fill="none" stroke="midnightblue" d="M459.279,-237.616C481.594,-249.771 521.866,-270.814 558,-285 568.857,-289.262 580.79,-293.216 592.05,-296.633"/>
<polygon fill="midnightblue" stroke="midnightblue" points="591.146,-300.016 601.728,-299.493 593.13,-293.303 591.146,-300.016"/>
</g>
<!-- Node9 -->
<g id="node18" class="node"><title>Node9</title>
<a xlink:href="../../d1/d59/xmpp__stanza_8c.html#a5a80203f56df7a360fa457c0111686f6" target="_top" xlink:title="Parse the namespace triple that Expat gives us.">
<polygon fill="none" stroke="black" points="807.5,-375.5 807.5,-394.5 872.5,-394.5 872.5,-375.5 807.5,-375.5"/>
<text text-anchor="middle" x="840" y="-382.5" font-family="DejaVuSansMono" font-size="10.00">parse_ns</text>
</a>
</g>
<!-- Node8&#45;&gt;Node9 -->
<g id="edge18" class="edge"><title>Node8&#45;&gt;Node9</title>
<path fill="none" stroke="midnightblue" d="M692.545,-385C725.198,-385 766.606,-385 797.054,-385"/>
<polygon fill="midnightblue" stroke="midnightblue" points="797.335,-388.5 807.335,-385 797.335,-381.5 797.335,-388.5"/>
</g>
<!-- Node10 -->
<g id="node20" class="node"><title>Node10</title>
<a xlink:href="../../d1/d59/xmpp__stanza_8c.html#aff4b8f6e10ce1c351d2a5bc39f0e819f" target="_top" xlink:title="Convenience function to build a key for the attribute hash table.">
<polygon fill="none" stroke="black" points="807.5,-413.5 807.5,-432.5 872.5,-432.5 872.5,-413.5 807.5,-413.5"/>
<text text-anchor="middle" x="840" y="-420.5" font-family="DejaVuSansMono" font-size="10.00">make_key</text>
</a>
</g>
<!-- Node8&#45;&gt;Node10 -->
<g id="edge20" class="edge"><title>Node8&#45;&gt;Node10</title>
<path fill="none" stroke="midnightblue" d="M689.959,-394.54C723.06,-400.861 765.981,-409.057 797.256,-415.029"/>
<polygon fill="midnightblue" stroke="midnightblue" points="796.906,-418.525 807.385,-416.963 798.219,-411.649 796.906,-418.525"/>
</g>
<!-- Node12 -->
<g id="node24" class="node"><title>Node12</title>
<a xlink:href="../../d1/d59/xmpp__stanza_8c.html#afc77f00b7f38c79566a7b16876230e30" target="_top" xlink:title="Removes a child stanza.">
<polygon fill="none" stroke="black" points="759.5,-261.5 759.5,-280.5 920.5,-280.5 920.5,-261.5 759.5,-261.5"/>
<text text-anchor="middle" x="840" y="-268.5" font-family="DejaVuSansMono" font-size="10.00">xmpp_stanza_remove_child</text>
</a>
</g>
<!-- Node11&#45;&gt;Node12 -->
<g id="edge24" class="edge"><title>Node11&#45;&gt;Node12</title>
<path fill="none" stroke="midnightblue" d="M719.508,-267.998C729.23,-268.242 739.218,-268.493 749.079,-268.741"/>
<polygon fill="midnightblue" stroke="midnightblue" points="749.209,-272.245 759.294,-268.997 749.385,-265.247 749.209,-272.245"/>
</g>
<!-- Node13&#45;&gt;Node4 -->
<g id="edge34" class="edge"><title>Node13&#45;&gt;Node4</title>
<path fill="none" stroke="midnightblue" d="M663.678,-180.488C680.52,-172.992 703.07,-161.411 720,-147 740.037,-129.945 733.863,-114.223 756,-100 761.387,-96.539 767.326,-93.7053 773.478,-91.3856"/>
<polygon fill="midnightblue" stroke="midnightblue" points="774.875,-94.6102 783.27,-88.1473 772.677,-87.9642 774.875,-94.6102"/>
</g>
<!-- Node14 -->
<g id="node28" class="node"><title>Node14</title>
<a xlink:href="../../d3/d5a/jid_8c.html#a0151ea37a9f52813a8d48d2b7eec2044" target="_top" xlink:title="Allocate and initialize a new JID from an existing JID string.">
<polygon fill="none" stroke="black" points="783.5,-223.5 783.5,-242.5 896.5,-242.5 896.5,-223.5 783.5,-223.5"/>
<text text-anchor="middle" x="840" y="-230.5" font-family="DejaVuSansMono" font-size="10.00">jid_new_from_str</text>
</a>
</g>
<!-- Node13&#45;&gt;Node14 -->
<g id="edge28" class="edge"><title>Node13&#45;&gt;Node14</title>
<path fill="none" stroke="midnightblue" d="M684.165,-199.543C713.922,-205.973 753.361,-214.495 784.987,-221.329"/>
<polygon fill="midnightblue" stroke="midnightblue" points="784.445,-224.792 794.959,-223.484 785.924,-217.95 784.445,-224.792"/>
</g>
<!-- Node16 -->
<g id="node32" class="node"><title>Node16</title>
<a xlink:href="../../d3/d5a/jid_8c.html#ab83fd5aae95de2c9d38fb9d9cd161580" target="_top" xlink:title="Cleans up and frees an existing JID.">
<polygon fill="none" stroke="black" points="960.5,-185.5 960.5,-204.5 1019.5,-204.5 1019.5,-185.5 960.5,-185.5"/>
<text text-anchor="middle" x="990" y="-192.5" font-family="DejaVuSansMono" font-size="10.00">jid_del</text>
</a>
</g>
<!-- Node13&#45;&gt;Node16 -->
<g id="edge40" class="edge"><title>Node13&#45;&gt;Node16</title>
<path fill="none" stroke="midnightblue" d="M719.63,-191.141C791.639,-192.172 894.613,-193.648 950.066,-194.442"/>
<polygon fill="midnightblue" stroke="midnightblue" points="950.126,-197.943 960.175,-194.587 950.226,-190.944 950.126,-197.943"/>
</g>
<!-- Node17 -->
<g id="node35" class="node"><title>Node17</title>
<a xlink:href="../../d3/d5a/jid_8c.html#a3d51f2b27d20189e523b0d0b2a77e4a9" target="_top" xlink:title="Converts a JID to a newly allocated string.">
<polygon fill="none" stroke="black" points="801.5,-147.5 801.5,-166.5 878.5,-166.5 878.5,-147.5 801.5,-147.5"/>
<text text-anchor="middle" x="840" y="-154.5" font-family="DejaVuSansMono" font-size="10.00">jid_to_str</text>
</a>
</g>
<!-- Node13&#45;&gt;Node17 -->
<g id="edge36" class="edge"><title>Node13&#45;&gt;Node17</title>
<path fill="none" stroke="midnightblue" d="M697.292,-180.499C727.051,-175.564 762.992,-169.604 791.232,-164.921"/>
<polygon fill="midnightblue" stroke="midnightblue" points="791.969,-168.347 801.262,-163.258 790.824,-161.441 791.969,-168.347"/>
</g>
<!-- Node18 -->
<g id="node37" class="node"><title>Node18</title>
<a xlink:href="../../d3/d5a/jid_8c.html#a5b2f969326a86fa7e585f633d7b0f565" target="_top" xlink:title="Compare two JIDs with wildcard matches.">
<polygon fill="none" stroke="black" points="780.5,-109.5 780.5,-128.5 899.5,-128.5 899.5,-109.5 780.5,-109.5"/>
<text text-anchor="middle" x="840" y="-116.5" font-family="DejaVuSansMono" font-size="10.00">jid_cmp_wildcards</text>
</a>
</g>
<!-- Node13&#45;&gt;Node18 -->
<g id="edge38" class="edge"><title>Node13&#45;&gt;Node18</title>
<path fill="none" stroke="midnightblue" d="M658.433,-180.372C680.944,-168.938 720.424,-149.917 756,-138 763.673,-135.43 771.86,-133.09 779.99,-130.999"/>
<polygon fill="midnightblue" stroke="midnightblue" points="780.967,-134.363 789.84,-128.574 779.293,-127.566 780.967,-134.363"/>
</g>
<!-- Node15 -->
<g id="node30" class="node"><title>Node15</title>
<a xlink:href="../../d3/d5a/jid_8c.html#abd2028a1e581e6374acaa6beaf6e5413" target="_top" xlink:title="Allocate and initialize a new blank JID.">
<polygon fill="none" stroke="black" points="960.5,-223.5 960.5,-242.5 1019.5,-242.5 1019.5,-223.5 960.5,-223.5"/>
<text text-anchor="middle" x="990" y="-230.5" font-family="DejaVuSansMono" font-size="10.00">jid_new</text>
</a>
</g>
<!-- Node14&#45;&gt;Node15 -->
<g id="edge30" class="edge"><title>Node14&#45;&gt;Node15</title>
<path fill="none" stroke="midnightblue" d="M896.531,-233C914.294,-233 933.574,-233 949.909,-233"/>
<polygon fill="midnightblue" stroke="midnightblue" points="950.173,-236.5 960.173,-233 950.173,-229.5 950.173,-236.5"/>
</g>
<!-- Node14&#45;&gt;Node16 -->
<g id="edge32" class="edge"><title>Node14&#45;&gt;Node16</title>
<path fill="none" stroke="midnightblue" d="M878.347,-223.411C900.327,-217.767 928.081,-210.641 950.293,-204.938"/>
<polygon fill="midnightblue" stroke="midnightblue" points="951.253,-208.305 960.069,-202.428 949.512,-201.525 951.253,-208.305"/>
</g>
<!-- Node19&#45;&gt;Node19 -->
<g id="edge48" class="edge"><title>Node19&#45;&gt;Node19</title>
<path fill="none" stroke="midnightblue" d="M608.482,-318.757C593.636,-327.565 603.809,-337 639,-337 663.744,-337 676.119,-332.336 676.125,-326.504"/>
<polygon fill="midnightblue" stroke="midnightblue" points="678.67,-324.094 669.518,-318.757 673.344,-328.637 678.67,-324.094"/>
</g>
<!-- Node20 -->
<g id="node42" class="node"><title>Node20</title>
<a xlink:href="../../d1/d59/xmpp__stanza_8c.html#a2fb472c6bf9b7f540a97ddc6c11adb74" target="_top" xlink:title="attribute_del">
<polygon fill="none" stroke="black" points="792.5,-337.5 792.5,-356.5 887.5,-356.5 887.5,-337.5 792.5,-337.5"/>
<text text-anchor="middle" x="840" y="-344.5" font-family="DejaVuSansMono" font-size="10.00">attribute_del</text>
</a>
</g>
<!-- Node19&#45;&gt;Node20 -->
<g id="edge44" class="edge"><title>Node19&#45;&gt;Node20</title>
<path fill="none" stroke="midnightblue" d="M689.959,-318.54C718.075,-323.909 753.277,-330.631 782.409,-336.194"/>
<polygon fill="midnightblue" stroke="midnightblue" points="781.959,-339.671 792.438,-338.109 783.272,-332.795 781.959,-339.671"/>
</g>
<!-- Node21 -->
<g id="node44" class="node"><title>Node21</title>
<a xlink:href="../../d1/dc2/xmpp__parser_8c.html#a87065f39f10a449e7af17fa45ca475f2" target="_top" xlink:title="xmpp_parser_namespace_del">
<polygon fill="none" stroke="black" points="756.5,-299.5 756.5,-318.5 923.5,-318.5 923.5,-299.5 756.5,-299.5"/>
<text text-anchor="middle" x="840" y="-306.5" font-family="DejaVuSansMono" font-size="10.00">xmpp_parser_namespace_del</text>
</a>
</g>
<!-- Node19&#45;&gt;Node21 -->
<g id="edge46" class="edge"><title>Node19&#45;&gt;Node21</title>
<path fill="none" stroke="midnightblue" d="M692.545,-309C709.062,-309 727.819,-309 746.265,-309"/>
<polygon fill="midnightblue" stroke="midnightblue" points="746.464,-312.5 756.464,-309 746.464,-305.5 746.464,-312.5"/>
</g>
</g>
</svg>
        <g id="navigator" transform="translate(0 0)" fill="#404254">
                <rect fill="#f2f5e9" fill-opacity="0.5" stroke="#606060" stroke-width=".5" x="0" y="0" width="60" height="60"/>
                <use id="zoomplus" xlink:href="#zoomPlus" x="17" y="9" onmousedown="handleZoom(evt,'in')"/>
                <use id="zoomminus" xlink:href="#zoomMin" x="42" y="9" onmousedown="handleZoom(evt,'out')"/>
                <use id="reset" xlink:href="#resetDef" x="30" y="36" onmousedown="handleReset()"/>
                <g id="arrowUp" xlink:href="#dirArrow" transform="translate(30 24)" onmousedown="handlePan(0,-1)">
                  <use xlink:href="#rim" fill="#404040">
                        <set attributeName="fill" to="#808080" begin="arrowUp.mouseover" end="arrowUp.mouseout"/>
                  </use>
                  <path fill="none" stroke="white" stroke-width="1.5" d="M0,-3.0v7 M-2.5,-0.5L0,-3.0L2.5,-0.5"/>
                </g>
                <g id="arrowRight" xlink:href="#dirArrow" transform="rotate(90) translate(36 -43)" onmousedown="handlePan(1,0)">
                  <use xlink:href="#rim" fill="#404040">
                        <set attributeName="fill" to="#808080" begin="arrowRight.mouseover" end="arrowRight.mouseout"/>
                  </use>
                  <path fill="none" stroke="white" stroke-width="1.5" d="M0,-3.0v7 M-2.5,-0.5L0,-3.0L2.5,-0.5"/>
                </g>
                <g id="arrowDown" xlink:href="#dirArrow" transform="rotate(180) translate(-30 -48)" onmousedown="handlePan(0,1)">
                  <use xlink:href="#rim" fill="#404040">
                        <set attributeName="fill" to="#808080" begin="arrowDown.mouseover" end="arrowDown.mouseout"/>
                  </use>
                  <path fill="none" stroke="white" stroke-width="1.5" d="M0,-3.0v7 M-2.5,-0.5L0,-3.0L2.5,-0.5"/>
                </g>
                <g id="arrowLeft" xlink:href="#dirArrow" transform="rotate(270) translate(-36 17)" onmousedown="handlePan(-1,0)">
                  <use xlink:href="#rim" fill="#404040">
                        <set attributeName="fill" to="#808080" begin="arrowLeft.mouseover" end="arrowLeft.mouseout"/>
                  </use>
                  <path fill="none" stroke="white" stroke-width="1.5" d="M0,-3.0v7 M-2.5,-0.5L0,-3.0L2.5,-0.5"/>
                </g>
        </g>
        <svg viewBox="0 0 25 25" width="100%" height="30px" preserveAspectRatio="xMaxYMin meet"> 
          <g id="printButton" transform="scale(0.4 0.4)" onmousedown="handlePrint(evt)">
            <rect height="23.33753581" id="paper" rx="2" style="fill:#f2f5e9;fill-rule:evenodd;stroke:#111111;stroke-width:3.224;stroke-linejoin:round;" transform="matrix(1.000000,0.000000,-0.339266,0.940691,0.000000,0.000000)" width="25.55231285" x="26.69387353" y="7.36162977"/>
            <rect height="26.272097" id="body" rx="2" style="fill:#404040;fill-rule:evenodd;stroke:#111111;stroke-width:3.125;stroke-linejoin:round;" width="50" x="4.5295201" y="27.078951"/>
            <rect height="8.27750969" id="tray" style="fill:#d2d5c9;fill-rule:evenodd;stroke:#111111;stroke-width:3.125;stroke-linecap:round;stroke-linejoin:round;" width="40" x="10.28778839" y="44.96812282"/>
          </g>
        </svg>
</svg>
