<?xml version="1.0" encoding="UTF-8" standalone="no"?>
<!DOCTYPE svg PUBLIC "-//W3C//DTD SVG 1.1//EN"
 "http://www.w3.org/Graphics/SVG/1.1/DTD/svg11.dtd">
<!-- Generated by graphviz version 2.28.0 (20120217.0315)
 -->
<!-- Title: G Pages: 1 -->
<!--zoomable 408 -->
<svg id="main" version="1.1" xmlns="http://www.w3.org/2000/svg" xmlns:xlink="http://www.w3.org/1999/xlink" xml:space="preserve" onload="init(evt)">
        <defs>
                <circle id="rim" cx="0" cy="0" r="7"/>
                <circle id="rim2" cx="0" cy="0" r="3.5"/>
                <g id="zoomPlus">
                        <use xlink:href="#rim" fill="#404040">
                                <set attributeName="fill" to="#808080" begin="zoomplus.mouseover" end="zoomplus.mouseout"/>
                        </use>
                        <path d="M-4,0h8M0,-4v8" fill="none" stroke="white" stroke-width="1.5" pointer-events="none"/>
                </g>
                <g id="zoomMin">
                        <use xlink:href="#rim" fill="#404040">
                                <set attributeName="fill" to="#808080" begin="zoomminus.mouseover" end="zoomminus.mouseout"/>
                        </use>
                        <path d="M-4,0h8" fill="none" stroke="white" stroke-width="1.5" pointer-events="none"/>
                </g>
                <g id="dirArrow">
                        <path fill="none" stroke="white" stroke-width="1.5" d="M0,-3.0v7 M-2.5,-0.5L0,-3.0L2.5,-0.5"/>
                </g>
               <g id="resetDef">
                       <use xlink:href="#rim2" fill="#404040">
                               <set attributeName="fill" to="#808080" begin="reset.mouseover" end="reset.mouseout"/>
                       </use>
               </g>
        </defs>

<script type="text/javascript">
var viewWidth = 770;
var viewHeight = 408;
var sectionId = 'dynsection-3';
</script>
<script xlink:href="../../svgpan.js"/>
<svg id="graph" class="graph">
<g id="viewport">
<title>G</title>
<!-- Node1 -->
<g id="node1" class="node"><title>Node1</title>
<polygon fill="#bfbfbf" stroke="black" points="0.5,-266.5 0.5,-285.5 149.5,-285.5 149.5,-266.5 0.5,-266.5"/>
<text text-anchor="middle" x="75" y="-273.5" font-family="DejaVuSansMono" font-size="10.00">xmpp_core_route_client</text>
</g>
<!-- Node2 -->
<g id="node3" class="node"><title>Node2</title>
<a xlink:href="../../d3/d5a/jid_8c.html#a3d51f2b27d20189e523b0d0b2a77e4a9" target="_top" xlink:title="Converts a JID to a newly allocated string.">
<polygon fill="none" stroke="black" points="243.5,-380.5 243.5,-399.5 320.5,-399.5 320.5,-380.5 243.5,-380.5"/>
<text text-anchor="middle" x="282" y="-387.5" font-family="DejaVuSansMono" font-size="10.00">jid_to_str</text>
</a>
</g>
<!-- Node1&#45;&gt;Node2 -->
<g id="edge2" class="edge"><title>Node1&#45;&gt;Node2</title>
<path fill="none" stroke="midnightblue" d="M83.9735,-285.628C100.694,-305.127 141.572,-349.271 186,-371 200.625,-378.153 217.773,-382.613 233.444,-385.394"/>
<polygon fill="midnightblue" stroke="midnightblue" points="233.062,-388.877 243.488,-386.991 234.161,-381.964 233.062,-388.877"/>
</g>
<!-- Node3 -->
<g id="node5" class="node"><title>Node3</title>
<a xlink:href="../../dd/d4d/xmpp__client_8c.html#af963b026952bdbc45a4df0fa3d69b641" target="_top" xlink:title="Return the JID for this client.">
<polygon fill="none" stroke="black" points="228.5,-342.5 228.5,-361.5 335.5,-361.5 335.5,-342.5 228.5,-342.5"/>
<text text-anchor="middle" x="282" y="-349.5" font-family="DejaVuSansMono" font-size="10.00">xmpp_client_jid</text>
</a>
</g>
<!-- Node1&#45;&gt;Node3 -->
<g id="edge4" class="edge"><title>Node1&#45;&gt;Node3</title>
<path fill="none" stroke="midnightblue" d="M91.0487,-285.545C111.685,-298.219 150.283,-320.456 186,-333 196.206,-336.584 207.28,-339.567 218.141,-342.024"/>
<polygon fill="midnightblue" stroke="midnightblue" points="217.515,-345.469 228.025,-344.135 218.977,-338.623 217.515,-345.469"/>
</g>
<!-- Node4 -->
<g id="node7" class="node"><title>Node4</title>
<a xlink:href="../../d1/d59/xmpp__stanza_8c.html#a513b6e2da3dce364271ba9315d7b3d95" target="_top" xlink:title="Returns the stanza (and its children) packed into a null&#45;terminated string.">
<polygon fill="none" stroke="black" points="219.5,-304.5 219.5,-323.5 344.5,-323.5 344.5,-304.5 219.5,-304.5"/>
<text text-anchor="middle" x="282" y="-311.5" font-family="DejaVuSansMono" font-size="10.00">xmpp_stanza_string</text>
</a>
</g>
<!-- Node1&#45;&gt;Node4 -->
<g id="edge6" class="edge"><title>Node1&#45;&gt;Node4</title>
<path fill="none" stroke="midnightblue" d="M127.466,-285.54C155.368,-290.712 190.045,-297.14 219.38,-302.578"/>
<polygon fill="midnightblue" stroke="midnightblue" points="219.043,-306.075 229.513,-304.456 220.319,-299.192 219.043,-306.075"/>
</g>
<!-- Node9 -->
<g id="node17" class="node"><title>Node9</title>
<a xlink:href="../../d4/d8e/client__socket_8c.html#a7cf0a0cfe0cf2bdccee28f6eab9aa632" target="_top" xlink:title="Send all data in a buffer to the connected socket.">
<polygon fill="none" stroke="black" points="210.5,-266.5 210.5,-285.5 353.5,-285.5 353.5,-266.5 210.5,-266.5"/>
<text text-anchor="middle" x="282" y="-273.5" font-family="DejaVuSansMono" font-size="10.00">client_socket_sendall</text>
</a>
</g>
<!-- Node1&#45;&gt;Node9 -->
<g id="edge16" class="edge"><title>Node1&#45;&gt;Node9</title>
<path fill="none" stroke="midnightblue" d="M149.72,-276C166.07,-276 183.483,-276 200.103,-276"/>
<polygon fill="midnightblue" stroke="midnightblue" points="200.332,-279.5 210.332,-276 200.332,-272.5 200.332,-279.5"/>
</g>
<!-- Node11 -->
<g id="node21" class="node"><title>Node11</title>
<a xlink:href="../../dd/d4d/xmpp__client_8c.html#a07c89140b5b826454868ac9395e2efd7" target="_top" xlink:title="Return the socket used to communicate with this client.">
<polygon fill="none" stroke="black" points="219.5,-228.5 219.5,-247.5 344.5,-247.5 344.5,-228.5 219.5,-228.5"/>
<text text-anchor="middle" x="282" y="-235.5" font-family="DejaVuSansMono" font-size="10.00">xmpp_client_socket</text>
</a>
</g>
<!-- Node1&#45;&gt;Node11 -->
<g id="edge20" class="edge"><title>Node1&#45;&gt;Node11</title>
<path fill="none" stroke="midnightblue" d="M127.466,-266.46C155.368,-261.288 190.045,-254.86 219.38,-249.422"/>
<polygon fill="midnightblue" stroke="midnightblue" points="220.319,-252.808 229.513,-247.544 219.043,-245.925 220.319,-252.808"/>
</g>
<!-- Node12 -->
<g id="node23" class="node"><title>Node12</title>
<a xlink:href="../../d0/df0/xmpp__server_8c.html#a79e02871228c509de0c70961d74a1bcb" target="_top" xlink:title="Attempt to cleanly disconnect a client, and clean up its resources.">
<polygon fill="none" stroke="black" points="186.5,-190.5 186.5,-209.5 377.5,-209.5 377.5,-190.5 186.5,-190.5"/>
<text text-anchor="middle" x="282" y="-197.5" font-family="DejaVuSansMono" font-size="10.00">xmpp_server_disconnect_client</text>
</a>
</g>
<!-- Node1&#45;&gt;Node12 -->
<g id="edge22" class="edge"><title>Node1&#45;&gt;Node12</title>
<path fill="none" stroke="midnightblue" d="M91.0487,-266.455C111.685,-253.781 150.283,-231.544 186,-219 193.813,-216.256 202.135,-213.865 210.481,-211.792"/>
<polygon fill="midnightblue" stroke="midnightblue" points="211.321,-215.19 220.26,-209.503 209.725,-208.374 211.321,-215.19"/>
</g>
<!-- Node5 -->
<g id="node9" class="node"><title>Node5</title>
<a xlink:href="../../d1/d59/xmpp__stanza_8c.html#aae8c30c30fcbc2325d34897f8035ca46" target="_top" xlink:title="Function that gets called recursively to convert a stanza to a string.">
<polygon fill="none" stroke="black" points="432.5,-323.5 432.5,-342.5 521.5,-342.5 521.5,-323.5 432.5,-323.5"/>
<text text-anchor="middle" x="477" y="-330.5" font-family="DejaVuSansMono" font-size="10.00">stanza_tostr</text>
</a>
</g>
<!-- Node4&#45;&gt;Node5 -->
<g id="edge8" class="edge"><title>Node4&#45;&gt;Node5</title>
<path fill="none" stroke="midnightblue" d="M344.597,-320.064C369.598,-322.525 398.211,-325.342 422.34,-327.717"/>
<polygon fill="midnightblue" stroke="midnightblue" points="422.089,-331.209 432.383,-328.706 422.774,-324.243 422.089,-331.209"/>
</g>
<!-- Node6 -->
<g id="node11" class="node"><title>Node6</title>
<a xlink:href="../../d1/dc2/xmpp__parser_8c.html#acce8bfe5926da4e64c3b5038dc683618" target="_top" xlink:title="xmpp_parser_namespace_prefix">
<polygon fill="none" stroke="black" points="576.5,-380.5 576.5,-399.5 761.5,-399.5 761.5,-380.5 576.5,-380.5"/>
<text text-anchor="middle" x="669" y="-387.5" font-family="DejaVuSansMono" font-size="10.00">xmpp_parser_namespace_prefix</text>
</a>
</g>
<!-- Node5&#45;&gt;Node6 -->
<g id="edge10" class="edge"><title>Node5&#45;&gt;Node6</title>
<path fill="none" stroke="midnightblue" d="M499.438,-342.505C519.057,-350.914 549.046,-363.051 576,-371 585.056,-373.671 594.721,-376.105 604.256,-378.274"/>
<polygon fill="midnightblue" stroke="midnightblue" points="603.597,-381.712 614.115,-380.436 605.097,-374.875 603.597,-381.712"/>
</g>
<!-- Node7 -->
<g id="node13" class="node"><title>Node7</title>
<a xlink:href="../../d1/dc2/xmpp__parser_8c.html#afde3cf0e74a12bfe4ac90fa8dbae51a0" target="_top" xlink:title="xmpp_parser_namespace_uri">
<polygon fill="none" stroke="black" points="585.5,-342.5 585.5,-361.5 752.5,-361.5 752.5,-342.5 585.5,-342.5"/>
<text text-anchor="middle" x="669" y="-349.5" font-family="DejaVuSansMono" font-size="10.00">xmpp_parser_namespace_uri</text>
</a>
</g>
<!-- Node5&#45;&gt;Node7 -->
<g id="edge12" class="edge"><title>Node5&#45;&gt;Node7</title>
<path fill="none" stroke="midnightblue" d="M521.59,-337.359C537.656,-338.966 556.53,-340.853 575.285,-342.728"/>
<polygon fill="midnightblue" stroke="midnightblue" points="575.069,-346.224 585.368,-343.737 575.766,-339.259 575.069,-346.224"/>
</g>
<!-- Node8 -->
<g id="node15" class="node"><title>Node8</title>
<a xlink:href="../../d1/dc2/xmpp__parser_8c.html#af924e15caac53b347a48878fcb046bc4" target="_top" xlink:title="Return the next namespace in the namespace list.">
<polygon fill="none" stroke="black" points="582.5,-304.5 582.5,-323.5 755.5,-323.5 755.5,-304.5 582.5,-304.5"/>
<text text-anchor="middle" x="669" y="-311.5" font-family="DejaVuSansMono" font-size="10.00">xmpp_parser_namespace_next</text>
</a>
</g>
<!-- Node5&#45;&gt;Node8 -->
<g id="edge14" class="edge"><title>Node5&#45;&gt;Node8</title>
<path fill="none" stroke="midnightblue" d="M521.59,-328.641C536.701,-327.13 554.296,-325.37 571.94,-323.606"/>
<polygon fill="midnightblue" stroke="midnightblue" points="572.714,-327.046 582.316,-322.568 572.017,-320.081 572.714,-327.046"/>
</g>
<!-- Node10 -->
<g id="node19" class="node"><title>Node10</title>
<a xlink:href="../../d4/d8e/client__socket_8c.html#a164381b69f823fab1b8bce59ca03aefe" target="_top" xlink:title="Send some data to a client_socket.">
<polygon fill="none" stroke="black" points="414.5,-266.5 414.5,-285.5 539.5,-285.5 539.5,-266.5 414.5,-266.5"/>
<text text-anchor="middle" x="477" y="-273.5" font-family="DejaVuSansMono" font-size="10.00">client_socket_send</text>
</a>
</g>
<!-- Node9&#45;&gt;Node10 -->
<g id="edge18" class="edge"><title>Node9&#45;&gt;Node10</title>
<path fill="none" stroke="midnightblue" d="M353.77,-276C370.252,-276 387.814,-276 404.335,-276"/>
<polygon fill="midnightblue" stroke="midnightblue" points="404.467,-279.5 414.467,-276 404.467,-272.5 404.467,-279.5"/>
</g>
<!-- Node13 -->
<g id="node25" class="node"><title>Node13</title>
<a xlink:href="../../dd/d4d/xmpp__client_8c.html#a5ff8a826aface187b00ffcdfb7ce125a" target="_top" xlink:title="Return the server this client is connected to.">
<polygon fill="none" stroke="black" points="414.5,-190.5 414.5,-209.5 539.5,-209.5 539.5,-190.5 414.5,-190.5"/>
<text text-anchor="middle" x="477" y="-197.5" font-family="DejaVuSansMono" font-size="10.00">xmpp_client_server</text>
</a>
</g>
<!-- Node12&#45;&gt;Node13 -->
<g id="edge24" class="edge"><title>Node12&#45;&gt;Node13</title>
<path fill="none" stroke="midnightblue" d="M377.521,-200C386.514,-200 395.53,-200 404.256,-200"/>
<polygon fill="midnightblue" stroke="midnightblue" points="404.347,-203.5 414.347,-200 404.347,-196.5 404.347,-203.5"/>
</g>
<!-- Node14 -->
<g id="node27" class="node"><title>Node14</title>
<a xlink:href="../../dd/d4d/xmpp__client_8c.html#add2df61245a543667b6d98e3fcd57077" target="_top" xlink:title="xmpp_client_del">
<polygon fill="none" stroke="black" points="423.5,-152.5 423.5,-171.5 530.5,-171.5 530.5,-152.5 423.5,-152.5"/>
<text text-anchor="middle" x="477" y="-159.5" font-family="DejaVuSansMono" font-size="10.00">xmpp_client_del</text>
</a>
</g>
<!-- Node12&#45;&gt;Node14 -->
<g id="edge26" class="edge"><title>Node12&#45;&gt;Node14</title>
<path fill="none" stroke="midnightblue" d="M331.702,-190.411C357.859,-185.261 390.284,-178.877 417.767,-173.466"/>
<polygon fill="midnightblue" stroke="midnightblue" points="418.513,-176.886 427.648,-171.52 417.16,-170.018 418.513,-176.886"/>
</g>
<!-- Node14&#45;&gt;Node1 -->
<g id="edge30" class="edge"><title>Node14&#45;&gt;Node1</title>
<path fill="none" stroke="midnightblue" d="M423.49,-155.708C363.623,-150.7 263.968,-149.052 186,-181 145.006,-197.798 108.502,-236.238 89.6116,-258.735"/>
<polygon fill="midnightblue" stroke="midnightblue" points="86.884,-256.541 83.2613,-266.498 92.3021,-260.974 86.884,-256.541"/>
</g>
<!-- Node15 -->
<g id="node29" class="node"><title>Node15</title>
<a xlink:href="../../d0/df0/xmpp__server_8c.html#af2e493f9f89b437fae7212b941c536cf" target="_top" xlink:title="Remove a callback from the list of routes for stanza delivery.">
<polygon fill="none" stroke="black" points="576.5,-266.5 576.5,-285.5 761.5,-285.5 761.5,-266.5 576.5,-266.5"/>
<text text-anchor="middle" x="669" y="-273.5" font-family="DejaVuSansMono" font-size="10.00">xmpp_server_del_stanza_route</text>
</a>
</g>
<!-- Node14&#45;&gt;Node15 -->
<g id="edge28" class="edge"><title>Node14&#45;&gt;Node15</title>
<path fill="none" stroke="midnightblue" d="M524.613,-171.533C530.184,-173.997 535.486,-177.098 540,-181 568.274,-205.445 546.612,-233.906 576,-257 578.208,-258.735 580.535,-260.323 582.956,-261.775"/>
<polygon fill="midnightblue" stroke="midnightblue" points="581.586,-265.006 592.081,-266.462 584.785,-258.78 581.586,-265.006"/>
</g>
<!-- Node16 -->
<g id="node32" class="node"><title>Node16</title>
<a xlink:href="../../d3/d5a/jid_8c.html#ab83fd5aae95de2c9d38fb9d9cd161580" target="_top" xlink:title="Cleans up and frees an existing JID.">
<polygon fill="none" stroke="black" points="639.5,-228.5 639.5,-247.5 698.5,-247.5 698.5,-228.5 639.5,-228.5"/>
<text text-anchor="middle" x="669" y="-235.5" font-family="DejaVuSansMono" font-size="10.00">jid_del</text>
</a>
</g>
<!-- Node14&#45;&gt;Node16 -->
<g id="edge32" class="edge"><title>Node14&#45;&gt;Node16</title>
<path fill="none" stroke="midnightblue" d="M519.652,-171.509C526.722,-174.022 533.78,-177.145 540,-181 559.774,-193.257 555.674,-207.683 576,-219 592.166,-228.001 612.073,-232.756 629.229,-235.26"/>
<polygon fill="midnightblue" stroke="midnightblue" points="629.141,-238.776 639.498,-236.546 630.011,-231.831 629.141,-238.776"/>
</g>
<!-- Node17 -->
<g id="node34" class="node"><title>Node17</title>
<a xlink:href="../../d0/deb/event_8c.html#a9c3c87f32e90d8fa0245d154fac61da9" target="_top" xlink:title="Deregisters a callback for a particular file descriptor.">
<polygon fill="none" stroke="black" points="585.5,-190.5 585.5,-209.5 752.5,-209.5 752.5,-190.5 585.5,-190.5"/>
<text text-anchor="middle" x="669" y="-197.5" font-family="DejaVuSansMono" font-size="10.00">event_deregister_callback</text>
</a>
</g>
<!-- Node14&#45;&gt;Node17 -->
<g id="edge34" class="edge"><title>Node14&#45;&gt;Node17</title>
<path fill="none" stroke="midnightblue" d="M525.945,-171.589C551.582,-176.716 583.336,-183.067 610.316,-188.463"/>
<polygon fill="midnightblue" stroke="midnightblue" points="609.908,-191.951 620.4,-190.48 611.28,-185.087 609.908,-191.951"/>
</g>
<!-- Node18 -->
<g id="node36" class="node"><title>Node18</title>
<a xlink:href="../../d0/df0/xmpp__server_8c.html#ac84f99d96a630f056f36dc0aa9cac9dd" target="_top" xlink:title="Gets the event loop instance this server is using.">
<polygon fill="none" stroke="black" points="612.5,-152.5 612.5,-171.5 725.5,-171.5 725.5,-152.5 612.5,-152.5"/>
<text text-anchor="middle" x="669" y="-159.5" font-family="DejaVuSansMono" font-size="10.00">xmpp_server_loop</text>
</a>
</g>
<!-- Node14&#45;&gt;Node18 -->
<g id="edge36" class="edge"><title>Node14&#45;&gt;Node18</title>
<path fill="none" stroke="midnightblue" d="M530.673,-162C552.772,-162 578.712,-162 602.061,-162"/>
<polygon fill="midnightblue" stroke="midnightblue" points="602.235,-165.5 612.235,-162 602.235,-158.5 602.235,-165.5"/>
</g>
<!-- Node19 -->
<g id="node38" class="node"><title>Node19</title>
<a xlink:href="../../d4/d8e/client__socket_8c.html#a66a8a7fa65db357c88039c8589c7aaa9" target="_top" xlink:title="client_socket_fd">
<polygon fill="none" stroke="black" points="612.5,-114.5 612.5,-133.5 725.5,-133.5 725.5,-114.5 612.5,-114.5"/>
<text text-anchor="middle" x="669" y="-121.5" font-family="DejaVuSansMono" font-size="10.00">client_socket_fd</text>
</a>
</g>
<!-- Node14&#45;&gt;Node19 -->
<g id="edge38" class="edge"><title>Node14&#45;&gt;Node19</title>
<path fill="none" stroke="midnightblue" d="M525.945,-152.411C551.582,-147.284 583.336,-140.933 610.316,-135.537"/>
<polygon fill="midnightblue" stroke="midnightblue" points="611.28,-138.913 620.4,-133.52 609.908,-132.049 611.28,-138.913"/>
</g>
<!-- Node20 -->
<g id="node40" class="node"><title>Node20</title>
<a xlink:href="../../d4/d8e/client__socket_8c.html#abb4fb0de12fd5f701186d9b641ae0905" target="_top" xlink:title="Closes a client_socket.">
<polygon fill="none" stroke="black" points="603.5,-76.5 603.5,-95.5 734.5,-95.5 734.5,-76.5 603.5,-76.5"/>
<text text-anchor="middle" x="669" y="-83.5" font-family="DejaVuSansMono" font-size="10.00">client_socket_close</text>
</a>
</g>
<!-- Node14&#45;&gt;Node20 -->
<g id="edge40" class="edge"><title>Node14&#45;&gt;Node20</title>
<path fill="none" stroke="midnightblue" d="M491.25,-152.405C509.457,-139.674 543.644,-117.373 576,-105 582.991,-102.327 590.432,-100.001 597.936,-97.9852"/>
<polygon fill="midnightblue" stroke="midnightblue" points="598.959,-101.337 607.807,-95.5093 597.256,-94.5476 598.959,-101.337"/>
</g>
<!-- Node21 -->
<g id="node42" class="node"><title>Node21</title>
<a xlink:href="../../d4/d8e/client__socket_8c.html#a9983d6e2b69132508044b4c07bca147e" target="_top" xlink:title="Closes, cleans up and deallocates a client_socket structure.">
<polygon fill="none" stroke="black" points="609.5,-38.5 609.5,-57.5 728.5,-57.5 728.5,-38.5 609.5,-38.5"/>
<text text-anchor="middle" x="669" y="-45.5" font-family="DejaVuSansMono" font-size="10.00">client_socket_del</text>
</a>
</g>
<!-- Node14&#45;&gt;Node21 -->
<g id="edge42" class="edge"><title>Node14&#45;&gt;Node21</title>
<path fill="none" stroke="midnightblue" d="M484.862,-152.371C499.312,-132.871 534.95,-88.7247 576,-67 583.356,-63.1069 591.435,-60.0109 599.657,-57.5489"/>
<polygon fill="midnightblue" stroke="midnightblue" points="600.594,-60.9214 609.339,-54.9402 598.773,-54.1624 600.594,-60.9214"/>
</g>
<!-- Node22 -->
<g id="node44" class="node"><title>Node22</title>
<a xlink:href="../../d1/dc2/xmpp__parser_8c.html#a2620ca01bcf1a68025ec51681c6416f2" target="_top" xlink:title="xmpp_parser_del">
<polygon fill="none" stroke="black" points="615.5,-0.5 615.5,-19.5 722.5,-19.5 722.5,-0.5 615.5,-0.5"/>
<text text-anchor="middle" x="669" y="-7.5" font-family="DejaVuSansMono" font-size="10.00">xmpp_parser_del</text>
</a>
</g>
<!-- Node14&#45;&gt;Node22 -->
<g id="edge44" class="edge"><title>Node14&#45;&gt;Node22</title>
<path fill="none" stroke="midnightblue" d="M482.061,-152.408C493.108,-127.569 526.248,-60.8694 576,-29 584.846,-23.3334 595.065,-19.3156 605.406,-16.4755"/>
<polygon fill="midnightblue" stroke="midnightblue" points="606.41,-19.8341 615.318,-14.098 604.777,-13.0272 606.41,-19.8341"/>
</g>
</g>
</svg>
        <g id="navigator" transform="translate(0 0)" fill="#404254">
                <rect fill="#f2f5e9" fill-opacity="0.5" stroke="#606060" stroke-width=".5" x="0" y="0" width="60" height="60"/>
                <use id="zoomplus" xlink:href="#zoomPlus" x="17" y="9" onmousedown="handleZoom(evt,'in')"/>
                <use id="zoomminus" xlink:href="#zoomMin" x="42" y="9" onmousedown="handleZoom(evt,'out')"/>
                <use id="reset" xlink:href="#resetDef" x="30" y="36" onmousedown="handleReset()"/>
                <g id="arrowUp" xlink:href="#dirArrow" transform="translate(30 24)" onmousedown="handlePan(0,-1)">
                  <use xlink:href="#rim" fill="#404040">
                        <set attributeName="fill" to="#808080" begin="arrowUp.mouseover" end="arrowUp.mouseout"/>
                  </use>
                  <path fill="none" stroke="white" stroke-width="1.5" d="M0,-3.0v7 M-2.5,-0.5L0,-3.0L2.5,-0.5"/>
                </g>
                <g id="arrowRight" xlink:href="#dirArrow" transform="rotate(90) translate(36 -43)" onmousedown="handlePan(1,0)">
                  <use xlink:href="#rim" fill="#404040">
                        <set attributeName="fill" to="#808080" begin="arrowRight.mouseover" end="arrowRight.mouseout"/>
                  </use>
                  <path fill="none" stroke="white" stroke-width="1.5" d="M0,-3.0v7 M-2.5,-0.5L0,-3.0L2.5,-0.5"/>
                </g>
                <g id="arrowDown" xlink:href="#dirArrow" transform="rotate(180) translate(-30 -48)" onmousedown="handlePan(0,1)">
                  <use xlink:href="#rim" fill="#404040">
                        <set attributeName="fill" to="#808080" begin="arrowDown.mouseover" end="arrowDown.mouseout"/>
                  </use>
                  <path fill="none" stroke="white" stroke-width="1.5" d="M0,-3.0v7 M-2.5,-0.5L0,-3.0L2.5,-0.5"/>
                </g>
                <g id="arrowLeft" xlink:href="#dirArrow" transform="rotate(270) translate(-36 17)" onmousedown="handlePan(-1,0)">
                  <use xlink:href="#rim" fill="#404040">
                        <set attributeName="fill" to="#808080" begin="arrowLeft.mouseover" end="arrowLeft.mouseout"/>
                  </use>
                  <path fill="none" stroke="white" stroke-width="1.5" d="M0,-3.0v7 M-2.5,-0.5L0,-3.0L2.5,-0.5"/>
                </g>
        </g>
        <svg viewBox="0 0 25 25" width="100%" height="30px" preserveAspectRatio="xMaxYMin meet"> 
          <g id="printButton" transform="scale(0.4 0.4)" onmousedown="handlePrint(evt)">
            <rect height="23.33753581" id="paper" rx="2" style="fill:#f2f5e9;fill-rule:evenodd;stroke:#111111;stroke-width:3.224;stroke-linejoin:round;" transform="matrix(1.000000,0.000000,-0.339266,0.940691,0.000000,0.000000)" width="25.55231285" x="26.69387353" y="7.36162977"/>
            <rect height="26.272097" id="body" rx="2" style="fill:#404040;fill-rule:evenodd;stroke:#111111;stroke-width:3.125;stroke-linejoin:round;" width="50" x="4.5295201" y="27.078951"/>
            <rect height="8.27750969" id="tray" style="fill:#d2d5c9;fill-rule:evenodd;stroke:#111111;stroke-width:3.125;stroke-linecap:round;stroke-linejoin:round;" width="40" x="10.28778839" y="44.96812282"/>
          </g>
        </svg>
</svg>
