<?xml version="1.0" encoding="UTF-8" standalone="no"?>
<!DOCTYPE svg PUBLIC "-//W3C//DTD SVG 1.1//EN"
 "http://www.w3.org/Graphics/SVG/1.1/DTD/svg11.dtd">
<!-- Generated by graphviz version 2.28.0 (20120217.0315)
 -->
<!-- Title: G Pages: 1 -->
<!--zoomable 191 -->
<svg id="main" version="1.1" xmlns="http://www.w3.org/2000/svg" xmlns:xlink="http://www.w3.org/1999/xlink" xml:space="preserve" onload="init(evt)">
        <defs>
                <circle id="rim" cx="0" cy="0" r="7"/>
                <circle id="rim2" cx="0" cy="0" r="3.5"/>
                <g id="zoomPlus">
                        <use xlink:href="#rim" fill="#404040">
                                <set attributeName="fill" to="#808080" begin="zoomplus.mouseover" end="zoomplus.mouseout"/>
                        </use>
                        <path d="M-4,0h8M0,-4v8" fill="none" stroke="white" stroke-width="1.5" pointer-events="none"/>
                </g>
                <g id="zoomMin">
                        <use xlink:href="#rim" fill="#404040">
                                <set attributeName="fill" to="#808080" begin="zoomminus.mouseover" end="zoomminus.mouseout"/>
                        </use>
                        <path d="M-4,0h8" fill="none" stroke="white" stroke-width="1.5" pointer-events="none"/>
                </g>
                <g id="dirArrow">
                        <path fill="none" stroke="white" stroke-width="1.5" d="M0,-3.0v7 M-2.5,-0.5L0,-3.0L2.5,-0.5"/>
                </g>
               <g id="resetDef">
                       <use xlink:href="#rim2" fill="#404040">
                               <set attributeName="fill" to="#808080" begin="reset.mouseover" end="reset.mouseout"/>
                       </use>
               </g>
        </defs>

<script type="text/javascript">
var viewWidth = 2162;
var viewHeight = 191;
var sectionId = 'dynsection-4';
</script>
<script xlink:href="../../svgpan.js"/>
<svg id="graph" class="graph">
<g id="viewport">
<title>G</title>
<!-- Node1 -->
<g id="node1" class="node"><title>Node1</title>
<polygon fill="#bfbfbf" stroke="black" points="0.5,-28.5 0.5,-47.5 149.5,-47.5 149.5,-28.5 0.5,-28.5"/>
<text text-anchor="middle" x="75" y="-35.5" font-family="DejaVuSansMono" font-size="10.00">xmpp_core_route_client</text>
</g>
<!-- Node2 -->
<g id="node3" class="node"><title>Node2</title>
<a xlink:href="../../df/da9/xmpp__auth_8c.html#a603b4a63af3c4e4af99442805fe89ae8" target="_top" xlink:title="Step 15: Client binds a resource.">
<polygon fill="none" stroke="black" points="744.5,-0.5 744.5,-19.5 845.5,-19.5 845.5,-0.5 744.5,-0.5"/>
<text text-anchor="middle" x="795" y="-7.5" font-family="DejaVuSansMono" font-size="10.00">handle_bind_iq</text>
</a>
</g>
<!-- Node1&#45;&gt;Node2 -->
<g id="edge2" class="edge"><title>Node1&#45;&gt;Node2</title>
<path fill="none" stroke="midnightblue" d="M160.087,-31.6325C256.222,-24.6976 418.348,-14.0529 558,-10 622.299,-8.13396 696.494,-8.55673 744.264,-9.16279"/>
<polygon fill="midnightblue" stroke="midnightblue" points="159.566,-28.161 149.845,-32.3753 160.072,-35.1427 159.566,-28.161"/>
</g>
<!-- Node12 -->
<g id="node24" class="node"><title>Node12</title>
<a xlink:href="../../d4/d2f/xmpp__client_8h.html#add2df61245a543667b6d98e3fcd57077" target="_top" xlink:title="xmpp_client_del">
<polygon fill="none" stroke="black" points="186.5,-76.5 186.5,-95.5 293.5,-95.5 293.5,-76.5 186.5,-76.5"/>
<text text-anchor="middle" x="240" y="-83.5" font-family="DejaVuSansMono" font-size="10.00">xmpp_client_del</text>
</a>
</g>
<!-- Node1&#45;&gt;Node12 -->
<g id="edge24" class="edge"><title>Node1&#45;&gt;Node12</title>
<path fill="none" stroke="midnightblue" d="M118.341,-50.4686C145.847,-58.5683 181.158,-68.9668 206.463,-76.4185"/>
<polygon fill="midnightblue" stroke="midnightblue" points="119.175,-47.0656 108.594,-47.5982 117.198,-53.7805 119.175,-47.0656"/>
</g>
<!-- Node3 -->
<g id="node5" class="node"><title>Node3</title>
<a xlink:href="../../df/da9/xmpp__auth_8c.html#a01804bd53eccc182ce76337fc0863e8d" target="_top" xlink:title="stream_bind_start">
<polygon fill="none" stroke="black" points="882.5,-0.5 882.5,-19.5 1001.5,-19.5 1001.5,-0.5 882.5,-0.5"/>
<text text-anchor="middle" x="942" y="-7.5" font-family="DejaVuSansMono" font-size="10.00">stream_bind_start</text>
</a>
</g>
<!-- Node2&#45;&gt;Node3 -->
<g id="edge4" class="edge"><title>Node2&#45;&gt;Node3</title>
<path fill="none" stroke="midnightblue" d="M855.961,-10C864.655,-10 873.597,-10 882.266,-10"/>
<polygon fill="midnightblue" stroke="midnightblue" points="855.901,-6.5001 845.901,-10 855.901,-13.5001 855.901,-6.5001"/>
</g>
<!-- Node4 -->
<g id="node7" class="node"><title>Node4</title>
<a xlink:href="../../df/da9/xmpp__auth_8c.html#afb770a216868aa3fb43813b19d2a0115" target="_top" xlink:title="Begins SASL PLAIN authentication.">
<polygon fill="none" stroke="black" points="1038.5,-0.5 1038.5,-19.5 1157.5,-19.5 1157.5,-0.5 1038.5,-0.5"/>
<text text-anchor="middle" x="1098" y="-7.5" font-family="DejaVuSansMono" font-size="10.00">handle_sasl_plain</text>
</a>
</g>
<!-- Node3&#45;&gt;Node4 -->
<g id="edge6" class="edge"><title>Node3&#45;&gt;Node4</title>
<path fill="none" stroke="midnightblue" d="M1011.89,-10C1020.69,-10 1029.63,-10 1038.25,-10"/>
<polygon fill="midnightblue" stroke="midnightblue" points="1011.66,-6.5001 1001.66,-10 1011.66,-13.5001 1011.66,-6.5001"/>
</g>
<!-- Node5 -->
<g id="node9" class="node"><title>Node5</title>
<a xlink:href="../../d3/d24/xmpp__auth_8h.html#ad3efd9ab093646bdfd8832c34ae2de4d" target="_top" xlink:title="Handler for the inital stream start to begin authentication.">
<polygon fill="none" stroke="black" points="1494.5,-19.5 1494.5,-38.5 1643.5,-38.5 1643.5,-19.5 1494.5,-19.5"/>
<text text-anchor="middle" x="1569" y="-26.5" font-family="DejaVuSansMono" font-size="10.00">xmpp_auth_stream_start</text>
</a>
</g>
<!-- Node4&#45;&gt;Node5 -->
<g id="edge8" class="edge"><title>Node4&#45;&gt;Node5</title>
<path fill="none" stroke="midnightblue" d="M1167.93,-6.51329C1240.31,-3.66741 1357.38,-1.37403 1458,-10 1479.63,-11.854 1503.38,-15.7225 1523.27,-19.4879"/>
<polygon fill="midnightblue" stroke="midnightblue" points="1167.43,-3.03067 1157.58,-6.93595 1167.72,-10.0248 1167.43,-3.03067"/>
</g>
<!-- Node10 -->
<g id="node19" class="node"><title>Node10</title>
<a xlink:href="../../df/da9/xmpp__auth_8c.html#afd7b12689591d40109a88ad108b5c3a2" target="_top" xlink:title="stream_sasl_start">
<polygon fill="none" stroke="black" points="1194.5,-19.5 1194.5,-38.5 1313.5,-38.5 1313.5,-19.5 1194.5,-19.5"/>
<text text-anchor="middle" x="1254" y="-26.5" font-family="DejaVuSansMono" font-size="10.00">stream_sasl_start</text>
</a>
</g>
<!-- Node4&#45;&gt;Node10 -->
<g id="edge18" class="edge"><title>Node4&#45;&gt;Node10</title>
<path fill="none" stroke="midnightblue" d="M1167.61,-18.4645C1176.5,-19.5613 1185.54,-20.6767 1194.25,-21.7514"/>
<polygon fill="midnightblue" stroke="midnightblue" points="1168.01,-14.9882 1157.66,-17.2373 1167.16,-21.9355 1168.01,-14.9882"/>
</g>
<!-- Node6 -->
<g id="node11" class="node"><title>Node6</title>
<a xlink:href="../../d4/d2f/xmpp__client_8h.html#a1619c0b8f58b2cf09a322bf34fbc3414" target="_top" xlink:title="xmpp_client_new">
<polygon fill="none" stroke="black" points="1680.5,-57.5 1680.5,-76.5 1787.5,-76.5 1787.5,-57.5 1680.5,-57.5"/>
<text text-anchor="middle" x="1734" y="-64.5" font-family="DejaVuSansMono" font-size="10.00">xmpp_client_new</text>
</a>
</g>
<!-- Node5&#45;&gt;Node6 -->
<g id="edge10" class="edge"><title>Node5&#45;&gt;Node6</title>
<path fill="none" stroke="midnightblue" d="M1621.03,-40.8961C1643.94,-46.2374 1670.6,-52.4537 1692.16,-57.4799"/>
<polygon fill="midnightblue" stroke="midnightblue" points="1621.67,-37.4509 1611.13,-38.589 1620.08,-44.2681 1621.67,-37.4509"/>
</g>
<!-- Node7 -->
<g id="node13" class="node"><title>Node7</title>
<a xlink:href="../../d0/df0/xmpp__server_8c.html#a66363912ef1221a2574f9f99805fe8fd" target="_top" xlink:title="Callback for new client connections.">
<polygon fill="none" stroke="black" points="1827.5,-104.5 1827.5,-123.5 1928.5,-123.5 1928.5,-104.5 1827.5,-104.5"/>
<text text-anchor="middle" x="1878" y="-111.5" font-family="DejaVuSansMono" font-size="10.00">connect_client</text>
</a>
</g>
<!-- Node6&#45;&gt;Node7 -->
<g id="edge12" class="edge"><title>Node6&#45;&gt;Node7</title>
<path fill="none" stroke="midnightblue" d="M1773.37,-79.6988C1796.8,-87.4548 1826.29,-97.217 1847.82,-104.342"/>
<polygon fill="midnightblue" stroke="midnightblue" points="1774.33,-76.3307 1763.74,-76.5112 1772.13,-82.9762 1774.33,-76.3307"/>
</g>
<!-- Node8 -->
<g id="node15" class="node"><title>Node8</title>
<a xlink:href="../../d1/d2e/xmpp__server_8h.html#a27bfc8e4d424a8bc17ab21a4a09cdf92" target="_top" xlink:title="Allocates and initializes the XMPP server.">
<polygon fill="none" stroke="black" points="1968.5,-123.5 1968.5,-142.5 2075.5,-142.5 2075.5,-123.5 1968.5,-123.5"/>
<text text-anchor="middle" x="2022" y="-130.5" font-family="DejaVuSansMono" font-size="10.00">xmpp_server_new</text>
</a>
</g>
<!-- Node7&#45;&gt;Node8 -->
<g id="edge14" class="edge"><title>Node7&#45;&gt;Node8</title>
<path fill="none" stroke="midnightblue" d="M1938.73,-121.992C1948.53,-123.303 1958.62,-124.653 1968.23,-125.939"/>
<polygon fill="midnightblue" stroke="midnightblue" points="1939.04,-118.502 1928.66,-120.645 1938.11,-125.441 1939.04,-118.502"/>
</g>
<!-- Node9 -->
<g id="node17" class="node"><title>Node9</title>
<a xlink:href="../../d0/d29/main_8c.html#a0ddf1224851353fc92bfbff6f499fa97" target="_top" xlink:title="main">
<polygon fill="none" stroke="black" points="2112.5,-142.5 2112.5,-161.5 2153.5,-161.5 2153.5,-142.5 2112.5,-142.5"/>
<text text-anchor="middle" x="2133" y="-149.5" font-family="DejaVuSansMono" font-size="10.00">main</text>
</a>
</g>
<!-- Node8&#45;&gt;Node9 -->
<g id="edge16" class="edge"><title>Node8&#45;&gt;Node9</title>
<path fill="none" stroke="midnightblue" d="M2085.45,-143.885C2095.24,-145.592 2104.68,-147.238 2112.47,-148.596"/>
<polygon fill="midnightblue" stroke="midnightblue" points="2086.04,-140.435 2075.58,-142.166 2084.83,-147.331 2086.04,-140.435"/>
</g>
<!-- Node11 -->
<g id="node21" class="node"><title>Node11</title>
<a xlink:href="../../df/da9/xmpp__auth_8c.html#a8dd789e057b9812e4dd1aa524dfb6a65" target="_top" xlink:title="Begins TLS authentication.">
<polygon fill="none" stroke="black" points="1350.5,-19.5 1350.5,-38.5 1457.5,-38.5 1457.5,-19.5 1350.5,-19.5"/>
<text text-anchor="middle" x="1404" y="-26.5" font-family="DejaVuSansMono" font-size="10.00">handle_starttls</text>
</a>
</g>
<!-- Node10&#45;&gt;Node11 -->
<g id="edge20" class="edge"><title>Node10&#45;&gt;Node11</title>
<path fill="none" stroke="midnightblue" d="M1324.09,-29C1332.81,-29 1341.62,-29 1350.04,-29"/>
<polygon fill="midnightblue" stroke="midnightblue" points="1323.92,-25.5001 1313.92,-29 1323.92,-32.5001 1323.92,-25.5001"/>
</g>
<!-- Node11&#45;&gt;Node5 -->
<g id="edge22" class="edge"><title>Node11&#45;&gt;Node5</title>
<path fill="none" stroke="midnightblue" d="M1468.19,-29C1476.75,-29 1485.6,-29 1494.32,-29"/>
<polygon fill="midnightblue" stroke="midnightblue" points="1467.92,-25.5001 1457.92,-29 1467.92,-32.5001 1467.92,-25.5001"/>
</g>
<!-- Node12&#45;&gt;Node6 -->
<g id="edge26" class="edge"><title>Node12&#45;&gt;Node6</title>
<path fill="none" stroke="midnightblue" d="M303.81,-81.0666C381.017,-75.4369 516.063,-67 632,-67 632,-67 632,-67 1405,-67 1502.23,-67 1615.68,-67 1680.45,-67"/>
<polygon fill="midnightblue" stroke="midnightblue" points="303.484,-77.5811 293.768,-81.8068 303.998,-84.5621 303.484,-77.5811"/>
</g>
<!-- Node12&#45;&gt;Node7 -->
<g id="edge46" class="edge"><title>Node12&#45;&gt;Node7</title>
<path fill="none" stroke="midnightblue" d="M267.389,-100.091C284.684,-108.606 308.071,-118.792 330,-124 460.848,-155.077 497.512,-143 632,-143 632,-143 632,-143 1570,-143 1661.14,-143 1766.84,-130.174 1827.42,-121.582"/>
<polygon fill="midnightblue" stroke="midnightblue" points="268.959,-96.9628 258.456,-95.5739 265.801,-103.21 268.959,-96.9628"/>
</g>
<!-- Node13 -->
<g id="node27" class="node"><title>Node13</title>
<a xlink:href="../../d1/d2e/xmpp__server_8h.html#af7d75415fd5671841797bf77bbc1a981" target="_top" xlink:title="Cleans up an XMPP server instance.">
<polygon fill="none" stroke="black" points="1824.5,-161.5 1824.5,-180.5 1931.5,-180.5 1931.5,-161.5 1824.5,-161.5"/>
<text text-anchor="middle" x="1878" y="-168.5" font-family="DejaVuSansMono" font-size="10.00">xmpp_server_del</text>
</a>
</g>
<!-- Node12&#45;&gt;Node13 -->
<g id="edge28" class="edge"><title>Node12&#45;&gt;Node13</title>
<path fill="none" stroke="midnightblue" d="M258.871,-102.557C275.813,-117.191 302.672,-137.756 330,-148 456.43,-195.394 496.979,-181 632,-181 632,-181 632,-181 1570,-181 1659.32,-181 1763.19,-176.719 1824.32,-173.759"/>
<polygon fill="midnightblue" stroke="midnightblue" points="260.766,-99.5582 250.966,-95.5311 256.115,-104.79 260.766,-99.5582"/>
</g>
<!-- Node14 -->
<g id="node31" class="node"><title>Node14</title>
<a xlink:href="../../d1/d2e/xmpp__server_8h.html#a79e02871228c509de0c70961d74a1bcb" target="_top" xlink:title="Attempt to cleanly disconnect a client, and clean up its resources.">
<polygon fill="none" stroke="black" points="330.5,-95.5 330.5,-114.5 521.5,-114.5 521.5,-95.5 330.5,-95.5"/>
<text text-anchor="middle" x="426" y="-102.5" font-family="DejaVuSansMono" font-size="10.00">xmpp_server_disconnect_client</text>
</a>
</g>
<!-- Node12&#45;&gt;Node14 -->
<g id="edge34" class="edge"><title>Node12&#45;&gt;Node14</title>
<path fill="none" stroke="midnightblue" d="M303.766,-92.4813C313.204,-93.4559 323.1,-94.4777 332.996,-95.4996"/>
<polygon fill="midnightblue" stroke="midnightblue" points="304.034,-88.9904 293.727,-91.4446 303.315,-95.9534 304.034,-88.9904"/>
</g>
<!-- Node13&#45;&gt;Node8 -->
<g id="edge32" class="edge"><title>Node13&#45;&gt;Node8</title>
<path fill="none" stroke="midnightblue" d="M1924.49,-158.826C1944.13,-153.571 1966.77,-147.513 1985.18,-142.586"/>
<polygon fill="midnightblue" stroke="midnightblue" points="1923.59,-155.445 1914.83,-161.411 1925.4,-162.207 1923.59,-155.445"/>
</g>
<!-- Node13&#45;&gt;Node9 -->
<g id="edge30" class="edge"><title>Node13&#45;&gt;Node9</title>
<path fill="none" stroke="midnightblue" d="M1941.9,-166.276C1997.84,-162.075 2076.21,-156.19 2112.34,-153.477"/>
<polygon fill="midnightblue" stroke="midnightblue" points="1941.44,-162.801 1931.73,-167.04 1941.96,-169.781 1941.44,-162.801"/>
</g>
<!-- Node15 -->
<g id="node33" class="node"><title>Node15</title>
<a xlink:href="../../d8/d28/xmpp__core_8h.html#a3b41e83061abd7ed5b258c7aa7dda0d6" target="_top" xlink:title="An xmpp_server stanza route for stanzas directed to a local client.">
<polygon fill="none" stroke="black" points="558.5,-19.5 558.5,-38.5 707.5,-38.5 707.5,-19.5 558.5,-19.5"/>
<text text-anchor="middle" x="633" y="-26.5" font-family="DejaVuSansMono" font-size="10.00">xmpp_core_route_client</text>
</a>
</g>
<!-- Node14&#45;&gt;Node15 -->
<g id="edge36" class="edge"><title>Node14&#45;&gt;Node15</title>
<path fill="none" stroke="midnightblue" d="M462.554,-91.8188C503.548,-76.6212 569.934,-52.0097 606.247,-38.5473"/>
<polygon fill="midnightblue" stroke="midnightblue" points="461.123,-88.6166 452.963,-95.3745 463.556,-95.1801 461.123,-88.6166"/>
</g>
<!-- Node16 -->
<g id="node37" class="node"><title>Node16</title>
<a xlink:href="../../d0/df0/xmpp__server_8c.html#abece91815ef240322d79073f5bfca1db" target="_top" xlink:title="Callback for new data from a client.">
<polygon fill="none" stroke="black" points="753.5,-95.5 753.5,-114.5 836.5,-114.5 836.5,-95.5 753.5,-95.5"/>
<text text-anchor="middle" x="795" y="-102.5" font-family="DejaVuSansMono" font-size="10.00">read_client</text>
</a>
</g>
<!-- Node14&#45;&gt;Node16 -->
<g id="edge42" class="edge"><title>Node14&#45;&gt;Node16</title>
<path fill="none" stroke="midnightblue" d="M531.767,-105C605.475,-105 700.098,-105 753.176,-105"/>
<polygon fill="midnightblue" stroke="midnightblue" points="531.512,-101.5 521.512,-105 531.512,-108.5 531.512,-101.5"/>
</g>
<!-- Node15&#45;&gt;Node2 -->
<g id="edge38" class="edge"><title>Node15&#45;&gt;Node2</title>
<path fill="none" stroke="midnightblue" d="M718.006,-19.0243C726.943,-17.963 735.813,-16.9097 744.168,-15.9175"/>
<polygon fill="midnightblue" stroke="midnightblue" points="717.429,-15.5681 707.911,-20.223 718.254,-22.5193 717.429,-15.5681"/>
</g>
<!-- Node15&#45;&gt;Node12 -->
<g id="edge40" class="edge"><title>Node15&#45;&gt;Node12</title>
<path fill="none" stroke="midnightblue" d="M547.88,-29.5003C486.783,-31.355 402.463,-37.0097 330,-53 305.862,-58.3266 279.455,-68.7407 261.725,-76.4517"/>
<polygon fill="midnightblue" stroke="midnightblue" points="548.344,-32.989 558.244,-29.2153 548.152,-25.9916 548.344,-32.989"/>
</g>
<!-- Node16&#45;&gt;Node7 -->
<g id="edge44" class="edge"><title>Node16&#45;&gt;Node7</title>
<path fill="none" stroke="midnightblue" d="M847.216,-105C907.113,-105 1009.25,-105 1097,-105 1097,-105 1097,-105 1570,-105 1660.78,-105 1766.59,-108.98 1827.3,-111.647"/>
<polygon fill="midnightblue" stroke="midnightblue" points="846.896,-101.5 836.896,-105 846.896,-108.5 846.896,-101.5"/>
</g>
</g>
</svg>
        <g id="navigator" transform="translate(0 0)" fill="#404254">
                <rect fill="#f2f5e9" fill-opacity="0.5" stroke="#606060" stroke-width=".5" x="0" y="0" width="60" height="60"/>
                <use id="zoomplus" xlink:href="#zoomPlus" x="17" y="9" onmousedown="handleZoom(evt,'in')"/>
                <use id="zoomminus" xlink:href="#zoomMin" x="42" y="9" onmousedown="handleZoom(evt,'out')"/>
                <use id="reset" xlink:href="#resetDef" x="30" y="36" onmousedown="handleReset()"/>
                <g id="arrowUp" xlink:href="#dirArrow" transform="translate(30 24)" onmousedown="handlePan(0,-1)">
                  <use xlink:href="#rim" fill="#404040">
                        <set attributeName="fill" to="#808080" begin="arrowUp.mouseover" end="arrowUp.mouseout"/>
                  </use>
                  <path fill="none" stroke="white" stroke-width="1.5" d="M0,-3.0v7 M-2.5,-0.5L0,-3.0L2.5,-0.5"/>
                </g>
                <g id="arrowRight" xlink:href="#dirArrow" transform="rotate(90) translate(36 -43)" onmousedown="handlePan(1,0)">
                  <use xlink:href="#rim" fill="#404040">
                        <set attributeName="fill" to="#808080" begin="arrowRight.mouseover" end="arrowRight.mouseout"/>
                  </use>
                  <path fill="none" stroke="white" stroke-width="1.5" d="M0,-3.0v7 M-2.5,-0.5L0,-3.0L2.5,-0.5"/>
                </g>
                <g id="arrowDown" xlink:href="#dirArrow" transform="rotate(180) translate(-30 -48)" onmousedown="handlePan(0,1)">
                  <use xlink:href="#rim" fill="#404040">
                        <set attributeName="fill" to="#808080" begin="arrowDown.mouseover" end="arrowDown.mouseout"/>
                  </use>
                  <path fill="none" stroke="white" stroke-width="1.5" d="M0,-3.0v7 M-2.5,-0.5L0,-3.0L2.5,-0.5"/>
                </g>
                <g id="arrowLeft" xlink:href="#dirArrow" transform="rotate(270) translate(-36 17)" onmousedown="handlePan(-1,0)">
                  <use xlink:href="#rim" fill="#404040">
                        <set attributeName="fill" to="#808080" begin="arrowLeft.mouseover" end="arrowLeft.mouseout"/>
                  </use>
                  <path fill="none" stroke="white" stroke-width="1.5" d="M0,-3.0v7 M-2.5,-0.5L0,-3.0L2.5,-0.5"/>
                </g>
        </g>
        <svg viewBox="0 0 25 25" width="100%" height="30px" preserveAspectRatio="xMaxYMin meet"> 
          <g id="printButton" transform="scale(0.4 0.4)" onmousedown="handlePrint(evt)">
            <rect height="23.33753581" id="paper" rx="2" style="fill:#f2f5e9;fill-rule:evenodd;stroke:#111111;stroke-width:3.224;stroke-linejoin:round;" transform="matrix(1.000000,0.000000,-0.339266,0.940691,0.000000,0.000000)" width="25.55231285" x="26.69387353" y="7.36162977"/>
            <rect height="26.272097" id="body" rx="2" style="fill:#404040;fill-rule:evenodd;stroke:#111111;stroke-width:3.125;stroke-linejoin:round;" width="50" x="4.5295201" y="27.078951"/>
            <rect height="8.27750969" id="tray" style="fill:#d2d5c9;fill-rule:evenodd;stroke:#111111;stroke-width:3.125;stroke-linecap:round;stroke-linejoin:round;" width="40" x="10.28778839" y="44.96812282"/>
          </g>
        </svg>
</svg>
