<?xml version="1.0" encoding="UTF-8" standalone="no"?>
<!DOCTYPE svg PUBLIC "-//W3C//DTD SVG 1.1//EN"
 "http://www.w3.org/Graphics/SVG/1.1/DTD/svg11.dtd">
<!-- Generated by graphviz version 2.28.0 (20120217.0315)
 -->
<!-- Title: G Pages: 1 -->
<svg width="332pt" height="28pt"
 viewBox="0.00 0.00 332.00 28.00" xmlns="http://www.w3.org/2000/svg" xmlns:xlink="http://www.w3.org/1999/xlink">
<g id="graph1" class="graph" transform="scale(1 1) rotate(0) translate(4 24)">
<title>G</title>
<!-- Node1 -->
<g id="node1" class="node"><title>Node1</title>
<polygon fill="#bfbfbf" stroke="black" points="0.5,-0.5 0.5,-19.5 107.5,-19.5 107.5,-0.5 0.5,-0.5"/>
<text text-anchor="middle" x="54" y="-7.5" font-family="DejaVuSansMono" font-size="10.00">event_loop_stop</text>
</g>
<!-- Node2 -->
<g id="node3" class="node"><title>Node2</title>
<a xlink:href="../../d0/d29/main_8c.html#a5a2cb997ac731840ca1dbea80f7ba042" target="_top" xlink:title="signal_handler">
<polygon fill="none" stroke="black" points="144.5,-0.5 144.5,-19.5 245.5,-19.5 245.5,-0.5 144.5,-0.5"/>
<text text-anchor="middle" x="195" y="-7.5" font-family="DejaVuSansMono" font-size="10.00">signal_handler</text>
</a>
</g>
<!-- Node1&#45;&gt;Node2 -->
<g id="edge2" class="edge"><title>Node1&#45;&gt;Node2</title>
<path fill="none" stroke="midnightblue" d="M117.805,-10C126.627,-10 135.594,-10 144.131,-10"/>
<polygon fill="midnightblue" stroke="midnightblue" points="117.55,-6.5001 107.55,-10 117.55,-13.5001 117.55,-6.5001"/>
</g>
<!-- Node3 -->
<g id="node5" class="node"><title>Node3</title>
<a xlink:href="../../d0/d29/main_8c.html#a0ddf1224851353fc92bfbff6f499fa97" target="_top" xlink:title="main">
<polygon fill="none" stroke="black" points="282.5,-0.5 282.5,-19.5 323.5,-19.5 323.5,-0.5 282.5,-0.5"/>
<text text-anchor="middle" x="303" y="-7.5" font-family="DejaVuSansMono" font-size="10.00">main</text>
</a>
</g>
<!-- Node2&#45;&gt;Node3 -->
<g id="edge4" class="edge"><title>Node2&#45;&gt;Node3</title>
<path fill="none" stroke="midnightblue" d="M255.672,-10C265.299,-10 274.628,-10 282.36,-10"/>
<polygon fill="midnightblue" stroke="midnightblue" points="255.586,-6.5001 245.586,-10 255.586,-13.5001 255.586,-6.5001"/>
</g>
</g>
</svg>
