<?xml version="1.0" encoding="UTF-8" standalone="no"?>
<!DOCTYPE svg PUBLIC "-//W3C//DTD SVG 1.1//EN"
 "http://www.w3.org/Graphics/SVG/1.1/DTD/svg11.dtd">
<!-- Generated by graphviz version 2.28.0 (20120217.0315)
 -->
<!-- Title: G Pages: 1 -->
<svg width="362pt" height="28pt"
 viewBox="0.00 0.00 362.00 28.00" xmlns="http://www.w3.org/2000/svg" xmlns:xlink="http://www.w3.org/1999/xlink">
<g id="graph1" class="graph" transform="scale(1 1) rotate(0) translate(4 24)">
<title>G</title>
<!-- Node1 -->
<g id="node1" class="node"><title>Node1</title>
<polygon fill="#bfbfbf" stroke="black" points="0.5,-0.5 0.5,-19.5 125.5,-19.5 125.5,-0.5 0.5,-0.5"/>
<text text-anchor="middle" x="63" y="-7.5" font-family="DejaVuSansMono" font-size="10.00">event_init_readfds</text>
</g>
<!-- Node2 -->
<g id="node3" class="node"><title>Node2</title>
<a xlink:href="../../dd/d20/event_8h.html#a65586ce8f2c4b81c478098ec9c62cd22" target="_top" xlink:title="Start the event loop.">
<polygon fill="none" stroke="black" points="162.5,-0.5 162.5,-19.5 275.5,-19.5 275.5,-0.5 162.5,-0.5"/>
<text text-anchor="middle" x="219" y="-7.5" font-family="DejaVuSansMono" font-size="10.00">event_loop_start</text>
</a>
</g>
<!-- Node1&#45;&gt;Node2 -->
<g id="edge2" class="edge"><title>Node1&#45;&gt;Node2</title>
<path fill="none" stroke="midnightblue" d="M136.013,-10C144.813,-10 153.7,-10 162.212,-10"/>
<polygon fill="midnightblue" stroke="midnightblue" points="135.75,-6.5001 125.75,-10 135.75,-13.5001 135.75,-6.5001"/>
</g>
<!-- Node3 -->
<g id="node5" class="node"><title>Node3</title>
<a xlink:href="../../d0/d29/main_8c.html#a0ddf1224851353fc92bfbff6f499fa97" target="_top" xlink:title="main">
<polygon fill="none" stroke="black" points="312.5,-0.5 312.5,-19.5 353.5,-19.5 353.5,-0.5 312.5,-0.5"/>
<text text-anchor="middle" x="333" y="-7.5" font-family="DejaVuSansMono" font-size="10.00">main</text>
</a>
</g>
<!-- Node2&#45;&gt;Node3 -->
<g id="edge4" class="edge"><title>Node2&#45;&gt;Node3</title>
<path fill="none" stroke="midnightblue" d="M285.818,-10C295.462,-10 304.705,-10 312.355,-10"/>
<polygon fill="midnightblue" stroke="midnightblue" points="285.672,-6.5001 275.672,-10 285.672,-13.5001 285.672,-6.5001"/>
</g>
</g>
</svg>
