<?xml version="1.0" encoding="UTF-8" standalone="no"?>
<!DOCTYPE svg PUBLIC "-//W3C//DTD SVG 1.1//EN"
 "http://www.w3.org/Graphics/SVG/1.1/DTD/svg11.dtd">
<!-- Generated by graphviz version 2.28.0 (20120217.0315)
 -->
<!-- Title: G Pages: 1 -->
<!--zoomable 140 -->
<svg id="main" version="1.1" xmlns="http://www.w3.org/2000/svg" xmlns:xlink="http://www.w3.org/1999/xlink" xml:space="preserve" onload="init(evt)">
        <defs>
                <circle id="rim" cx="0" cy="0" r="7"/>
                <circle id="rim2" cx="0" cy="0" r="3.5"/>
                <g id="zoomPlus">
                        <use xlink:href="#rim" fill="#404040">
                                <set attributeName="fill" to="#808080" begin="zoomplus.mouseover" end="zoomplus.mouseout"/>
                        </use>
                        <path d="M-4,0h8M0,-4v8" fill="none" stroke="white" stroke-width="1.5" pointer-events="none"/>
                </g>
                <g id="zoomMin">
                        <use xlink:href="#rim" fill="#404040">
                                <set attributeName="fill" to="#808080" begin="zoomminus.mouseover" end="zoomminus.mouseout"/>
                        </use>
                        <path d="M-4,0h8" fill="none" stroke="white" stroke-width="1.5" pointer-events="none"/>
                </g>
                <g id="dirArrow">
                        <path fill="none" stroke="white" stroke-width="1.5" d="M0,-3.0v7 M-2.5,-0.5L0,-3.0L2.5,-0.5"/>
                </g>
               <g id="resetDef">
                       <use xlink:href="#rim2" fill="#404040">
                               <set attributeName="fill" to="#808080" begin="reset.mouseover" end="reset.mouseout"/>
                       </use>
               </g>
        </defs>

<script type="text/javascript">
var viewWidth = 820;
var viewHeight = 140;
var sectionId = 'dynsection-0';
</script>
<script xlink:href="../../svgpan.js"/>
<svg id="graph" class="graph">
<g id="viewport">
<title>G</title>
<!-- Node1 -->
<g id="node1" class="node"><title>Node1</title>
<polygon fill="#bfbfbf" stroke="black" points="325.47,-112.5 325.47,-131.5 408.47,-131.5 408.47,-112.5 325.47,-112.5"/>
<text text-anchor="middle" x="366.97" y="-119.5" font-family="DejaVuSansMono" font-size="10.00">src/event.c</text>
</g>
<!-- Node2 -->
<g id="node3" class="node"><title>Node2</title>
<polygon fill="none" stroke="#bfbfbf" points="28.4704,-0.5 28.4704,-19.5 87.4704,-19.5 87.4704,-0.5 28.4704,-0.5"/>
<text text-anchor="middle" x="57.9704" y="-7.5" font-family="DejaVuSansMono" font-size="10.00">errno.h</text>
</g>
<!-- Node1&#45;&gt;Node2 -->
<g id="edge2" class="edge"><title>Node1&#45;&gt;Node2</title>
<path fill="none" stroke="midnightblue" d="M325.252,-118.87C234.567,-113.813 25.9085,-99.7021 4.97036,-76 -10.1448,-58.8896 13.1383,-38.3548 33.4529,-25.0093"/>
<polygon fill="midnightblue" stroke="midnightblue" points="35.5086,-27.8522 42.1425,-19.5913 31.805,-21.9122 35.5086,-27.8522"/>
</g>
<!-- Node3 -->
<g id="node5" class="node"><title>Node3</title>
<polygon fill="none" stroke="#bfbfbf" points="14.4704,-56.5 14.4704,-75.5 79.4704,-75.5 79.4704,-56.5 14.4704,-56.5"/>
<text text-anchor="middle" x="46.9704" y="-63.5" font-family="DejaVuSansMono" font-size="10.00">signal.h</text>
</g>
<!-- Node1&#45;&gt;Node3 -->
<g id="edge4" class="edge"><title>Node1&#45;&gt;Node3</title>
<path fill="none" stroke="midnightblue" d="M325.246,-115.018C272.563,-107.3 178.915,-93.034 89.6305,-76.2375"/>
<polygon fill="midnightblue" stroke="midnightblue" points="90.087,-72.7617 79.6101,-74.338 88.7833,-79.6393 90.087,-72.7617"/>
</g>
<!-- Node4 -->
<g id="node7" class="node"><title>Node4</title>
<polygon fill="none" stroke="#bfbfbf" points="97.4704,-56.5 97.4704,-75.5 168.47,-75.5 168.47,-56.5 97.4704,-56.5"/>
<text text-anchor="middle" x="132.97" y="-63.5" font-family="DejaVuSansMono" font-size="10.00">stdbool.h</text>
</g>
<!-- Node1&#45;&gt;Node4 -->
<g id="edge6" class="edge"><title>Node1&#45;&gt;Node4</title>
<path fill="none" stroke="midnightblue" d="M329.892,-112.444C288.884,-102.98 222.784,-87.7262 178.622,-77.535"/>
<polygon fill="midnightblue" stroke="midnightblue" points="179.255,-74.0891 168.724,-75.2508 177.681,-80.9098 179.255,-74.0891"/>
</g>
<!-- Node5 -->
<g id="node9" class="node"><title>Node5</title>
<polygon fill="none" stroke="#bfbfbf" points="477.47,-0.5 477.47,-19.5 536.47,-19.5 536.47,-0.5 477.47,-0.5"/>
<text text-anchor="middle" x="506.97" y="-7.5" font-family="DejaVuSansMono" font-size="10.00">stdio.h</text>
</g>
<!-- Node1&#45;&gt;Node5 -->
<g id="edge8" class="edge"><title>Node1&#45;&gt;Node5</title>
<path fill="none" stroke="midnightblue" d="M408.511,-118.491C494.513,-112.871 685.69,-98.0175 704.97,-76 750.653,-23.832 616.951,-13.3443 546.86,-11.3679"/>
<polygon fill="midnightblue" stroke="midnightblue" points="546.681,-7.86277 536.601,-11.1263 546.516,-14.8608 546.681,-7.86277"/>
</g>
<!-- Node6 -->
<g id="node11" class="node"><title>Node6</title>
<polygon fill="none" stroke="#bfbfbf" points="251.47,-56.5 251.47,-75.5 316.47,-75.5 316.47,-56.5 251.47,-56.5"/>
<text text-anchor="middle" x="283.97" y="-63.5" font-family="DejaVuSansMono" font-size="10.00">stdlib.h</text>
</g>
<!-- Node1&#45;&gt;Node6 -->
<g id="edge10" class="edge"><title>Node1&#45;&gt;Node6</title>
<path fill="none" stroke="midnightblue" d="M353.635,-112.324C340.808,-103.979 321.185,-91.2122 306.031,-81.3524"/>
<polygon fill="midnightblue" stroke="midnightblue" points="307.564,-78.1742 297.273,-75.6545 303.746,-84.0417 307.564,-78.1742"/>
</g>
<!-- Node7 -->
<g id="node13" class="node"><title>Node7</title>
<polygon fill="none" stroke="#bfbfbf" points="334.47,-56.5 334.47,-75.5 399.47,-75.5 399.47,-56.5 334.47,-56.5"/>
<text text-anchor="middle" x="366.97" y="-63.5" font-family="DejaVuSansMono" font-size="10.00">unistd.h</text>
</g>
<!-- Node1&#45;&gt;Node7 -->
<g id="edge12" class="edge"><title>Node1&#45;&gt;Node7</title>
<path fill="none" stroke="midnightblue" d="M366.97,-112.083C366.97,-105.006 366.97,-94.8611 366.97,-85.9865"/>
<polygon fill="midnightblue" stroke="midnightblue" points="370.47,-85.751 366.97,-75.7511 363.47,-85.7511 370.47,-85.751"/>
</g>
<!-- Node8 -->
<g id="node15" class="node"><title>Node8</title>
<polygon fill="none" stroke="#bfbfbf" points="417.47,-56.5 417.47,-75.5 506.47,-75.5 506.47,-56.5 417.47,-56.5"/>
<text text-anchor="middle" x="461.97" y="-63.5" font-family="DejaVuSansMono" font-size="10.00">sys/select.h</text>
</g>
<!-- Node1&#45;&gt;Node8 -->
<g id="edge14" class="edge"><title>Node1&#45;&gt;Node8</title>
<path fill="none" stroke="midnightblue" d="M382.234,-112.324C397.192,-103.822 420.225,-90.7288 437.697,-80.7975"/>
<polygon fill="midnightblue" stroke="midnightblue" points="439.781,-83.639 446.745,-75.6545 436.322,-77.5534 439.781,-83.639"/>
</g>
<!-- Node9 -->
<g id="node17" class="node"><title>Node9</title>
<polygon fill="none" stroke="#bfbfbf" points="524.47,-56.5 524.47,-75.5 613.47,-75.5 613.47,-56.5 524.47,-56.5"/>
<text text-anchor="middle" x="568.97" y="-63.5" font-family="DejaVuSansMono" font-size="10.00">sys/socket.h</text>
</g>
<!-- Node1&#45;&gt;Node9 -->
<g id="edge16" class="edge"><title>Node1&#45;&gt;Node9</title>
<path fill="none" stroke="midnightblue" d="M398.978,-112.444C433.699,-103.162 489.258,-88.3093 527.347,-78.127"/>
<polygon fill="midnightblue" stroke="midnightblue" points="528.356,-81.4803 537.113,-75.5164 526.548,-74.7178 528.356,-81.4803"/>
</g>
<!-- Node10 -->
<g id="node19" class="node"><title>Node10</title>
<polygon fill="none" stroke="#bfbfbf" points="631.47,-56.5 631.47,-75.5 696.47,-75.5 696.47,-56.5 631.47,-56.5"/>
<text text-anchor="middle" x="663.97" y="-63.5" font-family="DejaVuSansMono" font-size="10.00">utlist.h</text>
</g>
<!-- Node1&#45;&gt;Node10 -->
<g id="edge18" class="edge"><title>Node1&#45;&gt;Node10</title>
<path fill="none" stroke="midnightblue" d="M408.574,-114.137C457.151,-106.017 540.159,-91.8142 621.523,-76.027"/>
<polygon fill="midnightblue" stroke="midnightblue" points="622.29,-79.4435 631.435,-74.0941 620.95,-72.5729 622.29,-79.4435"/>
</g>
<!-- Node11 -->
<g id="node21" class="node"><title>Node11</title>
<a xlink:href="../../d7/d7f/log_8h.html" target="_top" xlink:title="Debugging and logging functions/macros.">
<polygon fill="none" stroke="black" points="186.47,-56.5 186.47,-75.5 233.47,-75.5 233.47,-56.5 186.47,-56.5"/>
<text text-anchor="middle" x="209.97" y="-63.5" font-family="DejaVuSansMono" font-size="10.00">log.h</text>
</a>
</g>
<!-- Node1&#45;&gt;Node11 -->
<g id="edge20" class="edge"><title>Node1&#45;&gt;Node11</title>
<path fill="none" stroke="midnightblue" d="M342.093,-112.444C315.37,-103.252 272.767,-88.5987 243.192,-78.4265"/>
<polygon fill="midnightblue" stroke="midnightblue" points="244.298,-75.1058 233.703,-75.1629 242.021,-81.7252 244.298,-75.1058"/>
</g>
<!-- Node13 -->
<g id="node27" class="node"><title>Node13</title>
<a xlink:href="../../dd/d20/event_8h.html" target="_top" xlink:title="Simple event loop.">
<polygon fill="none" stroke="black" points="753.47,-56.5 753.47,-75.5 812.47,-75.5 812.47,-56.5 753.47,-56.5"/>
<text text-anchor="middle" x="782.97" y="-63.5" font-family="DejaVuSansMono" font-size="10.00">event.h</text>
</a>
</g>
<!-- Node1&#45;&gt;Node13 -->
<g id="edge28" class="edge"><title>Node1&#45;&gt;Node13</title>
<path fill="none" stroke="midnightblue" d="M408.689,-117.072C477.661,-110.327 619.696,-95.3796 738.97,-76 740.413,-75.7655 741.881,-75.5171 743.362,-75.2581"/>
<polygon fill="midnightblue" stroke="midnightblue" points="744.016,-78.6966 753.209,-73.4292 742.738,-71.8143 744.016,-78.6966"/>
</g>
<!-- Node11&#45;&gt;Node2 -->
<g id="edge24" class="edge"><title>Node11&#45;&gt;Node2</title>
<path fill="none" stroke="midnightblue" d="M186.22,-56.5625C160.826,-47.5408 120.346,-33.1599 91.6643,-22.9702"/>
<polygon fill="midnightblue" stroke="midnightblue" points="92.6499,-19.6061 82.0552,-19.5565 90.3065,-26.2022 92.6499,-19.6061"/>
</g>
<!-- Node11&#45;&gt;Node5 -->
<g id="edge22" class="edge"><title>Node11&#45;&gt;Node5</title>
<path fill="none" stroke="midnightblue" d="M233.665,-58.0342C236.454,-57.304 239.268,-56.6077 241.97,-56 321.196,-38.1849 415.157,-23.7972 467.216,-16.4086"/>
<polygon fill="midnightblue" stroke="midnightblue" points="467.945,-19.8406 477.36,-14.9824 466.97,-12.9088 467.945,-19.8406"/>
</g>
<!-- Node12 -->
<g id="node25" class="node"><title>Node12</title>
<polygon fill="none" stroke="#bfbfbf" points="177.47,-0.5 177.47,-19.5 242.47,-19.5 242.47,-0.5 177.47,-0.5"/>
<text text-anchor="middle" x="209.97" y="-7.5" font-family="DejaVuSansMono" font-size="10.00">string.h</text>
</g>
<!-- Node11&#45;&gt;Node12 -->
<g id="edge26" class="edge"><title>Node11&#45;&gt;Node12</title>
<path fill="none" stroke="midnightblue" d="M209.97,-56.083C209.97,-49.0059 209.97,-38.8611 209.97,-29.9865"/>
<polygon fill="midnightblue" stroke="midnightblue" points="213.47,-29.751 209.97,-19.7511 206.47,-29.7511 213.47,-29.751"/>
</g>
</g>
</svg>
        <g id="navigator" transform="translate(0 0)" fill="#404254">
                <rect fill="#f2f5e9" fill-opacity="0.5" stroke="#606060" stroke-width=".5" x="0" y="0" width="60" height="60"/>
                <use id="zoomplus" xlink:href="#zoomPlus" x="17" y="9" onmousedown="handleZoom(evt,'in')"/>
                <use id="zoomminus" xlink:href="#zoomMin" x="42" y="9" onmousedown="handleZoom(evt,'out')"/>
                <use id="reset" xlink:href="#resetDef" x="30" y="36" onmousedown="handleReset()"/>
                <g id="arrowUp" xlink:href="#dirArrow" transform="translate(30 24)" onmousedown="handlePan(0,-1)">
                  <use xlink:href="#rim" fill="#404040">
                        <set attributeName="fill" to="#808080" begin="arrowUp.mouseover" end="arrowUp.mouseout"/>
                  </use>
                  <path fill="none" stroke="white" stroke-width="1.5" d="M0,-3.0v7 M-2.5,-0.5L0,-3.0L2.5,-0.5"/>
                </g>
                <g id="arrowRight" xlink:href="#dirArrow" transform="rotate(90) translate(36 -43)" onmousedown="handlePan(1,0)">
                  <use xlink:href="#rim" fill="#404040">
                        <set attributeName="fill" to="#808080" begin="arrowRight.mouseover" end="arrowRight.mouseout"/>
                  </use>
                  <path fill="none" stroke="white" stroke-width="1.5" d="M0,-3.0v7 M-2.5,-0.5L0,-3.0L2.5,-0.5"/>
                </g>
                <g id="arrowDown" xlink:href="#dirArrow" transform="rotate(180) translate(-30 -48)" onmousedown="handlePan(0,1)">
                  <use xlink:href="#rim" fill="#404040">
                        <set attributeName="fill" to="#808080" begin="arrowDown.mouseover" end="arrowDown.mouseout"/>
                  </use>
                  <path fill="none" stroke="white" stroke-width="1.5" d="M0,-3.0v7 M-2.5,-0.5L0,-3.0L2.5,-0.5"/>
                </g>
                <g id="arrowLeft" xlink:href="#dirArrow" transform="rotate(270) translate(-36 17)" onmousedown="handlePan(-1,0)">
                  <use xlink:href="#rim" fill="#404040">
                        <set attributeName="fill" to="#808080" begin="arrowLeft.mouseover" end="arrowLeft.mouseout"/>
                  </use>
                  <path fill="none" stroke="white" stroke-width="1.5" d="M0,-3.0v7 M-2.5,-0.5L0,-3.0L2.5,-0.5"/>
                </g>
        </g>
        <svg viewBox="0 0 25 25" width="100%" height="30px" preserveAspectRatio="xMaxYMin meet"> 
          <g id="printButton" transform="scale(0.4 0.4)" onmousedown="handlePrint(evt)">
            <rect height="23.33753581" id="paper" rx="2" style="fill:#f2f5e9;fill-rule:evenodd;stroke:#111111;stroke-width:3.224;stroke-linejoin:round;" transform="matrix(1.000000,0.000000,-0.339266,0.940691,0.000000,0.000000)" width="25.55231285" x="26.69387353" y="7.36162977"/>
            <rect height="26.272097" id="body" rx="2" style="fill:#404040;fill-rule:evenodd;stroke:#111111;stroke-width:3.125;stroke-linejoin:round;" width="50" x="4.5295201" y="27.078951"/>
            <rect height="8.27750969" id="tray" style="fill:#d2d5c9;fill-rule:evenodd;stroke:#111111;stroke-width:3.125;stroke-linecap:round;stroke-linejoin:round;" width="40" x="10.28778839" y="44.96812282"/>
          </g>
        </svg>
</svg>
