<?xml version="1.0" encoding="UTF-8" standalone="no"?>
<!DOCTYPE svg PUBLIC "-//W3C//DTD SVG 1.1//EN"
 "http://www.w3.org/Graphics/SVG/1.1/DTD/svg11.dtd">
<!-- Generated by graphviz version 2.28.0 (20120217.0315)
 -->
<!-- Title: G Pages: 1 -->
<svg width="226pt" height="84pt"
 viewBox="0.00 0.00 226.00 84.00" xmlns="http://www.w3.org/2000/svg" xmlns:xlink="http://www.w3.org/1999/xlink">
<g id="graph1" class="graph" transform="scale(1 1) rotate(0) translate(4 80)">
<title>G</title>
<!-- Node1 -->
<g id="node1" class="node"><title>Node1</title>
<polygon fill="#bfbfbf" stroke="black" points="70.5,-56.5 70.5,-75.5 141.5,-75.5 141.5,-56.5 70.5,-56.5"/>
<text text-anchor="middle" x="106" y="-63.5" font-family="DejaVuSansMono" font-size="10.00">src/log.h</text>
</g>
<!-- Node2 -->
<g id="node3" class="node"><title>Node2</title>
<polygon fill="none" stroke="#bfbfbf" points="-0.5,-0.5 -0.5,-19.5 58.5,-19.5 58.5,-0.5 -0.5,-0.5"/>
<text text-anchor="middle" x="29" y="-7.5" font-family="DejaVuSansMono" font-size="10.00">stdio.h</text>
</g>
<!-- Node1&#45;&gt;Node2 -->
<g id="edge2" class="edge"><title>Node1&#45;&gt;Node2</title>
<path fill="none" stroke="midnightblue" d="M93.6286,-56.324C81.8415,-48.0577 63.8677,-35.4527 49.8645,-25.6322"/>
<polygon fill="midnightblue" stroke="midnightblue" points="51.5376,-22.5307 41.3407,-19.6545 47.5184,-28.2619 51.5376,-22.5307"/>
</g>
<!-- Node3 -->
<g id="node5" class="node"><title>Node3</title>
<polygon fill="none" stroke="#bfbfbf" points="76.5,-0.5 76.5,-19.5 135.5,-19.5 135.5,-0.5 76.5,-0.5"/>
<text text-anchor="middle" x="106" y="-7.5" font-family="DejaVuSansMono" font-size="10.00">errno.h</text>
</g>
<!-- Node1&#45;&gt;Node3 -->
<g id="edge4" class="edge"><title>Node1&#45;&gt;Node3</title>
<path fill="none" stroke="midnightblue" d="M106,-56.083C106,-49.0059 106,-38.8611 106,-29.9865"/>
<polygon fill="midnightblue" stroke="midnightblue" points="109.5,-29.751 106,-19.7511 102.5,-29.7511 109.5,-29.751"/>
</g>
<!-- Node4 -->
<g id="node7" class="node"><title>Node4</title>
<polygon fill="none" stroke="#bfbfbf" points="153.5,-0.5 153.5,-19.5 218.5,-19.5 218.5,-0.5 153.5,-0.5"/>
<text text-anchor="middle" x="186" y="-7.5" font-family="DejaVuSansMono" font-size="10.00">string.h</text>
</g>
<!-- Node1&#45;&gt;Node4 -->
<g id="edge6" class="edge"><title>Node1&#45;&gt;Node4</title>
<path fill="none" stroke="midnightblue" d="M118.853,-56.324C131.216,-47.979 150.13,-35.2122 164.737,-25.3524"/>
<polygon fill="midnightblue" stroke="midnightblue" points="166.848,-28.1503 173.179,-19.6545 162.932,-22.3483 166.848,-28.1503"/>
</g>
</g>
</svg>
