<?xml version="1.0" encoding="UTF-8" standalone="no"?>
<!DOCTYPE svg PUBLIC "-//W3C//DTD SVG 1.1//EN"
 "http://www.w3.org/Graphics/SVG/1.1/DTD/svg11.dtd">
<!-- Generated by graphviz version 2.28.0 (20120217.0315)
 -->
<!-- Title: G Pages: 1 -->
<!--zoomable 140 -->
<svg id="main" version="1.1" xmlns="http://www.w3.org/2000/svg" xmlns:xlink="http://www.w3.org/1999/xlink" xml:space="preserve" onload="init(evt)">
        <defs>
                <circle id="rim" cx="0" cy="0" r="7"/>
                <circle id="rim2" cx="0" cy="0" r="3.5"/>
                <g id="zoomPlus">
                        <use xlink:href="#rim" fill="#404040">
                                <set attributeName="fill" to="#808080" begin="zoomplus.mouseover" end="zoomplus.mouseout"/>
                        </use>
                        <path d="M-4,0h8M0,-4v8" fill="none" stroke="white" stroke-width="1.5" pointer-events="none"/>
                </g>
                <g id="zoomMin">
                        <use xlink:href="#rim" fill="#404040">
                                <set attributeName="fill" to="#808080" begin="zoomminus.mouseover" end="zoomminus.mouseout"/>
                        </use>
                        <path d="M-4,0h8" fill="none" stroke="white" stroke-width="1.5" pointer-events="none"/>
                </g>
                <g id="dirArrow">
                        <path fill="none" stroke="white" stroke-width="1.5" d="M0,-3.0v7 M-2.5,-0.5L0,-3.0L2.5,-0.5"/>
                </g>
               <g id="resetDef">
                       <use xlink:href="#rim2" fill="#404040">
                               <set attributeName="fill" to="#808080" begin="reset.mouseover" end="reset.mouseout"/>
                       </use>
               </g>
        </defs>

<script type="text/javascript">
var viewWidth = 975;
var viewHeight = 140;
var sectionId = 'dynsection-0';
</script>
<script xlink:href="../../svgpan.js"/>
<svg id="graph" class="graph">
<g id="viewport">
<title>G</title>
<!-- Node1 -->
<g id="node1" class="node"><title>Node1</title>
<polygon fill="#bfbfbf" stroke="black" points="444.5,-112.5 444.5,-131.5 551.5,-131.5 551.5,-112.5 444.5,-112.5"/>
<text text-anchor="middle" x="498" y="-119.5" font-family="DejaVuSansMono" font-size="10.00">src/xmpp_core.c</text>
</g>
<!-- Node2 -->
<g id="node3" class="node"><title>Node2</title>
<polygon fill="none" stroke="#bfbfbf" points="-0.5,-56.5 -0.5,-75.5 64.5,-75.5 64.5,-56.5 -0.5,-56.5"/>
<text text-anchor="middle" x="32" y="-63.5" font-family="DejaVuSansMono" font-size="10.00">stdlib.h</text>
</g>
<!-- Node1&#45;&gt;Node2 -->
<g id="edge2" class="edge"><title>Node1&#45;&gt;Node2</title>
<path fill="none" stroke="midnightblue" d="M444.409,-117.237C365.459,-111.274 213.103,-98.1634 74.5612,-76.1033"/>
<polygon fill="midnightblue" stroke="midnightblue" points="75.0409,-72.6355 64.6113,-74.4995 73.9269,-79.5463 75.0409,-72.6355"/>
</g>
<!-- Node3 -->
<g id="node5" class="node"><title>Node3</title>
<polygon fill="none" stroke="#bfbfbf" points="82.5,-56.5 82.5,-75.5 159.5,-75.5 159.5,-56.5 82.5,-56.5"/>
<text text-anchor="middle" x="121" y="-63.5" font-family="DejaVuSansMono" font-size="10.00">utstring.h</text>
</g>
<!-- Node1&#45;&gt;Node3 -->
<g id="edge4" class="edge"><title>Node1&#45;&gt;Node3</title>
<path fill="none" stroke="midnightblue" d="M444.427,-114.592C381.076,-106.814 272.218,-92.8224 169.608,-76.1979"/>
<polygon fill="midnightblue" stroke="midnightblue" points="170.133,-72.7373 159.699,-74.581 169.005,-79.6459 170.133,-72.7373"/>
</g>
<!-- Node4 -->
<g id="node7" class="node"><title>Node4</title>
<a xlink:href="../../d9/d71/client__socket_8h.html" target="_top" xlink:title="Abstracts basic socket interactions.">
<polygon fill="none" stroke="black" points="617.5,-56.5 617.5,-75.5 724.5,-75.5 724.5,-56.5 617.5,-56.5"/>
<text text-anchor="middle" x="671" y="-63.5" font-family="DejaVuSansMono" font-size="10.00">client_socket.h</text>
</a>
</g>
<!-- Node1&#45;&gt;Node4 -->
<g id="edge6" class="edge"><title>Node1&#45;&gt;Node4</title>
<path fill="none" stroke="midnightblue" d="M525.412,-112.444C554.769,-103.28 601.519,-88.6876 634.096,-78.5192"/>
<polygon fill="midnightblue" stroke="midnightblue" points="635.213,-81.8371 643.716,-75.5164 633.127,-75.1551 635.213,-81.8371"/>
</g>
<!-- Node8 -->
<g id="node15" class="node"><title>Node8</title>
<a xlink:href="../../d6/d24/jid_8h.html" target="_top" xlink:title="Functions and data structure to manipulate a JID.">
<polygon fill="none" stroke="black" points="742.5,-56.5 742.5,-75.5 789.5,-75.5 789.5,-56.5 742.5,-56.5"/>
<text text-anchor="middle" x="766" y="-63.5" font-family="DejaVuSansMono" font-size="10.00">jid.h</text>
</a>
</g>
<!-- Node1&#45;&gt;Node8 -->
<g id="edge14" class="edge"><title>Node1&#45;&gt;Node8</title>
<path fill="none" stroke="midnightblue" d="M548.662,-112.462C594.271,-104.514 663.323,-91.8332 732.502,-75.9683"/>
<polygon fill="midnightblue" stroke="midnightblue" points="733.31,-79.3741 742.262,-73.7088 731.731,-72.5545 733.31,-79.3741"/>
</g>
<!-- Node9 -->
<g id="node17" class="node"><title>Node9</title>
<a xlink:href="../../d7/d7f/log_8h.html" target="_top" xlink:title="Debugging and logging functions/macros.">
<polygon fill="none" stroke="black" points="807.5,-56.5 807.5,-75.5 854.5,-75.5 854.5,-56.5 807.5,-56.5"/>
<text text-anchor="middle" x="831" y="-63.5" font-family="DejaVuSansMono" font-size="10.00">log.h</text>
</a>
</g>
<!-- Node1&#45;&gt;Node9 -->
<g id="edge16" class="edge"><title>Node1&#45;&gt;Node9</title>
<path fill="none" stroke="midnightblue" d="M551.717,-114.873C609.891,-107.806 705.558,-94.9355 797.28,-75.9268"/>
<polygon fill="midnightblue" stroke="midnightblue" points="798.221,-79.3055 807.288,-73.8245 796.782,-72.455 798.221,-79.3055"/>
</g>
<!-- Node13 -->
<g id="node25" class="node"><title>Node13</title>
<a xlink:href="../../d4/d2f/xmpp__client_8h.html" target="_top" xlink:title="A connected XMPP server client.">
<polygon fill="none" stroke="black" points="872.5,-56.5 872.5,-75.5 967.5,-75.5 967.5,-56.5 872.5,-56.5"/>
<text text-anchor="middle" x="920" y="-63.5" font-family="DejaVuSansMono" font-size="10.00">xmpp_client.h</text>
</a>
</g>
<!-- Node1&#45;&gt;Node13 -->
<g id="edge24" class="edge"><title>Node1&#45;&gt;Node13</title>
<path fill="none" stroke="midnightblue" d="M551.574,-114.971C620.771,-107.057 745.211,-92.3898 862.222,-76.0657"/>
<polygon fill="midnightblue" stroke="midnightblue" points="863.015,-79.4888 872.432,-74.6343 862.043,-72.5566 863.015,-79.4888"/>
</g>
<!-- Node14 -->
<g id="node27" class="node"><title>Node14</title>
<a xlink:href="../../d8/d55/xmpp__parser_8h.html" target="_top" xlink:title="DOM&#45;style XML parser for XMPP stanzas.">
<polygon fill="none" stroke="black" points="177.5,-56.5 177.5,-75.5 272.5,-75.5 272.5,-56.5 177.5,-56.5"/>
<text text-anchor="middle" x="225" y="-63.5" font-family="DejaVuSansMono" font-size="10.00">xmpp_parser.h</text>
</a>
</g>
<!-- Node1&#45;&gt;Node14 -->
<g id="edge26" class="edge"><title>Node1&#45;&gt;Node14</title>
<path fill="none" stroke="midnightblue" d="M454.742,-112.444C406.819,-102.964 329.522,-87.6747 278,-77.4835"/>
<polygon fill="midnightblue" stroke="midnightblue" points="278.544,-74.0235 268.055,-75.5164 277.186,-80.8904 278.544,-74.0235"/>
</g>
<!-- Node15 -->
<g id="node30" class="node"><title>Node15</title>
<a xlink:href="../../d1/d2e/xmpp__server_8h.html" target="_top" xlink:title="Main XMPP server data/functions.">
<polygon fill="none" stroke="black" points="504.5,-56.5 504.5,-75.5 599.5,-75.5 599.5,-56.5 504.5,-56.5"/>
<text text-anchor="middle" x="552" y="-63.5" font-family="DejaVuSansMono" font-size="10.00">xmpp_server.h</text>
</a>
</g>
<!-- Node1&#45;&gt;Node15 -->
<g id="edge30" class="edge"><title>Node1&#45;&gt;Node15</title>
<path fill="none" stroke="midnightblue" d="M506.917,-112.083C514.78,-104.22 526.431,-92.5688 535.919,-83.0813"/>
<polygon fill="midnightblue" stroke="midnightblue" points="538.653,-85.2971 543.249,-75.7511 533.703,-80.3473 538.653,-85.2971"/>
</g>
<!-- Node16 -->
<g id="node34" class="node"><title>Node16</title>
<a xlink:href="../../dd/d21/xmpp__stanza_8h.html" target="_top" xlink:title="Represents top&#45;level XMPP stanzas received from clients.">
<polygon fill="none" stroke="black" points="290.5,-56.5 290.5,-75.5 385.5,-75.5 385.5,-56.5 290.5,-56.5"/>
<text text-anchor="middle" x="338" y="-63.5" font-family="DejaVuSansMono" font-size="10.00">xmpp_stanza.h</text>
</a>
</g>
<!-- Node1&#45;&gt;Node16 -->
<g id="edge36" class="edge"><title>Node1&#45;&gt;Node16</title>
<path fill="none" stroke="midnightblue" d="M472.648,-112.444C445.731,-103.359 403.004,-88.9388 372.913,-78.7831"/>
<polygon fill="midnightblue" stroke="midnightblue" points="373.828,-75.3981 363.234,-75.5164 371.59,-82.0305 373.828,-75.3981"/>
</g>
<!-- Node17 -->
<g id="node37" class="node"><title>Node17</title>
<a xlink:href="../../d8/d28/xmpp__core_8h.html" target="_top" xlink:title="Handles base stanza routing.">
<polygon fill="none" stroke="black" points="403.5,-56.5 403.5,-75.5 486.5,-75.5 486.5,-56.5 403.5,-56.5"/>
<text text-anchor="middle" x="445" y="-63.5" font-family="DejaVuSansMono" font-size="10.00">xmpp_core.h</text>
</a>
</g>
<!-- Node1&#45;&gt;Node17 -->
<g id="edge40" class="edge"><title>Node1&#45;&gt;Node17</title>
<path fill="none" stroke="midnightblue" d="M489.248,-112.083C481.53,-104.22 470.095,-92.5688 460.783,-83.0813"/>
<polygon fill="midnightblue" stroke="midnightblue" points="463.092,-80.4363 453.589,-75.7511 458.096,-85.3396 463.092,-80.4363"/>
</g>
<!-- Node5 -->
<g id="node9" class="node"><title>Node5</title>
<polygon fill="none" stroke="#bfbfbf" points="409.5,-0.5 409.5,-19.5 480.5,-19.5 480.5,-0.5 409.5,-0.5"/>
<text text-anchor="middle" x="445" y="-7.5" font-family="DejaVuSansMono" font-size="10.00">stdbool.h</text>
</g>
<!-- Node4&#45;&gt;Node5 -->
<g id="edge8" class="edge"><title>Node4&#45;&gt;Node5</title>
<path fill="none" stroke="midnightblue" d="M635.19,-56.4435C596.012,-47.0826 533.123,-32.0561 490.485,-21.868"/>
<polygon fill="midnightblue" stroke="midnightblue" points="491.182,-18.4363 480.643,-19.5164 489.556,-25.2446 491.182,-18.4363"/>
</g>
<!-- Node6 -->
<g id="node11" class="node"><title>Node6</title>
<polygon fill="none" stroke="#bfbfbf" points="623.5,-0.5 623.5,-19.5 712.5,-19.5 712.5,-0.5 623.5,-0.5"/>
<text text-anchor="middle" x="668" y="-7.5" font-family="DejaVuSansMono" font-size="10.00">netinet/in.h</text>
</g>
<!-- Node4&#45;&gt;Node6 -->
<g id="edge10" class="edge"><title>Node4&#45;&gt;Node6</title>
<path fill="none" stroke="midnightblue" d="M670.505,-56.083C670.111,-49.0059 669.548,-38.8611 669.055,-29.9865"/>
<polygon fill="midnightblue" stroke="midnightblue" points="672.536,-29.5415 668.486,-19.7511 665.546,-29.9299 672.536,-29.5415"/>
</g>
<!-- Node7 -->
<g id="node13" class="node"><title>Node7</title>
<polygon fill="none" stroke="#bfbfbf" points="506.5,-0.5 506.5,-19.5 601.5,-19.5 601.5,-0.5 506.5,-0.5"/>
<text text-anchor="middle" x="554" y="-7.5" font-family="DejaVuSansMono" font-size="10.00">openssl/ssl.h</text>
</g>
<!-- Node4&#45;&gt;Node7 -->
<g id="edge12" class="edge"><title>Node4&#45;&gt;Node7</title>
<path fill="none" stroke="midnightblue" d="M652.461,-56.4435C633.377,-47.6356 603.425,-33.8116 581.564,-23.722"/>
<polygon fill="midnightblue" stroke="midnightblue" points="582.999,-20.5292 572.452,-19.5164 580.065,-26.8849 582.999,-20.5292"/>
</g>
<!-- Node10 -->
<g id="node19" class="node"><title>Node10</title>
<polygon fill="none" stroke="#bfbfbf" points="730.5,-0.5 730.5,-19.5 789.5,-19.5 789.5,-0.5 730.5,-0.5"/>
<text text-anchor="middle" x="760" y="-7.5" font-family="DejaVuSansMono" font-size="10.00">stdio.h</text>
</g>
<!-- Node9&#45;&gt;Node10 -->
<g id="edge18" class="edge"><title>Node9&#45;&gt;Node10</title>
<path fill="none" stroke="midnightblue" d="M819.593,-56.324C808.891,-48.1849 792.659,-35.8395 779.837,-26.0874"/>
<polygon fill="midnightblue" stroke="midnightblue" points="781.693,-23.1018 771.615,-19.8339 777.456,-28.6734 781.693,-23.1018"/>
</g>
<!-- Node11 -->
<g id="node21" class="node"><title>Node11</title>
<polygon fill="none" stroke="#bfbfbf" points="807.5,-0.5 807.5,-19.5 866.5,-19.5 866.5,-0.5 807.5,-0.5"/>
<text text-anchor="middle" x="837" y="-7.5" font-family="DejaVuSansMono" font-size="10.00">errno.h</text>
</g>
<!-- Node9&#45;&gt;Node11 -->
<g id="edge20" class="edge"><title>Node9&#45;&gt;Node11</title>
<path fill="none" stroke="midnightblue" d="M831.991,-56.083C832.786,-48.9272 833.929,-38.6353 834.923,-29.6911"/>
<polygon fill="midnightblue" stroke="midnightblue" points="838.402,-30.0765 836.028,-19.7511 831.445,-29.3034 838.402,-30.0765"/>
</g>
<!-- Node12 -->
<g id="node23" class="node"><title>Node12</title>
<polygon fill="none" stroke="#bfbfbf" points="884.5,-0.5 884.5,-19.5 949.5,-19.5 949.5,-0.5 884.5,-0.5"/>
<text text-anchor="middle" x="917" y="-7.5" font-family="DejaVuSansMono" font-size="10.00">string.h</text>
</g>
<!-- Node9&#45;&gt;Node12 -->
<g id="edge22" class="edge"><title>Node9&#45;&gt;Node12</title>
<path fill="none" stroke="midnightblue" d="M844.817,-56.324C858.233,-47.9002 878.824,-34.9709 894.586,-25.0741"/>
<polygon fill="midnightblue" stroke="midnightblue" points="896.609,-27.9364 903.217,-19.6545 892.887,-22.0081 896.609,-27.9364"/>
</g>
<!-- Node14&#45;&gt;Node5 -->
<g id="edge28" class="edge"><title>Node14&#45;&gt;Node5</title>
<path fill="none" stroke="midnightblue" d="M259.86,-56.4435C297.916,-47.1024 358.958,-32.1194 400.46,-21.9326"/>
<polygon fill="midnightblue" stroke="midnightblue" points="401.426,-25.2994 410.303,-19.5164 399.757,-18.5012 401.426,-25.2994"/>
</g>
<!-- Node15&#45;&gt;Node5 -->
<g id="edge32" class="edge"><title>Node15&#45;&gt;Node5</title>
<path fill="none" stroke="midnightblue" d="M534.809,-56.324C517.649,-47.6641 491.054,-34.2424 471.253,-24.249"/>
<polygon fill="midnightblue" stroke="midnightblue" points="472.653,-21.0354 462.149,-19.6545 469.499,-27.2847 472.653,-21.0354"/>
</g>
<!-- Node15&#45;&gt;Node7 -->
<g id="edge34" class="edge"><title>Node15&#45;&gt;Node7</title>
<path fill="none" stroke="midnightblue" d="M552.33,-56.083C552.592,-49.0059 552.968,-38.8611 553.297,-29.9865"/>
<polygon fill="midnightblue" stroke="midnightblue" points="556.803,-29.8738 553.676,-19.7511 549.808,-29.6147 556.803,-29.8738"/>
</g>
<!-- Node16&#45;&gt;Node5 -->
<g id="edge38" class="edge"><title>Node16&#45;&gt;Node5</title>
<path fill="none" stroke="midnightblue" d="M355.191,-56.324C372.351,-47.6641 398.946,-34.2424 418.747,-24.249"/>
<polygon fill="midnightblue" stroke="midnightblue" points="420.501,-27.2847 427.851,-19.6545 417.347,-21.0354 420.501,-27.2847"/>
</g>
<!-- Node17&#45;&gt;Node5 -->
<g id="edge42" class="edge"><title>Node17&#45;&gt;Node5</title>
<path fill="none" stroke="midnightblue" d="M445,-56.083C445,-49.0059 445,-38.8611 445,-29.9865"/>
<polygon fill="midnightblue" stroke="midnightblue" points="448.5,-29.751 445,-19.7511 441.5,-29.7511 448.5,-29.751"/>
</g>
</g>
</svg>
        <g id="navigator" transform="translate(0 0)" fill="#404254">
                <rect fill="#f2f5e9" fill-opacity="0.5" stroke="#606060" stroke-width=".5" x="0" y="0" width="60" height="60"/>
                <use id="zoomplus" xlink:href="#zoomPlus" x="17" y="9" onmousedown="handleZoom(evt,'in')"/>
                <use id="zoomminus" xlink:href="#zoomMin" x="42" y="9" onmousedown="handleZoom(evt,'out')"/>
                <use id="reset" xlink:href="#resetDef" x="30" y="36" onmousedown="handleReset()"/>
                <g id="arrowUp" xlink:href="#dirArrow" transform="translate(30 24)" onmousedown="handlePan(0,-1)">
                  <use xlink:href="#rim" fill="#404040">
                        <set attributeName="fill" to="#808080" begin="arrowUp.mouseover" end="arrowUp.mouseout"/>
                  </use>
                  <path fill="none" stroke="white" stroke-width="1.5" d="M0,-3.0v7 M-2.5,-0.5L0,-3.0L2.5,-0.5"/>
                </g>
                <g id="arrowRight" xlink:href="#dirArrow" transform="rotate(90) translate(36 -43)" onmousedown="handlePan(1,0)">
                  <use xlink:href="#rim" fill="#404040">
                        <set attributeName="fill" to="#808080" begin="arrowRight.mouseover" end="arrowRight.mouseout"/>
                  </use>
                  <path fill="none" stroke="white" stroke-width="1.5" d="M0,-3.0v7 M-2.5,-0.5L0,-3.0L2.5,-0.5"/>
                </g>
                <g id="arrowDown" xlink:href="#dirArrow" transform="rotate(180) translate(-30 -48)" onmousedown="handlePan(0,1)">
                  <use xlink:href="#rim" fill="#404040">
                        <set attributeName="fill" to="#808080" begin="arrowDown.mouseover" end="arrowDown.mouseout"/>
                  </use>
                  <path fill="none" stroke="white" stroke-width="1.5" d="M0,-3.0v7 M-2.5,-0.5L0,-3.0L2.5,-0.5"/>
                </g>
                <g id="arrowLeft" xlink:href="#dirArrow" transform="rotate(270) translate(-36 17)" onmousedown="handlePan(-1,0)">
                  <use xlink:href="#rim" fill="#404040">
                        <set attributeName="fill" to="#808080" begin="arrowLeft.mouseover" end="arrowLeft.mouseout"/>
                  </use>
                  <path fill="none" stroke="white" stroke-width="1.5" d="M0,-3.0v7 M-2.5,-0.5L0,-3.0L2.5,-0.5"/>
                </g>
        </g>
        <svg viewBox="0 0 25 25" width="100%" height="30px" preserveAspectRatio="xMaxYMin meet"> 
          <g id="printButton" transform="scale(0.4 0.4)" onmousedown="handlePrint(evt)">
            <rect height="23.33753581" id="paper" rx="2" style="fill:#f2f5e9;fill-rule:evenodd;stroke:#111111;stroke-width:3.224;stroke-linejoin:round;" transform="matrix(1.000000,0.000000,-0.339266,0.940691,0.000000,0.000000)" width="25.55231285" x="26.69387353" y="7.36162977"/>
            <rect height="26.272097" id="body" rx="2" style="fill:#404040;fill-rule:evenodd;stroke:#111111;stroke-width:3.125;stroke-linejoin:round;" width="50" x="4.5295201" y="27.078951"/>
            <rect height="8.27750969" id="tray" style="fill:#d2d5c9;fill-rule:evenodd;stroke:#111111;stroke-width:3.125;stroke-linecap:round;stroke-linejoin:round;" width="40" x="10.28778839" y="44.96812282"/>
          </g>
        </svg>
</svg>
