<?xml version="1.0" encoding="UTF-8" standalone="no"?>
<!DOCTYPE svg PUBLIC "-//W3C//DTD SVG 1.1//EN"
 "http://www.w3.org/Graphics/SVG/1.1/DTD/svg11.dtd">
<!-- Generated by graphviz version 2.28.0 (20120217.0315)
 -->
<!-- Title: G Pages: 1 -->
<svg width="251pt" height="84pt"
 viewBox="0.00 0.00 251.00 84.00" xmlns="http://www.w3.org/2000/svg" xmlns:xlink="http://www.w3.org/1999/xlink">
<g id="graph1" class="graph" transform="scale(1 1) rotate(0) translate(4 80)">
<title>G</title>
<!-- Node1 -->
<g id="node1" class="node"><title>Node1</title>
<polygon fill="#bfbfbf" stroke="black" points="64.5,-56.5 64.5,-75.5 171.5,-75.5 171.5,-56.5 64.5,-56.5"/>
<text text-anchor="middle" x="118" y="-63.5" font-family="DejaVuSansMono" font-size="10.00">src/xmpp_auth.h</text>
</g>
<!-- Node2 -->
<g id="node3" class="node"><title>Node2</title>
<a xlink:href="../../df/da9/xmpp__auth_8c.html" target="_top" xlink:title="Implement initial XMPP authendication.">
<polygon fill="none" stroke="black" points="-0.5,-0.5 -0.5,-19.5 106.5,-19.5 106.5,-0.5 -0.5,-0.5"/>
<text text-anchor="middle" x="53" y="-7.5" font-family="DejaVuSansMono" font-size="10.00">src/xmpp_auth.c</text>
</a>
</g>
<!-- Node1&#45;&gt;Node2 -->
<g id="edge2" class="edge"><title>Node1&#45;&gt;Node2</title>
<path fill="none" stroke="midnightblue" d="M99.7274,-49.8197C88.0822,-40.1452 73.4005,-27.9481 63.6334,-19.8339"/>
<polygon fill="midnightblue" stroke="midnightblue" points="97.6281,-52.6259 107.557,-56.324 102.101,-47.2416 97.6281,-52.6259"/>
</g>
<!-- Node3 -->
<g id="node5" class="node"><title>Node3</title>
<a xlink:href="../../dd/d4d/xmpp__client_8c.html" target="_top" xlink:title="A connected XMPP server client.">
<polygon fill="none" stroke="black" points="124.5,-0.5 124.5,-19.5 243.5,-19.5 243.5,-0.5 124.5,-0.5"/>
<text text-anchor="middle" x="184" y="-7.5" font-family="DejaVuSansMono" font-size="10.00">src/xmpp_client.c</text>
</a>
</g>
<!-- Node1&#45;&gt;Node3 -->
<g id="edge4" class="edge"><title>Node1&#45;&gt;Node3</title>
<path fill="none" stroke="midnightblue" d="M136.554,-49.8197C148.378,-40.1452 163.286,-27.9481 173.203,-19.8339"/>
<polygon fill="midnightblue" stroke="midnightblue" points="134.127,-47.2827 128.604,-56.324 138.56,-52.7004 134.127,-47.2827"/>
</g>
</g>
</svg>
