<?xml version="1.0" encoding="UTF-8" standalone="no"?>
<!DOCTYPE svg PUBLIC "-//W3C//DTD SVG 1.1//EN"
 "http://www.w3.org/Graphics/SVG/1.1/DTD/svg11.dtd">
<!-- Generated by graphviz version 2.28.0 (20120217.0315)
 -->
<!-- Title: G Pages: 1 -->
<svg width="161pt" height="84pt"
 viewBox="0.00 0.00 161.00 84.00" xmlns="http://www.w3.org/2000/svg" xmlns:xlink="http://www.w3.org/1999/xlink">
<g id="graph1" class="graph" transform="scale(1 1) rotate(0) translate(4 80)">
<title>G</title>
<!-- Node1 -->
<g id="node1" class="node"><title>Node1</title>
<polygon fill="#bfbfbf" stroke="black" points="36.5,-56.5 36.5,-75.5 119.5,-75.5 119.5,-56.5 36.5,-56.5"/>
<text text-anchor="middle" x="78" y="-63.5" font-family="DejaVuSansMono" font-size="10.00">src/utils.h</text>
</g>
<!-- Node2 -->
<g id="node3" class="node"><title>Node2</title>
<polygon fill="none" stroke="#bfbfbf" points="-0.5,-0.5 -0.5,-19.5 70.5,-19.5 70.5,-0.5 -0.5,-0.5"/>
<text text-anchor="middle" x="35" y="-7.5" font-family="DejaVuSansMono" font-size="10.00">stdbool.h</text>
</g>
<!-- Node1&#45;&gt;Node2 -->
<g id="edge2" class="edge"><title>Node1&#45;&gt;Node2</title>
<path fill="none" stroke="midnightblue" d="M70.8994,-56.083C64.763,-48.3768 55.7303,-37.0333 48.2608,-27.6531"/>
<polygon fill="midnightblue" stroke="midnightblue" points="50.9357,-25.3936 41.9685,-19.7511 45.4598,-29.7542 50.9357,-25.3936"/>
</g>
<!-- Node3 -->
<g id="node5" class="node"><title>Node3</title>
<polygon fill="none" stroke="#bfbfbf" points="88.5,-0.5 88.5,-19.5 153.5,-19.5 153.5,-0.5 88.5,-0.5"/>
<text text-anchor="middle" x="121" y="-7.5" font-family="DejaVuSansMono" font-size="10.00">string.h</text>
</g>
<!-- Node1&#45;&gt;Node3 -->
<g id="edge4" class="edge"><title>Node1&#45;&gt;Node3</title>
<path fill="none" stroke="midnightblue" d="M85.1006,-56.083C91.237,-48.3768 100.27,-37.0333 107.739,-27.6531"/>
<polygon fill="midnightblue" stroke="midnightblue" points="110.54,-29.7542 114.032,-19.7511 105.064,-25.3936 110.54,-29.7542"/>
</g>
</g>
</svg>
