<?xml version="1.0" encoding="UTF-8" standalone="no"?>
<!DOCTYPE svg PUBLIC "-//W3C//DTD SVG 1.1//EN"
 "http://www.w3.org/Graphics/SVG/1.1/DTD/svg11.dtd">
<!-- Generated by graphviz version 2.28.0 (20120217.0315)
 -->
<!-- Title: G Pages: 1 -->
<!--zoomable 332 -->
<svg id="main" version="1.1" xmlns="http://www.w3.org/2000/svg" xmlns:xlink="http://www.w3.org/1999/xlink" xml:space="preserve" onload="init(evt)">
        <defs>
                <circle id="rim" cx="0" cy="0" r="7"/>
                <circle id="rim2" cx="0" cy="0" r="3.5"/>
                <g id="zoomPlus">
                        <use xlink:href="#rim" fill="#404040">
                                <set attributeName="fill" to="#808080" begin="zoomplus.mouseover" end="zoomplus.mouseout"/>
                        </use>
                        <path d="M-4,0h8M0,-4v8" fill="none" stroke="white" stroke-width="1.5" pointer-events="none"/>
                </g>
                <g id="zoomMin">
                        <use xlink:href="#rim" fill="#404040">
                                <set attributeName="fill" to="#808080" begin="zoomminus.mouseover" end="zoomminus.mouseout"/>
                        </use>
                        <path d="M-4,0h8" fill="none" stroke="white" stroke-width="1.5" pointer-events="none"/>
                </g>
                <g id="dirArrow">
                        <path fill="none" stroke="white" stroke-width="1.5" d="M0,-3.0v7 M-2.5,-0.5L0,-3.0L2.5,-0.5"/>
                </g>
               <g id="resetDef">
                       <use xlink:href="#rim2" fill="#404040">
                               <set attributeName="fill" to="#808080" begin="reset.mouseover" end="reset.mouseout"/>
                       </use>
               </g>
        </defs>

<script type="text/javascript">
var viewWidth = 632;
var viewHeight = 332;
var sectionId = 'dynsection-9';
</script>
<script xlink:href="../../svgpan.js"/>
<svg id="graph" class="graph">
<g id="viewport">
<title>G</title>
<!-- Node1 -->
<g id="node1" class="node"><title>Node1</title>
<polygon fill="#bfbfbf" stroke="black" points="0.5,-171.5 0.5,-190.5 125.5,-190.5 125.5,-171.5 0.5,-171.5"/>
<text text-anchor="middle" x="63" y="-178.5" font-family="DejaVuSansMono" font-size="10.00">xmpp_im_iq_session</text>
</g>
<!-- Node2 -->
<g id="node3" class="node"><title>Node2</title>
<a xlink:href="../../d1/d59/xmpp__stanza_8c.html#a20c90c791fa856784f2d43c9f44f1d3c" target="_top" xlink:title="Returns the value of an attribute of this stanza.">
<polygon fill="none" stroke="black" points="387.5,-304.5 387.5,-323.5 500.5,-323.5 500.5,-304.5 387.5,-304.5"/>
<text text-anchor="middle" x="444" y="-311.5" font-family="DejaVuSansMono" font-size="10.00">xmpp_stanza_attr</text>
</a>
</g>
<!-- Node1&#45;&gt;Node2 -->
<g id="edge2" class="edge"><title>Node1&#45;&gt;Node2</title>
<path fill="none" stroke="midnightblue" d="M73.282,-190.667C89.6008,-207.051 125.205,-240.131 162,-257 231.365,-288.802 318.417,-302.956 377.1,-309.194"/>
<polygon fill="midnightblue" stroke="midnightblue" points="377.052,-312.707 387.354,-310.234 377.758,-305.743 377.052,-312.707"/>
</g>
<!-- Node3 -->
<g id="node5" class="node"><title>Node3</title>
<a xlink:href="../../d1/d59/xmpp__stanza_8c.html#af1ad00a6a75789396a933dfc0ed9c1f5" target="_top" xlink:title="Returns a pointer to the first child stanza.">
<polygon fill="none" stroke="black" points="174.5,-190.5 174.5,-209.5 311.5,-209.5 311.5,-190.5 174.5,-190.5"/>
<text text-anchor="middle" x="243" y="-197.5" font-family="DejaVuSansMono" font-size="10.00">xmpp_stanza_children</text>
</a>
</g>
<!-- Node1&#45;&gt;Node3 -->
<g id="edge4" class="edge"><title>Node1&#45;&gt;Node3</title>
<path fill="none" stroke="midnightblue" d="M125.756,-187.592C138.116,-188.911 151.252,-190.313 164.076,-191.682"/>
<polygon fill="midnightblue" stroke="midnightblue" points="163.958,-195.19 174.273,-192.771 164.701,-188.229 163.958,-195.19"/>
</g>
<!-- Node4 -->
<g id="node7" class="node"><title>Node4</title>
<a xlink:href="../../d1/d59/xmpp__stanza_8c.html#a10c606a11c37c01bf59881827dc2229a" target="_top" xlink:title="Returns the name of the tag of this stanza (message/presence/IQ)">
<polygon fill="none" stroke="black" points="186.5,-152.5 186.5,-171.5 299.5,-171.5 299.5,-152.5 186.5,-152.5"/>
<text text-anchor="middle" x="243" y="-159.5" font-family="DejaVuSansMono" font-size="10.00">xmpp_stanza_name</text>
</a>
</g>
<!-- Node1&#45;&gt;Node4 -->
<g id="edge6" class="edge"><title>Node1&#45;&gt;Node4</title>
<path fill="none" stroke="midnightblue" d="M125.756,-174.408C142.054,-172.668 159.701,-170.785 176.204,-169.023"/>
<polygon fill="midnightblue" stroke="midnightblue" points="176.737,-172.486 186.309,-167.945 175.994,-165.526 176.737,-172.486"/>
</g>
<!-- Node5 -->
<g id="node9" class="node"><title>Node5</title>
<a xlink:href="../../d1/d59/xmpp__stanza_8c.html#aa80dd21d794b5c63fcb13c49745cc373" target="_top" xlink:title="Allocate and initialize a new XMPP stanza structure.">
<polygon fill="none" stroke="black" points="189.5,-114.5 189.5,-133.5 296.5,-133.5 296.5,-114.5 189.5,-114.5"/>
<text text-anchor="middle" x="243" y="-121.5" font-family="DejaVuSansMono" font-size="10.00">xmpp_stanza_new</text>
</a>
</g>
<!-- Node1&#45;&gt;Node5 -->
<g id="edge8" class="edge"><title>Node1&#45;&gt;Node5</title>
<path fill="none" stroke="midnightblue" d="M86.2667,-171.36C105.932,-163.09 135.514,-151.238 162,-143 170.034,-140.501 178.609,-138.146 187.05,-136.001"/>
<polygon fill="midnightblue" stroke="midnightblue" points="187.986,-139.375 196.857,-133.582 186.31,-132.578 187.986,-139.375"/>
</g>
<!-- Node8 -->
<g id="node15" class="node"><title>Node8</title>
<a xlink:href="../../d0/df0/xmpp__server_8c.html#a6d3f7e5e289f785b1c8c52f95068c627" target="_top" xlink:title="Deliver a stanza to a registered callback function.">
<polygon fill="none" stroke="black" points="162.5,-228.5 162.5,-247.5 323.5,-247.5 323.5,-228.5 162.5,-228.5"/>
<text text-anchor="middle" x="243" y="-235.5" font-family="DejaVuSansMono" font-size="10.00">xmpp_server_route_stanza</text>
</a>
</g>
<!-- Node1&#45;&gt;Node8 -->
<g id="edge14" class="edge"><title>Node1&#45;&gt;Node8</title>
<path fill="none" stroke="midnightblue" d="M86.2667,-190.64C105.932,-198.91 135.514,-210.762 162,-219 170.034,-221.499 178.609,-223.854 187.05,-225.999"/>
<polygon fill="midnightblue" stroke="midnightblue" points="186.31,-229.422 196.857,-228.418 187.986,-222.625 186.31,-229.422"/>
</g>
<!-- Node14 -->
<g id="node29" class="node"><title>Node14</title>
<a xlink:href="../../d1/d59/xmpp__stanza_8c.html#af40757ae1d137034570b1bb33303d024" target="_top" xlink:title="Cleans up and frees an XMPP stanza.">
<polygon fill="none" stroke="black" points="189.5,-38.5 189.5,-57.5 296.5,-57.5 296.5,-38.5 189.5,-38.5"/>
<text text-anchor="middle" x="243" y="-45.5" font-family="DejaVuSansMono" font-size="10.00">xmpp_stanza_del</text>
</a>
</g>
<!-- Node1&#45;&gt;Node14 -->
<g id="edge30" class="edge"><title>Node1&#45;&gt;Node14</title>
<path fill="none" stroke="midnightblue" d="M75.9492,-171.481C94.288,-156.93 130.554,-128.381 162,-105 181.399,-90.5763 203.843,-74.6497 220.012,-63.3069"/>
<polygon fill="midnightblue" stroke="midnightblue" points="222.102,-66.1159 228.29,-57.5155 218.09,-60.3802 222.102,-66.1159"/>
</g>
<!-- Node6 -->
<g id="node11" class="node"><title>Node6</title>
<a xlink:href="../../d1/d59/xmpp__stanza_8c.html#a5a80203f56df7a360fa457c0111686f6" target="_top" xlink:title="Parse the namespace triple that Expat gives us.">
<polygon fill="none" stroke="black" points="411.5,-114.5 411.5,-133.5 476.5,-133.5 476.5,-114.5 411.5,-114.5"/>
<text text-anchor="middle" x="444" y="-121.5" font-family="DejaVuSansMono" font-size="10.00">parse_ns</text>
</a>
</g>
<!-- Node5&#45;&gt;Node6 -->
<g id="edge10" class="edge"><title>Node5&#45;&gt;Node6</title>
<path fill="none" stroke="midnightblue" d="M296.545,-124C329.198,-124 370.606,-124 401.054,-124"/>
<polygon fill="midnightblue" stroke="midnightblue" points="401.335,-127.5 411.335,-124 401.335,-120.5 401.335,-127.5"/>
</g>
<!-- Node7 -->
<g id="node13" class="node"><title>Node7</title>
<a xlink:href="../../d1/d59/xmpp__stanza_8c.html#aff4b8f6e10ce1c351d2a5bc39f0e819f" target="_top" xlink:title="Convenience function to build a key for the attribute hash table.">
<polygon fill="none" stroke="black" points="411.5,-76.5 411.5,-95.5 476.5,-95.5 476.5,-76.5 411.5,-76.5"/>
<text text-anchor="middle" x="444" y="-83.5" font-family="DejaVuSansMono" font-size="10.00">make_key</text>
</a>
</g>
<!-- Node5&#45;&gt;Node7 -->
<g id="edge12" class="edge"><title>Node5&#45;&gt;Node7</title>
<path fill="none" stroke="midnightblue" d="M293.959,-114.46C327.06,-108.139 369.981,-99.9434 401.256,-93.9712"/>
<polygon fill="midnightblue" stroke="midnightblue" points="402.219,-97.3506 411.385,-92.037 400.906,-90.4748 402.219,-97.3506"/>
</g>
<!-- Node8&#45;&gt;Node2 -->
<g id="edge22" class="edge"><title>Node8&#45;&gt;Node2</title>
<path fill="none" stroke="midnightblue" d="M260.375,-247.565C282.374,-260.056 322.991,-281.872 360,-295 367.347,-297.606 375.189,-299.945 383.01,-302.016"/>
<polygon fill="midnightblue" stroke="midnightblue" points="382.316,-305.45 392.868,-304.495 384.024,-298.661 382.316,-305.45"/>
</g>
<!-- Node9 -->
<g id="node17" class="node"><title>Node9</title>
<a xlink:href="../../d3/d5a/jid_8c.html#a0151ea37a9f52813a8d48d2b7eec2044" target="_top" xlink:title="Allocate and initialize a new JID from an existing JID string.">
<polygon fill="none" stroke="black" points="387.5,-266.5 387.5,-285.5 500.5,-285.5 500.5,-266.5 387.5,-266.5"/>
<text text-anchor="middle" x="444" y="-273.5" font-family="DejaVuSansMono" font-size="10.00">jid_new_from_str</text>
</a>
</g>
<!-- Node8&#45;&gt;Node9 -->
<g id="edge16" class="edge"><title>Node8&#45;&gt;Node9</title>
<path fill="none" stroke="midnightblue" d="M293.959,-247.54C321.045,-252.712 354.708,-259.14 383.183,-264.578"/>
<polygon fill="midnightblue" stroke="midnightblue" points="382.541,-268.018 393.02,-266.456 383.854,-261.142 382.541,-268.018"/>
</g>
<!-- Node11 -->
<g id="node21" class="node"><title>Node11</title>
<a xlink:href="../../d3/d5a/jid_8c.html#ab83fd5aae95de2c9d38fb9d9cd161580" target="_top" xlink:title="Cleans up and frees an existing JID.">
<polygon fill="none" stroke="black" points="564.5,-228.5 564.5,-247.5 623.5,-247.5 623.5,-228.5 564.5,-228.5"/>
<text text-anchor="middle" x="594" y="-235.5" font-family="DejaVuSansMono" font-size="10.00">jid_del</text>
</a>
</g>
<!-- Node8&#45;&gt;Node11 -->
<g id="edge28" class="edge"><title>Node8&#45;&gt;Node11</title>
<path fill="none" stroke="midnightblue" d="M323.63,-238C395.639,-238 498.613,-238 554.066,-238"/>
<polygon fill="midnightblue" stroke="midnightblue" points="554.175,-241.5 564.175,-238 554.175,-234.5 554.175,-241.5"/>
</g>
<!-- Node12 -->
<g id="node24" class="node"><title>Node12</title>
<a xlink:href="../../d3/d5a/jid_8c.html#a3d51f2b27d20189e523b0d0b2a77e4a9" target="_top" xlink:title="Converts a JID to a newly allocated string.">
<polygon fill="none" stroke="black" points="405.5,-190.5 405.5,-209.5 482.5,-209.5 482.5,-190.5 405.5,-190.5"/>
<text text-anchor="middle" x="444" y="-197.5" font-family="DejaVuSansMono" font-size="10.00">jid_to_str</text>
</a>
</g>
<!-- Node8&#45;&gt;Node12 -->
<g id="edge24" class="edge"><title>Node8&#45;&gt;Node12</title>
<path fill="none" stroke="midnightblue" d="M293.959,-228.46C324.991,-222.534 364.654,-214.961 395.261,-209.116"/>
<polygon fill="midnightblue" stroke="midnightblue" points="396.102,-212.519 405.268,-207.205 394.789,-205.643 396.102,-212.519"/>
</g>
<!-- Node13 -->
<g id="node26" class="node"><title>Node13</title>
<a xlink:href="../../d3/d5a/jid_8c.html#a5b2f969326a86fa7e585f633d7b0f565" target="_top" xlink:title="Compare two JIDs with wildcard matches.">
<polygon fill="none" stroke="black" points="384.5,-152.5 384.5,-171.5 503.5,-171.5 503.5,-152.5 384.5,-152.5"/>
<text text-anchor="middle" x="444" y="-159.5" font-family="DejaVuSansMono" font-size="10.00">jid_cmp_wildcards</text>
</a>
</g>
<!-- Node8&#45;&gt;Node13 -->
<g id="edge26" class="edge"><title>Node8&#45;&gt;Node13</title>
<path fill="none" stroke="midnightblue" d="M302.348,-228.369C309.9,-225.92 317.321,-222.849 324,-219 344.157,-207.384 339.796,-192.534 360,-181 364.537,-178.41 369.404,-176.173 374.422,-174.24"/>
<polygon fill="midnightblue" stroke="midnightblue" points="375.886,-177.439 384.213,-170.888 373.619,-170.816 375.886,-177.439"/>
</g>
<!-- Node10 -->
<g id="node19" class="node"><title>Node10</title>
<a xlink:href="../../d3/d5a/jid_8c.html#abd2028a1e581e6374acaa6beaf6e5413" target="_top" xlink:title="Allocate and initialize a new blank JID.">
<polygon fill="none" stroke="black" points="564.5,-266.5 564.5,-285.5 623.5,-285.5 623.5,-266.5 564.5,-266.5"/>
<text text-anchor="middle" x="594" y="-273.5" font-family="DejaVuSansMono" font-size="10.00">jid_new</text>
</a>
</g>
<!-- Node9&#45;&gt;Node10 -->
<g id="edge18" class="edge"><title>Node9&#45;&gt;Node10</title>
<path fill="none" stroke="midnightblue" d="M500.531,-276C518.294,-276 537.574,-276 553.909,-276"/>
<polygon fill="midnightblue" stroke="midnightblue" points="554.173,-279.5 564.173,-276 554.173,-272.5 554.173,-279.5"/>
</g>
<!-- Node9&#45;&gt;Node11 -->
<g id="edge20" class="edge"><title>Node9&#45;&gt;Node11</title>
<path fill="none" stroke="midnightblue" d="M482.347,-266.411C504.327,-260.767 532.081,-253.641 554.293,-247.938"/>
<polygon fill="midnightblue" stroke="midnightblue" points="555.253,-251.305 564.069,-245.428 553.512,-244.525 555.253,-251.305"/>
</g>
<!-- Node14&#45;&gt;Node14 -->
<g id="edge36" class="edge"><title>Node14&#45;&gt;Node14</title>
<path fill="none" stroke="midnightblue" d="M215.257,-57.7571C201.76,-66.5653 211.008,-76 243,-76 264.995,-76 276.239,-71.5406 276.733,-65.8913"/>
<polygon fill="midnightblue" stroke="midnightblue" points="279.491,-63.7341 270.743,-57.7571 273.854,-67.8848 279.491,-63.7341"/>
</g>
<!-- Node15 -->
<g id="node31" class="node"><title>Node15</title>
<a xlink:href="../../d1/d59/xmpp__stanza_8c.html#a2fb472c6bf9b7f540a97ddc6c11adb74" target="_top" xlink:title="attribute_del">
<polygon fill="none" stroke="black" points="396.5,-38.5 396.5,-57.5 491.5,-57.5 491.5,-38.5 396.5,-38.5"/>
<text text-anchor="middle" x="444" y="-45.5" font-family="DejaVuSansMono" font-size="10.00">attribute_del</text>
</a>
</g>
<!-- Node14&#45;&gt;Node15 -->
<g id="edge32" class="edge"><title>Node14&#45;&gt;Node15</title>
<path fill="none" stroke="midnightblue" d="M296.545,-48C324.133,-48 357.97,-48 386.167,-48"/>
<polygon fill="midnightblue" stroke="midnightblue" points="386.278,-51.5001 396.278,-48 386.278,-44.5001 386.278,-51.5001"/>
</g>
<!-- Node16 -->
<g id="node33" class="node"><title>Node16</title>
<a xlink:href="../../d1/dc2/xmpp__parser_8c.html#a87065f39f10a449e7af17fa45ca475f2" target="_top" xlink:title="xmpp_parser_namespace_del">
<polygon fill="none" stroke="black" points="360.5,-0.5 360.5,-19.5 527.5,-19.5 527.5,-0.5 360.5,-0.5"/>
<text text-anchor="middle" x="444" y="-7.5" font-family="DejaVuSansMono" font-size="10.00">xmpp_parser_namespace_del</text>
</a>
</g>
<!-- Node14&#45;&gt;Node16 -->
<g id="edge34" class="edge"><title>Node14&#45;&gt;Node16</title>
<path fill="none" stroke="midnightblue" d="M293.959,-38.46C321.045,-33.2878 354.708,-26.8599 383.183,-21.4222"/>
<polygon fill="midnightblue" stroke="midnightblue" points="383.854,-24.8575 393.02,-19.5439 382.541,-17.9817 383.854,-24.8575"/>
</g>
</g>
</svg>
        <g id="navigator" transform="translate(0 0)" fill="#404254">
                <rect fill="#f2f5e9" fill-opacity="0.5" stroke="#606060" stroke-width=".5" x="0" y="0" width="60" height="60"/>
                <use id="zoomplus" xlink:href="#zoomPlus" x="17" y="9" onmousedown="handleZoom(evt,'in')"/>
                <use id="zoomminus" xlink:href="#zoomMin" x="42" y="9" onmousedown="handleZoom(evt,'out')"/>
                <use id="reset" xlink:href="#resetDef" x="30" y="36" onmousedown="handleReset()"/>
                <g id="arrowUp" xlink:href="#dirArrow" transform="translate(30 24)" onmousedown="handlePan(0,-1)">
                  <use xlink:href="#rim" fill="#404040">
                        <set attributeName="fill" to="#808080" begin="arrowUp.mouseover" end="arrowUp.mouseout"/>
                  </use>
                  <path fill="none" stroke="white" stroke-width="1.5" d="M0,-3.0v7 M-2.5,-0.5L0,-3.0L2.5,-0.5"/>
                </g>
                <g id="arrowRight" xlink:href="#dirArrow" transform="rotate(90) translate(36 -43)" onmousedown="handlePan(1,0)">
                  <use xlink:href="#rim" fill="#404040">
                        <set attributeName="fill" to="#808080" begin="arrowRight.mouseover" end="arrowRight.mouseout"/>
                  </use>
                  <path fill="none" stroke="white" stroke-width="1.5" d="M0,-3.0v7 M-2.5,-0.5L0,-3.0L2.5,-0.5"/>
                </g>
                <g id="arrowDown" xlink:href="#dirArrow" transform="rotate(180) translate(-30 -48)" onmousedown="handlePan(0,1)">
                  <use xlink:href="#rim" fill="#404040">
                        <set attributeName="fill" to="#808080" begin="arrowDown.mouseover" end="arrowDown.mouseout"/>
                  </use>
                  <path fill="none" stroke="white" stroke-width="1.5" d="M0,-3.0v7 M-2.5,-0.5L0,-3.0L2.5,-0.5"/>
                </g>
                <g id="arrowLeft" xlink:href="#dirArrow" transform="rotate(270) translate(-36 17)" onmousedown="handlePan(-1,0)">
                  <use xlink:href="#rim" fill="#404040">
                        <set attributeName="fill" to="#808080" begin="arrowLeft.mouseover" end="arrowLeft.mouseout"/>
                  </use>
                  <path fill="none" stroke="white" stroke-width="1.5" d="M0,-3.0v7 M-2.5,-0.5L0,-3.0L2.5,-0.5"/>
                </g>
        </g>
        <svg viewBox="0 0 25 25" width="100%" height="30px" preserveAspectRatio="xMaxYMin meet"> 
          <g id="printButton" transform="scale(0.4 0.4)" onmousedown="handlePrint(evt)">
            <rect height="23.33753581" id="paper" rx="2" style="fill:#f2f5e9;fill-rule:evenodd;stroke:#111111;stroke-width:3.224;stroke-linejoin:round;" transform="matrix(1.000000,0.000000,-0.339266,0.940691,0.000000,0.000000)" width="25.55231285" x="26.69387353" y="7.36162977"/>
            <rect height="26.272097" id="body" rx="2" style="fill:#404040;fill-rule:evenodd;stroke:#111111;stroke-width:3.125;stroke-linejoin:round;" width="50" x="4.5295201" y="27.078951"/>
            <rect height="8.27750969" id="tray" style="fill:#d2d5c9;fill-rule:evenodd;stroke:#111111;stroke-width:3.125;stroke-linecap:round;stroke-linejoin:round;" width="40" x="10.28778839" y="44.96812282"/>
          </g>
        </svg>
</svg>
