<?xml version="1.0" encoding="UTF-8" standalone="no"?>
<!DOCTYPE svg PUBLIC "-//W3C//DTD SVG 1.1//EN"
 "http://www.w3.org/Graphics/SVG/1.1/DTD/svg11.dtd">
<!-- Generated by graphviz version 2.28.0 (20120217.0315)
 -->
<!-- Title: G Pages: 1 -->
<!--zoomable 370 -->
<svg id="main" version="1.1" xmlns="http://www.w3.org/2000/svg" xmlns:xlink="http://www.w3.org/1999/xlink" xml:space="preserve" onload="init(evt)">
        <defs>
                <circle id="rim" cx="0" cy="0" r="7"/>
                <circle id="rim2" cx="0" cy="0" r="3.5"/>
                <g id="zoomPlus">
                        <use xlink:href="#rim" fill="#404040">
                                <set attributeName="fill" to="#808080" begin="zoomplus.mouseover" end="zoomplus.mouseout"/>
                        </use>
                        <path d="M-4,0h8M0,-4v8" fill="none" stroke="white" stroke-width="1.5" pointer-events="none"/>
                </g>
                <g id="zoomMin">
                        <use xlink:href="#rim" fill="#404040">
                                <set attributeName="fill" to="#808080" begin="zoomminus.mouseover" end="zoomminus.mouseout"/>
                        </use>
                        <path d="M-4,0h8" fill="none" stroke="white" stroke-width="1.5" pointer-events="none"/>
                </g>
                <g id="dirArrow">
                        <path fill="none" stroke="white" stroke-width="1.5" d="M0,-3.0v7 M-2.5,-0.5L0,-3.0L2.5,-0.5"/>
                </g>
               <g id="resetDef">
                       <use xlink:href="#rim2" fill="#404040">
                               <set attributeName="fill" to="#808080" begin="reset.mouseover" end="reset.mouseout"/>
                       </use>
               </g>
        </defs>

<script type="text/javascript">
var viewWidth = 740;
var viewHeight = 370;
var sectionId = 'dynsection-7';
</script>
<script xlink:href="../../svgpan.js"/>
<svg id="graph" class="graph">
<g id="viewport">
<title>G</title>
<!-- Node1 -->
<g id="node1" class="node"><title>Node1</title>
<polygon fill="#bfbfbf" stroke="black" points="0.5,-76.5 0.5,-95.5 119.5,-95.5 119.5,-76.5 0.5,-76.5"/>
<text text-anchor="middle" x="60" y="-83.5" font-family="DejaVuSansMono" font-size="10.00">xmpp_im_iq_roster</text>
</g>
<!-- Node2 -->
<g id="node3" class="node"><title>Node2</title>
<a xlink:href="../../d1/d59/xmpp__stanza_8c.html#a20c90c791fa856784f2d43c9f44f1d3c" target="_top" xlink:title="Returns the value of an attribute of this stanza.">
<polygon fill="none" stroke="black" points="495.5,-0.5 495.5,-19.5 608.5,-19.5 608.5,-0.5 495.5,-0.5"/>
<text text-anchor="middle" x="552" y="-7.5" font-family="DejaVuSansMono" font-size="10.00">xmpp_stanza_attr</text>
</a>
</g>
<!-- Node1&#45;&gt;Node2 -->
<g id="edge2" class="edge"><title>Node1&#45;&gt;Node2</title>
<path fill="none" stroke="midnightblue" d="M94.3641,-76.4594C135.369,-65.0969 207.238,-46.3568 270,-36 343.19,-23.9224 428.1,-17.0363 485.264,-13.4256"/>
<polygon fill="midnightblue" stroke="midnightblue" points="485.486,-16.9186 495.252,-12.8102 485.055,-9.93185 485.486,-16.9186"/>
</g>
<!-- Node3 -->
<g id="node5" class="node"><title>Node3</title>
<a xlink:href="../../dc/da6/xmpp__im_8c.html#af5cf3adac08463b9b6029c8814e4f972" target="_top" xlink:title="get_roster">
<polygon fill="none" stroke="black" points="156.5,-147.5 156.5,-166.5 233.5,-166.5 233.5,-147.5 156.5,-147.5"/>
<text text-anchor="middle" x="195" y="-154.5" font-family="DejaVuSansMono" font-size="10.00">get_roster</text>
</a>
</g>
<!-- Node1&#45;&gt;Node3 -->
<g id="edge4" class="edge"><title>Node1&#45;&gt;Node3</title>
<path fill="none" stroke="midnightblue" d="M78.937,-95.5754C101.545,-107.644 140.617,-128.502 166.88,-142.523"/>
<polygon fill="midnightblue" stroke="midnightblue" points="165.452,-145.728 175.922,-147.35 168.749,-139.553 165.452,-145.728"/>
</g>
<!-- Node3&#45;&gt;Node2 -->
<g id="edge6" class="edge"><title>Node3&#45;&gt;Node2</title>
<path fill="none" stroke="midnightblue" d="M206.293,-147.368C219.953,-135.004 245.242,-113.536 270,-100 342.231,-60.5094 434.509,-35.1331 493.201,-21.7125"/>
<polygon fill="midnightblue" stroke="midnightblue" points="494.05,-25.1092 503.04,-19.503 492.516,-18.2793 494.05,-25.1092"/>
</g>
<!-- Node4 -->
<g id="node8" class="node"><title>Node4</title>
<a xlink:href="../../d1/d59/xmpp__stanza_8c.html#aa80dd21d794b5c63fcb13c49745cc373" target="_top" xlink:title="Allocate and initialize a new XMPP stanza structure.">
<polygon fill="none" stroke="black" points="297.5,-304.5 297.5,-323.5 404.5,-323.5 404.5,-304.5 297.5,-304.5"/>
<text text-anchor="middle" x="351" y="-311.5" font-family="DejaVuSansMono" font-size="10.00">xmpp_stanza_new</text>
</a>
</g>
<!-- Node3&#45;&gt;Node4 -->
<g id="edge8" class="edge"><title>Node3&#45;&gt;Node4</title>
<path fill="none" stroke="midnightblue" d="M199.774,-166.501C208.848,-188.296 233.851,-242.51 270,-275 281.952,-285.742 297.396,-294.192 311.522,-300.441"/>
<polygon fill="midnightblue" stroke="midnightblue" points="310.456,-303.788 321.032,-304.415 313.155,-297.33 310.456,-303.788"/>
</g>
<!-- Node7 -->
<g id="node14" class="node"><title>Node7</title>
<a xlink:href="../../d1/d59/xmpp__stanza_8c.html#ac13c8bb45e2ca03b99836e8d52b265b4" target="_top" xlink:title="Appends a child stanza.">
<polygon fill="none" stroke="black" points="270.5,-185.5 270.5,-204.5 431.5,-204.5 431.5,-185.5 270.5,-185.5"/>
<text text-anchor="middle" x="351" y="-192.5" font-family="DejaVuSansMono" font-size="10.00">xmpp_stanza_append_child</text>
</a>
</g>
<!-- Node3&#45;&gt;Node7 -->
<g id="edge14" class="edge"><title>Node3&#45;&gt;Node7</title>
<path fill="none" stroke="midnightblue" d="M233.673,-166.296C254.136,-171.345 279.664,-177.644 301.589,-183.054"/>
<polygon fill="midnightblue" stroke="midnightblue" points="300.83,-186.472 311.378,-185.47 302.507,-179.676 300.83,-186.472"/>
</g>
<!-- Node9 -->
<g id="node18" class="node"><title>Node9</title>
<a xlink:href="../../d0/df0/xmpp__server_8c.html#a6d3f7e5e289f785b1c8c52f95068c627" target="_top" xlink:title="Deliver a stanza to a registered callback function.">
<polygon fill="none" stroke="black" points="270.5,-109.5 270.5,-128.5 431.5,-128.5 431.5,-109.5 270.5,-109.5"/>
<text text-anchor="middle" x="351" y="-116.5" font-family="DejaVuSansMono" font-size="10.00">xmpp_server_route_stanza</text>
</a>
</g>
<!-- Node3&#45;&gt;Node9 -->
<g id="edge18" class="edge"><title>Node3&#45;&gt;Node9</title>
<path fill="none" stroke="midnightblue" d="M233.673,-147.704C254.136,-142.655 279.664,-136.356 301.589,-130.946"/>
<polygon fill="midnightblue" stroke="midnightblue" points="302.507,-134.324 311.378,-128.53 300.83,-127.528 302.507,-134.324"/>
</g>
<!-- Node15 -->
<g id="node32" class="node"><title>Node15</title>
<a xlink:href="../../d1/d59/xmpp__stanza_8c.html#af40757ae1d137034570b1bb33303d024" target="_top" xlink:title="Cleans up and frees an XMPP stanza.">
<polygon fill="none" stroke="black" points="297.5,-228.5 297.5,-247.5 404.5,-247.5 404.5,-228.5 297.5,-228.5"/>
<text text-anchor="middle" x="351" y="-235.5" font-family="DejaVuSansMono" font-size="10.00">xmpp_stanza_del</text>
</a>
</g>
<!-- Node3&#45;&gt;Node15 -->
<g id="edge34" class="edge"><title>Node3&#45;&gt;Node15</title>
<path fill="none" stroke="midnightblue" d="M206.185,-166.835C219.73,-179.418 244.893,-201.123 270,-214 278.714,-218.469 288.399,-222.251 297.935,-225.397"/>
<polygon fill="midnightblue" stroke="midnightblue" points="297.184,-228.828 307.772,-228.447 299.257,-222.142 297.184,-228.828"/>
</g>
<!-- Node5 -->
<g id="node10" class="node"><title>Node5</title>
<a xlink:href="../../d1/d59/xmpp__stanza_8c.html#a5a80203f56df7a360fa457c0111686f6" target="_top" xlink:title="Parse the namespace triple that Expat gives us.">
<polygon fill="none" stroke="black" points="519.5,-304.5 519.5,-323.5 584.5,-323.5 584.5,-304.5 519.5,-304.5"/>
<text text-anchor="middle" x="552" y="-311.5" font-family="DejaVuSansMono" font-size="10.00">parse_ns</text>
</a>
</g>
<!-- Node4&#45;&gt;Node5 -->
<g id="edge10" class="edge"><title>Node4&#45;&gt;Node5</title>
<path fill="none" stroke="midnightblue" d="M404.545,-314C437.198,-314 478.606,-314 509.054,-314"/>
<polygon fill="midnightblue" stroke="midnightblue" points="509.335,-317.5 519.335,-314 509.335,-310.5 509.335,-317.5"/>
</g>
<!-- Node6 -->
<g id="node12" class="node"><title>Node6</title>
<a xlink:href="../../d1/d59/xmpp__stanza_8c.html#aff4b8f6e10ce1c351d2a5bc39f0e819f" target="_top" xlink:title="Convenience function to build a key for the attribute hash table.">
<polygon fill="none" stroke="black" points="519.5,-342.5 519.5,-361.5 584.5,-361.5 584.5,-342.5 519.5,-342.5"/>
<text text-anchor="middle" x="552" y="-349.5" font-family="DejaVuSansMono" font-size="10.00">make_key</text>
</a>
</g>
<!-- Node4&#45;&gt;Node6 -->
<g id="edge12" class="edge"><title>Node4&#45;&gt;Node6</title>
<path fill="none" stroke="midnightblue" d="M401.959,-323.54C435.06,-329.861 477.981,-338.057 509.256,-344.029"/>
<polygon fill="midnightblue" stroke="midnightblue" points="508.906,-347.525 519.385,-345.963 510.219,-340.649 508.906,-347.525"/>
</g>
<!-- Node8 -->
<g id="node16" class="node"><title>Node8</title>
<a xlink:href="../../d1/d59/xmpp__stanza_8c.html#afc77f00b7f38c79566a7b16876230e30" target="_top" xlink:title="Removes a child stanza.">
<polygon fill="none" stroke="black" points="471.5,-190.5 471.5,-209.5 632.5,-209.5 632.5,-190.5 471.5,-190.5"/>
<text text-anchor="middle" x="552" y="-197.5" font-family="DejaVuSansMono" font-size="10.00">xmpp_stanza_remove_child</text>
</a>
</g>
<!-- Node7&#45;&gt;Node8 -->
<g id="edge16" class="edge"><title>Node7&#45;&gt;Node8</title>
<path fill="none" stroke="midnightblue" d="M431.508,-196.998C441.23,-197.242 451.218,-197.493 461.079,-197.741"/>
<polygon fill="midnightblue" stroke="midnightblue" points="461.209,-201.245 471.294,-197.997 461.385,-194.247 461.209,-201.245"/>
</g>
<!-- Node9&#45;&gt;Node2 -->
<g id="edge26" class="edge"><title>Node9&#45;&gt;Node2</title>
<path fill="none" stroke="midnightblue" d="M375.678,-109.488C392.52,-101.992 415.07,-90.4107 432,-76 452.037,-58.9451 445.863,-43.2234 468,-29 473.387,-25.539 479.326,-22.7053 485.478,-20.3856"/>
<polygon fill="midnightblue" stroke="midnightblue" points="486.875,-23.6102 495.27,-17.1473 484.677,-16.9642 486.875,-23.6102"/>
</g>
<!-- Node10 -->
<g id="node20" class="node"><title>Node10</title>
<a xlink:href="../../d3/d5a/jid_8c.html#a0151ea37a9f52813a8d48d2b7eec2044" target="_top" xlink:title="Allocate and initialize a new JID from an existing JID string.">
<polygon fill="none" stroke="black" points="495.5,-152.5 495.5,-171.5 608.5,-171.5 608.5,-152.5 495.5,-152.5"/>
<text text-anchor="middle" x="552" y="-159.5" font-family="DejaVuSansMono" font-size="10.00">jid_new_from_str</text>
</a>
</g>
<!-- Node9&#45;&gt;Node10 -->
<g id="edge20" class="edge"><title>Node9&#45;&gt;Node10</title>
<path fill="none" stroke="midnightblue" d="M396.165,-128.543C425.922,-134.973 465.361,-143.495 496.987,-150.329"/>
<polygon fill="midnightblue" stroke="midnightblue" points="496.445,-153.792 506.959,-152.484 497.924,-146.95 496.445,-153.792"/>
</g>
<!-- Node12 -->
<g id="node24" class="node"><title>Node12</title>
<a xlink:href="../../d3/d5a/jid_8c.html#ab83fd5aae95de2c9d38fb9d9cd161580" target="_top" xlink:title="Cleans up and frees an existing JID.">
<polygon fill="none" stroke="black" points="672.5,-114.5 672.5,-133.5 731.5,-133.5 731.5,-114.5 672.5,-114.5"/>
<text text-anchor="middle" x="702" y="-121.5" font-family="DejaVuSansMono" font-size="10.00">jid_del</text>
</a>
</g>
<!-- Node9&#45;&gt;Node12 -->
<g id="edge32" class="edge"><title>Node9&#45;&gt;Node12</title>
<path fill="none" stroke="midnightblue" d="M431.63,-120.141C503.639,-121.172 606.613,-122.648 662.066,-123.442"/>
<polygon fill="midnightblue" stroke="midnightblue" points="662.126,-126.943 672.175,-123.587 662.226,-119.944 662.126,-126.943"/>
</g>
<!-- Node13 -->
<g id="node27" class="node"><title>Node13</title>
<a xlink:href="../../d3/d5a/jid_8c.html#a3d51f2b27d20189e523b0d0b2a77e4a9" target="_top" xlink:title="Converts a JID to a newly allocated string.">
<polygon fill="none" stroke="black" points="513.5,-76.5 513.5,-95.5 590.5,-95.5 590.5,-76.5 513.5,-76.5"/>
<text text-anchor="middle" x="552" y="-83.5" font-family="DejaVuSansMono" font-size="10.00">jid_to_str</text>
</a>
</g>
<!-- Node9&#45;&gt;Node13 -->
<g id="edge28" class="edge"><title>Node9&#45;&gt;Node13</title>
<path fill="none" stroke="midnightblue" d="M409.292,-109.499C439.051,-104.564 474.992,-98.6043 503.232,-93.9213"/>
<polygon fill="midnightblue" stroke="midnightblue" points="503.969,-97.3469 513.262,-92.2581 502.824,-90.4412 503.969,-97.3469"/>
</g>
<!-- Node14 -->
<g id="node29" class="node"><title>Node14</title>
<a xlink:href="../../d3/d5a/jid_8c.html#a5b2f969326a86fa7e585f633d7b0f565" target="_top" xlink:title="Compare two JIDs with wildcard matches.">
<polygon fill="none" stroke="black" points="492.5,-38.5 492.5,-57.5 611.5,-57.5 611.5,-38.5 492.5,-38.5"/>
<text text-anchor="middle" x="552" y="-45.5" font-family="DejaVuSansMono" font-size="10.00">jid_cmp_wildcards</text>
</a>
</g>
<!-- Node9&#45;&gt;Node14 -->
<g id="edge30" class="edge"><title>Node9&#45;&gt;Node14</title>
<path fill="none" stroke="midnightblue" d="M370.433,-109.372C392.944,-97.9377 432.424,-78.917 468,-67 475.673,-64.4297 483.86,-62.0898 491.99,-59.9994"/>
<polygon fill="midnightblue" stroke="midnightblue" points="492.967,-63.3635 501.84,-57.5745 491.293,-56.5664 492.967,-63.3635"/>
</g>
<!-- Node11 -->
<g id="node22" class="node"><title>Node11</title>
<a xlink:href="../../d3/d5a/jid_8c.html#abd2028a1e581e6374acaa6beaf6e5413" target="_top" xlink:title="Allocate and initialize a new blank JID.">
<polygon fill="none" stroke="black" points="672.5,-152.5 672.5,-171.5 731.5,-171.5 731.5,-152.5 672.5,-152.5"/>
<text text-anchor="middle" x="702" y="-159.5" font-family="DejaVuSansMono" font-size="10.00">jid_new</text>
</a>
</g>
<!-- Node10&#45;&gt;Node11 -->
<g id="edge22" class="edge"><title>Node10&#45;&gt;Node11</title>
<path fill="none" stroke="midnightblue" d="M608.531,-162C626.294,-162 645.574,-162 661.909,-162"/>
<polygon fill="midnightblue" stroke="midnightblue" points="662.173,-165.5 672.173,-162 662.173,-158.5 662.173,-165.5"/>
</g>
<!-- Node10&#45;&gt;Node12 -->
<g id="edge24" class="edge"><title>Node10&#45;&gt;Node12</title>
<path fill="none" stroke="midnightblue" d="M590.347,-152.411C612.327,-146.767 640.081,-139.641 662.293,-133.938"/>
<polygon fill="midnightblue" stroke="midnightblue" points="663.253,-137.305 672.069,-131.428 661.512,-130.525 663.253,-137.305"/>
</g>
<!-- Node15&#45;&gt;Node15 -->
<g id="edge40" class="edge"><title>Node15&#45;&gt;Node15</title>
<path fill="none" stroke="midnightblue" d="M326.956,-247.757C315.259,-256.565 323.273,-266 351,-266 369.196,-266 378.902,-261.937 380.119,-256.654"/>
<polygon fill="midnightblue" stroke="midnightblue" points="383.039,-254.709 375.044,-247.757 376.959,-258.177 383.039,-254.709"/>
</g>
<!-- Node16 -->
<g id="node34" class="node"><title>Node16</title>
<a xlink:href="../../d1/d59/xmpp__stanza_8c.html#a2fb472c6bf9b7f540a97ddc6c11adb74" target="_top" xlink:title="attribute_del">
<polygon fill="none" stroke="black" points="504.5,-266.5 504.5,-285.5 599.5,-285.5 599.5,-266.5 504.5,-266.5"/>
<text text-anchor="middle" x="552" y="-273.5" font-family="DejaVuSansMono" font-size="10.00">attribute_del</text>
</a>
</g>
<!-- Node15&#45;&gt;Node16 -->
<g id="edge36" class="edge"><title>Node15&#45;&gt;Node16</title>
<path fill="none" stroke="midnightblue" d="M401.959,-247.54C430.075,-252.909 465.277,-259.631 494.409,-265.194"/>
<polygon fill="midnightblue" stroke="midnightblue" points="493.959,-268.671 504.438,-267.109 495.272,-261.795 493.959,-268.671"/>
</g>
<!-- Node17 -->
<g id="node36" class="node"><title>Node17</title>
<a xlink:href="../../d1/dc2/xmpp__parser_8c.html#a87065f39f10a449e7af17fa45ca475f2" target="_top" xlink:title="xmpp_parser_namespace_del">
<polygon fill="none" stroke="black" points="468.5,-228.5 468.5,-247.5 635.5,-247.5 635.5,-228.5 468.5,-228.5"/>
<text text-anchor="middle" x="552" y="-235.5" font-family="DejaVuSansMono" font-size="10.00">xmpp_parser_namespace_del</text>
</a>
</g>
<!-- Node15&#45;&gt;Node17 -->
<g id="edge38" class="edge"><title>Node15&#45;&gt;Node17</title>
<path fill="none" stroke="midnightblue" d="M404.545,-238C421.062,-238 439.819,-238 458.265,-238"/>
<polygon fill="midnightblue" stroke="midnightblue" points="458.464,-241.5 468.464,-238 458.464,-234.5 458.464,-241.5"/>
</g>
</g>
</svg>
        <g id="navigator" transform="translate(0 0)" fill="#404254">
                <rect fill="#f2f5e9" fill-opacity="0.5" stroke="#606060" stroke-width=".5" x="0" y="0" width="60" height="60"/>
                <use id="zoomplus" xlink:href="#zoomPlus" x="17" y="9" onmousedown="handleZoom(evt,'in')"/>
                <use id="zoomminus" xlink:href="#zoomMin" x="42" y="9" onmousedown="handleZoom(evt,'out')"/>
                <use id="reset" xlink:href="#resetDef" x="30" y="36" onmousedown="handleReset()"/>
                <g id="arrowUp" xlink:href="#dirArrow" transform="translate(30 24)" onmousedown="handlePan(0,-1)">
                  <use xlink:href="#rim" fill="#404040">
                        <set attributeName="fill" to="#808080" begin="arrowUp.mouseover" end="arrowUp.mouseout"/>
                  </use>
                  <path fill="none" stroke="white" stroke-width="1.5" d="M0,-3.0v7 M-2.5,-0.5L0,-3.0L2.5,-0.5"/>
                </g>
                <g id="arrowRight" xlink:href="#dirArrow" transform="rotate(90) translate(36 -43)" onmousedown="handlePan(1,0)">
                  <use xlink:href="#rim" fill="#404040">
                        <set attributeName="fill" to="#808080" begin="arrowRight.mouseover" end="arrowRight.mouseout"/>
                  </use>
                  <path fill="none" stroke="white" stroke-width="1.5" d="M0,-3.0v7 M-2.5,-0.5L0,-3.0L2.5,-0.5"/>
                </g>
                <g id="arrowDown" xlink:href="#dirArrow" transform="rotate(180) translate(-30 -48)" onmousedown="handlePan(0,1)">
                  <use xlink:href="#rim" fill="#404040">
                        <set attributeName="fill" to="#808080" begin="arrowDown.mouseover" end="arrowDown.mouseout"/>
                  </use>
                  <path fill="none" stroke="white" stroke-width="1.5" d="M0,-3.0v7 M-2.5,-0.5L0,-3.0L2.5,-0.5"/>
                </g>
                <g id="arrowLeft" xlink:href="#dirArrow" transform="rotate(270) translate(-36 17)" onmousedown="handlePan(-1,0)">
                  <use xlink:href="#rim" fill="#404040">
                        <set attributeName="fill" to="#808080" begin="arrowLeft.mouseover" end="arrowLeft.mouseout"/>
                  </use>
                  <path fill="none" stroke="white" stroke-width="1.5" d="M0,-3.0v7 M-2.5,-0.5L0,-3.0L2.5,-0.5"/>
                </g>
        </g>
        <svg viewBox="0 0 25 25" width="100%" height="30px" preserveAspectRatio="xMaxYMin meet"> 
          <g id="printButton" transform="scale(0.4 0.4)" onmousedown="handlePrint(evt)">
            <rect height="23.33753581" id="paper" rx="2" style="fill:#f2f5e9;fill-rule:evenodd;stroke:#111111;stroke-width:3.224;stroke-linejoin:round;" transform="matrix(1.000000,0.000000,-0.339266,0.940691,0.000000,0.000000)" width="25.55231285" x="26.69387353" y="7.36162977"/>
            <rect height="26.272097" id="body" rx="2" style="fill:#404040;fill-rule:evenodd;stroke:#111111;stroke-width:3.125;stroke-linejoin:round;" width="50" x="4.5295201" y="27.078951"/>
            <rect height="8.27750969" id="tray" style="fill:#d2d5c9;fill-rule:evenodd;stroke:#111111;stroke-width:3.125;stroke-linecap:round;stroke-linejoin:round;" width="40" x="10.28778839" y="44.96812282"/>
          </g>
        </svg>
</svg>
