<?xml version="1.0" encoding="UTF-8" standalone="no"?>
<!DOCTYPE svg PUBLIC "-//W3C//DTD SVG 1.1//EN"
 "http://www.w3.org/Graphics/SVG/1.1/DTD/svg11.dtd">
<!-- Generated by graphviz version 2.28.0 (20120217.0315)
 -->
<!-- Title: G Pages: 1 -->
<!--zoomable 370 -->
<svg id="main" version="1.1" xmlns="http://www.w3.org/2000/svg" xmlns:xlink="http://www.w3.org/1999/xlink" xml:space="preserve" onload="init(evt)">
        <defs>
                <circle id="rim" cx="0" cy="0" r="7"/>
                <circle id="rim2" cx="0" cy="0" r="3.5"/>
                <g id="zoomPlus">
                        <use xlink:href="#rim" fill="#404040">
                                <set attributeName="fill" to="#808080" begin="zoomplus.mouseover" end="zoomplus.mouseout"/>
                        </use>
                        <path d="M-4,0h8M0,-4v8" fill="none" stroke="white" stroke-width="1.5" pointer-events="none"/>
                </g>
                <g id="zoomMin">
                        <use xlink:href="#rim" fill="#404040">
                                <set attributeName="fill" to="#808080" begin="zoomminus.mouseover" end="zoomminus.mouseout"/>
                        </use>
                        <path d="M-4,0h8" fill="none" stroke="white" stroke-width="1.5" pointer-events="none"/>
                </g>
                <g id="dirArrow">
                        <path fill="none" stroke="white" stroke-width="1.5" d="M0,-3.0v7 M-2.5,-0.5L0,-3.0L2.5,-0.5"/>
                </g>
               <g id="resetDef">
                       <use xlink:href="#rim2" fill="#404040">
                               <set attributeName="fill" to="#808080" begin="reset.mouseover" end="reset.mouseout"/>
                       </use>
               </g>
        </defs>

<script type="text/javascript">
var viewWidth = 584;
var viewHeight = 370;
var sectionId = 'dynsection-1';
</script>
<script xlink:href="../../svgpan.js"/>
<svg id="graph" class="graph">
<g id="viewport">
<title>G</title>
<!-- Node1 -->
<g id="node1" class="node"><title>Node1</title>
<polygon fill="#bfbfbf" stroke="black" points="0.5,-228.5 0.5,-247.5 77.5,-247.5 77.5,-228.5 0.5,-228.5"/>
<text text-anchor="middle" x="39" y="-235.5" font-family="DejaVuSansMono" font-size="10.00">get_roster</text>
</g>
<!-- Node2 -->
<g id="node3" class="node"><title>Node2</title>
<a xlink:href="../../d1/d59/xmpp__stanza_8c.html#a20c90c791fa856784f2d43c9f44f1d3c" target="_top" xlink:title="Returns the value of an attribute of this stanza.">
<polygon fill="none" stroke="black" points="339.5,-228.5 339.5,-247.5 452.5,-247.5 452.5,-228.5 339.5,-228.5"/>
<text text-anchor="middle" x="396" y="-235.5" font-family="DejaVuSansMono" font-size="10.00">xmpp_stanza_attr</text>
</a>
</g>
<!-- Node1&#45;&gt;Node2 -->
<g id="edge2" class="edge"><title>Node1&#45;&gt;Node2</title>
<path fill="none" stroke="midnightblue" d="M77.6551,-238C137.561,-238 255.341,-238 329.347,-238"/>
<polygon fill="midnightblue" stroke="midnightblue" points="329.488,-241.5 339.488,-238 329.488,-234.5 329.488,-241.5"/>
</g>
<!-- Node3 -->
<g id="node5" class="node"><title>Node3</title>
<a xlink:href="../../d1/d59/xmpp__stanza_8c.html#aa80dd21d794b5c63fcb13c49745cc373" target="_top" xlink:title="Allocate and initialize a new XMPP stanza structure.">
<polygon fill="none" stroke="black" points="141.5,-304.5 141.5,-323.5 248.5,-323.5 248.5,-304.5 141.5,-304.5"/>
<text text-anchor="middle" x="195" y="-311.5" font-family="DejaVuSansMono" font-size="10.00">xmpp_stanza_new</text>
</a>
</g>
<!-- Node1&#45;&gt;Node3 -->
<g id="edge4" class="edge"><title>Node1&#45;&gt;Node3</title>
<path fill="none" stroke="midnightblue" d="M49.6149,-247.623C62.9206,-260.384 88.2355,-282.72 114,-295 119.581,-297.66 125.564,-299.964 131.653,-301.956"/>
<polygon fill="midnightblue" stroke="midnightblue" points="130.681,-305.319 141.265,-304.836 132.69,-298.613 130.681,-305.319"/>
</g>
<!-- Node6 -->
<g id="node11" class="node"><title>Node6</title>
<a xlink:href="../../d1/d59/xmpp__stanza_8c.html#ac13c8bb45e2ca03b99836e8d52b265b4" target="_top" xlink:title="Appends a child stanza.">
<polygon fill="none" stroke="black" points="114.5,-266.5 114.5,-285.5 275.5,-285.5 275.5,-266.5 114.5,-266.5"/>
<text text-anchor="middle" x="195" y="-273.5" font-family="DejaVuSansMono" font-size="10.00">xmpp_stanza_append_child</text>
</a>
</g>
<!-- Node1&#45;&gt;Node6 -->
<g id="edge10" class="edge"><title>Node1&#45;&gt;Node6</title>
<path fill="none" stroke="midnightblue" d="M77.6726,-247.296C98.1358,-252.345 123.664,-258.644 145.589,-264.054"/>
<polygon fill="midnightblue" stroke="midnightblue" points="144.83,-267.472 155.378,-266.47 146.507,-260.676 144.83,-267.472"/>
</g>
<!-- Node8 -->
<g id="node15" class="node"><title>Node8</title>
<a xlink:href="../../d0/df0/xmpp__server_8c.html#a6d3f7e5e289f785b1c8c52f95068c627" target="_top" xlink:title="Deliver a stanza to a registered callback function.">
<polygon fill="none" stroke="black" points="114.5,-171.5 114.5,-190.5 275.5,-190.5 275.5,-171.5 114.5,-171.5"/>
<text text-anchor="middle" x="195" y="-178.5" font-family="DejaVuSansMono" font-size="10.00">xmpp_server_route_stanza</text>
</a>
</g>
<!-- Node1&#45;&gt;Node8 -->
<g id="edge14" class="edge"><title>Node1&#45;&gt;Node8</title>
<path fill="none" stroke="midnightblue" d="M65.7761,-228.459C91.2054,-219.047 130.276,-204.586 158.607,-194.1"/>
<polygon fill="midnightblue" stroke="midnightblue" points="159.976,-197.325 168.14,-190.572 157.547,-190.76 159.976,-197.325"/>
</g>
<!-- Node14 -->
<g id="node29" class="node"><title>Node14</title>
<a xlink:href="../../d1/d59/xmpp__stanza_8c.html#af40757ae1d137034570b1bb33303d024" target="_top" xlink:title="Cleans up and frees an XMPP stanza.">
<polygon fill="none" stroke="black" points="141.5,-38.5 141.5,-57.5 248.5,-57.5 248.5,-38.5 141.5,-38.5"/>
<text text-anchor="middle" x="195" y="-45.5" font-family="DejaVuSansMono" font-size="10.00">xmpp_stanza_del</text>
</a>
</g>
<!-- Node1&#45;&gt;Node14 -->
<g id="edge30" class="edge"><title>Node1&#45;&gt;Node14</title>
<path fill="none" stroke="midnightblue" d="M47.8486,-228.317C72.3516,-198.086 147.69,-105.135 179.543,-65.8371"/>
<polygon fill="midnightblue" stroke="midnightblue" points="182.405,-67.8642 185.983,-57.8917 176.967,-63.4565 182.405,-67.8642"/>
</g>
<!-- Node4 -->
<g id="node7" class="node"><title>Node4</title>
<a xlink:href="../../d1/d59/xmpp__stanza_8c.html#a5a80203f56df7a360fa457c0111686f6" target="_top" xlink:title="Parse the namespace triple that Expat gives us.">
<polygon fill="none" stroke="black" points="363.5,-342.5 363.5,-361.5 428.5,-361.5 428.5,-342.5 363.5,-342.5"/>
<text text-anchor="middle" x="396" y="-349.5" font-family="DejaVuSansMono" font-size="10.00">parse_ns</text>
</a>
</g>
<!-- Node3&#45;&gt;Node4 -->
<g id="edge6" class="edge"><title>Node3&#45;&gt;Node4</title>
<path fill="none" stroke="midnightblue" d="M245.959,-323.54C279.06,-329.861 321.981,-338.057 353.256,-344.029"/>
<polygon fill="midnightblue" stroke="midnightblue" points="352.906,-347.525 363.385,-345.963 354.219,-340.649 352.906,-347.525"/>
</g>
<!-- Node5 -->
<g id="node9" class="node"><title>Node5</title>
<a xlink:href="../../d1/d59/xmpp__stanza_8c.html#aff4b8f6e10ce1c351d2a5bc39f0e819f" target="_top" xlink:title="Convenience function to build a key for the attribute hash table.">
<polygon fill="none" stroke="black" points="363.5,-304.5 363.5,-323.5 428.5,-323.5 428.5,-304.5 363.5,-304.5"/>
<text text-anchor="middle" x="396" y="-311.5" font-family="DejaVuSansMono" font-size="10.00">make_key</text>
</a>
</g>
<!-- Node3&#45;&gt;Node5 -->
<g id="edge8" class="edge"><title>Node3&#45;&gt;Node5</title>
<path fill="none" stroke="midnightblue" d="M248.545,-314C281.198,-314 322.606,-314 353.054,-314"/>
<polygon fill="midnightblue" stroke="midnightblue" points="353.335,-317.5 363.335,-314 353.335,-310.5 353.335,-317.5"/>
</g>
<!-- Node7 -->
<g id="node13" class="node"><title>Node7</title>
<a xlink:href="../../d1/d59/xmpp__stanza_8c.html#afc77f00b7f38c79566a7b16876230e30" target="_top" xlink:title="Removes a child stanza.">
<polygon fill="none" stroke="black" points="315.5,-266.5 315.5,-285.5 476.5,-285.5 476.5,-266.5 315.5,-266.5"/>
<text text-anchor="middle" x="396" y="-273.5" font-family="DejaVuSansMono" font-size="10.00">xmpp_stanza_remove_child</text>
</a>
</g>
<!-- Node6&#45;&gt;Node7 -->
<g id="edge12" class="edge"><title>Node6&#45;&gt;Node7</title>
<path fill="none" stroke="midnightblue" d="M275.508,-276C285.23,-276 295.218,-276 305.079,-276"/>
<polygon fill="midnightblue" stroke="midnightblue" points="305.294,-279.5 315.294,-276 305.293,-272.5 305.294,-279.5"/>
</g>
<!-- Node8&#45;&gt;Node2 -->
<g id="edge22" class="edge"><title>Node8&#45;&gt;Node2</title>
<path fill="none" stroke="midnightblue" d="M222.974,-190.614C246.349,-198.757 281.166,-210.44 312,-219 320.996,-221.497 330.605,-223.919 339.976,-226.15"/>
<polygon fill="midnightblue" stroke="midnightblue" points="339.479,-229.628 350.013,-228.491 341.069,-222.811 339.479,-229.628"/>
</g>
<!-- Node9 -->
<g id="node17" class="node"><title>Node9</title>
<a xlink:href="../../d3/d5a/jid_8c.html#a0151ea37a9f52813a8d48d2b7eec2044" target="_top" xlink:title="Allocate and initialize a new JID from an existing JID string.">
<polygon fill="none" stroke="black" points="339.5,-114.5 339.5,-133.5 452.5,-133.5 452.5,-114.5 339.5,-114.5"/>
<text text-anchor="middle" x="396" y="-121.5" font-family="DejaVuSansMono" font-size="10.00">jid_new_from_str</text>
</a>
</g>
<!-- Node8&#45;&gt;Node9 -->
<g id="edge16" class="edge"><title>Node8&#45;&gt;Node9</title>
<path fill="none" stroke="midnightblue" d="M222.974,-171.386C246.349,-163.243 281.166,-151.56 312,-143 320.996,-140.503 330.605,-138.081 339.976,-135.85"/>
<polygon fill="midnightblue" stroke="midnightblue" points="341.069,-139.189 350.013,-133.509 339.479,-132.372 341.069,-139.189"/>
</g>
<!-- Node11 -->
<g id="node21" class="node"><title>Node11</title>
<a xlink:href="../../d3/d5a/jid_8c.html#ab83fd5aae95de2c9d38fb9d9cd161580" target="_top" xlink:title="Cleans up and frees an existing JID.">
<polygon fill="none" stroke="black" points="516.5,-76.5 516.5,-95.5 575.5,-95.5 575.5,-76.5 516.5,-76.5"/>
<text text-anchor="middle" x="546" y="-83.5" font-family="DejaVuSansMono" font-size="10.00">jid_del</text>
</a>
</g>
<!-- Node8&#45;&gt;Node11 -->
<g id="edge28" class="edge"><title>Node8&#45;&gt;Node11</title>
<path fill="none" stroke="midnightblue" d="M206.528,-171.412C225.793,-154.523 268.733,-119.853 312,-105 377.487,-82.5191 459.165,-81.563 506.373,-83.427"/>
<polygon fill="midnightblue" stroke="midnightblue" points="506.321,-86.9282 516.471,-83.8902 506.642,-79.9355 506.321,-86.9282"/>
</g>
<!-- Node12 -->
<g id="node24" class="node"><title>Node12</title>
<a xlink:href="../../d3/d5a/jid_8c.html#a3d51f2b27d20189e523b0d0b2a77e4a9" target="_top" xlink:title="Converts a JID to a newly allocated string.">
<polygon fill="none" stroke="black" points="357.5,-190.5 357.5,-209.5 434.5,-209.5 434.5,-190.5 357.5,-190.5"/>
<text text-anchor="middle" x="396" y="-197.5" font-family="DejaVuSansMono" font-size="10.00">jid_to_str</text>
</a>
</g>
<!-- Node8&#45;&gt;Node12 -->
<g id="edge24" class="edge"><title>Node8&#45;&gt;Node12</title>
<path fill="none" stroke="midnightblue" d="M275.508,-188.591C299.79,-190.91 325.73,-193.386 347.214,-195.438"/>
<polygon fill="midnightblue" stroke="midnightblue" points="347.089,-198.941 357.376,-196.408 347.754,-191.973 347.089,-198.941"/>
</g>
<!-- Node13 -->
<g id="node26" class="node"><title>Node13</title>
<a xlink:href="../../d3/d5a/jid_8c.html#a5b2f969326a86fa7e585f633d7b0f565" target="_top" xlink:title="Compare two JIDs with wildcard matches.">
<polygon fill="none" stroke="black" points="336.5,-152.5 336.5,-171.5 455.5,-171.5 455.5,-152.5 336.5,-152.5"/>
<text text-anchor="middle" x="396" y="-159.5" font-family="DejaVuSansMono" font-size="10.00">jid_cmp_wildcards</text>
</a>
</g>
<!-- Node8&#45;&gt;Node13 -->
<g id="edge26" class="edge"><title>Node8&#45;&gt;Node13</title>
<path fill="none" stroke="midnightblue" d="M275.508,-173.409C292.363,-171.8 310.016,-170.114 326.423,-168.548"/>
<polygon fill="midnightblue" stroke="midnightblue" points="326.838,-172.024 336.46,-167.589 326.173,-165.056 326.838,-172.024"/>
</g>
<!-- Node10 -->
<g id="node19" class="node"><title>Node10</title>
<a xlink:href="../../d3/d5a/jid_8c.html#abd2028a1e581e6374acaa6beaf6e5413" target="_top" xlink:title="Allocate and initialize a new blank JID.">
<polygon fill="none" stroke="black" points="516.5,-114.5 516.5,-133.5 575.5,-133.5 575.5,-114.5 516.5,-114.5"/>
<text text-anchor="middle" x="546" y="-121.5" font-family="DejaVuSansMono" font-size="10.00">jid_new</text>
</a>
</g>
<!-- Node9&#45;&gt;Node10 -->
<g id="edge18" class="edge"><title>Node9&#45;&gt;Node10</title>
<path fill="none" stroke="midnightblue" d="M452.531,-124C470.294,-124 489.574,-124 505.909,-124"/>
<polygon fill="midnightblue" stroke="midnightblue" points="506.173,-127.5 516.173,-124 506.173,-120.5 506.173,-127.5"/>
</g>
<!-- Node9&#45;&gt;Node11 -->
<g id="edge20" class="edge"><title>Node9&#45;&gt;Node11</title>
<path fill="none" stroke="midnightblue" d="M434.347,-114.411C456.327,-108.767 484.081,-101.641 506.293,-95.9382"/>
<polygon fill="midnightblue" stroke="midnightblue" points="507.253,-99.3053 516.069,-93.4283 505.512,-92.5252 507.253,-99.3053"/>
</g>
<!-- Node14&#45;&gt;Node14 -->
<g id="edge36" class="edge"><title>Node14&#45;&gt;Node14</title>
<path fill="none" stroke="midnightblue" d="M170.956,-57.7571C159.259,-66.5653 167.273,-76 195,-76 213.196,-76 222.902,-71.9368 224.119,-66.6539"/>
<polygon fill="midnightblue" stroke="midnightblue" points="227.039,-64.7091 219.044,-57.7571 220.959,-68.1775 227.039,-64.7091"/>
</g>
<!-- Node15 -->
<g id="node31" class="node"><title>Node15</title>
<a xlink:href="../../d1/d59/xmpp__stanza_8c.html#a2fb472c6bf9b7f540a97ddc6c11adb74" target="_top" xlink:title="attribute_del">
<polygon fill="none" stroke="black" points="348.5,-38.5 348.5,-57.5 443.5,-57.5 443.5,-38.5 348.5,-38.5"/>
<text text-anchor="middle" x="396" y="-45.5" font-family="DejaVuSansMono" font-size="10.00">attribute_del</text>
</a>
</g>
<!-- Node14&#45;&gt;Node15 -->
<g id="edge32" class="edge"><title>Node14&#45;&gt;Node15</title>
<path fill="none" stroke="midnightblue" d="M248.545,-48C276.133,-48 309.97,-48 338.167,-48"/>
<polygon fill="midnightblue" stroke="midnightblue" points="338.278,-51.5001 348.278,-48 338.278,-44.5001 338.278,-51.5001"/>
</g>
<!-- Node16 -->
<g id="node33" class="node"><title>Node16</title>
<a xlink:href="../../d1/dc2/xmpp__parser_8c.html#a87065f39f10a449e7af17fa45ca475f2" target="_top" xlink:title="xmpp_parser_namespace_del">
<polygon fill="none" stroke="black" points="312.5,-0.5 312.5,-19.5 479.5,-19.5 479.5,-0.5 312.5,-0.5"/>
<text text-anchor="middle" x="396" y="-7.5" font-family="DejaVuSansMono" font-size="10.00">xmpp_parser_namespace_del</text>
</a>
</g>
<!-- Node14&#45;&gt;Node16 -->
<g id="edge34" class="edge"><title>Node14&#45;&gt;Node16</title>
<path fill="none" stroke="midnightblue" d="M245.959,-38.46C273.045,-33.2878 306.708,-26.8599 335.183,-21.4222"/>
<polygon fill="midnightblue" stroke="midnightblue" points="335.854,-24.8575 345.02,-19.5439 334.541,-17.9817 335.854,-24.8575"/>
</g>
</g>
</svg>
        <g id="navigator" transform="translate(0 0)" fill="#404254">
                <rect fill="#f2f5e9" fill-opacity="0.5" stroke="#606060" stroke-width=".5" x="0" y="0" width="60" height="60"/>
                <use id="zoomplus" xlink:href="#zoomPlus" x="17" y="9" onmousedown="handleZoom(evt,'in')"/>
                <use id="zoomminus" xlink:href="#zoomMin" x="42" y="9" onmousedown="handleZoom(evt,'out')"/>
                <use id="reset" xlink:href="#resetDef" x="30" y="36" onmousedown="handleReset()"/>
                <g id="arrowUp" xlink:href="#dirArrow" transform="translate(30 24)" onmousedown="handlePan(0,-1)">
                  <use xlink:href="#rim" fill="#404040">
                        <set attributeName="fill" to="#808080" begin="arrowUp.mouseover" end="arrowUp.mouseout"/>
                  </use>
                  <path fill="none" stroke="white" stroke-width="1.5" d="M0,-3.0v7 M-2.5,-0.5L0,-3.0L2.5,-0.5"/>
                </g>
                <g id="arrowRight" xlink:href="#dirArrow" transform="rotate(90) translate(36 -43)" onmousedown="handlePan(1,0)">
                  <use xlink:href="#rim" fill="#404040">
                        <set attributeName="fill" to="#808080" begin="arrowRight.mouseover" end="arrowRight.mouseout"/>
                  </use>
                  <path fill="none" stroke="white" stroke-width="1.5" d="M0,-3.0v7 M-2.5,-0.5L0,-3.0L2.5,-0.5"/>
                </g>
                <g id="arrowDown" xlink:href="#dirArrow" transform="rotate(180) translate(-30 -48)" onmousedown="handlePan(0,1)">
                  <use xlink:href="#rim" fill="#404040">
                        <set attributeName="fill" to="#808080" begin="arrowDown.mouseover" end="arrowDown.mouseout"/>
                  </use>
                  <path fill="none" stroke="white" stroke-width="1.5" d="M0,-3.0v7 M-2.5,-0.5L0,-3.0L2.5,-0.5"/>
                </g>
                <g id="arrowLeft" xlink:href="#dirArrow" transform="rotate(270) translate(-36 17)" onmousedown="handlePan(-1,0)">
                  <use xlink:href="#rim" fill="#404040">
                        <set attributeName="fill" to="#808080" begin="arrowLeft.mouseover" end="arrowLeft.mouseout"/>
                  </use>
                  <path fill="none" stroke="white" stroke-width="1.5" d="M0,-3.0v7 M-2.5,-0.5L0,-3.0L2.5,-0.5"/>
                </g>
        </g>
        <svg viewBox="0 0 25 25" width="100%" height="30px" preserveAspectRatio="xMaxYMin meet"> 
          <g id="printButton" transform="scale(0.4 0.4)" onmousedown="handlePrint(evt)">
            <rect height="23.33753581" id="paper" rx="2" style="fill:#f2f5e9;fill-rule:evenodd;stroke:#111111;stroke-width:3.224;stroke-linejoin:round;" transform="matrix(1.000000,0.000000,-0.339266,0.940691,0.000000,0.000000)" width="25.55231285" x="26.69387353" y="7.36162977"/>
            <rect height="26.272097" id="body" rx="2" style="fill:#404040;fill-rule:evenodd;stroke:#111111;stroke-width:3.125;stroke-linejoin:round;" width="50" x="4.5295201" y="27.078951"/>
            <rect height="8.27750969" id="tray" style="fill:#d2d5c9;fill-rule:evenodd;stroke:#111111;stroke-width:3.125;stroke-linecap:round;stroke-linejoin:round;" width="40" x="10.28778839" y="44.96812282"/>
          </g>
        </svg>
</svg>
