<?xml version="1.0" encoding="UTF-8" standalone="no"?>
<!DOCTYPE svg PUBLIC "-//W3C//DTD SVG 1.1//EN"
 "http://www.w3.org/Graphics/SVG/1.1/DTD/svg11.dtd">
<!-- Generated by graphviz version 2.28.0 (20120217.0315)
 -->
<!-- Title: G Pages: 1 -->
<!--zoomable 379 -->
<svg id="main" version="1.1" xmlns="http://www.w3.org/2000/svg" xmlns:xlink="http://www.w3.org/1999/xlink" xml:space="preserve" onload="init(evt)">
        <defs>
                <circle id="rim" cx="0" cy="0" r="7"/>
                <circle id="rim2" cx="0" cy="0" r="3.5"/>
                <g id="zoomPlus">
                        <use xlink:href="#rim" fill="#404040">
                                <set attributeName="fill" to="#808080" begin="zoomplus.mouseover" end="zoomplus.mouseout"/>
                        </use>
                        <path d="M-4,0h8M0,-4v8" fill="none" stroke="white" stroke-width="1.5" pointer-events="none"/>
                </g>
                <g id="zoomMin">
                        <use xlink:href="#rim" fill="#404040">
                                <set attributeName="fill" to="#808080" begin="zoomminus.mouseover" end="zoomminus.mouseout"/>
                        </use>
                        <path d="M-4,0h8" fill="none" stroke="white" stroke-width="1.5" pointer-events="none"/>
                </g>
                <g id="dirArrow">
                        <path fill="none" stroke="white" stroke-width="1.5" d="M0,-3.0v7 M-2.5,-0.5L0,-3.0L2.5,-0.5"/>
                </g>
               <g id="resetDef">
                       <use xlink:href="#rim2" fill="#404040">
                               <set attributeName="fill" to="#808080" begin="reset.mouseover" end="reset.mouseout"/>
                       </use>
               </g>
        </defs>

<script type="text/javascript">
var viewWidth = 794;
var viewHeight = 379;
var sectionId = 'dynsection-5';
</script>
<script xlink:href="../../svgpan.js"/>
<svg id="graph" class="graph">
<g id="viewport">
<title>G</title>
<!-- Node1 -->
<g id="node1" class="node"><title>Node1</title>
<polygon fill="#bfbfbf" stroke="black" points="0.5,-180.5 0.5,-199.5 149.5,-199.5 149.5,-180.5 0.5,-180.5"/>
<text text-anchor="middle" x="75" y="-187.5" font-family="DejaVuSansMono" font-size="10.00">xmpp_im_iq_disco_items</text>
</g>
<!-- Node2 -->
<g id="node3" class="node"><title>Node2</title>
<a xlink:href="../../d1/d59/xmpp__stanza_8c.html#a20c90c791fa856784f2d43c9f44f1d3c" target="_top" xlink:title="Returns the value of an attribute of this stanza.">
<polygon fill="none" stroke="black" points="447.5,-199.5 447.5,-218.5 560.5,-218.5 560.5,-199.5 447.5,-199.5"/>
<text text-anchor="middle" x="504" y="-206.5" font-family="DejaVuSansMono" font-size="10.00">xmpp_stanza_attr</text>
</a>
</g>
<!-- Node1&#45;&gt;Node2 -->
<g id="edge2" class="edge"><title>Node1&#45;&gt;Node2</title>
<path fill="none" stroke="midnightblue" d="M149.89,-193.288C230.872,-196.891 359.576,-202.618 437.199,-206.072"/>
<polygon fill="midnightblue" stroke="midnightblue" points="437.191,-209.575 447.337,-206.523 437.502,-202.582 437.191,-209.575"/>
</g>
<!-- Node3 -->
<g id="node5" class="node"><title>Node3</title>
<a xlink:href="../../d1/d59/xmpp__stanza_8c.html#af1ad00a6a75789396a933dfc0ed9c1f5" target="_top" xlink:title="Returns a pointer to the first child stanza.">
<polygon fill="none" stroke="black" points="216.5,-123.5 216.5,-142.5 353.5,-142.5 353.5,-123.5 216.5,-123.5"/>
<text text-anchor="middle" x="285" y="-130.5" font-family="DejaVuSansMono" font-size="10.00">xmpp_stanza_children</text>
</a>
</g>
<!-- Node1&#45;&gt;Node3 -->
<g id="edge4" class="edge"><title>Node1&#45;&gt;Node3</title>
<path fill="none" stroke="midnightblue" d="M100.591,-180.385C122.683,-172.018 156.142,-160.009 186,-152 196.148,-149.278 206.986,-146.78 217.617,-144.552"/>
<polygon fill="midnightblue" stroke="midnightblue" points="218.615,-147.921 227.718,-142.5 217.221,-141.061 218.615,-147.921"/>
</g>
<!-- Node4 -->
<g id="node7" class="node"><title>Node4</title>
<a xlink:href="../../d1/d59/xmpp__stanza_8c.html#a10c606a11c37c01bf59881827dc2229a" target="_top" xlink:title="Returns the name of the tag of this stanza (message/presence/IQ)">
<polygon fill="none" stroke="black" points="228.5,-85.5 228.5,-104.5 341.5,-104.5 341.5,-85.5 228.5,-85.5"/>
<text text-anchor="middle" x="285" y="-92.5" font-family="DejaVuSansMono" font-size="10.00">xmpp_stanza_name</text>
</a>
</g>
<!-- Node1&#45;&gt;Node4 -->
<g id="edge6" class="edge"><title>Node1&#45;&gt;Node4</title>
<path fill="none" stroke="midnightblue" d="M86.6457,-180.342C105.306,-163.974 145.773,-130.915 186,-114 196.152,-109.731 207.303,-106.411 218.33,-103.831"/>
<polygon fill="midnightblue" stroke="midnightblue" points="219.352,-107.191 228.391,-101.664 217.879,-100.348 219.352,-107.191"/>
</g>
<!-- Node5 -->
<g id="node9" class="node"><title>Node5</title>
<a xlink:href="../../d1/d59/xmpp__stanza_8c.html#aa80dd21d794b5c63fcb13c49745cc373" target="_top" xlink:title="Allocate and initialize a new XMPP stanza structure.">
<polygon fill="none" stroke="black" points="450.5,-313.5 450.5,-332.5 557.5,-332.5 557.5,-313.5 450.5,-313.5"/>
<text text-anchor="middle" x="504" y="-320.5" font-family="DejaVuSansMono" font-size="10.00">xmpp_stanza_new</text>
</a>
</g>
<!-- Node1&#45;&gt;Node5 -->
<g id="edge8" class="edge"><title>Node1&#45;&gt;Node5</title>
<path fill="none" stroke="midnightblue" d="M82.6401,-199.543C97.9912,-220.727 138.297,-271.499 186,-293 268.043,-329.978 373.93,-332.059 440.159,-328.671"/>
<polygon fill="midnightblue" stroke="midnightblue" points="440.654,-332.149 450.438,-328.085 440.255,-325.16 440.654,-332.149"/>
</g>
<!-- Node8 -->
<g id="node15" class="node"><title>Node8</title>
<a xlink:href="../../d1/d59/xmpp__stanza_8c.html#ac13c8bb45e2ca03b99836e8d52b265b4" target="_top" xlink:title="Appends a child stanza.">
<polygon fill="none" stroke="black" points="423.5,-275.5 423.5,-294.5 584.5,-294.5 584.5,-275.5 423.5,-275.5"/>
<text text-anchor="middle" x="504" y="-282.5" font-family="DejaVuSansMono" font-size="10.00">xmpp_stanza_append_child</text>
</a>
</g>
<!-- Node1&#45;&gt;Node8 -->
<g id="edge14" class="edge"><title>Node1&#45;&gt;Node8</title>
<path fill="none" stroke="midnightblue" d="M85.851,-199.682C103.91,-216.719 144.309,-251.616 186,-266 259.466,-291.347 348.137,-294.542 412.995,-292.294"/>
<polygon fill="midnightblue" stroke="midnightblue" points="413.341,-295.783 423.194,-291.889 413.063,-288.788 413.341,-295.783"/>
</g>
<!-- Node10 -->
<g id="node19" class="node"><title>Node10</title>
<a xlink:href="../../d0/df0/xmpp__server_8c.html#ae539771fafbb092bcd304e4e063370aa" target="_top" xlink:title="Append to the given stanza all the items set on this server.">
<polygon fill="none" stroke="black" points="186.5,-237.5 186.5,-256.5 383.5,-256.5 383.5,-237.5 186.5,-237.5"/>
<text text-anchor="middle" x="285" y="-244.5" font-family="DejaVuSansMono" font-size="10.00">xmpp_server_append_disco_items</text>
</a>
</g>
<!-- Node1&#45;&gt;Node10 -->
<g id="edge18" class="edge"><title>Node1&#45;&gt;Node10</title>
<path fill="none" stroke="midnightblue" d="M106.228,-199.524C128.26,-206.354 158.875,-215.615 186,-223 201.251,-227.152 217.926,-231.359 233.127,-235.066"/>
<polygon fill="midnightblue" stroke="midnightblue" points="232.331,-238.474 242.873,-237.424 233.977,-231.671 232.331,-238.474"/>
</g>
<!-- Node12 -->
<g id="node25" class="node"><title>Node12</title>
<a xlink:href="../../d0/df0/xmpp__server_8c.html#a6d3f7e5e289f785b1c8c52f95068c627" target="_top" xlink:title="Deliver a stanza to a registered callback function.">
<polygon fill="none" stroke="black" points="204.5,-161.5 204.5,-180.5 365.5,-180.5 365.5,-161.5 204.5,-161.5"/>
<text text-anchor="middle" x="285" y="-168.5" font-family="DejaVuSansMono" font-size="10.00">xmpp_server_route_stanza</text>
</a>
</g>
<!-- Node1&#45;&gt;Node12 -->
<g id="edge26" class="edge"><title>Node1&#45;&gt;Node12</title>
<path fill="none" stroke="midnightblue" d="M149.626,-183.275C164.059,-181.956 179.347,-180.56 194.238,-179.199"/>
<polygon fill="midnightblue" stroke="midnightblue" points="194.829,-182.66 204.469,-178.265 194.192,-175.689 194.829,-182.66"/>
</g>
<!-- Node17 -->
<g id="node38" class="node"><title>Node17</title>
<a xlink:href="../../d1/d59/xmpp__stanza_8c.html#af40757ae1d137034570b1bb33303d024" target="_top" xlink:title="Cleans up and frees an XMPP stanza.">
<polygon fill="none" stroke="black" points="231.5,-29.5 231.5,-48.5 338.5,-48.5 338.5,-29.5 231.5,-29.5"/>
<text text-anchor="middle" x="285" y="-36.5" font-family="DejaVuSansMono" font-size="10.00">xmpp_stanza_del</text>
</a>
</g>
<!-- Node1&#45;&gt;Node17 -->
<g id="edge42" class="edge"><title>Node1&#45;&gt;Node17</title>
<path fill="none" stroke="midnightblue" d="M82.8924,-180.363C98.7599,-158.811 140.054,-106.242 186,-76 201.619,-65.7192 220.501,-57.7281 237.504,-51.8459"/>
<polygon fill="midnightblue" stroke="midnightblue" points="238.862,-55.0837 247.26,-48.6248 236.667,-48.4366 238.862,-55.0837"/>
</g>
<!-- Node6 -->
<g id="node11" class="node"><title>Node6</title>
<a xlink:href="../../d1/d59/xmpp__stanza_8c.html#a5a80203f56df7a360fa457c0111686f6" target="_top" xlink:title="Parse the namespace triple that Expat gives us.">
<polygon fill="none" stroke="black" points="672.5,-313.5 672.5,-332.5 737.5,-332.5 737.5,-313.5 672.5,-313.5"/>
<text text-anchor="middle" x="705" y="-320.5" font-family="DejaVuSansMono" font-size="10.00">parse_ns</text>
</a>
</g>
<!-- Node5&#45;&gt;Node6 -->
<g id="edge10" class="edge"><title>Node5&#45;&gt;Node6</title>
<path fill="none" stroke="midnightblue" d="M557.545,-323C590.198,-323 631.606,-323 662.054,-323"/>
<polygon fill="midnightblue" stroke="midnightblue" points="662.335,-326.5 672.335,-323 662.335,-319.5 662.335,-326.5"/>
</g>
<!-- Node7 -->
<g id="node13" class="node"><title>Node7</title>
<a xlink:href="../../d1/d59/xmpp__stanza_8c.html#aff4b8f6e10ce1c351d2a5bc39f0e819f" target="_top" xlink:title="Convenience function to build a key for the attribute hash table.">
<polygon fill="none" stroke="black" points="672.5,-351.5 672.5,-370.5 737.5,-370.5 737.5,-351.5 672.5,-351.5"/>
<text text-anchor="middle" x="705" y="-358.5" font-family="DejaVuSansMono" font-size="10.00">make_key</text>
</a>
</g>
<!-- Node5&#45;&gt;Node7 -->
<g id="edge12" class="edge"><title>Node5&#45;&gt;Node7</title>
<path fill="none" stroke="midnightblue" d="M554.959,-332.54C588.06,-338.861 630.981,-347.057 662.256,-353.029"/>
<polygon fill="midnightblue" stroke="midnightblue" points="661.906,-356.525 672.385,-354.963 663.219,-349.649 661.906,-356.525"/>
</g>
<!-- Node9 -->
<g id="node17" class="node"><title>Node9</title>
<a xlink:href="../../d1/d59/xmpp__stanza_8c.html#afc77f00b7f38c79566a7b16876230e30" target="_top" xlink:title="Removes a child stanza.">
<polygon fill="none" stroke="black" points="624.5,-275.5 624.5,-294.5 785.5,-294.5 785.5,-275.5 624.5,-275.5"/>
<text text-anchor="middle" x="705" y="-282.5" font-family="DejaVuSansMono" font-size="10.00">xmpp_stanza_remove_child</text>
</a>
</g>
<!-- Node8&#45;&gt;Node9 -->
<g id="edge16" class="edge"><title>Node8&#45;&gt;Node9</title>
<path fill="none" stroke="midnightblue" d="M584.508,-285C594.23,-285 604.218,-285 614.079,-285"/>
<polygon fill="midnightblue" stroke="midnightblue" points="614.294,-288.5 624.294,-285 614.293,-281.5 614.294,-288.5"/>
</g>
<!-- Node10&#45;&gt;Node5 -->
<g id="edge22" class="edge"><title>Node10&#45;&gt;Node5</title>
<path fill="none" stroke="midnightblue" d="M305.558,-256.621C331.289,-268.974 378.156,-290.429 420,-304 427.984,-306.589 436.51,-308.965 444.944,-311.094"/>
<polygon fill="midnightblue" stroke="midnightblue" points="444.222,-314.52 454.765,-313.478 445.873,-307.718 444.222,-314.52"/>
</g>
<!-- Node10&#45;&gt;Node8 -->
<g id="edge24" class="edge"><title>Node10&#45;&gt;Node8</title>
<path fill="none" stroke="midnightblue" d="M340.478,-256.54C370.272,-261.757 407.363,-268.253 438.585,-273.72"/>
<polygon fill="midnightblue" stroke="midnightblue" points="438.046,-277.179 448.499,-275.456 439.253,-270.284 438.046,-277.179"/>
</g>
<!-- Node11 -->
<g id="node21" class="node"><title>Node11</title>
<a xlink:href="../../d3/d5a/jid_8c.html#a3d51f2b27d20189e523b0d0b2a77e4a9" target="_top" xlink:title="Converts a JID to a newly allocated string.">
<polygon fill="none" stroke="black" points="465.5,-237.5 465.5,-256.5 542.5,-256.5 542.5,-237.5 465.5,-237.5"/>
<text text-anchor="middle" x="504" y="-244.5" font-family="DejaVuSansMono" font-size="10.00">jid_to_str</text>
</a>
</g>
<!-- Node10&#45;&gt;Node11 -->
<g id="edge20" class="edge"><title>Node10&#45;&gt;Node11</title>
<path fill="none" stroke="midnightblue" d="M383.708,-247C408.537,-247 434.127,-247 455.209,-247"/>
<polygon fill="midnightblue" stroke="midnightblue" points="455.482,-250.5 465.482,-247 455.482,-243.5 455.482,-250.5"/>
</g>
<!-- Node12&#45;&gt;Node2 -->
<g id="edge34" class="edge"><title>Node12&#45;&gt;Node2</title>
<path fill="none" stroke="midnightblue" d="M340.478,-180.54C370.272,-185.757 407.363,-192.253 438.585,-197.72"/>
<polygon fill="midnightblue" stroke="midnightblue" points="438.046,-201.179 448.499,-199.456 439.253,-194.284 438.046,-201.179"/>
</g>
<!-- Node12&#45;&gt;Node11 -->
<g id="edge36" class="edge"><title>Node12&#45;&gt;Node11</title>
<path fill="none" stroke="midnightblue" d="M305.558,-180.621C331.289,-192.974 378.156,-214.429 420,-228 431.311,-231.668 443.708,-234.907 455.392,-237.624"/>
<polygon fill="midnightblue" stroke="midnightblue" points="454.908,-241.103 465.431,-239.875 456.44,-234.272 454.908,-241.103"/>
</g>
<!-- Node13 -->
<g id="node27" class="node"><title>Node13</title>
<a xlink:href="../../d3/d5a/jid_8c.html#a0151ea37a9f52813a8d48d2b7eec2044" target="_top" xlink:title="Allocate and initialize a new JID from an existing JID string.">
<polygon fill="none" stroke="black" points="447.5,-161.5 447.5,-180.5 560.5,-180.5 560.5,-161.5 447.5,-161.5"/>
<text text-anchor="middle" x="504" y="-168.5" font-family="DejaVuSansMono" font-size="10.00">jid_new_from_str</text>
</a>
</g>
<!-- Node12&#45;&gt;Node13 -->
<g id="edge28" class="edge"><title>Node12&#45;&gt;Node13</title>
<path fill="none" stroke="midnightblue" d="M365.571,-171C389.067,-171 414.516,-171 437.055,-171"/>
<polygon fill="midnightblue" stroke="midnightblue" points="437.188,-174.5 447.188,-171 437.188,-167.5 437.188,-174.5"/>
</g>
<!-- Node15 -->
<g id="node31" class="node"><title>Node15</title>
<a xlink:href="../../d3/d5a/jid_8c.html#ab83fd5aae95de2c9d38fb9d9cd161580" target="_top" xlink:title="Cleans up and frees an existing JID.">
<polygon fill="none" stroke="black" points="675.5,-123.5 675.5,-142.5 734.5,-142.5 734.5,-123.5 675.5,-123.5"/>
<text text-anchor="middle" x="705" y="-130.5" font-family="DejaVuSansMono" font-size="10.00">jid_del</text>
</a>
</g>
<!-- Node12&#45;&gt;Node15 -->
<g id="edge40" class="edge"><title>Node12&#45;&gt;Node15</title>
<path fill="none" stroke="midnightblue" d="M346.251,-161.489C369.279,-158.109 395.812,-154.52 420,-152 507.317,-142.901 610.216,-137.281 665.019,-134.693"/>
<polygon fill="midnightblue" stroke="midnightblue" points="665.492,-138.175 675.319,-134.216 665.168,-131.182 665.492,-138.175"/>
</g>
<!-- Node16 -->
<g id="node35" class="node"><title>Node16</title>
<a xlink:href="../../d3/d5a/jid_8c.html#a5b2f969326a86fa7e585f633d7b0f565" target="_top" xlink:title="Compare two JIDs with wildcard matches.">
<polygon fill="none" stroke="black" points="444.5,-85.5 444.5,-104.5 563.5,-104.5 563.5,-85.5 444.5,-85.5"/>
<text text-anchor="middle" x="504" y="-92.5" font-family="DejaVuSansMono" font-size="10.00">jid_cmp_wildcards</text>
</a>
</g>
<!-- Node12&#45;&gt;Node16 -->
<g id="edge38" class="edge"><title>Node12&#45;&gt;Node16</title>
<path fill="none" stroke="midnightblue" d="M359.212,-161.465C367.807,-159 376.261,-155.899 384,-152 403.384,-142.233 401.075,-129.628 420,-119 428.068,-114.469 437.067,-110.728 446.08,-107.66"/>
<polygon fill="midnightblue" stroke="midnightblue" points="447.337,-110.933 455.822,-104.588 445.233,-104.257 447.337,-110.933"/>
</g>
<!-- Node14 -->
<g id="node29" class="node"><title>Node14</title>
<a xlink:href="../../d3/d5a/jid_8c.html#abd2028a1e581e6374acaa6beaf6e5413" target="_top" xlink:title="Allocate and initialize a new blank JID.">
<polygon fill="none" stroke="black" points="675.5,-161.5 675.5,-180.5 734.5,-180.5 734.5,-161.5 675.5,-161.5"/>
<text text-anchor="middle" x="705" y="-168.5" font-family="DejaVuSansMono" font-size="10.00">jid_new</text>
</a>
</g>
<!-- Node13&#45;&gt;Node14 -->
<g id="edge30" class="edge"><title>Node13&#45;&gt;Node14</title>
<path fill="none" stroke="midnightblue" d="M560.697,-171C594.022,-171 635.538,-171 665.293,-171"/>
<polygon fill="midnightblue" stroke="midnightblue" points="665.294,-174.5 675.294,-171 665.294,-167.5 665.294,-174.5"/>
</g>
<!-- Node13&#45;&gt;Node15 -->
<g id="edge32" class="edge"><title>Node13&#45;&gt;Node15</title>
<path fill="none" stroke="midnightblue" d="M554.959,-161.46C589.094,-154.942 633.673,-146.429 665.154,-140.418"/>
<polygon fill="midnightblue" stroke="midnightblue" points="666.128,-143.795 675.294,-138.482 664.815,-136.919 666.128,-143.795"/>
</g>
<!-- Node17&#45;&gt;Node17 -->
<g id="edge48" class="edge"><title>Node17&#45;&gt;Node17</title>
<path fill="none" stroke="midnightblue" d="M252.895,-48.6119C236.769,-57.4613 247.471,-67 285,-67 312.561,-67 325.653,-61.8557 324.277,-55.618"/>
<polygon fill="midnightblue" stroke="midnightblue" points="326.704,-53.0963 317.105,-48.6119 321.813,-58.1036 326.704,-53.0963"/>
</g>
<!-- Node18 -->
<g id="node40" class="node"><title>Node18</title>
<a xlink:href="../../d1/d59/xmpp__stanza_8c.html#a2fb472c6bf9b7f540a97ddc6c11adb74" target="_top" xlink:title="attribute_del">
<polygon fill="none" stroke="black" points="456.5,-0.5 456.5,-19.5 551.5,-19.5 551.5,-0.5 456.5,-0.5"/>
<text text-anchor="middle" x="504" y="-7.5" font-family="DejaVuSansMono" font-size="10.00">attribute_del</text>
</a>
</g>
<!-- Node17&#45;&gt;Node18 -->
<g id="edge44" class="edge"><title>Node17&#45;&gt;Node18</title>
<path fill="none" stroke="midnightblue" d="M338.53,-31.9799C371.154,-27.62 413.075,-22.0176 446.429,-17.5602"/>
<polygon fill="midnightblue" stroke="midnightblue" points="447.037,-21.0101 456.486,-16.2162 446.11,-14.0718 447.037,-21.0101"/>
</g>
<!-- Node19 -->
<g id="node42" class="node"><title>Node19</title>
<a xlink:href="../../d1/dc2/xmpp__parser_8c.html#a87065f39f10a449e7af17fa45ca475f2" target="_top" xlink:title="xmpp_parser_namespace_del">
<polygon fill="none" stroke="black" points="420.5,-38.5 420.5,-57.5 587.5,-57.5 587.5,-38.5 420.5,-38.5"/>
<text text-anchor="middle" x="504" y="-45.5" font-family="DejaVuSansMono" font-size="10.00">xmpp_parser_namespace_del</text>
</a>
</g>
<!-- Node17&#45;&gt;Node19 -->
<g id="edge46" class="edge"><title>Node17&#45;&gt;Node19</title>
<path fill="none" stroke="midnightblue" d="M338.53,-41.1786C360.137,-42.0748 385.824,-43.1402 410.398,-44.1594"/>
<polygon fill="midnightblue" stroke="midnightblue" points="410.342,-47.6599 420.478,-44.5774 410.632,-40.666 410.342,-47.6599"/>
</g>
</g>
</svg>
        <g id="navigator" transform="translate(0 0)" fill="#404254">
                <rect fill="#f2f5e9" fill-opacity="0.5" stroke="#606060" stroke-width=".5" x="0" y="0" width="60" height="60"/>
                <use id="zoomplus" xlink:href="#zoomPlus" x="17" y="9" onmousedown="handleZoom(evt,'in')"/>
                <use id="zoomminus" xlink:href="#zoomMin" x="42" y="9" onmousedown="handleZoom(evt,'out')"/>
                <use id="reset" xlink:href="#resetDef" x="30" y="36" onmousedown="handleReset()"/>
                <g id="arrowUp" xlink:href="#dirArrow" transform="translate(30 24)" onmousedown="handlePan(0,-1)">
                  <use xlink:href="#rim" fill="#404040">
                        <set attributeName="fill" to="#808080" begin="arrowUp.mouseover" end="arrowUp.mouseout"/>
                  </use>
                  <path fill="none" stroke="white" stroke-width="1.5" d="M0,-3.0v7 M-2.5,-0.5L0,-3.0L2.5,-0.5"/>
                </g>
                <g id="arrowRight" xlink:href="#dirArrow" transform="rotate(90) translate(36 -43)" onmousedown="handlePan(1,0)">
                  <use xlink:href="#rim" fill="#404040">
                        <set attributeName="fill" to="#808080" begin="arrowRight.mouseover" end="arrowRight.mouseout"/>
                  </use>
                  <path fill="none" stroke="white" stroke-width="1.5" d="M0,-3.0v7 M-2.5,-0.5L0,-3.0L2.5,-0.5"/>
                </g>
                <g id="arrowDown" xlink:href="#dirArrow" transform="rotate(180) translate(-30 -48)" onmousedown="handlePan(0,1)">
                  <use xlink:href="#rim" fill="#404040">
                        <set attributeName="fill" to="#808080" begin="arrowDown.mouseover" end="arrowDown.mouseout"/>
                  </use>
                  <path fill="none" stroke="white" stroke-width="1.5" d="M0,-3.0v7 M-2.5,-0.5L0,-3.0L2.5,-0.5"/>
                </g>
                <g id="arrowLeft" xlink:href="#dirArrow" transform="rotate(270) translate(-36 17)" onmousedown="handlePan(-1,0)">
                  <use xlink:href="#rim" fill="#404040">
                        <set attributeName="fill" to="#808080" begin="arrowLeft.mouseover" end="arrowLeft.mouseout"/>
                  </use>
                  <path fill="none" stroke="white" stroke-width="1.5" d="M0,-3.0v7 M-2.5,-0.5L0,-3.0L2.5,-0.5"/>
                </g>
        </g>
        <svg viewBox="0 0 25 25" width="100%" height="30px" preserveAspectRatio="xMaxYMin meet"> 
          <g id="printButton" transform="scale(0.4 0.4)" onmousedown="handlePrint(evt)">
            <rect height="23.33753581" id="paper" rx="2" style="fill:#f2f5e9;fill-rule:evenodd;stroke:#111111;stroke-width:3.224;stroke-linejoin:round;" transform="matrix(1.000000,0.000000,-0.339266,0.940691,0.000000,0.000000)" width="25.55231285" x="26.69387353" y="7.36162977"/>
            <rect height="26.272097" id="body" rx="2" style="fill:#404040;fill-rule:evenodd;stroke:#111111;stroke-width:3.125;stroke-linejoin:round;" width="50" x="4.5295201" y="27.078951"/>
            <rect height="8.27750969" id="tray" style="fill:#d2d5c9;fill-rule:evenodd;stroke:#111111;stroke-width:3.125;stroke-linecap:round;stroke-linejoin:round;" width="40" x="10.28778839" y="44.96812282"/>
          </g>
        </svg>
</svg>
