<?xml version="1.0" encoding="UTF-8" standalone="no"?>
<!DOCTYPE svg PUBLIC "-//W3C//DTD SVG 1.1//EN"
 "http://www.w3.org/Graphics/SVG/1.1/DTD/svg11.dtd">
<!-- Generated by graphviz version 2.28.0 (20120217.0315)
 -->
<!-- Title: G Pages: 1 -->
<svg width="464pt" height="28pt"
 viewBox="0.00 0.00 464.00 28.00" xmlns="http://www.w3.org/2000/svg" xmlns:xlink="http://www.w3.org/1999/xlink">
<g id="graph1" class="graph" transform="scale(1 1) rotate(0) translate(4 24)">
<title>G</title>
<!-- Node1 -->
<g id="node1" class="node"><title>Node1</title>
<polygon fill="#bfbfbf" stroke="black" points="0.5,-0.5 0.5,-19.5 77.5,-19.5 77.5,-0.5 0.5,-0.5"/>
<text text-anchor="middle" x="39" y="-7.5" font-family="DejaVuSansMono" font-size="10.00">get_roster</text>
</g>
<!-- Node2 -->
<g id="node3" class="node"><title>Node2</title>
<a xlink:href="../../d9/dd7/xmpp__im_8h.html#a40f3cf6fffd6aafe9c7cde476fdbc9c2" target="_top" xlink:title="IQ stanza callback for handing a roster query.">
<polygon fill="none" stroke="black" points="114.5,-0.5 114.5,-19.5 233.5,-19.5 233.5,-0.5 114.5,-0.5"/>
<text text-anchor="middle" x="174" y="-7.5" font-family="DejaVuSansMono" font-size="10.00">xmpp_im_iq_roster</text>
</a>
</g>
<!-- Node1&#45;&gt;Node2 -->
<g id="edge2" class="edge"><title>Node1&#45;&gt;Node2</title>
<path fill="none" stroke="midnightblue" d="M87.9187,-10C96.4654,-10 105.457,-10 114.265,-10"/>
<polygon fill="midnightblue" stroke="midnightblue" points="87.7567,-6.5001 77.7567,-10 87.7567,-13.5001 87.7567,-6.5001"/>
</g>
<!-- Node3 -->
<g id="node5" class="node"><title>Node3</title>
<a xlink:href="../../d1/d2e/xmpp__server_8h.html#a27bfc8e4d424a8bc17ab21a4a09cdf92" target="_top" xlink:title="Allocates and initializes the XMPP server.">
<polygon fill="none" stroke="black" points="270.5,-0.5 270.5,-19.5 377.5,-19.5 377.5,-0.5 270.5,-0.5"/>
<text text-anchor="middle" x="324" y="-7.5" font-family="DejaVuSansMono" font-size="10.00">xmpp_server_new</text>
</a>
</g>
<!-- Node2&#45;&gt;Node3 -->
<g id="edge4" class="edge"><title>Node2&#45;&gt;Node3</title>
<path fill="none" stroke="midnightblue" d="M244.085,-10C252.806,-10 261.619,-10 270.036,-10"/>
<polygon fill="midnightblue" stroke="midnightblue" points="243.919,-6.5001 233.919,-10 243.919,-13.5001 243.919,-6.5001"/>
</g>
<!-- Node4 -->
<g id="node7" class="node"><title>Node4</title>
<a xlink:href="../../d0/d29/main_8c.html#a0ddf1224851353fc92bfbff6f499fa97" target="_top" xlink:title="main">
<polygon fill="none" stroke="black" points="414.5,-0.5 414.5,-19.5 455.5,-19.5 455.5,-0.5 414.5,-0.5"/>
<text text-anchor="middle" x="435" y="-7.5" font-family="DejaVuSansMono" font-size="10.00">main</text>
</a>
</g>
<!-- Node3&#45;&gt;Node4 -->
<g id="edge6" class="edge"><title>Node3&#45;&gt;Node4</title>
<path fill="none" stroke="midnightblue" d="M387.751,-10C397.434,-10 406.761,-10 414.472,-10"/>
<polygon fill="midnightblue" stroke="midnightblue" points="387.584,-6.5001 377.584,-10 387.584,-13.5001 387.584,-6.5001"/>
</g>
</g>
</svg>
