<?xml version="1.0" encoding="UTF-8" standalone="no"?>
<!DOCTYPE svg PUBLIC "-//W3C//DTD SVG 1.1//EN"
 "http://www.w3.org/Graphics/SVG/1.1/DTD/svg11.dtd">
<!-- Generated by graphviz version 2.28.0 (20120217.0315)
 -->
<!-- Title: G Pages: 1 -->
<!--zoomable 364 -->
<svg id="main" version="1.1" xmlns="http://www.w3.org/2000/svg" xmlns:xlink="http://www.w3.org/1999/xlink" xml:space="preserve" onload="init(evt)">
        <defs>
                <circle id="rim" cx="0" cy="0" r="7"/>
                <circle id="rim2" cx="0" cy="0" r="3.5"/>
                <g id="zoomPlus">
                        <use xlink:href="#rim" fill="#404040">
                                <set attributeName="fill" to="#808080" begin="zoomplus.mouseover" end="zoomplus.mouseout"/>
                        </use>
                        <path d="M-4,0h8M0,-4v8" fill="none" stroke="white" stroke-width="1.5" pointer-events="none"/>
                </g>
                <g id="zoomMin">
                        <use xlink:href="#rim" fill="#404040">
                                <set attributeName="fill" to="#808080" begin="zoomminus.mouseover" end="zoomminus.mouseout"/>
                        </use>
                        <path d="M-4,0h8" fill="none" stroke="white" stroke-width="1.5" pointer-events="none"/>
                </g>
                <g id="dirArrow">
                        <path fill="none" stroke="white" stroke-width="1.5" d="M0,-3.0v7 M-2.5,-0.5L0,-3.0L2.5,-0.5"/>
                </g>
               <g id="resetDef">
                       <use xlink:href="#rim2" fill="#404040">
                               <set attributeName="fill" to="#808080" begin="reset.mouseover" end="reset.mouseout"/>
                       </use>
               </g>
        </defs>

<script type="text/javascript">
var viewWidth = 2048;
var viewHeight = 364;
var sectionId = 'dynsection-7';
</script>
<script xlink:href="../../svgpan.js"/>
<svg id="graph" class="graph">
<g id="viewport">
<title>G</title>
<!-- Node1 -->
<g id="node1" class="node"><title>Node1</title>
<polygon fill="#bfbfbf" stroke="black" points="0.5,-190.5 0.5,-209.5 125.5,-209.5 125.5,-190.5 0.5,-190.5"/>
<text text-anchor="middle" x="63" y="-197.5" font-family="DejaVuSansMono" font-size="10.00">xmpp_client_server</text>
</g>
<!-- Node2 -->
<g id="node3" class="node"><title>Node2</title>
<a xlink:href="../../d3/d24/xmpp__auth_8h.html#ad3efd9ab093646bdfd8832c34ae2de4d" target="_top" xlink:title="Handler for the inital stream start to begin authentication.">
<polygon fill="none" stroke="black" points="1380.5,-247.5 1380.5,-266.5 1529.5,-266.5 1529.5,-247.5 1380.5,-247.5"/>
<text text-anchor="middle" x="1455" y="-254.5" font-family="DejaVuSansMono" font-size="10.00">xmpp_auth_stream_start</text>
</a>
</g>
<!-- Node1&#45;&gt;Node2 -->
<g id="edge2" class="edge"><title>Node1&#45;&gt;Node2</title>
<path fill="none" stroke="midnightblue" d="M75.449,-218.388C91.5428,-242.484 123.267,-284.018 162,-304 300.364,-375.38 353.309,-352 509,-352 509,-352 509,-352 1141,-352 1257.7,-352 1388.73,-290.784 1435.89,-266.632"/>
<polygon fill="midnightblue" stroke="midnightblue" points="78.2623,-216.293 69.8863,-209.805 72.3881,-220.101 78.2623,-216.293"/>
</g>
<!-- Node7 -->
<g id="node13" class="node"><title>Node7</title>
<a xlink:href="../../df/da9/xmpp__auth_8c.html#a8dd789e057b9812e4dd1aa524dfb6a65" target="_top" xlink:title="Begins TLS authentication.">
<polygon fill="none" stroke="black" points="1236.5,-266.5 1236.5,-285.5 1343.5,-285.5 1343.5,-266.5 1236.5,-266.5"/>
<text text-anchor="middle" x="1290" y="-273.5" font-family="DejaVuSansMono" font-size="10.00">handle_starttls</text>
</a>
</g>
<!-- Node1&#45;&gt;Node7 -->
<g id="edge12" class="edge"><title>Node1&#45;&gt;Node7</title>
<path fill="none" stroke="midnightblue" d="M82.1762,-216.335C100.802,-232.077 131.306,-255.195 162,-267 307.258,-322.865 353.37,-314 509,-314 509,-314 509,-314 985,-314 1080.93,-314 1105.14,-309.263 1200,-295 1216.25,-292.557 1233.98,-288.963 1249.32,-285.557"/>
<polygon fill="midnightblue" stroke="midnightblue" points="84.3479,-213.585 74.496,-209.688 79.767,-218.879 84.3479,-213.585"/>
</g>
<!-- Node8 -->
<g id="node16" class="node"><title>Node8</title>
<a xlink:href="../../df/da9/xmpp__auth_8c.html#afb770a216868aa3fb43813b19d2a0115" target="_top" xlink:title="Begins SASL PLAIN authentication.">
<polygon fill="none" stroke="black" points="924.5,-247.5 924.5,-266.5 1043.5,-266.5 1043.5,-247.5 924.5,-247.5"/>
<text text-anchor="middle" x="984" y="-254.5" font-family="DejaVuSansMono" font-size="10.00">handle_sasl_plain</text>
</a>
</g>
<!-- Node1&#45;&gt;Node8 -->
<g id="edge16" class="edge"><title>Node1&#45;&gt;Node8</title>
<path fill="none" stroke="midnightblue" d="M96.5336,-213.25C115.367,-220.421 139.691,-228.842 162,-234 313.356,-268.992 353.652,-276 509,-276 509,-276 509,-276 679,-276 764.402,-276 863.038,-268.438 924.221,-262.856"/>
<polygon fill="midnightblue" stroke="midnightblue" points="97.5435,-209.887 86.9546,-209.531 95.0099,-216.413 97.5435,-209.887"/>
</g>
<!-- Node10 -->
<g id="node22" class="node"><title>Node10</title>
<a xlink:href="../../df/da9/xmpp__auth_8c.html#a603b4a63af3c4e4af99442805fe89ae8" target="_top" xlink:title="Step 15: Client binds a resource.">
<polygon fill="none" stroke="black" points="627.5,-199.5 627.5,-218.5 728.5,-218.5 728.5,-199.5 627.5,-199.5"/>
<text text-anchor="middle" x="678" y="-206.5" font-family="DejaVuSansMono" font-size="10.00">handle_bind_iq</text>
</a>
</g>
<!-- Node1&#45;&gt;Node10 -->
<g id="edge24" class="edge"><title>Node1&#45;&gt;Node10</title>
<path fill="none" stroke="midnightblue" d="M132.085,-210.829C142.095,-212.101 152.299,-213.22 162,-214 350.738,-229.171 398.95,-229.587 588,-219 600.73,-218.287 614.436,-217.005 627.187,-215.591"/>
<polygon fill="midnightblue" stroke="midnightblue" points="132.539,-207.359 122.166,-209.515 131.619,-214.298 132.539,-207.359"/>
</g>
<!-- Node12 -->
<g id="node27" class="node"><title>Node12</title>
<a xlink:href="../../d8/d28/xmpp__core_8h.html#ae6da3d9438fd752c4afd6e50a6af9b66" target="_top" xlink:title="An xmpp_parser handler for stanzas from a local client.">
<polygon fill="none" stroke="black" points="432.5,-190.5 432.5,-209.5 587.5,-209.5 587.5,-190.5 432.5,-190.5"/>
<text text-anchor="middle" x="510" y="-197.5" font-family="DejaVuSansMono" font-size="10.00">xmpp_core_handle_stanza</text>
</a>
</g>
<!-- Node1&#45;&gt;Node12 -->
<g id="edge30" class="edge"><title>Node1&#45;&gt;Node12</title>
<path fill="none" stroke="midnightblue" d="M136.027,-200C217.363,-200 349.181,-200 432.367,-200"/>
<polygon fill="midnightblue" stroke="midnightblue" points="135.875,-196.5 125.875,-200 135.875,-203.5 135.875,-196.5"/>
</g>
<!-- Node13 -->
<g id="node30" class="node"><title>Node13</title>
<a xlink:href="../../d1/d2e/xmpp__server_8h.html#a68a2a60f0e4a333e4262e4cebbf85d72" target="_top" xlink:title="Add a callback to be notified when a client disconnects.">
<polygon fill="none" stroke="black" points="177.5,-76.5 177.5,-95.5 380.5,-95.5 380.5,-76.5 177.5,-76.5"/>
<text text-anchor="middle" x="279" y="-83.5" font-family="DejaVuSansMono" font-size="10.00">xmpp_server_add_client_listener</text>
</a>
</g>
<!-- Node1&#45;&gt;Node13 -->
<g id="edge34" class="edge"><title>Node1&#45;&gt;Node13</title>
<path fill="none" stroke="midnightblue" d="M77.9922,-182.324C95.3951,-161.619 127.101,-127.879 162,-110 174.446,-103.624 188.465,-98.9415 202.343,-95.5032"/>
<polygon fill="midnightblue" stroke="midnightblue" points="75.0743,-180.363 71.4419,-190.316 80.4881,-184.8 75.0743,-180.363"/>
</g>
<!-- Node19 -->
<g id="node42" class="node"><title>Node19</title>
<a xlink:href="../../d0/df0/xmpp__server_8c.html#a98b1f38e730efa3ab5faa6f6dc0e3cce" target="_top" xlink:title="xmpp_server_del_client_disconnect_cb">
<polygon fill="none" stroke="black" points="162.5,-38.5 162.5,-57.5 395.5,-57.5 395.5,-38.5 162.5,-38.5"/>
<text text-anchor="middle" x="279" y="-45.5" font-family="DejaVuSansMono" font-size="10.00">xmpp_server_del_client_disconnect_cb</text>
</a>
</g>
<!-- Node1&#45;&gt;Node19 -->
<g id="edge46" class="edge"><title>Node1&#45;&gt;Node19</title>
<path fill="none" stroke="midnightblue" d="M72.151,-181.024C85.959,-151.369 116.916,-94.583 162,-67 168.18,-63.2192 174.876,-60.1215 181.827,-57.5904"/>
<polygon fill="midnightblue" stroke="midnightblue" points="68.8937,-179.734 67.9871,-190.29 75.2787,-182.603 68.8937,-179.734"/>
</g>
<!-- Node20 -->
<g id="node44" class="node"><title>Node20</title>
<a xlink:href="../../d1/d2e/xmpp__server_8h.html#a79e02871228c509de0c70961d74a1bcb" target="_top" xlink:title="Attempt to cleanly disconnect a client, and clean up its resources.">
<polygon fill="none" stroke="black" points="183.5,-152.5 183.5,-171.5 374.5,-171.5 374.5,-152.5 183.5,-152.5"/>
<text text-anchor="middle" x="279" y="-159.5" font-family="DejaVuSansMono" font-size="10.00">xmpp_server_disconnect_client</text>
</a>
</g>
<!-- Node1&#45;&gt;Node20 -->
<g id="edge48" class="edge"><title>Node1&#45;&gt;Node20</title>
<path fill="none" stroke="midnightblue" d="M127.901,-188.653C158.605,-183.201 194.994,-176.739 224.253,-171.544"/>
<polygon fill="midnightblue" stroke="midnightblue" points="126.959,-185.266 117.725,-190.46 128.183,-192.158 126.959,-185.266"/>
</g>
<!-- Node24 -->
<g id="node58" class="node"><title>Node24</title>
<a xlink:href="../../d0/df0/xmpp__server_8c.html#abece91815ef240322d79073f5bfca1db" target="_top" xlink:title="Callback for new data from a client.">
<polygon fill="none" stroke="black" points="468.5,-76.5 468.5,-95.5 551.5,-95.5 551.5,-76.5 468.5,-76.5"/>
<text text-anchor="middle" x="510" y="-83.5" font-family="DejaVuSansMono" font-size="10.00">read_client</text>
</a>
</g>
<!-- Node1&#45;&gt;Node24 -->
<g id="edge72" class="edge"><title>Node1&#45;&gt;Node24</title>
<path fill="none" stroke="midnightblue" d="M85.1334,-184.623C104.258,-171.482 133.686,-153.14 162,-143 261.193,-107.476 292.048,-122.18 396,-105 420.043,-101.026 446.951,-96.5051 468.476,-92.8702"/>
<polygon fill="midnightblue" stroke="midnightblue" points="83.0441,-181.813 76.8676,-190.422 87.0642,-187.544 83.0441,-181.813"/>
</g>
<!-- Node3 -->
<g id="node5" class="node"><title>Node3</title>
<a xlink:href="../../d4/d2f/xmpp__client_8h.html#a1619c0b8f58b2cf09a322bf34fbc3414" target="_top" xlink:title="xmpp_client_new">
<polygon fill="none" stroke="black" points="1566.5,-152.5 1566.5,-171.5 1673.5,-171.5 1673.5,-152.5 1566.5,-152.5"/>
<text text-anchor="middle" x="1620" y="-159.5" font-family="DejaVuSansMono" font-size="10.00">xmpp_client_new</text>
</a>
</g>
<!-- Node2&#45;&gt;Node3 -->
<g id="edge4" class="edge"><title>Node2&#45;&gt;Node3</title>
<path fill="none" stroke="midnightblue" d="M1481.34,-242.234C1515.08,-222.565 1573.84,-188.319 1602.43,-171.657"/>
<polygon fill="midnightblue" stroke="midnightblue" points="1479.4,-239.309 1472.53,-247.368 1482.93,-245.357 1479.4,-239.309"/>
</g>
<!-- Node4 -->
<g id="node7" class="node"><title>Node4</title>
<a xlink:href="../../d0/df0/xmpp__server_8c.html#a66363912ef1221a2574f9f99805fe8fd" target="_top" xlink:title="Callback for new client connections.">
<polygon fill="none" stroke="black" points="1713.5,-95.5 1713.5,-114.5 1814.5,-114.5 1814.5,-95.5 1713.5,-95.5"/>
<text text-anchor="middle" x="1764" y="-102.5" font-family="DejaVuSansMono" font-size="10.00">connect_client</text>
</a>
</g>
<!-- Node3&#45;&gt;Node4 -->
<g id="edge6" class="edge"><title>Node3&#45;&gt;Node4</title>
<path fill="none" stroke="midnightblue" d="M1654.24,-148.659C1680.28,-138.205 1715.88,-123.913 1739.15,-114.572"/>
<polygon fill="midnightblue" stroke="midnightblue" points="1652.74,-145.486 1644.77,-152.459 1655.35,-151.982 1652.74,-145.486"/>
</g>
<!-- Node5 -->
<g id="node9" class="node"><title>Node5</title>
<a xlink:href="../../d1/d2e/xmpp__server_8h.html#a27bfc8e4d424a8bc17ab21a4a09cdf92" target="_top" xlink:title="Allocates and initializes the XMPP server.">
<polygon fill="none" stroke="black" points="1854.5,-95.5 1854.5,-114.5 1961.5,-114.5 1961.5,-95.5 1854.5,-95.5"/>
<text text-anchor="middle" x="1908" y="-102.5" font-family="DejaVuSansMono" font-size="10.00">xmpp_server_new</text>
</a>
</g>
<!-- Node4&#45;&gt;Node5 -->
<g id="edge8" class="edge"><title>Node4&#45;&gt;Node5</title>
<path fill="none" stroke="midnightblue" d="M1824.73,-105C1834.53,-105 1844.62,-105 1854.23,-105"/>
<polygon fill="midnightblue" stroke="midnightblue" points="1824.66,-101.5 1814.66,-105 1824.66,-108.5 1824.66,-101.5"/>
</g>
<!-- Node6 -->
<g id="node11" class="node"><title>Node6</title>
<a xlink:href="../../d0/d29/main_8c.html#a0ddf1224851353fc92bfbff6f499fa97" target="_top" xlink:title="main">
<polygon fill="none" stroke="black" points="1998.5,-76.5 1998.5,-95.5 2039.5,-95.5 2039.5,-76.5 1998.5,-76.5"/>
<text text-anchor="middle" x="2019" y="-83.5" font-family="DejaVuSansMono" font-size="10.00">main</text>
</a>
</g>
<!-- Node5&#45;&gt;Node6 -->
<g id="edge10" class="edge"><title>Node5&#45;&gt;Node6</title>
<path fill="none" stroke="midnightblue" d="M1971.45,-94.1151C1981.24,-92.4082 1990.68,-90.7622 1998.47,-89.404"/>
<polygon fill="midnightblue" stroke="midnightblue" points="1970.83,-90.6686 1961.58,-95.8339 1972.04,-97.5646 1970.83,-90.6686"/>
</g>
<!-- Node7&#45;&gt;Node2 -->
<g id="edge14" class="edge"><title>Node7&#45;&gt;Node2</title>
<path fill="none" stroke="midnightblue" d="M1353.91,-268.667C1362.56,-267.659 1371.5,-266.617 1380.32,-265.589"/>
<polygon fill="midnightblue" stroke="midnightblue" points="1353.45,-265.197 1343.92,-269.831 1354.26,-272.15 1353.45,-265.197"/>
</g>
<!-- Node8&#45;&gt;Node2 -->
<g id="edge18" class="edge"><title>Node8&#45;&gt;Node2</title>
<path fill="none" stroke="midnightblue" d="M1053.99,-257C1141.24,-257 1290.85,-257 1380.28,-257"/>
<polygon fill="midnightblue" stroke="midnightblue" points="1053.92,-253.5 1043.92,-257 1053.92,-260.5 1053.92,-253.5"/>
</g>
<!-- Node9 -->
<g id="node19" class="node"><title>Node9</title>
<a xlink:href="../../df/da9/xmpp__auth_8c.html#afd7b12689591d40109a88ad108b5c3a2" target="_top" xlink:title="stream_sasl_start">
<polygon fill="none" stroke="black" points="1080.5,-266.5 1080.5,-285.5 1199.5,-285.5 1199.5,-266.5 1080.5,-266.5"/>
<text text-anchor="middle" x="1140" y="-273.5" font-family="DejaVuSansMono" font-size="10.00">stream_sasl_start</text>
</a>
</g>
<!-- Node8&#45;&gt;Node9 -->
<g id="edge20" class="edge"><title>Node8&#45;&gt;Node9</title>
<path fill="none" stroke="midnightblue" d="M1053.61,-265.465C1062.5,-266.561 1071.54,-267.677 1080.25,-268.751"/>
<polygon fill="midnightblue" stroke="midnightblue" points="1054.01,-261.988 1043.66,-264.237 1053.16,-268.936 1054.01,-261.988"/>
</g>
<!-- Node9&#45;&gt;Node7 -->
<g id="edge22" class="edge"><title>Node9&#45;&gt;Node7</title>
<path fill="none" stroke="midnightblue" d="M1210.09,-276C1218.81,-276 1227.62,-276 1236.04,-276"/>
<polygon fill="midnightblue" stroke="midnightblue" points="1209.92,-272.5 1199.92,-276 1209.92,-279.5 1209.92,-272.5"/>
</g>
<!-- Node11 -->
<g id="node24" class="node"><title>Node11</title>
<a xlink:href="../../df/da9/xmpp__auth_8c.html#a01804bd53eccc182ce76337fc0863e8d" target="_top" xlink:title="stream_bind_start">
<polygon fill="none" stroke="black" points="768.5,-209.5 768.5,-228.5 887.5,-228.5 887.5,-209.5 768.5,-209.5"/>
<text text-anchor="middle" x="828" y="-216.5" font-family="DejaVuSansMono" font-size="10.00">stream_bind_start</text>
</a>
</g>
<!-- Node10&#45;&gt;Node11 -->
<g id="edge26" class="edge"><title>Node10&#45;&gt;Node11</title>
<path fill="none" stroke="midnightblue" d="M738.752,-213.037C748.554,-213.7 758.702,-214.385 768.473,-215.045"/>
<polygon fill="midnightblue" stroke="midnightblue" points="738.907,-209.54 728.694,-212.358 738.435,-216.524 738.907,-209.54"/>
</g>
<!-- Node11&#45;&gt;Node8 -->
<g id="edge28" class="edge"><title>Node11&#45;&gt;Node8</title>
<path fill="none" stroke="midnightblue" d="M877.794,-231.04C899.308,-236.349 924.232,-242.499 944.419,-247.48"/>
<polygon fill="midnightblue" stroke="midnightblue" points="878.408,-227.587 867.861,-228.589 876.731,-234.383 878.408,-227.587"/>
</g>
<!-- Node12&#45;&gt;Node10 -->
<g id="edge32" class="edge"><title>Node12&#45;&gt;Node10</title>
<path fill="none" stroke="midnightblue" d="M597.769,-204.704C607.853,-205.251 617.862,-205.794 627.2,-206.3"/>
<polygon fill="midnightblue" stroke="midnightblue" points="597.858,-201.204 587.683,-204.158 597.479,-208.194 597.858,-201.204"/>
</g>
<!-- Node14 -->
<g id="node32" class="node"><title>Node14</title>
<a xlink:href="../../d7/d71/xep__muc_8c.html#aefd23f2960520a68fea212344b85cb0b" target="_top" xlink:title="enter_room_presence">
<polygon fill="none" stroke="black" points="444.5,-38.5 444.5,-57.5 575.5,-57.5 575.5,-38.5 444.5,-38.5"/>
<text text-anchor="middle" x="510" y="-45.5" font-family="DejaVuSansMono" font-size="10.00">enter_room_presence</text>
</a>
</g>
<!-- Node13&#45;&gt;Node14 -->
<g id="edge36" class="edge"><title>Node13&#45;&gt;Node14</title>
<path fill="none" stroke="midnightblue" d="M348.529,-74.8247C364.135,-72.2661 380.642,-69.549 396,-67 414.447,-63.9383 434.583,-60.5634 452.68,-57.518"/>
<polygon fill="midnightblue" stroke="midnightblue" points="347.728,-71.4093 338.425,-76.4799 348.859,-78.3172 347.728,-71.4093"/>
</g>
<!-- Node15 -->
<g id="node34" class="node"><title>Node15</title>
<a xlink:href="../../d7/d71/xep__muc_8c.html#a9936322b944d46aead9fbd942687ec0a" target="_top" xlink:title="handle_presence">
<polygon fill="none" stroke="black" points="624.5,-38.5 624.5,-57.5 731.5,-57.5 731.5,-38.5 624.5,-38.5"/>
<text text-anchor="middle" x="678" y="-45.5" font-family="DejaVuSansMono" font-size="10.00">handle_presence</text>
</a>
</g>
<!-- Node14&#45;&gt;Node15 -->
<g id="edge38" class="edge"><title>Node14&#45;&gt;Node15</title>
<path fill="none" stroke="midnightblue" d="M585.957,-48C598.904,-48 612.113,-48 624.311,-48"/>
<polygon fill="midnightblue" stroke="midnightblue" points="585.655,-44.5001 575.655,-48 585.655,-51.5001 585.655,-44.5001"/>
</g>
<!-- Node16 -->
<g id="node36" class="node"><title>Node16</title>
<a xlink:href="../../d7/d71/xep__muc_8c.html#a1798db1c16a1fa62ff8f39fea202a26f" target="_top" xlink:title="stanza_handler">
<polygon fill="none" stroke="black" points="777.5,-38.5 777.5,-57.5 878.5,-57.5 878.5,-38.5 777.5,-38.5"/>
<text text-anchor="middle" x="828" y="-45.5" font-family="DejaVuSansMono" font-size="10.00">stanza_handler</text>
</a>
</g>
<!-- Node15&#45;&gt;Node16 -->
<g id="edge40" class="edge"><title>Node15&#45;&gt;Node16</title>
<path fill="none" stroke="midnightblue" d="M741.809,-48C753.58,-48 765.737,-48 777.052,-48"/>
<polygon fill="midnightblue" stroke="midnightblue" points="741.596,-44.5001 731.596,-48 741.596,-51.5001 741.596,-44.5001"/>
</g>
<!-- Node17 -->
<g id="node38" class="node"><title>Node17</title>
<a xlink:href="../../d7/d71/xep__muc_8c.html#addf05166cf3fbe386ae6650be21ef251" target="_top" xlink:title="xep_muc_start">
<polygon fill="none" stroke="black" points="936.5,-38.5 936.5,-57.5 1031.5,-57.5 1031.5,-38.5 936.5,-38.5"/>
<text text-anchor="middle" x="984" y="-45.5" font-family="DejaVuSansMono" font-size="10.00">xep_muc_start</text>
</a>
</g>
<!-- Node16&#45;&gt;Node17 -->
<g id="edge42" class="edge"><title>Node16&#45;&gt;Node17</title>
<path fill="none" stroke="midnightblue" d="M888.782,-48C904.585,-48 921.407,-48 936.398,-48"/>
<polygon fill="midnightblue" stroke="midnightblue" points="888.574,-44.5001 878.574,-48 888.574,-51.5001 888.574,-44.5001"/>
</g>
<!-- Node18 -->
<g id="node40" class="node"><title>Node18</title>
<a xlink:href="../../d7/d71/xep__muc_8c.html#a20d385a5584d8014ec4d5774eb79d1de" target="_top" xlink:title="xep_muc_stop">
<polygon fill="none" stroke="black" points="939.5,-0.5 939.5,-19.5 1028.5,-19.5 1028.5,-0.5 939.5,-0.5"/>
<text text-anchor="middle" x="984" y="-7.5" font-family="DejaVuSansMono" font-size="10.00">xep_muc_stop</text>
</a>
</g>
<!-- Node16&#45;&gt;Node18 -->
<g id="edge44" class="edge"><title>Node16&#45;&gt;Node18</title>
<path fill="none" stroke="midnightblue" d="M877.794,-35.96C899.308,-30.6512 924.232,-24.5012 944.419,-19.5201"/>
<polygon fill="midnightblue" stroke="midnightblue" points="876.731,-32.6172 867.861,-38.411 878.408,-39.4133 876.731,-32.6172"/>
</g>
<!-- Node21 -->
<g id="node46" class="node"><title>Node21</title>
<a xlink:href="../../d8/d28/xmpp__core_8h.html#a3b41e83061abd7ed5b258c7aa7dda0d6" target="_top" xlink:title="An xmpp_server stanza route for stanzas directed to a local client.">
<polygon fill="none" stroke="black" points="435.5,-152.5 435.5,-171.5 584.5,-171.5 584.5,-152.5 435.5,-152.5"/>
<text text-anchor="middle" x="510" y="-159.5" font-family="DejaVuSansMono" font-size="10.00">xmpp_core_route_client</text>
</a>
</g>
<!-- Node20&#45;&gt;Node21 -->
<g id="edge50" class="edge"><title>Node20&#45;&gt;Node21</title>
<path fill="none" stroke="midnightblue" d="M385.262,-162C402.149,-162 419.306,-162 435.25,-162"/>
<polygon fill="midnightblue" stroke="midnightblue" points="384.796,-158.5 374.796,-162 384.796,-165.5 384.796,-158.5"/>
</g>
<!-- Node20&#45;&gt;Node24 -->
<g id="edge68" class="edge"><title>Node20&#45;&gt;Node24</title>
<path fill="none" stroke="midnightblue" d="M361.756,-150.016C373.53,-146.887 385.278,-142.95 396,-138 414.403,-129.504 414.036,-119.389 432,-110 443.417,-104.033 456.573,-99.2553 468.743,-95.5825"/>
<polygon fill="midnightblue" stroke="midnightblue" points="360.748,-146.66 351.881,-152.459 362.429,-153.455 360.748,-146.66"/>
</g>
<!-- Node21&#45;&gt;Node10 -->
<g id="edge52" class="edge"><title>Node21&#45;&gt;Node10</title>
<path fill="none" stroke="midnightblue" d="M561.676,-174.023C570.478,-176.249 579.523,-178.623 588,-181 608.276,-186.685 630.909,-193.817 648.278,-199.46"/>
<polygon fill="midnightblue" stroke="midnightblue" points="562.436,-170.605 551.886,-171.582 560.742,-177.397 562.436,-170.605"/>
</g>
<!-- Node22 -->
<g id="node49" class="node"><title>Node22</title>
<a xlink:href="../../d4/d2f/xmpp__client_8h.html#add2df61245a543667b6d98e3fcd57077" target="_top" xlink:title="xmpp_client_del">
<polygon fill="none" stroke="black" points="1401.5,-114.5 1401.5,-133.5 1508.5,-133.5 1508.5,-114.5 1401.5,-114.5"/>
<text text-anchor="middle" x="1455" y="-121.5" font-family="DejaVuSansMono" font-size="10.00">xmpp_client_del</text>
</a>
</g>
<!-- Node21&#45;&gt;Node22 -->
<g id="edge54" class="edge"><title>Node21&#45;&gt;Node22</title>
<path fill="none" stroke="midnightblue" d="M595.132,-162C658.799,-162 748.398,-162 827,-162 827,-162 827,-162 1141,-162 1235.29,-162 1344.4,-144.796 1405.69,-133.54"/>
<polygon fill="midnightblue" stroke="midnightblue" points="594.746,-158.5 584.746,-162 594.746,-165.5 594.746,-158.5"/>
</g>
<!-- Node22&#45;&gt;Node3 -->
<g id="edge56" class="edge"><title>Node22&#45;&gt;Node3</title>
<path fill="none" stroke="midnightblue" d="M1507.03,-135.896C1529.94,-141.237 1556.6,-147.454 1578.16,-152.48"/>
<polygon fill="midnightblue" stroke="midnightblue" points="1507.67,-132.451 1497.13,-133.589 1506.08,-139.268 1507.67,-132.451"/>
</g>
<!-- Node22&#45;&gt;Node4 -->
<g id="edge66" class="edge"><title>Node22&#45;&gt;Node4</title>
<path fill="none" stroke="midnightblue" d="M1518.85,-120.111C1576.42,-116.548 1660.5,-111.344 1713.45,-108.067"/>
<polygon fill="midnightblue" stroke="midnightblue" points="1518.54,-116.623 1508.78,-120.734 1518.97,-123.609 1518.54,-116.623"/>
</g>
<!-- Node22&#45;&gt;Node20 -->
<g id="edge64" class="edge"><title>Node22&#45;&gt;Node20</title>
<path fill="none" stroke="midnightblue" d="M1391.19,-124C1327.99,-124 1227.73,-124 1141,-124 677,-124 677,-124 677,-124 557.736,-124 419.233,-141.204 341.374,-152.46"/>
<polygon fill="midnightblue" stroke="midnightblue" points="1391.39,-127.5 1401.39,-124 1391.39,-120.5 1391.39,-127.5"/>
</g>
<!-- Node23 -->
<g id="node52" class="node"><title>Node23</title>
<a xlink:href="../../d1/d2e/xmpp__server_8h.html#af7d75415fd5671841797bf77bbc1a981" target="_top" xlink:title="Cleans up an XMPP server instance.">
<polygon fill="none" stroke="black" points="1710.5,-57.5 1710.5,-76.5 1817.5,-76.5 1817.5,-57.5 1710.5,-57.5"/>
<text text-anchor="middle" x="1764" y="-64.5" font-family="DejaVuSansMono" font-size="10.00">xmpp_server_del</text>
</a>
</g>
<!-- Node22&#45;&gt;Node23 -->
<g id="edge58" class="edge"><title>Node22&#45;&gt;Node23</title>
<path fill="none" stroke="midnightblue" d="M1517.34,-112.61C1574.32,-102.031 1658.2,-86.4587 1711.7,-76.5241"/>
<polygon fill="midnightblue" stroke="midnightblue" points="1516.58,-109.193 1507.38,-114.459 1517.86,-116.075 1516.58,-109.193"/>
</g>
<!-- Node23&#45;&gt;Node5 -->
<g id="edge62" class="edge"><title>Node23&#45;&gt;Node5</title>
<path fill="none" stroke="midnightblue" d="M1810.49,-79.1742C1830.13,-84.4287 1852.77,-90.4866 1871.18,-95.4141"/>
<polygon fill="midnightblue" stroke="midnightblue" points="1811.4,-75.7931 1800.83,-76.589 1809.59,-82.5552 1811.4,-75.7931"/>
</g>
<!-- Node23&#45;&gt;Node6 -->
<g id="edge60" class="edge"><title>Node23&#45;&gt;Node6</title>
<path fill="none" stroke="midnightblue" d="M1827.9,-71.7236C1883.84,-75.9246 1962.21,-81.81 1998.34,-84.5233"/>
<polygon fill="midnightblue" stroke="midnightblue" points="1827.96,-68.2187 1817.73,-70.9599 1827.44,-75.199 1827.96,-68.2187"/>
</g>
<!-- Node24&#45;&gt;Node4 -->
<g id="edge70" class="edge"><title>Node24&#45;&gt;Node4</title>
<path fill="none" stroke="midnightblue" d="M562.277,-86C624.789,-86 733.65,-86 827,-86 827,-86 827,-86 1456,-86 1546.91,-86 1652.68,-94.4033 1713.34,-100.033"/>
<polygon fill="midnightblue" stroke="midnightblue" points="561.906,-82.5001 551.906,-86 561.906,-89.5001 561.906,-82.5001"/>
</g>
</g>
</svg>
        <g id="navigator" transform="translate(0 0)" fill="#404254">
                <rect fill="#f2f5e9" fill-opacity="0.5" stroke="#606060" stroke-width=".5" x="0" y="0" width="60" height="60"/>
                <use id="zoomplus" xlink:href="#zoomPlus" x="17" y="9" onmousedown="handleZoom(evt,'in')"/>
                <use id="zoomminus" xlink:href="#zoomMin" x="42" y="9" onmousedown="handleZoom(evt,'out')"/>
                <use id="reset" xlink:href="#resetDef" x="30" y="36" onmousedown="handleReset()"/>
                <g id="arrowUp" xlink:href="#dirArrow" transform="translate(30 24)" onmousedown="handlePan(0,-1)">
                  <use xlink:href="#rim" fill="#404040">
                        <set attributeName="fill" to="#808080" begin="arrowUp.mouseover" end="arrowUp.mouseout"/>
                  </use>
                  <path fill="none" stroke="white" stroke-width="1.5" d="M0,-3.0v7 M-2.5,-0.5L0,-3.0L2.5,-0.5"/>
                </g>
                <g id="arrowRight" xlink:href="#dirArrow" transform="rotate(90) translate(36 -43)" onmousedown="handlePan(1,0)">
                  <use xlink:href="#rim" fill="#404040">
                        <set attributeName="fill" to="#808080" begin="arrowRight.mouseover" end="arrowRight.mouseout"/>
                  </use>
                  <path fill="none" stroke="white" stroke-width="1.5" d="M0,-3.0v7 M-2.5,-0.5L0,-3.0L2.5,-0.5"/>
                </g>
                <g id="arrowDown" xlink:href="#dirArrow" transform="rotate(180) translate(-30 -48)" onmousedown="handlePan(0,1)">
                  <use xlink:href="#rim" fill="#404040">
                        <set attributeName="fill" to="#808080" begin="arrowDown.mouseover" end="arrowDown.mouseout"/>
                  </use>
                  <path fill="none" stroke="white" stroke-width="1.5" d="M0,-3.0v7 M-2.5,-0.5L0,-3.0L2.5,-0.5"/>
                </g>
                <g id="arrowLeft" xlink:href="#dirArrow" transform="rotate(270) translate(-36 17)" onmousedown="handlePan(-1,0)">
                  <use xlink:href="#rim" fill="#404040">
                        <set attributeName="fill" to="#808080" begin="arrowLeft.mouseover" end="arrowLeft.mouseout"/>
                  </use>
                  <path fill="none" stroke="white" stroke-width="1.5" d="M0,-3.0v7 M-2.5,-0.5L0,-3.0L2.5,-0.5"/>
                </g>
        </g>
        <svg viewBox="0 0 25 25" width="100%" height="30px" preserveAspectRatio="xMaxYMin meet"> 
          <g id="printButton" transform="scale(0.4 0.4)" onmousedown="handlePrint(evt)">
            <rect height="23.33753581" id="paper" rx="2" style="fill:#f2f5e9;fill-rule:evenodd;stroke:#111111;stroke-width:3.224;stroke-linejoin:round;" transform="matrix(1.000000,0.000000,-0.339266,0.940691,0.000000,0.000000)" width="25.55231285" x="26.69387353" y="7.36162977"/>
            <rect height="26.272097" id="body" rx="2" style="fill:#404040;fill-rule:evenodd;stroke:#111111;stroke-width:3.125;stroke-linejoin:round;" width="50" x="4.5295201" y="27.078951"/>
            <rect height="8.27750969" id="tray" style="fill:#d2d5c9;fill-rule:evenodd;stroke:#111111;stroke-width:3.125;stroke-linecap:round;stroke-linejoin:round;" width="40" x="10.28778839" y="44.96812282"/>
          </g>
        </svg>
</svg>
