<?xml version="1.0" encoding="UTF-8" standalone="no"?>
<!DOCTYPE svg PUBLIC "-//W3C//DTD SVG 1.1//EN"
 "http://www.w3.org/Graphics/SVG/1.1/DTD/svg11.dtd">
<!-- Generated by graphviz version 2.28.0 (20120217.0315)
 -->
<!-- Title: G Pages: 1 -->
<!--zoomable 658 -->
<svg id="main" version="1.1" xmlns="http://www.w3.org/2000/svg" xmlns:xlink="http://www.w3.org/1999/xlink" xml:space="preserve" onload="init(evt)">
        <defs>
                <circle id="rim" cx="0" cy="0" r="7"/>
                <circle id="rim2" cx="0" cy="0" r="3.5"/>
                <g id="zoomPlus">
                        <use xlink:href="#rim" fill="#404040">
                                <set attributeName="fill" to="#808080" begin="zoomplus.mouseover" end="zoomplus.mouseout"/>
                        </use>
                        <path d="M-4,0h8M0,-4v8" fill="none" stroke="white" stroke-width="1.5" pointer-events="none"/>
                </g>
                <g id="zoomMin">
                        <use xlink:href="#rim" fill="#404040">
                                <set attributeName="fill" to="#808080" begin="zoomminus.mouseover" end="zoomminus.mouseout"/>
                        </use>
                        <path d="M-4,0h8" fill="none" stroke="white" stroke-width="1.5" pointer-events="none"/>
                </g>
                <g id="dirArrow">
                        <path fill="none" stroke="white" stroke-width="1.5" d="M0,-3.0v7 M-2.5,-0.5L0,-3.0L2.5,-0.5"/>
                </g>
               <g id="resetDef">
                       <use xlink:href="#rim2" fill="#404040">
                               <set attributeName="fill" to="#808080" begin="reset.mouseover" end="reset.mouseout"/>
                       </use>
               </g>
        </defs>

<script type="text/javascript">
var viewWidth = 914;
var viewHeight = 658;
var sectionId = 'dynsection-1';
</script>
<script xlink:href="../../svgpan.js"/>
<svg id="graph" class="graph">
<g id="viewport">
<title>G</title>
<!-- Node1 -->
<g id="node1" class="node"><title>Node1</title>
<polygon fill="#bfbfbf" stroke="black" points="0.5,-342.5 0.5,-361.5 107.5,-361.5 107.5,-342.5 0.5,-342.5"/>
<text text-anchor="middle" x="54" y="-349.5" font-family="DejaVuSansMono" font-size="10.00">xmpp_client_del</text>
</g>
<!-- Node2 -->
<g id="node3" class="node"><title>Node2</title>
<a xlink:href="../../d0/df0/xmpp__server_8c.html#af2e493f9f89b437fae7212b941c536cf" target="_top" xlink:title="Remove a callback from the list of routes for stanza delivery.">
<polygon fill="none" stroke="black" points="720.5,-600.5 720.5,-619.5 905.5,-619.5 905.5,-600.5 720.5,-600.5"/>
<text text-anchor="middle" x="813" y="-607.5" font-family="DejaVuSansMono" font-size="10.00">xmpp_server_del_stanza_route</text>
</a>
</g>
<!-- Node1&#45;&gt;Node2 -->
<g id="edge2" class="edge"><title>Node1&#45;&gt;Node2</title>
<path fill="none" stroke="midnightblue" d="M56.7546,-361.884C62.801,-392.998 85.6961,-489.831 144,-540 324.36,-695.196 641.603,-647.458 762.925,-621.694"/>
<polygon fill="midnightblue" stroke="midnightblue" points="763.995,-625.043 773.026,-619.503 762.511,-618.202 763.995,-625.043"/>
</g>
<!-- Node3 -->
<g id="node5" class="node"><title>Node3</title>
<a xlink:href="../../d6/d13/xmpp__core_8c.html#a3b41e83061abd7ed5b258c7aa7dda0d6" target="_top" xlink:title="An xmpp_server stanza route for stanzas directed to a local client.">
<polygon fill="none" stroke="black" points="144.5,-342.5 144.5,-361.5 293.5,-361.5 293.5,-342.5 144.5,-342.5"/>
<text text-anchor="middle" x="219" y="-349.5" font-family="DejaVuSansMono" font-size="10.00">xmpp_core_route_client</text>
</a>
</g>
<!-- Node1&#45;&gt;Node3 -->
<g id="edge4" class="edge"><title>Node1&#45;&gt;Node3</title>
<path fill="none" stroke="midnightblue" d="M107.921,-352C116.364,-352 125.275,-352 134.223,-352"/>
<polygon fill="midnightblue" stroke="midnightblue" points="134.317,-355.5 144.317,-352 134.317,-348.5 134.317,-355.5"/>
</g>
<!-- Node17 -->
<g id="node35" class="node"><title>Node17</title>
<a xlink:href="../../d3/d5a/jid_8c.html#ab83fd5aae95de2c9d38fb9d9cd161580" target="_top" xlink:title="Cleans up and frees an existing JID.">
<polygon fill="none" stroke="black" points="783.5,-555.5 783.5,-574.5 842.5,-574.5 842.5,-555.5 783.5,-555.5"/>
<text text-anchor="middle" x="813" y="-562.5" font-family="DejaVuSansMono" font-size="10.00">jid_del</text>
</a>
</g>
<!-- Node1&#45;&gt;Node17 -->
<g id="edge50" class="edge"><title>Node1&#45;&gt;Node17</title>
<path fill="none" stroke="midnightblue" d="M58.1057,-361.79C66.9041,-387.82 94.6139,-459.064 144,-493 345.162,-631.23 663.772,-591.591 773.431,-572.503"/>
<polygon fill="midnightblue" stroke="midnightblue" points="774.15,-575.93 783.379,-570.727 772.92,-569.039 774.15,-575.93"/>
</g>
<!-- Node18 -->
<g id="node37" class="node"><title>Node18</title>
<a xlink:href="../../d0/deb/event_8c.html#a9c3c87f32e90d8fa0245d154fac61da9" target="_top" xlink:title="Deregisters a callback for a particular file descriptor.">
<polygon fill="none" stroke="black" points="729.5,-503.5 729.5,-522.5 896.5,-522.5 896.5,-503.5 729.5,-503.5"/>
<text text-anchor="middle" x="813" y="-510.5" font-family="DejaVuSansMono" font-size="10.00">event_deregister_callback</text>
</a>
</g>
<!-- Node1&#45;&gt;Node18 -->
<g id="edge52" class="edge"><title>Node1&#45;&gt;Node18</title>
<path fill="none" stroke="midnightblue" d="M60.5701,-361.575C72.9131,-381.936 104.614,-429.734 144,-455 216.454,-501.478 244.829,-496.526 330,-509 464.15,-528.648 621.556,-525.028 719.05,-519.723"/>
<polygon fill="midnightblue" stroke="midnightblue" points="719.384,-523.21 729.172,-519.154 718.991,-516.221 719.384,-523.21"/>
</g>
<!-- Node19 -->
<g id="node39" class="node"><title>Node19</title>
<a xlink:href="../../d0/df0/xmpp__server_8c.html#ac84f99d96a630f056f36dc0aa9cac9dd" target="_top" xlink:title="Gets the event loop instance this server is using.">
<polygon fill="none" stroke="black" points="756.5,-437.5 756.5,-456.5 869.5,-456.5 869.5,-437.5 756.5,-437.5"/>
<text text-anchor="middle" x="813" y="-444.5" font-family="DejaVuSansMono" font-size="10.00">xmpp_server_loop</text>
</a>
</g>
<!-- Node1&#45;&gt;Node19 -->
<g id="edge54" class="edge"><title>Node1&#45;&gt;Node19</title>
<path fill="none" stroke="midnightblue" d="M69.038,-361.676C108.136,-387.961 222.476,-460.364 330,-485 483.359,-520.138 528.302,-507.624 684,-485 716.605,-480.262 752.462,-469.072 777.908,-460.054"/>
<polygon fill="midnightblue" stroke="midnightblue" points="779.247,-463.292 787.46,-456.598 776.866,-456.709 779.247,-463.292"/>
</g>
<!-- Node20 -->
<g id="node41" class="node"><title>Node20</title>
<a xlink:href="../../d4/d8e/client__socket_8c.html#a66a8a7fa65db357c88039c8589c7aaa9" target="_top" xlink:title="client_socket_fd">
<polygon fill="none" stroke="black" points="756.5,-388.5 756.5,-407.5 869.5,-407.5 869.5,-388.5 756.5,-388.5"/>
<text text-anchor="middle" x="813" y="-395.5" font-family="DejaVuSansMono" font-size="10.00">client_socket_fd</text>
</a>
</g>
<!-- Node1&#45;&gt;Node20 -->
<g id="edge56" class="edge"><title>Node1&#45;&gt;Node20</title>
<path fill="none" stroke="midnightblue" d="M69.038,-342.324C108.136,-316.039 222.476,-243.636 330,-219 413.178,-199.942 440.632,-193.29 522,-219 624.524,-251.394 626.221,-305.408 720,-358 738.201,-368.207 759.516,-377.622 777.045,-384.75"/>
<polygon fill="midnightblue" stroke="midnightblue" points="775.765,-388.007 786.35,-388.465 778.36,-381.506 775.765,-388.007"/>
</g>
<!-- Node21 -->
<g id="node43" class="node"><title>Node21</title>
<a xlink:href="../../d4/d8e/client__socket_8c.html#abb4fb0de12fd5f701186d9b641ae0905" target="_top" xlink:title="Closes a client_socket.">
<polygon fill="none" stroke="black" points="747.5,-329.5 747.5,-348.5 878.5,-348.5 878.5,-329.5 747.5,-329.5"/>
<text text-anchor="middle" x="813" y="-336.5" font-family="DejaVuSansMono" font-size="10.00">client_socket_close</text>
</a>
</g>
<!-- Node1&#45;&gt;Node21 -->
<g id="edge58" class="edge"><title>Node1&#45;&gt;Node21</title>
<path fill="none" stroke="midnightblue" d="M56.712,-342.129C62.5169,-312.08 84.5158,-221.602 144,-186 195.483,-155.187 634.38,-152.268 684,-186 719.97,-210.452 692.744,-243.105 720,-277 736.567,-297.603 761.817,-313.936 781.676,-324.656"/>
<polygon fill="midnightblue" stroke="midnightblue" points="780.163,-327.813 790.65,-329.321 783.392,-321.603 780.163,-327.813"/>
</g>
<!-- Node22 -->
<g id="node45" class="node"><title>Node22</title>
<a xlink:href="../../d4/d8e/client__socket_8c.html#a9983d6e2b69132508044b4c07bca147e" target="_top" xlink:title="Closes, cleans up and deallocates a client_socket structure.">
<polygon fill="none" stroke="black" points="753.5,-248.5 753.5,-267.5 872.5,-267.5 872.5,-248.5 753.5,-248.5"/>
<text text-anchor="middle" x="813" y="-255.5" font-family="DejaVuSansMono" font-size="10.00">client_socket_del</text>
</a>
</g>
<!-- Node1&#45;&gt;Node22 -->
<g id="edge60" class="edge"><title>Node1&#45;&gt;Node22</title>
<path fill="none" stroke="midnightblue" d="M56.067,-342.229C60.2025,-309.701 78.3688,-204.729 144,-162 244.565,-96.5269 570.635,-122.65 684,-162 730.479,-178.133 773.914,-217.895 796.269,-240.868"/>
<polygon fill="midnightblue" stroke="midnightblue" points="793.84,-243.392 803.267,-248.227 798.912,-238.569 793.84,-243.392"/>
</g>
<!-- Node23 -->
<g id="node47" class="node"><title>Node23</title>
<a xlink:href="../../d1/dc2/xmpp__parser_8c.html#a2620ca01bcf1a68025ec51681c6416f2" target="_top" xlink:title="xmpp_parser_del">
<polygon fill="none" stroke="black" points="759.5,-125.5 759.5,-144.5 866.5,-144.5 866.5,-125.5 759.5,-125.5"/>
<text text-anchor="middle" x="813" y="-132.5" font-family="DejaVuSansMono" font-size="10.00">xmpp_parser_del</text>
</a>
</g>
<!-- Node1&#45;&gt;Node23 -->
<g id="edge62" class="edge"><title>Node1&#45;&gt;Node23</title>
<path fill="none" stroke="midnightblue" d="M55.2198,-342.336C56.6336,-305.822 67.083,-175.628 144,-122 240.289,-54.8659 601.855,-102.009 749.059,-124.697"/>
<polygon fill="midnightblue" stroke="midnightblue" points="748.862,-128.208 759.281,-126.286 749.937,-121.291 748.862,-128.208"/>
</g>
<!-- Node4 -->
<g id="node7" class="node"><title>Node4</title>
<a xlink:href="../../d3/d5a/jid_8c.html#a3d51f2b27d20189e523b0d0b2a77e4a9" target="_top" xlink:title="Converts a JID to a newly allocated string.">
<polygon fill="none" stroke="black" points="387.5,-304.5 387.5,-323.5 464.5,-323.5 464.5,-304.5 387.5,-304.5"/>
<text text-anchor="middle" x="426" y="-311.5" font-family="DejaVuSansMono" font-size="10.00">jid_to_str</text>
</a>
</g>
<!-- Node3&#45;&gt;Node4 -->
<g id="edge6" class="edge"><title>Node3&#45;&gt;Node4</title>
<path fill="none" stroke="midnightblue" d="M271.466,-342.46C304,-336.429 345.744,-328.691 377.491,-322.807"/>
<polygon fill="midnightblue" stroke="midnightblue" points="378.228,-326.23 387.422,-320.966 376.952,-319.347 378.228,-326.23"/>
</g>
<!-- Node5 -->
<g id="node9" class="node"><title>Node5</title>
<a xlink:href="../../dd/d4d/xmpp__client_8c.html#af963b026952bdbc45a4df0fa3d69b641" target="_top" xlink:title="Return the JID for this client.">
<polygon fill="none" stroke="black" points="372.5,-266.5 372.5,-285.5 479.5,-285.5 479.5,-266.5 372.5,-266.5"/>
<text text-anchor="middle" x="426" y="-273.5" font-family="DejaVuSansMono" font-size="10.00">xmpp_client_jid</text>
</a>
</g>
<!-- Node3&#45;&gt;Node5 -->
<g id="edge8" class="edge"><title>Node3&#45;&gt;Node5</title>
<path fill="none" stroke="midnightblue" d="M235.049,-342.455C255.685,-329.781 294.283,-307.544 330,-295 340.206,-291.416 351.28,-288.433 362.141,-285.976"/>
<polygon fill="midnightblue" stroke="midnightblue" points="362.977,-289.377 372.025,-283.865 361.515,-282.531 362.977,-289.377"/>
</g>
<!-- Node6 -->
<g id="node11" class="node"><title>Node6</title>
<a xlink:href="../../d1/d59/xmpp__stanza_8c.html#a513b6e2da3dce364271ba9315d7b3d95" target="_top" xlink:title="Returns the stanza (and its children) packed into a null&#45;terminated string.">
<polygon fill="none" stroke="black" points="363.5,-228.5 363.5,-247.5 488.5,-247.5 488.5,-228.5 363.5,-228.5"/>
<text text-anchor="middle" x="426" y="-235.5" font-family="DejaVuSansMono" font-size="10.00">xmpp_stanza_string</text>
</a>
</g>
<!-- Node3&#45;&gt;Node6 -->
<g id="edge10" class="edge"><title>Node3&#45;&gt;Node6</title>
<path fill="none" stroke="midnightblue" d="M227.973,-342.372C244.694,-322.873 285.572,-278.729 330,-257 337.439,-253.362 345.53,-250.42 353.748,-248.042"/>
<polygon fill="midnightblue" stroke="midnightblue" points="354.639,-251.427 363.422,-245.501 352.861,-244.656 354.639,-251.427"/>
</g>
<!-- Node11 -->
<g id="node21" class="node"><title>Node11</title>
<a xlink:href="../../d4/d8e/client__socket_8c.html#a7cf0a0cfe0cf2bdccee28f6eab9aa632" target="_top" xlink:title="Send all data in a buffer to the connected socket.">
<polygon fill="none" stroke="black" points="354.5,-380.5 354.5,-399.5 497.5,-399.5 497.5,-380.5 354.5,-380.5"/>
<text text-anchor="middle" x="426" y="-387.5" font-family="DejaVuSansMono" font-size="10.00">client_socket_sendall</text>
</a>
</g>
<!-- Node3&#45;&gt;Node11 -->
<g id="edge20" class="edge"><title>Node3&#45;&gt;Node11</title>
<path fill="none" stroke="midnightblue" d="M271.466,-361.54C299.368,-366.712 334.045,-373.14 363.38,-378.578"/>
<polygon fill="midnightblue" stroke="midnightblue" points="363.043,-382.075 373.513,-380.456 364.319,-375.192 363.043,-382.075"/>
</g>
<!-- Node13 -->
<g id="node25" class="node"><title>Node13</title>
<a xlink:href="../../dd/d4d/xmpp__client_8c.html#a07c89140b5b826454868ac9395e2efd7" target="_top" xlink:title="Return the socket used to communicate with this client.">
<polygon fill="none" stroke="black" points="363.5,-342.5 363.5,-361.5 488.5,-361.5 488.5,-342.5 363.5,-342.5"/>
<text text-anchor="middle" x="426" y="-349.5" font-family="DejaVuSansMono" font-size="10.00">xmpp_client_socket</text>
</a>
</g>
<!-- Node3&#45;&gt;Node13 -->
<g id="edge24" class="edge"><title>Node3&#45;&gt;Node13</title>
<path fill="none" stroke="midnightblue" d="M293.72,-352C313.083,-352 333.937,-352 353.198,-352"/>
<polygon fill="midnightblue" stroke="midnightblue" points="353.41,-355.5 363.41,-352 353.41,-348.5 353.41,-355.5"/>
</g>
<!-- Node14 -->
<g id="node27" class="node"><title>Node14</title>
<a xlink:href="../../d0/df0/xmpp__server_8c.html#a79e02871228c509de0c70961d74a1bcb" target="_top" xlink:title="Attempt to cleanly disconnect a client, and clean up its resources.">
<polygon fill="none" stroke="black" points="330.5,-456.5 330.5,-475.5 521.5,-475.5 521.5,-456.5 330.5,-456.5"/>
<text text-anchor="middle" x="426" y="-463.5" font-family="DejaVuSansMono" font-size="10.00">xmpp_server_disconnect_client</text>
</a>
</g>
<!-- Node3&#45;&gt;Node14 -->
<g id="edge26" class="edge"><title>Node3&#45;&gt;Node14</title>
<path fill="none" stroke="midnightblue" d="M228.979,-361.777C246.545,-380.302 287.468,-420.577 330,-442 339.326,-446.697 349.641,-450.522 359.935,-453.622"/>
<polygon fill="midnightblue" stroke="midnightblue" points="359.192,-457.048 369.766,-456.377 361.081,-450.308 359.192,-457.048"/>
</g>
<!-- Node7 -->
<g id="node13" class="node"><title>Node7</title>
<a xlink:href="../../d1/d59/xmpp__stanza_8c.html#aae8c30c30fcbc2325d34897f8035ca46" target="_top" xlink:title="Function that gets called recursively to convert a stanza to a string.">
<polygon fill="none" stroke="black" points="576.5,-38.5 576.5,-57.5 665.5,-57.5 665.5,-38.5 576.5,-38.5"/>
<text text-anchor="middle" x="621" y="-45.5" font-family="DejaVuSansMono" font-size="10.00">stanza_tostr</text>
</a>
</g>
<!-- Node6&#45;&gt;Node7 -->
<g id="edge12" class="edge"><title>Node6&#45;&gt;Node7</title>
<path fill="none" stroke="midnightblue" d="M436.836,-228.317C467.738,-197.895 563.155,-103.961 602.63,-65.1005"/>
<polygon fill="midnightblue" stroke="midnightblue" points="605.281,-67.4014 609.952,-57.8917 600.37,-62.413 605.281,-67.4014"/>
</g>
<!-- Node8 -->
<g id="node15" class="node"><title>Node8</title>
<a xlink:href="../../d1/dc2/xmpp__parser_8c.html#acce8bfe5926da4e64c3b5038dc683618" target="_top" xlink:title="xmpp_parser_namespace_prefix">
<polygon fill="none" stroke="black" points="720.5,-0.5 720.5,-19.5 905.5,-19.5 905.5,-0.5 720.5,-0.5"/>
<text text-anchor="middle" x="813" y="-7.5" font-family="DejaVuSansMono" font-size="10.00">xmpp_parser_namespace_prefix</text>
</a>
</g>
<!-- Node7&#45;&gt;Node8 -->
<g id="edge14" class="edge"><title>Node7&#45;&gt;Node8</title>
<path fill="none" stroke="midnightblue" d="M665.59,-39.282C691.953,-34.0094 725.875,-27.225 754.428,-21.5145"/>
<polygon fill="midnightblue" stroke="midnightblue" points="755.163,-24.9369 764.282,-19.5436 753.79,-18.0728 755.163,-24.9369"/>
</g>
<!-- Node9 -->
<g id="node17" class="node"><title>Node9</title>
<a xlink:href="../../d1/dc2/xmpp__parser_8c.html#afde3cf0e74a12bfe4ac90fa8dbae51a0" target="_top" xlink:title="xmpp_parser_namespace_uri">
<polygon fill="none" stroke="black" points="729.5,-76.5 729.5,-95.5 896.5,-95.5 896.5,-76.5 729.5,-76.5"/>
<text text-anchor="middle" x="813" y="-83.5" font-family="DejaVuSansMono" font-size="10.00">xmpp_parser_namespace_uri</text>
</a>
</g>
<!-- Node7&#45;&gt;Node9 -->
<g id="edge16" class="edge"><title>Node7&#45;&gt;Node9</title>
<path fill="none" stroke="midnightblue" d="M665.59,-56.718C691.953,-61.9906 725.875,-68.775 754.428,-74.4855"/>
<polygon fill="midnightblue" stroke="midnightblue" points="753.79,-77.9272 764.282,-76.4564 755.163,-71.0631 753.79,-77.9272"/>
</g>
<!-- Node10 -->
<g id="node19" class="node"><title>Node10</title>
<a xlink:href="../../d1/dc2/xmpp__parser_8c.html#af924e15caac53b347a48878fcb046bc4" target="_top" xlink:title="Return the next namespace in the namespace list.">
<polygon fill="none" stroke="black" points="726.5,-38.5 726.5,-57.5 899.5,-57.5 899.5,-38.5 726.5,-38.5"/>
<text text-anchor="middle" x="813" y="-45.5" font-family="DejaVuSansMono" font-size="10.00">xmpp_parser_namespace_next</text>
</a>
</g>
<!-- Node7&#45;&gt;Node10 -->
<g id="edge18" class="edge"><title>Node7&#45;&gt;Node10</title>
<path fill="none" stroke="midnightblue" d="M665.59,-48C680.701,-48 698.296,-48 715.94,-48"/>
<polygon fill="midnightblue" stroke="midnightblue" points="716.316,-51.5001 726.316,-48 716.316,-44.5001 716.316,-51.5001"/>
</g>
<!-- Node12 -->
<g id="node23" class="node"><title>Node12</title>
<a xlink:href="../../d4/d8e/client__socket_8c.html#a164381b69f823fab1b8bce59ca03aefe" target="_top" xlink:title="Send some data to a client_socket.">
<polygon fill="none" stroke="black" points="558.5,-380.5 558.5,-399.5 683.5,-399.5 683.5,-380.5 558.5,-380.5"/>
<text text-anchor="middle" x="621" y="-387.5" font-family="DejaVuSansMono" font-size="10.00">client_socket_send</text>
</a>
</g>
<!-- Node11&#45;&gt;Node12 -->
<g id="edge22" class="edge"><title>Node11&#45;&gt;Node12</title>
<path fill="none" stroke="midnightblue" d="M497.77,-390C514.252,-390 531.814,-390 548.335,-390"/>
<polygon fill="midnightblue" stroke="midnightblue" points="548.467,-393.5 558.467,-390 548.467,-386.5 548.467,-393.5"/>
</g>
<!-- Node15 -->
<g id="node29" class="node"><title>Node15</title>
<a xlink:href="../../dd/d4d/xmpp__client_8c.html#a5ff8a826aface187b00ffcdfb7ce125a" target="_top" xlink:title="Return the server this client is connected to.">
<polygon fill="none" stroke="black" points="558.5,-456.5 558.5,-475.5 683.5,-475.5 683.5,-456.5 558.5,-456.5"/>
<text text-anchor="middle" x="621" y="-463.5" font-family="DejaVuSansMono" font-size="10.00">xmpp_client_server</text>
</a>
</g>
<!-- Node14&#45;&gt;Node15 -->
<g id="edge28" class="edge"><title>Node14&#45;&gt;Node15</title>
<path fill="none" stroke="midnightblue" d="M521.521,-466C530.514,-466 539.53,-466 548.256,-466"/>
<polygon fill="midnightblue" stroke="midnightblue" points="548.347,-469.5 558.347,-466 548.347,-462.5 548.347,-469.5"/>
</g>
<!-- Node16 -->
<g id="node31" class="node"><title>Node16</title>
<a xlink:href="../../dd/d4d/xmpp__client_8c.html#add2df61245a543667b6d98e3fcd57077" target="_top" xlink:title="xmpp_client_del">
<polygon fill="none" stroke="black" points="567.5,-418.5 567.5,-437.5 674.5,-437.5 674.5,-418.5 567.5,-418.5"/>
<text text-anchor="middle" x="621" y="-425.5" font-family="DejaVuSansMono" font-size="10.00">xmpp_client_del</text>
</a>
</g>
<!-- Node14&#45;&gt;Node16 -->
<g id="edge30" class="edge"><title>Node14&#45;&gt;Node16</title>
<path fill="none" stroke="midnightblue" d="M475.702,-456.411C501.859,-451.261 534.284,-444.877 561.767,-439.466"/>
<polygon fill="midnightblue" stroke="midnightblue" points="562.513,-442.886 571.648,-437.52 561.16,-436.018 562.513,-442.886"/>
</g>
<!-- Node16&#45;&gt;Node2 -->
<g id="edge32" class="edge"><title>Node16&#45;&gt;Node2</title>
<path fill="none" stroke="midnightblue" d="M670.865,-437.528C675.738,-439.999 680.257,-443.103 684,-447 727.608,-492.407 675.896,-539.074 720,-584 724.844,-588.934 730.547,-592.95 736.702,-596.218"/>
<polygon fill="midnightblue" stroke="midnightblue" points="735.447,-599.493 745.995,-600.488 738.37,-593.132 735.447,-599.493"/>
</g>
<!-- Node16&#45;&gt;Node3 -->
<g id="edge34" class="edge"><title>Node16&#45;&gt;Node3</title>
<path fill="none" stroke="midnightblue" d="M567.323,-430.951C508.371,-432.793 410.56,-431.448 330,-409 297.693,-399.998 263.933,-380.816 242.476,-367.194"/>
<polygon fill="midnightblue" stroke="midnightblue" points="244.096,-364.073 233.802,-361.563 240.284,-369.944 244.096,-364.073"/>
</g>
<!-- Node16&#45;&gt;Node17 -->
<g id="edge36" class="edge"><title>Node16&#45;&gt;Node17</title>
<path fill="none" stroke="midnightblue" d="M669.396,-437.641C674.71,-440.088 679.736,-443.155 684,-447 714.468,-474.474 690.186,-503.817 720,-532 734.499,-545.706 755.086,-553.783 773.111,-558.511"/>
<polygon fill="midnightblue" stroke="midnightblue" points="772.547,-561.973 783.084,-560.866 774.156,-555.161 772.547,-561.973"/>
</g>
<!-- Node16&#45;&gt;Node18 -->
<g id="edge38" class="edge"><title>Node16&#45;&gt;Node18</title>
<path fill="none" stroke="midnightblue" d="M657.165,-437.519C666.039,-440.262 675.467,-443.478 684,-447 700.723,-453.903 703.944,-457.662 720,-466 741.417,-477.121 765.734,-489.535 783.987,-498.811"/>
<polygon fill="midnightblue" stroke="midnightblue" points="782.431,-501.946 792.932,-503.352 785.6,-495.704 782.431,-501.946"/>
</g>
<!-- Node16&#45;&gt;Node19 -->
<g id="edge40" class="edge"><title>Node16&#45;&gt;Node19</title>
<path fill="none" stroke="midnightblue" d="M674.673,-433.267C696.772,-435.477 722.712,-438.071 746.061,-440.406"/>
<polygon fill="midnightblue" stroke="midnightblue" points="745.936,-443.911 756.235,-441.424 746.633,-436.946 745.936,-443.911"/>
</g>
<!-- Node16&#45;&gt;Node20 -->
<g id="edge42" class="edge"><title>Node16&#45;&gt;Node20</title>
<path fill="none" stroke="midnightblue" d="M674.673,-419.683C696.772,-416.194 722.712,-412.098 746.061,-408.411"/>
<polygon fill="midnightblue" stroke="midnightblue" points="746.903,-411.822 756.235,-406.805 745.811,-404.908 746.903,-411.822"/>
</g>
<!-- Node16&#45;&gt;Node21 -->
<g id="edge44" class="edge"><title>Node16&#45;&gt;Node21</title>
<path fill="none" stroke="midnightblue" d="M661.652,-418.425C669.293,-415.871 677.069,-412.751 684,-409 702.317,-399.087 702.271,-389.929 720,-379 737.103,-368.457 757.474,-359.293 774.694,-352.407"/>
<polygon fill="midnightblue" stroke="midnightblue" points="776.37,-355.51 784.42,-348.622 773.832,-348.986 776.37,-355.51"/>
</g>
<!-- Node16&#45;&gt;Node22 -->
<g id="edge46" class="edge"><title>Node16&#45;&gt;Node22</title>
<path fill="none" stroke="midnightblue" d="M669.456,-418.425C674.761,-415.967 679.767,-412.879 684,-409 715.455,-380.169 693.134,-353.149 720,-320 736.751,-299.332 762.208,-282.918 782.101,-272.184"/>
<polygon fill="midnightblue" stroke="midnightblue" points="783.819,-275.235 791.076,-267.517 780.589,-269.025 783.819,-275.235"/>
</g>
<!-- Node16&#45;&gt;Node23 -->
<g id="edge48" class="edge"><title>Node16&#45;&gt;Node23</title>
<path fill="none" stroke="midnightblue" d="M671.356,-418.492C676.078,-416.014 680.428,-412.904 684,-409 736.136,-352.022 685.267,-307.98 720,-239 737.993,-203.265 771.325,-170.153 792.544,-151.282"/>
<polygon fill="midnightblue" stroke="midnightblue" points="795.039,-153.75 800.289,-144.547 790.446,-148.468 795.039,-153.75"/>
</g>
</g>
</svg>
        <g id="navigator" transform="translate(0 0)" fill="#404254">
                <rect fill="#f2f5e9" fill-opacity="0.5" stroke="#606060" stroke-width=".5" x="0" y="0" width="60" height="60"/>
                <use id="zoomplus" xlink:href="#zoomPlus" x="17" y="9" onmousedown="handleZoom(evt,'in')"/>
                <use id="zoomminus" xlink:href="#zoomMin" x="42" y="9" onmousedown="handleZoom(evt,'out')"/>
                <use id="reset" xlink:href="#resetDef" x="30" y="36" onmousedown="handleReset()"/>
                <g id="arrowUp" xlink:href="#dirArrow" transform="translate(30 24)" onmousedown="handlePan(0,-1)">
                  <use xlink:href="#rim" fill="#404040">
                        <set attributeName="fill" to="#808080" begin="arrowUp.mouseover" end="arrowUp.mouseout"/>
                  </use>
                  <path fill="none" stroke="white" stroke-width="1.5" d="M0,-3.0v7 M-2.5,-0.5L0,-3.0L2.5,-0.5"/>
                </g>
                <g id="arrowRight" xlink:href="#dirArrow" transform="rotate(90) translate(36 -43)" onmousedown="handlePan(1,0)">
                  <use xlink:href="#rim" fill="#404040">
                        <set attributeName="fill" to="#808080" begin="arrowRight.mouseover" end="arrowRight.mouseout"/>
                  </use>
                  <path fill="none" stroke="white" stroke-width="1.5" d="M0,-3.0v7 M-2.5,-0.5L0,-3.0L2.5,-0.5"/>
                </g>
                <g id="arrowDown" xlink:href="#dirArrow" transform="rotate(180) translate(-30 -48)" onmousedown="handlePan(0,1)">
                  <use xlink:href="#rim" fill="#404040">
                        <set attributeName="fill" to="#808080" begin="arrowDown.mouseover" end="arrowDown.mouseout"/>
                  </use>
                  <path fill="none" stroke="white" stroke-width="1.5" d="M0,-3.0v7 M-2.5,-0.5L0,-3.0L2.5,-0.5"/>
                </g>
                <g id="arrowLeft" xlink:href="#dirArrow" transform="rotate(270) translate(-36 17)" onmousedown="handlePan(-1,0)">
                  <use xlink:href="#rim" fill="#404040">
                        <set attributeName="fill" to="#808080" begin="arrowLeft.mouseover" end="arrowLeft.mouseout"/>
                  </use>
                  <path fill="none" stroke="white" stroke-width="1.5" d="M0,-3.0v7 M-2.5,-0.5L0,-3.0L2.5,-0.5"/>
                </g>
        </g>
        <svg viewBox="0 0 25 25" width="100%" height="30px" preserveAspectRatio="xMaxYMin meet"> 
          <g id="printButton" transform="scale(0.4 0.4)" onmousedown="handlePrint(evt)">
            <rect height="23.33753581" id="paper" rx="2" style="fill:#f2f5e9;fill-rule:evenodd;stroke:#111111;stroke-width:3.224;stroke-linejoin:round;" transform="matrix(1.000000,0.000000,-0.339266,0.940691,0.000000,0.000000)" width="25.55231285" x="26.69387353" y="7.36162977"/>
            <rect height="26.272097" id="body" rx="2" style="fill:#404040;fill-rule:evenodd;stroke:#111111;stroke-width:3.125;stroke-linejoin:round;" width="50" x="4.5295201" y="27.078951"/>
            <rect height="8.27750969" id="tray" style="fill:#d2d5c9;fill-rule:evenodd;stroke:#111111;stroke-width:3.125;stroke-linecap:round;stroke-linejoin:round;" width="40" x="10.28778839" y="44.96812282"/>
          </g>
        </svg>
</svg>
