<?xml version="1.0" encoding="UTF-8" standalone="no"?>
<!DOCTYPE svg PUBLIC "-//W3C//DTD SVG 1.1//EN"
 "http://www.w3.org/Graphics/SVG/1.1/DTD/svg11.dtd">
<!-- Generated by graphviz version 2.28.0 (20120217.0315)
 -->
<!-- Title: G Pages: 1 -->
<!--zoomable 462 -->
<svg id="main" version="1.1" xmlns="http://www.w3.org/2000/svg" xmlns:xlink="http://www.w3.org/1999/xlink" xml:space="preserve" onload="init(evt)">
        <defs>
                <circle id="rim" cx="0" cy="0" r="7"/>
                <circle id="rim2" cx="0" cy="0" r="3.5"/>
                <g id="zoomPlus">
                        <use xlink:href="#rim" fill="#404040">
                                <set attributeName="fill" to="#808080" begin="zoomplus.mouseover" end="zoomplus.mouseout"/>
                        </use>
                        <path d="M-4,0h8M0,-4v8" fill="none" stroke="white" stroke-width="1.5" pointer-events="none"/>
                </g>
                <g id="zoomMin">
                        <use xlink:href="#rim" fill="#404040">
                                <set attributeName="fill" to="#808080" begin="zoomminus.mouseover" end="zoomminus.mouseout"/>
                        </use>
                        <path d="M-4,0h8" fill="none" stroke="white" stroke-width="1.5" pointer-events="none"/>
                </g>
                <g id="dirArrow">
                        <path fill="none" stroke="white" stroke-width="1.5" d="M0,-3.0v7 M-2.5,-0.5L0,-3.0L2.5,-0.5"/>
                </g>
               <g id="resetDef">
                       <use xlink:href="#rim2" fill="#404040">
                               <set attributeName="fill" to="#808080" begin="reset.mouseover" end="reset.mouseout"/>
                       </use>
               </g>
        </defs>

<script type="text/javascript">
var viewWidth = 993;
var viewHeight = 462;
var sectionId = 'dynsection-7';
</script>
<script xlink:href="../../svgpan.js"/>
<svg id="graph" class="graph">
<g id="viewport">
<title>G</title>
<!-- Node1 -->
<g id="node1" class="node"><title>Node1</title>
<polygon fill="#bfbfbf" stroke="black" points="487.5,-171.5 487.5,-190.5 570.5,-190.5 570.5,-171.5 487.5,-171.5"/>
<text text-anchor="middle" x="529" y="-178.5" font-family="DejaVuSansMono" font-size="10.00">xmpp_server</text>
</g>
<!-- Node11 -->
<g id="node28" class="node"><title>Node11</title>
<a xlink:href="../../dd/d4d/xmpp__client_8c.html#de/de2/structxmpp__client" target="_top" xlink:title="Data on a connected client.">
<polygon fill="none" stroke="black" points="282.5,-80.5 282.5,-99.5 365.5,-99.5 365.5,-80.5 282.5,-80.5"/>
<text text-anchor="middle" x="324" y="-87.5" font-family="DejaVuSansMono" font-size="10.00">xmpp_client</text>
</a>
</g>
<!-- Node1&#45;&gt;Node11 -->
<g id="edge38" class="edge"><title>Node1&#45;&gt;Node11</title>
<path fill="none" stroke="#9a32cd" stroke-dasharray="5,2" d="M490.868,-168.434C462.493,-159.315 423.113,-145.569 390,-130 370.729,-120.939 349.765,-107.97 336.753,-99.5173"/>
<polygon fill="#9a32cd" stroke="#9a32cd" points="489.827,-171.775 500.417,-171.461 491.943,-165.103 489.827,-171.775"/>
<text text-anchor="middle" x="411.5" y="-121.5" font-family="DejaVuSansMono" font-size="10.00"> server</text>
</g>
<!-- Node2 -->
<g id="node2" class="node"><title>Node2</title>
<a xlink:href="../../d0/df0/xmpp__server_8c.html#d4/d94/structstanza__route" target="_top" xlink:title="Holds data on how to send a stanza to a particular JID.">
<polygon fill="none" stroke="black" points="354.5,-263.5 354.5,-282.5 443.5,-282.5 443.5,-263.5 354.5,-263.5"/>
<text text-anchor="middle" x="399" y="-270.5" font-family="DejaVuSansMono" font-size="10.00">stanza_route</text>
</a>
</g>
<!-- Node2&#45;&gt;Node1 -->
<g id="edge2" class="edge"><title>Node2&#45;&gt;Node1</title>
<path fill="none" stroke="#9a32cd" stroke-dasharray="5,2" d="M409.557,-255.1C414.981,-247.371 422.107,-238.508 430,-232 452.878,-213.134 484.056,-198.873 505.27,-190.503"/>
<polygon fill="#9a32cd" stroke="#9a32cd" points="406.635,-253.175 404.028,-263.444 412.47,-257.042 406.635,-253.175"/>
<text text-anchor="middle" x="472.5" y="-235.5" font-family="DejaVuSansMono" font-size="10.00"> stanza_routes</text>
</g>
<!-- Node2&#45;&gt;Node2 -->
<g id="edge4" class="edge"><title>Node2&#45;&gt;Node2</title>
<path fill="none" stroke="#9a32cd" stroke-dasharray="5,2" d="M453.516,-277.951C458.126,-276.891 461,-275.241 461,-273 461,-269.414 453.644,-267.341 443.586,-266.781"/>
<polygon fill="#9a32cd" stroke="#9a32cd" points="453.062,-274.48 443.586,-279.219 453.949,-281.424 453.062,-274.48"/>
<text text-anchor="middle" x="476.5" y="-276" font-family="DejaVuSansMono" font-size="10.00"> prev</text>
<text text-anchor="middle" x="476.5" y="-265" font-family="DejaVuSansMono" font-size="10.00">next</text>
</g>
<!-- Node3 -->
<g id="node5" class="node"><title>Node3</title>
<a xlink:href="../../d1/d59/xmpp__stanza_8c.html#d5/d6b/structxmpp__stanza" target="_top" xlink:title="xmpp_stanza">
<polygon fill="none" stroke="black" points="174.5,-354.5 174.5,-373.5 257.5,-373.5 257.5,-354.5 174.5,-354.5"/>
<text text-anchor="middle" x="216" y="-361.5" font-family="DejaVuSansMono" font-size="10.00">xmpp_stanza</text>
</a>
</g>
<!-- Node3&#45;&gt;Node2 -->
<g id="edge6" class="edge"><title>Node3&#45;&gt;Node2</title>
<path fill="none" stroke="#9a32cd" stroke-dasharray="5,2" d="M242.977,-349.88C281.04,-331.369 349.437,-298.104 381.506,-282.508"/>
<polygon fill="#9a32cd" stroke="#9a32cd" points="241.009,-346.945 233.547,-354.466 244.07,-353.24 241.009,-346.945"/>
<text text-anchor="middle" x="349.5" y="-310.5" font-family="DejaVuSansMono" font-size="10.00"> cb</text>
</g>
<!-- Node3&#45;&gt;Node3 -->
<g id="edge12" class="edge"><title>Node3&#45;&gt;Node3</title>
<path fill="none" stroke="#9a32cd" stroke-dasharray="5,2" d="M267.508,-370.816C272.111,-369.388 275,-367.116 275,-364 275,-359.014 267.605,-356.189 257.625,-355.527"/>
<polygon fill="#9a32cd" stroke="#9a32cd" points="266.909,-367.367 257.625,-372.473 268.066,-374.271 266.909,-367.367"/>
<text text-anchor="middle" x="299.5" y="-378" font-family="DejaVuSansMono" font-size="10.00"> prev</text>
<text text-anchor="middle" x="299.5" y="-367" font-family="DejaVuSansMono" font-size="10.00">next</text>
<text text-anchor="middle" x="299.5" y="-356" font-family="DejaVuSansMono" font-size="10.00">parent</text>
<text text-anchor="middle" x="299.5" y="-345" font-family="DejaVuSansMono" font-size="10.00">children</text>
</g>
<!-- Node13 -->
<g id="node34" class="node"><title>Node13</title>
<a xlink:href="../../d1/dc2/xmpp__parser_8c.html#d2/da4/structxmpp__parser" target="_top" xlink:title="Structure holding state for the XML parser.">
<polygon fill="none" stroke="black" points="29.5,-263.5 29.5,-282.5 112.5,-282.5 112.5,-263.5 29.5,-263.5"/>
<text text-anchor="middle" x="71" y="-270.5" font-family="DejaVuSansMono" font-size="10.00">xmpp_parser</text>
</a>
</g>
<!-- Node3&#45;&gt;Node13 -->
<g id="edge48" class="edge"><title>Node3&#45;&gt;Node13</title>
<path fill="none" stroke="#9a32cd" stroke-dasharray="5,2" d="M192.689,-349.153C180.277,-341.745 164.772,-332.435 151,-324 127.535,-309.629 100.415,-292.587 84.5422,-282.568"/>
<polygon fill="#9a32cd" stroke="#9a32cd" points="191.115,-352.289 201.497,-354.401 194.698,-346.275 191.115,-352.289"/>
<text text-anchor="middle" x="181.5" y="-316" font-family="DejaVuSansMono" font-size="10.00"> handler</text>
<text text-anchor="middle" x="181.5" y="-305" font-family="DejaVuSansMono" font-size="10.00">cur_stanza</text>
</g>
<!-- Node16 -->
<g id="node45" class="node"><title>Node16</title>
<a xlink:href="../../d0/df0/xmpp__server_8c.html#dd/d35/structiq__route" target="_top" xlink:title="Holds data on how to handle a particular iq stanza.">
<polygon fill="none" stroke="black" points="183.5,-263.5 183.5,-282.5 248.5,-282.5 248.5,-263.5 183.5,-263.5"/>
<text text-anchor="middle" x="216" y="-270.5" font-family="DejaVuSansMono" font-size="10.00">iq_route</text>
</a>
</g>
<!-- Node3&#45;&gt;Node16 -->
<g id="edge62" class="edge"><title>Node3&#45;&gt;Node16</title>
<path fill="none" stroke="#9a32cd" stroke-dasharray="5,2" d="M216,-344.349C216,-325.383 216,-296.828 216,-282.639"/>
<polygon fill="#9a32cd" stroke="#9a32cd" points="212.5,-344.466 216,-354.466 219.5,-344.466 212.5,-344.466"/>
<text text-anchor="middle" x="225.5" y="-310.5" font-family="DejaVuSansMono" font-size="10.00"> cb</text>
</g>
<!-- Node4 -->
<g id="node7" class="node"><title>Node4</title>
<a xlink:href="../../d1/dc2/xmpp__parser_8c.html#dc/d9d/structxmpp__parser__namespace" target="_top" xlink:title="Structure representing an XML namespace.">
<polygon fill="none" stroke="black" points="-0.5,-434.5 -0.5,-453.5 142.5,-453.5 142.5,-434.5 -0.5,-434.5"/>
<text text-anchor="middle" x="71" y="-441.5" font-family="DejaVuSansMono" font-size="10.00">xmpp_parser_namespace</text>
</a>
</g>
<!-- Node4&#45;&gt;Node3 -->
<g id="edge8" class="edge"><title>Node4&#45;&gt;Node3</title>
<path fill="none" stroke="#9a32cd" stroke-dasharray="5,2" d="M96.0161,-429.543C125.797,-413.523 174.661,-387.237 199.856,-373.684"/>
<polygon fill="#9a32cd" stroke="#9a32cd" points="94.2201,-426.535 87.0716,-434.355 97.5363,-432.7 94.2201,-426.535"/>
<text text-anchor="middle" x="177.5" y="-407.5" font-family="DejaVuSansMono" font-size="10.00"> namespaces</text>
</g>
<!-- Node4&#45;&gt;Node4 -->
<g id="edge10" class="edge"><title>Node4&#45;&gt;Node4</title>
<path fill="none" stroke="#9a32cd" stroke-dasharray="5,2" d="M152.666,-448.301C157.261,-447.26 160,-445.826 160,-444 160,-441.078 152.989,-439.161 142.582,-438.248"/>
<polygon fill="#9a32cd" stroke="#9a32cd" points="151.981,-444.864 142.582,-449.752 152.978,-451.793 151.981,-444.864"/>
<text text-anchor="middle" x="175.5" y="-441.5" font-family="DejaVuSansMono" font-size="10.00"> next</text>
</g>
<!-- Node4&#45;&gt;Node13 -->
<g id="edge46" class="edge"><title>Node4&#45;&gt;Node13</title>
<path fill="none" stroke="#9a32cd" stroke-dasharray="5,2" d="M71,-424.187C71,-387.821 71,-309.144 71,-282.798"/>
<polygon fill="#9a32cd" stroke="#9a32cd" points="67.5001,-424.387 71,-434.387 74.5001,-424.387 67.5001,-424.387"/>
<text text-anchor="middle" x="104.5" y="-361.5" font-family="DejaVuSansMono" font-size="10.00"> namespaces</text>
</g>
<!-- Node5 -->
<g id="node11" class="node"><title>Node5</title>
<a xlink:href="../../d1/d59/xmpp__stanza_8c.html#d9/d18/structattribute" target="_top" xlink:title="Structure to store a stanza attribute.">
<polygon fill="none" stroke="black" points="209.5,-434.5 209.5,-453.5 280.5,-453.5 280.5,-434.5 209.5,-434.5"/>
<text text-anchor="middle" x="245" y="-441.5" font-family="DejaVuSansMono" font-size="10.00">attribute</text>
</a>
</g>
<!-- Node5&#45;&gt;Node3 -->
<g id="edge14" class="edge"><title>Node5&#45;&gt;Node3</title>
<path fill="none" stroke="#9a32cd" stroke-dasharray="5,2" d="M238.134,-424.534C232.201,-408.574 223.881,-386.196 219.318,-373.924"/>
<polygon fill="#9a32cd" stroke="#9a32cd" points="235.02,-426.201 241.786,-434.355 241.581,-423.762 235.02,-426.201"/>
<text text-anchor="middle" x="268.5" y="-407.5" font-family="DejaVuSansMono" font-size="10.00"> attributes</text>
</g>
<!-- Node6 -->
<g id="node13" class="node"><title>Node6</title>
<a xlink:href="../../d3/d5a/jid_8c.html#df/d09/structjid" target="_top" xlink:title="Represents a JID (local/resource).">
<polygon fill="none" stroke="black" points="478.5,-354.5 478.5,-373.5 513.5,-373.5 513.5,-354.5 478.5,-354.5"/>
<text text-anchor="middle" x="496" y="-361.5" font-family="DejaVuSansMono" font-size="10.00">jid</text>
</a>
</g>
<!-- Node6&#45;&gt;Node1 -->
<g id="edge66" class="edge"><title>Node6&#45;&gt;Node1</title>
<path fill="none" stroke="#9a32cd" stroke-dasharray="5,2" d="M499.396,-344.375C506.43,-305.791 522.361,-218.411 527.424,-190.642"/>
<polygon fill="#9a32cd" stroke="#9a32cd" points="495.942,-343.804 497.592,-354.27 502.829,-345.06 495.942,-343.804"/>
<text text-anchor="middle" x="527.5" y="-270.5" font-family="DejaVuSansMono" font-size="10.00"> jid</text>
</g>
<!-- Node6&#45;&gt;Node2 -->
<g id="edge16" class="edge"><title>Node6&#45;&gt;Node2</title>
<path fill="none" stroke="#9a32cd" stroke-dasharray="5,2" d="M479.062,-347.459C458.558,-328.646 424.751,-297.627 408.415,-282.639"/>
<polygon fill="#9a32cd" stroke="#9a32cd" points="476.965,-350.285 486.699,-354.466 481.697,-345.127 476.965,-350.285"/>
<text text-anchor="middle" x="466.5" y="-310.5" font-family="DejaVuSansMono" font-size="10.00"> jid</text>
</g>
<!-- Node9 -->
<g id="node21" class="node"><title>Node9</title>
<a xlink:href="../../d0/df0/xmpp__server_8c.html#d9/dbe/structdisco__item" target="_top" xlink:title="Holds data for items to report during a DISCO items query.">
<polygon fill="none" stroke="black" points="685.5,-263.5 685.5,-282.5 762.5,-282.5 762.5,-263.5 685.5,-263.5"/>
<text text-anchor="middle" x="724" y="-270.5" font-family="DejaVuSansMono" font-size="10.00">disco_item</text>
</a>
</g>
<!-- Node6&#45;&gt;Node9 -->
<g id="edge30" class="edge"><title>Node6&#45;&gt;Node9</title>
<path fill="none" stroke="#9a32cd" stroke-dasharray="5,2" d="M523.048,-352.442C568.727,-334.611 660.264,-298.879 702.159,-282.525"/>
<polygon fill="#9a32cd" stroke="#9a32cd" points="521.555,-349.267 513.512,-356.164 524.1,-355.788 521.555,-349.267"/>
<text text-anchor="middle" x="663.5" y="-310.5" font-family="DejaVuSansMono" font-size="10.00"> jid</text>
</g>
<!-- Node6&#45;&gt;Node11 -->
<g id="edge50" class="edge"><title>Node6&#45;&gt;Node11</title>
<path fill="none" stroke="#9a32cd" stroke-dasharray="5,2" d="M468.376,-356.967C433.341,-347.742 374.008,-326.53 345,-284 304.168,-224.134 317.109,-128.694 322.301,-99.659"/>
<polygon fill="#9a32cd" stroke="#9a32cd" points="467.859,-360.445 478.408,-359.455 469.545,-353.651 467.859,-360.445"/>
<text text-anchor="middle" x="338.5" y="-235.5" font-family="DejaVuSansMono" font-size="10.00"> jid</text>
</g>
<!-- Node7 -->
<g id="node15" class="node"><title>Node7</title>
<a xlink:href="../../d0/deb/event_8c.html#d9/de5/structevent__loop" target="_top" xlink:title="Contains data about the whole event loop.">
<polygon fill="none" stroke="black" points="832.5,-263.5 832.5,-282.5 909.5,-282.5 909.5,-263.5 832.5,-263.5"/>
<text text-anchor="middle" x="871" y="-270.5" font-family="DejaVuSansMono" font-size="10.00">event_loop</text>
</a>
</g>
<!-- Node7&#45;&gt;Node1 -->
<g id="edge18" class="edge"><title>Node7&#45;&gt;Node1</title>
<path fill="none" stroke="#9a32cd" stroke-dasharray="5,2" d="M843.801,-259.305C824.403,-250.648 797.519,-239.446 773,-232 703.282,-210.829 619.633,-195.866 570.595,-188.111"/>
<polygon fill="#9a32cd" stroke="#9a32cd" points="842.391,-262.509 852.944,-263.445 845.278,-256.132 842.391,-262.509"/>
<text text-anchor="middle" x="821.5" y="-235.5" font-family="DejaVuSansMono" font-size="10.00"> loop</text>
</g>
<!-- Node8 -->
<g id="node17" class="node"><title>Node8</title>
<a xlink:href="../../d0/deb/event_8c.html#de/dcb/structevent__item" target="_top" xlink:title="Contains data for one callback function.">
<polygon fill="none" stroke="black" points="859.5,-171.5 859.5,-190.5 936.5,-190.5 936.5,-171.5 859.5,-171.5"/>
<text text-anchor="middle" x="898" y="-178.5" font-family="DejaVuSansMono" font-size="10.00">event_item</text>
</a>
</g>
<!-- Node7&#45;&gt;Node8 -->
<g id="edge22" class="edge"><title>Node7&#45;&gt;Node8</title>
<path fill="none" stroke="#9a32cd" stroke-dasharray="5,2" d="M866.943,-253.006C866.192,-246.273 866.142,-238.707 868,-232 872.432,-216 883.497,-199.98 890.878,-190.532"/>
<polygon fill="#9a32cd" stroke="#9a32cd" points="863.555,-253.965 868.657,-263.25 870.459,-252.81 863.555,-253.965"/>
<text text-anchor="middle" x="883.5" y="-235.5" font-family="DejaVuSansMono" font-size="10.00"> func</text>
</g>
<!-- Node8&#45;&gt;Node7 -->
<g id="edge20" class="edge"><title>Node8&#45;&gt;Node7</title>
<path fill="none" stroke="#9a32cd" stroke-dasharray="5,2" d="M904.155,-200.816C907.233,-213.554 909.143,-230.462 903,-244 899.401,-251.932 892.321,-258.501 885.733,-263.278"/>
<polygon fill="#9a32cd" stroke="#9a32cd" points="907.431,-199.541 901.322,-190.885 900.699,-201.461 907.431,-199.541"/>
<text text-anchor="middle" x="928.5" y="-235.5" font-family="DejaVuSansMono" font-size="10.00"> events</text>
</g>
<!-- Node8&#45;&gt;Node8 -->
<g id="edge24" class="edge"><title>Node8&#45;&gt;Node8</title>
<path fill="none" stroke="#9a32cd" stroke-dasharray="5,2" d="M931.962,-191.491C944.108,-191.703 954,-188.206 954,-181 954,-171.867 938.113,-168.692 921.884,-171.475"/>
<polygon fill="#9a32cd" stroke="#9a32cd" points="932.172,-187.995 921.884,-190.525 931.505,-194.963 932.172,-187.995"/>
<text text-anchor="middle" x="969.5" y="-184" font-family="DejaVuSansMono" font-size="10.00"> prev</text>
<text text-anchor="middle" x="969.5" y="-173" font-family="DejaVuSansMono" font-size="10.00">next</text>
</g>
<!-- Node9&#45;&gt;Node1 -->
<g id="edge26" class="edge"><title>Node9&#45;&gt;Node1</title>
<path fill="none" stroke="#9a32cd" stroke-dasharray="5,2" d="M709.294,-255.718C701.291,-247.659 690.83,-238.328 680,-232 645.308,-211.73 601.273,-198.349 569.722,-190.575"/>
<polygon fill="#9a32cd" stroke="#9a32cd" points="706.974,-258.357 716.4,-263.194 712.048,-253.535 706.974,-258.357"/>
<text text-anchor="middle" x="732.5" y="-235.5" font-family="DejaVuSansMono" font-size="10.00"> disco_items</text>
</g>
<!-- Node9&#45;&gt;Node9 -->
<g id="edge28" class="edge"><title>Node9&#45;&gt;Node9</title>
<path fill="none" stroke="#9a32cd" stroke-dasharray="5,2" d="M772.872,-278.042C777.251,-276.987 780,-275.307 780,-273 780,-269.215 772.597,-267.115 762.735,-266.701"/>
<polygon fill="#9a32cd" stroke="#9a32cd" points="772.229,-274.595 762.735,-279.299 773.09,-281.542 772.229,-274.595"/>
<text text-anchor="middle" x="795.5" y="-276" font-family="DejaVuSansMono" font-size="10.00"> prev</text>
<text text-anchor="middle" x="795.5" y="-265" font-family="DejaVuSansMono" font-size="10.00">next</text>
</g>
<!-- Node10 -->
<g id="node25" class="node"><title>Node10</title>
<a xlink:href="../../d0/df0/xmpp__server_8c.html#d2/d06/structclient__listener" target="_top" xlink:title="Holds data on how to notify a component when a client disconnects.">
<polygon fill="none" stroke="black" points="464.5,-1.5 464.5,-20.5 571.5,-20.5 571.5,-1.5 464.5,-1.5"/>
<text text-anchor="middle" x="518" y="-8.5" font-family="DejaVuSansMono" font-size="10.00">client_listener</text>
</a>
</g>
<!-- Node10&#45;&gt;Node1 -->
<g id="edge32" class="edge"><title>Node10&#45;&gt;Node1</title>
<path fill="none" stroke="#9a32cd" stroke-dasharray="5,2" d="M519.241,-30.9582C521.621,-67.3063 526.741,-145.494 528.439,-171.438"/>
<polygon fill="#9a32cd" stroke="#9a32cd" points="522.719,-30.4963 518.573,-20.7463 515.734,-30.9537 522.719,-30.4963"/>
<text text-anchor="middle" x="575.5" y="-87.5" font-family="DejaVuSansMono" font-size="10.00"> client_listeners</text>
</g>
<!-- Node10&#45;&gt;Node10 -->
<g id="edge34" class="edge"><title>Node10&#45;&gt;Node10</title>
<path fill="none" stroke="#9a32cd" stroke-dasharray="5,2" d="M581.569,-16.5361C586.179,-15.2868 589,-13.4414 589,-11 589,-7.09375 581.778,-4.71338 571.564,-3.85889"/>
<polygon fill="#9a32cd" stroke="#9a32cd" points="580.884,-13.1012 571.564,-18.1411 581.993,-20.0128 580.884,-13.1012"/>
<text text-anchor="middle" x="604.5" y="-14" font-family="DejaVuSansMono" font-size="10.00"> prev</text>
<text text-anchor="middle" x="604.5" y="-3" font-family="DejaVuSansMono" font-size="10.00">next</text>
</g>
<!-- Node11&#45;&gt;Node10 -->
<g id="edge36" class="edge"><title>Node11&#45;&gt;Node10</title>
<path fill="none" stroke="#9a32cd" stroke-dasharray="5,2" d="M354.919,-76.7281C394.47,-61.0299 461.962,-34.2419 496.401,-20.5728"/>
<polygon fill="#9a32cd" stroke="#9a32cd" points="353.506,-73.5231 345.503,-80.4655 356.088,-80.0294 353.506,-73.5231"/>
<text text-anchor="middle" x="466.5" y="-54" font-family="DejaVuSansMono" font-size="10.00"> client</text>
<text text-anchor="middle" x="466.5" y="-43" font-family="DejaVuSansMono" font-size="10.00">cb</text>
</g>
<!-- Node14 -->
<g id="node39" class="node"><title>Node14</title>
<a xlink:href="../../d0/df0/xmpp__server_8c.html#d5/da1/structc__client" target="_top" xlink:title="c_client">
<polygon fill="none" stroke="black" points="318.5,-1.5 318.5,-20.5 383.5,-20.5 383.5,-1.5 318.5,-1.5"/>
<text text-anchor="middle" x="351" y="-8.5" font-family="DejaVuSansMono" font-size="10.00">c_client</text>
</a>
</g>
<!-- Node11&#45;&gt;Node14 -->
<g id="edge56" class="edge"><title>Node11&#45;&gt;Node14</title>
<path fill="none" stroke="#9a32cd" stroke-dasharray="5,2" d="M320.754,-70.0888C319.943,-60.7182 320.197,-49.422 324,-40 327.083,-32.3601 333.36,-25.6429 339.086,-20.704"/>
<polygon fill="#9a32cd" stroke="#9a32cd" points="317.324,-70.8532 322.104,-80.3086 324.264,-69.9363 317.324,-70.8532"/>
<text text-anchor="middle" x="345.5" y="-48.5" font-family="DejaVuSansMono" font-size="10.00"> client</text>
</g>
<!-- Node12 -->
<g id="node31" class="node"><title>Node12</title>
<a xlink:href="../../d9/d71/client__socket_8h.html#df/d6d/structclient__socket" target="_top" xlink:title="client_socket">
<polygon fill="none" stroke="black" points="123.5,-171.5 123.5,-190.5 218.5,-190.5 218.5,-171.5 123.5,-171.5"/>
<text text-anchor="middle" x="171" y="-178.5" font-family="DejaVuSansMono" font-size="10.00">client_socket</text>
</a>
</g>
<!-- Node12&#45;&gt;Node11 -->
<g id="edge40" class="edge"><title>Node12&#45;&gt;Node11</title>
<path fill="none" stroke="#9a32cd" stroke-dasharray="5,2" d="M192.189,-165.66C211.771,-152.635 241.851,-133.193 269,-118 280.881,-111.351 294.631,-104.601 305.411,-99.513"/>
<polygon fill="#9a32cd" stroke="#9a32cd" points="190.092,-162.852 183.729,-171.324 193.986,-168.669 190.092,-162.852"/>
<text text-anchor="middle" x="290.5" y="-121.5" font-family="DejaVuSansMono" font-size="10.00"> socket</text>
</g>
<!-- Node12&#45;&gt;Node12 -->
<g id="edge42" class="edge"><title>Node12&#45;&gt;Node12</title>
<path fill="none" stroke="#9a32cd" stroke-dasharray="5,2" d="M208.734,-191.448C223.591,-191.974 236,-188.492 236,-181 236,-171.867 217.559,-168.692 198.723,-171.475"/>
<polygon fill="#9a32cd" stroke="#9a32cd" points="209.002,-187.958 198.723,-190.525 208.359,-194.929 209.002,-187.958"/>
<text text-anchor="middle" x="266.5" y="-206" font-family="DejaVuSansMono" font-size="10.00"> recv_func</text>
<text text-anchor="middle" x="266.5" y="-195" font-family="DejaVuSansMono" font-size="10.00">send_func</text>
<text text-anchor="middle" x="266.5" y="-184" font-family="DejaVuSansMono" font-size="10.00">close_func</text>
<text text-anchor="middle" x="266.5" y="-173" font-family="DejaVuSansMono" font-size="10.00">del_func</text>
<text text-anchor="middle" x="266.5" y="-162" font-family="DejaVuSansMono" font-size="10.00">fd_func</text>
<text text-anchor="middle" x="266.5" y="-151" font-family="DejaVuSansMono" font-size="10.00">str_func</text>
</g>
<!-- Node13&#45;&gt;Node11 -->
<g id="edge44" class="edge"><title>Node13&#45;&gt;Node11</title>
<path fill="none" stroke="#9a32cd" stroke-dasharray="5,2" d="M64.6241,-253.782C56.6489,-227.368 46.7737,-178.292 71,-148 97.0125,-115.475 217.554,-100.192 282.415,-94.2158"/>
<polygon fill="#9a32cd" stroke="#9a32cd" points="61.2982,-254.872 67.7181,-263.3 67.9554,-252.708 61.2982,-254.872"/>
<text text-anchor="middle" x="92.5" y="-178.5" font-family="DejaVuSansMono" font-size="10.00"> parser</text>
</g>
<!-- Node14&#45;&gt;Node1 -->
<g id="edge52" class="edge"><title>Node14&#45;&gt;Node1</title>
<path fill="none" stroke="#9a32cd" stroke-dasharray="5,2" d="M393.59,-20.5093C407.192,-24.7288 421.647,-30.9382 433,-40 457.486,-59.5441 452.465,-74.0374 470,-100 487.966,-126.6 510.971,-156.779 522.208,-171.293"/>
<polygon fill="#9a32cd" stroke="#9a32cd" points="394.468,-17.1204 383.893,-17.7761 392.569,-23.8579 394.468,-17.1204"/>
<text text-anchor="middle" x="494.5" y="-87.5" font-family="DejaVuSansMono" font-size="10.00"> clients</text>
</g>
<!-- Node14&#45;&gt;Node14 -->
<g id="edge54" class="edge"><title>Node14&#45;&gt;Node14</title>
<path fill="none" stroke="#9a32cd" stroke-dasharray="5,2" d="M393.791,-17.1821C398.189,-15.9648 401,-13.9041 401,-11 401,-6.23438 393.43,-3.73987 383.7,-3.51648"/>
<polygon fill="#9a32cd" stroke="#9a32cd" points="393.171,-13.733 383.7,-18.4835 394.066,-20.6755 393.171,-13.733"/>
<text text-anchor="middle" x="416.5" y="-14" font-family="DejaVuSansMono" font-size="10.00"> prev</text>
<text text-anchor="middle" x="416.5" y="-3" font-family="DejaVuSansMono" font-size="10.00">next</text>
</g>
<!-- Node15 -->
<g id="node43" class="node"><title>Node15</title>
<a xlink:href="../../d9/db0/structauth__callback.html" target="_top" xlink:title="Holds data for an authentication callback.">
<polygon fill="none" stroke="black" points="572.5,-263.5 572.5,-282.5 667.5,-282.5 667.5,-263.5 572.5,-263.5"/>
<text text-anchor="middle" x="620" y="-270.5" font-family="DejaVuSansMono" font-size="10.00">auth_callback</text>
</a>
</g>
<!-- Node15&#45;&gt;Node1 -->
<g id="edge58" class="edge"><title>Node15&#45;&gt;Node1</title>
<path fill="none" stroke="#9a32cd" stroke-dasharray="5,2" d="M604.11,-256.285C584.874,-237.26 553.158,-205.893 537.833,-190.736"/>
<polygon fill="#9a32cd" stroke="#9a32cd" points="601.703,-258.827 611.275,-263.37 606.626,-253.85 601.703,-258.827"/>
<text text-anchor="middle" x="633.5" y="-235.5" font-family="DejaVuSansMono" font-size="10.00"> auth_callback</text>
</g>
<!-- Node16&#45;&gt;Node1 -->
<g id="edge60" class="edge"><title>Node16&#45;&gt;Node1</title>
<path fill="none" stroke="#9a32cd" stroke-dasharray="5,2" d="M223.845,-254.352C228.317,-246.298 234.703,-237.378 243,-232 263.224,-218.892 412.851,-197.464 487.248,-187.462"/>
<polygon fill="#9a32cd" stroke="#9a32cd" points="220.641,-252.935 219.337,-263.449 226.913,-256.043 220.641,-252.935"/>
<text text-anchor="middle" x="273.5" y="-235.5" font-family="DejaVuSansMono" font-size="10.00"> iq_routes</text>
</g>
<!-- Node16&#45;&gt;Node16 -->
<g id="edge64" class="edge"><title>Node16&#45;&gt;Node16</title>
<path fill="none" stroke="#9a32cd" stroke-dasharray="5,2" d="M258.791,-278.255C263.189,-277.22 266,-275.468 266,-273 266,-268.949 258.43,-266.829 248.7,-266.639"/>
<polygon fill="#9a32cd" stroke="#9a32cd" points="258.259,-274.792 248.7,-279.361 259.022,-281.75 258.259,-274.792"/>
<text text-anchor="middle" x="281.5" y="-276" font-family="DejaVuSansMono" font-size="10.00"> prev</text>
<text text-anchor="middle" x="281.5" y="-265" font-family="DejaVuSansMono" font-size="10.00">next</text>
</g>
</g>
</svg>
        <g id="navigator" transform="translate(0 0)" fill="#404254">
                <rect fill="#f2f5e9" fill-opacity="0.5" stroke="#606060" stroke-width=".5" x="0" y="0" width="60" height="60"/>
                <use id="zoomplus" xlink:href="#zoomPlus" x="17" y="9" onmousedown="handleZoom(evt,'in')"/>
                <use id="zoomminus" xlink:href="#zoomMin" x="42" y="9" onmousedown="handleZoom(evt,'out')"/>
                <use id="reset" xlink:href="#resetDef" x="30" y="36" onmousedown="handleReset()"/>
                <g id="arrowUp" xlink:href="#dirArrow" transform="translate(30 24)" onmousedown="handlePan(0,-1)">
                  <use xlink:href="#rim" fill="#404040">
                        <set attributeName="fill" to="#808080" begin="arrowUp.mouseover" end="arrowUp.mouseout"/>
                  </use>
                  <path fill="none" stroke="white" stroke-width="1.5" d="M0,-3.0v7 M-2.5,-0.5L0,-3.0L2.5,-0.5"/>
                </g>
                <g id="arrowRight" xlink:href="#dirArrow" transform="rotate(90) translate(36 -43)" onmousedown="handlePan(1,0)">
                  <use xlink:href="#rim" fill="#404040">
                        <set attributeName="fill" to="#808080" begin="arrowRight.mouseover" end="arrowRight.mouseout"/>
                  </use>
                  <path fill="none" stroke="white" stroke-width="1.5" d="M0,-3.0v7 M-2.5,-0.5L0,-3.0L2.5,-0.5"/>
                </g>
                <g id="arrowDown" xlink:href="#dirArrow" transform="rotate(180) translate(-30 -48)" onmousedown="handlePan(0,1)">
                  <use xlink:href="#rim" fill="#404040">
                        <set attributeName="fill" to="#808080" begin="arrowDown.mouseover" end="arrowDown.mouseout"/>
                  </use>
                  <path fill="none" stroke="white" stroke-width="1.5" d="M0,-3.0v7 M-2.5,-0.5L0,-3.0L2.5,-0.5"/>
                </g>
                <g id="arrowLeft" xlink:href="#dirArrow" transform="rotate(270) translate(-36 17)" onmousedown="handlePan(-1,0)">
                  <use xlink:href="#rim" fill="#404040">
                        <set attributeName="fill" to="#808080" begin="arrowLeft.mouseover" end="arrowLeft.mouseout"/>
                  </use>
                  <path fill="none" stroke="white" stroke-width="1.5" d="M0,-3.0v7 M-2.5,-0.5L0,-3.0L2.5,-0.5"/>
                </g>
        </g>
        <svg viewBox="0 0 25 25" width="100%" height="30px" preserveAspectRatio="xMaxYMin meet"> 
          <g id="printButton" transform="scale(0.4 0.4)" onmousedown="handlePrint(evt)">
            <rect height="23.33753581" id="paper" rx="2" style="fill:#f2f5e9;fill-rule:evenodd;stroke:#111111;stroke-width:3.224;stroke-linejoin:round;" transform="matrix(1.000000,0.000000,-0.339266,0.940691,0.000000,0.000000)" width="25.55231285" x="26.69387353" y="7.36162977"/>
            <rect height="26.272097" id="body" rx="2" style="fill:#404040;fill-rule:evenodd;stroke:#111111;stroke-width:3.125;stroke-linejoin:round;" width="50" x="4.5295201" y="27.078951"/>
            <rect height="8.27750969" id="tray" style="fill:#d2d5c9;fill-rule:evenodd;stroke:#111111;stroke-width:3.125;stroke-linecap:round;stroke-linejoin:round;" width="40" x="10.28778839" y="44.96812282"/>
          </g>
        </svg>
</svg>
