<?xml version="1.0" encoding="UTF-8" standalone="no"?>
<!DOCTYPE svg PUBLIC "-//W3C//DTD SVG 1.1//EN"
 "http://www.w3.org/Graphics/SVG/1.1/DTD/svg11.dtd">
<!-- Generated by graphviz version 2.28.0 (20120217.0315)
 -->
<!-- Title: G Pages: 1 -->
<!--zoomable 140 -->
<svg id="main" version="1.1" xmlns="http://www.w3.org/2000/svg" xmlns:xlink="http://www.w3.org/1999/xlink" xml:space="preserve" onload="init(evt)">
        <defs>
                <circle id="rim" cx="0" cy="0" r="7"/>
                <circle id="rim2" cx="0" cy="0" r="3.5"/>
                <g id="zoomPlus">
                        <use xlink:href="#rim" fill="#404040">
                                <set attributeName="fill" to="#808080" begin="zoomplus.mouseover" end="zoomplus.mouseout"/>
                        </use>
                        <path d="M-4,0h8M0,-4v8" fill="none" stroke="white" stroke-width="1.5" pointer-events="none"/>
                </g>
                <g id="zoomMin">
                        <use xlink:href="#rim" fill="#404040">
                                <set attributeName="fill" to="#808080" begin="zoomminus.mouseover" end="zoomminus.mouseout"/>
                        </use>
                        <path d="M-4,0h8" fill="none" stroke="white" stroke-width="1.5" pointer-events="none"/>
                </g>
                <g id="dirArrow">
                        <path fill="none" stroke="white" stroke-width="1.5" d="M0,-3.0v7 M-2.5,-0.5L0,-3.0L2.5,-0.5"/>
                </g>
               <g id="resetDef">
                       <use xlink:href="#rim2" fill="#404040">
                               <set attributeName="fill" to="#808080" begin="reset.mouseover" end="reset.mouseout"/>
                       </use>
               </g>
        </defs>

<script type="text/javascript">
var viewWidth = 945;
var viewHeight = 140;
var sectionId = 'dynsection-0';
</script>
<script xlink:href="../../svgpan.js"/>
<svg id="graph" class="graph">
<g id="viewport">
<title>G</title>
<!-- Node1 -->
<g id="node1" class="node"><title>Node1</title>
<polygon fill="#bfbfbf" stroke="black" points="468.5,-112.5 468.5,-131.5 587.5,-131.5 587.5,-112.5 468.5,-112.5"/>
<text text-anchor="middle" x="528" y="-119.5" font-family="DejaVuSansMono" font-size="10.00">src/xmpp_client.c</text>
</g>
<!-- Node2 -->
<g id="node3" class="node"><title>Node2</title>
<a xlink:href="../../d7/d7f/log_8h.html" target="_top" xlink:title="Debugging and logging functions/macros.">
<polygon fill="none" stroke="black" points="82.5,-56.5 82.5,-75.5 129.5,-75.5 129.5,-56.5 82.5,-56.5"/>
<text text-anchor="middle" x="106" y="-63.5" font-family="DejaVuSansMono" font-size="10.00">log.h</text>
</a>
</g>
<!-- Node1&#45;&gt;Node2 -->
<g id="edge2" class="edge"><title>Node1&#45;&gt;Node2</title>
<path fill="none" stroke="midnightblue" d="M468.26,-116.907C393.555,-111.163 261.667,-98.9602 139.588,-75.8254"/>
<polygon fill="midnightblue" stroke="midnightblue" points="140.174,-72.374 129.692,-73.9217 138.851,-79.248 140.174,-72.374"/>
</g>
<!-- Node6 -->
<g id="node11" class="node"><title>Node6</title>
<a xlink:href="../../d9/d71/client__socket_8h.html" target="_top" xlink:title="Abstracts basic socket interactions.">
<polygon fill="none" stroke="black" points="474.5,-56.5 474.5,-75.5 581.5,-75.5 581.5,-56.5 474.5,-56.5"/>
<text text-anchor="middle" x="528" y="-63.5" font-family="DejaVuSansMono" font-size="10.00">client_socket.h</text>
</a>
</g>
<!-- Node1&#45;&gt;Node6 -->
<g id="edge10" class="edge"><title>Node1&#45;&gt;Node6</title>
<path fill="none" stroke="midnightblue" d="M528,-112.083C528,-105.006 528,-94.8611 528,-85.9865"/>
<polygon fill="midnightblue" stroke="midnightblue" points="531.5,-85.751 528,-75.7511 524.5,-85.7511 531.5,-85.751"/>
</g>
<!-- Node10 -->
<g id="node19" class="node"><title>Node10</title>
<a xlink:href="../../dd/d20/event_8h.html" target="_top" xlink:title="Simple event loop.">
<polygon fill="none" stroke="black" points="599.5,-56.5 599.5,-75.5 658.5,-75.5 658.5,-56.5 599.5,-56.5"/>
<text text-anchor="middle" x="629" y="-63.5" font-family="DejaVuSansMono" font-size="10.00">event.h</text>
</a>
</g>
<!-- Node1&#45;&gt;Node10 -->
<g id="edge18" class="edge"><title>Node1&#45;&gt;Node10</title>
<path fill="none" stroke="midnightblue" d="M544.227,-112.324C560.351,-103.703 585.3,-90.3643 603.964,-80.3855"/>
<polygon fill="midnightblue" stroke="midnightblue" points="605.644,-83.456 612.813,-75.6545 602.344,-77.283 605.644,-83.456"/>
</g>
<!-- Node11 -->
<g id="node21" class="node"><title>Node11</title>
<a xlink:href="../../d6/d24/jid_8h.html" target="_top" xlink:title="Functions and data structure to manipulate a JID.">
<polygon fill="none" stroke="black" points="676.5,-56.5 676.5,-75.5 723.5,-75.5 723.5,-56.5 676.5,-56.5"/>
<text text-anchor="middle" x="700" y="-63.5" font-family="DejaVuSansMono" font-size="10.00">jid.h</text>
</a>
</g>
<!-- Node1&#45;&gt;Node11 -->
<g id="edge20" class="edge"><title>Node1&#45;&gt;Node11</title>
<path fill="none" stroke="midnightblue" d="M555.254,-112.444C585.427,-102.971 634.079,-87.6961 666.54,-77.5048"/>
<polygon fill="midnightblue" stroke="midnightblue" points="667.974,-80.7232 676.467,-74.3884 665.877,-74.0446 667.974,-80.7232"/>
</g>
<!-- Node12 -->
<g id="node23" class="node"><title>Node12</title>
<a xlink:href="../../d3/d24/xmpp__auth_8h.html" target="_top" xlink:title="Implement initial XMPP authendication.">
<polygon fill="none" stroke="black" points="741.5,-56.5 741.5,-75.5 824.5,-75.5 824.5,-56.5 741.5,-56.5"/>
<text text-anchor="middle" x="783" y="-63.5" font-family="DejaVuSansMono" font-size="10.00">xmpp_auth.h</text>
</a>
</g>
<!-- Node1&#45;&gt;Node12 -->
<g id="edge22" class="edge"><title>Node1&#45;&gt;Node12</title>
<path fill="none" stroke="midnightblue" d="M568.406,-112.444C612.983,-103.004 684.768,-87.802 732.892,-77.6111"/>
<polygon fill="midnightblue" stroke="midnightblue" points="733.726,-81.0123 742.784,-75.5164 732.275,-74.1641 733.726,-81.0123"/>
</g>
<!-- Node13 -->
<g id="node25" class="node"><title>Node13</title>
<a xlink:href="../../d8/d28/xmpp__core_8h.html" target="_top" xlink:title="Handles base stanza routing.">
<polygon fill="none" stroke="black" points="260.5,-56.5 260.5,-75.5 343.5,-75.5 343.5,-56.5 260.5,-56.5"/>
<text text-anchor="middle" x="302" y="-63.5" font-family="DejaVuSansMono" font-size="10.00">xmpp_core.h</text>
</a>
</g>
<!-- Node1&#45;&gt;Node13 -->
<g id="edge24" class="edge"><title>Node1&#45;&gt;Node13</title>
<path fill="none" stroke="midnightblue" d="M492.19,-112.444C453.012,-103.083 390.123,-88.0561 347.485,-77.868"/>
<polygon fill="midnightblue" stroke="midnightblue" points="348.182,-74.4363 337.643,-75.5164 346.556,-81.2446 348.182,-74.4363"/>
</g>
<!-- Node14 -->
<g id="node28" class="node"><title>Node14</title>
<a xlink:href="../../d8/d55/xmpp__parser_8h.html" target="_top" xlink:title="DOM&#45;style XML parser for XMPP stanzas.">
<polygon fill="none" stroke="black" points="147.5,-56.5 147.5,-75.5 242.5,-75.5 242.5,-56.5 147.5,-56.5"/>
<text text-anchor="middle" x="195" y="-63.5" font-family="DejaVuSansMono" font-size="10.00">xmpp_parser.h</text>
</a>
</g>
<!-- Node1&#45;&gt;Node14 -->
<g id="edge28" class="edge"><title>Node1&#45;&gt;Node14</title>
<path fill="none" stroke="midnightblue" d="M475.235,-112.444C414.606,-102.612 315.437,-86.5303 252.775,-76.3689"/>
<polygon fill="midnightblue" stroke="midnightblue" points="253.094,-72.875 242.662,-74.729 251.973,-79.7847 253.094,-72.875"/>
</g>
<!-- Node15 -->
<g id="node31" class="node"><title>Node15</title>
<a xlink:href="../../d1/d2e/xmpp__server_8h.html" target="_top" xlink:title="Main XMPP server data/functions.">
<polygon fill="none" stroke="black" points="361.5,-56.5 361.5,-75.5 456.5,-75.5 456.5,-56.5 361.5,-56.5"/>
<text text-anchor="middle" x="409" y="-63.5" font-family="DejaVuSansMono" font-size="10.00">xmpp_server.h</text>
</a>
</g>
<!-- Node1&#45;&gt;Node15 -->
<g id="edge32" class="edge"><title>Node1&#45;&gt;Node15</title>
<path fill="none" stroke="midnightblue" d="M509.144,-112.444C489.734,-103.636 459.27,-89.8116 437.035,-79.722"/>
<polygon fill="midnightblue" stroke="midnightblue" points="438.32,-76.4615 427.768,-75.5164 435.428,-82.836 438.32,-76.4615"/>
</g>
<!-- Node16 -->
<g id="node35" class="node"><title>Node16</title>
<a xlink:href="../../d4/d2f/xmpp__client_8h.html" target="_top" xlink:title="A connected XMPP server client.">
<polygon fill="none" stroke="black" points="842.5,-56.5 842.5,-75.5 937.5,-75.5 937.5,-56.5 842.5,-56.5"/>
<text text-anchor="middle" x="890" y="-63.5" font-family="DejaVuSansMono" font-size="10.00">xmpp_client.h</text>
</a>
</g>
<!-- Node1&#45;&gt;Node16 -->
<g id="edge38" class="edge"><title>Node1&#45;&gt;Node16</title>
<path fill="none" stroke="midnightblue" d="M587.067,-112.466C646.367,-103.857 740.632,-90.0619 832.4,-76.0786"/>
<polygon fill="midnightblue" stroke="midnightblue" points="833.062,-79.5181 842.42,-74.5495 832.006,-72.5983 833.062,-79.5181"/>
</g>
<!-- Node3 -->
<g id="node5" class="node"><title>Node3</title>
<polygon fill="none" stroke="#bfbfbf" points="-0.5,-0.5 -0.5,-19.5 58.5,-19.5 58.5,-0.5 -0.5,-0.5"/>
<text text-anchor="middle" x="29" y="-7.5" font-family="DejaVuSansMono" font-size="10.00">stdio.h</text>
</g>
<!-- Node2&#45;&gt;Node3 -->
<g id="edge4" class="edge"><title>Node2&#45;&gt;Node3</title>
<path fill="none" stroke="midnightblue" d="M93.6286,-56.324C81.8415,-48.0577 63.8677,-35.4527 49.8645,-25.6322"/>
<polygon fill="midnightblue" stroke="midnightblue" points="51.5376,-22.5307 41.3407,-19.6545 47.5184,-28.2619 51.5376,-22.5307"/>
</g>
<!-- Node4 -->
<g id="node7" class="node"><title>Node4</title>
<polygon fill="none" stroke="#bfbfbf" points="76.5,-0.5 76.5,-19.5 135.5,-19.5 135.5,-0.5 76.5,-0.5"/>
<text text-anchor="middle" x="106" y="-7.5" font-family="DejaVuSansMono" font-size="10.00">errno.h</text>
</g>
<!-- Node2&#45;&gt;Node4 -->
<g id="edge6" class="edge"><title>Node2&#45;&gt;Node4</title>
<path fill="none" stroke="midnightblue" d="M106,-56.083C106,-49.0059 106,-38.8611 106,-29.9865"/>
<polygon fill="midnightblue" stroke="midnightblue" points="109.5,-29.751 106,-19.7511 102.5,-29.7511 109.5,-29.751"/>
</g>
<!-- Node5 -->
<g id="node9" class="node"><title>Node5</title>
<polygon fill="none" stroke="#bfbfbf" points="153.5,-0.5 153.5,-19.5 218.5,-19.5 218.5,-0.5 153.5,-0.5"/>
<text text-anchor="middle" x="186" y="-7.5" font-family="DejaVuSansMono" font-size="10.00">string.h</text>
</g>
<!-- Node2&#45;&gt;Node5 -->
<g id="edge8" class="edge"><title>Node2&#45;&gt;Node5</title>
<path fill="none" stroke="midnightblue" d="M118.853,-56.324C131.216,-47.979 150.13,-35.2122 164.737,-25.3524"/>
<polygon fill="midnightblue" stroke="midnightblue" points="166.848,-28.1503 173.179,-19.6545 162.932,-22.3483 166.848,-28.1503"/>
</g>
<!-- Node7 -->
<g id="node13" class="node"><title>Node7</title>
<polygon fill="none" stroke="#bfbfbf" points="270.5,-0.5 270.5,-19.5 341.5,-19.5 341.5,-0.5 270.5,-0.5"/>
<text text-anchor="middle" x="306" y="-7.5" font-family="DejaVuSansMono" font-size="10.00">stdbool.h</text>
</g>
<!-- Node6&#45;&gt;Node7 -->
<g id="edge12" class="edge"><title>Node6&#45;&gt;Node7</title>
<path fill="none" stroke="midnightblue" d="M492.823,-56.4435C454.421,-47.1024 392.824,-32.1194 350.945,-21.9326"/>
<polygon fill="midnightblue" stroke="midnightblue" points="351.556,-18.4792 341.012,-19.5164 349.901,-25.2809 351.556,-18.4792"/>
</g>
<!-- Node8 -->
<g id="node15" class="node"><title>Node8</title>
<polygon fill="none" stroke="#bfbfbf" points="483.5,-0.5 483.5,-19.5 572.5,-19.5 572.5,-0.5 483.5,-0.5"/>
<text text-anchor="middle" x="528" y="-7.5" font-family="DejaVuSansMono" font-size="10.00">netinet/in.h</text>
</g>
<!-- Node6&#45;&gt;Node8 -->
<g id="edge14" class="edge"><title>Node6&#45;&gt;Node8</title>
<path fill="none" stroke="midnightblue" d="M528,-56.083C528,-49.0059 528,-38.8611 528,-29.9865"/>
<polygon fill="midnightblue" stroke="midnightblue" points="531.5,-29.751 528,-19.7511 524.5,-29.7511 531.5,-29.751"/>
</g>
<!-- Node9 -->
<g id="node17" class="node"><title>Node9</title>
<polygon fill="none" stroke="#bfbfbf" points="366.5,-0.5 366.5,-19.5 461.5,-19.5 461.5,-0.5 366.5,-0.5"/>
<text text-anchor="middle" x="414" y="-7.5" font-family="DejaVuSansMono" font-size="10.00">openssl/ssl.h</text>
</g>
<!-- Node6&#45;&gt;Node9 -->
<g id="edge16" class="edge"><title>Node6&#45;&gt;Node9</title>
<path fill="none" stroke="midnightblue" d="M509.936,-56.4435C491.425,-47.6751 462.419,-33.9355 441.145,-23.8579"/>
<polygon fill="midnightblue" stroke="midnightblue" points="442.515,-20.6343 431.979,-19.5164 439.518,-26.9604 442.515,-20.6343"/>
</g>
<!-- Node13&#45;&gt;Node7 -->
<g id="edge26" class="edge"><title>Node13&#45;&gt;Node7</title>
<path fill="none" stroke="midnightblue" d="M302.661,-56.083C303.185,-49.0059 303.936,-38.8611 304.594,-29.9865"/>
<polygon fill="midnightblue" stroke="midnightblue" points="308.103,-29.9823 305.352,-19.7511 301.123,-29.4652 308.103,-29.9823"/>
</g>
<!-- Node14&#45;&gt;Node7 -->
<g id="edge30" class="edge"><title>Node14&#45;&gt;Node7</title>
<path fill="none" stroke="midnightblue" d="M212.834,-56.324C230.716,-47.6247 258.475,-34.1202 279.046,-24.113"/>
<polygon fill="midnightblue" stroke="midnightblue" points="280.749,-27.1765 288.21,-19.6545 277.687,-20.8819 280.749,-27.1765"/>
</g>
<!-- Node15&#45;&gt;Node7 -->
<g id="edge34" class="edge"><title>Node15&#45;&gt;Node7</title>
<path fill="none" stroke="midnightblue" d="M392.451,-56.324C376.008,-47.7034 350.565,-34.3643 331.532,-24.3855"/>
<polygon fill="midnightblue" stroke="midnightblue" points="332.989,-21.198 322.508,-19.6545 329.739,-27.3977 332.989,-21.198"/>
</g>
<!-- Node15&#45;&gt;Node9 -->
<g id="edge36" class="edge"><title>Node15&#45;&gt;Node9</title>
<path fill="none" stroke="midnightblue" d="M409.826,-56.083C410.481,-49.0059 411.42,-38.8611 412.242,-29.9865"/>
<polygon fill="midnightblue" stroke="midnightblue" points="415.753,-30.0312 413.19,-19.7511 408.783,-29.3858 415.753,-30.0312"/>
</g>
</g>
</svg>
        <g id="navigator" transform="translate(0 0)" fill="#404254">
                <rect fill="#f2f5e9" fill-opacity="0.5" stroke="#606060" stroke-width=".5" x="0" y="0" width="60" height="60"/>
                <use id="zoomplus" xlink:href="#zoomPlus" x="17" y="9" onmousedown="handleZoom(evt,'in')"/>
                <use id="zoomminus" xlink:href="#zoomMin" x="42" y="9" onmousedown="handleZoom(evt,'out')"/>
                <use id="reset" xlink:href="#resetDef" x="30" y="36" onmousedown="handleReset()"/>
                <g id="arrowUp" xlink:href="#dirArrow" transform="translate(30 24)" onmousedown="handlePan(0,-1)">
                  <use xlink:href="#rim" fill="#404040">
                        <set attributeName="fill" to="#808080" begin="arrowUp.mouseover" end="arrowUp.mouseout"/>
                  </use>
                  <path fill="none" stroke="white" stroke-width="1.5" d="M0,-3.0v7 M-2.5,-0.5L0,-3.0L2.5,-0.5"/>
                </g>
                <g id="arrowRight" xlink:href="#dirArrow" transform="rotate(90) translate(36 -43)" onmousedown="handlePan(1,0)">
                  <use xlink:href="#rim" fill="#404040">
                        <set attributeName="fill" to="#808080" begin="arrowRight.mouseover" end="arrowRight.mouseout"/>
                  </use>
                  <path fill="none" stroke="white" stroke-width="1.5" d="M0,-3.0v7 M-2.5,-0.5L0,-3.0L2.5,-0.5"/>
                </g>
                <g id="arrowDown" xlink:href="#dirArrow" transform="rotate(180) translate(-30 -48)" onmousedown="handlePan(0,1)">
                  <use xlink:href="#rim" fill="#404040">
                        <set attributeName="fill" to="#808080" begin="arrowDown.mouseover" end="arrowDown.mouseout"/>
                  </use>
                  <path fill="none" stroke="white" stroke-width="1.5" d="M0,-3.0v7 M-2.5,-0.5L0,-3.0L2.5,-0.5"/>
                </g>
                <g id="arrowLeft" xlink:href="#dirArrow" transform="rotate(270) translate(-36 17)" onmousedown="handlePan(-1,0)">
                  <use xlink:href="#rim" fill="#404040">
                        <set attributeName="fill" to="#808080" begin="arrowLeft.mouseover" end="arrowLeft.mouseout"/>
                  </use>
                  <path fill="none" stroke="white" stroke-width="1.5" d="M0,-3.0v7 M-2.5,-0.5L0,-3.0L2.5,-0.5"/>
                </g>
        </g>
        <svg viewBox="0 0 25 25" width="100%" height="30px" preserveAspectRatio="xMaxYMin meet"> 
          <g id="printButton" transform="scale(0.4 0.4)" onmousedown="handlePrint(evt)">
            <rect height="23.33753581" id="paper" rx="2" style="fill:#f2f5e9;fill-rule:evenodd;stroke:#111111;stroke-width:3.224;stroke-linejoin:round;" transform="matrix(1.000000,0.000000,-0.339266,0.940691,0.000000,0.000000)" width="25.55231285" x="26.69387353" y="7.36162977"/>
            <rect height="26.272097" id="body" rx="2" style="fill:#404040;fill-rule:evenodd;stroke:#111111;stroke-width:3.125;stroke-linejoin:round;" width="50" x="4.5295201" y="27.078951"/>
            <rect height="8.27750969" id="tray" style="fill:#d2d5c9;fill-rule:evenodd;stroke:#111111;stroke-width:3.125;stroke-linecap:round;stroke-linejoin:round;" width="40" x="10.28778839" y="44.96812282"/>
          </g>
        </svg>
</svg>
