<?xml version="1.0" encoding="UTF-8" standalone="no"?>
<!DOCTYPE svg PUBLIC "-//W3C//DTD SVG 1.1//EN"
 "http://www.w3.org/Graphics/SVG/1.1/DTD/svg11.dtd">
<!-- Generated by graphviz version 2.28.0 (20120217.0315)
 -->
<!-- Title: G Pages: 1 -->
<!--zoomable 921 -->
<svg id="main" version="1.1" xmlns="http://www.w3.org/2000/svg" xmlns:xlink="http://www.w3.org/1999/xlink" xml:space="preserve" onload="init(evt)">
        <defs>
                <circle id="rim" cx="0" cy="0" r="7"/>
                <circle id="rim2" cx="0" cy="0" r="3.5"/>
                <g id="zoomPlus">
                        <use xlink:href="#rim" fill="#404040">
                                <set attributeName="fill" to="#808080" begin="zoomplus.mouseover" end="zoomplus.mouseout"/>
                        </use>
                        <path d="M-4,0h8M0,-4v8" fill="none" stroke="white" stroke-width="1.5" pointer-events="none"/>
                </g>
                <g id="zoomMin">
                        <use xlink:href="#rim" fill="#404040">
                                <set attributeName="fill" to="#808080" begin="zoomminus.mouseover" end="zoomminus.mouseout"/>
                        </use>
                        <path d="M-4,0h8" fill="none" stroke="white" stroke-width="1.5" pointer-events="none"/>
                </g>
                <g id="dirArrow">
                        <path fill="none" stroke="white" stroke-width="1.5" d="M0,-3.0v7 M-2.5,-0.5L0,-3.0L2.5,-0.5"/>
                </g>
               <g id="resetDef">
                       <use xlink:href="#rim2" fill="#404040">
                               <set attributeName="fill" to="#808080" begin="reset.mouseover" end="reset.mouseout"/>
                       </use>
               </g>
        </defs>

<script type="text/javascript">
var viewWidth = 2270;
var viewHeight = 921;
var sectionId = 'dynsection-7';
</script>
<script xlink:href="../../svgpan.js"/>
<svg id="graph" class="graph">
<g id="viewport">
<title>G</title>
<!-- Node1 -->
<g id="node1" class="node"><title>Node1</title>
<polygon fill="#bfbfbf" stroke="black" points="0.5,-171.5 0.5,-190.5 83.5,-190.5 83.5,-171.5 0.5,-171.5"/>
<text text-anchor="middle" x="42" y="-178.5" font-family="DejaVuSansMono" font-size="10.00">copy_string</text>
</g>
<!-- Node2 -->
<g id="node3" class="node"><title>Node2</title>
<a xlink:href="../../d6/d24/jid_8h.html#a1a93fd4eaa48c375952cb6f9c9127907" target="_top" xlink:title="Sets the localpart of a JID.">
<polygon fill="none" stroke="black" points="165.5,-513.5 165.5,-532.5 260.5,-532.5 260.5,-513.5 165.5,-513.5"/>
<text text-anchor="middle" x="213" y="-520.5" font-family="DejaVuSansMono" font-size="10.00">jid_set_local</text>
</a>
</g>
<!-- Node1&#45;&gt;Node2 -->
<g id="edge2" class="edge"><title>Node1&#45;&gt;Node2</title>
<path fill="none" stroke="midnightblue" d="M47.1358,-200.549C56.253,-241.197 80.4667,-337.037 120,-409 143.511,-451.798 183.506,-494.524 202.033,-513.212"/>
<polygon fill="midnightblue" stroke="midnightblue" points="50.5188,-199.635 44.9644,-190.613 43.6802,-201.13 50.5188,-199.635"/>
</g>
<!-- Node27 -->
<g id="node63" class="node"><title>Node27</title>
<a xlink:href="../../d6/d24/jid_8h.html#aeefeabfe802b3db2ce1b8894ae6a0d05" target="_top" xlink:title="Sets the domainpart of a JID.">
<polygon fill="none" stroke="black" points="162.5,-779.5 162.5,-798.5 263.5,-798.5 263.5,-779.5 162.5,-779.5"/>
<text text-anchor="middle" x="213" y="-786.5" font-family="DejaVuSansMono" font-size="10.00">jid_set_domain</text>
</a>
</g>
<!-- Node1&#45;&gt;Node27 -->
<g id="edge72" class="edge"><title>Node1&#45;&gt;Node27</title>
<path fill="none" stroke="midnightblue" d="M46.1508,-200.666C55.1428,-255.4 82.7005,-413.904 120,-542 147.505,-636.461 193.701,-746.475 207.793,-779.291"/>
<polygon fill="midnightblue" stroke="midnightblue" points="49.5754,-199.919 44.517,-190.61 42.666,-201.042 49.5754,-199.919"/>
</g>
<!-- Node30 -->
<g id="node72" class="node"><title>Node30</title>
<a xlink:href="../../d6/d24/jid_8h.html#ad4e057d210bd0776fcb89289e5d59f81" target="_top" xlink:title="Sets the resourcepart of a JID.">
<polygon fill="none" stroke="black" points="156.5,-380.5 156.5,-399.5 269.5,-399.5 269.5,-380.5 156.5,-380.5"/>
<text text-anchor="middle" x="213" y="-387.5" font-family="DejaVuSansMono" font-size="10.00">jid_set_resource</text>
</a>
</g>
<!-- Node1&#45;&gt;Node30 -->
<g id="edge84" class="edge"><title>Node1&#45;&gt;Node30</title>
<path fill="none" stroke="midnightblue" d="M57.1822,-198.539C91.4561,-240.925 177.901,-347.83 204.254,-380.421"/>
<polygon fill="midnightblue" stroke="midnightblue" points="59.71,-196.099 50.7007,-190.523 54.2669,-200.5 59.71,-196.099"/>
</g>
<!-- Node34 -->
<g id="node88" class="node"><title>Node34</title>
<a xlink:href="../../d6/d78/xmp3__multicast_8c.html#aa3dacdad2e28d57eeb2682791ad855e1" target="_top" xlink:title="multicast_conf">
<polygon fill="none" stroke="black" points="162.5,-228.5 162.5,-247.5 263.5,-247.5 263.5,-228.5 162.5,-228.5"/>
<text text-anchor="middle" x="213" y="-235.5" font-family="DejaVuSansMono" font-size="10.00">multicast_conf</text>
</a>
</g>
<!-- Node1&#45;&gt;Node34 -->
<g id="edge108" class="edge"><title>Node1&#45;&gt;Node34</title>
<path fill="none" stroke="midnightblue" d="M68.2608,-195.507C82.9608,-203.424 102.075,-212.839 120,-219 133.419,-223.612 148.342,-227.284 162.198,-230.121"/>
<polygon fill="midnightblue" stroke="midnightblue" points="69.7431,-192.328 59.2951,-190.57 66.3666,-198.46 69.7431,-192.328"/>
</g>
<!-- Node35 -->
<g id="node90" class="node"><title>Node35</title>
<a xlink:href="../../dc/d25/xmp3__options_8h.html#aff95f741533b65ab175d8db8364ac47a" target="_top" xlink:title="Set the path to the OpenSSL private key file to use.">
<polygon fill="none" stroke="black" points="132.5,-190.5 132.5,-209.5 293.5,-209.5 293.5,-190.5 132.5,-190.5"/>
<text text-anchor="middle" x="213" y="-197.5" font-family="DejaVuSansMono" font-size="10.00">xmp3_options_set_keyfile</text>
</a>
</g>
<!-- Node1&#45;&gt;Node35 -->
<g id="edge110" class="edge"><title>Node1&#45;&gt;Node35</title>
<path fill="none" stroke="midnightblue" d="M94.2095,-186.757C106.281,-188.114 119.431,-189.593 132.425,-191.054"/>
<polygon fill="midnightblue" stroke="midnightblue" points="94.2386,-183.239 83.9102,-185.599 93.4565,-190.195 94.2386,-183.239"/>
</g>
<!-- Node38 -->
<g id="node98" class="node"><title>Node38</title>
<a xlink:href="../../dc/d25/xmp3__options_8h.html#a9c72728768403b4b28237b0a9595e2c4" target="_top" xlink:title="Set the path to the OpenSSL certificate file.">
<polygon fill="none" stroke="black" points="120.5,-114.5 120.5,-133.5 305.5,-133.5 305.5,-114.5 120.5,-114.5"/>
<text text-anchor="middle" x="213" y="-121.5" font-family="DejaVuSansMono" font-size="10.00">xmp3_options_set_certificate</text>
</a>
</g>
<!-- Node1&#45;&gt;Node38 -->
<g id="edge120" class="edge"><title>Node1&#45;&gt;Node38</title>
<path fill="none" stroke="midnightblue" d="M68.2608,-166.493C82.9608,-158.576 102.075,-149.161 120,-143 130.951,-139.236 142.904,-136.099 154.461,-133.53"/>
<polygon fill="midnightblue" stroke="midnightblue" points="66.3666,-163.54 59.2951,-171.43 69.7431,-169.672 66.3666,-163.54"/>
</g>
<!-- Node39 -->
<g id="node102" class="node"><title>Node39</title>
<a xlink:href="../../dc/d25/xmp3__options_8h.html#a2a3941189614387781d9ce32974cdf69" target="_top" xlink:title="Set the name of the XMPP server (used for the domainpart).">
<polygon fill="none" stroke="black" points="120.5,-152.5 120.5,-171.5 305.5,-171.5 305.5,-152.5 120.5,-152.5"/>
<text text-anchor="middle" x="213" y="-159.5" font-family="DejaVuSansMono" font-size="10.00">xmp3_options_set_server_name</text>
</a>
</g>
<!-- Node1&#45;&gt;Node39 -->
<g id="edge126" class="edge"><title>Node1&#45;&gt;Node39</title>
<path fill="none" stroke="midnightblue" d="M94.1364,-175.251C104.668,-174.067 116.022,-172.79 127.38,-171.513"/>
<polygon fill="midnightblue" stroke="midnightblue" points="93.4565,-171.805 83.9102,-176.401 94.2386,-178.761 93.4565,-171.805"/>
</g>
<!-- Node40 -->
<g id="node105" class="node"><title>Node40</title>
<a xlink:href="../../dd/d21/xmpp__stanza_8h.html#a7d2f9f8539e4f809a81fa446ce8c37a0" target="_top" xlink:title="Set the URI of the stanza, copy the URI.">
<polygon fill="none" stroke="black" points="144.5,-76.5 144.5,-95.5 281.5,-95.5 281.5,-76.5 144.5,-76.5"/>
<text text-anchor="middle" x="213" y="-83.5" font-family="DejaVuSansMono" font-size="10.00">xmpp_stanza_copy_uri</text>
</a>
</g>
<!-- Node1&#45;&gt;Node40 -->
<g id="edge130" class="edge"><title>Node1&#45;&gt;Node40</title>
<path fill="none" stroke="midnightblue" d="M56.1598,-162.965C70.0204,-145.351 93.4859,-119.185 120,-105 127.478,-100.999 135.714,-97.8399 144.091,-95.3452"/>
<polygon fill="midnightblue" stroke="midnightblue" points="53.0958,-161.211 49.8218,-171.288 58.6649,-165.452 53.0958,-161.211"/>
</g>
<!-- Node41 -->
<g id="node107" class="node"><title>Node41</title>
<a xlink:href="../../dd/d21/xmpp__stanza_8h.html#a67bfe859e3234b211c110e54606e27c5" target="_top" xlink:title="Set the prefix of the stanza, copy the prefix.">
<polygon fill="none" stroke="black" points="135.5,-38.5 135.5,-57.5 290.5,-57.5 290.5,-38.5 135.5,-38.5"/>
<text text-anchor="middle" x="213" y="-45.5" font-family="DejaVuSansMono" font-size="10.00">xmpp_stanza_copy_prefix</text>
</a>
</g>
<!-- Node1&#45;&gt;Node41 -->
<g id="edge132" class="edge"><title>Node1&#45;&gt;Node41</title>
<path fill="none" stroke="midnightblue" d="M50.5024,-161.704C61.6036,-135.842 84.9454,-90.4813 120,-67 125.691,-63.1878 131.991,-60.1151 138.547,-57.6418"/>
<polygon fill="midnightblue" stroke="midnightblue" points="47.1743,-160.595 46.6124,-171.175 53.6494,-163.254 47.1743,-160.595"/>
</g>
<!-- Node42 -->
<g id="node109" class="node"><title>Node42</title>
<a xlink:href="../../dd/d21/xmpp__stanza_8h.html#ad769e5a7ea7f28b03b84120f18e7fe98" target="_top" xlink:title="Set the name of the stanza, copy the name.">
<polygon fill="none" stroke="black" points="141.5,-0.5 141.5,-19.5 284.5,-19.5 284.5,-0.5 141.5,-0.5"/>
<text text-anchor="middle" x="213" y="-7.5" font-family="DejaVuSansMono" font-size="10.00">xmpp_stanza_copy_name</text>
</a>
</g>
<!-- Node1&#45;&gt;Node42 -->
<g id="edge134" class="edge"><title>Node1&#45;&gt;Node42</title>
<path fill="none" stroke="midnightblue" d="M47.0897,-161.555C55.0533,-128.761 75.8738,-62.7388 120,-29 126.348,-24.146 133.637,-20.454 141.274,-17.6571"/>
<polygon fill="midnightblue" stroke="midnightblue" points="43.6765,-160.781 44.8668,-171.308 50.5015,-162.336 43.6765,-160.781"/>
</g>
<!-- Node3 -->
<g id="node5" class="node"><title>Node3</title>
<a xlink:href="../../d6/d24/jid_8h.html#a6da80c5b44d3c4ef896850a5d1d790b0" target="_top" xlink:title="Allocate and initialize a new JID from an existing JID structure.">
<polygon fill="none" stroke="black" points="357.5,-513.5 357.5,-532.5 470.5,-532.5 470.5,-513.5 357.5,-513.5"/>
<text text-anchor="middle" x="414" y="-520.5" font-family="DejaVuSansMono" font-size="10.00">jid_new_from_jid</text>
</a>
</g>
<!-- Node2&#45;&gt;Node3 -->
<g id="edge4" class="edge"><title>Node2&#45;&gt;Node3</title>
<path fill="none" stroke="midnightblue" d="M270.796,-523C297.982,-523 330.416,-523 357.439,-523"/>
<polygon fill="midnightblue" stroke="midnightblue" points="270.657,-519.5 260.657,-523 270.657,-526.5 270.657,-519.5"/>
</g>
<!-- Node6 -->
<g id="node11" class="node"><title>Node6</title>
<a xlink:href="../../d7/d71/xep__muc_8c.html#addf05166cf3fbe386ae6650be21ef251" target="_top" xlink:title="xep_muc_start">
<polygon fill="none" stroke="black" points="1248.5,-465.5 1248.5,-484.5 1343.5,-484.5 1343.5,-465.5 1248.5,-465.5"/>
<text text-anchor="middle" x="1296" y="-472.5" font-family="DejaVuSansMono" font-size="10.00">xep_muc_start</text>
</a>
</g>
<!-- Node2&#45;&gt;Node6 -->
<g id="edge64" class="edge"><title>Node2&#45;&gt;Node6</title>
<path fill="none" stroke="midnightblue" d="M231.351,-539.87C275.451,-581.517 397.207,-688.946 522,-732 639.072,-772.391 676.156,-751 800,-751 800,-751 800,-751 985,-751 1148.93,-751 1266.32,-533.032 1290.42,-484.501"/>
<polygon fill="midnightblue" stroke="midnightblue" points="233.688,-537.262 224.037,-532.89 228.855,-542.326 233.688,-537.262"/>
</g>
<!-- Node7 -->
<g id="node13" class="node"><title>Node7</title>
<a xlink:href="../../d7/d71/xep__muc_8c.html#a20d385a5584d8014ec4d5774eb79d1de" target="_top" xlink:title="xep_muc_stop">
<polygon fill="none" stroke="black" points="1251.5,-247.5 1251.5,-266.5 1340.5,-266.5 1340.5,-247.5 1251.5,-247.5"/>
<text text-anchor="middle" x="1296" y="-254.5" font-family="DejaVuSansMono" font-size="10.00">xep_muc_stop</text>
</a>
</g>
<!-- Node2&#45;&gt;Node7 -->
<g id="edge66" class="edge"><title>Node2&#45;&gt;Node7</title>
<path fill="none" stroke="midnightblue" d="M229.234,-505.441C248.043,-483.471 280.65,-444.421 306,-409 323.438,-384.634 319.151,-371.383 342,-352 408.222,-295.825 437.526,-296.125 522,-276 642.472,-247.299 676.156,-257 800,-257 800,-257 800,-257 985,-257 1079.99,-257 1191.36,-257 1251.36,-257"/>
<polygon fill="midnightblue" stroke="midnightblue" points="226.393,-503.377 222.522,-513.239 231.698,-507.943 226.393,-503.377"/>
</g>
<!-- Node8 -->
<g id="node15" class="node"><title>Node8</title>
<a xlink:href="../../d7/d71/xep__muc_8c.html#a1b52b88e96c04035a9e9f53e6210d149" target="_top" xlink:title="room_new">
<polygon fill="none" stroke="black" points="567.5,-475.5 567.5,-494.5 632.5,-494.5 632.5,-475.5 567.5,-475.5"/>
<text text-anchor="middle" x="600" y="-482.5" font-family="DejaVuSansMono" font-size="10.00">room_new</text>
</a>
</g>
<!-- Node2&#45;&gt;Node8 -->
<g id="edge68" class="edge"><title>Node2&#45;&gt;Node8</title>
<path fill="none" stroke="midnightblue" d="M270.638,-513.677C292.844,-510.262 318.571,-506.601 342,-504 422.929,-495.014 518.683,-489.202 567.279,-486.592"/>
<polygon fill="midnightblue" stroke="midnightblue" points="270.047,-510.227 260.705,-515.224 271.124,-517.144 270.047,-510.227"/>
</g>
<!-- Node15 -->
<g id="node32" class="node"><title>Node15</title>
<a xlink:href="../../df/da9/xmpp__auth_8c.html#afb770a216868aa3fb43813b19d2a0115" target="_top" xlink:title="Begins SASL PLAIN authentication.">
<polygon fill="none" stroke="black" points="1080.5,-779.5 1080.5,-798.5 1199.5,-798.5 1199.5,-779.5 1080.5,-779.5"/>
<text text-anchor="middle" x="1140" y="-786.5" font-family="DejaVuSansMono" font-size="10.00">handle_sasl_plain</text>
</a>
</g>
<!-- Node2&#45;&gt;Node15 -->
<g id="edge70" class="edge"><title>Node2&#45;&gt;Node15</title>
<path fill="none" stroke="midnightblue" d="M217.499,-542.621C227.266,-590.944 259.706,-715.702 342,-770 437.6,-833.077 484.466,-789 599,-789 599,-789 599,-789 802,-789 899.56,-789 1013.01,-789 1080.25,-789"/>
<polygon fill="midnightblue" stroke="midnightblue" points="220.889,-541.713 215.574,-532.548 214.014,-543.028 220.889,-541.713"/>
</g>
<!-- Node25 -->
<g id="node54" class="node"><title>Node25</title>
<a xlink:href="../../d6/d24/jid_8h.html#ae6100aaa50b6af23516ebc89e2f8c338" target="_top" xlink:title="Allocate and initialize a new JID from an existing JID without the resource.">
<polygon fill="none" stroke="black" points="342.5,-741.5 342.5,-760.5 485.5,-760.5 485.5,-741.5 342.5,-741.5"/>
<text text-anchor="middle" x="414" y="-748.5" font-family="DejaVuSansMono" font-size="10.00">jid_new_from_jid_bare</text>
</a>
</g>
<!-- Node2&#45;&gt;Node25 -->
<g id="edge58" class="edge"><title>Node2&#45;&gt;Node25</title>
<path fill="none" stroke="midnightblue" d="M220.875,-542.158C236.249,-582.328 277.227,-675.873 342,-727 349.966,-733.288 359.669,-737.972 369.311,-741.447"/>
<polygon fill="midnightblue" stroke="midnightblue" points="224.137,-540.887 217.368,-532.736 217.576,-543.329 224.137,-540.887"/>
</g>
<!-- Node4 -->
<g id="node7" class="node"><title>Node4</title>
<a xlink:href="../../d7/d71/xep__muc_8c.html#acf84f00141033b025df269e540461383" target="_top" xlink:title="handle_message">
<polygon fill="none" stroke="black" points="549.5,-285.5 549.5,-304.5 650.5,-304.5 650.5,-285.5 549.5,-285.5"/>
<text text-anchor="middle" x="600" y="-292.5" font-family="DejaVuSansMono" font-size="10.00">handle_message</text>
</a>
</g>
<!-- Node3&#45;&gt;Node4 -->
<g id="edge6" class="edge"><title>Node3&#45;&gt;Node4</title>
<path fill="none" stroke="midnightblue" d="M423.812,-504.192C439.997,-470.942 476.964,-400.699 522,-352 540.181,-332.34 565.949,-314.864 582.57,-304.601"/>
<polygon fill="midnightblue" stroke="midnightblue" points="420.633,-502.728 419.47,-513.259 426.946,-505.751 420.633,-502.728"/>
</g>
<!-- Node3&#45;&gt;Node8 -->
<g id="edge14" class="edge"><title>Node3&#45;&gt;Node8</title>
<path fill="none" stroke="midnightblue" d="M471.409,-511.35C502.927,-504.841 541.033,-496.971 567.35,-491.536"/>
<polygon fill="midnightblue" stroke="midnightblue" points="470.516,-507.961 461.431,-513.411 471.932,-514.816 470.516,-507.961"/>
</g>
<!-- Node11 -->
<g id="node22" class="node"><title>Node11</title>
<a xlink:href="../../d7/d71/xep__muc_8c.html#ad34287dce9e621d00af71d307f7a22dd" target="_top" xlink:title="room_client_new">
<polygon fill="none" stroke="black" points="546.5,-513.5 546.5,-532.5 653.5,-532.5 653.5,-513.5 546.5,-513.5"/>
<text text-anchor="middle" x="600" y="-520.5" font-family="DejaVuSansMono" font-size="10.00">room_client_new</text>
</a>
</g>
<!-- Node3&#45;&gt;Node11 -->
<g id="edge22" class="edge"><title>Node3&#45;&gt;Node11</title>
<path fill="none" stroke="midnightblue" d="M480.753,-523C502.275,-523 525.89,-523 546.318,-523"/>
<polygon fill="midnightblue" stroke="midnightblue" points="480.705,-519.5 470.705,-523 480.705,-526.5 480.705,-519.5"/>
</g>
<!-- Node12 -->
<g id="node25" class="node"><title>Node12</title>
<a xlink:href="../../d7/d71/xep__muc_8c.html#a115281f539cd77f88872ff153ec5b38d" target="_top" xlink:title="send_presence_broadcast">
<polygon fill="none" stroke="black" points="522.5,-399.5 522.5,-418.5 677.5,-418.5 677.5,-399.5 522.5,-399.5"/>
<text text-anchor="middle" x="600" y="-406.5" font-family="DejaVuSansMono" font-size="10.00">send_presence_broadcast</text>
</a>
</g>
<!-- Node3&#45;&gt;Node12 -->
<g id="edge26" class="edge"><title>Node3&#45;&gt;Node12</title>
<path fill="none" stroke="midnightblue" d="M439.343,-507.918C477.804,-484.089 551.539,-438.405 583.543,-418.577"/>
<polygon fill="midnightblue" stroke="midnightblue" points="437.029,-505.234 430.371,-513.477 440.715,-511.185 437.029,-505.234"/>
</g>
<!-- Node13 -->
<g id="node28" class="node"><title>Node13</title>
<a xlink:href="../../df/da9/xmpp__auth_8c.html#a603b4a63af3c4e4af99442805fe89ae8" target="_top" xlink:title="Step 15: Client binds a resource.">
<polygon fill="none" stroke="black" points="750.5,-684.5 750.5,-703.5 851.5,-703.5 851.5,-684.5 750.5,-684.5"/>
<text text-anchor="middle" x="801" y="-691.5" font-family="DejaVuSansMono" font-size="10.00">handle_bind_iq</text>
</a>
</g>
<!-- Node3&#45;&gt;Node13 -->
<g id="edge30" class="edge"><title>Node3&#45;&gt;Node13</title>
<path fill="none" stroke="midnightblue" d="M429.816,-540.344C448.983,-561.698 484.398,-597.631 522,-618 524.729,-619.478 690.368,-664.358 764.639,-684.444"/>
<polygon fill="midnightblue" stroke="midnightblue" points="432.308,-537.878 423.075,-532.681 427.053,-542.501 432.308,-537.878"/>
</g>
<!-- Node23 -->
<g id="node49" class="node"><title>Node23</title>
<a xlink:href="../../d1/d2e/xmpp__server_8h.html#a1c8e466b41f2895d5a0b57ee9f0a4c0b" target="_top" xlink:title="Add an item to the response for disco item queries.">
<polygon fill="none" stroke="black" points="714.5,-513.5 714.5,-532.5 887.5,-532.5 887.5,-513.5 714.5,-513.5"/>
<text text-anchor="middle" x="801" y="-520.5" font-family="DejaVuSansMono" font-size="10.00">xmpp_server_add_disco_item</text>
</a>
</g>
<!-- Node3&#45;&gt;Node23 -->
<g id="edge52" class="edge"><title>Node3&#45;&gt;Node23</title>
<path fill="none" stroke="midnightblue" d="M468.775,-534.452C485.723,-537.547 504.568,-540.464 522,-542 591.066,-548.084 608.873,-547.351 678,-542 701.937,-540.147 728.28,-536.279 750.343,-532.513"/>
<polygon fill="midnightblue" stroke="midnightblue" points="468.974,-530.927 458.498,-532.512 467.676,-537.806 468.974,-530.927"/>
</g>
<!-- Node24 -->
<g id="node52" class="node"><title>Node24</title>
<a xlink:href="../../d0/df0/xmpp__server_8c.html#af1d37b8251dd106082d3fe8097dd565b" target="_top" xlink:title="stanza_route_new">
<polygon fill="none" stroke="black" points="543.5,-589.5 543.5,-608.5 656.5,-608.5 656.5,-589.5 543.5,-589.5"/>
<text text-anchor="middle" x="600" y="-596.5" font-family="DejaVuSansMono" font-size="10.00">stanza_route_new</text>
</a>
</g>
<!-- Node3&#45;&gt;Node24 -->
<g id="edge56" class="edge"><title>Node3&#45;&gt;Node24</title>
<path fill="none" stroke="midnightblue" d="M441.898,-537.471C463.238,-548.606 494.026,-563.916 522,-575 535.669,-580.416 551.078,-585.427 564.501,-589.453"/>
<polygon fill="midnightblue" stroke="midnightblue" points="443.281,-534.243 432.803,-532.678 440.018,-540.436 443.281,-534.243"/>
</g>
<!-- Node5 -->
<g id="node9" class="node"><title>Node5</title>
<a xlink:href="../../d7/d71/xep__muc_8c.html#a1798db1c16a1fa62ff8f39fea202a26f" target="_top" xlink:title="stanza_handler">
<polygon fill="none" stroke="black" points="1089.5,-304.5 1089.5,-323.5 1190.5,-323.5 1190.5,-304.5 1089.5,-304.5"/>
<text text-anchor="middle" x="1140" y="-311.5" font-family="DejaVuSansMono" font-size="10.00">stanza_handler</text>
</a>
</g>
<!-- Node4&#45;&gt;Node5 -->
<g id="edge8" class="edge"><title>Node4&#45;&gt;Node5</title>
<path fill="none" stroke="midnightblue" d="M660.959,-297.118C768.082,-300.901 990.382,-308.751 1089.47,-312.251"/>
<polygon fill="midnightblue" stroke="midnightblue" points="660.767,-293.609 650.649,-296.753 660.52,-300.604 660.767,-293.609"/>
</g>
<!-- Node5&#45;&gt;Node6 -->
<g id="edge10" class="edge"><title>Node5&#45;&gt;Node6</title>
<path fill="none" stroke="midnightblue" d="M1157.09,-330.826C1189.18,-364.369 1260.21,-438.626 1285.68,-465.258"/>
<polygon fill="midnightblue" stroke="midnightblue" points="1159.61,-328.396 1150.17,-323.589 1154.56,-333.235 1159.61,-328.396"/>
</g>
<!-- Node5&#45;&gt;Node7 -->
<g id="edge12" class="edge"><title>Node5&#45;&gt;Node7</title>
<path fill="none" stroke="midnightblue" d="M1176.3,-300.935C1204.61,-290.457 1243.68,-275.995 1269.14,-266.572"/>
<polygon fill="midnightblue" stroke="midnightblue" points="1174.94,-297.706 1166.78,-304.459 1177.37,-304.271 1174.94,-297.706"/>
</g>
<!-- Node9 -->
<g id="node17" class="node"><title>Node9</title>
<a xlink:href="../../d7/d71/xep__muc_8c.html#aefd23f2960520a68fea212344b85cb0b" target="_top" xlink:title="enter_room_presence">
<polygon fill="none" stroke="black" points="735.5,-399.5 735.5,-418.5 866.5,-418.5 866.5,-399.5 735.5,-399.5"/>
<text text-anchor="middle" x="801" y="-406.5" font-family="DejaVuSansMono" font-size="10.00">enter_room_presence</text>
</a>
</g>
<!-- Node8&#45;&gt;Node9 -->
<g id="edge16" class="edge"><title>Node8&#45;&gt;Node9</title>
<path fill="none" stroke="midnightblue" d="M635.767,-471.722C675.58,-456.517 739.825,-431.981 775.001,-418.547"/>
<polygon fill="midnightblue" stroke="midnightblue" points="634.297,-468.537 626.203,-475.375 636.794,-475.076 634.297,-468.537"/>
</g>
<!-- Node10 -->
<g id="node19" class="node"><title>Node10</title>
<a xlink:href="../../d7/d71/xep__muc_8c.html#a9936322b944d46aead9fbd942687ec0a" target="_top" xlink:title="handle_presence">
<polygon fill="none" stroke="black" points="930.5,-323.5 930.5,-342.5 1037.5,-342.5 1037.5,-323.5 930.5,-323.5"/>
<text text-anchor="middle" x="984" y="-330.5" font-family="DejaVuSansMono" font-size="10.00">handle_presence</text>
</a>
</g>
<!-- Node9&#45;&gt;Node10 -->
<g id="edge18" class="edge"><title>Node9&#45;&gt;Node10</title>
<path fill="none" stroke="midnightblue" d="M834.547,-395.334C870.822,-380.102 928.54,-355.867 960.262,-342.547"/>
<polygon fill="midnightblue" stroke="midnightblue" points="832.789,-392.276 824.924,-399.375 835.499,-398.73 832.789,-392.276"/>
</g>
<!-- Node10&#45;&gt;Node5 -->
<g id="edge20" class="edge"><title>Node10&#45;&gt;Node5</title>
<path fill="none" stroke="midnightblue" d="M1047.54,-325.284C1061.43,-323.57 1075.97,-321.776 1089.27,-320.136"/>
<polygon fill="midnightblue" stroke="midnightblue" points="1047.06,-321.816 1037.57,-326.514 1047.92,-328.764 1047.06,-321.816"/>
</g>
<!-- Node11&#45;&gt;Node9 -->
<g id="edge24" class="edge"><title>Node11&#45;&gt;Node9</title>
<path fill="none" stroke="midnightblue" d="M662.365,-510.382C667.758,-508.521 673.045,-506.404 678,-504 725.096,-481.148 771.23,-437.989 790.542,-418.719"/>
<polygon fill="midnightblue" stroke="midnightblue" points="661.077,-507.118 652.59,-513.461 663.18,-513.795 661.077,-507.118"/>
</g>
<!-- Node12&#45;&gt;Node9 -->
<g id="edge28" class="edge"><title>Node12&#45;&gt;Node9</title>
<path fill="none" stroke="midnightblue" d="M688.021,-409C703.918,-409 720.246,-409 735.349,-409"/>
<polygon fill="midnightblue" stroke="midnightblue" points="687.654,-405.5 677.654,-409 687.654,-412.5 687.654,-405.5"/>
</g>
<!-- Node14 -->
<g id="node30" class="node"><title>Node14</title>
<a xlink:href="../../df/da9/xmpp__auth_8c.html#a01804bd53eccc182ce76337fc0863e8d" target="_top" xlink:title="stream_bind_start">
<polygon fill="none" stroke="black" points="924.5,-703.5 924.5,-722.5 1043.5,-722.5 1043.5,-703.5 924.5,-703.5"/>
<text text-anchor="middle" x="984" y="-710.5" font-family="DejaVuSansMono" font-size="10.00">stream_bind_start</text>
</a>
</g>
<!-- Node13&#45;&gt;Node14 -->
<g id="edge32" class="edge"><title>Node13&#45;&gt;Node14</title>
<path fill="none" stroke="midnightblue" d="M861.887,-700.286C881.944,-702.392 904.275,-704.736 924.244,-706.832"/>
<polygon fill="midnightblue" stroke="midnightblue" points="862.249,-696.805 851.938,-699.242 861.518,-703.767 862.249,-696.805"/>
</g>
<!-- Node14&#45;&gt;Node15 -->
<g id="edge34" class="edge"><title>Node14&#45;&gt;Node15</title>
<path fill="none" stroke="midnightblue" d="M1013.49,-727.059C1044.39,-742.311 1092.89,-766.246 1119.65,-779.453"/>
<polygon fill="midnightblue" stroke="midnightblue" points="1015.02,-723.912 1004.5,-722.625 1011.92,-730.19 1015.02,-723.912"/>
</g>
<!-- Node16 -->
<g id="node34" class="node"><title>Node16</title>
<a xlink:href="../../d3/d24/xmpp__auth_8h.html#ad3efd9ab093646bdfd8832c34ae2de4d" target="_top" xlink:title="Handler for the inital stream start to begin authentication.">
<polygon fill="none" stroke="black" points="1608.5,-741.5 1608.5,-760.5 1757.5,-760.5 1757.5,-741.5 1608.5,-741.5"/>
<text text-anchor="middle" x="1683" y="-748.5" font-family="DejaVuSansMono" font-size="10.00">xmpp_auth_stream_start</text>
</a>
</g>
<!-- Node15&#45;&gt;Node16 -->
<g id="edge36" class="edge"><title>Node15&#45;&gt;Node16</title>
<path fill="none" stroke="midnightblue" d="M1209.81,-788.655C1295.05,-787.609 1444.63,-783.752 1572,-770 1592.71,-767.764 1615.43,-764.055 1634.81,-760.505"/>
<polygon fill="midnightblue" stroke="midnightblue" points="1209.7,-785.156 1199.74,-788.769 1209.78,-792.155 1209.7,-785.156"/>
</g>
<!-- Node21 -->
<g id="node44" class="node"><title>Node21</title>
<a xlink:href="../../df/da9/xmpp__auth_8c.html#afd7b12689591d40109a88ad108b5c3a2" target="_top" xlink:title="stream_sasl_start">
<polygon fill="none" stroke="black" points="1236.5,-741.5 1236.5,-760.5 1355.5,-760.5 1355.5,-741.5 1236.5,-741.5"/>
<text text-anchor="middle" x="1296" y="-748.5" font-family="DejaVuSansMono" font-size="10.00">stream_sasl_start</text>
</a>
</g>
<!-- Node15&#45;&gt;Node21 -->
<g id="edge46" class="edge"><title>Node15&#45;&gt;Node21</title>
<path fill="none" stroke="midnightblue" d="M1189.79,-776.96C1211.31,-771.651 1236.23,-765.501 1256.42,-760.52"/>
<polygon fill="midnightblue" stroke="midnightblue" points="1188.73,-773.617 1179.86,-779.411 1190.41,-780.413 1188.73,-773.617"/>
</g>
<!-- Node17 -->
<g id="node36" class="node"><title>Node17</title>
<a xlink:href="../../d4/d2f/xmpp__client_8h.html#a1619c0b8f58b2cf09a322bf34fbc3414" target="_top" xlink:title="xmpp_client_new">
<polygon fill="none" stroke="black" points="1794.5,-674.5 1794.5,-693.5 1901.5,-693.5 1901.5,-674.5 1794.5,-674.5"/>
<text text-anchor="middle" x="1848" y="-681.5" font-family="DejaVuSansMono" font-size="10.00">xmpp_client_new</text>
</a>
</g>
<!-- Node16&#45;&gt;Node17 -->
<g id="edge38" class="edge"><title>Node16&#45;&gt;Node17</title>
<path fill="none" stroke="midnightblue" d="M1716.65,-737.581C1748.33,-724.557 1795.63,-705.116 1823.69,-693.582"/>
<polygon fill="midnightblue" stroke="midnightblue" points="1715.27,-734.361 1707.35,-741.401 1717.93,-740.836 1715.27,-734.361"/>
</g>
<!-- Node18 -->
<g id="node38" class="node"><title>Node18</title>
<a xlink:href="../../d0/df0/xmpp__server_8c.html#a66363912ef1221a2574f9f99805fe8fd" target="_top" xlink:title="Callback for new client connections.">
<polygon fill="none" stroke="black" points="1938.5,-408.5 1938.5,-427.5 2039.5,-427.5 2039.5,-408.5 1938.5,-408.5"/>
<text text-anchor="middle" x="1989" y="-415.5" font-family="DejaVuSansMono" font-size="10.00">connect_client</text>
</a>
</g>
<!-- Node17&#45;&gt;Node18 -->
<g id="edge40" class="edge"><title>Node17&#45;&gt;Node18</title>
<path fill="none" stroke="midnightblue" d="M1858.75,-665.341C1886.06,-613.075 1962.65,-466.513 1982.99,-427.591"/>
<polygon fill="midnightblue" stroke="midnightblue" points="1855.64,-663.734 1854.11,-674.217 1861.85,-666.976 1855.64,-663.734"/>
</g>
<!-- Node19 -->
<g id="node40" class="node"><title>Node19</title>
<a xlink:href="../../d1/d2e/xmpp__server_8h.html#a27bfc8e4d424a8bc17ab21a4a09cdf92" target="_top" xlink:title="Allocates and initializes the XMPP server.">
<polygon fill="none" stroke="black" points="2076.5,-275.5 2076.5,-294.5 2183.5,-294.5 2183.5,-275.5 2076.5,-275.5"/>
<text text-anchor="middle" x="2130" y="-282.5" font-family="DejaVuSansMono" font-size="10.00">xmpp_server_new</text>
</a>
</g>
<!-- Node18&#45;&gt;Node19 -->
<g id="edge42" class="edge"><title>Node18&#45;&gt;Node19</title>
<path fill="none" stroke="midnightblue" d="M2007.45,-401.303C2036.79,-373.229 2095.11,-317.428 2118.72,-294.837"/>
<polygon fill="midnightblue" stroke="midnightblue" points="2004.8,-398.993 2000,-408.435 2009.64,-404.05 2004.8,-398.993"/>
</g>
<!-- Node20 -->
<g id="node42" class="node"><title>Node20</title>
<a xlink:href="../../d0/d29/main_8c.html#a0ddf1224851353fc92bfbff6f499fa97" target="_top" xlink:title="main">
<polygon fill="none" stroke="black" points="2220.5,-152.5 2220.5,-171.5 2261.5,-171.5 2261.5,-152.5 2220.5,-152.5"/>
<text text-anchor="middle" x="2241" y="-159.5" font-family="DejaVuSansMono" font-size="10.00">main</text>
</a>
</g>
<!-- Node19&#45;&gt;Node20 -->
<g id="edge44" class="edge"><title>Node19&#45;&gt;Node20</title>
<path fill="none" stroke="midnightblue" d="M2146.35,-267.681C2169.64,-241.399 2213.14,-192.313 2231.49,-171.607"/>
<polygon fill="midnightblue" stroke="midnightblue" points="2143.57,-265.543 2139.55,-275.348 2148.8,-270.186 2143.57,-265.543"/>
</g>
<!-- Node22 -->
<g id="node46" class="node"><title>Node22</title>
<a xlink:href="../../df/da9/xmpp__auth_8c.html#a8dd789e057b9812e4dd1aa524dfb6a65" target="_top" xlink:title="Begins TLS authentication.">
<polygon fill="none" stroke="black" points="1428.5,-741.5 1428.5,-760.5 1535.5,-760.5 1535.5,-741.5 1428.5,-741.5"/>
<text text-anchor="middle" x="1482" y="-748.5" font-family="DejaVuSansMono" font-size="10.00">handle_starttls</text>
</a>
</g>
<!-- Node21&#45;&gt;Node22 -->
<g id="edge48" class="edge"><title>Node21&#45;&gt;Node22</title>
<path fill="none" stroke="midnightblue" d="M1365.75,-751C1386.49,-751 1408.92,-751 1428.43,-751"/>
<polygon fill="midnightblue" stroke="midnightblue" points="1365.72,-747.5 1355.72,-751 1365.72,-754.5 1365.72,-747.5"/>
</g>
<!-- Node22&#45;&gt;Node16 -->
<g id="edge50" class="edge"><title>Node22&#45;&gt;Node16</title>
<path fill="none" stroke="midnightblue" d="M1545.69,-751C1565.52,-751 1587.63,-751 1608.17,-751"/>
<polygon fill="midnightblue" stroke="midnightblue" points="1545.55,-747.5 1535.55,-751 1545.55,-754.5 1545.55,-747.5"/>
</g>
<!-- Node23&#45;&gt;Node6 -->
<g id="edge54" class="edge"><title>Node23&#45;&gt;Node6</title>
<path fill="none" stroke="midnightblue" d="M897.599,-513.692C1002.98,-503.432 1168.16,-487.349 1248.29,-479.548"/>
<polygon fill="midnightblue" stroke="midnightblue" points="897.206,-510.214 887.592,-514.666 897.885,-517.181 897.206,-510.214"/>
</g>
<!-- Node26 -->
<g id="node56" class="node"><title>Node26</title>
<a xlink:href="../../d8/d28/xmpp__core_8h.html#ae6da3d9438fd752c4afd6e50a6af9b66" target="_top" xlink:title="An xmpp_parser handler for stanzas from a local client.">
<polygon fill="none" stroke="black" points="522.5,-703.5 522.5,-722.5 677.5,-722.5 677.5,-703.5 522.5,-703.5"/>
<text text-anchor="middle" x="600" y="-710.5" font-family="DejaVuSansMono" font-size="10.00">xmpp_core_handle_stanza</text>
</a>
</g>
<!-- Node25&#45;&gt;Node26 -->
<g id="edge60" class="edge"><title>Node25&#45;&gt;Node26</title>
<path fill="none" stroke="midnightblue" d="M471.561,-739.319C497.654,-733.93 528.238,-727.614 552.903,-722.52"/>
<polygon fill="midnightblue" stroke="midnightblue" points="470.516,-735.961 461.431,-741.411 471.932,-742.816 470.516,-735.961"/>
</g>
<!-- Node26&#45;&gt;Node13 -->
<g id="edge62" class="edge"><title>Node26&#45;&gt;Node13</title>
<path fill="none" stroke="midnightblue" d="M687.761,-704.716C709.195,-702.67 731.431,-700.547 750.402,-698.736"/>
<polygon fill="midnightblue" stroke="midnightblue" points="687.276,-701.247 677.654,-705.681 687.941,-708.215 687.276,-701.247"/>
</g>
<!-- Node27&#45;&gt;Node3 -->
<g id="edge74" class="edge"><title>Node27&#45;&gt;Node3</title>
<path fill="none" stroke="midnightblue" d="M227.475,-770.988C266.147,-719.296 376.586,-571.674 405.825,-532.591"/>
<polygon fill="midnightblue" stroke="midnightblue" points="224.506,-769.114 221.319,-779.217 230.111,-773.307 224.506,-769.114"/>
</g>
<!-- Node27&#45;&gt;Node15 -->
<g id="edge82" class="edge"><title>Node27&#45;&gt;Node15</title>
<path fill="none" stroke="midnightblue" d="M273.951,-798.606C349.526,-809.863 483.534,-827 599,-827 599,-827 599,-827 802,-827 903.417,-827 1020.93,-809.796 1086.96,-798.54"/>
<polygon fill="midnightblue" stroke="midnightblue" points="274.093,-795.088 263.683,-797.059 273.05,-802.01 274.093,-795.088"/>
</g>
<!-- Node27&#45;&gt;Node25 -->
<g id="edge76" class="edge"><title>Node27&#45;&gt;Node25</title>
<path fill="none" stroke="midnightblue" d="M273.578,-777.623C302.175,-772.163 336.045,-765.695 363.241,-760.502"/>
<polygon fill="midnightblue" stroke="midnightblue" points="272.869,-774.195 263.703,-779.509 274.182,-781.071 272.869,-774.195"/>
</g>
<!-- Node28 -->
<g id="node67" class="node"><title>Node28</title>
<a xlink:href="../../d7/d71/xep__muc_8c.html#abb84073037b532fc678cfa29dbb0f78b" target="_top" xlink:title="xep_muc_new">
<polygon fill="none" stroke="black" points="372.5,-893.5 372.5,-912.5 455.5,-912.5 455.5,-893.5 372.5,-893.5"/>
<text text-anchor="middle" x="414" y="-900.5" font-family="DejaVuSansMono" font-size="10.00">xep_muc_new</text>
</a>
</g>
<!-- Node27&#45;&gt;Node28 -->
<g id="edge78" class="edge"><title>Node27&#45;&gt;Node28</title>
<path fill="none" stroke="midnightblue" d="M231.464,-805.393C254.873,-826.514 298.533,-863.004 342,-884 351.422,-888.551 362.092,-892.136 372.245,-894.907"/>
<polygon fill="midnightblue" stroke="midnightblue" points="233.801,-802.786 224.062,-798.613 229.073,-807.948 233.801,-802.786"/>
</g>
<!-- Node29 -->
<g id="node69" class="node"><title>Node29</title>
<a xlink:href="../../d7/d71/xep__muc_8c.html#a09d3d369f554ab215c1b8cd0328c4fc4" target="_top" xlink:title="xep_muc_conf">
<polygon fill="none" stroke="black" points="369.5,-855.5 369.5,-874.5 458.5,-874.5 458.5,-855.5 369.5,-855.5"/>
<text text-anchor="middle" x="414" y="-862.5" font-family="DejaVuSansMono" font-size="10.00">xep_muc_conf</text>
</a>
</g>
<!-- Node27&#45;&gt;Node29 -->
<g id="edge80" class="edge"><title>Node27&#45;&gt;Node29</title>
<path fill="none" stroke="midnightblue" d="M245.777,-802.528C271.552,-813.351 308.907,-828.697 342,-841 355.538,-846.033 370.684,-851.213 383.499,-855.467"/>
<polygon fill="midnightblue" stroke="midnightblue" points="247.073,-799.276 236.499,-798.618 244.355,-805.727 247.073,-799.276"/>
</g>
<!-- Node30&#45;&gt;Node3 -->
<g id="edge86" class="edge"><title>Node30&#45;&gt;Node3</title>
<path fill="none" stroke="midnightblue" d="M236.629,-405.124C277.898,-432.706 364.287,-490.443 398.551,-513.343"/>
<polygon fill="midnightblue" stroke="midnightblue" points="238.571,-402.212 228.312,-399.565 234.681,-408.032 238.571,-402.212"/>
</g>
<!-- Node30&#45;&gt;Node4 -->
<g id="edge92" class="edge"><title>Node30&#45;&gt;Node4</title>
<path fill="none" stroke="midnightblue" d="M253.409,-377.519C278.618,-369.73 312.086,-359.747 342,-352 414.558,-333.208 499.624,-315.101 551.394,-304.513"/>
<polygon fill="midnightblue" stroke="midnightblue" points="252.345,-374.185 243.834,-380.495 254.423,-380.87 252.345,-374.185"/>
</g>
<!-- Node30&#45;&gt;Node6 -->
<g id="edge88" class="edge"><title>Node30&#45;&gt;Node6</title>
<path fill="none" stroke="midnightblue" d="M262.296,-401.814C334.901,-418.51 476.709,-447 599,-447 599,-447 599,-447 985,-447 1078.76,-447 1187.82,-459.861 1248.38,-468.15"/>
<polygon fill="midnightblue" stroke="midnightblue" points="263.053,-398.397 252.52,-399.541 261.467,-405.215 263.053,-398.397"/>
</g>
<!-- Node30&#45;&gt;Node7 -->
<g id="edge90" class="edge"><title>Node30&#45;&gt;Node7</title>
<path fill="none" stroke="midnightblue" d="M233.918,-373.883C288.633,-331.292 447.277,-219 599,-219 599,-219 599,-219 985,-219 1080.57,-219 1191.48,-237.012 1251.31,-248.234"/>
<polygon fill="midnightblue" stroke="midnightblue" points="231.447,-371.374 225.765,-380.316 235.783,-376.869 231.447,-371.374"/>
</g>
<!-- Node30&#45;&gt;Node12 -->
<g id="edge104" class="edge"><title>Node30&#45;&gt;Node12</title>
<path fill="none" stroke="midnightblue" d="M279.615,-393.238C346.803,-396.554 451.177,-401.705 522.178,-405.209"/>
<polygon fill="midnightblue" stroke="midnightblue" points="279.732,-389.74 269.571,-392.742 279.386,-396.731 279.732,-389.74"/>
</g>
<!-- Node30&#45;&gt;Node13 -->
<g id="edge106" class="edge"><title>Node30&#45;&gt;Node13</title>
<path fill="none" stroke="midnightblue" d="M227.808,-407.807C255.299,-443.017 316.428,-520.032 342,-542 413.117,-603.094 433.904,-619.918 522,-652 598.594,-679.894 693.561,-689.268 750.334,-692.415"/>
<polygon fill="midnightblue" stroke="midnightblue" points="230.491,-405.556 221.586,-399.815 224.967,-409.856 230.491,-405.556"/>
</g>
<!-- Node31 -->
<g id="node78" class="node"><title>Node31</title>
<a xlink:href="../../d7/d71/xep__muc_8c.html#af88baacca4f1cccf8ec2bc295db0e063" target="_top" xlink:title="leave_room">
<polygon fill="none" stroke="black" points="375.5,-361.5 375.5,-380.5 452.5,-380.5 452.5,-361.5 375.5,-361.5"/>
<text text-anchor="middle" x="414" y="-368.5" font-family="DejaVuSansMono" font-size="10.00">leave_room</text>
</a>
</g>
<!-- Node30&#45;&gt;Node31 -->
<g id="edge94" class="edge"><title>Node30&#45;&gt;Node31</title>
<path fill="none" stroke="midnightblue" d="M279.788,-383.719C311.485,-380.692 348.36,-377.172 375.266,-374.603"/>
<polygon fill="midnightblue" stroke="midnightblue" points="279.319,-380.247 269.697,-384.682 279.985,-387.216 279.319,-380.247"/>
</g>
<!-- Node32 -->
<g id="node80" class="node"><title>Node32</title>
<a xlink:href="../../d7/d71/xep__muc_8c.html#a40cdc65e1b60c76aef97dfc9d3f2510f" target="_top" xlink:title="leave_room_presence">
<polygon fill="none" stroke="black" points="735.5,-323.5 735.5,-342.5 866.5,-342.5 866.5,-323.5 735.5,-323.5"/>
<text text-anchor="middle" x="801" y="-330.5" font-family="DejaVuSansMono" font-size="10.00">leave_room_presence</text>
</a>
</g>
<!-- Node31&#45;&gt;Node32 -->
<g id="edge96" class="edge"><title>Node31&#45;&gt;Node32</title>
<path fill="none" stroke="midnightblue" d="M462.889,-361.363C481.303,-357.956 502.565,-354.383 522,-352 594.866,-343.067 679.029,-338.048 735.493,-335.442"/>
<polygon fill="midnightblue" stroke="midnightblue" points="462.161,-357.939 452.982,-363.23 463.457,-364.818 462.161,-357.939"/>
</g>
<!-- Node33 -->
<g id="node83" class="node"><title>Node33</title>
<a xlink:href="../../d7/d71/xep__muc_8c.html#a0214cd898b2f0c746cb45f79746e5095" target="_top" xlink:title="client_disconnect">
<polygon fill="none" stroke="black" points="540.5,-361.5 540.5,-380.5 659.5,-380.5 659.5,-361.5 540.5,-361.5"/>
<text text-anchor="middle" x="600" y="-368.5" font-family="DejaVuSansMono" font-size="10.00">client_disconnect</text>
</a>
</g>
<!-- Node31&#45;&gt;Node33 -->
<g id="edge100" class="edge"><title>Node31&#45;&gt;Node33</title>
<path fill="none" stroke="midnightblue" d="M462.832,-371C486.525,-371 515.342,-371 540.354,-371"/>
<polygon fill="midnightblue" stroke="midnightblue" points="462.679,-367.5 452.679,-371 462.679,-374.5 462.679,-367.5"/>
</g>
<!-- Node32&#45;&gt;Node10 -->
<g id="edge98" class="edge"><title>Node32&#45;&gt;Node10</title>
<path fill="none" stroke="midnightblue" d="M876.762,-333C894.761,-333 913.617,-333 930.363,-333"/>
<polygon fill="midnightblue" stroke="midnightblue" points="876.579,-329.5 866.579,-333 876.579,-336.5 876.579,-329.5"/>
</g>
<!-- Node33&#45;&gt;Node9 -->
<g id="edge102" class="edge"><title>Node33&#45;&gt;Node9</title>
<path fill="none" stroke="midnightblue" d="M660.795,-382.418C689.268,-387.855 722.931,-394.283 750.02,-399.456"/>
<polygon fill="midnightblue" stroke="midnightblue" points="661.438,-378.978 650.959,-380.54 660.125,-385.854 661.438,-378.978"/>
</g>
<!-- Node35&#45;&gt;Node20 -->
<g id="edge112" class="edge"><title>Node35&#45;&gt;Node20</title>
<path fill="none" stroke="midnightblue" d="M303.848,-193.056C381.835,-187.629 497.807,-181 599,-181 599,-181 599,-181 1990,-181 2075.97,-181 2178.09,-169.691 2220.27,-164.523"/>
<polygon fill="midnightblue" stroke="midnightblue" points="303.307,-189.585 293.578,-193.779 303.799,-196.568 303.307,-189.585"/>
</g>
<!-- Node36 -->
<g id="node93" class="node"><title>Node36</title>
<a xlink:href="../../dd/d68/xmp3__options_8c.html#a8414633ed403260567569dbc9ee00434" target="_top" xlink:title="Callback used by config file parser.">
<polygon fill="none" stroke="black" points="372.5,-133.5 372.5,-152.5 455.5,-152.5 455.5,-133.5 372.5,-133.5"/>
<text text-anchor="middle" x="414" y="-140.5" font-family="DejaVuSansMono" font-size="10.00">ini_handler</text>
</a>
</g>
<!-- Node35&#45;&gt;Node36 -->
<g id="edge114" class="edge"><title>Node35&#45;&gt;Node36</title>
<path fill="none" stroke="midnightblue" d="M277.746,-188.282C287.281,-186.112 296.945,-183.675 306,-181 322.464,-176.136 325.864,-172.861 342,-167 355.697,-162.024 370.999,-156.809 383.88,-152.515"/>
<polygon fill="midnightblue" stroke="midnightblue" points="276.905,-184.883 267.888,-190.445 278.405,-191.72 276.905,-184.883"/>
</g>
<!-- Node37 -->
<g id="node95" class="node"><title>Node37</title>
<a xlink:href="../../dc/d25/xmp3__options_8h.html#a5df01d376481ee0326ff253fa9af2e11" target="_top" xlink:title="Load a configuration from an ini&#45;style config.">
<polygon fill="none" stroke="black" points="1392.5,-133.5 1392.5,-152.5 1571.5,-152.5 1571.5,-133.5 1392.5,-133.5"/>
<text text-anchor="middle" x="1482" y="-140.5" font-family="DejaVuSansMono" font-size="10.00">xmp3_options_load_conf_file</text>
</a>
</g>
<!-- Node36&#45;&gt;Node37 -->
<g id="edge116" class="edge"><title>Node36&#45;&gt;Node37</title>
<path fill="none" stroke="midnightblue" d="M466.13,-143C539.877,-143 680.39,-143 800,-143 800,-143 800,-143 1141,-143 1226.3,-143 1323.63,-143 1392.23,-143"/>
<polygon fill="midnightblue" stroke="midnightblue" points="465.744,-139.5 455.744,-143 465.744,-146.5 465.744,-139.5"/>
</g>
<!-- Node37&#45;&gt;Node20 -->
<g id="edge118" class="edge"><title>Node37&#45;&gt;Node20</title>
<path fill="none" stroke="midnightblue" d="M1581.77,-143C1654.99,-143 1757.22,-143 1847,-143 1847,-143 1847,-143 1990,-143 2075.97,-143 2178.09,-154.309 2220.27,-159.477"/>
<polygon fill="midnightblue" stroke="midnightblue" points="1581.64,-139.5 1571.64,-143 1581.64,-146.5 1581.64,-139.5"/>
</g>
<!-- Node38&#45;&gt;Node20 -->
<g id="edge122" class="edge"><title>Node38&#45;&gt;Node20</title>
<path fill="none" stroke="midnightblue" d="M315.979,-116.223C393.541,-110.975 502.931,-105 599,-105 599,-105 599,-105 1990,-105 2077.7,-105 2178.47,-138.754 2220.26,-154.313"/>
<polygon fill="midnightblue" stroke="midnightblue" points="315.466,-112.75 305.729,-116.925 315.945,-119.734 315.466,-112.75"/>
</g>
<!-- Node38&#45;&gt;Node36 -->
<g id="edge124" class="edge"><title>Node38&#45;&gt;Node36</title>
<path fill="none" stroke="midnightblue" d="M315.786,-133.718C335.821,-135.631 355.732,-137.532 372.268,-139.111"/>
<polygon fill="midnightblue" stroke="midnightblue" points="315.924,-130.216 305.637,-132.749 315.259,-137.184 315.924,-130.216"/>
</g>
<!-- Node39&#45;&gt;Node36 -->
<g id="edge128" class="edge"><title>Node39&#45;&gt;Node36</title>
<path fill="none" stroke="midnightblue" d="M315.786,-152.282C335.821,-150.369 355.732,-148.468 372.268,-146.889"/>
<polygon fill="midnightblue" stroke="midnightblue" points="315.259,-148.816 305.637,-153.251 315.924,-155.784 315.259,-148.816"/>
</g>
</g>
</svg>
        <g id="navigator" transform="translate(0 0)" fill="#404254">
                <rect fill="#f2f5e9" fill-opacity="0.5" stroke="#606060" stroke-width=".5" x="0" y="0" width="60" height="60"/>
                <use id="zoomplus" xlink:href="#zoomPlus" x="17" y="9" onmousedown="handleZoom(evt,'in')"/>
                <use id="zoomminus" xlink:href="#zoomMin" x="42" y="9" onmousedown="handleZoom(evt,'out')"/>
                <use id="reset" xlink:href="#resetDef" x="30" y="36" onmousedown="handleReset()"/>
                <g id="arrowUp" xlink:href="#dirArrow" transform="translate(30 24)" onmousedown="handlePan(0,-1)">
                  <use xlink:href="#rim" fill="#404040">
                        <set attributeName="fill" to="#808080" begin="arrowUp.mouseover" end="arrowUp.mouseout"/>
                  </use>
                  <path fill="none" stroke="white" stroke-width="1.5" d="M0,-3.0v7 M-2.5,-0.5L0,-3.0L2.5,-0.5"/>
                </g>
                <g id="arrowRight" xlink:href="#dirArrow" transform="rotate(90) translate(36 -43)" onmousedown="handlePan(1,0)">
                  <use xlink:href="#rim" fill="#404040">
                        <set attributeName="fill" to="#808080" begin="arrowRight.mouseover" end="arrowRight.mouseout"/>
                  </use>
                  <path fill="none" stroke="white" stroke-width="1.5" d="M0,-3.0v7 M-2.5,-0.5L0,-3.0L2.5,-0.5"/>
                </g>
                <g id="arrowDown" xlink:href="#dirArrow" transform="rotate(180) translate(-30 -48)" onmousedown="handlePan(0,1)">
                  <use xlink:href="#rim" fill="#404040">
                        <set attributeName="fill" to="#808080" begin="arrowDown.mouseover" end="arrowDown.mouseout"/>
                  </use>
                  <path fill="none" stroke="white" stroke-width="1.5" d="M0,-3.0v7 M-2.5,-0.5L0,-3.0L2.5,-0.5"/>
                </g>
                <g id="arrowLeft" xlink:href="#dirArrow" transform="rotate(270) translate(-36 17)" onmousedown="handlePan(-1,0)">
                  <use xlink:href="#rim" fill="#404040">
                        <set attributeName="fill" to="#808080" begin="arrowLeft.mouseover" end="arrowLeft.mouseout"/>
                  </use>
                  <path fill="none" stroke="white" stroke-width="1.5" d="M0,-3.0v7 M-2.5,-0.5L0,-3.0L2.5,-0.5"/>
                </g>
        </g>
        <svg viewBox="0 0 25 25" width="100%" height="30px" preserveAspectRatio="xMaxYMin meet"> 
          <g id="printButton" transform="scale(0.4 0.4)" onmousedown="handlePrint(evt)">
            <rect height="23.33753581" id="paper" rx="2" style="fill:#f2f5e9;fill-rule:evenodd;stroke:#111111;stroke-width:3.224;stroke-linejoin:round;" transform="matrix(1.000000,0.000000,-0.339266,0.940691,0.000000,0.000000)" width="25.55231285" x="26.69387353" y="7.36162977"/>
            <rect height="26.272097" id="body" rx="2" style="fill:#404040;fill-rule:evenodd;stroke:#111111;stroke-width:3.125;stroke-linejoin:round;" width="50" x="4.5295201" y="27.078951"/>
            <rect height="8.27750969" id="tray" style="fill:#d2d5c9;fill-rule:evenodd;stroke:#111111;stroke-width:3.125;stroke-linecap:round;stroke-linejoin:round;" width="40" x="10.28778839" y="44.96812282"/>
          </g>
        </svg>
</svg>
