<?xml version="1.0" encoding="UTF-8" standalone="no"?>
<!DOCTYPE svg PUBLIC "-//W3C//DTD SVG 1.1//EN"
 "http://www.w3.org/Graphics/SVG/1.1/DTD/svg11.dtd">
<!-- Generated by graphviz version 2.28.0 (20120217.0315)
 -->
<!-- Title: G Pages: 1 -->
<!--zoomable 200 -->
<svg id="main" version="1.1" xmlns="http://www.w3.org/2000/svg" xmlns:xlink="http://www.w3.org/1999/xlink" xml:space="preserve" onload="init(evt)">
        <defs>
                <circle id="rim" cx="0" cy="0" r="7"/>
                <circle id="rim2" cx="0" cy="0" r="3.5"/>
                <g id="zoomPlus">
                        <use xlink:href="#rim" fill="#404040">
                                <set attributeName="fill" to="#808080" begin="zoomplus.mouseover" end="zoomplus.mouseout"/>
                        </use>
                        <path d="M-4,0h8M0,-4v8" fill="none" stroke="white" stroke-width="1.5" pointer-events="none"/>
                </g>
                <g id="zoomMin">
                        <use xlink:href="#rim" fill="#404040">
                                <set attributeName="fill" to="#808080" begin="zoomminus.mouseover" end="zoomminus.mouseout"/>
                        </use>
                        <path d="M-4,0h8" fill="none" stroke="white" stroke-width="1.5" pointer-events="none"/>
                </g>
                <g id="dirArrow">
                        <path fill="none" stroke="white" stroke-width="1.5" d="M0,-3.0v7 M-2.5,-0.5L0,-3.0L2.5,-0.5"/>
                </g>
               <g id="resetDef">
                       <use xlink:href="#rim2" fill="#404040">
                               <set attributeName="fill" to="#808080" begin="reset.mouseover" end="reset.mouseout"/>
                       </use>
               </g>
        </defs>

<script type="text/javascript">
var viewWidth = 2120;
var viewHeight = 200;
var sectionId = 'dynsection-2';
</script>
<script xlink:href="../../svgpan.js"/>
<svg id="graph" class="graph">
<g id="viewport">
<title>G</title>
<!-- Node1 -->
<g id="node1" class="node"><title>Node1</title>
<polygon fill="#bfbfbf" stroke="black" points="0.5,-95.6199 0.5,-114.62 107.5,-114.62 107.5,-95.6199 0.5,-95.6199"/>
<text text-anchor="middle" x="54" y="-102.62" font-family="DejaVuSansMono" font-size="10.00">xmpp_parser_del</text>
</g>
<!-- Node2 -->
<g id="node3" class="node"><title>Node2</title>
<a xlink:href="../../d6/d78/xmp3__multicast_8c.html#af244b95e6e9081fe12d9099218fdafb8" target="_top" xlink:title="multicast_del">
<polygon fill="none" stroke="black" points="150.5,-114.62 150.5,-133.62 245.5,-133.62 245.5,-114.62 150.5,-114.62"/>
<text text-anchor="middle" x="198" y="-121.62" font-family="DejaVuSansMono" font-size="10.00">multicast_del</text>
</a>
</g>
<!-- Node1&#45;&gt;Node2 -->
<g id="edge2" class="edge"><title>Node1&#45;&gt;Node2</title>
<path fill="none" stroke="midnightblue" d="M118.1,-113.563C128.877,-115.005 139.901,-116.48 150.16,-117.852"/>
<polygon fill="midnightblue" stroke="midnightblue" points="118.251,-110.052 107.876,-112.195 117.323,-116.99 118.251,-110.052"/>
</g>
<!-- Node3 -->
<g id="node5" class="node"><title>Node3</title>
<a xlink:href="../../d4/d2f/xmpp__client_8h.html#add2df61245a543667b6d98e3fcd57077" target="_top" xlink:title="xmpp_client_del">
<polygon fill="none" stroke="black" points="144.5,-76.6199 144.5,-95.6199 251.5,-95.6199 251.5,-76.6199 144.5,-76.6199"/>
<text text-anchor="middle" x="198" y="-83.6199" font-family="DejaVuSansMono" font-size="10.00">xmpp_client_del</text>
</a>
</g>
<!-- Node1&#45;&gt;Node3 -->
<g id="edge4" class="edge"><title>Node1&#45;&gt;Node3</title>
<path fill="none" stroke="midnightblue" d="M117.994,-96.6911C126.704,-95.5256 135.578,-94.3383 144.08,-93.2007"/>
<polygon fill="midnightblue" stroke="midnightblue" points="117.323,-93.2496 107.876,-98.045 118.251,-100.188 117.323,-93.2496"/>
</g>
<!-- Node4 -->
<g id="node7" class="node"><title>Node4</title>
<a xlink:href="../../d4/d2f/xmpp__client_8h.html#a1619c0b8f58b2cf09a322bf34fbc3414" target="_top" xlink:title="xmpp_client_new">
<polygon fill="none" stroke="black" points="1638.5,-85.6199 1638.5,-104.62 1745.5,-104.62 1745.5,-85.6199 1638.5,-85.6199"/>
<text text-anchor="middle" x="1692" y="-92.6199" font-family="DejaVuSansMono" font-size="10.00">xmpp_client_new</text>
</a>
</g>
<!-- Node3&#45;&gt;Node4 -->
<g id="edge6" class="edge"><title>Node3&#45;&gt;Node4</title>
<path fill="none" stroke="midnightblue" d="M255.849,-74.7196C331.71,-60.524 470.385,-38.1199 590,-38.1199 590,-38.1199 590,-38.1199 1363,-38.1199 1472.53,-38.1199 1599.63,-69.3528 1658.27,-85.5793"/>
<polygon fill="midnightblue" stroke="midnightblue" points="255.193,-71.2814 246.018,-76.5792 256.494,-78.1594 255.193,-71.2814"/>
</g>
<!-- Node5 -->
<g id="node9" class="node"><title>Node5</title>
<a xlink:href="../../d0/df0/xmpp__server_8c.html#a66363912ef1221a2574f9f99805fe8fd" target="_top" xlink:title="Callback for new client connections.">
<polygon fill="none" stroke="black" points="1785.5,-113.62 1785.5,-132.62 1886.5,-132.62 1886.5,-113.62 1785.5,-113.62"/>
<text text-anchor="middle" x="1836" y="-120.62" font-family="DejaVuSansMono" font-size="10.00">connect_client</text>
</a>
</g>
<!-- Node3&#45;&gt;Node5 -->
<g id="edge46" class="edge"><title>Node3&#45;&gt;Node5</title>
<path fill="none" stroke="midnightblue" d="M242.596,-99.8242C245.871,-101.429 249.046,-103.191 252,-105.12 271.481,-117.837 267.401,-132.307 288,-143.12 408.273,-206.257 454.162,-190.12 590,-190.12 590,-190.12 590,-190.12 1528,-190.12 1626.13,-190.12 1650.97,-179.604 1746,-155.12 1768.9,-149.22 1794.19,-139.833 1811.95,-132.748"/>
<polygon fill="midnightblue" stroke="midnightblue" points="243.769,-96.5169 233.205,-95.7118 240.961,-102.929 243.769,-96.5169"/>
</g>
<!-- Node8 -->
<g id="node15" class="node"><title>Node8</title>
<a xlink:href="../../d1/d2e/xmpp__server_8h.html#af7d75415fd5671841797bf77bbc1a981" target="_top" xlink:title="Cleans up an XMPP server instance.">
<polygon fill="none" stroke="black" points="1782.5,-33.6199 1782.5,-52.6199 1889.5,-52.6199 1889.5,-33.6199 1782.5,-33.6199"/>
<text text-anchor="middle" x="1836" y="-40.6199" font-family="DejaVuSansMono" font-size="10.00">xmpp_server_del</text>
</a>
</g>
<!-- Node3&#45;&gt;Node8 -->
<g id="edge14" class="edge"><title>Node3&#45;&gt;Node8</title>
<path fill="none" stroke="midnightblue" d="M221.94,-71.0564C239.345,-60.3762 264.25,-46.6531 288,-39.1199 417.003,1.79795 454.663,-0.119863 590,-0.119863 590,-0.119863 590,-0.119863 1528,-0.119863 1623.8,-0.119863 1734.8,-20.9086 1793.55,-33.5768"/>
<polygon fill="midnightblue" stroke="midnightblue" points="219.699,-68.3313 213.097,-76.6182 223.426,-74.2567 219.699,-68.3313"/>
</g>
<!-- Node9 -->
<g id="node19" class="node"><title>Node9</title>
<a xlink:href="../../d1/d2e/xmpp__server_8h.html#a79e02871228c509de0c70961d74a1bcb" target="_top" xlink:title="Attempt to cleanly disconnect a client, and clean up its resources.">
<polygon fill="none" stroke="black" points="288.5,-114.62 288.5,-133.62 479.5,-133.62 479.5,-114.62 288.5,-114.62"/>
<text text-anchor="middle" x="384" y="-121.62" font-family="DejaVuSansMono" font-size="10.00">xmpp_server_disconnect_client</text>
</a>
</g>
<!-- Node3&#45;&gt;Node9 -->
<g id="edge20" class="edge"><title>Node3&#45;&gt;Node9</title>
<path fill="none" stroke="midnightblue" d="M255.561,-97.8009C281.654,-103.19 312.238,-109.506 336.903,-114.6"/>
<polygon fill="midnightblue" stroke="midnightblue" points="255.932,-94.3038 245.431,-95.7089 254.516,-101.159 255.932,-94.3038"/>
</g>
<!-- Node4&#45;&gt;Node5 -->
<g id="edge8" class="edge"><title>Node4&#45;&gt;Node5</title>
<path fill="none" stroke="midnightblue" d="M1751.6,-106.674C1763.29,-108.98 1775.45,-111.377 1786.75,-113.605"/>
<polygon fill="midnightblue" stroke="midnightblue" points="1751.96,-103.178 1741.47,-104.678 1750.61,-110.046 1751.96,-103.178"/>
</g>
<!-- Node6 -->
<g id="node11" class="node"><title>Node6</title>
<a xlink:href="../../d1/d2e/xmpp__server_8h.html#a27bfc8e4d424a8bc17ab21a4a09cdf92" target="_top" xlink:title="Allocates and initializes the XMPP server.">
<polygon fill="none" stroke="black" points="1926.5,-71.6199 1926.5,-90.6199 2033.5,-90.6199 2033.5,-71.6199 1926.5,-71.6199"/>
<text text-anchor="middle" x="1980" y="-78.6199" font-family="DejaVuSansMono" font-size="10.00">xmpp_server_new</text>
</a>
</g>
<!-- Node5&#45;&gt;Node6 -->
<g id="edge10" class="edge"><title>Node5&#45;&gt;Node6</title>
<path fill="none" stroke="midnightblue" d="M1879.09,-110.671C1900.62,-104.304 1926.42,-96.671 1946.41,-90.758"/>
<polygon fill="midnightblue" stroke="midnightblue" points="1877.82,-107.397 1869.22,-113.589 1879.8,-114.109 1877.82,-107.397"/>
</g>
<!-- Node7 -->
<g id="node13" class="node"><title>Node7</title>
<a xlink:href="../../d0/d29/main_8c.html#a0ddf1224851353fc92bfbff6f499fa97" target="_top" xlink:title="main">
<polygon fill="none" stroke="black" points="2070.5,-52.6199 2070.5,-71.6199 2111.5,-71.6199 2111.5,-52.6199 2070.5,-52.6199"/>
<text text-anchor="middle" x="2091" y="-59.6199" font-family="DejaVuSansMono" font-size="10.00">main</text>
</a>
</g>
<!-- Node6&#45;&gt;Node7 -->
<g id="edge12" class="edge"><title>Node6&#45;&gt;Node7</title>
<path fill="none" stroke="midnightblue" d="M2043.45,-70.2349C2053.24,-68.528 2062.68,-66.8821 2070.47,-65.5239"/>
<polygon fill="midnightblue" stroke="midnightblue" points="2042.83,-66.7885 2033.58,-71.9538 2044.04,-73.6845 2042.83,-66.7885"/>
</g>
<!-- Node8&#45;&gt;Node6 -->
<g id="edge18" class="edge"><title>Node8&#45;&gt;Node6</title>
<path fill="none" stroke="midnightblue" d="M1882.49,-55.294C1902.13,-60.5486 1924.77,-66.6065 1943.18,-71.5339"/>
<polygon fill="midnightblue" stroke="midnightblue" points="1883.4,-51.913 1872.83,-52.7089 1881.59,-58.6751 1883.4,-51.913"/>
</g>
<!-- Node8&#45;&gt;Node7 -->
<g id="edge16" class="edge"><title>Node8&#45;&gt;Node7</title>
<path fill="none" stroke="midnightblue" d="M1899.9,-47.8434C1955.84,-52.0444 2034.21,-57.9298 2070.34,-60.6432"/>
<polygon fill="midnightblue" stroke="midnightblue" points="1899.96,-44.3386 1889.73,-47.0798 1899.44,-51.3189 1899.96,-44.3386"/>
</g>
<!-- Node10 -->
<g id="node21" class="node"><title>Node10</title>
<a xlink:href="../../d8/d28/xmpp__core_8h.html#a3b41e83061abd7ed5b258c7aa7dda0d6" target="_top" xlink:title="An xmpp_server stanza route for stanzas directed to a local client.">
<polygon fill="none" stroke="black" points="516.5,-85.6199 516.5,-104.62 665.5,-104.62 665.5,-85.6199 516.5,-85.6199"/>
<text text-anchor="middle" x="591" y="-92.6199" font-family="DejaVuSansMono" font-size="10.00">xmpp_core_route_client</text>
</a>
</g>
<!-- Node9&#45;&gt;Node10 -->
<g id="edge22" class="edge"><title>Node9&#45;&gt;Node10</title>
<path fill="none" stroke="midnightblue" d="M462.32,-113.182C482.131,-110.379 503.281,-107.387 522.551,-104.661"/>
<polygon fill="midnightblue" stroke="midnightblue" points="461.82,-109.718 452.409,-114.584 462.8,-116.649 461.82,-109.718"/>
</g>
<!-- Node17 -->
<g id="node38" class="node"><title>Node17</title>
<a xlink:href="../../d0/df0/xmpp__server_8c.html#abece91815ef240322d79073f5bfca1db" target="_top" xlink:title="Callback for new data from a client.">
<polygon fill="none" stroke="black" points="711.5,-132.62 711.5,-151.62 794.5,-151.62 794.5,-132.62 711.5,-132.62"/>
<text text-anchor="middle" x="753" y="-139.62" font-family="DejaVuSansMono" font-size="10.00">read_client</text>
</a>
</g>
<!-- Node9&#45;&gt;Node17 -->
<g id="edge42" class="edge"><title>Node9&#45;&gt;Node17</title>
<path fill="none" stroke="midnightblue" d="M489.767,-129.258C563.475,-132.873 658.098,-137.514 711.176,-140.118"/>
<polygon fill="midnightblue" stroke="midnightblue" points="489.671,-125.749 479.512,-128.755 489.328,-132.741 489.671,-125.749"/>
</g>
<!-- Node10&#45;&gt;Node3 -->
<g id="edge40" class="edge"><title>Node10&#45;&gt;Node3</title>
<path fill="none" stroke="midnightblue" d="M506.305,-93.1934C429.174,-91.418 317.066,-88.8375 251.732,-87.3336"/>
<polygon fill="midnightblue" stroke="midnightblue" points="506.398,-96.6963 516.476,-93.4275 506.559,-89.6982 506.398,-96.6963"/>
</g>
<!-- Node11 -->
<g id="node23" class="node"><title>Node11</title>
<a xlink:href="../../df/da9/xmpp__auth_8c.html#a603b4a63af3c4e4af99442805fe89ae8" target="_top" xlink:title="Step 15: Client binds a resource.">
<polygon fill="none" stroke="black" points="702.5,-85.6199 702.5,-104.62 803.5,-104.62 803.5,-85.6199 702.5,-85.6199"/>
<text text-anchor="middle" x="753" y="-92.6199" font-family="DejaVuSansMono" font-size="10.00">handle_bind_iq</text>
</a>
</g>
<!-- Node10&#45;&gt;Node11 -->
<g id="edge24" class="edge"><title>Node10&#45;&gt;Node11</title>
<path fill="none" stroke="midnightblue" d="M676.006,-95.1199C684.943,-95.1199 693.813,-95.1199 702.168,-95.1199"/>
<polygon fill="midnightblue" stroke="midnightblue" points="675.912,-91.62 665.911,-95.1199 675.911,-98.62 675.912,-91.62"/>
</g>
<!-- Node12 -->
<g id="node25" class="node"><title>Node12</title>
<a xlink:href="../../df/da9/xmpp__auth_8c.html#a01804bd53eccc182ce76337fc0863e8d" target="_top" xlink:title="stream_bind_start">
<polygon fill="none" stroke="black" points="840.5,-85.6199 840.5,-104.62 959.5,-104.62 959.5,-85.6199 840.5,-85.6199"/>
<text text-anchor="middle" x="900" y="-92.6199" font-family="DejaVuSansMono" font-size="10.00">stream_bind_start</text>
</a>
</g>
<!-- Node11&#45;&gt;Node12 -->
<g id="edge26" class="edge"><title>Node11&#45;&gt;Node12</title>
<path fill="none" stroke="midnightblue" d="M813.961,-95.1199C822.655,-95.1199 831.597,-95.1199 840.266,-95.1199"/>
<polygon fill="midnightblue" stroke="midnightblue" points="813.901,-91.62 803.901,-95.1199 813.901,-98.62 813.901,-91.62"/>
</g>
<!-- Node13 -->
<g id="node27" class="node"><title>Node13</title>
<a xlink:href="../../df/da9/xmpp__auth_8c.html#afb770a216868aa3fb43813b19d2a0115" target="_top" xlink:title="Begins SASL PLAIN authentication.">
<polygon fill="none" stroke="black" points="996.5,-85.6199 996.5,-104.62 1115.5,-104.62 1115.5,-85.6199 996.5,-85.6199"/>
<text text-anchor="middle" x="1056" y="-92.6199" font-family="DejaVuSansMono" font-size="10.00">handle_sasl_plain</text>
</a>
</g>
<!-- Node12&#45;&gt;Node13 -->
<g id="edge28" class="edge"><title>Node12&#45;&gt;Node13</title>
<path fill="none" stroke="midnightblue" d="M969.894,-95.1199C978.691,-95.1199 987.631,-95.1199 996.248,-95.1199"/>
<polygon fill="midnightblue" stroke="midnightblue" points="969.66,-91.62 959.66,-95.1199 969.66,-98.62 969.66,-91.62"/>
</g>
<!-- Node14 -->
<g id="node29" class="node"><title>Node14</title>
<a xlink:href="../../d3/d24/xmpp__auth_8h.html#ad3efd9ab093646bdfd8832c34ae2de4d" target="_top" xlink:title="Handler for the inital stream start to begin authentication.">
<polygon fill="none" stroke="black" points="1452.5,-85.6199 1452.5,-104.62 1601.5,-104.62 1601.5,-85.6199 1452.5,-85.6199"/>
<text text-anchor="middle" x="1527" y="-92.6199" font-family="DejaVuSansMono" font-size="10.00">xmpp_auth_stream_start</text>
</a>
</g>
<!-- Node13&#45;&gt;Node14 -->
<g id="edge30" class="edge"><title>Node13&#45;&gt;Node14</title>
<path fill="none" stroke="midnightblue" d="M1125.99,-95.1199C1213.24,-95.1199 1362.85,-95.1199 1452.28,-95.1199"/>
<polygon fill="midnightblue" stroke="midnightblue" points="1125.92,-91.62 1115.92,-95.1199 1125.92,-98.62 1125.92,-91.62"/>
</g>
<!-- Node15 -->
<g id="node32" class="node"><title>Node15</title>
<a xlink:href="../../df/da9/xmpp__auth_8c.html#afd7b12689591d40109a88ad108b5c3a2" target="_top" xlink:title="stream_sasl_start">
<polygon fill="none" stroke="black" points="1152.5,-104.62 1152.5,-123.62 1271.5,-123.62 1271.5,-104.62 1152.5,-104.62"/>
<text text-anchor="middle" x="1212" y="-111.62" font-family="DejaVuSansMono" font-size="10.00">stream_sasl_start</text>
</a>
</g>
<!-- Node13&#45;&gt;Node15 -->
<g id="edge34" class="edge"><title>Node13&#45;&gt;Node15</title>
<path fill="none" stroke="midnightblue" d="M1125.61,-103.584C1134.5,-104.681 1143.54,-105.797 1152.25,-106.871"/>
<polygon fill="midnightblue" stroke="midnightblue" points="1126.01,-100.108 1115.66,-102.357 1125.16,-107.055 1126.01,-100.108"/>
</g>
<!-- Node14&#45;&gt;Node4 -->
<g id="edge32" class="edge"><title>Node14&#45;&gt;Node4</title>
<path fill="none" stroke="midnightblue" d="M1611.99,-95.1199C1620.95,-95.1199 1629.88,-95.1199 1638.33,-95.1199"/>
<polygon fill="midnightblue" stroke="midnightblue" points="1611.87,-91.62 1601.87,-95.1199 1611.87,-98.62 1611.87,-91.62"/>
</g>
<!-- Node16 -->
<g id="node34" class="node"><title>Node16</title>
<a xlink:href="../../df/da9/xmpp__auth_8c.html#a8dd789e057b9812e4dd1aa524dfb6a65" target="_top" xlink:title="Begins TLS authentication.">
<polygon fill="none" stroke="black" points="1308.5,-104.62 1308.5,-123.62 1415.5,-123.62 1415.5,-104.62 1308.5,-104.62"/>
<text text-anchor="middle" x="1362" y="-111.62" font-family="DejaVuSansMono" font-size="10.00">handle_starttls</text>
</a>
</g>
<!-- Node15&#45;&gt;Node16 -->
<g id="edge36" class="edge"><title>Node15&#45;&gt;Node16</title>
<path fill="none" stroke="midnightblue" d="M1282.09,-114.12C1290.81,-114.12 1299.62,-114.12 1308.04,-114.12"/>
<polygon fill="midnightblue" stroke="midnightblue" points="1281.92,-110.62 1271.92,-114.12 1281.92,-117.62 1281.92,-110.62"/>
</g>
<!-- Node16&#45;&gt;Node14 -->
<g id="edge38" class="edge"><title>Node16&#45;&gt;Node14</title>
<path fill="none" stroke="midnightblue" d="M1425.91,-106.787C1434.56,-105.779 1443.5,-104.737 1452.32,-103.709"/>
<polygon fill="midnightblue" stroke="midnightblue" points="1425.45,-103.317 1415.92,-107.951 1426.26,-110.27 1425.45,-103.317"/>
</g>
<!-- Node17&#45;&gt;Node5 -->
<g id="edge44" class="edge"><title>Node17&#45;&gt;Node5</title>
<path fill="none" stroke="midnightblue" d="M805.199,-144.857C865.08,-147.817 967.203,-152.12 1055,-152.12 1055,-152.12 1055,-152.12 1528,-152.12 1619.14,-152.12 1724.84,-139.294 1785.42,-130.701"/>
<polygon fill="midnightblue" stroke="midnightblue" points="805.045,-141.345 794.882,-144.339 804.694,-148.336 805.045,-141.345"/>
</g>
</g>
</svg>
        <g id="navigator" transform="translate(0 0)" fill="#404254">
                <rect fill="#f2f5e9" fill-opacity="0.5" stroke="#606060" stroke-width=".5" x="0" y="0" width="60" height="60"/>
                <use id="zoomplus" xlink:href="#zoomPlus" x="17" y="9" onmousedown="handleZoom(evt,'in')"/>
                <use id="zoomminus" xlink:href="#zoomMin" x="42" y="9" onmousedown="handleZoom(evt,'out')"/>
                <use id="reset" xlink:href="#resetDef" x="30" y="36" onmousedown="handleReset()"/>
                <g id="arrowUp" xlink:href="#dirArrow" transform="translate(30 24)" onmousedown="handlePan(0,-1)">
                  <use xlink:href="#rim" fill="#404040">
                        <set attributeName="fill" to="#808080" begin="arrowUp.mouseover" end="arrowUp.mouseout"/>
                  </use>
                  <path fill="none" stroke="white" stroke-width="1.5" d="M0,-3.0v7 M-2.5,-0.5L0,-3.0L2.5,-0.5"/>
                </g>
                <g id="arrowRight" xlink:href="#dirArrow" transform="rotate(90) translate(36 -43)" onmousedown="handlePan(1,0)">
                  <use xlink:href="#rim" fill="#404040">
                        <set attributeName="fill" to="#808080" begin="arrowRight.mouseover" end="arrowRight.mouseout"/>
                  </use>
                  <path fill="none" stroke="white" stroke-width="1.5" d="M0,-3.0v7 M-2.5,-0.5L0,-3.0L2.5,-0.5"/>
                </g>
                <g id="arrowDown" xlink:href="#dirArrow" transform="rotate(180) translate(-30 -48)" onmousedown="handlePan(0,1)">
                  <use xlink:href="#rim" fill="#404040">
                        <set attributeName="fill" to="#808080" begin="arrowDown.mouseover" end="arrowDown.mouseout"/>
                  </use>
                  <path fill="none" stroke="white" stroke-width="1.5" d="M0,-3.0v7 M-2.5,-0.5L0,-3.0L2.5,-0.5"/>
                </g>
                <g id="arrowLeft" xlink:href="#dirArrow" transform="rotate(270) translate(-36 17)" onmousedown="handlePan(-1,0)">
                  <use xlink:href="#rim" fill="#404040">
                        <set attributeName="fill" to="#808080" begin="arrowLeft.mouseover" end="arrowLeft.mouseout"/>
                  </use>
                  <path fill="none" stroke="white" stroke-width="1.5" d="M0,-3.0v7 M-2.5,-0.5L0,-3.0L2.5,-0.5"/>
                </g>
        </g>
        <svg viewBox="0 0 25 25" width="100%" height="30px" preserveAspectRatio="xMaxYMin meet"> 
          <g id="printButton" transform="scale(0.4 0.4)" onmousedown="handlePrint(evt)">
            <rect height="23.33753581" id="paper" rx="2" style="fill:#f2f5e9;fill-rule:evenodd;stroke:#111111;stroke-width:3.224;stroke-linejoin:round;" transform="matrix(1.000000,0.000000,-0.339266,0.940691,0.000000,0.000000)" width="25.55231285" x="26.69387353" y="7.36162977"/>
            <rect height="26.272097" id="body" rx="2" style="fill:#404040;fill-rule:evenodd;stroke:#111111;stroke-width:3.125;stroke-linejoin:round;" width="50" x="4.5295201" y="27.078951"/>
            <rect height="8.27750969" id="tray" style="fill:#d2d5c9;fill-rule:evenodd;stroke:#111111;stroke-width:3.125;stroke-linecap:round;stroke-linejoin:round;" width="40" x="10.28778839" y="44.96812282"/>
          </g>
        </svg>
</svg>
