<?xml version="1.0" encoding="UTF-8" standalone="no"?>
<!DOCTYPE svg PUBLIC "-//W3C//DTD SVG 1.1//EN"
 "http://www.w3.org/Graphics/SVG/1.1/DTD/svg11.dtd">
<!-- Generated by graphviz version 2.28.0 (20120217.0315)
 -->
<!-- Title: G Pages: 1 -->
<!--zoomable 465 -->
<svg id="main" version="1.1" xmlns="http://www.w3.org/2000/svg" xmlns:xlink="http://www.w3.org/1999/xlink" xml:space="preserve" onload="init(evt)">
        <defs>
                <circle id="rim" cx="0" cy="0" r="7"/>
                <circle id="rim2" cx="0" cy="0" r="3.5"/>
                <g id="zoomPlus">
                        <use xlink:href="#rim" fill="#404040">
                                <set attributeName="fill" to="#808080" begin="zoomplus.mouseover" end="zoomplus.mouseout"/>
                        </use>
                        <path d="M-4,0h8M0,-4v8" fill="none" stroke="white" stroke-width="1.5" pointer-events="none"/>
                </g>
                <g id="zoomMin">
                        <use xlink:href="#rim" fill="#404040">
                                <set attributeName="fill" to="#808080" begin="zoomminus.mouseover" end="zoomminus.mouseout"/>
                        </use>
                        <path d="M-4,0h8" fill="none" stroke="white" stroke-width="1.5" pointer-events="none"/>
                </g>
                <g id="dirArrow">
                        <path fill="none" stroke="white" stroke-width="1.5" d="M0,-3.0v7 M-2.5,-0.5L0,-3.0L2.5,-0.5"/>
                </g>
               <g id="resetDef">
                       <use xlink:href="#rim2" fill="#404040">
                               <set attributeName="fill" to="#808080" begin="reset.mouseover" end="reset.mouseout"/>
                       </use>
               </g>
        </defs>

<script type="text/javascript">
var viewWidth = 1598;
var viewHeight = 465;
var sectionId = 'dynsection-3';
</script>
<script xlink:href="../../svgpan.js"/>
<svg id="graph" class="graph">
<g id="viewport">
<title>G</title>
<!-- Node1 -->
<g id="node1" class="node"><title>Node1</title>
<polygon fill="#bfbfbf" stroke="black" points="0.5,-209.5 0.5,-228.5 167.5,-228.5 167.5,-209.5 0.5,-209.5"/>
<text text-anchor="middle" x="84" y="-216.5" font-family="DejaVuSansMono" font-size="10.00">xmpp_parser_namespace_del</text>
</g>
<!-- Node2 -->
<g id="node3" class="node"><title>Node2</title>
<a xlink:href="../../dd/d21/xmpp__stanza_8h.html#af40757ae1d137034570b1bb33303d024" target="_top" xlink:title="Cleans up and frees an XMPP stanza.">
<polygon fill="none" stroke="black" points="204.5,-209.5 204.5,-228.5 311.5,-228.5 311.5,-209.5 204.5,-209.5"/>
<text text-anchor="middle" x="258" y="-216.5" font-family="DejaVuSansMono" font-size="10.00">xmpp_stanza_del</text>
</a>
</g>
<!-- Node1&#45;&gt;Node2 -->
<g id="edge2" class="edge"><title>Node1&#45;&gt;Node2</title>
<path fill="none" stroke="midnightblue" d="M177.891,-219C186.875,-219 195.758,-219 204.145,-219"/>
<polygon fill="midnightblue" stroke="midnightblue" points="177.725,-215.5 167.725,-219 177.725,-222.5 177.725,-215.5"/>
</g>
<!-- Node2&#45;&gt;Node2 -->
<g id="edge100" class="edge"><title>Node2&#45;&gt;Node2</title>
<path fill="none" stroke="midnightblue" d="M229.628,-237.654C230.814,-242.937 240.271,-247 258,-247 285.016,-247 292.825,-237.565 281.428,-228.757"/>
<polygon fill="midnightblue" stroke="midnightblue" points="232.774,-239.198 234.572,-228.757 226.655,-235.797 232.774,-239.198"/>
</g>
<!-- Node3 -->
<g id="node5" class="node"><title>Node3</title>
<a xlink:href="../../d7/d71/xep__muc_8c.html#af88baacca4f1cccf8ec2bc295db0e063" target="_top" xlink:title="leave_room">
<polygon fill="none" stroke="black" points="372.5,-418.5 372.5,-437.5 449.5,-437.5 449.5,-418.5 372.5,-418.5"/>
<text text-anchor="middle" x="411" y="-425.5" font-family="DejaVuSansMono" font-size="10.00">leave_room</text>
</a>
</g>
<!-- Node2&#45;&gt;Node3 -->
<g id="edge4" class="edge"><title>Node2&#45;&gt;Node3</title>
<path fill="none" stroke="midnightblue" d="M263.333,-238.598C272.539,-275.849 297.467,-357.312 348,-404 354.867,-410.344 363.595,-415.077 372.32,-418.582"/>
<polygon fill="midnightblue" stroke="midnightblue" points="266.665,-237.478 260.97,-228.545 259.851,-239.08 266.665,-237.478"/>
</g>
<!-- Node11 -->
<g id="node22" class="node"><title>Node11</title>
<a xlink:href="../../d7/d71/xep__muc_8c.html#a4b26d057ea25fe1b3c99edff73a82d78" target="_top" xlink:title="handle_items_query">
<polygon fill="none" stroke="black" points="348.5,-304.5 348.5,-323.5 473.5,-323.5 473.5,-304.5 348.5,-304.5"/>
<text text-anchor="middle" x="411" y="-311.5" font-family="DejaVuSansMono" font-size="10.00">handle_items_query</text>
</a>
</g>
<!-- Node2&#45;&gt;Node11 -->
<g id="edge22" class="edge"><title>Node2&#45;&gt;Node11</title>
<path fill="none" stroke="midnightblue" d="M274.918,-236.221C291.618,-253.352 319.377,-279.286 348,-295 354.908,-298.792 362.674,-301.932 370.312,-304.491"/>
<polygon fill="midnightblue" stroke="midnightblue" points="277.087,-233.424 267.653,-228.602 272.021,-238.255 277.087,-233.424"/>
</g>
<!-- Node13 -->
<g id="node27" class="node"><title>Node13</title>
<a xlink:href="../../d7/d71/xep__muc_8c.html#a20d9ff75edcc76b952adf38d558fee26" target="_top" xlink:title="handle_info_query">
<polygon fill="none" stroke="black" points="351.5,-266.5 351.5,-285.5 470.5,-285.5 470.5,-266.5 351.5,-266.5"/>
<text text-anchor="middle" x="411" y="-273.5" font-family="DejaVuSansMono" font-size="10.00">handle_info_query</text>
</a>
</g>
<!-- Node2&#45;&gt;Node13 -->
<g id="edge28" class="edge"><title>Node2&#45;&gt;Node13</title>
<path fill="none" stroke="midnightblue" d="M293.976,-232.203C321.702,-242.669 359.789,-257.046 384.644,-266.428"/>
<polygon fill="midnightblue" stroke="midnightblue" points="294.866,-228.798 284.274,-228.541 292.394,-235.347 294.866,-228.798"/>
</g>
<!-- Node14 -->
<g id="node30" class="node"><title>Node14</title>
<a xlink:href="../../d7/d71/xep__muc_8c.html#a8333f88612fa054ae107699f5bb548cc" target="_top" xlink:title="send_nickname_conflict">
<polygon fill="none" stroke="black" points="516.5,-380.5 516.5,-399.5 665.5,-399.5 665.5,-380.5 516.5,-380.5"/>
<text text-anchor="middle" x="591" y="-387.5" font-family="DejaVuSansMono" font-size="10.00">send_nickname_conflict</text>
</a>
</g>
<!-- Node2&#45;&gt;Node14 -->
<g id="edge32" class="edge"><title>Node2&#45;&gt;Node14</title>
<path fill="none" stroke="midnightblue" d="M265.062,-238.513C276.006,-270.15 302.282,-332.011 348,-361 397.852,-392.61 465.232,-398.381 516.235,-397.088"/>
<polygon fill="midnightblue" stroke="midnightblue" points="268.277,-237.088 261.823,-228.687 261.629,-239.28 268.277,-237.088"/>
</g>
<!-- Node15 -->
<g id="node33" class="node"><title>Node15</title>
<a xlink:href="../../d7/d71/xep__muc_8c.html#a115281f539cd77f88872ff153ec5b38d" target="_top" xlink:title="send_presence_broadcast">
<polygon fill="none" stroke="black" points="513.5,-342.5 513.5,-361.5 668.5,-361.5 668.5,-342.5 513.5,-342.5"/>
<text text-anchor="middle" x="591" y="-349.5" font-family="DejaVuSansMono" font-size="10.00">send_presence_broadcast</text>
</a>
</g>
<!-- Node2&#45;&gt;Node15 -->
<g id="edge36" class="edge"><title>Node2&#45;&gt;Node15</title>
<path fill="none" stroke="midnightblue" d="M267.52,-237.868C280.606,-264.354 308.364,-311.698 348,-333 398.393,-360.083 463.39,-363.786 513.332,-361.289"/>
<polygon fill="midnightblue" stroke="midnightblue" points="270.54,-236.067 263.091,-228.533 264.216,-239.068 270.54,-236.067"/>
</g>
<!-- Node16 -->
<g id="node36" class="node"><title>Node16</title>
<a xlink:href="../../d9/dd7/xmpp__im_8h.html#aee8f65a08bdaf68accfdcee40ed1488d" target="_top" xlink:title="IQ stanza callback for handling a session IQ.">
<polygon fill="none" stroke="black" points="1077.5,-76.5 1077.5,-95.5 1202.5,-95.5 1202.5,-76.5 1077.5,-76.5"/>
<text text-anchor="middle" x="1140" y="-83.5" font-family="DejaVuSansMono" font-size="10.00">xmpp_im_iq_session</text>
</a>
</g>
<!-- Node2&#45;&gt;Node16 -->
<g id="edge40" class="edge"><title>Node2&#45;&gt;Node16</title>
<path fill="none" stroke="midnightblue" d="M267.52,-200.132C280.606,-173.646 308.364,-126.302 348,-105 443.032,-53.9269 482.113,-86 590,-86 590,-86 590,-86 778,-86 883.135,-86 1005.49,-86 1077.36,-86"/>
<polygon fill="midnightblue" stroke="midnightblue" points="264.216,-198.932 263.091,-209.467 270.54,-201.933 264.216,-198.932"/>
</g>
<!-- Node19 -->
<g id="node42" class="node"><title>Node19</title>
<a xlink:href="../../d9/dd7/xmpp__im_8h.html#a7542fa668dcf982bb5d3725c5cacb0ca" target="_top" xlink:title="IQ stanza callback for handling a disco items query.">
<polygon fill="none" stroke="black" points="882.5,-38.5 882.5,-57.5 1031.5,-57.5 1031.5,-38.5 882.5,-38.5"/>
<text text-anchor="middle" x="957" y="-45.5" font-family="DejaVuSansMono" font-size="10.00">xmpp_im_iq_disco_items</text>
</a>
</g>
<!-- Node2&#45;&gt;Node19 -->
<g id="edge46" class="edge"><title>Node2&#45;&gt;Node19</title>
<path fill="none" stroke="midnightblue" d="M264.313,-199.307C274.398,-166.257 299.748,-100.461 348,-72 436.373,-19.8738 740.696,-33.0349 882.366,-42.417"/>
<polygon fill="midnightblue" stroke="midnightblue" points="260.88,-198.579 261.467,-209.158 267.605,-200.522 260.88,-198.579"/>
</g>
<!-- Node20 -->
<g id="node45" class="node"><title>Node20</title>
<a xlink:href="../../d9/dd7/xmpp__im_8h.html#a93be77ae71bc544a1c23fae07f39fd23" target="_top" xlink:title="IQ stanza callback for handling a disco info query.">
<polygon fill="none" stroke="black" points="1068.5,-0.5 1068.5,-19.5 1211.5,-19.5 1211.5,-0.5 1068.5,-0.5"/>
<text text-anchor="middle" x="1140" y="-7.5" font-family="DejaVuSansMono" font-size="10.00">xmpp_im_iq_disco_info</text>
</a>
</g>
<!-- Node2&#45;&gt;Node20 -->
<g id="edge50" class="edge"><title>Node2&#45;&gt;Node20</title>
<path fill="none" stroke="midnightblue" d="M262.373,-199.148C270.018,-160.862 292.512,-77.1539 348,-38 436.466,24.4244 481.727,-10 590,-10 590,-10 590,-10 778,-10 878.905,-10 995.674,-10 1068.44,-10"/>
<polygon fill="midnightblue" stroke="midnightblue" points="258.84,-199.001 260.457,-209.472 265.723,-200.278 258.84,-199.001"/>
</g>
<!-- Node21 -->
<g id="node48" class="node"><title>Node21</title>
<a xlink:href="../../dc/da6/xmpp__im_8c.html#af5cf3adac08463b9b6029c8814e4f972" target="_top" xlink:title="get_roster">
<polygon fill="none" stroke="black" points="738.5,-294.5 738.5,-313.5 815.5,-313.5 815.5,-294.5 738.5,-294.5"/>
<text text-anchor="middle" x="777" y="-301.5" font-family="DejaVuSansMono" font-size="10.00">get_roster</text>
</a>
</g>
<!-- Node2&#45;&gt;Node21 -->
<g id="edge54" class="edge"><title>Node2&#45;&gt;Node21</title>
<path fill="none" stroke="midnightblue" d="M322.068,-229.369C430.817,-247.248 650.394,-283.349 738.331,-297.807"/>
<polygon fill="midnightblue" stroke="midnightblue" points="322.334,-225.866 311.898,-227.697 321.198,-232.773 322.334,-225.866"/>
</g>
<!-- Node23 -->
<g id="node53" class="node"><title>Node23</title>
<a xlink:href="../../d1/dc2/xmpp__parser_8c.html#a2268b636f6d02bbe04f3033ff93d829c" target="_top" xlink:title="Expat callback for the start of an XMPP stream.">
<polygon fill="none" stroke="black" points="366.5,-114.5 366.5,-133.5 455.5,-133.5 455.5,-114.5 366.5,-114.5"/>
<text text-anchor="middle" x="411" y="-121.5" font-family="DejaVuSansMono" font-size="10.00">stream_start</text>
</a>
</g>
<!-- Node2&#45;&gt;Node23 -->
<g id="edge60" class="edge"><title>Node2&#45;&gt;Node23</title>
<path fill="none" stroke="midnightblue" d="M274.918,-201.779C291.618,-184.648 319.377,-158.714 348,-143 354.908,-139.208 362.674,-136.068 370.312,-133.509"/>
<polygon fill="midnightblue" stroke="midnightblue" points="272.021,-199.745 267.653,-209.398 277.087,-204.576 272.021,-199.745"/>
</g>
<!-- Node34 -->
<g id="node78" class="node"><title>Node34</title>
<a xlink:href="../../d1/dc2/xmpp__parser_8c.html#adc3f7670edafd5b590af11d276887f1e" target="_top" xlink:title="Expat callback for end elements.">
<polygon fill="none" stroke="black" points="393.5,-152.5 393.5,-171.5 428.5,-171.5 428.5,-152.5 393.5,-152.5"/>
<text text-anchor="middle" x="411" y="-159.5" font-family="DejaVuSansMono" font-size="10.00">end</text>
</a>
</g>
<!-- Node2&#45;&gt;Node34 -->
<g id="edge88" class="edge"><title>Node2&#45;&gt;Node34</title>
<path fill="none" stroke="midnightblue" d="M293.871,-205.837C324.978,-194.094 369.19,-177.405 393.091,-168.383"/>
<polygon fill="midnightblue" stroke="midnightblue" points="292.394,-202.653 284.274,-209.459 294.866,-209.202 292.394,-202.653"/>
</g>
<!-- Node35 -->
<g id="node81" class="node"><title>Node35</title>
<a xlink:href="../../d0/df0/xmpp__server_8c.html#a3b400cb24e5bc51623f63c96c8a0a342" target="_top" xlink:title="Sends a &lt;service&#45;unavailable&gt; error stanza to a client.">
<polygon fill="none" stroke="black" points="510.5,-190.5 510.5,-209.5 671.5,-209.5 671.5,-190.5 510.5,-190.5"/>
<text text-anchor="middle" x="591" y="-197.5" font-family="DejaVuSansMono" font-size="10.00">send_service_unavailable</text>
</a>
</g>
<!-- Node2&#45;&gt;Node35 -->
<g id="edge92" class="edge"><title>Node2&#45;&gt;Node35</title>
<path fill="none" stroke="midnightblue" d="M321.845,-215.393C375.308,-212.324 452.392,-207.899 510.205,-204.58"/>
<polygon fill="midnightblue" stroke="midnightblue" points="321.597,-211.901 311.814,-215.968 321.998,-218.889 321.597,-211.901"/>
</g>
<!-- Node4 -->
<g id="node7" class="node"><title>Node4</title>
<a xlink:href="../../d7/d71/xep__muc_8c.html#a40cdc65e1b60c76aef97dfc9d3f2510f" target="_top" xlink:title="leave_room_presence">
<polygon fill="none" stroke="black" points="711.5,-437.5 711.5,-456.5 842.5,-456.5 842.5,-437.5 711.5,-437.5"/>
<text text-anchor="middle" x="777" y="-444.5" font-family="DejaVuSansMono" font-size="10.00">leave_room_presence</text>
</a>
</g>
<!-- Node3&#45;&gt;Node4 -->
<g id="edge6" class="edge"><title>Node3&#45;&gt;Node4</title>
<path fill="none" stroke="midnightblue" d="M460.005,-439.209C475.832,-442.394 493.584,-445.423 510,-447 578.494,-453.578 657.367,-452.499 711.334,-450.448"/>
<polygon fill="midnightblue" stroke="midnightblue" points="460.419,-435.72 449.916,-437.108 458.992,-442.573 460.419,-435.72"/>
</g>
<!-- Node9 -->
<g id="node17" class="node"><title>Node9</title>
<a xlink:href="../../d7/d71/xep__muc_8c.html#a0214cd898b2f0c746cb45f79746e5095" target="_top" xlink:title="client_disconnect">
<polygon fill="none" stroke="black" points="531.5,-418.5 531.5,-437.5 650.5,-437.5 650.5,-418.5 531.5,-418.5"/>
<text text-anchor="middle" x="591" y="-425.5" font-family="DejaVuSansMono" font-size="10.00">client_disconnect</text>
</a>
</g>
<!-- Node3&#45;&gt;Node9 -->
<g id="edge16" class="edge"><title>Node3&#45;&gt;Node9</title>
<path fill="none" stroke="midnightblue" d="M459.842,-428C481.828,-428 508.111,-428 531.285,-428"/>
<polygon fill="midnightblue" stroke="midnightblue" points="459.749,-424.5 449.749,-428 459.749,-431.5 459.749,-424.5"/>
</g>
<!-- Node5 -->
<g id="node9" class="node"><title>Node5</title>
<a xlink:href="../../d7/d71/xep__muc_8c.html#a9936322b944d46aead9fbd942687ec0a" target="_top" xlink:title="handle_presence">
<polygon fill="none" stroke="black" points="903.5,-380.5 903.5,-399.5 1010.5,-399.5 1010.5,-380.5 903.5,-380.5"/>
<text text-anchor="middle" x="957" y="-387.5" font-family="DejaVuSansMono" font-size="10.00">handle_presence</text>
</a>
</g>
<!-- Node4&#45;&gt;Node5 -->
<g id="edge8" class="edge"><title>Node4&#45;&gt;Node5</title>
<path fill="none" stroke="midnightblue" d="M817.522,-434.344C850.334,-423.837 896.297,-409.118 926.11,-399.572"/>
<polygon fill="midnightblue" stroke="midnightblue" points="816.249,-431.076 807.793,-437.459 818.384,-437.743 816.249,-431.076"/>
</g>
<!-- Node6 -->
<g id="node11" class="node"><title>Node6</title>
<a xlink:href="../../d7/d71/xep__muc_8c.html#a1798db1c16a1fa62ff8f39fea202a26f" target="_top" xlink:title="stanza_handler">
<polygon fill="none" stroke="black" points="1089.5,-342.5 1089.5,-361.5 1190.5,-361.5 1190.5,-342.5 1089.5,-342.5"/>
<text text-anchor="middle" x="1140" y="-349.5" font-family="DejaVuSansMono" font-size="10.00">stanza_handler</text>
</a>
</g>
<!-- Node5&#45;&gt;Node6 -->
<g id="edge10" class="edge"><title>Node5&#45;&gt;Node6</title>
<path fill="none" stroke="midnightblue" d="M1013.64,-378.319C1039.31,-372.93 1069.39,-366.614 1093.65,-361.52"/>
<polygon fill="midnightblue" stroke="midnightblue" points="1012.74,-374.931 1003.67,-380.411 1014.18,-381.782 1012.74,-374.931"/>
</g>
<!-- Node7 -->
<g id="node13" class="node"><title>Node7</title>
<a xlink:href="../../d7/d71/xep__muc_8c.html#addf05166cf3fbe386ae6650be21ef251" target="_top" xlink:title="xep_muc_start">
<polygon fill="none" stroke="black" points="1260.5,-304.5 1260.5,-323.5 1355.5,-323.5 1355.5,-304.5 1260.5,-304.5"/>
<text text-anchor="middle" x="1308" y="-311.5" font-family="DejaVuSansMono" font-size="10.00">xep_muc_start</text>
</a>
</g>
<!-- Node6&#45;&gt;Node7 -->
<g id="edge12" class="edge"><title>Node6&#45;&gt;Node7</title>
<path fill="none" stroke="midnightblue" d="M1192.65,-340.176C1216.06,-334.818 1243.36,-328.569 1265.41,-323.52"/>
<polygon fill="midnightblue" stroke="midnightblue" points="1191.86,-336.768 1182.89,-342.411 1193.42,-343.591 1191.86,-336.768"/>
</g>
<!-- Node8 -->
<g id="node15" class="node"><title>Node8</title>
<a xlink:href="../../d7/d71/xep__muc_8c.html#a20d385a5584d8014ec4d5774eb79d1de" target="_top" xlink:title="xep_muc_stop">
<polygon fill="none" stroke="black" points="1263.5,-342.5 1263.5,-361.5 1352.5,-361.5 1352.5,-342.5 1263.5,-342.5"/>
<text text-anchor="middle" x="1308" y="-349.5" font-family="DejaVuSansMono" font-size="10.00">xep_muc_stop</text>
</a>
</g>
<!-- Node6&#45;&gt;Node8 -->
<g id="edge14" class="edge"><title>Node6&#45;&gt;Node8</title>
<path fill="none" stroke="midnightblue" d="M1201.06,-352C1221.68,-352 1244.36,-352 1263.42,-352"/>
<polygon fill="midnightblue" stroke="midnightblue" points="1200.81,-348.5 1190.81,-352 1200.81,-355.5 1200.81,-348.5"/>
</g>
<!-- Node10 -->
<g id="node19" class="node"><title>Node10</title>
<a xlink:href="../../d7/d71/xep__muc_8c.html#aefd23f2960520a68fea212344b85cb0b" target="_top" xlink:title="enter_room_presence">
<polygon fill="none" stroke="black" points="711.5,-380.5 711.5,-399.5 842.5,-399.5 842.5,-380.5 711.5,-380.5"/>
<text text-anchor="middle" x="777" y="-387.5" font-family="DejaVuSansMono" font-size="10.00">enter_room_presence</text>
</a>
</g>
<!-- Node9&#45;&gt;Node10 -->
<g id="edge18" class="edge"><title>Node9&#45;&gt;Node10</title>
<path fill="none" stroke="midnightblue" d="M648.561,-416.319C674.654,-410.93 705.238,-404.614 729.903,-399.52"/>
<polygon fill="midnightblue" stroke="midnightblue" points="647.516,-412.961 638.431,-418.411 648.932,-419.816 647.516,-412.961"/>
</g>
<!-- Node10&#45;&gt;Node5 -->
<g id="edge20" class="edge"><title>Node10&#45;&gt;Node5</title>
<path fill="none" stroke="midnightblue" d="M852.961,-390C869.921,-390 887.58,-390 903.387,-390"/>
<polygon fill="midnightblue" stroke="midnightblue" points="852.514,-386.5 842.514,-390 852.514,-393.5 852.514,-386.5"/>
</g>
<!-- Node12 -->
<g id="node24" class="node"><title>Node12</title>
<a xlink:href="../../d7/d71/xep__muc_8c.html#aec1096d47742f472668c4905fa3c299a" target="_top" xlink:title="handle_iq">
<polygon fill="none" stroke="black" points="555.5,-304.5 555.5,-323.5 626.5,-323.5 626.5,-304.5 555.5,-304.5"/>
<text text-anchor="middle" x="591" y="-311.5" font-family="DejaVuSansMono" font-size="10.00">handle_iq</text>
</a>
</g>
<!-- Node11&#45;&gt;Node12 -->
<g id="edge24" class="edge"><title>Node11&#45;&gt;Node12</title>
<path fill="none" stroke="midnightblue" d="M483.824,-314C508.484,-314 534.972,-314 555.323,-314"/>
<polygon fill="midnightblue" stroke="midnightblue" points="483.756,-310.5 473.756,-314 483.756,-317.5 483.756,-310.5"/>
</g>
<!-- Node12&#45;&gt;Node6 -->
<g id="edge26" class="edge"><title>Node12&#45;&gt;Node6</title>
<path fill="none" stroke="midnightblue" d="M636.68,-317.574C658.229,-319.27 684.454,-321.294 708,-323 846.005,-332.996 1008.96,-343.647 1089.21,-348.816"/>
<polygon fill="midnightblue" stroke="midnightblue" points="636.753,-314.069 626.508,-316.77 636.202,-321.047 636.753,-314.069"/>
</g>
<!-- Node13&#45;&gt;Node12 -->
<g id="edge30" class="edge"><title>Node13&#45;&gt;Node12</title>
<path fill="none" stroke="midnightblue" d="M466.881,-287.716C495.787,-293.887 530.351,-301.266 555.489,-306.632"/>
<polygon fill="midnightblue" stroke="midnightblue" points="467.427,-284.254 456.917,-285.589 465.966,-291.1 467.427,-284.254"/>
</g>
<!-- Node14&#45;&gt;Node10 -->
<g id="edge34" class="edge"><title>Node14&#45;&gt;Node10</title>
<path fill="none" stroke="midnightblue" d="M675.516,-390C687.497,-390 699.672,-390 711.219,-390"/>
<polygon fill="midnightblue" stroke="midnightblue" points="675.515,-386.5 665.515,-390 675.515,-393.5 675.515,-386.5"/>
</g>
<!-- Node15&#45;&gt;Node10 -->
<g id="edge38" class="edge"><title>Node15&#45;&gt;Node10</title>
<path fill="none" stroke="midnightblue" d="M648.561,-363.681C674.654,-369.07 705.238,-375.386 729.903,-380.48"/>
<polygon fill="midnightblue" stroke="midnightblue" points="648.932,-360.184 638.431,-361.589 647.516,-367.039 648.932,-360.184"/>
</g>
<!-- Node17 -->
<g id="node38" class="node"><title>Node17</title>
<a xlink:href="../../d1/d2e/xmpp__server_8h.html#a27bfc8e4d424a8bc17ab21a4a09cdf92" target="_top" xlink:title="Allocates and initializes the XMPP server.">
<polygon fill="none" stroke="black" points="1404.5,-114.5 1404.5,-133.5 1511.5,-133.5 1511.5,-114.5 1404.5,-114.5"/>
<text text-anchor="middle" x="1458" y="-121.5" font-family="DejaVuSansMono" font-size="10.00">xmpp_server_new</text>
</a>
</g>
<!-- Node16&#45;&gt;Node17 -->
<g id="edge42" class="edge"><title>Node16&#45;&gt;Node17</title>
<path fill="none" stroke="midnightblue" d="M1213.1,-89.6932C1257.85,-92.5645 1316.46,-97.3733 1368,-105 1384.25,-107.405 1401.99,-110.992 1417.32,-114.403"/>
<polygon fill="midnightblue" stroke="midnightblue" points="1213.1,-86.1866 1202.9,-89.057 1212.67,-93.173 1213.1,-86.1866"/>
</g>
<!-- Node18 -->
<g id="node40" class="node"><title>Node18</title>
<a xlink:href="../../d0/d29/main_8c.html#a0ddf1224851353fc92bfbff6f499fa97" target="_top" xlink:title="main">
<polygon fill="none" stroke="black" points="1548.5,-114.5 1548.5,-133.5 1589.5,-133.5 1589.5,-114.5 1548.5,-114.5"/>
<text text-anchor="middle" x="1569" y="-121.5" font-family="DejaVuSansMono" font-size="10.00">main</text>
</a>
</g>
<!-- Node17&#45;&gt;Node18 -->
<g id="edge44" class="edge"><title>Node17&#45;&gt;Node18</title>
<path fill="none" stroke="midnightblue" d="M1521.75,-124C1531.43,-124 1540.76,-124 1548.47,-124"/>
<polygon fill="midnightblue" stroke="midnightblue" points="1521.58,-120.5 1511.58,-124 1521.58,-127.5 1521.58,-120.5"/>
</g>
<!-- Node19&#45;&gt;Node17 -->
<g id="edge48" class="edge"><title>Node19&#45;&gt;Node17</title>
<path fill="none" stroke="midnightblue" d="M1042.08,-48.3138C1125.96,-50.4544 1257.84,-58.8012 1368,-88 1392.65,-94.5336 1419.63,-106.116 1437.34,-114.379"/>
<polygon fill="midnightblue" stroke="midnightblue" points="1041.92,-44.8092 1031.84,-48.0772 1041.76,-51.8073 1041.92,-44.8092"/>
</g>
<!-- Node20&#45;&gt;Node17 -->
<g id="edge52" class="edge"><title>Node20&#45;&gt;Node17</title>
<path fill="none" stroke="midnightblue" d="M1221.63,-5.53268C1266.71,-6.14661 1322.76,-12.2486 1368,-34 1406.62,-52.5675 1438.04,-95.068 1450.83,-114.268"/>
<polygon fill="midnightblue" stroke="midnightblue" points="1221.62,-2.03266 1211.6,-5.48316 1221.58,-9.03258 1221.62,-2.03266"/>
</g>
<!-- Node22 -->
<g id="node50" class="node"><title>Node22</title>
<a xlink:href="../../d9/dd7/xmpp__im_8h.html#a40f3cf6fffd6aafe9c7cde476fdbc9c2" target="_top" xlink:title="IQ stanza callback for handing a roster query.">
<polygon fill="none" stroke="black" points="1248.5,-266.5 1248.5,-285.5 1367.5,-285.5 1367.5,-266.5 1248.5,-266.5"/>
<text text-anchor="middle" x="1308" y="-273.5" font-family="DejaVuSansMono" font-size="10.00">xmpp_im_iq_roster</text>
</a>
</g>
<!-- Node21&#45;&gt;Node22 -->
<g id="edge56" class="edge"><title>Node21&#45;&gt;Node22</title>
<path fill="none" stroke="midnightblue" d="M825.973,-302.78C877.06,-301.368 960.269,-298.748 1032,-295 1106.67,-291.098 1192.64,-284.881 1248.29,-280.629"/>
<polygon fill="midnightblue" stroke="midnightblue" points="825.787,-299.284 815.886,-303.054 825.978,-306.281 825.787,-299.284"/>
</g>
<!-- Node22&#45;&gt;Node17 -->
<g id="edge58" class="edge"><title>Node22&#45;&gt;Node17</title>
<path fill="none" stroke="midnightblue" d="M1351.38,-262.291C1357.27,-259.4 1363.01,-255.99 1368,-252 1410.9,-217.675 1441.73,-157.301 1452.65,-133.774"/>
<polygon fill="midnightblue" stroke="midnightblue" points="1349.79,-259.165 1342.06,-266.412 1352.62,-265.567 1349.79,-259.165"/>
</g>
<!-- Node24 -->
<g id="node55" class="node"><title>Node24</title>
<a xlink:href="../../d1/dc2/xmpp__parser_8c.html#a03a135f29e3d4e01abbb60e53ac6967c" target="_top" xlink:title="init_parser">
<polygon fill="none" stroke="black" points="549.5,-152.5 549.5,-171.5 632.5,-171.5 632.5,-152.5 549.5,-152.5"/>
<text text-anchor="middle" x="591" y="-159.5" font-family="DejaVuSansMono" font-size="10.00">init_parser</text>
</a>
</g>
<!-- Node23&#45;&gt;Node24 -->
<g id="edge62" class="edge"><title>Node23&#45;&gt;Node24</title>
<path fill="none" stroke="midnightblue" d="M465.572,-135.437C492.462,-141.177 524.51,-148.019 549.346,-153.321"/>
<polygon fill="midnightblue" stroke="midnightblue" points="466.054,-131.961 455.544,-133.296 464.593,-138.807 466.054,-131.961"/>
</g>
<!-- Node25 -->
<g id="node57" class="node"><title>Node25</title>
<a xlink:href="../../d8/d55/xmpp__parser_8h.html#adf25a1d2047994dfa6cc71a9482548c2" target="_top" xlink:title="xmpp_parser_new">
<polygon fill="none" stroke="black" points="723.5,-190.5 723.5,-209.5 830.5,-209.5 830.5,-190.5 723.5,-190.5"/>
<text text-anchor="middle" x="777" y="-197.5" font-family="DejaVuSansMono" font-size="10.00">xmpp_parser_new</text>
</a>
</g>
<!-- Node24&#45;&gt;Node25 -->
<g id="edge64" class="edge"><title>Node24&#45;&gt;Node25</title>
<path fill="none" stroke="midnightblue" d="M642.934,-172.519C670.123,-178.134 703.333,-184.993 729.773,-190.453"/>
<polygon fill="midnightblue" stroke="midnightblue" points="643.337,-169.028 632.836,-170.433 641.921,-175.884 643.337,-169.028"/>
</g>
<!-- Node29 -->
<g id="node66" class="node"><title>Node29</title>
<a xlink:href="../../d8/d55/xmpp__parser_8h.html#af5e1eb5bbef0496c3543bd35113766ac" target="_top" xlink:title="Reset the state of the parser as if it was just created.">
<polygon fill="none" stroke="black" points="717.5,-152.5 717.5,-171.5 836.5,-171.5 836.5,-152.5 717.5,-152.5"/>
<text text-anchor="middle" x="777" y="-159.5" font-family="DejaVuSansMono" font-size="10.00">xmpp_parser_reset</text>
</a>
</g>
<!-- Node24&#45;&gt;Node29 -->
<g id="edge74" class="edge"><title>Node24&#45;&gt;Node29</title>
<path fill="none" stroke="midnightblue" d="M643.108,-162C666.188,-162 693.577,-162 717.477,-162"/>
<polygon fill="midnightblue" stroke="midnightblue" points="642.836,-158.5 632.836,-162 642.836,-165.5 642.836,-158.5"/>
</g>
<!-- Node26 -->
<g id="node59" class="node"><title>Node26</title>
<a xlink:href="../../d6/d78/xmp3__multicast_8c.html#a08afc39c59ec9297d756a99c395eff3c" target="_top" xlink:title="multicast_new">
<polygon fill="none" stroke="black" points="909.5,-190.5 909.5,-209.5 1004.5,-209.5 1004.5,-190.5 909.5,-190.5"/>
<text text-anchor="middle" x="957" y="-197.5" font-family="DejaVuSansMono" font-size="10.00">multicast_new</text>
</a>
</g>
<!-- Node25&#45;&gt;Node26 -->
<g id="edge66" class="edge"><title>Node25&#45;&gt;Node26</title>
<path fill="none" stroke="midnightblue" d="M841.063,-200C863.551,-200 888.46,-200 909.324,-200"/>
<polygon fill="midnightblue" stroke="midnightblue" points="840.924,-196.5 830.924,-200 840.924,-203.5 840.924,-196.5"/>
</g>
<!-- Node27 -->
<g id="node61" class="node"><title>Node27</title>
<a xlink:href="../../d4/d2f/xmpp__client_8h.html#a1619c0b8f58b2cf09a322bf34fbc3414" target="_top" xlink:title="xmpp_client_new">
<polygon fill="none" stroke="black" points="903.5,-228.5 903.5,-247.5 1010.5,-247.5 1010.5,-228.5 903.5,-228.5"/>
<text text-anchor="middle" x="957" y="-235.5" font-family="DejaVuSansMono" font-size="10.00">xmpp_client_new</text>
</a>
</g>
<!-- Node25&#45;&gt;Node27 -->
<g id="edge68" class="edge"><title>Node25&#45;&gt;Node27</title>
<path fill="none" stroke="midnightblue" d="M832.716,-211.681C857.959,-217.07 887.545,-223.386 911.406,-228.48"/>
<polygon fill="midnightblue" stroke="midnightblue" points="833.427,-208.254 822.917,-209.589 831.966,-215.1 833.427,-208.254"/>
</g>
<!-- Node28 -->
<g id="node63" class="node"><title>Node28</title>
<a xlink:href="../../d0/df0/xmpp__server_8c.html#a66363912ef1221a2574f9f99805fe8fd" target="_top" xlink:title="Callback for new client connections.">
<polygon fill="none" stroke="black" points="1257.5,-152.5 1257.5,-171.5 1358.5,-171.5 1358.5,-152.5 1257.5,-152.5"/>
<text text-anchor="middle" x="1308" y="-159.5" font-family="DejaVuSansMono" font-size="10.00">connect_client</text>
</a>
</g>
<!-- Node27&#45;&gt;Node28 -->
<g id="edge70" class="edge"><title>Node27&#45;&gt;Node28</title>
<path fill="none" stroke="midnightblue" d="M1011.67,-226.313C1080.76,-211.268 1199.48,-185.414 1263.33,-171.509"/>
<polygon fill="midnightblue" stroke="midnightblue" points="1010.87,-222.904 1001.85,-228.452 1012.36,-229.743 1010.87,-222.904"/>
</g>
<!-- Node28&#45;&gt;Node17 -->
<g id="edge72" class="edge"><title>Node28&#45;&gt;Node17</title>
<path fill="none" stroke="midnightblue" d="M1356.17,-149.888C1376.79,-144.596 1400.61,-138.479 1419.92,-133.52"/>
<polygon fill="midnightblue" stroke="midnightblue" points="1355.16,-146.534 1346.35,-152.411 1356.9,-153.314 1355.16,-146.534"/>
</g>
<!-- Node30 -->
<g id="node68" class="node"><title>Node30</title>
<a xlink:href="../../d6/d78/xmp3__multicast_8c.html#a9865e8026fb8ee000629fc1da465716d" target="_top" xlink:title="socket_handler">
<polygon fill="none" stroke="black" points="1089.5,-114.5 1089.5,-133.5 1190.5,-133.5 1190.5,-114.5 1089.5,-114.5"/>
<text text-anchor="middle" x="1140" y="-121.5" font-family="DejaVuSansMono" font-size="10.00">socket_handler</text>
</a>
</g>
<!-- Node29&#45;&gt;Node30 -->
<g id="edge76" class="edge"><title>Node29&#45;&gt;Node30</title>
<path fill="none" stroke="midnightblue" d="M834.112,-150.615C849.577,-147.787 866.393,-144.997 882,-143 953.671,-133.831 1037.19,-128.669 1089.09,-126.107"/>
<polygon fill="midnightblue" stroke="midnightblue" points="833.358,-147.195 824.17,-152.471 834.643,-154.076 833.358,-147.195"/>
</g>
<!-- Node32 -->
<g id="node72" class="node"><title>Node32</title>
<a xlink:href="../../d8/d55/xmpp__parser_8h.html#a578b7a9a50212eb204a86789001287af" target="_top" xlink:title="xmpp_parser_parse">
<polygon fill="none" stroke="black" points="897.5,-152.5 897.5,-171.5 1016.5,-171.5 1016.5,-152.5 897.5,-152.5"/>
<text text-anchor="middle" x="957" y="-159.5" font-family="DejaVuSansMono" font-size="10.00">xmpp_parser_parse</text>
</a>
</g>
<!-- Node29&#45;&gt;Node32 -->
<g id="edge80" class="edge"><title>Node29&#45;&gt;Node32</title>
<path fill="none" stroke="midnightblue" d="M846.974,-162C863.589,-162 881.187,-162 897.285,-162"/>
<polygon fill="midnightblue" stroke="midnightblue" points="846.777,-158.5 836.777,-162 846.777,-165.5 846.777,-158.5"/>
</g>
<!-- Node31 -->
<g id="node70" class="node"><title>Node31</title>
<a xlink:href="../../d6/d78/xmp3__multicast_8c.html#a991c928ab73b350c4b7029352e91a219" target="_top" xlink:title="multicast_start">
<polygon fill="none" stroke="black" points="1254.5,-114.5 1254.5,-133.5 1361.5,-133.5 1361.5,-114.5 1254.5,-114.5"/>
<text text-anchor="middle" x="1308" y="-121.5" font-family="DejaVuSansMono" font-size="10.00">multicast_start</text>
</a>
</g>
<!-- Node30&#45;&gt;Node31 -->
<g id="edge78" class="edge"><title>Node30&#45;&gt;Node31</title>
<path fill="none" stroke="midnightblue" d="M1200.9,-124C1218.38,-124 1237.35,-124 1254.34,-124"/>
<polygon fill="midnightblue" stroke="midnightblue" points="1200.81,-120.5 1190.81,-124 1200.81,-127.5 1200.81,-120.5"/>
</g>
<!-- Node32&#45;&gt;Node30 -->
<g id="edge82" class="edge"><title>Node32&#45;&gt;Node30</title>
<path fill="none" stroke="midnightblue" d="M1013.64,-150.319C1039.31,-144.93 1069.39,-138.614 1093.65,-133.52"/>
<polygon fill="midnightblue" stroke="midnightblue" points="1012.74,-146.931 1003.67,-152.411 1014.18,-153.782 1012.74,-146.931"/>
</g>
<!-- Node33 -->
<g id="node75" class="node"><title>Node33</title>
<a xlink:href="../../d0/df0/xmpp__server_8c.html#abece91815ef240322d79073f5bfca1db" target="_top" xlink:title="Callback for new data from a client.">
<polygon fill="none" stroke="black" points="1098.5,-152.5 1098.5,-171.5 1181.5,-171.5 1181.5,-152.5 1098.5,-152.5"/>
<text text-anchor="middle" x="1140" y="-159.5" font-family="DejaVuSansMono" font-size="10.00">read_client</text>
</a>
</g>
<!-- Node32&#45;&gt;Node33 -->
<g id="edge84" class="edge"><title>Node32&#45;&gt;Node33</title>
<path fill="none" stroke="midnightblue" d="M1026.93,-162C1051,-162 1077.23,-162 1098.26,-162"/>
<polygon fill="midnightblue" stroke="midnightblue" points="1026.77,-158.5 1016.77,-162 1026.77,-165.5 1026.77,-158.5"/>
</g>
<!-- Node33&#45;&gt;Node28 -->
<g id="edge86" class="edge"><title>Node33&#45;&gt;Node28</title>
<path fill="none" stroke="midnightblue" d="M1191.85,-162C1212.65,-162 1236.65,-162 1257.33,-162"/>
<polygon fill="midnightblue" stroke="midnightblue" points="1191.61,-158.5 1181.61,-162 1191.61,-165.5 1191.61,-158.5"/>
</g>
<!-- Node34&#45;&gt;Node24 -->
<g id="edge90" class="edge"><title>Node34&#45;&gt;Node24</title>
<path fill="none" stroke="midnightblue" d="M439.04,-162C468.341,-162 515.427,-162 549.223,-162"/>
<polygon fill="midnightblue" stroke="midnightblue" points="438.746,-158.5 428.746,-162 438.746,-165.5 438.746,-158.5"/>
</g>
<!-- Node36 -->
<g id="node83" class="node"><title>Node36</title>
<a xlink:href="../../d1/d2e/xmpp__server_8h.html#a8ddb3bbfd497811c13e9426ce6f02003" target="_top" xlink:title="Deliver an IQ stanza to a registered callback function.">
<polygon fill="none" stroke="black" points="708.5,-237.5 708.5,-256.5 845.5,-256.5 845.5,-237.5 708.5,-237.5"/>
<text text-anchor="middle" x="777" y="-244.5" font-family="DejaVuSansMono" font-size="10.00">xmpp_server_route_iq</text>
</a>
</g>
<!-- Node35&#45;&gt;Node36 -->
<g id="edge94" class="edge"><title>Node35&#45;&gt;Node36</title>
<path fill="none" stroke="midnightblue" d="M638.924,-211.986C669.821,-219.878 709.727,-230.071 738.505,-237.422"/>
<polygon fill="midnightblue" stroke="midnightblue" points="639.79,-208.595 629.235,-209.511 638.058,-215.377 639.79,-208.595"/>
</g>
<!-- Node37 -->
<g id="node85" class="node"><title>Node37</title>
<a xlink:href="../../d8/d28/xmpp__core_8h.html#a777c384ae6685d30bfa255c4b33022aa" target="_top" xlink:title="An xmpp_server stanza route for stanzas directed to the server itself.">
<polygon fill="none" stroke="black" points="882.5,-266.5 882.5,-285.5 1031.5,-285.5 1031.5,-266.5 882.5,-266.5"/>
<text text-anchor="middle" x="957" y="-273.5" font-family="DejaVuSansMono" font-size="10.00">xmpp_core_route_server</text>
</a>
</g>
<!-- Node36&#45;&gt;Node37 -->
<g id="edge96" class="edge"><title>Node36&#45;&gt;Node37</title>
<path fill="none" stroke="midnightblue" d="M847.028,-258.246C863.732,-260.968 881.426,-263.85 897.588,-266.483"/>
<polygon fill="midnightblue" stroke="midnightblue" points="847.21,-254.73 836.777,-256.576 846.084,-261.639 847.21,-254.73"/>
</g>
<!-- Node37&#45;&gt;Node17 -->
<g id="edge98" class="edge"><title>Node37&#45;&gt;Node17</title>
<path fill="none" stroke="midnightblue" d="M1041.9,-265.144C1126.65,-252.221 1260.1,-226.448 1368,-181 1397.76,-168.464 1428.67,-146.224 1445.08,-133.548"/>
<polygon fill="midnightblue" stroke="midnightblue" points="1041.18,-261.712 1031.81,-266.657 1042.22,-268.635 1041.18,-261.712"/>
</g>
</g>
</svg>
        <g id="navigator" transform="translate(0 0)" fill="#404254">
                <rect fill="#f2f5e9" fill-opacity="0.5" stroke="#606060" stroke-width=".5" x="0" y="0" width="60" height="60"/>
                <use id="zoomplus" xlink:href="#zoomPlus" x="17" y="9" onmousedown="handleZoom(evt,'in')"/>
                <use id="zoomminus" xlink:href="#zoomMin" x="42" y="9" onmousedown="handleZoom(evt,'out')"/>
                <use id="reset" xlink:href="#resetDef" x="30" y="36" onmousedown="handleReset()"/>
                <g id="arrowUp" xlink:href="#dirArrow" transform="translate(30 24)" onmousedown="handlePan(0,-1)">
                  <use xlink:href="#rim" fill="#404040">
                        <set attributeName="fill" to="#808080" begin="arrowUp.mouseover" end="arrowUp.mouseout"/>
                  </use>
                  <path fill="none" stroke="white" stroke-width="1.5" d="M0,-3.0v7 M-2.5,-0.5L0,-3.0L2.5,-0.5"/>
                </g>
                <g id="arrowRight" xlink:href="#dirArrow" transform="rotate(90) translate(36 -43)" onmousedown="handlePan(1,0)">
                  <use xlink:href="#rim" fill="#404040">
                        <set attributeName="fill" to="#808080" begin="arrowRight.mouseover" end="arrowRight.mouseout"/>
                  </use>
                  <path fill="none" stroke="white" stroke-width="1.5" d="M0,-3.0v7 M-2.5,-0.5L0,-3.0L2.5,-0.5"/>
                </g>
                <g id="arrowDown" xlink:href="#dirArrow" transform="rotate(180) translate(-30 -48)" onmousedown="handlePan(0,1)">
                  <use xlink:href="#rim" fill="#404040">
                        <set attributeName="fill" to="#808080" begin="arrowDown.mouseover" end="arrowDown.mouseout"/>
                  </use>
                  <path fill="none" stroke="white" stroke-width="1.5" d="M0,-3.0v7 M-2.5,-0.5L0,-3.0L2.5,-0.5"/>
                </g>
                <g id="arrowLeft" xlink:href="#dirArrow" transform="rotate(270) translate(-36 17)" onmousedown="handlePan(-1,0)">
                  <use xlink:href="#rim" fill="#404040">
                        <set attributeName="fill" to="#808080" begin="arrowLeft.mouseover" end="arrowLeft.mouseout"/>
                  </use>
                  <path fill="none" stroke="white" stroke-width="1.5" d="M0,-3.0v7 M-2.5,-0.5L0,-3.0L2.5,-0.5"/>
                </g>
        </g>
        <svg viewBox="0 0 25 25" width="100%" height="30px" preserveAspectRatio="xMaxYMin meet"> 
          <g id="printButton" transform="scale(0.4 0.4)" onmousedown="handlePrint(evt)">
            <rect height="23.33753581" id="paper" rx="2" style="fill:#f2f5e9;fill-rule:evenodd;stroke:#111111;stroke-width:3.224;stroke-linejoin:round;" transform="matrix(1.000000,0.000000,-0.339266,0.940691,0.000000,0.000000)" width="25.55231285" x="26.69387353" y="7.36162977"/>
            <rect height="26.272097" id="body" rx="2" style="fill:#404040;fill-rule:evenodd;stroke:#111111;stroke-width:3.125;stroke-linejoin:round;" width="50" x="4.5295201" y="27.078951"/>
            <rect height="8.27750969" id="tray" style="fill:#d2d5c9;fill-rule:evenodd;stroke:#111111;stroke-width:3.125;stroke-linecap:round;stroke-linejoin:round;" width="40" x="10.28778839" y="44.96812282"/>
          </g>
        </svg>
</svg>
