<?xml version="1.0" encoding="UTF-8" standalone="no"?>
<!DOCTYPE svg PUBLIC "-//W3C//DTD SVG 1.1//EN"
 "http://www.w3.org/Graphics/SVG/1.1/DTD/svg11.dtd">
<!-- Generated by graphviz version 2.28.0 (20120217.0315)
 -->
<!-- Title: G Pages: 1 -->
<!--zoomable 341 -->
<svg id="main" version="1.1" xmlns="http://www.w3.org/2000/svg" xmlns:xlink="http://www.w3.org/1999/xlink" xml:space="preserve" onload="init(evt)">
        <defs>
                <circle id="rim" cx="0" cy="0" r="7"/>
                <circle id="rim2" cx="0" cy="0" r="3.5"/>
                <g id="zoomPlus">
                        <use xlink:href="#rim" fill="#404040">
                                <set attributeName="fill" to="#808080" begin="zoomplus.mouseover" end="zoomplus.mouseout"/>
                        </use>
                        <path d="M-4,0h8M0,-4v8" fill="none" stroke="white" stroke-width="1.5" pointer-events="none"/>
                </g>
                <g id="zoomMin">
                        <use xlink:href="#rim" fill="#404040">
                                <set attributeName="fill" to="#808080" begin="zoomminus.mouseover" end="zoomminus.mouseout"/>
                        </use>
                        <path d="M-4,0h8" fill="none" stroke="white" stroke-width="1.5" pointer-events="none"/>
                </g>
                <g id="dirArrow">
                        <path fill="none" stroke="white" stroke-width="1.5" d="M0,-3.0v7 M-2.5,-0.5L0,-3.0L2.5,-0.5"/>
                </g>
               <g id="resetDef">
                       <use xlink:href="#rim2" fill="#404040">
                               <set attributeName="fill" to="#808080" begin="reset.mouseover" end="reset.mouseout"/>
                       </use>
               </g>
        </defs>

<script type="text/javascript">
var viewWidth = 2156;
var viewHeight = 341;
var sectionId = 'dynsection-5';
</script>
<script xlink:href="../../svgpan.js"/>
<svg id="graph" class="graph">
<g id="viewport">
<title>G</title>
<!-- Node1 -->
<g id="node1" class="node"><title>Node1</title>
<polygon fill="#bfbfbf" stroke="black" points="0.5,-204.5 0.5,-223.5 185.5,-223.5 185.5,-204.5 0.5,-204.5"/>
<text text-anchor="middle" x="93" y="-211.5" font-family="DejaVuSansMono" font-size="10.00">xmpp_parser_namespace_prefix</text>
</g>
<!-- Node2 -->
<g id="node3" class="node"><title>Node2</title>
<a xlink:href="../../d1/d59/xmpp__stanza_8c.html#aae8c30c30fcbc2325d34897f8035ca46" target="_top" xlink:title="Function that gets called recursively to convert a stanza to a string.">
<polygon fill="none" stroke="black" points="222.5,-204.5 222.5,-223.5 311.5,-223.5 311.5,-204.5 222.5,-204.5"/>
<text text-anchor="middle" x="267" y="-211.5" font-family="DejaVuSansMono" font-size="10.00">stanza_tostr</text>
</a>
</g>
<!-- Node1&#45;&gt;Node2 -->
<g id="edge2" class="edge"><title>Node1&#45;&gt;Node2</title>
<path fill="none" stroke="midnightblue" d="M195.712,-214C205.015,-214 214.063,-214 222.403,-214"/>
<polygon fill="midnightblue" stroke="midnightblue" points="195.54,-210.5 185.54,-214 195.54,-217.5 195.54,-210.5"/>
</g>
<!-- Node3 -->
<g id="node5" class="node"><title>Node3</title>
<a xlink:href="../../dd/d21/xmpp__stanza_8h.html#a513b6e2da3dce364271ba9315d7b3d95" target="_top" xlink:title="Returns the stanza (and its children) packed into a null&#45;terminated string.">
<polygon fill="none" stroke="black" points="348.5,-204.5 348.5,-223.5 473.5,-223.5 473.5,-204.5 348.5,-204.5"/>
<text text-anchor="middle" x="411" y="-211.5" font-family="DejaVuSansMono" font-size="10.00">xmpp_stanza_string</text>
</a>
</g>
<!-- Node2&#45;&gt;Node3 -->
<g id="edge4" class="edge"><title>Node2&#45;&gt;Node3</title>
<path fill="none" stroke="midnightblue" d="M322.047,-214C330.65,-214 339.607,-214 348.37,-214"/>
<polygon fill="midnightblue" stroke="midnightblue" points="321.763,-210.5 311.763,-214 321.763,-217.5 321.763,-210.5"/>
</g>
<!-- Node4 -->
<g id="node7" class="node"><title>Node4</title>
<a xlink:href="../../d6/d78/xmp3__multicast_8c.html#a3ef84feef94d4ad6045cd45fd91b531c" target="_top" xlink:title="local_stanza_handler">
<polygon fill="none" stroke="black" points="516.5,-280.5 516.5,-299.5 653.5,-299.5 653.5,-280.5 516.5,-280.5"/>
<text text-anchor="middle" x="585" y="-287.5" font-family="DejaVuSansMono" font-size="10.00">local_stanza_handler</text>
</a>
</g>
<!-- Node3&#45;&gt;Node4 -->
<g id="edge6" class="edge"><title>Node3&#45;&gt;Node4</title>
<path fill="none" stroke="midnightblue" d="M443.372,-227.862C477.869,-243.105 532.376,-267.19 562.393,-280.453"/>
<polygon fill="midnightblue" stroke="midnightblue" points="444.345,-224.466 433.784,-223.625 441.516,-230.869 444.345,-224.466"/>
</g>
<!-- Node7 -->
<g id="node13" class="node"><title>Node7</title>
<a xlink:href="../../d8/d28/xmpp__core_8h.html#a3b41e83061abd7ed5b258c7aa7dda0d6" target="_top" xlink:title="An xmpp_server stanza route for stanzas directed to a local client.">
<polygon fill="none" stroke="black" points="510.5,-114.5 510.5,-133.5 659.5,-133.5 659.5,-114.5 510.5,-114.5"/>
<text text-anchor="middle" x="585" y="-121.5" font-family="DejaVuSansMono" font-size="10.00">xmpp_core_route_client</text>
</a>
</g>
<!-- Node3&#45;&gt;Node7 -->
<g id="edge12" class="edge"><title>Node3&#45;&gt;Node7</title>
<path fill="none" stroke="midnightblue" d="M439.696,-199.508C475.139,-180.962 535.553,-149.35 565.725,-133.562"/>
<polygon fill="midnightblue" stroke="midnightblue" points="437.645,-196.631 430.407,-204.368 440.89,-202.833 437.645,-196.631"/>
</g>
<!-- Node22 -->
<g id="node50" class="node"><title>Node22</title>
<a xlink:href="../../d1/dc2/xmpp__parser_8c.html#a2268b636f6d02bbe04f3033ff93d829c" target="_top" xlink:title="Expat callback for the start of an XMPP stream.">
<polygon fill="none" stroke="black" points="540.5,-223.5 540.5,-242.5 629.5,-242.5 629.5,-223.5 540.5,-223.5"/>
<text text-anchor="middle" x="585" y="-230.5" font-family="DejaVuSansMono" font-size="10.00">stream_start</text>
</a>
</g>
<!-- Node3&#45;&gt;Node22 -->
<g id="edge56" class="edge"><title>Node3&#45;&gt;Node22</title>
<path fill="none" stroke="midnightblue" d="M483.573,-221.906C502.84,-224.035 523.1,-226.273 540.337,-228.177"/>
<polygon fill="midnightblue" stroke="midnightblue" points="483.934,-218.425 473.61,-220.806 483.165,-225.383 483.934,-218.425"/>
</g>
<!-- Node29 -->
<g id="node68" class="node"><title>Node29</title>
<a xlink:href="../../d1/dc2/xmpp__parser_8c.html#adc3f7670edafd5b590af11d276887f1e" target="_top" xlink:title="Expat callback for end elements.">
<polygon fill="none" stroke="black" points="567.5,-185.5 567.5,-204.5 602.5,-204.5 602.5,-185.5 567.5,-185.5"/>
<text text-anchor="middle" x="585" y="-192.5" font-family="DejaVuSansMono" font-size="10.00">end</text>
</a>
</g>
<!-- Node3&#45;&gt;Node29 -->
<g id="edge78" class="edge"><title>Node3&#45;&gt;Node29</title>
<path fill="none" stroke="midnightblue" d="M483.914,-206.056C514.644,-202.661 547.842,-198.994 567.23,-196.852"/>
<polygon fill="midnightblue" stroke="midnightblue" points="483.165,-202.617 473.61,-207.194 483.934,-209.575 483.165,-202.617"/>
</g>
<!-- Node5 -->
<g id="node9" class="node"><title>Node5</title>
<a xlink:href="../../d6/d78/xmp3__multicast_8c.html#a991c928ab73b350c4b7029352e91a219" target="_top" xlink:title="multicast_start">
<polygon fill="none" stroke="black" points="1302.5,-304.5 1302.5,-323.5 1409.5,-323.5 1409.5,-304.5 1302.5,-304.5"/>
<text text-anchor="middle" x="1356" y="-311.5" font-family="DejaVuSansMono" font-size="10.00">multicast_start</text>
</a>
</g>
<!-- Node4&#45;&gt;Node5 -->
<g id="edge8" class="edge"><title>Node4&#45;&gt;Node5</title>
<path fill="none" stroke="midnightblue" d="M637.549,-301.69C698.297,-314.423 802.441,-333 893,-333 893,-333 893,-333 1051,-333 1139.31,-333 1241.77,-324.915 1302.34,-319.293"/>
<polygon fill="midnightblue" stroke="midnightblue" points="637.963,-298.199 627.453,-299.543 636.507,-305.046 637.963,-298.199"/>
</g>
<!-- Node6 -->
<g id="node11" class="node"><title>Node6</title>
<a xlink:href="../../d6/d78/xmp3__multicast_8c.html#ad161abeabc58820fd3a24b4422c5b9a7" target="_top" xlink:title="multicast_stop">
<polygon fill="none" stroke="black" points="696.5,-280.5 696.5,-299.5 797.5,-299.5 797.5,-280.5 696.5,-280.5"/>
<text text-anchor="middle" x="747" y="-287.5" font-family="DejaVuSansMono" font-size="10.00">multicast_stop</text>
</a>
</g>
<!-- Node4&#45;&gt;Node6 -->
<g id="edge10" class="edge"><title>Node4&#45;&gt;Node6</title>
<path fill="none" stroke="midnightblue" d="M663.978,-290C675.045,-290 686.163,-290 696.484,-290"/>
<polygon fill="midnightblue" stroke="midnightblue" points="663.854,-286.5 653.854,-290 663.854,-293.5 663.854,-286.5"/>
</g>
<!-- Node8 -->
<g id="node15" class="node"><title>Node8</title>
<a xlink:href="../../df/da9/xmpp__auth_8c.html#a603b4a63af3c4e4af99442805fe89ae8" target="_top" xlink:title="Step 15: Client binds a resource.">
<polygon fill="none" stroke="black" points="696.5,-133.5 696.5,-152.5 797.5,-152.5 797.5,-133.5 696.5,-133.5"/>
<text text-anchor="middle" x="747" y="-140.5" font-family="DejaVuSansMono" font-size="10.00">handle_bind_iq</text>
</a>
</g>
<!-- Node7&#45;&gt;Node8 -->
<g id="edge14" class="edge"><title>Node7&#45;&gt;Node8</title>
<path fill="none" stroke="midnightblue" d="M670.006,-133.976C678.943,-135.037 687.813,-136.09 696.168,-137.082"/>
<polygon fill="midnightblue" stroke="midnightblue" points="670.254,-130.481 659.911,-132.777 669.429,-137.432 670.254,-130.481"/>
</g>
<!-- Node18 -->
<g id="node36" class="node"><title>Node18</title>
<a xlink:href="../../d4/d2f/xmpp__client_8h.html#add2df61245a543667b6d98e3fcd57077" target="_top" xlink:title="xmpp_client_del">
<polygon fill="none" stroke="black" points="1302.5,-19.5 1302.5,-38.5 1409.5,-38.5 1409.5,-19.5 1302.5,-19.5"/>
<text text-anchor="middle" x="1356" y="-26.5" font-family="DejaVuSansMono" font-size="10.00">xmpp_client_del</text>
</a>
</g>
<!-- Node7&#45;&gt;Node18 -->
<g id="edge36" class="edge"><title>Node7&#45;&gt;Node18</title>
<path fill="none" stroke="midnightblue" d="M669.806,-116.01C731.473,-110.814 817.376,-105 893,-105 893,-105 893,-105 1051,-105 1159.26,-105 1282.91,-59.076 1332.6,-38.6255"/>
<polygon fill="midnightblue" stroke="midnightblue" points="669.404,-112.532 659.739,-116.871 670,-119.506 669.404,-112.532"/>
</g>
<!-- Node9 -->
<g id="node17" class="node"><title>Node9</title>
<a xlink:href="../../df/da9/xmpp__auth_8c.html#a01804bd53eccc182ce76337fc0863e8d" target="_top" xlink:title="stream_bind_start">
<polygon fill="none" stroke="black" points="834.5,-133.5 834.5,-152.5 953.5,-152.5 953.5,-133.5 834.5,-133.5"/>
<text text-anchor="middle" x="894" y="-140.5" font-family="DejaVuSansMono" font-size="10.00">stream_bind_start</text>
</a>
</g>
<!-- Node8&#45;&gt;Node9 -->
<g id="edge16" class="edge"><title>Node8&#45;&gt;Node9</title>
<path fill="none" stroke="midnightblue" d="M807.961,-143C816.655,-143 825.597,-143 834.266,-143"/>
<polygon fill="midnightblue" stroke="midnightblue" points="807.901,-139.5 797.901,-143 807.901,-146.5 807.901,-139.5"/>
</g>
<!-- Node10 -->
<g id="node19" class="node"><title>Node10</title>
<a xlink:href="../../df/da9/xmpp__auth_8c.html#afb770a216868aa3fb43813b19d2a0115" target="_top" xlink:title="Begins SASL PLAIN authentication.">
<polygon fill="none" stroke="black" points="990.5,-133.5 990.5,-152.5 1109.5,-152.5 1109.5,-133.5 990.5,-133.5"/>
<text text-anchor="middle" x="1050" y="-140.5" font-family="DejaVuSansMono" font-size="10.00">handle_sasl_plain</text>
</a>
</g>
<!-- Node9&#45;&gt;Node10 -->
<g id="edge18" class="edge"><title>Node9&#45;&gt;Node10</title>
<path fill="none" stroke="midnightblue" d="M963.894,-143C972.691,-143 981.631,-143 990.248,-143"/>
<polygon fill="midnightblue" stroke="midnightblue" points="963.66,-139.5 953.66,-143 963.66,-146.5 963.66,-139.5"/>
</g>
<!-- Node11 -->
<g id="node21" class="node"><title>Node11</title>
<a xlink:href="../../d3/d24/xmpp__auth_8h.html#ad3efd9ab093646bdfd8832c34ae2de4d" target="_top" xlink:title="Handler for the inital stream start to begin authentication.">
<polygon fill="none" stroke="black" points="1467.5,-133.5 1467.5,-152.5 1616.5,-152.5 1616.5,-133.5 1467.5,-133.5"/>
<text text-anchor="middle" x="1542" y="-140.5" font-family="DejaVuSansMono" font-size="10.00">xmpp_auth_stream_start</text>
</a>
</g>
<!-- Node10&#45;&gt;Node11 -->
<g id="edge20" class="edge"><title>Node10&#45;&gt;Node11</title>
<path fill="none" stroke="midnightblue" d="M1099.54,-154.625C1114.36,-157.655 1130.77,-160.492 1146,-162 1262.76,-173.562 1292.97,-170.443 1410,-162 1435.67,-160.148 1463.96,-156.28 1487.65,-152.514"/>
<polygon fill="midnightblue" stroke="midnightblue" points="1100.07,-151.16 1089.57,-152.51 1098.62,-158.008 1100.07,-151.16"/>
</g>
<!-- Node16 -->
<g id="node31" class="node"><title>Node16</title>
<a xlink:href="../../df/da9/xmpp__auth_8c.html#afd7b12689591d40109a88ad108b5c3a2" target="_top" xlink:title="stream_sasl_start">
<polygon fill="none" stroke="black" points="1146.5,-133.5 1146.5,-152.5 1265.5,-152.5 1265.5,-133.5 1146.5,-133.5"/>
<text text-anchor="middle" x="1206" y="-140.5" font-family="DejaVuSansMono" font-size="10.00">stream_sasl_start</text>
</a>
</g>
<!-- Node10&#45;&gt;Node16 -->
<g id="edge30" class="edge"><title>Node10&#45;&gt;Node16</title>
<path fill="none" stroke="midnightblue" d="M1119.89,-143C1128.69,-143 1137.63,-143 1146.25,-143"/>
<polygon fill="midnightblue" stroke="midnightblue" points="1119.66,-139.5 1109.66,-143 1119.66,-146.5 1119.66,-139.5"/>
</g>
<!-- Node12 -->
<g id="node23" class="node"><title>Node12</title>
<a xlink:href="../../d4/d2f/xmpp__client_8h.html#a1619c0b8f58b2cf09a322bf34fbc3414" target="_top" xlink:title="xmpp_client_new">
<polygon fill="none" stroke="black" points="1674.5,-57.5 1674.5,-76.5 1781.5,-76.5 1781.5,-57.5 1674.5,-57.5"/>
<text text-anchor="middle" x="1728" y="-64.5" font-family="DejaVuSansMono" font-size="10.00">xmpp_client_new</text>
</a>
</g>
<!-- Node11&#45;&gt;Node12 -->
<g id="edge22" class="edge"><title>Node11&#45;&gt;Node12</title>
<path fill="none" stroke="midnightblue" d="M1624.79,-130.148C1629.37,-128.357 1633.8,-126.319 1638,-124 1658.36,-112.746 1654.52,-98.7167 1674,-86 1679.73,-82.2599 1686.29,-79.1445 1692.79,-76.5919"/>
<polygon fill="midnightblue" stroke="midnightblue" points="1623.52,-126.883 1615.24,-133.488 1625.83,-133.491 1623.52,-126.883"/>
</g>
<!-- Node13 -->
<g id="node25" class="node"><title>Node13</title>
<a xlink:href="../../d0/df0/xmpp__server_8c.html#a66363912ef1221a2574f9f99805fe8fd" target="_top" xlink:title="Callback for new client connections.">
<polygon fill="none" stroke="black" points="1821.5,-47.5 1821.5,-66.5 1922.5,-66.5 1922.5,-47.5 1821.5,-47.5"/>
<text text-anchor="middle" x="1872" y="-54.5" font-family="DejaVuSansMono" font-size="10.00">connect_client</text>
</a>
</g>
<!-- Node12&#45;&gt;Node13 -->
<g id="edge24" class="edge"><title>Node12&#45;&gt;Node13</title>
<path fill="none" stroke="midnightblue" d="M1792.02,-62.5622C1801.85,-61.8696 1811.89,-61.1625 1821.37,-60.4949"/>
<polygon fill="midnightblue" stroke="midnightblue" points="1791.6,-59.0824 1781.88,-63.2764 1792.1,-66.0651 1791.6,-59.0824"/>
</g>
<!-- Node14 -->
<g id="node27" class="node"><title>Node14</title>
<a xlink:href="../../d1/d2e/xmpp__server_8h.html#a27bfc8e4d424a8bc17ab21a4a09cdf92" target="_top" xlink:title="Allocates and initializes the XMPP server.">
<polygon fill="none" stroke="black" points="1962.5,-38.5 1962.5,-57.5 2069.5,-57.5 2069.5,-38.5 1962.5,-38.5"/>
<text text-anchor="middle" x="2016" y="-45.5" font-family="DejaVuSansMono" font-size="10.00">xmpp_server_new</text>
</a>
</g>
<!-- Node13&#45;&gt;Node14 -->
<g id="edge26" class="edge"><title>Node13&#45;&gt;Node14</title>
<path fill="none" stroke="midnightblue" d="M1932.73,-53.2141C1942.53,-52.5933 1952.62,-51.954 1962.23,-51.3449"/>
<polygon fill="midnightblue" stroke="midnightblue" points="1932.42,-49.7266 1922.66,-53.8522 1932.87,-56.7126 1932.42,-49.7266"/>
</g>
<!-- Node15 -->
<g id="node29" class="node"><title>Node15</title>
<a xlink:href="../../d0/d29/main_8c.html#a0ddf1224851353fc92bfbff6f499fa97" target="_top" xlink:title="main">
<polygon fill="none" stroke="black" points="2106.5,-19.5 2106.5,-38.5 2147.5,-38.5 2147.5,-19.5 2106.5,-19.5"/>
<text text-anchor="middle" x="2127" y="-26.5" font-family="DejaVuSansMono" font-size="10.00">main</text>
</a>
</g>
<!-- Node14&#45;&gt;Node15 -->
<g id="edge28" class="edge"><title>Node14&#45;&gt;Node15</title>
<path fill="none" stroke="midnightblue" d="M2079.45,-37.1151C2089.24,-35.4082 2098.68,-33.7622 2106.47,-32.404"/>
<polygon fill="midnightblue" stroke="midnightblue" points="2078.83,-33.6686 2069.58,-38.8339 2080.04,-40.5646 2078.83,-33.6686"/>
</g>
<!-- Node17 -->
<g id="node33" class="node"><title>Node17</title>
<a xlink:href="../../df/da9/xmpp__auth_8c.html#a8dd789e057b9812e4dd1aa524dfb6a65" target="_top" xlink:title="Begins TLS authentication.">
<polygon fill="none" stroke="black" points="1302.5,-133.5 1302.5,-152.5 1409.5,-152.5 1409.5,-133.5 1302.5,-133.5"/>
<text text-anchor="middle" x="1356" y="-140.5" font-family="DejaVuSansMono" font-size="10.00">handle_starttls</text>
</a>
</g>
<!-- Node16&#45;&gt;Node17 -->
<g id="edge32" class="edge"><title>Node16&#45;&gt;Node17</title>
<path fill="none" stroke="midnightblue" d="M1276.09,-143C1284.81,-143 1293.62,-143 1302.04,-143"/>
<polygon fill="midnightblue" stroke="midnightblue" points="1275.92,-139.5 1265.92,-143 1275.92,-146.5 1275.92,-139.5"/>
</g>
<!-- Node17&#45;&gt;Node11 -->
<g id="edge34" class="edge"><title>Node17&#45;&gt;Node11</title>
<path fill="none" stroke="midnightblue" d="M1420.06,-143C1435.29,-143 1451.69,-143 1467.36,-143"/>
<polygon fill="midnightblue" stroke="midnightblue" points="1419.73,-139.5 1409.73,-143 1419.73,-146.5 1419.73,-139.5"/>
</g>
<!-- Node18&#45;&gt;Node12 -->
<g id="edge38" class="edge"><title>Node18&#45;&gt;Node12</title>
<path fill="none" stroke="midnightblue" d="M1419.54,-39.4092C1428.41,-40.7185 1437.43,-41.9608 1446,-43 1525.35,-52.6174 1617.77,-59.7286 1674.32,-63.619"/>
<polygon fill="midnightblue" stroke="midnightblue" points="1420.03,-35.9439 1409.62,-37.9096 1418.99,-42.8652 1420.03,-35.9439"/>
</g>
<!-- Node18&#45;&gt;Node13 -->
<g id="edge54" class="edge"><title>Node18&#45;&gt;Node13</title>
<path fill="none" stroke="midnightblue" d="M1419.75,-30.7046C1502.73,-33.2106 1653.48,-38.6362 1782,-48 1794.7,-48.9254 1808.4,-50.1813 1821.15,-51.4611"/>
<polygon fill="midnightblue" stroke="midnightblue" points="1419.83,-27.2054 1409.73,-30.4062 1419.62,-34.2023 1419.83,-27.2054"/>
</g>
<!-- Node19 -->
<g id="node39" class="node"><title>Node19</title>
<a xlink:href="../../d1/d2e/xmpp__server_8h.html#af7d75415fd5671841797bf77bbc1a981" target="_top" xlink:title="Cleans up an XMPP server instance.">
<polygon fill="none" stroke="black" points="1818.5,-0.5 1818.5,-19.5 1925.5,-19.5 1925.5,-0.5 1818.5,-0.5"/>
<text text-anchor="middle" x="1872" y="-7.5" font-family="DejaVuSansMono" font-size="10.00">xmpp_server_del</text>
</a>
</g>
<!-- Node18&#45;&gt;Node19 -->
<g id="edge40" class="edge"><title>Node18&#45;&gt;Node19</title>
<path fill="none" stroke="midnightblue" d="M1419.48,-18.0087C1428.36,-16.7866 1437.39,-15.7237 1446,-15 1579.64,-3.76185 1737.74,-5.96077 1818.21,-8.1817"/>
<polygon fill="midnightblue" stroke="midnightblue" points="1418.95,-14.5488 1409.56,-19.4464 1419.95,-21.4765 1418.95,-14.5488"/>
</g>
<!-- Node20 -->
<g id="node43" class="node"><title>Node20</title>
<a xlink:href="../../d1/d2e/xmpp__server_8h.html#a79e02871228c509de0c70961d74a1bcb" target="_top" xlink:title="Attempt to cleanly disconnect a client, and clean up its resources.">
<polygon fill="none" stroke="black" points="1446.5,-95.5 1446.5,-114.5 1637.5,-114.5 1637.5,-95.5 1446.5,-95.5"/>
<text text-anchor="middle" x="1542" y="-102.5" font-family="DejaVuSansMono" font-size="10.00">xmpp_server_disconnect_client</text>
</a>
</g>
<!-- Node18&#45;&gt;Node20 -->
<g id="edge46" class="edge"><title>Node18&#45;&gt;Node20</title>
<path fill="none" stroke="midnightblue" d="M1390.73,-42.8275C1397.27,-45.9079 1403.96,-49.3524 1410,-53 1427.35,-63.4757 1427.79,-72.1059 1446,-81 1458.69,-87.1954 1473.13,-91.8963 1486.87,-95.4205"/>
<polygon fill="midnightblue" stroke="midnightblue" points="1391.91,-39.5204 1381.35,-38.5936 1389.03,-45.8998 1391.91,-39.5204"/>
</g>
<!-- Node19&#45;&gt;Node14 -->
<g id="edge44" class="edge"><title>Node19&#45;&gt;Node14</title>
<path fill="none" stroke="midnightblue" d="M1918.49,-22.1742C1938.13,-27.4287 1960.77,-33.4866 1979.18,-38.4141"/>
<polygon fill="midnightblue" stroke="midnightblue" points="1919.4,-18.7931 1908.83,-19.589 1917.59,-25.5552 1919.4,-18.7931"/>
</g>
<!-- Node19&#45;&gt;Node15 -->
<g id="edge42" class="edge"><title>Node19&#45;&gt;Node15</title>
<path fill="none" stroke="midnightblue" d="M1935.9,-14.7236C1991.84,-18.9246 2070.21,-24.81 2106.34,-27.5233"/>
<polygon fill="midnightblue" stroke="midnightblue" points="1935.96,-11.2187 1925.73,-13.9599 1935.44,-18.199 1935.96,-11.2187"/>
</g>
<!-- Node20&#45;&gt;Node7 -->
<g id="edge48" class="edge"><title>Node20&#45;&gt;Node7</title>
<path fill="none" stroke="midnightblue" d="M1479.48,-93.7713C1412.65,-82.5647 1302.62,-67 1207,-67 893,-67 893,-67 893,-67 790.273,-67 671.41,-98.233 616.589,-114.459"/>
<polygon fill="midnightblue" stroke="midnightblue" points="1478.98,-97.2361 1489.43,-95.46 1480.15,-90.335 1478.98,-97.2361"/>
</g>
<!-- Node21 -->
<g id="node46" class="node"><title>Node21</title>
<a xlink:href="../../d0/df0/xmpp__server_8c.html#abece91815ef240322d79073f5bfca1db" target="_top" xlink:title="Callback for new data from a client.">
<polygon fill="none" stroke="black" points="1686.5,-95.5 1686.5,-114.5 1769.5,-114.5 1769.5,-95.5 1686.5,-95.5"/>
<text text-anchor="middle" x="1728" y="-102.5" font-family="DejaVuSansMono" font-size="10.00">read_client</text>
</a>
</g>
<!-- Node20&#45;&gt;Node21 -->
<g id="edge50" class="edge"><title>Node20&#45;&gt;Node21</title>
<path fill="none" stroke="midnightblue" d="M1648.07,-105C1661.56,-105 1674.68,-105 1686.21,-105"/>
<polygon fill="midnightblue" stroke="midnightblue" points="1647.7,-101.5 1637.69,-105 1647.69,-108.5 1647.7,-101.5"/>
</g>
<!-- Node21&#45;&gt;Node13 -->
<g id="edge52" class="edge"><title>Node21&#45;&gt;Node13</title>
<path fill="none" stroke="midnightblue" d="M1767.15,-92.103C1790.92,-84.0677 1821,-73.9025 1842.65,-66.5815"/>
<polygon fill="midnightblue" stroke="midnightblue" points="1765.75,-88.8838 1757.39,-95.4018 1767.99,-95.5152 1765.75,-88.8838"/>
</g>
<!-- Node23 -->
<g id="node52" class="node"><title>Node23</title>
<a xlink:href="../../d1/dc2/xmpp__parser_8c.html#a03a135f29e3d4e01abbb60e53ac6967c" target="_top" xlink:title="init_parser">
<polygon fill="none" stroke="black" points="705.5,-214.5 705.5,-233.5 788.5,-233.5 788.5,-214.5 705.5,-214.5"/>
<text text-anchor="middle" x="747" y="-221.5" font-family="DejaVuSansMono" font-size="10.00">init_parser</text>
</a>
</g>
<!-- Node22&#45;&gt;Node23 -->
<g id="edge58" class="edge"><title>Node22&#45;&gt;Node23</title>
<path fill="none" stroke="midnightblue" d="M639.96,-229.965C661.337,-228.762 685.499,-227.403 705.354,-226.286"/>
<polygon fill="midnightblue" stroke="midnightblue" points="639.508,-226.485 629.721,-230.541 639.902,-233.473 639.508,-226.485"/>
</g>
<!-- Node24 -->
<g id="node54" class="node"><title>Node24</title>
<a xlink:href="../../d8/d55/xmpp__parser_8h.html#adf25a1d2047994dfa6cc71a9482548c2" target="_top" xlink:title="xmpp_parser_new">
<polygon fill="none" stroke="black" points="840.5,-209.5 840.5,-228.5 947.5,-228.5 947.5,-209.5 840.5,-209.5"/>
<text text-anchor="middle" x="894" y="-216.5" font-family="DejaVuSansMono" font-size="10.00">xmpp_parser_new</text>
</a>
</g>
<!-- Node23&#45;&gt;Node24 -->
<g id="edge60" class="edge"><title>Node23&#45;&gt;Node24</title>
<path fill="none" stroke="midnightblue" d="M798.809,-222.248C812.253,-221.784 826.793,-221.283 840.334,-220.816"/>
<polygon fill="midnightblue" stroke="midnightblue" points="798.65,-218.751 788.776,-222.594 798.891,-225.747 798.65,-218.751"/>
</g>
<!-- Node26 -->
<g id="node59" class="node"><title>Node26</title>
<a xlink:href="../../d8/d55/xmpp__parser_8h.html#af5e1eb5bbef0496c3543bd35113766ac" target="_top" xlink:title="Reset the state of the parser as if it was just created.">
<polygon fill="none" stroke="black" points="834.5,-247.5 834.5,-266.5 953.5,-266.5 953.5,-247.5 834.5,-247.5"/>
<text text-anchor="middle" x="894" y="-254.5" font-family="DejaVuSansMono" font-size="10.00">xmpp_parser_reset</text>
</a>
</g>
<!-- Node23&#45;&gt;Node26 -->
<g id="edge66" class="edge"><title>Node23&#45;&gt;Node26</title>
<path fill="none" stroke="midnightblue" d="M798.614,-235.519C815.731,-239.415 834.644,-243.719 851.017,-247.445"/>
<polygon fill="midnightblue" stroke="midnightblue" points="799.304,-232.087 788.776,-233.28 797.75,-238.912 799.304,-232.087"/>
</g>
<!-- Node24&#45;&gt;Node12 -->
<g id="edge64" class="edge"><title>Node24&#45;&gt;Node12</title>
<path fill="none" stroke="midnightblue" d="M957.769,-219C1020.39,-219 1119.35,-219 1205,-219 1205,-219 1205,-219 1357,-219 1484.43,-219 1537.66,-240.561 1638,-162 1667.43,-138.958 1646.31,-111.1 1674,-86 1678.27,-82.127 1683.39,-79.03 1688.74,-76.557"/>
<polygon fill="midnightblue" stroke="midnightblue" points="957.657,-215.5 947.657,-219 957.657,-222.5 957.657,-215.5"/>
</g>
<!-- Node25 -->
<g id="node56" class="node"><title>Node25</title>
<a xlink:href="../../d6/d78/xmp3__multicast_8c.html#a08afc39c59ec9297d756a99c395eff3c" target="_top" xlink:title="multicast_new">
<polygon fill="none" stroke="black" points="1002.5,-171.5 1002.5,-190.5 1097.5,-190.5 1097.5,-171.5 1002.5,-171.5"/>
<text text-anchor="middle" x="1050" y="-178.5" font-family="DejaVuSansMono" font-size="10.00">multicast_new</text>
</a>
</g>
<!-- Node24&#45;&gt;Node25 -->
<g id="edge62" class="edge"><title>Node24&#45;&gt;Node25</title>
<path fill="none" stroke="midnightblue" d="M943.794,-206.96C965.308,-201.651 990.232,-195.501 1010.42,-190.52"/>
<polygon fill="midnightblue" stroke="midnightblue" points="942.731,-203.617 933.861,-209.411 944.408,-210.413 942.731,-203.617"/>
</g>
<!-- Node27 -->
<g id="node61" class="node"><title>Node27</title>
<a xlink:href="../../d6/d78/xmp3__multicast_8c.html#a9865e8026fb8ee000629fc1da465716d" target="_top" xlink:title="socket_handler">
<polygon fill="none" stroke="black" points="1155.5,-285.5 1155.5,-304.5 1256.5,-304.5 1256.5,-285.5 1155.5,-285.5"/>
<text text-anchor="middle" x="1206" y="-292.5" font-family="DejaVuSansMono" font-size="10.00">socket_handler</text>
</a>
</g>
<!-- Node26&#45;&gt;Node27 -->
<g id="edge68" class="edge"><title>Node26&#45;&gt;Node27</title>
<path fill="none" stroke="midnightblue" d="M947.244,-268.514C961.092,-271.273 976.067,-273.997 990,-276 1046.38,-284.104 1111.6,-289.283 1155.29,-292.153"/>
<polygon fill="midnightblue" stroke="midnightblue" points="947.888,-265.073 937.391,-266.508 946.492,-271.933 947.888,-265.073"/>
</g>
<!-- Node28 -->
<g id="node64" class="node"><title>Node28</title>
<a xlink:href="../../d8/d55/xmpp__parser_8h.html#a578b7a9a50212eb204a86789001287af" target="_top" xlink:title="xmpp_parser_parse">
<polygon fill="none" stroke="black" points="990.5,-247.5 990.5,-266.5 1109.5,-266.5 1109.5,-247.5 990.5,-247.5"/>
<text text-anchor="middle" x="1050" y="-254.5" font-family="DejaVuSansMono" font-size="10.00">xmpp_parser_parse</text>
</a>
</g>
<!-- Node26&#45;&gt;Node28 -->
<g id="edge72" class="edge"><title>Node26&#45;&gt;Node28</title>
<path fill="none" stroke="midnightblue" d="M963.894,-257C972.691,-257 981.631,-257 990.248,-257"/>
<polygon fill="midnightblue" stroke="midnightblue" points="963.66,-253.5 953.66,-257 963.66,-260.5 963.66,-253.5"/>
</g>
<!-- Node27&#45;&gt;Node5 -->
<g id="edge70" class="edge"><title>Node27&#45;&gt;Node5</title>
<path fill="none" stroke="midnightblue" d="M1266.87,-302.686C1278.64,-304.196 1290.89,-305.77 1302.4,-307.247"/>
<polygon fill="midnightblue" stroke="midnightblue" points="1267.06,-299.181 1256.69,-301.38 1266.17,-306.125 1267.06,-299.181"/>
</g>
<!-- Node28&#45;&gt;Node21 -->
<g id="edge76" class="edge"><title>Node28&#45;&gt;Node21</title>
<path fill="none" stroke="midnightblue" d="M1119.91,-261.692C1255.37,-269.712 1550.75,-280.895 1638,-233 1686.88,-206.169 1714.72,-139.636 1723.73,-114.671"/>
<polygon fill="midnightblue" stroke="midnightblue" points="1119.85,-258.182 1109.65,-261.073 1119.43,-265.169 1119.85,-258.182"/>
</g>
<!-- Node28&#45;&gt;Node27 -->
<g id="edge74" class="edge"><title>Node28&#45;&gt;Node27</title>
<path fill="none" stroke="midnightblue" d="M1099.79,-269.04C1121.31,-274.349 1146.23,-280.499 1166.42,-285.48"/>
<polygon fill="midnightblue" stroke="midnightblue" points="1100.41,-265.587 1089.86,-266.589 1098.73,-272.383 1100.41,-265.587"/>
</g>
<!-- Node29&#45;&gt;Node23 -->
<g id="edge80" class="edge"><title>Node29&#45;&gt;Node23</title>
<path fill="none" stroke="midnightblue" d="M612.467,-199.797C637.706,-204.372 676.081,-211.327 705.226,-216.61"/>
<polygon fill="midnightblue" stroke="midnightblue" points="612.984,-196.334 602.52,-197.994 611.736,-203.222 612.984,-196.334"/>
</g>
</g>
</svg>
        <g id="navigator" transform="translate(0 0)" fill="#404254">
                <rect fill="#f2f5e9" fill-opacity="0.5" stroke="#606060" stroke-width=".5" x="0" y="0" width="60" height="60"/>
                <use id="zoomplus" xlink:href="#zoomPlus" x="17" y="9" onmousedown="handleZoom(evt,'in')"/>
                <use id="zoomminus" xlink:href="#zoomMin" x="42" y="9" onmousedown="handleZoom(evt,'out')"/>
                <use id="reset" xlink:href="#resetDef" x="30" y="36" onmousedown="handleReset()"/>
                <g id="arrowUp" xlink:href="#dirArrow" transform="translate(30 24)" onmousedown="handlePan(0,-1)">
                  <use xlink:href="#rim" fill="#404040">
                        <set attributeName="fill" to="#808080" begin="arrowUp.mouseover" end="arrowUp.mouseout"/>
                  </use>
                  <path fill="none" stroke="white" stroke-width="1.5" d="M0,-3.0v7 M-2.5,-0.5L0,-3.0L2.5,-0.5"/>
                </g>
                <g id="arrowRight" xlink:href="#dirArrow" transform="rotate(90) translate(36 -43)" onmousedown="handlePan(1,0)">
                  <use xlink:href="#rim" fill="#404040">
                        <set attributeName="fill" to="#808080" begin="arrowRight.mouseover" end="arrowRight.mouseout"/>
                  </use>
                  <path fill="none" stroke="white" stroke-width="1.5" d="M0,-3.0v7 M-2.5,-0.5L0,-3.0L2.5,-0.5"/>
                </g>
                <g id="arrowDown" xlink:href="#dirArrow" transform="rotate(180) translate(-30 -48)" onmousedown="handlePan(0,1)">
                  <use xlink:href="#rim" fill="#404040">
                        <set attributeName="fill" to="#808080" begin="arrowDown.mouseover" end="arrowDown.mouseout"/>
                  </use>
                  <path fill="none" stroke="white" stroke-width="1.5" d="M0,-3.0v7 M-2.5,-0.5L0,-3.0L2.5,-0.5"/>
                </g>
                <g id="arrowLeft" xlink:href="#dirArrow" transform="rotate(270) translate(-36 17)" onmousedown="handlePan(-1,0)">
                  <use xlink:href="#rim" fill="#404040">
                        <set attributeName="fill" to="#808080" begin="arrowLeft.mouseover" end="arrowLeft.mouseout"/>
                  </use>
                  <path fill="none" stroke="white" stroke-width="1.5" d="M0,-3.0v7 M-2.5,-0.5L0,-3.0L2.5,-0.5"/>
                </g>
        </g>
        <svg viewBox="0 0 25 25" width="100%" height="30px" preserveAspectRatio="xMaxYMin meet"> 
          <g id="printButton" transform="scale(0.4 0.4)" onmousedown="handlePrint(evt)">
            <rect height="23.33753581" id="paper" rx="2" style="fill:#f2f5e9;fill-rule:evenodd;stroke:#111111;stroke-width:3.224;stroke-linejoin:round;" transform="matrix(1.000000,0.000000,-0.339266,0.940691,0.000000,0.000000)" width="25.55231285" x="26.69387353" y="7.36162977"/>
            <rect height="26.272097" id="body" rx="2" style="fill:#404040;fill-rule:evenodd;stroke:#111111;stroke-width:3.125;stroke-linejoin:round;" width="50" x="4.5295201" y="27.078951"/>
            <rect height="8.27750969" id="tray" style="fill:#d2d5c9;fill-rule:evenodd;stroke:#111111;stroke-width:3.125;stroke-linecap:round;stroke-linejoin:round;" width="40" x="10.28778839" y="44.96812282"/>
          </g>
        </svg>
</svg>
