<?xml version="1.0" encoding="UTF-8" standalone="no"?>
<!DOCTYPE svg PUBLIC "-//W3C//DTD SVG 1.1//EN"
 "http://www.w3.org/Graphics/SVG/1.1/DTD/svg11.dtd">
<!-- Generated by graphviz version 2.28.0 (20120217.0315)
 -->
<!-- Title: G Pages: 1 -->
<!--zoomable 548 -->
<svg id="main" version="1.1" xmlns="http://www.w3.org/2000/svg" xmlns:xlink="http://www.w3.org/1999/xlink" xml:space="preserve" onload="init(evt)">
        <defs>
                <circle id="rim" cx="0" cy="0" r="7"/>
                <circle id="rim2" cx="0" cy="0" r="3.5"/>
                <g id="zoomPlus">
                        <use xlink:href="#rim" fill="#404040">
                                <set attributeName="fill" to="#808080" begin="zoomplus.mouseover" end="zoomplus.mouseout"/>
                        </use>
                        <path d="M-4,0h8M0,-4v8" fill="none" stroke="white" stroke-width="1.5" pointer-events="none"/>
                </g>
                <g id="zoomMin">
                        <use xlink:href="#rim" fill="#404040">
                                <set attributeName="fill" to="#808080" begin="zoomminus.mouseover" end="zoomminus.mouseout"/>
                        </use>
                        <path d="M-4,0h8" fill="none" stroke="white" stroke-width="1.5" pointer-events="none"/>
                </g>
                <g id="dirArrow">
                        <path fill="none" stroke="white" stroke-width="1.5" d="M0,-3.0v7 M-2.5,-0.5L0,-3.0L2.5,-0.5"/>
                </g>
               <g id="resetDef">
                       <use xlink:href="#rim2" fill="#404040">
                               <set attributeName="fill" to="#808080" begin="reset.mouseover" end="reset.mouseout"/>
                       </use>
               </g>
        </defs>

<script type="text/javascript">
var viewWidth = 1334;
var viewHeight = 548;
var sectionId = 'dynsection-4';
</script>
<script xlink:href="../../svgpan.js"/>
<svg id="graph" class="graph">
<g id="viewport">
<title>G</title>
<!-- Node1 -->
<g id="node1" class="node"><title>Node1</title>
<polygon fill="#bfbfbf" stroke="black" points="0.5,-213.952 0.5,-232.952 149.5,-232.952 149.5,-213.952 0.5,-213.952"/>
<text text-anchor="middle" x="75" y="-220.952" font-family="DejaVuSansMono" font-size="10.00">xmpp_core_route_client</text>
</g>
<!-- Node2 -->
<g id="node3" class="node"><title>Node2</title>
<a xlink:href="../../d3/d5a/jid_8c.html#a3d51f2b27d20189e523b0d0b2a77e4a9" target="_top" xlink:title="Converts a JID to a newly allocated string.">
<polygon fill="none" stroke="black" points="831.5,-517.952 831.5,-536.952 908.5,-536.952 908.5,-517.952 831.5,-517.952"/>
<text text-anchor="middle" x="870" y="-524.952" font-family="DejaVuSansMono" font-size="10.00">jid_to_str</text>
</a>
</g>
<!-- Node1&#45;&gt;Node2 -->
<g id="edge2" class="edge"><title>Node1&#45;&gt;Node2</title>
<path fill="none" stroke="midnightblue" d="M78.9547,-233.216C88.7616,-263.944 123.226,-359.522 186,-408.452 380.399,-559.983 700.829,-545.233 821.265,-533.265"/>
<polygon fill="midnightblue" stroke="midnightblue" points="821.691,-536.74 831.278,-532.23 820.971,-529.777 821.691,-536.74"/>
</g>
<!-- Node3 -->
<g id="node5" class="node"><title>Node3</title>
<a xlink:href="../../dd/d4d/xmpp__client_8c.html#af963b026952bdbc45a4df0fa3d69b641" target="_top" xlink:title="Return the JID for this client.">
<polygon fill="none" stroke="black" points="816.5,-460.952 816.5,-479.952 923.5,-479.952 923.5,-460.952 816.5,-460.952"/>
<text text-anchor="middle" x="870" y="-467.952" font-family="DejaVuSansMono" font-size="10.00">xmpp_client_jid</text>
</a>
</g>
<!-- Node1&#45;&gt;Node3 -->
<g id="edge4" class="edge"><title>Node1&#45;&gt;Node3</title>
<path fill="none" stroke="midnightblue" d="M81.9375,-233.036C96.691,-256.086 137.357,-315.101 186,-347.452 338.489,-448.871 395.332,-450.493 576,-480.452 654.675,-493.499 746.804,-486.829 806.445,-479.69"/>
<polygon fill="midnightblue" stroke="midnightblue" points="806.967,-483.153 816.461,-478.45 806.107,-476.206 806.967,-483.153"/>
</g>
<!-- Node4 -->
<g id="node7" class="node"><title>Node4</title>
<a xlink:href="../../d1/d59/xmpp__stanza_8c.html#a513b6e2da3dce364271ba9315d7b3d95" target="_top" xlink:title="Returns the stanza (and its children) packed into a null&#45;terminated string.">
<polygon fill="none" stroke="black" points="807.5,-343.952 807.5,-362.952 932.5,-362.952 932.5,-343.952 807.5,-343.952"/>
<text text-anchor="middle" x="870" y="-350.952" font-family="DejaVuSansMono" font-size="10.00">xmpp_stanza_string</text>
</a>
</g>
<!-- Node1&#45;&gt;Node4 -->
<g id="edge6" class="edge"><title>Node1&#45;&gt;Node4</title>
<path fill="none" stroke="midnightblue" d="M109.507,-213.837C231.526,-179.644 650.792,-69.5787 762,-138.452 798.414,-161.004 845.3,-285.846 862.394,-334.26"/>
<polygon fill="midnightblue" stroke="midnightblue" points="859.143,-335.568 865.743,-343.855 865.752,-333.26 859.143,-335.568"/>
</g>
<!-- Node9 -->
<g id="node17" class="node"><title>Node9</title>
<a xlink:href="../../d4/d8e/client__socket_8c.html#a7cf0a0cfe0cf2bdccee28f6eab9aa632" target="_top" xlink:title="Send all data in a buffer to the connected socket.">
<polygon fill="none" stroke="black" points="798.5,-149.952 798.5,-168.952 941.5,-168.952 941.5,-149.952 798.5,-149.952"/>
<text text-anchor="middle" x="870" y="-156.952" font-family="DejaVuSansMono" font-size="10.00">client_socket_sendall</text>
</a>
</g>
<!-- Node1&#45;&gt;Node9 -->
<g id="edge16" class="edge"><title>Node1&#45;&gt;Node9</title>
<path fill="none" stroke="midnightblue" d="M81.2867,-213.645C94.8641,-189.641 133.607,-128.239 186,-105.452 303.379,-54.4028 637.479,-75.8117 762,-105.452 793.387,-112.924 826.006,-131.155 846.85,-144.37"/>
<polygon fill="midnightblue" stroke="midnightblue" points="844.997,-147.34 855.288,-149.857 848.812,-141.471 844.997,-147.34"/>
</g>
<!-- Node11 -->
<g id="node21" class="node"><title>Node11</title>
<a xlink:href="../../dd/d4d/xmpp__client_8c.html#a07c89140b5b826454868ac9395e2efd7" target="_top" xlink:title="Return the socket used to communicate with this client.">
<polygon fill="none" stroke="black" points="807.5,-33.9525 807.5,-52.9525 932.5,-52.9525 932.5,-33.9525 807.5,-33.9525"/>
<text text-anchor="middle" x="870" y="-40.9525" font-family="DejaVuSansMono" font-size="10.00">xmpp_client_socket</text>
</a>
</g>
<!-- Node1&#45;&gt;Node11 -->
<g id="edge20" class="edge"><title>Node1&#45;&gt;Node11</title>
<path fill="none" stroke="midnightblue" d="M79.5631,-213.694C90.4035,-185.621 125.962,-104.617 186,-72.4525 397.693,40.9584 701.459,-6.80038 819.478,-31.7977"/>
<polygon fill="midnightblue" stroke="midnightblue" points="818.803,-35.2327 829.317,-33.9209 820.28,-28.3902 818.803,-35.2327"/>
</g>
<!-- Node12 -->
<g id="node23" class="node"><title>Node12</title>
<a xlink:href="../../d0/df0/xmpp__server_8c.html#a79e02871228c509de0c70961d74a1bcb" target="_top" xlink:title="Attempt to cleanly disconnect a client, and clean up its resources.">
<polygon fill="none" stroke="black" points="186.5,-318.952 186.5,-337.952 377.5,-337.952 377.5,-318.952 186.5,-318.952"/>
<text text-anchor="middle" x="282" y="-325.952" font-family="DejaVuSansMono" font-size="10.00">xmpp_server_disconnect_client</text>
</a>
</g>
<!-- Node1&#45;&gt;Node12 -->
<g id="edge22" class="edge"><title>Node1&#45;&gt;Node12</title>
<path fill="none" stroke="midnightblue" d="M94.5539,-232.956C130.748,-251.494 210.936,-292.566 253.391,-314.311"/>
<polygon fill="midnightblue" stroke="midnightblue" points="251.844,-317.451 262.34,-318.895 255.035,-311.221 251.844,-317.451"/>
</g>
<!-- Node5 -->
<g id="node9" class="node"><title>Node5</title>
<a xlink:href="../../d1/d59/xmpp__stanza_8c.html#aae8c30c30fcbc2325d34897f8035ca46" target="_top" xlink:title="Function that gets called recursively to convert a stanza to a string.">
<polygon fill="none" stroke="black" points="996.5,-343.952 996.5,-362.952 1085.5,-362.952 1085.5,-343.952 996.5,-343.952"/>
<text text-anchor="middle" x="1041" y="-350.952" font-family="DejaVuSansMono" font-size="10.00">stanza_tostr</text>
</a>
</g>
<!-- Node4&#45;&gt;Node5 -->
<g id="edge8" class="edge"><title>Node4&#45;&gt;Node5</title>
<path fill="none" stroke="midnightblue" d="M932.97,-353.452C950.367,-353.452 969.138,-353.452 986.029,-353.452"/>
<polygon fill="midnightblue" stroke="midnightblue" points="986.274,-356.953 996.274,-353.452 986.274,-349.953 986.274,-356.953"/>
</g>
<!-- Node6 -->
<g id="node11" class="node"><title>Node6</title>
<a xlink:href="../../d1/dc2/xmpp__parser_8c.html#acce8bfe5926da4e64c3b5038dc683618" target="_top" xlink:title="xmpp_parser_namespace_prefix">
<polygon fill="none" stroke="black" points="1140.5,-381.952 1140.5,-400.952 1325.5,-400.952 1325.5,-381.952 1140.5,-381.952"/>
<text text-anchor="middle" x="1233" y="-388.952" font-family="DejaVuSansMono" font-size="10.00">xmpp_parser_namespace_prefix</text>
</a>
</g>
<!-- Node5&#45;&gt;Node6 -->
<g id="edge10" class="edge"><title>Node5&#45;&gt;Node6</title>
<path fill="none" stroke="midnightblue" d="M1085.59,-362.17C1111.95,-367.443 1145.87,-374.227 1174.43,-379.938"/>
<polygon fill="midnightblue" stroke="midnightblue" points="1173.79,-383.38 1184.28,-381.909 1175.16,-376.516 1173.79,-383.38"/>
</g>
<!-- Node7 -->
<g id="node13" class="node"><title>Node7</title>
<a xlink:href="../../d1/dc2/xmpp__parser_8c.html#afde3cf0e74a12bfe4ac90fa8dbae51a0" target="_top" xlink:title="xmpp_parser_namespace_uri">
<polygon fill="none" stroke="black" points="1149.5,-343.952 1149.5,-362.952 1316.5,-362.952 1316.5,-343.952 1149.5,-343.952"/>
<text text-anchor="middle" x="1233" y="-350.952" font-family="DejaVuSansMono" font-size="10.00">xmpp_parser_namespace_uri</text>
</a>
</g>
<!-- Node5&#45;&gt;Node7 -->
<g id="edge12" class="edge"><title>Node5&#45;&gt;Node7</title>
<path fill="none" stroke="midnightblue" d="M1085.59,-353.452C1101.66,-353.452 1120.53,-353.452 1139.28,-353.452"/>
<polygon fill="midnightblue" stroke="midnightblue" points="1139.37,-356.953 1149.37,-353.452 1139.37,-349.953 1139.37,-356.953"/>
</g>
<!-- Node8 -->
<g id="node15" class="node"><title>Node8</title>
<a xlink:href="../../d1/dc2/xmpp__parser_8c.html#af924e15caac53b347a48878fcb046bc4" target="_top" xlink:title="Return the next namespace in the namespace list.">
<polygon fill="none" stroke="black" points="1146.5,-305.952 1146.5,-324.952 1319.5,-324.952 1319.5,-305.952 1146.5,-305.952"/>
<text text-anchor="middle" x="1233" y="-312.952" font-family="DejaVuSansMono" font-size="10.00">xmpp_parser_namespace_next</text>
</a>
</g>
<!-- Node5&#45;&gt;Node8 -->
<g id="edge14" class="edge"><title>Node5&#45;&gt;Node8</title>
<path fill="none" stroke="midnightblue" d="M1085.59,-344.735C1111.95,-339.462 1145.87,-332.677 1174.43,-326.967"/>
<polygon fill="midnightblue" stroke="midnightblue" points="1175.16,-330.389 1184.28,-324.996 1173.79,-323.525 1175.16,-330.389"/>
</g>
<!-- Node10 -->
<g id="node19" class="node"><title>Node10</title>
<a xlink:href="../../d4/d8e/client__socket_8c.html#a164381b69f823fab1b8bce59ca03aefe" target="_top" xlink:title="Send some data to a client_socket.">
<polygon fill="none" stroke="black" points="978.5,-149.952 978.5,-168.952 1103.5,-168.952 1103.5,-149.952 978.5,-149.952"/>
<text text-anchor="middle" x="1041" y="-156.952" font-family="DejaVuSansMono" font-size="10.00">client_socket_send</text>
</a>
</g>
<!-- Node9&#45;&gt;Node10 -->
<g id="edge18" class="edge"><title>Node9&#45;&gt;Node10</title>
<path fill="none" stroke="midnightblue" d="M941.692,-159.452C950.468,-159.452 959.449,-159.452 968.242,-159.452"/>
<polygon fill="midnightblue" stroke="midnightblue" points="968.453,-162.953 978.453,-159.452 968.453,-155.953 968.453,-162.953"/>
</g>
<!-- Node13 -->
<g id="node25" class="node"><title>Node13</title>
<a xlink:href="../../dd/d4d/xmpp__client_8c.html#a5ff8a826aface187b00ffcdfb7ce125a" target="_top" xlink:title="Return the server this client is connected to.">
<polygon fill="none" stroke="black" points="414.5,-337.952 414.5,-356.952 539.5,-356.952 539.5,-337.952 414.5,-337.952"/>
<text text-anchor="middle" x="477" y="-344.952" font-family="DejaVuSansMono" font-size="10.00">xmpp_client_server</text>
</a>
</g>
<!-- Node12&#45;&gt;Node13 -->
<g id="edge24" class="edge"><title>Node12&#45;&gt;Node13</title>
<path fill="none" stroke="midnightblue" d="M377.521,-337.758C386.514,-338.643 395.53,-339.531 404.256,-340.39"/>
<polygon fill="midnightblue" stroke="midnightblue" points="404.053,-343.886 414.347,-341.383 404.738,-336.92 404.053,-343.886"/>
</g>
<!-- Node14 -->
<g id="node27" class="node"><title>Node14</title>
<a xlink:href="../../dd/d4d/xmpp__client_8c.html#add2df61245a543667b6d98e3fcd57077" target="_top" xlink:title="xmpp_client_del">
<polygon fill="none" stroke="black" points="423.5,-299.952 423.5,-318.952 530.5,-318.952 530.5,-299.952 423.5,-299.952"/>
<text text-anchor="middle" x="477" y="-306.952" font-family="DejaVuSansMono" font-size="10.00">xmpp_client_del</text>
</a>
</g>
<!-- Node12&#45;&gt;Node14 -->
<g id="edge26" class="edge"><title>Node12&#45;&gt;Node14</title>
<path fill="none" stroke="midnightblue" d="M377.521,-319.147C389.587,-317.959 401.693,-316.768 413.086,-315.646"/>
<polygon fill="midnightblue" stroke="midnightblue" points="413.718,-319.101 423.327,-314.638 413.032,-312.135 413.718,-319.101"/>
</g>
<!-- Node15 -->
<g id="node29" class="node"><title>Node15</title>
<a xlink:href="../../d0/df0/xmpp__server_8c.html#af2e493f9f89b437fae7212b941c536cf" target="_top" xlink:title="Remove a callback from the list of routes for stanza delivery.">
<polygon fill="none" stroke="black" points="576.5,-185.952 576.5,-204.952 761.5,-204.952 761.5,-185.952 576.5,-185.952"/>
<text text-anchor="middle" x="669" y="-192.952" font-family="DejaVuSansMono" font-size="10.00">xmpp_server_del_stanza_route</text>
</a>
</g>
<!-- Node14&#45;&gt;Node15 -->
<g id="edge28" class="edge"><title>Node14&#45;&gt;Node15</title>
<path fill="none" stroke="midnightblue" d="M484.862,-299.823C499.312,-280.323 534.95,-236.177 576,-214.452 580.48,-212.082 585.228,-210.006 590.113,-208.19"/>
<polygon fill="midnightblue" stroke="midnightblue" points="591.267,-211.495 599.642,-205.006 589.048,-204.856 591.267,-211.495"/>
</g>
<!-- Node16 -->
<g id="node31" class="node"><title>Node16</title>
<a xlink:href="../../d6/d13/xmpp__core_8c.html#a3b41e83061abd7ed5b258c7aa7dda0d6" target="_top" xlink:title="An xmpp_server stanza route for stanzas directed to a local client.">
<polygon fill="none" stroke="black" points="594.5,-451.952 594.5,-470.952 743.5,-470.952 743.5,-451.952 594.5,-451.952"/>
<text text-anchor="middle" x="669" y="-458.952" font-family="DejaVuSansMono" font-size="10.00">xmpp_core_route_client</text>
</a>
</g>
<!-- Node14&#45;&gt;Node16 -->
<g id="edge30" class="edge"><title>Node14&#45;&gt;Node16</title>
<path fill="none" stroke="midnightblue" d="M526.372,-319.012C531.394,-321.475 536.083,-324.568 540,-328.452 577.73,-365.863 536.559,-406.85 576,-442.452 578.83,-445.007 581.91,-447.253 585.171,-449.227"/>
<polygon fill="midnightblue" stroke="midnightblue" points="583.682,-452.396 594.178,-453.836 586.871,-446.165 583.682,-452.396"/>
</g>
<!-- Node17 -->
<g id="node39" class="node"><title>Node17</title>
<a xlink:href="../../d3/d5a/jid_8c.html#ab83fd5aae95de2c9d38fb9d9cd161580" target="_top" xlink:title="Cleans up and frees an existing JID.">
<polygon fill="none" stroke="black" points="639.5,-147.952 639.5,-166.952 698.5,-166.952 698.5,-147.952 639.5,-147.952"/>
<text text-anchor="middle" x="669" y="-154.952" font-family="DejaVuSansMono" font-size="10.00">jid_del</text>
</a>
</g>
<!-- Node14&#45;&gt;Node17 -->
<g id="edge44" class="edge"><title>Node14&#45;&gt;Node17</title>
<path fill="none" stroke="midnightblue" d="M482.061,-299.861C493.108,-275.022 526.248,-208.322 576,-176.452 591.695,-166.399 611.711,-161.535 629.062,-159.231"/>
<polygon fill="midnightblue" stroke="midnightblue" points="629.895,-162.661 639.459,-158.104 629.14,-155.702 629.895,-162.661"/>
</g>
<!-- Node18 -->
<g id="node41" class="node"><title>Node18</title>
<a xlink:href="../../d0/deb/event_8c.html#a9c3c87f32e90d8fa0245d154fac61da9" target="_top" xlink:title="Deregisters a callback for a particular file descriptor.">
<polygon fill="none" stroke="black" points="585.5,-413.952 585.5,-432.952 752.5,-432.952 752.5,-413.952 585.5,-413.952"/>
<text text-anchor="middle" x="669" y="-420.952" font-family="DejaVuSansMono" font-size="10.00">event_deregister_callback</text>
</a>
</g>
<!-- Node14&#45;&gt;Node18 -->
<g id="edge46" class="edge"><title>Node14&#45;&gt;Node18</title>
<path fill="none" stroke="midnightblue" d="M524.613,-318.985C530.184,-321.449 535.486,-324.55 540,-328.452 568.274,-352.897 546.612,-381.359 576,-404.452 578.208,-406.188 580.535,-407.775 582.956,-409.228"/>
<polygon fill="midnightblue" stroke="midnightblue" points="581.586,-412.459 592.081,-413.915 584.785,-406.232 581.586,-412.459"/>
</g>
<!-- Node19 -->
<g id="node43" class="node"><title>Node19</title>
<a xlink:href="../../d0/df0/xmpp__server_8c.html#ac84f99d96a630f056f36dc0aa9cac9dd" target="_top" xlink:title="Gets the event loop instance this server is using.">
<polygon fill="none" stroke="black" points="612.5,-375.952 612.5,-394.952 725.5,-394.952 725.5,-375.952 612.5,-375.952"/>
<text text-anchor="middle" x="669" y="-382.952" font-family="DejaVuSansMono" font-size="10.00">xmpp_server_loop</text>
</a>
</g>
<!-- Node14&#45;&gt;Node19 -->
<g id="edge48" class="edge"><title>Node14&#45;&gt;Node19</title>
<path fill="none" stroke="midnightblue" d="M519.652,-318.962C526.722,-321.475 533.78,-324.597 540,-328.452 559.774,-340.709 555.674,-355.135 576,-366.452 584.058,-370.939 593.044,-374.37 602.157,-376.994"/>
<polygon fill="midnightblue" stroke="midnightblue" points="601.499,-380.439 612.056,-379.536 603.24,-373.659 601.499,-380.439"/>
</g>
<!-- Node20 -->
<g id="node45" class="node"><title>Node20</title>
<a xlink:href="../../d4/d8e/client__socket_8c.html#a66a8a7fa65db357c88039c8589c7aaa9" target="_top" xlink:title="client_socket_fd">
<polygon fill="none" stroke="black" points="612.5,-337.952 612.5,-356.952 725.5,-356.952 725.5,-337.952 612.5,-337.952"/>
<text text-anchor="middle" x="669" y="-344.952" font-family="DejaVuSansMono" font-size="10.00">client_socket_fd</text>
</a>
</g>
<!-- Node14&#45;&gt;Node20 -->
<g id="edge50" class="edge"><title>Node14&#45;&gt;Node20</title>
<path fill="none" stroke="midnightblue" d="M525.945,-319.041C551.582,-324.169 583.336,-330.52 610.316,-335.916"/>
<polygon fill="midnightblue" stroke="midnightblue" points="609.908,-339.403 620.4,-337.932 611.28,-332.539 609.908,-339.403"/>
</g>
<!-- Node21 -->
<g id="node47" class="node"><title>Node21</title>
<a xlink:href="../../d4/d8e/client__socket_8c.html#abb4fb0de12fd5f701186d9b641ae0905" target="_top" xlink:title="Closes a client_socket.">
<polygon fill="none" stroke="black" points="603.5,-299.952 603.5,-318.952 734.5,-318.952 734.5,-299.952 603.5,-299.952"/>
<text text-anchor="middle" x="669" y="-306.952" font-family="DejaVuSansMono" font-size="10.00">client_socket_close</text>
</a>
</g>
<!-- Node14&#45;&gt;Node21 -->
<g id="edge52" class="edge"><title>Node14&#45;&gt;Node21</title>
<path fill="none" stroke="midnightblue" d="M530.673,-309.452C550.021,-309.452 572.313,-309.452 593.232,-309.452"/>
<polygon fill="midnightblue" stroke="midnightblue" points="593.373,-312.953 603.373,-309.452 593.373,-305.953 593.373,-312.953"/>
</g>
<!-- Node22 -->
<g id="node49" class="node"><title>Node22</title>
<a xlink:href="../../d4/d8e/client__socket_8c.html#a9983d6e2b69132508044b4c07bca147e" target="_top" xlink:title="Closes, cleans up and deallocates a client_socket structure.">
<polygon fill="none" stroke="black" points="609.5,-261.952 609.5,-280.952 728.5,-280.952 728.5,-261.952 609.5,-261.952"/>
<text text-anchor="middle" x="669" y="-268.952" font-family="DejaVuSansMono" font-size="10.00">client_socket_del</text>
</a>
</g>
<!-- Node14&#45;&gt;Node22 -->
<g id="edge54" class="edge"><title>Node14&#45;&gt;Node22</title>
<path fill="none" stroke="midnightblue" d="M525.945,-299.863C551.582,-294.736 583.336,-288.385 610.316,-282.989"/>
<polygon fill="midnightblue" stroke="midnightblue" points="611.28,-286.366 620.4,-280.973 609.908,-279.502 611.28,-286.366"/>
</g>
<!-- Node23 -->
<g id="node51" class="node"><title>Node23</title>
<a xlink:href="../../d1/dc2/xmpp__parser_8c.html#a2620ca01bcf1a68025ec51681c6416f2" target="_top" xlink:title="xmpp_parser_del">
<polygon fill="none" stroke="black" points="615.5,-223.952 615.5,-242.952 722.5,-242.952 722.5,-223.952 615.5,-223.952"/>
<text text-anchor="middle" x="669" y="-230.952" font-family="DejaVuSansMono" font-size="10.00">xmpp_parser_del</text>
</a>
</g>
<!-- Node14&#45;&gt;Node23 -->
<g id="edge56" class="edge"><title>Node14&#45;&gt;Node23</title>
<path fill="none" stroke="midnightblue" d="M491.25,-299.857C509.457,-287.127 543.644,-264.825 576,-252.452 585.254,-248.914 595.297,-245.985 605.234,-243.575"/>
<polygon fill="midnightblue" stroke="midnightblue" points="606.124,-246.962 615.101,-241.335 604.574,-240.136 606.124,-246.962"/>
</g>
<!-- Node16&#45;&gt;Node2 -->
<g id="edge32" class="edge"><title>Node16&#45;&gt;Node2</title>
<path fill="none" stroke="midnightblue" d="M698.936,-471.049C733.669,-482.569 792.037,-501.927 830.537,-514.696"/>
<polygon fill="midnightblue" stroke="midnightblue" points="829.758,-518.125 840.352,-517.951 831.962,-511.481 829.758,-518.125"/>
</g>
<!-- Node16&#45;&gt;Node3 -->
<g id="edge34" class="edge"><title>Node16&#45;&gt;Node3</title>
<path fill="none" stroke="midnightblue" d="M743.535,-464.778C764.089,-465.708 786.232,-466.709 806.11,-467.608"/>
<polygon fill="midnightblue" stroke="midnightblue" points="806.13,-471.113 816.278,-468.068 806.446,-464.12 806.13,-471.113"/>
</g>
<!-- Node16&#45;&gt;Node4 -->
<g id="edge36" class="edge"><title>Node16&#45;&gt;Node4</title>
<path fill="none" stroke="midnightblue" d="M736.138,-451.904C745.062,-449.44 753.918,-446.344 762,-442.452 799.285,-424.5 834.572,-390.734 853.847,-370.349"/>
<polygon fill="midnightblue" stroke="midnightblue" points="856.419,-372.723 860.644,-363.006 851.282,-367.967 856.419,-372.723"/>
</g>
<!-- Node16&#45;&gt;Node9 -->
<g id="edge38" class="edge"><title>Node16&#45;&gt;Node9</title>
<path fill="none" stroke="midnightblue" d="M743.743,-453.749C750.397,-450.907 756.635,-447.218 762,-442.452 799.826,-408.849 780.48,-381.919 798,-334.452 819.114,-277.248 847.022,-210.8 860.709,-178.729"/>
<polygon fill="midnightblue" stroke="midnightblue" points="864.056,-179.805 864.775,-169.234 857.621,-177.049 864.056,-179.805"/>
</g>
<!-- Node16&#45;&gt;Node11 -->
<g id="edge40" class="edge"><title>Node16&#45;&gt;Node11</title>
<path fill="none" stroke="midnightblue" d="M743.912,-455.227C750.704,-452.131 756.925,-447.978 762,-442.452 807.717,-392.674 773.229,-203.336 798,-140.452 810.337,-109.133 835.314,-78.7728 852.105,-60.5964"/>
<polygon fill="midnightblue" stroke="midnightblue" points="854.83,-62.8086 859.169,-53.1428 849.749,-57.9935 854.83,-62.8086"/>
</g>
<!-- Node16&#45;&gt;Node12 -->
<g id="edge42" class="edge"><title>Node16&#45;&gt;Node12</title>
<path fill="none" stroke="midnightblue" d="M614.112,-451.898C601.506,-449.23 588.2,-446.058 576,-442.452 477.649,-413.386 365.834,-365.577 313.298,-342.195"/>
<polygon fill="midnightblue" stroke="midnightblue" points="314.456,-338.878 303.899,-337.99 311.598,-345.268 314.456,-338.878"/>
</g>
</g>
</svg>
        <g id="navigator" transform="translate(0 0)" fill="#404254">
                <rect fill="#f2f5e9" fill-opacity="0.5" stroke="#606060" stroke-width=".5" x="0" y="0" width="60" height="60"/>
                <use id="zoomplus" xlink:href="#zoomPlus" x="17" y="9" onmousedown="handleZoom(evt,'in')"/>
                <use id="zoomminus" xlink:href="#zoomMin" x="42" y="9" onmousedown="handleZoom(evt,'out')"/>
                <use id="reset" xlink:href="#resetDef" x="30" y="36" onmousedown="handleReset()"/>
                <g id="arrowUp" xlink:href="#dirArrow" transform="translate(30 24)" onmousedown="handlePan(0,-1)">
                  <use xlink:href="#rim" fill="#404040">
                        <set attributeName="fill" to="#808080" begin="arrowUp.mouseover" end="arrowUp.mouseout"/>
                  </use>
                  <path fill="none" stroke="white" stroke-width="1.5" d="M0,-3.0v7 M-2.5,-0.5L0,-3.0L2.5,-0.5"/>
                </g>
                <g id="arrowRight" xlink:href="#dirArrow" transform="rotate(90) translate(36 -43)" onmousedown="handlePan(1,0)">
                  <use xlink:href="#rim" fill="#404040">
                        <set attributeName="fill" to="#808080" begin="arrowRight.mouseover" end="arrowRight.mouseout"/>
                  </use>
                  <path fill="none" stroke="white" stroke-width="1.5" d="M0,-3.0v7 M-2.5,-0.5L0,-3.0L2.5,-0.5"/>
                </g>
                <g id="arrowDown" xlink:href="#dirArrow" transform="rotate(180) translate(-30 -48)" onmousedown="handlePan(0,1)">
                  <use xlink:href="#rim" fill="#404040">
                        <set attributeName="fill" to="#808080" begin="arrowDown.mouseover" end="arrowDown.mouseout"/>
                  </use>
                  <path fill="none" stroke="white" stroke-width="1.5" d="M0,-3.0v7 M-2.5,-0.5L0,-3.0L2.5,-0.5"/>
                </g>
                <g id="arrowLeft" xlink:href="#dirArrow" transform="rotate(270) translate(-36 17)" onmousedown="handlePan(-1,0)">
                  <use xlink:href="#rim" fill="#404040">
                        <set attributeName="fill" to="#808080" begin="arrowLeft.mouseover" end="arrowLeft.mouseout"/>
                  </use>
                  <path fill="none" stroke="white" stroke-width="1.5" d="M0,-3.0v7 M-2.5,-0.5L0,-3.0L2.5,-0.5"/>
                </g>
        </g>
        <svg viewBox="0 0 25 25" width="100%" height="30px" preserveAspectRatio="xMaxYMin meet"> 
          <g id="printButton" transform="scale(0.4 0.4)" onmousedown="handlePrint(evt)">
            <rect height="23.33753581" id="paper" rx="2" style="fill:#f2f5e9;fill-rule:evenodd;stroke:#111111;stroke-width:3.224;stroke-linejoin:round;" transform="matrix(1.000000,0.000000,-0.339266,0.940691,0.000000,0.000000)" width="25.55231285" x="26.69387353" y="7.36162977"/>
            <rect height="26.272097" id="body" rx="2" style="fill:#404040;fill-rule:evenodd;stroke:#111111;stroke-width:3.125;stroke-linejoin:round;" width="50" x="4.5295201" y="27.078951"/>
            <rect height="8.27750969" id="tray" style="fill:#d2d5c9;fill-rule:evenodd;stroke:#111111;stroke-width:3.125;stroke-linecap:round;stroke-linejoin:round;" width="40" x="10.28778839" y="44.96812282"/>
          </g>
        </svg>
</svg>
