<?xml version="1.0" encoding="UTF-8" standalone="no"?>
<!DOCTYPE svg PUBLIC "-//W3C//DTD SVG 1.1//EN"
 "http://www.w3.org/Graphics/SVG/1.1/DTD/svg11.dtd">
<!-- Generated by graphviz version 2.28.0 (20120217.0315)
 -->
<!-- Title: G Pages: 1 -->
<!--zoomable 178 -->
<svg id="main" version="1.1" xmlns="http://www.w3.org/2000/svg" xmlns:xlink="http://www.w3.org/1999/xlink" xml:space="preserve" onload="init(evt)">
        <defs>
                <circle id="rim" cx="0" cy="0" r="7"/>
                <circle id="rim2" cx="0" cy="0" r="3.5"/>
                <g id="zoomPlus">
                        <use xlink:href="#rim" fill="#404040">
                                <set attributeName="fill" to="#808080" begin="zoomplus.mouseover" end="zoomplus.mouseout"/>
                        </use>
                        <path d="M-4,0h8M0,-4v8" fill="none" stroke="white" stroke-width="1.5" pointer-events="none"/>
                </g>
                <g id="zoomMin">
                        <use xlink:href="#rim" fill="#404040">
                                <set attributeName="fill" to="#808080" begin="zoomminus.mouseover" end="zoomminus.mouseout"/>
                        </use>
                        <path d="M-4,0h8" fill="none" stroke="white" stroke-width="1.5" pointer-events="none"/>
                </g>
                <g id="dirArrow">
                        <path fill="none" stroke="white" stroke-width="1.5" d="M0,-3.0v7 M-2.5,-0.5L0,-3.0L2.5,-0.5"/>
                </g>
               <g id="resetDef">
                       <use xlink:href="#rim2" fill="#404040">
                               <set attributeName="fill" to="#808080" begin="reset.mouseover" end="reset.mouseout"/>
                       </use>
               </g>
        </defs>

<script type="text/javascript">
var viewWidth = 1646;
var viewHeight = 178;
var sectionId = 'dynsection-5';
</script>
<script xlink:href="../../svgpan.js"/>
<svg id="graph" class="graph">
<g id="viewport">
<title>G</title>
<!-- Node1 -->
<g id="node1" class="node"><title>Node1</title>
<polygon fill="#bfbfbf" stroke="black" points="0.5,-95.5 0.5,-114.5 149.5,-114.5 149.5,-95.5 0.5,-95.5"/>
<text text-anchor="middle" x="75" y="-102.5" font-family="DejaVuSansMono" font-size="10.00">xmpp_core_route_client</text>
</g>
<!-- Node2 -->
<g id="node3" class="node"><title>Node2</title>
<a xlink:href="../../df/da9/xmpp__auth_8c.html#a603b4a63af3c4e4af99442805fe89ae8" target="_top" xlink:title="Step 15: Client binds a resource.">
<polygon fill="none" stroke="black" points="186.5,-133.5 186.5,-152.5 287.5,-152.5 287.5,-133.5 186.5,-133.5"/>
<text text-anchor="middle" x="237" y="-140.5" font-family="DejaVuSansMono" font-size="10.00">handle_bind_iq</text>
</a>
</g>
<!-- Node1&#45;&gt;Node2 -->
<g id="edge2" class="edge"><title>Node1&#45;&gt;Node2</title>
<path fill="none" stroke="midnightblue" d="M126.392,-116.968C148.813,-122.293 174.847,-128.476 195.916,-133.48"/>
<polygon fill="midnightblue" stroke="midnightblue" points="126.913,-113.495 116.375,-114.589 125.295,-120.305 126.913,-113.495"/>
</g>
<!-- Node12 -->
<g id="node24" class="node"><title>Node12</title>
<a xlink:href="../../d4/d2f/xmpp__client_8h.html#add2df61245a543667b6d98e3fcd57077" target="_top" xlink:title="xmpp_client_del">
<polygon fill="none" stroke="black" points="792.5,-57.5 792.5,-76.5 899.5,-76.5 899.5,-57.5 792.5,-57.5"/>
<text text-anchor="middle" x="846" y="-64.5" font-family="DejaVuSansMono" font-size="10.00">xmpp_client_del</text>
</a>
</g>
<!-- Node1&#45;&gt;Node12 -->
<g id="edge24" class="edge"><title>Node1&#45;&gt;Node12</title>
<path fill="none" stroke="midnightblue" d="M133.263,-93.633C194.73,-82.4371 295.371,-67 383,-67 383,-67 383,-67 541,-67 629.139,-67 731.652,-67 792.278,-67"/>
<polygon fill="midnightblue" stroke="midnightblue" points="132.569,-90.202 123.371,-95.46 133.84,-97.0856 132.569,-90.202"/>
</g>
<!-- Node3 -->
<g id="node5" class="node"><title>Node3</title>
<a xlink:href="../../df/da9/xmpp__auth_8c.html#a01804bd53eccc182ce76337fc0863e8d" target="_top" xlink:title="stream_bind_start">
<polygon fill="none" stroke="black" points="324.5,-133.5 324.5,-152.5 443.5,-152.5 443.5,-133.5 324.5,-133.5"/>
<text text-anchor="middle" x="384" y="-140.5" font-family="DejaVuSansMono" font-size="10.00">stream_bind_start</text>
</a>
</g>
<!-- Node2&#45;&gt;Node3 -->
<g id="edge4" class="edge"><title>Node2&#45;&gt;Node3</title>
<path fill="none" stroke="midnightblue" d="M297.961,-143C306.655,-143 315.597,-143 324.266,-143"/>
<polygon fill="midnightblue" stroke="midnightblue" points="297.901,-139.5 287.901,-143 297.901,-146.5 297.901,-139.5"/>
</g>
<!-- Node4 -->
<g id="node7" class="node"><title>Node4</title>
<a xlink:href="../../df/da9/xmpp__auth_8c.html#afb770a216868aa3fb43813b19d2a0115" target="_top" xlink:title="Begins SASL PLAIN authentication.">
<polygon fill="none" stroke="black" points="480.5,-133.5 480.5,-152.5 599.5,-152.5 599.5,-133.5 480.5,-133.5"/>
<text text-anchor="middle" x="540" y="-140.5" font-family="DejaVuSansMono" font-size="10.00">handle_sasl_plain</text>
</a>
</g>
<!-- Node3&#45;&gt;Node4 -->
<g id="edge6" class="edge"><title>Node3&#45;&gt;Node4</title>
<path fill="none" stroke="midnightblue" d="M453.894,-143C462.691,-143 471.631,-143 480.248,-143"/>
<polygon fill="midnightblue" stroke="midnightblue" points="453.66,-139.5 443.66,-143 453.66,-146.5 453.66,-139.5"/>
</g>
<!-- Node5 -->
<g id="node9" class="node"><title>Node5</title>
<a xlink:href="../../d3/d24/xmpp__auth_8h.html#ad3efd9ab093646bdfd8832c34ae2de4d" target="_top" xlink:title="Handler for the inital stream start to begin authentication.">
<polygon fill="none" stroke="black" points="957.5,-133.5 957.5,-152.5 1106.5,-152.5 1106.5,-133.5 957.5,-133.5"/>
<text text-anchor="middle" x="1032" y="-140.5" font-family="DejaVuSansMono" font-size="10.00">xmpp_auth_stream_start</text>
</a>
</g>
<!-- Node4&#45;&gt;Node5 -->
<g id="edge8" class="edge"><title>Node4&#45;&gt;Node5</title>
<path fill="none" stroke="midnightblue" d="M589.54,-154.625C604.362,-157.655 620.769,-160.492 636,-162 752.762,-173.562 782.971,-170.443 900,-162 925.672,-160.148 953.955,-156.28 977.651,-152.514"/>
<polygon fill="midnightblue" stroke="midnightblue" points="590.074,-151.16 579.565,-152.51 588.622,-158.008 590.074,-151.16"/>
</g>
<!-- Node10 -->
<g id="node19" class="node"><title>Node10</title>
<a xlink:href="../../df/da9/xmpp__auth_8c.html#afd7b12689591d40109a88ad108b5c3a2" target="_top" xlink:title="stream_sasl_start">
<polygon fill="none" stroke="black" points="636.5,-133.5 636.5,-152.5 755.5,-152.5 755.5,-133.5 636.5,-133.5"/>
<text text-anchor="middle" x="696" y="-140.5" font-family="DejaVuSansMono" font-size="10.00">stream_sasl_start</text>
</a>
</g>
<!-- Node4&#45;&gt;Node10 -->
<g id="edge18" class="edge"><title>Node4&#45;&gt;Node10</title>
<path fill="none" stroke="midnightblue" d="M609.894,-143C618.691,-143 627.631,-143 636.248,-143"/>
<polygon fill="midnightblue" stroke="midnightblue" points="609.66,-139.5 599.66,-143 609.66,-146.5 609.66,-139.5"/>
</g>
<!-- Node6 -->
<g id="node11" class="node"><title>Node6</title>
<a xlink:href="../../d4/d2f/xmpp__client_8h.html#a1619c0b8f58b2cf09a322bf34fbc3414" target="_top" xlink:title="xmpp_client_new">
<polygon fill="none" stroke="black" points="1164.5,-57.5 1164.5,-76.5 1271.5,-76.5 1271.5,-57.5 1164.5,-57.5"/>
<text text-anchor="middle" x="1218" y="-64.5" font-family="DejaVuSansMono" font-size="10.00">xmpp_client_new</text>
</a>
</g>
<!-- Node5&#45;&gt;Node6 -->
<g id="edge10" class="edge"><title>Node5&#45;&gt;Node6</title>
<path fill="none" stroke="midnightblue" d="M1114.79,-130.148C1119.37,-128.357 1123.8,-126.319 1128,-124 1148.36,-112.746 1144.52,-98.7167 1164,-86 1169.73,-82.2599 1176.29,-79.1445 1182.79,-76.5919"/>
<polygon fill="midnightblue" stroke="midnightblue" points="1113.52,-126.883 1105.24,-133.488 1115.83,-133.491 1113.52,-126.883"/>
</g>
<!-- Node7 -->
<g id="node13" class="node"><title>Node7</title>
<a xlink:href="../../d0/df0/xmpp__server_8c.html#a66363912ef1221a2574f9f99805fe8fd" target="_top" xlink:title="Callback for new client connections.">
<polygon fill="none" stroke="black" points="1311.5,-38.5 1311.5,-57.5 1412.5,-57.5 1412.5,-38.5 1311.5,-38.5"/>
<text text-anchor="middle" x="1362" y="-45.5" font-family="DejaVuSansMono" font-size="10.00">connect_client</text>
</a>
</g>
<!-- Node6&#45;&gt;Node7 -->
<g id="edge12" class="edge"><title>Node6&#45;&gt;Node7</title>
<path fill="none" stroke="midnightblue" d="M1282.02,-58.5682C1291.85,-57.2523 1301.89,-55.9088 1311.37,-54.6403"/>
<polygon fill="midnightblue" stroke="midnightblue" points="1281.32,-55.1297 1271.88,-59.9251 1282.25,-62.0679 1281.32,-55.1297"/>
</g>
<!-- Node8 -->
<g id="node15" class="node"><title>Node8</title>
<a xlink:href="../../d1/d2e/xmpp__server_8h.html#a27bfc8e4d424a8bc17ab21a4a09cdf92" target="_top" xlink:title="Allocates and initializes the XMPP server.">
<polygon fill="none" stroke="black" points="1452.5,-38.5 1452.5,-57.5 1559.5,-57.5 1559.5,-38.5 1452.5,-38.5"/>
<text text-anchor="middle" x="1506" y="-45.5" font-family="DejaVuSansMono" font-size="10.00">xmpp_server_new</text>
</a>
</g>
<!-- Node7&#45;&gt;Node8 -->
<g id="edge14" class="edge"><title>Node7&#45;&gt;Node8</title>
<path fill="none" stroke="midnightblue" d="M1422.73,-48C1432.53,-48 1442.62,-48 1452.23,-48"/>
<polygon fill="midnightblue" stroke="midnightblue" points="1422.66,-44.5001 1412.66,-48 1422.66,-51.5001 1422.66,-44.5001"/>
</g>
<!-- Node9 -->
<g id="node17" class="node"><title>Node9</title>
<a xlink:href="../../d0/d29/main_8c.html#a0ddf1224851353fc92bfbff6f499fa97" target="_top" xlink:title="main">
<polygon fill="none" stroke="black" points="1596.5,-19.5 1596.5,-38.5 1637.5,-38.5 1637.5,-19.5 1596.5,-19.5"/>
<text text-anchor="middle" x="1617" y="-26.5" font-family="DejaVuSansMono" font-size="10.00">main</text>
</a>
</g>
<!-- Node8&#45;&gt;Node9 -->
<g id="edge16" class="edge"><title>Node8&#45;&gt;Node9</title>
<path fill="none" stroke="midnightblue" d="M1569.45,-37.1151C1579.24,-35.4082 1588.68,-33.7622 1596.47,-32.404"/>
<polygon fill="midnightblue" stroke="midnightblue" points="1568.83,-33.6686 1559.58,-38.8339 1570.04,-40.5646 1568.83,-33.6686"/>
</g>
<!-- Node11 -->
<g id="node21" class="node"><title>Node11</title>
<a xlink:href="../../df/da9/xmpp__auth_8c.html#a8dd789e057b9812e4dd1aa524dfb6a65" target="_top" xlink:title="Begins TLS authentication.">
<polygon fill="none" stroke="black" points="792.5,-133.5 792.5,-152.5 899.5,-152.5 899.5,-133.5 792.5,-133.5"/>
<text text-anchor="middle" x="846" y="-140.5" font-family="DejaVuSansMono" font-size="10.00">handle_starttls</text>
</a>
</g>
<!-- Node10&#45;&gt;Node11 -->
<g id="edge20" class="edge"><title>Node10&#45;&gt;Node11</title>
<path fill="none" stroke="midnightblue" d="M766.085,-143C774.806,-143 783.619,-143 792.036,-143"/>
<polygon fill="midnightblue" stroke="midnightblue" points="765.919,-139.5 755.919,-143 765.919,-146.5 765.919,-139.5"/>
</g>
<!-- Node11&#45;&gt;Node5 -->
<g id="edge22" class="edge"><title>Node11&#45;&gt;Node5</title>
<path fill="none" stroke="midnightblue" d="M910.057,-143C925.285,-143 941.691,-143 957.356,-143"/>
<polygon fill="midnightblue" stroke="midnightblue" points="909.727,-139.5 899.727,-143 909.727,-146.5 909.727,-139.5"/>
</g>
<!-- Node12&#45;&gt;Node6 -->
<g id="edge26" class="edge"><title>Node12&#45;&gt;Node6</title>
<path fill="none" stroke="midnightblue" d="M909.851,-67C981.448,-67 1097.17,-67 1164.26,-67"/>
<polygon fill="midnightblue" stroke="midnightblue" points="909.619,-63.5001 899.619,-67 909.619,-70.5001 909.619,-63.5001"/>
</g>
<!-- Node12&#45;&gt;Node7 -->
<g id="edge42" class="edge"><title>Node12&#45;&gt;Node7</title>
<path fill="none" stroke="midnightblue" d="M909.997,-62.1098C973.929,-57.4094 1075.78,-50.6415 1164,-48 1214.08,-46.5004 1271.36,-46.7172 1311.19,-47.1769"/>
<polygon fill="midnightblue" stroke="midnightblue" points="909.395,-58.6447 899.681,-62.8745 909.912,-65.6256 909.395,-58.6447"/>
</g>
<!-- Node13 -->
<g id="node27" class="node"><title>Node13</title>
<a xlink:href="../../d1/d2e/xmpp__server_8h.html#af7d75415fd5671841797bf77bbc1a981" target="_top" xlink:title="Cleans up an XMPP server instance.">
<polygon fill="none" stroke="black" points="1308.5,-0.5 1308.5,-19.5 1415.5,-19.5 1415.5,-0.5 1308.5,-0.5"/>
<text text-anchor="middle" x="1362" y="-7.5" font-family="DejaVuSansMono" font-size="10.00">xmpp_server_del</text>
</a>
</g>
<!-- Node12&#45;&gt;Node13 -->
<g id="edge28" class="edge"><title>Node12&#45;&gt;Node13</title>
<path fill="none" stroke="midnightblue" d="M892.142,-54.9894C906.115,-51.6393 921.618,-48.2931 936,-46 1069.09,-24.7803 1227.75,-15.5368 1308.36,-11.966"/>
<polygon fill="midnightblue" stroke="midnightblue" points="891.15,-51.6288 882.275,-57.4145 892.821,-58.4265 891.15,-51.6288"/>
</g>
<!-- Node14 -->
<g id="node31" class="node"><title>Node14</title>
<a xlink:href="../../d1/d2e/xmpp__server_8h.html#a79e02871228c509de0c70961d74a1bcb" target="_top" xlink:title="Attempt to cleanly disconnect a client, and clean up its resources.">
<polygon fill="none" stroke="black" points="936.5,-95.5 936.5,-114.5 1127.5,-114.5 1127.5,-95.5 936.5,-95.5"/>
<text text-anchor="middle" x="1032" y="-102.5" font-family="DejaVuSansMono" font-size="10.00">xmpp_server_disconnect_client</text>
</a>
</g>
<!-- Node12&#45;&gt;Node14 -->
<g id="edge34" class="edge"><title>Node12&#45;&gt;Node14</title>
<path fill="none" stroke="midnightblue" d="M903.561,-78.681C929.654,-84.0699 960.238,-90.3861 984.903,-95.4799"/>
<polygon fill="midnightblue" stroke="midnightblue" points="903.932,-75.184 893.431,-76.589 902.516,-82.0393 903.932,-75.184"/>
</g>
<!-- Node13&#45;&gt;Node8 -->
<g id="edge32" class="edge"><title>Node13&#45;&gt;Node8</title>
<path fill="none" stroke="midnightblue" d="M1408.49,-22.1742C1428.13,-27.4287 1450.77,-33.4866 1469.18,-38.4141"/>
<polygon fill="midnightblue" stroke="midnightblue" points="1409.4,-18.7931 1398.83,-19.589 1407.59,-25.5552 1409.4,-18.7931"/>
</g>
<!-- Node13&#45;&gt;Node9 -->
<g id="edge30" class="edge"><title>Node13&#45;&gt;Node9</title>
<path fill="none" stroke="midnightblue" d="M1425.9,-14.7236C1481.84,-18.9246 1560.21,-24.81 1596.34,-27.5233"/>
<polygon fill="midnightblue" stroke="midnightblue" points="1425.96,-11.2187 1415.73,-13.9599 1425.44,-18.199 1425.96,-11.2187"/>
</g>
<!-- Node14&#45;&gt;Node1 -->
<g id="edge36" class="edge"><title>Node14&#45;&gt;Node1</title>
<path fill="none" stroke="midnightblue" d="M925.967,-105C860.184,-105 773.645,-105 697,-105 383,-105 383,-105 383,-105 303.185,-105 211.699,-105 149.506,-105"/>
<polygon fill="midnightblue" stroke="midnightblue" points="926.342,-108.5 936.342,-105 926.342,-101.5 926.342,-108.5"/>
</g>
<!-- Node15 -->
<g id="node34" class="node"><title>Node15</title>
<a xlink:href="../../d0/df0/xmpp__server_8c.html#abece91815ef240322d79073f5bfca1db" target="_top" xlink:title="Callback for new data from a client.">
<polygon fill="none" stroke="black" points="1176.5,-95.5 1176.5,-114.5 1259.5,-114.5 1259.5,-95.5 1176.5,-95.5"/>
<text text-anchor="middle" x="1218" y="-102.5" font-family="DejaVuSansMono" font-size="10.00">read_client</text>
</a>
</g>
<!-- Node14&#45;&gt;Node15 -->
<g id="edge38" class="edge"><title>Node14&#45;&gt;Node15</title>
<path fill="none" stroke="midnightblue" d="M1138.07,-105C1151.56,-105 1164.68,-105 1176.21,-105"/>
<polygon fill="midnightblue" stroke="midnightblue" points="1137.7,-101.5 1127.69,-105 1137.69,-108.5 1137.7,-101.5"/>
</g>
<!-- Node15&#45;&gt;Node7 -->
<g id="edge40" class="edge"><title>Node15&#45;&gt;Node7</title>
<path fill="none" stroke="midnightblue" d="M1256.1,-92.0166C1261.45,-90.0511 1266.88,-88.0081 1272,-86 1295.3,-76.8572 1321.63,-65.4843 1339.57,-57.5745"/>
<polygon fill="midnightblue" stroke="midnightblue" points="1254.84,-88.7519 1246.62,-95.4468 1257.22,-95.3339 1254.84,-88.7519"/>
</g>
</g>
</svg>
        <g id="navigator" transform="translate(0 0)" fill="#404254">
                <rect fill="#f2f5e9" fill-opacity="0.5" stroke="#606060" stroke-width=".5" x="0" y="0" width="60" height="60"/>
                <use id="zoomplus" xlink:href="#zoomPlus" x="17" y="9" onmousedown="handleZoom(evt,'in')"/>
                <use id="zoomminus" xlink:href="#zoomMin" x="42" y="9" onmousedown="handleZoom(evt,'out')"/>
                <use id="reset" xlink:href="#resetDef" x="30" y="36" onmousedown="handleReset()"/>
                <g id="arrowUp" xlink:href="#dirArrow" transform="translate(30 24)" onmousedown="handlePan(0,-1)">
                  <use xlink:href="#rim" fill="#404040">
                        <set attributeName="fill" to="#808080" begin="arrowUp.mouseover" end="arrowUp.mouseout"/>
                  </use>
                  <path fill="none" stroke="white" stroke-width="1.5" d="M0,-3.0v7 M-2.5,-0.5L0,-3.0L2.5,-0.5"/>
                </g>
                <g id="arrowRight" xlink:href="#dirArrow" transform="rotate(90) translate(36 -43)" onmousedown="handlePan(1,0)">
                  <use xlink:href="#rim" fill="#404040">
                        <set attributeName="fill" to="#808080" begin="arrowRight.mouseover" end="arrowRight.mouseout"/>
                  </use>
                  <path fill="none" stroke="white" stroke-width="1.5" d="M0,-3.0v7 M-2.5,-0.5L0,-3.0L2.5,-0.5"/>
                </g>
                <g id="arrowDown" xlink:href="#dirArrow" transform="rotate(180) translate(-30 -48)" onmousedown="handlePan(0,1)">
                  <use xlink:href="#rim" fill="#404040">
                        <set attributeName="fill" to="#808080" begin="arrowDown.mouseover" end="arrowDown.mouseout"/>
                  </use>
                  <path fill="none" stroke="white" stroke-width="1.5" d="M0,-3.0v7 M-2.5,-0.5L0,-3.0L2.5,-0.5"/>
                </g>
                <g id="arrowLeft" xlink:href="#dirArrow" transform="rotate(270) translate(-36 17)" onmousedown="handlePan(-1,0)">
                  <use xlink:href="#rim" fill="#404040">
                        <set attributeName="fill" to="#808080" begin="arrowLeft.mouseover" end="arrowLeft.mouseout"/>
                  </use>
                  <path fill="none" stroke="white" stroke-width="1.5" d="M0,-3.0v7 M-2.5,-0.5L0,-3.0L2.5,-0.5"/>
                </g>
        </g>
        <svg viewBox="0 0 25 25" width="100%" height="30px" preserveAspectRatio="xMaxYMin meet"> 
          <g id="printButton" transform="scale(0.4 0.4)" onmousedown="handlePrint(evt)">
            <rect height="23.33753581" id="paper" rx="2" style="fill:#f2f5e9;fill-rule:evenodd;stroke:#111111;stroke-width:3.224;stroke-linejoin:round;" transform="matrix(1.000000,0.000000,-0.339266,0.940691,0.000000,0.000000)" width="25.55231285" x="26.69387353" y="7.36162977"/>
            <rect height="26.272097" id="body" rx="2" style="fill:#404040;fill-rule:evenodd;stroke:#111111;stroke-width:3.125;stroke-linejoin:round;" width="50" x="4.5295201" y="27.078951"/>
            <rect height="8.27750969" id="tray" style="fill:#d2d5c9;fill-rule:evenodd;stroke:#111111;stroke-width:3.125;stroke-linecap:round;stroke-linejoin:round;" width="40" x="10.28778839" y="44.96812282"/>
          </g>
        </svg>
</svg>
