<?xml version="1.0" encoding="UTF-8" standalone="no"?>
<!DOCTYPE svg PUBLIC "-//W3C//DTD SVG 1.1//EN"
 "http://www.w3.org/Graphics/SVG/1.1/DTD/svg11.dtd">
<!-- Generated by graphviz version 2.28.0 (20120217.0315)
 -->
<!-- Title: G Pages: 1 -->
<!--zoomable 293 -->
<svg id="main" version="1.1" xmlns="http://www.w3.org/2000/svg" xmlns:xlink="http://www.w3.org/1999/xlink" xml:space="preserve" onload="init(evt)">
        <defs>
                <circle id="rim" cx="0" cy="0" r="7"/>
                <circle id="rim2" cx="0" cy="0" r="3.5"/>
                <g id="zoomPlus">
                        <use xlink:href="#rim" fill="#404040">
                                <set attributeName="fill" to="#808080" begin="zoomplus.mouseover" end="zoomplus.mouseout"/>
                        </use>
                        <path d="M-4,0h8M0,-4v8" fill="none" stroke="white" stroke-width="1.5" pointer-events="none"/>
                </g>
                <g id="zoomMin">
                        <use xlink:href="#rim" fill="#404040">
                                <set attributeName="fill" to="#808080" begin="zoomminus.mouseover" end="zoomminus.mouseout"/>
                        </use>
                        <path d="M-4,0h8" fill="none" stroke="white" stroke-width="1.5" pointer-events="none"/>
                </g>
                <g id="dirArrow">
                        <path fill="none" stroke="white" stroke-width="1.5" d="M0,-3.0v7 M-2.5,-0.5L0,-3.0L2.5,-0.5"/>
                </g>
               <g id="resetDef">
                       <use xlink:href="#rim2" fill="#404040">
                               <set attributeName="fill" to="#808080" begin="reset.mouseover" end="reset.mouseout"/>
                       </use>
               </g>
        </defs>

<script type="text/javascript">
var viewWidth = 1976;
var viewHeight = 293;
var sectionId = 'dynsection-3';
</script>
<script xlink:href="../../svgpan.js"/>
<svg id="graph" class="graph">
<g id="viewport">
<title>G</title>
<!-- Node1 -->
<g id="node1" class="node"><title>Node1</title>
<polygon fill="#bfbfbf" stroke="black" points="0.5,-180.5 0.5,-199.5 107.5,-199.5 107.5,-180.5 0.5,-180.5"/>
<text text-anchor="middle" x="54" y="-187.5" font-family="DejaVuSansMono" font-size="10.00">xmpp_client_del</text>
</g>
<!-- Node2 -->
<g id="node3" class="node"><title>Node2</title>
<a xlink:href="../../d4/d2f/xmpp__client_8h.html#a1619c0b8f58b2cf09a322bf34fbc3414" target="_top" xlink:title="xmpp_client_new">
<polygon fill="none" stroke="black" points="1494.5,-156.5 1494.5,-175.5 1601.5,-175.5 1601.5,-156.5 1494.5,-156.5"/>
<text text-anchor="middle" x="1548" y="-163.5" font-family="DejaVuSansMono" font-size="10.00">xmpp_client_new</text>
</a>
</g>
<!-- Node1&#45;&gt;Node2 -->
<g id="edge2" class="edge"><title>Node1&#45;&gt;Node2</title>
<path fill="none" stroke="midnightblue" d="M104.059,-201.814C177.809,-218.51 321.844,-247 446,-247 446,-247 446,-247 1219,-247 1336.9,-247 1471.86,-197.066 1524.41,-175.61"/>
<polygon fill="midnightblue" stroke="midnightblue" points="104.658,-198.36 94.1289,-199.541 103.096,-205.184 104.658,-198.36"/>
</g>
<!-- Node3 -->
<g id="node5" class="node"><title>Node3</title>
<a xlink:href="../../d0/df0/xmpp__server_8c.html#a66363912ef1221a2574f9f99805fe8fd" target="_top" xlink:title="Callback for new client connections.">
<polygon fill="none" stroke="black" points="1641.5,-113.5 1641.5,-132.5 1742.5,-132.5 1742.5,-113.5 1641.5,-113.5"/>
<text text-anchor="middle" x="1692" y="-120.5" font-family="DejaVuSansMono" font-size="10.00">connect_client</text>
</a>
</g>
<!-- Node1&#45;&gt;Node3 -->
<g id="edge50" class="edge"><title>Node1&#45;&gt;Node3</title>
<path fill="none" stroke="midnightblue" d="M77.5931,-205.373C94.9911,-216.466 120.042,-230.868 144,-239 272.566,-282.638 310.23,-285 446,-285 446,-285 446,-285 1384,-285 1515.38,-285 1645.63,-167.524 1681.4,-132.649"/>
<polygon fill="midnightblue" stroke="midnightblue" points="79.057,-202.149 68.7705,-199.611 75.2295,-208.01 79.057,-202.149"/>
</g>
<!-- Node6 -->
<g id="node11" class="node"><title>Node6</title>
<a xlink:href="../../d1/d2e/xmpp__server_8h.html#af7d75415fd5671841797bf77bbc1a981" target="_top" xlink:title="Cleans up an XMPP server instance.">
<polygon fill="none" stroke="black" points="1638.5,-28.5 1638.5,-47.5 1745.5,-47.5 1745.5,-28.5 1638.5,-28.5"/>
<text text-anchor="middle" x="1692" y="-35.5" font-family="DejaVuSansMono" font-size="10.00">xmpp_server_del</text>
</a>
</g>
<!-- Node1&#45;&gt;Node6 -->
<g id="edge10" class="edge"><title>Node1&#45;&gt;Node6</title>
<path fill="none" stroke="midnightblue" d="M67.2017,-172.199C82.6911,-150.894 111.357,-115.528 144,-95 263.111,-20.0939 305.293,-0 446,-0 446,-0 446,-0 1384,-0 1476.51,-0 1583.52,-17.2037 1643.63,-28.46"/>
<polygon fill="midnightblue" stroke="midnightblue" points="64.3265,-170.203 61.397,-180.385 70.0365,-174.252 64.3265,-170.203"/>
</g>
<!-- Node7 -->
<g id="node15" class="node"><title>Node7</title>
<a xlink:href="../../d1/d2e/xmpp__server_8h.html#a79e02871228c509de0c70961d74a1bcb" target="_top" xlink:title="Attempt to cleanly disconnect a client, and clean up its resources.">
<polygon fill="none" stroke="black" points="144.5,-104.5 144.5,-123.5 335.5,-123.5 335.5,-104.5 144.5,-104.5"/>
<text text-anchor="middle" x="240" y="-111.5" font-family="DejaVuSansMono" font-size="10.00">xmpp_server_disconnect_client</text>
</a>
</g>
<!-- Node1&#45;&gt;Node7 -->
<g id="edge16" class="edge"><title>Node1&#45;&gt;Node7</title>
<path fill="none" stroke="midnightblue" d="M87.6151,-176.529C124.461,-161.309 183.499,-136.924 215.885,-123.547"/>
<polygon fill="midnightblue" stroke="midnightblue" points="86.2102,-173.322 78.3037,-180.375 88.8825,-179.792 86.2102,-173.322"/>
</g>
<!-- Node2&#45;&gt;Node3 -->
<g id="edge4" class="edge"><title>Node2&#45;&gt;Node3</title>
<path fill="none" stroke="midnightblue" d="M1590.3,-153.494C1612.4,-146.801 1639.19,-138.69 1659.57,-132.516"/>
<polygon fill="midnightblue" stroke="midnightblue" points="1589.07,-150.209 1580.51,-156.457 1591.1,-156.908 1589.07,-150.209"/>
</g>
<!-- Node4 -->
<g id="node7" class="node"><title>Node4</title>
<a xlink:href="../../d1/d2e/xmpp__server_8h.html#a27bfc8e4d424a8bc17ab21a4a09cdf92" target="_top" xlink:title="Allocates and initializes the XMPP server.">
<polygon fill="none" stroke="black" points="1782.5,-66.5 1782.5,-85.5 1889.5,-85.5 1889.5,-66.5 1782.5,-66.5"/>
<text text-anchor="middle" x="1836" y="-73.5" font-family="DejaVuSansMono" font-size="10.00">xmpp_server_new</text>
</a>
</g>
<!-- Node3&#45;&gt;Node4 -->
<g id="edge6" class="edge"><title>Node3&#45;&gt;Node4</title>
<path fill="none" stroke="midnightblue" d="M1731.37,-110.301C1754.8,-102.545 1784.29,-92.783 1805.82,-85.6583"/>
<polygon fill="midnightblue" stroke="midnightblue" points="1730.13,-107.024 1721.74,-113.489 1732.33,-113.669 1730.13,-107.024"/>
</g>
<!-- Node5 -->
<g id="node9" class="node"><title>Node5</title>
<a xlink:href="../../d0/d29/main_8c.html#a0ddf1224851353fc92bfbff6f499fa97" target="_top" xlink:title="main">
<polygon fill="none" stroke="black" points="1926.5,-47.5 1926.5,-66.5 1967.5,-66.5 1967.5,-47.5 1926.5,-47.5"/>
<text text-anchor="middle" x="1947" y="-54.5" font-family="DejaVuSansMono" font-size="10.00">main</text>
</a>
</g>
<!-- Node4&#45;&gt;Node5 -->
<g id="edge8" class="edge"><title>Node4&#45;&gt;Node5</title>
<path fill="none" stroke="midnightblue" d="M1899.45,-65.1151C1909.24,-63.4082 1918.68,-61.7622 1926.47,-60.404"/>
<polygon fill="midnightblue" stroke="midnightblue" points="1898.83,-61.6686 1889.58,-66.8339 1900.04,-68.5646 1898.83,-61.6686"/>
</g>
<!-- Node6&#45;&gt;Node4 -->
<g id="edge14" class="edge"><title>Node6&#45;&gt;Node4</title>
<path fill="none" stroke="midnightblue" d="M1738.49,-50.1742C1758.13,-55.4287 1780.77,-61.4866 1799.18,-66.4141"/>
<polygon fill="midnightblue" stroke="midnightblue" points="1739.4,-46.7931 1728.83,-47.589 1737.59,-53.5552 1739.4,-46.7931"/>
</g>
<!-- Node6&#45;&gt;Node5 -->
<g id="edge12" class="edge"><title>Node6&#45;&gt;Node5</title>
<path fill="none" stroke="midnightblue" d="M1755.9,-42.7236C1811.84,-46.9246 1890.21,-52.81 1926.34,-55.5233"/>
<polygon fill="midnightblue" stroke="midnightblue" points="1755.96,-39.2187 1745.73,-41.9599 1755.44,-46.199 1755.96,-39.2187"/>
</g>
<!-- Node8 -->
<g id="node17" class="node"><title>Node8</title>
<a xlink:href="../../d8/d28/xmpp__core_8h.html#a3b41e83061abd7ed5b258c7aa7dda0d6" target="_top" xlink:title="An xmpp_server stanza route for stanzas directed to a local client.">
<polygon fill="none" stroke="black" points="372.5,-123.5 372.5,-142.5 521.5,-142.5 521.5,-123.5 372.5,-123.5"/>
<text text-anchor="middle" x="447" y="-130.5" font-family="DejaVuSansMono" font-size="10.00">xmpp_core_route_client</text>
</a>
</g>
<!-- Node7&#45;&gt;Node8 -->
<g id="edge18" class="edge"><title>Node7&#45;&gt;Node8</title>
<path fill="none" stroke="midnightblue" d="M345.787,-123.712C354.726,-124.54 363.642,-125.367 372.263,-126.166"/>
<polygon fill="midnightblue" stroke="midnightblue" points="345.979,-120.215 335.699,-122.777 345.333,-127.185 345.979,-120.215"/>
</g>
<!-- Node16 -->
<g id="node39" class="node"><title>Node16</title>
<a xlink:href="../../d0/df0/xmpp__server_8c.html#abece91815ef240322d79073f5bfca1db" target="_top" xlink:title="Callback for new data from a client.">
<polygon fill="none" stroke="black" points="567.5,-47.5 567.5,-66.5 650.5,-66.5 650.5,-47.5 567.5,-47.5"/>
<text text-anchor="middle" x="609" y="-54.5" font-family="DejaVuSansMono" font-size="10.00">read_client</text>
</a>
</g>
<!-- Node7&#45;&gt;Node16 -->
<g id="edge46" class="edge"><title>Node7&#45;&gt;Node16</title>
<path fill="none" stroke="midnightblue" d="M283.015,-101.759C308.549,-94.7355 341.921,-86.289 372,-81 439.94,-69.0534 520.007,-62.4656 567.246,-59.3384"/>
<polygon fill="midnightblue" stroke="midnightblue" points="281.981,-98.4137 273.287,-104.47 283.86,-105.157 281.981,-98.4137"/>
</g>
<!-- Node9 -->
<g id="node19" class="node"><title>Node9</title>
<a xlink:href="../../df/da9/xmpp__auth_8c.html#a603b4a63af3c4e4af99442805fe89ae8" target="_top" xlink:title="Step 15: Client binds a resource.">
<polygon fill="none" stroke="black" points="558.5,-161.5 558.5,-180.5 659.5,-180.5 659.5,-161.5 558.5,-161.5"/>
<text text-anchor="middle" x="609" y="-168.5" font-family="DejaVuSansMono" font-size="10.00">handle_bind_iq</text>
</a>
</g>
<!-- Node8&#45;&gt;Node9 -->
<g id="edge20" class="edge"><title>Node8&#45;&gt;Node9</title>
<path fill="none" stroke="midnightblue" d="M498.392,-144.968C520.813,-150.293 546.847,-156.476 567.916,-161.48"/>
<polygon fill="midnightblue" stroke="midnightblue" points="498.913,-141.495 488.375,-142.589 497.295,-148.305 498.913,-141.495"/>
</g>
<!-- Node15 -->
<g id="node33" class="node"><title>Node15</title>
<a xlink:href="../../d4/d2f/xmpp__client_8h.html#add2df61245a543667b6d98e3fcd57077" target="_top" xlink:title="xmpp_client_del">
<polygon fill="none" stroke="black" points="1329.5,-113.5 1329.5,-132.5 1436.5,-132.5 1436.5,-113.5 1329.5,-113.5"/>
<text text-anchor="middle" x="1383" y="-120.5" font-family="DejaVuSansMono" font-size="10.00">xmpp_client_del</text>
</a>
</g>
<!-- Node8&#45;&gt;Node15 -->
<g id="edge36" class="edge"><title>Node8&#45;&gt;Node15</title>
<path fill="none" stroke="midnightblue" d="M531.583,-133C593.315,-133 679.394,-133 755,-133 755,-133 755,-133 1069,-133 1160.61,-133 1267.23,-128.668 1329.4,-125.706"/>
<polygon fill="midnightblue" stroke="midnightblue" points="531.506,-129.5 521.506,-133 531.506,-136.5 531.506,-129.5"/>
</g>
<!-- Node10 -->
<g id="node21" class="node"><title>Node10</title>
<a xlink:href="../../df/da9/xmpp__auth_8c.html#a01804bd53eccc182ce76337fc0863e8d" target="_top" xlink:title="stream_bind_start">
<polygon fill="none" stroke="black" points="696.5,-161.5 696.5,-180.5 815.5,-180.5 815.5,-161.5 696.5,-161.5"/>
<text text-anchor="middle" x="756" y="-168.5" font-family="DejaVuSansMono" font-size="10.00">stream_bind_start</text>
</a>
</g>
<!-- Node9&#45;&gt;Node10 -->
<g id="edge22" class="edge"><title>Node9&#45;&gt;Node10</title>
<path fill="none" stroke="midnightblue" d="M669.961,-171C678.655,-171 687.597,-171 696.266,-171"/>
<polygon fill="midnightblue" stroke="midnightblue" points="669.901,-167.5 659.901,-171 669.901,-174.5 669.901,-167.5"/>
</g>
<!-- Node11 -->
<g id="node23" class="node"><title>Node11</title>
<a xlink:href="../../df/da9/xmpp__auth_8c.html#afb770a216868aa3fb43813b19d2a0115" target="_top" xlink:title="Begins SASL PLAIN authentication.">
<polygon fill="none" stroke="black" points="852.5,-161.5 852.5,-180.5 971.5,-180.5 971.5,-161.5 852.5,-161.5"/>
<text text-anchor="middle" x="912" y="-168.5" font-family="DejaVuSansMono" font-size="10.00">handle_sasl_plain</text>
</a>
</g>
<!-- Node10&#45;&gt;Node11 -->
<g id="edge24" class="edge"><title>Node10&#45;&gt;Node11</title>
<path fill="none" stroke="midnightblue" d="M825.894,-171C834.691,-171 843.631,-171 852.248,-171"/>
<polygon fill="midnightblue" stroke="midnightblue" points="825.66,-167.5 815.66,-171 825.66,-174.5 825.66,-167.5"/>
</g>
<!-- Node12 -->
<g id="node25" class="node"><title>Node12</title>
<a xlink:href="../../d3/d24/xmpp__auth_8h.html#ad3efd9ab093646bdfd8832c34ae2de4d" target="_top" xlink:title="Handler for the inital stream start to begin authentication.">
<polygon fill="none" stroke="black" points="1308.5,-161.5 1308.5,-180.5 1457.5,-180.5 1457.5,-161.5 1308.5,-161.5"/>
<text text-anchor="middle" x="1383" y="-168.5" font-family="DejaVuSansMono" font-size="10.00">xmpp_auth_stream_start</text>
</a>
</g>
<!-- Node11&#45;&gt;Node12 -->
<g id="edge26" class="edge"><title>Node11&#45;&gt;Node12</title>
<path fill="none" stroke="midnightblue" d="M961.54,-182.625C976.362,-185.655 992.769,-188.492 1008,-190 1124.76,-201.562 1155.1,-200.022 1272,-190 1293.63,-188.146 1317.38,-184.278 1337.27,-180.512"/>
<polygon fill="midnightblue" stroke="midnightblue" points="962.074,-179.16 951.565,-180.51 960.622,-186.008 962.074,-179.16"/>
</g>
<!-- Node13 -->
<g id="node28" class="node"><title>Node13</title>
<a xlink:href="../../df/da9/xmpp__auth_8c.html#afd7b12689591d40109a88ad108b5c3a2" target="_top" xlink:title="stream_sasl_start">
<polygon fill="none" stroke="black" points="1008.5,-161.5 1008.5,-180.5 1127.5,-180.5 1127.5,-161.5 1008.5,-161.5"/>
<text text-anchor="middle" x="1068" y="-168.5" font-family="DejaVuSansMono" font-size="10.00">stream_sasl_start</text>
</a>
</g>
<!-- Node11&#45;&gt;Node13 -->
<g id="edge30" class="edge"><title>Node11&#45;&gt;Node13</title>
<path fill="none" stroke="midnightblue" d="M981.894,-171C990.691,-171 999.631,-171 1008.25,-171"/>
<polygon fill="midnightblue" stroke="midnightblue" points="981.66,-167.5 971.66,-171 981.66,-174.5 981.66,-167.5"/>
</g>
<!-- Node12&#45;&gt;Node2 -->
<g id="edge28" class="edge"><title>Node12&#45;&gt;Node2</title>
<path fill="none" stroke="midnightblue" d="M1467.99,-168.424C1476.95,-168.149 1485.88,-167.875 1494.33,-167.616"/>
<polygon fill="midnightblue" stroke="midnightblue" points="1467.76,-164.929 1457.87,-168.734 1467.97,-171.926 1467.76,-164.929"/>
</g>
<!-- Node14 -->
<g id="node30" class="node"><title>Node14</title>
<a xlink:href="../../df/da9/xmpp__auth_8c.html#a8dd789e057b9812e4dd1aa524dfb6a65" target="_top" xlink:title="Begins TLS authentication.">
<polygon fill="none" stroke="black" points="1164.5,-161.5 1164.5,-180.5 1271.5,-180.5 1271.5,-161.5 1164.5,-161.5"/>
<text text-anchor="middle" x="1218" y="-168.5" font-family="DejaVuSansMono" font-size="10.00">handle_starttls</text>
</a>
</g>
<!-- Node13&#45;&gt;Node14 -->
<g id="edge32" class="edge"><title>Node13&#45;&gt;Node14</title>
<path fill="none" stroke="midnightblue" d="M1138.09,-171C1146.81,-171 1155.62,-171 1164.04,-171"/>
<polygon fill="midnightblue" stroke="midnightblue" points="1137.92,-167.5 1127.92,-171 1137.92,-174.5 1137.92,-167.5"/>
</g>
<!-- Node14&#45;&gt;Node12 -->
<g id="edge34" class="edge"><title>Node14&#45;&gt;Node12</title>
<path fill="none" stroke="midnightblue" d="M1282.19,-171C1290.75,-171 1299.6,-171 1308.32,-171"/>
<polygon fill="midnightblue" stroke="midnightblue" points="1281.92,-167.5 1271.92,-171 1281.92,-174.5 1281.92,-167.5"/>
</g>
<!-- Node15&#45;&gt;Node2 -->
<g id="edge38" class="edge"><title>Node15&#45;&gt;Node2</title>
<path fill="none" stroke="midnightblue" d="M1430.04,-135.146C1455.67,-141.906 1487.1,-150.198 1510.93,-156.484"/>
<polygon fill="midnightblue" stroke="midnightblue" points="1430.74,-131.71 1420.17,-132.543 1428.95,-138.478 1430.74,-131.71"/>
</g>
<!-- Node15&#45;&gt;Node3 -->
<g id="edge44" class="edge"><title>Node15&#45;&gt;Node3</title>
<path fill="none" stroke="midnightblue" d="M1446.85,-123C1504.42,-123 1588.5,-123 1641.45,-123"/>
<polygon fill="midnightblue" stroke="midnightblue" points="1446.78,-119.5 1436.78,-123 1446.78,-126.5 1446.78,-119.5"/>
</g>
<!-- Node15&#45;&gt;Node6 -->
<g id="edge40" class="edge"><title>Node15&#45;&gt;Node6</title>
<path fill="none" stroke="midnightblue" d="M1428.15,-110.777C1489.79,-93.7086 1600.39,-63.0876 1656.43,-47.572"/>
<polygon fill="midnightblue" stroke="midnightblue" points="1427.03,-107.455 1418.32,-113.497 1428.89,-114.202 1427.03,-107.455"/>
</g>
<!-- Node15&#45;&gt;Node7 -->
<g id="edge42" class="edge"><title>Node15&#45;&gt;Node7</title>
<path fill="none" stroke="midnightblue" d="M1319.05,-114.045C1255.95,-105.853 1155.95,-95 1069,-95 608,-95 608,-95 608,-95 515.33,-95 409.673,-101.117 335.598,-106.409"/>
<polygon fill="midnightblue" stroke="midnightblue" points="1318.87,-117.551 1329.24,-115.386 1319.78,-110.61 1318.87,-117.551"/>
</g>
<!-- Node16&#45;&gt;Node3 -->
<g id="edge48" class="edge"><title>Node16&#45;&gt;Node3</title>
<path fill="none" stroke="midnightblue" d="M661.216,-57C721.113,-57 823.251,-57 911,-57 911,-57 911,-57 1069,-57 1282.93,-57 1535.94,-96.0838 1641.2,-114.099"/>
<polygon fill="midnightblue" stroke="midnightblue" points="660.896,-53.5001 650.896,-57 660.896,-60.5001 660.896,-53.5001"/>
</g>
</g>
</svg>
        <g id="navigator" transform="translate(0 0)" fill="#404254">
                <rect fill="#f2f5e9" fill-opacity="0.5" stroke="#606060" stroke-width=".5" x="0" y="0" width="60" height="60"/>
                <use id="zoomplus" xlink:href="#zoomPlus" x="17" y="9" onmousedown="handleZoom(evt,'in')"/>
                <use id="zoomminus" xlink:href="#zoomMin" x="42" y="9" onmousedown="handleZoom(evt,'out')"/>
                <use id="reset" xlink:href="#resetDef" x="30" y="36" onmousedown="handleReset()"/>
                <g id="arrowUp" xlink:href="#dirArrow" transform="translate(30 24)" onmousedown="handlePan(0,-1)">
                  <use xlink:href="#rim" fill="#404040">
                        <set attributeName="fill" to="#808080" begin="arrowUp.mouseover" end="arrowUp.mouseout"/>
                  </use>
                  <path fill="none" stroke="white" stroke-width="1.5" d="M0,-3.0v7 M-2.5,-0.5L0,-3.0L2.5,-0.5"/>
                </g>
                <g id="arrowRight" xlink:href="#dirArrow" transform="rotate(90) translate(36 -43)" onmousedown="handlePan(1,0)">
                  <use xlink:href="#rim" fill="#404040">
                        <set attributeName="fill" to="#808080" begin="arrowRight.mouseover" end="arrowRight.mouseout"/>
                  </use>
                  <path fill="none" stroke="white" stroke-width="1.5" d="M0,-3.0v7 M-2.5,-0.5L0,-3.0L2.5,-0.5"/>
                </g>
                <g id="arrowDown" xlink:href="#dirArrow" transform="rotate(180) translate(-30 -48)" onmousedown="handlePan(0,1)">
                  <use xlink:href="#rim" fill="#404040">
                        <set attributeName="fill" to="#808080" begin="arrowDown.mouseover" end="arrowDown.mouseout"/>
                  </use>
                  <path fill="none" stroke="white" stroke-width="1.5" d="M0,-3.0v7 M-2.5,-0.5L0,-3.0L2.5,-0.5"/>
                </g>
                <g id="arrowLeft" xlink:href="#dirArrow" transform="rotate(270) translate(-36 17)" onmousedown="handlePan(-1,0)">
                  <use xlink:href="#rim" fill="#404040">
                        <set attributeName="fill" to="#808080" begin="arrowLeft.mouseover" end="arrowLeft.mouseout"/>
                  </use>
                  <path fill="none" stroke="white" stroke-width="1.5" d="M0,-3.0v7 M-2.5,-0.5L0,-3.0L2.5,-0.5"/>
                </g>
        </g>
        <svg viewBox="0 0 25 25" width="100%" height="30px" preserveAspectRatio="xMaxYMin meet"> 
          <g id="printButton" transform="scale(0.4 0.4)" onmousedown="handlePrint(evt)">
            <rect height="23.33753581" id="paper" rx="2" style="fill:#f2f5e9;fill-rule:evenodd;stroke:#111111;stroke-width:3.224;stroke-linejoin:round;" transform="matrix(1.000000,0.000000,-0.339266,0.940691,0.000000,0.000000)" width="25.55231285" x="26.69387353" y="7.36162977"/>
            <rect height="26.272097" id="body" rx="2" style="fill:#404040;fill-rule:evenodd;stroke:#111111;stroke-width:3.125;stroke-linejoin:round;" width="50" x="4.5295201" y="27.078951"/>
            <rect height="8.27750969" id="tray" style="fill:#d2d5c9;fill-rule:evenodd;stroke:#111111;stroke-width:3.125;stroke-linecap:round;stroke-linejoin:round;" width="40" x="10.28778839" y="44.96812282"/>
          </g>
        </svg>
</svg>
