<?xml version="1.0" encoding="UTF-8" standalone="no"?>
<!DOCTYPE svg PUBLIC "-//W3C//DTD SVG 1.1//EN"
 "http://www.w3.org/Graphics/SVG/1.1/DTD/svg11.dtd">
<!-- Generated by graphviz version 2.28.0 (20120217.0315)
 -->
<!-- Title: G Pages: 1 -->
<!--zoomable 312 -->
<svg id="main" version="1.1" xmlns="http://www.w3.org/2000/svg" xmlns:xlink="http://www.w3.org/1999/xlink" xml:space="preserve" onload="init(evt)">
        <defs>
                <circle id="rim" cx="0" cy="0" r="7"/>
                <circle id="rim2" cx="0" cy="0" r="3.5"/>
                <g id="zoomPlus">
                        <use xlink:href="#rim" fill="#404040">
                                <set attributeName="fill" to="#808080" begin="zoomplus.mouseover" end="zoomplus.mouseout"/>
                        </use>
                        <path d="M-4,0h8M0,-4v8" fill="none" stroke="white" stroke-width="1.5" pointer-events="none"/>
                </g>
                <g id="zoomMin">
                        <use xlink:href="#rim" fill="#404040">
                                <set attributeName="fill" to="#808080" begin="zoomminus.mouseover" end="zoomminus.mouseout"/>
                        </use>
                        <path d="M-4,0h8" fill="none" stroke="white" stroke-width="1.5" pointer-events="none"/>
                </g>
                <g id="dirArrow">
                        <path fill="none" stroke="white" stroke-width="1.5" d="M0,-3.0v7 M-2.5,-0.5L0,-3.0L2.5,-0.5"/>
                </g>
               <g id="resetDef">
                       <use xlink:href="#rim2" fill="#404040">
                               <set attributeName="fill" to="#808080" begin="reset.mouseover" end="reset.mouseout"/>
                       </use>
               </g>
        </defs>

<script type="text/javascript">
var viewWidth = 1808;
var viewHeight = 312;
var sectionId = 'dynsection-11';
</script>
<script xlink:href="../../svgpan.js"/>
<svg id="graph" class="graph">
<g id="viewport">
<title>G</title>
<!-- Node1 -->
<g id="node1" class="node"><title>Node1</title>
<polygon fill="#bfbfbf" stroke="black" points="0.5,-161.5 0.5,-180.5 125.5,-180.5 125.5,-161.5 0.5,-161.5"/>
<text text-anchor="middle" x="63" y="-168.5" font-family="DejaVuSansMono" font-size="10.00">xmpp_client_socket</text>
</g>
<!-- Node2 -->
<g id="node3" class="node"><title>Node2</title>
<a xlink:href="../../d3/d24/xmpp__auth_8h.html#ad3efd9ab093646bdfd8832c34ae2de4d" target="_top" xlink:title="Handler for the inital stream start to begin authentication.">
<polygon fill="none" stroke="black" points="1119.5,-199.5 1119.5,-218.5 1268.5,-218.5 1268.5,-199.5 1119.5,-199.5"/>
<text text-anchor="middle" x="1194" y="-206.5" font-family="DejaVuSansMono" font-size="10.00">xmpp_auth_stream_start</text>
</a>
</g>
<!-- Node1&#45;&gt;Node2 -->
<g id="edge2" class="edge"><title>Node1&#45;&gt;Node2</title>
<path fill="none" stroke="midnightblue" d="M78.7458,-188.301C96.458,-207.902 128.055,-239.285 162,-256 258.026,-303.285 290.964,-304 398,-304 398,-304 398,-304 859,-304 982.888,-304 1123.1,-242.784 1173.6,-218.632"/>
<polygon fill="midnightblue" stroke="midnightblue" points="81.2792,-185.882 72.0386,-180.699 76.0302,-190.514 81.2792,-185.882"/>
</g>
<!-- Node7 -->
<g id="node13" class="node"><title>Node7</title>
<a xlink:href="../../df/da9/xmpp__auth_8c.html#afd7b12689591d40109a88ad108b5c3a2" target="_top" xlink:title="stream_sasl_start">
<polygon fill="none" stroke="black" points="798.5,-218.5 798.5,-237.5 917.5,-237.5 917.5,-218.5 798.5,-218.5"/>
<text text-anchor="middle" x="858" y="-225.5" font-family="DejaVuSansMono" font-size="10.00">stream_sasl_start</text>
</a>
</g>
<!-- Node1&#45;&gt;Node7 -->
<g id="edge12" class="edge"><title>Node1&#45;&gt;Node7</title>
<path fill="none" stroke="midnightblue" d="M107.357,-183.226C170.676,-199.974 292.406,-228 398,-228 398,-228 398,-228 547,-228 634.591,-228 736.104,-228 798.435,-228"/>
<polygon fill="midnightblue" stroke="midnightblue" points="107.903,-179.749 97.3382,-180.541 106.091,-186.51 107.903,-179.749"/>
</g>
<!-- Node8 -->
<g id="node15" class="node"><title>Node8</title>
<a xlink:href="../../df/da9/xmpp__auth_8c.html#a8dd789e057b9812e4dd1aa524dfb6a65" target="_top" xlink:title="Begins TLS authentication.">
<polygon fill="none" stroke="black" points="954.5,-218.5 954.5,-237.5 1061.5,-237.5 1061.5,-218.5 954.5,-218.5"/>
<text text-anchor="middle" x="1008" y="-225.5" font-family="DejaVuSansMono" font-size="10.00">handle_starttls</text>
</a>
</g>
<!-- Node1&#45;&gt;Node8 -->
<g id="edge26" class="edge"><title>Node1&#45;&gt;Node8</title>
<path fill="none" stroke="midnightblue" d="M87.3035,-186.011C106.596,-197.775 135.104,-213.666 162,-223 262.723,-257.954 291.384,-266 398,-266 398,-266 398,-266 703,-266 798.928,-266 823.138,-261.263 918,-247 934.249,-244.557 951.984,-240.963 967.316,-237.557"/>
<polygon fill="midnightblue" stroke="midnightblue" points="88.9613,-182.92 78.6206,-180.614 85.266,-188.865 88.9613,-182.92"/>
</g>
<!-- Node9 -->
<g id="node18" class="node"><title>Node9</title>
<a xlink:href="../../df/da9/xmpp__auth_8c.html#a01804bd53eccc182ce76337fc0863e8d" target="_top" xlink:title="stream_bind_start">
<polygon fill="none" stroke="black" points="486.5,-142.5 486.5,-161.5 605.5,-161.5 605.5,-142.5 486.5,-142.5"/>
<text text-anchor="middle" x="546" y="-149.5" font-family="DejaVuSansMono" font-size="10.00">stream_bind_start</text>
</a>
</g>
<!-- Node1&#45;&gt;Node9 -->
<g id="edge18" class="edge"><title>Node1&#45;&gt;Node9</title>
<path fill="none" stroke="midnightblue" d="M136.043,-168.154C231.518,-164.383 398.143,-157.801 486.351,-154.317"/>
<polygon fill="midnightblue" stroke="midnightblue" points="135.752,-164.663 125.898,-168.555 136.028,-171.657 135.752,-164.663"/>
</g>
<!-- Node10 -->
<g id="node20" class="node"><title>Node10</title>
<a xlink:href="../../df/da9/xmpp__auth_8c.html#afb770a216868aa3fb43813b19d2a0115" target="_top" xlink:title="Begins SASL PLAIN authentication.">
<polygon fill="none" stroke="black" points="642.5,-180.5 642.5,-199.5 761.5,-199.5 761.5,-180.5 642.5,-180.5"/>
<text text-anchor="middle" x="702" y="-187.5" font-family="DejaVuSansMono" font-size="10.00">handle_sasl_plain</text>
</a>
</g>
<!-- Node1&#45;&gt;Node10 -->
<g id="edge28" class="edge"><title>Node1&#45;&gt;Node10</title>
<path fill="none" stroke="midnightblue" d="M135.926,-174.876C144.708,-175.288 153.557,-175.675 162,-176 336.683,-182.724 543.34,-187.088 642.362,-188.957"/>
<polygon fill="midnightblue" stroke="midnightblue" points="135.834,-171.368 125.677,-174.382 135.497,-178.359 135.834,-171.368"/>
</g>
<!-- Node11 -->
<g id="node26" class="node"><title>Node11</title>
<a xlink:href="../../df/da9/xmpp__auth_8c.html#a603b4a63af3c4e4af99442805fe89ae8" target="_top" xlink:title="Step 15: Client binds a resource.">
<polygon fill="none" stroke="black" points="348.5,-104.5 348.5,-123.5 449.5,-123.5 449.5,-104.5 348.5,-104.5"/>
<text text-anchor="middle" x="399" y="-111.5" font-family="DejaVuSansMono" font-size="10.00">handle_bind_iq</text>
</a>
</g>
<!-- Node1&#45;&gt;Node11 -->
<g id="edge30" class="edge"><title>Node1&#45;&gt;Node11</title>
<path fill="none" stroke="midnightblue" d="M96.9103,-157.864C115.69,-150.891 139.839,-142.795 162,-138 225.397,-124.283 300.115,-118.36 348.228,-115.833"/>
<polygon fill="midnightblue" stroke="midnightblue" points="95.4576,-154.671 87.3475,-161.489 97.9388,-161.217 95.4576,-154.671"/>
</g>
<!-- Node12 -->
<g id="node29" class="node"><title>Node12</title>
<a xlink:href="../../d8/d28/xmpp__core_8h.html#a3b41e83061abd7ed5b258c7aa7dda0d6" target="_top" xlink:title="An xmpp_server stanza route for stanzas directed to a local client.">
<polygon fill="none" stroke="black" points="162.5,-66.5 162.5,-85.5 311.5,-85.5 311.5,-66.5 162.5,-66.5"/>
<text text-anchor="middle" x="237" y="-73.5" font-family="DejaVuSansMono" font-size="10.00">xmpp_core_route_client</text>
</a>
</g>
<!-- Node1&#45;&gt;Node12 -->
<g id="edge34" class="edge"><title>Node1&#45;&gt;Node12</title>
<path fill="none" stroke="midnightblue" d="M82.521,-154.832C101.412,-139.028 132.116,-115.191 162,-100 173.558,-94.1245 186.854,-89.2807 198.959,-85.521"/>
<polygon fill="midnightblue" stroke="midnightblue" points="80.0682,-152.323 74.7176,-161.468 84.603,-157.656 80.0682,-152.323"/>
</g>
<!-- Node16 -->
<g id="node42" class="node"><title>Node16</title>
<a xlink:href="../../d0/df0/xmpp__server_8c.html#abece91815ef240322d79073f5bfca1db" target="_top" xlink:title="Callback for new data from a client.">
<polygon fill="none" stroke="black" points="1338.5,-28.5 1338.5,-47.5 1421.5,-47.5 1421.5,-28.5 1338.5,-28.5"/>
<text text-anchor="middle" x="1380" y="-35.5" font-family="DejaVuSansMono" font-size="10.00">read_client</text>
</a>
</g>
<!-- Node1&#45;&gt;Node16 -->
<g id="edge58" class="edge"><title>Node1&#45;&gt;Node16</title>
<path fill="none" stroke="midnightblue" d="M74.6502,-152.549C90.3867,-127.002 122.315,-81.2686 162,-57 254.056,-0.704701 290.095,-7.10543e-15 398,-0 398,-0 398,-0 1009,-0 1134.17,-7.10543e-15 1166.03,-1.66677 1290,-19 1306.59,-21.3191 1324.7,-24.9752 1340.22,-28.4635"/>
<polygon fill="midnightblue" stroke="midnightblue" points="71.5655,-150.888 69.4294,-161.265 77.5706,-154.485 71.5655,-150.888"/>
</g>
<!-- Node3 -->
<g id="node5" class="node"><title>Node3</title>
<a xlink:href="../../d4/d2f/xmpp__client_8h.html#a1619c0b8f58b2cf09a322bf34fbc3414" target="_top" xlink:title="xmpp_client_new">
<polygon fill="none" stroke="black" points="1326.5,-142.5 1326.5,-161.5 1433.5,-161.5 1433.5,-142.5 1326.5,-142.5"/>
<text text-anchor="middle" x="1380" y="-149.5" font-family="DejaVuSansMono" font-size="10.00">xmpp_client_new</text>
</a>
</g>
<!-- Node2&#45;&gt;Node3 -->
<g id="edge4" class="edge"><title>Node2&#45;&gt;Node3</title>
<path fill="none" stroke="midnightblue" d="M1235.42,-196.48C1269.36,-185.964 1317.15,-171.16 1348.1,-161.572"/>
<polygon fill="midnightblue" stroke="midnightblue" points="1234.31,-193.157 1225.8,-199.459 1236.39,-199.844 1234.31,-193.157"/>
</g>
<!-- Node4 -->
<g id="node7" class="node"><title>Node4</title>
<a xlink:href="../../d0/df0/xmpp__server_8c.html#a66363912ef1221a2574f9f99805fe8fd" target="_top" xlink:title="Callback for new client connections.">
<polygon fill="none" stroke="black" points="1473.5,-104.5 1473.5,-123.5 1574.5,-123.5 1574.5,-104.5 1473.5,-104.5"/>
<text text-anchor="middle" x="1524" y="-111.5" font-family="DejaVuSansMono" font-size="10.00">connect_client</text>
</a>
</g>
<!-- Node3&#45;&gt;Node4 -->
<g id="edge6" class="edge"><title>Node3&#45;&gt;Node4</title>
<path fill="none" stroke="midnightblue" d="M1426.49,-139.826C1446.13,-134.571 1468.77,-128.513 1487.18,-123.586"/>
<polygon fill="midnightblue" stroke="midnightblue" points="1425.59,-136.445 1416.83,-142.411 1427.4,-143.207 1425.59,-136.445"/>
</g>
<!-- Node5 -->
<g id="node9" class="node"><title>Node5</title>
<a xlink:href="../../d1/d2e/xmpp__server_8h.html#a27bfc8e4d424a8bc17ab21a4a09cdf92" target="_top" xlink:title="Allocates and initializes the XMPP server.">
<polygon fill="none" stroke="black" points="1614.5,-104.5 1614.5,-123.5 1721.5,-123.5 1721.5,-104.5 1614.5,-104.5"/>
<text text-anchor="middle" x="1668" y="-111.5" font-family="DejaVuSansMono" font-size="10.00">xmpp_server_new</text>
</a>
</g>
<!-- Node4&#45;&gt;Node5 -->
<g id="edge8" class="edge"><title>Node4&#45;&gt;Node5</title>
<path fill="none" stroke="midnightblue" d="M1584.73,-114C1594.53,-114 1604.62,-114 1614.23,-114"/>
<polygon fill="midnightblue" stroke="midnightblue" points="1584.66,-110.5 1574.66,-114 1584.66,-117.5 1584.66,-110.5"/>
</g>
<!-- Node6 -->
<g id="node11" class="node"><title>Node6</title>
<a xlink:href="../../d0/d29/main_8c.html#a0ddf1224851353fc92bfbff6f499fa97" target="_top" xlink:title="main">
<polygon fill="none" stroke="black" points="1758.5,-85.5 1758.5,-104.5 1799.5,-104.5 1799.5,-85.5 1758.5,-85.5"/>
<text text-anchor="middle" x="1779" y="-92.5" font-family="DejaVuSansMono" font-size="10.00">main</text>
</a>
</g>
<!-- Node5&#45;&gt;Node6 -->
<g id="edge10" class="edge"><title>Node5&#45;&gt;Node6</title>
<path fill="none" stroke="midnightblue" d="M1731.45,-103.115C1741.24,-101.408 1750.68,-99.7622 1758.47,-98.404"/>
<polygon fill="midnightblue" stroke="midnightblue" points="1730.83,-99.6686 1721.58,-104.834 1732.04,-106.565 1730.83,-99.6686"/>
</g>
<!-- Node7&#45;&gt;Node8 -->
<g id="edge14" class="edge"><title>Node7&#45;&gt;Node8</title>
<path fill="none" stroke="midnightblue" d="M928.085,-228C936.806,-228 945.619,-228 954.036,-228"/>
<polygon fill="midnightblue" stroke="midnightblue" points="927.919,-224.5 917.919,-228 927.919,-231.5 927.919,-224.5"/>
</g>
<!-- Node8&#45;&gt;Node2 -->
<g id="edge16" class="edge"><title>Node8&#45;&gt;Node2</title>
<path fill="none" stroke="midnightblue" d="M1072.06,-221.489C1087.29,-219.916 1103.69,-218.222 1119.36,-216.605"/>
<polygon fill="midnightblue" stroke="midnightblue" points="1071.31,-218.047 1061.73,-222.555 1072.03,-225.01 1071.31,-218.047"/>
</g>
<!-- Node9&#45;&gt;Node10 -->
<g id="edge20" class="edge"><title>Node9&#45;&gt;Node10</title>
<path fill="none" stroke="midnightblue" d="M595.794,-164.04C617.308,-169.349 642.232,-175.499 662.419,-180.48"/>
<polygon fill="midnightblue" stroke="midnightblue" points="596.408,-160.587 585.861,-161.589 594.731,-167.383 596.408,-160.587"/>
</g>
<!-- Node10&#45;&gt;Node2 -->
<g id="edge22" class="edge"><title>Node10&#45;&gt;Node2</title>
<path fill="none" stroke="midnightblue" d="M771.621,-192.661C863.253,-196.214 1024.93,-202.483 1119.14,-206.136"/>
<polygon fill="midnightblue" stroke="midnightblue" points="771.747,-189.163 761.619,-192.273 771.476,-196.158 771.747,-189.163"/>
</g>
<!-- Node10&#45;&gt;Node7 -->
<g id="edge24" class="edge"><title>Node10&#45;&gt;Node7</title>
<path fill="none" stroke="midnightblue" d="M751.794,-202.04C773.308,-207.349 798.232,-213.499 818.419,-218.48"/>
<polygon fill="midnightblue" stroke="midnightblue" points="752.408,-198.587 741.861,-199.589 750.731,-205.383 752.408,-198.587"/>
</g>
<!-- Node11&#45;&gt;Node9 -->
<g id="edge32" class="edge"><title>Node11&#45;&gt;Node9</title>
<path fill="none" stroke="midnightblue" d="M446.493,-126.184C466.624,-131.46 489.838,-137.544 508.673,-142.48"/>
<polygon fill="midnightblue" stroke="midnightblue" points="447.15,-122.738 436.59,-123.589 445.376,-129.51 447.15,-122.738"/>
</g>
<!-- Node12&#45;&gt;Node11 -->
<g id="edge36" class="edge"><title>Node12&#45;&gt;Node11</title>
<path fill="none" stroke="midnightblue" d="M288.392,-87.968C310.813,-93.2931 336.847,-99.4762 357.916,-104.48"/>
<polygon fill="midnightblue" stroke="midnightblue" points="288.913,-84.4945 278.375,-85.589 287.295,-91.3051 288.913,-84.4945"/>
</g>
<!-- Node13 -->
<g id="node32" class="node"><title>Node13</title>
<a xlink:href="../../d4/d2f/xmpp__client_8h.html#add2df61245a543667b6d98e3fcd57077" target="_top" xlink:title="xmpp_client_del">
<polygon fill="none" stroke="black" points="954.5,-66.5 954.5,-85.5 1061.5,-85.5 1061.5,-66.5 954.5,-66.5"/>
<text text-anchor="middle" x="1008" y="-73.5" font-family="DejaVuSansMono" font-size="10.00">xmpp_client_del</text>
</a>
</g>
<!-- Node12&#45;&gt;Node13 -->
<g id="edge38" class="edge"><title>Node12&#45;&gt;Node13</title>
<path fill="none" stroke="midnightblue" d="M321.583,-76C383.315,-76 469.394,-76 545,-76 545,-76 545,-76 703,-76 791.139,-76 893.652,-76 954.278,-76"/>
<polygon fill="midnightblue" stroke="midnightblue" points="321.506,-72.5001 311.506,-76 321.506,-79.5001 321.506,-72.5001"/>
</g>
<!-- Node13&#45;&gt;Node3 -->
<g id="edge40" class="edge"><title>Node13&#45;&gt;Node3</title>
<path fill="none" stroke="midnightblue" d="M1029.61,-91.64C1046.89,-103.83 1072.72,-119.987 1098,-128 1174.78,-152.339 1268.91,-155.308 1326.39,-154.322"/>
<polygon fill="midnightblue" stroke="midnightblue" points="1031.56,-88.7266 1021.41,-85.6915 1027.45,-94.3943 1031.56,-88.7266"/>
</g>
<!-- Node13&#45;&gt;Node4 -->
<g id="edge56" class="edge"><title>Node13&#45;&gt;Node4</title>
<path fill="none" stroke="midnightblue" d="M1071.52,-86.6371C1080.39,-87.9123 1089.41,-89.0843 1098,-90 1233.4,-104.436 1394.05,-110.524 1473.47,-112.803"/>
<polygon fill="midnightblue" stroke="midnightblue" points="1072,-83.1708 1061.59,-85.1618 1070.97,-90.0947 1072,-83.1708"/>
</g>
<!-- Node14 -->
<g id="node35" class="node"><title>Node14</title>
<a xlink:href="../../d1/d2e/xmpp__server_8h.html#af7d75415fd5671841797bf77bbc1a981" target="_top" xlink:title="Cleans up an XMPP server instance.">
<polygon fill="none" stroke="black" points="1470.5,-66.5 1470.5,-85.5 1577.5,-85.5 1577.5,-66.5 1470.5,-66.5"/>
<text text-anchor="middle" x="1524" y="-73.5" font-family="DejaVuSansMono" font-size="10.00">xmpp_server_del</text>
</a>
</g>
<!-- Node13&#45;&gt;Node14 -->
<g id="edge42" class="edge"><title>Node13&#45;&gt;Node14</title>
<path fill="none" stroke="midnightblue" d="M1071.78,-76C1174.16,-76 1375.18,-76 1470.48,-76"/>
<polygon fill="midnightblue" stroke="midnightblue" points="1071.59,-72.5001 1061.59,-76 1071.59,-79.5001 1071.59,-72.5001"/>
</g>
<!-- Node15 -->
<g id="node39" class="node"><title>Node15</title>
<a xlink:href="../../d1/d2e/xmpp__server_8h.html#a79e02871228c509de0c70961d74a1bcb" target="_top" xlink:title="Attempt to cleanly disconnect a client, and clean up its resources.">
<polygon fill="none" stroke="black" points="1098.5,-28.5 1098.5,-47.5 1289.5,-47.5 1289.5,-28.5 1098.5,-28.5"/>
<text text-anchor="middle" x="1194" y="-35.5" font-family="DejaVuSansMono" font-size="10.00">xmpp_server_disconnect_client</text>
</a>
</g>
<!-- Node13&#45;&gt;Node15 -->
<g id="edge48" class="edge"><title>Node13&#45;&gt;Node15</title>
<path fill="none" stroke="midnightblue" d="M1065.56,-64.319C1091.65,-58.9301 1122.24,-52.6139 1146.9,-47.5201"/>
<polygon fill="midnightblue" stroke="midnightblue" points="1064.52,-60.9607 1055.43,-66.411 1065.93,-67.816 1064.52,-60.9607"/>
</g>
<!-- Node14&#45;&gt;Node5 -->
<g id="edge46" class="edge"><title>Node14&#45;&gt;Node5</title>
<path fill="none" stroke="midnightblue" d="M1570.49,-88.1742C1590.13,-93.4287 1612.77,-99.4866 1631.18,-104.414"/>
<polygon fill="midnightblue" stroke="midnightblue" points="1571.4,-84.7931 1560.83,-85.589 1569.59,-91.5552 1571.4,-84.7931"/>
</g>
<!-- Node14&#45;&gt;Node6 -->
<g id="edge44" class="edge"><title>Node14&#45;&gt;Node6</title>
<path fill="none" stroke="midnightblue" d="M1587.9,-80.7236C1643.84,-84.9246 1722.21,-90.81 1758.34,-93.5233"/>
<polygon fill="midnightblue" stroke="midnightblue" points="1587.96,-77.2187 1577.73,-79.9599 1587.44,-84.199 1587.96,-77.2187"/>
</g>
<!-- Node15&#45;&gt;Node12 -->
<g id="edge50" class="edge"><title>Node15&#45;&gt;Node12</title>
<path fill="none" stroke="midnightblue" d="M1087.97,-38C1022.18,-38 935.645,-38 859,-38 545,-38 545,-38 545,-38 452.493,-38 345.485,-55.2037 285.371,-66.46"/>
<polygon fill="midnightblue" stroke="midnightblue" points="1088.34,-41.5001 1098.34,-38 1088.34,-34.5001 1088.34,-41.5001"/>
</g>
<!-- Node15&#45;&gt;Node16 -->
<g id="edge52" class="edge"><title>Node15&#45;&gt;Node16</title>
<path fill="none" stroke="midnightblue" d="M1300.07,-38C1313.56,-38 1326.68,-38 1338.21,-38"/>
<polygon fill="midnightblue" stroke="midnightblue" points="1299.7,-34.5001 1289.69,-38 1299.69,-41.5001 1299.7,-34.5001"/>
</g>
<!-- Node16&#45;&gt;Node4 -->
<g id="edge54" class="edge"><title>Node16&#45;&gt;Node4</title>
<path fill="none" stroke="midnightblue" d="M1402.39,-53.6482C1419.93,-65.9977 1445.74,-83.074 1470,-95 1477.11,-98.4932 1485.02,-101.678 1492.52,-104.4"/>
<polygon fill="midnightblue" stroke="midnightblue" points="1404.19,-50.6354 1394.02,-47.6734 1400.12,-56.3325 1404.19,-50.6354"/>
</g>
</g>
</svg>
        <g id="navigator" transform="translate(0 0)" fill="#404254">
                <rect fill="#f2f5e9" fill-opacity="0.5" stroke="#606060" stroke-width=".5" x="0" y="0" width="60" height="60"/>
                <use id="zoomplus" xlink:href="#zoomPlus" x="17" y="9" onmousedown="handleZoom(evt,'in')"/>
                <use id="zoomminus" xlink:href="#zoomMin" x="42" y="9" onmousedown="handleZoom(evt,'out')"/>
                <use id="reset" xlink:href="#resetDef" x="30" y="36" onmousedown="handleReset()"/>
                <g id="arrowUp" xlink:href="#dirArrow" transform="translate(30 24)" onmousedown="handlePan(0,-1)">
                  <use xlink:href="#rim" fill="#404040">
                        <set attributeName="fill" to="#808080" begin="arrowUp.mouseover" end="arrowUp.mouseout"/>
                  </use>
                  <path fill="none" stroke="white" stroke-width="1.5" d="M0,-3.0v7 M-2.5,-0.5L0,-3.0L2.5,-0.5"/>
                </g>
                <g id="arrowRight" xlink:href="#dirArrow" transform="rotate(90) translate(36 -43)" onmousedown="handlePan(1,0)">
                  <use xlink:href="#rim" fill="#404040">
                        <set attributeName="fill" to="#808080" begin="arrowRight.mouseover" end="arrowRight.mouseout"/>
                  </use>
                  <path fill="none" stroke="white" stroke-width="1.5" d="M0,-3.0v7 M-2.5,-0.5L0,-3.0L2.5,-0.5"/>
                </g>
                <g id="arrowDown" xlink:href="#dirArrow" transform="rotate(180) translate(-30 -48)" onmousedown="handlePan(0,1)">
                  <use xlink:href="#rim" fill="#404040">
                        <set attributeName="fill" to="#808080" begin="arrowDown.mouseover" end="arrowDown.mouseout"/>
                  </use>
                  <path fill="none" stroke="white" stroke-width="1.5" d="M0,-3.0v7 M-2.5,-0.5L0,-3.0L2.5,-0.5"/>
                </g>
                <g id="arrowLeft" xlink:href="#dirArrow" transform="rotate(270) translate(-36 17)" onmousedown="handlePan(-1,0)">
                  <use xlink:href="#rim" fill="#404040">
                        <set attributeName="fill" to="#808080" begin="arrowLeft.mouseover" end="arrowLeft.mouseout"/>
                  </use>
                  <path fill="none" stroke="white" stroke-width="1.5" d="M0,-3.0v7 M-2.5,-0.5L0,-3.0L2.5,-0.5"/>
                </g>
        </g>
        <svg viewBox="0 0 25 25" width="100%" height="30px" preserveAspectRatio="xMaxYMin meet"> 
          <g id="printButton" transform="scale(0.4 0.4)" onmousedown="handlePrint(evt)">
            <rect height="23.33753581" id="paper" rx="2" style="fill:#f2f5e9;fill-rule:evenodd;stroke:#111111;stroke-width:3.224;stroke-linejoin:round;" transform="matrix(1.000000,0.000000,-0.339266,0.940691,0.000000,0.000000)" width="25.55231285" x="26.69387353" y="7.36162977"/>
            <rect height="26.272097" id="body" rx="2" style="fill:#404040;fill-rule:evenodd;stroke:#111111;stroke-width:3.125;stroke-linejoin:round;" width="50" x="4.5295201" y="27.078951"/>
            <rect height="8.27750969" id="tray" style="fill:#d2d5c9;fill-rule:evenodd;stroke:#111111;stroke-width:3.125;stroke-linecap:round;stroke-linejoin:round;" width="40" x="10.28778839" y="44.96812282"/>
          </g>
        </svg>
</svg>
