<?xml version="1.0" encoding="UTF-8" standalone="no"?>
<!DOCTYPE svg PUBLIC "-//W3C//DTD SVG 1.1//EN"
 "http://www.w3.org/Graphics/SVG/1.1/DTD/svg11.dtd">
<!-- Generated by graphviz version 2.28.0 (20120217.0315)
 -->
<!-- Title: G Pages: 1 -->
<!--zoomable 270 -->
<svg id="main" version="1.1" xmlns="http://www.w3.org/2000/svg" xmlns:xlink="http://www.w3.org/1999/xlink" xml:space="preserve" onload="init(evt)">
        <defs>
                <circle id="rim" cx="0" cy="0" r="7"/>
                <circle id="rim2" cx="0" cy="0" r="3.5"/>
                <g id="zoomPlus">
                        <use xlink:href="#rim" fill="#404040">
                                <set attributeName="fill" to="#808080" begin="zoomplus.mouseover" end="zoomplus.mouseout"/>
                        </use>
                        <path d="M-4,0h8M0,-4v8" fill="none" stroke="white" stroke-width="1.5" pointer-events="none"/>
                </g>
                <g id="zoomMin">
                        <use xlink:href="#rim" fill="#404040">
                                <set attributeName="fill" to="#808080" begin="zoomminus.mouseover" end="zoomminus.mouseout"/>
                        </use>
                        <path d="M-4,0h8" fill="none" stroke="white" stroke-width="1.5" pointer-events="none"/>
                </g>
                <g id="dirArrow">
                        <path fill="none" stroke="white" stroke-width="1.5" d="M0,-3.0v7 M-2.5,-0.5L0,-3.0L2.5,-0.5"/>
                </g>
               <g id="resetDef">
                       <use xlink:href="#rim2" fill="#404040">
                               <set attributeName="fill" to="#808080" begin="reset.mouseover" end="reset.mouseout"/>
                       </use>
               </g>
        </defs>

<script type="text/javascript">
var viewWidth = 1880;
var viewHeight = 270;
var sectionId = 'dynsection-4';
</script>
<script xlink:href="../../svgpan.js"/>
<svg id="graph" class="graph">
<g id="viewport">
<title>G</title>
<!-- Node1 -->
<g id="node1" class="node"><title>Node1</title>
<polygon fill="#bfbfbf" stroke="black" points="0.5,-147.5 0.5,-166.5 107.5,-166.5 107.5,-147.5 0.5,-147.5"/>
<text text-anchor="middle" x="54" y="-154.5" font-family="DejaVuSansMono" font-size="10.00">xmpp_client_jid</text>
</g>
<!-- Node2 -->
<g id="node3" class="node"><title>Node2</title>
<a xlink:href="../../d7/d71/xep__muc_8c.html#a0214cd898b2f0c746cb45f79746e5095" target="_top" xlink:title="client_disconnect">
<polygon fill="none" stroke="black" points="186.5,-242.5 186.5,-261.5 305.5,-261.5 305.5,-242.5 186.5,-242.5"/>
<text text-anchor="middle" x="246" y="-249.5" font-family="DejaVuSansMono" font-size="10.00">client_disconnect</text>
</a>
</g>
<!-- Node1&#45;&gt;Node2 -->
<g id="edge2" class="edge"><title>Node1&#45;&gt;Node2</title>
<path fill="none" stroke="midnightblue" d="M70.3101,-174.611C86.7054,-192.275 114.389,-218.829 144,-233 157.117,-239.277 172.118,-243.483 186.475,-246.301"/>
<polygon fill="midnightblue" stroke="midnightblue" points="72.5089,-171.824 63.2093,-166.748 67.3136,-176.515 72.5089,-171.824"/>
</g>
<!-- Node8 -->
<g id="node15" class="node"><title>Node8</title>
<a xlink:href="../../df/da9/xmpp__auth_8c.html#a603b4a63af3c4e4af99442805fe89ae8" target="_top" xlink:title="Step 15: Client binds a resource.">
<polygon fill="none" stroke="black" points="402.5,-109.5 402.5,-128.5 503.5,-128.5 503.5,-109.5 402.5,-109.5"/>
<text text-anchor="middle" x="453" y="-116.5" font-family="DejaVuSansMono" font-size="10.00">handle_bind_iq</text>
</a>
</g>
<!-- Node1&#45;&gt;Node8 -->
<g id="edge14" class="edge"><title>Node1&#45;&gt;Node8</title>
<path fill="none" stroke="midnightblue" d="M117.993,-150.97C196.801,-143.427 330.129,-130.665 402.195,-123.767"/>
<polygon fill="midnightblue" stroke="midnightblue" points="117.34,-147.517 107.719,-151.954 118.007,-154.485 117.34,-147.517"/>
</g>
<!-- Node18 -->
<g id="node36" class="node"><title>Node18</title>
<a xlink:href="../../d8/d28/xmpp__core_8h.html#ae6da3d9438fd752c4afd6e50a6af9b66" target="_top" xlink:title="An xmpp_parser handler for stanzas from a local client.">
<polygon fill="none" stroke="black" points="168.5,-90.5 168.5,-109.5 323.5,-109.5 323.5,-90.5 168.5,-90.5"/>
<text text-anchor="middle" x="246" y="-97.5" font-family="DejaVuSansMono" font-size="10.00">xmpp_core_handle_stanza</text>
</a>
</g>
<!-- Node1&#45;&gt;Node18 -->
<g id="edge36" class="edge"><title>Node1&#45;&gt;Node18</title>
<path fill="none" stroke="midnightblue" d="M88.3032,-143.554C104.881,-137.144 125.323,-129.659 144,-124 162.025,-118.539 182.164,-113.537 199.687,-109.53"/>
<polygon fill="midnightblue" stroke="midnightblue" points="86.5661,-140.476 78.5309,-147.381 89.1186,-146.994 86.5661,-140.476"/>
</g>
<!-- Node19 -->
<g id="node39" class="node"><title>Node19</title>
<a xlink:href="../../d8/d28/xmpp__core_8h.html#a3b41e83061abd7ed5b258c7aa7dda0d6" target="_top" xlink:title="An xmpp_server stanza route for stanzas directed to a local client.">
<polygon fill="none" stroke="black" points="171.5,-52.5 171.5,-71.5 320.5,-71.5 320.5,-52.5 171.5,-52.5"/>
<text text-anchor="middle" x="246" y="-59.5" font-family="DejaVuSansMono" font-size="10.00">xmpp_core_route_client</text>
</a>
</g>
<!-- Node1&#45;&gt;Node19 -->
<g id="edge40" class="edge"><title>Node1&#45;&gt;Node19</title>
<path fill="none" stroke="midnightblue" d="M70.3101,-139.389C86.7054,-121.725 114.389,-95.1709 144,-81 152.53,-76.9178 161.857,-73.7115 171.285,-71.1934"/>
<polygon fill="midnightblue" stroke="midnightblue" points="67.3136,-137.485 63.2093,-147.252 72.5089,-142.176 67.3136,-137.485"/>
</g>
<!-- Node24 -->
<g id="node56" class="node"><title>Node24</title>
<a xlink:href="../../d1/d2e/xmpp__server_8h.html#a68a2a60f0e4a333e4262e4cebbf85d72" target="_top" xlink:title="Add a callback to be notified when a client disconnects.">
<polygon fill="none" stroke="black" points="144.5,-204.5 144.5,-223.5 347.5,-223.5 347.5,-204.5 144.5,-204.5"/>
<text text-anchor="middle" x="246" y="-211.5" font-family="DejaVuSansMono" font-size="10.00">xmpp_server_add_client_listener</text>
</a>
</g>
<!-- Node1&#45;&gt;Node24 -->
<g id="edge64" class="edge"><title>Node1&#45;&gt;Node24</title>
<path fill="none" stroke="midnightblue" d="M83.4395,-171.023C100.626,-179.019 123.17,-188.676 144,-195 156.292,-198.732 169.66,-201.867 182.525,-204.447"/>
<polygon fill="midnightblue" stroke="midnightblue" points="84.5281,-167.666 73.9928,-166.545 81.5295,-173.991 84.5281,-167.666"/>
</g>
<!-- Node25 -->
<g id="node59" class="node"><title>Node25</title>
<a xlink:href="../../d1/d2e/xmpp__server_8h.html#a312f47af548e12ec5d866bea1d142d5e" target="_top" xlink:title="Find a locally connected client by JID.">
<polygon fill="none" stroke="black" points="168.5,-166.5 168.5,-185.5 323.5,-185.5 323.5,-166.5 168.5,-166.5"/>
<text text-anchor="middle" x="246" y="-173.5" font-family="DejaVuSansMono" font-size="10.00">xmpp_server_find_client</text>
</a>
</g>
<!-- Node1&#45;&gt;Node25 -->
<g id="edge68" class="edge"><title>Node1&#45;&gt;Node25</title>
<path fill="none" stroke="midnightblue" d="M118.043,-163.304C134.161,-164.916 151.669,-166.667 168.387,-168.339"/>
<polygon fill="midnightblue" stroke="midnightblue" points="117.972,-159.78 107.673,-162.267 117.275,-166.745 117.972,-159.78"/>
</g>
<!-- Node3 -->
<g id="node5" class="node"><title>Node3</title>
<a xlink:href="../../d7/d71/xep__muc_8c.html#aefd23f2960520a68fea212344b85cb0b" target="_top" xlink:title="enter_room_presence">
<polygon fill="none" stroke="black" points="387.5,-213.5 387.5,-232.5 518.5,-232.5 518.5,-213.5 387.5,-213.5"/>
<text text-anchor="middle" x="453" y="-220.5" font-family="DejaVuSansMono" font-size="10.00">enter_room_presence</text>
</a>
</g>
<!-- Node2&#45;&gt;Node3 -->
<g id="edge4" class="edge"><title>Node2&#45;&gt;Node3</title>
<path fill="none" stroke="midnightblue" d="M315.833,-242.263C338.977,-238.989 364.698,-235.35 387.497,-232.125"/>
<polygon fill="midnightblue" stroke="midnightblue" points="315.156,-238.823 305.745,-243.69 316.136,-245.754 315.156,-238.823"/>
</g>
<!-- Node4 -->
<g id="node7" class="node"><title>Node4</title>
<a xlink:href="../../d7/d71/xep__muc_8c.html#a9936322b944d46aead9fbd942687ec0a" target="_top" xlink:title="handle_presence">
<polygon fill="none" stroke="black" points="564.5,-223.5 564.5,-242.5 671.5,-242.5 671.5,-223.5 564.5,-223.5"/>
<text text-anchor="middle" x="618" y="-230.5" font-family="DejaVuSansMono" font-size="10.00">handle_presence</text>
</a>
</g>
<!-- Node3&#45;&gt;Node4 -->
<g id="edge6" class="edge"><title>Node3&#45;&gt;Node4</title>
<path fill="none" stroke="midnightblue" d="M528.886,-227.594C540.866,-228.329 553.039,-229.076 564.358,-229.77"/>
<polygon fill="midnightblue" stroke="midnightblue" points="529.086,-224.1 518.89,-226.981 528.657,-231.087 529.086,-224.1"/>
</g>
<!-- Node5 -->
<g id="node9" class="node"><title>Node5</title>
<a xlink:href="../../d7/d71/xep__muc_8c.html#a1798db1c16a1fa62ff8f39fea202a26f" target="_top" xlink:title="stanza_handler">
<polygon fill="none" stroke="black" points="723.5,-223.5 723.5,-242.5 824.5,-242.5 824.5,-223.5 723.5,-223.5"/>
<text text-anchor="middle" x="774" y="-230.5" font-family="DejaVuSansMono" font-size="10.00">stanza_handler</text>
</a>
</g>
<!-- Node4&#45;&gt;Node5 -->
<g id="edge8" class="edge"><title>Node4&#45;&gt;Node5</title>
<path fill="none" stroke="midnightblue" d="M681.944,-233C695.712,-233 710.1,-233 723.266,-233"/>
<polygon fill="midnightblue" stroke="midnightblue" points="681.567,-229.5 671.567,-233 681.567,-236.5 681.567,-229.5"/>
</g>
<!-- Node6 -->
<g id="node11" class="node"><title>Node6</title>
<a xlink:href="../../d7/d71/xep__muc_8c.html#addf05166cf3fbe386ae6650be21ef251" target="_top" xlink:title="xep_muc_start">
<polygon fill="none" stroke="black" points="882.5,-242.5 882.5,-261.5 977.5,-261.5 977.5,-242.5 882.5,-242.5"/>
<text text-anchor="middle" x="930" y="-249.5" font-family="DejaVuSansMono" font-size="10.00">xep_muc_start</text>
</a>
</g>
<!-- Node5&#45;&gt;Node6 -->
<g id="edge10" class="edge"><title>Node5&#45;&gt;Node6</title>
<path fill="none" stroke="midnightblue" d="M834.782,-240.376C850.585,-242.325 867.407,-244.401 882.398,-246.25"/>
<polygon fill="midnightblue" stroke="midnightblue" points="834.928,-236.867 824.574,-239.116 834.07,-243.815 834.928,-236.867"/>
</g>
<!-- Node7 -->
<g id="node13" class="node"><title>Node7</title>
<a xlink:href="../../d7/d71/xep__muc_8c.html#a20d385a5584d8014ec4d5774eb79d1de" target="_top" xlink:title="xep_muc_stop">
<polygon fill="none" stroke="black" points="885.5,-204.5 885.5,-223.5 974.5,-223.5 974.5,-204.5 885.5,-204.5"/>
<text text-anchor="middle" x="930" y="-211.5" font-family="DejaVuSansMono" font-size="10.00">xep_muc_stop</text>
</a>
</g>
<!-- Node5&#45;&gt;Node7 -->
<g id="edge12" class="edge"><title>Node5&#45;&gt;Node7</title>
<path fill="none" stroke="midnightblue" d="M834.896,-225.61C851.761,-223.529 869.78,-221.306 885.489,-219.368"/>
<polygon fill="midnightblue" stroke="midnightblue" points="834.07,-222.185 824.574,-226.884 834.928,-229.133 834.07,-222.185"/>
</g>
<!-- Node9 -->
<g id="node17" class="node"><title>Node9</title>
<a xlink:href="../../df/da9/xmpp__auth_8c.html#a01804bd53eccc182ce76337fc0863e8d" target="_top" xlink:title="stream_bind_start">
<polygon fill="none" stroke="black" points="558.5,-109.5 558.5,-128.5 677.5,-128.5 677.5,-109.5 558.5,-109.5"/>
<text text-anchor="middle" x="618" y="-116.5" font-family="DejaVuSansMono" font-size="10.00">stream_bind_start</text>
</a>
</g>
<!-- Node8&#45;&gt;Node9 -->
<g id="edge16" class="edge"><title>Node8&#45;&gt;Node9</title>
<path fill="none" stroke="midnightblue" d="M514.113,-119C528.561,-119 543.974,-119 558.355,-119"/>
<polygon fill="midnightblue" stroke="midnightblue" points="513.791,-115.5 503.791,-119 513.791,-122.5 513.791,-115.5"/>
</g>
<!-- Node10 -->
<g id="node19" class="node"><title>Node10</title>
<a xlink:href="../../df/da9/xmpp__auth_8c.html#afb770a216868aa3fb43813b19d2a0115" target="_top" xlink:title="Begins SASL PLAIN authentication.">
<polygon fill="none" stroke="black" points="714.5,-114.5 714.5,-133.5 833.5,-133.5 833.5,-114.5 714.5,-114.5"/>
<text text-anchor="middle" x="774" y="-121.5" font-family="DejaVuSansMono" font-size="10.00">handle_sasl_plain</text>
</a>
</g>
<!-- Node9&#45;&gt;Node10 -->
<g id="edge18" class="edge"><title>Node9&#45;&gt;Node10</title>
<path fill="none" stroke="midnightblue" d="M687.894,-121.237C696.691,-121.522 705.631,-121.813 714.248,-122.092"/>
<polygon fill="midnightblue" stroke="midnightblue" points="687.768,-117.731 677.66,-120.905 687.541,-124.727 687.768,-117.731"/>
</g>
<!-- Node11 -->
<g id="node21" class="node"><title>Node11</title>
<a xlink:href="../../d3/d24/xmpp__auth_8h.html#ad3efd9ab093646bdfd8832c34ae2de4d" target="_top" xlink:title="Handler for the inital stream start to begin authentication.">
<polygon fill="none" stroke="black" points="1191.5,-152.5 1191.5,-171.5 1340.5,-171.5 1340.5,-152.5 1191.5,-152.5"/>
<text text-anchor="middle" x="1266" y="-159.5" font-family="DejaVuSansMono" font-size="10.00">xmpp_auth_stream_start</text>
</a>
</g>
<!-- Node10&#45;&gt;Node11 -->
<g id="edge20" class="edge"><title>Node10&#45;&gt;Node11</title>
<path fill="none" stroke="midnightblue" d="M825.997,-135.655C840.176,-138.497 855.627,-141.227 870,-143 981.408,-156.742 1111.63,-160.681 1191.19,-161.733"/>
<polygon fill="midnightblue" stroke="midnightblue" points="826.433,-132.171 815.932,-133.578 825.018,-139.027 826.433,-132.171"/>
</g>
<!-- Node16 -->
<g id="node31" class="node"><title>Node16</title>
<a xlink:href="../../df/da9/xmpp__auth_8c.html#afd7b12689591d40109a88ad108b5c3a2" target="_top" xlink:title="stream_sasl_start">
<polygon fill="none" stroke="black" points="870.5,-114.5 870.5,-133.5 989.5,-133.5 989.5,-114.5 870.5,-114.5"/>
<text text-anchor="middle" x="930" y="-121.5" font-family="DejaVuSansMono" font-size="10.00">stream_sasl_start</text>
</a>
</g>
<!-- Node10&#45;&gt;Node16 -->
<g id="edge30" class="edge"><title>Node10&#45;&gt;Node16</title>
<path fill="none" stroke="midnightblue" d="M843.894,-124C852.691,-124 861.631,-124 870.248,-124"/>
<polygon fill="midnightblue" stroke="midnightblue" points="843.66,-120.5 833.66,-124 843.66,-127.5 843.66,-120.5"/>
</g>
<!-- Node12 -->
<g id="node23" class="node"><title>Node12</title>
<a xlink:href="../../d4/d2f/xmpp__client_8h.html#a1619c0b8f58b2cf09a322bf34fbc3414" target="_top" xlink:title="xmpp_client_new">
<polygon fill="none" stroke="black" points="1398.5,-76.5 1398.5,-95.5 1505.5,-95.5 1505.5,-76.5 1398.5,-76.5"/>
<text text-anchor="middle" x="1452" y="-83.5" font-family="DejaVuSansMono" font-size="10.00">xmpp_client_new</text>
</a>
</g>
<!-- Node11&#45;&gt;Node12 -->
<g id="edge22" class="edge"><title>Node11&#45;&gt;Node12</title>
<path fill="none" stroke="midnightblue" d="M1299.62,-148.529C1336.46,-133.309 1395.5,-108.924 1427.89,-95.5473"/>
<polygon fill="midnightblue" stroke="midnightblue" points="1298.21,-145.322 1290.3,-152.375 1300.88,-151.792 1298.21,-145.322"/>
</g>
<!-- Node13 -->
<g id="node25" class="node"><title>Node13</title>
<a xlink:href="../../d0/df0/xmpp__server_8c.html#a66363912ef1221a2574f9f99805fe8fd" target="_top" xlink:title="Callback for new client connections.">
<polygon fill="none" stroke="black" points="1545.5,-76.5 1545.5,-95.5 1646.5,-95.5 1646.5,-76.5 1545.5,-76.5"/>
<text text-anchor="middle" x="1596" y="-83.5" font-family="DejaVuSansMono" font-size="10.00">connect_client</text>
</a>
</g>
<!-- Node12&#45;&gt;Node13 -->
<g id="edge24" class="edge"><title>Node12&#45;&gt;Node13</title>
<path fill="none" stroke="midnightblue" d="M1516.02,-86C1525.85,-86 1535.89,-86 1545.37,-86"/>
<polygon fill="midnightblue" stroke="midnightblue" points="1515.88,-82.5001 1505.88,-86 1515.88,-89.5001 1515.88,-82.5001"/>
</g>
<!-- Node14 -->
<g id="node27" class="node"><title>Node14</title>
<a xlink:href="../../d1/d2e/xmpp__server_8h.html#a27bfc8e4d424a8bc17ab21a4a09cdf92" target="_top" xlink:title="Allocates and initializes the XMPP server.">
<polygon fill="none" stroke="black" points="1686.5,-76.5 1686.5,-95.5 1793.5,-95.5 1793.5,-76.5 1686.5,-76.5"/>
<text text-anchor="middle" x="1740" y="-83.5" font-family="DejaVuSansMono" font-size="10.00">xmpp_server_new</text>
</a>
</g>
<!-- Node13&#45;&gt;Node14 -->
<g id="edge26" class="edge"><title>Node13&#45;&gt;Node14</title>
<path fill="none" stroke="midnightblue" d="M1656.73,-86C1666.53,-86 1676.62,-86 1686.23,-86"/>
<polygon fill="midnightblue" stroke="midnightblue" points="1656.66,-82.5001 1646.66,-86 1656.66,-89.5001 1656.66,-82.5001"/>
</g>
<!-- Node15 -->
<g id="node29" class="node"><title>Node15</title>
<a xlink:href="../../d0/d29/main_8c.html#a0ddf1224851353fc92bfbff6f499fa97" target="_top" xlink:title="main">
<polygon fill="none" stroke="black" points="1830.5,-57.5 1830.5,-76.5 1871.5,-76.5 1871.5,-57.5 1830.5,-57.5"/>
<text text-anchor="middle" x="1851" y="-64.5" font-family="DejaVuSansMono" font-size="10.00">main</text>
</a>
</g>
<!-- Node14&#45;&gt;Node15 -->
<g id="edge28" class="edge"><title>Node14&#45;&gt;Node15</title>
<path fill="none" stroke="midnightblue" d="M1803.45,-75.1151C1813.24,-73.4082 1822.68,-71.7622 1830.47,-70.404"/>
<polygon fill="midnightblue" stroke="midnightblue" points="1802.83,-71.6686 1793.58,-76.8339 1804.04,-78.5646 1802.83,-71.6686"/>
</g>
<!-- Node17 -->
<g id="node33" class="node"><title>Node17</title>
<a xlink:href="../../df/da9/xmpp__auth_8c.html#a8dd789e057b9812e4dd1aa524dfb6a65" target="_top" xlink:title="Begins TLS authentication.">
<polygon fill="none" stroke="black" points="1026.5,-114.5 1026.5,-133.5 1133.5,-133.5 1133.5,-114.5 1026.5,-114.5"/>
<text text-anchor="middle" x="1080" y="-121.5" font-family="DejaVuSansMono" font-size="10.00">handle_starttls</text>
</a>
</g>
<!-- Node16&#45;&gt;Node17 -->
<g id="edge32" class="edge"><title>Node16&#45;&gt;Node17</title>
<path fill="none" stroke="midnightblue" d="M1000.09,-124C1008.81,-124 1017.62,-124 1026.04,-124"/>
<polygon fill="midnightblue" stroke="midnightblue" points="999.919,-120.5 989.919,-124 999.919,-127.5 999.919,-120.5"/>
</g>
<!-- Node17&#45;&gt;Node11 -->
<g id="edge34" class="edge"><title>Node17&#45;&gt;Node11</title>
<path fill="none" stroke="midnightblue" d="M1137.56,-135.681C1163.65,-141.07 1194.24,-147.386 1218.9,-152.48"/>
<polygon fill="midnightblue" stroke="midnightblue" points="1137.93,-132.184 1127.43,-133.589 1136.52,-139.039 1137.93,-132.184"/>
</g>
<!-- Node18&#45;&gt;Node8 -->
<g id="edge38" class="edge"><title>Node18&#45;&gt;Node8</title>
<path fill="none" stroke="midnightblue" d="M333.62,-108.028C357.137,-110.208 381.797,-112.493 402.486,-114.411"/>
<polygon fill="midnightblue" stroke="midnightblue" points="333.906,-104.54 323.626,-107.102 333.26,-111.51 333.906,-104.54"/>
</g>
<!-- Node19&#45;&gt;Node8 -->
<g id="edge42" class="edge"><title>Node19&#45;&gt;Node8</title>
<path fill="none" stroke="midnightblue" d="M316.697,-73.5562C327.251,-75.7538 337.961,-78.2418 348,-81 376.546,-88.8428 408.383,-101.001 429.221,-109.445"/>
<polygon fill="midnightblue" stroke="midnightblue" points="317.147,-70.0768 306.654,-71.5388 315.769,-76.9397 317.147,-70.0768"/>
</g>
<!-- Node20 -->
<g id="node42" class="node"><title>Node20</title>
<a xlink:href="../../d4/d2f/xmpp__client_8h.html#add2df61245a543667b6d98e3fcd57077" target="_top" xlink:title="xmpp_client_del">
<polygon fill="none" stroke="black" points="1026.5,-52.5 1026.5,-71.5 1133.5,-71.5 1133.5,-52.5 1026.5,-52.5"/>
<text text-anchor="middle" x="1080" y="-59.5" font-family="DejaVuSansMono" font-size="10.00">xmpp_client_del</text>
</a>
</g>
<!-- Node19&#45;&gt;Node20 -->
<g id="edge44" class="edge"><title>Node19&#45;&gt;Node20</title>
<path fill="none" stroke="midnightblue" d="M331.036,-62C406.03,-62 518.839,-62 617,-62 617,-62 617,-62 775,-62 863.139,-62 965.652,-62 1026.28,-62"/>
<polygon fill="midnightblue" stroke="midnightblue" points="330.711,-58.5001 320.711,-62 330.711,-65.5001 330.711,-58.5001"/>
</g>
<!-- Node20&#45;&gt;Node12 -->
<g id="edge46" class="edge"><title>Node20&#45;&gt;Node12</title>
<path fill="none" stroke="midnightblue" d="M1143.85,-66.0768C1215.45,-70.7209 1331.17,-78.2276 1398.26,-82.5792"/>
<polygon fill="midnightblue" stroke="midnightblue" points="1143.82,-62.5678 1133.62,-65.4131 1143.37,-69.5532 1143.82,-62.5678"/>
</g>
<!-- Node20&#45;&gt;Node13 -->
<g id="edge62" class="edge"><title>Node20&#45;&gt;Node13</title>
<path fill="none" stroke="midnightblue" d="M1118.21,-74.7638C1134,-79.6827 1152.72,-84.8675 1170,-88 1317.13,-114.67 1357.3,-120.695 1506,-105 1523.6,-103.143 1542.83,-99.2736 1558.9,-95.5088"/>
<polygon fill="midnightblue" stroke="midnightblue" points="1118.9,-71.3073 1108.3,-71.594 1116.76,-77.9745 1118.9,-71.3073"/>
</g>
<!-- Node21 -->
<g id="node45" class="node"><title>Node21</title>
<a xlink:href="../../d1/d2e/xmpp__server_8h.html#af7d75415fd5671841797bf77bbc1a981" target="_top" xlink:title="Cleans up an XMPP server instance.">
<polygon fill="none" stroke="black" points="1542.5,-38.5 1542.5,-57.5 1649.5,-57.5 1649.5,-38.5 1542.5,-38.5"/>
<text text-anchor="middle" x="1596" y="-45.5" font-family="DejaVuSansMono" font-size="10.00">xmpp_server_del</text>
</a>
</g>
<!-- Node20&#45;&gt;Node21 -->
<g id="edge48" class="edge"><title>Node20&#45;&gt;Node21</title>
<path fill="none" stroke="midnightblue" d="M1143.78,-60.29C1246.16,-57.5015 1447.18,-52.0263 1542.48,-49.4304"/>
<polygon fill="midnightblue" stroke="midnightblue" points="1143.49,-56.7965 1133.59,-60.5675 1143.68,-63.7939 1143.49,-56.7965"/>
</g>
<!-- Node22 -->
<g id="node49" class="node"><title>Node22</title>
<a xlink:href="../../d1/d2e/xmpp__server_8h.html#a79e02871228c509de0c70961d74a1bcb" target="_top" xlink:title="Attempt to cleanly disconnect a client, and clean up its resources.">
<polygon fill="none" stroke="black" points="1170.5,-0.5 1170.5,-19.5 1361.5,-19.5 1361.5,-0.5 1170.5,-0.5"/>
<text text-anchor="middle" x="1266" y="-7.5" font-family="DejaVuSansMono" font-size="10.00">xmpp_server_disconnect_client</text>
</a>
</g>
<!-- Node20&#45;&gt;Node22 -->
<g id="edge54" class="edge"><title>Node20&#45;&gt;Node22</title>
<path fill="none" stroke="midnightblue" d="M1119.92,-49.2223C1135.44,-44.2672 1153.51,-38.6731 1170,-34 1188,-28.8984 1208.08,-23.7498 1225.11,-19.5366"/>
<polygon fill="midnightblue" stroke="midnightblue" points="1118.58,-45.9768 1110.14,-52.3701 1120.73,-52.6407 1118.58,-45.9768"/>
</g>
<!-- Node21&#45;&gt;Node14 -->
<g id="edge52" class="edge"><title>Node21&#45;&gt;Node14</title>
<path fill="none" stroke="midnightblue" d="M1642.49,-60.1742C1662.13,-65.4287 1684.77,-71.4866 1703.18,-76.4141"/>
<polygon fill="midnightblue" stroke="midnightblue" points="1643.4,-56.7931 1632.83,-57.589 1641.59,-63.5552 1643.4,-56.7931"/>
</g>
<!-- Node21&#45;&gt;Node15 -->
<g id="edge50" class="edge"><title>Node21&#45;&gt;Node15</title>
<path fill="none" stroke="midnightblue" d="M1659.9,-52.7236C1715.84,-56.9246 1794.21,-62.81 1830.34,-65.5233"/>
<polygon fill="midnightblue" stroke="midnightblue" points="1659.96,-49.2187 1649.73,-51.9599 1659.44,-56.199 1659.96,-49.2187"/>
</g>
<!-- Node22&#45;&gt;Node19 -->
<g id="edge56" class="edge"><title>Node22&#45;&gt;Node19</title>
<path fill="none" stroke="midnightblue" d="M1159.97,-12.3776C1094.19,-13.6671 1007.65,-15 931,-15 617,-15 617,-15 617,-15 499.151,-15 361.859,-38.7553 292.334,-52.4888"/>
<polygon fill="midnightblue" stroke="midnightblue" points="1160.42,-15.8695 1170.35,-12.1713 1160.28,-8.87092 1160.42,-15.8695"/>
</g>
<!-- Node23 -->
<g id="node52" class="node"><title>Node23</title>
<a xlink:href="../../d0/df0/xmpp__server_8c.html#abece91815ef240322d79073f5bfca1db" target="_top" xlink:title="Callback for new data from a client.">
<polygon fill="none" stroke="black" points="1410.5,-0.5 1410.5,-19.5 1493.5,-19.5 1493.5,-0.5 1410.5,-0.5"/>
<text text-anchor="middle" x="1452" y="-7.5" font-family="DejaVuSansMono" font-size="10.00">read_client</text>
</a>
</g>
<!-- Node22&#45;&gt;Node23 -->
<g id="edge58" class="edge"><title>Node22&#45;&gt;Node23</title>
<path fill="none" stroke="midnightblue" d="M1372.07,-10C1385.56,-10 1398.68,-10 1410.21,-10"/>
<polygon fill="midnightblue" stroke="midnightblue" points="1371.7,-6.5001 1361.69,-10 1371.69,-13.5001 1371.7,-6.5001"/>
</g>
<!-- Node23&#45;&gt;Node13 -->
<g id="edge60" class="edge"><title>Node23&#45;&gt;Node13</title>
<path fill="none" stroke="midnightblue" d="M1474.39,-25.6482C1491.93,-37.9977 1517.74,-55.074 1542,-67 1549.11,-70.4932 1557.02,-73.678 1564.52,-76.3998"/>
<polygon fill="midnightblue" stroke="midnightblue" points="1476.19,-22.6354 1466.02,-19.6734 1472.12,-28.3325 1476.19,-22.6354"/>
</g>
<!-- Node24&#45;&gt;Node3 -->
<g id="edge66" class="edge"><title>Node24&#45;&gt;Node3</title>
<path fill="none" stroke="midnightblue" d="M357.792,-218.864C367.864,-219.306 377.829,-219.744 387.294,-220.159"/>
<polygon fill="midnightblue" stroke="midnightblue" points="357.842,-215.363 347.698,-218.421 357.535,-222.356 357.842,-215.363"/>
</g>
<!-- Node25&#45;&gt;Node3 -->
<g id="edge70" class="edge"><title>Node25&#45;&gt;Node3</title>
<path fill="none" stroke="midnightblue" d="M311.919,-187.447C323.949,-189.785 336.381,-192.347 348,-195 371.88,-200.452 398.554,-207.657 418.908,-213.392"/>
<polygon fill="midnightblue" stroke="midnightblue" points="312.415,-183.979 301.936,-185.539 311.101,-190.854 312.415,-183.979"/>
</g>
<!-- Node25&#45;&gt;Node8 -->
<g id="edge78" class="edge"><title>Node25&#45;&gt;Node8</title>
<path fill="none" stroke="midnightblue" d="M300.343,-164.103C315.779,-160.45 332.612,-156.263 348,-152 373.922,-144.818 403.085,-135.45 423.919,-128.531"/>
<polygon fill="midnightblue" stroke="midnightblue" points="299.371,-160.736 290.431,-166.421 300.965,-167.552 299.371,-160.736"/>
</g>
<!-- Node26 -->
<g id="node62" class="node"><title>Node26</title>
<a xlink:href="../../d6/d78/xmp3__multicast_8c.html#a3ef84feef94d4ad6045cd45fd91b531c" target="_top" xlink:title="local_stanza_handler">
<polygon fill="none" stroke="black" points="384.5,-166.5 384.5,-185.5 521.5,-185.5 521.5,-166.5 384.5,-166.5"/>
<text text-anchor="middle" x="453" y="-173.5" font-family="DejaVuSansMono" font-size="10.00">local_stanza_handler</text>
</a>
</g>
<!-- Node25&#45;&gt;Node26 -->
<g id="edge72" class="edge"><title>Node25&#45;&gt;Node26</title>
<path fill="none" stroke="midnightblue" d="M333.995,-176C350.792,-176 368.158,-176 384.232,-176"/>
<polygon fill="midnightblue" stroke="midnightblue" points="333.626,-172.5 323.626,-176 333.626,-179.5 333.626,-172.5"/>
</g>
<!-- Node27 -->
<g id="node64" class="node"><title>Node27</title>
<a xlink:href="../../d6/d78/xmp3__multicast_8c.html#a991c928ab73b350c4b7029352e91a219" target="_top" xlink:title="multicast_start">
<polygon fill="none" stroke="black" points="564.5,-185.5 564.5,-204.5 671.5,-204.5 671.5,-185.5 564.5,-185.5"/>
<text text-anchor="middle" x="618" y="-192.5" font-family="DejaVuSansMono" font-size="10.00">multicast_start</text>
</a>
</g>
<!-- Node26&#45;&gt;Node27 -->
<g id="edge74" class="edge"><title>Node26&#45;&gt;Node27</title>
<path fill="none" stroke="midnightblue" d="M531.808,-185.07C542.855,-186.357 553.993,-187.656 564.408,-188.87"/>
<polygon fill="midnightblue" stroke="midnightblue" points="532.049,-181.574 521.711,-183.893 531.238,-188.527 532.049,-181.574"/>
</g>
<!-- Node28 -->
<g id="node66" class="node"><title>Node28</title>
<a xlink:href="../../d6/d78/xmp3__multicast_8c.html#ad161abeabc58820fd3a24b4422c5b9a7" target="_top" xlink:title="multicast_stop">
<polygon fill="none" stroke="black" points="567.5,-147.5 567.5,-166.5 668.5,-166.5 668.5,-147.5 567.5,-147.5"/>
<text text-anchor="middle" x="618" y="-154.5" font-family="DejaVuSansMono" font-size="10.00">multicast_stop</text>
</a>
</g>
<!-- Node26&#45;&gt;Node28 -->
<g id="edge76" class="edge"><title>Node26&#45;&gt;Node28</title>
<path fill="none" stroke="midnightblue" d="M531.77,-166.935C543.804,-165.532 555.946,-164.117 567.145,-162.811"/>
<polygon fill="midnightblue" stroke="midnightblue" points="531.238,-163.473 521.711,-168.107 532.049,-170.426 531.238,-163.473"/>
</g>
</g>
</svg>
        <g id="navigator" transform="translate(0 0)" fill="#404254">
                <rect fill="#f2f5e9" fill-opacity="0.5" stroke="#606060" stroke-width=".5" x="0" y="0" width="60" height="60"/>
                <use id="zoomplus" xlink:href="#zoomPlus" x="17" y="9" onmousedown="handleZoom(evt,'in')"/>
                <use id="zoomminus" xlink:href="#zoomMin" x="42" y="9" onmousedown="handleZoom(evt,'out')"/>
                <use id="reset" xlink:href="#resetDef" x="30" y="36" onmousedown="handleReset()"/>
                <g id="arrowUp" xlink:href="#dirArrow" transform="translate(30 24)" onmousedown="handlePan(0,-1)">
                  <use xlink:href="#rim" fill="#404040">
                        <set attributeName="fill" to="#808080" begin="arrowUp.mouseover" end="arrowUp.mouseout"/>
                  </use>
                  <path fill="none" stroke="white" stroke-width="1.5" d="M0,-3.0v7 M-2.5,-0.5L0,-3.0L2.5,-0.5"/>
                </g>
                <g id="arrowRight" xlink:href="#dirArrow" transform="rotate(90) translate(36 -43)" onmousedown="handlePan(1,0)">
                  <use xlink:href="#rim" fill="#404040">
                        <set attributeName="fill" to="#808080" begin="arrowRight.mouseover" end="arrowRight.mouseout"/>
                  </use>
                  <path fill="none" stroke="white" stroke-width="1.5" d="M0,-3.0v7 M-2.5,-0.5L0,-3.0L2.5,-0.5"/>
                </g>
                <g id="arrowDown" xlink:href="#dirArrow" transform="rotate(180) translate(-30 -48)" onmousedown="handlePan(0,1)">
                  <use xlink:href="#rim" fill="#404040">
                        <set attributeName="fill" to="#808080" begin="arrowDown.mouseover" end="arrowDown.mouseout"/>
                  </use>
                  <path fill="none" stroke="white" stroke-width="1.5" d="M0,-3.0v7 M-2.5,-0.5L0,-3.0L2.5,-0.5"/>
                </g>
                <g id="arrowLeft" xlink:href="#dirArrow" transform="rotate(270) translate(-36 17)" onmousedown="handlePan(-1,0)">
                  <use xlink:href="#rim" fill="#404040">
                        <set attributeName="fill" to="#808080" begin="arrowLeft.mouseover" end="arrowLeft.mouseout"/>
                  </use>
                  <path fill="none" stroke="white" stroke-width="1.5" d="M0,-3.0v7 M-2.5,-0.5L0,-3.0L2.5,-0.5"/>
                </g>
        </g>
        <svg viewBox="0 0 25 25" width="100%" height="30px" preserveAspectRatio="xMaxYMin meet"> 
          <g id="printButton" transform="scale(0.4 0.4)" onmousedown="handlePrint(evt)">
            <rect height="23.33753581" id="paper" rx="2" style="fill:#f2f5e9;fill-rule:evenodd;stroke:#111111;stroke-width:3.224;stroke-linejoin:round;" transform="matrix(1.000000,0.000000,-0.339266,0.940691,0.000000,0.000000)" width="25.55231285" x="26.69387353" y="7.36162977"/>
            <rect height="26.272097" id="body" rx="2" style="fill:#404040;fill-rule:evenodd;stroke:#111111;stroke-width:3.125;stroke-linejoin:round;" width="50" x="4.5295201" y="27.078951"/>
            <rect height="8.27750969" id="tray" style="fill:#d2d5c9;fill-rule:evenodd;stroke:#111111;stroke-width:3.125;stroke-linecap:round;stroke-linejoin:round;" width="40" x="10.28778839" y="44.96812282"/>
          </g>
        </svg>
</svg>
