<?xml version="1.0" encoding="UTF-8" standalone="no"?>
<!DOCTYPE svg PUBLIC "-//W3C//DTD SVG 1.1//EN"
 "http://www.w3.org/Graphics/SVG/1.1/DTD/svg11.dtd">
<!-- Generated by graphviz version 2.28.0 (20120217.0315)
 -->
<!-- Title: G Pages: 1 -->
<!--zoomable 403 -->
<svg id="main" version="1.1" xmlns="http://www.w3.org/2000/svg" xmlns:xlink="http://www.w3.org/1999/xlink" xml:space="preserve" onload="init(evt)">
        <defs>
                <circle id="rim" cx="0" cy="0" r="7"/>
                <circle id="rim2" cx="0" cy="0" r="3.5"/>
                <g id="zoomPlus">
                        <use xlink:href="#rim" fill="#404040">
                                <set attributeName="fill" to="#808080" begin="zoomplus.mouseover" end="zoomplus.mouseout"/>
                        </use>
                        <path d="M-4,0h8M0,-4v8" fill="none" stroke="white" stroke-width="1.5" pointer-events="none"/>
                </g>
                <g id="zoomMin">
                        <use xlink:href="#rim" fill="#404040">
                                <set attributeName="fill" to="#808080" begin="zoomminus.mouseover" end="zoomminus.mouseout"/>
                        </use>
                        <path d="M-4,0h8" fill="none" stroke="white" stroke-width="1.5" pointer-events="none"/>
                </g>
                <g id="dirArrow">
                        <path fill="none" stroke="white" stroke-width="1.5" d="M0,-3.0v7 M-2.5,-0.5L0,-3.0L2.5,-0.5"/>
                </g>
               <g id="resetDef">
                       <use xlink:href="#rim2" fill="#404040">
                               <set attributeName="fill" to="#808080" begin="reset.mouseover" end="reset.mouseout"/>
                       </use>
               </g>
        </defs>

<script type="text/javascript">
var viewWidth = 950;
var viewHeight = 403;
var sectionId = 'dynsection-2';
</script>
<script xlink:href="../../svgpan.js"/>
<svg id="graph" class="graph">
<g id="viewport">
<title>G</title>
<!-- Node1 -->
<g id="node1" class="node"><title>Node1</title>
<polygon fill="#bfbfbf" stroke="black" points="0.5,-166.711 0.5,-185.711 107.5,-185.711 107.5,-166.711 0.5,-166.711"/>
<text text-anchor="middle" x="54" y="-173.711" font-family="DejaVuSansMono" font-size="10.00">xmpp_client_del</text>
</g>
<!-- Node2 -->
<g id="node3" class="node"><title>Node2</title>
<a xlink:href="../../d0/df0/xmpp__server_8c.html#af2e493f9f89b437fae7212b941c536cf" target="_top" xlink:title="Remove a callback from the list of routes for stanza delivery.">
<polygon fill="none" stroke="black" points="144.5,-337.711 144.5,-356.711 329.5,-356.711 329.5,-337.711 144.5,-337.711"/>
<text text-anchor="middle" x="237" y="-344.711" font-family="DejaVuSansMono" font-size="10.00">xmpp_server_del_stanza_route</text>
</a>
</g>
<!-- Node1&#45;&gt;Node2 -->
<g id="edge2" class="edge"><title>Node1&#45;&gt;Node2</title>
<path fill="none" stroke="midnightblue" d="M57.6472,-185.932C65.6125,-213.219 92.072,-290.953 144,-328.211 146.567,-330.053 149.273,-331.725 152.082,-333.242"/>
<polygon fill="midnightblue" stroke="midnightblue" points="150.816,-336.514 161.357,-337.58 153.781,-330.173 150.816,-336.514"/>
</g>
<!-- Node3 -->
<g id="node5" class="node"><title>Node3</title>
<a xlink:href="../../d6/d13/xmpp__core_8c.html#a3b41e83061abd7ed5b258c7aa7dda0d6" target="_top" xlink:title="An xmpp_server stanza route for stanzas directed to a local client.">
<polygon fill="none" stroke="black" points="162.5,-299.711 162.5,-318.711 311.5,-318.711 311.5,-299.711 162.5,-299.711"/>
<text text-anchor="middle" x="237" y="-306.711" font-family="DejaVuSansMono" font-size="10.00">xmpp_core_route_client</text>
</a>
</g>
<!-- Node1&#45;&gt;Node3 -->
<g id="edge4" class="edge"><title>Node1&#45;&gt;Node3</title>
<path fill="none" stroke="midnightblue" d="M59.4582,-185.716C70.4101,-207.943 100.914,-263.45 144,-290.211 147.409,-292.329 151.014,-294.215 154.744,-295.894"/>
<polygon fill="midnightblue" stroke="midnightblue" points="153.649,-299.225 164.235,-299.658 156.229,-292.718 153.649,-299.225"/>
</g>
<!-- Node16 -->
<g id="node32" class="node"><title>Node16</title>
<a xlink:href="../../d3/d5a/jid_8c.html#ab83fd5aae95de2c9d38fb9d9cd161580" target="_top" xlink:title="Cleans up and frees an existing JID.">
<polygon fill="none" stroke="black" points="207.5,-261.711 207.5,-280.711 266.5,-280.711 266.5,-261.711 207.5,-261.711"/>
<text text-anchor="middle" x="237" y="-268.711" font-family="DejaVuSansMono" font-size="10.00">jid_del</text>
</a>
</g>
<!-- Node1&#45;&gt;Node16 -->
<g id="edge32" class="edge"><title>Node1&#45;&gt;Node16</title>
<path fill="none" stroke="midnightblue" d="M63.2405,-185.894C77.7752,-202.302 109.691,-235.417 144,-252.211 160.498,-260.287 180.286,-264.934 197.276,-267.607"/>
<polygon fill="midnightblue" stroke="midnightblue" points="197.05,-271.109 207.439,-269.029 198.02,-264.177 197.05,-271.109"/>
</g>
<!-- Node17 -->
<g id="node34" class="node"><title>Node17</title>
<a xlink:href="../../d0/deb/event_8c.html#a9c3c87f32e90d8fa0245d154fac61da9" target="_top" xlink:title="Deregisters a callback for a particular file descriptor.">
<polygon fill="none" stroke="black" points="153.5,-223.711 153.5,-242.711 320.5,-242.711 320.5,-223.711 153.5,-223.711"/>
<text text-anchor="middle" x="237" y="-230.711" font-family="DejaVuSansMono" font-size="10.00">event_deregister_callback</text>
</a>
</g>
<!-- Node1&#45;&gt;Node17 -->
<g id="edge34" class="edge"><title>Node1&#45;&gt;Node17</title>
<path fill="none" stroke="midnightblue" d="M74.3691,-185.818C92.118,-194.296 119.31,-206.476 144,-214.211 152.572,-216.896 161.714,-219.306 170.784,-221.434"/>
<polygon fill="midnightblue" stroke="midnightblue" points="170.044,-224.854 180.568,-223.632 171.578,-218.025 170.044,-224.854"/>
</g>
<!-- Node18 -->
<g id="node36" class="node"><title>Node18</title>
<a xlink:href="../../d0/df0/xmpp__server_8c.html#ac84f99d96a630f056f36dc0aa9cac9dd" target="_top" xlink:title="Gets the event loop instance this server is using.">
<polygon fill="none" stroke="black" points="180.5,-185.711 180.5,-204.711 293.5,-204.711 293.5,-185.711 180.5,-185.711"/>
<text text-anchor="middle" x="237" y="-192.711" font-family="DejaVuSansMono" font-size="10.00">xmpp_server_loop</text>
</a>
</g>
<!-- Node1&#45;&gt;Node18 -->
<g id="edge36" class="edge"><title>Node1&#45;&gt;Node18</title>
<path fill="none" stroke="midnightblue" d="M107.839,-181.758C127.299,-183.8 149.586,-186.14 170.059,-188.289"/>
<polygon fill="midnightblue" stroke="midnightblue" points="169.947,-191.796 180.258,-189.359 170.678,-184.835 169.947,-191.796"/>
</g>
<!-- Node19 -->
<g id="node38" class="node"><title>Node19</title>
<a xlink:href="../../d4/d8e/client__socket_8c.html#a66a8a7fa65db357c88039c8589c7aaa9" target="_top" xlink:title="client_socket_fd">
<polygon fill="none" stroke="black" points="180.5,-147.711 180.5,-166.711 293.5,-166.711 293.5,-147.711 180.5,-147.711"/>
<text text-anchor="middle" x="237" y="-154.711" font-family="DejaVuSansMono" font-size="10.00">client_socket_fd</text>
</a>
</g>
<!-- Node1&#45;&gt;Node19 -->
<g id="edge38" class="edge"><title>Node1&#45;&gt;Node19</title>
<path fill="none" stroke="midnightblue" d="M107.839,-170.664C127.299,-168.622 149.586,-166.282 170.059,-164.133"/>
<polygon fill="midnightblue" stroke="midnightblue" points="170.678,-167.587 180.258,-163.062 169.947,-160.625 170.678,-167.587"/>
</g>
<!-- Node20 -->
<g id="node40" class="node"><title>Node20</title>
<a xlink:href="../../d4/d8e/client__socket_8c.html#abb4fb0de12fd5f701186d9b641ae0905" target="_top" xlink:title="Closes a client_socket.">
<polygon fill="none" stroke="black" points="171.5,-109.711 171.5,-128.711 302.5,-128.711 302.5,-109.711 171.5,-109.711"/>
<text text-anchor="middle" x="237" y="-116.711" font-family="DejaVuSansMono" font-size="10.00">client_socket_close</text>
</a>
</g>
<!-- Node1&#45;&gt;Node20 -->
<g id="edge40" class="edge"><title>Node1&#45;&gt;Node20</title>
<path fill="none" stroke="midnightblue" d="M74.3691,-166.604C92.118,-158.126 119.31,-145.946 144,-138.211 152.572,-135.525 161.714,-133.116 170.784,-130.988"/>
<polygon fill="midnightblue" stroke="midnightblue" points="171.578,-134.397 180.568,-128.79 170.044,-127.567 171.578,-134.397"/>
</g>
<!-- Node21 -->
<g id="node42" class="node"><title>Node21</title>
<a xlink:href="../../d4/d8e/client__socket_8c.html#a9983d6e2b69132508044b4c07bca147e" target="_top" xlink:title="Closes, cleans up and deallocates a client_socket structure.">
<polygon fill="none" stroke="black" points="177.5,-71.7109 177.5,-90.7109 296.5,-90.7109 296.5,-71.7109 177.5,-71.7109"/>
<text text-anchor="middle" x="237" y="-78.7109" font-family="DejaVuSansMono" font-size="10.00">client_socket_del</text>
</a>
</g>
<!-- Node1&#45;&gt;Node21 -->
<g id="edge42" class="edge"><title>Node1&#45;&gt;Node21</title>
<path fill="none" stroke="midnightblue" d="M63.2405,-166.528C77.7752,-150.12 109.691,-117.005 144,-100.211 151.29,-96.6425 159.222,-93.7434 167.272,-91.3883"/>
<polygon fill="midnightblue" stroke="midnightblue" points="168.345,-94.7247 177.113,-88.777 166.55,-87.9588 168.345,-94.7247"/>
</g>
<!-- Node22 -->
<g id="node44" class="node"><title>Node22</title>
<a xlink:href="../../d1/dc2/xmpp__parser_8c.html#a2620ca01bcf1a68025ec51681c6416f2" target="_top" xlink:title="xmpp_parser_del">
<polygon fill="none" stroke="black" points="183.5,-33.7109 183.5,-52.7109 290.5,-52.7109 290.5,-33.7109 183.5,-33.7109"/>
<text text-anchor="middle" x="237" y="-40.7109" font-family="DejaVuSansMono" font-size="10.00">xmpp_parser_del</text>
</a>
</g>
<!-- Node1&#45;&gt;Node22 -->
<g id="edge44" class="edge"><title>Node1&#45;&gt;Node22</title>
<path fill="none" stroke="midnightblue" d="M59.4582,-166.706C70.4101,-144.479 100.914,-88.9717 144,-62.2109 152.924,-56.668 163.182,-52.7116 173.537,-49.8942"/>
<polygon fill="midnightblue" stroke="midnightblue" points="174.541,-53.253 183.455,-47.5273 172.916,-46.4442 174.541,-53.253"/>
</g>
<!-- Node4 -->
<g id="node7" class="node"><title>Node4</title>
<a xlink:href="../../d3/d5a/jid_8c.html#a3d51f2b27d20189e523b0d0b2a77e4a9" target="_top" xlink:title="Converts a JID to a newly allocated string.">
<polygon fill="none" stroke="black" points="423.5,-375.711 423.5,-394.711 500.5,-394.711 500.5,-375.711 423.5,-375.711"/>
<text text-anchor="middle" x="462" y="-382.711" font-family="DejaVuSansMono" font-size="10.00">jid_to_str</text>
</a>
</g>
<!-- Node3&#45;&gt;Node4 -->
<g id="edge6" class="edge"><title>Node3&#45;&gt;Node4</title>
<path fill="none" stroke="midnightblue" d="M307.483,-318.764C315.338,-321.228 323.018,-324.323 330,-328.211 350.326,-339.528 345.639,-354.957 366,-366.211 380.249,-374.086 397.305,-378.723 413.008,-381.443"/>
<polygon fill="midnightblue" stroke="midnightblue" points="412.677,-384.933 423.088,-382.969 413.725,-378.012 412.677,-384.933"/>
</g>
<!-- Node5 -->
<g id="node9" class="node"><title>Node5</title>
<a xlink:href="../../dd/d4d/xmpp__client_8c.html#af963b026952bdbc45a4df0fa3d69b641" target="_top" xlink:title="Return the JID for this client.">
<polygon fill="none" stroke="black" points="408.5,-337.711 408.5,-356.711 515.5,-356.711 515.5,-337.711 408.5,-337.711"/>
<text text-anchor="middle" x="462" y="-344.711" font-family="DejaVuSansMono" font-size="10.00">xmpp_client_jid</text>
</a>
</g>
<!-- Node3&#45;&gt;Node5 -->
<g id="edge8" class="edge"><title>Node3&#45;&gt;Node5</title>
<path fill="none" stroke="midnightblue" d="M293.984,-318.751C325.787,-324.17 365.68,-330.968 398.501,-336.561"/>
<polygon fill="midnightblue" stroke="midnightblue" points="397.997,-340.025 408.443,-338.255 399.173,-333.125 397.997,-340.025"/>
</g>
<!-- Node6 -->
<g id="node11" class="node"><title>Node6</title>
<a xlink:href="../../d1/d59/xmpp__stanza_8c.html#a513b6e2da3dce364271ba9315d7b3d95" target="_top" xlink:title="Returns the stanza (and its children) packed into a null&#45;terminated string.">
<polygon fill="none" stroke="black" points="399.5,-299.711 399.5,-318.711 524.5,-318.711 524.5,-299.711 399.5,-299.711"/>
<text text-anchor="middle" x="462" y="-306.711" font-family="DejaVuSansMono" font-size="10.00">xmpp_stanza_string</text>
</a>
</g>
<!-- Node3&#45;&gt;Node6 -->
<g id="edge10" class="edge"><title>Node3&#45;&gt;Node6</title>
<path fill="none" stroke="midnightblue" d="M311.637,-309.211C336.613,-309.211 364.466,-309.211 389.29,-309.211"/>
<polygon fill="midnightblue" stroke="midnightblue" points="389.363,-312.711 399.363,-309.211 389.363,-305.711 389.363,-312.711"/>
</g>
<!-- Node11 -->
<g id="node21" class="node"><title>Node11</title>
<a xlink:href="../../d4/d8e/client__socket_8c.html#a7cf0a0cfe0cf2bdccee28f6eab9aa632" target="_top" xlink:title="Send all data in a buffer to the connected socket.">
<polygon fill="none" stroke="black" points="390.5,-261.711 390.5,-280.711 533.5,-280.711 533.5,-261.711 390.5,-261.711"/>
<text text-anchor="middle" x="462" y="-268.711" font-family="DejaVuSansMono" font-size="10.00">client_socket_sendall</text>
</a>
</g>
<!-- Node3&#45;&gt;Node11 -->
<g id="edge20" class="edge"><title>Node3&#45;&gt;Node11</title>
<path fill="none" stroke="midnightblue" d="M293.984,-299.671C324.602,-294.454 362.719,-287.958 394.804,-282.491"/>
<polygon fill="midnightblue" stroke="midnightblue" points="395.723,-285.885 404.992,-280.755 394.547,-278.984 395.723,-285.885"/>
</g>
<!-- Node13 -->
<g id="node25" class="node"><title>Node13</title>
<a xlink:href="../../dd/d4d/xmpp__client_8c.html#a07c89140b5b826454868ac9395e2efd7" target="_top" xlink:title="Return the socket used to communicate with this client.">
<polygon fill="none" stroke="black" points="399.5,-223.711 399.5,-242.711 524.5,-242.711 524.5,-223.711 399.5,-223.711"/>
<text text-anchor="middle" x="462" y="-230.711" font-family="DejaVuSansMono" font-size="10.00">xmpp_client_socket</text>
</a>
</g>
<!-- Node3&#45;&gt;Node13 -->
<g id="edge24" class="edge"><title>Node3&#45;&gt;Node13</title>
<path fill="none" stroke="midnightblue" d="M307.483,-299.658C315.338,-297.194 323.018,-294.098 330,-290.211 350.326,-278.894 345.639,-263.465 366,-252.211 373.354,-248.147 381.454,-244.945 389.731,-242.424"/>
<polygon fill="midnightblue" stroke="midnightblue" points="390.764,-245.771 399.494,-239.767 388.925,-239.016 390.764,-245.771"/>
</g>
<!-- Node14 -->
<g id="node27" class="node"><title>Node14</title>
<a xlink:href="../../d0/df0/xmpp__server_8c.html#a79e02871228c509de0c70961d74a1bcb" target="_top" xlink:title="Attempt to cleanly disconnect a client, and clean up its resources.">
<polygon fill="none" stroke="black" points="366.5,-90.7109 366.5,-109.711 557.5,-109.711 557.5,-90.7109 366.5,-90.7109"/>
<text text-anchor="middle" x="462" y="-97.7109" font-family="DejaVuSansMono" font-size="10.00">xmpp_server_disconnect_client</text>
</a>
</g>
<!-- Node3&#45;&gt;Node14 -->
<g id="edge26" class="edge"><title>Node3&#45;&gt;Node14</title>
<path fill="none" stroke="midnightblue" d="M311.633,-300.638C318.228,-297.958 324.486,-294.544 330,-290.211 359.388,-267.117 345.876,-245.707 366,-214.211 389.739,-177.057 424.194,-138.632 444.429,-117.239"/>
<polygon fill="midnightblue" stroke="midnightblue" points="447.054,-119.559 451.436,-109.912 441.995,-114.72 447.054,-119.559"/>
</g>
<!-- Node7 -->
<g id="node13" class="node"><title>Node7</title>
<a xlink:href="../../d1/d59/xmpp__stanza_8c.html#aae8c30c30fcbc2325d34897f8035ca46" target="_top" xlink:title="Function that gets called recursively to convert a stanza to a string.">
<polygon fill="none" stroke="black" points="612.5,-299.711 612.5,-318.711 701.5,-318.711 701.5,-299.711 612.5,-299.711"/>
<text text-anchor="middle" x="657" y="-306.711" font-family="DejaVuSansMono" font-size="10.00">stanza_tostr</text>
</a>
</g>
<!-- Node6&#45;&gt;Node7 -->
<g id="edge12" class="edge"><title>Node6&#45;&gt;Node7</title>
<path fill="none" stroke="midnightblue" d="M524.597,-309.211C549.598,-309.211 578.211,-309.211 602.34,-309.211"/>
<polygon fill="midnightblue" stroke="midnightblue" points="602.383,-312.711 612.383,-309.211 602.383,-305.711 602.383,-312.711"/>
</g>
<!-- Node8 -->
<g id="node15" class="node"><title>Node8</title>
<a xlink:href="../../d1/dc2/xmpp__parser_8c.html#acce8bfe5926da4e64c3b5038dc683618" target="_top" xlink:title="xmpp_parser_namespace_prefix">
<polygon fill="none" stroke="black" points="756.5,-337.711 756.5,-356.711 941.5,-356.711 941.5,-337.711 756.5,-337.711"/>
<text text-anchor="middle" x="849" y="-344.711" font-family="DejaVuSansMono" font-size="10.00">xmpp_parser_namespace_prefix</text>
</a>
</g>
<!-- Node7&#45;&gt;Node8 -->
<g id="edge14" class="edge"><title>Node7&#45;&gt;Node8</title>
<path fill="none" stroke="midnightblue" d="M701.59,-317.929C727.953,-323.201 761.875,-329.986 790.428,-335.696"/>
<polygon fill="midnightblue" stroke="midnightblue" points="789.79,-339.138 800.282,-337.667 791.163,-332.274 789.79,-339.138"/>
</g>
<!-- Node9 -->
<g id="node17" class="node"><title>Node9</title>
<a xlink:href="../../d1/dc2/xmpp__parser_8c.html#afde3cf0e74a12bfe4ac90fa8dbae51a0" target="_top" xlink:title="xmpp_parser_namespace_uri">
<polygon fill="none" stroke="black" points="765.5,-299.711 765.5,-318.711 932.5,-318.711 932.5,-299.711 765.5,-299.711"/>
<text text-anchor="middle" x="849" y="-306.711" font-family="DejaVuSansMono" font-size="10.00">xmpp_parser_namespace_uri</text>
</a>
</g>
<!-- Node7&#45;&gt;Node9 -->
<g id="edge16" class="edge"><title>Node7&#45;&gt;Node9</title>
<path fill="none" stroke="midnightblue" d="M701.59,-309.211C717.656,-309.211 736.53,-309.211 755.285,-309.211"/>
<polygon fill="midnightblue" stroke="midnightblue" points="755.368,-312.711 765.368,-309.211 755.368,-305.711 755.368,-312.711"/>
</g>
<!-- Node10 -->
<g id="node19" class="node"><title>Node10</title>
<a xlink:href="../../d1/dc2/xmpp__parser_8c.html#af924e15caac53b347a48878fcb046bc4" target="_top" xlink:title="Return the next namespace in the namespace list.">
<polygon fill="none" stroke="black" points="762.5,-261.711 762.5,-280.711 935.5,-280.711 935.5,-261.711 762.5,-261.711"/>
<text text-anchor="middle" x="849" y="-268.711" font-family="DejaVuSansMono" font-size="10.00">xmpp_parser_namespace_next</text>
</a>
</g>
<!-- Node7&#45;&gt;Node10 -->
<g id="edge18" class="edge"><title>Node7&#45;&gt;Node10</title>
<path fill="none" stroke="midnightblue" d="M701.59,-300.493C727.953,-295.22 761.875,-288.436 790.428,-282.725"/>
<polygon fill="midnightblue" stroke="midnightblue" points="791.163,-286.148 800.282,-280.754 789.79,-279.284 791.163,-286.148"/>
</g>
<!-- Node12 -->
<g id="node23" class="node"><title>Node12</title>
<a xlink:href="../../d4/d8e/client__socket_8c.html#a164381b69f823fab1b8bce59ca03aefe" target="_top" xlink:title="Send some data to a client_socket.">
<polygon fill="none" stroke="black" points="594.5,-261.711 594.5,-280.711 719.5,-280.711 719.5,-261.711 594.5,-261.711"/>
<text text-anchor="middle" x="657" y="-268.711" font-family="DejaVuSansMono" font-size="10.00">client_socket_send</text>
</a>
</g>
<!-- Node11&#45;&gt;Node12 -->
<g id="edge22" class="edge"><title>Node11&#45;&gt;Node12</title>
<path fill="none" stroke="midnightblue" d="M533.77,-271.211C550.252,-271.211 567.814,-271.211 584.335,-271.211"/>
<polygon fill="midnightblue" stroke="midnightblue" points="584.467,-274.711 594.467,-271.211 584.467,-267.711 584.467,-274.711"/>
</g>
<!-- Node14&#45;&gt;Node1 -->
<g id="edge30" class="edge"><title>Node14&#45;&gt;Node1</title>
<path fill="none" stroke="midnightblue" d="M449.332,-90.5239C427.548,-73.1431 378.495,-37.2598 330,-24.2109 250.173,-2.73138 215.717,16.9035 144,-24.2109 93.7289,-53.0305 69.1162,-122.466 59.7207,-156.6"/>
<polygon fill="midnightblue" stroke="midnightblue" points="56.3159,-155.787 57.1917,-166.345 63.0914,-157.545 56.3159,-155.787"/>
</g>
<!-- Node15 -->
<g id="node29" class="node"><title>Node15</title>
<a xlink:href="../../dd/d4d/xmpp__client_8c.html#a5ff8a826aface187b00ffcdfb7ce125a" target="_top" xlink:title="Return the server this client is connected to.">
<polygon fill="none" stroke="black" points="594.5,-90.7109 594.5,-109.711 719.5,-109.711 719.5,-90.7109 594.5,-90.7109"/>
<text text-anchor="middle" x="657" y="-97.7109" font-family="DejaVuSansMono" font-size="10.00">xmpp_client_server</text>
</a>
</g>
<!-- Node14&#45;&gt;Node15 -->
<g id="edge28" class="edge"><title>Node14&#45;&gt;Node15</title>
<path fill="none" stroke="midnightblue" d="M557.521,-100.211C566.514,-100.211 575.53,-100.211 584.256,-100.211"/>
<polygon fill="midnightblue" stroke="midnightblue" points="584.347,-103.711 594.347,-100.211 584.347,-96.711 584.347,-103.711"/>
</g>
</g>
</svg>
        <g id="navigator" transform="translate(0 0)" fill="#404254">
                <rect fill="#f2f5e9" fill-opacity="0.5" stroke="#606060" stroke-width=".5" x="0" y="0" width="60" height="60"/>
                <use id="zoomplus" xlink:href="#zoomPlus" x="17" y="9" onmousedown="handleZoom(evt,'in')"/>
                <use id="zoomminus" xlink:href="#zoomMin" x="42" y="9" onmousedown="handleZoom(evt,'out')"/>
                <use id="reset" xlink:href="#resetDef" x="30" y="36" onmousedown="handleReset()"/>
                <g id="arrowUp" xlink:href="#dirArrow" transform="translate(30 24)" onmousedown="handlePan(0,-1)">
                  <use xlink:href="#rim" fill="#404040">
                        <set attributeName="fill" to="#808080" begin="arrowUp.mouseover" end="arrowUp.mouseout"/>
                  </use>
                  <path fill="none" stroke="white" stroke-width="1.5" d="M0,-3.0v7 M-2.5,-0.5L0,-3.0L2.5,-0.5"/>
                </g>
                <g id="arrowRight" xlink:href="#dirArrow" transform="rotate(90) translate(36 -43)" onmousedown="handlePan(1,0)">
                  <use xlink:href="#rim" fill="#404040">
                        <set attributeName="fill" to="#808080" begin="arrowRight.mouseover" end="arrowRight.mouseout"/>
                  </use>
                  <path fill="none" stroke="white" stroke-width="1.5" d="M0,-3.0v7 M-2.5,-0.5L0,-3.0L2.5,-0.5"/>
                </g>
                <g id="arrowDown" xlink:href="#dirArrow" transform="rotate(180) translate(-30 -48)" onmousedown="handlePan(0,1)">
                  <use xlink:href="#rim" fill="#404040">
                        <set attributeName="fill" to="#808080" begin="arrowDown.mouseover" end="arrowDown.mouseout"/>
                  </use>
                  <path fill="none" stroke="white" stroke-width="1.5" d="M0,-3.0v7 M-2.5,-0.5L0,-3.0L2.5,-0.5"/>
                </g>
                <g id="arrowLeft" xlink:href="#dirArrow" transform="rotate(270) translate(-36 17)" onmousedown="handlePan(-1,0)">
                  <use xlink:href="#rim" fill="#404040">
                        <set attributeName="fill" to="#808080" begin="arrowLeft.mouseover" end="arrowLeft.mouseout"/>
                  </use>
                  <path fill="none" stroke="white" stroke-width="1.5" d="M0,-3.0v7 M-2.5,-0.5L0,-3.0L2.5,-0.5"/>
                </g>
        </g>
        <svg viewBox="0 0 25 25" width="100%" height="30px" preserveAspectRatio="xMaxYMin meet"> 
          <g id="printButton" transform="scale(0.4 0.4)" onmousedown="handlePrint(evt)">
            <rect height="23.33753581" id="paper" rx="2" style="fill:#f2f5e9;fill-rule:evenodd;stroke:#111111;stroke-width:3.224;stroke-linejoin:round;" transform="matrix(1.000000,0.000000,-0.339266,0.940691,0.000000,0.000000)" width="25.55231285" x="26.69387353" y="7.36162977"/>
            <rect height="26.272097" id="body" rx="2" style="fill:#404040;fill-rule:evenodd;stroke:#111111;stroke-width:3.125;stroke-linejoin:round;" width="50" x="4.5295201" y="27.078951"/>
            <rect height="8.27750969" id="tray" style="fill:#d2d5c9;fill-rule:evenodd;stroke:#111111;stroke-width:3.125;stroke-linecap:round;stroke-linejoin:round;" width="40" x="10.28778839" y="44.96812282"/>
          </g>
        </svg>
</svg>
