<?xml version="1.0" encoding="UTF-8" standalone="no"?>
<!DOCTYPE svg PUBLIC "-//W3C//DTD SVG 1.1//EN"
 "http://www.w3.org/Graphics/SVG/1.1/DTD/svg11.dtd">
<!-- Generated by graphviz version 2.28.0 (20120217.0315)
 -->
<!-- Title: G Pages: 1 -->
<svg width="350pt" height="28pt"
 viewBox="0.00 0.00 350.00 28.00" xmlns="http://www.w3.org/2000/svg" xmlns:xlink="http://www.w3.org/1999/xlink">
<g id="graph1" class="graph" transform="scale(1 1) rotate(0) translate(4 24)">
<title>G</title>
<!-- Node1 -->
<g id="node1" class="node"><title>Node1</title>
<polygon fill="#bfbfbf" stroke="black" points="0.5,-0.5 0.5,-19.5 113.5,-19.5 113.5,-0.5 0.5,-0.5"/>
<text text-anchor="middle" x="57" y="-7.5" font-family="DejaVuSansMono" font-size="10.00">xmp3_modules_del</text>
</g>
<!-- Node2 -->
<g id="node3" class="node"><title>Node2</title>
<a xlink:href="../../dc/d25/xmp3__options_8h.html#afb9ad881010fa12689fd32fa057e053d" target="_top" xlink:title="Cleans up and frees an XMP3 options instance.">
<polygon fill="none" stroke="black" points="150.5,-0.5 150.5,-19.5 263.5,-19.5 263.5,-0.5 150.5,-0.5"/>
<text text-anchor="middle" x="207" y="-7.5" font-family="DejaVuSansMono" font-size="10.00">xmp3_options_del</text>
</a>
</g>
<!-- Node1&#45;&gt;Node2 -->
<g id="edge2" class="edge"><title>Node1&#45;&gt;Node2</title>
<path fill="none" stroke="midnightblue" d="M123.768,-10C132.576,-10 141.542,-10 150.158,-10"/>
<polygon fill="midnightblue" stroke="midnightblue" points="123.531,-6.5001 113.531,-10 123.531,-13.5001 123.531,-6.5001"/>
</g>
<!-- Node3 -->
<g id="node5" class="node"><title>Node3</title>
<a xlink:href="../../d0/d29/main_8c.html#a0ddf1224851353fc92bfbff6f499fa97" target="_top" xlink:title="main">
<polygon fill="none" stroke="black" points="300.5,-0.5 300.5,-19.5 341.5,-19.5 341.5,-0.5 300.5,-0.5"/>
<text text-anchor="middle" x="321" y="-7.5" font-family="DejaVuSansMono" font-size="10.00">main</text>
</a>
</g>
<!-- Node2&#45;&gt;Node3 -->
<g id="edge4" class="edge"><title>Node2&#45;&gt;Node3</title>
<path fill="none" stroke="midnightblue" d="M273.818,-10C283.462,-10 292.705,-10 300.355,-10"/>
<polygon fill="midnightblue" stroke="midnightblue" points="273.672,-6.5001 263.672,-10 273.672,-13.5001 273.672,-6.5001"/>
</g>
</g>
</svg>
