<?xml version="1.0" encoding="UTF-8" standalone="no"?>
<!DOCTYPE svg PUBLIC "-//W3C//DTD SVG 1.1//EN"
 "http://www.w3.org/Graphics/SVG/1.1/DTD/svg11.dtd">
<!-- Generated by graphviz version 2.28.0 (20120217.0315)
 -->
<!-- Title: G Pages: 1 -->
<!--zoomable 630 -->
<svg id="main" version="1.1" xmlns="http://www.w3.org/2000/svg" xmlns:xlink="http://www.w3.org/1999/xlink" xml:space="preserve" onload="init(evt)">
        <defs>
                <circle id="rim" cx="0" cy="0" r="7"/>
                <circle id="rim2" cx="0" cy="0" r="3.5"/>
                <g id="zoomPlus">
                        <use xlink:href="#rim" fill="#404040">
                                <set attributeName="fill" to="#808080" begin="zoomplus.mouseover" end="zoomplus.mouseout"/>
                        </use>
                        <path d="M-4,0h8M0,-4v8" fill="none" stroke="white" stroke-width="1.5" pointer-events="none"/>
                </g>
                <g id="zoomMin">
                        <use xlink:href="#rim" fill="#404040">
                                <set attributeName="fill" to="#808080" begin="zoomminus.mouseover" end="zoomminus.mouseout"/>
                        </use>
                        <path d="M-4,0h8" fill="none" stroke="white" stroke-width="1.5" pointer-events="none"/>
                </g>
                <g id="dirArrow">
                        <path fill="none" stroke="white" stroke-width="1.5" d="M0,-3.0v7 M-2.5,-0.5L0,-3.0L2.5,-0.5"/>
                </g>
               <g id="resetDef">
                       <use xlink:href="#rim2" fill="#404040">
                               <set attributeName="fill" to="#808080" begin="reset.mouseover" end="reset.mouseout"/>
                       </use>
               </g>
        </defs>

<script type="text/javascript">
var viewWidth = 1166;
var viewHeight = 630;
var sectionId = 'dynsection-6';
</script>
<script xlink:href="../../svgpan.js"/>
<svg id="graph" class="graph">
<g id="viewport">
<title>G</title>
<!-- Node1 -->
<g id="node1" class="node"><title>Node1</title>
<polygon fill="#bfbfbf" stroke="black" points="648.5,-602.958 648.5,-621.958 785.5,-621.958 785.5,-602.958 648.5,-602.958"/>
<text text-anchor="middle" x="717" y="-609.958" font-family="DejaVuSansMono" font-size="10.00">xmpp_client_iterator</text>
</g>
<!-- Node2 -->
<g id="node2" class="node"><title>Node2</title>
<a xlink:href="../../d0/df0/xmpp__server_8c.html#d5/da1/structc__client" target="_top" xlink:title="c_client">
<polygon fill="none" stroke="black" points="445.5,-441.958 445.5,-460.958 510.5,-460.958 510.5,-441.958 445.5,-441.958"/>
<text text-anchor="middle" x="478" y="-448.958" font-family="DejaVuSansMono" font-size="10.00">c_client</text>
</a>
</g>
<!-- Node2&#45;&gt;Node1 -->
<g id="edge2" class="edge"><title>Node2&#45;&gt;Node1</title>
<path fill="none" stroke="#9a32cd" stroke-dasharray="5,2" d="M494.413,-468.5C522.219,-498.227 583.873,-559.613 648,-593.458 655.263,-597.292 663.382,-600.42 671.412,-602.95"/>
<polygon fill="#9a32cd" stroke="#9a32cd" points="496.848,-465.978 487.494,-461.004 491.705,-470.726 496.848,-465.978"/>
<text text-anchor="middle" x="587" y="-584.458" font-family="DejaVuSansMono" font-size="10.00"> client</text>
</g>
<!-- Node2&#45;&gt;Node2 -->
<g id="edge4" class="edge"><title>Node2&#45;&gt;Node2</title>
<path fill="none" stroke="#9a32cd" stroke-dasharray="5,2" d="M460.223,-470.858C461.41,-475.773 467.336,-479.458 478,-479.458 495.062,-479.458 499.995,-470.023 492.796,-461.215"/>
<polygon fill="#9a32cd" stroke="#9a32cd" points="463.594,-471.803 463.204,-461.215 456.907,-469.736 463.594,-471.803"/>
<text text-anchor="middle" x="478" y="-493.458" font-family="DejaVuSansMono" font-size="10.00"> prev</text>
<text text-anchor="middle" x="478" y="-482.458" font-family="DejaVuSansMono" font-size="10.00">next</text>
</g>
<!-- Node4 -->
<g id="node7" class="node"><title>Node4</title>
<a xlink:href="../../d0/df0/xmpp__server_8c.html#d8/d34/structxmpp__server" target="_top" xlink:title="Holds data on a XMPP server (connected clients, routes, etc.).">
<polygon fill="none" stroke="black" points="675.5,-237.958 675.5,-256.958 758.5,-256.958 758.5,-237.958 675.5,-237.958"/>
<text text-anchor="middle" x="717" y="-244.958" font-family="DejaVuSansMono" font-size="10.00">xmpp_server</text>
</a>
</g>
<!-- Node2&#45;&gt;Node4 -->
<g id="edge46" class="edge"><title>Node2&#45;&gt;Node4</title>
<path fill="none" stroke="#9a32cd" stroke-dasharray="5,2" d="M490.184,-433.177C501.623,-416.012 520.952,-390.877 544,-376.458 577.543,-355.474 596.802,-374.984 630,-353.458 669.568,-327.801 699.587,-277.981 710.993,-257.067"/>
<polygon fill="#9a32cd" stroke="#9a32cd" points="487.122,-431.467 484.667,-441.774 493.014,-435.248 487.122,-431.467"/>
<text text-anchor="middle" x="587" y="-379.458" font-family="DejaVuSansMono" font-size="10.00"> clients</text>
</g>
<!-- Node3 -->
<g id="node5" class="node"><title>Node3</title>
<a xlink:href="../../dd/d4d/xmpp__client_8c.html#de/de2/structxmpp__client" target="_top" xlink:title="Data on a connected client.">
<polygon fill="none" stroke="black" points="876.5,-349.958 876.5,-368.958 959.5,-368.958 959.5,-349.958 876.5,-349.958"/>
<text text-anchor="middle" x="918" y="-356.958" font-family="DejaVuSansMono" font-size="10.00">xmpp_client</text>
</a>
</g>
<!-- Node3&#45;&gt;Node2 -->
<g id="edge6" class="edge"><title>Node3&#45;&gt;Node2</title>
<path fill="none" stroke="#9a32cd" stroke-dasharray="5,2" d="M902.702,-376.885C889.968,-391.04 869.99,-410.132 848,-419.458 731.674,-468.794 576.521,-461.245 510.682,-455.071"/>
<polygon fill="#9a32cd" stroke="#9a32cd" points="905.426,-379.085 909.322,-369.233 900.133,-374.505 905.426,-379.085"/>
<text text-anchor="middle" x="717" y="-461.458" font-family="DejaVuSansMono" font-size="10.00"> client</text>
</g>
<!-- Node13 -->
<g id="node32" class="node"><title>Node13</title>
<a xlink:href="../../d0/df0/xmpp__server_8c.html#d2/d06/structclient__listener" target="_top" xlink:title="Holds data on how to notify a component when a client disconnects.">
<polygon fill="none" stroke="black" points="1050.5,-153.958 1050.5,-172.958 1157.5,-172.958 1157.5,-153.958 1050.5,-153.958"/>
<text text-anchor="middle" x="1104" y="-160.958" font-family="DejaVuSansMono" font-size="10.00">client_listener</text>
</a>
</g>
<!-- Node3&#45;&gt;Node13 -->
<g id="edge44" class="edge"><title>Node3&#45;&gt;Node13</title>
<path fill="none" stroke="#9a32cd" stroke-dasharray="5,2" d="M935.036,-342.376C972.426,-302.548 1064.43,-204.539 1093.82,-173.236"/>
<polygon fill="#9a32cd" stroke="#9a32cd" points="932.417,-340.052 928.125,-349.738 937.521,-344.843 932.417,-340.052"/>
<text text-anchor="middle" x="1010" y="-298.458" font-family="DejaVuSansMono" font-size="10.00"> client</text>
<text text-anchor="middle" x="1010" y="-287.458" font-family="DejaVuSansMono" font-size="10.00">cb</text>
</g>
<!-- Node4&#45;&gt;Node3 -->
<g id="edge8" class="edge"><title>Node4&#45;&gt;Node3</title>
<path fill="none" stroke="#9a32cd" stroke-dasharray="5,2" d="M743.898,-262.034C785.291,-285.331 865.234,-330.323 900.076,-349.933"/>
<polygon fill="#9a32cd" stroke="#9a32cd" points="745.398,-258.862 734.967,-257.007 741.965,-264.962 745.398,-258.862"/>
<text text-anchor="middle" x="826" y="-322.458" font-family="DejaVuSansMono" font-size="10.00"> server</text>
</g>
<!-- Node5 -->
<g id="node9" class="node"><title>Node5</title>
<a xlink:href="../../d0/df0/xmpp__server_8c.html#d4/d94/structstanza__route" target="_top" xlink:title="Holds data on how to send a stanza to a particular JID.">
<polygon fill="none" stroke="black" points="433.5,-158.958 433.5,-177.958 522.5,-177.958 522.5,-158.958 433.5,-158.958"/>
<text text-anchor="middle" x="478" y="-165.958" font-family="DejaVuSansMono" font-size="10.00">stanza_route</text>
</a>
</g>
<!-- Node5&#45;&gt;Node4 -->
<g id="edge10" class="edge"><title>Node5&#45;&gt;Node4</title>
<path fill="none" stroke="#9a32cd" stroke-dasharray="5,2" d="M515.001,-181.38C524.422,-184.711 534.578,-188.258 544,-191.458 593.51,-208.274 651.375,-226.905 685.785,-237.876"/>
<polygon fill="#9a32cd" stroke="#9a32cd" points="516.107,-178.059 505.512,-178.01 513.764,-184.655 516.107,-178.059"/>
<text text-anchor="middle" x="587" y="-221.458" font-family="DejaVuSansMono" font-size="10.00"> stanza_routes</text>
</g>
<!-- Node5&#45;&gt;Node5 -->
<g id="edge12" class="edge"><title>Node5&#45;&gt;Node5</title>
<path fill="none" stroke="#9a32cd" stroke-dasharray="5,2" d="M460.223,-187.858C461.41,-192.773 467.336,-196.458 478,-196.458 495.062,-196.458 499.995,-187.023 492.796,-178.215"/>
<polygon fill="#9a32cd" stroke="#9a32cd" points="463.594,-188.803 463.204,-178.215 456.907,-186.736 463.594,-188.803"/>
<text text-anchor="middle" x="478" y="-210.458" font-family="DejaVuSansMono" font-size="10.00"> prev</text>
<text text-anchor="middle" x="478" y="-199.458" font-family="DejaVuSansMono" font-size="10.00">next</text>
</g>
<!-- Node6 -->
<g id="node12" class="node"><title>Node6</title>
<a xlink:href="../../d1/d59/xmpp__stanza_8c.html#d5/d6b/structxmpp__stanza" target="_top" xlink:title="xmpp_stanza">
<polygon fill="none" stroke="black" points="248.5,-101.958 248.5,-120.958 331.5,-120.958 331.5,-101.958 248.5,-101.958"/>
<text text-anchor="middle" x="290" y="-108.958" font-family="DejaVuSansMono" font-size="10.00">xmpp_stanza</text>
</a>
</g>
<!-- Node6&#45;&gt;Node5 -->
<g id="edge14" class="edge"><title>Node6&#45;&gt;Node5</title>
<path fill="none" stroke="#9a32cd" stroke-dasharray="5,2" d="M331.855,-123.978C366.17,-134.494 414.48,-149.299 445.766,-158.887"/>
<polygon fill="#9a32cd" stroke="#9a32cd" points="332.719,-120.582 322.132,-120.999 330.668,-127.275 332.719,-120.582"/>
<text text-anchor="middle" x="381" y="-150.458" font-family="DejaVuSansMono" font-size="10.00"> cb</text>
</g>
<!-- Node6&#45;&gt;Node6 -->
<g id="edge20" class="edge"><title>Node6&#45;&gt;Node6</title>
<path fill="none" stroke="#9a32cd" stroke-dasharray="5,2" d="M273.334,-130.858C274.447,-135.773 280.002,-139.458 290,-139.458 305.996,-139.458 310.62,-130.023 303.872,-121.215"/>
<polygon fill="#9a32cd" stroke="#9a32cd" points="276.707,-131.794 276.128,-121.215 269.983,-129.846 276.707,-131.794"/>
<text text-anchor="middle" x="290" y="-175.458" font-family="DejaVuSansMono" font-size="10.00"> prev</text>
<text text-anchor="middle" x="290" y="-164.458" font-family="DejaVuSansMono" font-size="10.00">next</text>
<text text-anchor="middle" x="290" y="-153.458" font-family="DejaVuSansMono" font-size="10.00">parent</text>
<text text-anchor="middle" x="290" y="-142.458" font-family="DejaVuSansMono" font-size="10.00">children</text>
</g>
<!-- Node15 -->
<g id="node39" class="node"><title>Node15</title>
<a xlink:href="../../d0/df0/xmpp__server_8c.html#dd/d35/structiq__route" target="_top" xlink:title="Holds data on how to handle a particular iq stanza.">
<polygon fill="none" stroke="black" points="445.5,-80.9582 445.5,-99.9582 510.5,-99.9582 510.5,-80.9582 445.5,-80.9582"/>
<text text-anchor="middle" x="478" y="-87.9582" font-family="DejaVuSansMono" font-size="10.00">iq_route</text>
</a>
</g>
<!-- Node6&#45;&gt;Node15 -->
<g id="edge52" class="edge"><title>Node6&#45;&gt;Node15</title>
<path fill="none" stroke="#9a32cd" stroke-dasharray="5,2" d="M342.18,-105.68C375.141,-101.958 416.952,-97.2378 445.206,-94.0478"/>
<polygon fill="#9a32cd" stroke="#9a32cd" points="341.363,-102.25 331.818,-106.85 342.148,-109.206 341.363,-102.25"/>
<text text-anchor="middle" x="381" y="-108.458" font-family="DejaVuSansMono" font-size="10.00"> cb</text>
</g>
<!-- Node17 -->
<g id="node47" class="node"><title>Node17</title>
<a xlink:href="../../d1/dc2/xmpp__parser_8c.html#d2/da4/structxmpp__parser" target="_top" xlink:title="Structure holding state for the XML parser.">
<polygon fill="none" stroke="black" points="436.5,-42.9582 436.5,-61.9582 519.5,-61.9582 519.5,-42.9582 436.5,-42.9582"/>
<text text-anchor="middle" x="478" y="-49.9582" font-family="DejaVuSansMono" font-size="10.00">xmpp_parser</text>
</a>
</g>
<!-- Node6&#45;&gt;Node17 -->
<g id="edge66" class="edge"><title>Node6&#45;&gt;Node17</title>
<path fill="none" stroke="#9a32cd" stroke-dasharray="5,2" d="M310.383,-95.5698C321.365,-87.3893 335.729,-77.9958 350,-72.4582 377.676,-61.7194 410.873,-56.7406 436.386,-54.4354"/>
<polygon fill="#9a32cd" stroke="#9a32cd" points="308.133,-92.885 302.367,-101.773 312.418,-98.4208 308.133,-92.885"/>
<text text-anchor="middle" x="381" y="-86.4582" font-family="DejaVuSansMono" font-size="10.00"> handler</text>
<text text-anchor="middle" x="381" y="-75.4582" font-family="DejaVuSansMono" font-size="10.00">cur_stanza</text>
</g>
<!-- Node7 -->
<g id="node14" class="node"><title>Node7</title>
<a xlink:href="../../d1/dc2/xmpp__parser_8c.html#dc/d9d/structxmpp__parser__namespace" target="_top" xlink:title="Structure representing an XML namespace.">
<polygon fill="none" stroke="black" points="0.5,-29.9582 0.5,-48.9582 143.5,-48.9582 143.5,-29.9582 0.5,-29.9582"/>
<text text-anchor="middle" x="72" y="-36.9582" font-family="DejaVuSansMono" font-size="10.00">xmpp_parser_namespace</text>
</a>
</g>
<!-- Node7&#45;&gt;Node6 -->
<g id="edge16" class="edge"><title>Node7&#45;&gt;Node6</title>
<path fill="none" stroke="#9a32cd" stroke-dasharray="5,2" d="M111.424,-52.2661C154.061,-66.4786 221.89,-89.0883 260.198,-101.858"/>
<polygon fill="#9a32cd" stroke="#9a32cd" points="112.277,-48.8612 101.683,-49.0192 110.063,-55.5019 112.277,-48.8612"/>
<text text-anchor="middle" x="196" y="-93.4582" font-family="DejaVuSansMono" font-size="10.00"> namespaces</text>
</g>
<!-- Node7&#45;&gt;Node7 -->
<g id="edge18" class="edge"><title>Node7&#45;&gt;Node7</title>
<path fill="none" stroke="#9a32cd" stroke-dasharray="5,2" d="M48.9346,-58.4873C50.1928,-63.5861 57.8812,-67.4582 72,-67.4582 94.0391,-67.4582 100.41,-58.0234 91.112,-49.2152"/>
<polygon fill="#9a32cd" stroke="#9a32cd" points="52.1854,-59.7867 52.888,-49.2152 45.7463,-57.0412 52.1854,-59.7867"/>
<text text-anchor="middle" x="72" y="-70.4582" font-family="DejaVuSansMono" font-size="10.00"> next</text>
</g>
<!-- Node7&#45;&gt;Node17 -->
<g id="edge64" class="edge"><title>Node7&#45;&gt;Node17</title>
<path fill="none" stroke="#9a32cd" stroke-dasharray="5,2" d="M154.02,-42.0652C239.469,-44.8148 370.647,-49.0359 436.431,-51.1527"/>
<polygon fill="#9a32cd" stroke="#9a32cd" points="153.941,-38.561 143.834,-41.7375 153.716,-45.5574 153.941,-38.561"/>
<text text-anchor="middle" x="290" y="-51.4582" font-family="DejaVuSansMono" font-size="10.00"> namespaces</text>
</g>
<!-- Node8 -->
<g id="node18" class="node"><title>Node8</title>
<a xlink:href="../../d1/d59/xmpp__stanza_8c.html#d9/d18/structattribute" target="_top" xlink:title="Structure to store a stanza attribute.">
<polygon fill="none" stroke="black" points="36.5,-101.958 36.5,-120.958 107.5,-120.958 107.5,-101.958 36.5,-101.958"/>
<text text-anchor="middle" x="72" y="-108.958" font-family="DejaVuSansMono" font-size="10.00">attribute</text>
</a>
</g>
<!-- Node8&#45;&gt;Node6 -->
<g id="edge22" class="edge"><title>Node8&#45;&gt;Node6</title>
<path fill="none" stroke="#9a32cd" stroke-dasharray="5,2" d="M118.094,-111.458C156.57,-111.458 211.398,-111.458 248.495,-111.458"/>
<polygon fill="#9a32cd" stroke="#9a32cd" points="117.704,-107.958 107.704,-111.458 117.704,-114.958 117.704,-107.958"/>
<text text-anchor="middle" x="196" y="-114.458" font-family="DejaVuSansMono" font-size="10.00"> attributes</text>
</g>
<!-- Node9 -->
<g id="node20" class="node"><title>Node9</title>
<a xlink:href="../../d3/d5a/jid_8c.html#df/d09/structjid" target="_top" xlink:title="Represents a JID (local/resource).">
<polygon fill="none" stroke="black" points="272.5,-332.958 272.5,-351.958 307.5,-351.958 307.5,-332.958 272.5,-332.958"/>
<text text-anchor="middle" x="290" y="-339.958" font-family="DejaVuSansMono" font-size="10.00">jid</text>
</a>
</g>
<!-- Node9&#45;&gt;Node3 -->
<g id="edge68" class="edge"><title>Node9&#45;&gt;Node3</title>
<path fill="none" stroke="#9a32cd" stroke-dasharray="5,2" d="M317.107,-354.313C327.196,-358.446 338.954,-362.728 350,-365.458 542.09,-412.937 782.077,-382.16 876.33,-366.745"/>
<polygon fill="#9a32cd" stroke="#9a32cd" points="318.234,-350.989 307.662,-350.293 315.493,-357.43 318.234,-350.989"/>
<text text-anchor="middle" x="587" y="-393.458" font-family="DejaVuSansMono" font-size="10.00"> jid</text>
</g>
<!-- Node9&#45;&gt;Node4 -->
<g id="edge56" class="edge"><title>Node9&#45;&gt;Node4</title>
<path fill="none" stroke="#9a32cd" stroke-dasharray="5,2" d="M317.717,-346.61C361.811,-352.572 452.277,-361.025 526,-343.458 597.542,-326.411 672.669,-277.857 702.577,-257.081"/>
<polygon fill="#9a32cd" stroke="#9a32cd" points="317.937,-343.107 307.544,-345.166 316.953,-350.037 317.937,-343.107"/>
<text text-anchor="middle" x="478" y="-356.458" font-family="DejaVuSansMono" font-size="10.00"> jid</text>
</g>
<!-- Node9&#45;&gt;Node5 -->
<g id="edge24" class="edge"><title>Node9&#45;&gt;Node5</title>
<path fill="none" stroke="#9a32cd" stroke-dasharray="5,2" d="M308.584,-326.009C346.707,-290.345 435.994,-206.819 466.537,-178.246"/>
<polygon fill="#9a32cd" stroke="#9a32cd" points="306.177,-323.468 301.265,-332.855 310.959,-328.58 306.177,-323.468"/>
<text text-anchor="middle" x="381" y="-288.458" font-family="DejaVuSansMono" font-size="10.00"> jid</text>
</g>
<!-- Node12 -->
<g id="node28" class="node"><title>Node12</title>
<a xlink:href="../../d0/df0/xmpp__server_8c.html#d9/dbe/structdisco__item" target="_top" xlink:title="Holds data for items to report during a DISCO items query.">
<polygon fill="none" stroke="black" points="439.5,-274.958 439.5,-293.958 516.5,-293.958 516.5,-274.958 439.5,-274.958"/>
<text text-anchor="middle" x="478" y="-281.958" font-family="DejaVuSansMono" font-size="10.00">disco_item</text>
</a>
</g>
<!-- Node9&#45;&gt;Node12 -->
<g id="edge38" class="edge"><title>Node9&#45;&gt;Node12</title>
<path fill="none" stroke="#9a32cd" stroke-dasharray="5,2" d="M317.202,-334.288C351.228,-323.677 410.515,-305.19 446.519,-293.963"/>
<polygon fill="#9a32cd" stroke="#9a32cd" points="316.011,-330.993 307.506,-337.311 318.095,-337.675 316.011,-330.993"/>
<text text-anchor="middle" x="381" y="-326.458" font-family="DejaVuSansMono" font-size="10.00"> jid</text>
</g>
<!-- Node10 -->
<g id="node22" class="node"><title>Node10</title>
<a xlink:href="../../d0/deb/event_8c.html#d9/de5/structevent__loop" target="_top" xlink:title="Contains data about the whole event loop.">
<polygon fill="none" stroke="black" points="439.5,-4.95816 439.5,-23.9582 516.5,-23.9582 516.5,-4.95816 439.5,-4.95816"/>
<text text-anchor="middle" x="478" y="-11.9582" font-family="DejaVuSansMono" font-size="10.00">event_loop</text>
</a>
</g>
<!-- Node10&#45;&gt;Node4 -->
<g id="edge26" class="edge"><title>Node10&#45;&gt;Node4</title>
<path fill="none" stroke="#9a32cd" stroke-dasharray="5,2" d="M517.442,-28.3391C520.423,-29.9104 523.314,-31.6166 526,-33.4582 614.507,-94.1467 688.922,-204.773 710.016,-237.862"/>
<polygon fill="#9a32cd" stroke="#9a32cd" points="518.88,-25.1473 508.344,-24.0285 515.882,-31.4732 518.88,-25.1473"/>
<text text-anchor="middle" x="587" y="-131.458" font-family="DejaVuSansMono" font-size="10.00"> loop</text>
</g>
<!-- Node11 -->
<g id="node24" class="node"><title>Node11</title>
<a xlink:href="../../d0/deb/event_8c.html#de/dcb/structevent__item" target="_top" xlink:title="Contains data for one callback function.">
<polygon fill="none" stroke="black" points="678.5,-5.95816 678.5,-24.9582 755.5,-24.9582 755.5,-5.95816 678.5,-5.95816"/>
<text text-anchor="middle" x="717" y="-12.9582" font-family="DejaVuSansMono" font-size="10.00">event_item</text>
</a>
</g>
<!-- Node10&#45;&gt;Node11 -->
<g id="edge30" class="edge"><title>Node10&#45;&gt;Node11</title>
<path fill="none" stroke="#9a32cd" stroke-dasharray="5,2" d="M526.873,-4.60055C532.623,-3.71898 538.429,-2.9681 544,-2.45816 582.063,1.02592 591.885,0.406331 630,-2.45816 645.961,-3.65772 663.449,-6.09271 678.463,-8.53439"/>
<polygon fill="#9a32cd" stroke="#9a32cd" points="525.935,-1.20846 516.646,-6.30471 527.086,-8.11324 525.935,-1.20846"/>
<text text-anchor="middle" x="587" y="-5.45816" font-family="DejaVuSansMono" font-size="10.00"> func</text>
</g>
<!-- Node11&#45;&gt;Node10 -->
<g id="edge28" class="edge"><title>Node11&#45;&gt;Node10</title>
<path fill="none" stroke="#9a32cd" stroke-dasharray="5,2" d="M668.154,-15.6553C633.644,-15.7494 585.944,-15.7808 544,-15.4582 535.197,-15.3905 525.724,-15.2712 516.807,-15.138"/>
<polygon fill="#9a32cd" stroke="#9a32cd" points="668.431,-19.1546 678.42,-15.6244 668.41,-12.1546 668.431,-19.1546"/>
<text text-anchor="middle" x="587" y="-19.4582" font-family="DejaVuSansMono" font-size="10.00"> events</text>
</g>
<!-- Node11&#45;&gt;Node11 -->
<g id="edge32" class="edge"><title>Node11&#45;&gt;Node11</title>
<path fill="none" stroke="#9a32cd" stroke-dasharray="5,2" d="M697.001,-34.8582C698.337,-39.7727 705.003,-43.4582 717,-43.4582 736.195,-43.4582 741.744,-34.0234 733.646,-25.2152"/>
<polygon fill="#9a32cd" stroke="#9a32cd" points="700.376,-35.81 700.354,-25.2152 693.764,-33.511 700.376,-35.81"/>
<text text-anchor="middle" x="717" y="-57.4582" font-family="DejaVuSansMono" font-size="10.00"> prev</text>
<text text-anchor="middle" x="717" y="-46.4582" font-family="DejaVuSansMono" font-size="10.00">next</text>
</g>
<!-- Node12&#45;&gt;Node4 -->
<g id="edge34" class="edge"><title>Node12&#45;&gt;Node4</title>
<path fill="none" stroke="#9a32cd" stroke-dasharray="5,2" d="M526.663,-277.326C556.391,-272.845 595.438,-266.903 630,-261.458 644.793,-259.127 661.006,-256.506 675.329,-254.167"/>
<polygon fill="#9a32cd" stroke="#9a32cd" points="525.927,-273.897 516.559,-278.846 526.969,-280.819 525.927,-273.897"/>
<text text-anchor="middle" x="587" y="-277.458" font-family="DejaVuSansMono" font-size="10.00"> disco_items</text>
</g>
<!-- Node12&#45;&gt;Node12 -->
<g id="edge36" class="edge"><title>Node12&#45;&gt;Node12</title>
<path fill="none" stroke="#9a32cd" stroke-dasharray="5,2" d="M460.223,-303.858C461.41,-308.773 467.336,-312.458 478,-312.458 495.062,-312.458 499.995,-303.023 492.796,-294.215"/>
<polygon fill="#9a32cd" stroke="#9a32cd" points="463.594,-304.803 463.204,-294.215 456.907,-302.736 463.594,-304.803"/>
<text text-anchor="middle" x="478" y="-326.458" font-family="DejaVuSansMono" font-size="10.00"> prev</text>
<text text-anchor="middle" x="478" y="-315.458" font-family="DejaVuSansMono" font-size="10.00">next</text>
</g>
<!-- Node13&#45;&gt;Node4 -->
<g id="edge40" class="edge"><title>Node13&#45;&gt;Node4</title>
<path fill="none" stroke="#9a32cd" stroke-dasharray="5,2" d="M1049.26,-175.183C971.361,-192.179 828.754,-223.294 758.837,-238.548"/>
<polygon fill="#9a32cd" stroke="#9a32cd" points="1050.33,-178.533 1059.35,-172.981 1048.84,-171.694 1050.33,-178.533"/>
<text text-anchor="middle" x="918" y="-216.458" font-family="DejaVuSansMono" font-size="10.00"> client_listeners</text>
</g>
<!-- Node13&#45;&gt;Node13 -->
<g id="edge42" class="edge"><title>Node13&#45;&gt;Node13</title>
<path fill="none" stroke="#9a32cd" stroke-dasharray="5,2" d="M1086.59,-182.858C1087.76,-187.773 1093.56,-191.458 1104,-191.458 1120.71,-191.458 1125.54,-182.023 1118.49,-173.215"/>
<polygon fill="#9a32cd" stroke="#9a32cd" points="1089.97,-183.8 1089.51,-173.215 1083.27,-181.773 1089.97,-183.8"/>
<text text-anchor="middle" x="1104" y="-205.458" font-family="DejaVuSansMono" font-size="10.00"> prev</text>
<text text-anchor="middle" x="1104" y="-194.458" font-family="DejaVuSansMono" font-size="10.00">next</text>
</g>
<!-- Node14 -->
<g id="node37" class="node"><title>Node14</title>
<a xlink:href="../../d9/db0/structauth__callback.html" target="_top" xlink:title="Holds data for an authentication callback.">
<polygon fill="none" stroke="black" points="430.5,-236.958 430.5,-255.958 525.5,-255.958 525.5,-236.958 430.5,-236.958"/>
<text text-anchor="middle" x="478" y="-243.958" font-family="DejaVuSansMono" font-size="10.00">auth_callback</text>
</a>
</g>
<!-- Node14&#45;&gt;Node4 -->
<g id="edge48" class="edge"><title>Node14&#45;&gt;Node4</title>
<path fill="none" stroke="#9a32cd" stroke-dasharray="5,2" d="M535.595,-246.697C578.69,-246.879 636.974,-247.125 675.488,-247.287"/>
<polygon fill="#9a32cd" stroke="#9a32cd" points="535.556,-243.197 525.541,-246.655 535.526,-250.197 535.556,-243.197"/>
<text text-anchor="middle" x="587" y="-249.458" font-family="DejaVuSansMono" font-size="10.00"> auth_callback</text>
</g>
<!-- Node15&#45;&gt;Node4 -->
<g id="edge50" class="edge"><title>Node15&#45;&gt;Node4</title>
<path fill="none" stroke="#9a32cd" stroke-dasharray="5,2" d="M491.849,-108.544C503.681,-123.853 522.603,-145.206 544,-157.458 578.144,-177.009 594.707,-161.068 630,-178.458 661.594,-194.026 692.199,-222.861 706.916,-237.849"/>
<polygon fill="#9a32cd" stroke="#9a32cd" points="494.519,-106.269 485.737,-100.343 488.907,-110.452 494.519,-106.269"/>
<text text-anchor="middle" x="587" y="-181.458" font-family="DejaVuSansMono" font-size="10.00"> iq_routes</text>
</g>
<!-- Node15&#45;&gt;Node15 -->
<g id="edge54" class="edge"><title>Node15&#45;&gt;Node15</title>
<path fill="none" stroke="#9a32cd" stroke-dasharray="5,2" d="M460.223,-109.858C461.41,-114.773 467.336,-118.458 478,-118.458 495.062,-118.458 499.995,-109.023 492.796,-100.215"/>
<polygon fill="#9a32cd" stroke="#9a32cd" points="463.594,-110.803 463.204,-100.215 456.907,-108.736 463.594,-110.803"/>
<text text-anchor="middle" x="478" y="-132.458" font-family="DejaVuSansMono" font-size="10.00"> prev</text>
<text text-anchor="middle" x="478" y="-121.458" font-family="DejaVuSansMono" font-size="10.00">next</text>
</g>
<!-- Node16 -->
<g id="node44" class="node"><title>Node16</title>
<a xlink:href="../../d9/d71/client__socket_8h.html#df/d6d/structclient__socket" target="_top" xlink:title="client_socket">
<polygon fill="none" stroke="black" points="669.5,-480.958 669.5,-499.958 764.5,-499.958 764.5,-480.958 669.5,-480.958"/>
<text text-anchor="middle" x="717" y="-487.958" font-family="DejaVuSansMono" font-size="10.00">client_socket</text>
</a>
</g>
<!-- Node16&#45;&gt;Node3 -->
<g id="edge58" class="edge"><title>Node16&#45;&gt;Node3</title>
<path fill="none" stroke="#9a32cd" stroke-dasharray="5,2" d="M774.846,-489.259C799.085,-486.4 826.638,-479.819 848,-465.458 884.264,-441.079 905.843,-390.55 913.655,-369.257"/>
<polygon fill="#9a32cd" stroke="#9a32cd" points="774.294,-485.796 764.689,-490.268 774.987,-492.762 774.294,-485.796"/>
<text text-anchor="middle" x="826" y="-486.458" font-family="DejaVuSansMono" font-size="10.00"> socket</text>
</g>
<!-- Node16&#45;&gt;Node16 -->
<g id="edge60" class="edge"><title>Node16&#45;&gt;Node16</title>
<path fill="none" stroke="#9a32cd" stroke-dasharray="5,2" d="M697.001,-509.858C698.337,-514.773 705.003,-518.458 717,-518.458 736.195,-518.458 741.744,-509.023 733.646,-500.215"/>
<polygon fill="#9a32cd" stroke="#9a32cd" points="700.376,-510.81 700.354,-500.215 693.764,-508.511 700.376,-510.81"/>
<text text-anchor="middle" x="717" y="-576.458" font-family="DejaVuSansMono" font-size="10.00"> recv_func</text>
<text text-anchor="middle" x="717" y="-565.458" font-family="DejaVuSansMono" font-size="10.00">send_func</text>
<text text-anchor="middle" x="717" y="-554.458" font-family="DejaVuSansMono" font-size="10.00">close_func</text>
<text text-anchor="middle" x="717" y="-543.458" font-family="DejaVuSansMono" font-size="10.00">del_func</text>
<text text-anchor="middle" x="717" y="-532.458" font-family="DejaVuSansMono" font-size="10.00">fd_func</text>
<text text-anchor="middle" x="717" y="-521.458" font-family="DejaVuSansMono" font-size="10.00">str_func</text>
</g>
<!-- Node17&#45;&gt;Node3 -->
<g id="edge62" class="edge"><title>Node17&#45;&gt;Node3</title>
<path fill="none" stroke="#9a32cd" stroke-dasharray="5,2" d="M512.778,-65.7365C572.03,-90.0409 696.861,-145.835 786,-217.458 839.6,-260.526 891.36,-325.676 909.856,-349.924"/>
<polygon fill="#9a32cd" stroke="#9a32cd" points="514.092,-62.4925 503.51,-61.9729 511.458,-68.9781 514.092,-62.4925"/>
<text text-anchor="middle" x="717" y="-220.458" font-family="DejaVuSansMono" font-size="10.00"> parser</text>
</g>
</g>
</svg>
        <g id="navigator" transform="translate(0 0)" fill="#404254">
                <rect fill="#f2f5e9" fill-opacity="0.5" stroke="#606060" stroke-width=".5" x="0" y="0" width="60" height="60"/>
                <use id="zoomplus" xlink:href="#zoomPlus" x="17" y="9" onmousedown="handleZoom(evt,'in')"/>
                <use id="zoomminus" xlink:href="#zoomMin" x="42" y="9" onmousedown="handleZoom(evt,'out')"/>
                <use id="reset" xlink:href="#resetDef" x="30" y="36" onmousedown="handleReset()"/>
                <g id="arrowUp" xlink:href="#dirArrow" transform="translate(30 24)" onmousedown="handlePan(0,-1)">
                  <use xlink:href="#rim" fill="#404040">
                        <set attributeName="fill" to="#808080" begin="arrowUp.mouseover" end="arrowUp.mouseout"/>
                  </use>
                  <path fill="none" stroke="white" stroke-width="1.5" d="M0,-3.0v7 M-2.5,-0.5L0,-3.0L2.5,-0.5"/>
                </g>
                <g id="arrowRight" xlink:href="#dirArrow" transform="rotate(90) translate(36 -43)" onmousedown="handlePan(1,0)">
                  <use xlink:href="#rim" fill="#404040">
                        <set attributeName="fill" to="#808080" begin="arrowRight.mouseover" end="arrowRight.mouseout"/>
                  </use>
                  <path fill="none" stroke="white" stroke-width="1.5" d="M0,-3.0v7 M-2.5,-0.5L0,-3.0L2.5,-0.5"/>
                </g>
                <g id="arrowDown" xlink:href="#dirArrow" transform="rotate(180) translate(-30 -48)" onmousedown="handlePan(0,1)">
                  <use xlink:href="#rim" fill="#404040">
                        <set attributeName="fill" to="#808080" begin="arrowDown.mouseover" end="arrowDown.mouseout"/>
                  </use>
                  <path fill="none" stroke="white" stroke-width="1.5" d="M0,-3.0v7 M-2.5,-0.5L0,-3.0L2.5,-0.5"/>
                </g>
                <g id="arrowLeft" xlink:href="#dirArrow" transform="rotate(270) translate(-36 17)" onmousedown="handlePan(-1,0)">
                  <use xlink:href="#rim" fill="#404040">
                        <set attributeName="fill" to="#808080" begin="arrowLeft.mouseover" end="arrowLeft.mouseout"/>
                  </use>
                  <path fill="none" stroke="white" stroke-width="1.5" d="M0,-3.0v7 M-2.5,-0.5L0,-3.0L2.5,-0.5"/>
                </g>
        </g>
        <svg viewBox="0 0 25 25" width="100%" height="30px" preserveAspectRatio="xMaxYMin meet"> 
          <g id="printButton" transform="scale(0.4 0.4)" onmousedown="handlePrint(evt)">
            <rect height="23.33753581" id="paper" rx="2" style="fill:#f2f5e9;fill-rule:evenodd;stroke:#111111;stroke-width:3.224;stroke-linejoin:round;" transform="matrix(1.000000,0.000000,-0.339266,0.940691,0.000000,0.000000)" width="25.55231285" x="26.69387353" y="7.36162977"/>
            <rect height="26.272097" id="body" rx="2" style="fill:#404040;fill-rule:evenodd;stroke:#111111;stroke-width:3.125;stroke-linejoin:round;" width="50" x="4.5295201" y="27.078951"/>
            <rect height="8.27750969" id="tray" style="fill:#d2d5c9;fill-rule:evenodd;stroke:#111111;stroke-width:3.125;stroke-linecap:round;stroke-linejoin:round;" width="40" x="10.28778839" y="44.96812282"/>
          </g>
        </svg>
</svg>
