<?xml version="1.0" encoding="UTF-8" standalone="no"?>
<!DOCTYPE svg PUBLIC "-//W3C//DTD SVG 1.1//EN"
 "http://www.w3.org/Graphics/SVG/1.1/DTD/svg11.dtd">
<!-- Generated by graphviz version 2.28.0 (20120217.0315)
 -->
<!-- Title: G Pages: 1 -->
<!--zoomable 200 -->
<svg id="main" version="1.1" xmlns="http://www.w3.org/2000/svg" xmlns:xlink="http://www.w3.org/1999/xlink" xml:space="preserve" onload="init(evt)">
        <defs>
                <circle id="rim" cx="0" cy="0" r="7"/>
                <circle id="rim2" cx="0" cy="0" r="3.5"/>
                <g id="zoomPlus">
                        <use xlink:href="#rim" fill="#404040">
                                <set attributeName="fill" to="#808080" begin="zoomplus.mouseover" end="zoomplus.mouseout"/>
                        </use>
                        <path d="M-4,0h8M0,-4v8" fill="none" stroke="white" stroke-width="1.5" pointer-events="none"/>
                </g>
                <g id="zoomMin">
                        <use xlink:href="#rim" fill="#404040">
                                <set attributeName="fill" to="#808080" begin="zoomminus.mouseover" end="zoomminus.mouseout"/>
                        </use>
                        <path d="M-4,0h8" fill="none" stroke="white" stroke-width="1.5" pointer-events="none"/>
                </g>
                <g id="dirArrow">
                        <path fill="none" stroke="white" stroke-width="1.5" d="M0,-3.0v7 M-2.5,-0.5L0,-3.0L2.5,-0.5"/>
                </g>
               <g id="resetDef">
                       <use xlink:href="#rim2" fill="#404040">
                               <set attributeName="fill" to="#808080" begin="reset.mouseover" end="reset.mouseout"/>
                       </use>
               </g>
        </defs>

<script type="text/javascript">
var viewWidth = 2180;
var viewHeight = 200;
var sectionId = 'dynsection-1';
</script>
<script xlink:href="../../svgpan.js"/>
<svg id="graph" class="graph">
<g id="viewport">
<title>G</title>
<!-- Node1 -->
<g id="node1" class="node"><title>Node1</title>
<polygon fill="#bfbfbf" stroke="black" points="0.5,-95.6199 0.5,-114.62 167.5,-114.62 167.5,-95.6199 0.5,-95.6199"/>
<text text-anchor="middle" x="84" y="-102.62" font-family="DejaVuSansMono" font-size="10.00">event_deregister_callback</text>
</g>
<!-- Node2 -->
<g id="node3" class="node"><title>Node2</title>
<a xlink:href="../../d6/d78/xmp3__multicast_8c.html#ad161abeabc58820fd3a24b4422c5b9a7" target="_top" xlink:title="multicast_stop">
<polygon fill="none" stroke="black" points="207.5,-114.62 207.5,-133.62 308.5,-133.62 308.5,-114.62 207.5,-114.62"/>
<text text-anchor="middle" x="258" y="-121.62" font-family="DejaVuSansMono" font-size="10.00">multicast_stop</text>
</a>
</g>
<!-- Node1&#45;&gt;Node2 -->
<g id="edge2" class="edge"><title>Node1&#45;&gt;Node2</title>
<path fill="none" stroke="midnightblue" d="M177.923,-115.385C188.098,-116.509 198.143,-117.618 207.484,-118.65"/>
<polygon fill="midnightblue" stroke="midnightblue" points="178.049,-111.877 167.725,-114.258 177.281,-118.835 178.049,-111.877"/>
</g>
<!-- Node3 -->
<g id="node5" class="node"><title>Node3</title>
<a xlink:href="../../d4/d2f/xmpp__client_8h.html#add2df61245a543667b6d98e3fcd57077" target="_top" xlink:title="xmpp_client_del">
<polygon fill="none" stroke="black" points="204.5,-76.6199 204.5,-95.6199 311.5,-95.6199 311.5,-76.6199 204.5,-76.6199"/>
<text text-anchor="middle" x="258" y="-83.6199" font-family="DejaVuSansMono" font-size="10.00">xmpp_client_del</text>
</a>
</g>
<!-- Node1&#45;&gt;Node3 -->
<g id="edge4" class="edge"><title>Node1&#45;&gt;Node3</title>
<path fill="none" stroke="midnightblue" d="M177.891,-94.8587C186.875,-93.8663 195.758,-92.885 204.145,-91.9585"/>
<polygon fill="midnightblue" stroke="midnightblue" points="177.281,-91.4047 167.725,-95.9816 178.049,-98.3624 177.281,-91.4047"/>
</g>
<!-- Node4 -->
<g id="node7" class="node"><title>Node4</title>
<a xlink:href="../../d4/d2f/xmpp__client_8h.html#a1619c0b8f58b2cf09a322bf34fbc3414" target="_top" xlink:title="xmpp_client_new">
<polygon fill="none" stroke="black" points="1698.5,-85.6199 1698.5,-104.62 1805.5,-104.62 1805.5,-85.6199 1698.5,-85.6199"/>
<text text-anchor="middle" x="1752" y="-92.6199" font-family="DejaVuSansMono" font-size="10.00">xmpp_client_new</text>
</a>
</g>
<!-- Node3&#45;&gt;Node4 -->
<g id="edge6" class="edge"><title>Node3&#45;&gt;Node4</title>
<path fill="none" stroke="midnightblue" d="M315.849,-74.7196C391.71,-60.524 530.385,-38.1199 650,-38.1199 650,-38.1199 650,-38.1199 1423,-38.1199 1532.53,-38.1199 1659.63,-69.3528 1718.27,-85.5793"/>
<polygon fill="midnightblue" stroke="midnightblue" points="315.193,-71.2814 306.018,-76.5792 316.494,-78.1594 315.193,-71.2814"/>
</g>
<!-- Node5 -->
<g id="node9" class="node"><title>Node5</title>
<a xlink:href="../../d0/df0/xmpp__server_8c.html#a66363912ef1221a2574f9f99805fe8fd" target="_top" xlink:title="Callback for new client connections.">
<polygon fill="none" stroke="black" points="1845.5,-113.62 1845.5,-132.62 1946.5,-132.62 1946.5,-113.62 1845.5,-113.62"/>
<text text-anchor="middle" x="1896" y="-120.62" font-family="DejaVuSansMono" font-size="10.00">connect_client</text>
</a>
</g>
<!-- Node3&#45;&gt;Node5 -->
<g id="edge46" class="edge"><title>Node3&#45;&gt;Node5</title>
<path fill="none" stroke="midnightblue" d="M302.596,-99.8242C305.871,-101.429 309.046,-103.191 312,-105.12 331.481,-117.837 327.401,-132.307 348,-143.12 468.273,-206.257 514.162,-190.12 650,-190.12 650,-190.12 650,-190.12 1588,-190.12 1686.13,-190.12 1710.97,-179.604 1806,-155.12 1828.9,-149.22 1854.19,-139.833 1871.95,-132.748"/>
<polygon fill="midnightblue" stroke="midnightblue" points="303.769,-96.5169 293.205,-95.7118 300.961,-102.929 303.769,-96.5169"/>
</g>
<!-- Node8 -->
<g id="node15" class="node"><title>Node8</title>
<a xlink:href="../../d1/d2e/xmpp__server_8h.html#af7d75415fd5671841797bf77bbc1a981" target="_top" xlink:title="Cleans up an XMPP server instance.">
<polygon fill="none" stroke="black" points="1842.5,-33.6199 1842.5,-52.6199 1949.5,-52.6199 1949.5,-33.6199 1842.5,-33.6199"/>
<text text-anchor="middle" x="1896" y="-40.6199" font-family="DejaVuSansMono" font-size="10.00">xmpp_server_del</text>
</a>
</g>
<!-- Node3&#45;&gt;Node8 -->
<g id="edge14" class="edge"><title>Node3&#45;&gt;Node8</title>
<path fill="none" stroke="midnightblue" d="M281.94,-71.0564C299.345,-60.3762 324.25,-46.6531 348,-39.1199 477.003,1.79795 514.663,-0.119863 650,-0.119863 650,-0.119863 650,-0.119863 1588,-0.119863 1683.8,-0.119863 1794.8,-20.9086 1853.55,-33.5768"/>
<polygon fill="midnightblue" stroke="midnightblue" points="279.699,-68.3313 273.097,-76.6182 283.426,-74.2567 279.699,-68.3313"/>
</g>
<!-- Node9 -->
<g id="node19" class="node"><title>Node9</title>
<a xlink:href="../../d1/d2e/xmpp__server_8h.html#a79e02871228c509de0c70961d74a1bcb" target="_top" xlink:title="Attempt to cleanly disconnect a client, and clean up its resources.">
<polygon fill="none" stroke="black" points="348.5,-114.62 348.5,-133.62 539.5,-133.62 539.5,-114.62 348.5,-114.62"/>
<text text-anchor="middle" x="444" y="-121.62" font-family="DejaVuSansMono" font-size="10.00">xmpp_server_disconnect_client</text>
</a>
</g>
<!-- Node3&#45;&gt;Node9 -->
<g id="edge20" class="edge"><title>Node3&#45;&gt;Node9</title>
<path fill="none" stroke="midnightblue" d="M315.561,-97.8009C341.654,-103.19 372.238,-109.506 396.903,-114.6"/>
<polygon fill="midnightblue" stroke="midnightblue" points="315.932,-94.3038 305.431,-95.7089 314.516,-101.159 315.932,-94.3038"/>
</g>
<!-- Node4&#45;&gt;Node5 -->
<g id="edge8" class="edge"><title>Node4&#45;&gt;Node5</title>
<path fill="none" stroke="midnightblue" d="M1811.6,-106.674C1823.29,-108.98 1835.45,-111.377 1846.75,-113.605"/>
<polygon fill="midnightblue" stroke="midnightblue" points="1811.96,-103.178 1801.47,-104.678 1810.61,-110.046 1811.96,-103.178"/>
</g>
<!-- Node6 -->
<g id="node11" class="node"><title>Node6</title>
<a xlink:href="../../d1/d2e/xmpp__server_8h.html#a27bfc8e4d424a8bc17ab21a4a09cdf92" target="_top" xlink:title="Allocates and initializes the XMPP server.">
<polygon fill="none" stroke="black" points="1986.5,-71.6199 1986.5,-90.6199 2093.5,-90.6199 2093.5,-71.6199 1986.5,-71.6199"/>
<text text-anchor="middle" x="2040" y="-78.6199" font-family="DejaVuSansMono" font-size="10.00">xmpp_server_new</text>
</a>
</g>
<!-- Node5&#45;&gt;Node6 -->
<g id="edge10" class="edge"><title>Node5&#45;&gt;Node6</title>
<path fill="none" stroke="midnightblue" d="M1939.09,-110.671C1960.62,-104.304 1986.42,-96.671 2006.41,-90.758"/>
<polygon fill="midnightblue" stroke="midnightblue" points="1937.82,-107.397 1929.22,-113.589 1939.8,-114.109 1937.82,-107.397"/>
</g>
<!-- Node7 -->
<g id="node13" class="node"><title>Node7</title>
<a xlink:href="../../d0/d29/main_8c.html#a0ddf1224851353fc92bfbff6f499fa97" target="_top" xlink:title="main">
<polygon fill="none" stroke="black" points="2130.5,-52.6199 2130.5,-71.6199 2171.5,-71.6199 2171.5,-52.6199 2130.5,-52.6199"/>
<text text-anchor="middle" x="2151" y="-59.6199" font-family="DejaVuSansMono" font-size="10.00">main</text>
</a>
</g>
<!-- Node6&#45;&gt;Node7 -->
<g id="edge12" class="edge"><title>Node6&#45;&gt;Node7</title>
<path fill="none" stroke="midnightblue" d="M2103.45,-70.2349C2113.24,-68.528 2122.68,-66.8821 2130.47,-65.5239"/>
<polygon fill="midnightblue" stroke="midnightblue" points="2102.83,-66.7885 2093.58,-71.9538 2104.04,-73.6845 2102.83,-66.7885"/>
</g>
<!-- Node8&#45;&gt;Node6 -->
<g id="edge18" class="edge"><title>Node8&#45;&gt;Node6</title>
<path fill="none" stroke="midnightblue" d="M1942.49,-55.294C1962.13,-60.5486 1984.77,-66.6065 2003.18,-71.5339"/>
<polygon fill="midnightblue" stroke="midnightblue" points="1943.4,-51.913 1932.83,-52.7089 1941.59,-58.6751 1943.4,-51.913"/>
</g>
<!-- Node8&#45;&gt;Node7 -->
<g id="edge16" class="edge"><title>Node8&#45;&gt;Node7</title>
<path fill="none" stroke="midnightblue" d="M1959.9,-47.8434C2015.84,-52.0444 2094.21,-57.9298 2130.34,-60.6432"/>
<polygon fill="midnightblue" stroke="midnightblue" points="1959.96,-44.3386 1949.73,-47.0798 1959.44,-51.3189 1959.96,-44.3386"/>
</g>
<!-- Node10 -->
<g id="node21" class="node"><title>Node10</title>
<a xlink:href="../../d8/d28/xmpp__core_8h.html#a3b41e83061abd7ed5b258c7aa7dda0d6" target="_top" xlink:title="An xmpp_server stanza route for stanzas directed to a local client.">
<polygon fill="none" stroke="black" points="576.5,-85.6199 576.5,-104.62 725.5,-104.62 725.5,-85.6199 576.5,-85.6199"/>
<text text-anchor="middle" x="651" y="-92.6199" font-family="DejaVuSansMono" font-size="10.00">xmpp_core_route_client</text>
</a>
</g>
<!-- Node9&#45;&gt;Node10 -->
<g id="edge22" class="edge"><title>Node9&#45;&gt;Node10</title>
<path fill="none" stroke="midnightblue" d="M522.32,-113.182C542.131,-110.379 563.281,-107.387 582.551,-104.661"/>
<polygon fill="midnightblue" stroke="midnightblue" points="521.82,-109.718 512.409,-114.584 522.8,-116.649 521.82,-109.718"/>
</g>
<!-- Node17 -->
<g id="node38" class="node"><title>Node17</title>
<a xlink:href="../../d0/df0/xmpp__server_8c.html#abece91815ef240322d79073f5bfca1db" target="_top" xlink:title="Callback for new data from a client.">
<polygon fill="none" stroke="black" points="771.5,-132.62 771.5,-151.62 854.5,-151.62 854.5,-132.62 771.5,-132.62"/>
<text text-anchor="middle" x="813" y="-139.62" font-family="DejaVuSansMono" font-size="10.00">read_client</text>
</a>
</g>
<!-- Node9&#45;&gt;Node17 -->
<g id="edge42" class="edge"><title>Node9&#45;&gt;Node17</title>
<path fill="none" stroke="midnightblue" d="M549.767,-129.258C623.475,-132.873 718.098,-137.514 771.176,-140.118"/>
<polygon fill="midnightblue" stroke="midnightblue" points="549.671,-125.749 539.512,-128.755 549.328,-132.741 549.671,-125.749"/>
</g>
<!-- Node10&#45;&gt;Node3 -->
<g id="edge40" class="edge"><title>Node10&#45;&gt;Node3</title>
<path fill="none" stroke="midnightblue" d="M566.305,-93.1934C489.174,-91.418 377.066,-88.8375 311.732,-87.3336"/>
<polygon fill="midnightblue" stroke="midnightblue" points="566.398,-96.6963 576.476,-93.4275 566.559,-89.6982 566.398,-96.6963"/>
</g>
<!-- Node11 -->
<g id="node23" class="node"><title>Node11</title>
<a xlink:href="../../df/da9/xmpp__auth_8c.html#a603b4a63af3c4e4af99442805fe89ae8" target="_top" xlink:title="Step 15: Client binds a resource.">
<polygon fill="none" stroke="black" points="762.5,-85.6199 762.5,-104.62 863.5,-104.62 863.5,-85.6199 762.5,-85.6199"/>
<text text-anchor="middle" x="813" y="-92.6199" font-family="DejaVuSansMono" font-size="10.00">handle_bind_iq</text>
</a>
</g>
<!-- Node10&#45;&gt;Node11 -->
<g id="edge24" class="edge"><title>Node10&#45;&gt;Node11</title>
<path fill="none" stroke="midnightblue" d="M736.006,-95.1199C744.943,-95.1199 753.813,-95.1199 762.168,-95.1199"/>
<polygon fill="midnightblue" stroke="midnightblue" points="735.912,-91.62 725.911,-95.1199 735.911,-98.62 735.912,-91.62"/>
</g>
<!-- Node12 -->
<g id="node25" class="node"><title>Node12</title>
<a xlink:href="../../df/da9/xmpp__auth_8c.html#a01804bd53eccc182ce76337fc0863e8d" target="_top" xlink:title="stream_bind_start">
<polygon fill="none" stroke="black" points="900.5,-85.6199 900.5,-104.62 1019.5,-104.62 1019.5,-85.6199 900.5,-85.6199"/>
<text text-anchor="middle" x="960" y="-92.6199" font-family="DejaVuSansMono" font-size="10.00">stream_bind_start</text>
</a>
</g>
<!-- Node11&#45;&gt;Node12 -->
<g id="edge26" class="edge"><title>Node11&#45;&gt;Node12</title>
<path fill="none" stroke="midnightblue" d="M873.961,-95.1199C882.655,-95.1199 891.597,-95.1199 900.266,-95.1199"/>
<polygon fill="midnightblue" stroke="midnightblue" points="873.901,-91.62 863.901,-95.1199 873.901,-98.62 873.901,-91.62"/>
</g>
<!-- Node13 -->
<g id="node27" class="node"><title>Node13</title>
<a xlink:href="../../df/da9/xmpp__auth_8c.html#afb770a216868aa3fb43813b19d2a0115" target="_top" xlink:title="Begins SASL PLAIN authentication.">
<polygon fill="none" stroke="black" points="1056.5,-85.6199 1056.5,-104.62 1175.5,-104.62 1175.5,-85.6199 1056.5,-85.6199"/>
<text text-anchor="middle" x="1116" y="-92.6199" font-family="DejaVuSansMono" font-size="10.00">handle_sasl_plain</text>
</a>
</g>
<!-- Node12&#45;&gt;Node13 -->
<g id="edge28" class="edge"><title>Node12&#45;&gt;Node13</title>
<path fill="none" stroke="midnightblue" d="M1029.89,-95.1199C1038.69,-95.1199 1047.63,-95.1199 1056.25,-95.1199"/>
<polygon fill="midnightblue" stroke="midnightblue" points="1029.66,-91.62 1019.66,-95.1199 1029.66,-98.62 1029.66,-91.62"/>
</g>
<!-- Node14 -->
<g id="node29" class="node"><title>Node14</title>
<a xlink:href="../../d3/d24/xmpp__auth_8h.html#ad3efd9ab093646bdfd8832c34ae2de4d" target="_top" xlink:title="Handler for the inital stream start to begin authentication.">
<polygon fill="none" stroke="black" points="1512.5,-85.6199 1512.5,-104.62 1661.5,-104.62 1661.5,-85.6199 1512.5,-85.6199"/>
<text text-anchor="middle" x="1587" y="-92.6199" font-family="DejaVuSansMono" font-size="10.00">xmpp_auth_stream_start</text>
</a>
</g>
<!-- Node13&#45;&gt;Node14 -->
<g id="edge30" class="edge"><title>Node13&#45;&gt;Node14</title>
<path fill="none" stroke="midnightblue" d="M1185.99,-95.1199C1273.24,-95.1199 1422.85,-95.1199 1512.28,-95.1199"/>
<polygon fill="midnightblue" stroke="midnightblue" points="1185.92,-91.62 1175.92,-95.1199 1185.92,-98.62 1185.92,-91.62"/>
</g>
<!-- Node15 -->
<g id="node32" class="node"><title>Node15</title>
<a xlink:href="../../df/da9/xmpp__auth_8c.html#afd7b12689591d40109a88ad108b5c3a2" target="_top" xlink:title="stream_sasl_start">
<polygon fill="none" stroke="black" points="1212.5,-104.62 1212.5,-123.62 1331.5,-123.62 1331.5,-104.62 1212.5,-104.62"/>
<text text-anchor="middle" x="1272" y="-111.62" font-family="DejaVuSansMono" font-size="10.00">stream_sasl_start</text>
</a>
</g>
<!-- Node13&#45;&gt;Node15 -->
<g id="edge34" class="edge"><title>Node13&#45;&gt;Node15</title>
<path fill="none" stroke="midnightblue" d="M1185.61,-103.584C1194.5,-104.681 1203.54,-105.797 1212.25,-106.871"/>
<polygon fill="midnightblue" stroke="midnightblue" points="1186.01,-100.108 1175.66,-102.357 1185.16,-107.055 1186.01,-100.108"/>
</g>
<!-- Node14&#45;&gt;Node4 -->
<g id="edge32" class="edge"><title>Node14&#45;&gt;Node4</title>
<path fill="none" stroke="midnightblue" d="M1671.99,-95.1199C1680.95,-95.1199 1689.88,-95.1199 1698.33,-95.1199"/>
<polygon fill="midnightblue" stroke="midnightblue" points="1671.87,-91.62 1661.87,-95.1199 1671.87,-98.62 1671.87,-91.62"/>
</g>
<!-- Node16 -->
<g id="node34" class="node"><title>Node16</title>
<a xlink:href="../../df/da9/xmpp__auth_8c.html#a8dd789e057b9812e4dd1aa524dfb6a65" target="_top" xlink:title="Begins TLS authentication.">
<polygon fill="none" stroke="black" points="1368.5,-104.62 1368.5,-123.62 1475.5,-123.62 1475.5,-104.62 1368.5,-104.62"/>
<text text-anchor="middle" x="1422" y="-111.62" font-family="DejaVuSansMono" font-size="10.00">handle_starttls</text>
</a>
</g>
<!-- Node15&#45;&gt;Node16 -->
<g id="edge36" class="edge"><title>Node15&#45;&gt;Node16</title>
<path fill="none" stroke="midnightblue" d="M1342.09,-114.12C1350.81,-114.12 1359.62,-114.12 1368.04,-114.12"/>
<polygon fill="midnightblue" stroke="midnightblue" points="1341.92,-110.62 1331.92,-114.12 1341.92,-117.62 1341.92,-110.62"/>
</g>
<!-- Node16&#45;&gt;Node14 -->
<g id="edge38" class="edge"><title>Node16&#45;&gt;Node14</title>
<path fill="none" stroke="midnightblue" d="M1485.91,-106.787C1494.56,-105.779 1503.5,-104.737 1512.32,-103.709"/>
<polygon fill="midnightblue" stroke="midnightblue" points="1485.45,-103.317 1475.92,-107.951 1486.26,-110.27 1485.45,-103.317"/>
</g>
<!-- Node17&#45;&gt;Node5 -->
<g id="edge44" class="edge"><title>Node17&#45;&gt;Node5</title>
<path fill="none" stroke="midnightblue" d="M865.199,-144.857C925.08,-147.817 1027.2,-152.12 1115,-152.12 1115,-152.12 1115,-152.12 1588,-152.12 1679.14,-152.12 1784.84,-139.294 1845.42,-130.701"/>
<polygon fill="midnightblue" stroke="midnightblue" points="865.045,-141.345 854.882,-144.339 864.694,-148.336 865.045,-141.345"/>
</g>
</g>
</svg>
        <g id="navigator" transform="translate(0 0)" fill="#404254">
                <rect fill="#f2f5e9" fill-opacity="0.5" stroke="#606060" stroke-width=".5" x="0" y="0" width="60" height="60"/>
                <use id="zoomplus" xlink:href="#zoomPlus" x="17" y="9" onmousedown="handleZoom(evt,'in')"/>
                <use id="zoomminus" xlink:href="#zoomMin" x="42" y="9" onmousedown="handleZoom(evt,'out')"/>
                <use id="reset" xlink:href="#resetDef" x="30" y="36" onmousedown="handleReset()"/>
                <g id="arrowUp" xlink:href="#dirArrow" transform="translate(30 24)" onmousedown="handlePan(0,-1)">
                  <use xlink:href="#rim" fill="#404040">
                        <set attributeName="fill" to="#808080" begin="arrowUp.mouseover" end="arrowUp.mouseout"/>
                  </use>
                  <path fill="none" stroke="white" stroke-width="1.5" d="M0,-3.0v7 M-2.5,-0.5L0,-3.0L2.5,-0.5"/>
                </g>
                <g id="arrowRight" xlink:href="#dirArrow" transform="rotate(90) translate(36 -43)" onmousedown="handlePan(1,0)">
                  <use xlink:href="#rim" fill="#404040">
                        <set attributeName="fill" to="#808080" begin="arrowRight.mouseover" end="arrowRight.mouseout"/>
                  </use>
                  <path fill="none" stroke="white" stroke-width="1.5" d="M0,-3.0v7 M-2.5,-0.5L0,-3.0L2.5,-0.5"/>
                </g>
                <g id="arrowDown" xlink:href="#dirArrow" transform="rotate(180) translate(-30 -48)" onmousedown="handlePan(0,1)">
                  <use xlink:href="#rim" fill="#404040">
                        <set attributeName="fill" to="#808080" begin="arrowDown.mouseover" end="arrowDown.mouseout"/>
                  </use>
                  <path fill="none" stroke="white" stroke-width="1.5" d="M0,-3.0v7 M-2.5,-0.5L0,-3.0L2.5,-0.5"/>
                </g>
                <g id="arrowLeft" xlink:href="#dirArrow" transform="rotate(270) translate(-36 17)" onmousedown="handlePan(-1,0)">
                  <use xlink:href="#rim" fill="#404040">
                        <set attributeName="fill" to="#808080" begin="arrowLeft.mouseover" end="arrowLeft.mouseout"/>
                  </use>
                  <path fill="none" stroke="white" stroke-width="1.5" d="M0,-3.0v7 M-2.5,-0.5L0,-3.0L2.5,-0.5"/>
                </g>
        </g>
        <svg viewBox="0 0 25 25" width="100%" height="30px" preserveAspectRatio="xMaxYMin meet"> 
          <g id="printButton" transform="scale(0.4 0.4)" onmousedown="handlePrint(evt)">
            <rect height="23.33753581" id="paper" rx="2" style="fill:#f2f5e9;fill-rule:evenodd;stroke:#111111;stroke-width:3.224;stroke-linejoin:round;" transform="matrix(1.000000,0.000000,-0.339266,0.940691,0.000000,0.000000)" width="25.55231285" x="26.69387353" y="7.36162977"/>
            <rect height="26.272097" id="body" rx="2" style="fill:#404040;fill-rule:evenodd;stroke:#111111;stroke-width:3.125;stroke-linejoin:round;" width="50" x="4.5295201" y="27.078951"/>
            <rect height="8.27750969" id="tray" style="fill:#d2d5c9;fill-rule:evenodd;stroke:#111111;stroke-width:3.125;stroke-linecap:round;stroke-linejoin:round;" width="40" x="10.28778839" y="44.96812282"/>
          </g>
        </svg>
</svg>
